<svg xmlns="http://www.w3.org/2000/svg" xmlns:xlink="http://www.w3.org/1999/xlink" version="1.1" width="514.4899pt" height="195.80698pt" viewBox="0 0 514.4899 195.80698">
<defs>
<clipPath id="clip_0">
<path transform="matrix(1,0,0,-1,-95.1291,526.384)" d="M95.1291 330.577H609.619V526.384H95.1291Z" fill-rule="evenodd"/>
</clipPath>
<path id="font_1_3" d="M.40966798 .38867188C.45524089 .38867188 .49129234 .39778648 .51782229 .41601563 .54435226 .43424479 .5576172 .4671224 .5576172 .51464846 .5576172 .5657552 .5390625 .60058596 .5019531 .6191406 .48209635 .62890627 .4555664 .63378909 .42236329 .63378909H.1850586V.38867188H.40966798M.087890628 .71777346H.41992188C.47460938 .71777346 .51969406 .709788 .5551758 .69381716 .6225586 .6631775 .65625 .60662338 .65625 .52415469 .65625 .48112489 .6473796 .44591777 .6296387 .41853334 .61189779 .39115907 .58707687 .36916099 .5551758 .35253907 .5831706 .34114585 .60424807 .32617188 .6184082 .3076172 .63256838 .2890625 .6404622 .2589518 .64208987 .21728516L.6455078 .12109375C.6464844 .09388224 .648763 .07363383 .65234377 .06034851 .6582031 .037663778 .6686198 .023081461 .68359377 .016601563V0H.5644531C.56119796 .006184896 .55859377 .014160156 .5566406 .023925782 .5546875 .033691408 .5530599 .052571615 .5517578 .080566409L.54589846 .20019531C.5436198 .24707031 .5262044 .27848307 .49365235 .2944336 .47509767 .30322267 .44596354 .3076172 .40625 .3076172H.1850586V0H.087890628V.71777346Z"/>
<path id="font_1_8" d="M.28222657 .53515627C.31933595 .53515627 .355306 .52644857 .39013673 .5090332 .42496745 .49161784 .4514974 .4690806 .46972657 .4414215 .4873047 .41505433 .49902345 .3842977 .5048828 .3491516 .5100911 .32506309 .5126953 .28647868 .5126953 .23339844H.12939453C.13102214 .18033855 .14355469 .13777669 .16699219 .10571289 .19042969 .073649089 .22672527 .057617189 .2758789 .057617189 .32177735 .057617189 .35839845 .07261658 .3857422 .10261536 .4013672 .12003072 .4124349 .14018758 .4189453 .16308594H.5053711C.50309249 .14398194 .49552409 .122690837 .48266603 .09921265 .46980796 .07574463 .45540367 .05656433 .43945313 .041671754 .4127604 .01576233 .37972007-.0017242432 .34033204-.010787964 .3191732-.01596578 .2952474-.018554688 .2685547-.018554688 .20345052-.018554688 .14827474 .0051472985 .103027347 .05255127 .05777995 .09995524 .03515625 .16634114 .03515625 .25170899 .03515625 .33576457 .057942708 .40401713 .103515628 .45646668 .14908855 .5089264 .20865886 .53515627 .28222657 .53515627M.42236329 .30371095C.41878257 .34191896 .41048179 .37245179 .39746095 .39530946 .3733724 .4377594 .33317057 .45898438 .27685548 .45898438 .23649089 .45898438 .20263672 .44437156 .17529297 .41514588 .14794922 .3859202 .13346355 .34877525 .13183594 .30371095H.42236329M.27392579 .5361328V.5361328Z"/>
<path id="font_1_17" d="M.08203125 .66796877H.17089844V.5234375H.25439454V.4501953H.17089844V.110183719C.17089844 .09202576 .17708333 .07986959 .18945313 .07371521 .19628906 .07014465 .2076823 .068359378 .22363281 .068359378 .22786458 .068359378 .23242188 .06846619 .23730469 .06867981 .2421875 .0689036 .24788411 .06944784 .25439454 .0703125V0C.24430339-.0031026204 .23380535-.005340576 .22290039-.006713867 .21199544-.008097331 .20019531-.0087890629 .1875-.0087890629 .14648438-.0087890629 .118652347 .0016988119 .104003909 .02267456 .08935547 .04365031 .08203125 .070882167 .08203125 .10437012V.4501953H.011230469V.5234375H.08203125V.66796877Z"/>
<path id="font_1_18" d="M.15234375 .5234375V.17590332C.15234375 .1491801 .15657552 .12734477 .16503906 .11039734 .18066406 .07911682 .20979817 .06347656 .2524414 .06347656 .3136393 .06347656 .355306 .09085083 .3774414 .14559937 .3894857 .17492676 .3955078 .21516927 .3955078 .2663269V.5234375H.48339845V0H.40039063L.4013672 .0771637C.38997398 .057195028 .3758138 .040339155 .35888673 .02659607 .32535807-.00090026858 .28466798-.0146484379 .2368164-.0146484379 .16227214-.0146484379 .11149088 .010299683 .084472659 .060195924 .06982422 .08693949 .0625 .12265015 .0625 .16732788V.5234375H.15234375M.27294923 .5361328V.5361328Z"/>
<path id="font_1_15" d="M.06689453 .5234375H.15039063V.4326172C.15722656 .4502767 .17399089 .4717814 .2006836 .49713136 .2273763 .52248129 .25813804 .53515627 .29296876 .53515627 .29459635 .53515627 .29736329 .5349579 .30126954 .53456118 .30517579 .5341746 .31184898 .5333964 .32128907 .53222659V.43945313C.31608073 .44062297 .3112793 .44140116 .30688478 .44178773 .30249024 .44218446 .2976888 .4423828 .29248048 .4423828 .24820964 .4423828 .2141927 .4280599 .19042969 .39941407 .16666667 .37076823 .15478516 .33789063 .15478516 .30078126V0H.06689453V.5234375Z"/>
<path id="font_1_13" d="M.064453128 .5234375H.14794922V.44921876C.1726888 .47981773 .19889324 .50179037 .2265625 .5151367 .25423179 .5284831 .2849935 .53515627 .31884767 .53515627 .3930664 .53515627 .44319663 .5092519 .46923829 .45744325 .4835612 .42910258 .49072267 .38853965 .49072267 .3357544V0H.4013672V.3299408C.4013672 .36188255 .39664714 .38762919 .38720704 .4071808 .37158204 .4397634 .34326173 .4560547 .3022461 .4560547 .28141276 .4560547 .2643229 .4539388 .25097657 .44970704 .22688802 .4425354 .20572917 .42819724 .1875 .4066925 .17285156 .38941957 .16333008 .37157694 .15893555 .35316468 .15454102 .3347524 .15234375 .30844117 .15234375 .27423097V0H.064453128V.5234375M.2709961 .5361328V.5361328Z"/>
<path id="font_1_1" d="M0 0Z"/>
<path id="font_1_5" d="M.13183594 .1394043C.13183594 .114095058 .14111328 .09413656 .15966797 .07952881 .17822266 .06492106 .20019531 .057617189 .22558594 .057617189 .2565104 .057617189 .28645835 .06471761 .3154297 .07891846 .3642578 .10247803 .38867188 .14127605 .38867188 .1953125V.26611329C.3779297 .25886027 .36409507 .2528127 .34716798 .24797058 .33024089 .24313863 .3136393 .23983257 .29736329 .23805237L.24414063 .23184204C.21223958 .22799683 .1883138 .22153218 .17236328 .21244812 .14534505 .19718933 .13183594 .17284139 .13183594 .1394043M.34472657 .31689454C.36490885 .3194987 .37841798 .32796226 .3852539 .34228517 .38916017 .35012818 .39111329 .36140443 .39111329 .3761139 .39111329 .40618388 .38045249 .42799888 .35913087 .44155885 .33780924 .455129 .30729167 .46191407 .26757813 .46191407 .22167969 .46191407 .18912761 .44948326 .16992188 .42462159 .15917969 .4108785 .15218099 .39043174 .14892578 .36328126H.06689453C.06852213 .42791749 .08943685 .47288514 .12963867 .4981842 .1698405 .5234833 .21647136 .5361328 .26953126 .5361328 .3310547 .5361328 .38102214 .52441409 .4194336 .50097659 .45751954 .47753907 .4765625 .4410502 .4765625 .39151V.08985901C.4765625 .08073425 .47843424 .073404949 .48217774 .067871097 .48592124 .06233724 .4938151 .059570314 .5058594 .059570314 .5097656 .059570314 .51416018 .059814454 .51904299 .060302736 .5239258 .060791017 .5291341 .061523439 .53466799 .0625V-.0028076173C.5209961-.00676473 .5105794-.009236653 .50341799-.010223389 .4962565-.011220296 .48649089-.01171875 .4741211-.01171875 .44384767-.01171875 .421875-.0009104411 .40820313 .020706177 .40104167 .032170614 .3959961 .048380536 .3930664 .06933594 .37516276 .045633954 .34944663 .025060019 .31591798 .0076141359 .2823893-.009831746 .2454427-.018554688 .20507813-.018554688 .15657552-.018554688 .11694336-.0037790936 .08618164 .025772095 .055419923 .055323285 .040039064 .092300418 .040039064 .13670349 .040039064 .18535869 .05517578 .22307332 .08544922 .24984741 .115722659 .2766215 .1554362 .29311119 .20458985 .2993164L.34472657 .31689454M.27197267 .5361328V.5361328Z"/>
<path id="font_1_7" d="M.12011719 .2553711C.12011719 .19923909 .1319987 .15224712 .15576172 .11439514 .17952474 .076543178 .21761067 .057617189 .27001954 .057617189 .31070964 .057617189 .3441569 .075154628 .37036134 .11022949 .39656578 .14531453 .40966798 .19565328 .40966798 .26124574 .40966798 .32748924 .39615885 .37651573 .36914063 .4083252 .3421224 .44014488 .3087565 .4560547 .26904298 .4560547 .22477214 .4560547 .18888347 .4390869 .16137696 .40515138 .13387044 .37121583 .12011719 .32128907 .12011719 .2553711M.2524414 .53222659C.29248048 .53222659 .32600913 .52381899 .35302735 .5070038 .36865235 .4972992 .38639323 .48031617 .40625 .4560547V.71875H.49072267V0H.4116211V.07229614C.39111329 .04023234 .36686198 .017074585 .3388672 .002822876 .3108724-.011428833 .2788086-.018554688 .24267578-.018554688 .18440755-.018554688 .13395183 .0059407555 .091308597 .05493164 .048665365 .10392252 .02734375 .16910808 .02734375 .25048829 .02734375 .32666017 .04679362 .39265953 .08569336 .44848634 .1245931 .5043132 .18017578 .53222659 .2524414 .53222659Z"/>
<path id="font_1_16" d="M.11669922 .1640625C.11930338 .13463338 .12662761 .11207072 .13867188 .09637451 .1608073 .06793213 .19921875 .053710939 .25390626 .053710939 .28645835 .053710939 .31510417 .060806276 .33984376 .07499695 .36458335 .08919779 .37695313 .11115011 .37695313 .14085388 .37695313 .16337586 .36702476 .18051148 .34716798 .19226074 .33447267 .19944255 .30940757 .20775859 .27197267 .21720886L.20214844 .2348175C.15755208 .24590557 .12467448 .25829569 .103515628 .27198792 .06575521 .29579164 .046875 .32873027 .046875 .37080384 .046875 .42036439 .064697269 .46046958 .1003418 .49111939 .13598633 .52177938 .18391927 .5371094 .24414063 .5371094 .32291667 .5371094 .37972007 .5139974 .41455079 .46777345 .4363607 .43847657 .4469401 .40690104 .44628907 .37304688H.36328126C.36165367 .39269004 .35465495 .41055808 .34228517 .426651 .32210288 .44950868 .28710938 .4609375 .23730469 .4609375 .20410156 .4609375 .17895508 .45461528 .16186524 .44197084 .14477539 .42933656 .13623047 .41264854 .13623047 .39190675 .13623047 .36922203 .14746094 .35107423 .16992188 .33746339 .1829427 .32936607 .20214844 .32221986 .22753906 .31602479L.28564454 .3018341C.34879557 .28650413 .39111329 .27166749 .41259767 .25732423 .44677735 .23482259 .4638672 .19944255 .4638672 .15118408 .4638672 .10455322 .44620768 .06428019 .41088868 .03036499 .37556968-.0035502117 .32177735-.020507813 .24951172-.020507813 .17171224-.020507813 .116617839-.002802531 .084228519 .032608034 .05183919 .06801859 .034505208 .111836757 .032226564 .1640625H.11669922M.24658203 .5361328V.5361328Z"/>
<path id="font_2_1" d="M0 0Z"/>
<path id="font_3_15" d="M.14550781 .61328127V.34213258C.19498699 .4063619 .25472007 .43847657 .32470704 .43847657 .38460288 .43847657 .4358724 .41672264 .47851563 .37321473 .5211589 .329717 .54248049 .27635703 .54248049 .21313477 .54248049 .14926148 .52091476 .09516398 .4777832 .050842287 .4346517 .0065307619 .3836263-.015625 .32470704-.015625 .25309245-.015625 .19335938 .016652426 .14550781 .081207279V.0009765625H.049316408C.03955078 .0009765625 .032552083 .0028330486 .028320313 .0065460207 .024088541 .010269165 .021972657 .014923096 .021972657 .020507813 .021972657 .026692709 .024088541 .031656904 .028320313 .03540039 .032552083 .03914388 .03955078 .041015626 .049316408 .041015626H.10449219V.5722656H.049316408C.03955078 .5722656 .032552083 .574173 .028320313 .5779877 .024088541 .58180239 .021972657 .58673098 .021972657 .59277346 .021972657 .5986328 .024088541 .6035156 .028320313 .6074219 .032552083 .6113281 .03955078 .61328127 .049316408 .61328127H.14550781M.50146487 .21095276C.50146487 .26272074 .48372398 .30674745 .4482422 .34303285 .4127604 .37931825 .3712565 .39746095 .32373048 .39746095 .27620445 .39746095 .23470052 .37942506 .19921875 .34335328 .16373699 .30729167 .1459961 .26331584 .1459961 .21142578 .1459961 .15953572 .16373699 .11555481 .19921875 .07948303 .23470052 .04342143 .27620445 .025390625 .32373048 .025390625 .3712565 .025390625 .4127604 .043375654 .4482422 .0793457 .48372398 .11532593 .50146487 .15919495 .50146487 .21095276Z"/>
<path id="font_3_24" d="M.4404297 0V.06059265C.3844401 .009780884 .32389323-.015625 .25878907-.015625 .21875-.015625 .1883138-.0046946208 .16748047 .017166138 .14046224 .04588318 .12695313 .079330448 .12695313 .117507938V.3828125H.071777347C.06201172 .3828125 .05501302 .38476563 .05078125 .38867188 .04654948 .39257813 .044433595 .3976237 .044433595 .4038086 .044433595 .40952555 .04654948 .41429139 .05078125 .41810609 .05501302 .42192079 .06201172 .42382813 .071777347 .42382813H.16796875V.11729431C.16796875 .09057108 .1764323 .068573 .19335938 .05130005 .21028646 .0340271 .23144531 .025390625 .25683595 .025390625 .32356773 .025390625 .38476563 .05602519 .4404297 .11729431V.3828125H.3647461C.35498048 .3828125 .34798179 .38476563 .34375 .38867188 .33951823 .39257813 .33740235 .3976237 .33740235 .4038086 .33740235 .40952555 .33951823 .41429139 .34375 .41810609 .34798179 .42192079 .35498048 .42382813 .3647461 .42382813H.4814453V.041015626H.5161133C.5258789 .041015626 .5328776 .03914388 .5371094 .03540039 .5413411 .031656904 .54345706 .026692709 .54345706 .020507813 .54345706 .0146484379 .5413411 .009765625 .5371094 .005859375 .5328776 .001953125 .5258789 0 .5161133 0H.4404297Z"/>
<path id="font_3_18" d="M.27294923 .3828125V.041015626H.453125C.46289063 .041015626 .4698893 .03914388 .4741211 .03540039 .47835288 .031656904 .48046876 .026692709 .48046876 .020507813 .48046876 .0146484379 .47835288 .009765625 .4741211 .005859375 .4698893 .001953125 .46289063 0 .453125 0H.13232422C.122558597 0 .1155599 .001953125 .111328128 .005859375 .10709635 .009765625 .10498047 .0146484379 .10498047 .020507813 .10498047 .026692709 .10709635 .031656904 .111328128 .03540039 .1155599 .03914388 .122558597 .041015626 .13232422 .041015626H.23144531V.3828125H.14257813C.1328125 .3828125 .1258138 .3847402 .12158203 .38859559 .11735026 .39246116 .115234378 .39745078 .115234378 .40356446 .115234378 .40935264 .11735026 .4141744 .12158203 .4180298 .1258138 .42189536 .1328125 .42382813 .14257813 .42382813H.23144531V.48568727C.23144531 .5201009 .2454427 .54996749 .2734375 .57528689 .30143229 .60061648 .33854167 .61328127 .38476563 .61328127 .4235026 .61328127 .46484376 .609731 .50878909 .6026306 .5253906 .60005697 .5354004 .59699508 .53881838 .5934448 .5422363 .5898946 .5439453 .5852153 .5439453 .57940676 .5439453 .5735982 .5419922 .56883749 .53808596 .5651245 .5341797 .5614217 .5289714 .5595703 .52246096 .5595703 .51985678 .5595703 .5154622 .5600586 .50927737 .56103518 .4601237 .56852218 .41861979 .5722656 .38476563 .5722656 .34895835 .5722656 .32137046 .56347659 .30200196 .54589846 .28263346 .5283203 .27294923 .5083008 .27294923 .48583985V.42382813H.46484376C.47460938 .42382813 .48160807 .42189536 .48583985 .4180298 .49007163 .4141744 .4921875 .40918986 .4921875 .40307618 .4921875 .397288 .49007163 .39246116 .48583985 .38859559 .48160807 .3847402 .47460938 .3828125 .46484376 .3828125H.27294923Z"/>
<path id="font_3_1" d="M0 0Z"/>
<path id="font_3_12" d="M.5239258 .33984376H.076660159C.06689453 .33984376 .059895833 .34177146 .055664064 .34562684 .051432294 .3494924 .049316408 .35448203 .049316408 .3605957 .049316408 .36638389 .051432294 .37120567 .055664064 .37506105 .059895833 .3789266 .06689453 .38085938 .076660159 .38085938H.5239258C.5336914 .38085938 .5406901 .3789266 .5449219 .37506105 .5491536 .37120567 .55126956 .3662211 .55126956 .36010743 .55126956 .35431925 .5491536 .3494924 .5449219 .34562684 .5406901 .34177146 .5336914 .33984376 .5239258 .33984376M.5239258 .19238281H.076660159C.06689453 .19238281 .059895833 .19425456 .055664064 .19799805 .051432294 .20174153 .049316408 .20670574 .049316408 .21289063 .049316408 .21907552 .051432294 .22403972 .055664064 .2277832 .059895833 .23152669 .06689453 .23339844 .076660159 .23339844H.5239258C.5336914 .23339844 .5406901 .23152669 .5449219 .2277832 .5491536 .22403972 .55126956 .21907552 .55126956 .21289063 .55126956 .20670574 .5491536 .20174153 .5449219 .19799805 .5406901 .19425456 .5336914 .19238281 .5239258 .19238281Z"/>
<path id="font_3_2" d="M.3623047 .49682618C.3623047 .46174113 .35001628 .43184916 .32543946 .40715028 .30086265 .38246156 .27148438 .3701172 .23730469 .3701172 .20279949 .3701172 .17333985 .38246156 .14892578 .40715028 .12451172 .43184916 .11230469 .46174113 .11230469 .49682618 .11230469 .5319112 .12451172 .56171676 .14892578 .5862427 .17333985 .6107788 .20279949 .6230469 .23730469 .6230469 .2718099 .6230469 .30126954 .6107788 .3256836 .5862427 .35009767 .56171676 .3623047 .5319112 .3623047 .49682618M.3330078 .49658204C.3330078 .5236003 .32364909 .5465495 .30493165 .5654297 .2862142 .5843099 .26367188 .59375 .23730469 .59375 .2109375 .59375 .18839519 .5843099 .16967774 .5654297 .15096028 .5465495 .14160156 .5236003 .14160156 .49658204 .14160156 .4695638 .15096028 .4466146 .16967774 .42773438 .18839519 .40885417 .2109375 .39941407 .23730469 .39941407 .26367188 .39941407 .2862142 .40885417 .30493165 .42773438 .32364909 .4466146 .3330078 .4695638 .3330078 .49658204M.4951172 .3564453 .115234378 .22949219C.110677089 .22819011 .10725912 .22753906 .10498047 .22753906 .10139974 .22753906 .098225917 .22896321 .095458988 .23181153 .092692058 .23467 .091308597 .23798116 .091308597 .241745 .091308597 .2448883 .092447917 .24803162 .09472656 .25117494 .096354167 .25306703 .100097659 .254954 .10595703 .25683595L.48583985 .38378907C.49039714 .38509117 .49397788 .3857422 .49658204 .3857422 .49983726 .3857422 .5028483 .38431297 .50561526 .38145448 .50838217 .37860618 .5097656 .37530009 .5097656 .37153626 .5097656 .36839295 .5086263 .36524964 .50634768 .36210633 .50472006 .36021424 .50097659 .35832725 .4951172 .3564453M.48876954 .11450195C.48876954 .07941691 .4764811 .049606325 .4519043 .02507019 .42732749 .00054423019 .39778648-.01171875 .36328126-.01171875 .32910157-.01171875 .2997233 .00062561038 .27514649 .025314331 .25056968 .050013227 .23828125 .07974243 .23828125 .11450195 .23828125 .14958699 .25048829 .17947388 .27490235 .2041626 .2993164 .2288615 .32877604 .24121094 .36328126 .24121094 .39778648 .24121094 .42732749 .2288615 .4519043 .2041626 .4764811 .17947388 .48876954 .14958699 .48876954 .11450195M.45898438 .114746097C.45898438 .14208985 .44962565 .16512044 .4309082 .18383789 .41219078 .20255535 .38964845 .21191406 .36328126 .21191406 .33691407 .21191406 .31437174 .20247396 .2956543 .18359375 .27693687 .16471355 .26757813 .14176433 .26757813 .114746097 .26757813 .08805338 .27693687 .06518555 .2956543 .046142579 .31437174 .02709961 .33691407 .017578125 .36328126 .017578125 .38964845 .017578125 .41219078 .027018229 .4309082 .045898439 .44962565 .06477865 .45898438 .08772787 .45898438 .114746097Z"/>
<path id="font_3_22" d="M.25097657 .42382813V.3200531C.30436198 .36812846 .34431968 .3990682 .3708496 .4128723 .39737956 .4266866 .421875 .43359376 .44433595 .43359376 .46875 .43359376 .49145509 .4253184 .5124512 .4087677 .53344729 .392217 .5439453 .37967936 .5439453 .3711548 .5439453 .3649292 .5419108 .3597819 .5378418 .3557129 .53377279 .3516439 .5286458 .34960938 .52246096 .34960938 .51920577 .34960938 .5164388 .35017906 .51416018 .35131837 .51188156 .35245768 .5076497 .3561605 .50146487 .36242677 .49007163 .3739624 .48014323 .38187156 .4716797 .38615418 .46321617 .3904368 .45491538 .39257813 .44677735 .39257813 .4288737 .39257813 .40730796 .38542176 .38208009 .371109 .3568522 .35679627 .31315104 .32182823 .25097657 .26620484V.041015626H.4326172C.44270835 .041015626 .44986979 .03914388 .45410157 .03540039 .45833335 .031656904 .46044923 .026692709 .46044923 .020507813 .46044923 .0146484379 .45833335 .009765625 .45410157 .005859375 .44986979 .001953125 .44270835 0 .4326172 0H.110839847C.10107422 0 .09407552 .0019175211 .08984375 .0057525637 .08561198 .0095876059 .083496097 .014506022 .083496097 .020507813 .083496097 .026041666 .0855306 .030680338 .08959961 .034423829 .09366862 .038167318 .100748699 .040039064 .110839847 .040039064H.20996094V.3828125H.13427735C.12451172 .3828125 .11751302 .38476563 .11328125 .38867188 .10904948 .39257813 .106933597 .3976237 .106933597 .4038086 .106933597 .40952555 .1089681 .41429139 .11303711 .41810609 .11710612 .42192079 .124186199 .42382813 .13427735 .42382813H.25097657Z"/>
<path id="font_3_23" d="M.43554688 .39746095C.43554688 .40672813 .4375 .4134369 .44140626 .41758729 .4453125 .42174784 .4501953 .42382813 .4560547 .42382813 .4622396 .42382813 .46728517 .42170207 .4711914 .41744996 .47509767 .413208 .47705079 .40602113 .47705079 .39588929V.32530213C.47705079 .31549583 .47509767 .30846659 .4711914 .30421449 .46728517 .29997254 .4622396 .29785157 .4560547 .29785157 .45052085 .29785157 .44588218 .2996572 .44213868 .30326844 .43839518 .30688987 .4361979 .31281028 .43554688 .32102967 .43359376 .34075419 .4235026 .35702516 .40527345 .36984254 .37858073 .3882548 .34326173 .39746095 .2993164 .39746095 .25341798 .39746095 .21777344 .3881836 .19238281 .3696289 .17317708 .3556315 .16357422 .3400065 .16357422 .3227539 .16357422 .30322267 .17496746 .28694663 .1977539 .27392579 .2133789 .2648112 .2430013 .2578125 .2866211 .2529297 .34358726 .24672444 .38313804 .23970032 .40527345 .2318573 .43684898 .22042339 .46036784 .20457459 .47583009 .18431092 .49129234 .16405742 .49902345 .14217122 .49902345 .118652347 .49902345 .08369955 .48225913 .052581788 .44873048 .025299073 .4152018-.0019836426 .3660482-.015625 .30126954-.015625 .23649089-.015625 .18343099 .00081380209 .14208985 .033691408 .14208985 .022460938 .1414388 .015192668 .14013672 .011886597 .13883464 .008590698 .13647461 .005783081 .13305664 .0034637452 .12963867 .0011545817 .1258138 0 .12158203 0 .115722659 0 .110839847 .0021209717 .106933597 .006362915 .103027347 .010615031 .10107422 .01763916 .10107422 .027435303V.112213138C.10107422 .12200928 .10294596 .12902832 .10668945 .13327027 .110432948 .13752239 .11539713 .13964844 .12158203 .13964844 .1274414 .13964844 .1324056 .13761394 .13647461 .13354492 .14054363 .1294759 .14257813 .12402344 .14257813 .1171875 .14257813 .10221354 .14632161 .08968099 .1538086 .079589847 .16520183 .063964847 .18334961 .05102539 .20825196 .040771486 .2331543 .030517579 .26367188 .025390625 .2998047 .025390625 .3531901 .025390625 .39290367 .035369874 .4189453 .05532837 .44498698 .075286868 .4580078 .09638977 .4580078 .118637088 .4580078 .14415996 .44482423 .16460674 .41845704 .17997742 .3917643 .19535828 .35294596 .20566304 .30200196 .21089173 .25105796 .21613057 .21451824 .2229716 .19238281 .2314148 .17024739 .23985799 .1529948 .2525228 .140625 .26940919 .1282552 .28630577 .12207031 .3044993 .12207031 .32398988 .12207031 .35906474 .13932292 .38691203 .17382813 .40753175 .20833333 .42816163 .24951172 .43847657 .29736329 .43847657 .3540039 .43847657 .4000651 .4248047 .43554688 .39746095Z"/>
<path id="font_3_21" d="M.14550781 .42382813V.349411C.16992188 .37894187 .1961263 .40116883 .2241211 .41609193 .25211589 .431015 .28515626 .43847657 .3232422 .43847657 .36360679 .43847657 .4008789 .42902629 .4350586 .41012574 .46923829 .3912252 .49568687 .36490885 .5144043 .33117677 .53312179 .29744468 .54248049 .26200358 .54248049 .22485352 .54248049 .16586304 .521403 .11542765 .47924806 .07354736 .4370931 .031677247 .3852539 .0107421879 .32373048 .0107421879 .25048829 .0107421879 .19108074 .040430707 .14550781 .09980774V-.14746094H.24511719C.2548828-.14746094 .2618815-.14933269 .26611329-.15307617 .27034507-.15681966 .27246095-.16178386 .27246095-.16796875 .27246095-.17382813 .27034507-.17871094 .26611329-.18261719 .2618815-.18652344 .2548828-.18847656 .24511719-.18847656H.049316408C.03955078-.18847656 .032552083-.18660482 .028320313-.18286133 .024088541-.17911785 .021972657-.17415364 .021972657-.16796875 .021972657-.16178386 .024088541-.15681966 .028320313-.15307617 .032552083-.14933269 .03955078-.14746094 .049316408-.14746094H.10449219V.3828125H.049316408C.03955078 .3828125 .032552083 .38476563 .028320313 .38867188 .024088541 .39257813 .021972657 .3976237 .021972657 .4038086 .021972657 .40952555 .024088541 .41429139 .028320313 .41810609 .032552083 .42192079 .03955078 .42382813 .049316408 .42382813H.14550781M.50097659 .22485352C.50097659 .27225749 .48380534 .31287638 .4494629 .3467102 .41512046 .38054405 .37320964 .39746095 .32373048 .39746095 .27392579 .39746095 .23177083 .38046266 .19726563 .34646607 .16276042 .31246949 .14550781 .27193199 .14550781 .22485352 .14550781 .17744954 .16276042 .13674927 .19726563 .102752689 .23177083 .0687561 .27392579 .051757814 .32373048 .051757814 .37288413 .051757814 .41471354 .06867472 .44921876 .102508548 .48372398 .13634236 .50097659 .17712403 .50097659 .22485352Z"/>
<clipPath id="clip_4">
<path transform="matrix(1,0,0,-1,-95.1291,526.384)" d="M36 36H756V576H36Z"/>
</clipPath>
<path id="font_1_4" d="M.13964844 .23144531C.14192708 .19064331 .15152996 .1575063 .16845703 .1320343 .2006836 .084376018 .25748698 .060546876 .3388672 .060546876 .37532554 .060546876 .40852867 .06575521 .43847657 .076171878 .49641929 .096354167 .5253906 .13248189 .5253906 .18455506 .5253906 .22361756 .5131836 .25144959 .48876954 .26805116 .46402995 .2843882 .42529298 .29859925 .3725586 .3106842L.27539063 .3327484C.21191406 .3471222 .16699219 .36294047 .140625 .38020326 .095052089 .41016136 .072265628 .4549408 .072265628 .5145416 .072265628 .57902529 .094563808 .6319478 .13916016 .6733093 .18375652 .71467086 .24690755 .73535159 .32861329 .73535159 .4038086 .73535159 .46769206 .7172038 .5202637 .6809082 .57283529 .6446126 .5991211 .58658859 .5991211 .50683596H.5078125C.5029297 .5452474 .49251304 .57470706 .4765625 .59521487 .4469401 .6326497 .39664714 .6513672 .3256836 .6513672 .26839195 .6513672 .22721355 .63931277 .20214844 .61520388 .17708333 .591095 .16455078 .56307479 .16455078 .5311432 .16455078 .49595643 .17919922 .47021995 .2084961 .45393373 .22770183 .44350688 .27115885 .43047587 .3388672 .4148407L.43945313 .39187623C.48795573 .38079835 .5253906 .36565147 .5517578 .34643556 .59733077 .31288658 .6201172 .26419068 .6201172 .2003479 .6201172 .12085978 .59122726 .06401571 .53344729 .029815674 .47566734-.004384359 .40852867-.021484375 .33203126-.021484375 .24283855-.021484375 .17301433 .0013478597 .122558597 .04701233 .07210287 .0923411 .04736328 .15381877 .048339845 .23144531H.13964844M.3359375 .7373047V.7373047Z"/>
<path id="font_1_6" d="M.26611329 .53808596C.32503257 .53808596 .37296549 .5237274 .4099121 .49501039 .44685874 .46629334 .46907554 .41684977 .4765625 .3466797H.39111329C.38590495 .37890626 .37402345 .40568034 .35546876 .42700196 .33691407 .44832359 .3071289 .45898438 .26611329 .45898438 .2101237 .45898438 .17008464 .43170677 .1459961 .3771515 .1303711 .34176127 .122558597 .29808555 .122558597 .24612427 .122558597 .19384766 .1336263 .14984639 .15576172 .11412048 .17789714 .07840475 .21272786 .060546876 .2602539 .060546876 .29671226 .060546876 .3256022 .0716095 .34692384 .09373474 .36824546 .115859989 .38297526 .1461385 .39111329 .18457031H.4765625C.46679688 .115234378 .4423828 .06453451 .4033203 .032470704 .3642578 .00040690104 .31429038-.015625 .25341798-.015625 .1850586-.015625 .13053386 .009379069 .08984375 .059387208 .049153646 .10940552 .028808594 .17188008 .028808594 .24681092 .028808594 .33868919 .05110677 .41020204 .095703128 .4613495 .14029949 .51250717 .19710286 .53808596 .26611329 .53808596M.2524414 .5361328V.5361328Z"/>
<path id="font_1_10" d="M.0625 .71777346H.14697266V.30101014L.3725586 .5234375H.48486329L.28466798 .32881166 .49609376 0H.38378907L.22070313 .26635743 .14697266 .19647217V0H.0625V.71777346Z"/>
<path id="font_1_9" d="M.08642578 .6021576C.08772787 .638443 .09407552 .66500857 .10546875 .68185427 .12597656 .7116597 .16552735 .7265625 .2241211 .7265625 .22965496 .7265625 .23535156 .7263997 .24121094 .7260742 .24707031 .7257487 .2537435 .72526046 .26123048 .7246094V.64453127C.25211589 .6449687 .2455241 .6452382 .24145508 .64533999 .23738607 .64545187 .2335612 .6455078 .22998047 .6455078 .20328777 .6455078 .18733724 .6386719 .1821289 .625 .17692058 .6113281 .1743164 .5764974 .1743164 .5205078H.26123048V.45117188H.17333985V0H.08642578V.45117188H.013671875V.5205078H.08642578V.6021576Z"/>
<path id="font_1_12" d="M.064453128 .5234375H.15136719V.44921876C.17220052 .4749349 .19108074 .49365235 .20800781 .5053711 .23697917 .52522787 .26985679 .53515627 .30664063 .53515627 .34830729 .53515627 .38183595 .52490237 .40722657 .50439456 .42154948 .49267579 .4345703 .4754232 .44628907 .45263673 .4658203 .4806315 .48876954 .5013835 .5151367 .5148926 .5415039 .5284017 .5711263 .53515627 .6040039 .53515627 .6743164 .53515627 .72216799 .5097402 .7475586 .45890809 .76123049 .43154399 .7680664 .3947296 .7680664 .34846498V0H.6767578V.36367799C.6767578 .39853923 .6680501 .42248536 .65063479 .43551637 .6332194 .44855754 .6119792 .45507813 .58691409 .45507813 .5524089 .45507813 .5227051 .44350688 .49780274 .42036439 .4729004 .39723207 .46044923 .35861717 .46044923 .30451966V0H.37109376V.3416748C.37109376 .37719728 .36686198 .4031016 .35839845 .41938783 .3450521 .4438324 .32014976 .4560547 .2836914 .4560547 .25048829 .4560547 .22029622 .44318138 .19311524 .4174347 .16593425 .3916982 .15234375 .34510295 .15234375 .27764894V0H.064453128V.5234375Z"/>
<path id="font_1_14" d="M.27197267 .057617189C.33024089 .057617189 .37019859 .07964579 .3918457 .123703 .41349284 .16776021 .4243164 .21677144 .4243164 .2707367 .4243164 .31950379 .4165039 .35917155 .4008789 .38974 .3761393 .43785606 .3334961 .46191407 .27294923 .46191407 .21923828 .46191407 .18017578 .44143168 .15576172 .40046693 .13134766 .35950218 .119140628 .31008403 .119140628 .25221253 .119140628 .1966095 .13134766 .15027364 .15576172 .113204959 .18017578 .076146449 .21891277 .057617189 .27197267 .057617189M.27539063 .53808596C.34277345 .53808596 .3997396 .5156453 .44628907 .47076417 .49283854 .42588298 .5161133 .35985819 .5161133 .27268983 .5161133 .1884613 .49560548 .11886088 .45458985 .06388855 .41357423 .008926392 .3499349-.018554688 .26367188-.018554688 .19173177-.018554688 .13460286 .00575765 .092285159 .054382326 .04996745 .103006999 .028808594 .16829936 .028808594 .2502594 .028808594 .33806864 .05110677 .4079895 .095703128 .46002198 .14029949 .51206466 .20019531 .53808596 .27539063 .53808596M.27246095 .5361328V.5361328Z"/>
<path id="font_3_17" d="M.52197268 .20214844H.104003909C.11116537 .14908855 .13338216 .10636393 .1706543 .07397461 .20792644 .041585287 .254069 .025390625 .30908204 .025390625 .339681 .025390625 .37174479 .030436198 .40527345 .040527345 .4388021 .05061849 .46614585 .063964847 .4873047 .080566409 .4934896 .08544922 .4988607 .087890628 .50341799 .087890628 .5086263 .087890628 .5131836 .08585612 .51708987 .08178711 .5209961 .0777181 .5229492 .072916667 .5229492 .06738281 .5229492 .061848958 .52034506 .056477865 .5151367 .05126953 .49951173 .03499349 .47176109 .01977539 .43188478 .0056152346 .39200846-.008544922 .35107423-.015625 .30908204-.015625 .23876953-.015625 .1800944 .0074310305 .13305664 .05354309 .08601888 .09965515 .0625 .15546163 .0625 .22096253 .0625 .28059388 .08455404 .3317515 .12866211 .37443543 .17277019 .41712953 .2273763 .43847657 .29248048 .43847657 .35953776 .43847657 .41471354 .41653953 .4580078 .3726654 .50130209 .3287913 .5226237 .2719523 .52197268 .20214844M.48046876 .24316406C.47233073 .28884889 .45092774 .32598368 .41625978 .35456849 .3815918 .38316346 .34033204 .39746095 .29248048 .39746095 .2446289 .39746095 .20345052 .3833262 .16894531 .35505677 .13444011 .3267975 .11295573 .2894999 .10449219 .24316406H.48046876Z"/>
<path id="font_3_16" d="M.4711914 .38275147V.396286C.4711914 .40627543 .47314454 .4133606 .47705079 .4175415 .48095704 .42173258 .48583985 .42382813 .49169923 .42382813 .49788413 .42382813 .5029297 .42171226 .50683596 .41748048 .5107422 .4132487 .5126953 .40608726 .5126953 .3959961V.30322267C.5123698 .2931315 .51033529 .28597007 .5065918 .28173829 .5028483 .2775065 .49788413 .27539063 .49169923 .27539063 .48616538 .27539063 .4815267 .27726747 .4777832 .28102113 .4740397 .28478495 .47184245 .29108177 .4711914 .2999115 .46923829 .32311503 .45402018 .34517417 .4255371 .36608888 .39705406 .38700358 .35872398 .39746095 .31054688 .39746095 .24967449 .39746095 .20345052 .3783671 .171875 .34017945 .14029949 .3019918 .12451172 .2582601 .12451172 .20898438 .12451172 .15578206 .14192708 .11188253 .17675781 .07728577 .21158855 .042689008 .2566732 .025390625 .31201173 .025390625 .34391276 .025390625 .37638346 .03131612 .40942384 .043167116 .4424642 .05502828 .47233073 .074132289 .49902345 .100479129 .5058594 .10706075 .51188156 .11035156 .51708987 .11035156 .5226237 .11035156 .5272624 .10846456 .53100588 .10469055 .5347493 .10091654 .5366211 .09624227 .5366211 .090667728 .5366211 .07655843 .5201823 .058680219 .4873047 .03703308 .43424479 .0019276937 .37516276-.015625 .3100586-.015625 .24397786-.015625 .18969727 .005472819 .1472168 .047668458 .10473633 .08987427 .083496097 .1434021 .083496097 .20825196 .083496097 .2744039 .10522461 .3293101 .14868164 .37297059 .19213867 .41664125 .24690755 .43847657 .31298829 .43847657 .3758138 .43847657 .4285482 .41990153 .4711914 .38275147Z"/>
<path id="font_3_19" d="M.16503906 .61328127V.36123658C.19108074 .3895874 .21606446 .4095459 .23999024 .42111207 .26391603 .4326884 .2906901 .43847657 .3203125 .43847657 .35221354 .43847657 .37931315 .43284608 .40161134 .42158509 .42390953 .41033427 .44254557 .39304099 .45751954 .3697052 .4724935 .34636943 .47998048 .32181297 .47998048 .29603578V.041015626H.5258789C.53597006 .041015626 .5430501 .03914388 .54711917 .03540039 .5511882 .031656904 .55322268 .026692709 .55322268 .020507813 .55322268 .0146484379 .5511882 .009765625 .54711917 .005859375 .5430501 .001953125 .53597006 0 .5258789 0H.39257813C.38248698 0 .37532554 .001953125 .37109376 .005859375 .36686198 .009765625 .3647461 .0146484379 .3647461 .020507813 .3647461 .026692709 .36686198 .031656904 .37109376 .03540039 .37532554 .03914388 .38248698 .041015626 .39257813 .041015626H.43847657V.2931671C.43847657 .32287089 .42781578 .3476766 .40649415 .36758424 .38517253 .38750205 .35546876 .39746095 .3173828 .39746095 .2874349 .39746095 .2618815 .39012147 .24072266 .3754425 .22542317 .36499534 .20019531 .34035746 .16503906 .30152894V.041015626H.21142578C.2211914 .041015626 .22819011 .03914388 .23242188 .03540039 .23665364 .031656904 .23876953 .026692709 .23876953 .020507813 .23876953 .0146484379 .23665364 .009765625 .23242188 .005859375 .22819011 .001953125 .2211914 0 .21142578 0H.07763672C.067871097 0 .060872396 .001953125 .056640626 .005859375 .052408857 .009765625 .05029297 .0146484379 .05029297 .020507813 .05029297 .026692709 .052408857 .031656904 .056640626 .03540039 .060872396 .03914388 .067871097 .041015626 .07763672 .041015626H.12402344V.5722656H.068847659C.05908203 .5722656 .052083333 .574173 .047851564 .5779877 .043619794 .58180239 .041503908 .58673098 .041503908 .59277346 .041503908 .5986328 .043619794 .6035156 .047851564 .6074219 .052083333 .6113281 .05908203 .61328127 .068847659 .61328127H.16503906Z"/>
<path id="font_3_20" d="M.5292969 .21118164C.5292969 .14861043 .5069173 .09516398 .4621582 .050842287 .41739909 .0065307619 .363444-.015625 .30029298-.015625 .23649089-.015625 .18229167 .006612142 .13769531 .051086427 .09309896 .095570888 .07080078 .14893596 .07080078 .21118164 .07080078 .27375285 .09309896 .3272756 .13769531 .37174989 .18229167 .41623435 .23649089 .43847657 .30029298 .43847657 .363444 .43847657 .41739909 .4163157 .4621582 .37199403 .5069173 .3276825 .5292969 .27407838 .5292969 .21118164M.48779298 .21142578C.48779298 .26299034 .46948243 .30688478 .43286134 .34310914 .39624024 .37934367 .35188804 .39746095 .2998047 .39746095 .24772136 .39746095 .20336914 .3792623 .16674805 .342865 .13012696 .30647788 .111816409 .2626648 .111816409 .21142578 .111816409 .16051229 .13012696 .11677551 .16674805 .080215457 .20336914 .04366557 .24772136 .025390625 .2998047 .025390625 .35188804 .025390625 .39624024 .043584188 .43286134 .07997131 .46948243 .116368617 .48779298 .16018677 .48779298 .21142578Z"/>
<clipPath id="clip_5">
<path transform="matrix(1,0,0,-1,-95.1291,526.384)" d="M36 36H756V576H36Z"/>
</clipPath>
<path id="font_1_11" d="M.06689453 .71777346H.15478516V0H.06689453V.71777346Z"/>
<path id="font_3_13" d="M.32080079 .5722656V-.0859375H.42041017C.43017579-.0859375 .43717448-.08780924 .44140626-.091552738 .44563804-.09529623 .4477539-.100260417 .4477539-.10644531 .4477539-.11263021 .44563804-.1175944 .44140626-.12133789 .43717448-.12508138 .43017579-.12695313 .42041017-.12695313H.27978517V.61328127H.42041017C.43017579 .61328127 .43717448 .61134847 .44140626 .6074829 .44563804 .6036275 .4477539 .598643 .4477539 .5925293 .4477539 .58674117 .44563804 .58191427 .44140626 .5780487 .43717448 .5741933 .43017579 .5722656 .42041017 .5722656H.32080079Z"/>
<path id="font_3_11" d="M.43798829 .55371096V.5722656H.14404297V.5361328C.14404297 .5263672 .14217122 .51936849 .13842774 .5151367 .13468425 .51090499 .12972005 .50878909 .123535159 .50878909 .11767578 .50878909 .11279297 .51090499 .10888672 .5151367 .10498047 .51936849 .103027347 .5263672 .103027347 .5361328V.61328127H.4794922V.5483551L.31445313 .020095826C.31184898 .011998494 .3087565 .0066223146 .30517579 .003967285 .30159507 .0013224284 .29752604 0 .29296876 0 .28710938 0 .28222657 .001953125 .2783203 .005859375 .27441407 .009765625 .27246095 .014322917 .27246095 .01953125 .27246095 .022786459 .2734375 .02734375 .27539063 .033203126L.43798829 .55371096Z"/>
<path id="font_3_14" d="M.28076173-.0859375V.5722656H.18164063C.171875 .5722656 .1648763 .5741933 .16064453 .5780487 .15641277 .58191427 .15429688 .58674117 .15429688 .5925293 .15429688 .598643 .15641277 .6036275 .16064453 .6074829 .1648763 .61134847 .171875 .61328127 .18164063 .61328127H.32226563V-.12695313H.18164063C.171875-.12695313 .1648763-.12508138 .16064453-.12133789 .15641277-.1175944 .15429688-.11263021 .15429688-.10644531 .15429688-.10058594 .15641277-.095703128 .16064453-.091796878 .1648763-.087890628 .171875-.0859375 .18164063-.0859375H.28076173Z"/>
<path id="font_3_10" d="M.17773438 .25878907C.203125 .29638673 .22924805 .32417808 .25610353 .3421631 .28295899 .3601481 .31282554 .36914063 .34570313 .36914063 .3893229 .36914063 .4280599 .35099284 .46191407 .31469728 .49576823 .2784017 .5126953 .2335612 .5126953 .18017578 .5126953 .13134766 .49723307 .08666992 .4663086 .046142579 .43538413 .0056152346 .39274089-.0146484379 .3383789-.0146484379 .30289714-.0146484379 .2697754-.0037384034 .23901367 .018081665 .20825196 .039911909 .18408203 .07347107 .1665039 .118759158 .14469402 .17511495 .13378906 .23749797 .13378906 .3059082 .13378906 .3573812 .14404297 .40526835 .16455078 .4495697 .18017578 .4837799 .20100911 .51383468 .22705078 .5397339 .25309245 .5656331 .28344728 .58680728 .31811524 .6032562 .3527832 .6197052 .39029948 .6279297 .43066407 .6279297 .4580078 .6279297 .48079429 .62235006 .49902345 .6111908 .50683596 .60625717 .5107422 .59968569 .5107422 .59147647 .5107422 .5855662 .50895187 .58072409 .5053711 .5769501 .50179037 .5731761 .49723307 .57128909 .49169923 .57128909 .48746745 .57128909 .48242188 .5730235 .4765625 .5764923 .46321617 .5834401 .4466146 .58691409 .4267578 .58691409 .36328126 .58691409 .30541993 .5595296 .25317384 .50476077 .20092774 .44999186 .17480469 .38484193 .17480469 .3093109 .17480469 .29851786 .17578125 .28167726 .17773438 .25878907M.18701172 .19140625C.19938152 .13216146 .21883138 .08984375 .24536133 .064453128 .27189128 .0390625 .30322267 .026367188 .33935548 .026367188 .3758138 .026367188 .40698243 .040608724 .43286134 .0690918 .45874024 .09757487 .4716797 .13460286 .4716797 .18017578 .4716797 .22281902 .45865885 .25813804 .4326172 .2861328 .40657554 .3141276 .37711589 .328125 .34423829 .328125 .31266276 .328125 .28222657 .31461589 .2529297 .28759767 .23339844 .269694 .21142578 .2376302 .18701172 .19140625Z"/>
<path id="font_3_9" d="M.18701172 .5722656V.37109376C.21110027 .3811849 .23421224 .38875328 .25634767 .39379884 .27848307 .3988444 .29947917 .4013672 .31933595 .4013672 .37076823 .4013672 .41381837 .38328044 .44848634 .34710694 .4831543 .31093345 .5004883 .26335145 .5004883 .20436096 .5004883 .13917542 .48095704 .086374919 .44189454 .045959474 .40283204 .005554199 .3540039-.0146484379 .29541017-.0146484379 .2566732-.0146484379 .21940105-.0059865319 .18359375 .01133728 .15820313 .023432414 .13509114 .038467409 .11425781 .05644226 .10188802 .067225139 .095703128 .07621256 .095703128 .08340454 .095703128 .08929443 .09765625 .09427897 .1015625 .098358158 .10546875 .10244751 .11002604 .10449219 .115234378 .10449219 .12076823 .10449219 .12662761 .10154215 .1328125 .09564209 .18196614 .04945882 .23551433 .026367188 .29345704 .026367188 .3413086 .026367188 .38085938 .042744955 .41210938 .07550049 .44335938 .1082662 .45898438 .15187073 .45898438 .20631409 .45898438 .25260926 .44547526 .28985597 .41845704 .3180542 .3914388 .34625245 .35709635 .36035157 .3154297 .36035157 .27278648 .36035157 .23014324 .34898887 .1875 .32626344 .17708333 .32099406 .16975911 .31835938 .16552735 .31835938 .15966797 .31835938 .15494792 .3203125 .15136719 .32421876 .14778646 .32813517 .1459961 .3336792 .1459961 .34085084V.61328127H.4321289C.44189454 .61328127 .44889323 .61134847 .453125 .6074829 .45735679 .6036275 .45947267 .598643 .45947267 .5925293 .45947267 .58674117 .45735679 .58191427 .453125 .5780487 .44889323 .5741933 .44189454 .5722656 .4321289 .5722656H.18701172Z"/>
<path id="font_3_8" d="M.37646485 .171875H.10449219V.21925354L.33251954 .61328127H.41796876V.21289063H.45214845C.4622396 .21289063 .46940104 .21101888 .4736328 .20727539 .4778646 .2035319 .47998048 .1985677 .47998048 .19238281 .47998048 .18652344 .4778646 .18164063 .4736328 .17773438 .46940104 .17382813 .4622396 .171875 .45214845 .171875H.41796876V.041015626H.45214845C.4622396 .041015626 .46940104 .03914388 .4736328 .03540039 .4778646 .031656904 .47998048 .026692709 .47998048 .020507813 .47998048 .0146484379 .4778646 .009765625 .4736328 .005859375 .46940104 .001953125 .4622396 0 .45214845 0H.2998047C.28971354 0 .2825521 .001953125 .2783203 .005859375 .27408854 .009765625 .27197267 .0146484379 .27197267 .020507813 .27197267 .026692709 .27408854 .031656904 .2783203 .03540039 .2825521 .03914388 .28971354 .041015626 .2998047 .041015626H.37646485V.171875M.37646485 .21289063V.5722656H.35498048L.14746094 .21289063H.37646485Z"/>
<path id="font_3_7" d="M.38427735 .33319093C.42203776 .31627403 .45084635 .29310099 .47070313 .26367188 .4905599 .23424275 .5004883 .20358785 .5004883 .17170716 .5004883 .12260437 .48055015 .07926941 .44067384 .04170227 .40079753 .004135132 .35091148-.0146484379 .29101563-.0146484379 .25585938-.0146484379 .21940105-.0071614587 .18164063 .0078125 .1438802 .022786459 .11751302 .038085939 .10253906 .053710939 .09765625 .05891927 .095214847 .064453128 .095214847 .0703125 .095214847 .075520839 .097086589 .080078128 .10083008 .083984378 .10457357 .087890628 .10904948 .08984375 .11425781 .08984375 .11946615 .08984375 .12532552 .087402347 .13183594 .08251953 .18229167 .045084638 .23567708 .026367188 .2919922 .026367188 .33951823 .026367188 .37931315 .041234334 .41137696 .07096863 .44344078 .10070292 .45947267 .13376872 .45947267 .17016602 .45947267 .19453939 .45157878 .21842449 .43579103 .24182129 .42000328 .2652181 .3972982 .2836609 .36767579 .29714967 .33805339 .31063844 .30810548 .3173828 .27783204 .3173828 .2680664 .3173828 .26106773 .3192749 .25683595 .32305909 .25260417 .32685343 .25048829 .33187867 .25048829 .33813478 .25048829 .34406535 .2525228 .34900413 .2565918 .35295106 .2606608 .35690818 .2667643 .35888673 .27490235 .35888673L.3100586 .35839845C.34684245 .35839845 .37719728 .36964927 .40112306 .39215089 .42504884 .4146627 .43701173 .44076539 .43701173 .47045899 .43701173 .50111898 .42447917 .5281932 .39941407 .5516815 .37434898 .57516989 .34163413 .58691409 .30126954 .58691409 .27294923 .58691409 .24690755 .58199569 .22314453 .5721588 .19938152 .56232199 .18033855 .54887899 .16601563 .53182986 .1608073 .52527877 .15681966 .5212657 .15405274 .51979067 .15128581 .5183156 .14811199 .5175781 .14453125 .5175781 .13899739 .5175781 .13427735 .51945498 .1303711 .5232086 .12646485 .5269725 .12451172 .5314738 .12451172 .53671267 .12451172 .54978439 .13867188 .5662944 .16699219 .5862427 .2063802 .614034 .2511393 .6279297 .30126954 .6279297 .35302735 .6279297 .3955078 .6123454 .42871095 .58117678 .46191407 .5500081 .47851563 .5128784 .47851563 .4697876 .47851563 .44237266 .47054038 .41642253 .45458985 .39193727 .4386393 .36746217 .4152018 .34788005 .38427735 .33319093Z"/>
<path id="font_3_6" d="M.123535159 .041015626H.43847657V.057617189C.43847657 .06738281 .4404297 .07438151 .44433595 .07861328 .4482422 .082845058 .45328776 .08496094 .45947267 .08496094 .46533204 .08496094 .47021485 .082845058 .4741211 .07861328 .47802735 .07438151 .47998048 .06738281 .47998048 .057617189V0H.083496097V.061523439C.16682942 .13639324 .24788411 .21256511 .32666017 .29003907 .363444 .32617188 .38867188 .3527018 .40234376 .3696289 .41601563 .386556 .42537437 .40144859 .43041993 .41430665 .43546549 .4271647 .43798829 .44010417 .43798829 .453125 .43798829 .48828126 .42382813 .51936849 .3955078 .5463867 .3671875 .57340499 .3330078 .58691409 .29296876 .58691409 .25716148 .58691409 .22542317 .5765788 .1977539 .5559082 .17008464 .5352478 .15218099 .5096639 .14404297 .4791565 .14208985 .47128297 .13964844 .4661967 .13671875 .4638977 .1328125 .46062217 .1282552 .45898438 .123046878 .45898438 .11751302 .45898438 .11287435 .4608612 .10913086 .46461488 .10538737 .46836854 .103515628 .4728597 .103515628 .47808839 .103515628 .49375407 .11206055 .5149689 .12915039 .5417328 .14624024 .5685069 .1698405 .589564 .19995117 .6049042 .23006185 .6202545 .26090495 .6279297 .29248048 .6279297 .34358726 .6279297 .38753257 .6101735 .4243164 .57466128 .46110026 .539149 .4794922 .49891664 .4794922 .45396424 .4794922 .4350637 .47639976 .41770936 .47021485 .40190126 .46402995 .3861033 .4535319 .36883546 .4387207 .35009767 .42390953 .33137004 .3972982 .30311076 .35888673 .26531983 .26253257 .17018636 .18408203 .09639486 .123535159 .043945314V.041015626Z"/>
<path id="font_3_5" d="M.3203125 .62109377V.041015626H.4609375C.47070313 .041015626 .4777018 .03914388 .4819336 .03540039 .48616538 .031656904 .48828126 .026692709 .48828126 .020507813 .48828126 .0146484379 .48616538 .009765625 .4819336 .005859375 .4777018 .001953125 .47070313 0 .4609375 0H.13867188C.12890625 0 .121907558 .001953125 .11767578 .005859375 .11344401 .009765625 .111328128 .0146484379 .111328128 .020507813 .111328128 .026692709 .11344401 .031656904 .11767578 .03540039 .121907558 .03914388 .12890625 .041015626 .13867188 .041015626H.27929688V.5644531L.14550781 .52246096C.13899739 .5205078 .13427735 .51953127 .13134766 .51953127 .12646485 .51953127 .12198893 .52156576 .11791992 .52563479 .113850917 .5297038 .111816409 .5345052 .111816409 .54003909 .111816409 .5449219 .11344401 .5494792 .11669922 .55371096 .11930338 .5563151 .12467448 .55908206 .1328125 .5620117L.3203125 .62109377Z"/>
<path id="font_3_4" d="M.48828126 .3572235V.25556947C.48828126 .16729228 .46728517 .0974172 .42529298 .045944215 .39241538 .005549113 .35091148-.0146484379 .30078126-.0146484379 .27669273-.0146484379 .25398765-.009841919 .23266602-.00022888184 .2113444 .009373982 .19319661 .02281189 .17822266 .04008484 .16878255 .0508372 .15844727 .068099979 .1472168 .09187317 .13598633 .11565653 .12792969 .13748677 .123046878 .15736389 .1155599 .18537903 .111816409 .21811421 .111816409 .25556947V.3572235C.111816409 .4458262 .1328125 .5158641 .17480469 .56733706 .2076823 .6077321 .2491862 .6279297 .2993164 .6279297 .32373048 .6279297 .34651695 .62312319 .36767579 .61351016 .38883464 .6039073 .40690104 .59046939 .421875 .5731964 .43164063 .56211856 .44205729 .5446879 .453125 .52090457 .46419273 .49713136 .47233073 .47546897 .47753907 .45591737 .48470054 .42790223 .48828126 .39500428 .48828126 .3572235M.44726563 .3517151C.44726563 .39048258 .44181315 .42655946 .4309082 .45994569 .42000328 .49334208 .40771485 .519989 .39404298 .5398865 .38590495 .55130007 .37532554 .5611623 .3623047 .56947329 .34375 .58110049 .32291667 .58691409 .2998047 .58691409 .25390626 .58653768 .2179362 .5628662 .19189453 .51589968 .16585286 .46894328 .15283203 .41419984 .15283203 .3516693V.26130677C.15283203 .22254944 .1582845 .18639629 .16918946 .15284729 .1800944 .11930847 .19254558 .09261068 .20654297 .072753909 .21435547 .0616862 .22477214 .052083333 .23779297 .043945314 .25634767 .032226564 .27734376 .026367188 .30078126 .026367188 .34635417 .026367188 .38216148 .049886068 .40820313 .09692383 .43424479 .1439616 .44726563 .1987559 .44726563 .26130677V.3517151Z"/>
<path id="font_3_3" d="M.32080079 .265625V.060546876C.32080079 .05078125 .31884767 .04378255 .3149414 .03955078 .31103517 .03531901 .3059896 .033203126 .2998047 .033203126 .2939453 .033203126 .2890625 .03531901 .28515626 .03955078 .28125 .04378255 .27929688 .05078125 .27929688 .060546876V.265625H.09765625C.087890628 .265625 .08089193 .26749674 .076660159 .27124024 .07242838 .27498374 .0703125 .2799479 .0703125 .2861328 .0703125 .29231773 .07242838 .2972819 .076660159 .3010254 .08089193 .3047689 .087890628 .30664063 .09765625 .30664063H.27929688V.5107422C.27929688 .5205078 .28125 .52750656 .28515626 .5317383 .2890625 .53597006 .29410807 .53808596 .30029298 .53808596 .30615235 .53808596 .31103517 .53597006 .3149414 .5317383 .31884767 .52750656 .32080079 .5205078 .32080079 .5107422V.30664063H.5024414C.51220706 .30664063 .51920577 .3047689 .5234375 .3010254 .52766928 .2972819 .52978518 .29231773 .52978518 .2861328 .52978518 .2799479 .52766928 .27498374 .5234375 .27124024 .51920577 .26749674 .51220706 .265625 .5024414 .265625H.32080079Z"/>
<path id="font_1_2" d="M.37841798 .7373047C.46923829 .7373047 .53971359 .71332809 .58984377 .66537478 .63997396 .61742147 .66780599 .5629476 .67333987 .5019531H.5786133C.5678711 .54817709 .5464681 .58479818 .5144043 .6118164 .48234049 .63883468 .43733726 .65234377 .37939454 .65234377 .3087565 .65234377 .25170899 .62754318 .20825196 .5779419 .16479492 .52834066 .1430664 .45231629 .1430664 .34986878 .1430664 .26594544 .16267903 .19788106 .2019043 .14567566 .24112956 .09348043 .29964195 .06738281 .3774414 .06738281 .449056 .06738281 .50358077 .094823207 .5410156 .14970398 .5608724 .17860413 .5756836 .21659343 .5854492 .26367188H.6801758C.6717122 .18815105 .64371749 .12483724 .5961914 .07373047 .5392253 .012207031 .46240235-.018554688 .36572267-.018554688 .2823893-.018554688 .21240235 .006688436 .15576172 .057174684 .081217449 .12394714 .043945314 .2270406 .043945314 .36645509 .043945314 .47232057 .0719401 .5591278 .12792969 .62687686 .18847656 .7004954 .27197267 .7373047 .37841798 .7373047M.35888673 .7373047V.7373047Z"/>
<path id="font_1_19" d="M.39111329 .5234375H.48828126C.47591148 .48987834 .44840495 .41330973 .40576173 .2937317 .3738607 .20380657 .34716798 .13049825 .3256836 .07380676 .27490235-.059921266 .23909505-.14145915 .21826172-.17080689 .19742839-.2001648 .1616211-.21484375 .110839847-.21484375 .098470058-.21484375 .08894857-.21435039 .08227539-.21336365 .07560221-.21238709 .06738281-.21058655 .057617189-.20796204V-.1274414C.072916667-.13167317 .083984378-.13427735 .09082031-.1352539 .09765625-.13623047 .10367838-.13671875 .10888672-.13671875 .12516277-.13671875 .13712566-.1340332 .14477539-.12866211 .15242513-.123291019 .15885417-.11669922 .1640625-.10888672 .16569011-.106282558 .17154949-.092936199 .18164063-.068847659 .19173177-.044759115 .19905599-.026855469 .20361328-.015136719L.010253906 .5234375H.10986328L.25 .09727478 .39111329 .5234375M.24951172 .5361328V.5361328Z"/>
</defs>
<g clip-path="url(#clip_0)">
<path transform="matrix(1,0,0,-1,-95.1291,526.384)" d="M36 36H756V576H36Z" fill="#ffffff"/>
<path transform="matrix(1,0,0,-1,-95.1291,526.384)" d="M234 408H474V336H234Z" fill="#d4feff" fill-rule="evenodd"/>
<path transform="matrix(1,0,0,-1,138.87091,118.38397)" stroke-width="2.25" stroke-linecap="butt" stroke-miterlimit="8" stroke-linejoin="miter" fill="none" stroke="#007dd6" d="M0 0H240V-72H0Z"/>
<path transform="matrix(1,0,0,-1,-95.1291,526.384)" d="M235 522H474V432H235Z" fill="#d4feff" fill-rule="evenodd"/>
<path transform="matrix(1,0,0,-1,139.87091,4.3841555)" stroke-width="2.25" stroke-linecap="butt" stroke-miterlimit="8" stroke-linejoin="miter" fill="none" stroke="#007dd6" d="M0 0H239V-90H0Z"/>
<path transform="matrix(1,0,0,-1,-95.1291,526.384)" d="M234 432H474V408H234Z" fill="#ffffff" fill-rule="evenodd"/>
<path transform="matrix(1,0,0,-1,138.87091,94.38397)" stroke-width="1" stroke-linecap="butt" stroke-miterlimit="8" stroke-linejoin="miter" fill="none" stroke="#000000" d="M0 0H240V-24H0Z"/>
<use data-text="R" xlink:href="#font_1_3" transform="matrix(16,0,0,-16,204.07093,112.78406)"/>
<use data-text="e" xlink:href="#font_1_8" transform="matrix(16,0,0,-16,215.62293,112.78406)"/>
<use data-text="t" xlink:href="#font_1_17" transform="matrix(16,0,0,-16,224.51892,112.78406)"/>
<use data-text="u" xlink:href="#font_1_18" transform="matrix(16,0,0,-16,228.96692,112.78406)"/>
<use data-text="r" xlink:href="#font_1_15" transform="matrix(16,0,0,-16,237.86292,112.78406)"/>
<use data-text="n" xlink:href="#font_1_13" transform="matrix(16,0,0,-16,243.19092,112.78406)"/>
<use data-text=" " xlink:href="#font_1_1" transform="matrix(16,0,0,-16,252.08692,112.78406)"/>
<use data-text="a" xlink:href="#font_1_5" transform="matrix(16,0,0,-16,256.5349,112.78406)"/>
<use data-text="d" xlink:href="#font_1_7" transform="matrix(16,0,0,-16,265.4309,112.78406)"/>
<use data-text="d" xlink:href="#font_1_7" transform="matrix(16,0,0,-16,274.3269,112.78406)"/>
<use data-text="r" xlink:href="#font_1_15" transform="matrix(16,0,0,-16,283.2229,112.78406)"/>
<use data-text="e" xlink:href="#font_1_8" transform="matrix(16,0,0,-16,288.5509,112.78406)"/>
<use data-text="s" xlink:href="#font_1_16" transform="matrix(16,0,0,-16,297.4469,112.78406)"/>
<use data-text="s" xlink:href="#font_1_16" transform="matrix(16,0,0,-16,305.4469,112.78406)"/>
<use data-text="&#xfffd;" xlink:href="#font_2_1" transform="matrix(16,0,0,-16,313.4469,112.78406)"/>
<use data-text="b" xlink:href="#font_3_15" transform="matrix(16,0,0,-16,412.58293,179.98407)"/>
<use data-text="u" xlink:href="#font_3_24" transform="matrix(16,0,0,-16,422.18293,179.98407)"/>
<use data-text="f" xlink:href="#font_3_18" transform="matrix(16,0,0,-16,431.7829,179.98407)"/>
<use data-text=" " xlink:href="#font_3_1" transform="matrix(16,0,0,-16,441.38288,179.98407)"/>
<use data-text="=" xlink:href="#font_3_12" transform="matrix(16,0,0,-16,450.98286,179.98407)"/>
<use data-text=" " xlink:href="#font_3_1" transform="matrix(16,0,0,-16,460.58283,179.98407)"/>
<use data-text="%" xlink:href="#font_3_2" transform="matrix(16,0,0,-16,470.1828,179.98407)"/>
<use data-text="r" xlink:href="#font_3_22" transform="matrix(16,0,0,-16,479.78279,179.98407)"/>
<use data-text="s" xlink:href="#font_3_23" transform="matrix(16,0,0,-16,489.38276,179.98407)"/>
<use data-text="p" xlink:href="#font_3_21" transform="matrix(16,0,0,-16,498.98274,179.98407)"/>
<use data-text=" " xlink:href="#font_3_1" transform="matrix(16,0,0,-16,508.5827,179.98407)"/>
<g clip-path="url(#clip_4)">
<path transform="matrix(1,0,0,-1,132.37091,118.38397)" stroke-width="2.25" stroke-linecap="butt" stroke-linejoin="round" fill="none" stroke="#011279" d="M0 0C-7.87 0-14.25-4.925-14.25-11V-25C-14.25-31.075-20.63-36-28.5-36-20.63-36-14.25-40.925-14.25-47V-61C-14.25-67.075-7.87-72 0-72"/>
</g>
<use data-text="S" xlink:href="#font_1_4" transform="matrix(16,0,0,-16,4.711502,149.98398)"/>
<use data-text="t" xlink:href="#font_1_17" transform="matrix(16,0,0,-16,15.383507,149.98398)"/>
<use data-text="a" xlink:href="#font_1_5" transform="matrix(16,0,0,-16,19.831505,149.98398)"/>
<use data-text="c" xlink:href="#font_1_6" transform="matrix(16,0,0,-16,28.727509,149.98398)"/>
<use data-text="k" xlink:href="#font_1_10" transform="matrix(16,0,0,-16,36.7275,149.98398)"/>
<use data-text=" " xlink:href="#font_1_1" transform="matrix(16,0,0,-16,44.7275,149.98398)"/>
<use data-text="f" xlink:href="#font_1_9" transform="matrix(16,0,0,-16,49.1755,149.98398)"/>
<use data-text="r" xlink:href="#font_1_15" transform="matrix(16,0,0,-16,53.623498,149.98398)"/>
<use data-text="a" xlink:href="#font_1_5" transform="matrix(16,0,0,-16,58.9515,149.98398)"/>
<use data-text="m" xlink:href="#font_1_12" transform="matrix(16,0,0,-16,67.847499,149.98398)"/>
<use data-text="e" xlink:href="#font_1_8" transform="matrix(16,0,0,-16,81.1755,149.98398)"/>
<use data-text="&#xfffd;" xlink:href="#font_2_1" transform="matrix(16,0,0,-16,90.071498,149.98398)"/>
<use data-text="f" xlink:href="#font_1_9" transform="matrix(16,0,0,-16,28.551506,168.97599)"/>
<use data-text="o" xlink:href="#font_1_14" transform="matrix(16,0,0,-16,32.999505,168.97599)"/>
<use data-text="r" xlink:href="#font_1_15" transform="matrix(16,0,0,-16,41.8955,168.97599)"/>
<use data-text=" " xlink:href="#font_1_1" transform="matrix(16,0,0,-16,47.223505,168.97599)"/>
<use data-text="e" xlink:href="#font_3_17" transform="matrix(16,0,0,-16,51.6715,168.97599)"/>
<use data-text="c" xlink:href="#font_3_16" transform="matrix(16,0,0,-16,61.271509,168.97599)"/>
<use data-text="h" xlink:href="#font_3_19" transform="matrix(16,0,0,-16,70.87151,168.97599)"/>
<use data-text="o" xlink:href="#font_3_20" transform="matrix(16,0,0,-16,80.47152,168.97599)"/>
<use data-text=" " xlink:href="#font_3_1" transform="matrix(16,0,0,-16,90.071529,168.97599)"/>
<g clip-path="url(#clip_5)">
<path transform="matrix(1,0,0,-1,132.37091,4.3841555)" stroke-width="2.25" stroke-linecap="butt" stroke-linejoin="round" fill="none" stroke="#011279" d="M0 0C-7.87 0-14.25-4.253-14.25-9.5V-47.5C-14.25-52.747-20.63-57-28.5-57-20.63-57-14.25-61.253-14.25-66.5V-104.5C-14.25-109.747-7.87-114 0-114"/>
</g>
<use data-text="S" xlink:href="#font_1_4" transform="matrix(16,0,0,-16,4.711502,59.98398)"/>
<use data-text="t" xlink:href="#font_1_17" transform="matrix(16,0,0,-16,15.383507,59.98398)"/>
<use data-text="a" xlink:href="#font_1_5" transform="matrix(16,0,0,-16,19.831505,59.98398)"/>
<use data-text="c" xlink:href="#font_1_6" transform="matrix(16,0,0,-16,28.727509,59.98398)"/>
<use data-text="k" xlink:href="#font_1_10" transform="matrix(16,0,0,-16,36.7275,59.98398)"/>
<use data-text=" " xlink:href="#font_1_1" transform="matrix(16,0,0,-16,44.7275,59.98398)"/>
<use data-text="f" xlink:href="#font_1_9" transform="matrix(16,0,0,-16,49.1755,59.98398)"/>
<use data-text="r" xlink:href="#font_1_15" transform="matrix(16,0,0,-16,53.623498,59.98398)"/>
<use data-text="a" xlink:href="#font_1_5" transform="matrix(16,0,0,-16,58.9515,59.98398)"/>
<use data-text="m" xlink:href="#font_1_12" transform="matrix(16,0,0,-16,67.847499,59.98398)"/>
<use data-text="e" xlink:href="#font_1_8" transform="matrix(16,0,0,-16,81.1755,59.98398)"/>
<use data-text="&#xfffd;" xlink:href="#font_2_1" transform="matrix(16,0,0,-16,90.071498,59.98398)"/>
<use data-text="f" xlink:href="#font_1_9" transform="matrix(16,0,0,-16,28.711503,78.97598)"/>
<use data-text="o" xlink:href="#font_1_14" transform="matrix(16,0,0,-16,33.159509,78.97598)"/>
<use data-text="r" xlink:href="#font_1_15" transform="matrix(16,0,0,-16,42.055505,78.97598)"/>
<use data-text=" " xlink:href="#font_1_1" transform="matrix(16,0,0,-16,47.383508,78.97598)"/>
<use data-text="c" xlink:href="#font_1_6" transform="matrix(16,0,0,-16,51.831506,78.97598)"/>
<use data-text="a" xlink:href="#font_1_5" transform="matrix(16,0,0,-16,59.831506,78.97598)"/>
<use data-text="l" xlink:href="#font_1_11" transform="matrix(16,0,0,-16,68.7275,78.97598)"/>
<use data-text="l" xlink:href="#font_1_11" transform="matrix(16,0,0,-16,72.2795,78.97598)"/>
<use data-text="e" xlink:href="#font_1_8" transform="matrix(16,0,0,-16,75.831508,78.97598)"/>
<use data-text="r" xlink:href="#font_1_15" transform="matrix(16,0,0,-16,84.7275,78.97598)"/>
<use data-text=" " xlink:href="#font_3_1" transform="matrix(16,0,0,-16,90.055507,78.97598)"/>
<path transform="matrix(1,0,0,-1,-95.1291,526.384)" d="M234 360H264V336H234Z" fill="#ffffff" fill-rule="evenodd"/>
<path transform="matrix(1,0,0,-1,138.87091,166.38397)" stroke-width="1" stroke-linecap="butt" stroke-miterlimit="8" stroke-linejoin="miter" fill="none" stroke="#000000" d="M0 0H30V-24H0Z"/>
<use data-text="[" xlink:href="#font_3_13" transform="matrix(16,0,0,-16,139.07089,184.78397)"/>
<use data-text="7" xlink:href="#font_3_11" transform="matrix(16,0,0,-16,148.6709,184.78397)"/>
<use data-text="]" xlink:href="#font_3_14" transform="matrix(16,0,0,-16,158.2709,184.78397)"/>
<use data-text=" " xlink:href="#font_3_1" transform="matrix(16,0,0,-16,167.87091,184.78397)"/>
<path transform="matrix(1,0,0,-1,-95.1291,526.384)" d="M264 360H294V336H264Z" fill="#ffffff" fill-rule="evenodd"/>
<path transform="matrix(1,0,0,-1,168.87091,166.38397)" stroke-width="1" stroke-linecap="butt" stroke-miterlimit="8" stroke-linejoin="miter" fill="none" stroke="#000000" d="M0 0H30V-24H0Z"/>
<use data-text="[" xlink:href="#font_3_13" transform="matrix(16,0,0,-16,169.07093,184.78397)"/>
<use data-text="6" xlink:href="#font_3_10" transform="matrix(16,0,0,-16,178.67093,184.78397)"/>
<use data-text="]" xlink:href="#font_3_14" transform="matrix(16,0,0,-16,188.27094,184.78397)"/>
<use data-text=" " xlink:href="#font_3_1" transform="matrix(16,0,0,-16,197.87094,184.78397)"/>
<path transform="matrix(1,0,0,-1,-95.1291,526.384)" d="M294 360H324V336H294Z" fill="#ffffff" fill-rule="evenodd"/>
<path transform="matrix(1,0,0,-1,198.87091,166.38397)" stroke-width="1" stroke-linecap="butt" stroke-miterlimit="8" stroke-linejoin="miter" fill="none" stroke="#000000" d="M0 0H30V-24H0Z"/>
<use data-text="[" xlink:href="#font_3_13" transform="matrix(16,0,0,-16,199.07093,184.78397)"/>
<use data-text="5" xlink:href="#font_3_9" transform="matrix(16,0,0,-16,208.67093,184.78397)"/>
<use data-text="]" xlink:href="#font_3_14" transform="matrix(16,0,0,-16,218.27094,184.78397)"/>
<use data-text=" " xlink:href="#font_3_1" transform="matrix(16,0,0,-16,227.87094,184.78397)"/>
<path transform="matrix(1,0,0,-1,-95.1291,526.384)" d="M324 360H354V336H324Z" fill="#ffffff" fill-rule="evenodd"/>
<path transform="matrix(1,0,0,-1,228.87091,166.38397)" stroke-width="1" stroke-linecap="butt" stroke-miterlimit="8" stroke-linejoin="miter" fill="none" stroke="#000000" d="M0 0H30V-24H0Z"/>
<use data-text="[" xlink:href="#font_3_13" transform="matrix(16,0,0,-16,229.07093,184.78397)"/>
<use data-text="4" xlink:href="#font_3_8" transform="matrix(16,0,0,-16,238.67093,184.78397)"/>
<use data-text="]" xlink:href="#font_3_14" transform="matrix(16,0,0,-16,248.27094,184.78397)"/>
<use data-text=" " xlink:href="#font_3_1" transform="matrix(16,0,0,-16,257.87095,184.78397)"/>
<path transform="matrix(1,0,0,-1,-95.1291,526.384)" d="M354 360H384V336H354Z" fill="#ffffff" fill-rule="evenodd"/>
<path transform="matrix(1,0,0,-1,258.8709,166.38397)" stroke-width="1" stroke-linecap="butt" stroke-miterlimit="8" stroke-linejoin="miter" fill="none" stroke="#000000" d="M0 0H30V-24H0Z"/>
<use data-text="[" xlink:href="#font_3_13" transform="matrix(16,0,0,-16,259.07093,184.78397)"/>
<use data-text="3" xlink:href="#font_3_7" transform="matrix(16,0,0,-16,268.67094,184.78397)"/>
<use data-text="]" xlink:href="#font_3_14" transform="matrix(16,0,0,-16,278.27095,184.78397)"/>
<use data-text=" " xlink:href="#font_3_1" transform="matrix(16,0,0,-16,287.87095,184.78397)"/>
<path transform="matrix(1,0,0,-1,-95.1291,526.384)" d="M384 360H414V336H384Z" fill="#ffffff" fill-rule="evenodd"/>
<path transform="matrix(1,0,0,-1,288.8709,166.38397)" stroke-width="1" stroke-linecap="butt" stroke-miterlimit="8" stroke-linejoin="miter" fill="none" stroke="#000000" d="M0 0H30V-24H0Z"/>
<use data-text="[" xlink:href="#font_3_13" transform="matrix(16,0,0,-16,289.07093,184.78397)"/>
<use data-text="2" xlink:href="#font_3_6" transform="matrix(16,0,0,-16,298.67094,184.78397)"/>
<use data-text="]" xlink:href="#font_3_14" transform="matrix(16,0,0,-16,308.27095,184.78397)"/>
<use data-text=" " xlink:href="#font_3_1" transform="matrix(16,0,0,-16,317.87095,184.78397)"/>
<path transform="matrix(1,0,0,-1,-95.1291,526.384)" d="M414 360H444V336H414Z" fill="#ffffff" fill-rule="evenodd"/>
<path transform="matrix(1,0,0,-1,318.87083,166.38397)" stroke-width="1" stroke-linecap="butt" stroke-miterlimit="8" stroke-linejoin="miter" fill="none" stroke="#000000" d="M0 0H30V-24H0Z"/>
<use data-text="[" xlink:href="#font_3_13" transform="matrix(16,0,0,-16,319.07093,184.78397)"/>
<use data-text="1" xlink:href="#font_3_5" transform="matrix(16,0,0,-16,328.67094,184.78397)"/>
<use data-text="]" xlink:href="#font_3_14" transform="matrix(16,0,0,-16,338.27095,184.78397)"/>
<use data-text=" " xlink:href="#font_3_1" transform="matrix(16,0,0,-16,347.87095,184.78397)"/>
<path transform="matrix(1,0,0,-1,-95.1291,526.384)" d="M444 360H474V336H444Z" fill="#ffffff" fill-rule="evenodd"/>
<path transform="matrix(1,0,0,-1,348.87083,166.38397)" stroke-width="1" stroke-linecap="butt" stroke-miterlimit="8" stroke-linejoin="miter" fill="none" stroke="#000000" d="M0 0H30V-24H0Z"/>
<use data-text="[" xlink:href="#font_3_13" transform="matrix(16,0,0,-16,349.07093,184.78397)"/>
<use data-text="0" xlink:href="#font_3_4" transform="matrix(16,0,0,-16,358.67094,184.78397)"/>
<use data-text="]" xlink:href="#font_3_14" transform="matrix(16,0,0,-16,368.27095,184.78397)"/>
<use data-text=" " xlink:href="#font_3_1" transform="matrix(16,0,0,-16,377.87095,184.78397)"/>
<path transform="matrix(1,0,0,-1,408.87083,106.38397)" stroke-width="2.25" stroke-linecap="butt" stroke-linejoin="round" fill="none" stroke="#000000" d="M0 0H-27.75"/>
<path transform="matrix(1,0,0,-1,385.62083,103.00906)" d="M0 0-6.75-3.375 0-6.75Z" fill-rule="evenodd"/>
<use data-text="%" xlink:href="#font_3_2" transform="matrix(16,0,0,-16,412.5769,107.98398)"/>
<use data-text="r" xlink:href="#font_3_22" transform="matrix(16,0,0,-16,422.17689,107.98398)"/>
<use data-text="s" xlink:href="#font_3_23" transform="matrix(16,0,0,-16,431.77687,107.98398)"/>
<use data-text="p" xlink:href="#font_3_21" transform="matrix(16,0,0,-16,441.37684,107.98398)"/>
<use data-text="+" xlink:href="#font_3_3" transform="matrix(16,0,0,-16,450.9768,107.98398)"/>
<use data-text="2" xlink:href="#font_3_6" transform="matrix(16,0,0,-16,460.57679,107.98398)"/>
<use data-text="4" xlink:href="#font_3_8" transform="matrix(16,0,0,-16,470.17677,107.98398)"/>
<use data-text=" " xlink:href="#font_3_1" transform="matrix(16,0,0,-16,479.77674,107.98398)"/>
<path transform="matrix(1,0,0,-1,408.87083,178.38397)" stroke-width="2.25" stroke-linecap="butt" stroke-linejoin="round" fill="none" stroke="#000000" d="M0 0H-27.75"/>
<path transform="matrix(1,0,0,-1,385.62083,175.00907)" d="M0 0-6.75-3.375 0-6.75Z" fill-rule="evenodd"/>
<path transform="matrix(1,0,0,-1,-95.1291,526.384)" d="M234 384H474V360H234Z" fill="#ffffff" fill-rule="evenodd"/>
<path transform="matrix(1,0,0,-1,138.87091,142.38397)" stroke-width="1" stroke-linecap="butt" stroke-miterlimit="8" stroke-linejoin="miter" fill="none" stroke="#000000" d="M0 0H240V-24H0Z"/>
<use data-text="C" xlink:href="#font_1_2" transform="matrix(16,0,0,-16,233.07093,160.78397)"/>
<use data-text="a" xlink:href="#font_1_5" transform="matrix(16,0,0,-16,244.62293,160.78397)"/>
<use data-text="n" xlink:href="#font_1_13" transform="matrix(16,0,0,-16,253.51892,160.78397)"/>
<use data-text="a" xlink:href="#font_1_5" transform="matrix(16,0,0,-16,262.41493,160.78397)"/>
<use data-text="r" xlink:href="#font_1_15" transform="matrix(16,0,0,-16,271.3109,160.78397)"/>
<use data-text="y" xlink:href="#font_1_19" transform="matrix(16,0,0,-16,276.63893,160.78397)"/>
<use data-text=" " xlink:href="#font_3_1" transform="matrix(16,0,0,-16,284.63893,160.78397)"/>
<path transform="matrix(1,0,0,-1,138.87091,118.38397)" stroke-width="2.25" stroke-linecap="butt" stroke-miterlimit="8" stroke-linejoin="miter" fill="none" stroke="#007dd6" d="M0 0H240V-72H0Z"/>
<path transform="matrix(1,0,0,-1,138.87091,4.3841555)" stroke-width="2.25" stroke-linecap="butt" stroke-miterlimit="8" stroke-linejoin="miter" fill="none" stroke="#007dd6" d="M0 0H240V-114H0Z"/>
</g>
</svg>
