<svg xmlns="http://www.w3.org/2000/svg" xmlns:xlink="http://www.w3.org/1999/xlink" version="1.1" width="358.145pt" height="222.85602pt" viewBox="0 0 358.145 222.85602">
<defs>
<clipPath id="clip_0">
<path transform="matrix(1,0,0,-1,-190.387,708.859)" d="M190.387 486.003H548.532V708.859H190.387Z" fill-rule="evenodd"/>
</clipPath>
<path id="font_1_13" d="M.13964844 .23144531C.14192708 .19064331 .15152996 .1575063 .16845703 .1320343 .2006836 .084376018 .25748698 .060546876 .3388672 .060546876 .37532554 .060546876 .40852867 .06575521 .43847657 .076171878 .49641929 .096354167 .5253906 .13248189 .5253906 .18455506 .5253906 .22361756 .5131836 .25144959 .48876954 .26805116 .46402995 .2843882 .42529298 .29859925 .3725586 .3106842L.27539063 .3327484C.21191406 .3471222 .16699219 .36294047 .140625 .38020326 .095052089 .41016136 .072265628 .4549408 .072265628 .5145416 .072265628 .57902529 .094563808 .6319478 .13916016 .6733093 .18375652 .71467086 .24690755 .73535159 .32861329 .73535159 .4038086 .73535159 .46769206 .7172038 .5202637 .6809082 .57283529 .6446126 .5991211 .58658859 .5991211 .50683596H.5078125C.5029297 .5452474 .49251304 .57470706 .4765625 .59521487 .4469401 .6326497 .39664714 .6513672 .3256836 .6513672 .26839195 .6513672 .22721355 .63931277 .20214844 .61520388 .17708333 .591095 .16455078 .56307479 .16455078 .5311432 .16455078 .49595643 .17919922 .47021995 .2084961 .45393373 .22770183 .44350688 .27115885 .43047587 .3388672 .4148407L.43945313 .39187623C.48795573 .38079835 .5253906 .36565147 .5517578 .34643556 .59733077 .31288658 .6201172 .26419068 .6201172 .2003479 .6201172 .12085978 .59122726 .06401571 .53344729 .029815674 .47566734-.004384359 .40852867-.021484375 .33203126-.021484375 .24283855-.021484375 .17301433 .0013478597 .122558597 .04701233 .07210287 .0923411 .04736328 .15381877 .048339845 .23144531H.13964844M.3359375 .7373047V.7373047Z"/>
<path id="font_1_27" d="M.08203125 .66796877H.17089844V.5234375H.25439454V.4501953H.17089844V.110183719C.17089844 .09202576 .17708333 .07986959 .18945313 .07371521 .19628906 .07014465 .2076823 .068359378 .22363281 .068359378 .22786458 .068359378 .23242188 .06846619 .23730469 .06867981 .2421875 .0689036 .24788411 .06944784 .25439454 .0703125V0C.24430339-.0031026204 .23380535-.005340576 .22290039-.006713867 .21199544-.008097331 .20019531-.0087890629 .1875-.0087890629 .14648438-.0087890629 .118652347 .0016988119 .104003909 .02267456 .08935547 .04365031 .08203125 .070882167 .08203125 .10437012V.4501953H.011230469V.5234375H.08203125V.66796877Z"/>
<path id="font_1_14" d="M.13183594 .1394043C.13183594 .114095058 .14111328 .09413656 .15966797 .07952881 .17822266 .06492106 .20019531 .057617189 .22558594 .057617189 .2565104 .057617189 .28645835 .06471761 .3154297 .07891846 .3642578 .10247803 .38867188 .14127605 .38867188 .1953125V.26611329C.3779297 .25886027 .36409507 .2528127 .34716798 .24797058 .33024089 .24313863 .3136393 .23983257 .29736329 .23805237L.24414063 .23184204C.21223958 .22799683 .1883138 .22153218 .17236328 .21244812 .14534505 .19718933 .13183594 .17284139 .13183594 .1394043M.34472657 .31689454C.36490885 .3194987 .37841798 .32796226 .3852539 .34228517 .38916017 .35012818 .39111329 .36140443 .39111329 .3761139 .39111329 .40618388 .38045249 .42799888 .35913087 .44155885 .33780924 .455129 .30729167 .46191407 .26757813 .46191407 .22167969 .46191407 .18912761 .44948326 .16992188 .42462159 .15917969 .4108785 .15218099 .39043174 .14892578 .36328126H.06689453C.06852213 .42791749 .08943685 .47288514 .12963867 .4981842 .1698405 .5234833 .21647136 .5361328 .26953126 .5361328 .3310547 .5361328 .38102214 .52441409 .4194336 .50097659 .45751954 .47753907 .4765625 .4410502 .4765625 .39151V.08985901C.4765625 .08073425 .47843424 .073404949 .48217774 .067871097 .48592124 .06233724 .4938151 .059570314 .5058594 .059570314 .5097656 .059570314 .51416018 .059814454 .51904299 .060302736 .5239258 .060791017 .5291341 .061523439 .53466799 .0625V-.0028076173C.5209961-.00676473 .5105794-.009236653 .50341799-.010223389 .4962565-.011220296 .48649089-.01171875 .4741211-.01171875 .44384767-.01171875 .421875-.0009104411 .40820313 .020706177 .40104167 .032170614 .3959961 .048380536 .3930664 .06933594 .37516276 .045633954 .34944663 .025060019 .31591798 .0076141359 .2823893-.009831746 .2454427-.018554688 .20507813-.018554688 .15657552-.018554688 .11694336-.0037790936 .08618164 .025772095 .055419923 .055323285 .040039064 .092300418 .040039064 .13670349 .040039064 .18535869 .05517578 .22307332 .08544922 .24984741 .115722659 .2766215 .1554362 .29311119 .20458985 .2993164L.34472657 .31689454M.27197267 .5361328V.5361328Z"/>
<path id="font_1_15" d="M.26611329 .53808596C.32503257 .53808596 .37296549 .5237274 .4099121 .49501039 .44685874 .46629334 .46907554 .41684977 .4765625 .3466797H.39111329C.38590495 .37890626 .37402345 .40568034 .35546876 .42700196 .33691407 .44832359 .3071289 .45898438 .26611329 .45898438 .2101237 .45898438 .17008464 .43170677 .1459961 .3771515 .1303711 .34176127 .122558597 .29808555 .122558597 .24612427 .122558597 .19384766 .1336263 .14984639 .15576172 .11412048 .17789714 .07840475 .21272786 .060546876 .2602539 .060546876 .29671226 .060546876 .3256022 .0716095 .34692384 .09373474 .36824546 .115859989 .38297526 .1461385 .39111329 .18457031H.4765625C.46679688 .115234378 .4423828 .06453451 .4033203 .032470704 .3642578 .00040690104 .31429038-.015625 .25341798-.015625 .1850586-.015625 .13053386 .009379069 .08984375 .059387208 .049153646 .10940552 .028808594 .17188008 .028808594 .24681092 .028808594 .33868919 .05110677 .41020204 .095703128 .4613495 .14029949 .51250717 .19710286 .53808596 .26611329 .53808596M.2524414 .5361328V.5361328Z"/>
<path id="font_1_20" d="M.0625 .71777346H.14697266V.30101014L.3725586 .5234375H.48486329L.28466798 .32881166 .49609376 0H.38378907L.22070313 .26635743 .14697266 .19647217V0H.0625V.71777346Z"/>
<path id="font_1_1" d="M0 0Z"/>
<path id="font_1_24" d="M.28515626 .057617189C.32617188 .057617189 .36027018 .07486979 .38745118 .109375 .41463218 .14389038 .42822267 .1954956 .42822267 .26419068 .42822267 .3060608 .42220054 .34204103 .41015626 .37213136 .38736979 .43003337 .34570313 .45898438 .28515626 .45898438 .22428386 .45898438 .18261719 .42840068 .16015625 .36723329 .14811199 .33451844 .14208985 .29297386 .14208985 .24259949 .14208985 .20204163 .14811199 .16753133 .16015625 .1390686 .1829427 .08476766 .22460938 .057617189 .28515626 .057617189M.057617189 .5205078H.1430664V.45162965C.16064453 .47540284 .17985027 .49379985 .2006836 .5068207 .23030599 .5263621 .26513673 .5361328 .30517579 .5361328 .36442057 .5361328 .41471354 .5133667 .4560547 .46783448 .49739585 .42230226 .5180664 .3572693 .5180664 .2727356 .5180664 .1585083 .48828126 .07691447 .42871095 .027954102 .39095054-.0030517579 .34700523-.018554688 .296875-.018554688 .25748698-.018554688 .22444661-.009984334 .1977539 .007156372 .1821289 .016860962 .16471355 .033518476 .14550781 .057128908V-.20898438H.057617189V.5205078Z"/>
<path id="font_1_23" d="M.27197267 .057617189C.33024089 .057617189 .37019859 .07964579 .3918457 .123703 .41349284 .16776021 .4243164 .21677144 .4243164 .2707367 .4243164 .31950379 .4165039 .35917155 .4008789 .38974 .3761393 .43785606 .3334961 .46191407 .27294923 .46191407 .21923828 .46191407 .18017578 .44143168 .15576172 .40046693 .13134766 .35950218 .119140628 .31008403 .119140628 .25221253 .119140628 .1966095 .13134766 .15027364 .15576172 .113204959 .18017578 .076146449 .21891277 .057617189 .27197267 .057617189M.27539063 .53808596C.34277345 .53808596 .3997396 .5156453 .44628907 .47076417 .49283854 .42588298 .5161133 .35985819 .5161133 .27268983 .5161133 .1884613 .49560548 .11886088 .45458985 .06388855 .41357423 .008926392 .3499349-.018554688 .26367188-.018554688 .19173177-.018554688 .13460286 .00575765 .092285159 .054382326 .04996745 .103006999 .028808594 .16829936 .028808594 .2502594 .028808594 .33806864 .05110677 .4079895 .095703128 .46002198 .14029949 .51206466 .20019531 .53808596 .27539063 .53808596M.27246095 .5361328V.5361328Z"/>
<path id="font_1_19" d="M.064453128 .5205078H.1538086V0H.064453128V.5205078M.064453128 .71777346H.1538086V.61816409H.064453128V.71777346Z"/>
<path id="font_1_22" d="M.064453128 .5234375H.14794922V.44921876C.1726888 .47981773 .19889324 .50179037 .2265625 .5151367 .25423179 .5284831 .2849935 .53515627 .31884767 .53515627 .3930664 .53515627 .44319663 .5092519 .46923829 .45744325 .4835612 .42910258 .49072267 .38853965 .49072267 .3357544V0H.4013672V.3299408C.4013672 .36188255 .39664714 .38762919 .38720704 .4071808 .37158204 .4397634 .34326173 .4560547 .3022461 .4560547 .28141276 .4560547 .2643229 .4539388 .25097657 .44970704 .22688802 .4425354 .20572917 .42819724 .1875 .4066925 .17285156 .38941957 .16333008 .37157694 .15893555 .35316468 .15454102 .3347524 .15234375 .30844117 .15234375 .27423097V0H.064453128V.5234375M.2709961 .5361328V.5361328Z"/>
<path id="font_1_17" d="M.28222657 .53515627C.31933595 .53515627 .355306 .52644857 .39013673 .5090332 .42496745 .49161784 .4514974 .4690806 .46972657 .4414215 .4873047 .41505433 .49902345 .3842977 .5048828 .3491516 .5100911 .32506309 .5126953 .28647868 .5126953 .23339844H.12939453C.13102214 .18033855 .14355469 .13777669 .16699219 .10571289 .19042969 .073649089 .22672527 .057617189 .2758789 .057617189 .32177735 .057617189 .35839845 .07261658 .3857422 .10261536 .4013672 .12003072 .4124349 .14018758 .4189453 .16308594H.5053711C.50309249 .14398194 .49552409 .122690837 .48266603 .09921265 .46980796 .07574463 .45540367 .05656433 .43945313 .041671754 .4127604 .01576233 .37972007-.0017242432 .34033204-.010787964 .3191732-.01596578 .2952474-.018554688 .2685547-.018554688 .20345052-.018554688 .14827474 .0051472985 .103027347 .05255127 .05777995 .09995524 .03515625 .16634114 .03515625 .25170899 .03515625 .33576457 .057942708 .40401713 .103515628 .45646668 .14908855 .5089264 .20865886 .53515627 .28222657 .53515627M.42236329 .30371095C.41878257 .34191896 .41048179 .37245179 .39746095 .39530946 .3733724 .4377594 .33317057 .45898438 .27685548 .45898438 .23649089 .45898438 .20263672 .44437156 .17529297 .41514588 .14794922 .3859202 .13346355 .34877525 .13183594 .30371095H.42236329M.27392579 .5361328V.5361328Z"/>
<path id="font_1_25" d="M.06689453 .5234375H.15039063V.4326172C.15722656 .4502767 .17399089 .4717814 .2006836 .49713136 .2273763 .52248129 .25813804 .53515627 .29296876 .53515627 .29459635 .53515627 .29736329 .5349579 .30126954 .53456118 .30517579 .5341746 .31184898 .5333964 .32128907 .53222659V.43945313C.31608073 .44062297 .3112793 .44140116 .30688478 .44178773 .30249024 .44218446 .2976888 .4423828 .29248048 .4423828 .24820964 .4423828 .2141927 .4280599 .19042969 .39941407 .16666667 .37076823 .15478516 .33789063 .15478516 .30078126V0H.06689453V.5234375Z"/>
<path id="font_2_1" d="M0 0Z"/>
<path id="font_3_2" d="M.3623047 .49682618C.3623047 .46174113 .35001628 .43184916 .32543946 .40715028 .30086265 .38246156 .27148438 .3701172 .23730469 .3701172 .20279949 .3701172 .17333985 .38246156 .14892578 .40715028 .12451172 .43184916 .11230469 .46174113 .11230469 .49682618 .11230469 .5319112 .12451172 .56171676 .14892578 .5862427 .17333985 .6107788 .20279949 .6230469 .23730469 .6230469 .2718099 .6230469 .30126954 .6107788 .3256836 .5862427 .35009767 .56171676 .3623047 .5319112 .3623047 .49682618M.3330078 .49658204C.3330078 .5236003 .32364909 .5465495 .30493165 .5654297 .2862142 .5843099 .26367188 .59375 .23730469 .59375 .2109375 .59375 .18839519 .5843099 .16967774 .5654297 .15096028 .5465495 .14160156 .5236003 .14160156 .49658204 .14160156 .4695638 .15096028 .4466146 .16967774 .42773438 .18839519 .40885417 .2109375 .39941407 .23730469 .39941407 .26367188 .39941407 .2862142 .40885417 .30493165 .42773438 .32364909 .4466146 .3330078 .4695638 .3330078 .49658204M.4951172 .3564453 .115234378 .22949219C.110677089 .22819011 .10725912 .22753906 .10498047 .22753906 .10139974 .22753906 .098225917 .22896321 .095458988 .23181153 .092692058 .23467 .091308597 .23798116 .091308597 .241745 .091308597 .2448883 .092447917 .24803162 .09472656 .25117494 .096354167 .25306703 .100097659 .254954 .10595703 .25683595L.48583985 .38378907C.49039714 .38509117 .49397788 .3857422 .49658204 .3857422 .49983726 .3857422 .5028483 .38431297 .50561526 .38145448 .50838217 .37860618 .5097656 .37530009 .5097656 .37153626 .5097656 .36839295 .5086263 .36524964 .50634768 .36210633 .50472006 .36021424 .50097659 .35832725 .4951172 .3564453M.48876954 .11450195C.48876954 .07941691 .4764811 .049606325 .4519043 .02507019 .42732749 .00054423019 .39778648-.01171875 .36328126-.01171875 .32910157-.01171875 .2997233 .00062561038 .27514649 .025314331 .25056968 .050013227 .23828125 .07974243 .23828125 .11450195 .23828125 .14958699 .25048829 .17947388 .27490235 .2041626 .2993164 .2288615 .32877604 .24121094 .36328126 .24121094 .39778648 .24121094 .42732749 .2288615 .4519043 .2041626 .4764811 .17947388 .48876954 .14958699 .48876954 .11450195M.45898438 .114746097C.45898438 .14208985 .44962565 .16512044 .4309082 .18383789 .41219078 .20255535 .38964845 .21191406 .36328126 .21191406 .33691407 .21191406 .31437174 .20247396 .2956543 .18359375 .27693687 .16471355 .26757813 .14176433 .26757813 .114746097 .26757813 .08805338 .27693687 .06518555 .2956543 .046142579 .31437174 .02709961 .33691407 .017578125 .36328126 .017578125 .38964845 .017578125 .41219078 .027018229 .4309082 .045898439 .44962565 .06477865 .45898438 .08772787 .45898438 .114746097Z"/>
<path id="font_3_9" d="M.25097657 .42382813V.3200531C.30436198 .36812846 .34431968 .3990682 .3708496 .4128723 .39737956 .4266866 .421875 .43359376 .44433595 .43359376 .46875 .43359376 .49145509 .4253184 .5124512 .4087677 .53344729 .392217 .5439453 .37967936 .5439453 .3711548 .5439453 .3649292 .5419108 .3597819 .5378418 .3557129 .53377279 .3516439 .5286458 .34960938 .52246096 .34960938 .51920577 .34960938 .5164388 .35017906 .51416018 .35131837 .51188156 .35245768 .5076497 .3561605 .50146487 .36242677 .49007163 .3739624 .48014323 .38187156 .4716797 .38615418 .46321617 .3904368 .45491538 .39257813 .44677735 .39257813 .4288737 .39257813 .40730796 .38542176 .38208009 .371109 .3568522 .35679627 .31315104 .32182823 .25097657 .26620484V.041015626H.4326172C.44270835 .041015626 .44986979 .03914388 .45410157 .03540039 .45833335 .031656904 .46044923 .026692709 .46044923 .020507813 .46044923 .0146484379 .45833335 .009765625 .45410157 .005859375 .44986979 .001953125 .44270835 0 .4326172 0H.110839847C.10107422 0 .09407552 .0019175211 .08984375 .0057525637 .08561198 .0095876059 .083496097 .014506022 .083496097 .020507813 .083496097 .026041666 .0855306 .030680338 .08959961 .034423829 .09366862 .038167318 .100748699 .040039064 .110839847 .040039064H.20996094V.3828125H.13427735C.12451172 .3828125 .11751302 .38476563 .11328125 .38867188 .10904948 .39257813 .106933597 .3976237 .106933597 .4038086 .106933597 .40952555 .1089681 .41429139 .11303711 .41810609 .11710612 .42192079 .124186199 .42382813 .13427735 .42382813H.25097657Z"/>
<path id="font_3_10" d="M.43554688 .39746095C.43554688 .40672813 .4375 .4134369 .44140626 .41758729 .4453125 .42174784 .4501953 .42382813 .4560547 .42382813 .4622396 .42382813 .46728517 .42170207 .4711914 .41744996 .47509767 .413208 .47705079 .40602113 .47705079 .39588929V.32530213C.47705079 .31549583 .47509767 .30846659 .4711914 .30421449 .46728517 .29997254 .4622396 .29785157 .4560547 .29785157 .45052085 .29785157 .44588218 .2996572 .44213868 .30326844 .43839518 .30688987 .4361979 .31281028 .43554688 .32102967 .43359376 .34075419 .4235026 .35702516 .40527345 .36984254 .37858073 .3882548 .34326173 .39746095 .2993164 .39746095 .25341798 .39746095 .21777344 .3881836 .19238281 .3696289 .17317708 .3556315 .16357422 .3400065 .16357422 .3227539 .16357422 .30322267 .17496746 .28694663 .1977539 .27392579 .2133789 .2648112 .2430013 .2578125 .2866211 .2529297 .34358726 .24672444 .38313804 .23970032 .40527345 .2318573 .43684898 .22042339 .46036784 .20457459 .47583009 .18431092 .49129234 .16405742 .49902345 .14217122 .49902345 .118652347 .49902345 .08369955 .48225913 .052581788 .44873048 .025299073 .4152018-.0019836426 .3660482-.015625 .30126954-.015625 .23649089-.015625 .18343099 .00081380209 .14208985 .033691408 .14208985 .022460938 .1414388 .015192668 .14013672 .011886597 .13883464 .008590698 .13647461 .005783081 .13305664 .0034637452 .12963867 .0011545817 .1258138 0 .12158203 0 .115722659 0 .110839847 .0021209717 .106933597 .006362915 .103027347 .010615031 .10107422 .01763916 .10107422 .027435303V.112213138C.10107422 .12200928 .10294596 .12902832 .10668945 .13327027 .110432948 .13752239 .11539713 .13964844 .12158203 .13964844 .1274414 .13964844 .1324056 .13761394 .13647461 .13354492 .14054363 .1294759 .14257813 .12402344 .14257813 .1171875 .14257813 .10221354 .14632161 .08968099 .1538086 .079589847 .16520183 .063964847 .18334961 .05102539 .20825196 .040771486 .2331543 .030517579 .26367188 .025390625 .2998047 .025390625 .3531901 .025390625 .39290367 .035369874 .4189453 .05532837 .44498698 .075286868 .4580078 .09638977 .4580078 .118637088 .4580078 .14415996 .44482423 .16460674 .41845704 .17997742 .3917643 .19535828 .35294596 .20566304 .30200196 .21089173 .25105796 .21613057 .21451824 .2229716 .19238281 .2314148 .17024739 .23985799 .1529948 .2525228 .140625 .26940919 .1282552 .28630577 .12207031 .3044993 .12207031 .32398988 .12207031 .35906474 .13932292 .38691203 .17382813 .40753175 .20833333 .42816163 .24951172 .43847657 .29736329 .43847657 .3540039 .43847657 .4000651 .4248047 .43554688 .39746095Z"/>
<path id="font_3_8" d="M.14550781 .42382813V.349411C.16992188 .37894187 .1961263 .40116883 .2241211 .41609193 .25211589 .431015 .28515626 .43847657 .3232422 .43847657 .36360679 .43847657 .4008789 .42902629 .4350586 .41012574 .46923829 .3912252 .49568687 .36490885 .5144043 .33117677 .53312179 .29744468 .54248049 .26200358 .54248049 .22485352 .54248049 .16586304 .521403 .11542765 .47924806 .07354736 .4370931 .031677247 .3852539 .0107421879 .32373048 .0107421879 .25048829 .0107421879 .19108074 .040430707 .14550781 .09980774V-.14746094H.24511719C.2548828-.14746094 .2618815-.14933269 .26611329-.15307617 .27034507-.15681966 .27246095-.16178386 .27246095-.16796875 .27246095-.17382813 .27034507-.17871094 .26611329-.18261719 .2618815-.18652344 .2548828-.18847656 .24511719-.18847656H.049316408C.03955078-.18847656 .032552083-.18660482 .028320313-.18286133 .024088541-.17911785 .021972657-.17415364 .021972657-.16796875 .021972657-.16178386 .024088541-.15681966 .028320313-.15307617 .032552083-.14933269 .03955078-.14746094 .049316408-.14746094H.10449219V.3828125H.049316408C.03955078 .3828125 .032552083 .38476563 .028320313 .38867188 .024088541 .39257813 .021972657 .3976237 .021972657 .4038086 .021972657 .40952555 .024088541 .41429139 .028320313 .41810609 .032552083 .42192079 .03955078 .42382813 .049316408 .42382813H.14550781M.50097659 .22485352C.50097659 .27225749 .48380534 .31287638 .4494629 .3467102 .41512046 .38054405 .37320964 .39746095 .32373048 .39746095 .27392579 .39746095 .23177083 .38046266 .19726563 .34646607 .16276042 .31246949 .14550781 .27193199 .14550781 .22485352 .14550781 .17744954 .16276042 .13674927 .19726563 .102752689 .23177083 .0687561 .27392579 .051757814 .32373048 .051757814 .37288413 .051757814 .41471354 .06867472 .44921876 .102508548 .48372398 .13634236 .50097659 .17712403 .50097659 .22485352Z"/>
<path id="font_3_1" d="M0 0Z"/>
<path id="font_1_29" d="M.0146484379 .5234375H.12841797L.24853516 .33918763 .3701172 .5234375 .47705079 .5209961 .30078126 .26831056 .48486329 0H.3725586L.24267578 .19647217 .11669922 0H.0053710939L.18945313 .26831056 .0146484379 .5234375Z"/>
<path id="font_1_6" d="M.3305664 .24902344V.5639038L.10644531 .24902344H.3305664M.33203126 0V.17089844H.025390625V.25827027L.34570313 .7011719H.41992188V.24902344H.5229492V.17089844H.41992188V0H.33203126Z"/>
<path id="font_3_11" d="M.32885743 .22181702 .5161133 .041015626C.5284831 .041015626 .5362956 .040445966 .5395508 .03930664 .54280599 .038167318 .5456543 .035807294 .5480957 .032226564 .5505371 .028645834 .5517578 .024739584 .5517578 .020507813 .5517578 .0146484379 .5496419 .009765625 .54541018 .005859375 .5411784 .001953125 .5340169 0 .5239258 0H.39208985C.3819987 0 .37483726 .001953125 .37060548 .005859375 .3663737 .009765625 .3642578 .0146484379 .3642578 .020507813 .3642578 .026692709 .3663737 .031656904 .37060548 .03540039 .37483726 .03914388 .3819987 .041015626 .39208985 .041015626H.45996095L.30067445 .19459534 .14160156 .041015626H.20996094C.21972656 .041015626 .22672527 .03914388 .23095703 .03540039 .2351888 .031656904 .23730469 .026692709 .23730469 .020507813 .23730469 .0146484379 .2351888 .009765625 .23095703 .005859375 .22672527 .001953125 .21972656 0 .20996094 0H.076660159C.06689453 0 .059895833 .001953125 .055664064 .005859375 .051432294 .009765625 .049316408 .0146484379 .049316408 .020507813 .049316408 .024739584 .05053711 .028645834 .052978517 .032226564 .055419923 .035807294 .058186849 .038167318 .061279298 .03930664 .06437174 .040445966 .07210287 .041015626 .084472659 .041015626L.27233888 .22190857 .10546875 .3828125C.09375 .3828125 .0863444 .38345338 .08325195 .3847351 .08015951 .386027 .07739258 .388443 .07495117 .39198304 .072509769 .39552308 .07128906 .39938355 .07128906 .40356446 .07128906 .40935264 .073404949 .4141744 .07763672 .4180298 .08186849 .42189536 .089029949 .42382813 .099121097 .42382813H.2109375C.22102864 .42382813 .22810872 .42189536 .23217774 .4180298 .23624675 .4141744 .23828125 .40918986 .23828125 .40307618 .23828125 .397288 .23624675 .39246116 .23217774 .38859559 .22810872 .3847402 .22102864 .3828125 .2109375 .3828125H.16210938L.3005829 .24909973 .43945313 .3828125H.390625C.38085938 .3828125 .3737793 .3847402 .36938478 .38859559 .36499024 .39246116 .36279298 .39745078 .36279298 .40356446 .36279298 .40935264 .36490885 .4141744 .36914063 .4180298 .3733724 .42189536 .38053385 .42382813 .390625 .42382813H.5024414C.51220706 .42382813 .51920577 .42189536 .5234375 .4180298 .52766928 .4141744 .52978518 .40918986 .52978518 .40307618 .52978518 .3992208 .52856448 .39552308 .52612307 .39198304 .52368167 .388443 .52091476 .386027 .51782229 .3847351 .5147298 .38345338 .5073242 .3828125 .49560548 .3828125L.32885743 .22181702Z"/>
<path id="font_3_7" d="M.37646485 .171875H.10449219V.21925354L.33251954 .61328127H.41796876V.21289063H.45214845C.4622396 .21289063 .46940104 .21101888 .4736328 .20727539 .4778646 .2035319 .47998048 .1985677 .47998048 .19238281 .47998048 .18652344 .4778646 .18164063 .4736328 .17773438 .46940104 .17382813 .4622396 .171875 .45214845 .171875H.41796876V.041015626H.45214845C.4622396 .041015626 .46940104 .03914388 .4736328 .03540039 .4778646 .031656904 .47998048 .026692709 .47998048 .020507813 .47998048 .0146484379 .4778646 .009765625 .4736328 .005859375 .46940104 .001953125 .4622396 0 .45214845 0H.2998047C.28971354 0 .2825521 .001953125 .2783203 .005859375 .27408854 .009765625 .27197267 .0146484379 .27197267 .020507813 .27197267 .026692709 .27408854 .031656904 .2783203 .03540039 .2825521 .03914388 .28971354 .041015626 .2998047 .041015626H.37646485V.171875M.37646485 .21289063V.5722656H.35498048L.14746094 .21289063H.37646485Z"/>
<path id="font_3_6" d="M.38427735 .33319093C.42203776 .31627403 .45084635 .29310099 .47070313 .26367188 .4905599 .23424275 .5004883 .20358785 .5004883 .17170716 .5004883 .12260437 .48055015 .07926941 .44067384 .04170227 .40079753 .004135132 .35091148-.0146484379 .29101563-.0146484379 .25585938-.0146484379 .21940105-.0071614587 .18164063 .0078125 .1438802 .022786459 .11751302 .038085939 .10253906 .053710939 .09765625 .05891927 .095214847 .064453128 .095214847 .0703125 .095214847 .075520839 .097086589 .080078128 .10083008 .083984378 .10457357 .087890628 .10904948 .08984375 .11425781 .08984375 .11946615 .08984375 .12532552 .087402347 .13183594 .08251953 .18229167 .045084638 .23567708 .026367188 .2919922 .026367188 .33951823 .026367188 .37931315 .041234334 .41137696 .07096863 .44344078 .10070292 .45947267 .13376872 .45947267 .17016602 .45947267 .19453939 .45157878 .21842449 .43579103 .24182129 .42000328 .2652181 .3972982 .2836609 .36767579 .29714967 .33805339 .31063844 .30810548 .3173828 .27783204 .3173828 .2680664 .3173828 .26106773 .3192749 .25683595 .32305909 .25260417 .32685343 .25048829 .33187867 .25048829 .33813478 .25048829 .34406535 .2525228 .34900413 .2565918 .35295106 .2606608 .35690818 .2667643 .35888673 .27490235 .35888673L.3100586 .35839845C.34684245 .35839845 .37719728 .36964927 .40112306 .39215089 .42504884 .4146627 .43701173 .44076539 .43701173 .47045899 .43701173 .50111898 .42447917 .5281932 .39941407 .5516815 .37434898 .57516989 .34163413 .58691409 .30126954 .58691409 .27294923 .58691409 .24690755 .58199569 .22314453 .5721588 .19938152 .56232199 .18033855 .54887899 .16601563 .53182986 .1608073 .52527877 .15681966 .5212657 .15405274 .51979067 .15128581 .5183156 .14811199 .5175781 .14453125 .5175781 .13899739 .5175781 .13427735 .51945498 .1303711 .5232086 .12646485 .5269725 .12451172 .5314738 .12451172 .53671267 .12451172 .54978439 .13867188 .5662944 .16699219 .5862427 .2063802 .614034 .2511393 .6279297 .30126954 .6279297 .35302735 .6279297 .3955078 .6123454 .42871095 .58117678 .46191407 .5500081 .47851563 .5128784 .47851563 .4697876 .47851563 .44237266 .47054038 .41642253 .45458985 .39193727 .4386393 .36746217 .4152018 .34788005 .38427735 .33319093Z"/>
<path id="font_3_5" d="M.123535159 .041015626H.43847657V.057617189C.43847657 .06738281 .4404297 .07438151 .44433595 .07861328 .4482422 .082845058 .45328776 .08496094 .45947267 .08496094 .46533204 .08496094 .47021485 .082845058 .4741211 .07861328 .47802735 .07438151 .47998048 .06738281 .47998048 .057617189V0H.083496097V.061523439C.16682942 .13639324 .24788411 .21256511 .32666017 .29003907 .363444 .32617188 .38867188 .3527018 .40234376 .3696289 .41601563 .386556 .42537437 .40144859 .43041993 .41430665 .43546549 .4271647 .43798829 .44010417 .43798829 .453125 .43798829 .48828126 .42382813 .51936849 .3955078 .5463867 .3671875 .57340499 .3330078 .58691409 .29296876 .58691409 .25716148 .58691409 .22542317 .5765788 .1977539 .5559082 .17008464 .5352478 .15218099 .5096639 .14404297 .4791565 .14208985 .47128297 .13964844 .4661967 .13671875 .4638977 .1328125 .46062217 .1282552 .45898438 .123046878 .45898438 .11751302 .45898438 .11287435 .4608612 .10913086 .46461488 .10538737 .46836854 .103515628 .4728597 .103515628 .47808839 .103515628 .49375407 .11206055 .5149689 .12915039 .5417328 .14624024 .5685069 .1698405 .589564 .19995117 .6049042 .23006185 .6202545 .26090495 .6279297 .29248048 .6279297 .34358726 .6279297 .38753257 .6101735 .4243164 .57466128 .46110026 .539149 .4794922 .49891664 .4794922 .45396424 .4794922 .4350637 .47639976 .41770936 .47021485 .40190126 .46402995 .3861033 .4535319 .36883546 .4387207 .35009767 .42390953 .33137004 .3972982 .30311076 .35888673 .26531983 .26253257 .17018636 .18408203 .09639486 .123535159 .043945314V.041015626Z"/>
<path id="font_3_4" d="M.3203125 .62109377V.041015626H.4609375C.47070313 .041015626 .4777018 .03914388 .4819336 .03540039 .48616538 .031656904 .48828126 .026692709 .48828126 .020507813 .48828126 .0146484379 .48616538 .009765625 .4819336 .005859375 .4777018 .001953125 .47070313 0 .4609375 0H.13867188C.12890625 0 .121907558 .001953125 .11767578 .005859375 .11344401 .009765625 .111328128 .0146484379 .111328128 .020507813 .111328128 .026692709 .11344401 .031656904 .11767578 .03540039 .121907558 .03914388 .12890625 .041015626 .13867188 .041015626H.27929688V.5644531L.14550781 .52246096C.13899739 .5205078 .13427735 .51953127 .13134766 .51953127 .12646485 .51953127 .12198893 .52156576 .11791992 .52563479 .113850917 .5297038 .111816409 .5345052 .111816409 .54003909 .111816409 .5449219 .11344401 .5494792 .11669922 .55371096 .11930338 .5563151 .12467448 .55908206 .1328125 .5620117L.3203125 .62109377Z"/>
<path id="font_1_9" d="M.27197267 .40625C.31070964 .40625 .34098307 .41704814 .36279298 .4386444 .38460288 .4602407 .3955078 .48598228 .3955078 .51586917 .3955078 .5418498 .38509117 .5657196 .3642578 .58747866 .34342448 .6092377 .3116862 .6201172 .26904298 .6201172 .22672527 .6201172 .1961263 .6092377 .1772461 .58747866 .15836589 .5657196 .14892578 .54022219 .14892578 .5109863 .14892578 .4781901 .16113281 .452535 .18554688 .434021 .20996094 .415507 .23876953 .40625 .27197267 .40625M.27734376 .059570314C.31803385 .059570314 .35180665 .07055664 .3786621 .0925293 .40551759 .11450195 .4189453 .14729817 .4189453 .19091797 .4189453 .23616536 .4051107 .2705078 .3774414 .2939453 .34977214 .3173828 .31429038 .32910157 .2709961 .32910157 .2290039 .32910157 .19474285 .31713868 .16821289 .2932129 .14168294 .2692871 .12841797 .23616536 .12841797 .19384766 .12841797 .15738933 .14054363 .12589519 .16479492 .099365238 .18904622 .07283529 .2265625 .059570314 .27734376 .059570314M.15234375 .37234498C.12792969 .3827413 .10888672 .39491783 .095214847 .4088745 .069498699 .43485514 .056640626 .46863304 .056640626 .51020815 .056640626 .5621694 .075520839 .6068217 .11328125 .64416506 .15104167 .68151858 .20458985 .7001953 .27392579 .7001953 .34098307 .7001953 .3935547 .6825765 .43164063 .64733889 .46972657 .61210128 .48876954 .5709381 .48876954 .5238495 .48876954 .48033143 .4777018 .44509379 .4555664 .4181366 .44319663 .4028778 .42399089 .38793946 .39794923 .37332154 .42692057 .359965 .44970704 .34465537 .4663086 .32739259 .49723307 .29482017 .5126953 .25247193 .5126953 .2003479 .5126953 .13878377 .49202476 .08658346 .4506836 .04374695 .40934245 .0009104411 .35091148-.020507813 .27539063-.020507813 .20735677-.020507813 .14982097-.0020243328 .1027832 .034942628 .05574544 .07191976 .032226564 .12559001 .032226564 .19595337 .032226564 .23732503 .042317708 .2730764 .0625 .3032074 .08268229 .3333384 .11263021 .35638429 .15234375 .37234498Z"/>
<path id="font_1_3" d="M.095703128 .4951172V.5625C.15917969 .5686849 .20345052 .5790202 .22851563 .59350588 .25358073 .6079915 .2722982 .6422526 .28466798 .69628909H.3540039V0H.2602539V.4951172H.095703128Z"/>
<path id="font_1_7" d="M.29248048 .70214846C.37060548 .70214846 .42504884 .6818288 .45581056 .6411896 .48657228 .6005605 .5019531 .5587056 .5019531 .515625H.41503907C.40983073 .5434163 .40152995 .5651601 .39013673 .5808563 .36897788 .61028549 .33691407 .625 .2939453 .625 .24479167 .625 .20572917 .60224917 .17675781 .55674746 .14778646 .5112559 .13167317 .44611613 .12841797 .36132813 .14860027 .39095054 .17399089 .41308595 .20458985 .42773438 .23258464 .44075523 .26383464 .44726563 .29833985 .44726563 .3569336 .44726563 .40804038 .4285482 .45166017 .39111329 .49527995 .35367839 .51708987 .29785157 .51708987 .22363281 .51708987 .16015625 .49641929 .10392252 .45507813 .05493164 .41373698 .0059407555 .35481773-.018554688 .2783203-.018554688 .21289063-.018554688 .15641277 .0062815349 .10888672 .05595398 .061360677 .1056366 .037597658 .18927002 .037597658 .30685426 .037597658 .39382936 .048177083 .4676107 .06933594 .52819827 .11002604 .64416506 .18440755 .70214846 .29248048 .70214846M.2861328 .059570314C.33235679 .059570314 .36694337 .07511393 .38989259 .10620117 .4128418 .1372884 .4243164 .17399089 .4243164 .2163086 .4243164 .25211589 .4140625 .2862142 .3935547 .31860353 .37304688 .35099284 .33577476 .3671875 .28173829 .3671875 .24397786 .3671875 .21085613 .35465495 .18237305 .32958985 .15388997 .30452476 .13964844 .2667643 .13964844 .2163086 .13964844 .17203777 .15258789 .134847 .1784668 .10473633 .2043457 .07462565 .24023438 .059570314 .2861328 .059570314Z"/>
<path id="font_1_4" d="M.03125 0C.034505208 .060221357 .04695638 .11263021 .068603519 .15722656 .09025065 .20182292 .13248699 .24235027 .1953125 .2788086L.2890625 .3330078C.3310547 .35742188 .3605143 .3782908 .3774414 .39561463 .40413413 .4227346 .41748048 .45377604 .41748048 .488739 .41748048 .52959188 .40527345 .562027 .38085938 .5860443 .3564453 .61006167 .32389323 .6220703 .28320313 .6220703 .22298177 .6220703 .18131511 .5991516 .15820313 .5533142 .14583333 .52875778 .13899739 .4947103 .13769531 .45117188H.048339845C.049316408 .5121663 .060546876 .5619049 .08203125 .6003876 .12011719 .66822817 .18733724 .70214846 .2836914 .70214846 .36376954 .70214846 .4222819 .68047079 .45922853 .6371155 .49617515 .5937703 .51464846 .5455373 .51464846 .49241639 .51464846 .4363556 .49495445 .388443 .4555664 .3486786 .43277995 .3255361 .3919271 .29752604 .3330078 .26464845L.26611329 .22753906C.23421224 .20996094 .20914714 .19319661 .19091797 .1772461 .15836589 .14892578 .13785808 .11751302 .12939453 .08300781H.51123049V0H.03125Z"/>
<path id="font_1_8" d="M.5229492 .6875V.6104126C.5004883 .5888875 .47062174 .55110678 .4333496 .4970703 .39607749 .44303385 .3631185 .38476563 .33447267 .32226563 .30615235 .26139323 .28466798 .20589192 .27001954 .15576172 .26057945 .123535159 .24837239 .071614589 .23339844 0H.13623047C.15836589 .13335164 .20719402 .26605735 .28271485 .39811708 .3273112 .47553 .3741862 .5423686 .42333985 .5986328H.036621095V.6875H.5229492Z"/>
<path id="font_1_2" d="M.2705078 .7001953C.3610026 .7001953 .42643229 .66289779 .46679688 .5883026 .49804688 .5306447 .5136719 .45165 .5136719 .35131837 .5136719 .25620524 .49951173 .17754109 .4711914 .11532593 .43017579 .026072184 .3631185-.018554688 .27001954-.018554688 .18603516-.018554688 .123535159 .017929078 .08251953 .09089661 .048339845 .15180969 .03125 .23357137 .03125 .33618165 .03125 .41565959 .041503908 .48390199 .06201172 .5409088 .10042318 .6470998 .16992188 .7001953 .2705078 .7001953M.26953126 .061523439C.31510417 .061523439 .35139976 .08168539 .37841798 .12200928 .4054362 .16234334 .4189453 .23747762 .4189453 .3474121 .4189453 .42676798 .4091797 .49205528 .38964845 .5432739 .3701172 .59450277 .332194 .6201172 .2758789 .6201172 .2241211 .6201172 .1862793 .59580489 .16235352 .5471802 .13842774 .4985555 .12646485 .42692057 .12646485 .3322754 .12646485 .26105754 .13411458 .20381673 .14941406 .16055298 .17285156 .09453329 .21289063 .061523439 .26953126 .061523439Z"/>
<path id="font_1_11" d="M.44433595 .2939453 .33544923 .61120608 .21972656 .2939453H.44433595M.28466798 .71777346H.39453126L.65478518 0H.54833987L.47558595 .21484375H.19189453L.11425781 0H.0146484379L.28466798 .71777346M.33496095 .71777346V.71777346Z"/>
<path id="font_1_18" d="M.24902344 .53222659C.29003907 .53222659 .32584635 .5220744 .3564453 .50177 .37304688 .49030558 .38997398 .4736023 .40722657 .45166017V.5185547H.48828126V.04234314C.48828126-.024154664 .47851563-.07663473 .45898438-.115097049 .42252604-.18615215 .35367839-.22167969 .2524414-.22167969 .1961263-.22167969 .14876302-.20906575 .11035156-.18383789 .0719401-.15861003 .05045573-.119140628 .045898439-.06542969H.1352539C.13948567-.08873495 .14794922-.10669454 .16064453-.11930847 .1805013-.13872783 .2117513-.1484375 .25439454-.1484375 .32177735-.1484375 .3658854-.12467448 .38671876-.07714844 .39908854-.04916382 .40478517 .0007985433 .4038086 .07273865 .38623048 .04588318 .36507163 .025904337 .34033204 .012802124 .31559245-.000289917 .2828776-.0068359377 .2421875-.0068359377 .18554688-.0068359377 .13598633 .013280232 .09350586 .053512575 .05102539 .09375509 .029785157 .16030376 .029785157 .25315858 .029785157 .34080506 .051188154 .40922547 .09399414 .4584198 .13680013 .5076243 .18847656 .53222659 .24902344 .53222659M.40722657 .26342774C.40722657 .328125 .39388023 .37607829 .3671875 .4072876 .34049479 .43849693 .30647788 .45410157 .26513673 .45410157 .20328777 .45410157 .16097005 .4251658 .1381836 .3672943 .12613933 .33641053 .12011719 .29593406 .12011719 .24586487 .12011719 .1870168 .13208008 .14223226 .15600586 .11151123 .17993164 .0807902 .21207683 .06542969 .2524414 .06542969 .31559245 .06542969 .36002604 .09387716 .3857422 .1507721 .4000651 .18295796 .40722657 .22050984 .40722657 .26342774M.25927735 .5361328V.5361328Z"/>
<path id="font_1_28" d="M.15234375 .5234375V.17590332C.15234375 .1491801 .15657552 .12734477 .16503906 .11039734 .18066406 .07911682 .20979817 .06347656 .2524414 .06347656 .3136393 .06347656 .355306 .09085083 .3774414 .14559937 .3894857 .17492676 .3955078 .21516927 .3955078 .2663269V.5234375H.48339845V0H.40039063L.4013672 .0771637C.38997398 .057195028 .3758138 .040339155 .35888673 .02659607 .32535807-.00090026858 .28466798-.0146484379 .2368164-.0146484379 .16227214-.0146484379 .11149088 .010299683 .084472659 .060195924 .06982422 .08693949 .0625 .12265015 .0625 .16732788V.5234375H.15234375M.27294923 .5361328V.5361328Z"/>
<path id="font_1_21" d="M.064453128 .5234375H.15136719V.44921876C.17220052 .4749349 .19108074 .49365235 .20800781 .5053711 .23697917 .52522787 .26985679 .53515627 .30664063 .53515627 .34830729 .53515627 .38183595 .52490237 .40722657 .50439456 .42154948 .49267579 .4345703 .4754232 .44628907 .45263673 .4658203 .4806315 .48876954 .5013835 .5151367 .5148926 .5415039 .5284017 .5711263 .53515627 .6040039 .53515627 .6743164 .53515627 .72216799 .5097402 .7475586 .45890809 .76123049 .43154399 .7680664 .3947296 .7680664 .34846498V0H.6767578V.36367799C.6767578 .39853923 .6680501 .42248536 .65063479 .43551637 .6332194 .44855754 .6119792 .45507813 .58691409 .45507813 .5524089 .45507813 .5227051 .44350688 .49780274 .42036439 .4729004 .39723207 .46044923 .35861717 .46044923 .30451966V0H.37109376V.3416748C.37109376 .37719728 .36686198 .4031016 .35839845 .41938783 .3450521 .4438324 .32014976 .4560547 .2836914 .4560547 .25048829 .4560547 .22029622 .44318138 .19311524 .4174347 .16593425 .3916982 .15234375 .34510295 .15234375 .27764894V0H.064453128V.5234375Z"/>
<path id="font_1_10" d="M.5541992 .4013672V.31933595H.044921876V.4013672H.5541992M.5541992 .19238281V.10839844H.044921876V.19238281H.5541992Z"/>
<path id="font_3_3" d="M.41601563 0 .38476563 .048812868C.35546876 .0058542888 .31770835-.015625 .27148438-.015625 .23242188-.015625 .19807942-.00017801921 .16845703 .030715943 .13883464 .061620077 .12402344 .099349979 .12402344 .14390564 .12402344 .17838033 .1340332 .20894878 .15405274 .23561096 .17407227 .26228334 .20166016 .28082276 .2368164 .29122926 .21272786 .3299357 .19832357 .3553823 .19360352 .36756898 .18888347 .37976585 .18652344 .3923696 .18652344 .40538026 .18652344 .4375763 .19873047 .4657898 .22314453 .49002076 .2475586 .5142517 .27685548 .5263672 .31103517 .5263672 .32210288 .5263672 .33317057 .52475997 .34423829 .5215454 .355306 .5183309 .3663737 .51334127 .3774414 .50657656 .3914388 .5136566 .4000651 .51719668 .4033203 .51719668 .40885417 .51719668 .4136556 .51518759 .4177246 .51116946 .4217936 .5071513 .42382813 .50224307 .42382813 .4964447 .42382813 .49258933 .4226888 .4890442 .42041017 .48580934 .4181315 .48257447 .41357423 .47916667 .40673829 .47558595L.375 .4584961C.36490885 .4676107 .35457359 .47436524 .34399415 .47875978 .3334147 .4831543 .32259117 .48535157 .31152345 .48535157 .2890625 .48535157 .26944987 .47703044 .25268556 .46038819 .23592122 .4437561 .22753906 .4251658 .22753906 .4046173 .22753906 .38341777 .2421875 .3494924 .27148438 .3028412L.38476563 .12313843C.4046224 .16026815 .4202474 .20320638 .43164063 .25195313H.4716797C.4814453 .25195313 .488444 .25002036 .49267579 .24615479 .49690757 .2422994 .49902345 .23747762 .49902345 .23168946 .49902345 .22750855 .49780274 .22364807 .49536134 .22010803 .49291993 .216568 .49007163 .21415203 .4868164 .2128601 .4835612 .21157837 .47558595 .2109375 .46289063 .2109375 .44726563 .1560669 .42936198 .11353556 .4091797 .083343509L.43701173 .041015626H.4716797C.4814453 .041015626 .488444 .03914388 .49267579 .03540039 .49690757 .031656904 .49902345 .026692709 .49902345 .020507813 .49902345 .0146484379 .49690757 .009765625 .49267579 .005859375 .488444 .001953125 .4814453 0 .4716797 0H.41601563M.25439454 .25515748C.22705078 .24865723 .20532227 .23540242 .18920899 .21539307 .1730957 .19539388 .16503906 .1715749 .16503906 .14393616 .16503906 .11108907 .17586263 .08311971 .19750977 .060028078 .2191569 .036936445 .24348958 .025390625 .2705078 .025390625 .30696617 .025390625 .3370768 .045959474 .36083985 .08709717L.25439454 .25515748Z"/>
<path id="font_1_12" d="M.40966798 .38867188C.45524089 .38867188 .49129234 .39778648 .51782229 .41601563 .54435226 .43424479 .5576172 .4671224 .5576172 .51464846 .5576172 .5657552 .5390625 .60058596 .5019531 .6191406 .48209635 .62890627 .4555664 .63378909 .42236329 .63378909H.1850586V.38867188H.40966798M.087890628 .71777346H.41992188C.47460938 .71777346 .51969406 .709788 .5551758 .69381716 .6225586 .6631775 .65625 .60662338 .65625 .52415469 .65625 .48112489 .6473796 .44591777 .6296387 .41853334 .61189779 .39115907 .58707687 .36916099 .5551758 .35253907 .5831706 .34114585 .60424807 .32617188 .6184082 .3076172 .63256838 .2890625 .6404622 .2589518 .64208987 .21728516L.6455078 .12109375C.6464844 .09388224 .648763 .07363383 .65234377 .06034851 .6582031 .037663778 .6686198 .023081461 .68359377 .016601563V0H.5644531C.56119796 .006184896 .55859377 .014160156 .5566406 .023925782 .5546875 .033691408 .5530599 .052571615 .5517578 .080566409L.54589846 .20019531C.5436198 .24707031 .5262044 .27848307 .49365235 .2944336 .47509767 .30322267 .44596354 .3076172 .40625 .3076172H.1850586V0H.087890628V.71777346Z"/>
<path id="font_1_16" d="M.12011719 .2553711C.12011719 .19923909 .1319987 .15224712 .15576172 .11439514 .17952474 .076543178 .21761067 .057617189 .27001954 .057617189 .31070964 .057617189 .3441569 .075154628 .37036134 .11022949 .39656578 .14531453 .40966798 .19565328 .40966798 .26124574 .40966798 .32748924 .39615885 .37651573 .36914063 .4083252 .3421224 .44014488 .3087565 .4560547 .26904298 .4560547 .22477214 .4560547 .18888347 .4390869 .16137696 .40515138 .13387044 .37121583 .12011719 .32128907 .12011719 .2553711M.2524414 .53222659C.29248048 .53222659 .32600913 .52381899 .35302735 .5070038 .36865235 .4972992 .38639323 .48031617 .40625 .4560547V.71875H.49072267V0H.4116211V.07229614C.39111329 .04023234 .36686198 .017074585 .3388672 .002822876 .3108724-.011428833 .2788086-.018554688 .24267578-.018554688 .18440755-.018554688 .13395183 .0059407555 .091308597 .05493164 .048665365 .10392252 .02734375 .16910808 .02734375 .25048829 .02734375 .32666017 .04679362 .39265953 .08569336 .44848634 .1245931 .5043132 .18017578 .53222659 .2524414 .53222659Z"/>
<path id="font_1_26" d="M.11669922 .1640625C.11930338 .13463338 .12662761 .11207072 .13867188 .09637451 .1608073 .06793213 .19921875 .053710939 .25390626 .053710939 .28645835 .053710939 .31510417 .060806276 .33984376 .07499695 .36458335 .08919779 .37695313 .11115011 .37695313 .14085388 .37695313 .16337586 .36702476 .18051148 .34716798 .19226074 .33447267 .19944255 .30940757 .20775859 .27197267 .21720886L.20214844 .2348175C.15755208 .24590557 .12467448 .25829569 .103515628 .27198792 .06575521 .29579164 .046875 .32873027 .046875 .37080384 .046875 .42036439 .064697269 .46046958 .1003418 .49111939 .13598633 .52177938 .18391927 .5371094 .24414063 .5371094 .32291667 .5371094 .37972007 .5139974 .41455079 .46777345 .4363607 .43847657 .4469401 .40690104 .44628907 .37304688H.36328126C.36165367 .39269004 .35465495 .41055808 .34228517 .426651 .32210288 .44950868 .28710938 .4609375 .23730469 .4609375 .20410156 .4609375 .17895508 .45461528 .16186524 .44197084 .14477539 .42933656 .13623047 .41264854 .13623047 .39190675 .13623047 .36922203 .14746094 .35107423 .16992188 .33746339 .1829427 .32936607 .20214844 .32221986 .22753906 .31602479L.28564454 .3018341C.34879557 .28650413 .39111329 .27166749 .41259767 .25732423 .44677735 .23482259 .4638672 .19944255 .4638672 .15118408 .4638672 .10455322 .44620768 .06428019 .41088868 .03036499 .37556968-.0035502117 .32177735-.020507813 .24951172-.020507813 .17171224-.020507813 .116617839-.002802531 .084228519 .032608034 .05183919 .06801859 .034505208 .111836757 .032226564 .1640625H.11669922M.24658203 .5361328V.5361328Z"/>
<path id="font_1_5" d="M.25976563-.018554688C.17708333-.018554688 .11710612 .004196167 .079833988 .049697877 .042561849 .095209758 .023925782 .15058391 .023925782 .21582031H.115722659C.119628909 .1704305 .12809246 .13744609 .14111328 .116867069 .16389974 .07997131 .20507813 .061523439 .26464845 .061523439 .3108724 .061523439 .34798179 .07389323 .37597657 .09863281 .40397135 .1233724 .41796876 .15527344 .41796876 .19433594 .41796876 .24251302 .40323893 .27620445 .3737793 .29541017 .34431968 .31461589 .3033854 .32421876 .25097657 .32421876 .24511719 .32421876 .23917644 .32413737 .2331543 .3239746 .22713216 .32381187 .22102864 .32356773 .21484375 .3232422V.4013672C.22395833 .40019737 .23160808 .39941407 .23779297 .39901734 .24397786 .39863078 .25065104 .3984375 .2578125 .3984375 .2906901 .3984375 .31770835 .40363566 .3388672 .41403199 .37597657 .43222047 .39453126 .46470133 .39453126 .5114746 .39453126 .54622396 .38216148 .5730184 .35742188 .5918579 .33268229 .61069747 .3038737 .6201172 .2709961 .6201172 .21240235 .6201172 .171875 .6007131 .14941406 .5619049 .13704427 .5405629 .13004558 .51016238 .12841797 .47070313H.041503908C.041503908 .5225627 .051920576 .5666453 .072753909 .60295107 .108561199 .6677806 .17154949 .7001953 .26171876 .7001953 .3330078 .7001953 .3881836 .6843465 .4272461 .6526489 .4663086 .6209615 .48583985 .5750529 .48583985 .5149231 .48583985 .47201539 .47428385 .4372355 .45117188 .4105835 .43684898 .39401246 .41829429 .38101197 .3955078 .37158204 .43229167 .36149089 .4610189 .34204103 .48168946 .31323243 .50236007 .28442384 .5126953 .2491862 .5126953 .20751953 .5126953 .14078777 .49072267 .08642578 .44677735 .044433595 .40283204 .0024414063 .34049479-.018554688 .25976563-.018554688Z"/>
</defs>
<g clip-path="url(#clip_0)">
<path transform="matrix(1,0,0,-1,-190.387,708.859)" d="M36 36H576V756H36Z" fill="#ffffff"/>
<path transform="matrix(1,0,0,-1,-190.387,708.859)" d="M198 702H438V516H198Z" fill="#e0e0e0" fill-rule="evenodd"/>
<path transform="matrix(1,0,0,-1,7.6130068,6.859192)" stroke-width="2.25" stroke-linecap="butt" stroke-miterlimit="8" stroke-linejoin="miter" fill="none" stroke="#000000" d="M0 0H240V-186H0Z"/>
<use data-text="S" xlink:href="#font_1_13" transform="matrix(16,0,0,-16,260.8129,170.4591)"/>
<use data-text="t" xlink:href="#font_1_27" transform="matrix(16,0,0,-16,271.4849,170.4591)"/>
<use data-text="a" xlink:href="#font_1_14" transform="matrix(16,0,0,-16,275.9329,170.4591)"/>
<use data-text="c" xlink:href="#font_1_15" transform="matrix(16,0,0,-16,284.8289,170.4591)"/>
<use data-text="k" xlink:href="#font_1_20" transform="matrix(16,0,0,-16,292.8289,170.4591)"/>
<use data-text=" " xlink:href="#font_1_1" transform="matrix(16,0,0,-16,300.8289,170.4591)"/>
<use data-text="p" xlink:href="#font_1_24" transform="matrix(16,0,0,-16,305.2769,170.4591)"/>
<use data-text="o" xlink:href="#font_1_23" transform="matrix(16,0,0,-16,314.17289,170.4591)"/>
<use data-text="i" xlink:href="#font_1_19" transform="matrix(16,0,0,-16,323.06889,170.4591)"/>
<use data-text="n" xlink:href="#font_1_22" transform="matrix(16,0,0,-16,326.62089,170.4591)"/>
<use data-text="t" xlink:href="#font_1_27" transform="matrix(16,0,0,-16,335.51689,170.4591)"/>
<use data-text="e" xlink:href="#font_1_17" transform="matrix(16,0,0,-16,339.96488,170.4591)"/>
<use data-text="r" xlink:href="#font_1_25" transform="matrix(16,0,0,-16,348.86088,170.4591)"/>
<use data-text="&#xfffd;" xlink:href="#font_2_1" transform="matrix(16,0,0,-16,354.18888,170.4591)"/>
<use data-text="%" xlink:href="#font_3_2" transform="matrix(16,0,0,-16,315.8209,189.45111)"/>
<use data-text="r" xlink:href="#font_3_9" transform="matrix(16,0,0,-16,325.42088,189.45111)"/>
<use data-text="s" xlink:href="#font_3_10" transform="matrix(16,0,0,-16,335.02085,189.45111)"/>
<use data-text="p" xlink:href="#font_3_8" transform="matrix(16,0,0,-16,344.62083,189.45111)"/>
<use data-text=" " xlink:href="#font_3_1" transform="matrix(16,0,0,-16,354.2208,189.45111)"/>
<path transform="matrix(1,0,0,-1,301.6129,186.85919)" stroke-width="2.25" stroke-linecap="butt" stroke-linejoin="round" fill="none" stroke="#000000" d="M0 0H-45.75"/>
<path transform="matrix(1,0,0,-1,260.3629,183.48413)" d="M0 0-6.75-3.375 0-6.75Z" fill-rule="evenodd"/>
<path transform="matrix(1,0,0,-1,-190.387,708.859)" d="M198 666H438V628H198Z" fill="#bfbfbf" fill-rule="evenodd"/>
<path transform="matrix(1,0,0,-1,7.6130068,42.85919)" stroke-width="1" stroke-linecap="butt" stroke-miterlimit="8" stroke-linejoin="miter" fill="none" stroke="#000000" d="M0 0H240V-38H0Z"/>
<use data-text="x" xlink:href="#font_1_29" transform="matrix(16,0,0,-16,118.81302,68.259098)"/>
<use data-text="4" xlink:href="#font_1_6" transform="matrix(16,0,0,-16,126.81302,68.259098)"/>
<use data-text=" " xlink:href="#font_3_1" transform="matrix(16,0,0,-16,135.70902,68.259098)"/>
<path transform="matrix(1,0,0,-1,-190.387,708.859)" d="M378 630H408V592H378Z" fill="#ffffff" fill-rule="evenodd"/>
<path transform="matrix(1,0,0,-1,187.61292,78.85919)" stroke-width="1" stroke-linecap="butt" stroke-miterlimit="8" stroke-linejoin="miter" fill="none" stroke="#000000" d="M0 0H30V-38H0Z"/>
<use data-text="x" xlink:href="#font_3_11" transform="matrix(16,0,0,-16,193.01142,98.45911)"/>
<use data-text="4" xlink:href="#font_3_7" transform="matrix(16,0,0,-16,202.61142,98.45911)"/>
<use data-text=" " xlink:href="#font_3_1" transform="matrix(16,0,0,-16,212.21143,98.45911)"/>
<path transform="matrix(1,0,0,-1,-190.387,708.859)" d="M318 630H378V592H318Z" fill="#ffffff" fill-rule="evenodd"/>
<path transform="matrix(1,0,0,-1,127.61301,78.85919)" stroke-width="1" stroke-linecap="butt" stroke-miterlimit="8" stroke-linejoin="miter" fill="none" stroke="#000000" d="M0 0H60V-38H0Z"/>
<use data-text="x" xlink:href="#font_3_11" transform="matrix(16,0,0,-16,148.01142,98.45911)"/>
<use data-text="3" xlink:href="#font_3_6" transform="matrix(16,0,0,-16,157.61142,98.45911)"/>
<use data-text=" " xlink:href="#font_3_1" transform="matrix(16,0,0,-16,167.21143,98.45911)"/>
<path transform="matrix(1,0,0,-1,-190.387,708.859)" d="M198 630H318V592H198Z" fill="#ffffff" fill-rule="evenodd"/>
<path transform="matrix(1,0,0,-1,7.6130068,78.85919)" stroke-width="1" stroke-linecap="butt" stroke-miterlimit="8" stroke-linejoin="miter" fill="none" stroke="#000000" d="M0 0H120V-38H0Z"/>
<use data-text="x" xlink:href="#font_3_11" transform="matrix(16,0,0,-16,58.011415,98.45911)"/>
<use data-text="2" xlink:href="#font_3_5" transform="matrix(16,0,0,-16,67.61142,98.45911)"/>
<use data-text=" " xlink:href="#font_3_1" transform="matrix(16,0,0,-16,77.211429,98.45911)"/>
<path transform="matrix(1,0,0,-1,-190.387,708.859)" d="M198 666H438V628H198Z" fill="#ffffff" fill-rule="evenodd"/>
<path transform="matrix(1,0,0,-1,7.6130068,42.85919)" stroke-width="1" stroke-linecap="butt" stroke-miterlimit="8" stroke-linejoin="miter" fill="none" stroke="#000000" d="M0 0H240V-38H0Z"/>
<use data-text="x" xlink:href="#font_3_11" transform="matrix(16,0,0,-16,117.81302,68.259098)"/>
<use data-text="1" xlink:href="#font_3_4" transform="matrix(16,0,0,-16,127.413028,68.259098)"/>
<use data-text=" " xlink:href="#font_3_1" transform="matrix(16,0,0,-16,137.01303,68.259098)"/>
<path transform="matrix(1,0,0,-1,-190.387,708.859)" d="M198 592H438V554H198Z" fill="#ffffff" fill-rule="evenodd"/>
<path transform="matrix(1,0,0,-1,7.6130068,116.85913)" stroke-width="1" stroke-linecap="butt" stroke-miterlimit="8" stroke-linejoin="miter" fill="none" stroke="#000000" d="M0 0H240V-38H0Z"/>
<use data-text="8" xlink:href="#font_1_9" transform="matrix(12,0,0,-12,240.13922,150.64813)"/>
<use data-text="&#xfffd;" xlink:href="#font_2_1" transform="matrix(12,0,0,-12,246.81122,150.64813)"/>
<use data-text="1" xlink:href="#font_1_3" transform="matrix(12,0,0,-12,233.46723,114.64813)"/>
<use data-text="6" xlink:href="#font_1_7" transform="matrix(12,0,0,-12,240.13922,114.64813)"/>
<use data-text="&#xfffd;" xlink:href="#font_2_1" transform="matrix(12,0,0,-12,246.81122,114.64813)"/>
<use data-text="2" xlink:href="#font_1_4" transform="matrix(12,0,0,-12,233.46723,78.64813)"/>
<use data-text="4" xlink:href="#font_1_6" transform="matrix(12,0,0,-12,240.13922,78.64813)"/>
<use data-text="&#xfffd;" xlink:href="#font_2_1" transform="matrix(12,0,0,-12,246.81122,78.64813)"/>
<use data-text="1" xlink:href="#font_1_3" transform="matrix(12,0,0,-12,203.46723,114.64813)"/>
<use data-text="7" xlink:href="#font_1_8" transform="matrix(12,0,0,-12,210.13922,114.64813)"/>
<use data-text="&#xfffd;" xlink:href="#font_2_1" transform="matrix(12,0,0,-12,216.81122,114.64813)"/>
<use data-text="1" xlink:href="#font_1_3" transform="matrix(12,0,0,-12,173.46723,114.64813)"/>
<use data-text="8" xlink:href="#font_1_9" transform="matrix(12,0,0,-12,180.13922,114.64813)"/>
<use data-text="&#xfffd;" xlink:href="#font_2_1" transform="matrix(12,0,0,-12,186.81122,114.64813)"/>
<use data-text="2" xlink:href="#font_1_4" transform="matrix(12,0,0,-12,113.467227,114.64813)"/>
<use data-text="0" xlink:href="#font_1_2" transform="matrix(12,0,0,-12,120.13922,114.64813)"/>
<use data-text="&#xfffd;" xlink:href="#font_2_1" transform="matrix(12,0,0,-12,126.81122,114.64813)"/>
<use data-text="A" xlink:href="#font_1_11" transform="matrix(16,0,0,-16,68.81302,140.2591)"/>
<use data-text="r" xlink:href="#font_1_25" transform="matrix(16,0,0,-16,79.485019,140.2591)"/>
<use data-text="g" xlink:href="#font_1_18" transform="matrix(16,0,0,-16,84.81302,140.2591)"/>
<use data-text="u" xlink:href="#font_1_28" transform="matrix(16,0,0,-16,93.709018,140.2591)"/>
<use data-text="m" xlink:href="#font_1_21" transform="matrix(16,0,0,-16,102.60501,140.2591)"/>
<use data-text="e" xlink:href="#font_1_17" transform="matrix(16,0,0,-16,115.933017,140.2591)"/>
<use data-text="n" xlink:href="#font_1_22" transform="matrix(16,0,0,-16,124.82901,140.2591)"/>
<use data-text="t" xlink:href="#font_1_27" transform="matrix(16,0,0,-16,133.725,140.2591)"/>
<use data-text=" " xlink:href="#font_1_1" transform="matrix(16,0,0,-16,138.173,140.2591)"/>
<use data-text="8" xlink:href="#font_1_9" transform="matrix(16,0,0,-16,142.621,140.2591)"/>
<use data-text=" " xlink:href="#font_1_1" transform="matrix(16,0,0,-16,151.517,140.2591)"/>
<use data-text="=" xlink:href="#font_1_10" transform="matrix(16,0,0,-16,155.965,140.2591)"/>
<use data-text=" " xlink:href="#font_1_1" transform="matrix(16,0,0,-16,165.30899,140.2591)"/>
<use data-text="&amp;" xlink:href="#font_3_3" transform="matrix(16,0,0,-16,169.75699,140.2591)"/>
<use data-text="x" xlink:href="#font_3_11" transform="matrix(16,0,0,-16,179.357,140.2591)"/>
<use data-text="4" xlink:href="#font_3_7" transform="matrix(16,0,0,-16,188.957,140.2591)"/>
<use data-text=" " xlink:href="#font_3_1" transform="matrix(16,0,0,-16,198.557,140.2591)"/>
<use data-text="A" xlink:href="#font_1_11" transform="matrix(16,0,0,-16,91.80502,216.2591)"/>
<use data-text="r" xlink:href="#font_1_25" transform="matrix(16,0,0,-16,102.47702,216.2591)"/>
<use data-text="g" xlink:href="#font_1_18" transform="matrix(16,0,0,-16,107.80502,216.2591)"/>
<use data-text="u" xlink:href="#font_1_28" transform="matrix(16,0,0,-16,116.70102,216.2591)"/>
<use data-text="m" xlink:href="#font_1_21" transform="matrix(16,0,0,-16,125.597019,216.2591)"/>
<use data-text="e" xlink:href="#font_1_17" transform="matrix(16,0,0,-16,138.92502,216.2591)"/>
<use data-text="n" xlink:href="#font_1_22" transform="matrix(16,0,0,-16,147.82102,216.2591)"/>
<use data-text="t" xlink:href="#font_1_27" transform="matrix(16,0,0,-16,156.71701,216.2591)"/>
<use data-text=" " xlink:href="#font_1_1" transform="matrix(16,0,0,-16,161.16501,216.2591)"/>
<use data-text="7" xlink:href="#font_1_8" transform="matrix(16,0,0,-16,165.613,216.2591)"/>
<use data-text=" " xlink:href="#font_3_1" transform="matrix(16,0,0,-16,174.509,216.2591)"/>
<path transform="matrix(1,0,0,-1,-190.387,708.859)" d="M408 554H438V516H408Z" fill="#ffffff" fill-rule="evenodd"/>
<path transform="matrix(1,0,0,-1,217.61292,154.85913)" stroke-width="1" stroke-linecap="butt" stroke-miterlimit="8" stroke-linejoin="miter" fill="none" stroke="#000000" d="M0 0H30V-38H0Z"/>
<use data-text="4" xlink:href="#font_3_7" transform="matrix(16,0,0,-16,227.8122,174.4591)"/>
<use data-text=" " xlink:href="#font_3_1" transform="matrix(16,0,0,-16,237.4122,174.4591)"/>
<use data-text="0" xlink:href="#font_1_2" transform="matrix(12,0,0,-12,240.13922,186.64813)"/>
<use data-text="&#xfffd;" xlink:href="#font_2_1" transform="matrix(12,0,0,-12,246.81122,186.64813)"/>
<path transform="matrix(1,0,0,-1,-190.387,708.859)" d="M198 704H438V666H198Z" fill="#ffffff" fill-rule="evenodd"/>
<path transform="matrix(1,0,0,-1,7.6130068,4.859192)" stroke-width="1" stroke-linecap="butt" stroke-miterlimit="8" stroke-linejoin="miter" fill="none" stroke="#000000" d="M0 0H240V-38H0Z"/>
<use data-text="R" xlink:href="#font_1_12" transform="matrix(16,0,0,-16,72.81302,30.259095)"/>
<use data-text="e" xlink:href="#font_1_17" transform="matrix(16,0,0,-16,84.36502,30.259095)"/>
<use data-text="t" xlink:href="#font_1_27" transform="matrix(16,0,0,-16,93.26102,30.259095)"/>
<use data-text="u" xlink:href="#font_1_28" transform="matrix(16,0,0,-16,97.709018,30.259095)"/>
<use data-text="r" xlink:href="#font_1_25" transform="matrix(16,0,0,-16,106.60501,30.259095)"/>
<use data-text="n" xlink:href="#font_1_22" transform="matrix(16,0,0,-16,111.933017,30.259095)"/>
<use data-text=" " xlink:href="#font_1_1" transform="matrix(16,0,0,-16,120.82901,30.259095)"/>
<use data-text="a" xlink:href="#font_1_14" transform="matrix(16,0,0,-16,125.27701,30.259095)"/>
<use data-text="d" xlink:href="#font_1_16" transform="matrix(16,0,0,-16,134.173,30.259095)"/>
<use data-text="d" xlink:href="#font_1_16" transform="matrix(16,0,0,-16,143.069,30.259095)"/>
<use data-text="r" xlink:href="#font_1_25" transform="matrix(16,0,0,-16,151.965,30.259095)"/>
<use data-text="e" xlink:href="#font_1_17" transform="matrix(16,0,0,-16,157.293,30.259095)"/>
<use data-text="s" xlink:href="#font_1_26" transform="matrix(16,0,0,-16,166.189,30.259095)"/>
<use data-text="s" xlink:href="#font_1_26" transform="matrix(16,0,0,-16,174.189,30.259095)"/>
<use data-text="&#xfffd;" xlink:href="#font_2_1" transform="matrix(16,0,0,-16,182.189,30.259095)"/>
<path transform="matrix(1,0,0,-1,7.6130068,6.859192)" stroke-width="2.25" stroke-linecap="butt" stroke-miterlimit="8" stroke-linejoin="miter" fill="none" stroke="#000000" d="M0 0H240V-186H0Z"/>
<use data-text="3" xlink:href="#font_1_5" transform="matrix(12,0,0,-12,233.4654,40.459108)"/>
<use data-text="2" xlink:href="#font_1_4" transform="matrix(12,0,0,-12,240.13739,40.459108)"/>
<use data-text="&#xfffd;" xlink:href="#font_2_1" transform="matrix(12,0,0,-12,246.80939,40.459108)"/>
<path transform="matrix(1,0,0,-1,181.61292,204.8591)" stroke-width="2.25" stroke-linecap="butt" stroke-linejoin="round" fill="none" stroke="#000000" d="M0 0 3.375 .312 6.625 1.312 9.625 2.75 12.375 4.687 14.688 6.937 16.437 9.5 17.625 12.188 18 15 18.375 17.812 19.562 20.5 21.312 23.062 23.625 25.312 26.375 27.25 29.375 28.687 32.625 29.687 33.76 29.793"/>
<path transform="matrix(1,0,0,-1,211.20282,178.84198)" d="M0 0 6.41 3.983-.622 6.721Z" fill-rule="evenodd"/>
</g>
</svg>
