<?xml version="1.0" encoding="UTF-8" standalone="no"?><svg xmlns="http://www.w3.org/2000/svg" xmlns:xlink="http://www.w3.org/1999/xlink" contentScriptType="application/ecmascript" contentStyleType="text/css" height="223px" preserveAspectRatio="none" style="width:427px;height:223px;" version="1.1" viewBox="0 0 427 223" width="427px" zoomAndPan="magnify"><defs><filter height="300%" id="ftbduy15r9vxg" width="300%" x="-1" y="-1"><feGaussianBlur result="blurOut" stdDeviation="2.0"/><feColorMatrix in="blurOut" result="blurOut2" type="matrix" values="0 0 0 0 0 0 0 0 0 0 0 0 0 0 0 0 0 0 .4 0"/><feOffset dx="4.0" dy="4.0" in="blurOut2" result="blurOut3"/><feBlend in="SourceGraphic" in2="blurOut3" mode="normal"/></filter></defs><g><!--class Container--><rect fill="#FEFECE" filter="url(#ftbduy15r9vxg)" height="52.9551" id="Container" style="stroke: #A80036; stroke-width: 1.5;" width="163" x="6" y="8"/><ellipse cx="55.75" cy="24" fill="#B4A7E5" rx="11" ry="11" style="stroke: #A80036; stroke-width: 1.0;"/><path d="M52.1777,20.2651 L52.1777,18.1069 L59.5571,18.1069 L59.5571,20.2651 L57.0918,20.2651 L57.0918,28.3418 L59.5571,28.3418 L59.5571,30.5 L52.1777,30.5 L52.1777,28.3418 L54.6431,28.3418 L54.6431,20.2651 Z "/><text fill="#000000" font-family="sans-serif" font-size="12" font-style="italic" lengthAdjust="spacingAndGlyphs" textLength="55" x="76.25" y="28.5352">Container</text><line style="stroke: #A80036; stroke-width: 1.5;" x1="7" x2="168" y1="40" y2="40"/><ellipse cx="17" cy="51.9775" fill="#84BE84" rx="3" ry="3" style="stroke: #038048; stroke-width: 1.0;"/><text fill="#000000" font-family="sans-serif" font-size="11" font-style="italic" lengthAdjust="spacingAndGlyphs" textLength="137" x="26" y="54.6348">CreateIterator() : Iterator*</text><!--class ConcreteContainer--><rect fill="#FEFECE" filter="url(#ftbduy15r9vxg)" height="52.9551" id="ConcreteContainer" style="stroke: #A80036; stroke-width: 1.5;" width="212" x="204.5" y="8"/><ellipse cx="253.25" cy="24" fill="#ADD1B2" rx="11" ry="11" style="stroke: #A80036; stroke-width: 1.0;"/><path d="M255.7231,30.1431 Q255.1421,30.4419 254.5029,30.5913 Q253.8638,30.7407 253.1582,30.7407 Q250.6514,30.7407 249.3315,29.0889 Q248.0117,27.437 248.0117,24.3159 Q248.0117,21.1865 249.3315,19.5347 Q250.6514,17.8828 253.1582,17.8828 Q253.8638,17.8828 254.5112,18.0322 Q255.1587,18.1816 255.7231,18.4805 L255.7231,21.2031 Q255.0923,20.6221 254.4988,20.3523 Q253.9053,20.0825 253.2744,20.0825 Q251.9297,20.0825 251.2449,21.1492 Q250.5601,22.2158 250.5601,24.3159 Q250.5601,26.4077 251.2449,27.4744 Q251.9297,28.541 253.2744,28.541 Q253.9053,28.541 254.4988,28.2712 Q255.0923,28.0015 255.7231,27.4204 Z "/><text fill="#000000" font-family="sans-serif" font-size="12" lengthAdjust="spacingAndGlyphs" textLength="106" x="273.75" y="28.5352">ConcreteContainer</text><line style="stroke: #A80036; stroke-width: 1.5;" x1="205.5" x2="415.5" y1="40" y2="40"/><ellipse cx="215.5" cy="51.9775" fill="#84BE84" rx="3" ry="3" style="stroke: #038048; stroke-width: 1.0;"/><text fill="#000000" font-family="sans-serif" font-size="11" lengthAdjust="spacingAndGlyphs" textLength="186" x="224.5" y="54.6348">CreateIterator() : ConcreteIterator*</text><!--class Iterator--><rect fill="#FEFECE" filter="url(#ftbduy15r9vxg)" height="91.8203" id="Iterator" style="stroke: #A80036; stroke-width: 1.5;" width="99" x="114" y="121"/><ellipse cx="140.25" cy="137" fill="#B4A7E5" rx="11" ry="11" style="stroke: #A80036; stroke-width: 1.0;"/><path d="M136.6777,133.2651 L136.6777,131.1069 L144.0571,131.1069 L144.0571,133.2651 L141.5918,133.2651 L141.5918,141.3418 L144.0571,141.3418 L144.0571,143.5 L136.6777,143.5 L136.6777,141.3418 L139.1431,141.3418 L139.1431,133.2651 Z "/><text fill="#000000" font-family="sans-serif" font-size="12" font-style="italic" lengthAdjust="spacingAndGlyphs" textLength="42" x="156.75" y="141.5352">Iterator</text><line style="stroke: #A80036; stroke-width: 1.5;" x1="115" x2="212" y1="153" y2="153"/><ellipse cx="125" cy="164.9775" fill="#84BE84" rx="3" ry="3" style="stroke: #038048; stroke-width: 1.0;"/><text fill="#000000" font-family="sans-serif" font-size="11" font-style="italic" lengthAdjust="spacingAndGlyphs" textLength="32" x="134" y="167.6348">First()</text><ellipse cx="125" cy="177.9326" fill="#84BE84" rx="3" ry="3" style="stroke: #038048; stroke-width: 1.0;"/><text fill="#000000" font-family="sans-serif" font-size="11" font-style="italic" lengthAdjust="spacingAndGlyphs" textLength="33" x="134" y="180.5898">Next()</text><ellipse cx="125" cy="190.8877" fill="#84BE84" rx="3" ry="3" style="stroke: #038048; stroke-width: 1.0;"/><text fill="#000000" font-family="sans-serif" font-size="11" font-style="italic" lengthAdjust="spacingAndGlyphs" textLength="36" x="134" y="193.5449">Done()</text><ellipse cx="125" cy="203.8428" fill="#84BE84" rx="3" ry="3" style="stroke: #038048; stroke-width: 1.0;"/><text fill="#000000" font-family="sans-serif" font-size="11" font-style="italic" lengthAdjust="spacingAndGlyphs" textLength="73" x="134" y="206.5">CurrentItem()</text><!--class ConcreteIterator--><rect fill="#FEFECE" filter="url(#ftbduy15r9vxg)" height="32" id="ConcreteIterator" style="stroke: #A80036; stroke-width: 1.5;" width="125" x="248" y="151"/><ellipse cx="263" cy="167" fill="#ADD1B2" rx="11" ry="11" style="stroke: #A80036; stroke-width: 1.0;"/><path d="M265.4731,173.1431 Q264.8921,173.4419 264.2529,173.5913 Q263.6138,173.7407 262.9082,173.7407 Q260.4014,173.7407 259.0815,172.0889 Q257.7617,170.437 257.7617,167.3159 Q257.7617,164.1865 259.0815,162.5347 Q260.4014,160.8828 262.9082,160.8828 Q263.6138,160.8828 264.2612,161.0322 Q264.9087,161.1816 265.4731,161.4805 L265.4731,164.2031 Q264.8423,163.6221 264.2488,163.3523 Q263.6553,163.0825 263.0244,163.0825 Q261.6797,163.0825 260.9949,164.1492 Q260.3101,165.2158 260.3101,167.3159 Q260.3101,169.4077 260.9949,170.4744 Q261.6797,171.541 263.0244,171.541 Q263.6553,171.541 264.2488,171.2712 Q264.8423,171.0015 265.4731,170.4204 Z "/><text fill="#000000" font-family="sans-serif" font-size="12" lengthAdjust="spacingAndGlyphs" textLength="93" x="277" y="171.5352">ConcreteIterator</text><!--link Container to ConcreteContainer--><path d="M189.6193,34.5 C194.5417,34.5 199.4641,34.5 204.3865,34.5 " fill="none" id="Container-ConcreteContainer" style="stroke: #A80036; stroke-width: 1.0;"/><polygon fill="none" points="189.3828,41.4999,169.3828,34.5,189.3828,27.4999,189.3828,41.4999" style="stroke: #A80036; stroke-width: 1.0;"/><!--link Iterator to ConcreteIterator--><path d="M233.1718,167 C238.0371,167 242.9024,167 247.7677,167 " fill="none" id="Iterator-ConcreteIterator" style="stroke: #A80036; stroke-width: 1.0;"/><polygon fill="none" points="233.17,173.9999,213.1699,167,233.1699,159.9999,233.17,173.9999" style="stroke: #A80036; stroke-width: 1.0;"/><!--link ConcreteContainer to ConcreteIterator--><path d="M300.0192,61.3134 C296.7418,86.2003 297.0145,122.7607 300.8375,145.7046 " fill="none" id="ConcreteContainer-ConcreteIterator" style="stroke: #A80036; stroke-width: 1.0; stroke-dasharray: 7.0,7.0;"/><polygon fill="#A80036" points="301.7658,150.6657,304.0421,141.0835,300.8461,145.751,296.1786,142.555,301.7658,150.6657" style="stroke: #A80036; stroke-width: 1.0;"/><!--link ConcreteContainer to ConcreteIterator--><path d="M322.2462,66.4831 C325.2359,93.0467 324.4032,129.7519 319.748,150.6657 " fill="none" id="ConcreteContainer-ConcreteIterator-1" style="stroke: #A80036; stroke-width: 1.0;"/><polygon fill="#A80036" points="321.5973,61.3134,318.7496,70.7416,322.2201,66.2745,326.6873,69.745,321.5973,61.3134" style="stroke: #A80036; stroke-width: 1.0;"/><!--
@startuml
Container <|- ConcreteContainer
Iterator <|- ConcreteIterator
ConcreteContainer ..> ConcreteIterator
ConcreteContainer <- - ConcreteIterator

interface Container {
  {abstract} +CreateIterator() : Iterator*
}
interface Iterator {
  {abstract} +First()
  {abstract} +Next()
  {abstract} +Done()
  {abstract} +CurrentItem()
}
class ConcreteContainer {
  +CreateIterator() : ConcreteIterator*
}

hide empty attributes
hide empty methods
@enduml

PlantUML version 1.2019.04(Fri Mar 29 23:44:36 CST 2019)
(GPL source distribution)
Java Runtime: Java(TM) SE Runtime Environment
JVM: Java HotSpot(TM) 64-Bit Server VM
Java Version: 1.8.0_152-b16
Operating System: Mac OS X
OS Version: 10.14
Default Encoding: UTF-8
Language: zh
Country: CN
--></g></svg>