<?xml version="1.0" encoding="UTF-8" standalone="no"?><svg xmlns="http://www.w3.org/2000/svg" xmlns:xlink="http://www.w3.org/1999/xlink" contentScriptType="application/ecmascript" contentStyleType="text/css" height="197px" preserveAspectRatio="none" style="width:391px;height:197px;" version="1.1" viewBox="0 0 391 197" width="391px" zoomAndPan="magnify"><defs><filter height="300%" id="fju5gkinjp8x9" width="300%" x="-1" y="-1"><feGaussianBlur result="blurOut" stdDeviation="2.0"/><feColorMatrix in="blurOut" result="blurOut2" type="matrix" values="0 0 0 0 0 0 0 0 0 0 0 0 0 0 0 0 0 0 .4 0"/><feOffset dx="4.0" dy="4.0" in="blurOut2" result="blurOut3"/><feBlend in="SourceGraphic" in2="blurOut3" mode="normal"/></filter></defs><g><!--class AbstractProduct--><rect fill="#FEFECE" filter="url(#fju5gkinjp8x9)" height="32" id="AbstractProduct" style="stroke: #A80036; stroke-width: 1.5;" width="124" x="8.5" y="25"/><ellipse cx="23.5" cy="41" fill="#B4A7E5" rx="11" ry="11" style="stroke: #A80036; stroke-width: 1.0;"/><path d="M19.9277,37.2651 L19.9277,35.1069 L27.3071,35.1069 L27.3071,37.2651 L24.8418,37.2651 L24.8418,45.3418 L27.3071,45.3418 L27.3071,47.5 L19.9277,47.5 L19.9277,45.3418 L22.3931,45.3418 L22.3931,37.2651 Z "/><text fill="#000000" font-family="sans-serif" font-size="12" font-style="italic" lengthAdjust="spacingAndGlyphs" textLength="92" x="37.5" y="45.5352">AbstractProduct</text><!--class AbstractCreator--><rect fill="#FEFECE" filter="url(#fju5gkinjp8x9)" height="65.9102" id="AbstractCreator" style="stroke: #A80036; stroke-width: 1.5;" width="209" x="169" y="8"/><ellipse cx="223.75" cy="24" fill="#B4A7E5" rx="11" ry="11" style="stroke: #A80036; stroke-width: 1.0;"/><path d="M220.1777,20.2651 L220.1777,18.1069 L227.5571,18.1069 L227.5571,20.2651 L225.0918,20.2651 L225.0918,28.3418 L227.5571,28.3418 L227.5571,30.5 L220.1777,30.5 L220.1777,28.3418 L222.6431,28.3418 L222.6431,20.2651 Z "/><text fill="#000000" font-family="sans-serif" font-size="12" font-style="italic" lengthAdjust="spacingAndGlyphs" textLength="91" x="244.25" y="28.5352">AbstractCreator</text><line style="stroke: #A80036; stroke-width: 1.5;" x1="170" x2="377" y1="40" y2="40"/><ellipse cx="180" cy="51.9775" fill="#84BE84" rx="3" ry="3" style="stroke: #038048; stroke-width: 1.0;"/><text fill="#000000" font-family="sans-serif" font-size="11" font-style="italic" lengthAdjust="spacingAndGlyphs" textLength="183" x="189" y="54.6348">factoryMethod() : AbstractProduct</text><ellipse cx="180" cy="64.9326" fill="#84BE84" rx="3" ry="3" style="stroke: #038048; stroke-width: 1.0;"/><text fill="#000000" font-family="sans-serif" font-size="11" lengthAdjust="spacingAndGlyphs" textLength="77" x="189" y="67.5898">otherMethod()</text><!--class ConcreteProduct--><rect fill="#FEFECE" filter="url(#fju5gkinjp8x9)" height="32" id="ConcreteProduct" style="stroke: #A80036; stroke-width: 1.5;" width="127" x="6" y="144.5"/><ellipse cx="21" cy="160.5" fill="#ADD1B2" rx="11" ry="11" style="stroke: #A80036; stroke-width: 1.0;"/><path d="M23.4731,166.6431 Q22.8921,166.9419 22.2529,167.0913 Q21.6138,167.2407 20.9082,167.2407 Q18.4014,167.2407 17.0815,165.5889 Q15.7617,163.937 15.7617,160.8159 Q15.7617,157.6865 17.0815,156.0347 Q18.4014,154.3828 20.9082,154.3828 Q21.6138,154.3828 22.2612,154.5322 Q22.9087,154.6816 23.4731,154.9805 L23.4731,157.7031 Q22.8423,157.1221 22.2488,156.8523 Q21.6553,156.5825 21.0244,156.5825 Q19.6797,156.5825 18.9949,157.6492 Q18.3101,158.7158 18.3101,160.8159 Q18.3101,162.9077 18.9949,163.9744 Q19.6797,165.041 21.0244,165.041 Q21.6553,165.041 22.2488,164.7712 Q22.8423,164.5015 23.4731,163.9204 Z "/><text fill="#000000" font-family="sans-serif" font-size="12" lengthAdjust="spacingAndGlyphs" textLength="95" x="35" y="165.0352">ConcreteProduct</text><!--class ConcreteCreator--><rect fill="#FEFECE" filter="url(#fju5gkinjp8x9)" height="52.9551" id="ConcreteCreator" style="stroke: #A80036; stroke-width: 1.5;" width="212" x="168.5" y="134"/><ellipse cx="223.25" cy="150" fill="#ADD1B2" rx="11" ry="11" style="stroke: #A80036; stroke-width: 1.0;"/><path d="M225.7231,156.1431 Q225.1421,156.4419 224.5029,156.5913 Q223.8638,156.7407 223.1582,156.7407 Q220.6514,156.7407 219.3315,155.0889 Q218.0117,153.437 218.0117,150.3159 Q218.0117,147.1865 219.3315,145.5347 Q220.6514,143.8828 223.1582,143.8828 Q223.8638,143.8828 224.5112,144.0322 Q225.1587,144.1816 225.7231,144.4805 L225.7231,147.2031 Q225.0923,146.6221 224.4988,146.3523 Q223.9053,146.0825 223.2744,146.0825 Q221.9297,146.0825 221.2449,147.1492 Q220.5601,148.2158 220.5601,150.3159 Q220.5601,152.4077 221.2449,153.4744 Q221.9297,154.541 223.2744,154.541 Q223.9053,154.541 224.4988,154.2712 Q225.0923,154.0015 225.7231,153.4204 Z "/><text fill="#000000" font-family="sans-serif" font-size="12" lengthAdjust="spacingAndGlyphs" textLength="94" x="243.75" y="154.5352">ConcreteCreator</text><line style="stroke: #A80036; stroke-width: 1.5;" x1="169.5" x2="379.5" y1="166" y2="166"/><ellipse cx="179.5" cy="177.9775" fill="#84BE84" rx="3" ry="3" style="stroke: #038048; stroke-width: 1.0;"/><text fill="#000000" font-family="sans-serif" font-size="11" lengthAdjust="spacingAndGlyphs" textLength="186" x="188.5" y="180.6348">factoryMethod() : ConcreteProduct</text><!--link AbstractProduct to AbstractCreator--><path d="M137.8123,41 C148.1285,41 158.4446,41 168.7608,41 " fill="none" id="AbstractProduct-AbstractCreator" style="stroke: #A80036; stroke-width: 1.0; stroke-dasharray: 7.0,7.0;"/><polygon fill="#A80036" points="132.748,41,141.748,45,137.748,41,141.748,37,132.748,41" style="stroke: #A80036; stroke-width: 1.0;"/><!--link AbstractProduct to ConcreteProduct--><path d="M70.1976,77.137 C70.0105,99.4912 69.7795,127.1004 69.6359,144.2574 " fill="none" id="AbstractProduct-ConcreteProduct" style="stroke: #A80036; stroke-width: 1.0;"/><polygon fill="none" points="63.1979,77.057,70.3651,57.1163,77.1974,77.1742,63.1979,77.057" style="stroke: #A80036; stroke-width: 1.0;"/><!--link AbstractCreator to ConcreteCreator--><path d="M273.9462,94.3221 C274.0607,108.0017 274.179,122.136 274.2767,133.812 " fill="none" id="AbstractCreator-ConcreteCreator" style="stroke: #A80036; stroke-width: 1.0;"/><polygon fill="none" points="266.9463,94.3453,273.7786,74.2874,280.9458,94.2281,266.9463,94.3453" style="stroke: #A80036; stroke-width: 1.0;"/><!--link ConcreteProduct to ConcreteCreator--><path d="M138.4071,160.5 C148.4369,160.5 158.4667,160.5 168.4966,160.5 " fill="none" id="ConcreteProduct-ConcreteCreator" style="stroke: #A80036; stroke-width: 1.0; stroke-dasharray: 7.0,7.0;"/><polygon fill="#A80036" points="133.1621,160.5,142.1621,164.5,138.1621,160.5,142.1621,156.5,133.1621,160.5" style="stroke: #A80036; stroke-width: 1.0;"/><!--
@startuml
interface AbstractProduct
interface AbstractCreator {
  {abstract} +factoryMethod() : AbstractProduct
  +otherMethod()
}
AbstractProduct <.left. AbstractCreator

AbstractProduct <|- - ConcreteProduct
AbstractCreator <|- - ConcreteCreator
ConcreteProduct <.left. ConcreteCreator
class ConcreteCreator {
  +factoryMethod() : ConcreteProduct
}

hide empty attributes
hide empty methods
@enduml

PlantUML version 1.2019.04(Fri Mar 29 23:44:36 CST 2019)
(GPL source distribution)
Java Runtime: Java(TM) SE Runtime Environment
JVM: Java HotSpot(TM) 64-Bit Server VM
Java Version: 1.8.0_152-b16
Operating System: Mac OS X
OS Version: 10.14
Default Encoding: UTF-8
Language: zh
Country: CN
--></g></svg>