<?xml version="1.0" encoding="UTF-8" standalone="no"?><svg xmlns="http://www.w3.org/2000/svg" xmlns:xlink="http://www.w3.org/1999/xlink" contentScriptType="application/ecmascript" contentStyleType="text/css" height="197px" preserveAspectRatio="none" style="width:353px;height:197px;" version="1.1" viewBox="0 0 353 197" width="353px" zoomAndPan="magnify"><defs><filter height="300%" id="fh8hvwam56i01" width="300%" x="-1" y="-1"><feGaussianBlur result="blurOut" stdDeviation="2.0"/><feColorMatrix in="blurOut" result="blurOut2" type="matrix" values="0 0 0 0 0 0 0 0 0 0 0 0 0 0 0 0 0 0 .4 0"/><feOffset dx="4.0" dy="4.0" in="blurOut2" result="blurOut3"/><feBlend in="SourceGraphic" in2="blurOut3" mode="normal"/></filter></defs><g><!--class AbstractProduct--><rect fill="#FEFECE" filter="url(#fh8hvwam56i01)" height="32" id="AbstractProduct" style="stroke: #A80036; stroke-width: 1.5;" width="124" x="8.5" y="25"/><ellipse cx="23.5" cy="41" fill="#B4A7E5" rx="11" ry="11" style="stroke: #A80036; stroke-width: 1.0;"/><path d="M19.9277,37.2651 L19.9277,35.1069 L27.3071,35.1069 L27.3071,37.2651 L24.8418,37.2651 L24.8418,45.3418 L27.3071,45.3418 L27.3071,47.5 L19.9277,47.5 L19.9277,45.3418 L22.3931,45.3418 L22.3931,37.2651 Z "/><text fill="#000000" font-family="sans-serif" font-size="12" font-style="italic" lengthAdjust="spacingAndGlyphs" textLength="92" x="37.5" y="45.5352">AbstractProduct</text><!--class AbstractCreator--><rect fill="#FEFECE" filter="url(#fh8hvwam56i01)" height="65.9102" id="AbstractCreator" style="stroke: #A80036; stroke-width: 1.5;" width="171" x="169" y="8"/><ellipse cx="205.6" cy="24" fill="#B4A7E5" rx="11" ry="11" style="stroke: #A80036; stroke-width: 1.0;"/><path d="M202.0277,20.2651 L202.0277,18.1069 L209.4071,18.1069 L209.4071,20.2651 L206.9418,20.2651 L206.9418,28.3418 L209.4071,28.3418 L209.4071,30.5 L202.0277,30.5 L202.0277,28.3418 L204.4931,28.3418 L204.4931,20.2651 Z "/><text fill="#000000" font-family="sans-serif" font-size="12" font-style="italic" lengthAdjust="spacingAndGlyphs" textLength="91" x="224.4" y="28.5352">AbstractCreator</text><line style="stroke: #A80036; stroke-width: 1.5;" x1="170" x2="339" y1="40" y2="40"/><ellipse cx="180" cy="51.9775" fill="#84BE84" rx="3" ry="3" style="stroke: #038048; stroke-width: 1.0;"/><text fill="#000000" font-family="sans-serif" font-size="11" font-style="italic" lengthAdjust="spacingAndGlyphs" textLength="145" x="189" y="54.6348">Create() : AbstractProduct*</text><ellipse cx="180" cy="64.9326" fill="#84BE84" rx="3" ry="3" style="stroke: #038048; stroke-width: 1.0;"/><text fill="#000000" font-family="sans-serif" font-size="11" lengthAdjust="spacingAndGlyphs" textLength="79" x="189" y="67.5898">OtherMethod()</text><!--class ConcreteProduct--><rect fill="#FEFECE" filter="url(#fh8hvwam56i01)" height="32" id="ConcreteProduct" style="stroke: #A80036; stroke-width: 1.5;" width="127" x="6" y="144.5"/><ellipse cx="21" cy="160.5" fill="#ADD1B2" rx="11" ry="11" style="stroke: #A80036; stroke-width: 1.0;"/><path d="M23.4731,166.6431 Q22.8921,166.9419 22.2529,167.0913 Q21.6138,167.2407 20.9082,167.2407 Q18.4014,167.2407 17.0815,165.5889 Q15.7617,163.937 15.7617,160.8159 Q15.7617,157.6865 17.0815,156.0347 Q18.4014,154.3828 20.9082,154.3828 Q21.6138,154.3828 22.2612,154.5322 Q22.9087,154.6816 23.4731,154.9805 L23.4731,157.7031 Q22.8423,157.1221 22.2488,156.8523 Q21.6553,156.5825 21.0244,156.5825 Q19.6797,156.5825 18.9949,157.6492 Q18.3101,158.7158 18.3101,160.8159 Q18.3101,162.9077 18.9949,163.9744 Q19.6797,165.041 21.0244,165.041 Q21.6553,165.041 22.2488,164.7712 Q22.8423,164.5015 23.4731,163.9204 Z "/><text fill="#000000" font-family="sans-serif" font-size="12" lengthAdjust="spacingAndGlyphs" textLength="95" x="35" y="165.0352">ConcreteProduct</text><!--class ConcreteCreator--><rect fill="#FEFECE" filter="url(#fh8hvwam56i01)" height="52.9551" id="ConcreteCreator" style="stroke: #A80036; stroke-width: 1.5;" width="174" x="168.5" y="134"/><ellipse cx="205.1" cy="150" fill="#ADD1B2" rx="11" ry="11" style="stroke: #A80036; stroke-width: 1.0;"/><path d="M207.5731,156.1431 Q206.9921,156.4419 206.3529,156.5913 Q205.7138,156.7407 205.0082,156.7407 Q202.5014,156.7407 201.1815,155.0889 Q199.8617,153.437 199.8617,150.3159 Q199.8617,147.1865 201.1815,145.5347 Q202.5014,143.8828 205.0082,143.8828 Q205.7138,143.8828 206.3612,144.0322 Q207.0087,144.1816 207.5731,144.4805 L207.5731,147.2031 Q206.9423,146.6221 206.3488,146.3523 Q205.7553,146.0825 205.1244,146.0825 Q203.7797,146.0825 203.0949,147.1492 Q202.4101,148.2158 202.4101,150.3159 Q202.4101,152.4077 203.0949,153.4744 Q203.7797,154.541 205.1244,154.541 Q205.7553,154.541 206.3488,154.2712 Q206.9423,154.0015 207.5731,153.4204 Z "/><text fill="#000000" font-family="sans-serif" font-size="12" lengthAdjust="spacingAndGlyphs" textLength="94" x="223.9" y="154.5352">ConcreteCreator</text><line style="stroke: #A80036; stroke-width: 1.5;" x1="169.5" x2="341.5" y1="166" y2="166"/><ellipse cx="179.5" cy="177.9775" fill="#84BE84" rx="3" ry="3" style="stroke: #038048; stroke-width: 1.0;"/><text fill="#000000" font-family="sans-serif" font-size="11" lengthAdjust="spacingAndGlyphs" textLength="148" x="188.5" y="180.6348">Create() : ConcreteProduct*</text><!--link AbstractProduct to AbstractCreator--><path d="M137.758,41 C148.1185,41 158.4791,41 168.8396,41 " fill="none" id="AbstractProduct-AbstractCreator" style="stroke: #A80036; stroke-width: 1.0; stroke-dasharray: 7.0,7.0;"/><polygon fill="#A80036" points="132.6719,41,141.6719,45,137.6719,41,141.6719,37,132.6719,41" style="stroke: #A80036; stroke-width: 1.0;"/><!--link AbstractProduct to ConcreteProduct--><path d="M70.1976,77.137 C70.0105,99.4912 69.7795,127.1004 69.6359,144.2574 " fill="none" id="AbstractProduct-ConcreteProduct" style="stroke: #A80036; stroke-width: 1.0;"/><polygon fill="none" points="63.1979,77.057,70.3651,57.1163,77.1974,77.1742,63.1979,77.057" style="stroke: #A80036; stroke-width: 1.0;"/><!--link AbstractCreator to ConcreteCreator--><path d="M254.9462,94.3221 C255.0607,108.0017 255.179,122.136 255.2767,133.812 " fill="none" id="AbstractCreator-ConcreteCreator" style="stroke: #A80036; stroke-width: 1.0;"/><polygon fill="none" points="247.9463,94.3453,254.7786,74.2874,261.9458,94.2281,247.9463,94.3453" style="stroke: #A80036; stroke-width: 1.0;"/><!--link ConcreteProduct to ConcreteCreator--><path d="M138.3272,160.5 C148.3725,160.5 158.4177,160.5 168.4629,160.5 " fill="none" id="ConcreteProduct-ConcreteCreator" style="stroke: #A80036; stroke-width: 1.0; stroke-dasharray: 7.0,7.0;"/><polygon fill="#A80036" points="133.0742,160.5,142.0742,164.5,138.0742,160.5,142.0742,156.5,133.0742,160.5" style="stroke: #A80036; stroke-width: 1.0;"/><!--
@startuml
AbstractProduct <. AbstractCreator
AbstractProduct <|- - ConcreteProduct
AbstractCreator <|- - ConcreteCreator
ConcreteProduct <. ConcreteCreator

interface AbstractProduct
interface AbstractCreator {
  {abstract} +Create() : AbstractProduct*
  +OtherMethod()
}
class ConcreteCreator {
  +Create() : ConcreteProduct*
}

hide empty attributes
hide empty methods
@enduml

PlantUML version 1.2019.04(Fri Mar 29 23:44:36 CST 2019)
(GPL source distribution)
Java Runtime: Java(TM) SE Runtime Environment
JVM: Java HotSpot(TM) 64-Bit Server VM
Java Version: 1.8.0_152-b16
Operating System: Mac OS X
OS Version: 10.14
Default Encoding: UTF-8
Language: zh
Country: CN
--></g></svg>