<?xml version="1.0" encoding="UTF-8" standalone="no"?><svg xmlns="http://www.w3.org/2000/svg" xmlns:xlink="http://www.w3.org/1999/xlink" contentScriptType="application/ecmascript" contentStyleType="text/css" height="105px" preserveAspectRatio="none" style="width:466px;height:105px;" version="1.1" viewBox="0 0 466 105" width="466px" zoomAndPan="magnify"><defs><filter height="300%" id="fokw5lh98q9mn" width="300%" x="-1" y="-1"><feGaussianBlur result="blurOut" stdDeviation="2.0"/><feColorMatrix in="blurOut" result="blurOut2" type="matrix" values="0 0 0 0 0 0 0 0 0 0 0 0 0 0 0 0 0 0 .4 0"/><feOffset dx="4.0" dy="4.0" in="blurOut2" result="blurOut3"/><feBlend in="SourceGraphic" in2="blurOut3" mode="normal"/></filter></defs><g><!--class Client--><rect fill="#FEFECE" filter="url(#fokw5lh98q9mn)" height="86.8652" id="Client" style="stroke: #A80036; stroke-width: 1.5;" width="143" x="6" y="8"/><ellipse cx="57.25" cy="24" fill="#ADD1B2" rx="11" ry="11" style="stroke: #A80036; stroke-width: 1.0;"/><path d="M59.7231,30.1431 Q59.1421,30.4419 58.5029,30.5913 Q57.8638,30.7407 57.1582,30.7407 Q54.6514,30.7407 53.3315,29.0889 Q52.0117,27.437 52.0117,24.3159 Q52.0117,21.1865 53.3315,19.5347 Q54.6514,17.8828 57.1582,17.8828 Q57.8638,17.8828 58.5112,18.0322 Q59.1587,18.1816 59.7231,18.4805 L59.7231,21.2031 Q59.0923,20.6221 58.4988,20.3523 Q57.9053,20.0825 57.2744,20.0825 Q55.9297,20.0825 55.2449,21.1492 Q54.5601,22.2158 54.5601,24.3159 Q54.5601,26.4077 55.2449,27.4744 Q55.9297,28.541 57.2744,28.541 Q57.9053,28.541 58.4988,28.2712 Q59.0923,28.0015 59.7231,27.4204 Z "/><text fill="#000000" font-family="sans-serif" font-size="12" lengthAdjust="spacingAndGlyphs" textLength="32" x="77.75" y="28.5352">Client</text><line style="stroke: #A80036; stroke-width: 1.5;" x1="7" x2="148" y1="40" y2="40"/><rect fill="none" height="6" style="stroke: #C82930; stroke-width: 1.0;" width="6" x="14" y="48.9775"/><text fill="#000000" font-family="sans-serif" font-size="11" lengthAdjust="spacingAndGlyphs" textLength="102" x="26" y="54.6348">strategy : Strategy*</text><line style="stroke: #A80036; stroke-width: 1.5;" x1="7" x2="148" y1="60.9551" y2="60.9551"/><ellipse cx="17" cy="72.9326" fill="#84BE84" rx="3" ry="3" style="stroke: #038048; stroke-width: 1.0;"/><text fill="#000000" font-family="sans-serif" font-size="11" lengthAdjust="spacingAndGlyphs" textLength="117" x="26" y="75.5898">SetStrategy(Strategy*)</text><ellipse cx="17" cy="85.8877" fill="#84BE84" rx="3" ry="3" style="stroke: #038048; stroke-width: 1.0;"/><text fill="#000000" font-family="sans-serif" font-size="11" lengthAdjust="spacingAndGlyphs" textLength="50" x="26" y="88.5449">GetData()</text><!--class Strategy--><rect fill="#FEFECE" filter="url(#fokw5lh98q9mn)" height="52.9551" id="Strategy" style="stroke: #A80036; stroke-width: 1.5;" width="106" x="184.5" y="25"/><ellipse cx="212.1" cy="41" fill="#B4A7E5" rx="11" ry="11" style="stroke: #A80036; stroke-width: 1.0;"/><path d="M208.5277,37.2651 L208.5277,35.1069 L215.9071,35.1069 L215.9071,37.2651 L213.4418,37.2651 L213.4418,45.3418 L215.9071,45.3418 L215.9071,47.5 L208.5277,47.5 L208.5277,45.3418 L210.9931,45.3418 L210.9931,37.2651 Z "/><text fill="#000000" font-family="sans-serif" font-size="12" font-style="italic" lengthAdjust="spacingAndGlyphs" textLength="46" x="228.9" y="45.5352">Strategy</text><line style="stroke: #A80036; stroke-width: 1.5;" x1="185.5" x2="289.5" y1="57" y2="57"/><ellipse cx="195.5" cy="68.9775" fill="#84BE84" rx="3" ry="3" style="stroke: #038048; stroke-width: 1.0;"/><text fill="#000000" font-family="sans-serif" font-size="11" font-style="italic" lengthAdjust="spacingAndGlyphs" textLength="80" x="204.5" y="71.6348">DoSomething()</text><!--class ConcreteStrategy--><rect fill="#FEFECE" filter="url(#fokw5lh98q9mn)" height="52.9551" id="ConcreteStrategy" style="stroke: #A80036; stroke-width: 1.5;" width="129" x="326" y="25"/><ellipse cx="341" cy="41" fill="#ADD1B2" rx="11" ry="11" style="stroke: #A80036; stroke-width: 1.0;"/><path d="M343.4731,47.1431 Q342.8921,47.4419 342.2529,47.5913 Q341.6138,47.7407 340.9082,47.7407 Q338.4014,47.7407 337.0815,46.0889 Q335.7617,44.437 335.7617,41.3159 Q335.7617,38.1865 337.0815,36.5347 Q338.4014,34.8828 340.9082,34.8828 Q341.6138,34.8828 342.2612,35.0322 Q342.9087,35.1816 343.4731,35.4805 L343.4731,38.2031 Q342.8423,37.6221 342.2488,37.3523 Q341.6553,37.0825 341.0244,37.0825 Q339.6797,37.0825 338.9949,38.1492 Q338.3101,39.2158 338.3101,41.3159 Q338.3101,43.4077 338.9949,44.4744 Q339.6797,45.541 341.0244,45.541 Q341.6553,45.541 342.2488,45.2712 Q342.8423,45.0015 343.4731,44.4204 Z "/><text fill="#000000" font-family="sans-serif" font-size="12" lengthAdjust="spacingAndGlyphs" textLength="97" x="355" y="45.5352">ConcreteStrategy</text><line style="stroke: #A80036; stroke-width: 1.5;" x1="327" x2="454" y1="57" y2="57"/><ellipse cx="337" cy="68.9775" fill="#84BE84" rx="3" ry="3" style="stroke: #038048; stroke-width: 1.0;"/><text fill="#000000" font-family="sans-serif" font-size="11" lengthAdjust="spacingAndGlyphs" textLength="80" x="346" y="71.6348">DoSomething()</text><!--link Client to Strategy--><path d="M162.2763,51.5 C165.2586,51.5 168.2409,51.5 171.2232,51.5 " fill="none" id="Client-Strategy" style="stroke: #A80036; stroke-width: 1.0;"/><polygon fill="#A80036" points="184.2993,51.5,175.2993,47.5,179.2993,51.5,175.2993,55.5,184.2993,51.5" style="stroke: #A80036; stroke-width: 1.0;"/><line style="stroke: #A80036; stroke-width: 1.0;" x1="179.2993" x2="171.2994" y1="51.5" y2="51.4999"/><polygon fill="#A80036" points="149.0625,51.5,155.0625,55.5,161.0625,51.5,155.0625,47.5,149.0625,51.5" style="stroke: #A80036; stroke-width: 1.0;"/><!--link Strategy to ConcreteStrategy--><path d="M310.7031,51.5 C315.7288,51.5 320.7546,51.5 325.7804,51.5 " fill="none" id="Strategy-ConcreteStrategy" style="stroke: #A80036; stroke-width: 1.0;"/><polygon fill="none" points="310.6914,58.4999,290.6914,51.5,310.6914,44.4999,310.6914,58.4999" style="stroke: #A80036; stroke-width: 1.0;"/><!--
@startuml
Client *-> Strategy 
Strategy <|- ConcreteStrategy

class Client {
  -strategy : Strategy*
  +SetStrategy(Strategy*)
  +GetData()
}
interface Strategy {
  {abstract} +DoSomething()
}
class ConcreteStrategy {
  +DoSomething()
}

hide empty attributes
hide empty methods
@enduml

PlantUML version 1.2019.04(Fri Mar 29 23:44:36 CST 2019)
(GPL source distribution)
Java Runtime: Java(TM) SE Runtime Environment
JVM: Java HotSpot(TM) 64-Bit Server VM
Java Version: 1.8.0_152-b16
Operating System: Mac OS X
OS Version: 10.14
Default Encoding: UTF-8
Language: zh
Country: CN
--></g></svg>