<?xml version="1.0" encoding="UTF-8" standalone="no"?><svg xmlns="http://www.w3.org/2000/svg" xmlns:xlink="http://www.w3.org/1999/xlink" contentScriptType="application/ecmascript" contentStyleType="text/css" height="205px" preserveAspectRatio="none" style="width:471px;height:205px;" version="1.1" viewBox="0 0 471 205" width="471px" zoomAndPan="magnify"><defs><filter height="300%" id="f11w3f32dhgmj5" width="300%" x="-1" y="-1"><feGaussianBlur result="blurOut" stdDeviation="2.0"/><feColorMatrix in="blurOut" result="blurOut2" type="matrix" values="0 0 0 0 0 0 0 0 0 0 0 0 0 0 0 0 0 0 .4 0"/><feOffset dx="4.0" dy="4.0" in="blurOut2" result="blurOut3"/><feBlend in="SourceGraphic" in2="blurOut3" mode="normal"/></filter></defs><g><!--class Context--><rect fill="#FEFECE" filter="url(#f11w3f32dhgmj5)" height="32" id="Context" style="stroke: #A80036; stroke-width: 1.5;" width="76" x="16" y="18.5"/><ellipse cx="31" cy="34.5" fill="#ADD1B2" rx="11" ry="11" style="stroke: #A80036; stroke-width: 1.0;"/><path d="M33.4731,40.6431 Q32.8921,40.9419 32.2529,41.0913 Q31.6138,41.2407 30.9082,41.2407 Q28.4014,41.2407 27.0815,39.5889 Q25.7617,37.937 25.7617,34.8159 Q25.7617,31.6865 27.0815,30.0347 Q28.4014,28.3828 30.9082,28.3828 Q31.6138,28.3828 32.2612,28.5322 Q32.9087,28.6816 33.4731,28.9805 L33.4731,31.7031 Q32.8423,31.1221 32.2488,30.8523 Q31.6553,30.5825 31.0244,30.5825 Q29.6797,30.5825 28.9949,31.6492 Q28.3101,32.7158 28.3101,34.8159 Q28.3101,36.9077 28.9949,37.9744 Q29.6797,39.041 31.0244,39.041 Q31.6553,39.041 32.2488,38.7712 Q32.8423,38.5015 33.4731,37.9204 Z "/><text fill="#000000" font-family="sans-serif" font-size="12" lengthAdjust="spacingAndGlyphs" textLength="44" x="45" y="39.0352">Context</text><!--class AbstractExpression--><rect fill="#FEFECE" filter="url(#f11w3f32dhgmj5)" height="52.9551" id="AbstractExpression" style="stroke: #A80036; stroke-width: 1.5;" width="143" x="135.5" y="8"/><ellipse cx="150.5" cy="24" fill="#B4A7E5" rx="11" ry="11" style="stroke: #A80036; stroke-width: 1.0;"/><path d="M146.9277,20.2651 L146.9277,18.1069 L154.3071,18.1069 L154.3071,20.2651 L151.8418,20.2651 L151.8418,28.3418 L154.3071,28.3418 L154.3071,30.5 L146.9277,30.5 L146.9277,28.3418 L149.3931,28.3418 L149.3931,20.2651 Z "/><text fill="#000000" font-family="sans-serif" font-size="12" font-style="italic" lengthAdjust="spacingAndGlyphs" textLength="111" x="164.5" y="28.5352">AbstractExpression</text><line style="stroke: #A80036; stroke-width: 1.5;" x1="136.5" x2="277.5" y1="40" y2="40"/><ellipse cx="146.5" cy="51.9775" fill="#84BE84" rx="3" ry="3" style="stroke: #038048; stroke-width: 1.0;"/><text fill="#000000" font-family="sans-serif" font-size="11" font-style="italic" lengthAdjust="spacingAndGlyphs" textLength="98" x="155.5" y="54.6348">Interpret(Context)</text><!--class Client--><rect fill="#FEFECE" filter="url(#f11w3f32dhgmj5)" height="32" id="Client" style="stroke: #A80036; stroke-width: 1.5;" width="64" x="6" y="142"/><ellipse cx="21" cy="158" fill="#ADD1B2" rx="11" ry="11" style="stroke: #A80036; stroke-width: 1.0;"/><path d="M23.4731,164.1431 Q22.8921,164.4419 22.2529,164.5913 Q21.6138,164.7407 20.9082,164.7407 Q18.4014,164.7407 17.0815,163.0889 Q15.7617,161.437 15.7617,158.3159 Q15.7617,155.1865 17.0815,153.5347 Q18.4014,151.8828 20.9082,151.8828 Q21.6138,151.8828 22.2612,152.0322 Q22.9087,152.1816 23.4731,152.4805 L23.4731,155.2031 Q22.8423,154.6221 22.2488,154.3523 Q21.6553,154.0825 21.0244,154.0825 Q19.6797,154.0825 18.9949,155.1492 Q18.3101,156.2158 18.3101,158.3159 Q18.3101,160.4077 18.9949,161.4744 Q19.6797,162.541 21.0244,162.541 Q21.6553,162.541 22.2488,162.2712 Q22.8423,162.0015 23.4731,161.4204 Z "/><text fill="#000000" font-family="sans-serif" font-size="12" lengthAdjust="spacingAndGlyphs" textLength="32" x="35" y="162.5352">Client</text><!--class TerminalExpression--><rect fill="#FEFECE" filter="url(#f11w3f32dhgmj5)" height="52.9551" id="TerminalExpression" style="stroke: #A80036; stroke-width: 1.5;" width="146" x="314" y="8"/><ellipse cx="329" cy="24" fill="#ADD1B2" rx="11" ry="11" style="stroke: #A80036; stroke-width: 1.0;"/><path d="M331.4731,30.1431 Q330.8921,30.4419 330.2529,30.5913 Q329.6138,30.7407 328.9082,30.7407 Q326.4014,30.7407 325.0815,29.0889 Q323.7617,27.437 323.7617,24.3159 Q323.7617,21.1865 325.0815,19.5347 Q326.4014,17.8828 328.9082,17.8828 Q329.6138,17.8828 330.2612,18.0322 Q330.9087,18.1816 331.4731,18.4805 L331.4731,21.2031 Q330.8423,20.6221 330.2488,20.3523 Q329.6553,20.0825 329.0244,20.0825 Q327.6797,20.0825 326.9949,21.1492 Q326.3101,22.2158 326.3101,24.3159 Q326.3101,26.4077 326.9949,27.4744 Q327.6797,28.541 329.0244,28.541 Q329.6553,28.541 330.2488,28.2712 Q330.8423,28.0015 331.4731,27.4204 Z "/><text fill="#000000" font-family="sans-serif" font-size="12" lengthAdjust="spacingAndGlyphs" textLength="114" x="343" y="28.5352">TerminalExpression</text><line style="stroke: #A80036; stroke-width: 1.5;" x1="315" x2="459" y1="40" y2="40"/><ellipse cx="325" cy="51.9775" fill="#84BE84" rx="3" ry="3" style="stroke: #038048; stroke-width: 1.0;"/><text fill="#000000" font-family="sans-serif" font-size="11" lengthAdjust="spacingAndGlyphs" textLength="98" x="334" y="54.6348">Interpret(Context)</text><!--class NonterminalExpression--><rect fill="#FEFECE" filter="url(#f11w3f32dhgmj5)" height="73.9102" id="NonterminalExpression" style="stroke: #A80036; stroke-width: 1.5;" width="222" x="105" y="121"/><ellipse cx="145.65" cy="137" fill="#ADD1B2" rx="11" ry="11" style="stroke: #A80036; stroke-width: 1.0;"/><path d="M148.1231,143.1431 Q147.5421,143.4419 146.9029,143.5913 Q146.2638,143.7407 145.5582,143.7407 Q143.0514,143.7407 141.7315,142.0889 Q140.4117,140.437 140.4117,137.3159 Q140.4117,134.1865 141.7315,132.5347 Q143.0514,130.8828 145.5582,130.8828 Q146.2638,130.8828 146.9112,131.0322 Q147.5587,131.1816 148.1231,131.4805 L148.1231,134.2031 Q147.4923,133.6221 146.8988,133.3523 Q146.3053,133.0825 145.6744,133.0825 Q144.3297,133.0825 143.6449,134.1492 Q142.9601,135.2158 142.9601,137.3159 Q142.9601,139.4077 143.6449,140.4744 Q144.3297,141.541 145.6744,141.541 Q146.3053,141.541 146.8988,141.2712 Q147.4923,141.0015 148.1231,140.4204 Z "/><text fill="#000000" font-family="sans-serif" font-size="12" lengthAdjust="spacingAndGlyphs" textLength="133" x="165.35" y="141.5352">NonterminalExpression</text><line style="stroke: #A80036; stroke-width: 1.5;" x1="106" x2="326" y1="153" y2="153"/><rect fill="none" height="6" style="stroke: #C82930; stroke-width: 1.0;" width="6" x="113" y="161.9775"/><text fill="#000000" font-family="sans-serif" font-size="11" lengthAdjust="spacingAndGlyphs" textLength="196" x="125" y="167.6348">children : List&lt;AbstractExpression&gt;</text><line style="stroke: #A80036; stroke-width: 1.5;" x1="106" x2="326" y1="173.9551" y2="173.9551"/><ellipse cx="116" cy="185.9326" fill="#84BE84" rx="3" ry="3" style="stroke: #038048; stroke-width: 1.0;"/><text fill="#000000" font-family="sans-serif" font-size="11" lengthAdjust="spacingAndGlyphs" textLength="98" x="125" y="188.5898">Interpret(Context)</text><!--link Context to AbstractExpression--><path d="M97.2927,34.5 C109.9556,34.5 122.6184,34.5 135.2813,34.5 " fill="none" id="Context-AbstractExpression" style="stroke: #A80036; stroke-width: 1.0;"/><polygon fill="#A80036" points="92.25,34.5,101.25,38.5,97.25,34.5,101.25,30.5,92.25,34.5" style="stroke: #A80036; stroke-width: 1.0;"/><!--link Context to Client--><path d="M51.2643,55.6161 C48.0987,80.051 42.9553,119.7515 40.0922,141.8506 " fill="none" id="Context-Client" style="stroke: #A80036; stroke-width: 1.0;"/><polygon fill="#A80036" points="51.9083,50.6455,46.7851,59.057,51.2659,55.6041,54.7188,60.0848,51.9083,50.6455" style="stroke: #A80036; stroke-width: 1.0;"/><!--link AbstractExpression to Client--><path d="M166.0047,64.1676 C143.0339,80.8242 113.884,102.016 88,121 C78.7697,127.7698 68.6108,135.2769 59.8749,141.7501 " fill="none" id="AbstractExpression-Client" style="stroke: #A80036; stroke-width: 1.0;"/><polygon fill="#A80036" points="170.2198,61.1118,160.5854,63.156,166.1717,64.0466,165.2811,69.6329,170.2198,61.1118" style="stroke: #A80036; stroke-width: 1.0;"/><!--link AbstractExpression to TerminalExpression--><path d="M298.7406,34.5 C303.7689,34.5 308.7972,34.5 313.8256,34.5 " fill="none" id="AbstractExpression-TerminalExpression" style="stroke: #A80036; stroke-width: 1.0;"/><polygon fill="none" points="298.7188,41.4999,278.7188,34.5,298.7187,27.4999,298.7188,41.4999" style="stroke: #A80036; stroke-width: 1.0;"/><!--link AbstractExpression to NonterminalExpression--><path d="M198.0001,81.3561 C198.3539,94.454 199.5837,108.5026 201.5034,120.9485 " fill="none" id="AbstractExpression-NonterminalExpression" style="stroke: #A80036; stroke-width: 1.0;"/><polygon fill="none" points="191.0012,81.2172,198.227,61.2977,205.0003,81.3756,191.0012,81.2172" style="stroke: #A80036; stroke-width: 1.0;"/><!--link AbstractExpression to NonterminalExpression--><path d="M222.6212,74.3631 C224.1894,84.9992 225.2283,96.6305 225.6277,107.7465 " fill="none" id="AbstractExpression-NonterminalExpression-1" style="stroke: #A80036; stroke-width: 1.0;"/><polygon fill="#A80036" points="225.7903,120.9485,229.716,114.8996,225.6423,108.9494,221.7166,114.9983,225.7903,120.9485" style="stroke: #A80036; stroke-width: 1.0;"/><polygon fill="#A80036" points="220.3097,61.2977,217.9389,70.8569,221.1808,66.2212,225.8165,69.4632,220.3097,61.2977" style="stroke: #A80036; stroke-width: 1.0;"/><line style="stroke: #A80036; stroke-width: 1.0;" x1="221.1808" x2="222.5745" y1="66.2212" y2="74.0989"/><!--
@startuml
Context <- AbstractExpression
Context <- - Client
AbstractExpression <- - Client
AbstractExpression <|- TerminalExpression
AbstractExpression <|- - NonterminalExpression
AbstractExpression <- -* NonterminalExpression

interface AbstractExpression {
  {abstract} +Interpret(Context)
}
class TerminalExpression {
  +Interpret(Context)
}
class NonterminalExpression {
  -children : List<AbstractExpression>
  +Interpret(Context)
}

hide empty attributes
hide empty methods
@enduml

PlantUML version 1.2019.04(Fri Mar 29 23:44:36 CST 2019)
(GPL source distribution)
Java Runtime: Java(TM) SE Runtime Environment
JVM: Java HotSpot(TM) 64-Bit Server VM
Java Version: 1.8.0_152-b16
Operating System: Mac OS X
OS Version: 10.14
Default Encoding: UTF-8
Language: zh
Country: CN
--></g></svg>