<?xml version="1.0" encoding="UTF-8" standalone="no"?><svg xmlns="http://www.w3.org/2000/svg" xmlns:xlink="http://www.w3.org/1999/xlink" contentScriptType="application/ecmascript" contentStyleType="text/css" height="419px" preserveAspectRatio="none" style="width:784px;height:419px;" version="1.1" viewBox="0 0 784 419" width="784px" zoomAndPan="magnify"><defs><filter height="300%" id="f1i57maz0jjcvo" width="300%" x="-1" y="-1"><feGaussianBlur result="blurOut" stdDeviation="2.0"/><feColorMatrix in="blurOut" result="blurOut2" type="matrix" values="0 0 0 0 0 0 0 0 0 0 0 0 0 0 0 0 0 0 .4 0"/><feOffset dx="4.0" dy="4.0" in="blurOut2" result="blurOut3"/><feBlend in="SourceGraphic" in2="blurOut3" mode="normal"/></filter></defs><g><!--class Object--><rect fill="#FEFECE" filter="url(#f1i57maz0jjcvo)" height="32" id="Object" style="stroke: #A80036; stroke-width: 1.5;" width="70" x="344" y="8"/><ellipse cx="359" cy="24" fill="#B4A7E5" rx="11" ry="11" style="stroke: #A80036; stroke-width: 1.0;"/><path d="M355.4277,20.2651 L355.4277,18.1069 L362.8071,18.1069 L362.8071,20.2651 L360.3418,20.2651 L360.3418,28.3418 L362.8071,28.3418 L362.8071,30.5 L355.4277,30.5 L355.4277,28.3418 L357.8931,28.3418 L357.8931,20.2651 Z "/><text fill="#000000" font-family="sans-serif" font-size="12" font-style="italic" lengthAdjust="spacingAndGlyphs" textLength="38" x="373" y="28.5352">Object</text><!--class DataObject--><rect fill="#FEFECE" filter="url(#f1i57maz0jjcvo)" height="32" id="DataObject" style="stroke: #A80036; stroke-width: 1.5;" width="97" x="330.5" y="100"/><ellipse cx="345.5" cy="116" fill="#B4A7E5" rx="11" ry="11" style="stroke: #A80036; stroke-width: 1.0;"/><path d="M341.9277,112.2651 L341.9277,110.1069 L349.3071,110.1069 L349.3071,112.2651 L346.8418,112.2651 L346.8418,120.3418 L349.3071,120.3418 L349.3071,122.5 L341.9277,122.5 L341.9277,120.3418 L344.3931,120.3418 L344.3931,112.2651 Z "/><text fill="#000000" font-family="sans-serif" font-size="12" font-style="italic" lengthAdjust="spacingAndGlyphs" textLength="65" x="359.5" y="120.5352">DataObject</text><!--class DataSet--><rect fill="#FEFECE" filter="url(#f1i57maz0jjcvo)" height="32" id="DataSet" style="stroke: #A80036; stroke-width: 1.5;" width="76" x="213" y="100"/><ellipse cx="228" cy="116" fill="#B4A7E5" rx="11" ry="11" style="stroke: #A80036; stroke-width: 1.0;"/><path d="M224.4277,112.2651 L224.4277,110.1069 L231.8071,110.1069 L231.8071,112.2651 L229.3418,112.2651 L229.3418,120.3418 L231.8071,120.3418 L231.8071,122.5 L224.4277,122.5 L224.4277,120.3418 L226.8931,120.3418 L226.8931,112.2651 Z "/><text fill="#000000" font-family="sans-serif" font-size="12" font-style="italic" lengthAdjust="spacingAndGlyphs" textLength="44" x="242" y="120.5352">DataSet</text><!--class CompositeDataSet--><rect fill="#FEFECE" filter="url(#f1i57maz0jjcvo)" height="32" id="CompositeDataSet" style="stroke: #A80036; stroke-width: 1.5;" width="137" x="465.5" y="100"/><ellipse cx="480.5" cy="116" fill="#B4A7E5" rx="11" ry="11" style="stroke: #A80036; stroke-width: 1.0;"/><path d="M476.9277,112.2651 L476.9277,110.1069 L484.3071,110.1069 L484.3071,112.2651 L481.8418,112.2651 L481.8418,120.3418 L484.3071,120.3418 L484.3071,122.5 L476.9277,122.5 L476.9277,120.3418 L479.3931,120.3418 L479.3931,112.2651 Z "/><text fill="#000000" font-family="sans-serif" font-size="12" font-style="italic" lengthAdjust="spacingAndGlyphs" textLength="105" x="494.5" y="120.5352">CompositeDataSet</text><!--class DataObjectTree--><rect fill="#FEFECE" filter="url(#f1i57maz0jjcvo)" height="32" id="DataObjectTree" style="stroke: #A80036; stroke-width: 1.5;" width="124" x="474" y="192"/><ellipse cx="489" cy="208" fill="#B4A7E5" rx="11" ry="11" style="stroke: #A80036; stroke-width: 1.0;"/><path d="M485.4277,204.2651 L485.4277,202.1069 L492.8071,202.1069 L492.8071,204.2651 L490.3418,204.2651 L490.3418,212.3418 L492.8071,212.3418 L492.8071,214.5 L485.4277,214.5 L485.4277,212.3418 L487.8931,212.3418 L487.8931,204.2651 Z "/><text fill="#000000" font-family="sans-serif" font-size="12" font-style="italic" lengthAdjust="spacingAndGlyphs" textLength="92" x="503" y="212.5352">DataObjectTree</text><!--class PartitionedDataSet--><rect fill="#FEFECE" filter="url(#f1i57maz0jjcvo)" height="32" id="PartitionedDataSet" style="stroke: #A80036; stroke-width: 1.5;" width="138" x="467" y="284"/><ellipse cx="482" cy="300" fill="#B4A7E5" rx="11" ry="11" style="stroke: #A80036; stroke-width: 1.0;"/><path d="M478.4277,296.2651 L478.4277,294.1069 L485.8071,294.1069 L485.8071,296.2651 L483.3418,296.2651 L483.3418,304.3418 L485.8071,304.3418 L485.8071,306.5 L478.4277,306.5 L478.4277,304.3418 L480.8931,304.3418 L480.8931,296.2651 Z "/><text fill="#000000" font-family="sans-serif" font-size="12" font-style="italic" lengthAdjust="spacingAndGlyphs" textLength="106" x="496" y="304.5352">PartitionedDataSet</text><!--class ImageData--><rect fill="#FEFECE" filter="url(#f1i57maz0jjcvo)" height="32" id="ImageData" style="stroke: #A80036; stroke-width: 1.5;" width="94" x="70" y="192"/><ellipse cx="85" cy="208" fill="#ADD1B2" rx="11" ry="11" style="stroke: #A80036; stroke-width: 1.0;"/><path d="M87.4731,214.1431 Q86.8921,214.4419 86.2529,214.5913 Q85.6138,214.7407 84.9082,214.7407 Q82.4014,214.7407 81.0815,213.0889 Q79.7617,211.437 79.7617,208.3159 Q79.7617,205.1865 81.0815,203.5347 Q82.4014,201.8828 84.9082,201.8828 Q85.6138,201.8828 86.2612,202.0322 Q86.9087,202.1816 87.4731,202.4805 L87.4731,205.2031 Q86.8423,204.6221 86.2488,204.3523 Q85.6553,204.0825 85.0244,204.0825 Q83.6797,204.0825 82.9949,205.1492 Q82.3101,206.2158 82.3101,208.3159 Q82.3101,210.4077 82.9949,211.4744 Q83.6797,212.541 85.0244,212.541 Q85.6553,212.541 86.2488,212.2712 Q86.8423,212.0015 87.4731,211.4204 Z "/><text fill="#000000" font-family="sans-serif" font-size="12" lengthAdjust="spacingAndGlyphs" textLength="62" x="99" y="212.5352">ImageData</text><!--class PointSet--><rect fill="#FEFECE" filter="url(#f1i57maz0jjcvo)" height="32" id="PointSet" style="stroke: #A80036; stroke-width: 1.5;" width="77" x="199.5" y="192"/><ellipse cx="214.5" cy="208" fill="#B4A7E5" rx="11" ry="11" style="stroke: #A80036; stroke-width: 1.0;"/><path d="M210.9277,204.2651 L210.9277,202.1069 L218.3071,202.1069 L218.3071,204.2651 L215.8418,204.2651 L215.8418,212.3418 L218.3071,212.3418 L218.3071,214.5 L210.9277,214.5 L210.9277,212.3418 L213.3931,212.3418 L213.3931,204.2651 Z "/><text fill="#000000" font-family="sans-serif" font-size="12" font-style="italic" lengthAdjust="spacingAndGlyphs" textLength="45" x="228.5" y="212.5352">PointSet</text><!--class RectlinearGrid--><rect fill="#FEFECE" filter="url(#f1i57maz0jjcvo)" height="32" id="RectlinearGrid" style="stroke: #A80036; stroke-width: 1.5;" width="114" x="312" y="192"/><ellipse cx="327" cy="208" fill="#ADD1B2" rx="11" ry="11" style="stroke: #A80036; stroke-width: 1.0;"/><path d="M329.4731,214.1431 Q328.8921,214.4419 328.2529,214.5913 Q327.6138,214.7407 326.9082,214.7407 Q324.4014,214.7407 323.0815,213.0889 Q321.7617,211.437 321.7617,208.3159 Q321.7617,205.1865 323.0815,203.5347 Q324.4014,201.8828 326.9082,201.8828 Q327.6138,201.8828 328.2612,202.0322 Q328.9087,202.1816 329.4731,202.4805 L329.4731,205.2031 Q328.8423,204.6221 328.2488,204.3523 Q327.6553,204.0825 327.0244,204.0825 Q325.6797,204.0825 324.9949,205.1492 Q324.3101,206.2158 324.3101,208.3159 Q324.3101,210.4077 324.9949,211.4744 Q325.6797,212.541 327.0244,212.541 Q327.6553,212.541 328.2488,212.2712 Q328.8423,212.0015 329.4731,211.4204 Z "/><text fill="#000000" font-family="sans-serif" font-size="12" lengthAdjust="spacingAndGlyphs" textLength="82" x="341" y="212.5352">RectlinearGrid</text><!--class StructuredGrid--><rect fill="#FEFECE" filter="url(#f1i57maz0jjcvo)" height="32" id="StructuredGrid" style="stroke: #A80036; stroke-width: 1.5;" width="116" x="6" y="284"/><ellipse cx="21" cy="300" fill="#ADD1B2" rx="11" ry="11" style="stroke: #A80036; stroke-width: 1.0;"/><path d="M23.4731,306.1431 Q22.8921,306.4419 22.2529,306.5913 Q21.6138,306.7407 20.9082,306.7407 Q18.4014,306.7407 17.0815,305.0889 Q15.7617,303.437 15.7617,300.3159 Q15.7617,297.1865 17.0815,295.5347 Q18.4014,293.8828 20.9082,293.8828 Q21.6138,293.8828 22.2612,294.0322 Q22.9087,294.1816 23.4731,294.4805 L23.4731,297.2031 Q22.8423,296.6221 22.2488,296.3523 Q21.6553,296.0825 21.0244,296.0825 Q19.6797,296.0825 18.9949,297.1492 Q18.3101,298.2158 18.3101,300.3159 Q18.3101,302.4077 18.9949,303.4744 Q19.6797,304.541 21.0244,304.541 Q21.6553,304.541 22.2488,304.2712 Q22.8423,304.0015 23.4731,303.4204 Z "/><text fill="#000000" font-family="sans-serif" font-size="12" lengthAdjust="spacingAndGlyphs" textLength="84" x="35" y="304.5352">StructuredGrid</text><!--class UnstructuredGridBase--><rect fill="#FEFECE" filter="url(#f1i57maz0jjcvo)" height="32" id="UnstructuredGridBase" style="stroke: #A80036; stroke-width: 1.5;" width="158" x="157" y="284"/><ellipse cx="172" cy="300" fill="#B4A7E5" rx="11" ry="11" style="stroke: #A80036; stroke-width: 1.0;"/><path d="M168.4277,296.2651 L168.4277,294.1069 L175.8071,294.1069 L175.8071,296.2651 L173.3418,296.2651 L173.3418,304.3418 L175.8071,304.3418 L175.8071,306.5 L168.4277,306.5 L168.4277,304.3418 L170.8931,304.3418 L170.8931,296.2651 Z "/><text fill="#000000" font-family="sans-serif" font-size="12" font-style="italic" lengthAdjust="spacingAndGlyphs" textLength="126" x="186" y="304.5352">UnstructuredGridBase</text><!--class UnstructuredGrid--><rect fill="#FEFECE" filter="url(#f1i57maz0jjcvo)" height="32" id="UnstructuredGrid" style="stroke: #A80036; stroke-width: 1.5;" width="131" x="170.5" y="376"/><ellipse cx="185.5" cy="392" fill="#ADD1B2" rx="11" ry="11" style="stroke: #A80036; stroke-width: 1.0;"/><path d="M187.9731,398.1431 Q187.3921,398.4419 186.7529,398.5913 Q186.1138,398.7407 185.4082,398.7407 Q182.9014,398.7407 181.5815,397.0889 Q180.2617,395.437 180.2617,392.3159 Q180.2617,389.1865 181.5815,387.5347 Q182.9014,385.8828 185.4082,385.8828 Q186.1138,385.8828 186.7612,386.0322 Q187.4087,386.1816 187.9731,386.4805 L187.9731,389.2031 Q187.3423,388.6221 186.7488,388.3523 Q186.1553,388.0825 185.5244,388.0825 Q184.1797,388.0825 183.4949,389.1492 Q182.8101,390.2158 182.8101,392.3159 Q182.8101,394.4077 183.4949,395.4744 Q184.1797,396.541 185.5244,396.541 Q186.1553,396.541 186.7488,396.2712 Q187.3423,396.0015 187.9731,395.4204 Z "/><text fill="#000000" font-family="sans-serif" font-size="12" lengthAdjust="spacingAndGlyphs" textLength="99" x="199.5" y="396.5352">UnstructuredGrid</text><!--class PolyData--><rect fill="#FEFECE" filter="url(#f1i57maz0jjcvo)" height="32" id="PolyData" style="stroke: #A80036; stroke-width: 1.5;" width="82" x="350" y="284"/><ellipse cx="365" cy="300" fill="#ADD1B2" rx="11" ry="11" style="stroke: #A80036; stroke-width: 1.0;"/><path d="M367.4731,306.1431 Q366.8921,306.4419 366.2529,306.5913 Q365.6138,306.7407 364.9082,306.7407 Q362.4014,306.7407 361.0815,305.0889 Q359.7617,303.437 359.7617,300.3159 Q359.7617,297.1865 361.0815,295.5347 Q362.4014,293.8828 364.9082,293.8828 Q365.6138,293.8828 366.2612,294.0322 Q366.9087,294.1816 367.4731,294.4805 L367.4731,297.2031 Q366.8423,296.6221 366.2488,296.3523 Q365.6553,296.0825 365.0244,296.0825 Q363.6797,296.0825 362.9949,297.1492 Q362.3101,298.2158 362.3101,300.3159 Q362.3101,302.4077 362.9949,303.4744 Q363.6797,304.541 365.0244,304.541 Q365.6553,304.541 366.2488,304.2712 Q366.8423,304.0015 367.4731,303.4204 Z "/><text fill="#000000" font-family="sans-serif" font-size="12" lengthAdjust="spacingAndGlyphs" textLength="50" x="379" y="304.5352">PolyData</text><!--class MultiPieceDataSet--><rect fill="#FEFECE" filter="url(#f1i57maz0jjcvo)" height="32" id="MultiPieceDataSet" style="stroke: #A80036; stroke-width: 1.5;" width="133" x="469.5" y="376"/><ellipse cx="484.5" cy="392" fill="#ADD1B2" rx="11" ry="11" style="stroke: #A80036; stroke-width: 1.0;"/><path d="M486.9731,398.1431 Q486.3921,398.4419 485.7529,398.5913 Q485.1138,398.7407 484.4082,398.7407 Q481.9014,398.7407 480.5815,397.0889 Q479.2617,395.437 479.2617,392.3159 Q479.2617,389.1865 480.5815,387.5347 Q481.9014,385.8828 484.4082,385.8828 Q485.1138,385.8828 485.7612,386.0322 Q486.4087,386.1816 486.9731,386.4805 L486.9731,389.2031 Q486.3423,388.6221 485.7488,388.3523 Q485.1553,388.0825 484.5244,388.0825 Q483.1797,388.0825 482.4949,389.1492 Q481.8101,390.2158 481.8101,392.3159 Q481.8101,394.4077 482.4949,395.4744 Q483.1797,396.541 484.5244,396.541 Q485.1553,396.541 485.7488,396.2712 Q486.3423,396.0015 486.9731,395.4204 Z "/><text fill="#000000" font-family="sans-serif" font-size="12" lengthAdjust="spacingAndGlyphs" textLength="101" x="498.5" y="396.5352">MultiPieceDataSet</text><!--class MultiBlockDataSet--><rect fill="#FEFECE" filter="url(#f1i57maz0jjcvo)" height="32" id="MultiBlockDataSet" style="stroke: #A80036; stroke-width: 1.5;" width="133" x="640.5" y="284"/><ellipse cx="655.5" cy="300" fill="#ADD1B2" rx="11" ry="11" style="stroke: #A80036; stroke-width: 1.0;"/><path d="M657.9731,306.1431 Q657.3921,306.4419 656.7529,306.5913 Q656.1138,306.7407 655.4082,306.7407 Q652.9014,306.7407 651.5815,305.0889 Q650.2617,303.437 650.2617,300.3159 Q650.2617,297.1865 651.5815,295.5347 Q652.9014,293.8828 655.4082,293.8828 Q656.1138,293.8828 656.7612,294.0322 Q657.4087,294.1816 657.9731,294.4805 L657.9731,297.2031 Q657.3423,296.6221 656.7488,296.3523 Q656.1553,296.0825 655.5244,296.0825 Q654.1797,296.0825 653.4949,297.1492 Q652.8101,298.2158 652.8101,300.3159 Q652.8101,302.4077 653.4949,303.4744 Q654.1797,304.541 655.5244,304.541 Q656.1553,304.541 656.7488,304.2712 Q657.3423,304.0015 657.9731,303.4204 Z "/><text fill="#000000" font-family="sans-serif" font-size="12" lengthAdjust="spacingAndGlyphs" textLength="101" x="669.5" y="304.5352">MultiBlockDataSet</text><!--link Object to DataObject--><path d="M379,60.4048 C379,74.0788 379,88.9368 379,99.8498 " fill="none" id="Object-DataObject" style="stroke: #A80036; stroke-width: 1.0;"/><polygon fill="none" points="372.0001,60.0252,379,40.0252,386.0001,60.0251,372.0001,60.0252" style="stroke: #A80036; stroke-width: 1.0;"/><!--link DataSet to DataObject--><path d="M289.25,116 C296.1932,116 303.1365,116 310.0797,116 " fill="none" id="DataSet-DataObject" style="stroke: #A80036; stroke-width: 1.0;"/><polygon fill="none" points="310.2686,108.9999,330.2686,116,310.2685,122.9999,310.2686,108.9999" style="stroke: #A80036; stroke-width: 1.0;"/><!--link DataObject to CompositeDataSet--><path d="M447.878,116 C453.6177,116 459.3574,116 465.0972,116 " fill="none" id="DataObject-CompositeDataSet" style="stroke: #A80036; stroke-width: 1.0;"/><polygon fill="none" points="447.7403,122.9999,427.7402,116,447.7402,108.9999,447.7403,122.9999" style="stroke: #A80036; stroke-width: 1.0;"/><!--link DataSet to ImageData--><path d="M210.9537,143.4945 C187.9917,159.2594 159.961,178.5044 140.5231,191.8498 " fill="none" id="DataSet-ImageData" style="stroke: #A80036; stroke-width: 1.0;"/><polygon fill="none" points="207.2089,137.5745,227.659,132.0252,215.133,149.1162,207.2089,137.5745" style="stroke: #A80036; stroke-width: 1.0;"/><!--link DataSet to PointSet--><path d="M245.9256,151.911 C243.9743,165.7202 241.8427,180.8053 240.2821,191.8498 " fill="none" id="DataSet-PointSet" style="stroke: #A80036; stroke-width: 1.0;"/><polygon fill="none" points="239.0061,150.849,248.7356,132.0252,252.8683,152.8079,239.0061,150.849" style="stroke: #A80036; stroke-width: 1.0;"/><!--link DataSet to RectlinearGrid--><path d="M287.4651,144.4304 C307.4547,160.0156 331.5059,178.7673 348.2856,191.8498 " fill="none" id="DataSet-RectlinearGrid" style="stroke: #A80036; stroke-width: 1.0;"/><polygon fill="none" points="283.0226,149.843,271.554,132.0252,291.6308,138.8021,283.0226,149.843" style="stroke: #A80036; stroke-width: 1.0;"/><!--link PointSet to StructuredGrid--><path d="M189.9249,233.419 C159.4326,249.5414 120.9042,269.9127 94.545,283.8498 " fill="none" id="PointSet-StructuredGrid" style="stroke: #A80036; stroke-width: 1.0;"/><polygon fill="none" points="186.7388,227.1854,207.6915,224.0252,193.2828,239.5619,186.7388,227.1854" style="stroke: #A80036; stroke-width: 1.0;"/><!--link PointSet to UnstructuredGridBase--><path d="M237.2086,244.4048 C236.9113,258.0788 236.5883,272.9368 236.3511,283.8498 " fill="none" id="PointSet-UnstructuredGridBase" style="stroke: #A80036; stroke-width: 1.0;"/><polygon fill="none" points="230.2185,243.8683,237.6516,224.0252,244.2152,244.1726,230.2185,243.8683" style="stroke: #A80036; stroke-width: 1.0;"/><!--link UnstructuredGridBase to UnstructuredGrid--><path d="M236,336.4048 C236,350.0788 236,364.9368 236,375.8498 " fill="none" id="UnstructuredGridBase-UnstructuredGrid" style="stroke: #A80036; stroke-width: 1.0;"/><polygon fill="none" points="229.0001,336.0252,236,316.0252,243.0001,336.0251,229.0001,336.0252" style="stroke: #A80036; stroke-width: 1.0;"/><!--link PointSet to PolyData--><path d="M281.798,234.3361 C308.3597,250.3078 341.4008,270.1757 364.1415,283.8498 " fill="none" id="PointSet-PolyData" style="stroke: #A80036; stroke-width: 1.0;"/><polygon fill="none" points="278.1833,240.3306,264.6506,224.0252,285.3978,228.3326,278.1833,240.3306" style="stroke: #A80036; stroke-width: 1.0;"/><!--link CompositeDataSet to DataObjectTree--><path d="M534.7914,152.4048 C535.0887,166.0788 535.4117,180.9368 535.6489,191.8498 " fill="none" id="CompositeDataSet-DataObjectTree" style="stroke: #A80036; stroke-width: 1.0;"/><polygon fill="none" points="527.7848,152.1726,534.3484,132.0252,541.7815,151.8683,527.7848,152.1726" style="stroke: #A80036; stroke-width: 1.0;"/><!--link DataObjectTree to PartitionedDataSet--><path d="M536,244.4048 C536,258.0788 536,272.9368 536,283.8498 " fill="none" id="DataObjectTree-PartitionedDataSet" style="stroke: #A80036; stroke-width: 1.0;"/><polygon fill="none" points="529.0001,244.0252,536,224.0252,543.0001,244.0251,529.0001,244.0252" style="stroke: #A80036; stroke-width: 1.0;"/><!--link PartitionedDataSet to MultiPieceDataSet--><path d="M536,336.4048 C536,350.0788 536,364.9368 536,375.8498 " fill="none" id="PartitionedDataSet-MultiPieceDataSet" style="stroke: #A80036; stroke-width: 1.0;"/><polygon fill="none" points="529.0001,336.0252,536,316.0252,543.0001,336.0251,529.0001,336.0252" style="stroke: #A80036; stroke-width: 1.0;"/><!--link DataObjectTree to MultiBlockDataSet--><path d="M583.6708,233.6475 C613.5697,249.7334 651.1991,269.9784 676.9817,283.8498 " fill="none" id="DataObjectTree-MultiBlockDataSet" style="stroke: #A80036; stroke-width: 1.0;"/><polygon fill="none" points="580.0821,239.6655,565.7859,224.0252,586.7152,227.3366,580.0821,239.6655" style="stroke: #A80036; stroke-width: 1.0;"/><!--
@startuml
interface Object
interface DataObject
interface DataSet
interface CompositeDataSet
interface DataObjectTree
interface PartitionedDataSet

Object <|- - DataObject

DataSet -|> DataObject
DataObject <|- CompositeDataSet

DataSet <|- - ImageData
interface PointSet
DataSet <|- - PointSet
DataSet <|- - RectlinearGrid

PointSet <|- - StructuredGrid
interface UnstructuredGridBase
PointSet <|- - UnstructuredGridBase
UnstructuredGridBase <|- - UnstructuredGrid
PointSet <|- - PolyData

CompositeDataSet <|- - DataObjectTree
DataObjectTree <|- - PartitionedDataSet
PartitionedDataSet <|- - MultiPieceDataSet
DataObjectTree <|- - MultiBlockDataSet

hide empty fields
hide empty methods
@enduml

PlantUML version 1.2019.04(Fri Mar 29 23:44:36 CST 2019)
(GPL source distribution)
Java Runtime: Java(TM) SE Runtime Environment
JVM: Java HotSpot(TM) 64-Bit Server VM
Java Version: 1.8.0_152-b16
Operating System: Mac OS X
OS Version: 10.15.2
Default Encoding: UTF-8
Language: zh
Country: CN
--></g></svg>