<?xml version="1.0" encoding="UTF-8" standalone="no"?><svg xmlns="http://www.w3.org/2000/svg" xmlns:xlink="http://www.w3.org/1999/xlink" contentScriptType="application/ecmascript" contentStyleType="text/css" height="205px" preserveAspectRatio="none" style="width:676px;height:205px;" version="1.1" viewBox="0 0 676 205" width="676px" zoomAndPan="magnify"><defs><filter height="300%" id="f1ap82df094o4j" width="300%" x="-1" y="-1"><feGaussianBlur result="blurOut" stdDeviation="2.0"/><feColorMatrix in="blurOut" result="blurOut2" type="matrix" values="0 0 0 0 0 0 0 0 0 0 0 0 0 0 0 0 0 0 .4 0"/><feOffset dx="4.0" dy="4.0" in="blurOut2" result="blurOut3"/><feBlend in="SourceGraphic" in2="blurOut3" mode="normal"/></filter></defs><g><!--class Client--><rect fill="#FEFECE" filter="url(#f1ap82df094o4j)" height="32" id="Client" style="stroke: #A80036; stroke-width: 1.5;" width="64" x="6" y="29"/><ellipse cx="21" cy="45" fill="#ADD1B2" rx="11" ry="11" style="stroke: #A80036; stroke-width: 1.0;"/><path d="M23.4731,51.1431 Q22.8921,51.4419 22.2529,51.5913 Q21.6138,51.7407 20.9082,51.7407 Q18.4014,51.7407 17.0815,50.0889 Q15.7617,48.437 15.7617,45.3159 Q15.7617,42.1865 17.0815,40.5347 Q18.4014,38.8828 20.9082,38.8828 Q21.6138,38.8828 22.2612,39.0322 Q22.9087,39.1816 23.4731,39.4805 L23.4731,42.2031 Q22.8423,41.6221 22.2488,41.3523 Q21.6553,41.0825 21.0244,41.0825 Q19.6797,41.0825 18.9949,42.1492 Q18.3101,43.2158 18.3101,45.3159 Q18.3101,47.4077 18.9949,48.4744 Q19.6797,49.541 21.0244,49.541 Q21.6553,49.541 22.2488,49.2712 Q22.8423,49.0015 23.4731,48.4204 Z "/><text fill="#000000" font-family="sans-serif" font-size="12" lengthAdjust="spacingAndGlyphs" textLength="32" x="35" y="49.5352">Client</text><!--class Abstraction--><rect fill="#FEFECE" filter="url(#f1ap82df094o4j)" height="73.9102" id="Abstraction" style="stroke: #A80036; stroke-width: 1.5;" width="189" x="105.5" y="8"/><ellipse cx="163.25" cy="24" fill="#ADD1B2" rx="11" ry="11" style="stroke: #A80036; stroke-width: 1.0;"/><path d="M165.7231,30.1431 Q165.1421,30.4419 164.5029,30.5913 Q163.8638,30.7407 163.1582,30.7407 Q160.6514,30.7407 159.3315,29.0889 Q158.0117,27.437 158.0117,24.3159 Q158.0117,21.1865 159.3315,19.5347 Q160.6514,17.8828 163.1582,17.8828 Q163.8638,17.8828 164.5112,18.0322 Q165.1587,18.1816 165.7231,18.4805 L165.7231,21.2031 Q165.0923,20.6221 164.4988,20.3523 Q163.9053,20.0825 163.2744,20.0825 Q161.9297,20.0825 161.2449,21.1492 Q160.5601,22.2158 160.5601,24.3159 Q160.5601,26.4077 161.2449,27.4744 Q161.9297,28.541 163.2744,28.541 Q163.9053,28.541 164.4988,28.2712 Q165.0923,28.0015 165.7231,27.4204 Z "/><text fill="#000000" font-family="sans-serif" font-size="12" lengthAdjust="spacingAndGlyphs" textLength="65" x="183.75" y="28.5352">Abstraction</text><line style="stroke: #A80036; stroke-width: 1.5;" x1="106.5" x2="293.5" y1="40" y2="40"/><rect fill="none" height="6" style="stroke: #C82930; stroke-width: 1.0;" width="6" x="113.5" y="48.9775"/><text fill="#000000" font-family="sans-serif" font-size="11" lengthAdjust="spacingAndGlyphs" textLength="163" x="125.5" y="54.6348">anImplementor : Implementor*</text><line style="stroke: #A80036; stroke-width: 1.5;" x1="106.5" x2="293.5" y1="60.9551" y2="60.9551"/><ellipse cx="116.5" cy="72.9326" fill="#84BE84" rx="3" ry="3" style="stroke: #038048; stroke-width: 1.0;"/><text fill="#000000" font-family="sans-serif" font-size="11" lengthAdjust="spacingAndGlyphs" textLength="51" x="125.5" y="75.5898">Request()</text><!--class RefinedAbstraction--><rect fill="#FEFECE" filter="url(#f1ap82df094o4j)" height="32" id="RefinedAbstraction" style="stroke: #A80036; stroke-width: 1.5;" width="141" x="126.5" y="152.5"/><ellipse cx="141.5" cy="168.5" fill="#ADD1B2" rx="11" ry="11" style="stroke: #A80036; stroke-width: 1.0;"/><path d="M143.9731,174.6431 Q143.3921,174.9419 142.7529,175.0913 Q142.1138,175.2407 141.4082,175.2407 Q138.9014,175.2407 137.5815,173.5889 Q136.2617,171.937 136.2617,168.8159 Q136.2617,165.6865 137.5815,164.0347 Q138.9014,162.3828 141.4082,162.3828 Q142.1138,162.3828 142.7612,162.5322 Q143.4087,162.6816 143.9731,162.9805 L143.9731,165.7031 Q143.3423,165.1221 142.7488,164.8523 Q142.1553,164.5825 141.5244,164.5825 Q140.1797,164.5825 139.4949,165.6492 Q138.8101,166.7158 138.8101,168.8159 Q138.8101,170.9077 139.4949,171.9744 Q140.1797,173.041 141.5244,173.041 Q142.1553,173.041 142.7488,172.7712 Q143.3423,172.5015 143.9731,171.9204 Z "/><text fill="#000000" font-family="sans-serif" font-size="12" lengthAdjust="spacingAndGlyphs" textLength="109" x="155.5" y="173.0352">RefinedAbstraction</text><!--class Implementor--><rect fill="#FEFECE" filter="url(#f1ap82df094o4j)" height="52.9551" id="Implementor" style="stroke: #A80036; stroke-width: 1.5;" width="105" x="332.5" y="18.5"/><ellipse cx="347.5" cy="34.5" fill="#B4A7E5" rx="11" ry="11" style="stroke: #A80036; stroke-width: 1.0;"/><path d="M343.9277,30.7651 L343.9277,28.6069 L351.3071,28.6069 L351.3071,30.7651 L348.8418,30.7651 L348.8418,38.8418 L351.3071,38.8418 L351.3071,41 L343.9277,41 L343.9277,38.8418 L346.3931,38.8418 L346.3931,30.7651 Z "/><text fill="#000000" font-family="sans-serif" font-size="12" font-style="italic" lengthAdjust="spacingAndGlyphs" textLength="73" x="361.5" y="39.0352">Implementor</text><line style="stroke: #A80036; stroke-width: 1.5;" x1="333.5" x2="436.5" y1="50.5" y2="50.5"/><ellipse cx="343.5" cy="62.4775" fill="#84BE84" rx="3" ry="3" style="stroke: #038048; stroke-width: 1.0;"/><text fill="#000000" font-family="sans-serif" font-size="11" font-style="italic" lengthAdjust="spacingAndGlyphs" textLength="74" x="352.5" y="65.1348">RequestImpl()</text><!--class ConcreteImplementorA--><rect fill="#FEFECE" filter="url(#f1ap82df094o4j)" height="52.9551" id="ConcreteImplementorA" style="stroke: #A80036; stroke-width: 1.5;" width="164" x="303" y="142"/><ellipse cx="318" cy="158" fill="#ADD1B2" rx="11" ry="11" style="stroke: #A80036; stroke-width: 1.0;"/><path d="M320.4731,164.1431 Q319.8921,164.4419 319.2529,164.5913 Q318.6138,164.7407 317.9082,164.7407 Q315.4014,164.7407 314.0815,163.0889 Q312.7617,161.437 312.7617,158.3159 Q312.7617,155.1865 314.0815,153.5347 Q315.4014,151.8828 317.9082,151.8828 Q318.6138,151.8828 319.2612,152.0322 Q319.9087,152.1816 320.4731,152.4805 L320.4731,155.2031 Q319.8423,154.6221 319.2488,154.3523 Q318.6553,154.0825 318.0244,154.0825 Q316.6797,154.0825 315.9949,155.1492 Q315.3101,156.2158 315.3101,158.3159 Q315.3101,160.4077 315.9949,161.4744 Q316.6797,162.541 318.0244,162.541 Q318.6553,162.541 319.2488,162.2712 Q319.8423,162.0015 320.4731,161.4204 Z "/><text fill="#000000" font-family="sans-serif" font-size="12" lengthAdjust="spacingAndGlyphs" textLength="132" x="332" y="162.5352">ConcreteImplementorA</text><line style="stroke: #A80036; stroke-width: 1.5;" x1="304" x2="466" y1="174" y2="174"/><ellipse cx="314" cy="185.9775" fill="#84BE84" rx="3" ry="3" style="stroke: #038048; stroke-width: 1.0;"/><text fill="#000000" font-family="sans-serif" font-size="11" lengthAdjust="spacingAndGlyphs" textLength="74" x="323" y="188.6348">RequestImpl()</text><!--class ConcreteImplementorB--><rect fill="#FEFECE" filter="url(#f1ap82df094o4j)" height="52.9551" id="ConcreteImplementorB" style="stroke: #A80036; stroke-width: 1.5;" width="163" x="502.5" y="142"/><ellipse cx="517.5" cy="158" fill="#ADD1B2" rx="11" ry="11" style="stroke: #A80036; stroke-width: 1.0;"/><path d="M519.9731,164.1431 Q519.3921,164.4419 518.7529,164.5913 Q518.1138,164.7407 517.4082,164.7407 Q514.9014,164.7407 513.5815,163.0889 Q512.2617,161.437 512.2617,158.3159 Q512.2617,155.1865 513.5815,153.5347 Q514.9014,151.8828 517.4082,151.8828 Q518.1138,151.8828 518.7612,152.0322 Q519.4087,152.1816 519.9731,152.4805 L519.9731,155.2031 Q519.3423,154.6221 518.7488,154.3523 Q518.1553,154.0825 517.5244,154.0825 Q516.1797,154.0825 515.4949,155.1492 Q514.8101,156.2158 514.8101,158.3159 Q514.8101,160.4077 515.4949,161.4744 Q516.1797,162.541 517.5244,162.541 Q518.1553,162.541 518.7488,162.2712 Q519.3423,162.0015 519.9731,161.4204 Z "/><text fill="#000000" font-family="sans-serif" font-size="12" lengthAdjust="spacingAndGlyphs" textLength="131" x="531.5" y="162.5352">ConcreteImplementorB</text><line style="stroke: #A80036; stroke-width: 1.5;" x1="503.5" x2="664.5" y1="174" y2="174"/><ellipse cx="513.5" cy="185.9775" fill="#84BE84" rx="3" ry="3" style="stroke: #038048; stroke-width: 1.0;"/><text fill="#000000" font-family="sans-serif" font-size="11" lengthAdjust="spacingAndGlyphs" textLength="74" x="522.5" y="188.6348">RequestImpl()</text><!--link Client to Abstraction--><path d="M70.2734,45 C80.2704,45 90.2674,45 100.2644,45 " fill="none" id="Client-Abstraction" style="stroke: #A80036; stroke-width: 1.0;"/><polygon fill="#A80036" points="105.4922,45,96.4922,41,100.4922,45,96.4922,49,105.4922,45" style="stroke: #A80036; stroke-width: 1.0;"/><!--link Abstraction to RefinedAbstraction--><path d="M198.6102,102.2143 C198.164,120.5821 197.7047,139.488 197.3915,152.3842 " fill="none" id="Abstraction-RefinedAbstraction" style="stroke: #A80036; stroke-width: 1.0;"/><polygon fill="none" points="191.6162,101.8781,199.0999,82.0541,205.6121,102.2182,191.6162,101.8781" style="stroke: #A80036; stroke-width: 1.0;"/><!--link Abstraction to Implementor--><path d="M307.9416,45 C311.7669,45 315.5923,45 319.4177,45 " fill="none" id="Abstraction-Implementor" style="stroke: #A80036; stroke-width: 1.0;"/><polygon fill="#A80036" points="332.4239,45,323.4239,41,327.4239,45,323.4239,49,332.4239,45" style="stroke: #A80036; stroke-width: 1.0;"/><line style="stroke: #A80036; stroke-width: 1.0;" x1="327.4239" x2="319.424" y1="45" y2="44.9999"/><polygon fill="#FFFFFF" points="294.668,45,300.668,49,306.668,45,300.668,41,294.668,45" style="stroke: #A80036; stroke-width: 1.0;"/><!--link Implementor to ConcreteImplementorA--><path d="M385,91.9061 C385,108.7676 385,127.1986 385,141.7546 " fill="none" id="Implementor-ConcreteImplementorA" style="stroke: #A80036; stroke-width: 1.0;"/><polygon fill="none" points="378.0001,91.7977,385,71.7977,392.0001,91.7976,378.0001,91.7977" style="stroke: #A80036; stroke-width: 1.0;"/><!--link Implementor to ConcreteImplementorB--><path d="M445.5775,82.5946 C476.4842,101.7754 513.3388,124.6475 541.2465,141.9671 " fill="none" id="Implementor-ConcreteImplementorB" style="stroke: #A80036; stroke-width: 1.0;"/><polygon fill="none" points="441.4823,88.2916,428.18,71.7977,448.8647,76.3962,441.4823,88.2916" style="stroke: #A80036; stroke-width: 1.0;"/><!--
@startuml
Client -right-> Abstraction
Abstraction <|- - RefinedAbstraction
Abstraction o-right-> Implementor
Implementor <|- - ConcreteImplementorA
Implementor <|- - ConcreteImplementorB

class Abstraction {
  -anImplementor : Implementor*
  +Request()
}
interface Implementor {
  {abstract} +RequestImpl()
}
class ConcreteImplementorA {
  +RequestImpl()
}
class ConcreteImplementorB {
  +RequestImpl()
}

hide empty attributes
hide empty methods
@enduml

PlantUML version 1.2019.04(Fri Mar 29 23:44:36 CST 2019)
(GPL source distribution)
Java Runtime: Java(TM) SE Runtime Environment
JVM: Java HotSpot(TM) 64-Bit Server VM
Java Version: 1.8.0_152-b16
Operating System: Mac OS X
OS Version: 10.14
Default Encoding: UTF-8
Language: zh
Country: CN
--></g></svg>