<?xml version="1.0" encoding="UTF-8" standalone="no"?><svg xmlns="http://www.w3.org/2000/svg" xmlns:xlink="http://www.w3.org/1999/xlink" contentScriptType="application/ecmascript" contentStyleType="text/css" height="205px" preserveAspectRatio="none" style="width:677px;height:205px;" version="1.1" viewBox="0 0 677 205" width="677px" zoomAndPan="magnify"><defs><filter height="300%" id="fz4s3hb0xrz8j" width="300%" x="-1" y="-1"><feGaussianBlur result="blurOut" stdDeviation="2.0"/><feColorMatrix in="blurOut" result="blurOut2" type="matrix" values="0 0 0 0 0 0 0 0 0 0 0 0 0 0 0 0 0 0 .4 0"/><feOffset dx="4.0" dy="4.0" in="blurOut2" result="blurOut3"/><feBlend in="SourceGraphic" in2="blurOut3" mode="normal"/></filter></defs><g><!--class Client--><rect fill="#FEFECE" filter="url(#fz4s3hb0xrz8j)" height="32" id="Client" style="stroke: #A80036; stroke-width: 1.5;" width="64" x="6" y="29"/><ellipse cx="21" cy="45" fill="#ADD1B2" rx="11" ry="11" style="stroke: #A80036; stroke-width: 1.0;"/><path d="M23.4731,51.1431 Q22.8921,51.4419 22.2529,51.5913 Q21.6138,51.7407 20.9082,51.7407 Q18.4014,51.7407 17.0815,50.0889 Q15.7617,48.437 15.7617,45.3159 Q15.7617,42.1865 17.0815,40.5347 Q18.4014,38.8828 20.9082,38.8828 Q21.6138,38.8828 22.2612,39.0322 Q22.9087,39.1816 23.4731,39.4805 L23.4731,42.2031 Q22.8423,41.6221 22.2488,41.3523 Q21.6553,41.0825 21.0244,41.0825 Q19.6797,41.0825 18.9949,42.1492 Q18.3101,43.2158 18.3101,45.3159 Q18.3101,47.4077 18.9949,48.4744 Q19.6797,49.541 21.0244,49.541 Q21.6553,49.541 22.2488,49.2712 Q22.8423,49.0015 23.4731,48.4204 Z "/><text fill="#000000" font-family="sans-serif" font-size="12" lengthAdjust="spacingAndGlyphs" textLength="32" x="35" y="49.5352">Client</text><!--class Abstraction--><rect fill="#FEFECE" filter="url(#fz4s3hb0xrz8j)" height="73.9102" id="Abstraction" style="stroke: #A80036; stroke-width: 1.5;" width="189" x="105.5" y="8"/><ellipse cx="163.25" cy="24" fill="#ADD1B2" rx="11" ry="11" style="stroke: #A80036; stroke-width: 1.0;"/><path d="M165.7231,30.1431 Q165.1421,30.4419 164.5029,30.5913 Q163.8638,30.7407 163.1582,30.7407 Q160.6514,30.7407 159.3315,29.0889 Q158.0117,27.437 158.0117,24.3159 Q158.0117,21.1865 159.3315,19.5347 Q160.6514,17.8828 163.1582,17.8828 Q163.8638,17.8828 164.5112,18.0322 Q165.1587,18.1816 165.7231,18.4805 L165.7231,21.2031 Q165.0923,20.6221 164.4988,20.3523 Q163.9053,20.0825 163.2744,20.0825 Q161.9297,20.0825 161.2449,21.1492 Q160.5601,22.2158 160.5601,24.3159 Q160.5601,26.4077 161.2449,27.4744 Q161.9297,28.541 163.2744,28.541 Q163.9053,28.541 164.4988,28.2712 Q165.0923,28.0015 165.7231,27.4204 Z "/><text fill="#000000" font-family="sans-serif" font-size="12" lengthAdjust="spacingAndGlyphs" textLength="65" x="183.75" y="28.5352">Abstraction</text><line style="stroke: #A80036; stroke-width: 1.5;" x1="106.5" x2="293.5" y1="40" y2="40"/><rect fill="none" height="6" style="stroke: #C82930; stroke-width: 1.0;" width="6" x="113.5" y="48.9775"/><text fill="#000000" font-family="sans-serif" font-size="11" lengthAdjust="spacingAndGlyphs" textLength="163" x="125.5" y="54.6348">anImplementor : Implementor*</text><line style="stroke: #A80036; stroke-width: 1.5;" x1="106.5" x2="293.5" y1="60.9551" y2="60.9551"/><ellipse cx="116.5" cy="72.9326" fill="#84BE84" rx="3" ry="3" style="stroke: #038048; stroke-width: 1.0;"/><text fill="#000000" font-family="sans-serif" font-size="11" lengthAdjust="spacingAndGlyphs" textLength="60" x="125.5" y="75.5898">operation()</text><!--class RefinedAbstraction--><rect fill="#FEFECE" filter="url(#fz4s3hb0xrz8j)" height="32" id="RefinedAbstraction" style="stroke: #A80036; stroke-width: 1.5;" width="141" x="127.5" y="152.5"/><ellipse cx="142.5" cy="168.5" fill="#ADD1B2" rx="11" ry="11" style="stroke: #A80036; stroke-width: 1.0;"/><path d="M144.9731,174.6431 Q144.3921,174.9419 143.7529,175.0913 Q143.1138,175.2407 142.4082,175.2407 Q139.9014,175.2407 138.5815,173.5889 Q137.2617,171.937 137.2617,168.8159 Q137.2617,165.6865 138.5815,164.0347 Q139.9014,162.3828 142.4082,162.3828 Q143.1138,162.3828 143.7612,162.5322 Q144.4087,162.6816 144.9731,162.9805 L144.9731,165.7031 Q144.3423,165.1221 143.7488,164.8523 Q143.1553,164.5825 142.5244,164.5825 Q141.1797,164.5825 140.4949,165.6492 Q139.8101,166.7158 139.8101,168.8159 Q139.8101,170.9077 140.4949,171.9744 Q141.1797,173.041 142.5244,173.041 Q143.1553,173.041 143.7488,172.7712 Q144.3423,172.5015 144.9731,171.9204 Z "/><text fill="#000000" font-family="sans-serif" font-size="12" lengthAdjust="spacingAndGlyphs" textLength="109" x="156.5" y="173.0352">RefinedAbstraction</text><!--class Implementor--><rect fill="#FEFECE" filter="url(#fz4s3hb0xrz8j)" height="52.9551" id="Implementor" style="stroke: #A80036; stroke-width: 1.5;" width="109" x="331.5" y="18.5"/><ellipse cx="348.3" cy="34.5" fill="#B4A7E5" rx="11" ry="11" style="stroke: #A80036; stroke-width: 1.0;"/><path d="M344.7277,30.7651 L344.7277,28.6069 L352.1071,28.6069 L352.1071,30.7651 L349.6418,30.7651 L349.6418,38.8418 L352.1071,38.8418 L352.1071,41 L344.7277,41 L344.7277,38.8418 L347.1931,38.8418 L347.1931,30.7651 Z "/><text fill="#000000" font-family="sans-serif" font-size="12" font-style="italic" lengthAdjust="spacingAndGlyphs" textLength="73" x="362.7" y="39.0352">Implementor</text><line style="stroke: #A80036; stroke-width: 1.5;" x1="332.5" x2="439.5" y1="50.5" y2="50.5"/><ellipse cx="342.5" cy="62.4775" fill="#84BE84" rx="3" ry="3" style="stroke: #038048; stroke-width: 1.0;"/><text fill="#000000" font-family="sans-serif" font-size="11" font-style="italic" lengthAdjust="spacingAndGlyphs" textLength="83" x="351.5" y="65.1348">operationImpl()</text><!--class ConcreteImplementorA--><rect fill="#FEFECE" filter="url(#fz4s3hb0xrz8j)" height="52.9551" id="ConcreteImplementorA" style="stroke: #A80036; stroke-width: 1.5;" width="164" x="304" y="142"/><ellipse cx="319" cy="158" fill="#ADD1B2" rx="11" ry="11" style="stroke: #A80036; stroke-width: 1.0;"/><path d="M321.4731,164.1431 Q320.8921,164.4419 320.2529,164.5913 Q319.6138,164.7407 318.9082,164.7407 Q316.4014,164.7407 315.0815,163.0889 Q313.7617,161.437 313.7617,158.3159 Q313.7617,155.1865 315.0815,153.5347 Q316.4014,151.8828 318.9082,151.8828 Q319.6138,151.8828 320.2612,152.0322 Q320.9087,152.1816 321.4731,152.4805 L321.4731,155.2031 Q320.8423,154.6221 320.2488,154.3523 Q319.6553,154.0825 319.0244,154.0825 Q317.6797,154.0825 316.9949,155.1492 Q316.3101,156.2158 316.3101,158.3159 Q316.3101,160.4077 316.9949,161.4744 Q317.6797,162.541 319.0244,162.541 Q319.6553,162.541 320.2488,162.2712 Q320.8423,162.0015 321.4731,161.4204 Z "/><text fill="#000000" font-family="sans-serif" font-size="12" lengthAdjust="spacingAndGlyphs" textLength="132" x="333" y="162.5352">ConcreteImplementorA</text><line style="stroke: #A80036; stroke-width: 1.5;" x1="305" x2="467" y1="174" y2="174"/><ellipse cx="315" cy="185.9775" fill="#84BE84" rx="3" ry="3" style="stroke: #038048; stroke-width: 1.0;"/><text fill="#000000" font-family="sans-serif" font-size="11" lengthAdjust="spacingAndGlyphs" textLength="83" x="324" y="188.6348">operationImpl()</text><!--class ConcreteImplementorB--><rect fill="#FEFECE" filter="url(#fz4s3hb0xrz8j)" height="52.9551" id="ConcreteImplementorB" style="stroke: #A80036; stroke-width: 1.5;" width="163" x="503.5" y="142"/><ellipse cx="518.5" cy="158" fill="#ADD1B2" rx="11" ry="11" style="stroke: #A80036; stroke-width: 1.0;"/><path d="M520.9731,164.1431 Q520.3921,164.4419 519.7529,164.5913 Q519.1138,164.7407 518.4082,164.7407 Q515.9014,164.7407 514.5815,163.0889 Q513.2617,161.437 513.2617,158.3159 Q513.2617,155.1865 514.5815,153.5347 Q515.9014,151.8828 518.4082,151.8828 Q519.1138,151.8828 519.7612,152.0322 Q520.4087,152.1816 520.9731,152.4805 L520.9731,155.2031 Q520.3423,154.6221 519.7488,154.3523 Q519.1553,154.0825 518.5244,154.0825 Q517.1797,154.0825 516.4949,155.1492 Q515.8101,156.2158 515.8101,158.3159 Q515.8101,160.4077 516.4949,161.4744 Q517.1797,162.541 518.5244,162.541 Q519.1553,162.541 519.7488,162.2712 Q520.3423,162.0015 520.9731,161.4204 Z "/><text fill="#000000" font-family="sans-serif" font-size="12" lengthAdjust="spacingAndGlyphs" textLength="131" x="532.5" y="162.5352">ConcreteImplementorB</text><line style="stroke: #A80036; stroke-width: 1.5;" x1="504.5" x2="665.5" y1="174" y2="174"/><ellipse cx="514.5" cy="185.9775" fill="#84BE84" rx="3" ry="3" style="stroke: #038048; stroke-width: 1.0;"/><text fill="#000000" font-family="sans-serif" font-size="11" lengthAdjust="spacingAndGlyphs" textLength="83" x="523.5" y="188.6348">operationImpl()</text><!--link Client to Abstraction--><path d="M70.2734,45 C80.2704,45 90.2674,45 100.2644,45 " fill="none" id="Client-Abstraction" style="stroke: #A80036; stroke-width: 1.0;"/><polygon fill="#A80036" points="105.4922,45,96.4922,41,100.4922,45,96.4922,49,105.4922,45" style="stroke: #A80036; stroke-width: 1.0;"/><!--link Abstraction to RefinedAbstraction--><path d="M199.0735,102.2143 C198.776,120.5821 198.4698,139.488 198.261,152.3842 " fill="none" id="Abstraction-RefinedAbstraction" style="stroke: #A80036; stroke-width: 1.0;"/><polygon fill="none" points="192.0769,101.9381,199.3999,82.0541,206.0751,102.1648,192.0769,101.9381" style="stroke: #A80036; stroke-width: 1.0;"/><!--link Abstraction to Implementor--><path d="M307.8728,45 C311.267,45 314.6612,45 318.0555,45 " fill="none" id="Abstraction-Implementor" style="stroke: #A80036; stroke-width: 1.0;"/><polygon fill="#A80036" points="331.1474,45,322.1474,41,326.1474,45,322.1474,49,331.1474,45" style="stroke: #A80036; stroke-width: 1.0;"/><line style="stroke: #A80036; stroke-width: 1.0;" x1="326.1474" x2="318.1473" y1="45" y2="44.9999"/><polygon fill="#FFFFFF" points="294.8164,45,300.8164,49,306.8164,45,300.8164,41,294.8164,45" style="stroke: #A80036; stroke-width: 1.0;"/><!--link Implementor to ConcreteImplementorA--><path d="M386,91.9061 C386,108.7676 386,127.1986 386,141.7546 " fill="none" id="Implementor-ConcreteImplementorA" style="stroke: #A80036; stroke-width: 1.0;"/><polygon fill="none" points="379.0001,91.7977,386,71.7977,393.0001,91.7976,379.0001,91.7977" style="stroke: #A80036; stroke-width: 1.0;"/><!--link Implementor to ConcreteImplementorB--><path d="M446.5775,82.5946 C477.4842,101.7754 514.3388,124.6475 542.2465,141.9671 " fill="none" id="Implementor-ConcreteImplementorB" style="stroke: #A80036; stroke-width: 1.0;"/><polygon fill="none" points="442.4823,88.2916,429.18,71.7977,449.8647,76.3962,442.4823,88.2916" style="stroke: #A80036; stroke-width: 1.0;"/><!--
@startuml
Client -right-> Abstraction
Abstraction <|- - RefinedAbstraction
Abstraction o-right-> Implementor
Implementor <|- - ConcreteImplementorA
Implementor <|- - ConcreteImplementorB

class Abstraction {
  -anImplementor : Implementor*
  +operation()
}
interface Implementor {
  {abstract} +operationImpl()
}
class ConcreteImplementorA {
  +operationImpl()
}
class ConcreteImplementorB {
  +operationImpl()
}

hide empty attributes
hide empty methods
@enduml

PlantUML version 1.2019.04(Fri Mar 29 23:44:36 CST 2019)
(GPL source distribution)
Java Runtime: Java(TM) SE Runtime Environment
JVM: Java HotSpot(TM) 64-Bit Server VM
Java Version: 1.8.0_152-b16
Operating System: Mac OS X
OS Version: 10.14
Default Encoding: UTF-8
Language: zh
Country: CN
--></g></svg>