<svg xmlns="http://www.w3.org/2000/svg" xmlns:xlink="http://www.w3.org/1999/xlink" version="1.1" width="534.7432pt" height="139.32898pt" viewBox="0 0 534.7432 139.32898">
<defs>
<clipPath id="clip_0">
<path transform="matrix(1,0,0,-1,-1.55675,523.654)" d="M1.55675 384.325H536.3V523.654H1.55675Z" fill-rule="evenodd"/>
</clipPath>
<clipPath id="clip_1">
<path transform="matrix(1,0,0,-1,-1.55675,523.654)" d="M0 .00002324581H719.9999V540H0Z"/>
</clipPath>
<path id="font_2_2" d="M.4506836 .7294922C.37841798 .6301575 .32958985 .55703738 .30419923 .51013186 .26611329 .43881227 .23714192 .3564148 .21728516 .26293946 .19710286 .16848755 .19189453 .08217875 .20166016 .0040130617 .20784505-.044184369 .22526042-.11355591 .25390626-.20410156H.19482422C.16292317-.12984212 .14347331-.08245341 .13647461-.061935426 .1294759-.04141744 .123046878-.013570149 .1171875 .021606446 .10904948 .06980387 .10725912 .1212616 .111816409 .17597962 .11442057 .2043101 .11832682 .23134358 .123535159 .25708009 .14404297 .3534851 .17740886 .43930564 .22363281 .5145416 .25325523 .5624135 .30859376 .6340637 .38964845 .7294922H.4506836Z"/>
<path id="font_2_6" d="M.25439454 .2788086 .359375 .3330078C.40657554 .35742188 .44059245 .37825523 .46142579 .3955078 .49365235 .42252604 .5135091 .45345054 .5209961 .48828126 .52978518 .5289714 .5244954 .5612793 .50512698 .5852051 .48575846 .60913088 .45572917 .62109377 .41503907 .62109377 .35481773 .62109377 .30826823 .5983073 .27539063 .5527344 .2578125 .5283203 .24381511 .49446617 .23339844 .45117188H.14404297C.15804036 .51204428 .17985027 .5616862 .20947266 .60009768 .2618815 .66813156 .33626304 .70214846 .4326172 .70214846 .5126953 .70214846 .56656906 .68051657 .5942383 .6372528 .62190756 .5939992 .6302083 .54586288 .6191406 .49284364 .6070964 .43689475 .57714846 .38907878 .5292969 .34939576 .5016276 .3263041 .45491538 .29833476 .38916017 .26548768L.31445313 .22840882C.27864585 .21084087 .25 .19408672 .22851563 .17814636 .18977864 .14984639 .16259766 .11845907 .14697266 .083984378H.5288086L.51123049 0H.03125C.04720052 .060221357 .0707194 .11263021 .10180664 .15722656 .13289388 .20182292 .18375652 .24235027 .25439454 .2788086Z"/>
<path id="font_2_3" d="M-.008300781-.20410156C.06461588-.103139247 .11344401-.029530844 .1381836 .016723633 .17561849 .08674113 .20442708 .16881307 .22460938 .26293946 .24446614 .35706584 .24951172 .44321189 .2397461 .52137759 .23388672 .569575 .21663411 .63894656 .18798828 .7294922H.24707031C.28027345 .64937338 .30013023 .59995016 .30664063 .58122256 .31315104 .56249496 .3191732 .5366821 .32470704 .5037842 .33154298 .46307374 .33406578 .42285157 .3322754 .38311769 .33048503 .3433838 .3256836 .30511476 .3178711 .26831056 .29736329 .17190552 .26383464 .08592224 .21728516 .010360718 .18766277-.03816223 .13264974-.10964966 .052246095-.20410156H-.008300781Z"/>
<path id="font_2_1" d="M0 0Z"/>
<path id="font_2_9" d="M.77978518 .5019531H.6850586C.68408206 .54848226 .67041018 .5853424 .64404299 .61253359 .6176758 .63972476 .5755208 .6533203 .5175781 .6533203 .4469401 .6533203 .38468424 .628479 .33081056 .5787964 .27693687 .52911379 .23909505 .45295716 .21728516 .35032655 .19938152 .26628114 .20450847 .19810994 .23266602 .14581299 .26082359 .09352621 .3138021 .06738281 .39160157 .06738281 .46321617 .06738281 .5236003 .09484863 .5727539 .14978028 .59847006 .17870076 .62125656 .21672566 .6411133 .26385499H.73583987C.7114258 .18828328 .67008468 .124928798 .6118164 .073791507 .5415039 .012227376 .4580078-.018554688 .36132813-.018554688 .27799479-.018554688 .2133789 .006688436 .16748047 .057174684 .10725912 .12394714 .09195963 .2270406 .12158203 .36645509 .14404297 .47232057 .19042969 .5591278 .2607422 .62687686 .33691407 .7004954 .42822267 .7373047 .53466799 .7373047 .6254883 .7373047 .69091799 .71332809 .73095706 .66537478 .7709961 .61742147 .78727218 .5629476 .77978518 .5019531Z"/>
<path id="font_2_23" d="M.4814453 .26976014C.49186198 .31852723 .49251304 .35819499 .48339845 .38876344 .46875 .4368795 .43115235 .4609375 .37060548 .4609375 .31689454 .4609375 .2735189 .4404551 .24047852 .39949037 .20743816 .3585256 .18473308 .30910746 .17236328 .25123597 .16064453 .19563294 .16300456 .14929708 .17944336 .11222839 .19588216 .07516988 .23063152 .056640626 .2836914 .056640626 .34195964 .056640626 .38663737 .07866923 .4177246 .12272644 .44881187 .16678365 .4700521 .21579488 .4814453 .26976014M.57373049 .27223207C.55582687 .18784078 .5205078 .1181132 .46777345 .06304932 .41503907 .0079956059 .34554038-.01953125 .25927735-.01953125 .18733724-.01953125 .13541667 .0048217775 .103515628 .053527833 .071614589 .10223389 .06429037 .16763814 .08154297 .2497406 .10042318 .33771263 .13769531 .40776063 .19335938 .45988465 .24902344 .51201888 .31445313 .53808596 .38964845 .53808596 .45703126 .53808596 .509196 .5156047 .5461426 .4706421 .5830892 .42567954 .59228518 .35954286 .57373049 .27223207Z"/>
<path id="font_2_22" d="M.17529297 .5234375H.25878907L.24316406 .44914247C.27441407 .47977195 .30525718 .50176498 .33569337 .51512148 .36612956 .52847799 .39827476 .53515627 .4321289 .53515627 .50634768 .53515627 .55094406 .5092519 .56591799 .45744325 .57438156 .42910258 .5730794 .38853965 .5620117 .3357544L.49072267 0H.4013672L.4711914 .3299408C.47802735 .36188255 .47884117 .38762919 .4736328 .4071808 .46484376 .4397634 .4399414 .4560547 .39892579 .4560547 .37809245 .4560547 .3605143 .4539388 .3461914 .44970704 .32047526 .4425354 .29622398 .42819724 .2734375 .4066925 .25520835 .38941957 .24194336 .37157694 .23364258 .35316468 .2253418 .3347524 .21761067 .30843608 .21044922 .2742157L.15234375 0H.064453128L.17529297 .5234375Z"/>
<path id="font_2_27" d="M.2241211 .6689453H.31298829L.28173829 .5234375H.36523438L.35009767 .45117188H.26660157L.19384766 .10948181C.1899414 .0912323 .19352214 .07901001 .20458985 .07281494 .21077474 .069234218 .22184246 .06744385 .23779297 .06744385 .24202474 .06744385 .24658203 .06752523 .25146485 .06768799 .25634767 .067850749 .26220704 .06825765 .26904298 .06890869L.25439454-.00048828127C.24365235-.0034179688 .23266602-.005533854 .22143555-.0068359377 .21020508-.0081380209 .19824219-.0087890629 .18554688-.0087890629 .14453125-.0087890629 .118896488 .0017191569 .10864258 .022735596 .09838867 .043752035 .096842449 .07104492 .104003909 .10461426L.17773438 .45117188H.106933597L.12207031 .5234375H.1928711L.2241211 .6689453Z"/>
<path id="font_2_25" d="M.17773438 .5234375H.26123048L.2421875 .43301393C.25260417 .4506124 .2738444 .47203575 .3059082 .49728395 .33797203 .52253219 .37141929 .53515627 .40625 .53515627 .4078776 .53515627 .41064454 .5349579 .41455079 .53456118 .41845704 .5341746 .42496745 .5333964 .43408204 .53222659L.41455079 .4399414C.40934245 .44091798 .4046224 .441569 .40039063 .44189454 .39615885 .44222007 .3914388 .4423828 .38623048 .4423828 .34195964 .4423828 .30493165 .428126 .27514649 .39961244 .24536133 .37109886 .22639974 .338267 .21826172 .30111695L.15478516 0H.06689453L.17773438 .5234375Z"/>
<path id="font_2_21" d="M.21923828 .71777346H.3071289L.15478516 0H.06689453L.21923828 .71777346Z"/>
<path id="font_2_24" d="M.484375 .26513673C.49316407 .30680339 .4946289 .3426107 .48876954 .3725586 .47835288 .43017579 .4428711 .45898438 .38232423 .45898438 .3214518 .45898438 .27327476 .4285482 .23779297 .36767579 .21891277 .3351237 .20410156 .29378257 .19335938 .24365235 .18489583 .20328777 .18375652 .16894531 .1899414 .140625 .20100911 .08658854 .2368164 .059570314 .29736329 .059570314 .3383789 .059570314 .3761393 .07674154 .41064454 .111083988 .44514976 .14542644 .46972657 .19677735 .484375 .26513673M.16796875 .5214844H.25341798L.23876953 .45214845C.26123048 .47591148 .28434245 .49430339 .30810548 .5073242 .34195964 .52652999 .37890626 .5361328 .4189453 .5361328 .4781901 .5361328 .5236003 .5134074 .5551758 .46795655 .5867513 .4225057 .5935872 .35758973 .5756836 .27320863 .55159506 .1591746 .5045573 .07772318 .4345703 .02885437 .39029948-.0021006268 .34309898-.017578125 .29296876-.017578125 .25358073-.017578125 .22233074-.008895874 .19921875 .008468628 .18554688 .018295289 .17171224 .035166425 .15771485 .05908203L.10107422-.20898438H.013183594L.16796875 .5214844Z"/>
<path id="font_2_13" d="M.23730469 .057617189C.26822917 .057617189 .2998047 .06476847 .33203126 .079071048 .3857422 .10281372 .41845704 .14166768 .43017579 .19563294L.44482423 .26635743C.43277995 .25953166 .417806 .25384013 .39990235 .24928284 .3819987 .24473572 .3647461 .2414856 .34814454 .23953247L.29345704 .23271179C.26057945 .22848003 .2351888 .22181194 .21728516 .21270752 .18701172 .19742839 .16829427 .17304485 .16113281 .13955689 .15559896 .11419678 .16056316 .09419759 .17602539 .079559329 .19148763 .064931239 .21191406 .057617189 .23730469 .057617189M.4116211 .31723023C.43245445 .31984458 .44791667 .32831828 .4580078 .34265138 .46354167 .35047404 .46777345 .3617147 .47070313 .3763733 .47721354 .40635173 .4711914 .4281006 .45263673 .44161988 .43408204 .45514933 .4049479 .46191407 .36523438 .46191407 .31933595 .46191407 .2841797 .44954429 .25976563 .4248047 .24609375 .4111328 .23486328 .39078776 .22607422 .36376954H.14404297C.15934246 .42822267 .18977864 .47306315 .23535156 .49829103 .28092448 .52351889 .33024089 .5361328 .38330079 .5361328 .44482423 .5361328 .4921875 .52441409 .5253906 .50097659 .55859377 .47753907 .569987 .44108073 .5595703 .39160157L.49560548 .09033203C.49365235 .081217449 .49389649 .07389323 .4963379 .068359378 .4987793 .06282552 .50602218 .060058595 .5180664 .060058595 .52197268 .060058595 .52644857 .060343427 .53149417 .060913087 .53653976 .061482748 .5419922 .06233724 .54785159 .06347656L.5336914-.0027618409C.51936849-.0067392985 .5085449-.009226481 .5012207-.010223389 .49389649-.011220296 .48404948-.01171875 .4716797-.01171875 .44140626-.01171875 .42171226-.00090026858 .41259767 .020736695 .40771485 .032211305 .40608726 .04843648 .40771485 .06941223 .38460288 .045954389 .3544922 .02558899 .3173828 .00831604 .28027345-.008946736 .24153646-.017578125 .20117188-.017578125 .15266927-.017578125 .116129558-.0028330486 .091552738 .026657105 .066975917 .05614726 .05940755 .093048099 .068847659 .13735962 .07926432 .18591309 .10245768 .22355144 .13842774 .25027467 .17439778 .2769979 .21761067 .29345194 .2680664 .29963685L.4116211 .31723023Z"/>
<path id="font_2_26" d="M.15136719 .1640625C.14778646 .13463338 .15039063 .11207072 .15917969 .09637451 .1751302 .06793213 .21044922 .053710939 .26513673 .053710939 .2976888 .053710939 .32788087 .060806276 .3557129 .07499695 .38354493 .08918762 .40055339 .11112467 .40673829 .1408081 .4116211 .16330974 .40527345 .1804301 .3876953 .19216919 .3766276 .199351 .35335288 .20767212 .3178711 .21713257L.25195313 .23474121C.20963542 .24582927 .17936199 .2582245 .16113281 .27192689 .1282552 .29574076 .116373699 .32868449 .12548828 .37075807 .13590496 .42033897 .16219075 .46045939 .2043457 .49111939 .24650066 .52177938 .2976888 .5371094 .35791017 .5371094 .4366862 .5371094 .48860679 .5139974 .5136719 .46777345 .5292969 .43847657 .5332031 .40690104 .5253906 .37304688H.4423828C.44498698 .39290367 .44173179 .41097007 .4326172 .4272461 .41731773 .45035807 .38476563 .46191407 .33496095 .46191407 .3017578 .46191407 .27530924 .45555116 .25561524 .44282533 .23592122 .43010966 .22379558 .41331483 .21923828 .3924408 .21435547 .36960349 .22167969 .3513387 .24121094 .33764649 .25260417 .32948814 .27034507 .3223114 .2944336 .31611634L.34960938 .30192567C.40950523 .28659568 .44873048 .27175395 .46728517 .2574005 .49658204 .23488872 .50602218 .19949849 .49560548 .15122986 .48583985 .10458883 .4597168 .064305629 .41723634 .030380249 .37475587-.0035451253 .3173828-.020507813 .24511719-.020507813 .1673177-.020507813 .1159668-.002802531 .09106445 .032608034 .06616211 .06801859 .05810547 .111836757 .06689453 .1640625H.15136719Z"/>
<path id="font_2_17" d="M.5629883 .44125367C.57503256 .4148458 .5802409 .3840332 .5786133 .34881593 .5789388 .32468669 .57340499 .2862142 .5620117 .23339844H.17871094C.16894531 .18033855 .17244466 .13777669 .18920899 .10571289 .20597331 .073649089 .2389323 .057617189 .28808595 .057617189 .33398438 .057617189 .3736979 .072779338 .40722657 .10310364 .4267578 .12070211 .44222007 .14107768 .45361329 .16423035H.54003909C.5335286 .14500427 .521403 .12358093 .5036621 .09996033 .48592124 .07633972 .4674479 .057037355 .4482422 .042053224 .41601563 .015981039 .37923179-.0016174316 .33789063-.0107421879 .3154297-.015950522 .29085288-.018554688 .26416017-.018554688 .19905599-.018554688 .14892578 .0051472985 .11376953 .05255127 .07861328 .09995524 .07014974 .16634114 .088378909 .25170899 .106282558 .33576457 .14355469 .40401713 .20019531 .45646668 .25683595 .5089264 .3219401 .53515627 .3955078 .53515627 .4326172 .53515627 .46679688 .5264333 .49804688 .5089874 .5292969 .49154154 .55094406 .46896363 .5629883 .44125367M.48632813 .30371095C.4908854 .3416748 .48909507 .37201438 .48095704 .3947296 .46598307 .43691508 .43033854 .4580078 .37402345 .4580078 .33365885 .4580078 .29671226 .44348655 .2631836 .41444398 .22965496 .3854014 .20719402 .3484904 .19580078 .30371095H.48632813Z"/>
<path id="font_3_1" d="M0 0Z"/>
<path id="font_2_19" d="M.21728516 .71972659H.30517579L.24804688 .45214845C.2747396 .4786682 .29752604 .4973297 .31640626 .50813296 .3486328 .5267995 .38590495 .5361328 .42822267 .5361328 .50406906 .5361328 .5498047 .50957748 .5654297 .45646668 .57389327 .42747499 .5727539 .38723756 .5620117 .3357544L.49072267 0H.40039063L.47021485 .32958985C.47835288 .3680013 .4794922 .39615885 .4736328 .4140625 .46354167 .44270835 .43652345 .45703126 .39257813 .45703126 .35611979 .45703126 .32047526 .4444987 .28564454 .4194336 .2508138 .3943685 .22591146 .34700523 .2109375 .27734376L.15234375 0H.064453128L.21728516 .71972659Z"/>
<path id="font_2_16" d="M.28222657 .05859375C.32291667 .05859375 .36002604 .076044719 .3935547 .110946658 .42708335 .14585877 .45084635 .19594829 .46484376 .2612152 .47884117 .32713319 .4757487 .37592063 .4555664 .4075775 .43538413 .4392446 .4054362 .45507813 .36572267 .45507813 .3214518 .45507813 .28198243 .43819175 .24731446 .40441896 .21264649 .37064616 .1883138 .32096354 .1743164 .2553711 .16227214 .19952393 .16414388 .15276592 .17993164 .115097049 .1957194 .077428188 .2298177 .05859375 .28222657 .05859375M.46044923 .50683596C.4741211 .4970703 .48828126 .47998048 .5029297 .4555664L.55908206 .71972659H.6435547L.49072267 0H.4116211L.4267578 .072753909C.39941407 .040527345 .37019859 .017252604 .33911134 .0029296876 .30802409-.0113932299 .27441407-.018554688 .23828125-.018554688 .18001302-.018554688 .13476563 .0059407555 .10253906 .05493164 .0703125 .10392252 .06298828 .16910808 .080566409 .25048829 .09651693 .32666017 .12988281 .39265953 .18066406 .44848634 .23144531 .5043132 .29296876 .53222659 .36523438 .53222659 .40527345 .53222659 .43701173 .523763 .46044923 .50683596Z"/>
<path id="font_2_7" d="M.06933594 .21484375H.16113281C.15527344 .16945394 .15673828 .13646953 .16552735 .1158905 .1805013 .07899475 .21777344 .060546876 .27734376 .060546876 .32356773 .060546876 .36328126 .07296244 .39648438 .09779358 .4296875 .12262472 .45052085 .15464275 .45898438 .19384766 .46907554 .24220784 .46142579 .2760264 .43603517 .29530335 .41064454 .3145803 .37174479 .32421876 .31933595 .32421876 .31347657 .32421876 .3075358 .32413737 .30151368 .3239746 .29549156 .32381187 .28938804 .32356773 .28320313 .3232422L.2998047 .4013672C.30859376 .40019737 .31608073 .39941407 .32226563 .39901734 .32845054 .39863078 .3351237 .3984375 .34228517 .3984375 .37516276 .3984375 .4033203 .40363566 .4267578 .41403199 .4674479 .43222047 .49283854 .46470133 .5029297 .5114746 .5104167 .54622396 .50374349 .5730184 .48291017 .5918579 .4620768 .61069747 .43522135 .6201172 .40234376 .6201172 .34375 .6201172 .29915367 .60058596 .2685547 .56152346 .2516276 .54003909 .23811849 .5094401 .22802735 .46972657H.14111328C.15218099 .5218099 .17203777 .56608077 .2006836 .60253909 .25016276 .66764327 .31998698 .7001953 .41015626 .7001953 .4814453 .7001953 .5332845 .6843465 .5656738 .6526489 .5980632 .6209615 .60791018 .5750529 .59521487 .5149231 .5857747 .47201539 .56673178 .4372355 .53808596 .4105835 .5201823 .39401246 .4988607 .38101197 .4741211 .37158204 .5086263 .36147056 .5332031 .34196983 .54785159 .31307984 .5625 .28420005 .5654297 .24887593 .5566406 .20710755 .5423177 .14021302 .5087077 .08571371 .45581056 .04360962 .40291343 .0015157064 .33610026-.01953125 .2553711-.01953125 .1726888-.01953125 .1175944 .0032196046 .09008789 .048721315 .06258138 .09423319 .055664064 .14960735 .06933594 .21484375Z"/>
<path id="font_2_10" d="M.23779297 .71777346H.73535159L.7163086 .6298828H.31591798L.27001954 .41210938H.6220703L.6035156 .32617188H.25146485L.18261719 0H.08544922L.23779297 .71777346Z"/>
<path id="font_2_28" d="M.2631836 .5234375 .18945313 .17590332C.18391927 .1491801 .18359375 .12734477 .18847656 .11039734 .19726563 .07911682 .22298177 .06347656 .265625 .06347656 .3268229 .06347656 .37434898 .09085083 .40820313 .14559937 .42643229 .17492676 .44091798 .21516927 .45166017 .2663269L.50634768 .5234375H.5942383L.48339845 0H.40039063L.41748048 .076828C.40185548 .056930543 .3841146 .0401357 .3642578 .026443482 .32486979-.00095113119 .28125-.0146484379 .23339844-.0146484379 .15885417-.0146484379 .11344401 .010299683 .09716797 .060195924 .08805338 .08693949 .08821615 .12265015 .09765625 .16732788L.17333985 .5234375H.2631836Z"/>
<path id="font_2_8" d="M.3828125 .24804688 .4501953 .5649414 .1586914 .24804688H.3828125M.33203126 0 .36816407 .17089844H.061523439L.079589847 .25683595 .4946289 .7011719H.56884768L.47216798 .24804688H.5751953L.55908206 .17089844H.4560547L.41992188 0H.33203126Z"/>
<path id="font_2_11" d="M.23095703 .71777346H.32910157L.26611329 .42089845H.63916018L.70214846 .71777346H.80029299L.6479492 0H.5498047L.62109377 .33496095H.24804688L.17675781 0H.07861328L.23095703 .71777346Z"/>
<path id="font_2_20" d="M.17480469 .5205078H.26416017L.1538086 0H.064453128L.17480469 .5205078M.21679688 .71777346H.30615235L.28466798 .61816409H.1953125L.21679688 .71777346Z"/>
<path id="font_2_29" d="M.12548828 .5234375H.23925781L.3203125 .33918763 .48095704 .5234375 .58740237 .5209961 .35742188 .26831056 .48486329 0H.3725586L.2841797 .19647217 .11669922 0H.0053710939L.24609375 .26831056 .12548828 .5234375Z"/>
<path id="font_2_15" d="M.55029299 .3466797H.46484376C.46647135 .37890626 .46028648 .40568034 .44628907 .42700196 .43229167 .44832359 .40478517 .45898438 .36376954 .45898438 .30777995 .45898438 .2618815 .43164063 .22607422 .37695313 .20296224 .34147135 .18587239 .2976888 .17480469 .24560547 .16341146 .19319661 .16503906 .14908855 .1796875 .11328125 .19433594 .07747396 .22542317 .059570314 .27294923 .059570314 .30940757 .059570314 .34065757 .0707194 .36669923 .09301758 .39274089 .11531576 .41389976 .14583333 .43017579 .18457031H.515625C.49121095 .115234378 .4560547 .06453451 .41015626 .032470704 .3642578 .00040690104 .3108724-.015625 .25-.015625 .18164063-.015625 .1324056 .009379069 .10229492 .059387208 .07218424 .10940552 .065104167 .17188008 .08105469 .24681092 .10058594 .33868919 .13810222 .41020204 .19360352 .4613495 .24910482 .51250717 .3113607 .53808596 .3803711 .53808596 .43929038 .53808596 .48413087 .5237274 .5148926 .49501039 .5456543 .46629334 .5574544 .41684977 .55029299 .3466797Z"/>
<path id="font_2_14" d="M.21044922 .71972659H.29589845L.24072266 .45948792C.26513673 .4847056 .29207359 .50394698 .3215332 .5172119 .35099284 .53047689 .38134767 .5371094 .41259767 .5371094 .4777018 .5371094 .52579757 .5147095 .55688479 .46990968 .587972 .42510987 .5942383 .35905458 .5756836 .27174378 .55810549 .1889801 .5234375 .12022909 .4716797 .06549072 .41992188 .010762532 .3585612-.016601563 .28759767-.016601563 .24788411-.016601563 .21647136-.0069986979 .19335938 .012207031 .17936199 .02360026 .16585286 .041829427 .15283203 .06689453L.13867188 0H.057617189L.21044922 .71972659M.48486329 .26731874C.49658204 .32227073 .49446617 .3677877 .47851563 .40386964 .4625651 .43996177 .43164063 .4580078 .3857422 .4580078 .34570313 .4580078 .30745445 .44321189 .2709961 .41362 .23453777 .3840383 .20914714 .3352712 .19482422 .26731874 .18440755 .21822612 .1821289 .17840068 .18798828 .1478424 .19873047 .090296428 .23567708 .061523439 .29882813 .061523439 .34635417 .061523439 .38590495 .08037821 .41748048 .11808777 .449056 .1558075 .47151695 .20555115 .48486329 .26731874Z"/>
<path id="font_2_4" d="M.107910159 .10644531H.20996094L.1875 0H.08544922L.107910159 .10644531Z"/>
<path id="font_2_12" d="M.25048829 .71777346H.3486328L.19628906 0H.09814453L.25048829 .71777346Z"/>
<path id="font_2_5" d="M.2006836 .4951172 .21484375 .5625C.2796224 .5686849 .32609049 .5790202 .35424806 .59350588 .3824056 .6079915 .40852867 .6422526 .4326172 .69628909H.5019531L.3540039 0H.2602539L.36523438 .4951172H.2006836Z"/>
<path id="font_2_18" d="M.25048829 .6826172C.277181 .7125651 .31982423 .72753909 .37841798 .72753909 .3839518 .72753909 .38964845 .7273763 .3955078 .7270508 .4013672 .7267253 .4078776 .726237 .41503907 .72558596L.39794923 .6455078C.38916017 .6461589 .3827311 .64656576 .3786621 .6467285 .3745931 .6468913 .37076823 .64697268 .3671875 .64697268 .34049479 .64697268 .32307945 .64005538 .3149414 .6262207 .30680339 .61238607 .29671226 .57714846 .28466798 .5205078H.37158204L.3569336 .45117188H.26904298L.17333985 0H.08642578L.1821289 .45117188H.109375L.12402344 .5205078H.19677735L.21435547 .60253909C.22347005 .6389974 .23551433 .6656901 .25048829 .6826172Z"/>
<path id="font_4_2" d="M.41796876 0V.059570314C.35839845 .0094401049 .29475913-.015625 .22705078-.015625 .17789714-.015625 .13948567-.0031738282 .111816409 .021728516 .08414713 .04663086 .0703125 .07714844 .0703125 .11328125 .0703125 .1529948 .088541667 .18766277 .125 .21728516 .16145833 .24690755 .21468099 .26171876 .28466798 .26171876 .3035482 .26171876 .324056 .26049806 .3461914 .25805665 .3683268 .25561524 .3922526 .25179038 .41796876 .24658203V.31341554C.41796876 .33602906 .4075521 .35568748 .38671876 .37239076 .3658854 .38910423 .3346354 .39746095 .29296876 .39746095 .26106773 .39746095 .2163086 .38804627 .1586914 .36921693 .14827474 .36591087 .14160156 .3642578 .13867188 .3642578 .13346355 .3642578 .12898763 .36621095 .12524414 .3701172 .12150065 .37402345 .119628909 .37890626 .119628909 .38476563 .119628909 .39029948 .12125651 .394694 .12451172 .39794923 .12906902 .40283204 .14746094 .40950523 .1796875 .41796876 .23046875 .43164063 .26888023 .43847657 .29492188 .43847657 .3466797 .43847657 .38704429 .42566935 .41601563 .40005494 .44498698 .37444053 .45947267 .34547935 .45947267 .3131714V.041015626H.51416018C.5242513 .041015626 .5314128 .03914388 .53564456 .03540039 .5398763 .031656904 .5419922 .026692709 .5419922 .020507813 .5419922 .0146484379 .5398763 .009765625 .53564456 .005859375 .5314128 .001953125 .5242513 0 .51416018 0H.41796876M.41796876 .20458985C.39876304 .2101237 .37841798 .2141927 .3569336 .21679688 .33544923 .21940105 .31282554 .22070313 .2890625 .22070313 .22949219 .22070313 .1829427 .20784505 .14941406 .1821289 .12402344 .16292317 .111328128 .13997396 .111328128 .11328125 .111328128 .088541667 .12101237 .067708339 .14038086 .05078125 .15974935 .033854169 .18798828 .025390625 .22509766 .025390625 .26057945 .025390625 .29353843 .032470704 .3239746 .04663086 .3544108 .060791017 .3857422 .083333339 .41796876 .11425781V.20458985Z"/>
<path id="font_4_3" d="M.14550781 .61328127V.34213258C.19498699 .4063619 .25472007 .43847657 .32470704 .43847657 .38460288 .43847657 .4358724 .41672264 .47851563 .37321473 .5211589 .329717 .54248049 .27635703 .54248049 .21313477 .54248049 .14926148 .52091476 .09516398 .4777832 .050842287 .4346517 .0065307619 .3836263-.015625 .32470704-.015625 .25309245-.015625 .19335938 .016652426 .14550781 .081207279V.0009765625H.049316408C.03955078 .0009765625 .032552083 .0028330486 .028320313 .0065460207 .024088541 .010269165 .021972657 .014923096 .021972657 .020507813 .021972657 .026692709 .024088541 .031656904 .028320313 .03540039 .032552083 .03914388 .03955078 .041015626 .049316408 .041015626H.10449219V.5722656H.049316408C.03955078 .5722656 .032552083 .574173 .028320313 .5779877 .024088541 .58180239 .021972657 .58673098 .021972657 .59277346 .021972657 .5986328 .024088541 .6035156 .028320313 .6074219 .032552083 .6113281 .03955078 .61328127 .049316408 .61328127H.14550781M.50146487 .21095276C.50146487 .26272074 .48372398 .30674745 .4482422 .34303285 .4127604 .37931825 .3712565 .39746095 .32373048 .39746095 .27620445 .39746095 .23470052 .37942506 .19921875 .34335328 .16373699 .30729167 .1459961 .26331584 .1459961 .21142578 .1459961 .15953572 .16373699 .11555481 .19921875 .07948303 .23470052 .04342143 .27620445 .025390625 .32373048 .025390625 .3712565 .025390625 .4127604 .043375654 .4482422 .0793457 .48372398 .11532593 .50146487 .15919495 .50146487 .21095276Z"/>
<path id="font_4_4" d="M.5292969 .21118164C.5292969 .14861043 .5069173 .09516398 .4621582 .050842287 .41739909 .0065307619 .363444-.015625 .30029298-.015625 .23649089-.015625 .18229167 .006612142 .13769531 .051086427 .09309896 .095570888 .07080078 .14893596 .07080078 .21118164 .07080078 .27375285 .09309896 .3272756 .13769531 .37174989 .18229167 .41623435 .23649089 .43847657 .30029298 .43847657 .363444 .43847657 .41739909 .4163157 .4621582 .37199403 .5069173 .3276825 .5292969 .27407838 .5292969 .21118164M.48779298 .21142578C.48779298 .26299034 .46948243 .30688478 .43286134 .34310914 .39624024 .37934367 .35188804 .39746095 .2998047 .39746095 .24772136 .39746095 .20336914 .3792623 .16674805 .342865 .13012696 .30647788 .111816409 .2626648 .111816409 .21142578 .111816409 .16051229 .13012696 .11677551 .16674805 .080215457 .20336914 .04366557 .24772136 .025390625 .2998047 .025390625 .35188804 .025390625 .39624024 .043584188 .43286134 .07997131 .46948243 .116368617 .48779298 .16018677 .48779298 .21142578Z"/>
<path id="font_4_5" d="M.25097657 .42382813V.3200531C.30436198 .36812846 .34431968 .3990682 .3708496 .4128723 .39737956 .4266866 .421875 .43359376 .44433595 .43359376 .46875 .43359376 .49145509 .4253184 .5124512 .4087677 .53344729 .392217 .5439453 .37967936 .5439453 .3711548 .5439453 .3649292 .5419108 .3597819 .5378418 .3557129 .53377279 .3516439 .5286458 .34960938 .52246096 .34960938 .51920577 .34960938 .5164388 .35017906 .51416018 .35131837 .51188156 .35245768 .5076497 .3561605 .50146487 .36242677 .49007163 .3739624 .48014323 .38187156 .4716797 .38615418 .46321617 .3904368 .45491538 .39257813 .44677735 .39257813 .4288737 .39257813 .40730796 .38542176 .38208009 .371109 .3568522 .35679627 .31315104 .32182823 .25097657 .26620484V.041015626H.4326172C.44270835 .041015626 .44986979 .03914388 .45410157 .03540039 .45833335 .031656904 .46044923 .026692709 .46044923 .020507813 .46044923 .0146484379 .45833335 .009765625 .45410157 .005859375 .44986979 .001953125 .44270835 0 .4326172 0H.110839847C.10107422 0 .09407552 .0019175211 .08984375 .0057525637 .08561198 .0095876059 .083496097 .014506022 .083496097 .020507813 .083496097 .026041666 .0855306 .030680338 .08959961 .034423829 .09366862 .038167318 .100748699 .040039064 .110839847 .040039064H.20996094V.3828125H.13427735C.12451172 .3828125 .11751302 .38476563 .11328125 .38867188 .10904948 .39257813 .106933597 .3976237 .106933597 .4038086 .106933597 .40952555 .1089681 .41429139 .11303711 .41810609 .11710612 .42192079 .124186199 .42382813 .13427735 .42382813H.25097657Z"/>
<path id="font_4_6" d="M.21582031 .42382813H.43847657C.4482422 .42382813 .45524089 .42192079 .45947267 .41810609 .46370445 .41429139 .4658203 .4093628 .4658203 .4033203 .4658203 .39746095 .46370445 .39257813 .45947267 .38867188 .45524089 .38476563 .4482422 .3828125 .43847657 .3828125H.21582031V.1091156C.21582031 .08529154 .2253418 .06537882 .24438477 .04937744 .26342774 .03338623 .29134117 .025390625 .328125 .025390625 .35579429 .025390625 .3857422 .029541016 .41796876 .037841798 .4501953 .046142579 .4752604 .0555013 .49316407 .06591797 .49967448 .07014974 .5050456 .072265628 .50927737 .072265628 .51448568 .072265628 .51904299 .07023112 .5229492 .06616211 .52685549 .062093099 .5288086 .057291669 .5288086 .051757814 .5288086 .046875 .5266927 .042317708 .52246096 .038085939 .51204428 .02734375 .48673503 .01570638 .4465332 .0031738282 .4063314-.009358724 .36783854-.015625 .3310547-.015625 .28320313-.015625 .24511719-.0043691 .21679688 .0181427 .18847656 .040664674 .1743164 .071014408 .1743164 .109191898V.3828125H.09863281C.08886719 .3828125 .08186849 .3847402 .07763672 .38859559 .073404949 .39246116 .07128906 .39745078 .07128906 .40356446 .07128906 .40935264 .073404949 .4141744 .07763672 .4180298 .08186849 .42189536 .08886719 .42382813 .09863281 .42382813H.1743164V.54571536C.1743164 .5555522 .17626953 .5625966 .18017578 .56684878 .18408203 .571111 .18896485 .5732422 .19482422 .5732422 .20100911 .5732422 .20605469 .571111 .20996094 .56684878 .21386719 .5625966 .21582031 .5555522 .21582031 .54571536V.42382813Z"/>
<path id="font_4_1" d="M0 0Z"/>
</defs>
<g clip-path="url(#clip_0)">
<g clip-path="url(#clip_1)">
<path transform="matrix(1,0,0,-1,-1.55675,523.654)" d="M0 539.9999H719.9999V.00003079383H0Z" fill="#ffffff" fill-rule="evenodd"/>
<path transform="matrix(.00007874014,0,0,.00007874014,151.06826,-5.595886)" stroke-width="12700" stroke-linecap="butt" stroke-linejoin="round" fill="none" stroke="#000000" d="M-.008117646 .2414552V573087.8"/>
<path transform="matrix(1,0,0,-1,-1.55675,523.654)" d="M155.625 488.1249 152.625 482.1249 149.625 488.1249Z" fill-rule="evenodd"/>
<path transform="matrix(.00007874014,0,0,.00007874014,151.56826,42.029085)" stroke-width="12700" stroke-linecap="butt" stroke-linejoin="round" fill="none" stroke="#000000" d="M-.007141083 .2220461H2374900"/>
<path transform="matrix(1,0,0,-1,-1.55675,523.654)" d="M336.125 484.6249 342.125 481.6249 336.125 478.6249Z" fill-rule="evenodd"/>
<path transform="matrix(-.00007874014,-0,0,.00007874014,340.44316,42.529085)" stroke-width="12700" stroke-linecap="butt" stroke-linejoin="round" fill="none" stroke="#000000" d="M.1071779 .2230226 .8823245 508000.3"/>
<path transform="matrix(1,0,0,-1,-1.55675,523.654)" d="M338.9999 445.1249 341.9999 439.1249 344.9999 445.1249Z" fill-rule="evenodd"/>
<path transform="matrix(-.00007874014,-0,0,-.00007874014,336.56825,82.52908)" stroke-width="12700" stroke-linecap="butt" stroke-linejoin="round" fill="none" stroke="#000000" d="M.2271729-.3011476 2327834 496352.8"/>
<path transform="matrix(1,0,0,-1,-1.55675,523.654)" d="M158.1175 476.4396 152.875 480.6249 159.3687 482.3077Z" fill-rule="evenodd"/>
<path transform="matrix(.00007874014,0,0,.00007874014,150.19326,45.654085)" stroke-width="12700" stroke-linecap="butt" stroke-linejoin="round" fill="none" stroke="#000000" d="M-.09118658 .3415529 3090.225 927100.5"/>
<path transform="matrix(1,0,0,-1,-1.55675,523.654)" d="M154.9799 409.0099 152 402.9999 148.98 408.9899Z" fill-rule="evenodd"/>
<use data-text="(" xlink:href="#font_2_2" transform="matrix(16,0,0,-16,177.94255,13.153809)"/>
<use data-text="2" xlink:href="#font_2_6" transform="matrix(16,0,0,-16,183.27056,13.153809)"/>
<use data-text=")" xlink:href="#font_2_3" transform="matrix(16,0,0,-16,192.16976,13.153809)"/>
<use data-text=" " xlink:href="#font_2_1" transform="matrix(16,0,0,-16,197.49776,13.153809)"/>
<use data-text="C" xlink:href="#font_2_9" transform="matrix(16,0,0,-16,201.94255,13.153809)"/>
<use data-text="o" xlink:href="#font_2_23" transform="matrix(16,0,0,-16,213.49776,13.153809)"/>
<use data-text="n" xlink:href="#font_2_22" transform="matrix(16,0,0,-16,222.39696,13.153809)"/>
<use data-text="t" xlink:href="#font_2_27" transform="matrix(16,0,0,-16,231.29616,13.153809)"/>
<use data-text="r" xlink:href="#font_2_25" transform="matrix(16,0,0,-16,235.74095,13.153809)"/>
<use data-text="o" xlink:href="#font_2_23" transform="matrix(16,0,0,-16,241.06896,13.153809)"/>
<use data-text="l" xlink:href="#font_2_21" transform="matrix(16,0,0,-16,249.96816,13.153809)"/>
<use data-text=" " xlink:href="#font_2_1" transform="matrix(16,0,0,-16,253.52335,13.153809)"/>
<use data-text="p" xlink:href="#font_2_24" transform="matrix(16,0,0,-16,257.96815,13.153809)"/>
<use data-text="a" xlink:href="#font_2_13" transform="matrix(16,0,0,-16,266.86738,13.153809)"/>
<use data-text="s" xlink:href="#font_2_26" transform="matrix(16,0,0,-16,275.76655,13.153809)"/>
<use data-text="s" xlink:href="#font_2_26" transform="matrix(16,0,0,-16,283.76655,13.153809)"/>
<use data-text="e" xlink:href="#font_2_17" transform="matrix(16,0,0,-16,291.76655,13.153809)"/>
<use data-text="s" xlink:href="#font_2_26" transform="matrix(16,0,0,-16,300.66578,13.153809)"/>
<use data-text=" " xlink:href="#font_2_1" transform="matrix(16,0,0,-16,308.66578,13.153809)"/>
<use data-text="&#xfffd;" xlink:href="#font_3_1" transform="matrix(16,0,0,-16,313.11054,13.153809)"/>
<use data-text="t" xlink:href="#font_2_27" transform="matrix(16,0,0,-16,207.94255,32.153779)"/>
<use data-text="o" xlink:href="#font_2_23" transform="matrix(16,0,0,-16,212.38735,32.153779)"/>
<use data-text=" " xlink:href="#font_2_1" transform="matrix(16,0,0,-16,221.28655,32.153779)"/>
<use data-text="h" xlink:href="#font_2_19" transform="matrix(16,0,0,-16,225.73136,32.153779)"/>
<use data-text="a" xlink:href="#font_2_13" transform="matrix(16,0,0,-16,234.63056,32.153779)"/>
<use data-text="n" xlink:href="#font_2_22" transform="matrix(16,0,0,-16,243.52976,32.153779)"/>
<use data-text="d" xlink:href="#font_2_16" transform="matrix(16,0,0,-16,252.42896,32.153779)"/>
<use data-text="l" xlink:href="#font_2_21" transform="matrix(16,0,0,-16,261.32817,32.153779)"/>
<use data-text="e" xlink:href="#font_2_17" transform="matrix(16,0,0,-16,264.88337,32.153779)"/>
<use data-text="r" xlink:href="#font_2_25" transform="matrix(16,0,0,-16,273.78257,32.153779)"/>
<use data-text="&#xfffd;" xlink:href="#font_3_1" transform="matrix(16,0,0,-16,279.11058,32.153779)"/>
<use data-text="(" xlink:href="#font_2_2" transform="matrix(16,0,0,-16,366.15739,57.153688)"/>
<use data-text="3" xlink:href="#font_2_7" transform="matrix(16,0,0,-16,371.48539,57.153688)"/>
<use data-text=")" xlink:href="#font_2_3" transform="matrix(16,0,0,-16,380.38459,57.153688)"/>
<use data-text=" " xlink:href="#font_2_1" transform="matrix(16,0,0,-16,385.7126,57.153688)"/>
<use data-text="F" xlink:href="#font_2_10" transform="matrix(16,0,0,-16,390.15739,57.153688)"/>
<use data-text="a" xlink:href="#font_2_13" transform="matrix(16,0,0,-16,399.93019,57.153688)"/>
<use data-text="u" xlink:href="#font_2_28" transform="matrix(16,0,0,-16,408.82939,57.153688)"/>
<use data-text="l" xlink:href="#font_2_21" transform="matrix(16,0,0,-16,417.72859,57.153688)"/>
<use data-text="t" xlink:href="#font_2_27" transform="matrix(16,0,0,-16,421.28379,57.153688)"/>
<use data-text="&#xfffd;" xlink:href="#font_3_1" transform="matrix(16,0,0,-16,421.28379,57.153688)"/>
<use data-text="h" xlink:href="#font_2_19" transform="matrix(16,0,0,-16,351.46989,76.15369)"/>
<use data-text="a" xlink:href="#font_2_13" transform="matrix(16,0,0,-16,360.36909,76.15369)"/>
<use data-text="n" xlink:href="#font_2_22" transform="matrix(16,0,0,-16,369.26829,76.15369)"/>
<use data-text="d" xlink:href="#font_2_16" transform="matrix(16,0,0,-16,378.16749,76.15369)"/>
<use data-text="l" xlink:href="#font_2_21" transform="matrix(16,0,0,-16,387.06669,76.15369)"/>
<use data-text="e" xlink:href="#font_2_17" transform="matrix(16,0,0,-16,390.6219,76.15369)"/>
<use data-text="r" xlink:href="#font_2_25" transform="matrix(16,0,0,-16,399.5211,76.15369)"/>
<use data-text=" " xlink:href="#font_2_1" transform="matrix(16,0,0,-16,404.8491,76.15369)"/>
<use data-text="r" xlink:href="#font_2_25" transform="matrix(16,0,0,-16,409.29389,76.15369)"/>
<use data-text="u" xlink:href="#font_2_28" transform="matrix(16,0,0,-16,414.6219,76.15369)"/>
<use data-text="n" xlink:href="#font_2_22" transform="matrix(16,0,0,-16,423.5211,76.15369)"/>
<use data-text="s" xlink:href="#font_2_26" transform="matrix(16,0,0,-16,432.4203,76.15369)"/>
<use data-text="&#xfffd;" xlink:href="#font_3_1" transform="matrix(16,0,0,-16,435.9755,76.15369)"/>
<use data-text="(" xlink:href="#font_2_2" transform="matrix(16,0,0,-16,244.19255,108.65369)"/>
<use data-text="4" xlink:href="#font_2_8" transform="matrix(16,0,0,-16,249.52056,108.65369)"/>
<use data-text=")" xlink:href="#font_2_3" transform="matrix(16,0,0,-16,258.41975,108.65369)"/>
<use data-text=" " xlink:href="#font_2_1" transform="matrix(16,0,0,-16,263.74775,108.65369)"/>
<use data-text="H" xlink:href="#font_2_11" transform="matrix(16,0,0,-16,268.19258,108.65369)"/>
<use data-text="a" xlink:href="#font_2_13" transform="matrix(16,0,0,-16,279.74775,108.65369)"/>
<use data-text="n" xlink:href="#font_2_22" transform="matrix(16,0,0,-16,288.64695,108.65369)"/>
<use data-text="d" xlink:href="#font_2_16" transform="matrix(16,0,0,-16,297.54615,108.65369)"/>
<use data-text="l" xlink:href="#font_2_21" transform="matrix(16,0,0,-16,306.44535,108.65369)"/>
<use data-text="e" xlink:href="#font_2_17" transform="matrix(16,0,0,-16,310.00056,108.65369)"/>
<use data-text="r" xlink:href="#font_2_25" transform="matrix(16,0,0,-16,318.89976,108.65369)"/>
<use data-text=" " xlink:href="#font_2_1" transform="matrix(16,0,0,-16,324.22776,108.65369)"/>
<use data-text="e" xlink:href="#font_2_17" transform="matrix(16,0,0,-16,328.67256,108.65369)"/>
<use data-text="i" xlink:href="#font_2_20" transform="matrix(16,0,0,-16,337.57176,108.65369)"/>
<use data-text="t" xlink:href="#font_2_27" transform="matrix(16,0,0,-16,341.12696,108.65369)"/>
<use data-text="h" xlink:href="#font_2_19" transform="matrix(16,0,0,-16,345.57176,108.65369)"/>
<use data-text="e" xlink:href="#font_2_17" transform="matrix(16,0,0,-16,354.47096,108.65369)"/>
<use data-text="r" xlink:href="#font_2_25" transform="matrix(16,0,0,-16,363.37016,108.65369)"/>
<use data-text=" " xlink:href="#font_2_1" transform="matrix(16,0,0,-16,368.69816,108.65369)"/>
<use data-text="r" xlink:href="#font_2_25" transform="matrix(16,0,0,-16,373.14295,108.65369)"/>
<use data-text="e" xlink:href="#font_2_17" transform="matrix(16,0,0,-16,378.47096,108.65369)"/>
<use data-text="e" xlink:href="#font_2_17" transform="matrix(16,0,0,-16,387.37019,108.65369)"/>
<use data-text="x" xlink:href="#font_2_29" transform="matrix(16,0,0,-16,396.26936,108.65369)"/>
<use data-text="e" xlink:href="#font_2_17" transform="matrix(16,0,0,-16,404.26936,108.65369)"/>
<use data-text="c" xlink:href="#font_2_15" transform="matrix(16,0,0,-16,413.16859,108.65369)"/>
<use data-text="u" xlink:href="#font_2_28" transform="matrix(16,0,0,-16,421.16859,108.65369)"/>
<use data-text="t" xlink:href="#font_2_27" transform="matrix(16,0,0,-16,430.06776,108.65369)"/>
<use data-text="e" xlink:href="#font_2_17" transform="matrix(16,0,0,-16,434.51258,108.65369)"/>
<use data-text="s" xlink:href="#font_2_26" transform="matrix(16,0,0,-16,443.41175,108.65369)"/>
<use data-text="&#xfffd;" xlink:href="#font_3_1" transform="matrix(16,0,0,-16,451.41175,108.65369)"/>
<use data-text="c" xlink:href="#font_2_15" transform="matrix(16,0,0,-16,248.19255,127.65369)"/>
<use data-text="u" xlink:href="#font_2_28" transform="matrix(16,0,0,-16,256.19258,127.65369)"/>
<use data-text="r" xlink:href="#font_2_25" transform="matrix(16,0,0,-16,265.09175,127.65369)"/>
<use data-text="r" xlink:href="#font_2_25" transform="matrix(16,0,0,-16,270.41975,127.65369)"/>
<use data-text="e" xlink:href="#font_2_17" transform="matrix(16,0,0,-16,275.74775,127.65369)"/>
<use data-text="n" xlink:href="#font_2_22" transform="matrix(16,0,0,-16,284.64695,127.65369)"/>
<use data-text="t" xlink:href="#font_2_27" transform="matrix(16,0,0,-16,293.54615,127.65369)"/>
<use data-text=" " xlink:href="#font_2_1" transform="matrix(16,0,0,-16,297.99098,127.65369)"/>
<use data-text="i" xlink:href="#font_2_20" transform="matrix(16,0,0,-16,302.43577,127.65369)"/>
<use data-text="n" xlink:href="#font_2_22" transform="matrix(16,0,0,-16,305.99098,127.65369)"/>
<use data-text="s" xlink:href="#font_2_26" transform="matrix(16,0,0,-16,314.89015,127.65369)"/>
<use data-text="t" xlink:href="#font_2_27" transform="matrix(16,0,0,-16,322.89015,127.65369)"/>
<use data-text="r" xlink:href="#font_2_25" transform="matrix(16,0,0,-16,327.33497,127.65369)"/>
<use data-text="u" xlink:href="#font_2_28" transform="matrix(16,0,0,-16,332.66297,127.65369)"/>
<use data-text="c" xlink:href="#font_2_15" transform="matrix(16,0,0,-16,341.56217,127.65369)"/>
<use data-text="t" xlink:href="#font_2_27" transform="matrix(16,0,0,-16,349.56217,127.65369)"/>
<use data-text="i" xlink:href="#font_2_20" transform="matrix(16,0,0,-16,354.00697,127.65369)"/>
<use data-text="o" xlink:href="#font_2_23" transform="matrix(16,0,0,-16,357.56217,127.65369)"/>
<use data-text="n" xlink:href="#font_2_22" transform="matrix(16,0,0,-16,366.46138,127.65369)"/>
<use data-text=" " xlink:href="#font_2_1" transform="matrix(16,0,0,-16,375.36058,127.65369)"/>
<use data-text="o" xlink:href="#font_2_23" transform="matrix(16,0,0,-16,379.80537,127.65369)"/>
<use data-text="r" xlink:href="#font_2_25" transform="matrix(16,0,0,-16,388.70457,127.65369)"/>
<use data-text=" " xlink:href="#font_2_1" transform="matrix(16,0,0,-16,394.03257,127.65369)"/>
<use data-text="a" xlink:href="#font_2_13" transform="matrix(16,0,0,-16,398.47737,127.65369)"/>
<use data-text="b" xlink:href="#font_2_14" transform="matrix(16,0,0,-16,407.37657,127.65369)"/>
<use data-text="o" xlink:href="#font_2_23" transform="matrix(16,0,0,-16,416.27577,127.65369)"/>
<use data-text="r" xlink:href="#font_2_25" transform="matrix(16,0,0,-16,425.17497,127.65369)"/>
<use data-text="t" xlink:href="#font_2_27" transform="matrix(16,0,0,-16,430.50297,127.65369)"/>
<use data-text="s" xlink:href="#font_2_26" transform="matrix(16,0,0,-16,434.94776,127.65369)"/>
<use data-text="." xlink:href="#font_2_4" transform="matrix(16,0,0,-16,442.94776,127.65369)"/>
<use data-text="&#xfffd;" xlink:href="#font_3_1" transform="matrix(16,0,0,-16,447.39256,127.65369)"/>
<use data-text="I" xlink:href="#font_2_12" transform="matrix(16,0,0,-16,118.64325,39.37909)"/>
<use data-text="c" xlink:href="#font_2_15" transform="matrix(10.66666,0,0,-10.66666,123.08856,43.37909)"/>
<use data-text="u" xlink:href="#font_2_28" transform="matrix(10.66666,0,0,-10.66666,128.42189,43.37909)"/>
<use data-text="r" xlink:href="#font_2_25" transform="matrix(10.66666,0,0,-10.66666,134.35469,43.37909)"/>
<use data-text="r" xlink:href="#font_2_25" transform="matrix(10.66666,0,0,-10.66666,137.9067,43.37909)"/>
<use data-text="&#xfffd;" xlink:href="#font_3_1" transform="matrix(16,0,0,-16,141.45833,39.37909)"/>
<use data-text="(" xlink:href="#font_2_2" transform="matrix(16,0,0,-16,15.51821,25.354065)"/>
<use data-text="1" xlink:href="#font_2_5" transform="matrix(16,0,0,-16,20.84621,25.354065)"/>
<use data-text=")" xlink:href="#font_2_3" transform="matrix(16,0,0,-16,29.74541,25.354065)"/>
<use data-text=" " xlink:href="#font_2_1" transform="matrix(16,0,0,-16,35.07341,25.354065)"/>
<use data-text="C" xlink:href="#font_2_9" transform="matrix(16,0,0,-16,39.51821,25.354065)"/>
<use data-text="u" xlink:href="#font_2_28" transform="matrix(16,0,0,-16,51.073415,25.354065)"/>
<use data-text="r" xlink:href="#font_2_25" transform="matrix(16,0,0,-16,59.972616,25.354065)"/>
<use data-text="r" xlink:href="#font_2_25" transform="matrix(16,0,0,-16,65.30061,25.354065)"/>
<use data-text="e" xlink:href="#font_2_17" transform="matrix(16,0,0,-16,70.62861,25.354065)"/>
<use data-text="n" xlink:href="#font_2_22" transform="matrix(16,0,0,-16,79.52781,25.354065)"/>
<use data-text="t" xlink:href="#font_2_27" transform="matrix(16,0,0,-16,88.42701,25.354065)"/>
<use data-text=" " xlink:href="#font_2_1" transform="matrix(16,0,0,-16,92.87181,25.354065)"/>
<use data-text="&#xfffd;" xlink:href="#font_3_1" transform="matrix(16,0,0,-16,97.31661,25.354065)"/>
<use data-text="i" xlink:href="#font_2_20" transform="matrix(16,0,0,-16,17.518212,44.354005)"/>
<use data-text="n" xlink:href="#font_2_22" transform="matrix(16,0,0,-16,21.073412,44.354005)"/>
<use data-text="s" xlink:href="#font_2_26" transform="matrix(16,0,0,-16,29.972613,44.354005)"/>
<use data-text="t" xlink:href="#font_2_27" transform="matrix(16,0,0,-16,37.97261,44.354005)"/>
<use data-text="r" xlink:href="#font_2_25" transform="matrix(16,0,0,-16,42.41741,44.354005)"/>
<use data-text="u" xlink:href="#font_2_28" transform="matrix(16,0,0,-16,47.74541,44.354005)"/>
<use data-text="c" xlink:href="#font_2_15" transform="matrix(16,0,0,-16,56.64461,44.354005)"/>
<use data-text="t" xlink:href="#font_2_27" transform="matrix(16,0,0,-16,64.64461,44.354005)"/>
<use data-text="i" xlink:href="#font_2_20" transform="matrix(16,0,0,-16,69.08942,44.354005)"/>
<use data-text="o" xlink:href="#font_2_23" transform="matrix(16,0,0,-16,72.644618,44.354005)"/>
<use data-text="n" xlink:href="#font_2_22" transform="matrix(16,0,0,-16,81.543819,44.354005)"/>
<use data-text="&#xfffd;" xlink:href="#font_3_1" transform="matrix(16,0,0,-16,90.443019,44.354005)"/>
<use data-text="c" xlink:href="#font_2_15" transform="matrix(16,0,0,-16,4.5182106,63.354005)"/>
<use data-text="a" xlink:href="#font_2_13" transform="matrix(16,0,0,-16,12.51821,63.354005)"/>
<use data-text="u" xlink:href="#font_2_28" transform="matrix(16,0,0,-16,21.417412,63.354005)"/>
<use data-text="s" xlink:href="#font_2_26" transform="matrix(16,0,0,-16,30.316613,63.354005)"/>
<use data-text="e" xlink:href="#font_2_17" transform="matrix(16,0,0,-16,38.316614,63.354005)"/>
<use data-text="s" xlink:href="#font_2_26" transform="matrix(16,0,0,-16,47.215814,63.354005)"/>
<use data-text=" " xlink:href="#font_2_1" transform="matrix(16,0,0,-16,55.215814,63.354005)"/>
<use data-text="a" xlink:href="#font_2_13" transform="matrix(16,0,0,-16,59.660615,63.354005)"/>
<use data-text=" " xlink:href="#font_2_1" transform="matrix(16,0,0,-16,68.559818,63.354005)"/>
<use data-text="f" xlink:href="#font_2_18" transform="matrix(16,0,0,-16,73.004619,63.354005)"/>
<use data-text="a" xlink:href="#font_2_13" transform="matrix(16,0,0,-16,77.44942,63.354005)"/>
<use data-text="u" xlink:href="#font_2_28" transform="matrix(16,0,0,-16,86.34862,63.354005)"/>
<use data-text="l" xlink:href="#font_2_21" transform="matrix(16,0,0,-16,95.24782,63.354005)"/>
<use data-text="t" xlink:href="#font_2_27" transform="matrix(16,0,0,-16,98.80302,63.354005)"/>
<use data-text="&#xfffd;" xlink:href="#font_3_1" transform="matrix(16,0,0,-16,103.24782,63.354005)"/>
<path transform="matrix(.00007874014,0,0,.00007874014,341.44316,83.65399)" stroke-width="12700" stroke-linecap="butt" stroke-dasharray="50800,38100" stroke-linejoin="round" fill="none" stroke="#000000" d="M-.1052247 .0281983H1600200"/>
<path transform="matrix(1,0,0,-1,-1.55675,523.654)" d="M464.9999 443 470.9999 440 464.9999 437Z" fill-rule="evenodd"/>
<use data-text="a" xlink:href="#font_4_2" transform="matrix(16,0,0,-16,478.64326,89.05408)"/>
<use data-text="b" xlink:href="#font_4_3" transform="matrix(16,0,0,-16,488.24485,89.05408)"/>
<use data-text="o" xlink:href="#font_4_4" transform="matrix(16,0,0,-16,497.84645,89.05408)"/>
<use data-text="r" xlink:href="#font_4_5" transform="matrix(16,0,0,-16,507.44807,89.05408)"/>
<use data-text="t" xlink:href="#font_4_6" transform="matrix(16,0,0,-16,517.0497,89.05408)"/>
<use data-text=" " xlink:href="#font_4_1" transform="matrix(16,0,0,-16,526.65127,89.05408)"/>
</g>
</g>
</svg>
