<svg xmlns="http://www.w3.org/2000/svg" xmlns:xlink="http://www.w3.org/1999/xlink" version="1.1" width="397.74925pt" height="105.08099pt" viewBox="0 0 397.74925 105.08099">
<defs>
<clipPath id="clip_0">
<path transform="matrix(1,0,0,-1,-1.55675,539.222)" d="M1.55675 434.141H399.306V539.222H1.55675Z" fill-rule="evenodd"/>
</clipPath>
<clipPath id="clip_1">
<path transform="matrix(1,0,0,-1,-1.55675,539.222)" d="M0 .00002324581H719.9999V540H0Z"/>
</clipPath>
<path id="font_2_8" d="M.4711914 .38275147V.396286C.4711914 .40627543 .47314454 .4133606 .47705079 .4175415 .48095704 .42173258 .48583985 .42382813 .49169923 .42382813 .49788413 .42382813 .5029297 .42171226 .50683596 .41748048 .5107422 .4132487 .5126953 .40608726 .5126953 .3959961V.30322267C.5123698 .2931315 .51033529 .28597007 .5065918 .28173829 .5028483 .2775065 .49788413 .27539063 .49169923 .27539063 .48616538 .27539063 .4815267 .27726747 .4777832 .28102113 .4740397 .28478495 .47184245 .29108177 .4711914 .2999115 .46923829 .32311503 .45402018 .34517417 .4255371 .36608888 .39705406 .38700358 .35872398 .39746095 .31054688 .39746095 .24967449 .39746095 .20345052 .3783671 .171875 .34017945 .14029949 .3019918 .12451172 .2582601 .12451172 .20898438 .12451172 .15578206 .14192708 .11188253 .17675781 .07728577 .21158855 .042689008 .2566732 .025390625 .31201173 .025390625 .34391276 .025390625 .37638346 .03131612 .40942384 .043167116 .4424642 .05502828 .47233073 .074132289 .49902345 .100479129 .5058594 .10706075 .51188156 .11035156 .51708987 .11035156 .5226237 .11035156 .5272624 .10846456 .53100588 .10469055 .5347493 .10091654 .5366211 .09624227 .5366211 .090667728 .5366211 .07655843 .5201823 .058680219 .4873047 .03703308 .43424479 .0019276937 .37516276-.015625 .3100586-.015625 .24397786-.015625 .18969727 .005472819 .1472168 .047668458 .10473633 .08987427 .083496097 .1434021 .083496097 .20825196 .083496097 .2744039 .10522461 .3293101 .14868164 .37297059 .19213867 .41664125 .24690755 .43847657 .31298829 .43847657 .3758138 .43847657 .4285482 .41990153 .4711914 .38275147Z"/>
<path id="font_2_11" d="M.16503906 .61328127V.36123658C.19108074 .3895874 .21606446 .4095459 .23999024 .42111207 .26391603 .4326884 .2906901 .43847657 .3203125 .43847657 .35221354 .43847657 .37931315 .43284608 .40161134 .42158509 .42390953 .41033427 .44254557 .39304099 .45751954 .3697052 .4724935 .34636943 .47998048 .32181297 .47998048 .29603578V.041015626H.5258789C.53597006 .041015626 .5430501 .03914388 .54711917 .03540039 .5511882 .031656904 .55322268 .026692709 .55322268 .020507813 .55322268 .0146484379 .5511882 .009765625 .54711917 .005859375 .5430501 .001953125 .53597006 0 .5258789 0H.39257813C.38248698 0 .37532554 .001953125 .37109376 .005859375 .36686198 .009765625 .3647461 .0146484379 .3647461 .020507813 .3647461 .026692709 .36686198 .031656904 .37109376 .03540039 .37532554 .03914388 .38248698 .041015626 .39257813 .041015626H.43847657V.2931671C.43847657 .32287089 .42781578 .3476766 .40649415 .36758424 .38517253 .38750205 .35546876 .39746095 .3173828 .39746095 .2874349 .39746095 .2618815 .39012147 .24072266 .3754425 .22542317 .36499534 .20019531 .34035746 .16503906 .30152894V.041015626H.21142578C.2211914 .041015626 .22819011 .03914388 .23242188 .03540039 .23665364 .031656904 .23876953 .026692709 .23876953 .020507813 .23876953 .0146484379 .23665364 .009765625 .23242188 .005859375 .22819011 .001953125 .2211914 0 .21142578 0H.07763672C.067871097 0 .060872396 .001953125 .056640626 .005859375 .052408857 .009765625 .05029297 .0146484379 .05029297 .020507813 .05029297 .026692709 .052408857 .031656904 .056640626 .03540039 .060872396 .03914388 .067871097 .041015626 .07763672 .041015626H.12402344V.5722656H.068847659C.05908203 .5722656 .052083333 .574173 .047851564 .5779877 .043619794 .58180239 .041503908 .58673098 .041503908 .59277346 .041503908 .5986328 .043619794 .6035156 .047851564 .6074219 .052083333 .6113281 .05908203 .61328127 .068847659 .61328127H.16503906Z"/>
<path id="font_2_12" d="M.3203125 .63378909V.5283203H.25976563V.63378909H.3203125M.32177735 .42382813V.041015626H.48291017C.4930013 .041015626 .5001628 .03914388 .50439456 .03540039 .5086263 .031656904 .5107422 .026692709 .5107422 .020507813 .5107422 .0146484379 .5086263 .009765625 .50439456 .005859375 .5001628 .001953125 .4930013 0 .48291017 0H.119628909C.10986328 0 .102864589 .001953125 .09863281 .005859375 .09440104 .009765625 .092285159 .0146484379 .092285159 .020507813 .092285159 .026692709 .09440104 .031656904 .09863281 .03540039 .102864589 .03914388 .10986328 .041015626 .119628909 .041015626H.28076173V.3828125H.16113281C.15136719 .3828125 .14428711 .3847402 .13989258 .38859559 .13549805 .39246116 .13330078 .397288 .13330078 .40307618 .13330078 .40918986 .13541667 .4141744 .13964844 .4180298 .1438802 .42189536 .15104167 .42382813 .16113281 .42382813H.32177735Z"/>
<path id="font_2_13" d="M.32080079 .61328127V.041015626H.4819336C.49202476 .041015626 .4991862 .03914388 .50341799 .03540039 .5076497 .031656904 .5097656 .026692709 .5097656 .020507813 .5097656 .0146484379 .5076497 .009765625 .50341799 .005859375 .4991862 .001953125 .49202476 0 .4819336 0H.118652347C.10888672 0 .10188802 .001953125 .09765625 .005859375 .09342448 .009765625 .091308597 .0146484379 .091308597 .020507813 .091308597 .026692709 .09342448 .031656904 .09765625 .03540039 .10188802 .03914388 .10888672 .041015626 .118652347 .041015626H.27978517V.5722656H.1616211C.15185547 .5722656 .14477539 .5741933 .14038086 .5780487 .13598633 .58191427 .13378906 .58690389 .13378906 .5930176 .13378906 .5988057 .13590496 .6036275 .14013672 .6074829 .14436849 .61134847 .15152996 .61328127 .1616211 .61328127H.32080079Z"/>
<path id="font_2_9" d="M.50097659 .61328127V.041015626H.55566409C.5657552 .041015626 .5729167 .03914388 .57714846 .03540039 .5813802 .031656904 .5834961 .026692709 .5834961 .020507813 .5834961 .014923096 .5813802 .010269165 .57714846 .0065460207 .5729167 .0028330486 .5657552 .0009765625 .55566409 .0009765625H.45947267V.08218384C.41194663 .016977946 .3515625-.015625 .2783203-.015625 .24121094-.015625 .20564778-.0057678224 .17163086 .013946533 .13761394 .03366089 .11075846 .061767579 .09106445 .0982666 .071370448 .13476563 .061523439 .17240398 .061523439 .21118164 .061523439 .25028483 .071370448 .28800456 .09106445 .32434083 .11075846 .3606771 .13761394 .38878379 .17163086 .4086609 .20564778 .428538 .2413737 .43847657 .2788086 .43847657 .3504232 .43847657 .41064454 .40603639 .45947267 .341156V.5722656H.40478517C.394694 .5722656 .38753257 .574173 .38330079 .5779877 .379069 .58180239 .37695313 .58673098 .37695313 .59277346 .37695313 .5986328 .379069 .6035156 .38330079 .6074219 .38753257 .6113281 .394694 .61328127 .40478517 .61328127H.50097659M.45947267 .21142578C.45947267 .26364137 .44189454 .30769859 .40673829 .3435974 .37158204 .37950645 .3297526 .39746095 .28125 .39746095 .23242188 .39746095 .19042969 .37950645 .15527344 .3435974 .12011719 .30769859 .10253906 .26364137 .10253906 .21142578 .10253906 .15953572 .12011719 .11555481 .15527344 .07948303 .19042969 .04342143 .23242188 .025390625 .28125 .025390625 .3297526 .025390625 .37158204 .04342143 .40673829 .07948303 .44189454 .11555481 .45947267 .15953572 .45947267 .21142578Z"/>
<path id="font_2_5" d="M.2915039 .42382813H.30908204C.3273112 .42382813 .3429362 .41731773 .35595704 .40429688 .36897788 .39127604 .37548829 .3758138 .37548829 .35791017 .37548829 .33870445 .36889649 .3227539 .3557129 .3100586 .3425293 .29736329 .3269857 .29101563 .30908204 .29101563H.2915039C.27327476 .29101563 .25764976 .29752604 .2446289 .31054688 .23160808 .32356773 .22509766 .33902995 .22509766 .3569336 .22509766 .3761393 .23168946 .39208985 .24487305 .40478517 .25805665 .41748048 .27360026 .42382813 .2915039 .42382813M.2915039 .1171875H.30908204C.3273112 .1171875 .3429362 .11073303 .35595704 .0978241 .36897788 .08492533 .37548829 .06932577 .37548829 .05102539 .37548829 .032073976 .36889649 .01622518 .3557129 .003479004 .3425293-.009256999 .3269857-.015625 .30908204-.015625H.2915039C.27327476-.015625 .25764976-.009175618 .2446289 .0037231446 .23160808 .01663208 .22509766 .032236738 .22509766 .05053711 .22509766 .069488529 .23168946 .08533224 .24487305 .09806824 .25805665 .110814418 .27360026 .1171875 .2915039 .1171875Z"/>
<path id="font_2_1" d="M0 0Z"/>
<path id="font_2_18" d="M.32885743 .22181702 .5161133 .041015626C.5284831 .041015626 .5362956 .040445966 .5395508 .03930664 .54280599 .038167318 .5456543 .035807294 .5480957 .032226564 .5505371 .028645834 .5517578 .024739584 .5517578 .020507813 .5517578 .0146484379 .5496419 .009765625 .54541018 .005859375 .5411784 .001953125 .5340169 0 .5239258 0H.39208985C.3819987 0 .37483726 .001953125 .37060548 .005859375 .3663737 .009765625 .3642578 .0146484379 .3642578 .020507813 .3642578 .026692709 .3663737 .031656904 .37060548 .03540039 .37483726 .03914388 .3819987 .041015626 .39208985 .041015626H.45996095L.30067445 .19459534 .14160156 .041015626H.20996094C.21972656 .041015626 .22672527 .03914388 .23095703 .03540039 .2351888 .031656904 .23730469 .026692709 .23730469 .020507813 .23730469 .0146484379 .2351888 .009765625 .23095703 .005859375 .22672527 .001953125 .21972656 0 .20996094 0H.076660159C.06689453 0 .059895833 .001953125 .055664064 .005859375 .051432294 .009765625 .049316408 .0146484379 .049316408 .020507813 .049316408 .024739584 .05053711 .028645834 .052978517 .032226564 .055419923 .035807294 .058186849 .038167318 .061279298 .03930664 .06437174 .040445966 .07210287 .041015626 .084472659 .041015626L.27233888 .22190857 .10546875 .3828125C.09375 .3828125 .0863444 .38345338 .08325195 .3847351 .08015951 .386027 .07739258 .388443 .07495117 .39198304 .072509769 .39552308 .07128906 .39938355 .07128906 .40356446 .07128906 .40935264 .073404949 .4141744 .07763672 .4180298 .08186849 .42189536 .089029949 .42382813 .099121097 .42382813H.2109375C.22102864 .42382813 .22810872 .42189536 .23217774 .4180298 .23624675 .4141744 .23828125 .40918986 .23828125 .40307618 .23828125 .397288 .23624675 .39246116 .23217774 .38859559 .22810872 .3847402 .22102864 .3828125 .2109375 .3828125H.16210938L.3005829 .24909973 .43945313 .3828125H.390625C.38085938 .3828125 .3737793 .3847402 .36938478 .38859559 .36499024 .39246116 .36279298 .39745078 .36279298 .40356446 .36279298 .40935264 .36490885 .4141744 .36914063 .4180298 .3733724 .42189536 .38053385 .42382813 .390625 .42382813H.5024414C.51220706 .42382813 .51920577 .42189536 .5234375 .4180298 .52766928 .4141744 .52978518 .40918986 .52978518 .40307618 .52978518 .3992208 .52856448 .39552308 .52612307 .39198304 .52368167 .388443 .52091476 .386027 .51782229 .3847351 .5147298 .38345338 .5073242 .3828125 .49560548 .3828125L.32885743 .22181702Z"/>
<path id="font_2_6" d="M.5239258 .33984376H.076660159C.06689453 .33984376 .059895833 .34177146 .055664064 .34562684 .051432294 .3494924 .049316408 .35448203 .049316408 .3605957 .049316408 .36638389 .051432294 .37120567 .055664064 .37506105 .059895833 .3789266 .06689453 .38085938 .076660159 .38085938H.5239258C.5336914 .38085938 .5406901 .3789266 .5449219 .37506105 .5491536 .37120567 .55126956 .3662211 .55126956 .36010743 .55126956 .35431925 .5491536 .3494924 .5449219 .34562684 .5406901 .34177146 .5336914 .33984376 .5239258 .33984376M.5239258 .19238281H.076660159C.06689453 .19238281 .059895833 .19425456 .055664064 .19799805 .051432294 .20174153 .049316408 .20670574 .049316408 .21289063 .049316408 .21907552 .051432294 .22403972 .055664064 .2277832 .059895833 .23152669 .06689453 .23339844 .076660159 .23339844H.5239258C.5336914 .23339844 .5406901 .23152669 .5449219 .2277832 .5491536 .22403972 .55126956 .21907552 .55126956 .21289063 .55126956 .20670574 .5491536 .20174153 .5449219 .19799805 .5406901 .19425456 .5336914 .19238281 .5239258 .19238281Z"/>
<path id="font_2_4" d="M.123535159 .041015626H.43847657V.057617189C.43847657 .06738281 .4404297 .07438151 .44433595 .07861328 .4482422 .082845058 .45328776 .08496094 .45947267 .08496094 .46533204 .08496094 .47021485 .082845058 .4741211 .07861328 .47802735 .07438151 .47998048 .06738281 .47998048 .057617189V0H.083496097V.061523439C.16682942 .13639324 .24788411 .21256511 .32666017 .29003907 .363444 .32617188 .38867188 .3527018 .40234376 .3696289 .41601563 .386556 .42537437 .40144859 .43041993 .41430665 .43546549 .4271647 .43798829 .44010417 .43798829 .453125 .43798829 .48828126 .42382813 .51936849 .3955078 .5463867 .3671875 .57340499 .3330078 .58691409 .29296876 .58691409 .25716148 .58691409 .22542317 .5765788 .1977539 .5559082 .17008464 .5352478 .15218099 .5096639 .14404297 .4791565 .14208985 .47128297 .13964844 .4661967 .13671875 .4638977 .1328125 .46062217 .1282552 .45898438 .123046878 .45898438 .11751302 .45898438 .11287435 .4608612 .10913086 .46461488 .10538737 .46836854 .103515628 .4728597 .103515628 .47808839 .103515628 .49375407 .11206055 .5149689 .12915039 .5417328 .14624024 .5685069 .1698405 .589564 .19995117 .6049042 .23006185 .6202545 .26090495 .6279297 .29248048 .6279297 .34358726 .6279297 .38753257 .6101735 .4243164 .57466128 .46110026 .539149 .4794922 .49891664 .4794922 .45396424 .4794922 .4350637 .47639976 .41770936 .47021485 .40190126 .46402995 .3861033 .4535319 .36883546 .4387207 .35009767 .42390953 .33137004 .3972982 .30311076 .35888673 .26531983 .26253257 .17018636 .18408203 .09639486 .123535159 .043945314V.041015626Z"/>
<path id="font_3_7" d="M.14550781 .44335938V.41503907C.16178386 .4313558 .17651367 .44259645 .18969727 .448761 .20288086 .45492555 .21809896 .4580078 .23535156 .4580078 .25 .4580078 .2644857 .4543457 .2788086 .44702149 .2931315 .43969728 .3071289 .42871095 .32080079 .4140625 .33805339 .4285482 .35555015 .43933106 .37329103 .44641114 .3910319 .4534912 .4091797 .45703126 .42773438 .45703126 .46484376 .45703126 .49495445 .44710288 .5180664 .4272461 .54866537 .40120445 .56396487 .36702476 .56396487 .32470704V.10058594C.58479818 .10058594 .60026046 .095947269 .61035159 .08666992 .6204427 .07739258 .6254883 .06526693 .6254883 .05029297 .6254883 .03531901 .6204427 .02319336 .61035159 .013916016 .60026046 .004638672 .5831706 0 .55908206 0H.4638672V.31591798C.4638672 .33121745 .46110026 .34179688 .4555664 .34765626 .45003257 .35351563 .441569 .3564453 .43017579 .3564453 .41910807 .3564453 .40885417 .3535614 .39941407 .34779359 .38736979 .33977763 .37272135 .32470704 .35546876 .3025818V.10058594C.3763021 .10058594 .3917643 .095947269 .40185548 .08666992 .41194663 .07739258 .4169922 .06526693 .4169922 .05029297 .4169922 .03531901 .41194663 .02319336 .40185548 .013916016 .3917643 .004638672 .37467448 0 .35058595 0H.2553711V.31678773C.2553711 .33180238 .2525228 .34232585 .24682617 .34835816 .24112956 .35440064 .23258464 .35742188 .2211914 .35742188 .20947266 .35742188 .19791667 .3537496 .18652344 .34640504 .1751302 .33906047 .16145833 .32445274 .14550781 .3025818V.10058594C.16634114 .10058594 .18188477 .095947269 .19213867 .08666992 .20239258 .07739258 .20751953 .06526693 .20751953 .05029297 .20751953 .03531901 .20239258 .02319336 .19213867 .013916016 .18188477 .004638672 .16471355 0 .140625 0H.05029297C.026204428 0 .009033203 .0047200524-.0012207031 .014160156-.011474609 .02360026-.016601563 .035807294-.016601563 .05078125-.016601563 .06575521-.011555989 .07779948-.0014648438 .08691406 .008626302 .09602865 .024251303 .10058594 .045410158 .10058594V.34277345C.024251303 .34277345 .008626302 .3474935-.0014648438 .3569336-.011555989 .3663737-.016601563 .37858073-.016601563 .3935547-.016601563 .40852867-.011474609 .4205729-.0012207031 .4296875 .009033203 .4388021 .026204428 .44335938 .05029297 .44335938H.14550781Z"/>
<path id="font_3_2" d="M.39013673 0V.0234375C.36507163 .010416667 .33740235 .0006510417 .3071289-.005859375 .27685548-.012369792 .24934896-.015625 .22460938-.015625 .17089844-.015625 .12727864-.0014088949 .09375 .027023316 .060221357 .0554657 .04345703 .08691406 .04345703 .12136841 .04345703 .16328939 .06486002 .20220439 .107666019 .2381134 .150472 .2740326 .20963542 .2919922 .28515626 .2919922 .3154297 .2919922 .3504232 .28873698 .39013673 .28222657V.30599977C.39013673 .32087199 .38370768 .33299766 .3708496 .3423767 .35799156 .35175578 .3334961 .3564453 .29736329 .3564453 .26774089 .3564453 .22932942 .350708 .1821289 .3392334 .16455078 .335083 .1508789 .3330078 .14111328 .3330078 .12776692 .3330078 .11645508 .33780924 .107177738 .3474121 .09790039 .35701499 .09326172 .36930339 .09326172 .38427735 .09326172 .39274089 .09488932 .4000651 .09814453 .40625 .10139974 .4124349 .10595703 .41739909 .111816409 .42114259 .11767578 .42488609 .12988281 .42936198 .1484375 .4345703 .17317708 .44140626 .19840496 .44685874 .2241211 .45092774 .24983724 .45499674 .27311198 .45703126 .2939453 .45703126 .35611979 .45703126 .40437828 .44360353 .4387207 .41674806 .47306315 .38989259 .49023438 .3531901 .49023438 .30664063V.10058594H.5073242C.5314128 .10058594 .548584 .095947269 .5588379 .08666992 .5690918 .07739258 .57421877 .06526693 .57421877 .05029297 .57421877 .03531901 .5690918 .02319336 .5588379 .013916016 .548584 .004638672 .5314128 0 .5073242 0H.39013673M.39013673 .17979431C.35009767 .1875356 .31315104 .19140625 .27929688 .19140625 .23860677 .19140625 .20361328 .18156941 .1743164 .16189575 .15608724 .14931233 .14697266 .13657125 .14697266 .123672489 .14697266 .11431376 .15136719 .10673014 .16015625 .10092163 .1764323 .090281169 .19873047 .08496094 .22705078 .08496094 .2511393 .08496094 .2784017 .089635219 .3088379 .098983768 .33927409 .10834249 .3663737 .12108866 .39013673 .13722229V.17979431Z"/>
<path id="font_3_5" d="M.3359375 .63378909V.52734377H.21679688V.63378909H.3359375M.34960938 .44335938V.10058594H.46972657C.4938151 .10058594 .5109863 .095947269 .52124026 .08666992 .53149417 .07739258 .5366211 .06526693 .5366211 .05029297 .5366211 .03531901 .53149417 .02319336 .52124026 .013916016 .5109863 .004638672 .4938151 0 .46972657 0H.12939453C.10530599 0 .088134769 .0047200524 .07788086 .014160156 .06762695 .02360026 .0625 .035807294 .0625 .05078125 .0625 .06575521 .06762695 .07779948 .07788086 .08691406 .088134769 .09602865 .10530599 .10058594 .12939453 .10058594H.24951172V.34277345H.16894531C.1451823 .34277345 .12809246 .3474935 .11767578 .3569336 .10725912 .3663737 .10205078 .37858073 .10205078 .3935547 .10205078 .40852867 .107177738 .4205729 .11743164 .4296875 .12768555 .4388021 .14485677 .44335938 .16894531 .44335938H.34960938Z"/>
<path id="font_3_8" d="M.19873047 .44335938V.41015626C.21695964 .42578126 .23706055 .4375 .2590332 .4453125 .28100587 .453125 .30485026 .45703126 .3305664 .45703126 .3898112 .45703126 .4366862 .4386393 .4711914 .40185548 .49853517 .3725586 .51220706 .33414714 .51220706 .2866211V.10058594C.5333659 .10058594 .5489909 .095947269 .55908206 .08666992 .56917318 .07739258 .57421877 .06526693 .57421877 .05029297 .57421877 .03531901 .5690918 .02319336 .5588379 .013916016 .548584 .004638672 .5314128 0 .5073242 0H.4169922C.39290367 0 .37573243 .0047200524 .36547853 .014160156 .3552246 .02360026 .35009767 .035807294 .35009767 .05078125 .35009767 .06575521 .35514323 .07779948 .36523438 .08691406 .37532554 .09602865 .39095054 .10058594 .41210938 .10058594V.28918458C.41210938 .31095378 .40625 .32687379 .39453126 .33694459 .37923179 .34994508 .35628257 .3564453 .3256836 .3564453 .30257163 .3564453 .28230796 .3519694 .26489259 .34301759 .24747722 .33406578 .22542317 .31510417 .19873047 .2861328V.10058594C.22444661 .10058594 .24104817 .09749349 .24853516 .091308597 .2644857 .078938808 .27246095 .06526693 .27246095 .05029297 .27246095 .03531901 .26733399 .02319336 .25708009 .013916016 .24682617 .004638672 .22965496 0 .2055664 0H.091796878C.067708339 0 .05053711 .0047200524 .040283204 .014160156 .030029297 .02360026 .024902344 .035807294 .024902344 .05078125 .024902344 .06575521 .032714845 .07938639 .048339845 .091674808 .056152345 .09761556 .072916667 .10058594 .09863281 .10058594V.34277345C.07747396 .34277345 .061848958 .3474935 .051757814 .3569336 .041666669 .3663737 .036621095 .37858073 .036621095 .3935547 .036621095 .40852867 .041748048 .4205729 .052001954 .4296875 .06225586 .4388021 .079427089 .44335938 .103515628 .44335938H.19873047Z"/>
<path id="font_3_1" d="M0 0Z"/>
<path id="font_3_4" d="M.2993164 .34277345V.10058594H.44189454C.46598307 .10058594 .4831543 .095947269 .4934082 .08666992 .5036621 .07739258 .50878909 .06526693 .50878909 .05029297 .50878909 .03531901 .5036621 .02319336 .4934082 .013916016 .4831543 .004638672 .46598307 0 .44189454 0H.13964844C.1155599 0 .09838867 .0047200524 .088134769 .014160156 .07788086 .02360026 .072753909 .035807294 .072753909 .05078125 .072753909 .06575521 .07788086 .07779948 .088134769 .08691406 .09838867 .09602865 .1155599 .10058594 .13964844 .10058594H.19921875V.34277345H.15136719C.12727864 .34277345 .11010742 .3474935 .099853519 .3569336 .08959961 .3663737 .084472659 .37858073 .084472659 .3935547 .084472659 .40852867 .08959961 .4205729 .099853519 .4296875 .11010742 .4388021 .12727864 .44335938 .15136719 .44335938H.19921875V.48153688C.19921875 .52526858 .21557617 .5615743 .24829102 .5904541 .28100587 .61934408 .32845054 .63378909 .390625 .63378909 .41829429 .63378909 .4502767 .6312561 .48657228 .6261902 .52286788 .62112429 .5461426 .6140137 .5563965 .6048584 .5666504 .5957031 .57177737 .58393356 .57177737 .56954959 .57177737 .554189 .56722006 .541687 .55810549 .53204348 .5489909 .5223999 .53776046 .5175781 .52441409 .5175781 .5182292 .5175781 .50895187 .51871749 .49658204 .5209961 .45524089 .5291341 .41861979 .5332031 .38671876 .5332031 .35351563 .5332031 .3306478 .52823898 .31811524 .51831057 .30558268 .50838217 .2993164 .49609376 .2993164 .4814453V.44335938H.45361329C.4777018 .44335938 .49487306 .4387207 .50512698 .42944337 .51538088 .42016603 .5205078 .40804038 .5205078 .3930664 .5205078 .37809245 .51538088 .3659668 .50512698 .35668946 .49487306 .3474121 .4777018 .34277345 .45361329 .34277345H.2993164Z"/>
<path id="font_3_9" d="M.5600586 .21386719C.5600586 .17545574 .54939779 .13826497 .5280762 .10229492 .5067546 .06632487 .47501628 .037679037 .43286134 .016357422 .3907064-.004964193 .3466797-.015625 .30078126-.015625 .25520835-.015625 .21158855-.005126953 .16992188 .01586914 .1282552 .036865236 .09651693 .06542969 .07470703 .1015625 .052897138 .13769531 .041992189 .17545574 .041992189 .21484375 .041992189 .2548828 .053059896 .29418946 .07519531 .33276368 .09733073 .3713379 .12915039 .40169273 .1706543 .42382813 .2121582 .44596354 .25553385 .45703126 .30078126 .45703126 .34635417 .45703126 .3902181 .4457194 .43237306 .4230957 .47452799 .40047203 .50634768 .3700358 .52783206 .3317871 .5493164 .29353843 .5600586 .25423179 .5600586 .21386719M.45996095 .21340943C.45996095 .24551392 .44840495 .2750295 .42529298 .30195619 .39371745 .33828227 .35221354 .3564453 .30078126 .3564453 .25553385 .3564453 .21777344 .3420105 .1875 .31314088 .15722656 .28427125 .14208985 .25086466 .14208985 .21292115 .14208985 .18178304 .15738933 .15266927 .18798828 .12557984 .21858724 .09850057 .2561849 .08496094 .30078126 .08496094 .34570313 .08496094 .38346354 .09850057 .4140625 .12557984 .44466148 .15266927 .45996095 .1819458 .45996095 .21340943Z"/>
<path id="font_3_11" d="M.27929688 .44335938V.38085938C.32128907 .41132609 .3544108 .43163554 .3786621 .44178773 .40291343 .45195008 .4256185 .45703126 .44677735 .45703126 .47932945 .45703126 .51090499 .4449463 .5415039 .42077638 .5623372 .4044393 .5727539 .3877767 .5727539 .37078858 .5727539 .3564148 .56778976 .34424339 .5578613 .3342743 .5479329 .3243154 .53597006 .31933595 .52197268 .31933595 .50960287 .31933595 .49658204 .32552085 .48291017 .33789063 .46923829 .3502604 .45703126 .3564453 .44628907 .3564453 .43229167 .3564453 .41137696 .34765626 .38354493 .33007813 .3557129 .3125 .32096354 .2861328 .27929688 .25097657V.10058594H.421875C.44596354 .10058594 .46313478 .095947269 .47338868 .08666992 .48364259 .07739258 .48876954 .06526693 .48876954 .05029297 .48876954 .03531901 .48364259 .02319336 .47338868 .013916016 .46313478 .004638672 .44596354 0 .421875 0H.119628909C.09554037 0 .07836914 .0047200524 .068115238 .014160156 .057861329 .02360026 .052734376 .035807294 .052734376 .05078125 .052734376 .06575521 .057861329 .07779948 .068115238 .08691406 .07836914 .09602865 .09554037 .10058594 .119628909 .10058594H.17919922V.34277345H.1430664C.11897787 .34277345 .10180664 .3474935 .091552738 .3569336 .08129883 .3663737 .076171878 .37858073 .076171878 .3935547 .076171878 .40852867 .08129883 .4205729 .091552738 .4296875 .10180664 .4388021 .11897787 .44335938 .1430664 .44335938H.27929688Z"/>
<path id="font_3_6" d="M.21777344 .16697693V0H.10058594C.0764974 0 .059326173 .0047200524 .049072267 .014160156 .03881836 .02360026 .033691408 .035807294 .033691408 .05078125 .033691408 .06575521 .03889974 .07779948 .049316408 .08691406 .059733076 .09602865 .076822917 .10058594 .10058594 .10058594H.11767578V.5332031H.10058594C.0764974 .5332031 .059326173 .53792318 .049072267 .5473633 .03881836 .5568034 .033691408 .56901046 .033691408 .5839844 .033691408 .5989583 .03881836 .6110026 .049072267 .6201172 .059326173 .62923178 .0764974 .63378909 .10058594 .63378909H.21777344V.29589845L.29589845 .35888673C.2877604 .37288413 .2836914 .38427735 .2836914 .3930664 .2836914 .40804038 .28873698 .42016603 .29882813 .42944337 .30891929 .4387207 .32600913 .44335938 .35009767 .44335938H.46435548C.488444 .44335938 .50561526 .4387207 .51586917 .42944337 .52612307 .42016603 .53125 .40804038 .53125 .3930664 .53125 .37809245 .52612307 .3659668 .51586917 .35668946 .50561526 .3474121 .488444 .34277345 .46435548 .34277345H.43652345L.3149414 .24531555 .47851563 .10058594H.5078125C.53190109 .10058594 .54907229 .095947269 .5593262 .08666992 .5695801 .07739258 .57470706 .06526693 .57470706 .05029297 .57470706 .03531901 .5695801 .02319336 .5593262 .013916016 .54907229 .004638672 .53190109 0 .5078125 0H.39257813C.3684896 0 .35131837 .004638672 .34106446 .013916016 .33081056 .02319336 .3256836 .03531901 .3256836 .05029297 .3256836 .06298828 .33121745 .075520839 .34228517 .087890628L.23632813 .18164063 .21777344 .16697693Z"/>
<path id="font_3_10" d="M.17578125 .055664064V-.10839844H.23583985C.25992839-.10839844 .2770996-.11311849 .28735353-.122558597 .29760743-.1319987 .30273438-.14420574 .30273438-.15917969 .30273438-.17415364 .29760743-.18619792 .28735353-.1953125 .2770996-.20442708 .25992839-.20898438 .23583985-.20898438H.05859375C.034505208-.20898438 .017333985-.20442708 .007080078-.1953125-.0031738282-.18619792-.008300781-.17415364-.008300781-.15917969-.008300781-.14420574-.003092448-.1319987 .0073242189-.122558597 .017740885-.11311849 .03483073-.10839844 .05859375-.10839844H.075683597V.34277345H.05859375C.034505208 .34277345 .017333985 .3474935 .007080078 .3569336-.0031738282 .3663737-.008300781 .37858073-.008300781 .3935547-.008300781 .40852867-.0031738282 .4205729 .007080078 .4296875 .017333985 .4388021 .034505208 .44335938 .05859375 .44335938H.17578125V.4091797C.19921875 .42529298 .22347005 .43729655 .24853516 .44519044 .27360026 .45308433 .2993164 .45703126 .3256836 .45703126 .39404298 .45703126 .4523112 .4338379 .5004883 .38745118 .54866537 .34106446 .5727539 .2879232 .5727539 .22802735 .5727539 .16194661 .5442708 .107421878 .4873047 .064453128 .43977867 .028645834 .38623048 .0107421879 .32666017 .0107421879 .300944 .0107421879 .27555339 .014485677 .25048829 .021972657 .22542317 .029459635 .20052083 .040690107 .17578125 .055664064M.47265626 .22756958C.47265626 .24150594 .4671224 .25925193 .4560547 .2808075 .44498698 .30237327 .42797853 .32036845 .4050293 .3347931 .38208009 .3492279 .35514323 .3564453 .32421876 .3564453 .27441407 .3564453 .23486328 .33780418 .2055664 .30052186 .18570964 .27490745 .17578125 .2502645 .17578125 .22659302 .17578125 .20000203 .19002278 .17414348 .21850586 .14901734 .24698894 .1238912 .28222657 .111328128 .32421876 .111328128 .36653648 .111328128 .40185548 .123809818 .43017579 .1487732 .4584961 .17373657 .47265626 .20000203 .47265626 .22756958Z"/>
<path id="font_3_12" d="M.27539063 .34277345V.143219C.27539063 .12185669 .27978517 .107777919 .28857423 .100982669 .3022461 .09030151 .32666017 .08496094 .3618164 .08496094 .4129232 .08496094 .4601237 .09598287 .50341799 .11802673 .52001956 .12658184 .53304037 .13085938 .54248049 .13085938 .5555013 .13085938 .5668132 .12594097 .576416 .116104129 .58601889 .106277469 .5908203 .094319667 .5908203 .08023071 .5908203 .067118328 .585612 .055811567 .5751953 .046310426 .5592448 .03090922 .5277507 .016733805 .4807129 .0037841798 .43367515-.009155273 .39404298-.015625 .3618164-.015625 .29964195-.015625 .25301109-.0022328695 .22192383 .024551392 .1908366 .05133565 .17529297 .08420309 .17529297 .12315369V.34277345H.13916016C.11507162 .34277345 .09790039 .34743247 .087646488 .3567505 .07739258 .3660787 .072265628 .37826539 .072265628 .39331056 .072265628 .40803019 .07739258 .42004905 .087646488 .42936708 .09790039 .43869529 .11507162 .44335938 .13916016 .44335938H.17529297V.5336914C.17529297 .55777999 .17993164 .5749512 .18920899 .5852051 .19848633 .595459 .21061199 .60058596 .22558594 .60058596 .24023438 .60058596 .25219728 .595459 .2614746 .5852051 .27075196 .5749512 .27539063 .55777999 .27539063 .5336914V.44335938H.46044923C.48453776 .44335938 .501709 .43869529 .5119629 .42936708 .5222168 .42004905 .52734377 .40786744 .52734377 .39282228 .52734377 .37810264 .5222168 .3660787 .5119629 .3567505 .501709 .34743247 .48453776 .34277345 .46044923 .34277345H.27539063Z"/>
<path id="font_2_3" d="M.3203125 .62109377V.041015626H.4609375C.47070313 .041015626 .4777018 .03914388 .4819336 .03540039 .48616538 .031656904 .48828126 .026692709 .48828126 .020507813 .48828126 .0146484379 .48616538 .009765625 .4819336 .005859375 .4777018 .001953125 .47070313 0 .4609375 0H.13867188C.12890625 0 .121907558 .001953125 .11767578 .005859375 .11344401 .009765625 .111328128 .0146484379 .111328128 .020507813 .111328128 .026692709 .11344401 .031656904 .11767578 .03540039 .121907558 .03914388 .12890625 .041015626 .13867188 .041015626H.27929688V.5644531L.14550781 .52246096C.13899739 .5205078 .13427735 .51953127 .13134766 .51953127 .12646485 .51953127 .12198893 .52156576 .11791992 .52563479 .113850917 .5297038 .111816409 .5345052 .111816409 .54003909 .111816409 .5449219 .11344401 .5494792 .11669922 .55371096 .11930338 .5563151 .12467448 .55908206 .1328125 .5620117L.3203125 .62109377Z"/>
<path id="font_3_3" d="M.55126956 .171875H.140625C.15104167 .14583333 .16951497 .12483724 .19604492 .10888672 .22257488 .092936199 .25846354 .08496094 .30371095 .08496094 .3408203 .08496094 .39013673 .092819217 .45166017 .10853577 .47705079 .11495463 .4946289 .11816406 .50439456 .11816406 .5177409 .11816406 .5289714 .11344401 .53808596 .104003909 .5472005 .094563808 .5517578 .08268229 .5517578 .068359378 .5517578 .055338544 .546875 .044270833 .5371094 .03515625 .52408859 .023111979 .49235026 .01163737 .44189454 .0007324219 .3914388-.010172526 .3429362-.015625 .29638673-.015625 .2163086-.015625 .15226238 .0069986979 .10424805 .052246095 .056233724 .09749349 .032226564 .15315755 .032226564 .21923828 .032226564 .28955079 .058186849 .34676109 .11010742 .39086915 .162028 .4349772 .22184246 .45703126 .28955079 .45703126 .33024089 .45703126 .3675944 .44987998 .40161134 .4355774 .43562828 .421285 .4609375 .40585328 .47753907 .38928224 .50097659 .36523438 .52034506 .3355001 .53564456 .30007936 .5460612 .27538047 .55126956 .2467804 .55126956 .21427918V.171875M.4404297 .27246095C.42513023 .3006185 .4051107 .32165528 .3803711 .3355713 .3556315 .3494873 .32617188 .3564453 .2919922 .3564453 .25813804 .3564453 .22884114 .3494873 .20410156 .3355713 .17936199 .32165528 .15917969 .3006185 .14355469 .27246095H.4404297Z"/>
<path id="font_3_13" d="M.37565614 .23040772 .52685549 .10058594C.54508468 .099609378 .55875656 .09445699 .5678711 .085128787 .57698568 .07581075 .58154299 .06411743 .58154299 .050048829 .58154299 .03532918 .576416 .023305258 .5661621 .013977051 .5559082 .004659017 .538737 0 .51464846 0H.4008789C.37679038 0 .35961915 .004659017 .34936524 .013977051 .33911134 .023305258 .33398438 .035654706 .33398438 .05102539 .33398438 .062805179 .33764649 .07319132 .3449707 .08218384 .35229493 .09117635 .3623047 .09731039 .375 .10058594L.29962159 .16526795 .2241211 .10058594C.23942058 .09665934 .2504069 .09060669 .25708009 .08242798 .26375328 .07424927 .26708985 .06378174 .26708985 .05102539 .26708985 .035654706 .26204429 .023305258 .25195313 .013977051 .24186199 .004659017 .22477214 0 .2006836 0H.087890628C.063802089 0 .04663086 .004659017 .036376954 .013977051 .026123047 .023305258 .020996094 .035491945 .020996094 .05053711 .020996094 .06428019 .025553385 .07581075 .03466797 .085128787 .04378255 .09445699 .057454427 .099609378 .075683597 .10058594L.2244873 .22973633 .09277344 .34277345C.075520839 .3440857 .06241862 .34940086 .053466798 .35871888 .044514974 .3680471 .040039064 .37957765 .040039064 .39331056 .040039064 .40803019 .045166017 .42004905 .055419923 .42936708 .06567383 .43869529 .082845058 .44335938 .106933597 .44335938H.2006836C.22477214 .44335938 .24194336 .43869529 .25219728 .42936708 .26245118 .42004905 .26757813 .40819297 .26757813 .39379884 .26757813 .37449137 .25846354 .358785 .24023438 .3466797L.30004884 .2953186 .36035157 .34765626C.3424479 .3604126 .3334961 .37513734 .3334961 .39183045 .3334961 .40753684 .33862306 .42004905 .34887696 .42936708 .35913087 .43869529 .3763021 .44335938 .40039063 .44335938H.49316407C.5172526 .44335938 .5344238 .43869529 .54467776 .42936708 .55493167 .42004905 .5600586 .40786744 .5600586 .39282228 .5600586 .3794149 .5555827 .3680471 .54663088 .35871888 .537679 .34940086 .52441409 .3440857 .50683596 .34277345L.37565614 .23040772Z"/>
<path id="font_2_15" d="M.14550781 .42382813V.349411C.16992188 .37894187 .1961263 .40116883 .2241211 .41609193 .25211589 .431015 .28515626 .43847657 .3232422 .43847657 .36360679 .43847657 .4008789 .42902629 .4350586 .41012574 .46923829 .3912252 .49568687 .36490885 .5144043 .33117677 .53312179 .29744468 .54248049 .26200358 .54248049 .22485352 .54248049 .16586304 .521403 .11542765 .47924806 .07354736 .4370931 .031677247 .3852539 .0107421879 .32373048 .0107421879 .25048829 .0107421879 .19108074 .040430707 .14550781 .09980774V-.14746094H.24511719C.2548828-.14746094 .2618815-.14933269 .26611329-.15307617 .27034507-.15681966 .27246095-.16178386 .27246095-.16796875 .27246095-.17382813 .27034507-.17871094 .26611329-.18261719 .2618815-.18652344 .2548828-.18847656 .24511719-.18847656H.049316408C.03955078-.18847656 .032552083-.18660482 .028320313-.18286133 .024088541-.17911785 .021972657-.17415364 .021972657-.16796875 .021972657-.16178386 .024088541-.15681966 .028320313-.15307617 .032552083-.14933269 .03955078-.14746094 .049316408-.14746094H.10449219V.3828125H.049316408C.03955078 .3828125 .032552083 .38476563 .028320313 .38867188 .024088541 .39257813 .021972657 .3976237 .021972657 .4038086 .021972657 .40952555 .024088541 .41429139 .028320313 .41810609 .032552083 .42192079 .03955078 .42382813 .049316408 .42382813H.14550781M.50097659 .22485352C.50097659 .27225749 .48380534 .31287638 .4494629 .3467102 .41512046 .38054405 .37320964 .39746095 .32373048 .39746095 .27392579 .39746095 .23177083 .38046266 .19726563 .34646607 .16276042 .31246949 .14550781 .27193199 .14550781 .22485352 .14550781 .17744954 .16276042 .13674927 .19726563 .102752689 .23177083 .0687561 .27392579 .051757814 .32373048 .051757814 .37288413 .051757814 .41471354 .06867472 .44921876 .102508548 .48372398 .13634236 .50097659 .17712403 .50097659 .22485352Z"/>
<path id="font_2_7" d="M.41796876 0V.059570314C.35839845 .0094401049 .29475913-.015625 .22705078-.015625 .17789714-.015625 .13948567-.0031738282 .111816409 .021728516 .08414713 .04663086 .0703125 .07714844 .0703125 .11328125 .0703125 .1529948 .088541667 .18766277 .125 .21728516 .16145833 .24690755 .21468099 .26171876 .28466798 .26171876 .3035482 .26171876 .324056 .26049806 .3461914 .25805665 .3683268 .25561524 .3922526 .25179038 .41796876 .24658203V.31341554C.41796876 .33602906 .4075521 .35568748 .38671876 .37239076 .3658854 .38910423 .3346354 .39746095 .29296876 .39746095 .26106773 .39746095 .2163086 .38804627 .1586914 .36921693 .14827474 .36591087 .14160156 .3642578 .13867188 .3642578 .13346355 .3642578 .12898763 .36621095 .12524414 .3701172 .12150065 .37402345 .119628909 .37890626 .119628909 .38476563 .119628909 .39029948 .12125651 .394694 .12451172 .39794923 .12906902 .40283204 .14746094 .40950523 .1796875 .41796876 .23046875 .43164063 .26888023 .43847657 .29492188 .43847657 .3466797 .43847657 .38704429 .42566935 .41601563 .40005494 .44498698 .37444053 .45947267 .34547935 .45947267 .3131714V.041015626H.51416018C.5242513 .041015626 .5314128 .03914388 .53564456 .03540039 .5398763 .031656904 .5419922 .026692709 .5419922 .020507813 .5419922 .0146484379 .5398763 .009765625 .53564456 .005859375 .5314128 .001953125 .5242513 0 .51416018 0H.41796876M.41796876 .20458985C.39876304 .2101237 .37841798 .2141927 .3569336 .21679688 .33544923 .21940105 .31282554 .22070313 .2890625 .22070313 .22949219 .22070313 .1829427 .20784505 .14941406 .1821289 .12402344 .16292317 .111328128 .13997396 .111328128 .11328125 .111328128 .088541667 .12101237 .067708339 .14038086 .05078125 .15974935 .033854169 .18798828 .025390625 .22509766 .025390625 .26057945 .025390625 .29353843 .032470704 .3239746 .04663086 .3544108 .060791017 .3857422 .083333339 .41796876 .11425781V.20458985Z"/>
<path id="font_2_16" d="M.25097657 .42382813V.3200531C.30436198 .36812846 .34431968 .3990682 .3708496 .4128723 .39737956 .4266866 .421875 .43359376 .44433595 .43359376 .46875 .43359376 .49145509 .4253184 .5124512 .4087677 .53344729 .392217 .5439453 .37967936 .5439453 .3711548 .5439453 .3649292 .5419108 .3597819 .5378418 .3557129 .53377279 .3516439 .5286458 .34960938 .52246096 .34960938 .51920577 .34960938 .5164388 .35017906 .51416018 .35131837 .51188156 .35245768 .5076497 .3561605 .50146487 .36242677 .49007163 .3739624 .48014323 .38187156 .4716797 .38615418 .46321617 .3904368 .45491538 .39257813 .44677735 .39257813 .4288737 .39257813 .40730796 .38542176 .38208009 .371109 .3568522 .35679627 .31315104 .32182823 .25097657 .26620484V.041015626H.4326172C.44270835 .041015626 .44986979 .03914388 .45410157 .03540039 .45833335 .031656904 .46044923 .026692709 .46044923 .020507813 .46044923 .0146484379 .45833335 .009765625 .45410157 .005859375 .44986979 .001953125 .44270835 0 .4326172 0H.110839847C.10107422 0 .09407552 .0019175211 .08984375 .0057525637 .08561198 .0095876059 .083496097 .014506022 .083496097 .020507813 .083496097 .026041666 .0855306 .030680338 .08959961 .034423829 .09366862 .038167318 .100748699 .040039064 .110839847 .040039064H.20996094V.3828125H.13427735C.12451172 .3828125 .11751302 .38476563 .11328125 .38867188 .10904948 .39257813 .106933597 .3976237 .106933597 .4038086 .106933597 .40952555 .1089681 .41429139 .11303711 .41810609 .11710612 .42192079 .124186199 .42382813 .13427735 .42382813H.25097657Z"/>
<path id="font_2_10" d="M.52197268 .20214844H.104003909C.11116537 .14908855 .13338216 .10636393 .1706543 .07397461 .20792644 .041585287 .254069 .025390625 .30908204 .025390625 .339681 .025390625 .37174479 .030436198 .40527345 .040527345 .4388021 .05061849 .46614585 .063964847 .4873047 .080566409 .4934896 .08544922 .4988607 .087890628 .50341799 .087890628 .5086263 .087890628 .5131836 .08585612 .51708987 .08178711 .5209961 .0777181 .5229492 .072916667 .5229492 .06738281 .5229492 .061848958 .52034506 .056477865 .5151367 .05126953 .49951173 .03499349 .47176109 .01977539 .43188478 .0056152346 .39200846-.008544922 .35107423-.015625 .30908204-.015625 .23876953-.015625 .1800944 .0074310305 .13305664 .05354309 .08601888 .09965515 .0625 .15546163 .0625 .22096253 .0625 .28059388 .08455404 .3317515 .12866211 .37443543 .17277019 .41712953 .2273763 .43847657 .29248048 .43847657 .35953776 .43847657 .41471354 .41653953 .4580078 .3726654 .50130209 .3287913 .5226237 .2719523 .52197268 .20214844M.48046876 .24316406C.47233073 .28884889 .45092774 .32598368 .41625978 .35456849 .3815918 .38316346 .34033204 .39746095 .29248048 .39746095 .2446289 .39746095 .20345052 .3833262 .16894531 .35505677 .13444011 .3267975 .11295573 .2894999 .10449219 .24316406H.48046876Z"/>
<path id="font_2_14" d="M.16748047 .42382813V.3623047C.1961263 .39109294 .2220052 .41098533 .24511719 .4219818 .26822917 .4329783 .29427085 .43847657 .3232422 .43847657 .3544922 .43847657 .38297526 .43178813 .4086914 .41841126 .42692057 .4086151 .44344078 .39237467 .45825196 .36968995 .47306315 .34701539 .48046876 .32377116 .48046876 .29995729V.041015626H.5151367C.52490237 .041015626 .53190109 .03914388 .5361328 .03540039 .54036459 .031656904 .54248049 .026692709 .54248049 .020507813 .54248049 .0146484379 .54036459 .009765625 .5361328 .005859375 .53190109 .001953125 .52490237 0 .5151367 0H.40527345C.39518229 0 .38802085 .001953125 .38378907 .005859375 .37955729 .009765625 .3774414 .0146484379 .3774414 .020507813 .3774414 .026692709 .37955729 .031656904 .38378907 .03540039 .38802085 .03914388 .39518229 .041015626 .40527345 .041015626H.43945313V.29351808C.43945313 .32261149 .4288737 .34720866 .40771485 .36730958 .386556 .3874105 .3582357 .39746095 .3227539 .39746095 .2957357 .39746095 .2722982 .39200846 .2524414 .38110353 .23258464 .37019859 .20426433 .34309898 .16748047 .2998047V.041015626H.21386719C.22363281 .041015626 .23063152 .03914388 .23486328 .03540039 .23909505 .031656904 .24121094 .026692709 .24121094 .020507813 .24121094 .0146484379 .23909505 .009765625 .23486328 .005859375 .23063152 .001953125 .22363281 0 .21386719 0H.080078128C.0703125 0 .063313808 .001953125 .05908203 .005859375 .05485026 .009765625 .052734376 .0146484379 .052734376 .020507813 .052734376 .026692709 .05485026 .031656904 .05908203 .03540039 .063313808 .03914388 .0703125 .041015626 .080078128 .041015626H.12646485V.3828125H.091796878C.08203125 .3828125 .075032558 .38476563 .07080078 .38867188 .06656901 .39257813 .064453128 .3976237 .064453128 .4038086 .064453128 .40952555 .06656901 .41429139 .07080078 .41810609 .075032558 .42192079 .08203125 .42382813 .091796878 .42382813H.16748047Z"/>
<path id="font_2_17" d="M.21582031 .42382813H.43847657C.4482422 .42382813 .45524089 .42192079 .45947267 .41810609 .46370445 .41429139 .4658203 .4093628 .4658203 .4033203 .4658203 .39746095 .46370445 .39257813 .45947267 .38867188 .45524089 .38476563 .4482422 .3828125 .43847657 .3828125H.21582031V.1091156C.21582031 .08529154 .2253418 .06537882 .24438477 .04937744 .26342774 .03338623 .29134117 .025390625 .328125 .025390625 .35579429 .025390625 .3857422 .029541016 .41796876 .037841798 .4501953 .046142579 .4752604 .0555013 .49316407 .06591797 .49967448 .07014974 .5050456 .072265628 .50927737 .072265628 .51448568 .072265628 .51904299 .07023112 .5229492 .06616211 .52685549 .062093099 .5288086 .057291669 .5288086 .051757814 .5288086 .046875 .5266927 .042317708 .52246096 .038085939 .51204428 .02734375 .48673503 .01570638 .4465332 .0031738282 .4063314-.009358724 .36783854-.015625 .3310547-.015625 .28320313-.015625 .24511719-.0043691 .21679688 .0181427 .18847656 .040664674 .1743164 .071014408 .1743164 .109191898V.3828125H.09863281C.08886719 .3828125 .08186849 .3847402 .07763672 .38859559 .073404949 .39246116 .07128906 .39745078 .07128906 .40356446 .07128906 .40935264 .073404949 .4141744 .07763672 .4180298 .08186849 .42189536 .08886719 .42382813 .09863281 .42382813H.1743164V.54571536C.1743164 .5555522 .17626953 .5625966 .18017578 .56684878 .18408203 .571111 .18896485 .5732422 .19482422 .5732422 .20100911 .5732422 .20605469 .571111 .20996094 .56684878 .21386719 .5625966 .21582031 .5555522 .21582031 .54571536V.42382813Z"/>
<path id="font_2_2" d="M.48828126 .3572235V.25556947C.48828126 .16729228 .46728517 .0974172 .42529298 .045944215 .39241538 .005549113 .35091148-.0146484379 .30078126-.0146484379 .27669273-.0146484379 .25398765-.009841919 .23266602-.00022888184 .2113444 .009373982 .19319661 .02281189 .17822266 .04008484 .16878255 .0508372 .15844727 .068099979 .1472168 .09187317 .13598633 .11565653 .12792969 .13748677 .123046878 .15736389 .1155599 .18537903 .111816409 .21811421 .111816409 .25556947V.3572235C.111816409 .4458262 .1328125 .5158641 .17480469 .56733706 .2076823 .6077321 .2491862 .6279297 .2993164 .6279297 .32373048 .6279297 .34651695 .62312319 .36767579 .61351016 .38883464 .6039073 .40690104 .59046939 .421875 .5731964 .43164063 .56211856 .44205729 .5446879 .453125 .52090457 .46419273 .49713136 .47233073 .47546897 .47753907 .45591737 .48470054 .42790223 .48828126 .39500428 .48828126 .3572235M.44726563 .3517151C.44726563 .39048258 .44181315 .42655946 .4309082 .45994569 .42000328 .49334208 .40771485 .519989 .39404298 .5398865 .38590495 .55130007 .37532554 .5611623 .3623047 .56947329 .34375 .58110049 .32291667 .58691409 .2998047 .58691409 .25390626 .58653768 .2179362 .5628662 .19189453 .51589968 .16585286 .46894328 .15283203 .41419984 .15283203 .3516693V.26130677C.15283203 .22254944 .1582845 .18639629 .16918946 .15284729 .1800944 .11930847 .19254558 .09261068 .20654297 .072753909 .21435547 .0616862 .22477214 .052083333 .23779297 .043945314 .25634767 .032226564 .27734376 .026367188 .30078126 .026367188 .34635417 .026367188 .38216148 .049886068 .40820313 .09692383 .43424479 .1439616 .44726563 .1987559 .44726563 .26130677V.3517151Z"/>
<path id="font_4_3" d="M.04296875 0 .1928711 .7158203H.49169923C.54345706 .7158203 .5822754 .70988467 .6081543 .6980133 .6340332 .68615218 .6554362 .6658325 .6723633 .63705447 .68929037 .60827639 .6977539 .576004 .6977539 .5402374 .6977539 .5106557 .69173178 .48058067 .6796875 .4500122 .66764327 .41944377 .6524251 .39424134 .6340332 .3744049 .6156413 .35457865 .5970052 .33962504 .578125 .32954408 .5592448 .3194631 .5390625 .3119863 .5175781 .30711366 .4716797 .29638163 .42529298 .29101563 .37841798 .29101563H.19921875L.13867188 0H.04296875M.2163086 .3720703H.37402345C.43522135 .3720703 .48014323 .37865196 .50878909 .3918152 .5374349 .40497843 .5603841 .4250132 .5776367 .45191957 .59488937 .47883607 .6035156 .50737 .6035156 .53752139 .6035156 .5608571 .5989583 .5799001 .58984377 .59465029 .5807292 .6094106 .5678711 .62027487 .55126956 .62724307 .53466799 .63421127 .5027669 .6376953 .4555664 .6376953H.27197267L.2163086 .3720703Z"/>
<path id="font_4_4" d="M.3828125 .064453128C.35221354 .038085939 .3227539 .018798829 .2944336 .006591797 .26611329-.0056152346 .23583985-.01171875 .20361328-.01171875 .15576172-.01171875 .1171875 .0023600262 .087890628 .030517579 .05859375 .05867513 .043945314 .09472656 .043945314 .13867188 .043945314 .16764324 .05053711 .193278 .0637207 .21557617 .0769043 .23787435 .09440104 .25577799 .11621094 .2692871 .13802083 .28279624 .16471355 .29248048 .19628906 .29833985 .21614583 .3022461 .25382487 .30533854 .30932618 .3076172 .36482749 .30989585 .4046224 .31575523 .42871095 .3251953 .43554688 .34928385 .43896485 .36930339 .43896485 .3852539 .43896485 .40576173 .43147788 .421875 .4165039 .43359376 .3959961 .44986979 .3660482 .4580078 .32666017 .4580078 .28955079 .4580078 .25919596 .44978843 .2355957 .4333496 .21199544 .4169108 .19482422 .3935547 .18408203 .36328126L.09472656 .37109376C.11295573 .42252604 .1418457 .46191407 .18139649 .4892578 .22094727 .51660159 .27083335 .53027346 .3310547 .53027346 .39518229 .53027346 .44596354 .51497396 .48339845 .484375 .51204428 .46158854 .5263672 .43196617 .5263672 .3955078 .5263672 .36783854 .52229818 .33577476 .51416018 .2993164L.48535157 .17041016C.47623698 .12939453 .4716797 .09602865 .4716797 .0703125 .4716797 .054036458 .4752604 .030598959 .48242188 0H.3930664C.3881836 .016927084 .38476563 .038411458 .3828125 .064453128M.41552735 .2626953C.40315757 .2578125 .38989259 .254069 .37573243 .25146485 .36157228 .24886067 .33789063 .24609375 .3046875 .24316406 .25325523 .23860677 .21695964 .23282878 .19580078 .22583008 .17464192 .21883138 .1586914 .2076823 .14794922 .19238281 .13720703 .17708333 .13183594 .16015625 .13183594 .14160156 .13183594 .11686198 .14038086 .09651693 .1574707 .080566409 .17456055 .06461588 .19889324 .056640626 .23046875 .056640626 .25976563 .056640626 .2879232 .06437174 .3149414 .079833988 .34195964 .09529623 .36328126 .11686198 .37890626 .14453125 .39453126 .17220052 .40673829 .21158855 .41552735 .2626953Z"/>
<path id="font_4_11" d="M.033203126 0 .14160156 .5185547H.21972656L.1977539 .4121399C.22444661 .45233155 .25056968 .48206584 .27612306 .5013428 .30167643 .5206299 .32779948 .53027346 .3544922 .53027346 .3720703 .53027346 .39371745 .52408859 .4194336 .51171877L.38330079 .4296875C.3680013 .44010417 .35123698 .4453125 .3330078 .4453125 .30208335 .4453125 .27034507 .42809043 .23779297 .39364625 .20524089 .35921226 .1796875 .2973226 .16113281 .2079773L.1171875 0H.033203126Z"/>
<path id="font_4_6" d="M.4140625 .17480469 .5 .16699219C.48763023 .12446085 .45922853 .08404032 .41479493 .04573059 .37036134 .0074310305 .3173828-.01171875 .25585938-.01171875 .21744792-.01171875 .18221028-.0028483074 .15014649 .014892578 .11808268 .032633466 .09366862 .05843099 .0769043 .092285159 .060139974 .12613933 .051757814 .16471355 .051757814 .20800781 .051757814 .26464845 .06486002 .31958009 .09106445 .37280274 .11726888 .4260254 .15120442 .46557618 .1928711 .49145509 .23453777 .517334 .2796224 .53027346 .328125 .53027346 .38997398 .53027346 .43937174 .5110677 .47631837 .47265626 .51326498 .43424479 .5317383 .38183595 .5317383 .3154297 .5317383 .29003907 .52945968 .2639974 .52490237 .23730469H.1430664C.14176433 .22721355 .14111328 .21809896 .14111328 .20996094 .14111328 .16145833 .15226238 .124430339 .17456055 .09887695 .19685872 .07332357 .2241211 .060546876 .25634767 .060546876 .2866211 .060546876 .31640626 .07034811 .34570313 .08995056 .375 .109563197 .39778648 .1378479 .4140625 .17480469M.15722656 .30566407H.4482422C.44856773 .31474815 .44873048 .3212382 .44873048 .32513429 .44873048 .3692627 .43766276 .40309144 .41552735 .42662049 .39339195 .45014955 .36490885 .46191407 .33007813 .46191407 .29231773 .46191407 .2578939 .44893394 .22680664 .42297364 .1957194 .39701335 .17252605 .35791017 .15722656 .30566407Z"/>
<path id="font_4_10" d="M.033203126 0 .14160156 .5185547H.22167969L.20263672 .42811585C.23746746 .46366883 .27001954 .48958335 .30029298 .5058594 .3305664 .52213546 .36149089 .53027346 .3930664 .53027346 .4350586 .53027346 .46801759 .51887008 .49194337 .49606324 .51586917 .47325645 .52783206 .4427948 .52783206 .40467835 .52783206 .3854828 .5236003 .3552195 .5151367 .31388856L.44921876 0H.36083985L.4296875 .32826234C.43652345 .36013285 .4399414 .38370768 .4399414 .39898683 .4399414 .4162191 .43400065 .4302012 .42211915 .44093324 .41023765 .45166526 .3930664 .45703126 .37060548 .45703126 .32535807 .45703126 .28507487 .44078575 .24975586 .40829469 .21443685 .3758138 .18847656 .32010398 .171875 .24116516L.12158203 0H.033203126Z"/>
<path id="font_4_12" d="M.2397461 .07183838 .22509766-.0004272461C.2039388-.0060017907 .18343099-.0087890629 .16357422-.0087890629 .12841797-.0087890629 .10042318-.00016276042 .079589847 .017089844 .063964847 .030110678 .056152345 .047851564 .056152345 .0703125 .056152345 .08170573 .060384115 .107910159 .068847659 .14892578L.13183594 .4501953H.06201172L.076171878 .5185547H.1459961L.17285156 .6459961 .27392579 .70703127 .234375 .5185547H.32128907L.30664063 .4501953H.22021485L.16015625 .16394043C.15266927 .12752278 .14892578 .10573832 .14892578 .098587039 .14892578 .08819071 .15193685 .080225627 .15795899 .07469177 .16398113 .06916809 .17382813 .06640625 .1875 .06640625 .20703125 .06640625 .22444661 .06821696 .2397461 .07183838Z"/>
<path id="font_4_1" d="M0 0Z"/>
<path id="font_4_2" d="M.60302737 .25195313 .6977539 .23828125C.66780599 .15592449 .6241862 .09366862 .56689456 .051513673 .50960287 .009358724 .4453125-.01171875 .37402345-.01171875 .28710938-.01171875 .21818035 .014775594 .16723633 .06776428 .11629232 .12075297 .09082031 .19666036 .09082031 .29548646 .09082031 .42422996 .1295573 .5307007 .20703125 .6148987 .27604167 .68999227 .3618164 .72753909 .46435548 .72753909 .54020187 .72753909 .60164389 .70714828 .64868167 .6663666 .6957194 .6255951 .72298178 .5707906 .73046877 .5019531L.6411133 .49316407C.63167318 .5452474 .6122233 .58414718 .5827637 .6098633 .553304 .6355794 .5152995 .6484375 .46875 .6484375 .3811849 .6484375 .31038413 .6096039 .25634767 .53193667 .20947266 .46499125 .18603516 .38553367 .18603516 .29356385 .18603516 .22011821 .20410156 .16405742 .24023438 .12538147 .2763672 .0867157 .32340495 .06738281 .38134767 .06738281 .4308268 .06738281 .47558595 .08345032 .515625 .11558533 .55566409 .14773052 .58479818 .19318645 .60302737 .25195313Z"/>
<path id="font_4_7" d="M.033203126 0 .18261719 .7158203H.2709961L.21386719 .44096376C.2467448 .47284446 .27734376 .49569703 .30566407 .5095215 .33398438 .52335616 .3631185 .53027346 .3930664 .53027346 .43603517 .53027346 .46940104 .5189616 .49316407 .4963379 .51692709 .47372438 .5288086 .443868 .5288086 .4067688 .5288086 .38853965 .5236003 .355011 .5131836 .30618287L.44921876 0H.36083985L.4267578 .31362916C.4361979 .3591512 .44091798 .3877665 .44091798 .3994751 .44091798 .41638185 .4350586 .4302012 .42333985 .44093324 .4116211 .45166526 .394694 .45703126 .3725586 .45703126 .34065757 .45703126 .31022135 .44866435 .28125 .43193055 .25227867 .4152069 .22957357 .39230348 .21313477 .3632202 .19669597 .33414714 .18164063 .28728739 .16796875 .22264099L.12158203 0H.033203126Z"/>
<path id="font_4_8" d="M.1586914 .6152344 .1796875 .7158203H.26757813L.24658203 .6152344H.1586914M.029785157 0 .1381836 .5185547H.2265625L.11816406 0H.029785157Z"/>
<path id="font_4_9" d="M.026367188 0 .17578125 .7158203H.26416017L.114746097 0H.026367188Z"/>
<path id="font_4_5" d="M.3828125 .07519531C.33235679 .017252604 .2796224-.01171875 .22460938-.01171875 .17545574-.01171875 .13452149 .0064290368 .10180664 .04272461 .0690918 .07902018 .052734376 .13167317 .052734376 .2006836 .052734376 .26383464 .06567383 .3215332 .091552738 .3737793 .11743164 .4260254 .14982097 .46516929 .1887207 .49121095 .22762044 .5172526 .26660157 .53027346 .30566407 .53027346 .3701172 .53027346 .41878257 .49934898 .45166017 .4375L.5102539 .7158203H.59814456L.44873048 0H.3671875L.3828125 .07519531M.140625 .21739197C.140625 .18134053 .14420574 .15292359 .15136719 .13214112 .15852864 .11135864 .17073567 .094065349 .18798828 .08026123 .20524089 .066467288 .22591146 .059570314 .25 .059570314 .29003907 .059570314 .32633464 .08036295 .35888673 .12194824 .4025065 .17718506 .4243164 .24541219 .4243164 .32662965 .4243164 .36750285 .41357423 .39945475 .39208985 .42248536 .37060548 .44551597 .34358726 .45703126 .31103517 .45703126 .2898763 .45703126 .2705892 .45232139 .25317384 .4429016 .23575847 .43349204 .21850586 .41750083 .20141602 .39492799 .18432617 .37235514 .16992188 .34369407 .15820313 .3089447 .14648438 .27420555 .140625 .24368795 .140625 .21739197Z"/>
</defs>
<g clip-path="url(#clip_0)">
<g clip-path="url(#clip_1)">
<path transform="matrix(1,0,0,-1,-1.55675,539.222)" d="M0 539.9999H719.9999V.00003079383H0Z" fill="#ffffff" fill-rule="evenodd"/>
<use data-text="c" xlink:href="#font_2_8" transform="matrix(16,0,0,-16,116.80654,20.030274)"/>
<use data-text="h" xlink:href="#font_2_11" transform="matrix(16,0,0,-16,126.40814,20.030274)"/>
<use data-text="i" xlink:href="#font_2_12" transform="matrix(16,0,0,-16,136.00974,20.030274)"/>
<use data-text="l" xlink:href="#font_2_13" transform="matrix(16,0,0,-16,145.61135,20.030274)"/>
<use data-text="d" xlink:href="#font_2_9" transform="matrix(16,0,0,-16,155.21295,20.030274)"/>
<use data-text=":" xlink:href="#font_2_5" transform="matrix(16,0,0,-16,164.81455,20.030274)"/>
<use data-text=" " xlink:href="#font_2_1" transform="matrix(16,0,0,-16,174.41614,20.030274)"/>
<use data-text="x" xlink:href="#font_2_18" transform="matrix(16,0,0,-16,184.01747,20.030274)"/>
<use data-text="=" xlink:href="#font_2_6" transform="matrix(16,0,0,-16,193.61905,20.030274)"/>
<use data-text="2" xlink:href="#font_2_4" transform="matrix(16,0,0,-16,203.22064,20.030274)"/>
<use data-text=" " xlink:href="#font_2_1" transform="matrix(16,0,0,-16,212.82224,20.030274)"/>
<path transform="matrix(1,0,0,-1,-1.55675,539.222)" d="M24.9911 463.2585C24.9911 465.2467 26.60287 466.8585 28.5911 466.8585 30.57932 466.8585 32.1911 465.2467 32.1911 463.2585 32.1911 461.2702 30.57932 459.6584 28.5911 459.6584 26.60287 459.6584 24.9911 461.2702 24.9911 463.2585Z" fill-rule="evenodd"/>
<path transform="matrix(.00007874014,0,0,.00007874014,23.434351,72.363498)" stroke-width="9525" stroke-linecap="butt" stroke-linejoin="round" fill="none" stroke="#000000" d="M-.001459341 45720.24C-.001459341 20469.84 20469.54 .1528643 45719.98 .1528643 70970.46 .1528643 91440 20469.84 91440 45720.24 91440 70970.64 70970.46 91440.32 45719.98 91440.32 20469.54 91440.32-.001459341 70970.64-.001459341 45720.24Z"/>
<use data-text="m" xlink:href="#font_3_7" transform="matrix(16,0,0,-16,10.048369,95.16348)"/>
<use data-text="a" xlink:href="#font_3_2" transform="matrix(16,0,0,-16,19.649971,95.16348)"/>
<use data-text="i" xlink:href="#font_3_5" transform="matrix(16,0,0,-16,29.251572,95.16348)"/>
<use data-text="n" xlink:href="#font_3_8" transform="matrix(16,0,0,-16,38.853174,95.16348)"/>
<use data-text=" " xlink:href="#font_3_1" transform="matrix(16,0,0,-16,48.454774,95.16348)"/>
<path transform="matrix(1,0,0,-1,-1.55675,539.222)" d="M96.96841 463.2585C96.96841 465.2467 98.58019 466.8585 100.5684 466.8585 102.5566 466.8585 104.1684 465.2467 104.1684 463.2585 104.1684 461.2702 102.5566 459.6584 100.5684 459.6584 98.58019 459.6584 96.96841 461.2702 96.96841 463.2585Z" fill-rule="evenodd"/>
<path transform="matrix(.00007874014,0,0,.00007874014,95.41166,72.363498)" stroke-width="9525" stroke-linecap="butt" stroke-linejoin="round" fill="none" stroke="#000000" d="M-.07391423 45720.24C-.07391423 20469.84 20469.51 .1528643 45719.91 .1528643 70970.41 .1528643 91439.9 20469.84 91439.9 45720.24 91439.9 70970.64 70970.41 91440.32 45719.91 91440.32 20469.51 91440.32-.07391423 70970.64-.07391423 45720.24Z"/>
<path transform="matrix(1,0,0,-1,-1.55675,539.222)" d="M170.223 463.2585C170.223 465.2467 171.8348 466.8585 173.823 466.8585 175.8113 466.8585 177.423 465.2467 177.423 463.2585 177.423 461.2702 175.8113 459.6584 173.823 459.6584 171.8348 459.6584 170.223 461.2702 170.223 463.2585Z" fill-rule="evenodd"/>
<path transform="matrix(.00007874014,0,0,.00007874014,168.66626,72.363498)" stroke-width="9525" stroke-linecap="butt" stroke-linejoin="round" fill="none" stroke="#000000" d="M-.0884926 45720.24C-.0884926 20469.84 20469.4 .1528643 45720 .1528643 70970.4 .1528643 91439.89 20469.84 91439.89 45720.24 91439.89 70970.64 70970.4 91440.32 45720 91440.32 20469.4 91440.32-.0884926 70970.64-.0884926 45720.24Z"/>
<use data-text="f" xlink:href="#font_3_4" transform="matrix(16,0,0,-16,80.18386,95.16348)"/>
<use data-text="o" xlink:href="#font_3_9" transform="matrix(16,0,0,-16,89.78546,95.16348)"/>
<use data-text="r" xlink:href="#font_3_11" transform="matrix(16,0,0,-16,99.38706,95.16348)"/>
<use data-text="k" xlink:href="#font_3_6" transform="matrix(16,0,0,-16,108.98866,95.16348)"/>
<use data-text=" " xlink:href="#font_3_1" transform="matrix(16,0,0,-16,118.59026,95.16348)"/>
<path transform="matrix(0,-.00007874014,.00007874014,0,99.15885,75.56348)" stroke-width="12700" stroke-linecap="butt" stroke-linejoin="round" fill="none" stroke="#000000" d="M.07342964-.00144045H640396.4V838694.9"/>
<path transform="matrix(1,0,0,-1,-1.55675,539.222)" d="M162.7546 517.0834 168.7546 514.0834 162.7546 511.0834Z" fill-rule="evenodd"/>
<path transform="matrix(1,0,0,-1,-1.55675,539.222)" d="M169 514.0272C169 516.0154 170.6118 517.6271 172.6 517.6271 174.5882 517.6271 176.2 516.0154 176.2 514.0272 176.2 512.0389 174.5882 510.4271 172.6 510.4271 170.6118 510.4271 169 512.0389 169 514.0272Z" fill-rule="evenodd"/>
<path transform="matrix(.00007874014,0,0,.00007874014,167.44326,21.59491)" stroke-width="9525" stroke-linecap="butt" stroke-linejoin="round" fill="none" stroke="#000000" d="M-.1137085 45719.55C-.1137085 20469.15 20469.38-.1411175 45719.97-.1411175 70970.38-.1411175 91439.86 20469.15 91439.86 45719.55 91439.86 70969.95 70970.38 91440.03 45719.97 91440.03 20469.38 91440.03-.1137085 70969.95-.1137085 45719.55Z"/>
<path transform="matrix(.00007874014,0,0,-.00007874014,102.61166,76.09689)" stroke-width="12700" stroke-linecap="butt" stroke-linejoin="round" fill="none" stroke="#000000" d="M.02639094-.3203124 813594.1 3078.562"/>
<path transform="matrix(1,0,0,-1,-1.55675,539.222)" d="M164.2423 460.3524 170.2309 463.3751 164.2196 466.3523Z" fill-rule="evenodd"/>
<path transform="matrix(.00007874014,0,0,-.00007874014,30.634352,76.09689)" stroke-width="12700" stroke-linecap="butt" stroke-linejoin="round" fill="none" stroke="#000000" d="M-.00193084-.3203124 813594 3078.562"/>
<path transform="matrix(1,0,0,-1,-1.55675,539.222)" d="M92.26499 460.3524 98.25359 463.3751 92.24229 466.3523Z" fill-rule="evenodd"/>
<use data-text="p" xlink:href="#font_3_10" transform="matrix(16,0,0,-16,143.56665,95.16348)"/>
<use data-text="r" xlink:href="#font_3_11" transform="matrix(16,0,0,-16,153.16825,95.16348)"/>
<use data-text="i" xlink:href="#font_3_5" transform="matrix(16,0,0,-16,162.76985,95.16348)"/>
<use data-text="n" xlink:href="#font_3_8" transform="matrix(16,0,0,-16,172.37146,95.16348)"/>
<use data-text="t" xlink:href="#font_3_12" transform="matrix(16,0,0,-16,181.97306,95.16348)"/>
<use data-text="f" xlink:href="#font_3_4" transform="matrix(16,0,0,-16,191.57465,95.16348)"/>
<use data-text=" " xlink:href="#font_3_1" transform="matrix(16,0,0,-16,201.17603,95.16348)"/>
<use data-text="p" xlink:href="#font_3_10" transform="matrix(16,0,0,-16,143.55886,43.38849)"/>
<use data-text="r" xlink:href="#font_3_11" transform="matrix(16,0,0,-16,153.16046,43.38849)"/>
<use data-text="i" xlink:href="#font_3_5" transform="matrix(16,0,0,-16,162.76206,43.38849)"/>
<use data-text="n" xlink:href="#font_3_8" transform="matrix(16,0,0,-16,172.36365,43.38849)"/>
<use data-text="t" xlink:href="#font_3_12" transform="matrix(16,0,0,-16,181.96526,43.38849)"/>
<use data-text="f" xlink:href="#font_3_4" transform="matrix(16,0,0,-16,191.56687,43.38849)"/>
<use data-text=" " xlink:href="#font_3_1" transform="matrix(16,0,0,-16,201.16823,43.38849)"/>
<use data-text="x" xlink:href="#font_2_18" transform="matrix(16,0,0,-16,44.09607,70.563999)"/>
<use data-text="=" xlink:href="#font_2_6" transform="matrix(16,0,0,-16,53.69763,70.563999)"/>
<use data-text="=" xlink:href="#font_2_6" transform="matrix(16,0,0,-16,63.299234,70.563999)"/>
<use data-text="1" xlink:href="#font_2_3" transform="matrix(16,0,0,-16,72.90083,70.563999)"/>
<use data-text=" " xlink:href="#font_2_1" transform="matrix(16,0,0,-16,82.50243,70.563999)"/>
<path transform="matrix(.00007874014,0,0,-.00007874014,173.91596,25.210572)" stroke-width="12700" stroke-linecap="butt" stroke-linejoin="round" fill="none" stroke="#000000" d="M.07709503-.3188255 1381919 779.4786"/>
<path transform="matrix(1,0,0,-1,-1.55675,539.222)" d="M280.2868 511.0705 286.2852 514.0739 280.2835 517.0705Z" fill-rule="evenodd"/>
<path transform="matrix(1,0,0,-1,-1.55675,539.222)" d="M285.5969 514.0272C285.5969 516.0154 287.2087 517.6271 289.1969 517.6271 291.1851 517.6271 292.7969 516.0154 292.7969 514.0272 292.7969 512.0389 291.1851 510.4271 289.1969 510.4271 287.2087 510.4271 285.5969 512.0389 285.5969 514.0272Z" fill-rule="evenodd"/>
<path transform="matrix(.00007874014,0,0,.00007874014,284.04014,21.59491)" stroke-width="9525" stroke-linecap="butt" stroke-linejoin="round" fill="none" stroke="#000000" d="M-.1471496 45719.55C-.1471496 20469.15 20469.54-.1411175 45719.94-.1411175 70970.34-.1411175 91440.02 20469.15 91440.02 45719.55 91440.02 70969.95 70970.34 91440.03 45719.94 91440.03 20469.54 91440.03-.1471496 70969.95-.1471496 45719.55Z"/>
<use data-text="e" xlink:href="#font_3_3" transform="matrix(16,0,0,-16,268.2458,43.38849)"/>
<use data-text="x" xlink:href="#font_3_13" transform="matrix(16,0,0,-16,277.8474,43.38849)"/>
<use data-text="i" xlink:href="#font_3_5" transform="matrix(16,0,0,-16,287.449,43.38849)"/>
<use data-text="t" xlink:href="#font_3_12" transform="matrix(16,0,0,-16,297.0506,43.38849)"/>
<use data-text=" " xlink:href="#font_3_1" transform="matrix(16,0,0,-16,306.65223,43.38849)"/>
<use data-text="p" xlink:href="#font_2_15" transform="matrix(16,0,0,-16,118.00577,69.046298)"/>
<use data-text="a" xlink:href="#font_2_7" transform="matrix(16,0,0,-16,127.60736,69.046298)"/>
<use data-text="r" xlink:href="#font_2_16" transform="matrix(16,0,0,-16,137.20897,69.046298)"/>
<use data-text="e" xlink:href="#font_2_10" transform="matrix(16,0,0,-16,146.81056,69.046298)"/>
<use data-text="n" xlink:href="#font_2_14" transform="matrix(16,0,0,-16,156.41217,69.046298)"/>
<use data-text="t" xlink:href="#font_2_17" transform="matrix(16,0,0,-16,166.01377,69.046298)"/>
<use data-text=":" xlink:href="#font_2_5" transform="matrix(16,0,0,-16,175.61536,69.046298)"/>
<use data-text=" " xlink:href="#font_2_1" transform="matrix(16,0,0,-16,185.21697,69.046298)"/>
<use data-text="x" xlink:href="#font_2_18" transform="matrix(16,0,0,-16,194.81827,69.046298)"/>
<use data-text="=" xlink:href="#font_2_6" transform="matrix(16,0,0,-16,204.41983,69.046298)"/>
<use data-text="0" xlink:href="#font_2_2" transform="matrix(16,0,0,-16,214.02143,69.046298)"/>
<use data-text=" " xlink:href="#font_2_1" transform="matrix(16,0,0,-16,223.62302,69.046298)"/>
<path transform="matrix(.00007874014,0,0,-.00007874014,173.91596,75.22659)" stroke-width="12700" stroke-linecap="butt" stroke-linejoin="round" fill="none" stroke="#000000" d="M.07709503-.1173186 1381919 779.2926"/>
<path transform="matrix(1,0,0,-1,-1.55675,539.222)" d="M280.2868 461.0545 286.2852 464.0579 280.2835 467.0545Z" fill-rule="evenodd"/>
<path transform="matrix(1,0,0,-1,-1.55675,539.222)" d="M285.5969 464.0111C285.5969 465.9993 287.2087 467.6111 289.1969 467.6111 291.1851 467.6111 292.7969 465.9993 292.7969 464.0111 292.7969 462.0229 291.1851 460.4111 289.1969 460.4111 287.2087 460.4111 285.5969 462.0229 285.5969 464.0111Z" fill-rule="evenodd"/>
<path transform="matrix(.00007874014,0,0,.00007874014,284.04014,71.61087)" stroke-width="9525" stroke-linecap="butt" stroke-linejoin="round" fill="none" stroke="#000000" d="M-.1471496 45720.02C-.1471496 20469.62 20469.54-.06747776 45719.94-.06747776 70970.34-.06747776 91440.02 20469.62 91440.02 45720.02 91440.02 70970.41 70970.34 91440.1 45719.94 91440.1 20469.54 91440.1-.1471496 70970.41-.1471496 45720.02Z"/>
<use data-text="e" xlink:href="#font_3_3" transform="matrix(16,0,0,-16,268.2458,93.40448)"/>
<use data-text="x" xlink:href="#font_3_13" transform="matrix(16,0,0,-16,277.8474,93.40448)"/>
<use data-text="i" xlink:href="#font_3_5" transform="matrix(16,0,0,-16,287.449,93.40448)"/>
<use data-text="t" xlink:href="#font_3_12" transform="matrix(16,0,0,-16,297.0506,93.40448)"/>
<use data-text=" " xlink:href="#font_3_1" transform="matrix(16,0,0,-16,306.65223,93.40448)"/>
<use data-text="P" xlink:href="#font_4_3" transform="matrix(16,0,0,-16,339.64326,81.163578)"/>
<use data-text="a" xlink:href="#font_4_4" transform="matrix(16,0,0,-16,350.31526,81.163578)"/>
<use data-text="r" xlink:href="#font_4_11" transform="matrix(16,0,0,-16,359.21446,81.163578)"/>
<use data-text="e" xlink:href="#font_4_6" transform="matrix(16,0,0,-16,364.54246,81.163578)"/>
<use data-text="n" xlink:href="#font_4_10" transform="matrix(16,0,0,-16,373.44166,81.163578)"/>
<use data-text="t" xlink:href="#font_4_12" transform="matrix(16,0,0,-16,382.34086,81.163578)"/>
<use data-text=" " xlink:href="#font_4_1" transform="matrix(16,0,0,-16,386.78565,81.163578)"/>
<use data-text="C" xlink:href="#font_4_2" transform="matrix(16,0,0,-16,345.03514,30.05957)"/>
<use data-text="h" xlink:href="#font_4_7" transform="matrix(16,0,0,-16,356.59034,30.05957)"/>
<use data-text="i" xlink:href="#font_4_8" transform="matrix(16,0,0,-16,365.48954,30.05957)"/>
<use data-text="l" xlink:href="#font_4_9" transform="matrix(16,0,0,-16,369.04475,30.05957)"/>
<use data-text="d" xlink:href="#font_4_5" transform="matrix(16,0,0,-16,372.5999,30.05957)"/>
<use data-text=" " xlink:href="#font_4_1" transform="matrix(16,0,0,-16,381.49916,30.05957)"/>
</g>
</g>
</svg>
