<svg xmlns="http://www.w3.org/2000/svg" xmlns:xlink="http://www.w3.org/1999/xlink" version="1.1" width="526.18087pt" height="159.56699pt" viewBox="0 0 526.18087 159.56699">
<defs>
<clipPath id="clip_0">
<path transform="matrix(1,0,0,-1,-2.33513,537.665)" d="M2.33513 378.098H528.516V537.665H2.33513Z" fill-rule="evenodd"/>
</clipPath>
<clipPath id="clip_1">
<path transform="matrix(1,0,0,-1,-2.33513,537.665)" d="M0 .00002324581H719.9999V540H0Z"/>
</clipPath>
<path id="font_2_12" d="M.07910156 0V.7158203H.5966797V.6308594H.17382813V.41308595H.5698242V.328125H.17382813V.08496094H.61328127V0H.07910156Z"/>
<path id="font_2_31" d="M.0073242189 0 .19692993 .26812745 .021484375 .5185547H.13134766L.2109375 .39770509C.22591146 .3743795 .23795574 .35491944 .24707031 .33932496 .26139323 .36012779 .2745768 .37890116 .2866211 .39564515L.37402345 .5185547H.4790039L.304245 .27043153 .49267579 0H.38476563L.2783203 .16091919 .25 .20158386 .11376953 0H.0073242189Z"/>
<path id="font_2_15" d="M.40429688 .19042969 .49072267 .17871094C.48128257 .119140628 .45711265 .072509769 .4182129 .03881836 .37931315 .005126953 .33154298-.01171875 .27490235-.01171875 .2039388-.01171875 .14689128 .011474609 .103759769 .057861329 .060628255 .10424805 .0390625 .17073567 .0390625 .25732423 .0390625 .3133138 .048339845 .3623047 .06689453 .40429688 .08544922 .44628907 .11368815 .4777832 .15161133 .4987793 .1895345 .5197754 .23079427 .53027346 .27539063 .53027346 .33170573 .53027346 .37776695 .5161133 .41357423 .48779298 .4493815 .45948283 .47233073 .419281 .48242188 .3671875L.39697267 .35351563C.38883464 .3881836 .37443034 .41426597 .35375978 .4317627 .3330892 .44925944 .30810548 .4580078 .2788086 .4580078 .23453777 .4580078 .1985677 .44213868 .17089844 .4104004 .14322917 .3786621 .12939453 .32845054 .12939453 .25976563 .12939453 .19010417 .14274089 .13948567 .1694336 .107910159 .1961263 .07633463 .23095703 .060546876 .27392579 .060546876 .308431 .060546876 .3372396 .07116699 .36035157 .09240723 .38346354 .11364746 .39811198 .14632161 .40429688 .19042969Z"/>
<path id="font_2_17" d="M.42089845 .16796875 .51171877 .15625C.49739585 .103037517 .47086589 .06173706 .4321289 .032348634 .39339195 .0029703777 .34391276-.01171875 .2836914-.01171875 .20784505-.01171875 .14770508 .01163737 .103271488 .05834961 .05883789 .10506185 .036621095 .17057292 .036621095 .2548828 .036621095 .3421224 .05908203 .40983073 .104003909 .4580078 .14892578 .5061849 .20719402 .53027346 .2788086 .53027346 .34814454 .53027346 .40478517 .5067088 .44873048 .45957948 .49267579 .41246034 .51464846 .34616599 .51464846 .2606964 .51464846 .25549827 .51448568 .247701 .51416018 .23730469H.1274414C.13069661 .18017578 .14680989 .13643392 .17578125 .1060791 .20475261 .07572428 .24088542 .060546876 .2841797 .060546876 .31640626 .060546876 .34391276 .06908671 .36669923 .08616638 .3894857 .103256229 .4075521 .13052368 .42089845 .16796875M.13232422 .3095703H.421875C.41796876 .3530477 .40690104 .38565574 .38867188 .4073944 .3606771 .4411367 .3243815 .4580078 .27978517 .4580078 .23942058 .4580078 .20548503 .4445394 .17797852 .41760255 .150472 .39067588 .1352539 .35466514 .13232422 .3095703Z"/>
<path id="font_2_26" d="M.06591797-.19921875V.5185547H.1459961V.45069886C.1648763 .4772288 .18619792 .49712119 .20996094 .510376 .23372396 .52364096 .26253257 .53027346 .29638673 .53027346 .34065757 .53027346 .37972007 .5188802 .41357423 .49609376 .44742839 .47330729 .47298179 .4411621 .49023438 .3996582 .507487 .3581543 .5161133 .31266276 .5161133 .2631836 .5161133 .2101237 .5065918 .16235352 .48754884 .11987305 .46850587 .07739258 .44083659 .044840497 .40454103 .022216797 .36824546-.00040690104 .33007813-.01171875 .29003907-.01171875 .2607422-.01171875 .23445638-.005533854 .21118164 .0068359377 .1879069 .019205729 .16878255 .03483073 .1538086 .053710939V-.19921875H.06591797M.14550781 .25610353C.14550781 .18945313 .15901692 .14019776 .18603516 .1083374 .21305339 .07647705 .24576824 .060546876 .2841797 .060546876 .3232422 .060546876 .35668946 .077046718 .38452149 .11004639 .41235353 .14304607 .42626954 .19417317 .42626954 .26342774 .42626954 .3294271 .41267906 .3788452 .38549806 .41168214 .35831706 .44451905 .32584635 .4609375 .28808595 .4609375 .25065104 .4609375 .2175293 .4434611 .1887207 .4085083 .15991211 .3735555 .14550781 .3227539 .14550781 .25610353Z"/>
<path id="font_2_29" d="M.2578125 .07861328 .2705078 .0009765625C.24576824-.004231771 .22363281-.0068359377 .20410156-.0068359377 .17220052-.0068359377 .14746094-.0017903646 .12988281 .008300781 .11230469 .018391928 .0999349 .031656904 .09277344 .048095704 .08561198 .06453451 .08203125 .099121097 .08203125 .15185547V.4501953H.017578125V.5185547H.08203125V.64697268L.1694336 .69970706V.5185547H.2578125V.4501953H.1694336V.14697266C.1694336 .121907558 .17097982 .10579427 .17407227 .09863281 .17716472 .09147135 .18221028 .08577474 .18920899 .08154297 .19620769 .077311199 .20621746 .07519531 .21923828 .07519531 .2290039 .07519531 .24186199 .07633463 .2578125 .07861328Z"/>
<path id="font_2_20" d="M.06640625 .6152344V.7158203H.15429688V.6152344H.06640625M.06640625 0V.5185547H.15429688V0H.06640625Z"/>
<path id="font_2_25" d="M.033203126 .25927735C.033203126 .355306 .059895833 .42643229 .11328125 .47265626 .15787761 .5110677 .21223958 .53027346 .2763672 .53027346 .34765626 .53027346 .40592448 .5069173 .45117188 .46020509 .49641929 .41349284 .51904299 .34895835 .51904299 .26660157 .51904299 .1998698 .5090332 .14737956 .48901368 .10913086 .46899415 .070882167 .43986003 .041178388 .40161134 .020019532 .36336265-.0011393229 .3216146-.01171875 .2763672-.01171875 .20377605-.01171875 .1451009 .011555989 .1003418 .05810547 .055582685 .104654949 .033203126 .17171224 .033203126 .25927735M.123535159 .2590332C.123535159 .19270833 .13802083 .14304607 .16699219 .11004639 .19596355 .077046718 .23242188 .060546876 .2763672 .060546876 .31998698 .060546876 .35628257 .07712809 .3852539 .11029053 .41422526 .14345296 .42871095 .19401042 .42871095 .2619629 .42871095 .32600913 .4141439 .37453208 .38500978 .40753175 .35587565 .4405314 .31966148 .45703126 .2763672 .45703126 .23242188 .45703126 .19596355 .4406128 .16699219 .40777589 .13802083 .37493897 .123535159 .32535807 .123535159 .2590332Z"/>
<path id="font_2_24" d="M.06591797 0V.5185547H.14501953V.44482423C.18310547 .50179037 .23811849 .53027346 .3100586 .53027346 .3413086 .53027346 .3700358 .5246582 .39624024 .51342776 .42244468 .50219729 .44205729 .48746745 .45507813 .46923829 .46809898 .45100913 .47721354 .42936198 .48242188 .40429688 .4856771 .38802085 .4873047 .35953776 .4873047 .31884767V0H.39941407V.3154297C.39941407 .35123698 .3959961 .37801109 .38916017 .39575196 .38232423 .41349284 .37019859 .42765299 .3527832 .43823243 .33536784 .44881187 .3149414 .45410157 .2915039 .45410157 .254069 .45410157 .22176107 .44222007 .19458008 .41845704 .1673991 .394694 .1538086 .34960938 .1538086 .28320313V0H.06591797Z"/>
<path id="font_2_1" d="M0 0Z"/>
<path id="font_2_13" d="M.40429688 .06542969C.37174479 .03722127 .34041343 .017308554 .31030274 .0056915285 .28019206-.0059153239 .24788411-.01171875 .2133789-.01171875 .15641277-.01171875 .11263021 .0021972657 .08203125 .030029297 .051432294 .057861329 .036132814 .09342448 .036132814 .13671875 .036132814 .16210938 .04191081 .18530274 .053466798 .20629883 .06502279 .22729492 .08015951 .24414063 .09887695 .25683595 .1175944 .26953126 .13867188 .27913413 .16210938 .28564454 .17936199 .2902018 .20540364 .29459635 .24023438 .29882813 .3111979 .30729167 .363444 .3173828 .39697267 .32910157 .3972982 .34109498 .39746095 .3487142 .39746095 .35195924 .39746095 .38763429 .38916017 .4127655 .3725586 .4273529 .35009767 .44713847 .31673179 .45703126 .27246095 .45703126 .2311198 .45703126 .20060222 .44978843 .1809082 .43530274 .16121419 .42081706 .14664714 .39518229 .13720703 .35839845L.05126953 .3701172C.05908203 .40701295 .0719401 .43680827 .08984375 .45950318 .1077474 .4821981 .1336263 .4996643 .16748047 .51190188 .20133464 .5241496 .24055989 .53027346 .28515626 .53027346 .3294271 .53027346 .36539714 .52504476 .3930664 .5145874 .4207357 .5041402 .44108073 .49099223 .45410157 .47514344 .4671224 .4593048 .47623698 .43929545 .4814453 .41511537 .484375 .40009056 .48583985 .3731028 .48583985 .33415223V.21730042C.48583985 .13582866 .48771159 .084228519 .49145509 .0625 .49519859 .040771486 .5026042 .01993815 .5136719 0H.421875C.4127604 .01864624 .40690104 .040456136 .40429688 .06542969M.39697267 .25976563C.36507163 .24680583 .31722007 .23578899 .25341798 .22671509 .21728516 .22153728 .19173177 .21570842 .17675781 .20922852 .16178386 .20274861 .15022786 .1932729 .14208985 .18080139 .13395183 .16832988 .12988281 .15447998 .12988281 .13925171 .12988281 .11592611 .13875325 .09648641 .15649414 .08093262 .17423503 .065389 .20019531 .057617189 .234375 .057617189 .26822917 .057617189 .29833985 .06499735 .32470704 .07975769 .35107423 .0945282 .37044273 .114705409 .3828125 .1402893 .3922526 .16003418 .39697267 .18917339 .39697267 .22770691V.25976563Z"/>
<path id="font_2_14" d="M.14697266 0H.06542969V.7158203H.15332031V.46044923C.19042969 .5069987 .23779297 .53027346 .29541017 .53027346 .3273112 .53027346 .35750328 .5238444 .38598634 .5109863 .4144694 .49812828 .4379069 .48006187 .45629884 .4567871 .47469078 .43351237 .48909507 .4054362 .49951173 .3725586 .5099284 .339681 .5151367 .30452476 .5151367 .26708985 .5151367 .17822266 .49316407 .10953776 .44921876 .061035158 .40527345 .012532552 .35253907-.01171875 .29101563-.01171875 .2298177-.01171875 .18180339 .013834636 .14697266 .064941409V0M.1459961 .2631836C.1459961 .20100911 .15445964 .15608724 .17138672 .12841797 .19905599 .08317057 .23649089 .060546876 .2836914 .060546876 .32210288 .060546876 .355306 .07722982 .38330079 .1105957 .41129557 .1439616 .42529298 .19368489 .42529298 .25976563 .42529298 .32747398 .41186524 .3774414 .38500978 .40966798 .3581543 .44189454 .3256836 .4580078 .28759767 .4580078 .2491862 .4580078 .21598308 .44132487 .18798828 .40795899 .15999349 .3745931 .1459961 .32633464 .1459961 .2631836Z"/>
<path id="font_2_22" d="M.063964847 0V.7158203H.15185547V0H.063964847Z"/>
<path id="font_2_5" d="M.25048829 .115234378V.31152345H.055664064V.3935547H.25048829V.5888672H.3334961V.3935547H.5283203V.31152345H.3334961V.115234378H.25048829Z"/>
<path id="font_2_30" d="M.40576173 0V.0766449C.36539714 .0177358 .31054688-.01171875 .24121094-.01171875 .21061199-.01171875 .18204753-.005859375 .15551758 .005859375 .12898763 .017578125 .10929362 .03230794 .09643555 .050048829 .08357748 .06778971 .07454427 .08951823 .06933594 .115234378 .06575521 .13248699 .063964847 .15983074 .063964847 .19726563V.5185547H.15185547V.2312622C.15185547 .18541463 .15364583 .15452576 .15722656 .13859558 .16276042 .115503948 .17447917 .09737142 .19238281 .084198 .21028646 .07103475 .23242188 .064453128 .25878907 .064453128 .28515626 .064453128 .30989585 .07119751 .3330078 .08468628 .35611979 .09818522 .3724772 .1165568 .38208009 .13980103 .39168296 .16305542 .39648438 .1967926 .39648438 .24101258V.5185547H.484375V0H.40576173Z"/>
<path id="font_2_23" d="M.06591797 0V.5185547H.14453125V.44580079C.1608073 .4711914 .18245442 .49161784 .20947266 .5070801 .23649089 .5225423 .2672526 .53027346 .3017578 .53027346 .34016929 .53027346 .37166343 .52229818 .39624024 .50634768 .42081706 .49039714 .43815104 .46809898 .4482422 .43945313 .4892578 .5 .54264327 .53027346 .60839846 .53027346 .65983077 .53027346 .69938156 .5160319 .7270508 .48754884 .75472006 .45906578 .7685547 .4152018 .7685547 .35595704V0H.68115237V.32666017C.68115237 .3618164 .678304 .38712565 .6726074 .4025879 .6669108 .41805015 .6565755 .4305013 .64160159 .4399414 .6266276 .4493815 .6090495 .45410157 .5888672 .45410157 .5524089 .45410157 .52213546 .44197593 .49804688 .4177246 .47395835 .3934733 .46191407 .35465495 .46191407 .30126954V0H.37402345V.33691407C.37402345 .37597657 .36686198 .40527345 .35253907 .4248047 .33821617 .44433595 .31477867 .45410157 .28222657 .45410157 .25748698 .45410157 .23461914 .44759117 .21362305 .4345703 .19262696 .42154948 .17740886 .4025065 .16796875 .3774414 .15852864 .3523763 .1538086 .3162435 .1538086 .26904298V0H.06591797Z"/>
<path id="font_2_27" d="M.064941409 0V.5185547H.14404297V.4399414C.16422527 .47672526 .18286133 .50097659 .19995117 .5126953 .21704102 .52441409 .23583985 .53027346 .25634767 .53027346 .28597007 .53027346 .31608073 .5208333 .3466797 .5019531L.31640626 .4204712C.29492188 .43312583 .2734375 .43945313 .25195313 .43945313 .23274739 .43945313 .2154948 .43367515 .20019531 .42211915 .18489583 .41056315 .17399089 .39453126 .16748047 .37402345 .15771485 .34277345 .15283203 .30859376 .15283203 .27148438V0H.064941409Z"/>
<path id="font_2_3" d="M.23388672-.2109375C.18538411-.14967855 .14436849-.07799276 .110839847 .004119873 .077311199 .086242679 .060546876 .17129517 .060546876 .25927735 .060546876 .33683268 .07307943 .41112773 .09814453 .48216249 .1274414 .5646108 .1726888 .6467285 .23388672 .7285156H.296875C.25748698 .6607361 .23144531 .6123454 .21875 .5833435 .19889324 .5383809 .18326824 .49146018 .171875 .44258119 .15787761 .38163758 .1508789 .32037355 .1508789 .25878907 .1508789 .10205078 .19954427-.05452474 .296875-.2109375H.23388672Z"/>
<path id="font_2_10" d="M.17675781 .38893128C.14029949 .4022471 .11328125 .4212443 .095703128 .44592286 .078125 .47061158 .06933594 .50016787 .06933594 .5345917 .06933594 .5865631 .08805338 .630249 .12548828 .6656494 .16292317 .7010498 .21272786 .71875 .27490235 .71875 .33740235 .71875 .3876953 .7006429 .42578126 .6644287 .4638672 .62821456 .48291017 .5841268 .48291017 .5321655 .48291017 .4990336 .47420249 .47020469 .4567871 .4456787 .43937174 .42116294 .4129232 .4022471 .3774414 .38893128 .42138673 .37459819 .45483399 .35147096 .4777832 .31954957 .5007324 .28762818 .51220706 .2495168 .51220706 .20521546 .51220706 .14397685 .4905599 .09250895 .44726563 .050811769 .40397135 .009124756 .34700523-.01171875 .2763672-.01171875 .20572917-.01171875 .14876302 .009206136 .10546875 .05105591 .06217448 .092915859 .040527345 .14511617 .040527345 .20765686 .040527345 .25423686 .052327474 .2932434 .075927738 .3246765 .09952799 .35610963 .13313802 .37752787 .17675781 .38893128M.15917969 .5375824C.15917969 .5038808 .17008464 .47633363 .19189453 .4549408 .21370442 .43354798 .24202474 .42285157 .27685548 .42285157 .31070964 .42285157 .3384603 .43346659 .36010743 .45469667 .38175456 .47592674 .39257813 .50193789 .39257813 .5327301 .39257813 .56481429 .38142906 .5917918 .35913087 .6136627 .33683268 .6355438 .30908204 .6464844 .2758789 .6464844 .24235027 .6464844 .21451824 .63578799 .19238281 .61439517 .17024739 .5930023 .15917969 .5673981 .15917969 .5375824M.13085938 .20703125C.13085938 .18196614 .13680013 .15771485 .14868164 .13427735 .16056316 .110839847 .17822266 .092692058 .20166016 .079833988 .22509766 .066975917 .25032554 .060546876 .27734376 .060546876 .31933595 .060546876 .3540039 .07405599 .38134767 .10107422 .4086914 .12809246 .42236329 .16243489 .42236329 .20410156 .42236329 .24641927 .40828453 .28141276 .38012696 .30908204 .3519694 .3367513 .31673179 .35058595 .27441407 .35058595 .23307292 .35058595 .19881185 .33691407 .17163086 .3095703 .14444988 .28222657 .13085938 .24804688 .13085938 .20703125Z"/>
<path id="font_2_4" d="M.123535159-.2109375H.060546876C.15787761-.05452474 .20654297 .10205078 .20654297 .25878907 .20654297 .320048 .19954427 .3808187 .18554688 .44110108 .17447917 .48998008 .15901692 .53690597 .13916016 .58187869 .12646485 .61120608 .100260417 .660085 .060546876 .7285156H.123535159C.18473308 .6467285 .22998047 .5646108 .25927735 .48216249 .28434245 .41112773 .296875 .33683268 .296875 .25927735 .296875 .17129517 .2800293 .086242679 .24633789 .004119873 .21264649-.07799276 .17171224-.14967855 .123535159-.2109375Z"/>
<path id="font_2_7" d="M.041503908 .35327149C.041503908 .43784587 .05021159 .50591537 .06762695 .55747988 .08504232 .6090444 .11092123 .6488139 .14526367 .67678835 .17960613 .70476278 .22281902 .71875 .27490235 .71875 .3133138 .71875 .34700523 .711024 .37597657 .6955719 .4049479 .6801198 .4288737 .6578369 .4477539 .62872317 .46663413 .5996094 .4814453 .56414797 .4921875 .52233889 .5029297 .48053996 .5083008 .42418418 .5083008 .35327149 .5083008 .26934815 .49967448 .2016042 .48242188 .15003968 .46516929 .098475139 .43937174 .058624269 .4050293 .03048706 .37068687 .0023498536 .3273112-.01171875 .27490235-.01171875 .20589192-.01171875 .1516927 .013005574 .11230469 .062454225 .065104167 .12198385 .041503908 .21892293 .041503908 .35327149M.13183594 .35302735C.13183594 .2357076 .14558919 .15762837 .1730957 .11878967 .20060222 .07996114 .23453777 .060546876 .27490235 .060546876 .31526695 .060546876 .34920249 .08004252 .37670899 .11903381 .40421549 .15803528 .41796876 .23603313 .41796876 .35302735 .41796876 .4706726 .40421549 .5488281 .37670899 .5874939 .34920249 .62616989 .3149414 .6455078 .27392579 .6455078 .2335612 .6455078 .20133464 .6284485 .1772461 .59432986 .14697266 .55078127 .13183594 .47034709 .13183594 .35302735Z"/>
<path id="font_2_8" d="M.3725586 0H.28466798V.5600586C.26350913 .5398763 .23575847 .51969406 .20141602 .49951173 .16707357 .47932945 .13623047 .46419273 .10888672 .45410157V.5390625C.15804036 .5621745 .20100911 .59016928 .23779297 .6230469 .2745768 .6559245 .3006185 .6878255 .31591798 .71875H.3725586V0Z"/>
<path id="font_2_9" d="M.50341799 .08496094V0H.030273438C.029622397 .0211792 .033040365 .041549684 .040527345 .06111145 .052571615 .09336853 .07185873 .12513733 .09838867 .15641785 .12491862 .18770854 .1632487 .22387696 .2133789 .2649231 .29117839 .32877604 .34375 .37928263 .37109376 .41644288 .3984375 .45360313 .41210938 .488739 .41210938 .5218506 .41210938 .5565796 .3996582 .5858714 .37475587 .60972598 .34985353 .6335805 .3173828 .6455078 .27734376 .6455078 .23502605 .6455078 .20117188 .6328125 .17578125 .6074219 .15039063 .58203127 .13753255 .546875 .13720703 .5019531L.046875 .51171877C.053059896 .57910159 .07633463 .63045248 .11669922 .6657715 .1570638 .7010905 .21126302 .71875 .27929688 .71875 .34798179 .71875 .40234376 .6997121 .4423828 .66163638 .48242188 .6235606 .5024414 .57637026 .5024414 .5200653 .5024414 .49142967 .49658204 .4632772 .48486329 .4356079 .47314454 .40794883 .45369468 .37882487 .42651368 .34823609 .39933268 .3176473 .35416667 .27570597 .29101563 .22241211 .23828125 .17822266 .20442708 .14824422 .18945313 .1324768 .17447917 .11671957 .16210938 .10088094 .15234375 .08496094H.50341799Z"/>
<path id="font_2_6" d="M.03173828 .21484375V.30371095H.3017578V.21484375H.03173828Z"/>
<path id="font_2_11" d="M-.0014648438 0 .2734375 .7158203H.37548829L.66845706 0H.5605469L.47705079 .21679688H.17773438L.099121097 0H-.0014648438M.20507813 .2939453H.4477539L.37304688 .4923706C.3502604 .5525004 .33333335 .6022441 .32226563 .64160159 .31315104 .59510299 .30029298 .5492045 .2836914 .50390627L.20507813 .2939453Z"/>
<path id="font_2_16" d="M.40234376 0V.06542969C.36946617 .0139973959 .3211263-.01171875 .25732423-.01171875 .21598308-.01171875 .17797852-.00032552085 .14331055 .022460938 .10864258 .045247396 .08178711 .077067058 .06274414 .11791992 .043701173 .15877278 .034179689 .20572917 .034179689 .25878907 .034179689 .31054688 .04280599 .35750328 .060058595 .3996582 .077311199 .44181315 .1031901 .4741211 .13769531 .49658204 .17220052 .51904299 .21077474 .53027346 .25341798 .53027346 .28466798 .53027346 .3125 .52363589 .33691407 .5103607 .36132813 .49709574 .3811849 .47981263 .39648438 .45851136V.7158203H.48388673V0H.40234376M.12451172 .25854493C.12451172 .19222005 .13850911 .14263916 .1665039 .109802249 .1944987 .07696533 .22753906 .060546876 .265625 .060546876 .30403648 .060546876 .33666993 .07623291 .3635254 .10760498 .39038087 .13897705 .4038086 .18685405 .4038086 .25123597 .4038086 .32210795 .39013673 .37412516 .36279298 .4072876 .33544923 .44045005 .3017578 .45703126 .26171876 .45703126 .22265625 .45703126 .19002278 .44110108 .16381836 .40924073 .13761394 .37738038 .12451172 .32714845 .12451172 .25854493Z"/>
<path id="font_2_28" d="M.030761719 .15527344 .11767578 .16894531C.122558597 .13396199 .1361491 .10714722 .15844727 .08850098 .18074544 .06986491 .21191406 .060546876 .25195313 .060546876 .29231773 .060546876 .32226563 .06876627 .34179688 .08520508 .36132813 .10164388 .37109376 .12093099 .37109376 .1430664 .37109376 .16292317 .36246745 .17854817 .34521485 .1899414 .33317057 .1977539 .30322267 .2076823 .2553711 .21972656 .19091797 .23600261 .14624024 .2500814 .12133789 .2619629 .09643555 .2738444 .077555339 .2902832 .064697269 .3112793 .05183919 .3322754 .045410158 .35546876 .045410158 .38085938 .045410158 .40397135 .05069987 .42537437 .061279298 .44506837 .07185873 .46476237 .08626302 .48111979 .10449219 .49414063 .11816406 .50423178 .13680013 .5127767 .16040039 .5197754 .18400066 .5267741 .20930989 .53027346 .23632813 .53027346 .27701823 .53027346 .31274415 .52441409 .34350587 .5126953 .37426759 .50097659 .39697267 .48510743 .4116211 .4650879 .42626954 .44506837 .4363607 .41829429 .44189454 .38476563L.35595704 .37304688C.35205079 .3997396 .34073893 .4205729 .32202149 .43554688 .30330406 .45052085 .27685548 .4580078 .24267578 .4580078 .2023112 .4580078 .17350261 .45133464 .15625 .43798829 .13899739 .42464195 .1303711 .40901695 .1303711 .39111329 .1303711 .37972007 .13395183 .36946617 .14111328 .36035157 .14827474 .35091148 .1595052 .34309898 .17480469 .33691407 .18359375 .33365885 .20947266 .32617188 .2524414 .31445313 .31461589 .29785157 .35799156 .28426109 .38256837 .27368165 .40714518 .2631022 .42643229 .24772136 .4404297 .22753906 .4544271 .20735677 .46142579 .18229167 .46142579 .15234375 .46142579 .123046878 .45288087 .095458988 .43579103 .06958008 .41870118 .043701173 .39404298 .02368164 .3618164 .009521484 .32958985-.004638672 .2931315-.01171875 .2524414-.01171875 .1850586-.01171875 .13370769 .002319336 .09838867 .030395508 .063069667 .05847168 .040527345 .100097659 .030761719 .15527344Z"/>
<path id="font_2_18" d="M.08691406 0V.4501953H.009277344V.5185547H.08691406V.5736084C.08691406 .6083577 .09000651 .6341756 .096191409 .651062 .104654949 .6737874 .11954752 .69221499 .14086914 .7063446 .16219075 .72047427 .1920573 .72753909 .23046875 .72753909 .25520835 .72753909 .2825521 .7245941 .3125 .7187042L.2993164 .6416321C.28108726 .64486697 .26383464 .6464844 .2475586 .6464844 .22086589 .6464844 .20198567 .64082846 .19091797 .6295166 .17985027 .6182149 .1743164 .5970561 .1743164 .56604006V.5185547H.27539063V.4501953H.1743164V0H.08691406Z"/>
<path id="font_2_32" d="M.06201172-.20025635 .052246095-.11816406C.07145182-.1233724 .08821615-.12597656 .10253906-.12597656 .12207031-.12597656 .13769531-.12271627 .14941406-.11619568 .16113281-.10967509 .17073567-.10054525 .17822266-.08880615 .18375652-.08000692 .19270833-.058166505 .20507813-.023284913 .20670574-.018391928 .20930989-.011220296 .21289063-.0017700195L.016113282 .5185547H.110839847L.21875 .21817017C.23274739 .18007405 .24527996 .14002483 .25634767 .09802246 .2664388 .13847859 .27848307 .17790222 .29248048 .21629334L.4033203 .5185547H.49121095L.2939453-.008728027C.27278648-.06584676 .25634767-.10517883 .2446289-.12672425 .2290039-.15577698 .21110027-.17707317 .19091797-.1906128 .17073567-.2041626 .14664714-.2109375 .118652347-.2109375 .10172526-.2109375 .082845058-.20737712 .06201172-.20025635Z"/>
<path id="font_2_2" d="M.05029297-.0126953129 .09249878 .1953125H.010253906V.2685547H.10736084L.14341736 .44628907H.010253906V.51953127H.15827942L.2006836 .7285156H.27392579L.2315216 .51953127H.3853302L.42773438 .7285156H.50146487L.45892335 .51953127H.54345706V.44628907H.4440155L.4078369 .2685547H.54345706V.1953125H.39292909L.35058595-.0126953129H.27734376L.31954957 .1953125H.16574097L.123535159-.0126953129H.05029297M.18060303 .2685547H.33441163L.37046815 .44628907H.21665955L.18060303 .2685547Z"/>
<path id="font_2_21" d="M.06640625 0V.7158203H.15429688V.3080597L.3623047 .5185547H.47607423L.27783204 .32589723 .49609376 0H.3876953L.2163086 .26557923 .15429688 .2055664V0H.06640625Z"/>
<path id="font_2_19" d="M.049804689-.04296875 .1352539-.0546875C.13883464-.08137003 .14876302-.10080465 .16503906-.11299133 .18684896-.12946065 .21663411-.13769531 .25439454-.13769531 .29508464-.13769531 .3264974-.12953694 .3486328-.113220218 .37076823-.09690348 .3857422-.07406616 .3935547-.044708253 .39811198-.026753745 .40022788 .010935466 .39990235 .068359378 .36149089 .022786459 .3136393 0 .25634767 0 .1850586 0 .12988281 .025716147 .09082031 .07714844 .051757814 .12858074 .032226564 .19026692 .032226564 .26220704 .032226564 .3116862 .041178388 .35734049 .05908203 .39916993 .07698568 .44099937 .10294596 .47330729 .13696289 .49609376 .17097982 .5188802 .2109375 .53027346 .25683595 .53027346 .31803385 .53027346 .3684896 .5052083 .40820313 .45507813V.5185547H.4892578V.070007327C.4892578-.010772705 .48103843-.06801859 .4645996-.10173035 .4481608-.1354421 .42211915-.16206868 .3864746-.1816101 .35083009-.2011617 .30696617-.2109375 .2548828-.2109375 .19303386-.2109375 .1430664-.19698079 .10498047-.16906739 .06689453-.14115398 .048502607-.099121097 .049804689-.04296875M.122558597 .26853944C.122558597 .20067851 .1360677 .15116374 .16308594 .11999512 .19010417 .0888265 .22395833 .07324219 .26464845 .07324219 .30501304 .07324219 .3388672 .08874512 .36621095 .11975098 .3935547 .15075684 .40722657 .19938152 .40722657 .265625 .40722657 .3289388 .3931478 .3766683 .36499024 .40881349 .33683268 .44095866 .30289714 .45703126 .2631836 .45703126 .2241211 .45703126 .19091797 .4412028 .16357422 .4095459 .13623047 .377889 .122558597 .33088685 .122558597 .26853944Z"/>
<path id="font_3_2" d="M.071777347 0V.13769531H.20898438V0H.071777347Z"/>
<path id="font_3_1" d="M0 0Z"/>
</defs>
<g clip-path="url(#clip_0)">
<g clip-path="url(#clip_1)">
<path transform="matrix(1,0,0,-1,-2.33513,537.665)" d="M0 539.9999H719.9999V.00003079383H0Z" fill="#ffffff" fill-rule="evenodd"/>
<use data-text="E" xlink:href="#font_2_12" transform="matrix(16,0,0,-16,406.53916,33.914796)"/>
<use data-text="x" xlink:href="#font_2_31" transform="matrix(16,0,0,-16,417.21116,33.914796)"/>
<use data-text="c" xlink:href="#font_2_15" transform="matrix(16,0,0,-16,425.21116,33.914796)"/>
<use data-text="e" xlink:href="#font_2_17" transform="matrix(16,0,0,-16,433.21116,33.914796)"/>
<use data-text="p" xlink:href="#font_2_26" transform="matrix(16,0,0,-16,442.11036,33.914796)"/>
<use data-text="t" xlink:href="#font_2_29" transform="matrix(16,0,0,-16,451.00956,33.914796)"/>
<use data-text="i" xlink:href="#font_2_20" transform="matrix(16,0,0,-16,455.45436,33.914796)"/>
<use data-text="o" xlink:href="#font_2_25" transform="matrix(16,0,0,-16,459.00956,33.914796)"/>
<use data-text="n" xlink:href="#font_2_24" transform="matrix(16,0,0,-16,467.90876,33.914796)"/>
<use data-text=" " xlink:href="#font_2_1" transform="matrix(16,0,0,-16,476.80796,33.914796)"/>
<use data-text="t" xlink:href="#font_2_29" transform="matrix(16,0,0,-16,481.25276,33.914796)"/>
<use data-text="a" xlink:href="#font_2_13" transform="matrix(16,0,0,-16,485.69758,33.914796)"/>
<use data-text="b" xlink:href="#font_2_14" transform="matrix(16,0,0,-16,494.59678,33.914796)"/>
<use data-text="l" xlink:href="#font_2_22" transform="matrix(16,0,0,-16,503.49598,33.914796)"/>
<use data-text="e" xlink:href="#font_2_17" transform="matrix(16,0,0,-16,507.05116,33.914796)"/>
<use data-text=" " xlink:href="#font_2_1" transform="matrix(16,0,0,-16,515.9504,33.914796)"/>
<path transform="matrix(1,0,0,-1,-2.33513,537.665)" d="M413.9999 492.9999H509.9999V474.9999H413.9999Z" fill="#ffffff" fill-rule="evenodd"/>
<path transform="matrix(.00007874014,0,0,.00007874014,411.66477,44.66507)" stroke-width="12700" stroke-linecap="butt" stroke-miterlimit="8" stroke-linejoin="miter" fill="none" stroke="#000000" d="M.03344715 .312256H1219200V228600.3H.03344715Z"/>
<path transform="matrix(1,0,0,-1,-2.33513,537.665)" d="M413.9999 474.9999H509.9999V456.9999H413.9999Z" fill="#ffffff" fill-rule="evenodd"/>
<path transform="matrix(.00007874014,0,0,.00007874014,411.66477,62.66507)" stroke-width="12700" stroke-linecap="butt" stroke-miterlimit="8" stroke-linejoin="miter" fill="none" stroke="#000000" d="M.03344715 .3474122H1219200V228600.4H.03344715Z"/>
<path transform="matrix(1,0,0,-1,-2.33513,537.665)" d="M413.9999 456.9999H509.9999V438.9999H413.9999Z" fill="#ffffff" fill-rule="evenodd"/>
<path transform="matrix(.00007874014,0,0,.00007874014,411.66477,80.66507)" stroke-width="12700" stroke-linecap="butt" stroke-miterlimit="8" stroke-linejoin="miter" fill="none" stroke="#000000" d="M.03344715-.1174315H1219200V228599.9H.03344715Z"/>
<path transform="matrix(.00007874014,0,0,-.00007874014,125.03987,121.66498)" stroke-width="12700" stroke-linecap="butt" stroke-linejoin="round" fill="none" stroke="#000000" d="M-.08554073-.0750733H825499.9"/>
<path transform="matrix(1,0,0,-1,-2.33513,537.665)" d="M188.375 413 194.375 416 188.375 419Z" fill-rule="evenodd"/>
<path transform="matrix(1,0,0,-1,-2.33513,537.665)" d="M194.375 414.9374C194.375 420.978 199.6637 425.8749 206.1875 425.8749 212.7114 425.8749 218 420.978 218 414.9374 218 408.8968 212.7114 403.9999 206.1875 403.9999 199.6637 403.9999 194.375 408.8968 194.375 414.9374Z" fill="#ffffff" fill-rule="evenodd"/>
<path transform="matrix(.00007874014,0,0,.00007874014,192.03987,111.79007)" stroke-width="12700" stroke-linecap="butt" stroke-linejoin="round" fill="none" stroke="#000000" d="M-.1203613 138906.2C-.1203613 62190.73 67165.75 .3309328 150018.8 .3309328 232872.1 .3309328 300037.8 62190.73 300037.8 138906.2 300037.8 215622.1 232872.1 277812.5 150018.8 277812.5 67165.75 277812.5-.1203613 215622.1-.1203613 138906.2Z"/>
<use data-text="+" xlink:href="#font_2_5" transform="matrix(24,0,0,-24,196.69968,132.32758)"/>
<use data-text=" " xlink:href="#font_2_1" transform="matrix(24,0,0,-24,210.71569,132.32758)"/>
<path transform="matrix(.00007874014,0,0,.00007874014,203.66487,50.66507)" stroke-width="12700" stroke-linecap="butt" stroke-linejoin="round" fill="none" stroke="#000000" d="M.01477045 .3239747V736600.4"/>
<path transform="matrix(1,0,0,-1,-2.33513,537.665)" d="M209 432.9999 206 426.9999 203 432.9999Z" fill-rule="evenodd"/>
<use data-text="E" xlink:href="#font_2_12" transform="matrix(16,0,0,-16,140.36487,23.339966)"/>
<use data-text="x" xlink:href="#font_2_31" transform="matrix(16,0,0,-16,151.03687,23.339966)"/>
<use data-text="c" xlink:href="#font_2_15" transform="matrix(16,0,0,-16,159.03687,23.339966)"/>
<use data-text="e" xlink:href="#font_2_17" transform="matrix(16,0,0,-16,167.03687,23.339966)"/>
<use data-text="p" xlink:href="#font_2_26" transform="matrix(16,0,0,-16,175.93607,23.339966)"/>
<use data-text="t" xlink:href="#font_2_29" transform="matrix(16,0,0,-16,184.83527,23.339966)"/>
<use data-text="i" xlink:href="#font_2_20" transform="matrix(16,0,0,-16,189.28008,23.339966)"/>
<use data-text="o" xlink:href="#font_2_25" transform="matrix(16,0,0,-16,192.83527,23.339966)"/>
<use data-text="n" xlink:href="#font_2_24" transform="matrix(16,0,0,-16,201.73447,23.339966)"/>
<use data-text=" " xlink:href="#font_2_1" transform="matrix(16,0,0,-16,210.63367,23.339966)"/>
<use data-text="n" xlink:href="#font_2_24" transform="matrix(16,0,0,-16,215.07848,23.339966)"/>
<use data-text="u" xlink:href="#font_2_30" transform="matrix(16,0,0,-16,223.97768,23.339966)"/>
<use data-text="m" xlink:href="#font_2_23" transform="matrix(16,0,0,-16,232.87688,23.339966)"/>
<use data-text="b" xlink:href="#font_2_14" transform="matrix(16,0,0,-16,246.20488,23.339966)"/>
<use data-text="e" xlink:href="#font_2_17" transform="matrix(16,0,0,-16,255.10408,23.339966)"/>
<use data-text="r" xlink:href="#font_2_27" transform="matrix(16,0,0,-16,264.0033,23.339966)"/>
<use data-text=" " xlink:href="#font_2_1" transform="matrix(16,0,0,-16,269.3313,23.339966)"/>
<use data-text=" " xlink:href="#font_2_1" transform="matrix(16,0,0,-16,273.77607,23.339966)"/>
<use data-text="(" xlink:href="#font_2_3" transform="matrix(16,0,0,-16,189.36487,42.339967)"/>
<use data-text="x" xlink:href="#font_2_31" transform="matrix(16,0,0,-16,194.69287,42.339967)"/>
<use data-text=" " xlink:href="#font_2_1" transform="matrix(16,0,0,-16,202.69287,42.339967)"/>
<use data-text="8" xlink:href="#font_2_10" transform="matrix(16,0,0,-16,207.13767,42.339967)"/>
<use data-text=")" xlink:href="#font_2_4" transform="matrix(16,0,0,-16,216.03687,42.339967)"/>
<use data-text=" " xlink:href="#font_2_1" transform="matrix(16,0,0,-16,221.36487,42.339967)"/>
<path transform="matrix(.00007874014,0,0,.00007874014,216.03987,122.66507)" stroke-width="12700" stroke-linecap="butt" stroke-linejoin="round" fill="none" stroke="#000000" d="M-.1296997-.03540027 1785937 1.12732"/>
<use data-text="0" xlink:href="#font_2_7" transform="matrix(14,0,0,-14,394.73988,62.265077)"/>
<use data-text=" " xlink:href="#font_2_1" transform="matrix(14,0,0,-14,402.52668,62.265077)"/>
<use data-text="1" xlink:href="#font_2_8" transform="matrix(14,0,0,-14,394.86476,78.265079)"/>
<use data-text=" " xlink:href="#font_2_1" transform="matrix(14,0,0,-14,402.65156,78.265079)"/>
<use data-text="2" xlink:href="#font_2_9" transform="matrix(14,0,0,-14,394.86476,98.264987)"/>
<use data-text=" " xlink:href="#font_2_1" transform="matrix(14,0,0,-14,402.65156,98.264987)"/>
<path transform="matrix(1,0,0,-1,-2.33513,537.665)" d="M413.9999 414H509.9999V396H413.9999Z" fill="#ffffff" fill-rule="evenodd"/>
<path transform="matrix(.00007874014,0,0,.00007874014,411.66477,123.66498)" stroke-width="12700" stroke-linecap="butt" stroke-miterlimit="8" stroke-linejoin="miter" fill="none" stroke="#000000" d="M.03344715 .07897955H1219200V228600.1H.03344715Z"/>
<use data-text="n" xlink:href="#font_2_24" transform="matrix(14,0,0,-14,388.73988,141.26499)"/>
<use data-text="-" xlink:href="#font_2_6" transform="matrix(14,0,0,-14,396.52668,141.26499)"/>
<use data-text="1" xlink:href="#font_2_8" transform="matrix(14,0,0,-14,401.18867,141.26499)"/>
<use data-text=" " xlink:href="#font_2_1" transform="matrix(14,0,0,-14,408.97547,141.26499)"/>
<path transform="matrix(-.00007874014,-0,0,.00007874014,356.66487,84.66507)" stroke-width="12700" stroke-linecap="butt" stroke-linejoin="round" fill="none" stroke="#000000" d="M.1864014-.109619 1.349121 495300"/>
<path transform="matrix(.00007874014,0,0,.00007874014,356.66487,84.66507)" stroke-width="12700" stroke-linecap="butt" stroke-linejoin="round" fill="none" stroke="#000000" d="M-.1864014-.109619H685799.9"/>
<path transform="matrix(1,0,0,-1,-2.33513,537.665)" d="M409 455.9999 415 452.9999 409 449.9999Z" fill-rule="evenodd"/>
<use data-text="A" xlink:href="#font_2_11" transform="matrix(16,0,0,-16,223.86487,95.589969)"/>
<use data-text="d" xlink:href="#font_2_16" transform="matrix(16,0,0,-16,234.53687,95.589969)"/>
<use data-text="d" xlink:href="#font_2_16" transform="matrix(16,0,0,-16,243.43607,95.589969)"/>
<use data-text="r" xlink:href="#font_2_27" transform="matrix(16,0,0,-16,252.33527,95.589969)"/>
<use data-text="e" xlink:href="#font_2_17" transform="matrix(16,0,0,-16,257.66328,95.589969)"/>
<use data-text="s" xlink:href="#font_2_28" transform="matrix(16,0,0,-16,266.56248,95.589969)"/>
<use data-text="s" xlink:href="#font_2_28" transform="matrix(16,0,0,-16,274.56248,95.589969)"/>
<use data-text=" " xlink:href="#font_2_1" transform="matrix(16,0,0,-16,282.56248,95.589969)"/>
<use data-text="o" xlink:href="#font_2_25" transform="matrix(16,0,0,-16,287.00727,95.589969)"/>
<use data-text="f" xlink:href="#font_2_18" transform="matrix(16,0,0,-16,295.90647,95.589969)"/>
<use data-text=" " xlink:href="#font_2_1" transform="matrix(16,0,0,-16,300.35127,95.589969)"/>
<use data-text="e" xlink:href="#font_2_17" transform="matrix(16,0,0,-16,304.79609,95.589969)"/>
<use data-text="n" xlink:href="#font_2_24" transform="matrix(16,0,0,-16,313.69529,95.589969)"/>
<use data-text="t" xlink:href="#font_2_29" transform="matrix(16,0,0,-16,322.59449,95.589969)"/>
<use data-text="r" xlink:href="#font_2_27" transform="matrix(16,0,0,-16,327.03929,95.589969)"/>
<use data-text="y" xlink:href="#font_2_32" transform="matrix(16,0,0,-16,332.36729,95.589969)"/>
<use data-text=" " xlink:href="#font_2_1" transform="matrix(16,0,0,-16,340.36729,95.589969)"/>
<use data-text="f" xlink:href="#font_2_18" transform="matrix(16,0,0,-16,222.86487,114.589969)"/>
<use data-text="o" xlink:href="#font_2_25" transform="matrix(16,0,0,-16,227.30966,114.589969)"/>
<use data-text="r" xlink:href="#font_2_27" transform="matrix(16,0,0,-16,236.20886,114.589969)"/>
<use data-text=" " xlink:href="#font_2_1" transform="matrix(16,0,0,-16,241.53687,114.589969)"/>
<use data-text="e" xlink:href="#font_2_17" transform="matrix(16,0,0,-16,245.98168,114.589969)"/>
<use data-text="x" xlink:href="#font_2_31" transform="matrix(16,0,0,-16,254.88088,114.589969)"/>
<use data-text="c" xlink:href="#font_2_15" transform="matrix(16,0,0,-16,262.88087,114.589969)"/>
<use data-text="e" xlink:href="#font_2_17" transform="matrix(16,0,0,-16,270.88087,114.589969)"/>
<use data-text="p" xlink:href="#font_2_26" transform="matrix(16,0,0,-16,279.78007,114.589969)"/>
<use data-text="t" xlink:href="#font_2_29" transform="matrix(16,0,0,-16,288.67927,114.589969)"/>
<use data-text="i" xlink:href="#font_2_20" transform="matrix(16,0,0,-16,293.12409,114.589969)"/>
<use data-text="o" xlink:href="#font_2_25" transform="matrix(16,0,0,-16,296.67927,114.589969)"/>
<use data-text="n" xlink:href="#font_2_24" transform="matrix(16,0,0,-16,305.57847,114.589969)"/>
<use data-text=" " xlink:href="#font_2_1" transform="matrix(16,0,0,-16,314.47767,114.589969)"/>
<use data-text="#" xlink:href="#font_2_2" transform="matrix(16,0,0,-16,318.9225,114.589969)"/>
<use data-text=" " xlink:href="#font_2_1" transform="matrix(16,0,0,-16,327.82167,114.589969)"/>
<use data-text="k" xlink:href="#font_2_21" transform="matrix(16,0,0,-16,332.26649,114.589969)"/>
<use data-text=" " xlink:href="#font_2_1" transform="matrix(16,0,0,-16,340.26649,114.589969)"/>
<path transform="matrix(1,0,0,-1,-2.33513,537.665)" d="M4.875039 441.1249H129.625V394.3749H4.875039Z" fill="#ffffff" fill-rule="evenodd"/>
<path transform="matrix(.00007874014,0,0,.00007874014,2.5399092,96.54007)" stroke-width="12700" stroke-linecap="butt" stroke-miterlimit="8" stroke-linejoin="miter" fill="none" stroke="#000000" d="M.00004394446 .3011476H1584325V593725.4H.00004394446Z"/>
<use data-text="E" xlink:href="#font_2_12" transform="matrix(16,0,0,-16,9.73991,116.71509)"/>
<use data-text="x" xlink:href="#font_2_31" transform="matrix(16,0,0,-16,20.411911,116.71509)"/>
<use data-text="c" xlink:href="#font_2_15" transform="matrix(16,0,0,-16,28.411911,116.71509)"/>
<use data-text="e" xlink:href="#font_2_17" transform="matrix(16,0,0,-16,36.41191,116.71509)"/>
<use data-text="p" xlink:href="#font_2_26" transform="matrix(16,0,0,-16,45.31111,116.71509)"/>
<use data-text="t" xlink:href="#font_2_29" transform="matrix(16,0,0,-16,54.21031,116.71509)"/>
<use data-text="i" xlink:href="#font_2_20" transform="matrix(16,0,0,-16,58.655115,116.71509)"/>
<use data-text="o" xlink:href="#font_2_25" transform="matrix(16,0,0,-16,62.210317,116.71509)"/>
<use data-text="n" xlink:href="#font_2_24" transform="matrix(16,0,0,-16,71.10951,116.71509)"/>
<use data-text=" " xlink:href="#font_2_1" transform="matrix(16,0,0,-16,80.00871,116.71509)"/>
<use data-text="t" xlink:href="#font_2_29" transform="matrix(16,0,0,-16,84.45352,116.71509)"/>
<use data-text="a" xlink:href="#font_2_13" transform="matrix(16,0,0,-16,88.898319,116.71509)"/>
<use data-text="b" xlink:href="#font_2_14" transform="matrix(16,0,0,-16,97.797519,116.71509)"/>
<use data-text="l" xlink:href="#font_2_22" transform="matrix(16,0,0,-16,106.69672,116.71509)"/>
<use data-text="e" xlink:href="#font_2_17" transform="matrix(16,0,0,-16,110.25192,116.71509)"/>
<use data-text=" " xlink:href="#font_2_1" transform="matrix(16,0,0,-16,119.15112,116.71509)"/>
<use data-text="b" xlink:href="#font_2_14" transform="matrix(16,0,0,-16,18.73991,135.71509)"/>
<use data-text="a" xlink:href="#font_2_13" transform="matrix(16,0,0,-16,27.63911,135.71509)"/>
<use data-text="s" xlink:href="#font_2_28" transform="matrix(16,0,0,-16,36.53831,135.71509)"/>
<use data-text="e" xlink:href="#font_2_17" transform="matrix(16,0,0,-16,44.53831,135.71509)"/>
<use data-text=" " xlink:href="#font_2_1" transform="matrix(16,0,0,-16,53.43751,135.71509)"/>
<use data-text="r" xlink:href="#font_2_27" transform="matrix(16,0,0,-16,57.882314,135.71509)"/>
<use data-text="e" xlink:href="#font_2_17" transform="matrix(16,0,0,-16,63.21031,135.71509)"/>
<use data-text="g" xlink:href="#font_2_19" transform="matrix(16,0,0,-16,72.10951,135.71509)"/>
<use data-text="i" xlink:href="#font_2_20" transform="matrix(16,0,0,-16,81.00871,135.71509)"/>
<use data-text="s" xlink:href="#font_2_28" transform="matrix(16,0,0,-16,84.5639,135.71509)"/>
<use data-text="t" xlink:href="#font_2_29" transform="matrix(16,0,0,-16,92.5639,135.71509)"/>
<use data-text="e" xlink:href="#font_2_17" transform="matrix(16,0,0,-16,97.00871,135.71509)"/>
<use data-text="r" xlink:href="#font_2_27" transform="matrix(16,0,0,-16,105.90791,135.71509)"/>
<use data-text=" " xlink:href="#font_2_1" transform="matrix(16,0,0,-16,111.235919,135.71509)"/>
<use data-text="." xlink:href="#font_3_2" transform="matrix(0,24,24,0,461.28974,103.264987)"/>
<use data-text="." xlink:href="#font_3_2" transform="matrix(0,24,24,0,461.28974,109.93218)"/>
<use data-text="." xlink:href="#font_3_2" transform="matrix(0,24,24,0,461.28974,116.59939)"/>
<use data-text=" " xlink:href="#font_3_1" transform="matrix(0,24,24,0,461.28974,123.26659)"/>
</g>
</g>
</svg>
