<svg xmlns="http://www.w3.org/2000/svg" xmlns:xlink="http://www.w3.org/1999/xlink" version="1.1" width="484.14863pt" height="157.232pt" viewBox="0 0 484.14863 157.232">
<defs>
<clipPath id="clip_0">
<path transform="matrix(1,0,0,-1,-.778381,540)" d="M.778381 382.768H484.927V540H.778381Z" fill-rule="evenodd"/>
</clipPath>
<clipPath id="clip_1">
<path transform="matrix(1,0,0,-1,-.778381,540)" d="M0 .00002324581H719.9999V540H0Z"/>
</clipPath>
<path id="font_2_2" d="M.4506836 .7294922C.37841798 .6301575 .32958985 .55703738 .30419923 .51013186 .26611329 .43881227 .23714192 .3564148 .21728516 .26293946 .19710286 .16848755 .19189453 .08217875 .20166016 .0040130617 .20784505-.044184369 .22526042-.11355591 .25390626-.20410156H.19482422C.16292317-.12984212 .14347331-.08245341 .13647461-.061935426 .1294759-.04141744 .123046878-.013570149 .1171875 .021606446 .10904948 .06980387 .10725912 .1212616 .111816409 .17597962 .11442057 .2043101 .11832682 .23134358 .123535159 .25708009 .14404297 .3534851 .17740886 .43930564 .22363281 .5145416 .25325523 .5624135 .30859376 .6340637 .38964845 .7294922H.4506836Z"/>
<path id="font_2_5" d="M.25439454 .2788086 .359375 .3330078C.40657554 .35742188 .44059245 .37825523 .46142579 .3955078 .49365235 .42252604 .5135091 .45345054 .5209961 .48828126 .52978518 .5289714 .5244954 .5612793 .50512698 .5852051 .48575846 .60913088 .45572917 .62109377 .41503907 .62109377 .35481773 .62109377 .30826823 .5983073 .27539063 .5527344 .2578125 .5283203 .24381511 .49446617 .23339844 .45117188H.14404297C.15804036 .51204428 .17985027 .5616862 .20947266 .60009768 .2618815 .66813156 .33626304 .70214846 .4326172 .70214846 .5126953 .70214846 .56656906 .68051657 .5942383 .6372528 .62190756 .5939992 .6302083 .54586288 .6191406 .49284364 .6070964 .43689475 .57714846 .38907878 .5292969 .34939576 .5016276 .3263041 .45491538 .29833476 .38916017 .26548768L.31445313 .22840882C.27864585 .21084087 .25 .19408672 .22851563 .17814636 .18977864 .14984639 .16259766 .11845907 .14697266 .083984378H.5288086L.51123049 0H.03125C.04720052 .060221357 .0707194 .11263021 .10180664 .15722656 .13289388 .20182292 .18375652 .24235027 .25439454 .2788086Z"/>
<path id="font_2_3" d="M-.008300781-.20410156C.06461588-.103139247 .11344401-.029530844 .1381836 .016723633 .17561849 .08674113 .20442708 .16881307 .22460938 .26293946 .24446614 .35706584 .24951172 .44321189 .2397461 .52137759 .23388672 .569575 .21663411 .63894656 .18798828 .7294922H.24707031C.28027345 .64937338 .30013023 .59995016 .30664063 .58122256 .31315104 .56249496 .3191732 .5366821 .32470704 .5037842 .33154298 .46307374 .33406578 .42285157 .3322754 .38311769 .33048503 .3433838 .3256836 .30511476 .3178711 .26831056 .29736329 .17190552 .26383464 .08592224 .21728516 .010360718 .18766277-.03816223 .13264974-.10964966 .052246095-.20410156H-.008300781Z"/>
<path id="font_2_1" d="M0 0Z"/>
<path id="font_2_8" d="M.77978518 .5019531H.6850586C.68408206 .54848226 .67041018 .5853424 .64404299 .61253359 .6176758 .63972476 .5755208 .6533203 .5175781 .6533203 .4469401 .6533203 .38468424 .628479 .33081056 .5787964 .27693687 .52911379 .23909505 .45295716 .21728516 .35032655 .19938152 .26628114 .20450847 .19810994 .23266602 .14581299 .26082359 .09352621 .3138021 .06738281 .39160157 .06738281 .46321617 .06738281 .5236003 .09484863 .5727539 .14978028 .59847006 .17870076 .62125656 .21672566 .6411133 .26385499H.73583987C.7114258 .18828328 .67008468 .124928798 .6118164 .073791507 .5415039 .012227376 .4580078-.018554688 .36132813-.018554688 .27799479-.018554688 .2133789 .006688436 .16748047 .057174684 .10725912 .12394714 .09195963 .2270406 .12158203 .36645509 .14404297 .47232057 .19042969 .5591278 .2607422 .62687686 .33691407 .7004954 .42822267 .7373047 .53466799 .7373047 .6254883 .7373047 .69091799 .71332809 .73095706 .66537478 .7709961 .61742147 .78727218 .5629476 .77978518 .5019531Z"/>
<path id="font_2_21" d="M.4814453 .26976014C.49186198 .31852723 .49251304 .35819499 .48339845 .38876344 .46875 .4368795 .43115235 .4609375 .37060548 .4609375 .31689454 .4609375 .2735189 .4404551 .24047852 .39949037 .20743816 .3585256 .18473308 .30910746 .17236328 .25123597 .16064453 .19563294 .16300456 .14929708 .17944336 .11222839 .19588216 .07516988 .23063152 .056640626 .2836914 .056640626 .34195964 .056640626 .38663737 .07866923 .4177246 .12272644 .44881187 .16678365 .4700521 .21579488 .4814453 .26976014M.57373049 .27223207C.55582687 .18784078 .5205078 .1181132 .46777345 .06304932 .41503907 .0079956059 .34554038-.01953125 .25927735-.01953125 .18733724-.01953125 .13541667 .0048217775 .103515628 .053527833 .071614589 .10223389 .06429037 .16763814 .08154297 .2497406 .10042318 .33771263 .13769531 .40776063 .19335938 .45988465 .24902344 .51201888 .31445313 .53808596 .38964845 .53808596 .45703126 .53808596 .509196 .5156047 .5461426 .4706421 .5830892 .42567954 .59228518 .35954286 .57373049 .27223207Z"/>
<path id="font_2_20" d="M.17529297 .5234375H.25878907L.24316406 .44914247C.27441407 .47977195 .30525718 .50176498 .33569337 .51512148 .36612956 .52847799 .39827476 .53515627 .4321289 .53515627 .50634768 .53515627 .55094406 .5092519 .56591799 .45744325 .57438156 .42910258 .5730794 .38853965 .5620117 .3357544L.49072267 0H.4013672L.4711914 .3299408C.47802735 .36188255 .47884117 .38762919 .4736328 .4071808 .46484376 .4397634 .4399414 .4560547 .39892579 .4560547 .37809245 .4560547 .3605143 .4539388 .3461914 .44970704 .32047526 .4425354 .29622398 .42819724 .2734375 .4066925 .25520835 .38941957 .24194336 .37157694 .23364258 .35316468 .2253418 .3347524 .21761067 .30843608 .21044922 .2742157L.15234375 0H.064453128L.17529297 .5234375Z"/>
<path id="font_2_25" d="M.2241211 .6689453H.31298829L.28173829 .5234375H.36523438L.35009767 .45117188H.26660157L.19384766 .10948181C.1899414 .0912323 .19352214 .07901001 .20458985 .07281494 .21077474 .069234218 .22184246 .06744385 .23779297 .06744385 .24202474 .06744385 .24658203 .06752523 .25146485 .06768799 .25634767 .067850749 .26220704 .06825765 .26904298 .06890869L.25439454-.00048828127C.24365235-.0034179688 .23266602-.005533854 .22143555-.0068359377 .21020508-.0081380209 .19824219-.0087890629 .18554688-.0087890629 .14453125-.0087890629 .118896488 .0017191569 .10864258 .022735596 .09838867 .043752035 .096842449 .07104492 .104003909 .10461426L.17773438 .45117188H.106933597L.12207031 .5234375H.1928711L.2241211 .6689453Z"/>
<path id="font_2_23" d="M.17773438 .5234375H.26123048L.2421875 .43301393C.25260417 .4506124 .2738444 .47203575 .3059082 .49728395 .33797203 .52253219 .37141929 .53515627 .40625 .53515627 .4078776 .53515627 .41064454 .5349579 .41455079 .53456118 .41845704 .5341746 .42496745 .5333964 .43408204 .53222659L.41455079 .4399414C.40934245 .44091798 .4046224 .441569 .40039063 .44189454 .39615885 .44222007 .3914388 .4423828 .38623048 .4423828 .34195964 .4423828 .30493165 .428126 .27514649 .39961244 .24536133 .37109886 .22639974 .338267 .21826172 .30111695L.15478516 0H.06689453L.17773438 .5234375Z"/>
<path id="font_2_19" d="M.21923828 .71777346H.3071289L.15478516 0H.06689453L.21923828 .71777346Z"/>
<path id="font_2_22" d="M.484375 .26513673C.49316407 .30680339 .4946289 .3426107 .48876954 .3725586 .47835288 .43017579 .4428711 .45898438 .38232423 .45898438 .3214518 .45898438 .27327476 .4285482 .23779297 .36767579 .21891277 .3351237 .20410156 .29378257 .19335938 .24365235 .18489583 .20328777 .18375652 .16894531 .1899414 .140625 .20100911 .08658854 .2368164 .059570314 .29736329 .059570314 .3383789 .059570314 .3761393 .07674154 .41064454 .111083988 .44514976 .14542644 .46972657 .19677735 .484375 .26513673M.16796875 .5214844H.25341798L.23876953 .45214845C.26123048 .47591148 .28434245 .49430339 .30810548 .5073242 .34195964 .52652999 .37890626 .5361328 .4189453 .5361328 .4781901 .5361328 .5236003 .5134074 .5551758 .46795655 .5867513 .4225057 .5935872 .35758973 .5756836 .27320863 .55159506 .1591746 .5045573 .07772318 .4345703 .02885437 .39029948-.0021006268 .34309898-.017578125 .29296876-.017578125 .25358073-.017578125 .22233074-.008895874 .19921875 .008468628 .18554688 .018295289 .17171224 .035166425 .15771485 .05908203L.10107422-.20898438H.013183594L.16796875 .5214844Z"/>
<path id="font_2_11" d="M.23730469 .057617189C.26822917 .057617189 .2998047 .06476847 .33203126 .079071048 .3857422 .10281372 .41845704 .14166768 .43017579 .19563294L.44482423 .26635743C.43277995 .25953166 .417806 .25384013 .39990235 .24928284 .3819987 .24473572 .3647461 .2414856 .34814454 .23953247L.29345704 .23271179C.26057945 .22848003 .2351888 .22181194 .21728516 .21270752 .18701172 .19742839 .16829427 .17304485 .16113281 .13955689 .15559896 .11419678 .16056316 .09419759 .17602539 .079559329 .19148763 .064931239 .21191406 .057617189 .23730469 .057617189M.4116211 .31723023C.43245445 .31984458 .44791667 .32831828 .4580078 .34265138 .46354167 .35047404 .46777345 .3617147 .47070313 .3763733 .47721354 .40635173 .4711914 .4281006 .45263673 .44161988 .43408204 .45514933 .4049479 .46191407 .36523438 .46191407 .31933595 .46191407 .2841797 .44954429 .25976563 .4248047 .24609375 .4111328 .23486328 .39078776 .22607422 .36376954H.14404297C.15934246 .42822267 .18977864 .47306315 .23535156 .49829103 .28092448 .52351889 .33024089 .5361328 .38330079 .5361328 .44482423 .5361328 .4921875 .52441409 .5253906 .50097659 .55859377 .47753907 .569987 .44108073 .5595703 .39160157L.49560548 .09033203C.49365235 .081217449 .49389649 .07389323 .4963379 .068359378 .4987793 .06282552 .50602218 .060058595 .5180664 .060058595 .52197268 .060058595 .52644857 .060343427 .53149417 .060913087 .53653976 .061482748 .5419922 .06233724 .54785159 .06347656L.5336914-.0027618409C.51936849-.0067392985 .5085449-.009226481 .5012207-.010223389 .49389649-.011220296 .48404948-.01171875 .4716797-.01171875 .44140626-.01171875 .42171226-.00090026858 .41259767 .020736695 .40771485 .032211305 .40608726 .04843648 .40771485 .06941223 .38460288 .045954389 .3544922 .02558899 .3173828 .00831604 .28027345-.008946736 .24153646-.017578125 .20117188-.017578125 .15266927-.017578125 .116129558-.0028330486 .091552738 .026657105 .066975917 .05614726 .05940755 .093048099 .068847659 .13735962 .07926432 .18591309 .10245768 .22355144 .13842774 .25027467 .17439778 .2769979 .21761067 .29345194 .2680664 .29963685L.4116211 .31723023Z"/>
<path id="font_2_24" d="M.15136719 .1640625C.14778646 .13463338 .15039063 .11207072 .15917969 .09637451 .1751302 .06793213 .21044922 .053710939 .26513673 .053710939 .2976888 .053710939 .32788087 .060806276 .3557129 .07499695 .38354493 .08918762 .40055339 .11112467 .40673829 .1408081 .4116211 .16330974 .40527345 .1804301 .3876953 .19216919 .3766276 .199351 .35335288 .20767212 .3178711 .21713257L.25195313 .23474121C.20963542 .24582927 .17936199 .2582245 .16113281 .27192689 .1282552 .29574076 .116373699 .32868449 .12548828 .37075807 .13590496 .42033897 .16219075 .46045939 .2043457 .49111939 .24650066 .52177938 .2976888 .5371094 .35791017 .5371094 .4366862 .5371094 .48860679 .5139974 .5136719 .46777345 .5292969 .43847657 .5332031 .40690104 .5253906 .37304688H.4423828C.44498698 .39290367 .44173179 .41097007 .4326172 .4272461 .41731773 .45035807 .38476563 .46191407 .33496095 .46191407 .3017578 .46191407 .27530924 .45555116 .25561524 .44282533 .23592122 .43010966 .22379558 .41331483 .21923828 .3924408 .21435547 .36960349 .22167969 .3513387 .24121094 .33764649 .25260417 .32948814 .27034507 .3223114 .2944336 .31611634L.34960938 .30192567C.40950523 .28659568 .44873048 .27175395 .46728517 .2574005 .49658204 .23488872 .50602218 .19949849 .49560548 .15122986 .48583985 .10458883 .4597168 .064305629 .41723634 .030380249 .37475587-.0035451253 .3173828-.020507813 .24511719-.020507813 .1673177-.020507813 .1159668-.002802531 .09106445 .032608034 .06616211 .06801859 .05810547 .111836757 .06689453 .1640625H.15136719Z"/>
<path id="font_2_14" d="M.5629883 .44125367C.57503256 .4148458 .5802409 .3840332 .5786133 .34881593 .5789388 .32468669 .57340499 .2862142 .5620117 .23339844H.17871094C.16894531 .18033855 .17244466 .13777669 .18920899 .10571289 .20597331 .073649089 .2389323 .057617189 .28808595 .057617189 .33398438 .057617189 .3736979 .072779338 .40722657 .10310364 .4267578 .12070211 .44222007 .14107768 .45361329 .16423035H.54003909C.5335286 .14500427 .521403 .12358093 .5036621 .09996033 .48592124 .07633972 .4674479 .057037355 .4482422 .042053224 .41601563 .015981039 .37923179-.0016174316 .33789063-.0107421879 .3154297-.015950522 .29085288-.018554688 .26416017-.018554688 .19905599-.018554688 .14892578 .0051472985 .11376953 .05255127 .07861328 .09995524 .07014974 .16634114 .088378909 .25170899 .106282558 .33576457 .14355469 .40401713 .20019531 .45646668 .25683595 .5089264 .3219401 .53515627 .3955078 .53515627 .4326172 .53515627 .46679688 .5264333 .49804688 .5089874 .5292969 .49154154 .55094406 .46896363 .5629883 .44125367M.48632813 .30371095C.4908854 .3416748 .48909507 .37201438 .48095704 .3947296 .46598307 .43691508 .43033854 .4580078 .37402345 .4580078 .33365885 .4580078 .29671226 .44348655 .2631836 .41444398 .22965496 .3854014 .20719402 .3484904 .19580078 .30371095H.48632813Z"/>
<path id="font_3_1" d="M0 0Z"/>
<path id="font_2_17" d="M.21728516 .71972659H.30517579L.24804688 .45214845C.2747396 .4786682 .29752604 .4973297 .31640626 .50813296 .3486328 .5267995 .38590495 .5361328 .42822267 .5361328 .50406906 .5361328 .5498047 .50957748 .5654297 .45646668 .57389327 .42747499 .5727539 .38723756 .5620117 .3357544L.49072267 0H.40039063L.47021485 .32958985C.47835288 .3680013 .4794922 .39615885 .4736328 .4140625 .46354167 .44270835 .43652345 .45703126 .39257813 .45703126 .35611979 .45703126 .32047526 .4444987 .28564454 .4194336 .2508138 .3943685 .22591146 .34700523 .2109375 .27734376L.15234375 0H.064453128L.21728516 .71972659Z"/>
<path id="font_2_13" d="M.28222657 .05859375C.32291667 .05859375 .36002604 .076044719 .3935547 .110946658 .42708335 .14585877 .45084635 .19594829 .46484376 .2612152 .47884117 .32713319 .4757487 .37592063 .4555664 .4075775 .43538413 .4392446 .4054362 .45507813 .36572267 .45507813 .3214518 .45507813 .28198243 .43819175 .24731446 .40441896 .21264649 .37064616 .1883138 .32096354 .1743164 .2553711 .16227214 .19952393 .16414388 .15276592 .17993164 .115097049 .1957194 .077428188 .2298177 .05859375 .28222657 .05859375M.46044923 .50683596C.4741211 .4970703 .48828126 .47998048 .5029297 .4555664L.55908206 .71972659H.6435547L.49072267 0H.4116211L.4267578 .072753909C.39941407 .040527345 .37019859 .017252604 .33911134 .0029296876 .30802409-.0113932299 .27441407-.018554688 .23828125-.018554688 .18001302-.018554688 .13476563 .0059407555 .10253906 .05493164 .0703125 .10392252 .06298828 .16910808 .080566409 .25048829 .09651693 .32666017 .12988281 .39265953 .18066406 .44848634 .23144531 .5043132 .29296876 .53222659 .36523438 .53222659 .40527345 .53222659 .43701173 .523763 .46044923 .50683596Z"/>
<path id="font_2_15" d="M.25048829 .6826172C.277181 .7125651 .31982423 .72753909 .37841798 .72753909 .3839518 .72753909 .38964845 .7273763 .3955078 .7270508 .4013672 .7267253 .4078776 .726237 .41503907 .72558596L.39794923 .6455078C.38916017 .6461589 .3827311 .64656576 .3786621 .6467285 .3745931 .6468913 .37076823 .64697268 .3671875 .64697268 .34049479 .64697268 .32307945 .64005538 .3149414 .6262207 .30680339 .61238607 .29671226 .57714846 .28466798 .5205078H.37158204L.3569336 .45117188H.26904298L.17333985 0H.08642578L.1821289 .45117188H.109375L.12402344 .5205078H.19677735L.21435547 .60253909C.22347005 .6389974 .23551433 .6656901 .25048829 .6826172Z"/>
<path id="font_2_12" d="M.55029299 .3466797H.46484376C.46647135 .37890626 .46028648 .40568034 .44628907 .42700196 .43229167 .44832359 .40478517 .45898438 .36376954 .45898438 .30777995 .45898438 .2618815 .43164063 .22607422 .37695313 .20296224 .34147135 .18587239 .2976888 .17480469 .24560547 .16341146 .19319661 .16503906 .14908855 .1796875 .11328125 .19433594 .07747396 .22542317 .059570314 .27294923 .059570314 .30940757 .059570314 .34065757 .0707194 .36669923 .09301758 .39274089 .11531576 .41389976 .14583333 .43017579 .18457031H.515625C.49121095 .115234378 .4560547 .06453451 .41015626 .032470704 .3642578 .00040690104 .3108724-.015625 .25-.015625 .18164063-.015625 .1324056 .009379069 .10229492 .059387208 .07218424 .10940552 .065104167 .17188008 .08105469 .24681092 .10058594 .33868919 .13810222 .41020204 .19360352 .4613495 .24910482 .51250717 .3113607 .53808596 .3803711 .53808596 .43929038 .53808596 .48413087 .5237274 .5148926 .49501039 .5456543 .46629334 .5574544 .41684977 .55029299 .3466797Z"/>
<path id="font_2_26" d="M.2631836 .5234375 .18945313 .17590332C.18391927 .1491801 .18359375 .12734477 .18847656 .11039734 .19726563 .07911682 .22298177 .06347656 .265625 .06347656 .3268229 .06347656 .37434898 .09085083 .40820313 .14559937 .42643229 .17492676 .44091798 .21516927 .45166017 .2663269L.50634768 .5234375H.5942383L.48339845 0H.40039063L.41748048 .076828C.40185548 .056930543 .3841146 .0401357 .3642578 .026443482 .32486979-.00095113119 .28125-.0146484379 .23339844-.0146484379 .15885417-.0146484379 .11344401 .010299683 .09716797 .060195924 .08805338 .08693949 .08821615 .12265015 .09765625 .16732788L.17333985 .5234375H.2631836Z"/>
<path id="font_2_18" d="M.17480469 .5205078H.26416017L.1538086 0H.064453128L.17480469 .5205078M.21679688 .71777346H.30615235L.28466798 .61816409H.1953125L.21679688 .71777346Z"/>
<path id="font_2_28" d="M.25048829 .6826172C.277181 .7125651 .31982423 .72753909 .37841798 .72753909 .3839518 .72753909 .38964845 .7273763 .3955078 .7270508 .4013672 .7267253 .4078776 .726237 .41503907 .72558596L.39794923 .6455078C.38916017 .6461589 .3827311 .64656576 .3786621 .6467285 .3745931 .6468913 .37076823 .64697268 .3671875 .64697268 .34049479 .64697268 .32307945 .64005538 .3149414 .6262207 .30680339 .61238607 .29671226 .57714846 .28466798 .5205078H.37158204L.3569336 .45117188H.26904298L.17333985 0H.08642578L.1821289 .45117188H.109375L.12402344 .5205078H.19677735L.21435547 .60253909C.22347005 .6389974 .23551433 .6656901 .25048829 .6826172M.4765625 .6171875 .49804688 .7167969H.5859375L.5644531 .6171875H.4765625M.4560547 .5205078H.5439453L.43359376 0H.34570313L.4560547 .5205078Z"/>
<path id="font_2_6" d="M.06933594 .21484375H.16113281C.15527344 .16945394 .15673828 .13646953 .16552735 .1158905 .1805013 .07899475 .21777344 .060546876 .27734376 .060546876 .32356773 .060546876 .36328126 .07296244 .39648438 .09779358 .4296875 .12262472 .45052085 .15464275 .45898438 .19384766 .46907554 .24220784 .46142579 .2760264 .43603517 .29530335 .41064454 .3145803 .37174479 .32421876 .31933595 .32421876 .31347657 .32421876 .3075358 .32413737 .30151368 .3239746 .29549156 .32381187 .28938804 .32356773 .28320313 .3232422L.2998047 .4013672C.30859376 .40019737 .31608073 .39941407 .32226563 .39901734 .32845054 .39863078 .3351237 .3984375 .34228517 .3984375 .37516276 .3984375 .4033203 .40363566 .4267578 .41403199 .4674479 .43222047 .49283854 .46470133 .5029297 .5114746 .5104167 .54622396 .50374349 .5730184 .48291017 .5918579 .4620768 .61069747 .43522135 .6201172 .40234376 .6201172 .34375 .6201172 .29915367 .60058596 .2685547 .56152346 .2516276 .54003909 .23811849 .5094401 .22802735 .46972657H.14111328C.15218099 .5218099 .17203777 .56608077 .2006836 .60253909 .25016276 .66764327 .31998698 .7001953 .41015626 .7001953 .4814453 .7001953 .5332845 .6843465 .5656738 .6526489 .5980632 .6209615 .60791018 .5750529 .59521487 .5149231 .5857747 .47201539 .56673178 .4372355 .53808596 .4105835 .5201823 .39401246 .4988607 .38101197 .4741211 .37158204 .5086263 .36147056 .5332031 .34196983 .54785159 .31307984 .5625 .28420005 .5654297 .24887593 .5566406 .20710755 .5423177 .14021302 .5087077 .08571371 .45581056 .04360962 .40291343 .0015157064 .33610026-.01953125 .2553711-.01953125 .1726888-.01953125 .1175944 .0032196046 .09008789 .048721315 .06258138 .09423319 .055664064 .14960735 .06933594 .21484375Z"/>
<path id="font_2_10" d="M.25048829 .71777346H.3486328L.19628906 0H.09814453L.25048829 .71777346Z"/>
<path id="font_2_7" d="M.3828125 .24804688 .4501953 .5649414 .1586914 .24804688H.3828125M.33203126 0 .36816407 .17089844H.061523439L.079589847 .25683595 .4946289 .7011719H.56884768L.47216798 .24804688H.5751953L.55908206 .17089844H.4560547L.41992188 0H.33203126Z"/>
<path id="font_2_9" d="M.23095703 .71777346H.32910157L.26611329 .42089845H.63916018L.70214846 .71777346H.80029299L.6479492 0H.5498047L.62109377 .33496095H.24804688L.17675781 0H.07861328L.23095703 .71777346Z"/>
<path id="font_2_27" d="M.12548828 .5234375H.23925781L.3203125 .33918763 .48095704 .5234375 .58740237 .5209961 .35742188 .26831056 .48486329 0H.3725586L.2841797 .19647217 .11669922 0H.0053710939L.24609375 .26831056 .12548828 .5234375Z"/>
<path id="font_2_4" d="M.2006836 .4951172 .21484375 .5625C.2796224 .5686849 .32609049 .5790202 .35424806 .59350588 .3824056 .6079915 .40852867 .6422526 .4326172 .69628909H.5019531L.3540039 0H.2602539L.36523438 .4951172H.2006836Z"/>
<path id="font_2_16" d="M.46289063 .50193789C.47721354 .49053446 .4905599 .47392274 .5029297 .45210267L.51708987 .51802065H.59814456L.4970703 .042160036C.4830729-.024286906 .4622396-.07672628 .4345703-.11515808 .3828125-.18617249 .3063151-.22167969 .20507813-.22167969 .14876302-.22167969 .10408529-.20914714 .07104492-.18408203 .03800456-.15901692 .024902344-.119628909 .03173828-.06591797H.12109375C.12044271-.08935547 .12516277-.107421878 .1352539-.12011719 .1508789-.13964844 .18001302-.14941406 .22265625-.14941406 .29003907-.14941406 .33919273-.12557984 .3701172-.07791138 .38834635-.04982503 .4046224 .00029500327 .4189453 .07244873 .39583335 .04569499 .37052409 .02579244 .34301759 .012741089 .31551109-.00031026206 .28141276-.0068359377 .24072266-.0068359377 .18408203-.0068359377 .13875325 .013280232 .10473633 .053512575 .0707194 .09375509 .06363932 .16030376 .083496097 .25315858 .10205078 .34080506 .13793946 .40922547 .19116211 .4584198 .24438477 .5076243 .30126954 .53222659 .3618164 .53222659 .40283204 .53222659 .43652345 .5221303 .46289063 .50193789M.36132813 .45410157C.29947917 .45410157 .2511393 .4251658 .2163086 .3672943 .19742839 .33641053 .18277996 .29593406 .17236328 .24586487 .15966797 .1870168 .162028 .14223226 .17944336 .11151123 .19685872 .0807902 .2257487 .06542969 .26611329 .06542969 .3292643 .06542969 .37972007 .09387716 .41748048 .1507721 .4386393 .18295796 .45377604 .22050984 .46289063 .26342774 .47688804 .328125 .47379557 .37607829 .45361329 .4072876 .433431 .43849693 .40266929 .45410157 .36132813 .45410157Z"/>
</defs>
<g clip-path="url(#clip_0)">
<g clip-path="url(#clip_1)">
<path transform="matrix(1,0,0,-1,-.778381,540)" d="M0 539.9999H719.9999V.00003079383H0Z" fill="#ffffff" fill-rule="evenodd"/>
<path transform="matrix(.00007874014,0,0,.00007874014,174.84662,10.750122)" stroke-width="12700" stroke-linecap="butt" stroke-linejoin="round" fill="none" stroke="#000000" d="M.03680423 .2414552V573087.8"/>
<path transform="matrix(1,0,0,-1,-.778381,540)" d="M178.625 488.1249 175.625 482.1249 172.625 488.1249Z" fill-rule="evenodd"/>
<path transform="matrix(.00007874014,0,0,.00007874014,175.34662,58.37509)" stroke-width="12700" stroke-linecap="butt" stroke-linejoin="round" fill="none" stroke="#000000" d="M.03778079 .2220461H2374900"/>
<path transform="matrix(1,0,0,-1,-.778381,540)" d="M359.125 484.6249 365.125 481.6249 359.125 478.6249Z" fill-rule="evenodd"/>
<path transform="matrix(-.00007874014,-0,0,.00007874014,364.22163,58.87509)" stroke-width="12700" stroke-linecap="butt" stroke-linejoin="round" fill="none" stroke="#000000" d="M.1746827 .2230226 .9498293 508000.3"/>
<path transform="matrix(1,0,0,-1,-.778381,540)" d="M361.9999 445.1249 364.9999 439.1249 367.9999 445.1249Z" fill-rule="evenodd"/>
<path transform="matrix(-.00007874014,-0,0,-.00007874014,360.34663,98.87509)" stroke-width="12700" stroke-linecap="butt" stroke-linejoin="round" fill="none" stroke="#000000" d="M.2946777-.3011476 2327613 383223.2"/>
<path transform="matrix(1,0,0,-1,-.778381,540)" d="M181.308 467.69 175.875 471.6249 182.2827 473.6103Z" fill-rule="evenodd"/>
<path transform="matrix(.00007874014,0,0,.00007874014,174.97162,69.00009)" stroke-width="12700" stroke-linecap="butt" stroke-linejoin="round" fill="none" stroke="#000000" d="M-.1005249-.1447753 3082.851 850900"/>
<path transform="matrix(1,0,0,-1,-.778381,540)" d="M178.9782 408.0108 176 401.9999 172.9783 407.989Z" fill-rule="evenodd"/>
<use data-text="(" xlink:href="#font_2_2" transform="matrix(16,0,0,-16,202.34592,13.499817)"/>
<use data-text="2" xlink:href="#font_2_5" transform="matrix(16,0,0,-16,207.67392,13.499817)"/>
<use data-text=")" xlink:href="#font_2_3" transform="matrix(16,0,0,-16,216.57312,13.499817)"/>
<use data-text=" " xlink:href="#font_2_1" transform="matrix(16,0,0,-16,221.90113,13.499817)"/>
<use data-text="C" xlink:href="#font_2_8" transform="matrix(16,0,0,-16,226.34592,13.499817)"/>
<use data-text="o" xlink:href="#font_2_21" transform="matrix(16,0,0,-16,237.90113,13.499817)"/>
<use data-text="n" xlink:href="#font_2_20" transform="matrix(16,0,0,-16,246.80033,13.499817)"/>
<use data-text="t" xlink:href="#font_2_25" transform="matrix(16,0,0,-16,255.69953,13.499817)"/>
<use data-text="r" xlink:href="#font_2_23" transform="matrix(16,0,0,-16,260.14433,13.499817)"/>
<use data-text="o" xlink:href="#font_2_21" transform="matrix(16,0,0,-16,265.47233,13.499817)"/>
<use data-text="l" xlink:href="#font_2_19" transform="matrix(16,0,0,-16,274.37153,13.499817)"/>
<use data-text=" " xlink:href="#font_2_1" transform="matrix(16,0,0,-16,277.92674,13.499817)"/>
<use data-text="p" xlink:href="#font_2_22" transform="matrix(16,0,0,-16,282.37153,13.499817)"/>
<use data-text="a" xlink:href="#font_2_11" transform="matrix(16,0,0,-16,291.27073,13.499817)"/>
<use data-text="s" xlink:href="#font_2_24" transform="matrix(16,0,0,-16,300.16993,13.499817)"/>
<use data-text="s" xlink:href="#font_2_24" transform="matrix(16,0,0,-16,308.16993,13.499817)"/>
<use data-text="e" xlink:href="#font_2_14" transform="matrix(16,0,0,-16,316.16993,13.499817)"/>
<use data-text="s" xlink:href="#font_2_24" transform="matrix(16,0,0,-16,325.06913,13.499817)"/>
<use data-text=" " xlink:href="#font_2_1" transform="matrix(16,0,0,-16,333.06913,13.499817)"/>
<use data-text="&#xfffd;" xlink:href="#font_3_1" transform="matrix(16,0,0,-16,337.51393,13.499817)"/>
<use data-text="t" xlink:href="#font_2_25" transform="matrix(16,0,0,-16,186.34592,32.499818)"/>
<use data-text="o" xlink:href="#font_2_21" transform="matrix(16,0,0,-16,190.79071,32.499818)"/>
<use data-text=" " xlink:href="#font_2_1" transform="matrix(16,0,0,-16,199.68991,32.499818)"/>
<use data-text="h" xlink:href="#font_2_17" transform="matrix(16,0,0,-16,204.13472,32.499818)"/>
<use data-text="a" xlink:href="#font_2_11" transform="matrix(16,0,0,-16,213.03392,32.499818)"/>
<use data-text="n" xlink:href="#font_2_20" transform="matrix(16,0,0,-16,221.93312,32.499818)"/>
<use data-text="d" xlink:href="#font_2_13" transform="matrix(16,0,0,-16,230.83232,32.499818)"/>
<use data-text="l" xlink:href="#font_2_19" transform="matrix(16,0,0,-16,239.73152,32.499818)"/>
<use data-text="e" xlink:href="#font_2_14" transform="matrix(16,0,0,-16,243.28673,32.499818)"/>
<use data-text="r" xlink:href="#font_2_23" transform="matrix(16,0,0,-16,252.18592,32.499818)"/>
<use data-text=" " xlink:href="#font_2_1" transform="matrix(16,0,0,-16,257.51393,32.499818)"/>
<use data-text="a" xlink:href="#font_2_11" transform="matrix(16,0,0,-16,261.95875,32.499818)"/>
<use data-text="f" xlink:href="#font_2_15" transform="matrix(16,0,0,-16,270.8579,32.499818)"/>
<use data-text="t" xlink:href="#font_2_25" transform="matrix(16,0,0,-16,275.30274,32.499818)"/>
<use data-text="e" xlink:href="#font_2_14" transform="matrix(16,0,0,-16,279.74754,32.499818)"/>
<use data-text="r" xlink:href="#font_2_23" transform="matrix(16,0,0,-16,288.64674,32.499818)"/>
<use data-text=" " xlink:href="#font_2_1" transform="matrix(16,0,0,-16,293.97474,32.499818)"/>
<use data-text="c" xlink:href="#font_2_12" transform="matrix(16,0,0,-16,298.41954,32.499818)"/>
<use data-text="u" xlink:href="#font_2_26" transform="matrix(16,0,0,-16,306.41954,32.499818)"/>
<use data-text="r" xlink:href="#font_2_23" transform="matrix(16,0,0,-16,315.31874,32.499818)"/>
<use data-text="r" xlink:href="#font_2_23" transform="matrix(16,0,0,-16,320.64674,32.499818)"/>
<use data-text="e" xlink:href="#font_2_14" transform="matrix(16,0,0,-16,325.97474,32.499818)"/>
<use data-text="n" xlink:href="#font_2_20" transform="matrix(16,0,0,-16,334.87397,32.499818)"/>
<use data-text="t" xlink:href="#font_2_25" transform="matrix(16,0,0,-16,343.77314,32.499818)"/>
<use data-text="&#xfffd;" xlink:href="#font_3_1" transform="matrix(16,0,0,-16,348.21797,32.499818)"/>
<use data-text="i" xlink:href="#font_2_18" transform="matrix(16,0,0,-16,201.34592,51.499696)"/>
<use data-text="n" xlink:href="#font_2_20" transform="matrix(16,0,0,-16,204.90113,51.499696)"/>
<use data-text="s" xlink:href="#font_2_24" transform="matrix(16,0,0,-16,213.80033,51.499696)"/>
<use data-text="t" xlink:href="#font_2_25" transform="matrix(16,0,0,-16,221.80033,51.499696)"/>
<use data-text="r" xlink:href="#font_2_23" transform="matrix(16,0,0,-16,226.24512,51.499696)"/>
<use data-text="u" xlink:href="#font_2_26" transform="matrix(16,0,0,-16,231.57312,51.499696)"/>
<use data-text="c" xlink:href="#font_2_12" transform="matrix(16,0,0,-16,240.47232,51.499696)"/>
<use data-text="t" xlink:href="#font_2_25" transform="matrix(16,0,0,-16,248.47232,51.499696)"/>
<use data-text="i" xlink:href="#font_2_18" transform="matrix(16,0,0,-16,252.91712,51.499696)"/>
<use data-text="o" xlink:href="#font_2_21" transform="matrix(16,0,0,-16,256.47233,51.499696)"/>
<use data-text="n" xlink:href="#font_2_20" transform="matrix(16,0,0,-16,265.37153,51.499696)"/>
<use data-text=" " xlink:href="#font_2_1" transform="matrix(16,0,0,-16,274.27073,51.499696)"/>
<use data-text="&#xfb01;" xlink:href="#font_2_28" transform="matrix(16,0,0,-16,278.7155,51.499696)"/>
<use data-text="n" xlink:href="#font_2_20" transform="matrix(16,0,0,-16,286.7155,51.499696)"/>
<use data-text="i" xlink:href="#font_2_18" transform="matrix(16,0,0,-16,295.61473,51.499696)"/>
<use data-text="s" xlink:href="#font_2_24" transform="matrix(16,0,0,-16,299.16993,51.499696)"/>
<use data-text="h" xlink:href="#font_2_17" transform="matrix(16,0,0,-16,307.16993,51.499696)"/>
<use data-text="e" xlink:href="#font_2_14" transform="matrix(16,0,0,-16,316.06913,51.499696)"/>
<use data-text="s" xlink:href="#font_2_24" transform="matrix(16,0,0,-16,324.96833,51.499696)"/>
<use data-text="&#xfffd;" xlink:href="#font_3_1" transform="matrix(16,0,0,-16,332.96833,51.499696)"/>
<use data-text="(" xlink:href="#font_2_2" transform="matrix(16,0,0,-16,384.7053,73.499698)"/>
<use data-text="3" xlink:href="#font_2_6" transform="matrix(16,0,0,-16,390.0333,73.499698)"/>
<use data-text=")" xlink:href="#font_2_3" transform="matrix(16,0,0,-16,398.9325,73.499698)"/>
<use data-text=" " xlink:href="#font_2_1" transform="matrix(16,0,0,-16,404.2605,73.499698)"/>
<use data-text="I" xlink:href="#font_2_10" transform="matrix(16,0,0,-16,408.7053,73.499698)"/>
<use data-text="n" xlink:href="#font_2_20" transform="matrix(16,0,0,-16,413.1501,73.499698)"/>
<use data-text="t" xlink:href="#font_2_25" transform="matrix(16,0,0,-16,422.0493,73.499698)"/>
<use data-text="e" xlink:href="#font_2_14" transform="matrix(16,0,0,-16,426.49409,73.499698)"/>
<use data-text="r" xlink:href="#font_2_23" transform="matrix(16,0,0,-16,435.3933,73.499698)"/>
<use data-text="r" xlink:href="#font_2_23" transform="matrix(16,0,0,-16,440.72129,73.499698)"/>
<use data-text="u" xlink:href="#font_2_26" transform="matrix(16,0,0,-16,446.0493,73.499698)"/>
<use data-text="p" xlink:href="#font_2_22" transform="matrix(16,0,0,-16,454.9485,73.499698)"/>
<use data-text="t" xlink:href="#font_2_25" transform="matrix(16,0,0,-16,463.8477,73.499698)"/>
<use data-text=" " xlink:href="#font_2_1" transform="matrix(16,0,0,-16,468.29249,73.499698)"/>
<use data-text="&#xfffd;" xlink:href="#font_3_1" transform="matrix(16,0,0,-16,468.29249,73.499698)"/>
<use data-text="h" xlink:href="#font_2_17" transform="matrix(16,0,0,-16,384.24827,92.499698)"/>
<use data-text="a" xlink:href="#font_2_11" transform="matrix(16,0,0,-16,393.14747,92.499698)"/>
<use data-text="n" xlink:href="#font_2_20" transform="matrix(16,0,0,-16,402.04667,92.499698)"/>
<use data-text="d" xlink:href="#font_2_13" transform="matrix(16,0,0,-16,410.94587,92.499698)"/>
<use data-text="l" xlink:href="#font_2_19" transform="matrix(16,0,0,-16,419.84507,92.499698)"/>
<use data-text="e" xlink:href="#font_2_14" transform="matrix(16,0,0,-16,423.40028,92.499698)"/>
<use data-text="r" xlink:href="#font_2_23" transform="matrix(16,0,0,-16,432.29948,92.499698)"/>
<use data-text=" " xlink:href="#font_2_1" transform="matrix(16,0,0,-16,437.62748,92.499698)"/>
<use data-text="r" xlink:href="#font_2_23" transform="matrix(16,0,0,-16,442.07228,92.499698)"/>
<use data-text="u" xlink:href="#font_2_26" transform="matrix(16,0,0,-16,447.40028,92.499698)"/>
<use data-text="n" xlink:href="#font_2_20" transform="matrix(16,0,0,-16,456.29948,92.499698)"/>
<use data-text="s" xlink:href="#font_2_24" transform="matrix(16,0,0,-16,465.19868,92.499698)"/>
<use data-text="&#xfffd;" xlink:href="#font_3_1" transform="matrix(16,0,0,-16,468.75389,92.499698)"/>
<use data-text="(" xlink:href="#font_2_2" transform="matrix(16,0,0,-16,229.34592,107.999698)"/>
<use data-text="4" xlink:href="#font_2_7" transform="matrix(16,0,0,-16,234.67392,107.999698)"/>
<use data-text=")" xlink:href="#font_2_3" transform="matrix(16,0,0,-16,243.57312,107.999698)"/>
<use data-text=" " xlink:href="#font_2_1" transform="matrix(16,0,0,-16,248.90113,107.999698)"/>
<use data-text="H" xlink:href="#font_2_9" transform="matrix(16,0,0,-16,253.34592,107.999698)"/>
<use data-text="a" xlink:href="#font_2_11" transform="matrix(16,0,0,-16,264.90113,107.999698)"/>
<use data-text="n" xlink:href="#font_2_20" transform="matrix(16,0,0,-16,273.80033,107.999698)"/>
<use data-text="d" xlink:href="#font_2_13" transform="matrix(16,0,0,-16,282.69953,107.999698)"/>
<use data-text="l" xlink:href="#font_2_19" transform="matrix(16,0,0,-16,291.59873,107.999698)"/>
<use data-text="e" xlink:href="#font_2_14" transform="matrix(16,0,0,-16,295.15394,107.999698)"/>
<use data-text="r" xlink:href="#font_2_23" transform="matrix(16,0,0,-16,304.0531,107.999698)"/>
<use data-text="&#xfffd;" xlink:href="#font_3_1" transform="matrix(16,0,0,-16,309.3811,107.999698)"/>
<use data-text="r" xlink:href="#font_2_23" transform="matrix(16,0,0,-16,235.34592,126.999698)"/>
<use data-text="e" xlink:href="#font_2_14" transform="matrix(16,0,0,-16,240.67392,126.999698)"/>
<use data-text="t" xlink:href="#font_2_25" transform="matrix(16,0,0,-16,249.57312,126.999698)"/>
<use data-text="u" xlink:href="#font_2_26" transform="matrix(16,0,0,-16,254.01792,126.999698)"/>
<use data-text="r" xlink:href="#font_2_23" transform="matrix(16,0,0,-16,262.9171,126.999698)"/>
<use data-text="n" xlink:href="#font_2_20" transform="matrix(16,0,0,-16,268.24513,126.999698)"/>
<use data-text="s" xlink:href="#font_2_24" transform="matrix(16,0,0,-16,277.14433,126.999698)"/>
<use data-text=" " xlink:href="#font_2_1" transform="matrix(16,0,0,-16,285.14433,126.999698)"/>
<use data-text="t" xlink:href="#font_2_25" transform="matrix(16,0,0,-16,289.5891,126.999698)"/>
<use data-text="o" xlink:href="#font_2_21" transform="matrix(16,0,0,-16,294.03395,126.999698)"/>
<use data-text=" " xlink:href="#font_2_1" transform="matrix(16,0,0,-16,302.9331,126.999698)"/>
<use data-text="&#xfffd;" xlink:href="#font_3_1" transform="matrix(16,0,0,-16,307.37794,126.999698)"/>
<use data-text="n" xlink:href="#font_2_20" transform="matrix(16,0,0,-16,215.34592,145.9997)"/>
<use data-text="e" xlink:href="#font_2_14" transform="matrix(16,0,0,-16,224.24512,145.9997)"/>
<use data-text="x" xlink:href="#font_2_27" transform="matrix(16,0,0,-16,233.14432,145.9997)"/>
<use data-text="t" xlink:href="#font_2_25" transform="matrix(16,0,0,-16,241.14432,145.9997)"/>
<use data-text=" " xlink:href="#font_2_1" transform="matrix(16,0,0,-16,245.58911,145.9997)"/>
<use data-text="i" xlink:href="#font_2_18" transform="matrix(16,0,0,-16,250.03392,145.9997)"/>
<use data-text="n" xlink:href="#font_2_20" transform="matrix(16,0,0,-16,253.58911,145.9997)"/>
<use data-text="s" xlink:href="#font_2_24" transform="matrix(16,0,0,-16,262.4883,145.9997)"/>
<use data-text="t" xlink:href="#font_2_25" transform="matrix(16,0,0,-16,270.4883,145.9997)"/>
<use data-text="r" xlink:href="#font_2_23" transform="matrix(16,0,0,-16,274.9331,145.9997)"/>
<use data-text="u" xlink:href="#font_2_26" transform="matrix(16,0,0,-16,280.2611,145.9997)"/>
<use data-text="c" xlink:href="#font_2_12" transform="matrix(16,0,0,-16,289.16035,145.9997)"/>
<use data-text="t" xlink:href="#font_2_25" transform="matrix(16,0,0,-16,297.16035,145.9997)"/>
<use data-text="i" xlink:href="#font_2_18" transform="matrix(16,0,0,-16,301.60514,145.9997)"/>
<use data-text="o" xlink:href="#font_2_21" transform="matrix(16,0,0,-16,305.16035,145.9997)"/>
<use data-text="n" xlink:href="#font_2_20" transform="matrix(16,0,0,-16,314.0595,145.9997)"/>
<use data-text="&#xfffd;" xlink:href="#font_3_1" transform="matrix(16,0,0,-16,322.95875,145.9997)"/>
<use data-text="I" xlink:href="#font_2_10" transform="matrix(16,0,0,-16,142.42162,55.725099)"/>
<use data-text="c" xlink:href="#font_2_12" transform="matrix(10.66666,0,0,-10.66666,146.86693,59.725099)"/>
<use data-text="u" xlink:href="#font_2_26" transform="matrix(10.66666,0,0,-10.66666,152.20026,59.725099)"/>
<use data-text="r" xlink:href="#font_2_23" transform="matrix(10.66666,0,0,-10.66666,158.13306,59.725099)"/>
<use data-text="r" xlink:href="#font_2_23" transform="matrix(10.66666,0,0,-10.66666,161.68506,59.725099)"/>
<use data-text="&#xfffd;" xlink:href="#font_3_1" transform="matrix(16,0,0,-16,165.2367,55.725099)"/>
<use data-text="I" xlink:href="#font_2_10" transform="matrix(16,0,0,-16,142.42162,71.2251)"/>
<use data-text="n" xlink:href="#font_2_20" transform="matrix(10.66666,0,0,-10.66666,146.86693,75.2251)"/>
<use data-text="e" xlink:href="#font_2_14" transform="matrix(10.66666,0,0,-10.66666,152.79973,75.2251)"/>
<use data-text="x" xlink:href="#font_2_27" transform="matrix(10.66666,0,0,-10.66666,158.73252,75.2251)"/>
<use data-text="t" xlink:href="#font_2_25" transform="matrix(10.66666,0,0,-10.66666,164.06586,75.2251)"/>
<use data-text="&#xfffd;" xlink:href="#font_3_1" transform="matrix(16,0,0,-16,167.02835,71.2251)"/>
<use data-text="(" xlink:href="#font_2_2" transform="matrix(16,0,0,-16,10.671618,32.100099)"/>
<use data-text="1" xlink:href="#font_2_4" transform="matrix(16,0,0,-16,15.999619,32.100099)"/>
<use data-text=")" xlink:href="#font_2_3" transform="matrix(16,0,0,-16,24.898819,32.100099)"/>
<use data-text=" " xlink:href="#font_2_1" transform="matrix(16,0,0,-16,30.226819,32.100099)"/>
<use data-text="I" xlink:href="#font_2_10" transform="matrix(16,0,0,-16,34.67162,32.100099)"/>
<use data-text="n" xlink:href="#font_2_20" transform="matrix(16,0,0,-16,39.116418,32.100099)"/>
<use data-text="t" xlink:href="#font_2_25" transform="matrix(16,0,0,-16,48.01562,32.100099)"/>
<use data-text="e" xlink:href="#font_2_14" transform="matrix(16,0,0,-16,52.460424,32.100099)"/>
<use data-text="r" xlink:href="#font_2_23" transform="matrix(16,0,0,-16,61.359624,32.100099)"/>
<use data-text="r" xlink:href="#font_2_23" transform="matrix(16,0,0,-16,66.68762,32.100099)"/>
<use data-text="u" xlink:href="#font_2_26" transform="matrix(16,0,0,-16,72.01562,32.100099)"/>
<use data-text="p" xlink:href="#font_2_22" transform="matrix(16,0,0,-16,80.91482,32.100099)"/>
<use data-text="t" xlink:href="#font_2_25" transform="matrix(16,0,0,-16,89.81402,32.100099)"/>
<use data-text=" " xlink:href="#font_2_1" transform="matrix(16,0,0,-16,94.25882,32.100099)"/>
<use data-text="p" xlink:href="#font_2_22" transform="matrix(16,0,0,-16,98.70362,32.100099)"/>
<use data-text="i" xlink:href="#font_2_18" transform="matrix(16,0,0,-16,107.60282,32.100099)"/>
<use data-text="n" xlink:href="#font_2_20" transform="matrix(16,0,0,-16,111.15802,32.100099)"/>
<use data-text="&#xfffd;" xlink:href="#font_3_1" transform="matrix(16,0,0,-16,120.05722,32.100099)"/>
<use data-text="g" xlink:href="#font_2_16" transform="matrix(16,0,0,-16,6.671617,51.100099)"/>
<use data-text="o" xlink:href="#font_2_21" transform="matrix(16,0,0,-16,15.570818,51.100099)"/>
<use data-text="e" xlink:href="#font_2_14" transform="matrix(16,0,0,-16,24.470019,51.100099)"/>
<use data-text="s" xlink:href="#font_2_24" transform="matrix(16,0,0,-16,33.369218,51.100099)"/>
<use data-text=" " xlink:href="#font_2_1" transform="matrix(16,0,0,-16,41.369218,51.100099)"/>
<use data-text="h" xlink:href="#font_2_17" transform="matrix(16,0,0,-16,45.81402,51.100099)"/>
<use data-text="i" xlink:href="#font_2_18" transform="matrix(16,0,0,-16,54.71322,51.100099)"/>
<use data-text="g" xlink:href="#font_2_16" transform="matrix(16,0,0,-16,58.26842,51.100099)"/>
<use data-text="h" xlink:href="#font_2_17" transform="matrix(16,0,0,-16,67.167629,51.100099)"/>
<use data-text=" " xlink:href="#font_2_1" transform="matrix(16,0,0,-16,76.06682,51.100099)"/>
<use data-text="d" xlink:href="#font_2_13" transform="matrix(16,0,0,-16,80.51162,51.100099)"/>
<use data-text="u" xlink:href="#font_2_26" transform="matrix(16,0,0,-16,89.41082,51.100099)"/>
<use data-text="r" xlink:href="#font_2_23" transform="matrix(16,0,0,-16,98.31002,51.100099)"/>
<use data-text="i" xlink:href="#font_2_18" transform="matrix(16,0,0,-16,103.63802,51.100099)"/>
<use data-text="n" xlink:href="#font_2_20" transform="matrix(16,0,0,-16,107.19322,51.100099)"/>
<use data-text="g" xlink:href="#font_2_16" transform="matrix(16,0,0,-16,116.09242,51.100099)"/>
<use data-text="&#xfffd;" xlink:href="#font_3_1" transform="matrix(16,0,0,-16,124.99162,51.100099)"/>
<use data-text="e" xlink:href="#font_2_14" transform="matrix(16,0,0,-16,22.67162,70.1001)"/>
<use data-text="x" xlink:href="#font_2_27" transform="matrix(16,0,0,-16,31.57082,70.1001)"/>
<use data-text="e" xlink:href="#font_2_14" transform="matrix(16,0,0,-16,39.57082,70.1001)"/>
<use data-text="c" xlink:href="#font_2_12" transform="matrix(16,0,0,-16,48.47002,70.1001)"/>
<use data-text="u" xlink:href="#font_2_26" transform="matrix(16,0,0,-16,56.47002,70.1001)"/>
<use data-text="t" xlink:href="#font_2_25" transform="matrix(16,0,0,-16,65.36922,70.1001)"/>
<use data-text="i" xlink:href="#font_2_18" transform="matrix(16,0,0,-16,69.814029,70.1001)"/>
<use data-text="o" xlink:href="#font_2_21" transform="matrix(16,0,0,-16,73.369228,70.1001)"/>
<use data-text="n" xlink:href="#font_2_20" transform="matrix(16,0,0,-16,82.268428,70.1001)"/>
<use data-text=" " xlink:href="#font_2_1" transform="matrix(16,0,0,-16,91.16762,70.1001)"/>
<use data-text="o" xlink:href="#font_2_21" transform="matrix(16,0,0,-16,95.61243,70.1001)"/>
<use data-text="f" xlink:href="#font_2_15" transform="matrix(16,0,0,-16,104.51163,70.1001)"/>
<use data-text=" " xlink:href="#font_2_1" transform="matrix(16,0,0,-16,108.95642,70.1001)"/>
<use data-text="&#xfffd;" xlink:href="#font_3_1" transform="matrix(16,0,0,-16,113.40123,70.1001)"/>
<use data-text="c" xlink:href="#font_2_12" transform="matrix(16,0,0,-16,1.671619,89.1001)"/>
<use data-text="u" xlink:href="#font_2_26" transform="matrix(16,0,0,-16,9.671619,89.1001)"/>
<use data-text="r" xlink:href="#font_2_23" transform="matrix(16,0,0,-16,18.57082,89.1001)"/>
<use data-text="r" xlink:href="#font_2_23" transform="matrix(16,0,0,-16,23.898819,89.1001)"/>
<use data-text="e" xlink:href="#font_2_14" transform="matrix(16,0,0,-16,29.226819,89.1001)"/>
<use data-text="n" xlink:href="#font_2_20" transform="matrix(16,0,0,-16,38.12602,89.1001)"/>
<use data-text="t" xlink:href="#font_2_25" transform="matrix(16,0,0,-16,47.02522,89.1001)"/>
<use data-text=" " xlink:href="#font_2_1" transform="matrix(16,0,0,-16,51.47002,89.1001)"/>
<use data-text="i" xlink:href="#font_2_18" transform="matrix(16,0,0,-16,55.91482,89.1001)"/>
<use data-text="n" xlink:href="#font_2_20" transform="matrix(16,0,0,-16,59.470026,89.1001)"/>
<use data-text="s" xlink:href="#font_2_24" transform="matrix(16,0,0,-16,68.36922,89.1001)"/>
<use data-text="t" xlink:href="#font_2_25" transform="matrix(16,0,0,-16,76.36922,89.1001)"/>
<use data-text="r" xlink:href="#font_2_23" transform="matrix(16,0,0,-16,80.81402,89.1001)"/>
<use data-text="u" xlink:href="#font_2_26" transform="matrix(16,0,0,-16,86.14202,89.1001)"/>
<use data-text="c" xlink:href="#font_2_12" transform="matrix(16,0,0,-16,95.04122,89.1001)"/>
<use data-text="t" xlink:href="#font_2_25" transform="matrix(16,0,0,-16,103.04122,89.1001)"/>
<use data-text="i" xlink:href="#font_2_18" transform="matrix(16,0,0,-16,107.48602,89.1001)"/>
<use data-text="o" xlink:href="#font_2_21" transform="matrix(16,0,0,-16,111.04122,89.1001)"/>
<use data-text="n" xlink:href="#font_2_20" transform="matrix(16,0,0,-16,119.94042,89.1001)"/>
<use data-text="&#xfffd;" xlink:href="#font_3_1" transform="matrix(16,0,0,-16,128.83963,89.1001)"/>
</g>
</g>
</svg>
