<svg xmlns="http://www.w3.org/2000/svg" xmlns:xlink="http://www.w3.org/1999/xlink" version="1.1" width="435.11125pt" height="249.858pt" viewBox="0 0 435.11125 249.858">
<defs>
<clipPath id="clip_0">
<path transform="matrix(1,0,0,-1,-1.55675,540)" d="M1.55675 290.142H436.668V540H1.55675Z" fill-rule="evenodd"/>
</clipPath>
<clipPath id="clip_1">
<path transform="matrix(1,0,0,-1,-1.55675,540)" d="M0 .00002324581H719.9999V540H0Z"/>
</clipPath>
<path id="font_2_6" d="M.59814456 .71777346V.63183596H.3564453V0H.2578125V.63183596H.016113282V.71777346H.59814456Z"/>
<path id="font_2_9" d="M.064453128 .5205078H.1538086V0H.064453128V.5205078M.064453128 .71777346H.1538086V.61816409H.064453128V.71777346Z"/>
<path id="font_2_10" d="M.064453128 .5234375H.15136719V.44921876C.17220052 .4749349 .19108074 .49365235 .20800781 .5053711 .23697917 .52522787 .26985679 .53515627 .30664063 .53515627 .34830729 .53515627 .38183595 .52490237 .40722657 .50439456 .42154948 .49267579 .4345703 .4754232 .44628907 .45263673 .4658203 .4806315 .48876954 .5013835 .5151367 .5148926 .5415039 .5284017 .5711263 .53515627 .6040039 .53515627 .6743164 .53515627 .72216799 .5097402 .7475586 .45890809 .76123049 .43154399 .7680664 .3947296 .7680664 .34846498V0H.6767578V.36367799C.6767578 .39853923 .6680501 .42248536 .65063479 .43551637 .6332194 .44855754 .6119792 .45507813 .58691409 .45507813 .5524089 .45507813 .5227051 .44350688 .49780274 .42036439 .4729004 .39723207 .46044923 .35861717 .46044923 .30451966V0H.37109376V.3416748C.37109376 .37719728 .36686198 .4031016 .35839845 .41938783 .3450521 .4438324 .32014976 .4560547 .2836914 .4560547 .25048829 .4560547 .22029622 .44318138 .19311524 .4174347 .16593425 .3916982 .15234375 .34510295 .15234375 .27764894V0H.064453128V.5234375Z"/>
<path id="font_2_8" d="M.28222657 .53515627C.31933595 .53515627 .355306 .52644857 .39013673 .5090332 .42496745 .49161784 .4514974 .4690806 .46972657 .4414215 .4873047 .41505433 .49902345 .3842977 .5048828 .3491516 .5100911 .32506309 .5126953 .28647868 .5126953 .23339844H.12939453C.13102214 .18033855 .14355469 .13777669 .16699219 .10571289 .19042969 .073649089 .22672527 .057617189 .2758789 .057617189 .32177735 .057617189 .35839845 .07261658 .3857422 .10261536 .4013672 .12003072 .4124349 .14018758 .4189453 .16308594H.5053711C.50309249 .14398194 .49552409 .122690837 .48266603 .09921265 .46980796 .07574463 .45540367 .05656433 .43945313 .041671754 .4127604 .01576233 .37972007-.0017242432 .34033204-.010787964 .3191732-.01596578 .2952474-.018554688 .2685547-.018554688 .20345052-.018554688 .14827474 .0051472985 .103027347 .05255127 .05777995 .09995524 .03515625 .16634114 .03515625 .25170899 .03515625 .33576457 .057942708 .40401713 .103515628 .45646668 .14908855 .5089264 .20865886 .53515627 .28222657 .53515627M.42236329 .30371095C.41878257 .34191896 .41048179 .37245179 .39746095 .39530946 .3733724 .4377594 .33317057 .45898438 .27685548 .45898438 .23649089 .45898438 .20263672 .44437156 .17529297 .41514588 .14794922 .3859202 .13346355 .34877525 .13183594 .30371095H.42236329M.27392579 .5361328V.5361328Z"/>
<path id="font_3_1" d="M0 0Z"/>
<path id="font_2_5" d="M.08544922 .71777346H.40820313C.47200523 .71777346 .5234375 .6997884 .5625 .66381838 .6015625 .6278483 .62109377 .5773112 .62109377 .51220706 .62109377 .45621745 .6036784 .4074707 .56884768 .3659668 .5340169 .3244629 .48046876 .30371095 .40820313 .30371095H.18261719V0H.08544922V.71777346M.5229492 .5114746C.5229492 .56410726 .50341799 .5998433 .46435548 .61868289 .4428711 .62875369 .41341148 .63378909 .37597657 .63378909H.18261719V.3857422H.37597657C.41959635 .3857422 .45499674 .39499919 .48217774 .41351319 .5093587 .43203736 .5229492 .46469117 .5229492 .5114746Z"/>
<path id="font_2_12" d="M.06689453 .5234375H.15039063V.4326172C.15722656 .4502767 .17399089 .4717814 .2006836 .49713136 .2273763 .52248129 .25813804 .53515627 .29296876 .53515627 .29459635 .53515627 .29736329 .5349579 .30126954 .53456118 .30517579 .5341746 .31184898 .5333964 .32128907 .53222659V.43945313C.31608073 .44062297 .3112793 .44140116 .30688478 .44178773 .30249024 .44218446 .2976888 .4423828 .29248048 .4423828 .24820964 .4423828 .2141927 .4280599 .19042969 .39941407 .16666667 .37076823 .15478516 .33789063 .15478516 .30078126V0H.06689453V.5234375Z"/>
<path id="font_2_11" d="M.27197267 .057617189C.33024089 .057617189 .37019859 .07964579 .3918457 .123703 .41349284 .16776021 .4243164 .21677144 .4243164 .2707367 .4243164 .31950379 .4165039 .35917155 .4008789 .38974 .3761393 .43785606 .3334961 .46191407 .27294923 .46191407 .21923828 .46191407 .18017578 .44143168 .15576172 .40046693 .13134766 .35950218 .119140628 .31008403 .119140628 .25221253 .119140628 .1966095 .13134766 .15027364 .15576172 .113204959 .18017578 .076146449 .21891277 .057617189 .27197267 .057617189M.27539063 .53808596C.34277345 .53808596 .3997396 .5156453 .44628907 .47076417 .49283854 .42588298 .5161133 .35985819 .5161133 .27268983 .5161133 .1884613 .49560548 .11886088 .45458985 .06388855 .41357423 .008926392 .3499349-.018554688 .26367188-.018554688 .19173177-.018554688 .13460286 .00575765 .092285159 .054382326 .04996745 .103006999 .028808594 .16829936 .028808594 .2502594 .028808594 .33806864 .05110677 .4079895 .095703128 .46002198 .14029949 .51206466 .20019531 .53808596 .27539063 .53808596M.27246095 .5361328V.5361328Z"/>
<path id="font_2_7" d="M.26611329 .53808596C.32503257 .53808596 .37296549 .5237274 .4099121 .49501039 .44685874 .46629334 .46907554 .41684977 .4765625 .3466797H.39111329C.38590495 .37890626 .37402345 .40568034 .35546876 .42700196 .33691407 .44832359 .3071289 .45898438 .26611329 .45898438 .2101237 .45898438 .17008464 .43170677 .1459961 .3771515 .1303711 .34176127 .122558597 .29808555 .122558597 .24612427 .122558597 .19384766 .1336263 .14984639 .15576172 .11412048 .17789714 .07840475 .21272786 .060546876 .2602539 .060546876 .29671226 .060546876 .3256022 .0716095 .34692384 .09373474 .36824546 .115859989 .38297526 .1461385 .39111329 .18457031H.4765625C.46679688 .115234378 .4423828 .06453451 .4033203 .032470704 .3642578 .00040690104 .31429038-.015625 .25341798-.015625 .1850586-.015625 .13053386 .009379069 .08984375 .059387208 .049153646 .10940552 .028808594 .17188008 .028808594 .24681092 .028808594 .33868919 .05110677 .41020204 .095703128 .4613495 .14029949 .51250717 .19710286 .53808596 .26611329 .53808596M.2524414 .5361328V.5361328Z"/>
<path id="font_2_13" d="M.11669922 .1640625C.11930338 .13463338 .12662761 .11207072 .13867188 .09637451 .1608073 .06793213 .19921875 .053710939 .25390626 .053710939 .28645835 .053710939 .31510417 .060806276 .33984376 .07499695 .36458335 .08919779 .37695313 .11115011 .37695313 .14085388 .37695313 .16337586 .36702476 .18051148 .34716798 .19226074 .33447267 .19944255 .30940757 .20775859 .27197267 .21720886L.20214844 .2348175C.15755208 .24590557 .12467448 .25829569 .103515628 .27198792 .06575521 .29579164 .046875 .32873027 .046875 .37080384 .046875 .42036439 .064697269 .46046958 .1003418 .49111939 .13598633 .52177938 .18391927 .5371094 .24414063 .5371094 .32291667 .5371094 .37972007 .5139974 .41455079 .46777345 .4363607 .43847657 .4469401 .40690104 .44628907 .37304688H.36328126C.36165367 .39269004 .35465495 .41055808 .34228517 .426651 .32210288 .44950868 .28710938 .4609375 .23730469 .4609375 .20410156 .4609375 .17895508 .45461528 .16186524 .44197084 .14477539 .42933656 .13623047 .41264854 .13623047 .39190675 .13623047 .36922203 .14746094 .35107423 .16992188 .33746339 .1829427 .32936607 .20214844 .32221986 .22753906 .31602479L.28564454 .3018341C.34879557 .28650413 .39111329 .27166749 .41259767 .25732423 .44677735 .23482259 .4638672 .19944255 .4638672 .15118408 .4638672 .10455322 .44620768 .06428019 .41088868 .03036499 .37556968-.0035502117 .32177735-.020507813 .24951172-.020507813 .17171224-.020507813 .116617839-.002802531 .084228519 .032608034 .05183919 .06801859 .034505208 .111836757 .032226564 .1640625H.11669922M.24658203 .5361328V.5361328Z"/>
<path id="font_2_1" d="M0 0Z"/>
<path id="font_2_2" d="M.44433595 .2939453 .33544923 .61120608 .21972656 .2939453H.44433595M.28466798 .71777346H.39453126L.65478518 0H.54833987L.47558595 .21484375H.19189453L.11425781 0H.0146484379L.28466798 .71777346M.33496095 .71777346V.71777346Z"/>
<path id="font_2_3" d="M.34570313 .4140625C.38671876 .4140625 .41861979 .4197693 .44140626 .43118287 .47721354 .4491272 .4951172 .48142497 .4951172 .5280762 .4951172 .57506307 .47607423 .6067098 .43798829 .62301638 .4165039 .6321513 .38460288 .63671877 .34228517 .63671877H.16894531V.4140625H.34570313M.37841798 .08300781C.43798829 .08300781 .48046876 .100224819 .5058594 .13465882 .5218099 .15642803 .52978518 .18274434 .52978518 .21360779 .52978518 .26559959 .50651046 .30101524 .45996095 .31985475 .43522135 .32992555 .4025065 .33496095 .3618164 .33496095H.16894531V.08300781H.37841798M.07373047 .71777346H.38183595C.4658203 .71777346 .5255534 .6926575 .56103518 .64242556 .58186849 .6127421 .59228518 .5784963 .59228518 .5396881 .59228518 .49434916 .57942709 .45716349 .55371096 .4281311 .54036459 .41280113 .5211589 .3987783 .49609376 .38606263 .5328776 .3720754 .5603841 .35629273 .5786133 .3387146 .61083987 .30748496 .6269531 .26437379 .6269531 .2093811 .6269531 .16317749 .61246749 .12136841 .5834961 .08395386 .54020187 .02798462 .47135417 0 .37695313 0H.07373047V.71777346Z"/>
<path id="font_2_4" d="M.37841798 .7373047C.46923829 .7373047 .53971359 .71332809 .58984377 .66537478 .63997396 .61742147 .66780599 .5629476 .67333987 .5019531H.5786133C.5678711 .54817709 .5464681 .58479818 .5144043 .6118164 .48234049 .63883468 .43733726 .65234377 .37939454 .65234377 .3087565 .65234377 .25170899 .62754318 .20825196 .5779419 .16479492 .52834066 .1430664 .45231629 .1430664 .34986878 .1430664 .26594544 .16267903 .19788106 .2019043 .14567566 .24112956 .09348043 .29964195 .06738281 .3774414 .06738281 .449056 .06738281 .50358077 .094823207 .5410156 .14970398 .5608724 .17860413 .5756836 .21659343 .5854492 .26367188H.6801758C.6717122 .18815105 .64371749 .12483724 .5961914 .07373047 .5392253 .012207031 .46240235-.018554688 .36572267-.018554688 .2823893-.018554688 .21240235 .006688436 .15576172 .057174684 .081217449 .12394714 .043945314 .2270406 .043945314 .36645509 .043945314 .47232057 .0719401 .5591278 .12792969 .62687686 .18847656 .7004954 .27197267 .7373047 .37841798 .7373047M.35888673 .7373047V.7373047Z"/>
</defs>
<g clip-path="url(#clip_0)">
<g clip-path="url(#clip_1)">
<path transform="matrix(1,0,0,-1,-1.55675,540)" d="M0 539.9999H719.9999V.00003079383H0Z" fill="#ffffff" fill-rule="evenodd"/>
<path transform="matrix(-.00007874014,-0,0,.00007874014,55.56828,24.000123)" stroke-width="12700" stroke-linecap="butt" stroke-linejoin="round" fill="none" stroke="#000000" d="M.01490777 .2673341 .983841 2717800"/>
<path transform="matrix(1,0,0,-1,-1.55675,540)" d="M54.12496 306 57.12496 300 60.12496 306Z" fill-rule="evenodd"/>
<use data-text="T" xlink:href="#font_2_6" transform="matrix(16,0,0,-16,2.7682102,127.600009)"/>
<use data-text="i" xlink:href="#font_2_9" transform="matrix(16,0,0,-16,11.95541,127.600009)"/>
<use data-text="m" xlink:href="#font_2_10" transform="matrix(16,0,0,-16,15.51061,127.600009)"/>
<use data-text="e" xlink:href="#font_2_8" transform="matrix(16,0,0,-16,28.83861,127.600009)"/>
<use data-text="&#xfffd;" xlink:href="#font_3_1" transform="matrix(16,0,0,-16,37.737813,127.600009)"/>
<path transform="matrix(.00007874014,0,0,.00007874014,134.81826,35.87509)" stroke-width="76200" stroke-linecap="butt" stroke-linejoin="round" fill="none" stroke="#000000" d="M-.03985593 .1781008 .9290773 304800.2"/>
<use data-text="P" xlink:href="#font_2_5" transform="matrix(16,0,0,-16,97.39324,13.599976)"/>
<use data-text="r" xlink:href="#font_2_12" transform="matrix(16,0,0,-16,108.06525,13.599976)"/>
<use data-text="o" xlink:href="#font_2_11" transform="matrix(16,0,0,-16,113.39324,13.599976)"/>
<use data-text="c" xlink:href="#font_2_7" transform="matrix(16,0,0,-16,122.29244,13.599976)"/>
<use data-text="e" xlink:href="#font_2_8" transform="matrix(16,0,0,-16,130.29245,13.599976)"/>
<use data-text="s" xlink:href="#font_2_13" transform="matrix(16,0,0,-16,139.19165,13.599976)"/>
<use data-text="s" xlink:href="#font_2_13" transform="matrix(16,0,0,-16,147.19165,13.599976)"/>
<use data-text=" " xlink:href="#font_2_1" transform="matrix(16,0,0,-16,155.19165,13.599976)"/>
<use data-text="A" xlink:href="#font_2_2" transform="matrix(16,0,0,-16,158.76125,13.599976)"/>
<use data-text="&#xfffd;" xlink:href="#font_3_1" transform="matrix(16,0,0,-16,169.43326,13.599976)"/>
<use data-text="P" xlink:href="#font_2_5" transform="matrix(16,0,0,-16,217.39325,13.599976)"/>
<use data-text="r" xlink:href="#font_2_12" transform="matrix(16,0,0,-16,228.06525,13.599976)"/>
<use data-text="o" xlink:href="#font_2_11" transform="matrix(16,0,0,-16,233.39325,13.599976)"/>
<use data-text="c" xlink:href="#font_2_7" transform="matrix(16,0,0,-16,242.29245,13.599976)"/>
<use data-text="e" xlink:href="#font_2_8" transform="matrix(16,0,0,-16,250.29245,13.599976)"/>
<use data-text="s" xlink:href="#font_2_13" transform="matrix(16,0,0,-16,259.19166,13.599976)"/>
<use data-text="s" xlink:href="#font_2_13" transform="matrix(16,0,0,-16,267.19166,13.599976)"/>
<use data-text=" " xlink:href="#font_2_1" transform="matrix(16,0,0,-16,275.19166,13.599976)"/>
<use data-text="B" xlink:href="#font_2_3" transform="matrix(16,0,0,-16,279.63645,13.599976)"/>
<use data-text="&#xfffd;" xlink:href="#font_3_1" transform="matrix(16,0,0,-16,290.30848,13.599976)"/>
<use data-text="P" xlink:href="#font_2_5" transform="matrix(16,0,0,-16,337.39326,13.599976)"/>
<use data-text="r" xlink:href="#font_2_12" transform="matrix(16,0,0,-16,348.06526,13.599976)"/>
<use data-text="o" xlink:href="#font_2_11" transform="matrix(16,0,0,-16,353.39326,13.599976)"/>
<use data-text="c" xlink:href="#font_2_7" transform="matrix(16,0,0,-16,362.29246,13.599976)"/>
<use data-text="e" xlink:href="#font_2_8" transform="matrix(16,0,0,-16,370.29246,13.599976)"/>
<use data-text="s" xlink:href="#font_2_13" transform="matrix(16,0,0,-16,379.19166,13.599976)"/>
<use data-text="s" xlink:href="#font_2_13" transform="matrix(16,0,0,-16,387.19166,13.599976)"/>
<use data-text=" " xlink:href="#font_2_1" transform="matrix(16,0,0,-16,395.19166,13.599976)"/>
<use data-text="C" xlink:href="#font_2_4" transform="matrix(16,0,0,-16,399.63645,13.599976)"/>
<use data-text="&#xfffd;" xlink:href="#font_3_1" transform="matrix(16,0,0,-16,411.19166,13.599976)"/>
<path transform="matrix(-.00007874014,-0,0,.00007874014,253.56826,60.00009)" stroke-width="76200" stroke-linecap="butt" stroke-linejoin="round" fill="none" stroke="#000000" d="M.001708984 .3376466 .9706422 609600.4"/>
<path transform="matrix(-.00007874014,-0,0,.00007874014,373.56825,108.00009)" stroke-width="76200" stroke-linecap="butt" stroke-linejoin="round" fill="none" stroke="#000000" d="M.267334-.0686034 1.430054 381000"/>
<path transform="matrix(.00007874014,0,0,.00007874014,133.56826,138)" stroke-width="76200" stroke-linecap="butt" stroke-linejoin="round" fill="none" stroke="#000000" d="M-.04229733 .1024171 .9266359 609600.2"/>
<path transform="matrix(-.00007874014,-0,0,.00007874014,373.56825,186)" stroke-width="76200" stroke-linecap="butt" stroke-linejoin="round" fill="none" stroke="#000000" d="M.267334 .1961671 1.430054 609600.3"/>
<path transform="matrix(.00007874014,0,0,.00007874014,98.81825,59.87509)" stroke-width="12700" stroke-linecap="butt" stroke-dasharray="50800,38100" stroke-linejoin="round" fill="none" stroke="#000000" d="M-.0132751 .2249758 4038600 1.387696"/>
<path transform="matrix(.00007874014,0,0,.00007874014,97.568279,138)" stroke-width="12700" stroke-linecap="butt" stroke-dasharray="50800,38100" stroke-linejoin="round" fill="none" stroke="#000000" d="M-.01571651 .1024171 4038600 1.265137"/>
<path transform="matrix(.00007874014,0,0,.00007874014,97.568279,186)" stroke-width="12700" stroke-linecap="butt" stroke-dasharray="50800,38100" stroke-linejoin="round" fill="none" stroke="#000000" d="M-.01571651 .1961671 4038600 1.358887"/>
<path transform="matrix(.00007874014,0,0,.00007874014,97.568279,234)" stroke-width="12700" stroke-linecap="butt" stroke-dasharray="50800,38100" stroke-linejoin="round" fill="none" stroke="#000000" d="M-.01571651 .03991705 4038600 1.202637"/>
<path transform="matrix(.00007874014,0,0,.00007874014,97.568279,108.00009)" stroke-width="12700" stroke-linecap="butt" stroke-dasharray="50800,38100" stroke-linejoin="round" fill="none" stroke="#000000" d="M-.01571651-.0686034 4038600 1.094116"/>
<path transform="matrix(.00007874014,0,0,.00007874014,97.568279,36.00009)" stroke-width="12700" stroke-linecap="butt" stroke-dasharray="50800,38100" stroke-linejoin="round" fill="none" stroke="#000000" d="M-.01571651 .2907716 4038600 1.453491"/>
</g>
</g>
</svg>
