<svg xmlns="http://www.w3.org/2000/svg" xmlns:xlink="http://www.w3.org/1999/xlink" version="1.1" width="560.429pt" height="361.16603pt" viewBox="0 0 560.429 361.16603">
<defs>
<clipPath id="clip_0">
<path transform="matrix(1,0,0,-1,0,540)" d="M0 178.834H560.429V540H0Z" fill-rule="evenodd"/>
</clipPath>
<clipPath id="clip_1">
<path transform="matrix(1,0,0,-1,0,540)" d="M0 .00002324581H719.9999V540H0Z"/>
</clipPath>
<path id="font_2_8" d="M.08203125 0V.7158203H.5649414V.6308594H.17675781V.41015626H.5126953V.3251953H.17675781V0H.08203125Z"/>
<path id="font_2_22" d="M.033203126 .25927735C.033203126 .355306 .059895833 .42643229 .11328125 .47265626 .15787761 .5110677 .21223958 .53027346 .2763672 .53027346 .34765626 .53027346 .40592448 .5069173 .45117188 .46020509 .49641929 .41349284 .51904299 .34895835 .51904299 .26660157 .51904299 .1998698 .5090332 .14737956 .48901368 .10913086 .46899415 .070882167 .43986003 .041178388 .40161134 .020019532 .36336265-.0011393229 .3216146-.01171875 .2763672-.01171875 .20377605-.01171875 .1451009 .011555989 .1003418 .05810547 .055582685 .104654949 .033203126 .17171224 .033203126 .25927735M.123535159 .2590332C.123535159 .19270833 .13802083 .14304607 .16699219 .11004639 .19596355 .077046718 .23242188 .060546876 .2763672 .060546876 .31998698 .060546876 .35628257 .07712809 .3852539 .11029053 .41422526 .14345296 .42871095 .19401042 .42871095 .2619629 .42871095 .32600913 .4141439 .37453208 .38500978 .40753175 .35587565 .4405314 .31966148 .45703126 .2763672 .45703126 .23242188 .45703126 .19596355 .4406128 .16699219 .40777589 .13802083 .37493897 .123535159 .32535807 .123535159 .2590332Z"/>
<path id="font_2_23" d="M.064941409 0V.5185547H.14404297V.4399414C.16422527 .47672526 .18286133 .50097659 .19995117 .5126953 .21704102 .52441409 .23583985 .53027346 .25634767 .53027346 .28597007 .53027346 .31608073 .5208333 .3466797 .5019531L.31640626 .4204712C.29492188 .43312583 .2734375 .43945313 .25195313 .43945313 .23274739 .43945313 .2154948 .43367515 .20019531 .42211915 .18489583 .41056315 .17399089 .39453126 .16748047 .37402345 .15771485 .34277345 .15283203 .30859376 .15283203 .27148438V0H.064941409Z"/>
<path id="font_2_14" d="M.42089845 .16796875 .51171877 .15625C.49739585 .103037517 .47086589 .06173706 .4321289 .032348634 .39339195 .0029703777 .34391276-.01171875 .2836914-.01171875 .20784505-.01171875 .14770508 .01163737 .103271488 .05834961 .05883789 .10506185 .036621095 .17057292 .036621095 .2548828 .036621095 .3421224 .05908203 .40983073 .104003909 .4580078 .14892578 .5061849 .20719402 .53027346 .2788086 .53027346 .34814454 .53027346 .40478517 .5067088 .44873048 .45957948 .49267579 .41246034 .51464846 .34616599 .51464846 .2606964 .51464846 .25549827 .51448568 .247701 .51416018 .23730469H.1274414C.13069661 .18017578 .14680989 .13643392 .17578125 .1060791 .20475261 .07572428 .24088542 .060546876 .2841797 .060546876 .31640626 .060546876 .34391276 .06908671 .36669923 .08616638 .3894857 .103256229 .4075521 .13052368 .42089845 .16796875M.13232422 .3095703H.421875C.41796876 .3530477 .40690104 .38565574 .38867188 .4073944 .3606771 .4411367 .3243815 .4580078 .27978517 .4580078 .23942058 .4580078 .20548503 .4445394 .17797852 .41760255 .150472 .39067588 .1352539 .35466514 .13232422 .3095703Z"/>
<path id="font_2_3" d="M.03173828 .21484375V.30371095H.3017578V.21484375H.03173828Z"/>
<path id="font_2_1" d="M0 0Z"/>
<path id="font_2_15" d="M.049804689-.04296875 .1352539-.0546875C.13883464-.08137003 .14876302-.10080465 .16503906-.11299133 .18684896-.12946065 .21663411-.13769531 .25439454-.13769531 .29508464-.13769531 .3264974-.12953694 .3486328-.113220218 .37076823-.09690348 .3857422-.07406616 .3935547-.044708253 .39811198-.026753745 .40022788 .010935466 .39990235 .068359378 .36149089 .022786459 .3136393 0 .25634767 0 .1850586 0 .12988281 .025716147 .09082031 .07714844 .051757814 .12858074 .032226564 .19026692 .032226564 .26220704 .032226564 .3116862 .041178388 .35734049 .05908203 .39916993 .07698568 .44099937 .10294596 .47330729 .13696289 .49609376 .17097982 .5188802 .2109375 .53027346 .25683595 .53027346 .31803385 .53027346 .3684896 .5052083 .40820313 .45507813V.5185547H.4892578V.070007327C.4892578-.010772705 .48103843-.06801859 .4645996-.10173035 .4481608-.1354421 .42211915-.16206868 .3864746-.1816101 .35083009-.2011617 .30696617-.2109375 .2548828-.2109375 .19303386-.2109375 .1430664-.19698079 .10498047-.16906739 .06689453-.14115398 .048502607-.099121097 .049804689-.04296875M.122558597 .26853944C.122558597 .20067851 .1360677 .15116374 .16308594 .11999512 .19010417 .0888265 .22395833 .07324219 .26464845 .07324219 .30501304 .07324219 .3388672 .08874512 .36621095 .11975098 .3935547 .15075684 .40722657 .19938152 .40722657 .265625 .40722657 .3289388 .3931478 .3766683 .36499024 .40881349 .33683268 .44095866 .30289714 .45703126 .2631836 .45703126 .2241211 .45703126 .19091797 .4412028 .16357422 .4095459 .13623047 .377889 .122558597 .33088685 .122558597 .26853944Z"/>
<path id="font_2_24" d="M.40576173 0V.0766449C.36539714 .0177358 .31054688-.01171875 .24121094-.01171875 .21061199-.01171875 .18204753-.005859375 .15551758 .005859375 .12898763 .017578125 .10929362 .03230794 .09643555 .050048829 .08357748 .06778971 .07454427 .08951823 .06933594 .115234378 .06575521 .13248699 .063964847 .15983074 .063964847 .19726563V.5185547H.15185547V.2312622C.15185547 .18541463 .15364583 .15452576 .15722656 .13859558 .16276042 .115503948 .17447917 .09737142 .19238281 .084198 .21028646 .07103475 .23242188 .064453128 .25878907 .064453128 .28515626 .064453128 .30989585 .07119751 .3330078 .08468628 .35611979 .09818522 .3724772 .1165568 .38208009 .13980103 .39168296 .16305542 .39648438 .1967926 .39648438 .24101258V.5185547H.484375V0H.40576173Z"/>
<path id="font_2_21" d="M.06591797 0V.5185547H.14501953V.44482423C.18310547 .50179037 .23811849 .53027346 .3100586 .53027346 .3413086 .53027346 .3700358 .5246582 .39624024 .51342776 .42244468 .50219729 .44205729 .48746745 .45507813 .46923829 .46809898 .45100913 .47721354 .42936198 .48242188 .40429688 .4856771 .38802085 .4873047 .35953776 .4873047 .31884767V0H.39941407V.3154297C.39941407 .35123698 .3959961 .37801109 .38916017 .39575196 .38232423 .41349284 .37019859 .42765299 .3527832 .43823243 .33536784 .44881187 .3149414 .45410157 .2915039 .45410157 .254069 .45410157 .22176107 .44222007 .19458008 .41845704 .1673991 .394694 .1538086 .34960938 .1538086 .28320313V0H.06591797Z"/>
<path id="font_2_13" d="M.40234376 0V.06542969C.36946617 .0139973959 .3211263-.01171875 .25732423-.01171875 .21598308-.01171875 .17797852-.00032552085 .14331055 .022460938 .10864258 .045247396 .08178711 .077067058 .06274414 .11791992 .043701173 .15877278 .034179689 .20572917 .034179689 .25878907 .034179689 .31054688 .04280599 .35750328 .060058595 .3996582 .077311199 .44181315 .1031901 .4741211 .13769531 .49658204 .17220052 .51904299 .21077474 .53027346 .25341798 .53027346 .28466798 .53027346 .3125 .52363589 .33691407 .5103607 .36132813 .49709574 .3811849 .47981263 .39648438 .45851136V.7158203H.48388673V0H.40234376M.12451172 .25854493C.12451172 .19222005 .13850911 .14263916 .1665039 .109802249 .1944987 .07696533 .22753906 .060546876 .265625 .060546876 .30403648 .060546876 .33666993 .07623291 .3635254 .10760498 .39038087 .13897705 .4038086 .18685405 .4038086 .25123597 .4038086 .32210795 .39013673 .37412516 .36279298 .4072876 .33544923 .44045005 .3017578 .45703126 .26171876 .45703126 .22265625 .45703126 .19002278 .44110108 .16381836 .40924073 .13761394 .37738038 .12451172 .32714845 .12451172 .25854493Z"/>
<path id="font_2_18" d="M.06542969 .61328127V.7158203H.15332031V.61328127H.06542969M-.045898439-.20166016-.029296875-.12689209C-.01171875-.13149007 .0021158856-.13378906 .012207031-.13378906 .030110678-.13378906 .04345703-.12784322 .052246095-.11595154 .061035158-.10405985 .06542969-.07433573 .06542969-.026779175V.5185547H.15332031V-.028686524C.15332031-.0925293 .14501953-.13699341 .12841797-.16207886 .10725912-.19465129 .07210287-.2109375 .022949219-.2109375-.00081380209-.2109375-.023763022-.20784505-.045898439-.20166016Z"/>
<path id="font_2_11" d="M.14697266 0H.06542969V.7158203H.15332031V.46044923C.19042969 .5069987 .23779297 .53027346 .29541017 .53027346 .3273112 .53027346 .35750328 .5238444 .38598634 .5109863 .4144694 .49812828 .4379069 .48006187 .45629884 .4567871 .47469078 .43351237 .48909507 .4054362 .49951173 .3725586 .5099284 .339681 .5151367 .30452476 .5151367 .26708985 .5151367 .17822266 .49316407 .10953776 .44921876 .061035158 .40527345 .012532552 .35253907-.01171875 .29101563-.01171875 .2298177-.01171875 .18180339 .013834636 .14697266 .064941409V0M.1459961 .2631836C.1459961 .20100911 .15445964 .15608724 .17138672 .12841797 .19905599 .08317057 .23649089 .060546876 .2836914 .060546876 .32210288 .060546876 .355306 .07722982 .38330079 .1105957 .41129557 .1439616 .42529298 .19368489 .42529298 .25976563 .42529298 .32747398 .41186524 .3774414 .38500978 .40966798 .3581543 .44189454 .3256836 .4580078 .28759767 .4580078 .2491862 .4580078 .21598308 .44132487 .18798828 .40795899 .15999349 .3745931 .1459961 .32633464 .1459961 .2631836Z"/>
<path id="font_2_6" d="M.07324219 0V.7158203H.34179688C.39648438 .7158203 .4403483 .70859786 .47338868 .69415286 .506429 .6797078 .5323079 .65747579 .5510254 .62745669 .56974288 .59743759 .57910159 .566035 .57910159 .5332489 .57910159 .5027415 .5708008 .47401429 .5541992 .44706727 .53759768 .4201304 .51253256 .39838664 .4790039 .38183595 .52229818 .3691101 .5555827 .347407 .5788574 .31672669 .60213217 .28604637 .61376956 .24982198 .61376956 .20805359 .61376956 .1744334 .60668948 .1431834 .5925293 .11430359 .57836917 .08542379 .5608724 .06315104 .54003909 .04748535 .51920577 .03181966 .49308268 .019989014 .46166993 .011993408 .43025718 .0039978029 .3917643 0 .3461914 0H.07324219M.16796875 .41601563H.3227539C.3647461 .41601563 .39485679 .4187673 .41308595 .42427064 .43717448 .43138124 .45532228 .44318138 .4675293 .45967103 .47973634 .47616069 .48583985 .4968516 .48583985 .5217438 .48583985 .54534408 .48014323 .56611636 .46875 .58406069 .45735679 .602005 .44108073 .61428835 .41992188 .62091067 .39876304 .62754318 .36246745 .6308594 .31103517 .6308594H.16796875V.41601563M.16796875 .08496094H.3461914C.37679038 .08496094 .39827476 .08610026 .41064454 .088378909 .43245445 .092285159 .4506836 .09879557 .46533204 .107910159 .47998048 .11702474 .49202476 .13028972 .50146487 .14770508 .51090499 .16512044 .515625 .18522136 .515625 .20800781 .515625 .23470052 .50878909 .2578939 .4951172 .2775879 .4814453 .2972819 .46248374 .31111656 .43823243 .3190918 .4139811 .32706706 .379069 .3310547 .3334961 .3310547H.16796875V.08496094Z"/>
<path id="font_2_10" d="M.40429688 .06542969C.37174479 .03722127 .34041343 .017308554 .31030274 .0056915285 .28019206-.0059153239 .24788411-.01171875 .2133789-.01171875 .15641277-.01171875 .11263021 .0021972657 .08203125 .030029297 .051432294 .057861329 .036132814 .09342448 .036132814 .13671875 .036132814 .16210938 .04191081 .18530274 .053466798 .20629883 .06502279 .22729492 .08015951 .24414063 .09887695 .25683595 .1175944 .26953126 .13867188 .27913413 .16210938 .28564454 .17936199 .2902018 .20540364 .29459635 .24023438 .29882813 .3111979 .30729167 .363444 .3173828 .39697267 .32910157 .3972982 .34109498 .39746095 .3487142 .39746095 .35195924 .39746095 .38763429 .38916017 .4127655 .3725586 .4273529 .35009767 .44713847 .31673179 .45703126 .27246095 .45703126 .2311198 .45703126 .20060222 .44978843 .1809082 .43530274 .16121419 .42081706 .14664714 .39518229 .13720703 .35839845L.05126953 .3701172C.05908203 .40701295 .0719401 .43680827 .08984375 .45950318 .1077474 .4821981 .1336263 .4996643 .16748047 .51190188 .20133464 .5241496 .24055989 .53027346 .28515626 .53027346 .3294271 .53027346 .36539714 .52504476 .3930664 .5145874 .4207357 .5041402 .44108073 .49099223 .45410157 .47514344 .4671224 .4593048 .47623698 .43929545 .4814453 .41511537 .484375 .40009056 .48583985 .3731028 .48583985 .33415223V.21730042C.48583985 .13582866 .48771159 .084228519 .49145509 .0625 .49519859 .040771486 .5026042 .01993815 .5136719 0H.421875C.4127604 .01864624 .40690104 .040456136 .40429688 .06542969M.39697267 .25976563C.36507163 .24680583 .31722007 .23578899 .25341798 .22671509 .21728516 .22153728 .19173177 .21570842 .17675781 .20922852 .16178386 .20274861 .15022786 .1932729 .14208985 .18080139 .13395183 .16832988 .12988281 .15447998 .12988281 .13925171 .12988281 .11592611 .13875325 .09648641 .15649414 .08093262 .17423503 .065389 .20019531 .057617189 .234375 .057617189 .26822917 .057617189 .29833985 .06499735 .32470704 .07975769 .35107423 .0945282 .37044273 .114705409 .3828125 .1402893 .3922526 .16003418 .39697267 .18917339 .39697267 .22770691V.25976563Z"/>
<path id="font_2_12" d="M.40429688 .19042969 .49072267 .17871094C.48128257 .119140628 .45711265 .072509769 .4182129 .03881836 .37931315 .005126953 .33154298-.01171875 .27490235-.01171875 .2039388-.01171875 .14689128 .011474609 .103759769 .057861329 .060628255 .10424805 .0390625 .17073567 .0390625 .25732423 .0390625 .3133138 .048339845 .3623047 .06689453 .40429688 .08544922 .44628907 .11368815 .4777832 .15161133 .4987793 .1895345 .5197754 .23079427 .53027346 .27539063 .53027346 .33170573 .53027346 .37776695 .5161133 .41357423 .48779298 .4493815 .45948283 .47233073 .419281 .48242188 .3671875L.39697267 .35351563C.38883464 .3881836 .37443034 .41426597 .35375978 .4317627 .3330892 .44925944 .30810548 .4580078 .2788086 .4580078 .23453777 .4580078 .1985677 .44213868 .17089844 .4104004 .14322917 .3786621 .12939453 .32845054 .12939453 .25976563 .12939453 .19010417 .14274089 .13948567 .1694336 .107910159 .1961263 .07633463 .23095703 .060546876 .27392579 .060546876 .308431 .060546876 .3372396 .07116699 .36035157 .09240723 .38346354 .11364746 .39811198 .14632161 .40429688 .19042969Z"/>
<path id="font_2_19" d="M.06640625 0V.7158203H.15429688V.3080597L.3623047 .5185547H.47607423L.27783204 .32589723 .49609376 0H.3876953L.2163086 .26557923 .15429688 .2055664V0H.06640625Z"/>
<path id="font_2_2" d="M.05029297-.0126953129 .09249878 .1953125H.010253906V.2685547H.10736084L.14341736 .44628907H.010253906V.51953127H.15827942L.2006836 .7285156H.27392579L.2315216 .51953127H.3853302L.42773438 .7285156H.50146487L.45892335 .51953127H.54345706V.44628907H.4440155L.4078369 .2685547H.54345706V.1953125H.39292909L.35058595-.0126953129H.27734376L.31954957 .1953125H.16574097L.123535159-.0126953129H.05029297M.18060303 .2685547H.33441163L.37046815 .44628907H.21665955L.18060303 .2685547Z"/>
<path id="font_2_4" d="M.3725586 0H.28466798V.5600586C.26350913 .5398763 .23575847 .51969406 .20141602 .49951173 .16707357 .47932945 .13623047 .46419273 .10888672 .45410157V.5390625C.15804036 .5621745 .20100911 .59016928 .23779297 .6230469 .2745768 .6559245 .3006185 .6878255 .31591798 .71875H.3725586V0Z"/>
<path id="font_2_5" d="M.50341799 .08496094V0H.030273438C.029622397 .0211792 .033040365 .041549684 .040527345 .06111145 .052571615 .09336853 .07185873 .12513733 .09838867 .15641785 .12491862 .18770854 .1632487 .22387696 .2133789 .2649231 .29117839 .32877604 .34375 .37928263 .37109376 .41644288 .3984375 .45360313 .41210938 .488739 .41210938 .5218506 .41210938 .5565796 .3996582 .5858714 .37475587 .60972598 .34985353 .6335805 .3173828 .6455078 .27734376 .6455078 .23502605 .6455078 .20117188 .6328125 .17578125 .6074219 .15039063 .58203127 .13753255 .546875 .13720703 .5019531L.046875 .51171877C.053059896 .57910159 .07633463 .63045248 .11669922 .6657715 .1570638 .7010905 .21126302 .71875 .27929688 .71875 .34798179 .71875 .40234376 .6997121 .4423828 .66163638 .48242188 .6235606 .5024414 .57637026 .5024414 .5200653 .5024414 .49142967 .49658204 .4632772 .48486329 .4356079 .47314454 .40794883 .45369468 .37882487 .42651368 .34823609 .39933268 .3176473 .35416667 .27570597 .29101563 .22241211 .23828125 .17822266 .20442708 .14824422 .18945313 .1324768 .17447917 .11671957 .16210938 .10088094 .15234375 .08496094H.50341799Z"/>
<path id="font_2_9" d="M.044921876 .23046875 .13427735 .23828125C.13850911 .20247396 .14835613 .1730957 .16381836 .15014649 .1792806 .12719727 .20328777 .10864258 .23583985 .09448242 .26839195 .080322269 .30501304 .07324219 .34570313 .07324219 .38183595 .07324219 .41373698 .07861328 .44140626 .08935547 .46907554 .100097659 .4896647 .11482748 .5031738 .13354492 .5166829 .15226238 .5234375 .17263794 .5234375 .19467163 .5234375 .21703084 .51692709 .23655193 .50390627 .25323487 .4908854 .26992799 .46940104 .28396098 .43945313 .29533387 .4202474 .3028005 .37776695 .31440736 .31201173 .33015443 .24625652 .3459015 .20019531 .36078898 .17382813 .3748169 .13964844 .39275108 .11417643 .41500855 .09741211 .44158937 .08064779 .46817018 .072265628 .4979299 .072265628 .53086856 .072265628 .5670726 .08251953 .60091146 .103027347 .63238528 .123535159 .66385909 .15348308 .6877492 .1928711 .7040558 .23225911 .72036239 .27604167 .7285156 .32421876 .7285156 .37727867 .7285156 .42407228 .7199707 .4645996 .70288088 .50512698 .685791 .5362956 .66064456 .55810549 .6274414 .57991537 .5942383 .5916341 .5566406 .5932617 .51464846L.5024414 .5078125C.4975586 .5525818 .48103843 .58639529 .45288087 .6092529 .4247233 .6321208 .38313804 .6435547 .328125 .6435547 .27083335 .6435547 .22908528 .6330821 .20288086 .61213687 .17667644 .5912018 .16357422 .5659587 .16357422 .5364075 .16357422 .5107625 .17285156 .48965965 .19140625 .47309876 .20963542 .45653788 .25724284 .4395701 .33422853 .42219544 .4112142 .40483094 .46402995 .38965354 .49267579 .3766632 .53434249 .357488 .5651042 .33320109 .58496096 .3038025 .6048177 .2744039 .6147461 .24053955 .6147461 .20220948 .6147461 .16419475 .6038411 .12837728 .58203127 .09475708 .5602214 .061136884 .52888998 .03498332 .4880371 .016296387 .44718424-.002380371 .40120445-.01171875 .35009767-.01171875 .285319-.01171875 .2310384-.0022786458 .18725586 .016601563 .14347331 .03548177 .10913086 .06388346 .084228519 .10180664 .059326173 .13972982 .046223958 .18261719 .044921876 .23046875Z"/>
<path id="font_2_16" d="M.06591797 0V.7158203H.1538086V.4585266C.19482422 .50635787 .24658203 .53027346 .30908204 .53027346 .3474935 .53027346 .38085938 .5227051 .4091797 .50756838 .4375 .49243165 .45776368 .47151695 .4699707 .44482423 .48217774 .4181315 .48828126 .37939454 .48828126 .32861329V0H.40039063V.32826234C.40039063 .37215678 .39086915 .4041036 .37182618 .42410279 .3527832 .44410197 .32584635 .45410157 .29101563 .45410157 .26497398 .45410157 .24047852 .44735209 .2175293 .43385316 .19458008 .42036439 .17822266 .4020742 .16845703 .37898255 .1586914 .3559011 .1538086 .32403565 .1538086 .28338624V0H.06591797Z"/>
<path id="font_2_20" d="M.063964847 0V.7158203H.15185547V0H.063964847Z"/>
<path id="font_2_7" d="M.5878906 .25146485 .6826172 .22753906C.66276046 .14973958 .6270345 .090413417 .57543948 .049560548 .5238444 .008707683 .46077476-.01171875 .38623048-.01171875 .30908204-.01171875 .24633789 .0039876305 .19799805 .03540039 .1496582 .06681315 .11287435 .11230469 .087646488 .171875 .06241862 .23144531 .049804689 .29541017 .049804689 .36376954 .049804689 .4383138 .06404623 .5033366 .0925293 .5588379 .12101237 .6143392 .16153972 .65649417 .21411133 .68530276 .26668296 .7141113 .32454429 .7285156 .3876953 .7285156 .4593099 .7285156 .51953127 .71028646 .5683594 .6738281 .6171875 .6373698 .6512044 .5861003 .67041018 .52001956L.57714846 .49804688C.5605469 .5501302 .5364583 .5880534 .5048828 .6118164 .47330729 .6355794 .43359376 .64746096 .3857422 .64746096 .33072917 .64746096 .28474937 .63427737 .24780274 .60791018 .21085613 .58154299 .18489583 .5461426 .16992188 .501709 .15494792 .4572754 .14746094 .41145835 .14746094 .3642578 .14746094 .3033854 .15633138 .25024415 .17407227 .20483399 .19181316 .15942383 .21940105 .12548828 .25683595 .103027347 .29427085 .080566409 .3347982 .06933594 .37841798 .06933594 .43147788 .06933594 .47639976 .084635417 .5131836 .115234378 .54996749 .14583333 .5748698 .19124349 .5878906 .25146485Z"/>
<path id="font_2_17" d="M.06640625 .6152344V.7158203H.15429688V.6152344H.06640625M.06640625 0V.5185547H.15429688V0H.06640625Z"/>
<path id="font_3_11" d="M.14550781 .42382813V.349411C.16992188 .37894187 .1961263 .40116883 .2241211 .41609193 .25211589 .431015 .28515626 .43847657 .3232422 .43847657 .36360679 .43847657 .4008789 .42902629 .4350586 .41012574 .46923829 .3912252 .49568687 .36490885 .5144043 .33117677 .53312179 .29744468 .54248049 .26200358 .54248049 .22485352 .54248049 .16586304 .521403 .11542765 .47924806 .07354736 .4370931 .031677247 .3852539 .0107421879 .32373048 .0107421879 .25048829 .0107421879 .19108074 .040430707 .14550781 .09980774V-.14746094H.24511719C.2548828-.14746094 .2618815-.14933269 .26611329-.15307617 .27034507-.15681966 .27246095-.16178386 .27246095-.16796875 .27246095-.17382813 .27034507-.17871094 .26611329-.18261719 .2618815-.18652344 .2548828-.18847656 .24511719-.18847656H.049316408C.03955078-.18847656 .032552083-.18660482 .028320313-.18286133 .024088541-.17911785 .021972657-.17415364 .021972657-.16796875 .021972657-.16178386 .024088541-.15681966 .028320313-.15307617 .032552083-.14933269 .03955078-.14746094 .049316408-.14746094H.10449219V.3828125H.049316408C.03955078 .3828125 .032552083 .38476563 .028320313 .38867188 .024088541 .39257813 .021972657 .3976237 .021972657 .4038086 .021972657 .40952555 .024088541 .41429139 .028320313 .41810609 .032552083 .42192079 .03955078 .42382813 .049316408 .42382813H.14550781M.50097659 .22485352C.50097659 .27225749 .48380534 .31287638 .4494629 .3467102 .41512046 .38054405 .37320964 .39746095 .32373048 .39746095 .27392579 .39746095 .23177083 .38046266 .19726563 .34646607 .16276042 .31246949 .14550781 .27193199 .14550781 .22485352 .14550781 .17744954 .16276042 .13674927 .19726563 .102752689 .23177083 .0687561 .27392579 .051757814 .32373048 .051757814 .37288413 .051757814 .41471354 .06867472 .44921876 .102508548 .48372398 .13634236 .50097659 .17712403 .50097659 .22485352Z"/>
<path id="font_3_10" d="M.3203125 .63378909V.5283203H.25976563V.63378909H.3203125M.32177735 .42382813V.041015626H.48291017C.4930013 .041015626 .5001628 .03914388 .50439456 .03540039 .5086263 .031656904 .5107422 .026692709 .5107422 .020507813 .5107422 .0146484379 .5086263 .009765625 .50439456 .005859375 .5001628 .001953125 .4930013 0 .48291017 0H.119628909C.10986328 0 .102864589 .001953125 .09863281 .005859375 .09440104 .009765625 .092285159 .0146484379 .092285159 .020507813 .092285159 .026692709 .09440104 .031656904 .09863281 .03540039 .102864589 .03914388 .10986328 .041015626 .119628909 .041015626H.28076173V.3828125H.16113281C.15136719 .3828125 .14428711 .3847402 .13989258 .38859559 .13549805 .39246116 .13330078 .397288 .13330078 .40307618 .13330078 .40918986 .13541667 .4141744 .13964844 .4180298 .1438802 .42189536 .15104167 .42382813 .16113281 .42382813H.32177735Z"/>
<path id="font_3_8" d="M.50097659 .61328127V.041015626H.55566409C.5657552 .041015626 .5729167 .03914388 .57714846 .03540039 .5813802 .031656904 .5834961 .026692709 .5834961 .020507813 .5834961 .014923096 .5813802 .010269165 .57714846 .0065460207 .5729167 .0028330486 .5657552 .0009765625 .55566409 .0009765625H.45947267V.08218384C.41194663 .016977946 .3515625-.015625 .2783203-.015625 .24121094-.015625 .20564778-.0057678224 .17163086 .013946533 .13761394 .03366089 .11075846 .061767579 .09106445 .0982666 .071370448 .13476563 .061523439 .17240398 .061523439 .21118164 .061523439 .25028483 .071370448 .28800456 .09106445 .32434083 .11075846 .3606771 .13761394 .38878379 .17163086 .4086609 .20564778 .428538 .2413737 .43847657 .2788086 .43847657 .3504232 .43847657 .41064454 .40603639 .45947267 .341156V.5722656H.40478517C.394694 .5722656 .38753257 .574173 .38330079 .5779877 .379069 .58180239 .37695313 .58673098 .37695313 .59277346 .37695313 .5986328 .379069 .6035156 .38330079 .6074219 .38753257 .6113281 .394694 .61328127 .40478517 .61328127H.50097659M.45947267 .21142578C.45947267 .26364137 .44189454 .30769859 .40673829 .3435974 .37158204 .37950645 .3297526 .39746095 .28125 .39746095 .23242188 .39746095 .19042969 .37950645 .15527344 .3435974 .12011719 .30769859 .10253906 .26364137 .10253906 .21142578 .10253906 .15953572 .12011719 .11555481 .15527344 .07948303 .19042969 .04342143 .23242188 .025390625 .28125 .025390625 .3297526 .025390625 .37158204 .04342143 .40673829 .07948303 .44189454 .11555481 .45947267 .15953572 .45947267 .21142578Z"/>
<path id="font_3_7" d="M.5239258 .33984376H.076660159C.06689453 .33984376 .059895833 .34177146 .055664064 .34562684 .051432294 .3494924 .049316408 .35448203 .049316408 .3605957 .049316408 .36638389 .051432294 .37120567 .055664064 .37506105 .059895833 .3789266 .06689453 .38085938 .076660159 .38085938H.5239258C.5336914 .38085938 .5406901 .3789266 .5449219 .37506105 .5491536 .37120567 .55126956 .3662211 .55126956 .36010743 .55126956 .35431925 .5491536 .3494924 .5449219 .34562684 .5406901 .34177146 .5336914 .33984376 .5239258 .33984376M.5239258 .19238281H.076660159C.06689453 .19238281 .059895833 .19425456 .055664064 .19799805 .051432294 .20174153 .049316408 .20670574 .049316408 .21289063 .049316408 .21907552 .051432294 .22403972 .055664064 .2277832 .059895833 .23152669 .06689453 .23339844 .076660159 .23339844H.5239258C.5336914 .23339844 .5406901 .23152669 .5449219 .2277832 .5491536 .22403972 .55126956 .21907552 .55126956 .21289063 .55126956 .20670574 .5491536 .20174153 .5449219 .19799805 .5406901 .19425456 .5336914 .19238281 .5239258 .19238281Z"/>
<path id="font_3_3" d="M.3203125 .62109377V.041015626H.4609375C.47070313 .041015626 .4777018 .03914388 .4819336 .03540039 .48616538 .031656904 .48828126 .026692709 .48828126 .020507813 .48828126 .0146484379 .48616538 .009765625 .4819336 .005859375 .4777018 .001953125 .47070313 0 .4609375 0H.13867188C.12890625 0 .121907558 .001953125 .11767578 .005859375 .11344401 .009765625 .111328128 .0146484379 .111328128 .020507813 .111328128 .026692709 .11344401 .031656904 .11767578 .03540039 .121907558 .03914388 .12890625 .041015626 .13867188 .041015626H.27929688V.5644531L.14550781 .52246096C.13899739 .5205078 .13427735 .51953127 .13134766 .51953127 .12646485 .51953127 .12198893 .52156576 .11791992 .52563479 .113850917 .5297038 .111816409 .5345052 .111816409 .54003909 .111816409 .5449219 .11344401 .5494792 .11669922 .55371096 .11930338 .5563151 .12467448 .55908206 .1328125 .5620117L.3203125 .62109377Z"/>
<path id="font_3_2" d="M.48828126 .3572235V.25556947C.48828126 .16729228 .46728517 .0974172 .42529298 .045944215 .39241538 .005549113 .35091148-.0146484379 .30078126-.0146484379 .27669273-.0146484379 .25398765-.009841919 .23266602-.00022888184 .2113444 .009373982 .19319661 .02281189 .17822266 .04008484 .16878255 .0508372 .15844727 .068099979 .1472168 .09187317 .13598633 .11565653 .12792969 .13748677 .123046878 .15736389 .1155599 .18537903 .111816409 .21811421 .111816409 .25556947V.3572235C.111816409 .4458262 .1328125 .5158641 .17480469 .56733706 .2076823 .6077321 .2491862 .6279297 .2993164 .6279297 .32373048 .6279297 .34651695 .62312319 .36767579 .61351016 .38883464 .6039073 .40690104 .59046939 .421875 .5731964 .43164063 .56211856 .44205729 .5446879 .453125 .52090457 .46419273 .49713136 .47233073 .47546897 .47753907 .45591737 .48470054 .42790223 .48828126 .39500428 .48828126 .3572235M.44726563 .3517151C.44726563 .39048258 .44181315 .42655946 .4309082 .45994569 .42000328 .49334208 .40771485 .519989 .39404298 .5398865 .38590495 .55130007 .37532554 .5611623 .3623047 .56947329 .34375 .58110049 .32291667 .58691409 .2998047 .58691409 .25390626 .58653768 .2179362 .5628662 .19189453 .51589968 .16585286 .46894328 .15283203 .41419984 .15283203 .3516693V.26130677C.15283203 .22254944 .1582845 .18639629 .16918946 .15284729 .1800944 .11930847 .19254558 .09261068 .20654297 .072753909 .21435547 .0616862 .22477214 .052083333 .23779297 .043945314 .25634767 .032226564 .27734376 .026367188 .30078126 .026367188 .34635417 .026367188 .38216148 .049886068 .40820313 .09692383 .43424479 .1439616 .44726563 .1987559 .44726563 .26130677V.3517151Z"/>
<path id="font_3_1" d="M0 0Z"/>
<path id="font_3_9" d="M.43798829 .34892274V.42382813H.5341797C.5439453 .42382813 .55094406 .42192079 .5551758 .41810609 .55940756 .41429139 .56152346 .4093628 .56152346 .4033203 .56152346 .39746095 .55940756 .39257813 .5551758 .38867188 .55094406 .38476563 .5439453 .3828125 .5341797 .3828125H.4790039V-.027908326C.4790039-.055323285 .47314454-.07979838 .46142579-.10133362 .45361329-.11569723 .44059245-.13054912 .42236329-.14588928 .40413413-.16122945 .38753257-.17215984 .3725586-.17868042 .35758464-.18521118 .3375651-.18847656 .3125-.18847656H.19628906C.18652344-.18847656 .17952474-.18662517 .17529297-.18292237 .1710612-.17922974 .16894531-.17432659 .16894531-.16821289 .16894531-.1620992 .1710612-.15710958 .17529297-.15324402 .17952474-.14938863 .18652344-.14746094 .19628906-.14746094H.31396485C.33805339-.14746094 .3597819-.14127095 .3791504-.12889099 .3985189-.116511028 .41455079-.09842936 .4272461-.074645999 .43440757-.060963949 .43798829-.043533327 .43798829-.022354126V.10079956C.39404298 .04076131 .33740235 .0107421879 .2680664 .0107421879 .2117513 .0107421879 .16316732 .031677247 .12231445 .07354736 .081461589 .11542765 .061035158 .16586304 .061035158 .22485352 .061035158 .283844 .081461589 .3341929 .12231445 .37590028 .16316732 .4176178 .2117513 .43847657 .2680664 .43847657 .33740235 .43847657 .39404298 .40862528 .43798829 .34892274M.43798829 .22485352C.43798829 .27323405 .4214681 .31409709 .38842774 .34744264 .35538737 .38078819 .31591798 .39746095 .27001954 .39746095 .2241211 .39746095 .18473308 .3807068 .15185547 .3471985 .11897787 .3136902 .10253906 .27290855 .10253906 .22485352 .10253906 .17647298 .11897787 .13552857 .15185547 .10202026 .18473308 .06851196 .2241211 .051757814 .27001954 .051757814 .31591798 .051757814 .35538737 .06851196 .38842774 .10202026 .4214681 .13552857 .43798829 .17647298 .43798829 .22485352Z"/>
<path id="font_4_7" d="M.045410158 0 .19482422 .7158203H.66015627L.6430664 .6347656H.2734375L.22607422 .40625H.60253909L.5854492 .3251953H.20898438L.14111328 0H.045410158Z"/>
<path id="font_4_15" d="M.048828126 .19677735C.048828126 .2980143 .07861328 .38183595 .1381836 .4482422 .18733724 .5029297 .25179038 .53027346 .33154298 .53027346 .39404298 .53027346 .44441734 .5107422 .48266603 .4716797 .52091476 .4326172 .54003909 .3798828 .54003909 .31347657 .54003909 .25390626 .5279948 .19848633 .50390627 .1472168 .47981773 .095947269 .44555665 .056640626 .40112306 .029296875 .35668946 .001953125 .30989585-.01171875 .2607422-.01171875 .22037761-.01171875 .18367513-.003092448 .15063477 .014160156 .1175944 .03141276 .09236654 .055826826 .07495117 .087402347 .05753581 .11897787 .048828126 .1554362 .048828126 .19677735M.13720703 .2055664C.13720703 .15673828 .14892578 .11971029 .17236328 .09448242 .19580078 .069254558 .22558594 .056640626 .26171876 .056640626 .28059898 .056640626 .2993164 .060465497 .3178711 .068115238 .33642579 .07576498 .35367839 .087402347 .3696289 .103027347 .38557945 .118652347 .39916993 .13647461 .4104004 .15649414 .42163087 .17651367 .43066407 .19807942 .4375 .2211914 .44759117 .25341798 .45263673 .28434245 .45263673 .31396485 .45263673 .36083985 .44083659 .3972168 .41723634 .4230957 .39363609 .4489746 .36393229 .46191407 .328125 .46191407 .30045573 .46191407 .27522788 .45532228 .2524414 .44213868 .22965496 .42895509 .20906575 .40966798 .19067383 .38427735 .1722819 .35888673 .15877278 .3293457 .15014649 .2956543 .14152019 .2619629 .13720703 .2319336 .13720703 .2055664Z"/>
<path id="font_4_17" d="M.033203126 0 .14160156 .5185547H.21972656L.1977539 .4121399C.22444661 .45233155 .25056968 .48206584 .27612306 .5013428 .30167643 .5206299 .32779948 .53027346 .3544922 .53027346 .3720703 .53027346 .39371745 .52408859 .4194336 .51171877L.38330079 .4296875C.3680013 .44010417 .35123698 .4453125 .3330078 .4453125 .30208335 .4453125 .27034507 .42809043 .23779297 .39364625 .20524089 .35921226 .1796875 .2973226 .16113281 .2079773L.1171875 0H.033203126Z"/>
<path id="font_4_11" d="M.4140625 .17480469 .5 .16699219C.48763023 .12446085 .45922853 .08404032 .41479493 .04573059 .37036134 .0074310305 .3173828-.01171875 .25585938-.01171875 .21744792-.01171875 .18221028-.0028483074 .15014649 .014892578 .11808268 .032633466 .09366862 .05843099 .0769043 .092285159 .060139974 .12613933 .051757814 .16471355 .051757814 .20800781 .051757814 .26464845 .06486002 .31958009 .09106445 .37280274 .11726888 .4260254 .15120442 .46557618 .1928711 .49145509 .23453777 .517334 .2796224 .53027346 .328125 .53027346 .38997398 .53027346 .43937174 .5110677 .47631837 .47265626 .51326498 .43424479 .5317383 .38183595 .5317383 .3154297 .5317383 .29003907 .52945968 .2639974 .52490237 .23730469H.1430664C.14176433 .22721355 .14111328 .21809896 .14111328 .20996094 .14111328 .16145833 .15226238 .124430339 .17456055 .09887695 .19685872 .07332357 .2241211 .060546876 .25634767 .060546876 .2866211 .060546876 .31640626 .07034811 .34570313 .08995056 .375 .109563197 .39778648 .1378479 .4140625 .17480469M.15722656 .30566407H.4482422C.44856773 .31474815 .44873048 .3212382 .44873048 .32513429 .44873048 .3692627 .43766276 .40309144 .41552735 .42662049 .39339195 .45014955 .36490885 .46191407 .33007813 .46191407 .29231773 .46191407 .2578939 .44893394 .22680664 .42297364 .1957194 .39701335 .17252605 .35791017 .15722656 .30566407Z"/>
<path id="font_4_12" d="M.028320313-.046875 .11767578-.0546875C.11702474-.07499186 .11946615-.09022013 .125-.100372318 .13053386-.1105245 .13932292-.118387859 .15136719-.1239624 .1673177-.13116455 .18798828-.13476563 .2133789-.13476563 .2667643-.13476563 .30517579-.12093099 .32861329-.09326172 .34391276-.07470703 .3580729-.03434245 .37109376 .027832032L.3798828 .06982422C.33398438 .02327474 .28515626 0 .23339844 0 .18098958 0 .13712566 .01928711 .10180664 .057861329 .06648763 .09643555 .048828126 .15104167 .048828126 .22167969 .048828126 .2799479 .06274414 .3334961 .09057617 .38232423 .1184082 .43115235 .15152996 .46801759 .1899414 .49291993 .22835286 .51782229 .26790367 .53027346 .30859376 .53027346 .3766276 .53027346 .42903648 .49798585 .4658203 .43341065L.48339845 .5185547H.5644531L.45996095 .018066407C.44856773-.037068685 .43359376-.08004761 .41503907-.11087036 .39648438-.1417033 .37068687-.16559856 .33764649-.18255615 .3046061-.19952393 .2664388-.20800781 .22314453-.20800781 .18147786-.20800781 .14558919-.20262146 .115478519-.19184876 .085367839-.18107605 .0629069-.1653188 .048095704-.14457703 .033284505-.12384542 .025878907-.10009257 .025878907-.07331848 .025878907-.06516012 .026692709-.056345624 .028320313-.046875M.13867188 .22949219C.13867188 .19401042 .14208985 .1673177 .14892578 .14941406 .1586914 .12434896 .17260742 .10522461 .19067383 .092041019 .20874024 .07885742 .22884114 .072265628 .25097657 .072265628 .2799479 .072265628 .3087565 .08243307 .33740235 .102767948 .3660482 .123113 .38924156 .15460205 .40698243 .1972351 .4247233 .23987834 .43359376 .28056336 .43359376 .31929017 .43359376 .36194358 .4217936 .39588929 .39819337 .42112733 .3745931 .44636537 .3453776 .45898438 .31054688 .45898438 .2890625 .45898438 .26822917 .4532064 .24804688 .4416504 .22786458 .4300944 .20906575 .41251628 .19165039 .38891603 .17423503 .36531578 .16105144 .3370768 .15209961 .30419923 .14314778 .27132163 .13867188 .24641927 .13867188 .22949219Z"/>
<path id="font_4_19" d="M.38720704 .09375C.32503257 .0234375 .26139323-.01171875 .19628906-.01171875 .15625-.01171875 .123942058-.00024414063 .099365238 .022705079 .074788417 .045654298 .0625 .07373047 .0625 .106933597 .0625 .12874349 .06803385 .16617839 .07910156 .21923828L.14160156 .5185547H.22998047L.16064453 .18701172C.15478516 .15934246 .15185547 .13785808 .15185547 .122558597 .15185547 .103027347 .15779622 .08780924 .16967774 .0769043 .18155925 .06599935 .19905599 .060546876 .22216797 .060546876 .24690755 .060546876 .27107749 .06656901 .29467774 .07861328 .31827799 .090657558 .33862306 .106933597 .3557129 .1274414 .37280274 .14794922 .38671876 .17220052 .39746095 .20019531 .4046224 .21809896 .4129232 .24951172 .42236329 .2944336L.46923829 .5185547H.5576172L.44921876 0H.36767579L.38720704 .09375Z"/>
<path id="font_4_14" d="M.033203126 0 .14160156 .5185547H.22167969L.20263672 .42811585C.23746746 .46366883 .27001954 .48958335 .30029298 .5058594 .3305664 .52213546 .36149089 .53027346 .3930664 .53027346 .4350586 .53027346 .46801759 .51887008 .49194337 .49606324 .51586917 .47325645 .52783206 .4427948 .52783206 .40467835 .52783206 .3854828 .5236003 .3552195 .5151367 .31388856L.44921876 0H.36083985L.4296875 .32826234C.43652345 .36013285 .4399414 .38370768 .4399414 .39898683 .4399414 .4162191 .43400065 .4302012 .42211915 .44093324 .41023765 .45166526 .3930664 .45703126 .37060548 .45703126 .32535807 .45703126 .28507487 .44078575 .24975586 .40829469 .21443685 .3758138 .18847656 .32010398 .171875 .24116516L.12158203 0H.033203126Z"/>
<path id="font_4_10" d="M.3828125 .07519531C.33235679 .017252604 .2796224-.01171875 .22460938-.01171875 .17545574-.01171875 .13452149 .0064290368 .10180664 .04272461 .0690918 .07902018 .052734376 .13167317 .052734376 .2006836 .052734376 .26383464 .06567383 .3215332 .091552738 .3737793 .11743164 .4260254 .14982097 .46516929 .1887207 .49121095 .22762044 .5172526 .26660157 .53027346 .30566407 .53027346 .3701172 .53027346 .41878257 .49934898 .45166017 .4375L.5102539 .7158203H.59814456L.44873048 0H.3671875L.3828125 .07519531M.140625 .21739197C.140625 .18134053 .14420574 .15292359 .15136719 .13214112 .15852864 .11135864 .17073567 .094065349 .18798828 .08026123 .20524089 .066467288 .22591146 .059570314 .25 .059570314 .29003907 .059570314 .32633464 .08036295 .35888673 .12194824 .4025065 .17718506 .4243164 .24541219 .4243164 .32662965 .4243164 .36750285 .41357423 .39945475 .39208985 .42248536 .37060548 .44551597 .34358726 .45703126 .31103517 .45703126 .2898763 .45703126 .2705892 .45232139 .25317384 .4429016 .23575847 .43349204 .21850586 .41750083 .20141602 .39492799 .18432617 .37235514 .16992188 .34369407 .15820313 .3089447 .14648438 .27420555 .140625 .24368795 .140625 .21739197Z"/>
<path id="font_4_1" d="M0 0Z"/>
<path id="font_4_16" d="M-.010253906-.19921875 .13964844 .5185547H.2211914L.20605469 .44628907C.23632813 .4778646 .26342774 .49975587 .28735353 .5119629 .3112793 .5241699 .33658854 .53027346 .36328126 .53027346 .4127604 .53027346 .45377604 .5122884 .48632813 .47631837 .5188802 .4403483 .53515627 .38883464 .53515627 .32177735 .53515627 .26774089 .5262044 .21850586 .5083008 .17407227 .49039714 .12963867 .46842448 .09391276 .4423828 .06689453 .41634117 .0398763 .38997398 .020019532 .36328126 .0073242189 .33658854-.0053710939 .30924479-.01171875 .28125-.01171875 .21907552-.01171875 .17089844 .019856772 .13671875 .08300781L.078125-.19921875H-.010253906M.16455078 .21200562C.16455078 .17324829 .1673177 .14637757 .17285156 .13139344 .18098958 .1102244 .19433594 .09312439 .21289063 .080093387 .23144531 .06706238 .2529297 .060546876 .27734376 .060546876 .328125 .060546876 .36914063 .08911133 .40039063 .14624024 .43164063 .20336914 .44726563 .26171876 .44726563 .32128907 .44726563 .36523438 .43676759 .39916993 .41577149 .4230957 .3947754 .44702149 .36865235 .45898438 .33740235 .45898438 .3149414 .45898438 .29410807 .4530436 .27490235 .4411621 .25569663 .42929078 .23787435 .41156007 .22143555 .38796998 .20499675 .36437989 .19140625 .3355001 .18066406 .30133058 .16992188 .26716105 .16455078 .23738607 .16455078 .21200562Z"/>
<path id="font_4_9" d="M.39111329 .18945313 .4794922 .1796875C.45735679 .11490885 .42586265 .06681315 .38500978 .03540039 .3441569 .0039876305 .2976888-.01171875 .24560547-.01171875 .18929036-.01171875 .14363607 .0065104167 .10864258 .04296875 .073649089 .079427089 .056152345 .1303711 .056152345 .19580078 .056152345 .2524414 .06738281 .30810548 .08984375 .36279298 .11230469 .41748048 .14444988 .45906578 .1862793 .48754884 .22810872 .5160319 .2758789 .53027346 .32958985 .53027346 .3852539 .53027346 .42936198 .5145671 .46191407 .4831543 .49446617 .45174156 .5107422 .41015626 .5107422 .35839845L.42382813 .35253907C.4235026 .38526408 .4139811 .41085816 .39526368 .4293213 .37654624 .4477946 .35188804 .45703126 .32128907 .45703126 .28580729 .45703126 .25504557 .44581095 .2290039 .42337037 .20296224 .40093995 .18253581 .36688233 .16772461 .3211975 .1529134 .27552287 .14550781 .23155213 .14550781 .18928528 .14550781 .14507549 .15527344 .11191305 .17480469 .08979797 .19433594 .06769308 .21842449 .056640626 .24707031 .056640626 .27571617 .056640626 .30314128 .067586269 .3293457 .08947754 .35555015 .11136881 .3761393 .14469402 .39111329 .18945313Z"/>
<path id="font_4_18" d="M.041503908 .17675781 .12988281 .18261719C.12988281 .15722656 .13378906 .13557942 .14160156 .11767578 .14941406 .09977213 .16381836 .085123699 .18481446 .07373047 .20581055 .06233724 .23030599 .056640626 .25830079 .056640626 .29736329 .056640626 .32666017 .064453128 .3461914 .080078128 .36572267 .095703128 .37548829 .114095058 .37548829 .1352539 .37548829 .15055339 .3696289 .16503906 .35791017 .17871094 .34586589 .19238281 .31648765 .20922852 .2697754 .22924805 .22306316 .24926758 .19319661 .26334635 .18017578 .27148438 .15836589 .28483073 .14192708 .3005371 .13085938 .31860353 .119791667 .33666993 .11425781 .35742188 .11425781 .38085938 .11425781 .421875 .13053386 .45703126 .16308594 .48632813 .19563802 .515625 .24121094 .53027346 .2998047 .53027346 .36490885 .53027346 .4144694 .5152181 .44848634 .48510743 .48250328 .45499674 .5001628 .4153646 .50146487 .36621095L.41503907 .36035157C.41373698 .39160157 .40266929 .41634117 .38183595 .4345703 .3610026 .45279948 .33154298 .46191407 .29345704 .46191407 .26285807 .46191407 .23909505 .45491538 .22216797 .44091798 .20524089 .42692057 .19677735 .41178385 .19677735 .3955078 .19677735 .37923179 .20410156 .36490885 .21875 .35253907 .22851563 .34407554 .2537435 .3310547 .2944336 .31347657 .36214195 .2841797 .40478517 .26106773 .42236329 .24414063 .45035807 .21712239 .46435548 .1842448 .46435548 .14550781 .46435548 .119791667 .45646159 .094563808 .44067384 .06982422 .42488609 .045084638 .40079753 .025309245 .3684082 .010498047 .3360189-.004313151 .29785157-.01171875 .25390626-.01171875 .19401042-.01171875 .1430664 .0030517579 .10107422 .032592775 .05908203 .062143964 .03922526 .110198978 .041503908 .17675781Z"/>
<path id="font_4_3" d="M.05859375 0C.067708339 .042622884 .080322269 .07832845 .09643555 .1071167 .11254883 .13591512 .13395183 .1632436 .16064453 .18910218 .18733724 .2149709 .23876953 .25831605 .3149414 .31913758 .36116538 .35588075 .39274089 .3830363 .40966798 .40060426 .43408204 .42597453 .4518229 .45085655 .46289063 .47525025 .4703776 .49183146 .4741211 .5098826 .4741211 .5294037 .4741211 .5622508 .46248374 .59013876 .43920899 .6130676 .41593424 .6359965 .38736979 .64746096 .35351563 .64746096 .31998698 .64746096 .2906901 .63583377 .265625 .61257937 .24055989 .58932498 .22265625 .55200198 .21191406 .50061038L.12548828 .51330569C.13395183 .5768941 .15861003 .6270294 .19946289 .66371157 .24031575 .70040389 .29117839 .71875 .35205079 .71875 .39274089 .71875 .4296061 .7102763 .46264649 .69332888 .49568687 .6763916 .5205078 .65261337 .5371094 .621994 .55371096 .5913747 .5620117 .55977377 .5620117 .52719119 .5620117 .47962443 .54508468 .43385316 .51123049 .38987733 .49039714 .36255393 .42919923 .30872599 .32763673 .22839356 .28401695 .19391887 .25154624 .1656189 .23022461 .14349365 .208903 .12137858 .1928711 .10056559 .1821289 .08105469H.5024414L.48535157 0H.05859375Z"/>
<path id="font_4_2" d="M.07080078 .23518372C.07080078 .2956899 .079833988 .35717265 .09790039 .41963197 .1159668 .48209129 .1360677 .53202316 .15820313 .5694275 .18033855 .60684207 .20328777 .6361186 .22705078 .6572571 .2508138 .67840579 .27416993 .6939392 .29711915 .7038574 .32006837 .7137858 .34554038 .71875 .37353517 .71875 .42822267 .71875 .47387696 .6984151 .51049807 .65774539 .54711917 .61708578 .5654297 .55836996 .5654297 .4815979 .5654297 .40255738 .5527344 .32432557 .52734377 .24690247 .49739585 .15516663 .45572917 .086364749 .40234376 .040496828 .36132813 .005686442 .31461589-.01171875 .26220704-.01171875 .2084961-.01171875 .16316732 .009343465 .1262207 .051467897 .089274089 .09359232 .07080078 .15483094 .07080078 .23518372M.15625 .21263123C.15625 .16875713 .16357422 .13447063 .17822266 .10977173 .19807942 .075653079 .22753906 .05859375 .26660157 .05859375 .30078126 .05859375 .3318685 .074030559 .35986329 .104904178 .40022788 .14845276 .43058268 .21222942 .45092774 .29623414 .4712728 .38023887 .4814453 .44889323 .4814453 .50219729 .4814453 .553538 .4715983 .59058126 .4519043 .613327 .4322103 .63608297 .40625 .64746096 .37402345 .64746096 .35058595 .64746096 .32869468 .641449 .3083496 .62942507 .28800456 .6174011 .2685547 .5967662 .25 .56752017 .22363281 .52624008 .2006836 .4644928 .18115235 .38227845 .16455078 .31207786 .15625 .25552879 .15625 .21263123Z"/>
<path id="font_4_6" d="M.04345703 0 .19335938 .7158203H.41503907C.45540367 .7158203 .48535157 .7141927 .5048828 .7109375 .5367839 .7054036 .5637207 .6957245 .58569338 .6819 .607666 .66807559 .6246745 .6492055 .63671877 .6252899 .648763 .60138449 .65478518 .57495626 .65478518 .54600527 .65478518 .5066376 .6439616 .47198997 .62231448 .44206239 .6006673 .4121348 .5675456 .38936363 .5229492 .37374879 .5616862 .3610433 .59065756 .3419037 .6098633 .31632997 .62906906 .2907664 .6386719 .2608846 .6386719 .22668457 .6386719 .1872762 .62736007 .14949544 .6047363 .113342288 .5821126 .077189128 .55216476 .049260457 .5148926 .029556275 .47762046 .009852092 .43603517 0 .39013673 0H.04345703M.22509766 .41015626H.3701172C.43945313 .41015626 .4893392 .4212443 .5197754 .4434204 .5502116 .4656067 .5654297 .49790956 .5654297 .540329 .5654297 .56055197 .56070968 .5780029 .55126956 .5926819 .5418294 .60736086 .5292155 .618042 .51342776 .62472537 .49763999 .6314189 .4679362 .6347656 .4243164 .6347656H.27197267L.22509766 .41015626M.15625 .08105469H.31933595C.36263023 .08105469 .3917643 .08252462 .40673829 .08546448 .43701173 .09068298 .46158854 .09956869 .48046876 .11212158 .49934898 .12467448 .51416018 .14122518 .52490237 .16177368 .53564456 .18232219 .5410156 .20385234 .5410156 .22636414 .5410156 .25995384 .5305176 .2854716 .5095215 .30291749 .4885254 .32037355 .44856773 .32910157 .38964845 .32910157H.20800781L.15625 .08105469Z"/>
<path id="font_4_8" d="M.3828125 .064453128C.35221354 .038085939 .3227539 .018798829 .2944336 .006591797 .26611329-.0056152346 .23583985-.01171875 .20361328-.01171875 .15576172-.01171875 .1171875 .0023600262 .087890628 .030517579 .05859375 .05867513 .043945314 .09472656 .043945314 .13867188 .043945314 .16764324 .05053711 .193278 .0637207 .21557617 .0769043 .23787435 .09440104 .25577799 .11621094 .2692871 .13802083 .28279624 .16471355 .29248048 .19628906 .29833985 .21614583 .3022461 .25382487 .30533854 .30932618 .3076172 .36482749 .30989585 .4046224 .31575523 .42871095 .3251953 .43554688 .34928385 .43896485 .36930339 .43896485 .3852539 .43896485 .40576173 .43147788 .421875 .4165039 .43359376 .3959961 .44986979 .3660482 .4580078 .32666017 .4580078 .28955079 .4580078 .25919596 .44978843 .2355957 .4333496 .21199544 .4169108 .19482422 .3935547 .18408203 .36328126L.09472656 .37109376C.11295573 .42252604 .1418457 .46191407 .18139649 .4892578 .22094727 .51660159 .27083335 .53027346 .3310547 .53027346 .39518229 .53027346 .44596354 .51497396 .48339845 .484375 .51204428 .46158854 .5263672 .43196617 .5263672 .3955078 .5263672 .36783854 .52229818 .33577476 .51416018 .2993164L.48535157 .17041016C.47623698 .12939453 .4716797 .09602865 .4716797 .0703125 .4716797 .054036458 .4752604 .030598959 .48242188 0H.3930664C.3881836 .016927084 .38476563 .038411458 .3828125 .064453128M.41552735 .2626953C.40315757 .2578125 .38989259 .254069 .37573243 .25146485 .36157228 .24886067 .33789063 .24609375 .3046875 .24316406 .25325523 .23860677 .21695964 .23282878 .19580078 .22583008 .17464192 .21883138 .1586914 .2076823 .14794922 .19238281 .13720703 .17708333 .13183594 .16015625 .13183594 .14160156 .13183594 .11686198 .14038086 .09651693 .1574707 .080566409 .17456055 .06461588 .19889324 .056640626 .23046875 .056640626 .25976563 .056640626 .2879232 .06437174 .3149414 .079833988 .34195964 .09529623 .36328126 .11686198 .37890626 .14453125 .39453126 .17220052 .40673829 .21158855 .41552735 .2626953Z"/>
<path id="font_4_13" d="M.034179689 0 .18408203 .7158203H.27197267L.17919922 .27212525 .43701173 .5185547H.55371096L.33251954 .3252411 .4663086 0H.3696289L.26611329 .26683045 .1586914 .17381287 .122558597 0H.034179689Z"/>
<path id="font_4_4" d="M.0546875 .18847656 .140625 .19921875C.14713542 .1489156 .16153972 .11289978 .18383789 .091171268 .20613607 .06945292 .23535156 .05859375 .27148438 .05859375 .31510417 .05859375 .3527832 .07418823 .38452149 .1053772 .41625978 .13657634 .4321289 .17232259 .4321289 .21261597 .4321289 .24771118 .4202474 .27671305 .39648438 .29962159 .37272135 .32253013 .3408203 .33398438 .30078126 .33398438 .29622398 .33398438 .28678385 .33333335 .27246095 .33203126L.28759767 .40623475C.2960612 .40494285 .30419923 .40429688 .31201173 .40429688 .36246745 .40429688 .4012858 .41653443 .4284668 .44100953 .4556478 .46549479 .46923829 .49556986 .46923829 .53123477 .46923829 .5639801 .4580892 .5915375 .43579103 .61390689 .41349284 .63627627 .38623048 .64746096 .3540039 .64746096 .32242839 .64746096 .2940267 .6360321 .26879884 .61317446 .24357097 .5903168 .2273763 .55797836 .22021485 .51615908L.13330078 .5336609C.1476237 .59259036 .1751302 .63816836 .21582031 .6703949 .2565104 .70263168 .3046875 .71875 .36035157 .71875 .4189453 .71875 .46638999 .7010193 .50268557 .66555789 .53898116 .6301066 .5571289 .58651736 .5571289 .53479006 .5571289 .49704997 .5472819 .46411134 .5275879 .43597413 .50789389 .4078369 .47835288 .38449607 .43896485 .36595155 .46695964 .34936015 .48787437 .3293508 .501709 .30592347 .51554366 .28250633 .52246096 .25567118 .52246096 .22541809 .52246096 .16134136 .49845378 .105799358 .45043946 .058792116 .40242515 .011784871 .3450521-.01171875 .2783203-.01171875 .21354167-.01171875 .16121419 .0064697267 .12133789 .04284668 .081461589 .0792338 .059244794 .1277771 .0546875 .18847656Z"/>
<path id="font_4_5" d="M.29882813 0 .3371582 .18261719H.045410158L.063964847 .27001954 .46484376 .7158203H.5371094L.44180299 .2607422H.54248049L.5263672 .18261719H.42544557L.38720704 0H.29882813M.35354615 .2607422 .41601563 .5583954 .14941406 .2607422H.35354615Z"/>
<path id="font_3_4" d="M.123535159 .041015626H.43847657V.057617189C.43847657 .06738281 .4404297 .07438151 .44433595 .07861328 .4482422 .082845058 .45328776 .08496094 .45947267 .08496094 .46533204 .08496094 .47021485 .082845058 .4741211 .07861328 .47802735 .07438151 .47998048 .06738281 .47998048 .057617189V0H.083496097V.061523439C.16682942 .13639324 .24788411 .21256511 .32666017 .29003907 .363444 .32617188 .38867188 .3527018 .40234376 .3696289 .41601563 .386556 .42537437 .40144859 .43041993 .41430665 .43546549 .4271647 .43798829 .44010417 .43798829 .453125 .43798829 .48828126 .42382813 .51936849 .3955078 .5463867 .3671875 .57340499 .3330078 .58691409 .29296876 .58691409 .25716148 .58691409 .22542317 .5765788 .1977539 .5559082 .17008464 .5352478 .15218099 .5096639 .14404297 .4791565 .14208985 .47128297 .13964844 .4661967 .13671875 .4638977 .1328125 .46062217 .1282552 .45898438 .123046878 .45898438 .11751302 .45898438 .11287435 .4608612 .10913086 .46461488 .10538737 .46836854 .103515628 .4728597 .103515628 .47808839 .103515628 .49375407 .11206055 .5149689 .12915039 .5417328 .14624024 .5685069 .1698405 .589564 .19995117 .6049042 .23006185 .6202545 .26090495 .6279297 .29248048 .6279297 .34358726 .6279297 .38753257 .6101735 .4243164 .57466128 .46110026 .539149 .4794922 .49891664 .4794922 .45396424 .4794922 .4350637 .47639976 .41770936 .47021485 .40190126 .46402995 .3861033 .4535319 .36883546 .4387207 .35009767 .42390953 .33137004 .3972982 .30311076 .35888673 .26531983 .26253257 .17018636 .18408203 .09639486 .123535159 .043945314V.041015626Z"/>
<path id="font_3_5" d="M.38427735 .33319093C.42203776 .31627403 .45084635 .29310099 .47070313 .26367188 .4905599 .23424275 .5004883 .20358785 .5004883 .17170716 .5004883 .12260437 .48055015 .07926941 .44067384 .04170227 .40079753 .004135132 .35091148-.0146484379 .29101563-.0146484379 .25585938-.0146484379 .21940105-.0071614587 .18164063 .0078125 .1438802 .022786459 .11751302 .038085939 .10253906 .053710939 .09765625 .05891927 .095214847 .064453128 .095214847 .0703125 .095214847 .075520839 .097086589 .080078128 .10083008 .083984378 .10457357 .087890628 .10904948 .08984375 .11425781 .08984375 .11946615 .08984375 .12532552 .087402347 .13183594 .08251953 .18229167 .045084638 .23567708 .026367188 .2919922 .026367188 .33951823 .026367188 .37931315 .041234334 .41137696 .07096863 .44344078 .10070292 .45947267 .13376872 .45947267 .17016602 .45947267 .19453939 .45157878 .21842449 .43579103 .24182129 .42000328 .2652181 .3972982 .2836609 .36767579 .29714967 .33805339 .31063844 .30810548 .3173828 .27783204 .3173828 .2680664 .3173828 .26106773 .3192749 .25683595 .32305909 .25260417 .32685343 .25048829 .33187867 .25048829 .33813478 .25048829 .34406535 .2525228 .34900413 .2565918 .35295106 .2606608 .35690818 .2667643 .35888673 .27490235 .35888673L.3100586 .35839845C.34684245 .35839845 .37719728 .36964927 .40112306 .39215089 .42504884 .4146627 .43701173 .44076539 .43701173 .47045899 .43701173 .50111898 .42447917 .5281932 .39941407 .5516815 .37434898 .57516989 .34163413 .58691409 .30126954 .58691409 .27294923 .58691409 .24690755 .58199569 .22314453 .5721588 .19938152 .56232199 .18033855 .54887899 .16601563 .53182986 .1608073 .52527877 .15681966 .5212657 .15405274 .51979067 .15128581 .5183156 .14811199 .5175781 .14453125 .5175781 .13899739 .5175781 .13427735 .51945498 .1303711 .5232086 .12646485 .5269725 .12451172 .5314738 .12451172 .53671267 .12451172 .54978439 .13867188 .5662944 .16699219 .5862427 .2063802 .614034 .2511393 .6279297 .30126954 .6279297 .35302735 .6279297 .3955078 .6123454 .42871095 .58117678 .46191407 .5500081 .47851563 .5128784 .47851563 .4697876 .47851563 .44237266 .47054038 .41642253 .45458985 .39193727 .4386393 .36746217 .4152018 .34788005 .38427735 .33319093Z"/>
<path id="font_3_6" d="M.37646485 .171875H.10449219V.21925354L.33251954 .61328127H.41796876V.21289063H.45214845C.4622396 .21289063 .46940104 .21101888 .4736328 .20727539 .4778646 .2035319 .47998048 .1985677 .47998048 .19238281 .47998048 .18652344 .4778646 .18164063 .4736328 .17773438 .46940104 .17382813 .4622396 .171875 .45214845 .171875H.41796876V.041015626H.45214845C.4622396 .041015626 .46940104 .03914388 .4736328 .03540039 .4778646 .031656904 .47998048 .026692709 .47998048 .020507813 .47998048 .0146484379 .4778646 .009765625 .4736328 .005859375 .46940104 .001953125 .4622396 0 .45214845 0H.2998047C.28971354 0 .2825521 .001953125 .2783203 .005859375 .27408854 .009765625 .27197267 .0146484379 .27197267 .020507813 .27197267 .026692709 .27408854 .031656904 .2783203 .03540039 .2825521 .03914388 .28971354 .041015626 .2998047 .041015626H.37646485V.171875M.37646485 .21289063V.5722656H.35498048L.14746094 .21289063H.37646485Z"/>
</defs>
<g clip-path="url(#clip_0)">
<g clip-path="url(#clip_1)">
<path transform="matrix(1,0,0,-1,0,540)" d="M0 539.9999H719.9999V.00003079383H0Z" fill="#ffffff" fill-rule="evenodd"/>
<path transform="matrix(1,0,0,-1,0,540)" d="M71.99999 393.9999C71.99999 413.2608 89.321 428.8749 110.6875 428.8749 132.0541 428.8749 149.3751 413.2608 149.3751 393.9999 149.3751 374.7389 132.0541 359.1248 110.6875 359.1248 89.321 359.1248 71.99999 374.7389 71.99999 393.9999Z" fill="#ffffff" fill-rule="evenodd"/>
<path transform="matrix(.00007874014,0,0,.00007874014,71.99999,111.12509)" stroke-width="12700" stroke-linecap="butt" stroke-linejoin="round" fill="none" stroke="#000000" d="M-.01876833 442913.3C-.01876833 198299.1 219976.8 .3250734 491332 .3250734 762687.2 .3250734 982663.9 198299.1 982663.9 442913.3 982663.9 687527.4 762687.2 885826.2 491332 885826.2 219976.8 885826.2-.01876833 687527.4-.01876833 442913.3Z"/>
<use data-text="F" xlink:href="#font_2_8" transform="matrix(16,0,0,-16,91.53132,133.2001)"/>
<use data-text="o" xlink:href="#font_2_22" transform="matrix(16,0,0,-16,101.30412,133.2001)"/>
<use data-text="r" xlink:href="#font_2_23" transform="matrix(16,0,0,-16,110.20332,133.2001)"/>
<use data-text="e" xlink:href="#font_2_14" transform="matrix(16,0,0,-16,115.53132,133.2001)"/>
<use data-text="-" xlink:href="#font_2_3" transform="matrix(16,0,0,-16,124.43052,133.2001)"/>
<use data-text=" " xlink:href="#font_2_1" transform="matrix(16,0,0,-16,129.75852,133.2001)"/>
<use data-text="g" xlink:href="#font_2_15" transform="matrix(16,0,0,-16,85.53133,152.2001)"/>
<use data-text="r" xlink:href="#font_2_23" transform="matrix(16,0,0,-16,94.43053,152.2001)"/>
<use data-text="o" xlink:href="#font_2_22" transform="matrix(16,0,0,-16,99.75853,152.2001)"/>
<use data-text="u" xlink:href="#font_2_24" transform="matrix(16,0,0,-16,108.65773,152.2001)"/>
<use data-text="n" xlink:href="#font_2_21" transform="matrix(16,0,0,-16,117.55693,152.2001)"/>
<use data-text="d" xlink:href="#font_2_13" transform="matrix(16,0,0,-16,126.45613,152.2001)"/>
<use data-text=" " xlink:href="#font_2_1" transform="matrix(16,0,0,-16,135.35533,152.2001)"/>
<use data-text="j" xlink:href="#font_2_18" transform="matrix(16,0,0,-16,100.5313,171.2001)"/>
<use data-text="o" xlink:href="#font_2_22" transform="matrix(16,0,0,-16,104.0865,171.2001)"/>
<use data-text="b" xlink:href="#font_2_11" transform="matrix(16,0,0,-16,112.9857,171.2001)"/>
<use data-text=" " xlink:href="#font_2_1" transform="matrix(16,0,0,-16,121.8849,171.2001)"/>
<path transform="matrix(1,0,0,-1,0,540)" d="M244.875 394.8749C244.875 413.6526 262.196 428.8749 283.5625 428.8749 304.929 428.8749 322.25 413.6526 322.25 394.8749 322.25 376.0972 304.929 360.8749 283.5625 360.8749 262.196 360.8749 244.875 376.0972 244.875 394.8749Z" fill="#ffffff" fill-rule="evenodd"/>
<path transform="matrix(.00007874014,0,0,.00007874014,244.875,111.12509)" stroke-width="12700" stroke-linecap="butt" stroke-linejoin="round" fill="none" stroke="#000000" d="M-.07794186 431800.4C-.07794186 193323.8 219976.2 .3250734 491331.1 .3250734 762685.4 .3250734 982662 193323.8 982662 431800.4 982662 670276.9 762685.4 863600.4 491331.1 863600.4 219976.2 863600.4-.07794186 670276.9-.07794186 431800.4Z"/>
<use data-text="B" xlink:href="#font_2_6" transform="matrix(16,0,0,-16,263.4063,132.3251)"/>
<use data-text="a" xlink:href="#font_2_10" transform="matrix(16,0,0,-16,274.0783,132.3251)"/>
<use data-text="c" xlink:href="#font_2_12" transform="matrix(16,0,0,-16,282.9775,132.3251)"/>
<use data-text="k" xlink:href="#font_2_19" transform="matrix(16,0,0,-16,290.9775,132.3251)"/>
<use data-text="-" xlink:href="#font_2_3" transform="matrix(16,0,0,-16,298.9775,132.3251)"/>
<use data-text=" " xlink:href="#font_2_1" transform="matrix(16,0,0,-16,304.3055,132.3251)"/>
<use data-text="g" xlink:href="#font_2_15" transform="matrix(16,0,0,-16,258.4063,151.3251)"/>
<use data-text="r" xlink:href="#font_2_23" transform="matrix(16,0,0,-16,267.3055,151.3251)"/>
<use data-text="o" xlink:href="#font_2_22" transform="matrix(16,0,0,-16,272.6335,151.3251)"/>
<use data-text="u" xlink:href="#font_2_24" transform="matrix(16,0,0,-16,281.5327,151.3251)"/>
<use data-text="n" xlink:href="#font_2_21" transform="matrix(16,0,0,-16,290.43193,151.3251)"/>
<use data-text="d" xlink:href="#font_2_13" transform="matrix(16,0,0,-16,299.33113,151.3251)"/>
<use data-text=" " xlink:href="#font_2_1" transform="matrix(16,0,0,-16,308.23033,151.3251)"/>
<use data-text="j" xlink:href="#font_2_18" transform="matrix(16,0,0,-16,262.4063,170.3251)"/>
<use data-text="o" xlink:href="#font_2_22" transform="matrix(16,0,0,-16,265.96153,170.3251)"/>
<use data-text="b" xlink:href="#font_2_11" transform="matrix(16,0,0,-16,274.86073,170.3251)"/>
<use data-text=" " xlink:href="#font_2_1" transform="matrix(16,0,0,-16,283.75993,170.3251)"/>
<use data-text="#" xlink:href="#font_2_2" transform="matrix(16,0,0,-16,288.21113,170.3251)"/>
<use data-text="1" xlink:href="#font_2_4" transform="matrix(16,0,0,-16,297.11033,170.3251)"/>
<use data-text=" " xlink:href="#font_2_1" transform="matrix(16,0,0,-16,306.00953,170.3251)"/>
<path transform="matrix(1,0,0,-1,0,540)" d="M414.5 393.9999C414.5 413.2608 431.8489 428.8749 453.25 428.8749 474.651 428.8749 492 413.2608 492 393.9999 492 374.7389 474.651 359.1248 453.25 359.1248 431.8489 359.1248 414.5 374.7389 414.5 393.9999Z" fill="#ffffff" fill-rule="evenodd"/>
<path transform="matrix(.00007874014,0,0,.00007874014,414.5,111.12509)" stroke-width="12700" stroke-linecap="butt" stroke-linejoin="round" fill="none" stroke="#000000" d="M-.07800299 442913.3C-.07800299 198299.1 220331.9 .3250734 492125 .3250734 763918.1 .3250734 984250.1 198299.1 984250.1 442913.3 984250.1 687527.4 763918.1 885826.2 492125 885826.2 220331.9 885826.2-.07800299 687527.4-.07800299 442913.3Z"/>
<use data-text="B" xlink:href="#font_2_6" transform="matrix(16,0,0,-16,433.0496,133.2001)"/>
<use data-text="a" xlink:href="#font_2_10" transform="matrix(16,0,0,-16,443.7216,133.2001)"/>
<use data-text="c" xlink:href="#font_2_12" transform="matrix(16,0,0,-16,452.6208,133.2001)"/>
<use data-text="k" xlink:href="#font_2_19" transform="matrix(16,0,0,-16,460.6208,133.2001)"/>
<use data-text="-" xlink:href="#font_2_3" transform="matrix(16,0,0,-16,468.6208,133.2001)"/>
<use data-text=" " xlink:href="#font_2_1" transform="matrix(16,0,0,-16,473.9488,133.2001)"/>
<use data-text="g" xlink:href="#font_2_15" transform="matrix(16,0,0,-16,428.0495,152.2001)"/>
<use data-text="r" xlink:href="#font_2_23" transform="matrix(16,0,0,-16,436.9487,152.2001)"/>
<use data-text="o" xlink:href="#font_2_22" transform="matrix(16,0,0,-16,442.2767,152.2001)"/>
<use data-text="u" xlink:href="#font_2_24" transform="matrix(16,0,0,-16,451.1759,152.2001)"/>
<use data-text="n" xlink:href="#font_2_21" transform="matrix(16,0,0,-16,460.0751,152.2001)"/>
<use data-text="d" xlink:href="#font_2_13" transform="matrix(16,0,0,-16,468.9743,152.2001)"/>
<use data-text=" " xlink:href="#font_2_1" transform="matrix(16,0,0,-16,477.8735,152.2001)"/>
<use data-text="j" xlink:href="#font_2_18" transform="matrix(16,0,0,-16,432.0496,171.2001)"/>
<use data-text="o" xlink:href="#font_2_22" transform="matrix(16,0,0,-16,435.6048,171.2001)"/>
<use data-text="b" xlink:href="#font_2_11" transform="matrix(16,0,0,-16,444.504,171.2001)"/>
<use data-text=" " xlink:href="#font_2_1" transform="matrix(16,0,0,-16,453.4032,171.2001)"/>
<use data-text="#" xlink:href="#font_2_2" transform="matrix(16,0,0,-16,457.8544,171.2001)"/>
<use data-text="2" xlink:href="#font_2_5" transform="matrix(16,0,0,-16,466.7536,171.2001)"/>
<use data-text=" " xlink:href="#font_2_1" transform="matrix(16,0,0,-16,475.6528,171.2001)"/>
<path transform="matrix(1,0,0,-1,0,540)" d="M245.25 502.5624C245.25 519.4416 262.5989 533.1249 284 533.1249 305.401 533.1249 322.75 519.4416 322.75 502.5624 322.75 485.6832 305.401 471.9998 284 471.9998 262.5989 471.9998 245.25 485.6832 245.25 502.5624Z" fill="#ffffff" fill-rule="evenodd"/>
<path transform="matrix(.00007874014,0,0,.00007874014,245.25,6.875122)" stroke-width="12700" stroke-linecap="butt" stroke-linejoin="round" fill="none" stroke="#000000" d="M-.1585694 388143.8C-.1585694 173777.8 220331.8 .009033442 492124.9 .009033442 763918.1 .009033442 984250 173777.8 984250 388143.8 984250 602509.8 763918.1 776288 492124.9 776288 220331.8 776288-.1585694 602509.8-.1585694 388143.8Z"/>
<use data-text="S" xlink:href="#font_2_9" transform="matrix(16,0,0,-16,265.7996,43.837587)"/>
<use data-text="h" xlink:href="#font_2_16" transform="matrix(16,0,0,-16,276.4716,43.837587)"/>
<use data-text="e" xlink:href="#font_2_14" transform="matrix(16,0,0,-16,285.3708,43.837587)"/>
<use data-text="l" xlink:href="#font_2_20" transform="matrix(16,0,0,-16,294.27,43.837587)"/>
<use data-text="l" xlink:href="#font_2_20" transform="matrix(16,0,0,-16,297.8252,43.837587)"/>
<use data-text=" " xlink:href="#font_2_1" transform="matrix(16,0,0,-16,301.3804,43.837587)"/>
<path transform="matrix(1,0,0,-1,0,540)" d="M28 304.9375C28 321.8167 45.34896 335.5 66.74999 335.5 88.15102 335.5 105.5 321.8167 105.5 304.9375 105.5 288.0583 88.15102 274.3749 66.74999 274.3749 45.34896 274.3749 28 288.0583 28 304.9375Z" fill="#ffffff" fill-rule="evenodd"/>
<path transform="matrix(.00007874014,0,0,.00007874014,28,204.5)" stroke-width="12700" stroke-linecap="butt" stroke-linejoin="round" fill="none" stroke="#000000" d="M.006240837 388144C.006240837 173778 220331.9 .2322999 492125 .2322999 763918.1 .2322999 984250 173778 984250 388144 984250 602510.1 763918.1 776288.2 492125 776288.2 220331.9 776288.2 .006240837 602510.1 .006240837 388144Z"/>
<use data-text="C" xlink:href="#font_2_7" transform="matrix(16,0,0,-16,48.5496,241.46259)"/>
<use data-text="h" xlink:href="#font_2_16" transform="matrix(16,0,0,-16,60.104799,241.46259)"/>
<use data-text="i" xlink:href="#font_2_17" transform="matrix(16,0,0,-16,69.004,241.46259)"/>
<use data-text="l" xlink:href="#font_2_20" transform="matrix(16,0,0,-16,72.559207,241.46259)"/>
<use data-text="d" xlink:href="#font_2_13" transform="matrix(16,0,0,-16,76.1144,241.46259)"/>
<use data-text=" " xlink:href="#font_2_1" transform="matrix(16,0,0,-16,85.0136,241.46259)"/>
<path transform="matrix(1,0,0,-1,0,540)" d="M116.625 304.9375C116.625 321.8167 133.974 335.5 155.375 335.5 176.776 335.5 194.125 321.8167 194.125 304.9375 194.125 288.0583 176.776 274.3749 155.375 274.3749 133.974 274.3749 116.625 288.0583 116.625 304.9375Z" fill="#ffffff" fill-rule="evenodd"/>
<path transform="matrix(.00007874014,0,0,.00007874014,116.625,204.5)" stroke-width="12700" stroke-linecap="butt" stroke-linejoin="round" fill="none" stroke="#000000" d="M.01846318 388144C.01846318 173778 220331.9 .2322999 492125 .2322999 763918.1 .2322999 984250.1 173778 984250.1 388144 984250.1 602510.1 763918.1 776288.2 492125 776288.2 220331.9 776288.2 .01846318 602510.1 .01846318 388144Z"/>
<use data-text="C" xlink:href="#font_2_7" transform="matrix(16,0,0,-16,137.1746,241.46259)"/>
<use data-text="h" xlink:href="#font_2_16" transform="matrix(16,0,0,-16,148.72982,241.46259)"/>
<use data-text="i" xlink:href="#font_2_17" transform="matrix(16,0,0,-16,157.62902,241.46259)"/>
<use data-text="l" xlink:href="#font_2_20" transform="matrix(16,0,0,-16,161.1842,241.46259)"/>
<use data-text="d" xlink:href="#font_2_13" transform="matrix(16,0,0,-16,164.73941,241.46259)"/>
<use data-text=" " xlink:href="#font_2_1" transform="matrix(16,0,0,-16,173.63861,241.46259)"/>
<path transform="matrix(-.00007874014,-0,0,.00007874014,86.99999,175.87509)" stroke-width="12700" stroke-linecap="butt" stroke-linejoin="round" fill="none" stroke="#000000" d="M.05197145 .06396496 182562.1 369887.2"/>
<path transform="matrix(.00007874014,0,0,.00007874014,134,175.62509)" stroke-width="12700" stroke-linecap="butt" stroke-linejoin="round" fill="none" stroke="#000000" d="M-.0570679-.04895002 163512.9 361950"/>
<path transform="matrix(.00007874014,0,0,.00007874014,284.25,66.87509)" stroke-width="12700" stroke-linecap="butt" stroke-linejoin="round" fill="none" stroke="#000000" d="M-.08239752 .2386476 1.080322 557212.1"/>
<path transform="matrix(-.00007874014,-0,0,.00007874014,257.125,59.62509)" stroke-width="12700" stroke-linecap="butt" stroke-linejoin="round" fill="none" stroke="#000000" d="M-.002197266 .2244875 1481138 801687.1"/>
<path transform="matrix(.00007874014,0,0,.00007874014,313.7499,56.50009)" stroke-width="12700" stroke-linecap="butt" stroke-linejoin="round" fill="none" stroke="#000000" d="M-.1623536 .3308107 1412875 833438.4"/>
<use data-text="p" xlink:href="#font_3_11" transform="matrix(12,0,0,-12,197.325,35.475099)"/>
<use data-text="i" xlink:href="#font_3_10" transform="matrix(12,0,0,-12,204.5262,35.475099)"/>
<use data-text="d" xlink:href="#font_3_8" transform="matrix(12,0,0,-12,211.7274,35.475099)"/>
<use data-text="=" xlink:href="#font_3_7" transform="matrix(12,0,0,-12,218.9286,35.475099)"/>
<use data-text="1" xlink:href="#font_3_3" transform="matrix(12,0,0,-12,226.12979,35.475099)"/>
<use data-text="0" xlink:href="#font_3_2" transform="matrix(12,0,0,-12,233.331,35.475099)"/>
<use data-text=" " xlink:href="#font_3_1" transform="matrix(12,0,0,-12,240.5322,35.475099)"/>
<use data-text="p" xlink:href="#font_3_11" transform="matrix(12,0,0,-12,189.325,49.475099)"/>
<use data-text="g" xlink:href="#font_3_9" transform="matrix(12,0,0,-12,196.5262,49.475099)"/>
<use data-text="i" xlink:href="#font_3_10" transform="matrix(12,0,0,-12,203.7274,49.475099)"/>
<use data-text="d" xlink:href="#font_3_8" transform="matrix(12,0,0,-12,210.9286,49.475099)"/>
<use data-text="=" xlink:href="#font_3_7" transform="matrix(12,0,0,-12,218.12979,49.475099)"/>
<use data-text="1" xlink:href="#font_3_3" transform="matrix(12,0,0,-12,225.331,49.475099)"/>
<use data-text="0" xlink:href="#font_3_2" transform="matrix(12,0,0,-12,232.5322,49.475099)"/>
<use data-text=" " xlink:href="#font_3_1" transform="matrix(12,0,0,-12,239.7334,49.475099)"/>
<path transform="matrix(.00007874014,0,0,.00007874014,6.499999,102.75009)" stroke-width="12700" stroke-linecap="butt" stroke-dasharray="50800,38100" stroke-miterlimit="8" stroke-linejoin="miter" fill="none" stroke="#000000" d="M.0005836468-.0788573H2443163V2647950H.0005836468Z"/>
<use data-text="F" xlink:href="#font_4_7" transform="matrix(16,0,0,-16,62.57503,334.5501)"/>
<use data-text="o" xlink:href="#font_4_15" transform="matrix(16,0,0,-16,72.34783,334.5501)"/>
<use data-text="r" xlink:href="#font_4_17" transform="matrix(16,0,0,-16,81.24703,334.5501)"/>
<use data-text="e" xlink:href="#font_4_11" transform="matrix(16,0,0,-16,86.57503,334.5501)"/>
<use data-text="g" xlink:href="#font_4_12" transform="matrix(16,0,0,-16,95.47423,334.5501)"/>
<use data-text="r" xlink:href="#font_4_17" transform="matrix(16,0,0,-16,104.37343,334.5501)"/>
<use data-text="o" xlink:href="#font_4_15" transform="matrix(16,0,0,-16,109.70143,334.5501)"/>
<use data-text="u" xlink:href="#font_4_19" transform="matrix(16,0,0,-16,118.60063,334.5501)"/>
<use data-text="n" xlink:href="#font_4_14" transform="matrix(16,0,0,-16,127.49983,334.5501)"/>
<use data-text="d" xlink:href="#font_4_10" transform="matrix(16,0,0,-16,136.39904,334.5501)"/>
<use data-text=" " xlink:href="#font_4_1" transform="matrix(16,0,0,-16,145.29824,334.5501)"/>
<use data-text="p" xlink:href="#font_4_16" transform="matrix(16,0,0,-16,42.57503,353.5501)"/>
<use data-text="r" xlink:href="#font_4_17" transform="matrix(16,0,0,-16,51.47423,353.5501)"/>
<use data-text="o" xlink:href="#font_4_15" transform="matrix(16,0,0,-16,56.80223,353.5501)"/>
<use data-text="c" xlink:href="#font_4_9" transform="matrix(16,0,0,-16,65.70143,353.5501)"/>
<use data-text="e" xlink:href="#font_4_11" transform="matrix(16,0,0,-16,73.70143,353.5501)"/>
<use data-text="s" xlink:href="#font_4_18" transform="matrix(16,0,0,-16,82.60063,353.5501)"/>
<use data-text="s" xlink:href="#font_4_18" transform="matrix(16,0,0,-16,90.60063,353.5501)"/>
<use data-text=" " xlink:href="#font_4_1" transform="matrix(16,0,0,-16,98.60063,353.5501)"/>
<use data-text="g" xlink:href="#font_4_12" transform="matrix(16,0,0,-16,103.04544,353.5501)"/>
<use data-text="r" xlink:href="#font_4_17" transform="matrix(16,0,0,-16,111.94464,353.5501)"/>
<use data-text="o" xlink:href="#font_4_15" transform="matrix(16,0,0,-16,117.272647,353.5501)"/>
<use data-text="u" xlink:href="#font_4_19" transform="matrix(16,0,0,-16,126.171848,353.5501)"/>
<use data-text="p" xlink:href="#font_4_16" transform="matrix(16,0,0,-16,135.07105,353.5501)"/>
<use data-text=" " xlink:href="#font_4_1" transform="matrix(16,0,0,-16,143.97025,353.5501)"/>
<use data-text="2" xlink:href="#font_4_3" transform="matrix(16,0,0,-16,148.41504,353.5501)"/>
<use data-text="0" xlink:href="#font_4_2" transform="matrix(16,0,0,-16,157.31424,353.5501)"/>
<use data-text=" " xlink:href="#font_4_1" transform="matrix(16,0,0,-16,166.21344,353.5501)"/>
<path transform="matrix(.00007874014,0,0,.00007874014,238,102.75009)" stroke-width="12700" stroke-linecap="butt" stroke-dasharray="50800,38100" stroke-miterlimit="8" stroke-linejoin="miter" fill="none" stroke="#000000" d="M-.1727296-.0788573H1176338V1085850H-.1727296Z"/>
<use data-text="B" xlink:href="#font_4_6" transform="matrix(16,0,0,-16,244.2,207.42499)"/>
<use data-text="a" xlink:href="#font_4_8" transform="matrix(16,0,0,-16,254.872,207.42499)"/>
<use data-text="c" xlink:href="#font_4_9" transform="matrix(16,0,0,-16,263.7712,207.42499)"/>
<use data-text="k" xlink:href="#font_4_13" transform="matrix(16,0,0,-16,271.7712,207.42499)"/>
<use data-text="g" xlink:href="#font_4_12" transform="matrix(16,0,0,-16,279.7712,207.42499)"/>
<use data-text="r" xlink:href="#font_4_17" transform="matrix(16,0,0,-16,288.6704,207.42499)"/>
<use data-text="o" xlink:href="#font_4_15" transform="matrix(16,0,0,-16,293.9984,207.42499)"/>
<use data-text="u" xlink:href="#font_4_19" transform="matrix(16,0,0,-16,302.89759,207.42499)"/>
<use data-text="n" xlink:href="#font_4_14" transform="matrix(16,0,0,-16,311.7968,207.42499)"/>
<use data-text="d" xlink:href="#font_4_10" transform="matrix(16,0,0,-16,320.69599,207.42499)"/>
<use data-text=" " xlink:href="#font_4_1" transform="matrix(16,0,0,-16,329.5952,207.42499)"/>
<use data-text="p" xlink:href="#font_4_16" transform="matrix(16,0,0,-16,225.2,226.42499)"/>
<use data-text="r" xlink:href="#font_4_17" transform="matrix(16,0,0,-16,234.0992,226.42499)"/>
<use data-text="o" xlink:href="#font_4_15" transform="matrix(16,0,0,-16,239.4272,226.42499)"/>
<use data-text="c" xlink:href="#font_4_9" transform="matrix(16,0,0,-16,248.3264,226.42499)"/>
<use data-text="e" xlink:href="#font_4_11" transform="matrix(16,0,0,-16,256.3264,226.42499)"/>
<use data-text="s" xlink:href="#font_4_18" transform="matrix(16,0,0,-16,265.2256,226.42499)"/>
<use data-text="s" xlink:href="#font_4_18" transform="matrix(16,0,0,-16,273.2256,226.42499)"/>
<use data-text=" " xlink:href="#font_4_1" transform="matrix(16,0,0,-16,281.2256,226.42499)"/>
<use data-text="g" xlink:href="#font_4_12" transform="matrix(16,0,0,-16,285.6704,226.42499)"/>
<use data-text="r" xlink:href="#font_4_17" transform="matrix(16,0,0,-16,294.5696,226.42499)"/>
<use data-text="o" xlink:href="#font_4_15" transform="matrix(16,0,0,-16,299.8976,226.42499)"/>
<use data-text="u" xlink:href="#font_4_19" transform="matrix(16,0,0,-16,308.7968,226.42499)"/>
<use data-text="p" xlink:href="#font_4_16" transform="matrix(16,0,0,-16,317.696,226.42499)"/>
<use data-text=" " xlink:href="#font_4_1" transform="matrix(16,0,0,-16,326.5952,226.42499)"/>
<use data-text="3" xlink:href="#font_4_4" transform="matrix(16,0,0,-16,331.04,226.42499)"/>
<use data-text="2" xlink:href="#font_4_3" transform="matrix(16,0,0,-16,339.9392,226.42499)"/>
<use data-text=" " xlink:href="#font_4_1" transform="matrix(16,0,0,-16,348.8384,226.42499)"/>
<use data-text="B" xlink:href="#font_4_6" transform="matrix(16,0,0,-16,410.325,207.92499)"/>
<use data-text="a" xlink:href="#font_4_8" transform="matrix(16,0,0,-16,420.997,207.92499)"/>
<use data-text="c" xlink:href="#font_4_9" transform="matrix(16,0,0,-16,429.8962,207.92499)"/>
<use data-text="k" xlink:href="#font_4_13" transform="matrix(16,0,0,-16,437.8962,207.92499)"/>
<use data-text="g" xlink:href="#font_4_12" transform="matrix(16,0,0,-16,445.8962,207.92499)"/>
<use data-text="r" xlink:href="#font_4_17" transform="matrix(16,0,0,-16,454.7954,207.92499)"/>
<use data-text="o" xlink:href="#font_4_15" transform="matrix(16,0,0,-16,460.1234,207.92499)"/>
<use data-text="u" xlink:href="#font_4_19" transform="matrix(16,0,0,-16,469.0226,207.92499)"/>
<use data-text="n" xlink:href="#font_4_14" transform="matrix(16,0,0,-16,477.9218,207.92499)"/>
<use data-text="d" xlink:href="#font_4_10" transform="matrix(16,0,0,-16,486.821,207.92499)"/>
<use data-text=" " xlink:href="#font_4_1" transform="matrix(16,0,0,-16,495.7202,207.92499)"/>
<use data-text="p" xlink:href="#font_4_16" transform="matrix(16,0,0,-16,391.325,226.92499)"/>
<use data-text="r" xlink:href="#font_4_17" transform="matrix(16,0,0,-16,400.2242,226.92499)"/>
<use data-text="o" xlink:href="#font_4_15" transform="matrix(16,0,0,-16,405.55223,226.92499)"/>
<use data-text="c" xlink:href="#font_4_9" transform="matrix(16,0,0,-16,414.45143,226.92499)"/>
<use data-text="e" xlink:href="#font_4_11" transform="matrix(16,0,0,-16,422.45143,226.92499)"/>
<use data-text="s" xlink:href="#font_4_18" transform="matrix(16,0,0,-16,431.35063,226.92499)"/>
<use data-text="s" xlink:href="#font_4_18" transform="matrix(16,0,0,-16,439.35063,226.92499)"/>
<use data-text=" " xlink:href="#font_4_1" transform="matrix(16,0,0,-16,447.35063,226.92499)"/>
<use data-text="g" xlink:href="#font_4_12" transform="matrix(16,0,0,-16,451.7954,226.92499)"/>
<use data-text="r" xlink:href="#font_4_17" transform="matrix(16,0,0,-16,460.6946,226.92499)"/>
<use data-text="o" xlink:href="#font_4_15" transform="matrix(16,0,0,-16,466.0226,226.92499)"/>
<use data-text="u" xlink:href="#font_4_19" transform="matrix(16,0,0,-16,474.9218,226.92499)"/>
<use data-text="p" xlink:href="#font_4_16" transform="matrix(16,0,0,-16,483.821,226.92499)"/>
<use data-text=" " xlink:href="#font_4_1" transform="matrix(16,0,0,-16,492.7202,226.92499)"/>
<use data-text="4" xlink:href="#font_4_5" transform="matrix(16,0,0,-16,497.16505,226.92499)"/>
<use data-text="0" xlink:href="#font_4_2" transform="matrix(16,0,0,-16,506.0642,226.92499)"/>
<use data-text=" " xlink:href="#font_4_1" transform="matrix(16,0,0,-16,514.96347,226.92499)"/>
<path transform="matrix(.00007874014,0,0,.00007874014,406.375,102.75009)" stroke-width="12700" stroke-linecap="butt" stroke-dasharray="50800,38100" stroke-miterlimit="8" stroke-linejoin="miter" fill="none" stroke="#000000" d="M-.2062988-.0788573H1176337V1085850H-.2062988Z"/>
<use data-text="p" xlink:href="#font_3_11" transform="matrix(12,0,0,-12,24.2,137.4751)"/>
<use data-text="i" xlink:href="#font_3_10" transform="matrix(12,0,0,-12,31.401202,137.4751)"/>
<use data-text="d" xlink:href="#font_3_8" transform="matrix(12,0,0,-12,38.6024,137.4751)"/>
<use data-text="=" xlink:href="#font_3_7" transform="matrix(12,0,0,-12,45.803606,137.4751)"/>
<use data-text="2" xlink:href="#font_3_4" transform="matrix(12,0,0,-12,53.004804,137.4751)"/>
<use data-text="0" xlink:href="#font_3_2" transform="matrix(12,0,0,-12,60.206007,137.4751)"/>
<use data-text=" " xlink:href="#font_3_1" transform="matrix(12,0,0,-12,67.40721,137.4751)"/>
<use data-text="p" xlink:href="#font_3_11" transform="matrix(12,0,0,-12,16.2,151.4751)"/>
<use data-text="g" xlink:href="#font_3_9" transform="matrix(12,0,0,-12,23.401202,151.4751)"/>
<use data-text="i" xlink:href="#font_3_10" transform="matrix(12,0,0,-12,30.602402,151.4751)"/>
<use data-text="d" xlink:href="#font_3_8" transform="matrix(12,0,0,-12,37.803606,151.4751)"/>
<use data-text="=" xlink:href="#font_3_7" transform="matrix(12,0,0,-12,45.004804,151.4751)"/>
<use data-text="2" xlink:href="#font_3_4" transform="matrix(12,0,0,-12,52.206007,151.4751)"/>
<use data-text="0" xlink:href="#font_3_2" transform="matrix(12,0,0,-12,59.407209,151.4751)"/>
<use data-text=" " xlink:href="#font_3_1" transform="matrix(12,0,0,-12,66.60841,151.4751)"/>
<use data-text="p" xlink:href="#font_3_11" transform="matrix(12,0,0,-12,336.075,141.4751)"/>
<use data-text="i" xlink:href="#font_3_10" transform="matrix(12,0,0,-12,343.2762,141.4751)"/>
<use data-text="d" xlink:href="#font_3_8" transform="matrix(12,0,0,-12,350.47743,141.4751)"/>
<use data-text="=" xlink:href="#font_3_7" transform="matrix(12,0,0,-12,357.67863,141.4751)"/>
<use data-text="3" xlink:href="#font_3_5" transform="matrix(12,0,0,-12,364.87983,141.4751)"/>
<use data-text="2" xlink:href="#font_3_4" transform="matrix(12,0,0,-12,372.08103,141.4751)"/>
<use data-text=" " xlink:href="#font_3_1" transform="matrix(12,0,0,-12,379.28224,141.4751)"/>
<use data-text="p" xlink:href="#font_3_11" transform="matrix(12,0,0,-12,336.075,155.4751)"/>
<use data-text="g" xlink:href="#font_3_9" transform="matrix(12,0,0,-12,343.2762,155.4751)"/>
<use data-text="i" xlink:href="#font_3_10" transform="matrix(12,0,0,-12,350.47743,155.4751)"/>
<use data-text="d" xlink:href="#font_3_8" transform="matrix(12,0,0,-12,357.67863,155.4751)"/>
<use data-text="=" xlink:href="#font_3_7" transform="matrix(12,0,0,-12,364.87983,155.4751)"/>
<use data-text="3" xlink:href="#font_3_5" transform="matrix(12,0,0,-12,372.08103,155.4751)"/>
<use data-text="2" xlink:href="#font_3_4" transform="matrix(12,0,0,-12,379.28224,155.4751)"/>
<use data-text=" " xlink:href="#font_3_1" transform="matrix(12,0,0,-12,386.48344,155.4751)"/>
<use data-text="p" xlink:href="#font_3_11" transform="matrix(12,0,0,-12,502.325,143.6)"/>
<use data-text="i" xlink:href="#font_3_10" transform="matrix(12,0,0,-12,509.5262,143.6)"/>
<use data-text="d" xlink:href="#font_3_8" transform="matrix(12,0,0,-12,516.7274,143.6)"/>
<use data-text="=" xlink:href="#font_3_7" transform="matrix(12,0,0,-12,523.9286,143.6)"/>
<use data-text="4" xlink:href="#font_3_6" transform="matrix(12,0,0,-12,531.1298,143.6)"/>
<use data-text="0" xlink:href="#font_3_2" transform="matrix(12,0,0,-12,538.331,143.6)"/>
<use data-text=" " xlink:href="#font_3_1" transform="matrix(12,0,0,-12,545.5322,143.6)"/>
<use data-text="p" xlink:href="#font_3_11" transform="matrix(12,0,0,-12,502.325,157.6)"/>
<use data-text="g" xlink:href="#font_3_9" transform="matrix(12,0,0,-12,509.5262,157.6)"/>
<use data-text="i" xlink:href="#font_3_10" transform="matrix(12,0,0,-12,516.7274,157.6)"/>
<use data-text="d" xlink:href="#font_3_8" transform="matrix(12,0,0,-12,523.9286,157.6)"/>
<use data-text="=" xlink:href="#font_3_7" transform="matrix(12,0,0,-12,531.1298,157.6)"/>
<use data-text="4" xlink:href="#font_3_6" transform="matrix(12,0,0,-12,538.331,157.6)"/>
<use data-text="0" xlink:href="#font_3_2" transform="matrix(12,0,0,-12,545.5322,157.6)"/>
<use data-text=" " xlink:href="#font_3_1" transform="matrix(12,0,0,-12,552.7334,157.6)"/>
<use data-text="p" xlink:href="#font_3_11" transform="matrix(12,0,0,-12,47.82503,283.6)"/>
<use data-text="i" xlink:href="#font_3_10" transform="matrix(12,0,0,-12,55.02623,283.6)"/>
<use data-text="d" xlink:href="#font_3_8" transform="matrix(12,0,0,-12,62.227434,283.6)"/>
<use data-text="=" xlink:href="#font_3_7" transform="matrix(12,0,0,-12,69.428638,283.6)"/>
<use data-text="2" xlink:href="#font_3_4" transform="matrix(12,0,0,-12,76.62984,283.6)"/>
<use data-text="1" xlink:href="#font_3_3" transform="matrix(12,0,0,-12,83.83104,283.6)"/>
<use data-text=" " xlink:href="#font_3_1" transform="matrix(12,0,0,-12,91.03224,283.6)"/>
<use data-text="p" xlink:href="#font_3_11" transform="matrix(12,0,0,-12,39.82504,297.6)"/>
<use data-text="g" xlink:href="#font_3_9" transform="matrix(12,0,0,-12,47.026239,297.6)"/>
<use data-text="i" xlink:href="#font_3_10" transform="matrix(12,0,0,-12,54.22744,297.6)"/>
<use data-text="d" xlink:href="#font_3_8" transform="matrix(12,0,0,-12,61.428644,297.6)"/>
<use data-text="=" xlink:href="#font_3_7" transform="matrix(12,0,0,-12,68.62984,297.6)"/>
<use data-text="2" xlink:href="#font_3_4" transform="matrix(12,0,0,-12,75.83104,297.6)"/>
<use data-text="0" xlink:href="#font_3_2" transform="matrix(12,0,0,-12,83.03224,297.6)"/>
<use data-text=" " xlink:href="#font_3_1" transform="matrix(12,0,0,-12,90.233448,297.6)"/>
<use data-text="p" xlink:href="#font_3_11" transform="matrix(12,0,0,-12,137.825,284.35)"/>
<use data-text="i" xlink:href="#font_3_10" transform="matrix(12,0,0,-12,145.0262,284.35)"/>
<use data-text="d" xlink:href="#font_3_8" transform="matrix(12,0,0,-12,152.2274,284.35)"/>
<use data-text="=" xlink:href="#font_3_7" transform="matrix(12,0,0,-12,159.4286,284.35)"/>
<use data-text="2" xlink:href="#font_3_4" transform="matrix(12,0,0,-12,166.62979,284.35)"/>
<use data-text="2" xlink:href="#font_3_4" transform="matrix(12,0,0,-12,173.831,284.35)"/>
<use data-text=" " xlink:href="#font_3_1" transform="matrix(12,0,0,-12,181.0322,284.35)"/>
<use data-text="p" xlink:href="#font_3_11" transform="matrix(12,0,0,-12,129.825,298.35)"/>
<use data-text="g" xlink:href="#font_3_9" transform="matrix(12,0,0,-12,137.0262,298.35)"/>
<use data-text="i" xlink:href="#font_3_10" transform="matrix(12,0,0,-12,144.2274,298.35)"/>
<use data-text="d" xlink:href="#font_3_8" transform="matrix(12,0,0,-12,151.4286,298.35)"/>
<use data-text="=" xlink:href="#font_3_7" transform="matrix(12,0,0,-12,158.62979,298.35)"/>
<use data-text="2" xlink:href="#font_3_4" transform="matrix(12,0,0,-12,165.831,298.35)"/>
<use data-text="0" xlink:href="#font_3_2" transform="matrix(12,0,0,-12,173.0322,298.35)"/>
<use data-text=" " xlink:href="#font_3_1" transform="matrix(12,0,0,-12,180.2334,298.35)"/>
</g>
</g>
</svg>
