<svg xmlns="http://www.w3.org/2000/svg" xmlns:xlink="http://www.w3.org/1999/xlink" version="1.1" width="624.25588pt" height="209.383pt" viewBox="0 0 624.25588 209.383">
<defs>
<clipPath id="clip_0">
<path transform="matrix(1,0,0,-1,-2.33513,540)" d="M2.33513 330.617H626.591V540H2.33513Z" fill-rule="evenodd"/>
</clipPath>
<clipPath id="clip_1">
<path transform="matrix(1,0,0,-1,-2.33513,540)" d="M0 .00002324581H719.9999V540H0Z"/>
</clipPath>
<path id="font_2_5" d="M.08544922 .71777346H.40820313C.47200523 .71777346 .5234375 .6997884 .5625 .66381838 .6015625 .6278483 .62109377 .5773112 .62109377 .51220706 .62109377 .45621745 .6036784 .4074707 .56884768 .3659668 .5340169 .3244629 .48046876 .30371095 .40820313 .30371095H.18261719V0H.08544922V.71777346M.5229492 .5114746C.5229492 .56410726 .50341799 .5998433 .46435548 .61868289 .4428711 .62875369 .41341148 .63378909 .37597657 .63378909H.18261719V.3857422H.37597657C.41959635 .3857422 .45499674 .39499919 .48217774 .41351319 .5093587 .43203736 .5229492 .46469117 .5229492 .5114746Z"/>
<path id="font_2_16" d="M.06689453 .5234375H.15039063V.4326172C.15722656 .4502767 .17399089 .4717814 .2006836 .49713136 .2273763 .52248129 .25813804 .53515627 .29296876 .53515627 .29459635 .53515627 .29736329 .5349579 .30126954 .53456118 .30517579 .5341746 .31184898 .5333964 .32128907 .53222659V.43945313C.31608073 .44062297 .3112793 .44140116 .30688478 .44178773 .30249024 .44218446 .2976888 .4423828 .29248048 .4423828 .24820964 .4423828 .2141927 .4280599 .19042969 .39941407 .16666667 .37076823 .15478516 .33789063 .15478516 .30078126V0H.06689453V.5234375Z"/>
<path id="font_2_15" d="M.27197267 .057617189C.33024089 .057617189 .37019859 .07964579 .3918457 .123703 .41349284 .16776021 .4243164 .21677144 .4243164 .2707367 .4243164 .31950379 .4165039 .35917155 .4008789 .38974 .3761393 .43785606 .3334961 .46191407 .27294923 .46191407 .21923828 .46191407 .18017578 .44143168 .15576172 .40046693 .13134766 .35950218 .119140628 .31008403 .119140628 .25221253 .119140628 .1966095 .13134766 .15027364 .15576172 .113204959 .18017578 .076146449 .21891277 .057617189 .27197267 .057617189M.27539063 .53808596C.34277345 .53808596 .3997396 .5156453 .44628907 .47076417 .49283854 .42588298 .5161133 .35985819 .5161133 .27268983 .5161133 .1884613 .49560548 .11886088 .45458985 .06388855 .41357423 .008926392 .3499349-.018554688 .26367188-.018554688 .19173177-.018554688 .13460286 .00575765 .092285159 .054382326 .04996745 .103006999 .028808594 .16829936 .028808594 .2502594 .028808594 .33806864 .05110677 .4079895 .095703128 .46002198 .14029949 .51206466 .20019531 .53808596 .27539063 .53808596M.27246095 .5361328V.5361328Z"/>
<path id="font_2_8" d="M.26611329 .53808596C.32503257 .53808596 .37296549 .5237274 .4099121 .49501039 .44685874 .46629334 .46907554 .41684977 .4765625 .3466797H.39111329C.38590495 .37890626 .37402345 .40568034 .35546876 .42700196 .33691407 .44832359 .3071289 .45898438 .26611329 .45898438 .2101237 .45898438 .17008464 .43170677 .1459961 .3771515 .1303711 .34176127 .122558597 .29808555 .122558597 .24612427 .122558597 .19384766 .1336263 .14984639 .15576172 .11412048 .17789714 .07840475 .21272786 .060546876 .2602539 .060546876 .29671226 .060546876 .3256022 .0716095 .34692384 .09373474 .36824546 .115859989 .38297526 .1461385 .39111329 .18457031H.4765625C.46679688 .115234378 .4423828 .06453451 .4033203 .032470704 .3642578 .00040690104 .31429038-.015625 .25341798-.015625 .1850586-.015625 .13053386 .009379069 .08984375 .059387208 .049153646 .10940552 .028808594 .17188008 .028808594 .24681092 .028808594 .33868919 .05110677 .41020204 .095703128 .4613495 .14029949 .51250717 .19710286 .53808596 .26611329 .53808596M.2524414 .5361328V.5361328Z"/>
<path id="font_2_10" d="M.28222657 .53515627C.31933595 .53515627 .355306 .52644857 .39013673 .5090332 .42496745 .49161784 .4514974 .4690806 .46972657 .4414215 .4873047 .41505433 .49902345 .3842977 .5048828 .3491516 .5100911 .32506309 .5126953 .28647868 .5126953 .23339844H.12939453C.13102214 .18033855 .14355469 .13777669 .16699219 .10571289 .19042969 .073649089 .22672527 .057617189 .2758789 .057617189 .32177735 .057617189 .35839845 .07261658 .3857422 .10261536 .4013672 .12003072 .4124349 .14018758 .4189453 .16308594H.5053711C.50309249 .14398194 .49552409 .122690837 .48266603 .09921265 .46980796 .07574463 .45540367 .05656433 .43945313 .041671754 .4127604 .01576233 .37972007-.0017242432 .34033204-.010787964 .3191732-.01596578 .2952474-.018554688 .2685547-.018554688 .20345052-.018554688 .14827474 .0051472985 .103027347 .05255127 .05777995 .09995524 .03515625 .16634114 .03515625 .25170899 .03515625 .33576457 .057942708 .40401713 .103515628 .45646668 .14908855 .5089264 .20865886 .53515627 .28222657 .53515627M.42236329 .30371095C.41878257 .34191896 .41048179 .37245179 .39746095 .39530946 .3733724 .4377594 .33317057 .45898438 .27685548 .45898438 .23649089 .45898438 .20263672 .44437156 .17529297 .41514588 .14794922 .3859202 .13346355 .34877525 .13183594 .30371095H.42236329M.27392579 .5361328V.5361328Z"/>
<path id="font_2_17" d="M.11669922 .1640625C.11930338 .13463338 .12662761 .11207072 .13867188 .09637451 .1608073 .06793213 .19921875 .053710939 .25390626 .053710939 .28645835 .053710939 .31510417 .060806276 .33984376 .07499695 .36458335 .08919779 .37695313 .11115011 .37695313 .14085388 .37695313 .16337586 .36702476 .18051148 .34716798 .19226074 .33447267 .19944255 .30940757 .20775859 .27197267 .21720886L.20214844 .2348175C.15755208 .24590557 .12467448 .25829569 .103515628 .27198792 .06575521 .29579164 .046875 .32873027 .046875 .37080384 .046875 .42036439 .064697269 .46046958 .1003418 .49111939 .13598633 .52177938 .18391927 .5371094 .24414063 .5371094 .32291667 .5371094 .37972007 .5139974 .41455079 .46777345 .4363607 .43847657 .4469401 .40690104 .44628907 .37304688H.36328126C.36165367 .39269004 .35465495 .41055808 .34228517 .426651 .32210288 .44950868 .28710938 .4609375 .23730469 .4609375 .20410156 .4609375 .17895508 .45461528 .16186524 .44197084 .14477539 .42933656 .13623047 .41264854 .13623047 .39190675 .13623047 .36922203 .14746094 .35107423 .16992188 .33746339 .1829427 .32936607 .20214844 .32221986 .22753906 .31602479L.28564454 .3018341C.34879557 .28650413 .39111329 .27166749 .41259767 .25732423 .44677735 .23482259 .4638672 .19944255 .4638672 .15118408 .4638672 .10455322 .44620768 .06428019 .41088868 .03036499 .37556968-.0035502117 .32177735-.020507813 .24951172-.020507813 .17171224-.020507813 .116617839-.002802531 .084228519 .032608034 .05183919 .06801859 .034505208 .111836757 .032226564 .1640625H.11669922M.24658203 .5361328V.5361328Z"/>
<path id="font_2_1" d="M0 0Z"/>
<path id="font_2_2" d="M.44433595 .2939453 .33544923 .61120608 .21972656 .2939453H.44433595M.28466798 .71777346H.39453126L.65478518 0H.54833987L.47558595 .21484375H.19189453L.11425781 0H.0146484379L.28466798 .71777346M.33496095 .71777346V.71777346Z"/>
<path id="font_3_1" d="M0 0Z"/>
<path id="font_2_3" d="M.34570313 .4140625C.38671876 .4140625 .41861979 .4197693 .44140626 .43118287 .47721354 .4491272 .4951172 .48142497 .4951172 .5280762 .4951172 .57506307 .47607423 .6067098 .43798829 .62301638 .4165039 .6321513 .38460288 .63671877 .34228517 .63671877H.16894531V.4140625H.34570313M.37841798 .08300781C.43798829 .08300781 .48046876 .100224819 .5058594 .13465882 .5218099 .15642803 .52978518 .18274434 .52978518 .21360779 .52978518 .26559959 .50651046 .30101524 .45996095 .31985475 .43522135 .32992555 .4025065 .33496095 .3618164 .33496095H.16894531V.08300781H.37841798M.07373047 .71777346H.38183595C.4658203 .71777346 .5255534 .6926575 .56103518 .64242556 .58186849 .6127421 .59228518 .5784963 .59228518 .5396881 .59228518 .49434916 .57942709 .45716349 .55371096 .4281311 .54036459 .41280113 .5211589 .3987783 .49609376 .38606263 .5328776 .3720754 .5603841 .35629273 .5786133 .3387146 .61083987 .30748496 .6269531 .26437379 .6269531 .2093811 .6269531 .16317749 .61246749 .12136841 .5834961 .08395386 .54020187 .02798462 .47135417 0 .37695313 0H.07373047V.71777346Z"/>
<path id="font_2_7" d="M.18164063 .71777346V.27441407C.18164063 .22233074 .19140625 .17903646 .2109375 .14453125 .23990886 .092447917 .28873698 .06640625 .35742188 .06640625 .43977867 .06640625 .49576823 .094563808 .5253906 .1508789 .5413411 .18147786 .5493164 .22265625 .5493164 .27441407V.71777346H.6479492V.3149414C.6479492 .22672527 .6360677 .15885417 .6123047 .111328128 .5686849 .024739584 .48632813-.018554688 .36523438-.018554688 .24414063-.018554688 .16194661 .024739584 .118652347 .111328128 .09488932 .15885417 .08300781 .22672527 .08300781 .3149414V.71777346H.18164063M.36572267 .71777346V.71777346Z"/>
<path id="font_2_9" d="M.12011719 .2553711C.12011719 .19923909 .1319987 .15224712 .15576172 .11439514 .17952474 .076543178 .21761067 .057617189 .27001954 .057617189 .31070964 .057617189 .3441569 .075154628 .37036134 .11022949 .39656578 .14531453 .40966798 .19565328 .40966798 .26124574 .40966798 .32748924 .39615885 .37651573 .36914063 .4083252 .3421224 .44014488 .3087565 .4560547 .26904298 .4560547 .22477214 .4560547 .18888347 .4390869 .16137696 .40515138 .13387044 .37121583 .12011719 .32128907 .12011719 .2553711M.2524414 .53222659C.29248048 .53222659 .32600913 .52381899 .35302735 .5070038 .36865235 .4972992 .38639323 .48031617 .40625 .4560547V.71875H.49072267V0H.4116211V.07229614C.39111329 .04023234 .36686198 .017074585 .3388672 .002822876 .3108724-.011428833 .2788086-.018554688 .24267578-.018554688 .18440755-.018554688 .13395183 .0059407555 .091308597 .05493164 .048665365 .10392252 .02734375 .16910808 .02734375 .25048829 .02734375 .32666017 .04679362 .39265953 .08569336 .44848634 .1245931 .5043132 .18017578 .53222659 .2524414 .53222659Z"/>
<path id="font_2_4" d="M.076171878 .71777346H.17089844V.36769105L.5205078 .71777346H.65478518L.3564453 .4291687 .66308596 0H.5366211L.28564454 .360672 .17089844 .25016786V0H.076171878V.71777346Z"/>
<path id="font_2_14" d="M.064453128 .5234375H.14794922V.44921876C.1726888 .47981773 .19889324 .50179037 .2265625 .5151367 .25423179 .5284831 .2849935 .53515627 .31884767 .53515627 .3930664 .53515627 .44319663 .5092519 .46923829 .45744325 .4835612 .42910258 .49072267 .38853965 .49072267 .3357544V0H.4013672V.3299408C.4013672 .36188255 .39664714 .38762919 .38720704 .4071808 .37158204 .4397634 .34326173 .4560547 .3022461 .4560547 .28141276 .4560547 .2643229 .4539388 .25097657 .44970704 .22688802 .4425354 .20572917 .42819724 .1875 .4066925 .17285156 .38941957 .16333008 .37157694 .15893555 .35316468 .15454102 .3347524 .15234375 .30844117 .15234375 .27423097V0H.064453128V.5234375M.2709961 .5361328V.5361328Z"/>
<path id="font_2_12" d="M.06689453 .71777346H.15478516V0H.06689453V.71777346Z"/>
<path id="font_2_6" d="M.59814456 .71777346V.63183596H.3564453V0H.2578125V.63183596H.016113282V.71777346H.59814456Z"/>
<path id="font_2_11" d="M.064453128 .5205078H.1538086V0H.064453128V.5205078M.064453128 .71777346H.1538086V.61816409H.064453128V.71777346Z"/>
<path id="font_2_13" d="M.064453128 .5234375H.15136719V.44921876C.17220052 .4749349 .19108074 .49365235 .20800781 .5053711 .23697917 .52522787 .26985679 .53515627 .30664063 .53515627 .34830729 .53515627 .38183595 .52490237 .40722657 .50439456 .42154948 .49267579 .4345703 .4754232 .44628907 .45263673 .4658203 .4806315 .48876954 .5013835 .5151367 .5148926 .5415039 .5284017 .5711263 .53515627 .6040039 .53515627 .6743164 .53515627 .72216799 .5097402 .7475586 .45890809 .76123049 .43154399 .7680664 .3947296 .7680664 .34846498V0H.6767578V.36367799C.6767578 .39853923 .6680501 .42248536 .65063479 .43551637 .6332194 .44855754 .6119792 .45507813 .58691409 .45507813 .5524089 .45507813 .5227051 .44350688 .49780274 .42036439 .4729004 .39723207 .46044923 .35861717 .46044923 .30451966V0H.37109376V.3416748C.37109376 .37719728 .36686198 .4031016 .35839845 .41938783 .3450521 .4438324 .32014976 .4560547 .2836914 .4560547 .25048829 .4560547 .22029622 .44318138 .19311524 .4174347 .16593425 .3916982 .15234375 .34510295 .15234375 .27764894V0H.064453128V.5234375Z"/>
<path id="font_4_2" d="M.77978518 .5019531H.6850586C.68408206 .54848226 .67041018 .5853424 .64404299 .61253359 .6176758 .63972476 .5755208 .6533203 .5175781 .6533203 .4469401 .6533203 .38468424 .628479 .33081056 .5787964 .27693687 .52911379 .23909505 .45295716 .21728516 .35032655 .19938152 .26628114 .20450847 .19810994 .23266602 .14581299 .26082359 .09352621 .3138021 .06738281 .39160157 .06738281 .46321617 .06738281 .5236003 .09484863 .5727539 .14978028 .59847006 .17870076 .62125656 .21672566 .6411133 .26385499H.73583987C.7114258 .18828328 .67008468 .124928798 .6118164 .073791507 .5415039 .012227376 .4580078-.018554688 .36132813-.018554688 .27799479-.018554688 .2133789 .006688436 .16748047 .057174684 .10725912 .12394714 .09195963 .2270406 .12158203 .36645509 .14404297 .47232057 .19042969 .5591278 .2607422 .62687686 .33691407 .7004954 .42822267 .7373047 .53466799 .7373047 .6254883 .7373047 .69091799 .71332809 .73095706 .66537478 .7709961 .61742147 .78727218 .5629476 .77978518 .5019531Z"/>
<path id="font_4_13" d="M.4814453 .26976014C.49186198 .31852723 .49251304 .35819499 .48339845 .38876344 .46875 .4368795 .43115235 .4609375 .37060548 .4609375 .31689454 .4609375 .2735189 .4404551 .24047852 .39949037 .20743816 .3585256 .18473308 .30910746 .17236328 .25123597 .16064453 .19563294 .16300456 .14929708 .17944336 .11222839 .19588216 .07516988 .23063152 .056640626 .2836914 .056640626 .34195964 .056640626 .38663737 .07866923 .4177246 .12272644 .44881187 .16678365 .4700521 .21579488 .4814453 .26976014M.57373049 .27223207C.55582687 .18784078 .5205078 .1181132 .46777345 .06304932 .41503907 .0079956059 .34554038-.01953125 .25927735-.01953125 .18733724-.01953125 .13541667 .0048217775 .103515628 .053527833 .071614589 .10223389 .06429037 .16763814 .08154297 .2497406 .10042318 .33771263 .13769531 .40776063 .19335938 .45988465 .24902344 .51201888 .31445313 .53808596 .38964845 .53808596 .45703126 .53808596 .509196 .5156047 .5461426 .4706421 .5830892 .42567954 .59228518 .35954286 .57373049 .27223207Z"/>
<path id="font_4_12" d="M.17529297 .5234375H.25878907L.24316406 .44914247C.27441407 .47977195 .30525718 .50176498 .33569337 .51512148 .36612956 .52847799 .39827476 .53515627 .4321289 .53515627 .50634768 .53515627 .55094406 .5092519 .56591799 .45744325 .57438156 .42910258 .5730794 .38853965 .5620117 .3357544L.49072267 0H.4013672L.4711914 .3299408C.47802735 .36188255 .47884117 .38762919 .4736328 .4071808 .46484376 .4397634 .4399414 .4560547 .39892579 .4560547 .37809245 .4560547 .3605143 .4539388 .3461914 .44970704 .32047526 .4425354 .29622398 .42819724 .2734375 .4066925 .25520835 .38941957 .24194336 .37157694 .23364258 .35316468 .2253418 .3347524 .21761067 .30843608 .21044922 .2742157L.15234375 0H.064453128L.17529297 .5234375Z"/>
<path id="font_4_17" d="M.2241211 .6689453H.31298829L.28173829 .5234375H.36523438L.35009767 .45117188H.26660157L.19384766 .10948181C.1899414 .0912323 .19352214 .07901001 .20458985 .07281494 .21077474 .069234218 .22184246 .06744385 .23779297 .06744385 .24202474 .06744385 .24658203 .06752523 .25146485 .06768799 .25634767 .067850749 .26220704 .06825765 .26904298 .06890869L.25439454-.00048828127C.24365235-.0034179688 .23266602-.005533854 .22143555-.0068359377 .21020508-.0081380209 .19824219-.0087890629 .18554688-.0087890629 .14453125-.0087890629 .118896488 .0017191569 .10864258 .022735596 .09838867 .043752035 .096842449 .07104492 .104003909 .10461426L.17773438 .45117188H.106933597L.12207031 .5234375H.1928711L.2241211 .6689453Z"/>
<path id="font_4_6" d="M.5629883 .44125367C.57503256 .4148458 .5802409 .3840332 .5786133 .34881593 .5789388 .32468669 .57340499 .2862142 .5620117 .23339844H.17871094C.16894531 .18033855 .17244466 .13777669 .18920899 .10571289 .20597331 .073649089 .2389323 .057617189 .28808595 .057617189 .33398438 .057617189 .3736979 .072779338 .40722657 .10310364 .4267578 .12070211 .44222007 .14107768 .45361329 .16423035H.54003909C.5335286 .14500427 .521403 .12358093 .5036621 .09996033 .48592124 .07633972 .4674479 .057037355 .4482422 .042053224 .41601563 .015981039 .37923179-.0016174316 .33789063-.0107421879 .3154297-.015950522 .29085288-.018554688 .26416017-.018554688 .19905599-.018554688 .14892578 .0051472985 .11376953 .05255127 .07861328 .09995524 .07014974 .16634114 .088378909 .25170899 .106282558 .33576457 .14355469 .40401713 .20019531 .45646668 .25683595 .5089264 .3219401 .53515627 .3955078 .53515627 .4326172 .53515627 .46679688 .5264333 .49804688 .5089874 .5292969 .49154154 .55094406 .46896363 .5629883 .44125367M.48632813 .30371095C.4908854 .3416748 .48909507 .37201438 .48095704 .3947296 .46598307 .43691508 .43033854 .4580078 .37402345 .4580078 .33365885 .4580078 .29671226 .44348655 .2631836 .41444398 .22965496 .3854014 .20719402 .3484904 .19580078 .30371095H.48632813Z"/>
<path id="font_4_20" d="M.12548828 .5234375H.23925781L.3203125 .33918763 .48095704 .5234375 .58740237 .5209961 .35742188 .26831056 .48486329 0H.3725586L.2841797 .19647217 .11669922 0H.0053710939L.24609375 .26831056 .12548828 .5234375Z"/>
<path id="font_4_1" d="M0 0Z"/>
<path id="font_5_1" d="M0 0Z"/>
<path id="font_4_16" d="M.15136719 .1640625C.14778646 .13463338 .15039063 .11207072 .15917969 .09637451 .1751302 .06793213 .21044922 .053710939 .26513673 .053710939 .2976888 .053710939 .32788087 .060806276 .3557129 .07499695 .38354493 .08918762 .40055339 .11112467 .40673829 .1408081 .4116211 .16330974 .40527345 .1804301 .3876953 .19216919 .3766276 .199351 .35335288 .20767212 .3178711 .21713257L.25195313 .23474121C.20963542 .24582927 .17936199 .2582245 .16113281 .27192689 .1282552 .29574076 .116373699 .32868449 .12548828 .37075807 .13590496 .42033897 .16219075 .46045939 .2043457 .49111939 .24650066 .52177938 .2976888 .5371094 .35791017 .5371094 .4366862 .5371094 .48860679 .5139974 .5136719 .46777345 .5292969 .43847657 .5332031 .40690104 .5253906 .37304688H.4423828C.44498698 .39290367 .44173179 .41097007 .4326172 .4272461 .41731773 .45035807 .38476563 .46191407 .33496095 .46191407 .3017578 .46191407 .27530924 .45555116 .25561524 .44282533 .23592122 .43010966 .22379558 .41331483 .21923828 .3924408 .21435547 .36960349 .22167969 .3513387 .24121094 .33764649 .25260417 .32948814 .27034507 .3223114 .2944336 .31611634L.34960938 .30192567C.40950523 .28659568 .44873048 .27175395 .46728517 .2574005 .49658204 .23488872 .50602218 .19949849 .49560548 .15122986 .48583985 .10458883 .4597168 .064305629 .41723634 .030380249 .37475587-.0035451253 .3173828-.020507813 .24511719-.020507813 .1673177-.020507813 .1159668-.002802531 .09106445 .032608034 .06616211 .06801859 .05810547 .111836757 .06689453 .1640625H.15136719Z"/>
<path id="font_4_19" d="M.21582031 .5234375 .2290039 .110946658 .41845704 .5234375H.51708987L.53271487 .11338806 .7265625 .5234375H.8144531L.5517578 0H.46044923L.4399414 .40516664 .25097657 0H.15966797L.119628909 .5234375H.21582031Z"/>
<path id="font_4_9" d="M.17480469 .5205078H.26416017L.1538086 0H.064453128L.17480469 .5205078M.21679688 .71777346H.30615235L.28466798 .61816409H.1953125L.21679688 .71777346Z"/>
<path id="font_4_5" d="M.55029299 .3466797H.46484376C.46647135 .37890626 .46028648 .40568034 .44628907 .42700196 .43229167 .44832359 .40478517 .45898438 .36376954 .45898438 .30777995 .45898438 .2618815 .43164063 .22607422 .37695313 .20296224 .34147135 .18587239 .2976888 .17480469 .24560547 .16341146 .19319661 .16503906 .14908855 .1796875 .11328125 .19433594 .07747396 .22542317 .059570314 .27294923 .059570314 .30940757 .059570314 .34065757 .0707194 .36669923 .09301758 .39274089 .11531576 .41389976 .14583333 .43017579 .18457031H.515625C.49121095 .115234378 .4560547 .06453451 .41015626 .032470704 .3642578 .00040690104 .3108724-.015625 .25-.015625 .18164063-.015625 .1324056 .009379069 .10229492 .059387208 .07218424 .10940552 .065104167 .17188008 .08105469 .24681092 .10058594 .33868919 .13810222 .41020204 .19360352 .4613495 .24910482 .51250717 .3113607 .53808596 .3803711 .53808596 .43929038 .53808596 .48413087 .5237274 .5148926 .49501039 .5456543 .46629334 .5574544 .41684977 .55029299 .3466797Z"/>
<path id="font_4_8" d="M.21728516 .71972659H.30517579L.24804688 .45214845C.2747396 .4786682 .29752604 .4973297 .31640626 .50813296 .3486328 .5267995 .38590495 .5361328 .42822267 .5361328 .50406906 .5361328 .5498047 .50957748 .5654297 .45646668 .57389327 .42747499 .5727539 .38723756 .5620117 .3357544L.49072267 0H.40039063L.47021485 .32958985C.47835288 .3680013 .4794922 .39615885 .4736328 .4140625 .46354167 .44270835 .43652345 .45703126 .39257813 .45703126 .35611979 .45703126 .32047526 .4444987 .28564454 .4194336 .2508138 .3943685 .22591146 .34700523 .2109375 .27734376L.15234375 0H.064453128L.21728516 .71972659Z"/>
<path id="font_6_4" d="M.25097657 .42382813V.3200531C.30436198 .36812846 .34431968 .3990682 .3708496 .4128723 .39737956 .4266866 .421875 .43359376 .44433595 .43359376 .46875 .43359376 .49145509 .4253184 .5124512 .4087677 .53344729 .392217 .5439453 .37967936 .5439453 .3711548 .5439453 .3649292 .5419108 .3597819 .5378418 .3557129 .53377279 .3516439 .5286458 .34960938 .52246096 .34960938 .51920577 .34960938 .5164388 .35017906 .51416018 .35131837 .51188156 .35245768 .5076497 .3561605 .50146487 .36242677 .49007163 .3739624 .48014323 .38187156 .4716797 .38615418 .46321617 .3904368 .45491538 .39257813 .44677735 .39257813 .4288737 .39257813 .40730796 .38542176 .38208009 .371109 .3568522 .35679627 .31315104 .32182823 .25097657 .26620484V.041015626H.4326172C.44270835 .041015626 .44986979 .03914388 .45410157 .03540039 .45833335 .031656904 .46044923 .026692709 .46044923 .020507813 .46044923 .0146484379 .45833335 .009765625 .45410157 .005859375 .44986979 .001953125 .44270835 0 .4326172 0H.110839847C.10107422 0 .09407552 .0019175211 .08984375 .0057525637 .08561198 .0095876059 .083496097 .014506022 .083496097 .020507813 .083496097 .026041666 .0855306 .030680338 .08959961 .034423829 .09366862 .038167318 .100748699 .040039064 .110839847 .040039064H.20996094V.3828125H.13427735C.12451172 .3828125 .11751302 .38476563 .11328125 .38867188 .10904948 .39257813 .106933597 .3976237 .106933597 .4038086 .106933597 .40952555 .1089681 .41429139 .11303711 .41810609 .11710612 .42192079 .124186199 .42382813 .13427735 .42382813H.25097657Z"/>
<path id="font_6_3" d="M.52197268 .20214844H.104003909C.11116537 .14908855 .13338216 .10636393 .1706543 .07397461 .20792644 .041585287 .254069 .025390625 .30908204 .025390625 .339681 .025390625 .37174479 .030436198 .40527345 .040527345 .4388021 .05061849 .46614585 .063964847 .4873047 .080566409 .4934896 .08544922 .4988607 .087890628 .50341799 .087890628 .5086263 .087890628 .5131836 .08585612 .51708987 .08178711 .5209961 .0777181 .5229492 .072916667 .5229492 .06738281 .5229492 .061848958 .52034506 .056477865 .5151367 .05126953 .49951173 .03499349 .47176109 .01977539 .43188478 .0056152346 .39200846-.008544922 .35107423-.015625 .30908204-.015625 .23876953-.015625 .1800944 .0074310305 .13305664 .05354309 .08601888 .09965515 .0625 .15546163 .0625 .22096253 .0625 .28059388 .08455404 .3317515 .12866211 .37443543 .17277019 .41712953 .2273763 .43847657 .29248048 .43847657 .35953776 .43847657 .41471354 .41653953 .4580078 .3726654 .50130209 .3287913 .5226237 .2719523 .52197268 .20214844M.48046876 .24316406C.47233073 .28884889 .45092774 .32598368 .41625978 .35456849 .3815918 .38316346 .34033204 .39746095 .29248048 .39746095 .2446289 .39746095 .20345052 .3833262 .16894531 .35505677 .13444011 .3267975 .11295573 .2894999 .10449219 .24316406H.48046876Z"/>
<path id="font_6_1" d="M.41796876 0V.059570314C.35839845 .0094401049 .29475913-.015625 .22705078-.015625 .17789714-.015625 .13948567-.0031738282 .111816409 .021728516 .08414713 .04663086 .0703125 .07714844 .0703125 .11328125 .0703125 .1529948 .088541667 .18766277 .125 .21728516 .16145833 .24690755 .21468099 .26171876 .28466798 .26171876 .3035482 .26171876 .324056 .26049806 .3461914 .25805665 .3683268 .25561524 .3922526 .25179038 .41796876 .24658203V.31341554C.41796876 .33602906 .4075521 .35568748 .38671876 .37239076 .3658854 .38910423 .3346354 .39746095 .29296876 .39746095 .26106773 .39746095 .2163086 .38804627 .1586914 .36921693 .14827474 .36591087 .14160156 .3642578 .13867188 .3642578 .13346355 .3642578 .12898763 .36621095 .12524414 .3701172 .12150065 .37402345 .119628909 .37890626 .119628909 .38476563 .119628909 .39029948 .12125651 .394694 .12451172 .39794923 .12906902 .40283204 .14746094 .40950523 .1796875 .41796876 .23046875 .43164063 .26888023 .43847657 .29492188 .43847657 .3466797 .43847657 .38704429 .42566935 .41601563 .40005494 .44498698 .37444053 .45947267 .34547935 .45947267 .3131714V.041015626H.51416018C.5242513 .041015626 .5314128 .03914388 .53564456 .03540039 .5398763 .031656904 .5419922 .026692709 .5419922 .020507813 .5419922 .0146484379 .5398763 .009765625 .53564456 .005859375 .5314128 .001953125 .5242513 0 .51416018 0H.41796876M.41796876 .20458985C.39876304 .2101237 .37841798 .2141927 .3569336 .21679688 .33544923 .21940105 .31282554 .22070313 .2890625 .22070313 .22949219 .22070313 .1829427 .20784505 .14941406 .1821289 .12402344 .16292317 .111328128 .13997396 .111328128 .11328125 .111328128 .088541667 .12101237 .067708339 .14038086 .05078125 .15974935 .033854169 .18798828 .025390625 .22509766 .025390625 .26057945 .025390625 .29353843 .032470704 .3239746 .04663086 .3544108 .060791017 .3857422 .083333339 .41796876 .11425781V.20458985Z"/>
<path id="font_6_2" d="M.50097659 .61328127V.041015626H.55566409C.5657552 .041015626 .5729167 .03914388 .57714846 .03540039 .5813802 .031656904 .5834961 .026692709 .5834961 .020507813 .5834961 .014923096 .5813802 .010269165 .57714846 .0065460207 .5729167 .0028330486 .5657552 .0009765625 .55566409 .0009765625H.45947267V.08218384C.41194663 .016977946 .3515625-.015625 .2783203-.015625 .24121094-.015625 .20564778-.0057678224 .17163086 .013946533 .13761394 .03366089 .11075846 .061767579 .09106445 .0982666 .071370448 .13476563 .061523439 .17240398 .061523439 .21118164 .061523439 .25028483 .071370448 .28800456 .09106445 .32434083 .11075846 .3606771 .13761394 .38878379 .17163086 .4086609 .20564778 .428538 .2413737 .43847657 .2788086 .43847657 .3504232 .43847657 .41064454 .40603639 .45947267 .341156V.5722656H.40478517C.394694 .5722656 .38753257 .574173 .38330079 .5779877 .379069 .58180239 .37695313 .58673098 .37695313 .59277346 .37695313 .5986328 .379069 .6035156 .38330079 .6074219 .38753257 .6113281 .394694 .61328127 .40478517 .61328127H.50097659M.45947267 .21142578C.45947267 .26364137 .44189454 .30769859 .40673829 .3435974 .37158204 .37950645 .3297526 .39746095 .28125 .39746095 .23242188 .39746095 .19042969 .37950645 .15527344 .3435974 .12011719 .30769859 .10253906 .26364137 .10253906 .21142578 .10253906 .15953572 .12011719 .11555481 .15527344 .07948303 .19042969 .04342143 .23242188 .025390625 .28125 .025390625 .3297526 .025390625 .37158204 .04342143 .40673829 .07948303 .44189454 .11555481 .45947267 .15953572 .45947267 .21142578Z"/>
<path id="font_4_3" d="M.36914063 .083984378C.40201823 .083984378 .4296875 .087397258 .45214845 .09422302 .49251304 .10689799 .5286458 .13126628 .5605469 .16732788 .5859375 .19624837 .60758468 .23329163 .6254883 .27845765 .63623049 .30543519 .64404299 .3304596 .6489258 .35353089 .66780599 .44223533 .6647949 .5111186 .6398926 .56018069 .61499026 .6092529 .5633138 .63378909 .48486329 .63378909H.3125L.19580078 .083984378H.36914063M.23291016 .71777346H.5234375C.6220703 .71777346 .69108077 .6827545 .73046877 .6127167 .765625 .54952499 .7726237 .46857707 .75146487 .36987306 .73551437 .2936503 .70654299 .22475688 .6645508 .16319275 .5913086 .054397584 .49316407 0 .3701172 0H.080566409L.23291016 .71777346Z"/>
<path id="font_4_10" d="M.21484375 .71777346H.2993164L.21044922 .3009796 .48339845 .5234375 .5957031 .5233002 .3540039 .32736207 .49609376 0H.38378907L.2763672 .26385499 .18847656 .19642639 .14697266 0H.0625L.21484375 .71777346Z"/>
<path id="font_4_15" d="M.17773438 .5234375H.26123048L.2421875 .43301393C.25260417 .4506124 .2738444 .47203575 .3059082 .49728395 .33797203 .52253219 .37141929 .53515627 .40625 .53515627 .4078776 .53515627 .41064454 .5349579 .41455079 .53456118 .41845704 .5341746 .42496745 .5333964 .43408204 .53222659L.41455079 .4399414C.40934245 .44091798 .4046224 .441569 .40039063 .44189454 .39615885 .44222007 .3914388 .4423828 .38623048 .4423828 .34195964 .4423828 .30493165 .428126 .27514649 .39961244 .24536133 .37109886 .22639974 .338267 .21826172 .30111695L.15478516 0H.06689453L.17773438 .5234375Z"/>
<path id="font_4_18" d="M.2631836 .5234375 .18945313 .17590332C.18391927 .1491801 .18359375 .12734477 .18847656 .11039734 .19726563 .07911682 .22298177 .06347656 .265625 .06347656 .3268229 .06347656 .37434898 .09085083 .40820313 .14559937 .42643229 .17492676 .44091798 .21516927 .45166017 .2663269L.50634768 .5234375H.5942383L.48339845 0H.40039063L.41748048 .076828C.40185548 .056930543 .3841146 .0401357 .3642578 .026443482 .32486979-.00095113119 .28125-.0146484379 .23339844-.0146484379 .15885417-.0146484379 .11344401 .010299683 .09716797 .060195924 .08805338 .08693949 .08821615 .12265015 .09765625 .16732788L.17333985 .5234375H.2631836Z"/>
<path id="font_4_14" d="M.484375 .26513673C.49316407 .30680339 .4946289 .3426107 .48876954 .3725586 .47835288 .43017579 .4428711 .45898438 .38232423 .45898438 .3214518 .45898438 .27327476 .4285482 .23779297 .36767579 .21891277 .3351237 .20410156 .29378257 .19335938 .24365235 .18489583 .20328777 .18375652 .16894531 .1899414 .140625 .20100911 .08658854 .2368164 .059570314 .29736329 .059570314 .3383789 .059570314 .3761393 .07674154 .41064454 .111083988 .44514976 .14542644 .46972657 .19677735 .484375 .26513673M.16796875 .5214844H.25341798L.23876953 .45214845C.26123048 .47591148 .28434245 .49430339 .30810548 .5073242 .34195964 .52652999 .37890626 .5361328 .4189453 .5361328 .4781901 .5361328 .5236003 .5134074 .5551758 .46795655 .5867513 .4225057 .5935872 .35758973 .5756836 .27320863 .55159506 .1591746 .5045573 .07772318 .4345703 .02885437 .39029948-.0021006268 .34309898-.017578125 .29296876-.017578125 .25358073-.017578125 .22233074-.008895874 .19921875 .008468628 .18554688 .018295289 .17171224 .035166425 .15771485 .05908203L.10107422-.20898438H.013183594L.16796875 .5214844Z"/>
<path id="font_4_4" d="M.4921875 .38867188C.53776046 .38867188 .57576498 .39778648 .6062012 .41601563 .6366374 .43424479 .65690109 .4671224 .6669922 .51464846 .6777344 .5657552 .6665039 .60058596 .6333008 .6191406 .61539718 .62890627 .58984377 .63378909 .5566406 .63378909H.31933595L.26757813 .38867188H.4921875M.24023438 .71777346H.5722656C.6269531 .71777346 .6702474 .709788 .70214846 .69381716 .7630208 .6631775 .78483077 .60662338 .7675781 .52415469 .75846359 .48112489 .74210616 .44591777 .71850588 .41853334 .6949056 .39115907 .66536459 .36916099 .6298828 .35253907 .65559896 .34114585 .6735026 .32617188 .68359377 .3076172 .6936849 .2890625 .6951497 .2589518 .6879883 .21728516L.67089846 .12109375C.6660156 .09375 .6640625 .073404949 .66503909 .060058595 .6660156 .037272138 .67333987 .022623698 .6870117 .016113282L.68359377 0H.5644531C.5625 .006184896 .56152346 .014160156 .56152346 .023925782 .56152346 .033691408 .56396487 .052571615 .56884768 .080566409L.5883789 .20019531C.5958659 .24707031 .5851237 .27848307 .55615237 .2944336 .5392253 .30322267 .51090499 .3076172 .4711914 .3076172H.25L.1850586 0H.087890628L.24023438 .71777346Z"/>
<path id="font_4_7" d="M.25048829 .6826172C.277181 .7125651 .31982423 .72753909 .37841798 .72753909 .3839518 .72753909 .38964845 .7273763 .3955078 .7270508 .4013672 .7267253 .4078776 .726237 .41503907 .72558596L.39794923 .6455078C.38916017 .6461589 .3827311 .64656576 .3786621 .6467285 .3745931 .6468913 .37076823 .64697268 .3671875 .64697268 .34049479 .64697268 .32307945 .64005538 .3149414 .6262207 .30680339 .61238607 .29671226 .57714846 .28466798 .5205078H.37158204L.3569336 .45117188H.26904298L.17333985 0H.08642578L.1821289 .45117188H.109375L.12402344 .5205078H.19677735L.21435547 .60253909C.22347005 .6389974 .23551433 .6656901 .25048829 .6826172Z"/>
<path id="font_4_11" d="M.17529297 .5234375H.26220704L.24658203 .44914247C.27294923 .47487895 .2957357 .49361167 .3149414 .5053406 .34814454 .5252177 .38313804 .53515627 .41992188 .53515627 .46158854 .53515627 .4930013 .52489218 .51416018 .504364 .5258789 .4926351 .53515627 .47536723 .5419922 .45256043 .5677083 .48058573 .5951335 .50135806 .6242676 .5148773 .6534017 .5283966 .68440756 .53515627 .71728518 .53515627 .78759768 .53515627 .8300781 .5097402 .84472659 .45890809 .85253909 .43154399 .8515625 .3947296 .8417969 .34846498L.7680664 0H.6767578L.75390627 .36367799C.7610677 .39853923 .7573242 .42248536 .7426758 .43551637 .72802737 .44855754 .7081706 .45507813 .68310549 .45507813 .6486003 .45507813 .6164551 .44350688 .5866699 .42036439 .55688479 .39723207 .5362956 .35861717 .52490237 .30451966L.46044923 0H.37109376L.44335938 .3416748C.45084635 .37719728 .45214845 .4031016 .44726563 .41938783 .4391276 .4438324 .41682945 .4560547 .3803711 .4560547 .34716798 .4560547 .31420899 .44318138 .28149415 .4174347 .2487793 .3916982 .22526042 .34509788 .2109375 .27763368L.15234375 0H.064453128L.17529297 .5234375Z"/>
</defs>
<g clip-path="url(#clip_0)">
<g clip-path="url(#clip_1)">
<path transform="matrix(1,0,0,-1,-2.33513,540)" d="M0 539.9999H719.9999V.00003079383H0Z" fill="#ffffff" fill-rule="evenodd"/>
<use data-text="P" xlink:href="#font_2_5" transform="matrix(16,0,0,-16,205.73987,13.599976)"/>
<use data-text="r" xlink:href="#font_2_16" transform="matrix(16,0,0,-16,216.41187,13.599976)"/>
<use data-text="o" xlink:href="#font_2_15" transform="matrix(16,0,0,-16,221.73987,13.599976)"/>
<use data-text="c" xlink:href="#font_2_8" transform="matrix(16,0,0,-16,230.63907,13.599976)"/>
<use data-text="e" xlink:href="#font_2_10" transform="matrix(16,0,0,-16,238.63907,13.599976)"/>
<use data-text="s" xlink:href="#font_2_17" transform="matrix(16,0,0,-16,247.53827,13.599976)"/>
<use data-text="s" xlink:href="#font_2_17" transform="matrix(16,0,0,-16,255.53827,13.599976)"/>
<use data-text=" " xlink:href="#font_2_1" transform="matrix(16,0,0,-16,263.53828,13.599976)"/>
<use data-text="A" xlink:href="#font_2_2" transform="matrix(16,0,0,-16,267.10789,13.599976)"/>
<use data-text="&#xfffd;" xlink:href="#font_3_1" transform="matrix(16,0,0,-16,277.77989,13.599976)"/>
<use data-text="P" xlink:href="#font_2_5" transform="matrix(16,0,0,-16,326.86488,13.599976)"/>
<use data-text="r" xlink:href="#font_2_16" transform="matrix(16,0,0,-16,337.53688,13.599976)"/>
<use data-text="o" xlink:href="#font_2_15" transform="matrix(16,0,0,-16,342.86488,13.599976)"/>
<use data-text="c" xlink:href="#font_2_8" transform="matrix(16,0,0,-16,351.76408,13.599976)"/>
<use data-text="e" xlink:href="#font_2_10" transform="matrix(16,0,0,-16,359.76408,13.599976)"/>
<use data-text="s" xlink:href="#font_2_17" transform="matrix(16,0,0,-16,368.66328,13.599976)"/>
<use data-text="s" xlink:href="#font_2_17" transform="matrix(16,0,0,-16,376.66328,13.599976)"/>
<use data-text=" " xlink:href="#font_2_1" transform="matrix(16,0,0,-16,384.66328,13.599976)"/>
<use data-text="B" xlink:href="#font_2_3" transform="matrix(16,0,0,-16,389.10807,13.599976)"/>
<use data-text="&#xfffd;" xlink:href="#font_3_1" transform="matrix(16,0,0,-16,399.7801,13.599976)"/>
<path transform="matrix(.00007874014,0,0,.00007874014,352.91477,98.00009)" stroke-width="38100" stroke-linecap="butt" stroke-linejoin="round" fill="none" stroke="#000000" d="M-.08129895-.08813465V327025"/>
<path transform="matrix(1,0,0,-1,-2.33513,540)" d="M359.7499 422.2499 355.2499 413.2499 350.7499 422.2499Z" fill-rule="evenodd"/>
<path transform="matrix(-.00007874014,-0,0,.00007874014,304.03987,-1.375)" stroke-width="12700" stroke-linecap="butt" stroke-dasharray="50800,38100" stroke-linejoin="round" fill="none" stroke="#000000" d="M.1516113-.05737305 11113.04 2654301"/>
<use data-text="U" xlink:href="#font_2_7" transform="matrix(16,0,0,-16,438.48988,61.475099)"/>
<use data-text="s" xlink:href="#font_2_17" transform="matrix(16,0,0,-16,450.04508,61.475099)"/>
<use data-text="e" xlink:href="#font_2_10" transform="matrix(16,0,0,-16,458.04508,61.475099)"/>
<use data-text="r" xlink:href="#font_2_16" transform="matrix(16,0,0,-16,466.94429,61.475099)"/>
<use data-text=" " xlink:href="#font_2_1" transform="matrix(16,0,0,-16,472.27229,61.475099)"/>
<use data-text="c" xlink:href="#font_2_8" transform="matrix(16,0,0,-16,476.71708,61.475099)"/>
<use data-text="o" xlink:href="#font_2_15" transform="matrix(16,0,0,-16,484.71708,61.475099)"/>
<use data-text="d" xlink:href="#font_2_9" transform="matrix(16,0,0,-16,493.61628,61.475099)"/>
<use data-text="e" xlink:href="#font_2_10" transform="matrix(16,0,0,-16,502.51548,61.475099)"/>
<use data-text="&#xfffd;" xlink:href="#font_3_1" transform="matrix(16,0,0,-16,511.41468,61.475099)"/>
<use data-text="K" xlink:href="#font_2_4" transform="matrix(16,0,0,-16,438.48988,91.600009)"/>
<use data-text="e" xlink:href="#font_2_10" transform="matrix(16,0,0,-16,449.16188,91.600009)"/>
<use data-text="r" xlink:href="#font_2_16" transform="matrix(16,0,0,-16,458.06108,91.600009)"/>
<use data-text="n" xlink:href="#font_2_14" transform="matrix(16,0,0,-16,463.38908,91.600009)"/>
<use data-text="e" xlink:href="#font_2_10" transform="matrix(16,0,0,-16,472.28828,91.600009)"/>
<use data-text="l" xlink:href="#font_2_12" transform="matrix(16,0,0,-16,481.18748,91.600009)"/>
<use data-text=" " xlink:href="#font_2_1" transform="matrix(16,0,0,-16,484.74269,91.600009)"/>
<use data-text="c" xlink:href="#font_2_8" transform="matrix(16,0,0,-16,489.18748,91.600009)"/>
<use data-text="o" xlink:href="#font_2_15" transform="matrix(16,0,0,-16,497.18748,91.600009)"/>
<use data-text="d" xlink:href="#font_2_9" transform="matrix(16,0,0,-16,506.08668,91.600009)"/>
<use data-text="e" xlink:href="#font_2_10" transform="matrix(16,0,0,-16,514.98587,91.600009)"/>
<use data-text="&#xfffd;" xlink:href="#font_3_1" transform="matrix(16,0,0,-16,523.8851,91.600009)"/>
<use data-text="U" xlink:href="#font_2_7" transform="matrix(16,0,0,-16,438.48988,121.4751)"/>
<use data-text="s" xlink:href="#font_2_17" transform="matrix(16,0,0,-16,450.04508,121.4751)"/>
<use data-text="e" xlink:href="#font_2_10" transform="matrix(16,0,0,-16,458.04508,121.4751)"/>
<use data-text="r" xlink:href="#font_2_16" transform="matrix(16,0,0,-16,466.94429,121.4751)"/>
<use data-text=" " xlink:href="#font_2_1" transform="matrix(16,0,0,-16,472.27229,121.4751)"/>
<use data-text="c" xlink:href="#font_2_8" transform="matrix(16,0,0,-16,476.71708,121.4751)"/>
<use data-text="o" xlink:href="#font_2_15" transform="matrix(16,0,0,-16,484.71708,121.4751)"/>
<use data-text="d" xlink:href="#font_2_9" transform="matrix(16,0,0,-16,493.61628,121.4751)"/>
<use data-text="e" xlink:href="#font_2_10" transform="matrix(16,0,0,-16,502.51548,121.4751)"/>
<use data-text="&#xfffd;" xlink:href="#font_3_1" transform="matrix(16,0,0,-16,511.41468,121.4751)"/>
<use data-text="K" xlink:href="#font_2_4" transform="matrix(16,0,0,-16,437.23988,153.1)"/>
<use data-text="e" xlink:href="#font_2_10" transform="matrix(16,0,0,-16,447.91188,153.1)"/>
<use data-text="r" xlink:href="#font_2_16" transform="matrix(16,0,0,-16,456.81108,153.1)"/>
<use data-text="n" xlink:href="#font_2_14" transform="matrix(16,0,0,-16,462.13908,153.1)"/>
<use data-text="e" xlink:href="#font_2_10" transform="matrix(16,0,0,-16,471.03828,153.1)"/>
<use data-text="l" xlink:href="#font_2_12" transform="matrix(16,0,0,-16,479.93748,153.1)"/>
<use data-text=" " xlink:href="#font_2_1" transform="matrix(16,0,0,-16,483.49269,153.1)"/>
<use data-text="c" xlink:href="#font_2_8" transform="matrix(16,0,0,-16,487.93748,153.1)"/>
<use data-text="o" xlink:href="#font_2_15" transform="matrix(16,0,0,-16,495.93748,153.1)"/>
<use data-text="d" xlink:href="#font_2_9" transform="matrix(16,0,0,-16,504.83668,153.1)"/>
<use data-text="e" xlink:href="#font_2_10" transform="matrix(16,0,0,-16,513.73587,153.1)"/>
<use data-text="&#xfffd;" xlink:href="#font_3_1" transform="matrix(16,0,0,-16,522.6351,153.1)"/>
<use data-text="U" xlink:href="#font_2_7" transform="matrix(16,0,0,-16,438.48988,186.35)"/>
<use data-text="s" xlink:href="#font_2_17" transform="matrix(16,0,0,-16,450.04508,186.35)"/>
<use data-text="e" xlink:href="#font_2_10" transform="matrix(16,0,0,-16,458.04508,186.35)"/>
<use data-text="r" xlink:href="#font_2_16" transform="matrix(16,0,0,-16,466.94429,186.35)"/>
<use data-text=" " xlink:href="#font_2_1" transform="matrix(16,0,0,-16,472.27229,186.35)"/>
<use data-text="c" xlink:href="#font_2_8" transform="matrix(16,0,0,-16,476.71708,186.35)"/>
<use data-text="o" xlink:href="#font_2_15" transform="matrix(16,0,0,-16,484.71708,186.35)"/>
<use data-text="d" xlink:href="#font_2_9" transform="matrix(16,0,0,-16,493.61628,186.35)"/>
<use data-text="e" xlink:href="#font_2_10" transform="matrix(16,0,0,-16,502.51548,186.35)"/>
<use data-text="&#xfffd;" xlink:href="#font_3_1" transform="matrix(16,0,0,-16,511.41468,186.35)"/>
<path transform="matrix(.00007874014,0,0,.00007874014,193.53987,66.37509)" stroke-width="12700" stroke-linecap="butt" stroke-dasharray="12700,12700" stroke-linejoin="round" fill="none" stroke="#000000" d="M.07635501 .2376711 4141787 1.400391"/>
<path transform="matrix(.00007874014,0,0,.00007874014,193.53987,97.25)" stroke-width="12700" stroke-linecap="butt" stroke-dasharray="12700,12700" stroke-linejoin="round" fill="none" stroke="#000000" d="M.07635501 .02282721 4141787 1.185547"/>
<path transform="matrix(.00007874014,0,0,.00007874014,193.53987,128.25)" stroke-width="12700" stroke-linecap="butt" stroke-dasharray="12700,12700" stroke-linejoin="round" fill="none" stroke="#000000" d="M.07635501 .08337408 4141787 1.246094"/>
<path transform="matrix(.00007874014,0,0,.00007874014,193.53987,159.25)" stroke-width="12700" stroke-linecap="butt" stroke-dasharray="12700,12700" stroke-linejoin="round" fill="none" stroke="#000000" d="M.07635501 .143921 4141787 1.306641"/>
<path transform="matrix(.00007874014,0,0,.00007874014,193.53987,190.25)" stroke-width="12700" stroke-linecap="butt" stroke-dasharray="12700,12700" stroke-linejoin="round" fill="none" stroke="#000000" d="M.07635501 .2044678 4141787 1.367188"/>
<path transform="matrix(.00007874014,0,0,.00007874014,193.53987,35.37509)" stroke-width="12700" stroke-linecap="butt" stroke-dasharray="12700,12700" stroke-linejoin="round" fill="none" stroke="#000000" d="M.07635501 .1771242 4141787 1.339844"/>
<use data-text="T" xlink:href="#font_2_6" transform="matrix(16,0,0,-16,10.61487,45.975099)"/>
<use data-text="i" xlink:href="#font_2_11" transform="matrix(16,0,0,-16,19.80207,45.975099)"/>
<use data-text="m" xlink:href="#font_2_13" transform="matrix(16,0,0,-16,23.35727,45.975099)"/>
<use data-text="e" xlink:href="#font_2_10" transform="matrix(16,0,0,-16,36.685274,45.975099)"/>
<use data-text="&#xfffd;" xlink:href="#font_3_1" transform="matrix(16,0,0,-16,45.584474,45.975099)"/>
<path transform="matrix(.00007874014,0,0,.00007874014,535.41476,66.25009)" stroke-width="12700" stroke-linecap="butt" stroke-linejoin="round" fill="none" stroke="#000000" d="M-.2248536-.1501464C18850.56-.1501464 34131.8 13089.36 34131.8 29235.67V146182.8C34131.8 162329.5 49413.05 175419 68263.84 175419 49413.05 175419 34131.8 188508.1 34131.8 204654.8V321602C34131.8 337748.3 18850.56 350837.8-.2248536 350837.8"/>
<use data-text="C" xlink:href="#font_4_2" transform="matrix(16,0,0,-16,548.73989,72.4751)"/>
<use data-text="o" xlink:href="#font_4_13" transform="matrix(16,0,0,-16,560.29507,72.4751)"/>
<use data-text="n" xlink:href="#font_4_12" transform="matrix(16,0,0,-16,569.1943,72.4751)"/>
<use data-text="t" xlink:href="#font_4_17" transform="matrix(16,0,0,-16,578.09347,72.4751)"/>
<use data-text="e" xlink:href="#font_4_6" transform="matrix(16,0,0,-16,582.53829,72.4751)"/>
<use data-text="x" xlink:href="#font_4_20" transform="matrix(16,0,0,-16,591.4375,72.4751)"/>
<use data-text="t" xlink:href="#font_4_17" transform="matrix(16,0,0,-16,599.4375,72.4751)"/>
<use data-text=" " xlink:href="#font_4_1" transform="matrix(16,0,0,-16,603.88229,72.4751)"/>
<use data-text="&#xfffd;" xlink:href="#font_5_1" transform="matrix(16,0,0,-16,608.3271,72.4751)"/>
<use data-text="s" xlink:href="#font_4_16" transform="matrix(16,0,0,-16,554.73989,91.4751)"/>
<use data-text="w" xlink:href="#font_4_19" transform="matrix(16,0,0,-16,562.73989,91.4751)"/>
<use data-text="i" xlink:href="#font_4_9" transform="matrix(16,0,0,-16,574.29507,91.4751)"/>
<use data-text="t" xlink:href="#font_4_17" transform="matrix(16,0,0,-16,577.8503,91.4751)"/>
<use data-text="c" xlink:href="#font_4_5" transform="matrix(16,0,0,-16,582.29507,91.4751)"/>
<use data-text="h" xlink:href="#font_4_8" transform="matrix(16,0,0,-16,590.29507,91.4751)"/>
<use data-text="&#xfffd;" xlink:href="#font_3_1" transform="matrix(16,0,0,-16,599.193,91.4751)"/>
<path transform="matrix(.00007874014,0,0,.00007874014,535.41476,130.25)" stroke-width="12700" stroke-linecap="butt" stroke-linejoin="round" fill="none" stroke="#000000" d="M-.2248536 .08728033C18850.56 .08728033 34131.8 13089.6 34131.8 29235.9V146183C34131.8 162329.7 49413.05 175419.2 68263.84 175419.2 49413.05 175419.2 34131.8 188508.4 34131.8 204655.1V321602.2C34131.8 337748.5 18850.56 350838-.2248536 350838"/>
<use data-text="C" xlink:href="#font_4_2" transform="matrix(16,0,0,-16,548.73989,140.1)"/>
<use data-text="o" xlink:href="#font_4_13" transform="matrix(16,0,0,-16,560.29507,140.1)"/>
<use data-text="n" xlink:href="#font_4_12" transform="matrix(16,0,0,-16,569.1943,140.1)"/>
<use data-text="t" xlink:href="#font_4_17" transform="matrix(16,0,0,-16,578.09347,140.1)"/>
<use data-text="e" xlink:href="#font_4_6" transform="matrix(16,0,0,-16,582.53829,140.1)"/>
<use data-text="x" xlink:href="#font_4_20" transform="matrix(16,0,0,-16,591.4375,140.1)"/>
<use data-text="t" xlink:href="#font_4_17" transform="matrix(16,0,0,-16,599.4375,140.1)"/>
<use data-text=" " xlink:href="#font_4_1" transform="matrix(16,0,0,-16,603.88229,140.1)"/>
<use data-text="&#xfffd;" xlink:href="#font_5_1" transform="matrix(16,0,0,-16,608.3271,140.1)"/>
<use data-text="s" xlink:href="#font_4_16" transform="matrix(16,0,0,-16,554.73989,159.1)"/>
<use data-text="w" xlink:href="#font_4_19" transform="matrix(16,0,0,-16,562.73989,159.1)"/>
<use data-text="i" xlink:href="#font_4_9" transform="matrix(16,0,0,-16,574.29507,159.1)"/>
<use data-text="t" xlink:href="#font_4_17" transform="matrix(16,0,0,-16,577.8503,159.1)"/>
<use data-text="c" xlink:href="#font_4_5" transform="matrix(16,0,0,-16,582.29507,159.1)"/>
<use data-text="h" xlink:href="#font_4_8" transform="matrix(16,0,0,-16,590.29507,159.1)"/>
<use data-text="&#xfffd;" xlink:href="#font_3_1" transform="matrix(16,0,0,-16,599.193,159.1)"/>
<use data-text="r" xlink:href="#font_6_4" transform="matrix(16,0,0,-16,116.98987,73.7251)"/>
<use data-text="e" xlink:href="#font_6_3" transform="matrix(16,0,0,-16,126.59147,73.7251)"/>
<use data-text="a" xlink:href="#font_6_1" transform="matrix(16,0,0,-16,136.19307,73.7251)"/>
<use data-text="d" xlink:href="#font_6_2" transform="matrix(16,0,0,-16,145.79468,73.7251)"/>
<use data-text="&#xfffd;" xlink:href="#font_3_1" transform="matrix(16,0,0,-16,155.39612,73.7251)"/>
<use data-text="D" xlink:href="#font_4_3" transform="matrix(16,0,0,-16,58.11486,134.2251)"/>
<use data-text="i" xlink:href="#font_4_9" transform="matrix(16,0,0,-16,69.67006,134.2251)"/>
<use data-text="s" xlink:href="#font_4_16" transform="matrix(16,0,0,-16,73.22526,134.2251)"/>
<use data-text="k" xlink:href="#font_4_10" transform="matrix(16,0,0,-16,81.225269,134.2251)"/>
<use data-text=" " xlink:href="#font_4_1" transform="matrix(16,0,0,-16,89.225269,134.2251)"/>
<use data-text=" " xlink:href="#font_4_1" transform="matrix(16,0,0,-16,93.67006,134.2251)"/>
<use data-text="i" xlink:href="#font_4_9" transform="matrix(16,0,0,-16,98.11487,134.2251)"/>
<use data-text="n" xlink:href="#font_4_12" transform="matrix(16,0,0,-16,101.67007,134.2251)"/>
<use data-text="t" xlink:href="#font_4_17" transform="matrix(16,0,0,-16,110.56927,134.2251)"/>
<use data-text="e" xlink:href="#font_4_6" transform="matrix(16,0,0,-16,115.01407,134.2251)"/>
<use data-text="r" xlink:href="#font_4_15" transform="matrix(16,0,0,-16,123.91327,134.2251)"/>
<use data-text="r" xlink:href="#font_4_15" transform="matrix(16,0,0,-16,129.24127,134.2251)"/>
<use data-text="u" xlink:href="#font_4_18" transform="matrix(16,0,0,-16,134.56928,134.2251)"/>
<use data-text="p" xlink:href="#font_4_14" transform="matrix(16,0,0,-16,143.46848,134.2251)"/>
<use data-text="t" xlink:href="#font_4_17" transform="matrix(16,0,0,-16,152.36768,134.2251)"/>
<use data-text="&#xfffd;" xlink:href="#font_3_1" transform="matrix(16,0,0,-16,156.81018,134.2251)"/>
<path transform="matrix(.00007874014,0,0,.00007874014,161.78987,128.87509)" stroke-width="12700" stroke-linecap="butt" stroke-dasharray="50800,38100" stroke-linejoin="round" fill="none" stroke="#000000" d="M.01434329-.1402586H325437.6"/>
<path transform="matrix(1,0,0,-1,-2.33513,540)" d="M185.75 414.1249 191.75 411.1249 185.75 408.1249Z" fill-rule="evenodd"/>
<path transform="matrix(.00007874014,0,0,.00007874014,247.91487,35.00009)" stroke-width="38100" stroke-linecap="butt" stroke-linejoin="round" fill="none" stroke="#000000" d="M-.1488038 .2888185V355600.3"/>
<path transform="matrix(1,0,0,-1,-2.33513,540)" d="M254.75 482.9999 250.25 473.9999 245.75 482.9999Z" fill-rule="evenodd"/>
<path transform="matrix(.00007874014,0,0,.00007874014,247.91487,67.00009)" stroke-width="38100" stroke-linecap="butt" stroke-linejoin="round" fill="none" stroke="#000000" d="M-.1488038-.1486815 1303158 364390.1"/>
<path transform="matrix(1,0,0,-1,-2.33513,540)" d="M348.2943 450.2573 355.75 443.4999 345.8706 441.5898Z" fill-rule="evenodd"/>
<path transform="matrix(-.00007874014,-0,0,.00007874014,352.41487,128)" stroke-width="38100" stroke-linecap="butt" stroke-linejoin="round" fill="none" stroke="#000000" d="M.1947022 .0828858 1277740 354927.7"/>
<path transform="matrix(1,0,0,-1,-2.33513,540)" d="M258.7173 389.9946 251.25 383.25 261.126 381.3229Z" fill-rule="evenodd"/>
<path transform="matrix(.00007874014,0,0,.00007874014,161.78987,66.00009)" stroke-width="12700" stroke-linecap="butt" stroke-dasharray="50800,38100" stroke-linejoin="round" fill="none" stroke="#000000" d="M.01434329-.1506346H325437.6"/>
<path transform="matrix(1,0,0,-1,-2.33513,540)" d="M185.75 476.9999 191.75 473.9999 185.75 470.9999Z" fill-rule="evenodd"/>
<path transform="matrix(.00007874014,0,0,.00007874014,247.41487,158.25)" stroke-width="38100" stroke-linecap="butt" stroke-linejoin="round" fill="none" stroke="#000000" d="M-.1497803 .1419678V390525.2"/>
<path transform="matrix(1,0,0,-1,-2.33513,540)" d="M254.25 357 249.75 348 245.25 357Z" fill-rule="evenodd"/>
<use data-text="R" xlink:href="#font_4_4" transform="matrix(16,0,0,-16,104.36487,159.4751)"/>
<use data-text="e" xlink:href="#font_4_6" transform="matrix(16,0,0,-16,115.92007,159.4751)"/>
<use data-text="t" xlink:href="#font_4_17" transform="matrix(16,0,0,-16,124.819278,159.4751)"/>
<use data-text="u" xlink:href="#font_4_18" transform="matrix(16,0,0,-16,129.26407,159.4751)"/>
<use data-text="r" xlink:href="#font_4_15" transform="matrix(16,0,0,-16,138.16327,159.4751)"/>
<use data-text="n" xlink:href="#font_4_12" transform="matrix(16,0,0,-16,143.49127,159.4751)"/>
<use data-text=" " xlink:href="#font_4_1" transform="matrix(16,0,0,-16,152.39048,159.4751)"/>
<use data-text="&#xfffd;" xlink:href="#font_5_1" transform="matrix(16,0,0,-16,156.83527,159.4751)"/>
<use data-text="f" xlink:href="#font_4_7" transform="matrix(16,0,0,-16,79.36486,178.4751)"/>
<use data-text="r" xlink:href="#font_4_15" transform="matrix(16,0,0,-16,83.80966,178.4751)"/>
<use data-text="o" xlink:href="#font_4_13" transform="matrix(16,0,0,-16,89.137668,178.4751)"/>
<use data-text="m" xlink:href="#font_4_11" transform="matrix(16,0,0,-16,98.036869,178.4751)"/>
<use data-text=" " xlink:href="#font_4_1" transform="matrix(16,0,0,-16,111.36486,178.4751)"/>
<use data-text="r" xlink:href="#font_6_4" transform="matrix(16,0,0,-16,115.810169,178.4751)"/>
<use data-text="e" xlink:href="#font_6_3" transform="matrix(16,0,0,-16,125.41177,178.4751)"/>
<use data-text="a" xlink:href="#font_6_1" transform="matrix(16,0,0,-16,135.01337,178.4751)"/>
<use data-text="d" xlink:href="#font_6_2" transform="matrix(16,0,0,-16,144.61496,178.4751)"/>
<use data-text="&#xfffd;" xlink:href="#font_3_1" transform="matrix(16,0,0,-16,154.21643,178.4751)"/>
<path transform="matrix(.00007874014,0,0,.00007874014,26.66487,57.00009)" stroke-width="12700" stroke-linecap="butt" stroke-linejoin="round" fill="none" stroke="#000000" d="M.001167294 .3317872V1816101"/>
<path transform="matrix(1,0,0,-1,-2.33513,540)" d="M32 343.9999 29 337.9999 26 343.9999Z" fill-rule="evenodd"/>
<path transform="matrix(.00007874014,0,0,.00007874014,161.78987,159.87509)" stroke-width="12700" stroke-linecap="butt" stroke-dasharray="50800,38100" stroke-linejoin="round" fill="none" stroke="#000000" d="M.01434329 .03271496H325437.6"/>
<path transform="matrix(1,0,0,-1,-2.33513,540)" d="M185.75 383.1249 191.75 380.1249 185.75 377.1249Z" fill-rule="evenodd"/>
</g>
</g>
</svg>
