<svg xmlns="http://www.w3.org/2000/svg" xmlns:xlink="http://www.w3.org/1999/xlink" version="1.1" width="501.273pt" height="149.448pt" viewBox="0 0 501.273 149.448">
<defs>
<clipPath id="clip_0">
<path transform="matrix(1,0,0,-1,0,540)" d="M0 390.552H501.273V540H0Z" fill-rule="evenodd"/>
</clipPath>
<clipPath id="clip_1">
<path transform="matrix(1,0,0,-1,0,540)" d="M0 .00002324581H719.9999V540H0Z"/>
</clipPath>
<path id="font_2_2" d="M.4506836 .7294922C.37841798 .6301575 .32958985 .55703738 .30419923 .51013186 .26611329 .43881227 .23714192 .3564148 .21728516 .26293946 .19710286 .16848755 .19189453 .08217875 .20166016 .0040130617 .20784505-.044184369 .22526042-.11355591 .25390626-.20410156H.19482422C.16292317-.12984212 .14347331-.08245341 .13647461-.061935426 .1294759-.04141744 .123046878-.013570149 .1171875 .021606446 .10904948 .06980387 .10725912 .1212616 .111816409 .17597962 .11442057 .2043101 .11832682 .23134358 .123535159 .25708009 .14404297 .3534851 .17740886 .43930564 .22363281 .5145416 .25325523 .5624135 .30859376 .6340637 .38964845 .7294922H.4506836Z"/>
<path id="font_2_5" d="M.25439454 .2788086 .359375 .3330078C.40657554 .35742188 .44059245 .37825523 .46142579 .3955078 .49365235 .42252604 .5135091 .45345054 .5209961 .48828126 .52978518 .5289714 .5244954 .5612793 .50512698 .5852051 .48575846 .60913088 .45572917 .62109377 .41503907 .62109377 .35481773 .62109377 .30826823 .5983073 .27539063 .5527344 .2578125 .5283203 .24381511 .49446617 .23339844 .45117188H.14404297C.15804036 .51204428 .17985027 .5616862 .20947266 .60009768 .2618815 .66813156 .33626304 .70214846 .4326172 .70214846 .5126953 .70214846 .56656906 .68051657 .5942383 .6372528 .62190756 .5939992 .6302083 .54586288 .6191406 .49284364 .6070964 .43689475 .57714846 .38907878 .5292969 .34939576 .5016276 .3263041 .45491538 .29833476 .38916017 .26548768L.31445313 .22840882C.27864585 .21084087 .25 .19408672 .22851563 .17814636 .18977864 .14984639 .16259766 .11845907 .14697266 .083984378H.5288086L.51123049 0H.03125C.04720052 .060221357 .0707194 .11263021 .10180664 .15722656 .13289388 .20182292 .18375652 .24235027 .25439454 .2788086Z"/>
<path id="font_2_3" d="M-.008300781-.20410156C.06461588-.103139247 .11344401-.029530844 .1381836 .016723633 .17561849 .08674113 .20442708 .16881307 .22460938 .26293946 .24446614 .35706584 .24951172 .44321189 .2397461 .52137759 .23388672 .569575 .21663411 .63894656 .18798828 .7294922H.24707031C.28027345 .64937338 .30013023 .59995016 .30664063 .58122256 .31315104 .56249496 .3191732 .5366821 .32470704 .5037842 .33154298 .46307374 .33406578 .42285157 .3322754 .38311769 .33048503 .3433838 .3256836 .30511476 .3178711 .26831056 .29736329 .17190552 .26383464 .08592224 .21728516 .010360718 .18766277-.03816223 .13264974-.10964966 .052246095-.20410156H-.008300781Z"/>
<path id="font_2_1" d="M0 0Z"/>
<path id="font_2_9" d="M.77978518 .5019531H.6850586C.68408206 .54848226 .67041018 .5853424 .64404299 .61253359 .6176758 .63972476 .5755208 .6533203 .5175781 .6533203 .4469401 .6533203 .38468424 .628479 .33081056 .5787964 .27693687 .52911379 .23909505 .45295716 .21728516 .35032655 .19938152 .26628114 .20450847 .19810994 .23266602 .14581299 .26082359 .09352621 .3138021 .06738281 .39160157 .06738281 .46321617 .06738281 .5236003 .09484863 .5727539 .14978028 .59847006 .17870076 .62125656 .21672566 .6411133 .26385499H.73583987C.7114258 .18828328 .67008468 .124928798 .6118164 .073791507 .5415039 .012227376 .4580078-.018554688 .36132813-.018554688 .27799479-.018554688 .2133789 .006688436 .16748047 .057174684 .10725912 .12394714 .09195963 .2270406 .12158203 .36645509 .14404297 .47232057 .19042969 .5591278 .2607422 .62687686 .33691407 .7004954 .42822267 .7373047 .53466799 .7373047 .6254883 .7373047 .69091799 .71332809 .73095706 .66537478 .7709961 .61742147 .78727218 .5629476 .77978518 .5019531Z"/>
<path id="font_2_25" d="M.4814453 .26976014C.49186198 .31852723 .49251304 .35819499 .48339845 .38876344 .46875 .4368795 .43115235 .4609375 .37060548 .4609375 .31689454 .4609375 .2735189 .4404551 .24047852 .39949037 .20743816 .3585256 .18473308 .30910746 .17236328 .25123597 .16064453 .19563294 .16300456 .14929708 .17944336 .11222839 .19588216 .07516988 .23063152 .056640626 .2836914 .056640626 .34195964 .056640626 .38663737 .07866923 .4177246 .12272644 .44881187 .16678365 .4700521 .21579488 .4814453 .26976014M.57373049 .27223207C.55582687 .18784078 .5205078 .1181132 .46777345 .06304932 .41503907 .0079956059 .34554038-.01953125 .25927735-.01953125 .18733724-.01953125 .13541667 .0048217775 .103515628 .053527833 .071614589 .10223389 .06429037 .16763814 .08154297 .2497406 .10042318 .33771263 .13769531 .40776063 .19335938 .45988465 .24902344 .51201888 .31445313 .53808596 .38964845 .53808596 .45703126 .53808596 .509196 .5156047 .5461426 .4706421 .5830892 .42567954 .59228518 .35954286 .57373049 .27223207Z"/>
<path id="font_2_24" d="M.17529297 .5234375H.25878907L.24316406 .44914247C.27441407 .47977195 .30525718 .50176498 .33569337 .51512148 .36612956 .52847799 .39827476 .53515627 .4321289 .53515627 .50634768 .53515627 .55094406 .5092519 .56591799 .45744325 .57438156 .42910258 .5730794 .38853965 .5620117 .3357544L.49072267 0H.4013672L.4711914 .3299408C.47802735 .36188255 .47884117 .38762919 .4736328 .4071808 .46484376 .4397634 .4399414 .4560547 .39892579 .4560547 .37809245 .4560547 .3605143 .4539388 .3461914 .44970704 .32047526 .4425354 .29622398 .42819724 .2734375 .4066925 .25520835 .38941957 .24194336 .37157694 .23364258 .35316468 .2253418 .3347524 .21761067 .30843608 .21044922 .2742157L.15234375 0H.064453128L.17529297 .5234375Z"/>
<path id="font_2_29" d="M.2241211 .6689453H.31298829L.28173829 .5234375H.36523438L.35009767 .45117188H.26660157L.19384766 .10948181C.1899414 .0912323 .19352214 .07901001 .20458985 .07281494 .21077474 .069234218 .22184246 .06744385 .23779297 .06744385 .24202474 .06744385 .24658203 .06752523 .25146485 .06768799 .25634767 .067850749 .26220704 .06825765 .26904298 .06890869L.25439454-.00048828127C.24365235-.0034179688 .23266602-.005533854 .22143555-.0068359377 .21020508-.0081380209 .19824219-.0087890629 .18554688-.0087890629 .14453125-.0087890629 .118896488 .0017191569 .10864258 .022735596 .09838867 .043752035 .096842449 .07104492 .104003909 .10461426L.17773438 .45117188H.106933597L.12207031 .5234375H.1928711L.2241211 .6689453Z"/>
<path id="font_2_27" d="M.17773438 .5234375H.26123048L.2421875 .43301393C.25260417 .4506124 .2738444 .47203575 .3059082 .49728395 .33797203 .52253219 .37141929 .53515627 .40625 .53515627 .4078776 .53515627 .41064454 .5349579 .41455079 .53456118 .41845704 .5341746 .42496745 .5333964 .43408204 .53222659L.41455079 .4399414C.40934245 .44091798 .4046224 .441569 .40039063 .44189454 .39615885 .44222007 .3914388 .4423828 .38623048 .4423828 .34195964 .4423828 .30493165 .428126 .27514649 .39961244 .24536133 .37109886 .22639974 .338267 .21826172 .30111695L.15478516 0H.06689453L.17773438 .5234375Z"/>
<path id="font_2_22" d="M.21923828 .71777346H.3071289L.15478516 0H.06689453L.21923828 .71777346Z"/>
<path id="font_2_26" d="M.484375 .26513673C.49316407 .30680339 .4946289 .3426107 .48876954 .3725586 .47835288 .43017579 .4428711 .45898438 .38232423 .45898438 .3214518 .45898438 .27327476 .4285482 .23779297 .36767579 .21891277 .3351237 .20410156 .29378257 .19335938 .24365235 .18489583 .20328777 .18375652 .16894531 .1899414 .140625 .20100911 .08658854 .2368164 .059570314 .29736329 .059570314 .3383789 .059570314 .3761393 .07674154 .41064454 .111083988 .44514976 .14542644 .46972657 .19677735 .484375 .26513673M.16796875 .5214844H.25341798L.23876953 .45214845C.26123048 .47591148 .28434245 .49430339 .30810548 .5073242 .34195964 .52652999 .37890626 .5361328 .4189453 .5361328 .4781901 .5361328 .5236003 .5134074 .5551758 .46795655 .5867513 .4225057 .5935872 .35758973 .5756836 .27320863 .55159506 .1591746 .5045573 .07772318 .4345703 .02885437 .39029948-.0021006268 .34309898-.017578125 .29296876-.017578125 .25358073-.017578125 .22233074-.008895874 .19921875 .008468628 .18554688 .018295289 .17171224 .035166425 .15771485 .05908203L.10107422-.20898438H.013183594L.16796875 .5214844Z"/>
<path id="font_2_13" d="M.23730469 .057617189C.26822917 .057617189 .2998047 .06476847 .33203126 .079071048 .3857422 .10281372 .41845704 .14166768 .43017579 .19563294L.44482423 .26635743C.43277995 .25953166 .417806 .25384013 .39990235 .24928284 .3819987 .24473572 .3647461 .2414856 .34814454 .23953247L.29345704 .23271179C.26057945 .22848003 .2351888 .22181194 .21728516 .21270752 .18701172 .19742839 .16829427 .17304485 .16113281 .13955689 .15559896 .11419678 .16056316 .09419759 .17602539 .079559329 .19148763 .064931239 .21191406 .057617189 .23730469 .057617189M.4116211 .31723023C.43245445 .31984458 .44791667 .32831828 .4580078 .34265138 .46354167 .35047404 .46777345 .3617147 .47070313 .3763733 .47721354 .40635173 .4711914 .4281006 .45263673 .44161988 .43408204 .45514933 .4049479 .46191407 .36523438 .46191407 .31933595 .46191407 .2841797 .44954429 .25976563 .4248047 .24609375 .4111328 .23486328 .39078776 .22607422 .36376954H.14404297C.15934246 .42822267 .18977864 .47306315 .23535156 .49829103 .28092448 .52351889 .33024089 .5361328 .38330079 .5361328 .44482423 .5361328 .4921875 .52441409 .5253906 .50097659 .55859377 .47753907 .569987 .44108073 .5595703 .39160157L.49560548 .09033203C.49365235 .081217449 .49389649 .07389323 .4963379 .068359378 .4987793 .06282552 .50602218 .060058595 .5180664 .060058595 .52197268 .060058595 .52644857 .060343427 .53149417 .060913087 .53653976 .061482748 .5419922 .06233724 .54785159 .06347656L.5336914-.0027618409C.51936849-.0067392985 .5085449-.009226481 .5012207-.010223389 .49389649-.011220296 .48404948-.01171875 .4716797-.01171875 .44140626-.01171875 .42171226-.00090026858 .41259767 .020736695 .40771485 .032211305 .40608726 .04843648 .40771485 .06941223 .38460288 .045954389 .3544922 .02558899 .3173828 .00831604 .28027345-.008946736 .24153646-.017578125 .20117188-.017578125 .15266927-.017578125 .116129558-.0028330486 .091552738 .026657105 .066975917 .05614726 .05940755 .093048099 .068847659 .13735962 .07926432 .18591309 .10245768 .22355144 .13842774 .25027467 .17439778 .2769979 .21761067 .29345194 .2680664 .29963685L.4116211 .31723023Z"/>
<path id="font_2_28" d="M.15136719 .1640625C.14778646 .13463338 .15039063 .11207072 .15917969 .09637451 .1751302 .06793213 .21044922 .053710939 .26513673 .053710939 .2976888 .053710939 .32788087 .060806276 .3557129 .07499695 .38354493 .08918762 .40055339 .11112467 .40673829 .1408081 .4116211 .16330974 .40527345 .1804301 .3876953 .19216919 .3766276 .199351 .35335288 .20767212 .3178711 .21713257L.25195313 .23474121C.20963542 .24582927 .17936199 .2582245 .16113281 .27192689 .1282552 .29574076 .116373699 .32868449 .12548828 .37075807 .13590496 .42033897 .16219075 .46045939 .2043457 .49111939 .24650066 .52177938 .2976888 .5371094 .35791017 .5371094 .4366862 .5371094 .48860679 .5139974 .5136719 .46777345 .5292969 .43847657 .5332031 .40690104 .5253906 .37304688H.4423828C.44498698 .39290367 .44173179 .41097007 .4326172 .4272461 .41731773 .45035807 .38476563 .46191407 .33496095 .46191407 .3017578 .46191407 .27530924 .45555116 .25561524 .44282533 .23592122 .43010966 .22379558 .41331483 .21923828 .3924408 .21435547 .36960349 .22167969 .3513387 .24121094 .33764649 .25260417 .32948814 .27034507 .3223114 .2944336 .31611634L.34960938 .30192567C.40950523 .28659568 .44873048 .27175395 .46728517 .2574005 .49658204 .23488872 .50602218 .19949849 .49560548 .15122986 .48583985 .10458883 .4597168 .064305629 .41723634 .030380249 .37475587-.0035451253 .3173828-.020507813 .24511719-.020507813 .1673177-.020507813 .1159668-.002802531 .09106445 .032608034 .06616211 .06801859 .05810547 .111836757 .06689453 .1640625H.15136719Z"/>
<path id="font_2_16" d="M.5629883 .44125367C.57503256 .4148458 .5802409 .3840332 .5786133 .34881593 .5789388 .32468669 .57340499 .2862142 .5620117 .23339844H.17871094C.16894531 .18033855 .17244466 .13777669 .18920899 .10571289 .20597331 .073649089 .2389323 .057617189 .28808595 .057617189 .33398438 .057617189 .3736979 .072779338 .40722657 .10310364 .4267578 .12070211 .44222007 .14107768 .45361329 .16423035H.54003909C.5335286 .14500427 .521403 .12358093 .5036621 .09996033 .48592124 .07633972 .4674479 .057037355 .4482422 .042053224 .41601563 .015981039 .37923179-.0016174316 .33789063-.0107421879 .3154297-.015950522 .29085288-.018554688 .26416017-.018554688 .19905599-.018554688 .14892578 .0051472985 .11376953 .05255127 .07861328 .09995524 .07014974 .16634114 .088378909 .25170899 .106282558 .33576457 .14355469 .40401713 .20019531 .45646668 .25683595 .5089264 .3219401 .53515627 .3955078 .53515627 .4326172 .53515627 .46679688 .5264333 .49804688 .5089874 .5292969 .49154154 .55094406 .46896363 .5629883 .44125367M.48632813 .30371095C.4908854 .3416748 .48909507 .37201438 .48095704 .3947296 .46598307 .43691508 .43033854 .4580078 .37402345 .4580078 .33365885 .4580078 .29671226 .44348655 .2631836 .41444398 .22965496 .3854014 .20719402 .3484904 .19580078 .30371095H.48632813Z"/>
<path id="font_3_1" d="M0 0Z"/>
<path id="font_2_19" d="M.21728516 .71972659H.30517579L.24804688 .45214845C.2747396 .4786682 .29752604 .4973297 .31640626 .50813296 .3486328 .5267995 .38590495 .5361328 .42822267 .5361328 .50406906 .5361328 .5498047 .50957748 .5654297 .45646668 .57389327 .42747499 .5727539 .38723756 .5620117 .3357544L.49072267 0H.40039063L.47021485 .32958985C.47835288 .3680013 .4794922 .39615885 .4736328 .4140625 .46354167 .44270835 .43652345 .45703126 .39257813 .45703126 .35611979 .45703126 .32047526 .4444987 .28564454 .4194336 .2508138 .3943685 .22591146 .34700523 .2109375 .27734376L.15234375 0H.064453128L.21728516 .71972659Z"/>
<path id="font_2_15" d="M.28222657 .05859375C.32291667 .05859375 .36002604 .076044719 .3935547 .110946658 .42708335 .14585877 .45084635 .19594829 .46484376 .2612152 .47884117 .32713319 .4757487 .37592063 .4555664 .4075775 .43538413 .4392446 .4054362 .45507813 .36572267 .45507813 .3214518 .45507813 .28198243 .43819175 .24731446 .40441896 .21264649 .37064616 .1883138 .32096354 .1743164 .2553711 .16227214 .19952393 .16414388 .15276592 .17993164 .115097049 .1957194 .077428188 .2298177 .05859375 .28222657 .05859375M.46044923 .50683596C.4741211 .4970703 .48828126 .47998048 .5029297 .4555664L.55908206 .71972659H.6435547L.49072267 0H.4116211L.4267578 .072753909C.39941407 .040527345 .37019859 .017252604 .33911134 .0029296876 .30802409-.0113932299 .27441407-.018554688 .23828125-.018554688 .18001302-.018554688 .13476563 .0059407555 .10253906 .05493164 .0703125 .10392252 .06298828 .16910808 .080566409 .25048829 .09651693 .32666017 .12988281 .39265953 .18066406 .44848634 .23144531 .5043132 .29296876 .53222659 .36523438 .53222659 .40527345 .53222659 .43701173 .523763 .46044923 .50683596Z"/>
<path id="font_2_6" d="M.06933594 .21484375H.16113281C.15527344 .16945394 .15673828 .13646953 .16552735 .1158905 .1805013 .07899475 .21777344 .060546876 .27734376 .060546876 .32356773 .060546876 .36328126 .07296244 .39648438 .09779358 .4296875 .12262472 .45052085 .15464275 .45898438 .19384766 .46907554 .24220784 .46142579 .2760264 .43603517 .29530335 .41064454 .3145803 .37174479 .32421876 .31933595 .32421876 .31347657 .32421876 .3075358 .32413737 .30151368 .3239746 .29549156 .32381187 .28938804 .32356773 .28320313 .3232422L.2998047 .4013672C.30859376 .40019737 .31608073 .39941407 .32226563 .39901734 .32845054 .39863078 .3351237 .3984375 .34228517 .3984375 .37516276 .3984375 .4033203 .40363566 .4267578 .41403199 .4674479 .43222047 .49283854 .46470133 .5029297 .5114746 .5104167 .54622396 .50374349 .5730184 .48291017 .5918579 .4620768 .61069747 .43522135 .6201172 .40234376 .6201172 .34375 .6201172 .29915367 .60058596 .2685547 .56152346 .2516276 .54003909 .23811849 .5094401 .22802735 .46972657H.14111328C.15218099 .5218099 .17203777 .56608077 .2006836 .60253909 .25016276 .66764327 .31998698 .7001953 .41015626 .7001953 .4814453 .7001953 .5332845 .6843465 .5656738 .6526489 .5980632 .6209615 .60791018 .5750529 .59521487 .5149231 .5857747 .47201539 .56673178 .4372355 .53808596 .4105835 .5201823 .39401246 .4988607 .38101197 .4741211 .37158204 .5086263 .36147056 .5332031 .34196983 .54785159 .31307984 .5625 .28420005 .5654297 .24887593 .5566406 .20710755 .5423177 .14021302 .5087077 .08571371 .45581056 .04360962 .40291343 .0015157064 .33610026-.01953125 .2553711-.01953125 .1726888-.01953125 .1175944 .0032196046 .09008789 .048721315 .06258138 .09423319 .055664064 .14960735 .06933594 .21484375Z"/>
<path id="font_2_12" d="M.7504883 .71777346 .7324219 .63183596H.49072267L.3564453 0H.2578125L.39208985 .63183596H.15039063L.16845703 .71777346H.7504883Z"/>
<path id="font_2_30" d="M.2631836 .5234375 .18945313 .17590332C.18391927 .1491801 .18359375 .12734477 .18847656 .11039734 .19726563 .07911682 .22298177 .06347656 .265625 .06347656 .3268229 .06347656 .37434898 .09085083 .40820313 .14559937 .42643229 .17492676 .44091798 .21516927 .45166017 .2663269L.50634768 .5234375H.5942383L.48339845 0H.40039063L.41748048 .076828C.40185548 .056930543 .3841146 .0401357 .3642578 .026443482 .32486979-.00095113119 .28125-.0146484379 .23339844-.0146484379 .15885417-.0146484379 .11344401 .010299683 .09716797 .060195924 .08805338 .08693949 .08821615 .12265015 .09765625 .16732788L.17333985 .5234375H.2631836Z"/>
<path id="font_2_7" d="M.3828125 .24804688 .4501953 .5649414 .1586914 .24804688H.3828125M.33203126 0 .36816407 .17089844H.061523439L.079589847 .25683595 .4946289 .7011719H.56884768L.47216798 .24804688H.5751953L.55908206 .17089844H.4560547L.41992188 0H.33203126Z"/>
<path id="font_2_10" d="M.23095703 .71777346H.32910157L.26611329 .42089845H.63916018L.70214846 .71777346H.80029299L.6479492 0H.5498047L.62109377 .33496095H.24804688L.17675781 0H.07861328L.23095703 .71777346Z"/>
<path id="font_2_20" d="M.17480469 .5205078H.26416017L.1538086 0H.064453128L.17480469 .5205078M.21679688 .71777346H.30615235L.28466798 .61816409H.1953125L.21679688 .71777346Z"/>
<path id="font_2_14" d="M.55029299 .3466797H.46484376C.46647135 .37890626 .46028648 .40568034 .44628907 .42700196 .43229167 .44832359 .40478517 .45898438 .36376954 .45898438 .30777995 .45898438 .2618815 .43164063 .22607422 .37695313 .20296224 .34147135 .18587239 .2976888 .17480469 .24560547 .16341146 .19319661 .16503906 .14908855 .1796875 .11328125 .19433594 .07747396 .22542317 .059570314 .27294923 .059570314 .30940757 .059570314 .34065757 .0707194 .36669923 .09301758 .39274089 .11531576 .41389976 .14583333 .43017579 .18457031H.515625C.49121095 .115234378 .4560547 .06453451 .41015626 .032470704 .3642578 .00040690104 .3108724-.015625 .25-.015625 .18164063-.015625 .1324056 .009379069 .10229492 .059387208 .07218424 .10940552 .065104167 .17188008 .08105469 .24681092 .10058594 .33868919 .13810222 .41020204 .19360352 .4613495 .24910482 .51250717 .3113607 .53808596 .3803711 .53808596 .43929038 .53808596 .48413087 .5237274 .5148926 .49501039 .5456543 .46629334 .5574544 .41684977 .55029299 .3466797Z"/>
<path id="font_2_17" d="M.25048829 .6826172C.277181 .7125651 .31982423 .72753909 .37841798 .72753909 .3839518 .72753909 .38964845 .7273763 .3955078 .7270508 .4013672 .7267253 .4078776 .726237 .41503907 .72558596L.39794923 .6455078C.38916017 .6461589 .3827311 .64656576 .3786621 .6467285 .3745931 .6468913 .37076823 .64697268 .3671875 .64697268 .34049479 .64697268 .32307945 .64005538 .3149414 .6262207 .30680339 .61238607 .29671226 .57714846 .28466798 .5205078H.37158204L.3569336 .45117188H.26904298L.17333985 0H.08642578L.1821289 .45117188H.109375L.12402344 .5205078H.19677735L.21435547 .60253909C.22347005 .6389974 .23551433 .6656901 .25048829 .6826172Z"/>
<path id="font_2_31" d="M.21582031 .5234375 .2290039 .110946658 .41845704 .5234375H.51708987L.53271487 .11338806 .7265625 .5234375H.8144531L.5517578 0H.46044923L.4399414 .40516664 .25097657 0H.15966797L.119628909 .5234375H.21582031Z"/>
<path id="font_2_18" d="M.46289063 .50193789C.47721354 .49053446 .4905599 .47392274 .5029297 .45210267L.51708987 .51802065H.59814456L.4970703 .042160036C.4830729-.024286906 .4622396-.07672628 .4345703-.11515808 .3828125-.18617249 .3063151-.22167969 .20507813-.22167969 .14876302-.22167969 .10408529-.20914714 .07104492-.18408203 .03800456-.15901692 .024902344-.119628909 .03173828-.06591797H.12109375C.12044271-.08935547 .12516277-.107421878 .1352539-.12011719 .1508789-.13964844 .18001302-.14941406 .22265625-.14941406 .29003907-.14941406 .33919273-.12557984 .3701172-.07791138 .38834635-.04982503 .4046224 .00029500327 .4189453 .07244873 .39583335 .04569499 .37052409 .02579244 .34301759 .012741089 .31551109-.00031026206 .28141276-.0068359377 .24072266-.0068359377 .18408203-.0068359377 .13875325 .013280232 .10473633 .053512575 .0707194 .09375509 .06363932 .16030376 .083496097 .25315858 .10205078 .34080506 .13793946 .40922547 .19116211 .4584198 .24438477 .5076243 .30126954 .53222659 .3618164 .53222659 .40283204 .53222659 .43652345 .5221303 .46289063 .50193789M.36132813 .45410157C.29947917 .45410157 .2511393 .4251658 .2163086 .3672943 .19742839 .33641053 .18277996 .29593406 .17236328 .24586487 .15966797 .1870168 .162028 .14223226 .17944336 .11151123 .19685872 .0807902 .2257487 .06542969 .26611329 .06542969 .3292643 .06542969 .37972007 .09387716 .41748048 .1507721 .4386393 .18295796 .45377604 .22050984 .46289063 .26342774 .47688804 .328125 .47379557 .37607829 .45361329 .4072876 .433431 .43849693 .40266929 .45410157 .36132813 .45410157Z"/>
<path id="font_2_33" d="M.5019531 .5234375H.5991211C.57958987 .48986817 .5358073 .41326905 .46777345 .29364015 .4169922 .20367432 .37483726 .1303355 .3413086 .07362366 .2618815-.060012819 .20865886-.14149983 .18164063-.1708374 .15462239-.20017497 .115722659-.21484375 .064941409-.21484375 .052571615-.21484375 .04313151-.21435547 .036621095-.2133789 .030110678-.21240235 .022298178-.21061199 .013183594-.20800781L.030273438-.1274414C.044596357-.13167317 .055094404-.13427735 .061767579-.1352539 .06844076-.13623047 .07438151-.13671875 .079589847-.13671875 .09586588-.13671875 .10839844-.13402812 .1171875-.12864685 .12597656-.12327576 .13378906-.11668396 .140625-.10887146 .14290364-.10625712 .15161133-.09289551 .16674805-.06878662 .18188477-.04468791 .19303386-.026774088 .20019531-.015045166L.12109375 .5234375H.22070313L.2705078 .097091678 .5019531 .5234375Z"/>
<path id="font_4_5" d="M.43554688 .39746095C.43554688 .40672813 .4375 .4134369 .44140626 .41758729 .4453125 .42174784 .4501953 .42382813 .4560547 .42382813 .4622396 .42382813 .46728517 .42170207 .4711914 .41744996 .47509767 .413208 .47705079 .40602113 .47705079 .39588929V.32530213C.47705079 .31549583 .47509767 .30846659 .4711914 .30421449 .46728517 .29997254 .4622396 .29785157 .4560547 .29785157 .45052085 .29785157 .44588218 .2996572 .44213868 .30326844 .43839518 .30688987 .4361979 .31281028 .43554688 .32102967 .43359376 .34075419 .4235026 .35702516 .40527345 .36984254 .37858073 .3882548 .34326173 .39746095 .2993164 .39746095 .25341798 .39746095 .21777344 .3881836 .19238281 .3696289 .17317708 .3556315 .16357422 .3400065 .16357422 .3227539 .16357422 .30322267 .17496746 .28694663 .1977539 .27392579 .2133789 .2648112 .2430013 .2578125 .2866211 .2529297 .34358726 .24672444 .38313804 .23970032 .40527345 .2318573 .43684898 .22042339 .46036784 .20457459 .47583009 .18431092 .49129234 .16405742 .49902345 .14217122 .49902345 .118652347 .49902345 .08369955 .48225913 .052581788 .44873048 .025299073 .4152018-.0019836426 .3660482-.015625 .30126954-.015625 .23649089-.015625 .18343099 .00081380209 .14208985 .033691408 .14208985 .022460938 .1414388 .015192668 .14013672 .011886597 .13883464 .008590698 .13647461 .005783081 .13305664 .0034637452 .12963867 .0011545817 .1258138 0 .12158203 0 .115722659 0 .110839847 .0021209717 .106933597 .006362915 .103027347 .010615031 .10107422 .01763916 .10107422 .027435303V.112213138C.10107422 .12200928 .10294596 .12902832 .10668945 .13327027 .110432948 .13752239 .11539713 .13964844 .12158203 .13964844 .1274414 .13964844 .1324056 .13761394 .13647461 .13354492 .14054363 .1294759 .14257813 .12402344 .14257813 .1171875 .14257813 .10221354 .14632161 .08968099 .1538086 .079589847 .16520183 .063964847 .18334961 .05102539 .20825196 .040771486 .2331543 .030517579 .26367188 .025390625 .2998047 .025390625 .3531901 .025390625 .39290367 .035369874 .4189453 .05532837 .44498698 .075286868 .4580078 .09638977 .4580078 .118637088 .4580078 .14415996 .44482423 .16460674 .41845704 .17997742 .3917643 .19535828 .35294596 .20566304 .30200196 .21089173 .25105796 .21613057 .21451824 .2229716 .19238281 .2314148 .17024739 .23985799 .1529948 .2525228 .140625 .26940919 .1282552 .28630577 .12207031 .3044993 .12207031 .32398988 .12207031 .35906474 .13932292 .38691203 .17382813 .40753175 .20833333 .42816163 .24951172 .43847657 .29736329 .43847657 .3540039 .43847657 .4000651 .4248047 .43554688 .39746095Z"/>
<path id="font_4_6" d="M.30273438 .00016784668 .11230469 .3828125H.100097659C.09033203 .3828125 .083333339 .38476563 .07910156 .38867188 .07486979 .39257813 .072753909 .39746095 .072753909 .4033203 .072753909 .40745036 .07381185 .41118369 .075927738 .41452027 .07804362 .41786704 .08081055 .42025248 .084228519 .42167665 .087646488 .42311097 .092936199 .42382813 .100097659 .42382813H.21240235C.22216797 .42382813 .22916667 .42192079 .23339844 .41810609 .2376302 .41429139 .2397461 .4093628 .2397461 .4033203 .2397461 .39746095 .2376302 .39257813 .23339844 .38867188 .22916667 .38476563 .22216797 .3828125 .21240235 .3828125H.15722656L.32470704 .045791627 .4897461 .3828125H.4345703C.4248047 .3828125 .417806 .38476563 .41357423 .38867188 .40934245 .39257813 .40722657 .3976237 .40722657 .4038086 .40722657 .40952555 .40934245 .41429139 .41357423 .41810609 .417806 .42192079 .4248047 .42382813 .4345703 .42382813H.5463867C.55647787 .42382813 .56363937 .42192079 .5678711 .41810609 .57210287 .41429139 .57421877 .4093628 .57421877 .4033203 .57421877 .39908854 .5729167 .39518229 .5703125 .39160157 .5677083 .38802085 .5647786 .3856608 .56152346 .38452149 .55826827 .38338218 .5491536 .3828125 .5341797 .3828125L.27441407-.14746094H.3383789C.34814454-.14746094 .35514323-.14933269 .359375-.15307617 .36360679-.15681966 .36572267-.16178386 .36572267-.16796875 .36572267-.17382813 .36360679-.17871094 .359375-.18261719 .35514323-.18652344 .34814454-.18847656 .3383789-.18847656H.10205078C.092285159-.18847656 .08528646-.18660482 .08105469-.18286133 .076822917-.17911785 .07470703-.17415364 .07470703-.16796875 .07470703-.16178386 .076822917-.15681966 .08105469-.15307617 .08528646-.14933269 .092285159-.14746094 .10205078-.14746094H.23046875L.30273438 .00016784668Z"/>
<path id="font_4_3" d="M.4711914 .38275147V.396286C.4711914 .40627543 .47314454 .4133606 .47705079 .4175415 .48095704 .42173258 .48583985 .42382813 .49169923 .42382813 .49788413 .42382813 .5029297 .42171226 .50683596 .41748048 .5107422 .4132487 .5126953 .40608726 .5126953 .3959961V.30322267C.5123698 .2931315 .51033529 .28597007 .5065918 .28173829 .5028483 .2775065 .49788413 .27539063 .49169923 .27539063 .48616538 .27539063 .4815267 .27726747 .4777832 .28102113 .4740397 .28478495 .47184245 .29108177 .4711914 .2999115 .46923829 .32311503 .45402018 .34517417 .4255371 .36608888 .39705406 .38700358 .35872398 .39746095 .31054688 .39746095 .24967449 .39746095 .20345052 .3783671 .171875 .34017945 .14029949 .3019918 .12451172 .2582601 .12451172 .20898438 .12451172 .15578206 .14192708 .11188253 .17675781 .07728577 .21158855 .042689008 .2566732 .025390625 .31201173 .025390625 .34391276 .025390625 .37638346 .03131612 .40942384 .043167116 .4424642 .05502828 .47233073 .074132289 .49902345 .100479129 .5058594 .10706075 .51188156 .11035156 .51708987 .11035156 .5226237 .11035156 .5272624 .10846456 .53100588 .10469055 .5347493 .10091654 .5366211 .09624227 .5366211 .090667728 .5366211 .07655843 .5201823 .058680219 .4873047 .03703308 .43424479 .0019276937 .37516276-.015625 .3100586-.015625 .24397786-.015625 .18969727 .005472819 .1472168 .047668458 .10473633 .08987427 .083496097 .1434021 .083496097 .20825196 .083496097 .2744039 .10522461 .3293101 .14868164 .37297059 .19213867 .41664125 .24690755 .43847657 .31298829 .43847657 .3758138 .43847657 .4285482 .41990153 .4711914 .38275147Z"/>
<path id="font_4_2" d="M.41796876 0V.059570314C.35839845 .0094401049 .29475913-.015625 .22705078-.015625 .17789714-.015625 .13948567-.0031738282 .111816409 .021728516 .08414713 .04663086 .0703125 .07714844 .0703125 .11328125 .0703125 .1529948 .088541667 .18766277 .125 .21728516 .16145833 .24690755 .21468099 .26171876 .28466798 .26171876 .3035482 .26171876 .324056 .26049806 .3461914 .25805665 .3683268 .25561524 .3922526 .25179038 .41796876 .24658203V.31341554C.41796876 .33602906 .4075521 .35568748 .38671876 .37239076 .3658854 .38910423 .3346354 .39746095 .29296876 .39746095 .26106773 .39746095 .2163086 .38804627 .1586914 .36921693 .14827474 .36591087 .14160156 .3642578 .13867188 .3642578 .13346355 .3642578 .12898763 .36621095 .12524414 .3701172 .12150065 .37402345 .119628909 .37890626 .119628909 .38476563 .119628909 .39029948 .12125651 .394694 .12451172 .39794923 .12906902 .40283204 .14746094 .40950523 .1796875 .41796876 .23046875 .43164063 .26888023 .43847657 .29492188 .43847657 .3466797 .43847657 .38704429 .42566935 .41601563 .40005494 .44498698 .37444053 .45947267 .34547935 .45947267 .3131714V.041015626H.51416018C.5242513 .041015626 .5314128 .03914388 .53564456 .03540039 .5398763 .031656904 .5419922 .026692709 .5419922 .020507813 .5419922 .0146484379 .5398763 .009765625 .53564456 .005859375 .5314128 .001953125 .5242513 0 .51416018 0H.41796876M.41796876 .20458985C.39876304 .2101237 .37841798 .2141927 .3569336 .21679688 .33544923 .21940105 .31282554 .22070313 .2890625 .22070313 .22949219 .22070313 .1829427 .20784505 .14941406 .1821289 .12402344 .16292317 .111328128 .13997396 .111328128 .11328125 .111328128 .088541667 .12101237 .067708339 .14038086 .05078125 .15974935 .033854169 .18798828 .025390625 .22509766 .025390625 .26057945 .025390625 .29353843 .032470704 .3239746 .04663086 .3544108 .060791017 .3857422 .083333339 .41796876 .11425781V.20458985Z"/>
<path id="font_4_4" d="M.32080079 .61328127V.041015626H.4819336C.49202476 .041015626 .4991862 .03914388 .50341799 .03540039 .5076497 .031656904 .5097656 .026692709 .5097656 .020507813 .5097656 .0146484379 .5076497 .009765625 .50341799 .005859375 .4991862 .001953125 .49202476 0 .4819336 0H.118652347C.10888672 0 .10188802 .001953125 .09765625 .005859375 .09342448 .009765625 .091308597 .0146484379 .091308597 .020507813 .091308597 .026692709 .09342448 .031656904 .09765625 .03540039 .10188802 .03914388 .10888672 .041015626 .118652347 .041015626H.27978517V.5722656H.1616211C.15185547 .5722656 .14477539 .5741933 .14038086 .5780487 .13598633 .58191427 .13378906 .58690389 .13378906 .5930176 .13378906 .5988057 .13590496 .6036275 .14013672 .6074829 .14436849 .61134847 .15152996 .61328127 .1616211 .61328127H.32080079Z"/>
<path id="font_4_1" d="M0 0Z"/>
<path id="font_2_11" d="M.25048829 .71777346H.3486328L.19628906 0H.09814453L.25048829 .71777346Z"/>
<path id="font_2_32" d="M.12548828 .5234375H.23925781L.3203125 .33918763 .48095704 .5234375 .58740237 .5209961 .35742188 .26831056 .48486329 0H.3725586L.2841797 .19647217 .11669922 0H.0053710939L.24609375 .26831056 .12548828 .5234375Z"/>
<path id="font_2_4" d="M.2006836 .4951172 .21484375 .5625C.2796224 .5686849 .32609049 .5790202 .35424806 .59350588 .3824056 .6079915 .40852867 .6422526 .4326172 .69628909H.5019531L.3540039 0H.2602539L.36523438 .4951172H.2006836Z"/>
<path id="font_2_8" d="M.50634768 .2939453 .46484376 .61083987 .28173829 .2939453H.50634768M.43701173 .71777346H.546875L.65478518 0H.54833987L.5209961 .21484375H.23730469L.11425781 0H.0146484379L.43701173 .71777346Z"/>
<path id="font_2_23" d="M.17529297 .5234375H.26220704L.24658203 .44914247C.27294923 .47487895 .2957357 .49361167 .3149414 .5053406 .34814454 .5252177 .38313804 .53515627 .41992188 .53515627 .46158854 .53515627 .4930013 .52489218 .51416018 .504364 .5258789 .4926351 .53515627 .47536723 .5419922 .45256043 .5677083 .48058573 .5951335 .50135806 .6242676 .5148773 .6534017 .5283966 .68440756 .53515627 .71728518 .53515627 .78759768 .53515627 .8300781 .5097402 .84472659 .45890809 .85253909 .43154399 .8515625 .3947296 .8417969 .34846498L.7680664 0H.6767578L.75390627 .36367799C.7610677 .39853923 .7573242 .42248536 .7426758 .43551637 .72802737 .44855754 .7081706 .45507813 .68310549 .45507813 .6486003 .45507813 .6164551 .44350688 .5866699 .42036439 .55688479 .39723207 .5362956 .35861717 .52490237 .30451966L.46044923 0H.37109376L.44335938 .3416748C.45084635 .37719728 .45214845 .4031016 .44726563 .41938783 .4391276 .4438324 .41682945 .4560547 .3803711 .4560547 .34716798 .4560547 .31420899 .44318138 .28149415 .4174347 .2487793 .3916982 .22526042 .34509788 .2109375 .27763368L.15234375 0H.064453128L.17529297 .5234375Z"/>
<path id="font_2_21" d="M.21484375 .71777346H.2993164L.21044922 .3009796 .48339845 .5234375 .5957031 .5233002 .3540039 .32736207 .49609376 0H.38378907L.2763672 .26385499 .18847656 .19642639 .14697266 0H.0625L.21484375 .71777346Z"/>
</defs>
<g clip-path="url(#clip_0)">
<g clip-path="url(#clip_1)">
<path transform="matrix(1,0,0,-1,0,540)" d="M0 539.9999H719.9999V.00003079383H0Z" fill="#ffffff" fill-rule="evenodd"/>
<path transform="matrix(.00007874014,0,0,.00007874014,194.625,3.750122)" stroke-width="12700" stroke-linecap="butt" stroke-linejoin="round" fill="none" stroke="#000000" d="M.0739136 .2277833V573087.8"/>
<path transform="matrix(1,0,0,-1,0,540)" d="M197.625 495.1249 194.625 489.1249 191.625 495.1249Z" fill-rule="evenodd"/>
<path transform="matrix(.00007874014,0,0,.00007874014,195.125,51.37509)" stroke-width="12700" stroke-linecap="butt" stroke-linejoin="round" fill="none" stroke="#000000" d="M.07489017 .2083742H2374900"/>
<path transform="matrix(1,0,0,-1,0,540)" d="M378.125 491.6249 384.125 488.6249 378.125 485.6249Z" fill-rule="evenodd"/>
<path transform="matrix(-.00007874014,-0,0,.00007874014,384,51.87509)" stroke-width="12700" stroke-linecap="butt" stroke-linejoin="round" fill="none" stroke="#000000" d="M.1375733 .2093508 .9127199 508000.3"/>
<path transform="matrix(1,0,0,-1,0,540)" d="M380.9999 452.1249 383.9999 446.1249 386.9999 452.1249Z" fill-rule="evenodd"/>
<path transform="matrix(-.00007874014,-0,0,-.00007874014,380.125,91.87509)" stroke-width="12700" stroke-linecap="butt" stroke-linejoin="round" fill="none" stroke="#000000" d="M.1451417-.2874758 2327613 383223.3"/>
<path transform="matrix(1,0,0,-1,0,540)" d="M200.3079 474.69 194.875 478.6249 201.2827 480.6103Z" fill-rule="evenodd"/>
<path transform="matrix(.00007874014,0,0,.00007874014,194.75,62.00009)" stroke-width="12700" stroke-linecap="butt" stroke-linejoin="round" fill="none" stroke="#000000" d="M-.06341556 .3415529 3082.888 850900.5"/>
<path transform="matrix(1,0,0,-1,0,540)" d="M197.9782 415.0108 195 408.9999 191.9783 414.989Z" fill-rule="evenodd"/>
<use data-text="(" xlink:href="#font_2_2" transform="matrix(16,0,0,-16,222.2493,22.499817)"/>
<use data-text="2" xlink:href="#font_2_5" transform="matrix(16,0,0,-16,227.5773,22.499817)"/>
<use data-text=")" xlink:href="#font_2_3" transform="matrix(16,0,0,-16,236.4765,22.499817)"/>
<use data-text=" " xlink:href="#font_2_1" transform="matrix(16,0,0,-16,241.8045,22.499817)"/>
<use data-text="C" xlink:href="#font_2_9" transform="matrix(16,0,0,-16,246.2493,22.499817)"/>
<use data-text="o" xlink:href="#font_2_25" transform="matrix(16,0,0,-16,257.8045,22.499817)"/>
<use data-text="n" xlink:href="#font_2_24" transform="matrix(16,0,0,-16,266.7037,22.499817)"/>
<use data-text="t" xlink:href="#font_2_29" transform="matrix(16,0,0,-16,275.6029,22.499817)"/>
<use data-text="r" xlink:href="#font_2_27" transform="matrix(16,0,0,-16,280.0477,22.499817)"/>
<use data-text="o" xlink:href="#font_2_25" transform="matrix(16,0,0,-16,285.3757,22.499817)"/>
<use data-text="l" xlink:href="#font_2_22" transform="matrix(16,0,0,-16,294.2749,22.499817)"/>
<use data-text=" " xlink:href="#font_2_1" transform="matrix(16,0,0,-16,297.8301,22.499817)"/>
<use data-text="p" xlink:href="#font_2_26" transform="matrix(16,0,0,-16,302.2749,22.499817)"/>
<use data-text="a" xlink:href="#font_2_13" transform="matrix(16,0,0,-16,311.1741,22.499817)"/>
<use data-text="s" xlink:href="#font_2_28" transform="matrix(16,0,0,-16,320.0733,22.499817)"/>
<use data-text="s" xlink:href="#font_2_28" transform="matrix(16,0,0,-16,328.0733,22.499817)"/>
<use data-text="e" xlink:href="#font_2_16" transform="matrix(16,0,0,-16,336.0733,22.499817)"/>
<use data-text="s" xlink:href="#font_2_28" transform="matrix(16,0,0,-16,344.9725,22.499817)"/>
<use data-text="&#xfffd;" xlink:href="#font_3_1" transform="matrix(16,0,0,-16,352.9725,22.499817)"/>
<use data-text="t" xlink:href="#font_2_29" transform="matrix(16,0,0,-16,252.2493,41.499818)"/>
<use data-text="o" xlink:href="#font_2_25" transform="matrix(16,0,0,-16,256.6941,41.499818)"/>
<use data-text=" " xlink:href="#font_2_1" transform="matrix(16,0,0,-16,265.5933,41.499818)"/>
<use data-text="h" xlink:href="#font_2_19" transform="matrix(16,0,0,-16,270.0381,41.499818)"/>
<use data-text="a" xlink:href="#font_2_13" transform="matrix(16,0,0,-16,278.93733,41.499818)"/>
<use data-text="n" xlink:href="#font_2_24" transform="matrix(16,0,0,-16,287.8365,41.499818)"/>
<use data-text="d" xlink:href="#font_2_15" transform="matrix(16,0,0,-16,296.73573,41.499818)"/>
<use data-text="l" xlink:href="#font_2_22" transform="matrix(16,0,0,-16,305.6349,41.499818)"/>
<use data-text="e" xlink:href="#font_2_16" transform="matrix(16,0,0,-16,309.1901,41.499818)"/>
<use data-text="r" xlink:href="#font_2_27" transform="matrix(16,0,0,-16,318.0893,41.499818)"/>
<use data-text="&#xfffd;" xlink:href="#font_3_1" transform="matrix(16,0,0,-16,323.4173,41.499818)"/>
<use data-text="(" xlink:href="#font_2_2" transform="matrix(16,0,0,-16,418.26103,66.499698)"/>
<use data-text="3" xlink:href="#font_2_6" transform="matrix(16,0,0,-16,423.58903,66.499698)"/>
<use data-text=")" xlink:href="#font_2_3" transform="matrix(16,0,0,-16,432.48823,66.499698)"/>
<use data-text=" " xlink:href="#font_2_1" transform="matrix(16,0,0,-16,437.81623,66.499698)"/>
<use data-text="T" xlink:href="#font_2_12" transform="matrix(16,0,0,-16,441.98103,66.499698)"/>
<use data-text="r" xlink:href="#font_2_27" transform="matrix(16,0,0,-16,451.1682,66.499698)"/>
<use data-text="a" xlink:href="#font_2_13" transform="matrix(16,0,0,-16,456.49623,66.499698)"/>
<use data-text="p" xlink:href="#font_2_26" transform="matrix(16,0,0,-16,465.39543,66.499698)"/>
<use data-text=" " xlink:href="#font_2_1" transform="matrix(16,0,0,-16,474.29463,66.499698)"/>
<use data-text="h" xlink:href="#font_2_19" transform="matrix(16,0,0,-16,404.02665,85.499698)"/>
<use data-text="a" xlink:href="#font_2_13" transform="matrix(16,0,0,-16,412.92585,85.499698)"/>
<use data-text="n" xlink:href="#font_2_24" transform="matrix(16,0,0,-16,421.82505,85.499698)"/>
<use data-text="d" xlink:href="#font_2_15" transform="matrix(16,0,0,-16,430.72425,85.499698)"/>
<use data-text="l" xlink:href="#font_2_22" transform="matrix(16,0,0,-16,439.62345,85.499698)"/>
<use data-text="e" xlink:href="#font_2_16" transform="matrix(16,0,0,-16,443.17866,85.499698)"/>
<use data-text="r" xlink:href="#font_2_27" transform="matrix(16,0,0,-16,452.07786,85.499698)"/>
<use data-text=" " xlink:href="#font_2_1" transform="matrix(16,0,0,-16,457.40586,85.499698)"/>
<use data-text="r" xlink:href="#font_2_27" transform="matrix(16,0,0,-16,461.85066,85.499698)"/>
<use data-text="u" xlink:href="#font_2_30" transform="matrix(16,0,0,-16,467.17866,85.499698)"/>
<use data-text="n" xlink:href="#font_2_24" transform="matrix(16,0,0,-16,476.07786,85.499698)"/>
<use data-text="s" xlink:href="#font_2_28" transform="matrix(16,0,0,-16,484.97706,85.499698)"/>
<use data-text="&#xfffd;" xlink:href="#font_3_1" transform="matrix(16,0,0,-16,488.53227,85.499698)"/>
<use data-text="(" xlink:href="#font_2_2" transform="matrix(16,0,0,-16,222.6243,102.999698)"/>
<use data-text="4" xlink:href="#font_2_7" transform="matrix(16,0,0,-16,227.9523,102.999698)"/>
<use data-text=")" xlink:href="#font_2_3" transform="matrix(16,0,0,-16,236.8515,102.999698)"/>
<use data-text=" " xlink:href="#font_2_1" transform="matrix(16,0,0,-16,242.1795,102.999698)"/>
<use data-text="H" xlink:href="#font_2_10" transform="matrix(16,0,0,-16,246.6243,102.999698)"/>
<use data-text="a" xlink:href="#font_2_13" transform="matrix(16,0,0,-16,258.1795,102.999698)"/>
<use data-text="n" xlink:href="#font_2_24" transform="matrix(16,0,0,-16,267.0787,102.999698)"/>
<use data-text="d" xlink:href="#font_2_15" transform="matrix(16,0,0,-16,275.9779,102.999698)"/>
<use data-text="l" xlink:href="#font_2_22" transform="matrix(16,0,0,-16,284.8771,102.999698)"/>
<use data-text="e" xlink:href="#font_2_16" transform="matrix(16,0,0,-16,288.4323,102.999698)"/>
<use data-text="r" xlink:href="#font_2_27" transform="matrix(16,0,0,-16,297.33149,102.999698)"/>
<use data-text=" " xlink:href="#font_2_1" transform="matrix(16,0,0,-16,302.6595,102.999698)"/>
<use data-text="r" xlink:href="#font_2_27" transform="matrix(16,0,0,-16,307.1043,102.999698)"/>
<use data-text="e" xlink:href="#font_2_16" transform="matrix(16,0,0,-16,312.4323,102.999698)"/>
<use data-text="t" xlink:href="#font_2_29" transform="matrix(16,0,0,-16,321.3315,102.999698)"/>
<use data-text="u" xlink:href="#font_2_30" transform="matrix(16,0,0,-16,325.7763,102.999698)"/>
<use data-text="r" xlink:href="#font_2_27" transform="matrix(16,0,0,-16,334.6755,102.999698)"/>
<use data-text="n" xlink:href="#font_2_24" transform="matrix(16,0,0,-16,340.0035,102.999698)"/>
<use data-text="s" xlink:href="#font_2_28" transform="matrix(16,0,0,-16,348.9027,102.999698)"/>
<use data-text="&#xfffd;" xlink:href="#font_3_1" transform="matrix(16,0,0,-16,356.9027,102.999698)"/>
<use data-text="t" xlink:href="#font_2_29" transform="matrix(16,0,0,-16,243.6243,121.999698)"/>
<use data-text="o" xlink:href="#font_2_25" transform="matrix(16,0,0,-16,248.06909,121.999698)"/>
<use data-text=" " xlink:href="#font_2_1" transform="matrix(16,0,0,-16,256.9683,121.999698)"/>
<use data-text="i" xlink:href="#font_2_20" transform="matrix(16,0,0,-16,261.4131,121.999698)"/>
<use data-text="n" xlink:href="#font_2_24" transform="matrix(16,0,0,-16,264.9683,121.999698)"/>
<use data-text="s" xlink:href="#font_2_28" transform="matrix(16,0,0,-16,273.8675,121.999698)"/>
<use data-text="t" xlink:href="#font_2_29" transform="matrix(16,0,0,-16,281.8675,121.999698)"/>
<use data-text="r" xlink:href="#font_2_27" transform="matrix(16,0,0,-16,286.31233,121.999698)"/>
<use data-text="u" xlink:href="#font_2_30" transform="matrix(16,0,0,-16,291.6403,121.999698)"/>
<use data-text="c" xlink:href="#font_2_14" transform="matrix(16,0,0,-16,300.5395,121.999698)"/>
<use data-text="t" xlink:href="#font_2_29" transform="matrix(16,0,0,-16,308.5395,121.999698)"/>
<use data-text="i" xlink:href="#font_2_20" transform="matrix(16,0,0,-16,312.9843,121.999698)"/>
<use data-text="o" xlink:href="#font_2_25" transform="matrix(16,0,0,-16,316.5395,121.999698)"/>
<use data-text="n" xlink:href="#font_2_24" transform="matrix(16,0,0,-16,325.43873,121.999698)"/>
<use data-text="&#xfffd;" xlink:href="#font_3_1" transform="matrix(16,0,0,-16,334.3379,121.999698)"/>
<use data-text="f" xlink:href="#font_2_17" transform="matrix(16,0,0,-16,218.6243,140.9997)"/>
<use data-text="o" xlink:href="#font_2_25" transform="matrix(16,0,0,-16,223.06909,140.9997)"/>
<use data-text="l" xlink:href="#font_2_22" transform="matrix(16,0,0,-16,231.96829,140.9997)"/>
<use data-text="l" xlink:href="#font_2_22" transform="matrix(16,0,0,-16,235.5235,140.9997)"/>
<use data-text="o" xlink:href="#font_2_25" transform="matrix(16,0,0,-16,239.0787,140.9997)"/>
<use data-text="w" xlink:href="#font_2_31" transform="matrix(16,0,0,-16,247.9779,140.9997)"/>
<use data-text="i" xlink:href="#font_2_20" transform="matrix(16,0,0,-16,259.5331,140.9997)"/>
<use data-text="n" xlink:href="#font_2_24" transform="matrix(16,0,0,-16,263.08833,140.9997)"/>
<use data-text="g" xlink:href="#font_2_18" transform="matrix(16,0,0,-16,271.98753,140.9997)"/>
<use data-text=" " xlink:href="#font_2_1" transform="matrix(16,0,0,-16,280.88673,140.9997)"/>
<use data-text="t" xlink:href="#font_2_29" transform="matrix(16,0,0,-16,285.3315,140.9997)"/>
<use data-text="h" xlink:href="#font_2_19" transform="matrix(16,0,0,-16,289.7763,140.9997)"/>
<use data-text="e" xlink:href="#font_2_16" transform="matrix(16,0,0,-16,298.6755,140.9997)"/>
<use data-text=" " xlink:href="#font_2_1" transform="matrix(16,0,0,-16,307.5747,140.9997)"/>
<use data-text="s" xlink:href="#font_2_28" transform="matrix(16,0,0,-16,312.01954,140.9997)"/>
<use data-text="y" xlink:href="#font_2_33" transform="matrix(16,0,0,-16,320.01954,140.9997)"/>
<use data-text="s" xlink:href="#font_2_28" transform="matrix(16,0,0,-16,328.01954,140.9997)"/>
<use data-text="c" xlink:href="#font_2_14" transform="matrix(16,0,0,-16,336.01954,140.9997)"/>
<use data-text="a" xlink:href="#font_2_13" transform="matrix(16,0,0,-16,344.01954,140.9997)"/>
<use data-text="l" xlink:href="#font_2_22" transform="matrix(16,0,0,-16,352.9187,140.9997)"/>
<use data-text="l" xlink:href="#font_2_22" transform="matrix(16,0,0,-16,356.47395,140.9997)"/>
<use data-text="&#xfffd;" xlink:href="#font_3_1" transform="matrix(16,0,0,-16,360.0291,140.9997)"/>
<use data-text="s" xlink:href="#font_4_5" transform="matrix(16,0,0,-16,118.2,49.975099)"/>
<use data-text="y" xlink:href="#font_4_6" transform="matrix(16,0,0,-16,127.8016,49.975099)"/>
<use data-text="s" xlink:href="#font_4_5" transform="matrix(16,0,0,-16,137.4032,49.975099)"/>
<use data-text="c" xlink:href="#font_4_3" transform="matrix(16,0,0,-16,147.00479,49.975099)"/>
<use data-text="a" xlink:href="#font_4_2" transform="matrix(16,0,0,-16,156.6064,49.975099)"/>
<use data-text="l" xlink:href="#font_4_4" transform="matrix(16,0,0,-16,166.20801,49.975099)"/>
<use data-text="l" xlink:href="#font_4_4" transform="matrix(16,0,0,-16,175.8096,49.975099)"/>
<use data-text=" " xlink:href="#font_4_1" transform="matrix(16,0,0,-16,185.4112,49.975099)"/>
<use data-text="I" xlink:href="#font_2_11" transform="matrix(16,0,0,-16,162.2,64.2251)"/>
<use data-text="n" xlink:href="#font_2_24" transform="matrix(10.66666,0,0,-10.66666,166.64531,68.2251)"/>
<use data-text="e" xlink:href="#font_2_16" transform="matrix(10.66666,0,0,-10.66666,172.57811,68.2251)"/>
<use data-text="x" xlink:href="#font_2_32" transform="matrix(10.66666,0,0,-10.66666,178.5109,68.2251)"/>
<use data-text="t" xlink:href="#font_2_29" transform="matrix(10.66666,0,0,-10.66666,183.84424,68.2251)"/>
<use data-text="&#xfffd;" xlink:href="#font_3_1" transform="matrix(16,0,0,-16,186.80673,64.2251)"/>
<use data-text="(" xlink:href="#font_2_2" transform="matrix(16,0,0,-16,4.32496,34.700075)"/>
<use data-text="1" xlink:href="#font_2_4" transform="matrix(16,0,0,-16,9.65296,34.700075)"/>
<use data-text=")" xlink:href="#font_2_3" transform="matrix(16,0,0,-16,18.55216,34.700075)"/>
<use data-text=" " xlink:href="#font_2_1" transform="matrix(16,0,0,-16,23.880162,34.700075)"/>
<use data-text="A" xlink:href="#font_2_8" transform="matrix(16,0,0,-16,27.44976,34.700075)"/>
<use data-text="p" xlink:href="#font_2_26" transform="matrix(16,0,0,-16,38.121759,34.700075)"/>
<use data-text="p" xlink:href="#font_2_26" transform="matrix(16,0,0,-16,47.020959,34.700075)"/>
<use data-text="l" xlink:href="#font_2_22" transform="matrix(16,0,0,-16,55.92016,34.700075)"/>
<use data-text="i" xlink:href="#font_2_20" transform="matrix(16,0,0,-16,59.47536,34.700075)"/>
<use data-text="c" xlink:href="#font_2_14" transform="matrix(16,0,0,-16,63.030565,34.700075)"/>
<use data-text="a" xlink:href="#font_2_13" transform="matrix(16,0,0,-16,71.03056,34.700075)"/>
<use data-text="t" xlink:href="#font_2_29" transform="matrix(16,0,0,-16,79.92976,34.700075)"/>
<use data-text="i" xlink:href="#font_2_20" transform="matrix(16,0,0,-16,84.374568,34.700075)"/>
<use data-text="o" xlink:href="#font_2_25" transform="matrix(16,0,0,-16,87.92976,34.700075)"/>
<use data-text="n" xlink:href="#font_2_24" transform="matrix(16,0,0,-16,96.828968,34.700075)"/>
<use data-text="&#xfffd;" xlink:href="#font_3_1" transform="matrix(16,0,0,-16,105.728168,34.700075)"/>
<use data-text="m" xlink:href="#font_2_23" transform="matrix(16,0,0,-16,24.32496,53.700014)"/>
<use data-text="a" xlink:href="#font_2_13" transform="matrix(16,0,0,-16,37.65296,53.700014)"/>
<use data-text="k" xlink:href="#font_2_21" transform="matrix(16,0,0,-16,46.552164,53.700014)"/>
<use data-text="e" xlink:href="#font_2_16" transform="matrix(16,0,0,-16,54.552164,53.700014)"/>
<use data-text="s" xlink:href="#font_2_28" transform="matrix(16,0,0,-16,63.451364,53.700014)"/>
<use data-text=" " xlink:href="#font_2_1" transform="matrix(16,0,0,-16,71.45136,53.700014)"/>
<use data-text="a" xlink:href="#font_2_13" transform="matrix(16,0,0,-16,75.896167,53.700014)"/>
<use data-text=" " xlink:href="#font_2_1" transform="matrix(16,0,0,-16,84.795368,53.700014)"/>
<use data-text="&#xfffd;" xlink:href="#font_3_1" transform="matrix(16,0,0,-16,89.240169,53.700014)"/>
<use data-text="s" xlink:href="#font_2_28" transform="matrix(16,0,0,-16,15.32496,72.70001)"/>
<use data-text="y" xlink:href="#font_2_33" transform="matrix(16,0,0,-16,23.324959,72.70001)"/>
<use data-text="s" xlink:href="#font_2_28" transform="matrix(16,0,0,-16,31.324959,72.70001)"/>
<use data-text="t" xlink:href="#font_2_29" transform="matrix(16,0,0,-16,39.32496,72.70001)"/>
<use data-text="e" xlink:href="#font_2_16" transform="matrix(16,0,0,-16,43.76976,72.70001)"/>
<use data-text="m" xlink:href="#font_2_23" transform="matrix(16,0,0,-16,52.66896,72.70001)"/>
<use data-text=" " xlink:href="#font_2_1" transform="matrix(16,0,0,-16,65.99696,72.70001)"/>
<use data-text="c" xlink:href="#font_2_14" transform="matrix(16,0,0,-16,70.441768,72.70001)"/>
<use data-text="a" xlink:href="#font_2_13" transform="matrix(16,0,0,-16,78.441768,72.70001)"/>
<use data-text="l" xlink:href="#font_2_22" transform="matrix(16,0,0,-16,87.340969,72.70001)"/>
<use data-text="l" xlink:href="#font_2_22" transform="matrix(16,0,0,-16,90.896167,72.70001)"/>
<use data-text="&#xfffd;" xlink:href="#font_3_1" transform="matrix(16,0,0,-16,94.45136,72.70001)"/>
</g>
</g>
</svg>
