<svg xmlns="http://www.w3.org/2000/svg" xmlns:xlink="http://www.w3.org/1999/xlink" version="1.1" width="720pt" height="540pt" viewBox="0 0 720 540">
<defs>
<clipPath id="clip_0">
<path transform="matrix(1,0,0,-1,0,540)" d="M0 .00002324581H719.9999V540H0Z"/>
</clipPath>
<path id="font_1_30" d="M.28857423 .35839845C.28857423 .32714845 .2784017 .30126954 .25805665 .28076173 .2377116 .2602539 .21191406 .25 .18066406 .25 .14941406 .25 .12361654 .2602539 .103271488 .28076173 .08292643 .30126954 .072753909 .32714845 .072753909 .35839845 .072753909 .38964845 .08292643 .4153646 .103271488 .43554688 .12361654 .45572917 .14941406 .4658203 .18066406 .4658203 .21191406 .4658203 .2377116 .45572917 .25805665 .43554688 .2784017 .4153646 .28857423 .38964845 .28857423 .35839845Z"/>
<path id="font_2_2" d="M0 0Z"/>
<path id="font_2_1" d="M0 0Z"/>
<path id="font_3_3" d="M.43359376 .4140625C.47460938 .4140625 .5076497 .4197693 .53271487 .43118287 .5724284 .4491272 .59716799 .48142497 .6069336 .5280762 .6170247 .57506307 .6048177 .6067098 .5703125 .62301638 .55045577 .6321513 .51936849 .63671877 .47705079 .63671877H.30371095L.25683595 .4140625H.43359376M.3959961 .083984378C.4555664 .083984378 .5016276 .101135257 .5341797 .13543701 .5546875 .15712483 .5683594 .18333943 .5751953 .21408081 .586263 .26586915 .5704753 .30114747 .52783206 .31991578 .5053711 .3299459 .47379557 .33496095 .43310548 .33496095H.24023438L.18652344 .083984378H.3959961M.22607422 .71777346H.5341797C.61816409 .71777346 .67252609 .6926575 .6972656 .64242556 .71191409 .6127421 .71500656 .5784963 .70654299 .5396881 .69710287 .49434916 .6764323 .45716349 .64453127 .4281311 .6279297 .41280113 .60579428 .3987783 .578125 .38606263 .6116536 .3720754 .6357422 .35629273 .6503906 .3387146 .67610678 .30748496 .68310549 .26437379 .6713867 .2093811 .6616211 .16317749 .6381836 .12136841 .6010742 .08395386 .5460612 .02798462 .47135417 0 .37695313 0H.07373047L.22607422 .71777346Z"/>
<path id="font_1_31" d="M-.0024414063 .31347657H.5576172V.24121094H-.0024414063V.31347657Z"/>
<path id="font_1_4" d="M.095703128 .4951172V.5625C.15917969 .5686849 .20345052 .5790202 .22851563 .59350588 .25358073 .6079915 .2722982 .6422526 .28466798 .69628909H.3540039V0H.2602539V.4951172H.095703128Z"/>
<path id="font_1_3" d="M.2705078 .7001953C.3610026 .7001953 .42643229 .66289779 .46679688 .5883026 .49804688 .5306447 .5136719 .45165 .5136719 .35131837 .5136719 .25620524 .49951173 .17754109 .4711914 .11532593 .43017579 .026072184 .3631185-.018554688 .27001954-.018554688 .18603516-.018554688 .123535159 .017929078 .08251953 .09089661 .048339845 .15180969 .03125 .23357137 .03125 .33618165 .03125 .41565959 .041503908 .48390199 .06201172 .5409088 .10042318 .6470998 .16992188 .7001953 .2705078 .7001953M.26953126 .061523439C.31510417 .061523439 .35139976 .08168539 .37841798 .12200928 .4054362 .16234334 .4189453 .23747762 .4189453 .3474121 .4189453 .42676798 .4091797 .49205528 .38964845 .5432739 .3701172 .59450277 .332194 .6201172 .2758789 .6201172 .2241211 .6201172 .1862793 .59580489 .16235352 .5471802 .13842774 .4985555 .12646485 .42692057 .12646485 .3322754 .12646485 .26105754 .13411458 .20381673 .14941406 .16055298 .17285156 .09453329 .21289063 .061523439 .26953126 .061523439Z"/>
<path id="font_1_10" d="M.1328125 .71777346 .3388672 .10652161 .54248049 .71777346H.6513672L.38964845 0H.2866211L.025390625 .71777346H.1328125Z"/>
<path id="font_1_11" d="M.13183594 .1394043C.13183594 .114095058 .14111328 .09413656 .15966797 .07952881 .17822266 .06492106 .20019531 .057617189 .22558594 .057617189 .2565104 .057617189 .28645835 .06471761 .3154297 .07891846 .3642578 .10247803 .38867188 .14127605 .38867188 .1953125V.26611329C.3779297 .25886027 .36409507 .2528127 .34716798 .24797058 .33024089 .24313863 .3136393 .23983257 .29736329 .23805237L.24414063 .23184204C.21223958 .22799683 .1883138 .22153218 .17236328 .21244812 .14534505 .19718933 .13183594 .17284139 .13183594 .1394043M.34472657 .31689454C.36490885 .3194987 .37841798 .32796226 .3852539 .34228517 .38916017 .35012818 .39111329 .36140443 .39111329 .3761139 .39111329 .40618388 .38045249 .42799888 .35913087 .44155885 .33780924 .455129 .30729167 .46191407 .26757813 .46191407 .22167969 .46191407 .18912761 .44948326 .16992188 .42462159 .15917969 .4108785 .15218099 .39043174 .14892578 .36328126H.06689453C.06852213 .42791749 .08943685 .47288514 .12963867 .4981842 .1698405 .5234833 .21647136 .5361328 .26953126 .5361328 .3310547 .5361328 .38102214 .52441409 .4194336 .50097659 .45751954 .47753907 .4765625 .4410502 .4765625 .39151V.08985901C.4765625 .08073425 .47843424 .073404949 .48217774 .067871097 .48592124 .06233724 .4938151 .059570314 .5058594 .059570314 .5097656 .059570314 .51416018 .059814454 .51904299 .060302736 .5239258 .060791017 .5291341 .061523439 .53466799 .0625V-.0028076173C.5209961-.00676473 .5105794-.009236653 .50341799-.010223389 .4962565-.011220296 .48649089-.01171875 .4741211-.01171875 .44384767-.01171875 .421875-.0009104411 .40820313 .020706177 .40104167 .032170614 .3959961 .048380536 .3930664 .06933594 .37516276 .045633954 .34944663 .025060019 .31591798 .0076141359 .2823893-.009831746 .2454427-.018554688 .20507813-.018554688 .15657552-.018554688 .11694336-.0037790936 .08618164 .025772095 .055419923 .055323285 .040039064 .092300418 .040039064 .13670349 .040039064 .18535869 .05517578 .22307332 .08544922 .24984741 .115722659 .2766215 .1554362 .29311119 .20458985 .2993164L.34472657 .31689454M.27197267 .5361328V.5361328Z"/>
<path id="font_1_20" d="M.06689453 .71777346H.15478516V0H.06689453V.71777346Z"/>
<path id="font_1_18" d="M.064453128 .5205078H.1538086V0H.064453128V.5205078M.064453128 .71777346H.1538086V.61816409H.064453128V.71777346Z"/>
<path id="font_1_14" d="M.12011719 .2553711C.12011719 .19923909 .1319987 .15224712 .15576172 .11439514 .17952474 .076543178 .21761067 .057617189 .27001954 .057617189 .31070964 .057617189 .3441569 .075154628 .37036134 .11022949 .39656578 .14531453 .40966798 .19565328 .40966798 .26124574 .40966798 .32748924 .39615885 .37651573 .36914063 .4083252 .3421224 .44014488 .3087565 .4560547 .26904298 .4560547 .22477214 .4560547 .18888347 .4390869 .16137696 .40515138 .13387044 .37121583 .12011719 .32128907 .12011719 .2553711M.2524414 .53222659C.29248048 .53222659 .32600913 .52381899 .35302735 .5070038 .36865235 .4972992 .38639323 .48031617 .40625 .4560547V.71875H.49072267V0H.4116211V.07229614C.39111329 .04023234 .36686198 .017074585 .3388672 .002822876 .3108724-.011428833 .2788086-.018554688 .24267578-.018554688 .18440755-.018554688 .13395183 .0059407555 .091308597 .05493164 .048665365 .10392252 .02734375 .16910808 .02734375 .25048829 .02734375 .32666017 .04679362 .39265953 .08569336 .44848634 .1245931 .5043132 .18017578 .53222659 .2524414 .53222659Z"/>
<path id="font_1_9" d="M.59814456 .71777346V.63183596H.3564453V0H.2578125V.63183596H.016113282V.71777346H.59814456Z"/>
<path id="font_1_16" d="M.24902344 .53222659C.29003907 .53222659 .32584635 .5220744 .3564453 .50177 .37304688 .49030558 .38997398 .4736023 .40722657 .45166017V.5185547H.48828126V.04234314C.48828126-.024154664 .47851563-.07663473 .45898438-.115097049 .42252604-.18615215 .35367839-.22167969 .2524414-.22167969 .1961263-.22167969 .14876302-.20906575 .11035156-.18383789 .0719401-.15861003 .05045573-.119140628 .045898439-.06542969H.1352539C.13948567-.08873495 .14794922-.10669454 .16064453-.11930847 .1805013-.13872783 .2117513-.1484375 .25439454-.1484375 .32177735-.1484375 .3658854-.12467448 .38671876-.07714844 .39908854-.04916382 .40478517 .0007985433 .4038086 .07273865 .38623048 .04588318 .36507163 .025904337 .34033204 .012802124 .31559245-.000289917 .2828776-.0068359377 .2421875-.0068359377 .18554688-.0068359377 .13598633 .013280232 .09350586 .053512575 .05102539 .09375509 .029785157 .16030376 .029785157 .25315858 .029785157 .34080506 .051188154 .40922547 .09399414 .4584198 .13680013 .5076243 .18847656 .53222659 .24902344 .53222659M.40722657 .26342774C.40722657 .328125 .39388023 .37607829 .3671875 .4072876 .34049479 .43849693 .30647788 .45410157 .26513673 .45410157 .20328777 .45410157 .16097005 .4251658 .1381836 .3672943 .12613933 .33641053 .12011719 .29593406 .12011719 .24586487 .12011719 .1870168 .13208008 .14223226 .15600586 .11151123 .17993164 .0807902 .21207683 .06542969 .2524414 .06542969 .31559245 .06542969 .36002604 .09387716 .3857422 .1507721 .4000651 .18295796 .40722657 .22050984 .40722657 .26342774M.25927735 .5361328V.5361328Z"/>
<path id="font_1_8" d="M.13964844 .23144531C.14192708 .19064331 .15152996 .1575063 .16845703 .1320343 .2006836 .084376018 .25748698 .060546876 .3388672 .060546876 .37532554 .060546876 .40852867 .06575521 .43847657 .076171878 .49641929 .096354167 .5253906 .13248189 .5253906 .18455506 .5253906 .22361756 .5131836 .25144959 .48876954 .26805116 .46402995 .2843882 .42529298 .29859925 .3725586 .3106842L.27539063 .3327484C.21191406 .3471222 .16699219 .36294047 .140625 .38020326 .095052089 .41016136 .072265628 .4549408 .072265628 .5145416 .072265628 .57902529 .094563808 .6319478 .13916016 .6733093 .18375652 .71467086 .24690755 .73535159 .32861329 .73535159 .4038086 .73535159 .46769206 .7172038 .5202637 .6809082 .57283529 .6446126 .5991211 .58658859 .5991211 .50683596H.5078125C.5029297 .5452474 .49251304 .57470706 .4765625 .59521487 .4469401 .6326497 .39664714 .6513672 .3256836 .6513672 .26839195 .6513672 .22721355 .63931277 .20214844 .61520388 .17708333 .591095 .16455078 .56307479 .16455078 .5311432 .16455078 .49595643 .17919922 .47021995 .2084961 .45393373 .22770183 .44350688 .27115885 .43047587 .3388672 .4148407L.43945313 .39187623C.48795573 .38079835 .5253906 .36565147 .5517578 .34643556 .59733077 .31288658 .6201172 .26419068 .6201172 .2003479 .6201172 .12085978 .59122726 .06401571 .53344729 .029815674 .47566734-.004384359 .40852867-.021484375 .33203126-.021484375 .24283855-.021484375 .17301433 .0013478597 .122558597 .04701233 .07210287 .0923411 .04736328 .15381877 .048339845 .23144531H.13964844M.3359375 .7373047V.7373047Z"/>
<path id="font_1_15" d="M.28222657 .53515627C.31933595 .53515627 .355306 .52644857 .39013673 .5090332 .42496745 .49161784 .4514974 .4690806 .46972657 .4414215 .4873047 .41505433 .49902345 .3842977 .5048828 .3491516 .5100911 .32506309 .5126953 .28647868 .5126953 .23339844H.12939453C.13102214 .18033855 .14355469 .13777669 .16699219 .10571289 .19042969 .073649089 .22672527 .057617189 .2758789 .057617189 .32177735 .057617189 .35839845 .07261658 .3857422 .10261536 .4013672 .12003072 .4124349 .14018758 .4189453 .16308594H.5053711C.50309249 .14398194 .49552409 .122690837 .48266603 .09921265 .46980796 .07574463 .45540367 .05656433 .43945313 .041671754 .4127604 .01576233 .37972007-.0017242432 .34033204-.010787964 .3191732-.01596578 .2952474-.018554688 .2685547-.018554688 .20345052-.018554688 .14827474 .0051472985 .103027347 .05255127 .05777995 .09995524 .03515625 .16634114 .03515625 .25170899 .03515625 .33576457 .057942708 .40401713 .103515628 .45646668 .14908855 .5089264 .20865886 .53515627 .28222657 .53515627M.42236329 .30371095C.41878257 .34191896 .41048179 .37245179 .39746095 .39530946 .3733724 .4377594 .33317057 .45898438 .27685548 .45898438 .23649089 .45898438 .20263672 .44437156 .17529297 .41514588 .14794922 .3859202 .13346355 .34877525 .13183594 .30371095H.42236329M.27392579 .5361328V.5361328Z"/>
<path id="font_1_26" d="M.08203125 .66796877H.17089844V.5234375H.25439454V.4501953H.17089844V.110183719C.17089844 .09202576 .17708333 .07986959 .18945313 .07371521 .19628906 .07014465 .2076823 .068359378 .22363281 .068359378 .22786458 .068359378 .23242188 .06846619 .23730469 .06867981 .2421875 .0689036 .24788411 .06944784 .25439454 .0703125V0C.24430339-.0031026204 .23380535-.005340576 .22290039-.006713867 .21199544-.008097331 .20019531-.0087890629 .1875-.0087890629 .14648438-.0087890629 .118652347 .0016988119 .104003909 .02267456 .08935547 .04365031 .08203125 .070882167 .08203125 .10437012V.4501953H.011230469V.5234375H.08203125V.66796877Z"/>
<path id="font_1_1" d="M0 0Z"/>
<path id="font_1_6" d="M.110839847 .51660159H.21289063V.41015626H.110839847V.51660159M.110839847 .10644531H.21289063V0H.110839847V.10644531Z"/>
<path id="font_3_1" d="M0 0Z"/>
<path id="font_3_2" d="M.63916018 .4013672 .6220703 .31933595H.11279297L.12988281 .4013672H.63916018M.59472659 .19238281 .57714846 .10839844H.067871097L.08544922 .19238281H.59472659Z"/>
<path id="font_1_5" d="M.03125 0C.034505208 .060221357 .04695638 .11263021 .068603519 .15722656 .09025065 .20182292 .13248699 .24235027 .1953125 .2788086L.2890625 .3330078C.3310547 .35742188 .3605143 .3782908 .3774414 .39561463 .40413413 .4227346 .41748048 .45377604 .41748048 .488739 .41748048 .52959188 .40527345 .562027 .38085938 .5860443 .3564453 .61006167 .32389323 .6220703 .28320313 .6220703 .22298177 .6220703 .18131511 .5991516 .15820313 .5533142 .14583333 .52875778 .13899739 .4947103 .13769531 .45117188H.048339845C.049316408 .5121663 .060546876 .5619049 .08203125 .6003876 .12011719 .66822817 .18733724 .70214846 .2836914 .70214846 .36376954 .70214846 .4222819 .68047079 .45922853 .6371155 .49617515 .5937703 .51464846 .5455373 .51464846 .49241639 .51464846 .4363556 .49495445 .388443 .4555664 .3486786 .43277995 .3255361 .3919271 .29752604 .3330078 .26464845L.26611329 .22753906C.23421224 .20996094 .20914714 .19319661 .19091797 .1772461 .15836589 .14892578 .13785808 .11751302 .12939453 .08300781H.51123049V0H.03125Z"/>
<path id="font_3_7" d="M.21044922 .71972659H.29589845L.24072266 .45948792C.26513673 .4847056 .29207359 .50394698 .3215332 .5172119 .35099284 .53047689 .38134767 .5371094 .41259767 .5371094 .4777018 .5371094 .52579757 .5147095 .55688479 .46990968 .587972 .42510987 .5942383 .35905458 .5756836 .27174378 .55810549 .1889801 .5234375 .12022909 .4716797 .06549072 .41992188 .010762532 .3585612-.016601563 .28759767-.016601563 .24788411-.016601563 .21647136-.0069986979 .19335938 .012207031 .17936199 .02360026 .16585286 .041829427 .15283203 .06689453L.13867188 0H.057617189L.21044922 .71972659M.48486329 .26731874C.49658204 .32227073 .49446617 .3677877 .47851563 .40386964 .4625651 .43996177 .43164063 .4580078 .3857422 .4580078 .34570313 .4580078 .30745445 .44321189 .2709961 .41362 .23453777 .3840383 .20914714 .3352712 .19482422 .26731874 .18440755 .21822612 .1821289 .17840068 .18798828 .1478424 .19873047 .090296428 .23567708 .061523439 .29882813 .061523439 .34635417 .061523439 .38590495 .08037821 .41748048 .11808777 .449056 .1558075 .47151695 .20555115 .48486329 .26731874Z"/>
<path id="font_1_12" d="M.057617189 .71875H.1430664V.45948792C.16227214 .4847056 .18522136 .50394698 .21191406 .5172119 .23860677 .53047689 .26757813 .5371094 .29882813 .5371094 .36393229 .5371094 .41674806 .5147095 .4572754 .46990968 .49780274 .42510987 .5180664 .35905458 .5180664 .27174378 .5180664 .1889801 .49804688 .12022909 .4580078 .06549072 .41796876 .010762532 .36246745-.016601563 .2915039-.016601563 .25179038-.016601563 .21826172-.006942749 .19091797 .012374878 .17464192 .023839316 .15722656 .042175294 .13867188 .06738281V0H.057617189V.71875M.2861328 .061523439C.33365885 .061523439 .36922203 .08037821 .39282228 .11808777 .41642253 .1558075 .42822267 .20555115 .42822267 .26731874 .42822267 .32227073 .41642253 .3677877 .39282228 .40386964 .36922203 .43996177 .33447267 .4580078 .28857423 .4580078 .24853516 .4580078 .21346028 .44321189 .18334961 .41362 .15323894 .3840383 .1381836 .3352712 .1381836 .26731874 .1381836 .21822612 .14436849 .17840068 .15673828 .1478424 .17985027 .090296428 .22298177 .061523439 .2861328 .061523439Z"/>
<path id="font_1_28" d="M.39111329 .5234375H.48828126C.47591148 .48987834 .44840495 .41330973 .40576173 .2937317 .3738607 .20380657 .34716798 .13049825 .3256836 .07380676 .27490235-.059921266 .23909505-.14145915 .21826172-.17080689 .19742839-.2001648 .1616211-.21484375 .110839847-.21484375 .098470058-.21484375 .08894857-.21435039 .08227539-.21336365 .07560221-.21238709 .06738281-.21058655 .057617189-.20796204V-.1274414C.072916667-.13167317 .083984378-.13427735 .09082031-.1352539 .09765625-.13623047 .10367838-.13671875 .10888672-.13671875 .12516277-.13671875 .13712566-.1340332 .14477539-.12866211 .15242513-.123291019 .15885417-.11669922 .1640625-.10888672 .16569011-.106282558 .17154949-.092936199 .18164063-.068847659 .19173177-.044759115 .19905599-.026855469 .20361328-.015136719L.010253906 .5234375H.10986328L.25 .09727478 .39111329 .5234375M.24951172 .5361328V.5361328Z"/>
<path id="font_1_25" d="M.11669922 .1640625C.11930338 .13463338 .12662761 .11207072 .13867188 .09637451 .1608073 .06793213 .19921875 .053710939 .25390626 .053710939 .28645835 .053710939 .31510417 .060806276 .33984376 .07499695 .36458335 .08919779 .37695313 .11115011 .37695313 .14085388 .37695313 .16337586 .36702476 .18051148 .34716798 .19226074 .33447267 .19944255 .30940757 .20775859 .27197267 .21720886L.20214844 .2348175C.15755208 .24590557 .12467448 .25829569 .103515628 .27198792 .06575521 .29579164 .046875 .32873027 .046875 .37080384 .046875 .42036439 .064697269 .46046958 .1003418 .49111939 .13598633 .52177938 .18391927 .5371094 .24414063 .5371094 .32291667 .5371094 .37972007 .5139974 .41455079 .46777345 .4363607 .43847657 .4469401 .40690104 .44628907 .37304688H.36328126C.36165367 .39269004 .35465495 .41055808 .34228517 .426651 .32210288 .44950868 .28710938 .4609375 .23730469 .4609375 .20410156 .4609375 .17895508 .45461528 .16186524 .44197084 .14477539 .42933656 .13623047 .41264854 .13623047 .39190675 .13623047 .36922203 .14746094 .35107423 .16992188 .33746339 .1829427 .32936607 .20214844 .32221986 .22753906 .31602479L.28564454 .3018341C.34879557 .28650413 .39111329 .27166749 .41259767 .25732423 .44677735 .23482259 .4638672 .19944255 .4638672 .15118408 .4638672 .10455322 .44620768 .06428019 .41088868 .03036499 .37556968-.0035502117 .32177735-.020507813 .24951172-.020507813 .17171224-.020507813 .116617839-.002802531 .084228519 .032608034 .05183919 .06801859 .034505208 .111836757 .032226564 .1640625H.11669922M.24658203 .5361328V.5361328Z"/>
<path id="font_1_23" d="M.28515626 .057617189C.32617188 .057617189 .36027018 .07486979 .38745118 .109375 .41463218 .14389038 .42822267 .1954956 .42822267 .26419068 .42822267 .3060608 .42220054 .34204103 .41015626 .37213136 .38736979 .43003337 .34570313 .45898438 .28515626 .45898438 .22428386 .45898438 .18261719 .42840068 .16015625 .36723329 .14811199 .33451844 .14208985 .29297386 .14208985 .24259949 .14208985 .20204163 .14811199 .16753133 .16015625 .1390686 .1829427 .08476766 .22460938 .057617189 .28515626 .057617189M.057617189 .5205078H.1430664V.45162965C.16064453 .47540284 .17985027 .49379985 .2006836 .5068207 .23030599 .5263621 .26513673 .5361328 .30517579 .5361328 .36442057 .5361328 .41471354 .5133667 .4560547 .46783448 .49739585 .42230226 .5180664 .3572693 .5180664 .2727356 .5180664 .1585083 .48828126 .07691447 .42871095 .027954102 .39095054-.0030517579 .34700523-.018554688 .296875-.018554688 .25748698-.018554688 .22444661-.009984334 .1977539 .007156372 .1821289 .016860962 .16471355 .033518476 .14550781 .057128908V-.20898438H.057617189V.5205078Z"/>
<path id="font_1_24" d="M.06689453 .5234375H.15039063V.4326172C.15722656 .4502767 .17399089 .4717814 .2006836 .49713136 .2273763 .52248129 .25813804 .53515627 .29296876 .53515627 .29459635 .53515627 .29736329 .5349579 .30126954 .53456118 .30517579 .5341746 .31184898 .5333964 .32128907 .53222659V.43945313C.31608073 .44062297 .3112793 .44140116 .30688478 .44178773 .30249024 .44218446 .2976888 .4423828 .29248048 .4423828 .24820964 .4423828 .2141927 .4280599 .19042969 .39941407 .16666667 .37076823 .15478516 .33789063 .15478516 .30078126V0H.06689453V.5234375Z"/>
<path id="font_1_13" d="M.26611329 .53808596C.32503257 .53808596 .37296549 .5237274 .4099121 .49501039 .44685874 .46629334 .46907554 .41684977 .4765625 .3466797H.39111329C.38590495 .37890626 .37402345 .40568034 .35546876 .42700196 .33691407 .44832359 .3071289 .45898438 .26611329 .45898438 .2101237 .45898438 .17008464 .43170677 .1459961 .3771515 .1303711 .34176127 .122558597 .29808555 .122558597 .24612427 .122558597 .19384766 .1336263 .14984639 .15576172 .11412048 .17789714 .07840475 .21272786 .060546876 .2602539 .060546876 .29671226 .060546876 .3256022 .0716095 .34692384 .09373474 .36824546 .115859989 .38297526 .1461385 .39111329 .18457031H.4765625C.46679688 .115234378 .4423828 .06453451 .4033203 .032470704 .3642578 .00040690104 .31429038-.015625 .25341798-.015625 .1850586-.015625 .13053386 .009379069 .08984375 .059387208 .049153646 .10940552 .028808594 .17188008 .028808594 .24681092 .028808594 .33868919 .05110677 .41020204 .095703128 .4613495 .14029949 .51250717 .19710286 .53808596 .26611329 .53808596M.2524414 .5361328V.5361328Z"/>
<path id="font_1_17" d="M.064453128 .71875H.15234375V.45214845C.17317708 .4786682 .19189453 .4973297 .2084961 .50813296 .2368164 .5267995 .2721354 .5361328 .31445313 .5361328 .39029948 .5361328 .44173179 .50957748 .46875 .45646668 .48339845 .42747499 .49072267 .38723756 .49072267 .3357544V0H.40039063V.32958985C.40039063 .3680013 .3955078 .39615885 .3857422 .4140625 .36979167 .44270835 .33984376 .45703126 .29589845 .45703126 .2594401 .45703126 .22639974 .4444987 .19677735 .4194336 .16715496 .3943685 .15234375 .34700523 .15234375 .27734376V0H.064453128V.71875Z"/>
<path id="font_1_22" d="M.27197267 .057617189C.33024089 .057617189 .37019859 .07964579 .3918457 .123703 .41349284 .16776021 .4243164 .21677144 .4243164 .2707367 .4243164 .31950379 .4165039 .35917155 .4008789 .38974 .3761393 .43785606 .3334961 .46191407 .27294923 .46191407 .21923828 .46191407 .18017578 .44143168 .15576172 .40046693 .13134766 .35950218 .119140628 .31008403 .119140628 .25221253 .119140628 .1966095 .13134766 .15027364 .15576172 .113204959 .18017578 .076146449 .21891277 .057617189 .27197267 .057617189M.27539063 .53808596C.34277345 .53808596 .3997396 .5156453 .44628907 .47076417 .49283854 .42588298 .5161133 .35985819 .5161133 .27268983 .5161133 .1884613 .49560548 .11886088 .45458985 .06388855 .41357423 .008926392 .3499349-.018554688 .26367188-.018554688 .19173177-.018554688 .13460286 .00575765 .092285159 .054382326 .04996745 .103006999 .028808594 .16829936 .028808594 .2502594 .028808594 .33806864 .05110677 .4079895 .095703128 .46002198 .14029949 .51206466 .20019531 .53808596 .27539063 .53808596M.27246095 .5361328V.5361328Z"/>
<path id="font_1_19" d="M.0625 .71777346H.14697266V.30101014L.3725586 .5234375H.48486329L.28466798 .32881166 .49609376 0H.38378907L.22070313 .26635743 .14697266 .19647217V0H.0625V.71777346Z"/>
<path id="font_3_5" d="M.23779297 .71777346H.7607422L.7416992 .6298828H.31347657L.26757813 .41308595H.6635742L.6459961 .32910157H.25L.19824219 .0859375H.63378909L.61572268 0H.08544922L.23779297 .71777346Z"/>
<path id="font_1_21" d="M.064453128 .5234375H.14794922V.44921876C.1726888 .47981773 .19889324 .50179037 .2265625 .5151367 .25423179 .5284831 .2849935 .53515627 .31884767 .53515627 .3930664 .53515627 .44319663 .5092519 .46923829 .45744325 .4835612 .42910258 .49072267 .38853965 .49072267 .3357544V0H.4013672V.3299408C.4013672 .36188255 .39664714 .38762919 .38720704 .4071808 .37158204 .4397634 .34326173 .4560547 .3022461 .4560547 .28141276 .4560547 .2643229 .4539388 .25097657 .44970704 .22688802 .4425354 .20572917 .42819724 .1875 .4066925 .17285156 .38941957 .16333008 .37157694 .15893555 .35316468 .15454102 .3347524 .15234375 .30844117 .15234375 .27423097V0H.064453128V.5234375M.2709961 .5361328V.5361328Z"/>
<path id="font_3_6" d="M.18847656 .23095703C.18229167 .19026692 .18489583 .15722656 .19628906 .13183594 .21842449 .0843099 .27018229 .060546876 .3515625 .060546876 .38802085 .060546876 .42236329 .06576029 .45458985 .076187137 .51676437 .0963796 .55338546 .13253784 .5644531 .18466187 .5729167 .22375489 .56656906 .25160728 .54541018 .268219 .5242513 .28450523 .48860679 .29867555 .43847657 .31072999L.34570313 .3327179C.28548179 .347051 .24397786 .3628489 .2211914 .3801117 .1821289 .41007997 .16894531 .45487467 .18164063 .51449587 .1953125 .5789897 .22884114 .6319224 .28222657 .67329409 .33561198 .7146657 .40315757 .73535159 .48486329 .73535159 .5600586 .73535159 .6200358 .7172038 .6647949 .6809082 .709554 .6446126 .72347006 .58658859 .70654299 .50683596H.6152344C.61848959 .5452474 .6144206 .57470706 .60302737 .59521487 .58121749 .6326497 .53483077 .6513672 .4638672 .6513672 .40657554 .6513672 .36287437 .63931277 .33276368 .61520388 .30265299 .59110519 .2841797 .56309 .27734376 .53115847 .26985679 .49598185 .27897135 .47025047 .3046875 .45396424 .3216146 .44353739 .3623047 .43050639 .4267578 .41487123L.52246096 .39190675C.5686849 .38082887 .60286459 .36567689 .625 .3464508 .663737 .31290183 .67626956 .26420594 .66259768 .20036316 .6456706 .12087504 .60465499 .06402588 .5395508 .029815674 .47444663-.004384359 .40364585-.021484375 .32714845-.021484375 .23795574-.021484375 .17301433 .0013020834 .13232422 .046875 .09163412 .0921224 .07991537 .15348308 .09716797 .23095703H.18847656Z"/>
<path id="font_3_8" d="M.2241211 .6689453H.31298829L.28173829 .5234375H.36523438L.35009767 .45117188H.26660157L.19384766 .10948181C.1899414 .0912323 .19352214 .07901001 .20458985 .07281494 .21077474 .069234218 .22184246 .06744385 .23779297 .06744385 .24202474 .06744385 .24658203 .06752523 .25146485 .06768799 .25634767 .067850749 .26220704 .06825765 .26904298 .06890869L.25439454-.00048828127C.24365235-.0034179688 .23266602-.005533854 .22143555-.0068359377 .21020508-.0081380209 .19824219-.0087890629 .18554688-.0087890629 .14453125-.0087890629 .118896488 .0017191569 .10864258 .022735596 .09838867 .043752035 .096842449 .07104492 .104003909 .10461426L.17773438 .45117188H.106933597L.12207031 .5234375H.1928711L.2241211 .6689453Z"/>
<path id="font_1_27" d="M.107421878 .5234375 .24707031 .09725952 .3930664 .5234375H.4892578L.2919922 0H.19824219L.0053710939 .5234375H.107421878Z"/>
<path id="font_1_7" d="M.37841798 .7373047C.46923829 .7373047 .53971359 .71332809 .58984377 .66537478 .63997396 .61742147 .66780599 .5629476 .67333987 .5019531H.5786133C.5678711 .54817709 .5464681 .58479818 .5144043 .6118164 .48234049 .63883468 .43733726 .65234377 .37939454 .65234377 .3087565 .65234377 .25170899 .62754318 .20825196 .5779419 .16479492 .52834066 .1430664 .45231629 .1430664 .34986878 .1430664 .26594544 .16267903 .19788106 .2019043 .14567566 .24112956 .09348043 .29964195 .06738281 .3774414 .06738281 .449056 .06738281 .50358077 .094823207 .5410156 .14970398 .5608724 .17860413 .5756836 .21659343 .5854492 .26367188H.6801758C.6717122 .18815105 .64371749 .12483724 .5961914 .07373047 .5392253 .012207031 .46240235-.018554688 .36572267-.018554688 .2823893-.018554688 .21240235 .006688436 .15576172 .057174684 .081217449 .12394714 .043945314 .2270406 .043945314 .36645509 .043945314 .47232057 .0719401 .5591278 .12792969 .62687686 .18847656 .7004954 .27197267 .7373047 .37841798 .7373047M.35888673 .7373047V.7373047Z"/>
<path id="font_1_29" d="M.025390625 .06976318 .33544923 .44433595H.048339845V.5234375H.45361329V.45121766L.14550781 .07910156H.46289063V0H.025390625V.06976318M.25146485 .5361328V.5361328Z"/>
<path id="font_3_4" d="M.77978518 .5019531H.6850586C.68408206 .54848226 .67041018 .5853424 .64404299 .61253359 .6176758 .63972476 .5755208 .6533203 .5175781 .6533203 .4469401 .6533203 .38468424 .628479 .33081056 .5787964 .27693687 .52911379 .23909505 .45295716 .21728516 .35032655 .19938152 .26628114 .20450847 .19810994 .23266602 .14581299 .26082359 .09352621 .3138021 .06738281 .39160157 .06738281 .46321617 .06738281 .5236003 .09484863 .5727539 .14978028 .59847006 .17870076 .62125656 .21672566 .6411133 .26385499H.73583987C.7114258 .18828328 .67008468 .124928798 .6118164 .073791507 .5415039 .012227376 .4580078-.018554688 .36132813-.018554688 .27799479-.018554688 .2133789 .006688436 .16748047 .057174684 .10725912 .12394714 .09195963 .2270406 .12158203 .36645509 .14404297 .47232057 .19042969 .5591278 .2607422 .62687686 .33691407 .7004954 .42822267 .7373047 .53466799 .7373047 .6254883 .7373047 .69091799 .71332809 .73095706 .66537478 .7709961 .61742147 .78727218 .5629476 .77978518 .5019531Z"/>
<path id="font_3_9" d="M.12548828 .5234375H.23925781L.3203125 .33918763 .48095704 .5234375 .58740237 .5209961 .35742188 .26831056 .48486329 0H.3725586L.2841797 .19647217 .11669922 0H.0053710939L.24609375 .26831056 .12548828 .5234375Z"/>
<path id="font_4_1" d="M0 0Z"/>
<path id="font_1_2" d="M.041503908 .32421876H.2866211V.23339844H.041503908V.32421876Z"/>
</defs>
<g clip-path="url(#clip_0)">
<path transform="matrix(1,0,0,-1,0,540)" d="M0 539.9999H719.9999V.00003079383H0Z" fill="#ffffff" fill-rule="evenodd"/>
<path transform="matrix(1,0,0,-1,0,540)" d="M169.75 481.1249H505.7499V386H169.75Z" fill="#cbcbcb" fill-rule="evenodd"/>
<path transform="matrix(.00007874014,0,0,.00007874014,169.75,58.87509)" stroke-width="12700" stroke-linecap="butt" stroke-miterlimit="8" stroke-linejoin="miter" fill="none" stroke="#000000" d="M-.05603033 .2230226H4267200V1208087H-.05603033Z"/>
<path transform="matrix(1,0,0,-1,0,540)" d="M397.7499 475.1249H451.7499V451.1249H397.7499Z" fill="#ffffff" fill-rule="evenodd"/>
<path transform="matrix(.00007874014,0,0,.00007874014,397.7499,64.87509)" stroke-width="12700" stroke-linecap="butt" stroke-miterlimit="8" stroke-linejoin="miter" fill="none" stroke="#000000" d="M.001708865 .2347414H685800.1V304800.3H.001708865Z"/>
<use data-text="&#x2022;" xlink:href="#font_1_30" transform="matrix(10,0,0,-10,416.95,80.87509)"/>
<use data-text="&#x00a0;" xlink:href="#font_2_2" transform="matrix(10,0,0,-10,420.45103,80.87509)"/>
<use data-text="&#x2022;" xlink:href="#font_1_30" transform="matrix(10,0,0,-10,423.23204,80.87509)"/>
<use data-text="&#x00a0;" xlink:href="#font_2_2" transform="matrix(10,0,0,-10,426.733,80.87509)"/>
<use data-text="&#x2022;" xlink:href="#font_1_30" transform="matrix(10,0,0,-10,429.514,80.87509)"/>
<use data-text="&#xfffd;" xlink:href="#font_2_1" transform="matrix(10,0,0,-10,433.015,80.87509)"/>
<path transform="matrix(1,0,0,-1,0,540)" d="M451.7499 475.1249H487.7499V451.1249H451.7499Z" fill="#ffffff" fill-rule="evenodd"/>
<path transform="matrix(.00007874014,0,0,.00007874014,451.7499,64.87509)" stroke-width="12700" stroke-linecap="butt" stroke-miterlimit="8" stroke-linejoin="miter" fill="none" stroke="#000000" d="M-.2803957 .2347414H457199.8V304800.3H-.2803957Z"/>
<use data-text="B" xlink:href="#font_3_3" transform="matrix(16,0,0,-16,455.9499,83.275089)"/>
<use data-text="&#x2013;" xlink:href="#font_1_31" transform="matrix(16,0,0,-16,466.62178,83.275089)"/>
<use data-text="1" xlink:href="#font_1_4" transform="matrix(16,0,0,-16,475.52098,83.275089)"/>
<use data-text="&#xfffd;" xlink:href="#font_2_1" transform="matrix(16,0,0,-16,484.42018,83.275089)"/>
<path transform="matrix(1,0,0,-1,0,540)" d="M361.7499 475.1249H397.7499V451.1249H361.7499Z" fill="#ffffff" fill-rule="evenodd"/>
<path transform="matrix(.00007874014,0,0,.00007874014,361.7499,64.87509)" stroke-width="12700" stroke-linecap="butt" stroke-miterlimit="8" stroke-linejoin="miter" fill="none" stroke="#000000" d="M-.06860363 .2347414H457200V304800.3H-.06860363Z"/>
<use data-text="1" xlink:href="#font_1_4" transform="matrix(16,0,0,-16,374.95,83.275089)"/>
<use data-text="&#xfffd;" xlink:href="#font_2_1" transform="matrix(16,0,0,-16,383.8492,83.275089)"/>
<path transform="matrix(1,0,0,-1,0,540)" d="M325.75 475.1249H361.75V451.1249H325.75Z" fill="#ffffff" fill-rule="evenodd"/>
<path transform="matrix(.00007874014,0,0,.00007874014,325.75,64.87509)" stroke-width="12700" stroke-linecap="butt" stroke-miterlimit="8" stroke-linejoin="miter" fill="none" stroke="#000000" d="M-.001342833 .2347414H457200.1V304800.3H-.001342833Z"/>
<use data-text="0" xlink:href="#font_1_3" transform="matrix(16,0,0,-16,338.95,83.275089)"/>
<use data-text="&#xfffd;" xlink:href="#font_2_1" transform="matrix(16,0,0,-16,347.8492,83.275089)"/>
<path transform="matrix(1,0,0,-1,0,540)" d="M397.7499 422.1249H451.7499V398.1249H397.7499Z" fill="#ffffff" fill-rule="evenodd"/>
<path transform="matrix(.00007874014,0,0,.00007874014,397.7499,117.87509)" stroke-width="12700" stroke-linecap="butt" stroke-miterlimit="8" stroke-linejoin="miter" fill="none" stroke="#000000" d="M.001708865-.161743H685800.1V304799.9H.001708865Z"/>
<use data-text="&#x2022;" xlink:href="#font_1_30" transform="matrix(10,0,0,-10,416.95,133.87509)"/>
<use data-text="&#x00a0;" xlink:href="#font_2_2" transform="matrix(10,0,0,-10,420.45103,133.87509)"/>
<use data-text="&#x2022;" xlink:href="#font_1_30" transform="matrix(10,0,0,-10,423.23204,133.87509)"/>
<use data-text="&#x00a0;" xlink:href="#font_2_2" transform="matrix(10,0,0,-10,426.733,133.87509)"/>
<use data-text="&#x2022;" xlink:href="#font_1_30" transform="matrix(10,0,0,-10,429.514,133.87509)"/>
<use data-text="&#xfffd;" xlink:href="#font_2_1" transform="matrix(10,0,0,-10,433.015,133.87509)"/>
<path transform="matrix(1,0,0,-1,0,540)" d="M451.7499 422.1249H487.7499V398.1249H451.7499Z" fill="#ffffff" fill-rule="evenodd"/>
<path transform="matrix(.00007874014,0,0,.00007874014,451.7499,117.87509)" stroke-width="12700" stroke-linecap="butt" stroke-miterlimit="8" stroke-linejoin="miter" fill="none" stroke="#000000" d="M-.2803957-.161743H457199.8V304799.9H-.2803957Z"/>
<use data-text="B" xlink:href="#font_3_3" transform="matrix(16,0,0,-16,455.9499,136.27509)"/>
<use data-text="&#x2013;" xlink:href="#font_1_31" transform="matrix(16,0,0,-16,466.62178,136.27509)"/>
<use data-text="1" xlink:href="#font_1_4" transform="matrix(16,0,0,-16,475.52098,136.27509)"/>
<use data-text="&#xfffd;" xlink:href="#font_2_1" transform="matrix(16,0,0,-16,484.42018,136.27509)"/>
<path transform="matrix(1,0,0,-1,0,540)" d="M361.7499 422.1249H397.7499V398.1249H361.7499Z" fill="#ffffff" fill-rule="evenodd"/>
<path transform="matrix(.00007874014,0,0,.00007874014,361.7499,117.87509)" stroke-width="12700" stroke-linecap="butt" stroke-miterlimit="8" stroke-linejoin="miter" fill="none" stroke="#000000" d="M-.06860363-.161743H457200V304799.9H-.06860363Z"/>
<use data-text="1" xlink:href="#font_1_4" transform="matrix(16,0,0,-16,374.95,136.27509)"/>
<use data-text="&#xfffd;" xlink:href="#font_2_1" transform="matrix(16,0,0,-16,383.8492,136.27509)"/>
<path transform="matrix(1,0,0,-1,0,540)" d="M325.75 422.1249H361.75V398.1249H325.75Z" fill="#ffffff" fill-rule="evenodd"/>
<path transform="matrix(.00007874014,0,0,.00007874014,325.75,117.87509)" stroke-width="12700" stroke-linecap="butt" stroke-miterlimit="8" stroke-linejoin="miter" fill="none" stroke="#000000" d="M-.001342833-.161743H457200.1V304799.9H-.001342833Z"/>
<use data-text="0" xlink:href="#font_1_3" transform="matrix(16,0,0,-16,338.95,136.27509)"/>
<use data-text="&#xfffd;" xlink:href="#font_2_1" transform="matrix(16,0,0,-16,347.8492,136.27509)"/>
<path transform="matrix(1,0,0,-1,0,540)" d="M180 475.1249H223.75V451.1249H180Z" fill="#ffffff" fill-rule="evenodd"/>
<path transform="matrix(.00007874014,0,0,.00007874014,180,64.87509)" stroke-width="12700" stroke-linecap="butt" stroke-miterlimit="8" stroke-linejoin="miter" fill="none" stroke="#000000" d="M-.0360108 .2347414H555625.1V304800.3H-.0360108Z"/>
<use data-text="V" xlink:href="#font_1_10" transform="matrix(16,0,0,-16,184.2,83.275089)"/>
<use data-text="a" xlink:href="#font_1_11" transform="matrix(16,0,0,-16,193.6928,83.275089)"/>
<use data-text="l" xlink:href="#font_1_20" transform="matrix(16,0,0,-16,202.5936,83.275089)"/>
<use data-text="i" xlink:href="#font_1_18" transform="matrix(16,0,0,-16,206.1504,83.275089)"/>
<use data-text="d" xlink:href="#font_1_14" transform="matrix(16,0,0,-16,209.7072,83.275089)"/>
<use data-text="&#xfffd;" xlink:href="#font_2_1" transform="matrix(16,0,0,-16,218.608,83.275089)"/>
<path transform="matrix(1,0,0,-1,0,540)" d="M180 422.1249H223.75V398.1249H180Z" fill="#ffffff" fill-rule="evenodd"/>
<path transform="matrix(.00007874014,0,0,.00007874014,180,117.87509)" stroke-width="12700" stroke-linecap="butt" stroke-miterlimit="8" stroke-linejoin="miter" fill="none" stroke="#000000" d="M-.0360108-.161743H555625.1V304799.9H-.0360108Z"/>
<use data-text="V" xlink:href="#font_1_10" transform="matrix(16,0,0,-16,184.2,136.27509)"/>
<use data-text="a" xlink:href="#font_1_11" transform="matrix(16,0,0,-16,193.6928,136.27509)"/>
<use data-text="l" xlink:href="#font_1_20" transform="matrix(16,0,0,-16,202.5936,136.27509)"/>
<use data-text="i" xlink:href="#font_1_18" transform="matrix(16,0,0,-16,206.1504,136.27509)"/>
<use data-text="d" xlink:href="#font_1_14" transform="matrix(16,0,0,-16,209.7072,136.27509)"/>
<use data-text="&#xfffd;" xlink:href="#font_2_1" transform="matrix(16,0,0,-16,218.608,136.27509)"/>
<path transform="matrix(1,0,0,-1,0,540)" d="M241.75 475.1249H313.75V451.1249H241.75Z" fill="#ffffff" fill-rule="evenodd"/>
<path transform="matrix(.00007874014,0,0,.00007874014,241.75,64.87509)" stroke-width="12700" stroke-linecap="butt" stroke-miterlimit="8" stroke-linejoin="miter" fill="none" stroke="#000000" d="M-.1654053 .2347414H914400V304800.3H-.1654053Z"/>
<use data-text="T" xlink:href="#font_1_9" transform="matrix(16,0,0,-16,264.95,83.275089)"/>
<use data-text="a" xlink:href="#font_1_11" transform="matrix(16,0,0,-16,272.95,83.275089)"/>
<use data-text="g" xlink:href="#font_1_16" transform="matrix(16,0,0,-16,281.846,83.275089)"/>
<use data-text="&#xfffd;" xlink:href="#font_2_1" transform="matrix(16,0,0,-16,290.742,83.275089)"/>
<path transform="matrix(1,0,0,-1,0,540)" d="M241.75 422.1249H313.75V398.1249H241.75Z" fill="#ffffff" fill-rule="evenodd"/>
<path transform="matrix(.00007874014,0,0,.00007874014,241.75,117.87509)" stroke-width="12700" stroke-linecap="butt" stroke-miterlimit="8" stroke-linejoin="miter" fill="none" stroke="#000000" d="M-.1654053-.161743H914400V304799.9H-.1654053Z"/>
<use data-text="T" xlink:href="#font_1_9" transform="matrix(16,0,0,-16,264.95,136.27509)"/>
<use data-text="a" xlink:href="#font_1_11" transform="matrix(16,0,0,-16,272.95,136.27509)"/>
<use data-text="g" xlink:href="#font_1_16" transform="matrix(16,0,0,-16,281.846,136.27509)"/>
<use data-text="&#xfffd;" xlink:href="#font_2_1" transform="matrix(16,0,0,-16,290.742,136.27509)"/>
<use data-text="S" xlink:href="#font_1_8" transform="matrix(16,0,0,-16,119.95,115.650089)"/>
<use data-text="e" xlink:href="#font_1_15" transform="matrix(16,0,0,-16,130.622,115.650089)"/>
<use data-text="t" xlink:href="#font_1_26" transform="matrix(16,0,0,-16,139.5212,115.650089)"/>
<use data-text=" " xlink:href="#font_1_1" transform="matrix(16,0,0,-16,143.966,115.650089)"/>
<use data-text="0" xlink:href="#font_1_3" transform="matrix(16,0,0,-16,148.4108,115.650089)"/>
<use data-text=":" xlink:href="#font_1_6" transform="matrix(16,0,0,-16,157.31,115.650089)"/>
<use data-text="&#xfffd;" xlink:href="#font_2_1" transform="matrix(16,0,0,-16,161.75479,115.650089)"/>
<path transform="matrix(0,-.00007874014,.00007874014,0,325.75,52.87509)" stroke-width="12700" stroke-linecap="butt" stroke-linejoin="round" fill="none" stroke="#000000" d="M-.2113039-.001342834C42084.05-.001342834 76199.8 73917.2 76199.8 165098.9V871445C76199.8 962626.7 110315.6 1036544 152399.8 1036544 110315.6 1036544 76199.8 1110462 76199.8 1201643V1816101C76199.8 1907283 42084.05 1981200-.2113039 1981200"/>
<use data-text="B" xlink:href="#font_3_3" transform="matrix(16,0,0,-16,352.95,18.549988)"/>
<use data-text=" " xlink:href="#font_3_1" transform="matrix(16,0,0,-16,363.622,18.549988)"/>
<use data-text="=" xlink:href="#font_3_2" transform="matrix(16,0,0,-16,368.0668,18.549988)"/>
<use data-text=" " xlink:href="#font_3_1" transform="matrix(16,0,0,-16,377.41084,18.549988)"/>
<use data-text="2" xlink:href="#font_1_5" transform="matrix(16,0,0,-16,381.85627,18.549988)"/>
<use data-text="b" xlink:href="#font_3_7" transform="matrix(10.66666,0,0,-10.66666,390.7547,13.749998)"/>
<use data-text=" " xlink:href="#font_1_1" transform="matrix(16,0,0,-16,396.68699,18.549988)"/>
<use data-text="b" xlink:href="#font_1_12" transform="matrix(16,0,0,-16,401.13179,18.549988)"/>
<use data-text="y" xlink:href="#font_1_28" transform="matrix(16,0,0,-16,410.03099,18.549988)"/>
<use data-text="t" xlink:href="#font_1_26" transform="matrix(16,0,0,-16,418.03099,18.549988)"/>
<use data-text="e" xlink:href="#font_1_15" transform="matrix(16,0,0,-16,422.47578,18.549988)"/>
<use data-text="s" xlink:href="#font_1_25" transform="matrix(16,0,0,-16,431.375,18.549988)"/>
<use data-text="&#xfffd;" xlink:href="#font_2_1" transform="matrix(16,0,0,-16,439.375,18.549988)"/>
<use data-text="p" xlink:href="#font_1_23" transform="matrix(16,0,0,-16,352.95,37.549989)"/>
<use data-text="e" xlink:href="#font_1_15" transform="matrix(16,0,0,-16,361.8492,37.549989)"/>
<use data-text="r" xlink:href="#font_1_24" transform="matrix(16,0,0,-16,370.7484,37.549989)"/>
<use data-text=" " xlink:href="#font_1_1" transform="matrix(16,0,0,-16,376.07643,37.549989)"/>
<use data-text="c" xlink:href="#font_1_13" transform="matrix(16,0,0,-16,380.5212,37.549989)"/>
<use data-text="a" xlink:href="#font_1_11" transform="matrix(16,0,0,-16,388.5212,37.549989)"/>
<use data-text="c" xlink:href="#font_1_13" transform="matrix(16,0,0,-16,397.4204,37.549989)"/>
<use data-text="h" xlink:href="#font_1_17" transform="matrix(16,0,0,-16,405.4204,37.549989)"/>
<use data-text="e" xlink:href="#font_1_15" transform="matrix(16,0,0,-16,414.3196,37.549989)"/>
<use data-text=" " xlink:href="#font_1_1" transform="matrix(16,0,0,-16,423.2188,37.549989)"/>
<use data-text="b" xlink:href="#font_1_12" transform="matrix(16,0,0,-16,427.6636,37.549989)"/>
<use data-text="l" xlink:href="#font_1_20" transform="matrix(16,0,0,-16,436.5628,37.549989)"/>
<use data-text="o" xlink:href="#font_1_22" transform="matrix(16,0,0,-16,440.118,37.549989)"/>
<use data-text="c" xlink:href="#font_1_13" transform="matrix(16,0,0,-16,449.0172,37.549989)"/>
<use data-text="k" xlink:href="#font_1_19" transform="matrix(16,0,0,-16,457.0172,37.549989)"/>
<use data-text="&#xfffd;" xlink:href="#font_2_1" transform="matrix(16,0,0,-16,465.0172,37.549989)"/>
<path transform="matrix(.00007874014,0,0,.00007874014,511.7499,58.87509)" stroke-width="12700" stroke-linecap="butt" stroke-linejoin="round" fill="none" stroke="#000000" d="M-.2756349 .2230226C42083.98 .2230226 76199.73 45073.45 76199.73 100674.3V503370.3C76199.73 558970.8 110315.5 604044.1 152399.8 604044.1 110315.5 604044.1 76199.73 649117.7 76199.73 704718.2V1107413C76199.73 1163014 42083.98 1208087-.2756349 1208087"/>
<use data-text="E" xlink:href="#font_3_5" transform="matrix(16,0,0,-16,528.825,112.025089)"/>
<use data-text=" " xlink:href="#font_1_1" transform="matrix(16,0,0,-16,539.4969,112.025089)"/>
<use data-text=" " xlink:href="#font_1_1" transform="matrix(16,0,0,-16,543.9417,112.025089)"/>
<use data-text="l" xlink:href="#font_1_20" transform="matrix(16,0,0,-16,548.3865,112.025089)"/>
<use data-text="i" xlink:href="#font_1_18" transform="matrix(16,0,0,-16,551.9417,112.025089)"/>
<use data-text="n" xlink:href="#font_1_21" transform="matrix(16,0,0,-16,555.4969,112.025089)"/>
<use data-text="e" xlink:href="#font_1_15" transform="matrix(16,0,0,-16,564.3961,112.025089)"/>
<use data-text="s" xlink:href="#font_1_25" transform="matrix(16,0,0,-16,573.2953,112.025089)"/>
<use data-text=" " xlink:href="#font_1_1" transform="matrix(16,0,0,-16,581.2953,112.025089)"/>
<use data-text="p" xlink:href="#font_1_23" transform="matrix(16,0,0,-16,585.7401,112.025089)"/>
<use data-text="e" xlink:href="#font_1_15" transform="matrix(16,0,0,-16,594.6393,112.025089)"/>
<use data-text="r" xlink:href="#font_1_24" transform="matrix(16,0,0,-16,603.5385,112.025089)"/>
<use data-text=" " xlink:href="#font_1_1" transform="matrix(16,0,0,-16,608.8665,112.025089)"/>
<use data-text="s" xlink:href="#font_1_25" transform="matrix(16,0,0,-16,613.3113,112.025089)"/>
<use data-text="e" xlink:href="#font_1_15" transform="matrix(16,0,0,-16,621.3113,112.025089)"/>
<use data-text="t" xlink:href="#font_1_26" transform="matrix(16,0,0,-16,630.2105,112.025089)"/>
<use data-text="&#xfffd;" xlink:href="#font_2_1" transform="matrix(16,0,0,-16,634.6553,112.025089)"/>
<path transform="matrix(.00007874014,0,0,.00007874014,83.99998,64.87509)" stroke-width="12700" stroke-linecap="butt" stroke-linejoin="round" fill="none" stroke="#000000" d="M228600 4281487C165473.8 4281487 114300 4121747 114300 3924697V2497533C114300 2300484 63126.16 2140743-.02972415 2140743 63126.16 2140743 114300 1981003 114300 1783953V356790.1C114300 159740.5 165473.8 .2347414 228600 .2347414"/>
<use data-text="S" xlink:href="#font_3_6" transform="matrix(16,0,0,-16,1.2,239.15)"/>
<use data-text=" " xlink:href="#font_3_1" transform="matrix(16,0,0,-16,11.872001,239.15)"/>
<use data-text="=" xlink:href="#font_3_2" transform="matrix(16,0,0,-16,16.316802,239.15)"/>
<use data-text=" " xlink:href="#font_3_1" transform="matrix(16,0,0,-16,25.660803,239.15)"/>
<use data-text="2" xlink:href="#font_1_5" transform="matrix(16,0,0,-16,30.10625,239.15)"/>
<use data-text="s" xlink:href="#font_1_25" transform="matrix(10.66666,0,0,-10.66666,39.004693,234.35)"/>
<use data-text=" " xlink:href="#font_1_1" transform="matrix(16,0,0,-16,44.33802,239.15)"/>
<use data-text="s" xlink:href="#font_1_25" transform="matrix(16,0,0,-16,48.78282,239.15)"/>
<use data-text="e" xlink:href="#font_1_15" transform="matrix(16,0,0,-16,56.78282,239.15)"/>
<use data-text="t" xlink:href="#font_1_26" transform="matrix(16,0,0,-16,65.682018,239.15)"/>
<use data-text="s" xlink:href="#font_1_25" transform="matrix(16,0,0,-16,70.126819,239.15)"/>
<use data-text="&#xfffd;" xlink:href="#font_2_1" transform="matrix(16,0,0,-16,78.126819,239.15)"/>
<path transform="matrix(0,-.00007874014,.00007874014,0,238.625,52.87509)" stroke-width="12700" stroke-linecap="butt" stroke-linejoin="round" fill="none" stroke="#000000" d="M-.2113039-.0901489C42084.05-.0901489 76199.8 34115.86 76199.8 76199.92V402205.1C76199.8 444288.9 110315.6 478405.1 152399.8 478405.1 110315.6 478405.1 76199.8 512520.8 76199.8 554604.7V838199.9C76199.8 880284.1 42084.05 914399.9-.2113039 914399.9"/>
<use data-text="t" xlink:href="#font_3_8" transform="matrix(16,0,0,-16,251.825,13.674988)"/>
<use data-text=" " xlink:href="#font_3_1" transform="matrix(16,0,0,-16,256.2698,13.674988)"/>
<use data-text="t" xlink:href="#font_1_26" transform="matrix(16,0,0,-16,260.71565,13.674988)"/>
<use data-text="a" xlink:href="#font_1_11" transform="matrix(16,0,0,-16,265.16044,13.674988)"/>
<use data-text="g" xlink:href="#font_1_16" transform="matrix(16,0,0,-16,274.05964,13.674988)"/>
<use data-text=" " xlink:href="#font_1_1" transform="matrix(16,0,0,-16,282.95884,13.674988)"/>
<use data-text="b" xlink:href="#font_1_12" transform="matrix(16,0,0,-16,287.40364,13.674988)"/>
<use data-text="i" xlink:href="#font_1_18" transform="matrix(16,0,0,-16,296.30284,13.674988)"/>
<use data-text="t" xlink:href="#font_1_26" transform="matrix(16,0,0,-16,299.85804,13.674988)"/>
<use data-text="s" xlink:href="#font_1_25" transform="matrix(16,0,0,-16,304.30284,13.674988)"/>
<use data-text="&#xfffd;" xlink:href="#font_2_1" transform="matrix(16,0,0,-16,312.30284,13.674988)"/>
<use data-text="p" xlink:href="#font_1_23" transform="matrix(16,0,0,-16,251.825,32.674989)"/>
<use data-text="e" xlink:href="#font_1_15" transform="matrix(16,0,0,-16,260.72419,32.674989)"/>
<use data-text="r" xlink:href="#font_1_24" transform="matrix(16,0,0,-16,269.6234,32.674989)"/>
<use data-text=" " xlink:href="#font_1_1" transform="matrix(16,0,0,-16,274.9514,32.674989)"/>
<use data-text="l" xlink:href="#font_1_20" transform="matrix(16,0,0,-16,279.3962,32.674989)"/>
<use data-text="i" xlink:href="#font_1_18" transform="matrix(16,0,0,-16,282.9514,32.674989)"/>
<use data-text="n" xlink:href="#font_1_21" transform="matrix(16,0,0,-16,286.5066,32.674989)"/>
<use data-text="e" xlink:href="#font_1_15" transform="matrix(16,0,0,-16,295.4058,32.674989)"/>
<use data-text="&#xfffd;" xlink:href="#font_2_1" transform="matrix(16,0,0,-16,304.305,32.674989)"/>
<path transform="matrix(0,.00007874014,-.00007874014,-0,225.75,37.87509)" stroke-width="12700" stroke-linecap="butt" stroke-linejoin="round" fill="none" stroke="#000000" d="M190500.2 533400C137894.9 533400 95250.2 513499.5 95250.2 488951V311149C95250.2 286600.5 52605.12 266700 .182007 266700 52605.12 266700 95250.2 246799.5 95250.2 222251V44448.98C95250.2 19900.48 137894.9-.05334467 190500.2-.05334467"/>
<use data-text="1" xlink:href="#font_1_4" transform="matrix(16,0,0,-16,164.95,14.799988)"/>
<use data-text=" " xlink:href="#font_1_1" transform="matrix(16,0,0,-16,173.8492,14.799988)"/>
<use data-text="v" xlink:href="#font_1_27" transform="matrix(16,0,0,-16,178.29399,14.799988)"/>
<use data-text="a" xlink:href="#font_1_11" transform="matrix(16,0,0,-16,186.294,14.799988)"/>
<use data-text="l" xlink:href="#font_1_20" transform="matrix(16,0,0,-16,195.1932,14.799988)"/>
<use data-text="i" xlink:href="#font_1_18" transform="matrix(16,0,0,-16,198.7484,14.799988)"/>
<use data-text="d" xlink:href="#font_1_14" transform="matrix(16,0,0,-16,202.3036,14.799988)"/>
<use data-text=" " xlink:href="#font_1_1" transform="matrix(16,0,0,-16,211.2028,14.799988)"/>
<use data-text="b" xlink:href="#font_1_12" transform="matrix(16,0,0,-16,215.64762,14.799988)"/>
<use data-text="i" xlink:href="#font_1_18" transform="matrix(16,0,0,-16,224.54682,14.799988)"/>
<use data-text="t" xlink:href="#font_1_26" transform="matrix(16,0,0,-16,228.102,14.799988)"/>
<use data-text="&#xfffd;" xlink:href="#font_2_1" transform="matrix(16,0,0,-16,232.54682,14.799988)"/>
<use data-text="p" xlink:href="#font_1_23" transform="matrix(16,0,0,-16,164.95,33.799989)"/>
<use data-text="e" xlink:href="#font_1_15" transform="matrix(16,0,0,-16,173.8492,33.799989)"/>
<use data-text="r" xlink:href="#font_1_24" transform="matrix(16,0,0,-16,182.7484,33.799989)"/>
<use data-text=" " xlink:href="#font_1_1" transform="matrix(16,0,0,-16,188.0764,33.799989)"/>
<use data-text="l" xlink:href="#font_1_20" transform="matrix(16,0,0,-16,192.5212,33.799989)"/>
<use data-text="i" xlink:href="#font_1_18" transform="matrix(16,0,0,-16,196.0764,33.799989)"/>
<use data-text="n" xlink:href="#font_1_21" transform="matrix(16,0,0,-16,199.63159,33.799989)"/>
<use data-text="e" xlink:href="#font_1_15" transform="matrix(16,0,0,-16,208.53079,33.799989)"/>
<use data-text="&#xfffd;" xlink:href="#font_2_1" transform="matrix(16,0,0,-16,217.43,33.799989)"/>
<use data-text="C" xlink:href="#font_1_7" transform="matrix(16,0,0,-16,205.2,431.15)"/>
<use data-text="a" xlink:href="#font_1_11" transform="matrix(16,0,0,-16,216.7552,431.15)"/>
<use data-text="c" xlink:href="#font_1_13" transform="matrix(16,0,0,-16,225.6544,431.15)"/>
<use data-text="h" xlink:href="#font_1_17" transform="matrix(16,0,0,-16,233.6544,431.15)"/>
<use data-text="e" xlink:href="#font_1_15" transform="matrix(16,0,0,-16,242.5536,431.15)"/>
<use data-text=" " xlink:href="#font_1_1" transform="matrix(16,0,0,-16,251.4528,431.15)"/>
<use data-text="s" xlink:href="#font_1_25" transform="matrix(16,0,0,-16,255.8976,431.15)"/>
<use data-text="i" xlink:href="#font_1_18" transform="matrix(16,0,0,-16,263.8976,431.15)"/>
<use data-text="z" xlink:href="#font_1_29" transform="matrix(16,0,0,-16,267.45283,431.15)"/>
<use data-text="e" xlink:href="#font_1_15" transform="matrix(16,0,0,-16,275.45283,431.15)"/>
<use data-text=":" xlink:href="#font_1_6" transform="matrix(16,0,0,-16,284.352,431.15)"/>
<use data-text=" " xlink:href="#font_1_1" transform="matrix(16,0,0,-16,288.7968,431.15)"/>
<use data-text=" " xlink:href="#font_1_1" transform="matrix(16,0,0,-16,293.2416,431.15)"/>
<use data-text="C" xlink:href="#font_3_4" transform="matrix(16,0,0,-16,297.6844,431.15)"/>
<use data-text=" " xlink:href="#font_3_1" transform="matrix(16,0,0,-16,309.23957,431.15)"/>
<use data-text="=" xlink:href="#font_3_2" transform="matrix(16,0,0,-16,313.6844,431.15)"/>
<use data-text=" " xlink:href="#font_3_1" transform="matrix(16,0,0,-16,323.02839,431.15)"/>
<use data-text="B" xlink:href="#font_3_3" transform="matrix(16,0,0,-16,327.47319,431.15)"/>
<use data-text=" " xlink:href="#font_3_1" transform="matrix(16,0,0,-16,338.1452,431.15)"/>
<use data-text="x" xlink:href="#font_3_9" transform="matrix(16,0,0,-16,342.58998,431.15)"/>
<use data-text=" " xlink:href="#font_3_1" transform="matrix(16,0,0,-16,350.58998,431.15)"/>
<use data-text="E" xlink:href="#font_3_5" transform="matrix(16,0,0,-16,355.0348,431.15)"/>
<use data-text=" " xlink:href="#font_3_1" transform="matrix(16,0,0,-16,365.7068,431.15)"/>
<use data-text="x" xlink:href="#font_3_9" transform="matrix(16,0,0,-16,370.15156,431.15)"/>
<use data-text=" " xlink:href="#font_3_1" transform="matrix(16,0,0,-16,378.15156,431.15)"/>
<use data-text="S" xlink:href="#font_3_6" transform="matrix(16,0,0,-16,382.59638,431.15)"/>
<use data-text=" " xlink:href="#font_3_1" transform="matrix(16,0,0,-16,393.26838,431.15)"/>
<use data-text="d" xlink:href="#font_1_14" transform="matrix(16,0,0,-16,397.71559,431.15)"/>
<use data-text="a" xlink:href="#font_1_11" transform="matrix(16,0,0,-16,406.6148,431.15)"/>
<use data-text="t" xlink:href="#font_1_26" transform="matrix(16,0,0,-16,415.51399,431.15)"/>
<use data-text="a" xlink:href="#font_1_11" transform="matrix(16,0,0,-16,419.9588,431.15)"/>
<use data-text=" " xlink:href="#font_1_1" transform="matrix(16,0,0,-16,428.85798,431.15)"/>
<use data-text="b" xlink:href="#font_1_12" transform="matrix(16,0,0,-16,433.3028,431.15)"/>
<use data-text="y" xlink:href="#font_1_28" transform="matrix(16,0,0,-16,442.20198,431.15)"/>
<use data-text="t" xlink:href="#font_1_26" transform="matrix(16,0,0,-16,450.20198,431.15)"/>
<use data-text="e" xlink:href="#font_1_15" transform="matrix(16,0,0,-16,454.6468,431.15)"/>
<use data-text="s" xlink:href="#font_1_25" transform="matrix(16,0,0,-16,463.54597,431.15)"/>
<use data-text="&#xfffd;" xlink:href="#font_4_1" transform="matrix(16,0,0,-16,471.54383,431.15)"/>
<use data-text="&#x2022;" xlink:href="#font_1_30" transform="matrix(0,10,10,0,335.625,95.4751)"/>
<use data-text="&#x00a0;" xlink:href="#font_2_2" transform="matrix(0,10,10,0,335.625,98.9761)"/>
<use data-text="&#x2022;" xlink:href="#font_1_30" transform="matrix(0,10,10,0,335.625,101.757099)"/>
<use data-text="&#x00a0;" xlink:href="#font_2_2" transform="matrix(0,10,10,0,335.625,105.2581)"/>
<use data-text="&#x2022;" xlink:href="#font_1_30" transform="matrix(0,10,10,0,335.625,108.0391)"/>
<use data-text="&#xfffd;" xlink:href="#font_2_1" transform="matrix(0,10,10,0,335.625,111.5401)"/>
<path transform="matrix(1,0,0,-1,0,540)" d="M169.5 372H505.4999V276.8749H169.5Z" fill="#cbcbcb" fill-rule="evenodd"/>
<path transform="matrix(.00007874014,0,0,.00007874014,169.5,168)" stroke-width="12700" stroke-linecap="butt" stroke-miterlimit="8" stroke-linejoin="miter" fill="none" stroke="#000000" d="M-.112732 .1610108H4267200V1208088H-.112732Z"/>
<path transform="matrix(1,0,0,-1,0,540)" d="M397.5 366H451.5V342H397.5Z" fill="#ffffff" fill-rule="evenodd"/>
<path transform="matrix(.00007874014,0,0,.00007874014,397.5,174)" stroke-width="12700" stroke-linecap="butt" stroke-miterlimit="8" stroke-linejoin="miter" fill="none" stroke="#000000" d="M-.1112061 .1727296H685800V304800.2H-.1112061Z"/>
<use data-text="&#x2022;" xlink:href="#font_1_30" transform="matrix(10,0,0,-10,416.7,190)"/>
<use data-text="&#x00a0;" xlink:href="#font_2_2" transform="matrix(10,0,0,-10,420.20103,190)"/>
<use data-text="&#x2022;" xlink:href="#font_1_30" transform="matrix(10,0,0,-10,422.98204,190)"/>
<use data-text="&#x00a0;" xlink:href="#font_2_2" transform="matrix(10,0,0,-10,426.483,190)"/>
<use data-text="&#x2022;" xlink:href="#font_1_30" transform="matrix(10,0,0,-10,429.264,190)"/>
<use data-text="&#xfffd;" xlink:href="#font_2_1" transform="matrix(10,0,0,-10,432.765,190)"/>
<path transform="matrix(1,0,0,-1,0,540)" d="M451.4999 366H487.4999V342H451.4999Z" fill="#ffffff" fill-rule="evenodd"/>
<path transform="matrix(.00007874014,0,0,.00007874014,451.4999,174)" stroke-width="12700" stroke-linecap="butt" stroke-miterlimit="8" stroke-linejoin="miter" fill="none" stroke="#000000" d="M.1066893 .1727296H457200.2V304800.2H.1066893Z"/>
<use data-text="B" xlink:href="#font_3_3" transform="matrix(16,0,0,-16,455.6999,192.4)"/>
<use data-text="&#x2013;" xlink:href="#font_1_31" transform="matrix(16,0,0,-16,466.37178,192.4)"/>
<use data-text="1" xlink:href="#font_1_4" transform="matrix(16,0,0,-16,475.27098,192.4)"/>
<use data-text="&#xfffd;" xlink:href="#font_2_1" transform="matrix(16,0,0,-16,484.17018,192.4)"/>
<path transform="matrix(1,0,0,-1,0,540)" d="M361.5 366H397.5V342H361.5Z" fill="#ffffff" fill-rule="evenodd"/>
<path transform="matrix(.00007874014,0,0,.00007874014,361.5,174)" stroke-width="12700" stroke-linecap="butt" stroke-miterlimit="8" stroke-linejoin="miter" fill="none" stroke="#000000" d="M-.1815186 .1727296H457199.9V304800.2H-.1815186Z"/>
<use data-text="1" xlink:href="#font_1_4" transform="matrix(16,0,0,-16,374.7,192.4)"/>
<use data-text="&#xfffd;" xlink:href="#font_2_1" transform="matrix(16,0,0,-16,383.5992,192.4)"/>
<path transform="matrix(1,0,0,-1,0,540)" d="M325.4999 366H361.4999V342H325.4999Z" fill="#ffffff" fill-rule="evenodd"/>
<path transform="matrix(.00007874014,0,0,.00007874014,325.4999,174)" stroke-width="12700" stroke-linecap="butt" stroke-miterlimit="8" stroke-linejoin="miter" fill="none" stroke="#000000" d="M-.1394044 .1727296H457199.9V304800.2H-.1394044Z"/>
<use data-text="0" xlink:href="#font_1_3" transform="matrix(16,0,0,-16,338.7,192.4)"/>
<use data-text="&#xfffd;" xlink:href="#font_2_1" transform="matrix(16,0,0,-16,347.5992,192.4)"/>
<path transform="matrix(1,0,0,-1,0,540)" d="M397.5 313H451.5V289H397.5Z" fill="#ffffff" fill-rule="evenodd"/>
<path transform="matrix(.00007874014,0,0,.00007874014,397.5,227)" stroke-width="12700" stroke-linecap="butt" stroke-miterlimit="8" stroke-linejoin="miter" fill="none" stroke="#000000" d="M-.1112061 .02624518H685800V304800.1H-.1112061Z"/>
<use data-text="&#x2022;" xlink:href="#font_1_30" transform="matrix(10,0,0,-10,416.7,243)"/>
<use data-text="&#x00a0;" xlink:href="#font_2_2" transform="matrix(10,0,0,-10,420.20103,243)"/>
<use data-text="&#x2022;" xlink:href="#font_1_30" transform="matrix(10,0,0,-10,422.98204,243)"/>
<use data-text="&#x00a0;" xlink:href="#font_2_2" transform="matrix(10,0,0,-10,426.483,243)"/>
<use data-text="&#x2022;" xlink:href="#font_1_30" transform="matrix(10,0,0,-10,429.264,243)"/>
<use data-text="&#xfffd;" xlink:href="#font_2_1" transform="matrix(10,0,0,-10,432.765,243)"/>
<path transform="matrix(1,0,0,-1,0,540)" d="M451.4999 313H487.4999V289H451.4999Z" fill="#ffffff" fill-rule="evenodd"/>
<path transform="matrix(.00007874014,0,0,.00007874014,451.4999,227)" stroke-width="12700" stroke-linecap="butt" stroke-miterlimit="8" stroke-linejoin="miter" fill="none" stroke="#000000" d="M.1066893 .02624518H457200.2V304800.1H.1066893Z"/>
<use data-text="B" xlink:href="#font_3_3" transform="matrix(16,0,0,-16,455.6999,245.4)"/>
<use data-text="&#x2013;" xlink:href="#font_1_31" transform="matrix(16,0,0,-16,466.37178,245.4)"/>
<use data-text="1" xlink:href="#font_1_4" transform="matrix(16,0,0,-16,475.27098,245.4)"/>
<use data-text="&#xfffd;" xlink:href="#font_2_1" transform="matrix(16,0,0,-16,484.17018,245.4)"/>
<path transform="matrix(1,0,0,-1,0,540)" d="M361.5 313H397.5V289H361.5Z" fill="#ffffff" fill-rule="evenodd"/>
<path transform="matrix(.00007874014,0,0,.00007874014,361.5,227)" stroke-width="12700" stroke-linecap="butt" stroke-miterlimit="8" stroke-linejoin="miter" fill="none" stroke="#000000" d="M-.1815186 .02624518H457199.9V304800.1H-.1815186Z"/>
<use data-text="1" xlink:href="#font_1_4" transform="matrix(16,0,0,-16,374.7,245.4)"/>
<use data-text="&#xfffd;" xlink:href="#font_2_1" transform="matrix(16,0,0,-16,383.5992,245.4)"/>
<path transform="matrix(1,0,0,-1,0,540)" d="M325.4999 313H361.4999V289H325.4999Z" fill="#ffffff" fill-rule="evenodd"/>
<path transform="matrix(.00007874014,0,0,.00007874014,325.4999,227)" stroke-width="12700" stroke-linecap="butt" stroke-miterlimit="8" stroke-linejoin="miter" fill="none" stroke="#000000" d="M-.1394044 .02624518H457199.9V304800.1H-.1394044Z"/>
<use data-text="0" xlink:href="#font_1_3" transform="matrix(16,0,0,-16,338.7,245.4)"/>
<use data-text="&#xfffd;" xlink:href="#font_2_1" transform="matrix(16,0,0,-16,347.5992,245.4)"/>
<path transform="matrix(1,0,0,-1,0,540)" d="M180 366H223.5V342H180Z" fill="#ffffff" fill-rule="evenodd"/>
<path transform="matrix(.00007874014,0,0,.00007874014,180,174)" stroke-width="12700" stroke-linecap="butt" stroke-miterlimit="8" stroke-linejoin="miter" fill="none" stroke="#000000" d="M-.0360108 .1727296H552450.1V304800.2H-.0360108Z"/>
<use data-text="V" xlink:href="#font_1_10" transform="matrix(16,0,0,-16,184.2,192.4)"/>
<use data-text="a" xlink:href="#font_1_11" transform="matrix(16,0,0,-16,193.6928,192.4)"/>
<use data-text="l" xlink:href="#font_1_20" transform="matrix(16,0,0,-16,202.5936,192.4)"/>
<use data-text="i" xlink:href="#font_1_18" transform="matrix(16,0,0,-16,206.1504,192.4)"/>
<use data-text="d" xlink:href="#font_1_14" transform="matrix(16,0,0,-16,209.7072,192.4)"/>
<use data-text="&#xfffd;" xlink:href="#font_2_1" transform="matrix(16,0,0,-16,218.608,192.4)"/>
<path transform="matrix(1,0,0,-1,0,540)" d="M180 313H223.5V289H180Z" fill="#ffffff" fill-rule="evenodd"/>
<path transform="matrix(.00007874014,0,0,.00007874014,180,227)" stroke-width="12700" stroke-linecap="butt" stroke-miterlimit="8" stroke-linejoin="miter" fill="none" stroke="#000000" d="M-.0360108 .02624518H552450.1V304800.1H-.0360108Z"/>
<use data-text="V" xlink:href="#font_1_10" transform="matrix(16,0,0,-16,184.2,245.4)"/>
<use data-text="a" xlink:href="#font_1_11" transform="matrix(16,0,0,-16,193.6928,245.4)"/>
<use data-text="l" xlink:href="#font_1_20" transform="matrix(16,0,0,-16,202.5936,245.4)"/>
<use data-text="i" xlink:href="#font_1_18" transform="matrix(16,0,0,-16,206.1504,245.4)"/>
<use data-text="d" xlink:href="#font_1_14" transform="matrix(16,0,0,-16,209.7072,245.4)"/>
<use data-text="&#xfffd;" xlink:href="#font_2_1" transform="matrix(16,0,0,-16,218.608,245.4)"/>
<path transform="matrix(1,0,0,-1,0,540)" d="M241.5 366H313.5V342H241.5Z" fill="#ffffff" fill-rule="evenodd"/>
<path transform="matrix(.00007874014,0,0,.00007874014,241.5,174)" stroke-width="12700" stroke-linecap="butt" stroke-miterlimit="8" stroke-linejoin="miter" fill="none" stroke="#000000" d="M-.1658936 .1727296H914400V304800.2H-.1658936Z"/>
<use data-text="T" xlink:href="#font_1_9" transform="matrix(16,0,0,-16,264.7,192.4)"/>
<use data-text="a" xlink:href="#font_1_11" transform="matrix(16,0,0,-16,272.7,192.4)"/>
<use data-text="g" xlink:href="#font_1_16" transform="matrix(16,0,0,-16,281.596,192.4)"/>
<use data-text="&#xfffd;" xlink:href="#font_2_1" transform="matrix(16,0,0,-16,290.492,192.4)"/>
<path transform="matrix(1,0,0,-1,0,540)" d="M241.5 313H313.5V289H241.5Z" fill="#ffffff" fill-rule="evenodd"/>
<path transform="matrix(.00007874014,0,0,.00007874014,241.5,227)" stroke-width="12700" stroke-linecap="butt" stroke-miterlimit="8" stroke-linejoin="miter" fill="none" stroke="#000000" d="M-.1658936 .02624518H914400V304800.1H-.1658936Z"/>
<use data-text="T" xlink:href="#font_1_9" transform="matrix(16,0,0,-16,264.7,245.4)"/>
<use data-text="a" xlink:href="#font_1_11" transform="matrix(16,0,0,-16,272.7,245.4)"/>
<use data-text="g" xlink:href="#font_1_16" transform="matrix(16,0,0,-16,281.596,245.4)"/>
<use data-text="&#xfffd;" xlink:href="#font_2_1" transform="matrix(16,0,0,-16,290.492,245.4)"/>
<use data-text="S" xlink:href="#font_1_8" transform="matrix(16,0,0,-16,119.95,224.77509)"/>
<use data-text="e" xlink:href="#font_1_15" transform="matrix(16,0,0,-16,130.622,224.77509)"/>
<use data-text="t" xlink:href="#font_1_26" transform="matrix(16,0,0,-16,139.5212,224.77509)"/>
<use data-text=" " xlink:href="#font_1_1" transform="matrix(16,0,0,-16,143.966,224.77509)"/>
<use data-text="1" xlink:href="#font_1_4" transform="matrix(16,0,0,-16,148.4108,224.77509)"/>
<use data-text=":" xlink:href="#font_1_6" transform="matrix(16,0,0,-16,157.31,224.77509)"/>
<use data-text="&#xfffd;" xlink:href="#font_2_1" transform="matrix(16,0,0,-16,161.75479,224.77509)"/>
<use data-text="&#x2022;" xlink:href="#font_1_30" transform="matrix(0,10,10,0,335.625,204.6)"/>
<use data-text="&#x00a0;" xlink:href="#font_2_2" transform="matrix(0,10,10,0,335.625,208.10102)"/>
<use data-text="&#x2022;" xlink:href="#font_1_30" transform="matrix(0,10,10,0,335.625,210.882)"/>
<use data-text="&#x00a0;" xlink:href="#font_2_2" transform="matrix(0,10,10,0,335.625,214.38301)"/>
<use data-text="&#x2022;" xlink:href="#font_1_30" transform="matrix(0,10,10,0,335.625,217.164)"/>
<use data-text="&#xfffd;" xlink:href="#font_2_1" transform="matrix(0,10,10,0,335.625,220.66501)"/>
<path transform="matrix(1,0,0,-1,0,540)" d="M169.5 233.125H505.4999V138H169.5Z" fill="#cbcbcb" fill-rule="evenodd"/>
<path transform="matrix(.00007874014,0,0,.00007874014,169.5,306.875)" stroke-width="12700" stroke-linecap="butt" stroke-miterlimit="8" stroke-linejoin="miter" fill="none" stroke="#000000" d="M-.112732 .1260377H4267200V1208087H-.112732Z"/>
<path transform="matrix(1,0,0,-1,0,540)" d="M397.5 227.1249H451.5V203.1249H397.5Z" fill="#ffffff" fill-rule="evenodd"/>
<path transform="matrix(.00007874014,0,0,.00007874014,397.5,312.87513)" stroke-width="12700" stroke-linecap="butt" stroke-miterlimit="8" stroke-linejoin="miter" fill="none" stroke="#000000" d="M-.1112061 .08154309H685800V304800.1H-.1112061Z"/>
<use data-text="&#x2022;" xlink:href="#font_1_30" transform="matrix(10,0,0,-10,416.7,328.87513)"/>
<use data-text="&#x00a0;" xlink:href="#font_2_2" transform="matrix(10,0,0,-10,420.20103,328.87513)"/>
<use data-text="&#x2022;" xlink:href="#font_1_30" transform="matrix(10,0,0,-10,422.98204,328.87513)"/>
<use data-text="&#x00a0;" xlink:href="#font_2_2" transform="matrix(10,0,0,-10,426.483,328.87513)"/>
<use data-text="&#x2022;" xlink:href="#font_1_30" transform="matrix(10,0,0,-10,429.264,328.87513)"/>
<use data-text="&#xfffd;" xlink:href="#font_2_1" transform="matrix(10,0,0,-10,432.765,328.87513)"/>
<path transform="matrix(1,0,0,-1,0,540)" d="M451.4999 227.1249H487.4999V203.1249H451.4999Z" fill="#ffffff" fill-rule="evenodd"/>
<path transform="matrix(.00007874014,0,0,.00007874014,451.4999,312.87513)" stroke-width="12700" stroke-linecap="butt" stroke-miterlimit="8" stroke-linejoin="miter" fill="none" stroke="#000000" d="M.1066893 .08154309H457200.2V304800.1H.1066893Z"/>
<use data-text="B" xlink:href="#font_3_3" transform="matrix(16,0,0,-16,455.6999,331.2751)"/>
<use data-text="&#x2013;" xlink:href="#font_1_31" transform="matrix(16,0,0,-16,466.37178,331.2751)"/>
<use data-text="1" xlink:href="#font_1_4" transform="matrix(16,0,0,-16,475.27098,331.2751)"/>
<use data-text="&#xfffd;" xlink:href="#font_2_1" transform="matrix(16,0,0,-16,484.17018,331.2751)"/>
<path transform="matrix(1,0,0,-1,0,540)" d="M361.5 227.1249H397.5V203.1249H361.5Z" fill="#ffffff" fill-rule="evenodd"/>
<path transform="matrix(.00007874014,0,0,.00007874014,361.5,312.87513)" stroke-width="12700" stroke-linecap="butt" stroke-miterlimit="8" stroke-linejoin="miter" fill="none" stroke="#000000" d="M-.1815186 .08154309H457199.9V304800.1H-.1815186Z"/>
<use data-text="1" xlink:href="#font_1_4" transform="matrix(16,0,0,-16,374.7,331.2751)"/>
<use data-text="&#xfffd;" xlink:href="#font_2_1" transform="matrix(16,0,0,-16,383.5992,331.2751)"/>
<path transform="matrix(1,0,0,-1,0,540)" d="M325.4999 227.1249H361.4999V203.1249H325.4999Z" fill="#ffffff" fill-rule="evenodd"/>
<path transform="matrix(.00007874014,0,0,.00007874014,325.4999,312.87513)" stroke-width="12700" stroke-linecap="butt" stroke-miterlimit="8" stroke-linejoin="miter" fill="none" stroke="#000000" d="M-.1394044 .08154309H457199.9V304800.1H-.1394044Z"/>
<use data-text="0" xlink:href="#font_1_3" transform="matrix(16,0,0,-16,338.7,331.2751)"/>
<use data-text="&#xfffd;" xlink:href="#font_2_1" transform="matrix(16,0,0,-16,347.5992,331.2751)"/>
<path transform="matrix(1,0,0,-1,0,540)" d="M397.5 174.1249H451.5V150.1249H397.5Z" fill="#ffffff" fill-rule="evenodd"/>
<path transform="matrix(.00007874014,0,0,.00007874014,397.5,365.87513)" stroke-width="12700" stroke-linecap="butt" stroke-miterlimit="8" stroke-linejoin="miter" fill="none" stroke="#000000" d="M-.1112061-.06494129H685800V304800H-.1112061Z"/>
<use data-text="&#x2022;" xlink:href="#font_1_30" transform="matrix(10,0,0,-10,416.7,381.875)"/>
<use data-text="&#x00a0;" xlink:href="#font_2_2" transform="matrix(10,0,0,-10,420.20103,381.875)"/>
<use data-text="&#x2022;" xlink:href="#font_1_30" transform="matrix(10,0,0,-10,422.98204,381.875)"/>
<use data-text="&#x00a0;" xlink:href="#font_2_2" transform="matrix(10,0,0,-10,426.483,381.875)"/>
<use data-text="&#x2022;" xlink:href="#font_1_30" transform="matrix(10,0,0,-10,429.264,381.875)"/>
<use data-text="&#xfffd;" xlink:href="#font_2_1" transform="matrix(10,0,0,-10,432.765,381.875)"/>
<path transform="matrix(1,0,0,-1,0,540)" d="M451.4999 174.1249H487.4999V150.1249H451.4999Z" fill="#ffffff" fill-rule="evenodd"/>
<path transform="matrix(.00007874014,0,0,.00007874014,451.4999,365.87513)" stroke-width="12700" stroke-linecap="butt" stroke-miterlimit="8" stroke-linejoin="miter" fill="none" stroke="#000000" d="M.1066893-.06494129H457200.2V304800H.1066893Z"/>
<use data-text="B" xlink:href="#font_3_3" transform="matrix(16,0,0,-16,455.6999,384.275)"/>
<use data-text="&#x2013;" xlink:href="#font_1_31" transform="matrix(16,0,0,-16,466.37178,384.275)"/>
<use data-text="1" xlink:href="#font_1_4" transform="matrix(16,0,0,-16,475.27098,384.275)"/>
<use data-text="&#xfffd;" xlink:href="#font_2_1" transform="matrix(16,0,0,-16,484.17018,384.275)"/>
<path transform="matrix(1,0,0,-1,0,540)" d="M361.5 174.1249H397.5V150.1249H361.5Z" fill="#ffffff" fill-rule="evenodd"/>
<path transform="matrix(.00007874014,0,0,.00007874014,361.5,365.87513)" stroke-width="12700" stroke-linecap="butt" stroke-miterlimit="8" stroke-linejoin="miter" fill="none" stroke="#000000" d="M-.1815186-.06494129H457199.9V304800H-.1815186Z"/>
<use data-text="1" xlink:href="#font_1_4" transform="matrix(16,0,0,-16,374.7,384.275)"/>
<use data-text="&#xfffd;" xlink:href="#font_2_1" transform="matrix(16,0,0,-16,383.5992,384.275)"/>
<path transform="matrix(1,0,0,-1,0,540)" d="M325.4999 174.1249H361.4999V150.1249H325.4999Z" fill="#ffffff" fill-rule="evenodd"/>
<path transform="matrix(.00007874014,0,0,.00007874014,325.4999,365.87513)" stroke-width="12700" stroke-linecap="butt" stroke-miterlimit="8" stroke-linejoin="miter" fill="none" stroke="#000000" d="M-.1394044-.06494129H457199.9V304800H-.1394044Z"/>
<use data-text="0" xlink:href="#font_1_3" transform="matrix(16,0,0,-16,338.7,384.275)"/>
<use data-text="&#xfffd;" xlink:href="#font_2_1" transform="matrix(16,0,0,-16,347.5992,384.275)"/>
<path transform="matrix(1,0,0,-1,0,540)" d="M180 227.1249H223.5V203.1249H180Z" fill="#ffffff" fill-rule="evenodd"/>
<path transform="matrix(.00007874014,0,0,.00007874014,180,312.87513)" stroke-width="12700" stroke-linecap="butt" stroke-miterlimit="8" stroke-linejoin="miter" fill="none" stroke="#000000" d="M-.0360108 .08154309H552450.1V304800.1H-.0360108Z"/>
<use data-text="V" xlink:href="#font_1_10" transform="matrix(16,0,0,-16,184.2,331.2751)"/>
<use data-text="a" xlink:href="#font_1_11" transform="matrix(16,0,0,-16,193.6928,331.2751)"/>
<use data-text="l" xlink:href="#font_1_20" transform="matrix(16,0,0,-16,202.5936,331.2751)"/>
<use data-text="i" xlink:href="#font_1_18" transform="matrix(16,0,0,-16,206.1504,331.2751)"/>
<use data-text="d" xlink:href="#font_1_14" transform="matrix(16,0,0,-16,209.7072,331.2751)"/>
<use data-text="&#xfffd;" xlink:href="#font_2_1" transform="matrix(16,0,0,-16,218.608,331.2751)"/>
<path transform="matrix(1,0,0,-1,0,540)" d="M180 174.1249H223.5V150.1249H180Z" fill="#ffffff" fill-rule="evenodd"/>
<path transform="matrix(.00007874014,0,0,.00007874014,180,365.87513)" stroke-width="12700" stroke-linecap="butt" stroke-miterlimit="8" stroke-linejoin="miter" fill="none" stroke="#000000" d="M-.0360108-.06494129H552450.1V304800H-.0360108Z"/>
<use data-text="V" xlink:href="#font_1_10" transform="matrix(16,0,0,-16,184.2,384.275)"/>
<use data-text="a" xlink:href="#font_1_11" transform="matrix(16,0,0,-16,193.6928,384.275)"/>
<use data-text="l" xlink:href="#font_1_20" transform="matrix(16,0,0,-16,202.5936,384.275)"/>
<use data-text="i" xlink:href="#font_1_18" transform="matrix(16,0,0,-16,206.1504,384.275)"/>
<use data-text="d" xlink:href="#font_1_14" transform="matrix(16,0,0,-16,209.7072,384.275)"/>
<use data-text="&#xfffd;" xlink:href="#font_2_1" transform="matrix(16,0,0,-16,218.608,384.275)"/>
<path transform="matrix(1,0,0,-1,0,540)" d="M241.5 227.1249H313.5V203.1249H241.5Z" fill="#ffffff" fill-rule="evenodd"/>
<path transform="matrix(.00007874014,0,0,.00007874014,241.5,312.87513)" stroke-width="12700" stroke-linecap="butt" stroke-miterlimit="8" stroke-linejoin="miter" fill="none" stroke="#000000" d="M-.1658936 .08154309H914400V304800.1H-.1658936Z"/>
<use data-text="T" xlink:href="#font_1_9" transform="matrix(16,0,0,-16,264.7,331.2751)"/>
<use data-text="a" xlink:href="#font_1_11" transform="matrix(16,0,0,-16,272.7,331.2751)"/>
<use data-text="g" xlink:href="#font_1_16" transform="matrix(16,0,0,-16,281.596,331.2751)"/>
<use data-text="&#xfffd;" xlink:href="#font_2_1" transform="matrix(16,0,0,-16,290.492,331.2751)"/>
<path transform="matrix(1,0,0,-1,0,540)" d="M241.5 174.1249H313.5V150.1249H241.5Z" fill="#ffffff" fill-rule="evenodd"/>
<path transform="matrix(.00007874014,0,0,.00007874014,241.5,365.87513)" stroke-width="12700" stroke-linecap="butt" stroke-miterlimit="8" stroke-linejoin="miter" fill="none" stroke="#000000" d="M-.1658936-.06494129H914400V304800H-.1658936Z"/>
<use data-text="T" xlink:href="#font_1_9" transform="matrix(16,0,0,-16,264.7,384.275)"/>
<use data-text="a" xlink:href="#font_1_11" transform="matrix(16,0,0,-16,272.7,384.275)"/>
<use data-text="g" xlink:href="#font_1_16" transform="matrix(16,0,0,-16,281.596,384.275)"/>
<use data-text="&#xfffd;" xlink:href="#font_2_1" transform="matrix(16,0,0,-16,290.492,384.275)"/>
<use data-text="S" xlink:href="#font_1_8" transform="matrix(16,0,0,-16,99.44999,363.65)"/>
<use data-text="e" xlink:href="#font_1_15" transform="matrix(16,0,0,-16,110.121997,363.65)"/>
<use data-text="t" xlink:href="#font_1_26" transform="matrix(16,0,0,-16,119.021198,363.65)"/>
<use data-text=" " xlink:href="#font_1_1" transform="matrix(16,0,0,-16,123.46599,363.65)"/>
<use data-text="S" xlink:href="#font_3_6" transform="matrix(16,0,0,-16,127.91093,363.65)"/>
<use data-text=" " xlink:href="#font_3_1" transform="matrix(16,0,0,-16,138.58293,363.65)"/>
<use data-text="-" xlink:href="#font_1_2" transform="matrix(16,0,0,-16,143.0281,363.65)"/>
<use data-text="1" xlink:href="#font_1_4" transform="matrix(16,0,0,-16,148.35611,363.65)"/>
<use data-text=":" xlink:href="#font_1_6" transform="matrix(16,0,0,-16,157.25531,363.65)"/>
<use data-text="&#xfffd;" xlink:href="#font_2_1" transform="matrix(16,0,0,-16,161.7001,363.65)"/>
<use data-text="&#x2022;" xlink:href="#font_1_30" transform="matrix(0,10,10,0,335.625,343.4751)"/>
<use data-text="&#x00a0;" xlink:href="#font_2_2" transform="matrix(0,10,10,0,335.625,346.9761)"/>
<use data-text="&#x2022;" xlink:href="#font_1_30" transform="matrix(0,10,10,0,335.625,349.7571)"/>
<use data-text="&#x00a0;" xlink:href="#font_2_2" transform="matrix(0,10,10,0,335.625,353.2581)"/>
<use data-text="&#x2022;" xlink:href="#font_1_30" transform="matrix(0,10,10,0,335.625,356.0391)"/>
<use data-text="&#xfffd;" xlink:href="#font_2_1" transform="matrix(0,10,10,0,335.625,359.5401)"/>
<use data-text="&#x2022;" xlink:href="#font_1_30" transform="matrix(0,10,10,0,335.625,279.6)"/>
<use data-text="&#x00a0;" xlink:href="#font_2_2" transform="matrix(0,10,10,0,335.625,283.101)"/>
<use data-text="&#x2022;" xlink:href="#font_1_30" transform="matrix(0,10,10,0,335.625,285.88203)"/>
<use data-text="&#x00a0;" xlink:href="#font_2_2" transform="matrix(0,10,10,0,335.625,289.383)"/>
<use data-text="&#x2022;" xlink:href="#font_1_30" transform="matrix(0,10,10,0,335.625,292.164)"/>
<use data-text="&#xfffd;" xlink:href="#font_2_1" transform="matrix(0,10,10,0,335.625,295.665)"/>
</g>
</svg>
