<svg xmlns="http://www.w3.org/2000/svg" xmlns:xlink="http://www.w3.org/1999/xlink" version="1.1" width="365.058pt" height="238.961pt" viewBox="0 0 365.058 238.961">
<defs>
<clipPath id="clip_0">
<path transform="matrix(1,0,0,-1,0,540)" d="M0 301.039H365.058V540H0Z" fill-rule="evenodd"/>
</clipPath>
<clipPath id="clip_1">
<path transform="matrix(1,0,0,-1,0,540)" d="M0 .00002324581H719.9999V540H0Z"/>
</clipPath>
<path id="font_2_9" d="M.13964844 .23144531C.14192708 .19064331 .15152996 .1575063 .16845703 .1320343 .2006836 .084376018 .25748698 .060546876 .3388672 .060546876 .37532554 .060546876 .40852867 .06575521 .43847657 .076171878 .49641929 .096354167 .5253906 .13248189 .5253906 .18455506 .5253906 .22361756 .5131836 .25144959 .48876954 .26805116 .46402995 .2843882 .42529298 .29859925 .3725586 .3106842L.27539063 .3327484C.21191406 .3471222 .16699219 .36294047 .140625 .38020326 .095052089 .41016136 .072265628 .4549408 .072265628 .5145416 .072265628 .57902529 .094563808 .6319478 .13916016 .6733093 .18375652 .71467086 .24690755 .73535159 .32861329 .73535159 .4038086 .73535159 .46769206 .7172038 .5202637 .6809082 .57283529 .6446126 .5991211 .58658859 .5991211 .50683596H.5078125C.5029297 .5452474 .49251304 .57470706 .4765625 .59521487 .4469401 .6326497 .39664714 .6513672 .3256836 .6513672 .26839195 .6513672 .22721355 .63931277 .20214844 .61520388 .17708333 .591095 .16455078 .56307479 .16455078 .5311432 .16455078 .49595643 .17919922 .47021995 .2084961 .45393373 .22770183 .44350688 .27115885 .43047587 .3388672 .4148407L.43945313 .39187623C.48795573 .38079835 .5253906 .36565147 .5517578 .34643556 .59733077 .31288658 .6201172 .26419068 .6201172 .2003479 .6201172 .12085978 .59122726 .06401571 .53344729 .029815674 .47566734-.004384359 .40852867-.021484375 .33203126-.021484375 .24283855-.021484375 .17301433 .0013478597 .122558597 .04701233 .07210287 .0923411 .04736328 .15381877 .048339845 .23144531H.13964844M.3359375 .7373047V.7373047Z"/>
<path id="font_2_21" d="M.15234375 .5234375V.17590332C.15234375 .1491801 .15657552 .12734477 .16503906 .11039734 .18066406 .07911682 .20979817 .06347656 .2524414 .06347656 .3136393 .06347656 .355306 .09085083 .3774414 .14559937 .3894857 .17492676 .3955078 .21516927 .3955078 .2663269V.5234375H.48339845V0H.40039063L.4013672 .0771637C.38997398 .057195028 .3758138 .040339155 .35888673 .02659607 .32535807-.00090026858 .28466798-.0146484379 .2368164-.0146484379 .16227214-.0146484379 .11149088 .010299683 .084472659 .060195924 .06982422 .08693949 .0625 .12265015 .0625 .16732788V.5234375H.15234375M.27294923 .5361328V.5361328Z"/>
<path id="font_2_19" d="M.06689453 .5234375H.15039063V.4326172C.15722656 .4502767 .17399089 .4717814 .2006836 .49713136 .2273763 .52248129 .25813804 .53515627 .29296876 .53515627 .29459635 .53515627 .29736329 .5349579 .30126954 .53456118 .30517579 .5341746 .31184898 .5333964 .32128907 .53222659V.43945313C.31608073 .44062297 .3112793 .44140116 .30688478 .44178773 .30249024 .44218446 .2976888 .4423828 .29248048 .4423828 .24820964 .4423828 .2141927 .4280599 .19042969 .39941407 .16666667 .37076823 .15478516 .33789063 .15478516 .30078126V0H.06689453V.5234375Z"/>
<path id="font_2_14" d="M.08642578 .6021576C.08772787 .638443 .09407552 .66500857 .10546875 .68185427 .12597656 .7116597 .16552735 .7265625 .2241211 .7265625 .22965496 .7265625 .23535156 .7263997 .24121094 .7260742 .24707031 .7257487 .2537435 .72526046 .26123048 .7246094V.64453127C.25211589 .6449687 .2455241 .6452382 .24145508 .64533999 .23738607 .64545187 .2335612 .6455078 .22998047 .6455078 .20328777 .6455078 .18733724 .6386719 .1821289 .625 .17692058 .6113281 .1743164 .5764974 .1743164 .5205078H.26123048V.45117188H.17333985V0H.08642578V.45117188H.013671875V.5205078H.08642578V.6021576Z"/>
<path id="font_2_10" d="M.13183594 .1394043C.13183594 .114095058 .14111328 .09413656 .15966797 .07952881 .17822266 .06492106 .20019531 .057617189 .22558594 .057617189 .2565104 .057617189 .28645835 .06471761 .3154297 .07891846 .3642578 .10247803 .38867188 .14127605 .38867188 .1953125V.26611329C.3779297 .25886027 .36409507 .2528127 .34716798 .24797058 .33024089 .24313863 .3136393 .23983257 .29736329 .23805237L.24414063 .23184204C.21223958 .22799683 .1883138 .22153218 .17236328 .21244812 .14534505 .19718933 .13183594 .17284139 .13183594 .1394043M.34472657 .31689454C.36490885 .3194987 .37841798 .32796226 .3852539 .34228517 .38916017 .35012818 .39111329 .36140443 .39111329 .3761139 .39111329 .40618388 .38045249 .42799888 .35913087 .44155885 .33780924 .455129 .30729167 .46191407 .26757813 .46191407 .22167969 .46191407 .18912761 .44948326 .16992188 .42462159 .15917969 .4108785 .15218099 .39043174 .14892578 .36328126H.06689453C.06852213 .42791749 .08943685 .47288514 .12963867 .4981842 .1698405 .5234833 .21647136 .5361328 .26953126 .5361328 .3310547 .5361328 .38102214 .52441409 .4194336 .50097659 .45751954 .47753907 .4765625 .4410502 .4765625 .39151V.08985901C.4765625 .08073425 .47843424 .073404949 .48217774 .067871097 .48592124 .06233724 .4938151 .059570314 .5058594 .059570314 .5097656 .059570314 .51416018 .059814454 .51904299 .060302736 .5239258 .060791017 .5291341 .061523439 .53466799 .0625V-.0028076173C.5209961-.00676473 .5105794-.009236653 .50341799-.010223389 .4962565-.011220296 .48649089-.01171875 .4741211-.01171875 .44384767-.01171875 .421875-.0009104411 .40820313 .020706177 .40104167 .032170614 .3959961 .048380536 .3930664 .06933594 .37516276 .045633954 .34944663 .025060019 .31591798 .0076141359 .2823893-.009831746 .2454427-.018554688 .20507813-.018554688 .15657552-.018554688 .11694336-.0037790936 .08618164 .025772095 .055419923 .055323285 .040039064 .092300418 .040039064 .13670349 .040039064 .18535869 .05517578 .22307332 .08544922 .24984741 .115722659 .2766215 .1554362 .29311119 .20458985 .2993164L.34472657 .31689454M.27197267 .5361328V.5361328Z"/>
<path id="font_2_11" d="M.26611329 .53808596C.32503257 .53808596 .37296549 .5237274 .4099121 .49501039 .44685874 .46629334 .46907554 .41684977 .4765625 .3466797H.39111329C.38590495 .37890626 .37402345 .40568034 .35546876 .42700196 .33691407 .44832359 .3071289 .45898438 .26611329 .45898438 .2101237 .45898438 .17008464 .43170677 .1459961 .3771515 .1303711 .34176127 .122558597 .29808555 .122558597 .24612427 .122558597 .19384766 .1336263 .14984639 .15576172 .11412048 .17789714 .07840475 .21272786 .060546876 .2602539 .060546876 .29671226 .060546876 .3256022 .0716095 .34692384 .09373474 .36824546 .115859989 .38297526 .1461385 .39111329 .18457031H.4765625C.46679688 .115234378 .4423828 .06453451 .4033203 .032470704 .3642578 .00040690104 .31429038-.015625 .25341798-.015625 .1850586-.015625 .13053386 .009379069 .08984375 .059387208 .049153646 .10940552 .028808594 .17188008 .028808594 .24681092 .028808594 .33868919 .05110677 .41020204 .095703128 .4613495 .14029949 .51250717 .19710286 .53808596 .26611329 .53808596M.2524414 .5361328V.5361328Z"/>
<path id="font_2_13" d="M.28222657 .53515627C.31933595 .53515627 .355306 .52644857 .39013673 .5090332 .42496745 .49161784 .4514974 .4690806 .46972657 .4414215 .4873047 .41505433 .49902345 .3842977 .5048828 .3491516 .5100911 .32506309 .5126953 .28647868 .5126953 .23339844H.12939453C.13102214 .18033855 .14355469 .13777669 .16699219 .10571289 .19042969 .073649089 .22672527 .057617189 .2758789 .057617189 .32177735 .057617189 .35839845 .07261658 .3857422 .10261536 .4013672 .12003072 .4124349 .14018758 .4189453 .16308594H.5053711C.50309249 .14398194 .49552409 .122690837 .48266603 .09921265 .46980796 .07574463 .45540367 .05656433 .43945313 .041671754 .4127604 .01576233 .37972007-.0017242432 .34033204-.010787964 .3191732-.01596578 .2952474-.018554688 .2685547-.018554688 .20345052-.018554688 .14827474 .0051472985 .103027347 .05255127 .05777995 .09995524 .03515625 .16634114 .03515625 .25170899 .03515625 .33576457 .057942708 .40401713 .103515628 .45646668 .14908855 .5089264 .20865886 .53515627 .28222657 .53515627M.42236329 .30371095C.41878257 .34191896 .41048179 .37245179 .39746095 .39530946 .3733724 .4377594 .33317057 .45898438 .27685548 .45898438 .23649089 .45898438 .20263672 .44437156 .17529297 .41514588 .14794922 .3859202 .13346355 .34877525 .13183594 .30371095H.42236329M.27392579 .5361328V.5361328Z"/>
<path id="font_2_1" d="M0 0Z"/>
<path id="font_2_2" d="M.2705078 .7001953C.3610026 .7001953 .42643229 .66289779 .46679688 .5883026 .49804688 .5306447 .5136719 .45165 .5136719 .35131837 .5136719 .25620524 .49951173 .17754109 .4711914 .11532593 .43017579 .026072184 .3631185-.018554688 .27001954-.018554688 .18603516-.018554688 .123535159 .017929078 .08251953 .09089661 .048339845 .15180969 .03125 .23357137 .03125 .33618165 .03125 .41565959 .041503908 .48390199 .06201172 .5409088 .10042318 .6470998 .16992188 .7001953 .2705078 .7001953M.26953126 .061523439C.31510417 .061523439 .35139976 .08168539 .37841798 .12200928 .4054362 .16234334 .4189453 .23747762 .4189453 .3474121 .4189453 .42676798 .4091797 .49205528 .38964845 .5432739 .3701172 .59450277 .332194 .6201172 .2758789 .6201172 .2241211 .6201172 .1862793 .59580489 .16235352 .5471802 .13842774 .4985555 .12646485 .42692057 .12646485 .3322754 .12646485 .26105754 .13411458 .20381673 .14941406 .16055298 .17285156 .09453329 .21289063 .061523439 .26953126 .061523439Z"/>
<path id="font_3_1" d="M0 0Z"/>
<path id="font_2_3" d="M.095703128 .4951172V.5625C.15917969 .5686849 .20345052 .5790202 .22851563 .59350588 .25358073 .6079915 .2722982 .6422526 .28466798 .69628909H.3540039V0H.2602539V.4951172H.095703128Z"/>
<path id="font_2_4" d="M.03125 0C.034505208 .060221357 .04695638 .11263021 .068603519 .15722656 .09025065 .20182292 .13248699 .24235027 .1953125 .2788086L.2890625 .3330078C.3310547 .35742188 .3605143 .3782908 .3774414 .39561463 .40413413 .4227346 .41748048 .45377604 .41748048 .488739 .41748048 .52959188 .40527345 .562027 .38085938 .5860443 .3564453 .61006167 .32389323 .6220703 .28320313 .6220703 .22298177 .6220703 .18131511 .5991516 .15820313 .5533142 .14583333 .52875778 .13899739 .4947103 .13769531 .45117188H.048339845C.049316408 .5121663 .060546876 .5619049 .08203125 .6003876 .12011719 .66822817 .18733724 .70214846 .2836914 .70214846 .36376954 .70214846 .4222819 .68047079 .45922853 .6371155 .49617515 .5937703 .51464846 .5455373 .51464846 .49241639 .51464846 .4363556 .49495445 .388443 .4555664 .3486786 .43277995 .3255361 .3919271 .29752604 .3330078 .26464845L.26611329 .22753906C.23421224 .20996094 .20914714 .19319661 .19091797 .1772461 .15836589 .14892578 .13785808 .11751302 .12939453 .08300781H.51123049V0H.03125Z"/>
<path id="font_2_5" d="M.25976563-.018554688C.17708333-.018554688 .11710612 .004196167 .079833988 .049697877 .042561849 .095209758 .023925782 .15058391 .023925782 .21582031H.115722659C.119628909 .1704305 .12809246 .13744609 .14111328 .116867069 .16389974 .07997131 .20507813 .061523439 .26464845 .061523439 .3108724 .061523439 .34798179 .07389323 .37597657 .09863281 .40397135 .1233724 .41796876 .15527344 .41796876 .19433594 .41796876 .24251302 .40323893 .27620445 .3737793 .29541017 .34431968 .31461589 .3033854 .32421876 .25097657 .32421876 .24511719 .32421876 .23917644 .32413737 .2331543 .3239746 .22713216 .32381187 .22102864 .32356773 .21484375 .3232422V.4013672C.22395833 .40019737 .23160808 .39941407 .23779297 .39901734 .24397786 .39863078 .25065104 .3984375 .2578125 .3984375 .2906901 .3984375 .31770835 .40363566 .3388672 .41403199 .37597657 .43222047 .39453126 .46470133 .39453126 .5114746 .39453126 .54622396 .38216148 .5730184 .35742188 .5918579 .33268229 .61069747 .3038737 .6201172 .2709961 .6201172 .21240235 .6201172 .171875 .6007131 .14941406 .5619049 .13704427 .5405629 .13004558 .51016238 .12841797 .47070313H.041503908C.041503908 .5225627 .051920576 .5666453 .072753909 .60295107 .108561199 .6677806 .17154949 .7001953 .26171876 .7001953 .3330078 .7001953 .3881836 .6843465 .4272461 .6526489 .4663086 .6209615 .48583985 .5750529 .48583985 .5149231 .48583985 .47201539 .47428385 .4372355 .45117188 .4105835 .43684898 .39401246 .41829429 .38101197 .3955078 .37158204 .43229167 .36149089 .4610189 .34204103 .48168946 .31323243 .50236007 .28442384 .5126953 .2491862 .5126953 .20751953 .5126953 .14078777 .49072267 .08642578 .44677735 .044433595 .40283204 .0024414063 .34049479-.018554688 .25976563-.018554688Z"/>
<path id="font_2_6" d="M.3305664 .24902344V.5639038L.10644531 .24902344H.3305664M.33203126 0V.17089844H.025390625V.25827027L.34570313 .7011719H.41992188V.24902344H.5229492V.17089844H.41992188V0H.33203126Z"/>
<path id="font_2_7" d="M.123535159 .17773438C.12939453 .12740071 .15266927 .09259033 .19335938 .07330322 .2141927 .06349691 .23828125 .05859375 .265625 .05859375 .31770835 .05859375 .35628257 .07524618 .38134767 .108551029 .40641276 .14185588 .4189453 .17875672 .4189453 .21925354 .4189453 .26823426 .40405274 .30611167 .37426759 .33288575 .34448243 .35965983 .3087565 .37304688 .26708985 .37304688 .2368164 .37304688 .21085613 .36714173 .18920899 .35533143 .16756185 .34352113 .14908855 .32696534 .13378906 .30566407L.057617189 .31054688 .110839847 .6875H.4741211V.60253909H.17675781L.14697266 .40863038C.1632487 .42115275 .17871094 .4305471 .19335938 .43681336 .21940105 .44768778 .24951172 .453125 .2836914 .453125 .347819 .453125 .402181 .43236796 .44677735 .39085389 .4913737 .3493398 .5136719 .29671226 .5136719 .23297119 .5136719 .1666158 .49324546 .10810343 .45239259 .057434083 .4115397 .0067749025 .34635417-.018554688 .25683595-.018554688 .1998698-.018554688 .14949544-.0024820965 .10571289 .029663086 .06193034 .06180827 .037434896 .11116537 .032226564 .17773438H.123535159Z"/>
<path id="font_4_2" d="M.5878906 .25146485 .6826172 .22753906C.66276046 .14973958 .6270345 .090413417 .57543948 .049560548 .5238444 .008707683 .46077476-.01171875 .38623048-.01171875 .30908204-.01171875 .24633789 .0039876305 .19799805 .03540039 .1496582 .06681315 .11287435 .11230469 .087646488 .171875 .06241862 .23144531 .049804689 .29541017 .049804689 .36376954 .049804689 .4383138 .06404623 .5033366 .0925293 .5588379 .12101237 .6143392 .16153972 .65649417 .21411133 .68530276 .26668296 .7141113 .32454429 .7285156 .3876953 .7285156 .4593099 .7285156 .51953127 .71028646 .5683594 .6738281 .6171875 .6373698 .6512044 .5861003 .67041018 .52001956L.57714846 .49804688C.5605469 .5501302 .5364583 .5880534 .5048828 .6118164 .47330729 .6355794 .43359376 .64746096 .3857422 .64746096 .33072917 .64746096 .28474937 .63427737 .24780274 .60791018 .21085613 .58154299 .18489583 .5461426 .16992188 .501709 .15494792 .4572754 .14746094 .41145835 .14746094 .3642578 .14746094 .3033854 .15633138 .25024415 .17407227 .20483399 .19181316 .15942383 .21940105 .12548828 .25683595 .103027347 .29427085 .080566409 .3347982 .06933594 .37841798 .06933594 .43147788 .06933594 .47639976 .084635417 .5131836 .115234378 .54996749 .14583333 .5748698 .19124349 .5878906 .25146485Z"/>
<path id="font_4_9" d="M.06201172-.20025635 .052246095-.11816406C.07145182-.1233724 .08821615-.12597656 .10253906-.12597656 .12207031-.12597656 .13769531-.12271627 .14941406-.11619568 .16113281-.10967509 .17073567-.10054525 .17822266-.08880615 .18375652-.08000692 .19270833-.058166505 .20507813-.023284913 .20670574-.018391928 .20930989-.011220296 .21289063-.0017700195L.016113282 .5185547H.110839847L.21875 .21817017C.23274739 .18007405 .24527996 .14002483 .25634767 .09802246 .2664388 .13847859 .27848307 .17790222 .29248048 .21629334L.4033203 .5185547H.49121095L.2939453-.008728027C.27278648-.06584676 .25634767-.10517883 .2446289-.12672425 .2290039-.15577698 .21110027-.17707317 .19091797-.1906128 .17073567-.2041626 .14664714-.2109375 .118652347-.2109375 .10172526-.2109375 .082845058-.20737712 .06201172-.20025635Z"/>
<path id="font_4_6" d="M.063964847 0V.7158203H.15185547V0H.063964847Z"/>
<path id="font_4_5" d="M.06640625 .6152344V.7158203H.15429688V.6152344H.06640625M.06640625 0V.5185547H.15429688V0H.06640625Z"/>
<path id="font_4_7" d="M.06591797 0V.5185547H.14501953V.44482423C.18310547 .50179037 .23811849 .53027346 .3100586 .53027346 .3413086 .53027346 .3700358 .5246582 .39624024 .51342776 .42244468 .50219729 .44205729 .48746745 .45507813 .46923829 .46809898 .45100913 .47721354 .42936198 .48242188 .40429688 .4856771 .38802085 .4873047 .35953776 .4873047 .31884767V0H.39941407V.3154297C.39941407 .35123698 .3959961 .37801109 .38916017 .39575196 .38232423 .41349284 .37019859 .42765299 .3527832 .43823243 .33536784 .44881187 .3149414 .45410157 .2915039 .45410157 .254069 .45410157 .22176107 .44222007 .19458008 .41845704 .1673991 .394694 .1538086 .34960938 .1538086 .28320313V0H.06591797Z"/>
<path id="font_4_3" d="M.40234376 0V.06542969C.36946617 .0139973959 .3211263-.01171875 .25732423-.01171875 .21598308-.01171875 .17797852-.00032552085 .14331055 .022460938 .10864258 .045247396 .08178711 .077067058 .06274414 .11791992 .043701173 .15877278 .034179689 .20572917 .034179689 .25878907 .034179689 .31054688 .04280599 .35750328 .060058595 .3996582 .077311199 .44181315 .1031901 .4741211 .13769531 .49658204 .17220052 .51904299 .21077474 .53027346 .25341798 .53027346 .28466798 .53027346 .3125 .52363589 .33691407 .5103607 .36132813 .49709574 .3811849 .47981263 .39648438 .45851136V.7158203H.48388673V0H.40234376M.12451172 .25854493C.12451172 .19222005 .13850911 .14263916 .1665039 .109802249 .1944987 .07696533 .22753906 .060546876 .265625 .060546876 .30403648 .060546876 .33666993 .07623291 .3635254 .10760498 .39038087 .13897705 .4038086 .18685405 .4038086 .25123597 .4038086 .32210795 .39013673 .37412516 .36279298 .4072876 .33544923 .44045005 .3017578 .45703126 .26171876 .45703126 .22265625 .45703126 .19002278 .44110108 .16381836 .40924073 .13761394 .37738038 .12451172 .32714845 .12451172 .25854493Z"/>
<path id="font_4_4" d="M.42089845 .16796875 .51171877 .15625C.49739585 .103037517 .47086589 .06173706 .4321289 .032348634 .39339195 .0029703777 .34391276-.01171875 .2836914-.01171875 .20784505-.01171875 .14770508 .01163737 .103271488 .05834961 .05883789 .10506185 .036621095 .17057292 .036621095 .2548828 .036621095 .3421224 .05908203 .40983073 .104003909 .4580078 .14892578 .5061849 .20719402 .53027346 .2788086 .53027346 .34814454 .53027346 .40478517 .5067088 .44873048 .45957948 .49267579 .41246034 .51464846 .34616599 .51464846 .2606964 .51464846 .25549827 .51448568 .247701 .51416018 .23730469H.1274414C.13069661 .18017578 .14680989 .13643392 .17578125 .1060791 .20475261 .07572428 .24088542 .060546876 .2841797 .060546876 .31640626 .060546876 .34391276 .06908671 .36669923 .08616638 .3894857 .103256229 .4075521 .13052368 .42089845 .16796875M.13232422 .3095703H.421875C.41796876 .3530477 .40690104 .38565574 .38867188 .4073944 .3606771 .4411367 .3243815 .4580078 .27978517 .4580078 .23942058 .4580078 .20548503 .4445394 .17797852 .41760255 .150472 .39067588 .1352539 .35466514 .13232422 .3095703Z"/>
<path id="font_4_8" d="M.064941409 0V.5185547H.14404297V.4399414C.16422527 .47672526 .18286133 .50097659 .19995117 .5126953 .21704102 .52441409 .23583985 .53027346 .25634767 .53027346 .28597007 .53027346 .31608073 .5208333 .3466797 .5019531L.31640626 .4204712C.29492188 .43312583 .2734375 .43945313 .25195313 .43945313 .23274739 .43945313 .2154948 .43367515 .20019531 .42211915 .18489583 .41056315 .17399089 .39453126 .16748047 .37402345 .15771485 .34277345 .15283203 .30859376 .15283203 .27148438V0H.064941409Z"/>
<path id="font_4_1" d="M0 0Z"/>
<path id="font_5_1" d="M.034179689 0 .18408203 .7158203H.27197267L.17919922 .27212525 .43701173 .5185547H.55371096L.33251954 .3252411 .4663086 0H.3696289L.26611329 .26683045 .1586914 .17381287 .122558597 0H.034179689Z"/>
<path id="font_2_18" d="M.28515626 .057617189C.32617188 .057617189 .36027018 .07486979 .38745118 .109375 .41463218 .14389038 .42822267 .1954956 .42822267 .26419068 .42822267 .3060608 .42220054 .34204103 .41015626 .37213136 .38736979 .43003337 .34570313 .45898438 .28515626 .45898438 .22428386 .45898438 .18261719 .42840068 .16015625 .36723329 .14811199 .33451844 .14208985 .29297386 .14208985 .24259949 .14208985 .20204163 .14811199 .16753133 .16015625 .1390686 .1829427 .08476766 .22460938 .057617189 .28515626 .057617189M.057617189 .5205078H.1430664V.45162965C.16064453 .47540284 .17985027 .49379985 .2006836 .5068207 .23030599 .5263621 .26513673 .5361328 .30517579 .5361328 .36442057 .5361328 .41471354 .5133667 .4560547 .46783448 .49739585 .42230226 .5180664 .3572693 .5180664 .2727356 .5180664 .1585083 .48828126 .07691447 .42871095 .027954102 .39095054-.0030517579 .34700523-.018554688 .296875-.018554688 .25748698-.018554688 .22444661-.009984334 .1977539 .007156372 .1821289 .016860962 .16471355 .033518476 .14550781 .057128908V-.20898438H.057617189V.5205078Z"/>
<path id="font_2_15" d="M.064453128 .5205078H.1538086V0H.064453128V.5205078M.064453128 .71777346H.1538086V.61816409H.064453128V.71777346Z"/>
<path id="font_2_17" d="M.064453128 .5234375H.14794922V.44921876C.1726888 .47981773 .19889324 .50179037 .2265625 .5151367 .25423179 .5284831 .2849935 .53515627 .31884767 .53515627 .3930664 .53515627 .44319663 .5092519 .46923829 .45744325 .4835612 .42910258 .49072267 .38853965 .49072267 .3357544V0H.4013672V.3299408C.4013672 .36188255 .39664714 .38762919 .38720704 .4071808 .37158204 .4397634 .34326173 .4560547 .3022461 .4560547 .28141276 .4560547 .2643229 .4539388 .25097657 .44970704 .22688802 .4425354 .20572917 .42819724 .1875 .4066925 .17285156 .38941957 .16333008 .37157694 .15893555 .35316468 .15454102 .3347524 .15234375 .30844117 .15234375 .27423097V0H.064453128V.5234375M.2709961 .5361328V.5361328Z"/>
<path id="font_2_12" d="M.12011719 .2553711C.12011719 .19923909 .1319987 .15224712 .15576172 .11439514 .17952474 .076543178 .21761067 .057617189 .27001954 .057617189 .31070964 .057617189 .3441569 .075154628 .37036134 .11022949 .39656578 .14531453 .40966798 .19565328 .40966798 .26124574 .40966798 .32748924 .39615885 .37651573 .36914063 .4083252 .3421224 .44014488 .3087565 .4560547 .26904298 .4560547 .22477214 .4560547 .18888347 .4390869 .16137696 .40515138 .13387044 .37121583 .12011719 .32128907 .12011719 .2553711M.2524414 .53222659C.29248048 .53222659 .32600913 .52381899 .35302735 .5070038 .36865235 .4972992 .38639323 .48031617 .40625 .4560547V.71875H.49072267V0H.4116211V.07229614C.39111329 .04023234 .36686198 .017074585 .3388672 .002822876 .3108724-.011428833 .2788086-.018554688 .24267578-.018554688 .18440755-.018554688 .13395183 .0059407555 .091308597 .05493164 .048665365 .10392252 .02734375 .16910808 .02734375 .25048829 .02734375 .32666017 .04679362 .39265953 .08569336 .44848634 .1245931 .5043132 .18017578 .53222659 .2524414 .53222659Z"/>
<path id="font_2_16" d="M.06689453 .71777346H.15478516V0H.06689453V.71777346Z"/>
<path id="font_2_8" d="M.08544922 .71777346H.40820313C.47200523 .71777346 .5234375 .6997884 .5625 .66381838 .6015625 .6278483 .62109377 .5773112 .62109377 .51220706 .62109377 .45621745 .6036784 .4074707 .56884768 .3659668 .5340169 .3244629 .48046876 .30371095 .40820313 .30371095H.18261719V0H.08544922V.71777346M.5229492 .5114746C.5229492 .56410726 .50341799 .5998433 .46435548 .61868289 .4428711 .62875369 .41341148 .63378909 .37597657 .63378909H.18261719V.3857422H.37597657C.41959635 .3857422 .45499674 .39499919 .48217774 .41351319 .5093587 .43203736 .5229492 .46469117 .5229492 .5114746Z"/>
<path id="font_2_20" d="M.08203125 .66796877H.17089844V.5234375H.25439454V.4501953H.17089844V.110183719C.17089844 .09202576 .17708333 .07986959 .18945313 .07371521 .19628906 .07014465 .2076823 .068359378 .22363281 .068359378 .22786458 .068359378 .23242188 .06846619 .23730469 .06867981 .2421875 .0689036 .24788411 .06944784 .25439454 .0703125V0C.24430339-.0031026204 .23380535-.005340576 .22290039-.006713867 .21199544-.008097331 .20019531-.0087890629 .1875-.0087890629 .14648438-.0087890629 .118652347 .0016988119 .104003909 .02267456 .08935547 .04365031 .08203125 .070882167 .08203125 .10437012V.4501953H.011230469V.5234375H.08203125V.66796877Z"/>
</defs>
<g clip-path="url(#clip_0)">
<g clip-path="url(#clip_1)">
<path transform="matrix(1,0,0,-1,0,540)" d="M0 539.9999H719.9999V.00003079383H0Z" fill="#ffffff" fill-rule="evenodd"/>
<path transform="matrix(.00007874014,0,0,-.00007874014,74.99999,130.00009)" stroke-width="12700" stroke-linecap="butt" stroke-linejoin="round" fill="none" stroke="#000000" d="M-.01290895 .02563465 496023.5 120981.4"/>
<path transform="matrix(1,0,0,-1,0,540)" d="M110.8817 415.6636 116 419.9999 109.46 421.4928Z" fill-rule="evenodd"/>
<path transform="matrix(.00007874014,0,0,-.00007874014,74.99999,176)" stroke-width="12700" stroke-linecap="butt" stroke-linejoin="round" fill="none" stroke="#000000" d="M-.01290895-.1766358 496023.5 120981.2"/>
<path transform="matrix(1,0,0,-1,0,540)" d="M110.8817 369.6637 116 374 109.46 375.4928Z" fill-rule="evenodd"/>
<path transform="matrix(1,0,0,-1,0,540)" d="M172 375.8633C172 374.6833 178.7157 373.7267 187 373.7267 195.2842 373.7267 202 374.6833 202 375.8633V330.1366C202 328.9566 195.2842 328 187 328 178.7157 328 172 328.9566 172 330.1366Z" fill="#cbcbcb" fill-rule="evenodd"/>
<path transform="matrix(1,0,0,-1,0,540)" d="M172 375.8633C172 377.0434 178.7157 378 187 378 195.2842 378 202 377.0434 202 375.8633 202 374.6833 195.2842 373.7267 187 373.7267 178.7157 373.7267 172 374.6833 172 375.8633Z" fill="#e0e0e0" fill-rule="evenodd"/>
<path transform="matrix(.00007874014,0,0,.00007874014,172,162)" stroke-width="12700" stroke-linecap="butt" stroke-linejoin="round" fill="none" stroke="#000000" d="M381000 27135.32C381000 42121.23 295710.2 54270.1 190500 54270.1 85289.72 54270.1-.0516358 42121.23-.0516358 27135.32-.0516358 12149.02 85289.72 .1492921 190500 .1492921 295710.2 .1492921 381000 12149.02 381000 27135.32ZL381000 607865.1C381000 622851.4 295710.2 635000.2 190500 635000.2 85289.72 635000.2-.0516358 622851.4-.0516358 607865.1V27135.32"/>
<path transform="matrix(1,0,0,-1,0,540)" d="M90.99998 376C90.99998 385.3888 133.0852 393 185 393 236.9147 393 278.9999 385.3888 278.9999 376 278.9999 366.6111 236.9147 359 185 359 133.0852 359 90.99998 366.6111 90.99998 376Z" fill="#ffffff" fill-rule="evenodd"/>
<path transform="matrix(.00007874014,0,0,.00007874014,90.99998,147)" stroke-width="12700" stroke-linecap="butt" stroke-linejoin="round" fill="none" stroke="#000000" d="M-.01605228 215900.2C-.01605228 96661.68 534482.4 .1199952 1193800 .1199952 1853117 .1199952 2387600 96661.68 2387600 215900.2 2387600 335138.2 1853117 431800.2 1193800 431800.2 534482.4 431800.2-.01605228 335138.2-.01605228 215900.2Z"/>
<path transform="matrix(.00007874014,0,0,-.00007874014,74.99999,85.00009)" stroke-width="12700" stroke-linecap="butt" stroke-linejoin="round" fill="none" stroke="#000000" d="M-.01290895 .1135253 496023.5 120981.5"/>
<path transform="matrix(1,0,0,-1,0,540)" d="M110.8817 460.6636 116 464.9999 109.46 466.4928Z" fill-rule="evenodd"/>
<use data-text="S" xlink:href="#font_2_9" transform="matrix(16,0,0,-16,.5749604,63.150087)"/>
<use data-text="u" xlink:href="#font_2_21" transform="matrix(16,0,0,-16,11.246962,63.150087)"/>
<use data-text="r" xlink:href="#font_2_19" transform="matrix(16,0,0,-16,20.146162,63.150087)"/>
<use data-text="f" xlink:href="#font_2_14" transform="matrix(16,0,0,-16,25.474162,63.150087)"/>
<use data-text="a" xlink:href="#font_2_10" transform="matrix(16,0,0,-16,29.91896,63.150087)"/>
<use data-text="c" xlink:href="#font_2_11" transform="matrix(16,0,0,-16,38.81816,63.150087)"/>
<use data-text="e" xlink:href="#font_2_13" transform="matrix(16,0,0,-16,46.81816,63.150087)"/>
<use data-text=" " xlink:href="#font_2_1" transform="matrix(16,0,0,-16,55.71736,63.150087)"/>
<use data-text="0" xlink:href="#font_2_2" transform="matrix(16,0,0,-16,60.162164,63.150087)"/>
<use data-text="&#xfffd;" xlink:href="#font_3_1" transform="matrix(16,0,0,-16,69.06136,63.150087)"/>
<use data-text="S" xlink:href="#font_2_9" transform="matrix(16,0,0,-16,.5749604,90.400089)"/>
<use data-text="u" xlink:href="#font_2_21" transform="matrix(16,0,0,-16,11.246962,90.400089)"/>
<use data-text="r" xlink:href="#font_2_19" transform="matrix(16,0,0,-16,20.146162,90.400089)"/>
<use data-text="f" xlink:href="#font_2_14" transform="matrix(16,0,0,-16,25.474162,90.400089)"/>
<use data-text="a" xlink:href="#font_2_10" transform="matrix(16,0,0,-16,29.91896,90.400089)"/>
<use data-text="c" xlink:href="#font_2_11" transform="matrix(16,0,0,-16,38.81816,90.400089)"/>
<use data-text="e" xlink:href="#font_2_13" transform="matrix(16,0,0,-16,46.81816,90.400089)"/>
<use data-text=" " xlink:href="#font_2_1" transform="matrix(16,0,0,-16,55.71736,90.400089)"/>
<use data-text="1" xlink:href="#font_2_3" transform="matrix(16,0,0,-16,60.162164,90.400089)"/>
<use data-text="&#xfffd;" xlink:href="#font_3_1" transform="matrix(16,0,0,-16,69.06136,90.400089)"/>
<use data-text="S" xlink:href="#font_2_9" transform="matrix(16,0,0,-16,.5749604,108.150089)"/>
<use data-text="u" xlink:href="#font_2_21" transform="matrix(16,0,0,-16,11.246962,108.150089)"/>
<use data-text="r" xlink:href="#font_2_19" transform="matrix(16,0,0,-16,20.146162,108.150089)"/>
<use data-text="f" xlink:href="#font_2_14" transform="matrix(16,0,0,-16,25.474162,108.150089)"/>
<use data-text="a" xlink:href="#font_2_10" transform="matrix(16,0,0,-16,29.91896,108.150089)"/>
<use data-text="c" xlink:href="#font_2_11" transform="matrix(16,0,0,-16,38.81816,108.150089)"/>
<use data-text="e" xlink:href="#font_2_13" transform="matrix(16,0,0,-16,46.81816,108.150089)"/>
<use data-text=" " xlink:href="#font_2_1" transform="matrix(16,0,0,-16,55.71736,108.150089)"/>
<use data-text="2" xlink:href="#font_2_4" transform="matrix(16,0,0,-16,60.162164,108.150089)"/>
<use data-text="&#xfffd;" xlink:href="#font_3_1" transform="matrix(16,0,0,-16,69.06136,108.150089)"/>
<use data-text="S" xlink:href="#font_2_9" transform="matrix(16,0,0,-16,.5749604,135.40009)"/>
<use data-text="u" xlink:href="#font_2_21" transform="matrix(16,0,0,-16,11.246962,135.40009)"/>
<use data-text="r" xlink:href="#font_2_19" transform="matrix(16,0,0,-16,20.146162,135.40009)"/>
<use data-text="f" xlink:href="#font_2_14" transform="matrix(16,0,0,-16,25.474162,135.40009)"/>
<use data-text="a" xlink:href="#font_2_10" transform="matrix(16,0,0,-16,29.91896,135.40009)"/>
<use data-text="c" xlink:href="#font_2_11" transform="matrix(16,0,0,-16,38.81816,135.40009)"/>
<use data-text="e" xlink:href="#font_2_13" transform="matrix(16,0,0,-16,46.81816,135.40009)"/>
<use data-text=" " xlink:href="#font_2_1" transform="matrix(16,0,0,-16,55.71736,135.40009)"/>
<use data-text="3" xlink:href="#font_2_5" transform="matrix(16,0,0,-16,60.162164,135.40009)"/>
<use data-text="&#xfffd;" xlink:href="#font_3_1" transform="matrix(16,0,0,-16,69.06136,135.40009)"/>
<use data-text="S" xlink:href="#font_2_9" transform="matrix(16,0,0,-16,.5749604,154.15009)"/>
<use data-text="u" xlink:href="#font_2_21" transform="matrix(16,0,0,-16,11.246962,154.15009)"/>
<use data-text="r" xlink:href="#font_2_19" transform="matrix(16,0,0,-16,20.146162,154.15009)"/>
<use data-text="f" xlink:href="#font_2_14" transform="matrix(16,0,0,-16,25.474162,154.15009)"/>
<use data-text="a" xlink:href="#font_2_10" transform="matrix(16,0,0,-16,29.91896,154.15009)"/>
<use data-text="c" xlink:href="#font_2_11" transform="matrix(16,0,0,-16,38.81816,154.15009)"/>
<use data-text="e" xlink:href="#font_2_13" transform="matrix(16,0,0,-16,46.81816,154.15009)"/>
<use data-text=" " xlink:href="#font_2_1" transform="matrix(16,0,0,-16,55.71736,154.15009)"/>
<use data-text="4" xlink:href="#font_2_6" transform="matrix(16,0,0,-16,60.162164,154.15009)"/>
<use data-text="&#xfffd;" xlink:href="#font_3_1" transform="matrix(16,0,0,-16,69.06136,154.15009)"/>
<use data-text="S" xlink:href="#font_2_9" transform="matrix(16,0,0,-16,.5749604,181.4)"/>
<use data-text="u" xlink:href="#font_2_21" transform="matrix(16,0,0,-16,11.246962,181.4)"/>
<use data-text="r" xlink:href="#font_2_19" transform="matrix(16,0,0,-16,20.146162,181.4)"/>
<use data-text="f" xlink:href="#font_2_14" transform="matrix(16,0,0,-16,25.474162,181.4)"/>
<use data-text="a" xlink:href="#font_2_10" transform="matrix(16,0,0,-16,29.91896,181.4)"/>
<use data-text="c" xlink:href="#font_2_11" transform="matrix(16,0,0,-16,38.81816,181.4)"/>
<use data-text="e" xlink:href="#font_2_13" transform="matrix(16,0,0,-16,46.81816,181.4)"/>
<use data-text=" " xlink:href="#font_2_1" transform="matrix(16,0,0,-16,55.71736,181.4)"/>
<use data-text="5" xlink:href="#font_2_7" transform="matrix(16,0,0,-16,60.162164,181.4)"/>
<use data-text="&#xfffd;" xlink:href="#font_3_1" transform="matrix(16,0,0,-16,69.06136,181.4)"/>
<path transform="matrix(.00007874014,0,0,.00007874014,74.99999,147)" stroke-width="12700" stroke-linecap="butt" stroke-linejoin="round" fill="none" stroke="#000000" d="M-.01290895 .1199952 496023.5 120981.5"/>
<path transform="matrix(1,0,0,-1,0,540)" d="M110.8817 387.3363 116 383 109.46 381.5071Z" fill-rule="evenodd"/>
<path transform="matrix(.00007874014,0,0,.00007874014,142,159)" stroke-width="12700" stroke-linecap="butt" stroke-linejoin="round" fill="none" stroke="#000000" d="M-.0414429 82550.16C-.0414429 36959.13 267241.2 .1434327 596899.9 .1434327 926558.7 .1434327 1193800 36959.13 1193800 82550.16 1193800 128141.2 926558.7 165100.2 596899.9 165100.2 267241.2 165100.2-.0414429 128141.2-.0414429 82550.16Z"/>
<path transform="matrix(1,0,0,-1,0,540)" d="M172 420.8633C172 419.6833 178.7157 418.7267 187 418.7267 195.2842 418.7267 202 419.6833 202 420.8633V375.1366C202 373.9566 195.2842 373 187 373 178.7157 373 172 373.9566 172 375.1366Z" fill="#cbcbcb" fill-rule="evenodd"/>
<path transform="matrix(1,0,0,-1,0,540)" d="M172 420.8633C172 422.0434 178.7157 423 187 423 195.2842 423 202 422.0434 202 420.8633 202 419.6833 195.2842 418.7267 187 418.7267 178.7157 418.7267 172 419.6833 172 420.8633Z" fill="#e0e0e0" fill-rule="evenodd"/>
<path transform="matrix(.00007874014,0,0,.00007874014,172,117)" stroke-width="12700" stroke-linecap="butt" stroke-linejoin="round" fill="none" stroke="#000000" d="M381000 27135.23C381000 42121.14 295710.2 54270.01 190500 54270.01 85289.72 54270.01-.0516358 42121.14-.0516358 27135.23-.0516358 12148.93 85289.72 .06140143 190500 .06140143 295710.2 .06140143 381000 12148.93 381000 27135.23ZL381000 607865C381000 622851.3 295710.2 635000.2 190500 635000.2 85289.72 635000.2-.0516358 622851.3-.0516358 607865V27135.23"/>
<path transform="matrix(1,0,0,-1,0,540)" d="M92.99998 423.9999C92.99998 433.3888 135.0852 440.9999 187 440.9999 238.9147 440.9999 280.9999 433.3888 280.9999 423.9999 280.9999 414.6111 238.9147 406.9999 187 406.9999 135.0852 406.9999 92.99998 414.6111 92.99998 423.9999Z" fill="#ffffff" fill-rule="evenodd"/>
<path transform="matrix(.00007874014,0,0,.00007874014,92.99998,99.00009)" stroke-width="12700" stroke-linecap="butt" stroke-linejoin="round" fill="none" stroke="#000000" d="M-.01214603 215900C-.01214603 96661.47 534482.4-.08618152 1193800-.08618152 1853117-.08618152 2387600 96661.47 2387600 215900 2387600 335138 1853117 431800 1193800 431800 534482.4 431800-.01214603 335138-.01214603 215900Z"/>
<path transform="matrix(.00007874014,0,0,.00007874014,141,114.00009)" stroke-width="12700" stroke-linecap="butt" stroke-linejoin="round" fill="none" stroke="#000000" d="M-.04339603 82549.95C-.04339603 36958.93 267241.2-.05688465 596899.9-.05688465 926558.7-.05688465 1193800 36958.93 1193800 82549.95 1193800 128141 926558.7 165100 596899.9 165100 267241.2 165100-.04339603 128141-.04339603 82549.95Z"/>
<path transform="matrix(1,0,0,-1,0,540)" d="M172 465.8633C172 464.6833 178.7157 463.7267 187 463.7267 195.2842 463.7267 202 464.6833 202 465.8633V420.1366C202 418.9565 195.2842 417.9999 187 417.9999 178.7157 417.9999 172 418.9565 172 420.1366Z" fill="#cbcbcb" fill-rule="evenodd"/>
<path transform="matrix(1,0,0,-1,0,540)" d="M172 465.8633C172 467.0433 178.7157 467.9999 187 467.9999 195.2842 467.9999 202 467.0433 202 465.8633 202 464.6833 195.2842 463.7267 187 463.7267 178.7157 463.7267 172 464.6833 172 465.8633Z" fill="#e0e0e0" fill-rule="evenodd"/>
<path transform="matrix(.00007874014,0,0,.00007874014,172,72.00009)" stroke-width="12700" stroke-linecap="butt" stroke-linejoin="round" fill="none" stroke="#000000" d="M381000 27135.03C381000 42120.94 295710.2 54269.81 190500 54269.81 85289.72 54269.81-.0516358 42120.94-.0516358 27135.03-.0516358 12148.73 85289.72-.1389159 190500-.1389159 295710.2-.1389159 381000 12148.73 381000 27135.03ZL381000 607864.8C381000 622851.1 295710.2 634999.9 190500 634999.9 85289.72 634999.9-.0516358 622851.1-.0516358 607864.8V27135.03"/>
<path transform="matrix(1,0,0,-1,0,540)" d="M89.99998 466.9999C89.99998 476.3888 132.0852 483.9999 184 483.9999 235.9147 483.9999 277.9999 476.3888 277.9999 466.9999 277.9999 457.6111 235.9147 449.9999 184 449.9999 132.0852 449.9999 89.99998 457.6111 89.99998 466.9999Z" fill="#ffffff" fill-rule="evenodd"/>
<path transform="matrix(.00007874014,0,0,.00007874014,89.99998,56.00009)" stroke-width="12700" stroke-linecap="butt" stroke-linejoin="round" fill="none" stroke="#000000" d="M-.0180054 215900.4C-.0180054 96661.88 534482.4 .3298341 1193800 .3298341 1853117 .3298341 2387600 96661.88 2387600 215900.4 2387600 335138.4 1853117 431800.4 1193800 431800.4 534482.4 431800.4-.0180054 335138.4-.0180054 215900.4Z"/>
<path transform="matrix(.00007874014,0,0,.00007874014,141,66.00009)" stroke-width="12700" stroke-linecap="butt" stroke-linejoin="round" fill="none" stroke="#000000" d="M-.04339603 82549.86C-.04339603 36958.84 267241.2-.1506346 596899.9-.1506346 926558.7-.1506346 1193800 36958.84 1193800 82549.86 1193800 128140.9 926558.7 165099.9 596899.9 165099.9 267241.2 165099.9-.04339603 128140.9-.04339603 82549.86Z"/>
<path transform="matrix(1,0,0,-1,0,540)" d="M172 512.8633C172 511.6833 178.7157 510.7267 187 510.7267 195.2842 510.7267 202 511.6833 202 512.8633V467.1366C202 465.9565 195.2842 464.9999 187 464.9999 178.7157 464.9999 172 465.9565 172 467.1366Z" fill="#cbcbcb" fill-rule="evenodd"/>
<path transform="matrix(1,0,0,-1,0,540)" d="M172 512.8633C172 514.0433 178.7157 514.9999 187 514.9999 195.2842 514.9999 202 514.0433 202 512.8633 202 511.6833 195.2842 510.7267 187 510.7267 178.7157 510.7267 172 511.6833 172 512.8633Z" fill="#e0e0e0" fill-rule="evenodd"/>
<path transform="matrix(.00007874014,0,0,.00007874014,172,25.000123)" stroke-width="12700" stroke-linecap="butt" stroke-linejoin="round" fill="none" stroke="#000000" d="M381000 27135.05C381000 42121.35 295710.2 54270.22 190500 54270.22 85289.72 54270.22-.0516358 42121.35-.0516358 27135.05-.0516358 12149.14 85289.72 .2692872 190500 .2692872 295710.2 .2692872 381000 12149.14 381000 27135.05ZL381000 607865.2C381000 622851.5 295710.2 635000.4 190500 635000.4 85289.72 635000.4-.0516358 622851.5-.0516358 607865.2V27135.05"/>
<path transform="matrix(.00007874014,0,0,.00007874014,74.99999,56.00009)" stroke-width="12700" stroke-linecap="butt" stroke-linejoin="round" fill="none" stroke="#000000" d="M-.01290895 .3298341 496023.5 120981.7"/>
<path transform="matrix(1,0,0,-1,0,540)" d="M110.8817 478.3362 116 473.9999 109.46 472.5071Z" fill-rule="evenodd"/>
<path transform="matrix(.00007874014,0,0,.00007874014,74.99999,101.00009)" stroke-width="12700" stroke-linecap="butt" stroke-linejoin="round" fill="none" stroke="#000000" d="M-.01290895-.08227527 496023.5 120981.3"/>
<path transform="matrix(1,0,0,-1,0,540)" d="M110.8817 433.3362 116 428.9999 109.46 427.5071Z" fill-rule="evenodd"/>
<path transform="matrix(.00007874014,0,0,.00007874014,142,72.00009)" stroke-width="12700" stroke-linecap="round" stroke-dasharray="1.269531,25401.27" stroke-linejoin="round" fill="none" stroke="#000000" d="M-.0414429-.1389159 .9274904 1193800"/>
<path transform="matrix(.00007874014,0,0,.00007874014,235,73.00009)" stroke-width="12700" stroke-linecap="round" stroke-dasharray="1.269531,25401.27" stroke-linejoin="round" fill="none" stroke="#000000" d="M.07141107-.1369628 1.040344 1193800"/>
<use data-text="C" xlink:href="#font_4_2" transform="matrix(16,0,0,-16,199.7,13.400085)"/>
<use data-text="y" xlink:href="#font_4_9" transform="matrix(16,0,0,-16,211.2552,13.400085)"/>
<use data-text="l" xlink:href="#font_4_6" transform="matrix(16,0,0,-16,219.2552,13.400085)"/>
<use data-text="i" xlink:href="#font_4_5" transform="matrix(16,0,0,-16,222.8104,13.400085)"/>
<use data-text="n" xlink:href="#font_4_7" transform="matrix(16,0,0,-16,226.3656,13.400085)"/>
<use data-text="d" xlink:href="#font_4_3" transform="matrix(16,0,0,-16,235.2648,13.400085)"/>
<use data-text="e" xlink:href="#font_4_4" transform="matrix(16,0,0,-16,244.164,13.400085)"/>
<use data-text="r" xlink:href="#font_4_8" transform="matrix(16,0,0,-16,253.0632,13.400085)"/>
<use data-text=" " xlink:href="#font_4_1" transform="matrix(16,0,0,-16,258.3912,13.400085)"/>
<use data-text="k" xlink:href="#font_5_1" transform="matrix(16,0,0,-16,262.8328,13.400085)"/>
<use data-text=" " xlink:href="#font_4_1" transform="matrix(16,0,0,-16,270.83283,13.400085)"/>
<path transform="matrix(-.00007874014,-0,0,.00007874014,235,25.000123)" stroke-width="12700" stroke-linecap="butt" stroke-linejoin="round" fill="none" stroke="#000000" d="M-.07141107 .2692872 169592.1 496663.1"/>
<path transform="matrix(1,0,0,-1,0,540)" d="M220.0998 480.6475 221 473.9999 225.7779 478.7086Z" fill-rule="evenodd"/>
<use data-text="S" xlink:href="#font_2_9" transform="matrix(16,0,0,-16,161.7,228.4)"/>
<use data-text="p" xlink:href="#font_2_18" transform="matrix(16,0,0,-16,172.372,228.4)"/>
<use data-text="i" xlink:href="#font_2_15" transform="matrix(16,0,0,-16,181.2712,228.4)"/>
<use data-text="n" xlink:href="#font_2_17" transform="matrix(16,0,0,-16,184.8264,228.4)"/>
<use data-text="d" xlink:href="#font_2_12" transform="matrix(16,0,0,-16,193.7256,228.4)"/>
<use data-text="l" xlink:href="#font_2_16" transform="matrix(16,0,0,-16,202.6248,228.4)"/>
<use data-text="e" xlink:href="#font_2_13" transform="matrix(16,0,0,-16,206.18001,228.4)"/>
<use data-text="&#xfffd;" xlink:href="#font_3_1" transform="matrix(16,0,0,-16,215.07921,228.4)"/>
<use data-text="P" xlink:href="#font_2_8" transform="matrix(16,0,0,-16,289.45,78.400089)"/>
<use data-text="l" xlink:href="#font_2_16" transform="matrix(16,0,0,-16,300.122,78.400089)"/>
<use data-text="a" xlink:href="#font_2_10" transform="matrix(16,0,0,-16,303.67723,78.400089)"/>
<use data-text="t" xlink:href="#font_2_20" transform="matrix(16,0,0,-16,312.57643,78.400089)"/>
<use data-text="t" xlink:href="#font_2_20" transform="matrix(16,0,0,-16,317.0212,78.400089)"/>
<use data-text="e" xlink:href="#font_2_13" transform="matrix(16,0,0,-16,321.466,78.400089)"/>
<use data-text="r" xlink:href="#font_2_19" transform="matrix(16,0,0,-16,330.3652,78.400089)"/>
<use data-text=" " xlink:href="#font_2_1" transform="matrix(16,0,0,-16,335.6932,78.400089)"/>
<use data-text="0" xlink:href="#font_2_2" transform="matrix(16,0,0,-16,340.138,78.400089)"/>
<use data-text="&#xfffd;" xlink:href="#font_3_1" transform="matrix(16,0,0,-16,349.03724,78.400089)"/>
<use data-text="P" xlink:href="#font_2_8" transform="matrix(16,0,0,-16,289.45,122.400089)"/>
<use data-text="l" xlink:href="#font_2_16" transform="matrix(16,0,0,-16,300.122,122.400089)"/>
<use data-text="a" xlink:href="#font_2_10" transform="matrix(16,0,0,-16,303.67723,122.400089)"/>
<use data-text="t" xlink:href="#font_2_20" transform="matrix(16,0,0,-16,312.57643,122.400089)"/>
<use data-text="t" xlink:href="#font_2_20" transform="matrix(16,0,0,-16,317.0212,122.400089)"/>
<use data-text="e" xlink:href="#font_2_13" transform="matrix(16,0,0,-16,321.466,122.400089)"/>
<use data-text="r" xlink:href="#font_2_19" transform="matrix(16,0,0,-16,330.3652,122.400089)"/>
<use data-text=" " xlink:href="#font_2_1" transform="matrix(16,0,0,-16,335.6932,122.400089)"/>
<use data-text="1" xlink:href="#font_2_3" transform="matrix(16,0,0,-16,340.138,122.400089)"/>
<use data-text="&#xfffd;" xlink:href="#font_3_1" transform="matrix(16,0,0,-16,349.03724,122.400089)"/>
<use data-text="P" xlink:href="#font_2_8" transform="matrix(16,0,0,-16,289.45,170.4)"/>
<use data-text="l" xlink:href="#font_2_16" transform="matrix(16,0,0,-16,300.122,170.4)"/>
<use data-text="a" xlink:href="#font_2_10" transform="matrix(16,0,0,-16,303.67723,170.4)"/>
<use data-text="t" xlink:href="#font_2_20" transform="matrix(16,0,0,-16,312.57643,170.4)"/>
<use data-text="t" xlink:href="#font_2_20" transform="matrix(16,0,0,-16,317.0212,170.4)"/>
<use data-text="e" xlink:href="#font_2_13" transform="matrix(16,0,0,-16,321.466,170.4)"/>
<use data-text="r" xlink:href="#font_2_19" transform="matrix(16,0,0,-16,330.3652,170.4)"/>
<use data-text=" " xlink:href="#font_2_1" transform="matrix(16,0,0,-16,335.6932,170.4)"/>
<use data-text="2" xlink:href="#font_2_4" transform="matrix(16,0,0,-16,340.138,170.4)"/>
<use data-text="&#xfffd;" xlink:href="#font_3_1" transform="matrix(16,0,0,-16,349.03724,170.4)"/>
</g>
</g>
</svg>
