<svg xmlns="http://www.w3.org/2000/svg" xmlns:xlink="http://www.w3.org/1999/xlink" version="1.1" width="270.09626pt" height="202.37702pt" viewBox="0 0 270.09626 202.37702">
<defs>
<clipPath id="clip_0">
<path transform="matrix(1,0,0,-1,-1.55675,540)" d="M1.55675 337.623H271.653V540H1.55675Z" fill-rule="evenodd"/>
</clipPath>
<clipPath id="clip_1">
<path transform="matrix(1,0,0,-1,-1.55675,540)" d="M0 .00002324581H719.9999V540H0Z"/>
</clipPath>
<path id="font_2_3" d="M.44433595 .2939453 .33544923 .61120608 .21972656 .2939453H.44433595M.28466798 .71777346H.39453126L.65478518 0H.54833987L.47558595 .21484375H.19189453L.11425781 0H.0146484379L.28466798 .71777346M.33496095 .71777346V.71777346Z"/>
<path id="font_2_15" d="M.06689453 .5234375H.15039063V.4326172C.15722656 .4502767 .17399089 .4717814 .2006836 .49713136 .2273763 .52248129 .25813804 .53515627 .29296876 .53515627 .29459635 .53515627 .29736329 .5349579 .30126954 .53456118 .30517579 .5341746 .31184898 .5333964 .32128907 .53222659V.43945313C.31608073 .44062297 .3112793 .44140116 .30688478 .44178773 .30249024 .44218446 .2976888 .4423828 .29248048 .4423828 .24820964 .4423828 .2141927 .4280599 .19042969 .39941407 .16666667 .37076823 .15478516 .33789063 .15478516 .30078126V0H.06689453V.5234375Z"/>
<path id="font_2_12" d="M.064453128 .5234375H.15136719V.44921876C.17220052 .4749349 .19108074 .49365235 .20800781 .5053711 .23697917 .52522787 .26985679 .53515627 .30664063 .53515627 .34830729 .53515627 .38183595 .52490237 .40722657 .50439456 .42154948 .49267579 .4345703 .4754232 .44628907 .45263673 .4658203 .4806315 .48876954 .5013835 .5151367 .5148926 .5415039 .5284017 .5711263 .53515627 .6040039 .53515627 .6743164 .53515627 .72216799 .5097402 .7475586 .45890809 .76123049 .43154399 .7680664 .3947296 .7680664 .34846498V0H.6767578V.36367799C.6767578 .39853923 .6680501 .42248536 .65063479 .43551637 .6332194 .44855754 .6119792 .45507813 .58691409 .45507813 .5524089 .45507813 .5227051 .44350688 .49780274 .42036439 .4729004 .39723207 .46044923 .35861717 .46044923 .30451966V0H.37109376V.3416748C.37109376 .37719728 .36686198 .4031016 .35839845 .41938783 .3450521 .4438324 .32014976 .4560547 .2836914 .4560547 .25048829 .4560547 .22029622 .44318138 .19311524 .4174347 .16593425 .3916982 .15234375 .34510295 .15234375 .27764894V0H.064453128V.5234375Z"/>
<path id="font_3_1" d="M0 0Z"/>
<path id="font_2_4" d="M.40966798 .38867188C.45524089 .38867188 .49129234 .39778648 .51782229 .41601563 .54435226 .43424479 .5576172 .4671224 .5576172 .51464846 .5576172 .5657552 .5390625 .60058596 .5019531 .6191406 .48209635 .62890627 .4555664 .63378909 .42236329 .63378909H.1850586V.38867188H.40966798M.087890628 .71777346H.41992188C.47460938 .71777346 .51969406 .709788 .5551758 .69381716 .6225586 .6631775 .65625 .60662338 .65625 .52415469 .65625 .48112489 .6473796 .44591777 .6296387 .41853334 .61189779 .39115907 .58707687 .36916099 .5551758 .35253907 .5831706 .34114585 .60424807 .32617188 .6184082 .3076172 .63256838 .2890625 .6404622 .2589518 .64208987 .21728516L.6455078 .12109375C.6464844 .09388224 .648763 .07363383 .65234377 .06034851 .6582031 .037663778 .6686198 .023081461 .68359377 .016601563V0H.5644531C.56119796 .006184896 .55859377 .014160156 .5566406 .023925782 .5546875 .033691408 .5530599 .052571615 .5517578 .080566409L.54589846 .20019531C.5436198 .24707031 .5262044 .27848307 .49365235 .2944336 .47509767 .30322267 .44596354 .3076172 .40625 .3076172H.1850586V0H.087890628V.71777346Z"/>
<path id="font_2_8" d="M.28222657 .53515627C.31933595 .53515627 .355306 .52644857 .39013673 .5090332 .42496745 .49161784 .4514974 .4690806 .46972657 .4414215 .4873047 .41505433 .49902345 .3842977 .5048828 .3491516 .5100911 .32506309 .5126953 .28647868 .5126953 .23339844H.12939453C.13102214 .18033855 .14355469 .13777669 .16699219 .10571289 .19042969 .073649089 .22672527 .057617189 .2758789 .057617189 .32177735 .057617189 .35839845 .07261658 .3857422 .10261536 .4013672 .12003072 .4124349 .14018758 .4189453 .16308594H.5053711C.50309249 .14398194 .49552409 .122690837 .48266603 .09921265 .46980796 .07574463 .45540367 .05656433 .43945313 .041671754 .4127604 .01576233 .37972007-.0017242432 .34033204-.010787964 .3191732-.01596578 .2952474-.018554688 .2685547-.018554688 .20345052-.018554688 .14827474 .0051472985 .103027347 .05255127 .05777995 .09995524 .03515625 .16634114 .03515625 .25170899 .03515625 .33576457 .057942708 .40401713 .103515628 .45646668 .14908855 .5089264 .20865886 .53515627 .28222657 .53515627M.42236329 .30371095C.41878257 .34191896 .41048179 .37245179 .39746095 .39530946 .3733724 .4377594 .33317057 .45898438 .27685548 .45898438 .23649089 .45898438 .20263672 .44437156 .17529297 .41514588 .14794922 .3859202 .13346355 .34877525 .13183594 .30371095H.42236329M.27392579 .5361328V.5361328Z"/>
<path id="font_2_6" d="M.13183594 .1394043C.13183594 .114095058 .14111328 .09413656 .15966797 .07952881 .17822266 .06492106 .20019531 .057617189 .22558594 .057617189 .2565104 .057617189 .28645835 .06471761 .3154297 .07891846 .3642578 .10247803 .38867188 .14127605 .38867188 .1953125V.26611329C.3779297 .25886027 .36409507 .2528127 .34716798 .24797058 .33024089 .24313863 .3136393 .23983257 .29736329 .23805237L.24414063 .23184204C.21223958 .22799683 .1883138 .22153218 .17236328 .21244812 .14534505 .19718933 .13183594 .17284139 .13183594 .1394043M.34472657 .31689454C.36490885 .3194987 .37841798 .32796226 .3852539 .34228517 .38916017 .35012818 .39111329 .36140443 .39111329 .3761139 .39111329 .40618388 .38045249 .42799888 .35913087 .44155885 .33780924 .455129 .30729167 .46191407 .26757813 .46191407 .22167969 .46191407 .18912761 .44948326 .16992188 .42462159 .15917969 .4108785 .15218099 .39043174 .14892578 .36328126H.06689453C.06852213 .42791749 .08943685 .47288514 .12963867 .4981842 .1698405 .5234833 .21647136 .5361328 .26953126 .5361328 .3310547 .5361328 .38102214 .52441409 .4194336 .50097659 .45751954 .47753907 .4765625 .4410502 .4765625 .39151V.08985901C.4765625 .08073425 .47843424 .073404949 .48217774 .067871097 .48592124 .06233724 .4938151 .059570314 .5058594 .059570314 .5097656 .059570314 .51416018 .059814454 .51904299 .060302736 .5239258 .060791017 .5291341 .061523439 .53466799 .0625V-.0028076173C.5209961-.00676473 .5105794-.009236653 .50341799-.010223389 .4962565-.011220296 .48649089-.01171875 .4741211-.01171875 .44384767-.01171875 .421875-.0009104411 .40820313 .020706177 .40104167 .032170614 .3959961 .048380536 .3930664 .06933594 .37516276 .045633954 .34944663 .025060019 .31591798 .0076141359 .2823893-.009831746 .2454427-.018554688 .20507813-.018554688 .15657552-.018554688 .11694336-.0037790936 .08618164 .025772095 .055419923 .055323285 .040039064 .092300418 .040039064 .13670349 .040039064 .18535869 .05517578 .22307332 .08544922 .24984741 .115722659 .2766215 .1554362 .29311119 .20458985 .2993164L.34472657 .31689454M.27197267 .5361328V.5361328Z"/>
<path id="font_2_7" d="M.12011719 .2553711C.12011719 .19923909 .1319987 .15224712 .15576172 .11439514 .17952474 .076543178 .21761067 .057617189 .27001954 .057617189 .31070964 .057617189 .3441569 .075154628 .37036134 .11022949 .39656578 .14531453 .40966798 .19565328 .40966798 .26124574 .40966798 .32748924 .39615885 .37651573 .36914063 .4083252 .3421224 .44014488 .3087565 .4560547 .26904298 .4560547 .22477214 .4560547 .18888347 .4390869 .16137696 .40515138 .13387044 .37121583 .12011719 .32128907 .12011719 .2553711M.2524414 .53222659C.29248048 .53222659 .32600913 .52381899 .35302735 .5070038 .36865235 .4972992 .38639323 .48031617 .40625 .4560547V.71875H.49072267V0H.4116211V.07229614C.39111329 .04023234 .36686198 .017074585 .3388672 .002822876 .3108724-.011428833 .2788086-.018554688 .24267578-.018554688 .18440755-.018554688 .13395183 .0059407555 .091308597 .05493164 .048665365 .10392252 .02734375 .16910808 .02734375 .25048829 .02734375 .32666017 .04679362 .39265953 .08569336 .44848634 .1245931 .5043132 .18017578 .53222659 .2524414 .53222659Z"/>
<path id="font_2_2" d="M.22753906 .71777346H.3017578L.07421875 0H0L.22753906 .71777346Z"/>
<path id="font_2_18" d="M.10498047 .5234375 .2055664 .110946658 .3076172 .5234375H.40625L.50878909 .11338806 .61572268 .5234375H.7036133L.5517578 0H.46044923L.3540039 .40516664 .25097657 0H.15966797L.0087890629 .5234375H.10498047Z"/>
<path id="font_2_10" d="M.064453128 .5205078H.1538086V0H.064453128V.5205078M.064453128 .71777346H.1538086V.61816409H.064453128V.71777346Z"/>
<path id="font_2_17" d="M.08203125 .66796877H.17089844V.5234375H.25439454V.4501953H.17089844V.110183719C.17089844 .09202576 .17708333 .07986959 .18945313 .07371521 .19628906 .07014465 .2076823 .068359378 .22363281 .068359378 .22786458 .068359378 .23242188 .06846619 .23730469 .06867981 .2421875 .0689036 .24788411 .06944784 .25439454 .0703125V0C.24430339-.0031026204 .23380535-.005340576 .22290039-.006713867 .21199544-.008097331 .20019531-.0087890629 .1875-.0087890629 .14648438-.0087890629 .118652347 .0016988119 .104003909 .02267456 .08935547 .04365031 .08203125 .070882167 .08203125 .10437012V.4501953H.011230469V.5234375H.08203125V.66796877Z"/>
<path id="font_2_1" d="M0 0Z"/>
<path id="font_2_9" d="M.064453128 .71875H.15234375V.45214845C.17317708 .4786682 .19189453 .4973297 .2084961 .50813296 .2368164 .5267995 .2721354 .5361328 .31445313 .5361328 .39029948 .5361328 .44173179 .50957748 .46875 .45646668 .48339845 .42747499 .49072267 .38723756 .49072267 .3357544V0H.40039063V.32958985C.40039063 .3680013 .3955078 .39615885 .3857422 .4140625 .36979167 .44270835 .33984376 .45703126 .29589845 .45703126 .2594401 .45703126 .22639974 .4444987 .19677735 .4194336 .16715496 .3943685 .15234375 .34700523 .15234375 .27734376V0H.064453128V.71875Z"/>
<path id="font_2_16" d="M.11669922 .1640625C.11930338 .13463338 .12662761 .11207072 .13867188 .09637451 .1608073 .06793213 .19921875 .053710939 .25390626 .053710939 .28645835 .053710939 .31510417 .060806276 .33984376 .07499695 .36458335 .08919779 .37695313 .11115011 .37695313 .14085388 .37695313 .16337586 .36702476 .18051148 .34716798 .19226074 .33447267 .19944255 .30940757 .20775859 .27197267 .21720886L.20214844 .2348175C.15755208 .24590557 .12467448 .25829569 .103515628 .27198792 .06575521 .29579164 .046875 .32873027 .046875 .37080384 .046875 .42036439 .064697269 .46046958 .1003418 .49111939 .13598633 .52177938 .18391927 .5371094 .24414063 .5371094 .32291667 .5371094 .37972007 .5139974 .41455079 .46777345 .4363607 .43847657 .4469401 .40690104 .44628907 .37304688H.36328126C.36165367 .39269004 .35465495 .41055808 .34228517 .426651 .32210288 .44950868 .28710938 .4609375 .23730469 .4609375 .20410156 .4609375 .17895508 .45461528 .16186524 .44197084 .14477539 .42933656 .13623047 .41264854 .13623047 .39190675 .13623047 .36922203 .14746094 .35107423 .16992188 .33746339 .1829427 .32936607 .20214844 .32221986 .22753906 .31602479L.28564454 .3018341C.34879557 .28650413 .39111329 .27166749 .41259767 .25732423 .44677735 .23482259 .4638672 .19944255 .4638672 .15118408 .4638672 .10455322 .44620768 .06428019 .41088868 .03036499 .37556968-.0035502117 .32177735-.020507813 .24951172-.020507813 .17171224-.020507813 .116617839-.002802531 .084228519 .032608034 .05183919 .06801859 .034505208 .111836757 .032226564 .1640625H.11669922M.24658203 .5361328V.5361328Z"/>
<path id="font_2_5" d="M.13964844 .23144531C.14192708 .19064331 .15152996 .1575063 .16845703 .1320343 .2006836 .084376018 .25748698 .060546876 .3388672 .060546876 .37532554 .060546876 .40852867 .06575521 .43847657 .076171878 .49641929 .096354167 .5253906 .13248189 .5253906 .18455506 .5253906 .22361756 .5131836 .25144959 .48876954 .26805116 .46402995 .2843882 .42529298 .29859925 .3725586 .3106842L.27539063 .3327484C.21191406 .3471222 .16699219 .36294047 .140625 .38020326 .095052089 .41016136 .072265628 .4549408 .072265628 .5145416 .072265628 .57902529 .094563808 .6319478 .13916016 .6733093 .18375652 .71467086 .24690755 .73535159 .32861329 .73535159 .4038086 .73535159 .46769206 .7172038 .5202637 .6809082 .57283529 .6446126 .5991211 .58658859 .5991211 .50683596H.5078125C.5029297 .5452474 .49251304 .57470706 .4765625 .59521487 .4469401 .6326497 .39664714 .6513672 .3256836 .6513672 .26839195 .6513672 .22721355 .63931277 .20214844 .61520388 .17708333 .591095 .16455078 .56307479 .16455078 .5311432 .16455078 .49595643 .17919922 .47021995 .2084961 .45393373 .22770183 .44350688 .27115885 .43047587 .3388672 .4148407L.43945313 .39187623C.48795573 .38079835 .5253906 .36565147 .5517578 .34643556 .59733077 .31288658 .6201172 .26419068 .6201172 .2003479 .6201172 .12085978 .59122726 .06401571 .53344729 .029815674 .47566734-.004384359 .40852867-.021484375 .33203126-.021484375 .24283855-.021484375 .17301433 .0013478597 .122558597 .04701233 .07210287 .0923411 .04736328 .15381877 .048339845 .23144531H.13964844M.3359375 .7373047V.7373047Z"/>
<path id="font_2_14" d="M.28515626 .057617189C.32617188 .057617189 .36027018 .07486979 .38745118 .109375 .41463218 .14389038 .42822267 .1954956 .42822267 .26419068 .42822267 .3060608 .42220054 .34204103 .41015626 .37213136 .38736979 .43003337 .34570313 .45898438 .28515626 .45898438 .22428386 .45898438 .18261719 .42840068 .16015625 .36723329 .14811199 .33451844 .14208985 .29297386 .14208985 .24259949 .14208985 .20204163 .14811199 .16753133 .16015625 .1390686 .1829427 .08476766 .22460938 .057617189 .28515626 .057617189M.057617189 .5205078H.1430664V.45162965C.16064453 .47540284 .17985027 .49379985 .2006836 .5068207 .23030599 .5263621 .26513673 .5361328 .30517579 .5361328 .36442057 .5361328 .41471354 .5133667 .4560547 .46783448 .49739585 .42230226 .5180664 .3572693 .5180664 .2727356 .5180664 .1585083 .48828126 .07691447 .42871095 .027954102 .39095054-.0030517579 .34700523-.018554688 .296875-.018554688 .25748698-.018554688 .22444661-.009984334 .1977539 .007156372 .1821289 .016860962 .16471355 .033518476 .14550781 .057128908V-.20898438H.057617189V.5205078Z"/>
<path id="font_2_13" d="M.064453128 .5234375H.14794922V.44921876C.1726888 .47981773 .19889324 .50179037 .2265625 .5151367 .25423179 .5284831 .2849935 .53515627 .31884767 .53515627 .3930664 .53515627 .44319663 .5092519 .46923829 .45744325 .4835612 .42910258 .49072267 .38853965 .49072267 .3357544V0H.4013672V.3299408C.4013672 .36188255 .39664714 .38762919 .38720704 .4071808 .37158204 .4397634 .34326173 .4560547 .3022461 .4560547 .28141276 .4560547 .2643229 .4539388 .25097657 .44970704 .22688802 .4425354 .20572917 .42819724 .1875 .4066925 .17285156 .38941957 .16333008 .37157694 .15893555 .35316468 .15454102 .3347524 .15234375 .30844117 .15234375 .27423097V0H.064453128V.5234375M.2709961 .5361328V.5361328Z"/>
<path id="font_2_11" d="M.06689453 .71777346H.15478516V0H.06689453V.71777346Z"/>
</defs>
<g clip-path="url(#clip_0)">
<g clip-path="url(#clip_1)">
<path transform="matrix(1,0,0,-1,-1.55675,540)" d="M0 539.9999H719.9999V.00003079383H0Z" fill="#ffffff" fill-rule="evenodd"/>
<path transform="matrix(-.00007874014,-0,0,.00007874014,205.19326,65.00009)" stroke-width="38100" stroke-linecap="butt" stroke-linejoin="round" fill="none" stroke="#000000" d="M-.01623529 .3474122 457200.1 1.510132"/>
<path transform="matrix(1,0,0,-1,-1.55675,540)" d="M159.75 474.9999C159.75 476.6568 165.1226 477.9999 171.75 477.9999 178.3774 477.9999 183.75 476.6568 183.75 474.9999 183.75 473.3431 178.3774 471.9999 171.75 471.9999 165.1226 471.9999 159.75 473.3431 159.75 474.9999Z" fill="#cbcbcb" fill-rule="evenodd"/>
<path transform="matrix(.00007874014,0,0,.00007874014,158.19326,62.00009)" stroke-width="12700" stroke-linecap="butt" stroke-linejoin="round" fill="none" stroke="#000000" d="M-.006774932 38100.35C-.006774932 17058.22 68231.88 .3415529 152400 .3415529 236568.1 .3415529 304800 17058.22 304800 38100.35 304800 59142.48 236568.1 76200.35 152400 76200.35 68231.88 76200.35-.006774932 59142.48-.006774932 38100.35Z"/>
<path transform="matrix(-.00007874014,-0,0,.00007874014,205.44326,109)" stroke-width="38100" stroke-linecap="butt" stroke-linejoin="round" fill="none" stroke="#000000" d="M-.01672357 .04577643 457200.1 1.208496"/>
<path transform="matrix(1,0,0,-1,-1.55675,540)" d="M160 431C160 432.6568 165.3726 434 172 434 178.6274 434 184 432.6568 184 431 184 429.3431 178.6274 428 172 428 165.3726 428 160 429.3431 160 431Z" fill="#cbcbcb" fill-rule="evenodd"/>
<path transform="matrix(.00007874014,0,0,.00007874014,158.44326,106)" stroke-width="12700" stroke-linecap="butt" stroke-linejoin="round" fill="none" stroke="#000000" d="M-.006286651 38100.05C-.006286651 17057.92 68231.88 .03991705 152400 .03991705 236568.1 .03991705 304800 17057.92 304800 38100.05 304800 59142.18 236568.1 76200.05 152400 76200.05 68231.88 76200.05-.006286651 59142.18-.006286651 38100.05Z"/>
<path transform="matrix(-.00007874014,-0,0,.00007874014,205.19326,157)" stroke-width="38100" stroke-linecap="butt" stroke-linejoin="round" fill="none" stroke="#000000" d="M-.01623529 .1395264 457200.1 1.302246"/>
<path transform="matrix(1,0,0,-1,-1.55675,540)" d="M159.75 383C159.75 384.6568 165.1226 386 171.75 386 178.3774 386 183.75 384.6568 183.75 383 183.75 381.3431 178.3774 380 171.75 380 165.1226 380 159.75 381.3431 159.75 383Z" fill="#cbcbcb" fill-rule="evenodd"/>
<path transform="matrix(.00007874014,0,0,.00007874014,158.19326,154)" stroke-width="12700" stroke-linecap="butt" stroke-linejoin="round" fill="none" stroke="#000000" d="M-.006774932 38100.14C-.006774932 17058.01 68231.88 .1336671 152400 .1336671 236568.1 .1336671 304800 17058.01 304800 38100.14 304800 59142.27 236568.1 76200.15 152400 76200.15 68231.88 76200.15-.006774932 59142.27-.006774932 38100.14Z"/>
<path transform="matrix(1,0,0,-1,-1.55675,540)" d="M82.99999 392.8633C82.99999 391.6833 89.71572 390.7267 97.99999 390.7267 106.2843 390.7267 113 391.6833 113 392.8633V347.1366C113 345.9566 106.2843 345 97.99999 345 89.71572 345 82.99999 345.9566 82.99999 347.1366Z" fill="#cbcbcb" fill-rule="evenodd"/>
<path transform="matrix(1,0,0,-1,-1.55675,540)" d="M82.99999 392.8633C82.99999 394.0434 89.71572 395 97.99999 395 106.2843 395 113 394.0434 113 392.8633 113 391.6833 106.2843 390.7267 97.99999 390.7267 89.71572 390.7267 82.99999 391.6833 82.99999 392.8633Z" fill="#e0e0e0" fill-rule="evenodd"/>
<path transform="matrix(.00007874014,0,0,.00007874014,81.443248,145)" stroke-width="12700" stroke-linecap="butt" stroke-linejoin="round" fill="none" stroke="#000000" d="M380999.9 27135.29C380999.9 42121.2 295710.2 54270.07 190500 54270.07 85289.71 54270.07-.05978395 42121.2-.05978395 27135.29-.05978395 12148.99 85289.71 .1160889 190500 .1160889 295710.2 .1160889 380999.9 12148.99 380999.9 27135.29ZL380999.9 607865.1C380999.9 622851.3 295710.2 635000.2 190500 635000.2 85289.71 635000.2-.05978395 622851.3-.05978395 607865.1V27135.29"/>
<path transform="matrix(1,0,0,-1,-1.55675,540)" d="M2 392.9999C2 402.3888 44.08522 409.9999 95.99998 409.9999 147.9147 409.9999 190 402.3888 190 392.9999 190 383.6111 147.9147 375.9999 95.99998 375.9999 44.08522 375.9999 2 383.6111 2 392.9999Z" fill="#ffffff" fill-rule="evenodd"/>
<path transform="matrix(.00007874014,0,0,.00007874014,.44324995,130.00009)" stroke-width="12700" stroke-linecap="butt" stroke-linejoin="round" fill="none" stroke="#000000" d="M-.001074791 215900C-.001074791 96661.53 534482.4-.02563465 1193800-.02563465 1853117-.02563465 2387600 96661.53 2387600 215900 2387600 335138.1 1853117 431800 1193800 431800 534482.4 431800-.001074791 335138.1-.001074791 215900Z"/>
<path transform="matrix(.00007874014,0,0,.00007874014,205.19326,46.00009)" stroke-width="38100" stroke-linecap="butt" stroke-linejoin="round" fill="none" stroke="#000000" d="M.01623529 .3103029 3175.017 1409700"/>
<path transform="matrix(-.00007874014,-0,0,.00007874014,205.19326,139)" stroke-width="38100" stroke-linecap="butt" stroke-linejoin="round" fill="none" stroke="#000000" d="M-.01623529 .1043702 457200.1 1.26709"/>
<path transform="matrix(1,0,0,-1,-1.55675,540)" d="M159.75 401C159.75 402.6568 165.1226 404 171.75 404 178.3774 404 183.75 402.6568 183.75 401 183.75 399.3431 178.3774 398 171.75 398 165.1226 398 159.75 399.3431 159.75 401Z" fill="#cbcbcb" fill-rule="evenodd"/>
<path transform="matrix(.00007874014,0,0,.00007874014,158.19326,136)" stroke-width="12700" stroke-linecap="butt" stroke-linejoin="round" fill="none" stroke="#000000" d="M-.006774932 38100.11C-.006774932 17057.97 68231.88 .0985108 152400 .0985108 236568.1 .0985108 304800 17057.97 304800 38100.11 304800 59142.23 236568.1 76200.11 152400 76200.11 68231.88 76200.11-.006774932 59142.23-.006774932 38100.11Z"/>
<path transform="matrix(.00007874014,0,0,.00007874014,205.44326,100)" stroke-width="38100" stroke-linecap="butt" stroke-linejoin="round" fill="none" stroke="#000000" d="M.01672357 .0281983 639763 1.190918"/>
<path transform="matrix(1,0,0,-1,-1.55675,540)" d="M82.99999 437.8633C82.99999 436.6833 89.71572 435.7267 97.99999 435.7267 106.2843 435.7267 113 436.6833 113 437.8633V392.1366C113 390.9566 106.2843 390 97.99999 390 89.71572 390 82.99999 390.9566 82.99999 392.1366Z" fill="#cbcbcb" fill-rule="evenodd"/>
<path transform="matrix(1,0,0,-1,-1.55675,540)" d="M82.99999 437.8633C82.99999 439.0434 89.71572 440 97.99999 440 106.2843 440 113 439.0434 113 437.8633 113 436.6833 106.2843 435.7267 97.99999 435.7267 89.71572 435.7267 82.99999 436.6833 82.99999 437.8633Z" fill="#e0e0e0" fill-rule="evenodd"/>
<path transform="matrix(.00007874014,0,0,.00007874014,81.443248,100)" stroke-width="12700" stroke-linecap="butt" stroke-linejoin="round" fill="none" stroke="#000000" d="M380999.9 27135.2C380999.9 42121.11 295710.2 54269.98 190500 54269.98 85289.71 54269.98-.05978395 42121.11-.05978395 27135.2-.05978395 12148.9 85289.71 .0281983 190500 .0281983 295710.2 .0281983 380999.9 12148.9 380999.9 27135.2ZL380999.9 607864.9C380999.9 622851.2 295710.2 635000.1 190500 635000.1 85289.71 635000.1-.05978395 622851.2-.05978395 607864.9V27135.2"/>
<path transform="matrix(1,0,0,-1,-1.55675,540)" d="M4 440.9999C4 450.3888 46.08522 457.9999 97.99998 457.9999 149.9147 457.9999 192 450.3888 192 440.9999 192 431.6111 149.9147 423.9999 97.99998 423.9999 46.08522 423.9999 4 431.6111 4 440.9999Z" fill="#ffffff" fill-rule="evenodd"/>
<path transform="matrix(.00007874014,0,0,.00007874014,2.44325,82.00009)" stroke-width="12700" stroke-linecap="butt" stroke-linejoin="round" fill="none" stroke="#000000" d="M-.002149583 215899.9C-.002149583 96661.44 534482.4-.1193846 1193800-.1193846 1853117-.1193846 2387600 96661.44 2387600 215899.9 2387600 335138 1853117 431799.9 1193800 431799.9 534482.4 431799.9-.002149583 335138-.002149583 215899.9Z"/>
<path transform="matrix(1,0,0,-1,-1.55675,540)" d="M82.99999 482.8633C82.99999 481.6833 89.71572 480.7267 97.99999 480.7267 106.2843 480.7267 113 481.6833 113 482.8633V437.1366C113 435.9565 106.2843 434.9999 97.99999 434.9999 89.71572 434.9999 82.99999 435.9565 82.99999 437.1366Z" fill="#cbcbcb" fill-rule="evenodd"/>
<path transform="matrix(1,0,0,-1,-1.55675,540)" d="M82.99999 482.8633C82.99999 484.0433 89.71572 484.9999 97.99999 484.9999 106.2843 484.9999 113 484.0433 113 482.8633 113 481.6833 106.2843 480.7267 97.99999 480.7267 89.71572 480.7267 82.99999 481.6833 82.99999 482.8633Z" fill="#e0e0e0" fill-rule="evenodd"/>
<path transform="matrix(.00007874014,0,0,.00007874014,81.443248,55.00009)" stroke-width="12700" stroke-linecap="butt" stroke-linejoin="round" fill="none" stroke="#000000" d="M380999.9 27135.5C380999.9 42121.41 295710.2 54270.28 190500 54270.28 85289.71 54270.28-.05978395 42121.41-.05978395 27135.5-.05978395 12149.2 85289.71 .327881 190500 .327881 295710.2 .327881 380999.9 12149.2 380999.9 27135.5ZL380999.9 607865.2C380999.9 622851.6 295710.2 635000.4 190500 635000.4 85289.71 635000.4-.05978395 622851.6-.05978395 607865.2V27135.5"/>
<path transform="matrix(1,0,0,-1,-1.55675,540)" d="M1 483.9999C1 493.3888 43.08522 500.9999 94.99998 500.9999 146.9147 500.9999 189 493.3888 189 483.9999 189 474.6111 146.9147 466.9999 94.99998 466.9999 43.08522 466.9999 1 474.6111 1 483.9999Z" fill="#ffffff" fill-rule="evenodd"/>
<path transform="matrix(.00007874014,0,0,.00007874014,-.55675008,39.00009)" stroke-width="12700" stroke-linecap="butt" stroke-linejoin="round" fill="none" stroke="#000000" d="M-.0005373957 215900.3C-.0005373957 96661.85 534482.4 .296631 1193800 .296631 1853117 .296631 2387600 96661.85 2387600 215900.3 2387600 335138.4 1853117 431800.4 1193800 431800.4 534482.4 431800.4-.0005373957 335138.4-.0005373957 215900.3Z"/>
<path transform="matrix(1,0,0,-1,-1.55675,540)" d="M82.99999 529.8633C82.99999 528.6833 89.71572 527.7267 97.99999 527.7267 106.2843 527.7267 113 528.6833 113 529.8633V484.1366C113 482.9565 106.2843 481.9999 97.99999 481.9999 89.71572 481.9999 82.99999 482.9565 82.99999 484.1366Z" fill="#cbcbcb" fill-rule="evenodd"/>
<path transform="matrix(1,0,0,-1,-1.55675,540)" d="M82.99999 529.8633C82.99999 531.0433 89.71572 531.9999 97.99999 531.9999 106.2843 531.9999 113 531.0433 113 529.8633 113 528.6833 106.2843 527.7267 97.99999 527.7267 89.71572 527.7267 82.99999 528.6833 82.99999 529.8633Z" fill="#e0e0e0" fill-rule="evenodd"/>
<path transform="matrix(.00007874014,0,0,.00007874014,81.443248,8.000122)" stroke-width="12700" stroke-linecap="butt" stroke-linejoin="round" fill="none" stroke="#000000" d="M380999.9 27135.02C380999.9 42121.7 295710.2 54270.57 190500 54270.57 85289.71 54270.57-.05978395 42121.7-.05978395 27135.02-.05978395 12149.11 85289.71 .2360841 190500 .2360841 295710.2 .2360841 380999.9 12149.11 380999.9 27135.02ZL380999.9 607865.2C380999.9 622851.4 295710.2 635000.3 190500 635000.3 85289.71 635000.3-.05978395 622851.4-.05978395 607865.2V27135.02"/>
<path transform="matrix(-.00007874014,-0,0,.00007874014,205.19326,46.00009)" stroke-width="38100" stroke-linecap="butt" stroke-linejoin="round" fill="none" stroke="#000000" d="M-.01623529 .3103029 457200.1 1.473023"/>
<path transform="matrix(1,0,0,-1,-1.55675,540)" d="M158.75 493.9999C158.75 495.6568 164.1226 496.9999 170.75 496.9999 177.3774 496.9999 182.75 495.6568 182.75 493.9999 182.75 492.3431 177.3774 490.9999 170.75 490.9999 164.1226 490.9999 158.75 492.3431 158.75 493.9999Z" fill="#cbcbcb" fill-rule="evenodd"/>
<path transform="matrix(.00007874014,0,0,.00007874014,157.19326,43.00009)" stroke-width="12700" stroke-linecap="butt" stroke-linejoin="round" fill="none" stroke="#000000" d="M-.008728057 38100.31C-.008728057 17058.18 68231.88 .3044435 152400 .3044435 236568.1 .3044435 304800 17058.18 304800 38100.31 304800 59142.44 236568.1 76200.31 152400 76200.31 68231.88 76200.31-.008728057 59142.44-.008728057 38100.31Z"/>
<path transform="matrix(-.00007874014,-0,0,.00007874014,205.19326,90.00009)" stroke-width="38100" stroke-linecap="butt" stroke-linejoin="round" fill="none" stroke="#000000" d="M-.01623529-.1037596 457200.1 1.05896"/>
<path transform="matrix(1,0,0,-1,-1.55675,540)" d="M159.75 449.9999C159.75 451.6568 165.1226 452.9999 171.75 452.9999 178.3774 452.9999 183.75 451.6568 183.75 449.9999 183.75 448.3431 178.3774 446.9999 171.75 446.9999 165.1226 446.9999 159.75 448.3431 159.75 449.9999Z" fill="#cbcbcb" fill-rule="evenodd"/>
<path transform="matrix(.00007874014,0,0,.00007874014,158.19326,87.00009)" stroke-width="12700" stroke-linecap="butt" stroke-linejoin="round" fill="none" stroke="#000000" d="M-.006774932 38099.89C-.006774932 17057.77 68231.88-.109619 152400-.109619 236568.1-.109619 304800 17057.77 304800 38099.89 304800 59142.03 236568.1 76199.9 152400 76199.9 68231.88 76199.9-.006774932 59142.03-.006774932 38099.89Z"/>
<use data-text="A" xlink:href="#font_2_3" transform="matrix(16,0,0,-16,220.01825,93.150089)"/>
<use data-text="r" xlink:href="#font_2_15" transform="matrix(16,0,0,-16,230.69025,93.150089)"/>
<use data-text="m" xlink:href="#font_2_12" transform="matrix(16,0,0,-16,236.01825,93.150089)"/>
<use data-text="&#xfffd;" xlink:href="#font_3_1" transform="matrix(16,0,0,-16,249.34626,93.150089)"/>
<use data-text="R" xlink:href="#font_2_4" transform="matrix(16,0,0,-16,141.64325,14.400085)"/>
<use data-text="e" xlink:href="#font_2_8" transform="matrix(16,0,0,-16,153.19846,14.400085)"/>
<use data-text="a" xlink:href="#font_2_6" transform="matrix(16,0,0,-16,162.09766,14.400085)"/>
<use data-text="d" xlink:href="#font_2_7" transform="matrix(16,0,0,-16,170.99686,14.400085)"/>
<use data-text="/" xlink:href="#font_2_2" transform="matrix(16,0,0,-16,179.89606,14.400085)"/>
<use data-text="w" xlink:href="#font_2_18" transform="matrix(16,0,0,-16,184.34085,14.400085)"/>
<use data-text="r" xlink:href="#font_2_15" transform="matrix(16,0,0,-16,195.89606,14.400085)"/>
<use data-text="i" xlink:href="#font_2_10" transform="matrix(16,0,0,-16,201.22406,14.400085)"/>
<use data-text="t" xlink:href="#font_2_17" transform="matrix(16,0,0,-16,204.77927,14.400085)"/>
<use data-text="e" xlink:href="#font_2_8" transform="matrix(16,0,0,-16,209.22406,14.400085)"/>
<use data-text=" " xlink:href="#font_2_1" transform="matrix(16,0,0,-16,218.12326,14.400085)"/>
<use data-text="h" xlink:href="#font_2_9" transform="matrix(16,0,0,-16,222.56806,14.400085)"/>
<use data-text="e" xlink:href="#font_2_8" transform="matrix(16,0,0,-16,231.46726,14.400085)"/>
<use data-text="a" xlink:href="#font_2_6" transform="matrix(16,0,0,-16,240.36646,14.400085)"/>
<use data-text="d" xlink:href="#font_2_7" transform="matrix(16,0,0,-16,249.26566,14.400085)"/>
<use data-text="s" xlink:href="#font_2_16" transform="matrix(16,0,0,-16,258.16487,14.400085)"/>
<use data-text="&#xfffd;" xlink:href="#font_3_1" transform="matrix(16,0,0,-16,266.16487,14.400085)"/>
<path transform="matrix(-.00007874014,-0,0,.00007874014,205.44326,21.250123)" stroke-width="12700" stroke-linecap="butt" stroke-linejoin="round" fill="none" stroke="#000000" d="M-.01672357 .261963 296789.3 210720.8"/>
<path transform="matrix(1,0,0,-1,-1.55675,540)" d="M185.1555 506.9196 182 500.9999 188.629 502.0273Z" fill-rule="evenodd"/>
<use data-text="S" xlink:href="#font_2_5" transform="matrix(16,0,0,-16,114.39325,188.15009)"/>
<use data-text="p" xlink:href="#font_2_14" transform="matrix(16,0,0,-16,125.06525,188.15009)"/>
<use data-text="i" xlink:href="#font_2_10" transform="matrix(16,0,0,-16,133.96445,188.15009)"/>
<use data-text="n" xlink:href="#font_2_13" transform="matrix(16,0,0,-16,137.51966,188.15009)"/>
<use data-text="d" xlink:href="#font_2_7" transform="matrix(16,0,0,-16,146.41886,188.15009)"/>
<use data-text="l" xlink:href="#font_2_11" transform="matrix(16,0,0,-16,155.31806,188.15009)"/>
<use data-text="e" xlink:href="#font_2_8" transform="matrix(16,0,0,-16,158.87326,188.15009)"/>
<use data-text="&#xfffd;" xlink:href="#font_3_1" transform="matrix(16,0,0,-16,167.77246,188.15009)"/>
<path transform="matrix(-.00007874014,-0,0,.00007874014,205.19326,21.250123)" stroke-width="12700" stroke-linecap="butt" stroke-linejoin="round" fill="none" stroke="#000000" d="M-.01623529 .261963 379864.4 821495.6"/>
<path transform="matrix(1,0,0,-1,-1.55675,540)" d="M175.7952 458.955 176 452.25 181.2412 456.4368Z" fill-rule="evenodd"/>
</g>
</g>
</svg>
