<svg xmlns="http://www.w3.org/2000/svg" xmlns:xlink="http://www.w3.org/1999/xlink" version="1.1" width="663.95327pt" height="344.82pt" viewBox="0 0 663.95327 344.82">
<defs>
<clipPath id="clip_0">
<path transform="matrix(1,0,0,-1,-1.55675,540)" d="M1.55675 195.18H665.51V540H1.55675Z" fill-rule="evenodd"/>
</clipPath>
<clipPath id="clip_1">
<path transform="matrix(1,0,0,-1,-1.55675,540)" d="M0 .00002324581H719.9999V540H0Z"/>
</clipPath>
<path id="font_2_12" d="M.37841798 .7373047C.46923829 .7373047 .53971359 .71332809 .58984377 .66537478 .63997396 .61742147 .66780599 .5629476 .67333987 .5019531H.5786133C.5678711 .54817709 .5464681 .58479818 .5144043 .6118164 .48234049 .63883468 .43733726 .65234377 .37939454 .65234377 .3087565 .65234377 .25170899 .62754318 .20825196 .5779419 .16479492 .52834066 .1430664 .45231629 .1430664 .34986878 .1430664 .26594544 .16267903 .19788106 .2019043 .14567566 .24112956 .09348043 .29964195 .06738281 .3774414 .06738281 .449056 .06738281 .50358077 .094823207 .5410156 .14970398 .5608724 .17860413 .5756836 .21659343 .5854492 .26367188H.6801758C.6717122 .18815105 .64371749 .12483724 .5961914 .07373047 .5392253 .012207031 .46240235-.018554688 .36572267-.018554688 .2823893-.018554688 .21240235 .006688436 .15576172 .057174684 .081217449 .12394714 .043945314 .2270406 .043945314 .36645509 .043945314 .47232057 .0719401 .5591278 .12792969 .62687686 .18847656 .7004954 .27197267 .7373047 .37841798 .7373047M.35888673 .7373047V.7373047Z"/>
<path id="font_2_30" d="M.27197267 .057617189C.33024089 .057617189 .37019859 .07964579 .3918457 .123703 .41349284 .16776021 .4243164 .21677144 .4243164 .2707367 .4243164 .31950379 .4165039 .35917155 .4008789 .38974 .3761393 .43785606 .3334961 .46191407 .27294923 .46191407 .21923828 .46191407 .18017578 .44143168 .15576172 .40046693 .13134766 .35950218 .119140628 .31008403 .119140628 .25221253 .119140628 .1966095 .13134766 .15027364 .15576172 .113204959 .18017578 .076146449 .21891277 .057617189 .27197267 .057617189M.27539063 .53808596C.34277345 .53808596 .3997396 .5156453 .44628907 .47076417 .49283854 .42588298 .5161133 .35985819 .5161133 .27268983 .5161133 .1884613 .49560548 .11886088 .45458985 .06388855 .41357423 .008926392 .3499349-.018554688 .26367188-.018554688 .19173177-.018554688 .13460286 .00575765 .092285159 .054382326 .04996745 .103006999 .028808594 .16829936 .028808594 .2502594 .028808594 .33806864 .05110677 .4079895 .095703128 .46002198 .14029949 .51206466 .20019531 .53808596 .27539063 .53808596M.27246095 .5361328V.5361328Z"/>
<path id="font_2_27" d="M.06689453 .71777346H.15478516V0H.06689453V.71777346Z"/>
<path id="font_2_33" d="M.11669922 .1640625C.11930338 .13463338 .12662761 .11207072 .13867188 .09637451 .1608073 .06793213 .19921875 .053710939 .25390626 .053710939 .28645835 .053710939 .31510417 .060806276 .33984376 .07499695 .36458335 .08919779 .37695313 .11115011 .37695313 .14085388 .37695313 .16337586 .36702476 .18051148 .34716798 .19226074 .33447267 .19944255 .30940757 .20775859 .27197267 .21720886L.20214844 .2348175C.15755208 .24590557 .12467448 .25829569 .103515628 .27198792 .06575521 .29579164 .046875 .32873027 .046875 .37080384 .046875 .42036439 .064697269 .46046958 .1003418 .49111939 .13598633 .52177938 .18391927 .5371094 .24414063 .5371094 .32291667 .5371094 .37972007 .5139974 .41455079 .46777345 .4363607 .43847657 .4469401 .40690104 .44628907 .37304688H.36328126C.36165367 .39269004 .35465495 .41055808 .34228517 .426651 .32210288 .44950868 .28710938 .4609375 .23730469 .4609375 .20410156 .4609375 .17895508 .45461528 .16186524 .44197084 .14477539 .42933656 .13623047 .41264854 .13623047 .39190675 .13623047 .36922203 .14746094 .35107423 .16992188 .33746339 .1829427 .32936607 .20214844 .32221986 .22753906 .31602479L.28564454 .3018341C.34879557 .28650413 .39111329 .27166749 .41259767 .25732423 .44677735 .23482259 .4638672 .19944255 .4638672 .15118408 .4638672 .10455322 .44620768 .06428019 .41088868 .03036499 .37556968-.0035502117 .32177735-.020507813 .24951172-.020507813 .17171224-.020507813 .116617839-.002802531 .084228519 .032608034 .05183919 .06801859 .034505208 .111836757 .032226564 .1640625H.11669922M.24658203 .5361328V.5361328Z"/>
<path id="font_3_1" d="M0 0Z"/>
<path id="font_2_17" d="M.40966798 .38867188C.45524089 .38867188 .49129234 .39778648 .51782229 .41601563 .54435226 .43424479 .5576172 .4671224 .5576172 .51464846 .5576172 .5657552 .5390625 .60058596 .5019531 .6191406 .48209635 .62890627 .4555664 .63378909 .42236329 .63378909H.1850586V.38867188H.40966798M.087890628 .71777346H.41992188C.47460938 .71777346 .51969406 .709788 .5551758 .69381716 .6225586 .6631775 .65625 .60662338 .65625 .52415469 .65625 .48112489 .6473796 .44591777 .6296387 .41853334 .61189779 .39115907 .58707687 .36916099 .5551758 .35253907 .5831706 .34114585 .60424807 .32617188 .6184082 .3076172 .63256838 .2890625 .6404622 .2589518 .64208987 .21728516L.6455078 .12109375C.6464844 .09388224 .648763 .07363383 .65234377 .06034851 .6582031 .037663778 .6686198 .023081461 .68359377 .016601563V0H.5644531C.56119796 .006184896 .55859377 .014160156 .5566406 .023925782 .5546875 .033691408 .5530599 .052571615 .5517578 .080566409L.54589846 .20019531C.5436198 .24707031 .5262044 .27848307 .49365235 .2944336 .47509767 .30322267 .44596354 .3076172 .40625 .3076172H.1850586V0H.087890628V.71777346Z"/>
<path id="font_2_36" d="M.10498047 .5234375 .2055664 .110946658 .3076172 .5234375H.40625L.50878909 .11338806 .61572268 .5234375H.7036133L.5517578 0H.46044923L.3540039 .40516664 .25097657 0H.15966797L.0087890629 .5234375H.10498047Z"/>
<path id="font_2_6" d="M.2705078 .7001953C.3610026 .7001953 .42643229 .66289779 .46679688 .5883026 .49804688 .5306447 .5136719 .45165 .5136719 .35131837 .5136719 .25620524 .49951173 .17754109 .4711914 .11532593 .43017579 .026072184 .3631185-.018554688 .27001954-.018554688 .18603516-.018554688 .123535159 .017929078 .08251953 .09089661 .048339845 .15180969 .03125 .23357137 .03125 .33618165 .03125 .41565959 .041503908 .48390199 .06201172 .5409088 .10042318 .6470998 .16992188 .7001953 .2705078 .7001953M.26953126 .061523439C.31510417 .061523439 .35139976 .08168539 .37841798 .12200928 .4054362 .16234334 .4189453 .23747762 .4189453 .3474121 .4189453 .42676798 .4091797 .49205528 .38964845 .5432739 .3701172 .59450277 .332194 .6201172 .2758789 .6201172 .2241211 .6201172 .1862793 .59580489 .16235352 .5471802 .13842774 .4985555 .12646485 .42692057 .12646485 .3322754 .12646485 .26105754 .13411458 .20381673 .14941406 .16055298 .17285156 .09453329 .21289063 .061523439 .26953126 .061523439Z"/>
<path id="font_2_7" d="M.095703128 .4951172V.5625C.15917969 .5686849 .20345052 .5790202 .22851563 .59350588 .25358073 .6079915 .2722982 .6422526 .28466798 .69628909H.3540039V0H.2602539V.4951172H.095703128Z"/>
<path id="font_2_8" d="M.03125 0C.034505208 .060221357 .04695638 .11263021 .068603519 .15722656 .09025065 .20182292 .13248699 .24235027 .1953125 .2788086L.2890625 .3330078C.3310547 .35742188 .3605143 .3782908 .3774414 .39561463 .40413413 .4227346 .41748048 .45377604 .41748048 .488739 .41748048 .52959188 .40527345 .562027 .38085938 .5860443 .3564453 .61006167 .32389323 .6220703 .28320313 .6220703 .22298177 .6220703 .18131511 .5991516 .15820313 .5533142 .14583333 .52875778 .13899739 .4947103 .13769531 .45117188H.048339845C.049316408 .5121663 .060546876 .5619049 .08203125 .6003876 .12011719 .66822817 .18733724 .70214846 .2836914 .70214846 .36376954 .70214846 .4222819 .68047079 .45922853 .6371155 .49617515 .5937703 .51464846 .5455373 .51464846 .49241639 .51464846 .4363556 .49495445 .388443 .4555664 .3486786 .43277995 .3255361 .3919271 .29752604 .3330078 .26464845L.26611329 .22753906C.23421224 .20996094 .20914714 .19319661 .19091797 .1772461 .15836589 .14892578 .13785808 .11751302 .12939453 .08300781H.51123049V0H.03125Z"/>
<path id="font_2_9" d="M.25976563-.018554688C.17708333-.018554688 .11710612 .004196167 .079833988 .049697877 .042561849 .095209758 .023925782 .15058391 .023925782 .21582031H.115722659C.119628909 .1704305 .12809246 .13744609 .14111328 .116867069 .16389974 .07997131 .20507813 .061523439 .26464845 .061523439 .3108724 .061523439 .34798179 .07389323 .37597657 .09863281 .40397135 .1233724 .41796876 .15527344 .41796876 .19433594 .41796876 .24251302 .40323893 .27620445 .3737793 .29541017 .34431968 .31461589 .3033854 .32421876 .25097657 .32421876 .24511719 .32421876 .23917644 .32413737 .2331543 .3239746 .22713216 .32381187 .22102864 .32356773 .21484375 .3232422V.4013672C.22395833 .40019737 .23160808 .39941407 .23779297 .39901734 .24397786 .39863078 .25065104 .3984375 .2578125 .3984375 .2906901 .3984375 .31770835 .40363566 .3388672 .41403199 .37597657 .43222047 .39453126 .46470133 .39453126 .5114746 .39453126 .54622396 .38216148 .5730184 .35742188 .5918579 .33268229 .61069747 .3038737 .6201172 .2709961 .6201172 .21240235 .6201172 .171875 .6007131 .14941406 .5619049 .13704427 .5405629 .13004558 .51016238 .12841797 .47070313H.041503908C.041503908 .5225627 .051920576 .5666453 .072753909 .60295107 .108561199 .6677806 .17154949 .7001953 .26171876 .7001953 .3330078 .7001953 .3881836 .6843465 .4272461 .6526489 .4663086 .6209615 .48583985 .5750529 .48583985 .5149231 .48583985 .47201539 .47428385 .4372355 .45117188 .4105835 .43684898 .39401246 .41829429 .38101197 .3955078 .37158204 .43229167 .36149089 .4610189 .34204103 .48168946 .31323243 .50236007 .28442384 .5126953 .2491862 .5126953 .20751953 .5126953 .14078777 .49072267 .08642578 .44677735 .044433595 .40283204 .0024414063 .34049479-.018554688 .25976563-.018554688Z"/>
<path id="font_2_14" d="M.09814453 .71777346H.19628906V0H.09814453V.71777346Z"/>
<path id="font_2_29" d="M.064453128 .5234375H.14794922V.44921876C.1726888 .47981773 .19889324 .50179037 .2265625 .5151367 .25423179 .5284831 .2849935 .53515627 .31884767 .53515627 .3930664 .53515627 .44319663 .5092519 .46923829 .45744325 .4835612 .42910258 .49072267 .38853965 .49072267 .3357544V0H.4013672V.3299408C.4013672 .36188255 .39664714 .38762919 .38720704 .4071808 .37158204 .4397634 .34326173 .4560547 .3022461 .4560547 .28141276 .4560547 .2643229 .4539388 .25097657 .44970704 .22688802 .4425354 .20572917 .42819724 .1875 .4066925 .17285156 .38941957 .16333008 .37157694 .15893555 .35316468 .15454102 .3347524 .15234375 .30844117 .15234375 .27423097V0H.064453128V.5234375M.2709961 .5361328V.5361328Z"/>
<path id="font_2_34" d="M.08203125 .66796877H.17089844V.5234375H.25439454V.4501953H.17089844V.110183719C.17089844 .09202576 .17708333 .07986959 .18945313 .07371521 .19628906 .07014465 .2076823 .068359378 .22363281 .068359378 .22786458 .068359378 .23242188 .06846619 .23730469 .06867981 .2421875 .0689036 .24788411 .06944784 .25439454 .0703125V0C.24430339-.0031026204 .23380535-.005340576 .22290039-.006713867 .21199544-.008097331 .20019531-.0087890629 .1875-.0087890629 .14648438-.0087890629 .118652347 .0016988119 .104003909 .02267456 .08935547 .04365031 .08203125 .070882167 .08203125 .10437012V.4501953H.011230469V.5234375H.08203125V.66796877Z"/>
<path id="font_2_23" d="M.28222657 .53515627C.31933595 .53515627 .355306 .52644857 .39013673 .5090332 .42496745 .49161784 .4514974 .4690806 .46972657 .4414215 .4873047 .41505433 .49902345 .3842977 .5048828 .3491516 .5100911 .32506309 .5126953 .28647868 .5126953 .23339844H.12939453C.13102214 .18033855 .14355469 .13777669 .16699219 .10571289 .19042969 .073649089 .22672527 .057617189 .2758789 .057617189 .32177735 .057617189 .35839845 .07261658 .3857422 .10261536 .4013672 .12003072 .4124349 .14018758 .4189453 .16308594H.5053711C.50309249 .14398194 .49552409 .122690837 .48266603 .09921265 .46980796 .07574463 .45540367 .05656433 .43945313 .041671754 .4127604 .01576233 .37972007-.0017242432 .34033204-.010787964 .3191732-.01596578 .2952474-.018554688 .2685547-.018554688 .20345052-.018554688 .14827474 .0051472985 .103027347 .05255127 .05777995 .09995524 .03515625 .16634114 .03515625 .25170899 .03515625 .33576457 .057942708 .40401713 .103515628 .45646668 .14908855 .5089264 .20865886 .53515627 .28222657 .53515627M.42236329 .30371095C.41878257 .34191896 .41048179 .37245179 .39746095 .39530946 .3733724 .4377594 .33317057 .45898438 .27685548 .45898438 .23649089 .45898438 .20263672 .44437156 .17529297 .41514588 .14794922 .3859202 .13346355 .34877525 .13183594 .30371095H.42236329M.27392579 .5361328V.5361328Z"/>
<path id="font_2_32" d="M.06689453 .5234375H.15039063V.4326172C.15722656 .4502767 .17399089 .4717814 .2006836 .49713136 .2273763 .52248129 .25813804 .53515627 .29296876 .53515627 .29459635 .53515627 .29736329 .5349579 .30126954 .53456118 .30517579 .5341746 .31184898 .5333964 .32128907 .53222659V.43945313C.31608073 .44062297 .3112793 .44140116 .30688478 .44178773 .30249024 .44218446 .2976888 .4423828 .29248048 .4423828 .24820964 .4423828 .2141927 .4280599 .19042969 .39941407 .16666667 .37076823 .15478516 .33789063 .15478516 .30078126V0H.06689453V.5234375Z"/>
<path id="font_2_20" d="M.13183594 .1394043C.13183594 .114095058 .14111328 .09413656 .15966797 .07952881 .17822266 .06492106 .20019531 .057617189 .22558594 .057617189 .2565104 .057617189 .28645835 .06471761 .3154297 .07891846 .3642578 .10247803 .38867188 .14127605 .38867188 .1953125V.26611329C.3779297 .25886027 .36409507 .2528127 .34716798 .24797058 .33024089 .24313863 .3136393 .23983257 .29736329 .23805237L.24414063 .23184204C.21223958 .22799683 .1883138 .22153218 .17236328 .21244812 .14534505 .19718933 .13183594 .17284139 .13183594 .1394043M.34472657 .31689454C.36490885 .3194987 .37841798 .32796226 .3852539 .34228517 .38916017 .35012818 .39111329 .36140443 .39111329 .3761139 .39111329 .40618388 .38045249 .42799888 .35913087 .44155885 .33780924 .455129 .30729167 .46191407 .26757813 .46191407 .22167969 .46191407 .18912761 .44948326 .16992188 .42462159 .15917969 .4108785 .15218099 .39043174 .14892578 .36328126H.06689453C.06852213 .42791749 .08943685 .47288514 .12963867 .4981842 .1698405 .5234833 .21647136 .5361328 .26953126 .5361328 .3310547 .5361328 .38102214 .52441409 .4194336 .50097659 .45751954 .47753907 .4765625 .4410502 .4765625 .39151V.08985901C.4765625 .08073425 .47843424 .073404949 .48217774 .067871097 .48592124 .06233724 .4938151 .059570314 .5058594 .059570314 .5097656 .059570314 .51416018 .059814454 .51904299 .060302736 .5239258 .060791017 .5291341 .061523439 .53466799 .0625V-.0028076173C.5209961-.00676473 .5105794-.009236653 .50341799-.010223389 .4962565-.011220296 .48649089-.01171875 .4741211-.01171875 .44384767-.01171875 .421875-.0009104411 .40820313 .020706177 .40104167 .032170614 .3959961 .048380536 .3930664 .06933594 .37516276 .045633954 .34944663 .025060019 .31591798 .0076141359 .2823893-.009831746 .2454427-.018554688 .20507813-.018554688 .15657552-.018554688 .11694336-.0037790936 .08618164 .025772095 .055419923 .055323285 .040039064 .092300418 .040039064 .13670349 .040039064 .18535869 .05517578 .22307332 .08544922 .24984741 .115722659 .2766215 .1554362 .29311119 .20458985 .2993164L.34472657 .31689454M.27197267 .5361328V.5361328Z"/>
<path id="font_2_1" d="M0 0Z"/>
<path id="font_2_21" d="M.057617189 .71875H.1430664V.45948792C.16227214 .4847056 .18522136 .50394698 .21191406 .5172119 .23860677 .53047689 .26757813 .5371094 .29882813 .5371094 .36393229 .5371094 .41674806 .5147095 .4572754 .46990968 .49780274 .42510987 .5180664 .35905458 .5180664 .27174378 .5180664 .1889801 .49804688 .12022909 .4580078 .06549072 .41796876 .010762532 .36246745-.016601563 .2915039-.016601563 .25179038-.016601563 .21826172-.006942749 .19091797 .012374878 .17464192 .023839316 .15722656 .042175294 .13867188 .06738281V0H.057617189V.71875M.2861328 .061523439C.33365885 .061523439 .36922203 .08037821 .39282228 .11808777 .41642253 .1558075 .42822267 .20555115 .42822267 .26731874 .42822267 .32227073 .41642253 .3677877 .39282228 .40386964 .36922203 .43996177 .33447267 .4580078 .28857423 .4580078 .24853516 .4580078 .21346028 .44321189 .18334961 .41362 .15323894 .3840383 .1381836 .3352712 .1381836 .26731874 .1381836 .21822612 .14436849 .17840068 .15673828 .1478424 .17985027 .090296428 .22298177 .061523439 .2861328 .061523439Z"/>
<path id="font_2_35" d="M.15234375 .5234375V.17590332C.15234375 .1491801 .15657552 .12734477 .16503906 .11039734 .18066406 .07911682 .20979817 .06347656 .2524414 .06347656 .3136393 .06347656 .355306 .09085083 .3774414 .14559937 .3894857 .17492676 .3955078 .21516927 .3955078 .2663269V.5234375H.48339845V0H.40039063L.4013672 .0771637C.38997398 .057195028 .3758138 .040339155 .35888673 .02659607 .32535807-.00090026858 .28466798-.0146484379 .2368164-.0146484379 .16227214-.0146484379 .11149088 .010299683 .084472659 .060195924 .06982422 .08693949 .0625 .12265015 .0625 .16732788V.5234375H.15234375M.27294923 .5361328V.5361328Z"/>
<path id="font_2_24" d="M.08642578 .6021576C.08772787 .638443 .09407552 .66500857 .10546875 .68185427 .12597656 .7116597 .16552735 .7265625 .2241211 .7265625 .22965496 .7265625 .23535156 .7263997 .24121094 .7260742 .24707031 .7257487 .2537435 .72526046 .26123048 .7246094V.64453127C.25211589 .6449687 .2455241 .6452382 .24145508 .64533999 .23738607 .64545187 .2335612 .6455078 .22998047 .6455078 .20328777 .6455078 .18733724 .6386719 .1821289 .625 .17692058 .6113281 .1743164 .5764974 .1743164 .5205078H.26123048V.45117188H.17333985V0H.08642578V.45117188H.013671875V.5205078H.08642578V.6021576Z"/>
<path id="font_2_13" d="M.3515625 .08300781C.3844401 .08300781 .41145835 .08642578 .4326172 .09326172 .4703776 .10595703 .50130209 .1303711 .5253906 .1665039 .5445964 .19547527 .55843099 .23258464 .56689456 .27783204 .57177737 .30485026 .57421877 .32991538 .57421877 .35302735 .57421877 .44189454 .55655929 .51090499 .52124026 .5600586 .48592124 .6092122 .42903648 .63378909 .35058595 .63378909H.17822266V.08300781H.3515625M.080566409 .71777346H.37109376C.46972657 .71777346 .54622396 .6827545 .60058596 .6127167 .64908859 .54952499 .67333987 .46857707 .67333987 .36987306 .67333987 .2936503 .6590169 .22475688 .6303711 .16319275 .57991537 .054397584 .49316407 0 .3701172 0H.080566409V.71777346Z"/>
<path id="font_2_11" d="M.44433595 .2939453 .33544923 .61120608 .21972656 .2939453H.44433595M.28466798 .71777346H.39453126L.65478518 0H.54833987L.47558595 .21484375H.19189453L.11425781 0H.0146484379L.28466798 .71777346M.33496095 .71777346V.71777346Z"/>
<path id="font_2_15" d="M.07373047 .71777346H.21289063L.4189453 .11091614 .62353518 .71777346H.76123049V0H.6689453V.42362977C.6689453 .43828837 .6692708 .46255494 .6699219 .49642945 .67057296 .53030398 .67089846 .56662496 .67089846 .60539248L.4663086 0H.3701172L.1640625 .60539248V.58340457C.1640625 .5658162 .1644694 .5390218 .1652832 .50302127 .166097 .46703086 .1665039 .44056703 .1665039 .42362977V0H.07373047V.71777346Z"/>
<path id="font_2_22" d="M.26611329 .53808596C.32503257 .53808596 .37296549 .5237274 .4099121 .49501039 .44685874 .46629334 .46907554 .41684977 .4765625 .3466797H.39111329C.38590495 .37890626 .37402345 .40568034 .35546876 .42700196 .33691407 .44832359 .3071289 .45898438 .26611329 .45898438 .2101237 .45898438 .17008464 .43170677 .1459961 .3771515 .1303711 .34176127 .122558597 .29808555 .122558597 .24612427 .122558597 .19384766 .1336263 .14984639 .15576172 .11412048 .17789714 .07840475 .21272786 .060546876 .2602539 .060546876 .29671226 .060546876 .3256022 .0716095 .34692384 .09373474 .36824546 .115859989 .38297526 .1461385 .39111329 .18457031H.4765625C.46679688 .115234378 .4423828 .06453451 .4033203 .032470704 .3642578 .00040690104 .31429038-.015625 .25341798-.015625 .1850586-.015625 .13053386 .009379069 .08984375 .059387208 .049153646 .10940552 .028808594 .17188008 .028808594 .24681092 .028808594 .33868919 .05110677 .41020204 .095703128 .4613495 .14029949 .51250717 .19710286 .53808596 .26611329 .53808596M.2524414 .5361328V.5361328Z"/>
<path id="font_2_25" d="M.064453128 .71875H.15234375V.45214845C.17317708 .4786682 .19189453 .4973297 .2084961 .50813296 .2368164 .5267995 .2721354 .5361328 .31445313 .5361328 .39029948 .5361328 .44173179 .50957748 .46875 .45646668 .48339845 .42747499 .49072267 .38723756 .49072267 .3357544V0H.40039063V.32958985C.40039063 .3680013 .3955078 .39615885 .3857422 .4140625 .36979167 .44270835 .33984376 .45703126 .29589845 .45703126 .2594401 .45703126 .22639974 .4444987 .19677735 .4194336 .16715496 .3943685 .15234375 .34700523 .15234375 .27734376V0H.064453128V.71875Z"/>
<path id="font_2_26" d="M.064453128 .5205078H.1538086V0H.064453128V.5205078M.064453128 .71777346H.1538086V.61816409H.064453128V.71777346Z"/>
<path id="font_2_31" d="M.28515626 .057617189C.32617188 .057617189 .36027018 .07486979 .38745118 .109375 .41463218 .14389038 .42822267 .1954956 .42822267 .26419068 .42822267 .3060608 .42220054 .34204103 .41015626 .37213136 .38736979 .43003337 .34570313 .45898438 .28515626 .45898438 .22428386 .45898438 .18261719 .42840068 .16015625 .36723329 .14811199 .33451844 .14208985 .29297386 .14208985 .24259949 .14208985 .20204163 .14811199 .16753133 .16015625 .1390686 .1829427 .08476766 .22460938 .057617189 .28515626 .057617189M.057617189 .5205078H.1430664V.45162965C.16064453 .47540284 .17985027 .49379985 .2006836 .5068207 .23030599 .5263621 .26513673 .5361328 .30517579 .5361328 .36442057 .5361328 .41471354 .5133667 .4560547 .46783448 .49739585 .42230226 .5180664 .3572693 .5180664 .2727356 .5180664 .1585083 .48828126 .07691447 .42871095 .027954102 .39095054-.0030517579 .34700523-.018554688 .296875-.018554688 .25748698-.018554688 .22444661-.009984334 .1977539 .007156372 .1821289 .016860962 .16471355 .033518476 .14550781 .057128908V-.20898438H.057617189V.5205078Z"/>
<path id="font_4_2" d="M.41796876 0V.059570314C.35839845 .0094401049 .29475913-.015625 .22705078-.015625 .17789714-.015625 .13948567-.0031738282 .111816409 .021728516 .08414713 .04663086 .0703125 .07714844 .0703125 .11328125 .0703125 .1529948 .088541667 .18766277 .125 .21728516 .16145833 .24690755 .21468099 .26171876 .28466798 .26171876 .3035482 .26171876 .324056 .26049806 .3461914 .25805665 .3683268 .25561524 .3922526 .25179038 .41796876 .24658203V.31341554C.41796876 .33602906 .4075521 .35568748 .38671876 .37239076 .3658854 .38910423 .3346354 .39746095 .29296876 .39746095 .26106773 .39746095 .2163086 .38804627 .1586914 .36921693 .14827474 .36591087 .14160156 .3642578 .13867188 .3642578 .13346355 .3642578 .12898763 .36621095 .12524414 .3701172 .12150065 .37402345 .119628909 .37890626 .119628909 .38476563 .119628909 .39029948 .12125651 .394694 .12451172 .39794923 .12906902 .40283204 .14746094 .40950523 .1796875 .41796876 .23046875 .43164063 .26888023 .43847657 .29492188 .43847657 .3466797 .43847657 .38704429 .42566935 .41601563 .40005494 .44498698 .37444053 .45947267 .34547935 .45947267 .3131714V.041015626H.51416018C.5242513 .041015626 .5314128 .03914388 .53564456 .03540039 .5398763 .031656904 .5419922 .026692709 .5419922 .020507813 .5419922 .0146484379 .5398763 .009765625 .53564456 .005859375 .5314128 .001953125 .5242513 0 .51416018 0H.41796876M.41796876 .20458985C.39876304 .2101237 .37841798 .2141927 .3569336 .21679688 .33544923 .21940105 .31282554 .22070313 .2890625 .22070313 .22949219 .22070313 .1829427 .20784505 .14941406 .1821289 .12402344 .16292317 .111328128 .13997396 .111328128 .11328125 .111328128 .088541667 .12101237 .067708339 .14038086 .05078125 .15974935 .033854169 .18798828 .025390625 .22509766 .025390625 .26057945 .025390625 .29353843 .032470704 .3239746 .04663086 .3544108 .060791017 .3857422 .083333339 .41796876 .11425781V.20458985Z"/>
<path id="font_4_3" d="M.50097659 .61328127V.041015626H.55566409C.5657552 .041015626 .5729167 .03914388 .57714846 .03540039 .5813802 .031656904 .5834961 .026692709 .5834961 .020507813 .5834961 .014923096 .5813802 .010269165 .57714846 .0065460207 .5729167 .0028330486 .5657552 .0009765625 .55566409 .0009765625H.45947267V.08218384C.41194663 .016977946 .3515625-.015625 .2783203-.015625 .24121094-.015625 .20564778-.0057678224 .17163086 .013946533 .13761394 .03366089 .11075846 .061767579 .09106445 .0982666 .071370448 .13476563 .061523439 .17240398 .061523439 .21118164 .061523439 .25028483 .071370448 .28800456 .09106445 .32434083 .11075846 .3606771 .13761394 .38878379 .17163086 .4086609 .20564778 .428538 .2413737 .43847657 .2788086 .43847657 .3504232 .43847657 .41064454 .40603639 .45947267 .341156V.5722656H.40478517C.394694 .5722656 .38753257 .574173 .38330079 .5779877 .379069 .58180239 .37695313 .58673098 .37695313 .59277346 .37695313 .5986328 .379069 .6035156 .38330079 .6074219 .38753257 .6113281 .394694 .61328127 .40478517 .61328127H.50097659M.45947267 .21142578C.45947267 .26364137 .44189454 .30769859 .40673829 .3435974 .37158204 .37950645 .3297526 .39746095 .28125 .39746095 .23242188 .39746095 .19042969 .37950645 .15527344 .3435974 .12011719 .30769859 .10253906 .26364137 .10253906 .21142578 .10253906 .15953572 .12011719 .11555481 .15527344 .07948303 .19042969 .04342143 .23242188 .025390625 .28125 .025390625 .3297526 .025390625 .37158204 .04342143 .40673829 .07948303 .44189454 .11555481 .45947267 .15953572 .45947267 .21142578Z"/>
<path id="font_4_4" d="M.25097657 .42382813V.3200531C.30436198 .36812846 .34431968 .3990682 .3708496 .4128723 .39737956 .4266866 .421875 .43359376 .44433595 .43359376 .46875 .43359376 .49145509 .4253184 .5124512 .4087677 .53344729 .392217 .5439453 .37967936 .5439453 .3711548 .5439453 .3649292 .5419108 .3597819 .5378418 .3557129 .53377279 .3516439 .5286458 .34960938 .52246096 .34960938 .51920577 .34960938 .5164388 .35017906 .51416018 .35131837 .51188156 .35245768 .5076497 .3561605 .50146487 .36242677 .49007163 .3739624 .48014323 .38187156 .4716797 .38615418 .46321617 .3904368 .45491538 .39257813 .44677735 .39257813 .4288737 .39257813 .40730796 .38542176 .38208009 .371109 .3568522 .35679627 .31315104 .32182823 .25097657 .26620484V.041015626H.4326172C.44270835 .041015626 .44986979 .03914388 .45410157 .03540039 .45833335 .031656904 .46044923 .026692709 .46044923 .020507813 .46044923 .0146484379 .45833335 .009765625 .45410157 .005859375 .44986979 .001953125 .44270835 0 .4326172 0H.110839847C.10107422 0 .09407552 .0019175211 .08984375 .0057525637 .08561198 .0095876059 .083496097 .014506022 .083496097 .020507813 .083496097 .026041666 .0855306 .030680338 .08959961 .034423829 .09366862 .038167318 .100748699 .040039064 .110839847 .040039064H.20996094V.3828125H.13427735C.12451172 .3828125 .11751302 .38476563 .11328125 .38867188 .10904948 .39257813 .106933597 .3976237 .106933597 .4038086 .106933597 .40952555 .1089681 .41429139 .11303711 .41810609 .11710612 .42192079 .124186199 .42382813 .13427735 .42382813H.25097657Z"/>
<path id="font_4_1" d="M0 0Z"/>
<path id="font_4_5" d="M.21582031 .42382813H.43847657C.4482422 .42382813 .45524089 .42192079 .45947267 .41810609 .46370445 .41429139 .4658203 .4093628 .4658203 .4033203 .4658203 .39746095 .46370445 .39257813 .45947267 .38867188 .45524089 .38476563 .4482422 .3828125 .43847657 .3828125H.21582031V.1091156C.21582031 .08529154 .2253418 .06537882 .24438477 .04937744 .26342774 .03338623 .29134117 .025390625 .328125 .025390625 .35579429 .025390625 .3857422 .029541016 .41796876 .037841798 .4501953 .046142579 .4752604 .0555013 .49316407 .06591797 .49967448 .07014974 .5050456 .072265628 .50927737 .072265628 .51448568 .072265628 .51904299 .07023112 .5229492 .06616211 .52685549 .062093099 .5288086 .057291669 .5288086 .051757814 .5288086 .046875 .5266927 .042317708 .52246096 .038085939 .51204428 .02734375 .48673503 .01570638 .4465332 .0031738282 .4063314-.009358724 .36783854-.015625 .3310547-.015625 .28320313-.015625 .24511719-.0043691 .21679688 .0181427 .18847656 .040664674 .1743164 .071014408 .1743164 .109191898V.3828125H.09863281C.08886719 .3828125 .08186849 .3847402 .07763672 .38859559 .073404949 .39246116 .07128906 .39745078 .07128906 .40356446 .07128906 .40935264 .073404949 .4141744 .07763672 .4180298 .08186849 .42189536 .08886719 .42382813 .09863281 .42382813H.1743164V.54571536C.1743164 .5555522 .17626953 .5625966 .18017578 .56684878 .18408203 .571111 .18896485 .5732422 .19482422 .5732422 .20100911 .5732422 .20605469 .571111 .20996094 .56684878 .21386719 .5625966 .21582031 .5555522 .21582031 .54571536V.42382813Z"/>
<path id="font_2_18" d="M.13964844 .23144531C.14192708 .19064331 .15152996 .1575063 .16845703 .1320343 .2006836 .084376018 .25748698 .060546876 .3388672 .060546876 .37532554 .060546876 .40852867 .06575521 .43847657 .076171878 .49641929 .096354167 .5253906 .13248189 .5253906 .18455506 .5253906 .22361756 .5131836 .25144959 .48876954 .26805116 .46402995 .2843882 .42529298 .29859925 .3725586 .3106842L.27539063 .3327484C.21191406 .3471222 .16699219 .36294047 .140625 .38020326 .095052089 .41016136 .072265628 .4549408 .072265628 .5145416 .072265628 .57902529 .094563808 .6319478 .13916016 .6733093 .18375652 .71467086 .24690755 .73535159 .32861329 .73535159 .4038086 .73535159 .46769206 .7172038 .5202637 .6809082 .57283529 .6446126 .5991211 .58658859 .5991211 .50683596H.5078125C.5029297 .5452474 .49251304 .57470706 .4765625 .59521487 .4469401 .6326497 .39664714 .6513672 .3256836 .6513672 .26839195 .6513672 .22721355 .63931277 .20214844 .61520388 .17708333 .591095 .16455078 .56307479 .16455078 .5311432 .16455078 .49595643 .17919922 .47021995 .2084961 .45393373 .22770183 .44350688 .27115885 .43047587 .3388672 .4148407L.43945313 .39187623C.48795573 .38079835 .5253906 .36565147 .5517578 .34643556 .59733077 .31288658 .6201172 .26419068 .6201172 .2003479 .6201172 .12085978 .59122726 .06401571 .53344729 .029815674 .47566734-.004384359 .40852867-.021484375 .33203126-.021484375 .24283855-.021484375 .17301433 .0013478597 .122558597 .04701233 .07210287 .0923411 .04736328 .15381877 .048339845 .23144531H.13964844M.3359375 .7373047V.7373047Z"/>
<path id="font_2_2" d="M.29589845 .7294922C.24479167 .6301575 .21158855 .55703738 .19628906 .51013186 .17317708 .43881227 .1616211 .3564148 .1616211 .26293946 .1616211 .16848755 .17480469 .08217875 .20117188 .0040130617 .21744792-.044184369 .24951172-.11355591 .29736329-.20410156H.23828125C.1907552-.12984212 .16129558-.08245341 .14990235-.061935426 .13850911-.04141744 .12613933-.013570149 .11279297 .021606446 .094563808 .06980387 .08186849 .1212616 .07470703 .17597962 .071126308 .2043101 .06933594 .23134358 .06933594 .25708009 .06933594 .3534851 .084472659 .43930564 .114746097 .5145416 .13395183 .5624135 .17399089 .6340637 .23486328 .7294922H.29589845Z"/>
<path id="font_2_4" d="M.08300781-.10253906C.10546875-.098612468 .12125651-.08274841 .1303711-.0549469 .1352539-.040227254 .13769531-.026000977 .13769531-.012268066 .13769531-.009979248 .13761394-.00793457 .13745117-.006134033 .1372884-.004333496 .13688152-.0022888184 .13623047 0H.08300781V.10644531H.1875V.0078125C.1875-.030924479 .1796875-.064941409 .1640625-.09423828 .1484375-.123535159 .12141927-.14160156 .08300781-.1484375V-.10253906Z"/>
<path id="font_2_3" d="M.03466797-.20410156C.08642578-.103139247 .119791667-.029530844 .13476563 .016723633 .15755208 .08674113 .16894531 .16881307 .16894531 .26293946 .16894531 .35706584 .15576172 .44321189 .12939453 .52137759 .11311849 .569575 .08105469 .63894656 .033203126 .7294922H.092285159C.14241536 .64937338 .17277019 .59995016 .18334961 .58122256 .19392903 .56249496 .20540364 .5366821 .21777344 .5037842 .23339844 .46307374 .24454753 .42285157 .2512207 .38311769 .2578939 .3433838 .26123048 .30511476 .26123048 .26831056 .26123048 .17190552 .24593099 .08592224 .21533203 .010360718 .1961263-.03816223 .15625-.10964966 .095703128-.20410156H.03466797Z"/>
<path id="font_2_5" d="M.22753906 .71777346H.3017578L.07421875 0H0L.22753906 .71777346Z"/>
<path id="font_2_10" d="M.27197267 .40625C.31070964 .40625 .34098307 .41704814 .36279298 .4386444 .38460288 .4602407 .3955078 .48598228 .3955078 .51586917 .3955078 .5418498 .38509117 .5657196 .3642578 .58747866 .34342448 .6092377 .3116862 .6201172 .26904298 .6201172 .22672527 .6201172 .1961263 .6092377 .1772461 .58747866 .15836589 .5657196 .14892578 .54022219 .14892578 .5109863 .14892578 .4781901 .16113281 .452535 .18554688 .434021 .20996094 .415507 .23876953 .40625 .27197267 .40625M.27734376 .059570314C.31803385 .059570314 .35180665 .07055664 .3786621 .0925293 .40551759 .11450195 .4189453 .14729817 .4189453 .19091797 .4189453 .23616536 .4051107 .2705078 .3774414 .2939453 .34977214 .3173828 .31429038 .32910157 .2709961 .32910157 .2290039 .32910157 .19474285 .31713868 .16821289 .2932129 .14168294 .2692871 .12841797 .23616536 .12841797 .19384766 .12841797 .15738933 .14054363 .12589519 .16479492 .099365238 .18904622 .07283529 .2265625 .059570314 .27734376 .059570314M.15234375 .37234498C.12792969 .3827413 .10888672 .39491783 .095214847 .4088745 .069498699 .43485514 .056640626 .46863304 .056640626 .51020815 .056640626 .5621694 .075520839 .6068217 .11328125 .64416506 .15104167 .68151858 .20458985 .7001953 .27392579 .7001953 .34098307 .7001953 .3935547 .6825765 .43164063 .64733889 .46972657 .61210128 .48876954 .5709381 .48876954 .5238495 .48876954 .48033143 .4777018 .44509379 .4555664 .4181366 .44319663 .4028778 .42399089 .38793946 .39794923 .37332154 .42692057 .359965 .44970704 .34465537 .4663086 .32739259 .49723307 .29482017 .5126953 .25247193 .5126953 .2003479 .5126953 .13878377 .49202476 .08658346 .4506836 .04374695 .40934245 .0009104411 .35091148-.020507813 .27539063-.020507813 .20735677-.020507813 .14982097-.0020243328 .1027832 .034942628 .05574544 .07191976 .032226564 .12559001 .032226564 .19595337 .032226564 .23732503 .042317708 .2730764 .0625 .3032074 .08268229 .3333384 .11263021 .35638429 .15234375 .37234498Z"/>
<path id="font_2_28" d="M.064453128 .5234375H.15136719V.44921876C.17220052 .4749349 .19108074 .49365235 .20800781 .5053711 .23697917 .52522787 .26985679 .53515627 .30664063 .53515627 .34830729 .53515627 .38183595 .52490237 .40722657 .50439456 .42154948 .49267579 .4345703 .4754232 .44628907 .45263673 .4658203 .4806315 .48876954 .5013835 .5151367 .5148926 .5415039 .5284017 .5711263 .53515627 .6040039 .53515627 .6743164 .53515627 .72216799 .5097402 .7475586 .45890809 .76123049 .43154399 .7680664 .3947296 .7680664 .34846498V0H.6767578V.36367799C.6767578 .39853923 .6680501 .42248536 .65063479 .43551637 .6332194 .44855754 .6119792 .45507813 .58691409 .45507813 .5524089 .45507813 .5227051 .44350688 .49780274 .42036439 .4729004 .39723207 .46044923 .35861717 .46044923 .30451966V0H.37109376V.3416748C.37109376 .37719728 .36686198 .4031016 .35839845 .41938783 .3450521 .4438324 .32014976 .4560547 .2836914 .4560547 .25048829 .4560547 .22029622 .44318138 .19311524 .4174347 .16593425 .3916982 .15234375 .34510295 .15234375 .27764894V0H.064453128V.5234375Z"/>
<path id="font_2_37" d="M.39111329 .5234375H.48828126C.47591148 .48987834 .44840495 .41330973 .40576173 .2937317 .3738607 .20380657 .34716798 .13049825 .3256836 .07380676 .27490235-.059921266 .23909505-.14145915 .21826172-.17080689 .19742839-.2001648 .1616211-.21484375 .110839847-.21484375 .098470058-.21484375 .08894857-.21435039 .08227539-.21336365 .07560221-.21238709 .06738281-.21058655 .057617189-.20796204V-.1274414C.072916667-.13167317 .083984378-.13427735 .09082031-.1352539 .09765625-.13623047 .10367838-.13671875 .10888672-.13671875 .12516277-.13671875 .13712566-.1340332 .14477539-.12866211 .15242513-.123291019 .15885417-.11669922 .1640625-.10888672 .16569011-.106282558 .17154949-.092936199 .18164063-.068847659 .19173177-.044759115 .19905599-.026855469 .20361328-.015136719L.010253906 .5234375H.10986328L.25 .09727478 .39111329 .5234375M.24951172 .5361328V.5361328Z"/>
<path id="font_2_16" d="M.08544922 .71777346H.40820313C.47200523 .71777346 .5234375 .6997884 .5625 .66381838 .6015625 .6278483 .62109377 .5773112 .62109377 .51220706 .62109377 .45621745 .6036784 .4074707 .56884768 .3659668 .5340169 .3244629 .48046876 .30371095 .40820313 .30371095H.18261719V0H.08544922V.71777346M.5229492 .5114746C.5229492 .56410726 .50341799 .5998433 .46435548 .61868289 .4428711 .62875369 .41341148 .63378909 .37597657 .63378909H.18261719V.3857422H.37597657C.41959635 .3857422 .45499674 .39499919 .48217774 .41351319 .5093587 .43203736 .5229492 .46469117 .5229492 .5114746Z"/>
<path id="font_2_19" d="M.18164063 .71777346V.27441407C.18164063 .22233074 .19140625 .17903646 .2109375 .14453125 .23990886 .092447917 .28873698 .06640625 .35742188 .06640625 .43977867 .06640625 .49576823 .094563808 .5253906 .1508789 .5413411 .18147786 .5493164 .22265625 .5493164 .27441407V.71777346H.6479492V.3149414C.6479492 .22672527 .6360677 .15885417 .6123047 .111328128 .5686849 .024739584 .48632813-.018554688 .36523438-.018554688 .24414063-.018554688 .16194661 .024739584 .118652347 .111328128 .09488932 .15885417 .08300781 .22672527 .08300781 .3149414V.71777346H.18164063M.36572267 .71777346V.71777346Z"/>
</defs>
<g clip-path="url(#clip_0)">
<g clip-path="url(#clip_1)">
<path transform="matrix(1,0,0,-1,-1.55675,540)" d="M0 539.9999H719.9999V.00003079383H0Z" fill="#ffffff" fill-rule="evenodd"/>
<use data-text="C" xlink:href="#font_2_12" transform="matrix(16,0,0,-16,433.51826,44.650087)"/>
<use data-text="o" xlink:href="#font_2_30" transform="matrix(16,0,0,-16,445.07347,44.650087)"/>
<use data-text="l" xlink:href="#font_2_27" transform="matrix(16,0,0,-16,453.97267,44.650087)"/>
<use data-text="s" xlink:href="#font_2_33" transform="matrix(16,0,0,-16,457.52787,44.650087)"/>
<use data-text="&#xfffd;" xlink:href="#font_3_1" transform="matrix(16,0,0,-16,465.52787,44.650087)"/>
<use data-text="R" xlink:href="#font_2_17" transform="matrix(16,0,0,-16,293.26826,155.15)"/>
<use data-text="o" xlink:href="#font_2_30" transform="matrix(16,0,0,-16,304.82347,155.15)"/>
<use data-text="w" xlink:href="#font_2_36" transform="matrix(16,0,0,-16,313.72267,155.15)"/>
<use data-text="s" xlink:href="#font_2_33" transform="matrix(16,0,0,-16,325.27787,155.15)"/>
<use data-text="&#xfffd;" xlink:href="#font_3_1" transform="matrix(16,0,0,-16,333.27787,155.15)"/>
<path transform="matrix(1,0,0,-1,-1.55675,540)" d="M353.9999 473.9999H401.9999V431.9999H353.9999Z" fill="#ffffff" fill-rule="evenodd"/>
<path transform="matrix(.00007874014,0,0,.00007874014,352.44316,66.00009)" stroke-width="12700" stroke-linecap="butt" stroke-miterlimit="8" stroke-linejoin="miter" fill="none" stroke="#000000" d="M-.08374035-.1506346H609600V533399.9H-.08374035Z"/>
<path transform="matrix(1,0,0,-1,-1.55675,540)" d="M402 473.9999H450V431.9999H402Z" fill="#ffffff" fill-rule="evenodd"/>
<path transform="matrix(.00007874014,0,0,.00007874014,400.44325,66.00009)" stroke-width="12700" stroke-linecap="butt" stroke-miterlimit="8" stroke-linejoin="miter" fill="none" stroke="#000000" d="M-.1024171-.1506346H609600V533399.9H-.1024171Z"/>
<path transform="matrix(1,0,0,-1,-1.55675,540)" d="M449.9999 473.9999H497.9999V431.9999H449.9999Z" fill="#ffffff" fill-rule="evenodd"/>
<path transform="matrix(.00007874014,0,0,.00007874014,448.44316,66.00009)" stroke-width="12700" stroke-linecap="butt" stroke-miterlimit="8" stroke-linejoin="miter" fill="none" stroke="#000000" d="M.1037596-.1506346H609600.2V533399.9H.1037596Z"/>
<path transform="matrix(1,0,0,-1,-1.55675,540)" d="M497.9999 473.9999H545.9999V431.9999H497.9999Z" fill="#ffffff" fill-rule="evenodd"/>
<path transform="matrix(.00007874014,0,0,.00007874014,496.44316,66.00009)" stroke-width="12700" stroke-linecap="butt" stroke-miterlimit="8" stroke-linejoin="miter" fill="none" stroke="#000000" d="M-.1900637-.1506346H609599.5V533399.9H-.1900637Z"/>
<path transform="matrix(1,0,0,-1,-1.55675,540)" d="M353.9999 431.9999H401.9999V389.9999H353.9999Z" fill="#ffffff" fill-rule="evenodd"/>
<path transform="matrix(.00007874014,0,0,.00007874014,352.44316,108.00009)" stroke-width="12700" stroke-linecap="butt" stroke-miterlimit="8" stroke-linejoin="miter" fill="none" stroke="#000000" d="M-.08374035-.0686034H609600V533400H-.08374035Z"/>
<path transform="matrix(1,0,0,-1,-1.55675,540)" d="M402 431.9999H450V389.9999H402Z" fill="#ffffff" fill-rule="evenodd"/>
<path transform="matrix(.00007874014,0,0,.00007874014,400.44325,108.00009)" stroke-width="12700" stroke-linecap="butt" stroke-miterlimit="8" stroke-linejoin="miter" fill="none" stroke="#000000" d="M-.1024171-.0686034H609600V533400H-.1024171Z"/>
<path transform="matrix(1,0,0,-1,-1.55675,540)" d="M449.9999 431.9999H497.9999V389.9999H449.9999Z" fill="#ffffff" fill-rule="evenodd"/>
<path transform="matrix(.00007874014,0,0,.00007874014,448.44316,108.00009)" stroke-width="12700" stroke-linecap="butt" stroke-miterlimit="8" stroke-linejoin="miter" fill="none" stroke="#000000" d="M.1037596-.0686034H609600.2V533400H.1037596Z"/>
<path transform="matrix(1,0,0,-1,-1.55675,540)" d="M497.9999 431.9999H545.9999V389.9999H497.9999Z" fill="#ffffff" fill-rule="evenodd"/>
<path transform="matrix(.00007874014,0,0,.00007874014,496.44316,108.00009)" stroke-width="12700" stroke-linecap="butt" stroke-miterlimit="8" stroke-linejoin="miter" fill="none" stroke="#000000" d="M-.1900637-.0686034H609599.5V533400H-.1900637Z"/>
<path transform="matrix(1,0,0,-1,-1.55675,540)" d="M353.9999 390H401.9999V348H353.9999Z" fill="#ffffff" fill-rule="evenodd"/>
<path transform="matrix(.00007874014,0,0,.00007874014,352.44316,150)" stroke-width="12700" stroke-linecap="butt" stroke-miterlimit="8" stroke-linejoin="miter" fill="none" stroke="#000000" d="M-.08374035 .1258546H609600V533400.2H-.08374035Z"/>
<path transform="matrix(1,0,0,-1,-1.55675,540)" d="M402 390H450V348H402Z" fill="#cbcbcb" fill-rule="evenodd"/>
<path transform="matrix(.00007874014,0,0,.00007874014,400.44325,150)" stroke-width="12700" stroke-linecap="butt" stroke-miterlimit="8" stroke-linejoin="miter" fill="none" stroke="#000000" d="M-.1024171 .1258546H609600V533400.2H-.1024171Z"/>
<path transform="matrix(1,0,0,-1,-1.55675,540)" d="M449.9999 390H497.9999V348H449.9999Z" fill="#ffffff" fill-rule="evenodd"/>
<path transform="matrix(.00007874014,0,0,.00007874014,448.44316,150)" stroke-width="12700" stroke-linecap="butt" stroke-miterlimit="8" stroke-linejoin="miter" fill="none" stroke="#000000" d="M.1037596 .1258546H609600.2V533400.2H.1037596Z"/>
<path transform="matrix(1,0,0,-1,-1.55675,540)" d="M497.9999 390H545.9999V348H497.9999Z" fill="#ffffff" fill-rule="evenodd"/>
<path transform="matrix(.00007874014,0,0,.00007874014,496.44316,150)" stroke-width="12700" stroke-linecap="butt" stroke-miterlimit="8" stroke-linejoin="miter" fill="none" stroke="#000000" d="M-.1900637 .1258546H609599.5V533400.2H-.1900637Z"/>
<path transform="matrix(1,0,0,-1,-1.55675,540)" d="M353.9999 348H401.9999V306H353.9999Z" fill="#ffffff" fill-rule="evenodd"/>
<path transform="matrix(.00007874014,0,0,.00007874014,352.44316,192)" stroke-width="12700" stroke-linecap="butt" stroke-miterlimit="8" stroke-linejoin="miter" fill="none" stroke="#000000" d="M-.08374035 .2078858H609600V533400.3H-.08374035Z"/>
<path transform="matrix(1,0,0,-1,-1.55675,540)" d="M402 348H450V306H402Z" fill="#ffffff" fill-rule="evenodd"/>
<path transform="matrix(.00007874014,0,0,.00007874014,400.44325,192)" stroke-width="12700" stroke-linecap="butt" stroke-miterlimit="8" stroke-linejoin="miter" fill="none" stroke="#000000" d="M-.1024171 .2078858H609600V533400.3H-.1024171Z"/>
<path transform="matrix(1,0,0,-1,-1.55675,540)" d="M449.9999 348H497.9999V306H449.9999Z" fill="#ffffff" fill-rule="evenodd"/>
<path transform="matrix(.00007874014,0,0,.00007874014,448.44316,192)" stroke-width="12700" stroke-linecap="butt" stroke-miterlimit="8" stroke-linejoin="miter" fill="none" stroke="#000000" d="M.1037596 .2078858H609600.2V533400.3H.1037596Z"/>
<path transform="matrix(1,0,0,-1,-1.55675,540)" d="M497.9999 348H545.9999V306H497.9999Z" fill="#ffffff" fill-rule="evenodd"/>
<path transform="matrix(.00007874014,0,0,.00007874014,496.44316,192)" stroke-width="12700" stroke-linecap="butt" stroke-miterlimit="8" stroke-linejoin="miter" fill="none" stroke="#000000" d="M-.1900637 .2078858H609599.5V533400.3H-.1900637Z"/>
<use data-text="0" xlink:href="#font_2_6" transform="matrix(16,0,0,-16,371.64326,60.400087)"/>
<use data-text="&#xfffd;" xlink:href="#font_3_1" transform="matrix(16,0,0,-16,380.54246,60.400087)"/>
<use data-text="1" xlink:href="#font_2_7" transform="matrix(16,0,0,-16,419.64326,61.650087)"/>
<use data-text="&#xfffd;" xlink:href="#font_3_1" transform="matrix(16,0,0,-16,428.54246,61.650087)"/>
<use data-text="2" xlink:href="#font_2_8" transform="matrix(16,0,0,-16,468.26826,61.650087)"/>
<use data-text="&#xfffd;" xlink:href="#font_3_1" transform="matrix(16,0,0,-16,477.16746,61.650087)"/>
<use data-text="3" xlink:href="#font_2_9" transform="matrix(16,0,0,-16,516.26828,61.650087)"/>
<use data-text="&#xfffd;" xlink:href="#font_3_1" transform="matrix(16,0,0,-16,525.1675,61.650087)"/>
<use data-text="0" xlink:href="#font_2_6" transform="matrix(16,0,0,-16,335.64326,95.150089)"/>
<use data-text="&#xfffd;" xlink:href="#font_3_1" transform="matrix(16,0,0,-16,344.54246,95.150089)"/>
<use data-text="1" xlink:href="#font_2_7" transform="matrix(16,0,0,-16,335.64326,137.15009)"/>
<use data-text="&#xfffd;" xlink:href="#font_3_1" transform="matrix(16,0,0,-16,344.54246,137.15009)"/>
<use data-text="2" xlink:href="#font_2_8" transform="matrix(16,0,0,-16,335.64326,179.15)"/>
<use data-text="&#xfffd;" xlink:href="#font_3_1" transform="matrix(16,0,0,-16,344.54246,179.15)"/>
<use data-text="3" xlink:href="#font_2_9" transform="matrix(16,0,0,-16,335.64326,221.15)"/>
<use data-text="&#xfffd;" xlink:href="#font_3_1" transform="matrix(16,0,0,-16,344.54246,221.15)"/>
<path transform="matrix(.00007874014,0,0,.00007874014,352.19325,66.00009)" stroke-width="38100" stroke-linecap="butt" stroke-miterlimit="8" stroke-linejoin="miter" fill="none" stroke="#000000" d="M-.1966553-.1506346H2438400V2133600H-.1966553Z"/>
<path transform="matrix(1,0,0,-1,-1.55675,540)" d="M353.75 282H401.75V240H353.75Z" fill="#ffffff" fill-rule="evenodd"/>
<path transform="matrix(.00007874014,0,0,.00007874014,352.19325,258)" stroke-width="12700" stroke-linecap="butt" stroke-miterlimit="8" stroke-linejoin="miter" fill="none" stroke="#000000" d="M-.1966553 .08679205H609599.9V533400.2H-.1966553Z"/>
<path transform="matrix(1,0,0,-1,-1.55675,540)" d="M401.7499 282H449.7499V240H401.7499Z" fill="#ffffff" fill-rule="evenodd"/>
<path transform="matrix(.00007874014,0,0,.00007874014,400.19316,258)" stroke-width="12700" stroke-linecap="butt" stroke-miterlimit="8" stroke-linejoin="miter" fill="none" stroke="#000000" d="M.009521365 .08679205H609600.1V533400.2H.009521365Z"/>
<path transform="matrix(1,0,0,-1,-1.55675,540)" d="M449.7499 282H497.7499V240H449.7499Z" fill="#ffffff" fill-rule="evenodd"/>
<path transform="matrix(.00007874014,0,0,.00007874014,448.19316,258)" stroke-width="12700" stroke-linecap="butt" stroke-miterlimit="8" stroke-linejoin="miter" fill="none" stroke="#000000" d="M.1032714 .08679205H609600.2V533400.2H.1032714Z"/>
<path transform="matrix(1,0,0,-1,-1.55675,540)" d="M497.7499 282H545.7499V240H497.7499Z" fill="#ffffff" fill-rule="evenodd"/>
<path transform="matrix(.00007874014,0,0,.00007874014,496.19316,258)" stroke-width="12700" stroke-linecap="butt" stroke-miterlimit="8" stroke-linejoin="miter" fill="none" stroke="#000000" d="M-.3029786 .08679205H609599.8V533400.2H-.3029786Z"/>
<path transform="matrix(.00007874014,0,0,.00007874014,352.19325,258)" stroke-width="38100" stroke-linecap="butt" stroke-miterlimit="8" stroke-linejoin="miter" fill="none" stroke="#000000" d="M-.1966553 .08679205H2438400V533400.2H-.1966553Z"/>
<use data-text="I" xlink:href="#font_2_14" transform="matrix(16,0,0,-16,387.51826,324.4)"/>
<use data-text="n" xlink:href="#font_2_29" transform="matrix(16,0,0,-16,391.96305,324.4)"/>
<use data-text="t" xlink:href="#font_2_34" transform="matrix(16,0,0,-16,400.86225,324.4)"/>
<use data-text="e" xlink:href="#font_2_23" transform="matrix(16,0,0,-16,405.30705,324.4)"/>
<use data-text="r" xlink:href="#font_2_32" transform="matrix(16,0,0,-16,414.20625,324.4)"/>
<use data-text="n" xlink:href="#font_2_29" transform="matrix(16,0,0,-16,419.53425,324.4)"/>
<use data-text="a" xlink:href="#font_2_20" transform="matrix(16,0,0,-16,428.43345,324.4)"/>
<use data-text="l" xlink:href="#font_2_27" transform="matrix(16,0,0,-16,437.33265,324.4)"/>
<use data-text=" " xlink:href="#font_2_1" transform="matrix(16,0,0,-16,440.88786,324.4)"/>
<use data-text="r" xlink:href="#font_2_32" transform="matrix(16,0,0,-16,445.33265,324.4)"/>
<use data-text="o" xlink:href="#font_2_30" transform="matrix(16,0,0,-16,450.66065,324.4)"/>
<use data-text="w" xlink:href="#font_2_36" transform="matrix(16,0,0,-16,459.55986,324.4)"/>
<use data-text=" " xlink:href="#font_2_1" transform="matrix(16,0,0,-16,471.11506,324.4)"/>
<use data-text="b" xlink:href="#font_2_21" transform="matrix(16,0,0,-16,475.55986,324.4)"/>
<use data-text="u" xlink:href="#font_2_35" transform="matrix(16,0,0,-16,484.45906,324.4)"/>
<use data-text="f" xlink:href="#font_2_24" transform="matrix(16,0,0,-16,493.35826,324.4)"/>
<use data-text="f" xlink:href="#font_2_24" transform="matrix(16,0,0,-16,497.52305,324.4)"/>
<use data-text="e" xlink:href="#font_2_23" transform="matrix(16,0,0,-16,501.96784,324.4)"/>
<use data-text="r" xlink:href="#font_2_32" transform="matrix(16,0,0,-16,510.86708,324.4)"/>
<use data-text="&#xfffd;" xlink:href="#font_3_1" transform="matrix(16,0,0,-16,516.19509,324.4)"/>
<path transform="matrix(.00007874014,0,0,.00007874014,286.44325,19.250123)" stroke-width="12700" stroke-linecap="butt" stroke-dasharray="50800,38100" stroke-miterlimit="8" stroke-linejoin="miter" fill="none" stroke="#000000" d="M-.0750733 .2580568H3505200V4038600H-.0750733Z"/>
<use data-text="D" xlink:href="#font_2_13" transform="matrix(16,0,0,-16,288.39326,13.650085)"/>
<use data-text="R" xlink:href="#font_2_17" transform="matrix(16,0,0,-16,299.94847,13.650085)"/>
<use data-text="A" xlink:href="#font_2_11" transform="matrix(16,0,0,-16,311.50367,13.650085)"/>
<use data-text="M" xlink:href="#font_2_15" transform="matrix(16,0,0,-16,322.17567,13.650085)"/>
<use data-text=" " xlink:href="#font_2_1" transform="matrix(16,0,0,-16,335.50367,13.650085)"/>
<use data-text="c" xlink:href="#font_2_22" transform="matrix(16,0,0,-16,339.94847,13.650085)"/>
<use data-text="h" xlink:href="#font_2_25" transform="matrix(16,0,0,-16,347.94847,13.650085)"/>
<use data-text="i" xlink:href="#font_2_26" transform="matrix(16,0,0,-16,356.84767,13.650085)"/>
<use data-text="p" xlink:href="#font_2_31" transform="matrix(16,0,0,-16,360.40287,13.650085)"/>
<use data-text="&#xfffd;" xlink:href="#font_3_1" transform="matrix(16,0,0,-16,369.30207,13.650085)"/>
<path transform="matrix(.00007874014,0,0,-.00007874014,196.44326,102)" stroke-width="38100" stroke-linecap="butt" stroke-linejoin="round" fill="none" stroke="#000000" d="M-.0008545518-.03210455 1104904 15345.93"/>
<path transform="matrix(1,0,0,-1,-1.55675,540)" d="M279.0633 434.6254 287.9999 439.25 278.9383 443.6245Z" fill-rule="evenodd"/>
<use data-text="a" xlink:href="#font_4_2" transform="matrix(16,0,0,-16,225.26825,125.150089)"/>
<use data-text="d" xlink:href="#font_4_3" transform="matrix(16,0,0,-16,234.86985,125.150089)"/>
<use data-text="d" xlink:href="#font_4_3" transform="matrix(16,0,0,-16,244.47145,125.150089)"/>
<use data-text="r" xlink:href="#font_4_4" transform="matrix(16,0,0,-16,254.07306,125.150089)"/>
<use data-text=" " xlink:href="#font_4_1" transform="matrix(16,0,0,-16,263.67466,125.150089)"/>
<path transform="matrix(.00007874014,0,0,.00007874014,196.44326,240)" stroke-width="38100" stroke-linecap="butt" stroke-linejoin="round" fill="none" stroke="#000000" d="M38100 .0516358H1104900"/>
<path transform="matrix(1,0,0,-1,-1.55675,540)" d="M207 295.5 198 300 207 304.5Z" fill-rule="evenodd"/>
<path transform="matrix(1,0,0,-1,-1.55675,540)" d="M279 304.5 288 300 279 295.5Z" fill-rule="evenodd"/>
<use data-text="d" xlink:href="#font_4_3" transform="matrix(16,0,0,-16,222.76825,263.15)"/>
<use data-text="a" xlink:href="#font_4_2" transform="matrix(16,0,0,-16,232.36985,263.15)"/>
<use data-text="t" xlink:href="#font_4_5" transform="matrix(16,0,0,-16,241.97145,263.15)"/>
<use data-text="a" xlink:href="#font_4_2" transform="matrix(16,0,0,-16,251.57306,263.15)"/>
<use data-text=" " xlink:href="#font_4_1" transform="matrix(16,0,0,-16,261.17466,263.15)"/>
<use data-text="S" xlink:href="#font_2_18" transform="matrix(16,0,0,-16,592.01828,181.67499)"/>
<use data-text="u" xlink:href="#font_2_35" transform="matrix(16,0,0,-16,602.69027,181.67499)"/>
<use data-text="p" xlink:href="#font_2_31" transform="matrix(16,0,0,-16,611.5895,181.67499)"/>
<use data-text="e" xlink:href="#font_2_23" transform="matrix(16,0,0,-16,620.48867,181.67499)"/>
<use data-text="r" xlink:href="#font_2_32" transform="matrix(16,0,0,-16,629.3879,181.67499)"/>
<use data-text="c" xlink:href="#font_2_22" transform="matrix(16,0,0,-16,634.7158,181.67499)"/>
<use data-text="e" xlink:href="#font_2_23" transform="matrix(16,0,0,-16,642.7158,181.67499)"/>
<use data-text="l" xlink:href="#font_2_27" transform="matrix(16,0,0,-16,651.61508,181.67499)"/>
<use data-text="l" xlink:href="#font_2_27" transform="matrix(16,0,0,-16,655.1702,181.67499)"/>
<use data-text="&#xfffd;" xlink:href="#font_3_1" transform="matrix(16,0,0,-16,658.72549,181.67499)"/>
<use data-text="(" xlink:href="#font_2_2" transform="matrix(16,0,0,-16,609.01828,200.67499)"/>
<use data-text="2" xlink:href="#font_2_8" transform="matrix(16,0,0,-16,614.34628,200.67499)"/>
<use data-text="," xlink:href="#font_2_4" transform="matrix(16,0,0,-16,623.2454,200.67499)"/>
<use data-text="1" xlink:href="#font_2_7" transform="matrix(16,0,0,-16,627.69027,200.67499)"/>
<use data-text=")" xlink:href="#font_2_3" transform="matrix(16,0,0,-16,636.5895,200.67499)"/>
<use data-text="&#xfffd;" xlink:href="#font_3_1" transform="matrix(16,0,0,-16,641.9175,200.67499)"/>
<path transform="matrix(-.00007874014,-0,0,-.00007874014,586.4431,186)" stroke-width="28575" stroke-linecap="butt" stroke-linejoin="round" fill="none" stroke="#000000" d="M-.09814429-.1961671 1952709 150208.1"/>
<path transform="matrix(1,0,0,-1,-1.55675,540)" d="M438.4712 362.1172 431.9999 366 438.9889 368.8473Z" fill-rule="evenodd"/>
<use data-text="2" xlink:href="#font_2_8" transform="matrix(12,0,0,-12,239.14325,91.2251)"/>
<use data-text="&#xfffd;" xlink:href="#font_3_1" transform="matrix(12,0,0,-12,245.81766,91.2251)"/>
<use data-text="/" xlink:href="#font_2_5" transform="matrix(12,0,0,-12,240.14325,105.2251)"/>
<use data-text="&#xfffd;" xlink:href="#font_3_1" transform="matrix(12,0,0,-12,243.47686,105.2251)"/>
<use data-text="8" xlink:href="#font_2_10" transform="matrix(12,0,0,-12,239.64325,231.6)"/>
<use data-text="&#xfffd;" xlink:href="#font_3_1" transform="matrix(12,0,0,-12,246.31766,231.6)"/>
<use data-text="/" xlink:href="#font_2_5" transform="matrix(12,0,0,-12,240.64325,245.6)"/>
<use data-text="&#xfffd;" xlink:href="#font_3_1" transform="matrix(12,0,0,-12,243.97686,245.6)"/>
<path transform="matrix(1,0,0,-1,-1.55675,540)" d="M108 491.9999H198V240H108Z" fill="#ffffff" fill-rule="evenodd"/>
<path transform="matrix(.00007874014,0,0,.00007874014,106.44325,48.00009)" stroke-width="12700" stroke-linecap="butt" stroke-miterlimit="8" stroke-linejoin="miter" fill="none" stroke="#000000" d="M.01715085 .3142091H1143000V3200400H.01715085Z"/>
<use data-text="M" xlink:href="#font_2_15" transform="matrix(16,0,0,-16,122.64325,170.79999)"/>
<use data-text="e" xlink:href="#font_2_23" transform="matrix(16,0,0,-16,135.97126,170.79999)"/>
<use data-text="m" xlink:href="#font_2_28" transform="matrix(16,0,0,-16,144.87046,170.79999)"/>
<use data-text="o" xlink:href="#font_2_30" transform="matrix(16,0,0,-16,158.19846,170.79999)"/>
<use data-text="r" xlink:href="#font_2_32" transform="matrix(16,0,0,-16,167.09766,170.79999)"/>
<use data-text="y" xlink:href="#font_2_37" transform="matrix(16,0,0,-16,172.42566,170.79999)"/>
<use data-text="&#xfffd;" xlink:href="#font_3_1" transform="matrix(16,0,0,-16,180.42566,170.79999)"/>
<use data-text="c" xlink:href="#font_2_22" transform="matrix(16,0,0,-16,118.64325,189.79999)"/>
<use data-text="o" xlink:href="#font_2_30" transform="matrix(16,0,0,-16,126.64325,189.79999)"/>
<use data-text="n" xlink:href="#font_2_29" transform="matrix(16,0,0,-16,135.54245,189.79999)"/>
<use data-text="t" xlink:href="#font_2_34" transform="matrix(16,0,0,-16,144.44165,189.79999)"/>
<use data-text="r" xlink:href="#font_2_32" transform="matrix(16,0,0,-16,148.88645,189.79999)"/>
<use data-text="o" xlink:href="#font_2_30" transform="matrix(16,0,0,-16,154.21445,189.79999)"/>
<use data-text="l" xlink:href="#font_2_27" transform="matrix(16,0,0,-16,163.11365,189.79999)"/>
<use data-text="l" xlink:href="#font_2_27" transform="matrix(16,0,0,-16,166.66886,189.79999)"/>
<use data-text="e" xlink:href="#font_2_23" transform="matrix(16,0,0,-16,170.22406,189.79999)"/>
<use data-text="r" xlink:href="#font_2_32" transform="matrix(16,0,0,-16,179.12326,189.79999)"/>
<use data-text="&#xfffd;" xlink:href="#font_3_1" transform="matrix(16,0,0,-16,184.45127,189.79999)"/>
<path transform="matrix(1,0,0,-1,-1.55675,540)" d="M6 378 26.40015 396V387H87.59983V396L108 378 87.59983 360V369H26.40015V360Z" fill="#ffffff" fill-rule="evenodd"/>
<path transform="matrix(.00007874014,0,0,.00007874014,4.4432499,144)" stroke-width="12700" stroke-linecap="butt" stroke-miterlimit="8" stroke-linejoin="miter" fill="none" stroke="#000000" d="M-.002149583 228600.2 259082 .1141358V114300.1H1036318V.1141358L1295400 228600.2 1036318 457200.2V342900.2H259082V457200.2Z"/>
<use data-text="(" xlink:href="#font_2_2" transform="matrix(16,0,0,-16,27.643252,205.65)"/>
<use data-text="t" xlink:href="#font_2_34" transform="matrix(16,0,0,-16,32.971254,205.65)"/>
<use data-text="o" xlink:href="#font_2_30" transform="matrix(16,0,0,-16,37.416055,205.65)"/>
<use data-text=" " xlink:href="#font_2_1" transform="matrix(16,0,0,-16,46.315256,205.65)"/>
<use data-text="C" xlink:href="#font_2_12" transform="matrix(16,0,0,-16,50.760057,205.65)"/>
<use data-text="P" xlink:href="#font_2_16" transform="matrix(16,0,0,-16,62.315256,205.65)"/>
<use data-text="U" xlink:href="#font_2_19" transform="matrix(16,0,0,-16,72.98726,205.65)"/>
<use data-text=")" xlink:href="#font_2_3" transform="matrix(16,0,0,-16,84.54246,205.65)"/>
<use data-text="&#xfffd;" xlink:href="#font_3_1" transform="matrix(16,0,0,-16,89.87046,205.65)"/>
</g>
</g>
</svg>
