<svg xmlns="http://www.w3.org/2000/svg" xmlns:xlink="http://www.w3.org/1999/xlink" version="1.1" width="574.4402pt" height="139.32898pt" viewBox="0 0 574.4402 139.32898">
<defs>
<clipPath id="clip_0">
<path transform="matrix(1,0,0,-1,-35.0268,537.665)" d="M35.0268 398.336H609.467V537.665H35.0268Z" fill-rule="evenodd"/>
</clipPath>
<clipPath id="clip_1">
<path transform="matrix(1,0,0,-1,-35.0268,537.665)" d="M0 .00002324581H719.9999V540H0Z"/>
</clipPath>
<path id="font_2_7" d="M.1328125 .71777346 .3388672 .10652161 .54248049 .71777346H.6513672L.38964845 0H.2866211L.025390625 .71777346H.1328125Z"/>
<path id="font_2_8" d="M.13183594 .1394043C.13183594 .114095058 .14111328 .09413656 .15966797 .07952881 .17822266 .06492106 .20019531 .057617189 .22558594 .057617189 .2565104 .057617189 .28645835 .06471761 .3154297 .07891846 .3642578 .10247803 .38867188 .14127605 .38867188 .1953125V.26611329C.3779297 .25886027 .36409507 .2528127 .34716798 .24797058 .33024089 .24313863 .3136393 .23983257 .29736329 .23805237L.24414063 .23184204C.21223958 .22799683 .1883138 .22153218 .17236328 .21244812 .14534505 .19718933 .13183594 .17284139 .13183594 .1394043M.34472657 .31689454C.36490885 .3194987 .37841798 .32796226 .3852539 .34228517 .38916017 .35012818 .39111329 .36140443 .39111329 .3761139 .39111329 .40618388 .38045249 .42799888 .35913087 .44155885 .33780924 .455129 .30729167 .46191407 .26757813 .46191407 .22167969 .46191407 .18912761 .44948326 .16992188 .42462159 .15917969 .4108785 .15218099 .39043174 .14892578 .36328126H.06689453C.06852213 .42791749 .08943685 .47288514 .12963867 .4981842 .1698405 .5234833 .21647136 .5361328 .26953126 .5361328 .3310547 .5361328 .38102214 .52441409 .4194336 .50097659 .45751954 .47753907 .4765625 .4410502 .4765625 .39151V.08985901C.4765625 .08073425 .47843424 .073404949 .48217774 .067871097 .48592124 .06233724 .4938151 .059570314 .5058594 .059570314 .5097656 .059570314 .51416018 .059814454 .51904299 .060302736 .5239258 .060791017 .5291341 .061523439 .53466799 .0625V-.0028076173C.5209961-.00676473 .5105794-.009236653 .50341799-.010223389 .4962565-.011220296 .48649089-.01171875 .4741211-.01171875 .44384767-.01171875 .421875-.0009104411 .40820313 .020706177 .40104167 .032170614 .3959961 .048380536 .3930664 .06933594 .37516276 .045633954 .34944663 .025060019 .31591798 .0076141359 .2823893-.009831746 .2454427-.018554688 .20507813-.018554688 .15657552-.018554688 .11694336-.0037790936 .08618164 .025772095 .055419923 .055323285 .040039064 .092300418 .040039064 .13670349 .040039064 .18535869 .05517578 .22307332 .08544922 .24984741 .115722659 .2766215 .1554362 .29311119 .20458985 .2993164L.34472657 .31689454M.27197267 .5361328V.5361328Z"/>
<path id="font_2_17" d="M.06689453 .71777346H.15478516V0H.06689453V.71777346Z"/>
<path id="font_2_15" d="M.064453128 .5205078H.1538086V0H.064453128V.5205078M.064453128 .71777346H.1538086V.61816409H.064453128V.71777346Z"/>
<path id="font_2_11" d="M.12011719 .2553711C.12011719 .19923909 .1319987 .15224712 .15576172 .11439514 .17952474 .076543178 .21761067 .057617189 .27001954 .057617189 .31070964 .057617189 .3441569 .075154628 .37036134 .11022949 .39656578 .14531453 .40966798 .19565328 .40966798 .26124574 .40966798 .32748924 .39615885 .37651573 .36914063 .4083252 .3421224 .44014488 .3087565 .4560547 .26904298 .4560547 .22477214 .4560547 .18888347 .4390869 .16137696 .40515138 .13387044 .37121583 .12011719 .32128907 .12011719 .2553711M.2524414 .53222659C.29248048 .53222659 .32600913 .52381899 .35302735 .5070038 .36865235 .4972992 .38639323 .48031617 .40625 .4560547V.71875H.49072267V0H.4116211V.07229614C.39111329 .04023234 .36686198 .017074585 .3388672 .002822876 .3108724-.011428833 .2788086-.018554688 .24267578-.018554688 .18440755-.018554688 .13395183 .0059407555 .091308597 .05493164 .048665365 .10392252 .02734375 .16910808 .02734375 .25048829 .02734375 .32666017 .04679362 .39265953 .08569336 .44848634 .1245931 .5043132 .18017578 .53222659 .2524414 .53222659Z"/>
<path id="font_3_1" d="M0 0Z"/>
<path id="font_2_6" d="M.59814456 .71777346V.63183596H.3564453V0H.2578125V.63183596H.016113282V.71777346H.59814456Z"/>
<path id="font_2_13" d="M.24902344 .53222659C.29003907 .53222659 .32584635 .5220744 .3564453 .50177 .37304688 .49030558 .38997398 .4736023 .40722657 .45166017V.5185547H.48828126V.04234314C.48828126-.024154664 .47851563-.07663473 .45898438-.115097049 .42252604-.18615215 .35367839-.22167969 .2524414-.22167969 .1961263-.22167969 .14876302-.20906575 .11035156-.18383789 .0719401-.15861003 .05045573-.119140628 .045898439-.06542969H.1352539C.13948567-.08873495 .14794922-.10669454 .16064453-.11930847 .1805013-.13872783 .2117513-.1484375 .25439454-.1484375 .32177735-.1484375 .3658854-.12467448 .38671876-.07714844 .39908854-.04916382 .40478517 .0007985433 .4038086 .07273865 .38623048 .04588318 .36507163 .025904337 .34033204 .012802124 .31559245-.000289917 .2828776-.0068359377 .2421875-.0068359377 .18554688-.0068359377 .13598633 .013280232 .09350586 .053512575 .05102539 .09375509 .029785157 .16030376 .029785157 .25315858 .029785157 .34080506 .051188154 .40922547 .09399414 .4584198 .13680013 .5076243 .18847656 .53222659 .24902344 .53222659M.40722657 .26342774C.40722657 .328125 .39388023 .37607829 .3671875 .4072876 .34049479 .43849693 .30647788 .45410157 .26513673 .45410157 .20328777 .45410157 .16097005 .4251658 .1381836 .3672943 .12613933 .33641053 .12011719 .29593406 .12011719 .24586487 .12011719 .1870168 .13208008 .14223226 .15600586 .11151123 .17993164 .0807902 .21207683 .06542969 .2524414 .06542969 .31559245 .06542969 .36002604 .09387716 .3857422 .1507721 .4000651 .18295796 .40722657 .22050984 .40722657 .26342774M.25927735 .5361328V.5361328Z"/>
<path id="font_2_5" d="M.13964844 .23144531C.14192708 .19064331 .15152996 .1575063 .16845703 .1320343 .2006836 .084376018 .25748698 .060546876 .3388672 .060546876 .37532554 .060546876 .40852867 .06575521 .43847657 .076171878 .49641929 .096354167 .5253906 .13248189 .5253906 .18455506 .5253906 .22361756 .5131836 .25144959 .48876954 .26805116 .46402995 .2843882 .42529298 .29859925 .3725586 .3106842L.27539063 .3327484C.21191406 .3471222 .16699219 .36294047 .140625 .38020326 .095052089 .41016136 .072265628 .4549408 .072265628 .5145416 .072265628 .57902529 .094563808 .6319478 .13916016 .6733093 .18375652 .71467086 .24690755 .73535159 .32861329 .73535159 .4038086 .73535159 .46769206 .7172038 .5202637 .6809082 .57283529 .6446126 .5991211 .58658859 .5991211 .50683596H.5078125C.5029297 .5452474 .49251304 .57470706 .4765625 .59521487 .4469401 .6326497 .39664714 .6513672 .3256836 .6513672 .26839195 .6513672 .22721355 .63931277 .20214844 .61520388 .17708333 .591095 .16455078 .56307479 .16455078 .5311432 .16455078 .49595643 .17919922 .47021995 .2084961 .45393373 .22770183 .44350688 .27115885 .43047587 .3388672 .4148407L.43945313 .39187623C.48795573 .38079835 .5253906 .36565147 .5517578 .34643556 .59733077 .31288658 .6201172 .26419068 .6201172 .2003479 .6201172 .12085978 .59122726 .06401571 .53344729 .029815674 .47566734-.004384359 .40852867-.021484375 .33203126-.021484375 .24283855-.021484375 .17301433 .0013478597 .122558597 .04701233 .07210287 .0923411 .04736328 .15381877 .048339845 .23144531H.13964844M.3359375 .7373047V.7373047Z"/>
<path id="font_2_12" d="M.28222657 .53515627C.31933595 .53515627 .355306 .52644857 .39013673 .5090332 .42496745 .49161784 .4514974 .4690806 .46972657 .4414215 .4873047 .41505433 .49902345 .3842977 .5048828 .3491516 .5100911 .32506309 .5126953 .28647868 .5126953 .23339844H.12939453C.13102214 .18033855 .14355469 .13777669 .16699219 .10571289 .19042969 .073649089 .22672527 .057617189 .2758789 .057617189 .32177735 .057617189 .35839845 .07261658 .3857422 .10261536 .4013672 .12003072 .4124349 .14018758 .4189453 .16308594H.5053711C.50309249 .14398194 .49552409 .122690837 .48266603 .09921265 .46980796 .07574463 .45540367 .05656433 .43945313 .041671754 .4127604 .01576233 .37972007-.0017242432 .34033204-.010787964 .3191732-.01596578 .2952474-.018554688 .2685547-.018554688 .20345052-.018554688 .14827474 .0051472985 .103027347 .05255127 .05777995 .09995524 .03515625 .16634114 .03515625 .25170899 .03515625 .33576457 .057942708 .40401713 .103515628 .45646668 .14908855 .5089264 .20865886 .53515627 .28222657 .53515627M.42236329 .30371095C.41878257 .34191896 .41048179 .37245179 .39746095 .39530946 .3733724 .4377594 .33317057 .45898438 .27685548 .45898438 .23649089 .45898438 .20263672 .44437156 .17529297 .41514588 .14794922 .3859202 .13346355 .34877525 .13183594 .30371095H.42236329M.27392579 .5361328V.5361328Z"/>
<path id="font_2_21" d="M.08203125 .66796877H.17089844V.5234375H.25439454V.4501953H.17089844V.110183719C.17089844 .09202576 .17708333 .07986959 .18945313 .07371521 .19628906 .07014465 .2076823 .068359378 .22363281 .068359378 .22786458 .068359378 .23242188 .06846619 .23730469 .06867981 .2421875 .0689036 .24788411 .06944784 .25439454 .0703125V0C.24430339-.0031026204 .23380535-.005340576 .22290039-.006713867 .21199544-.008097331 .20019531-.0087890629 .1875-.0087890629 .14648438-.0087890629 .118652347 .0016988119 .104003909 .02267456 .08935547 .04365031 .08203125 .070882167 .08203125 .10437012V.4501953H.011230469V.5234375H.08203125V.66796877Z"/>
<path id="font_2_1" d="M0 0Z"/>
<path id="font_2_2" d="M.2705078 .7001953C.3610026 .7001953 .42643229 .66289779 .46679688 .5883026 .49804688 .5306447 .5136719 .45165 .5136719 .35131837 .5136719 .25620524 .49951173 .17754109 .4711914 .11532593 .43017579 .026072184 .3631185-.018554688 .27001954-.018554688 .18603516-.018554688 .123535159 .017929078 .08251953 .09089661 .048339845 .15180969 .03125 .23357137 .03125 .33618165 .03125 .41565959 .041503908 .48390199 .06201172 .5409088 .10042318 .6470998 .16992188 .7001953 .2705078 .7001953M.26953126 .061523439C.31510417 .061523439 .35139976 .08168539 .37841798 .12200928 .4054362 .16234334 .4189453 .23747762 .4189453 .3474121 .4189453 .42676798 .4091797 .49205528 .38964845 .5432739 .3701172 .59450277 .332194 .6201172 .2758789 .6201172 .2241211 .6201172 .1862793 .59580489 .16235352 .5471802 .13842774 .4985555 .12646485 .42692057 .12646485 .3322754 .12646485 .26105754 .13411458 .20381673 .14941406 .16055298 .17285156 .09453329 .21289063 .061523439 .26953126 .061523439Z"/>
<path id="font_2_3" d="M.110839847 .51660159H.21289063V.41015626H.110839847V.51660159M.110839847 .10644531H.21289063V0H.110839847V.10644531Z"/>
<path id="font_4_6" d="M.23779297 .71777346H.7607422L.7416992 .6298828H.31347657L.26757813 .41308595H.6635742L.6459961 .32910157H.25L.19824219 .0859375H.63378909L.61572268 0H.08544922L.23779297 .71777346Z"/>
<path id="font_4_1" d="M0 0Z"/>
<path id="font_4_3" d="M.63916018 .4013672 .6220703 .31933595H.11279297L.12988281 .4013672H.63916018M.59472659 .19238281 .57714846 .10839844H.067871097L.08544922 .19238281H.59472659Z"/>
<path id="font_4_5" d="M.77978518 .5019531H.6850586C.68408206 .54848226 .67041018 .5853424 .64404299 .61253359 .6176758 .63972476 .5755208 .6533203 .5175781 .6533203 .4469401 .6533203 .38468424 .628479 .33081056 .5787964 .27693687 .52911379 .23909505 .45295716 .21728516 .35032655 .19938152 .26628114 .20450847 .19810994 .23266602 .14581299 .26082359 .09352621 .3138021 .06738281 .39160157 .06738281 .46321617 .06738281 .5236003 .09484863 .5727539 .14978028 .59847006 .17870076 .62125656 .21672566 .6411133 .26385499H.73583987C.7114258 .18828328 .67008468 .124928798 .6118164 .073791507 .5415039 .012227376 .4580078-.018554688 .36132813-.018554688 .27799479-.018554688 .2133789 .006688436 .16748047 .057174684 .10725912 .12394714 .09195963 .2270406 .12158203 .36645509 .14404297 .47232057 .19042969 .5591278 .2607422 .62687686 .33691407 .7004954 .42822267 .7373047 .53466799 .7373047 .6254883 .7373047 .69091799 .71332809 .73095706 .66537478 .7709961 .61742147 .78727218 .5629476 .77978518 .5019531Z"/>
<path id="font_4_2" d="M.3798828 .71777346H.45410157L.07421875 0H0L.3798828 .71777346Z"/>
<path id="font_4_4" d="M.43359376 .4140625C.47460938 .4140625 .5076497 .4197693 .53271487 .43118287 .5724284 .4491272 .59716799 .48142497 .6069336 .5280762 .6170247 .57506307 .6048177 .6067098 .5703125 .62301638 .55045577 .6321513 .51936849 .63671877 .47705079 .63671877H.30371095L.25683595 .4140625H.43359376M.3959961 .083984378C.4555664 .083984378 .5016276 .101135257 .5341797 .13543701 .5546875 .15712483 .5683594 .18333943 .5751953 .21408081 .586263 .26586915 .5704753 .30114747 .52783206 .31991578 .5053711 .3299459 .47379557 .33496095 .43310548 .33496095H.24023438L.18652344 .083984378H.3959961M.22607422 .71777346H.5341797C.61816409 .71777346 .67252609 .6926575 .6972656 .64242556 .71191409 .6127421 .71500656 .5784963 .70654299 .5396881 .69710287 .49434916 .6764323 .45716349 .64453127 .4281311 .6279297 .41280113 .60579428 .3987783 .578125 .38606263 .6116536 .3720754 .6357422 .35629273 .6503906 .3387146 .67610678 .30748496 .68310549 .26437379 .6713867 .2093811 .6616211 .16317749 .6381836 .12136841 .6010742 .08395386 .5460612 .02798462 .47135417 0 .37695313 0H.07373047L.22607422 .71777346Z"/>
<path id="font_2_18" d="M.064453128 .5234375H.14794922V.44921876C.1726888 .47981773 .19889324 .50179037 .2265625 .5151367 .25423179 .5284831 .2849935 .53515627 .31884767 .53515627 .3930664 .53515627 .44319663 .5092519 .46923829 .45744325 .4835612 .42910258 .49072267 .38853965 .49072267 .3357544V0H.4013672V.3299408C.4013672 .36188255 .39664714 .38762919 .38720704 .4071808 .37158204 .4397634 .34326173 .4560547 .3022461 .4560547 .28141276 .4560547 .2643229 .4539388 .25097657 .44970704 .22688802 .4425354 .20572917 .42819724 .1875 .4066925 .17285156 .38941957 .16333008 .37157694 .15893555 .35316468 .15454102 .3347524 .15234375 .30844117 .15234375 .27423097V0H.064453128V.5234375M.2709961 .5361328V.5361328Z"/>
<path id="font_2_20" d="M.11669922 .1640625C.11930338 .13463338 .12662761 .11207072 .13867188 .09637451 .1608073 .06793213 .19921875 .053710939 .25390626 .053710939 .28645835 .053710939 .31510417 .060806276 .33984376 .07499695 .36458335 .08919779 .37695313 .11115011 .37695313 .14085388 .37695313 .16337586 .36702476 .18051148 .34716798 .19226074 .33447267 .19944255 .30940757 .20775859 .27197267 .21720886L.20214844 .2348175C.15755208 .24590557 .12467448 .25829569 .103515628 .27198792 .06575521 .29579164 .046875 .32873027 .046875 .37080384 .046875 .42036439 .064697269 .46046958 .1003418 .49111939 .13598633 .52177938 .18391927 .5371094 .24414063 .5371094 .32291667 .5371094 .37972007 .5139974 .41455079 .46777345 .4363607 .43847657 .4469401 .40690104 .44628907 .37304688H.36328126C.36165367 .39269004 .35465495 .41055808 .34228517 .426651 .32210288 .44950868 .28710938 .4609375 .23730469 .4609375 .20410156 .4609375 .17895508 .45461528 .16186524 .44197084 .14477539 .42933656 .13623047 .41264854 .13623047 .39190675 .13623047 .36922203 .14746094 .35107423 .16992188 .33746339 .1829427 .32936607 .20214844 .32221986 .22753906 .31602479L.28564454 .3018341C.34879557 .28650413 .39111329 .27166749 .41259767 .25732423 .44677735 .23482259 .4638672 .19944255 .4638672 .15118408 .4638672 .10455322 .44620768 .06428019 .41088868 .03036499 .37556968-.0035502117 .32177735-.020507813 .24951172-.020507813 .17171224-.020507813 .116617839-.002802531 .084228519 .032608034 .05183919 .06801859 .034505208 .111836757 .032226564 .1640625H.11669922M.24658203 .5361328V.5361328Z"/>
<path id="font_2_14" d="M.064453128 .71875H.15234375V.45214845C.17317708 .4786682 .19189453 .4973297 .2084961 .50813296 .2368164 .5267995 .2721354 .5361328 .31445313 .5361328 .39029948 .5361328 .44173179 .50957748 .46875 .45646668 .48339845 .42747499 .49072267 .38723756 .49072267 .3357544V0H.40039063V.32958985C.40039063 .3680013 .3955078 .39615885 .3857422 .4140625 .36979167 .44270835 .33984376 .45703126 .29589845 .45703126 .2594401 .45703126 .22639974 .4444987 .19677735 .4194336 .16715496 .3943685 .15234375 .34700523 .15234375 .27734376V0H.064453128V.71875Z"/>
<path id="font_2_19" d="M.27197267 .057617189C.33024089 .057617189 .37019859 .07964579 .3918457 .123703 .41349284 .16776021 .4243164 .21677144 .4243164 .2707367 .4243164 .31950379 .4165039 .35917155 .4008789 .38974 .3761393 .43785606 .3334961 .46191407 .27294923 .46191407 .21923828 .46191407 .18017578 .44143168 .15576172 .40046693 .13134766 .35950218 .119140628 .31008403 .119140628 .25221253 .119140628 .1966095 .13134766 .15027364 .15576172 .113204959 .18017578 .076146449 .21891277 .057617189 .27197267 .057617189M.27539063 .53808596C.34277345 .53808596 .3997396 .5156453 .44628907 .47076417 .49283854 .42588298 .5161133 .35985819 .5161133 .27268983 .5161133 .1884613 .49560548 .11886088 .45458985 .06388855 .41357423 .008926392 .3499349-.018554688 .26367188-.018554688 .19173177-.018554688 .13460286 .00575765 .092285159 .054382326 .04996745 .103006999 .028808594 .16829936 .028808594 .2502594 .028808594 .33806864 .05110677 .4079895 .095703128 .46002198 .14029949 .51206466 .20019531 .53808596 .27539063 .53808596M.27246095 .5361328V.5361328Z"/>
<path id="font_2_22" d="M.39111329 .5234375H.48828126C.47591148 .48987834 .44840495 .41330973 .40576173 .2937317 .3738607 .20380657 .34716798 .13049825 .3256836 .07380676 .27490235-.059921266 .23909505-.14145915 .21826172-.17080689 .19742839-.2001648 .1616211-.21484375 .110839847-.21484375 .098470058-.21484375 .08894857-.21435039 .08227539-.21336365 .07560221-.21238709 .06738281-.21058655 .057617189-.20796204V-.1274414C.072916667-.13167317 .083984378-.13427735 .09082031-.1352539 .09765625-.13623047 .10367838-.13671875 .10888672-.13671875 .12516277-.13671875 .13712566-.1340332 .14477539-.12866211 .15242513-.123291019 .15885417-.11669922 .1640625-.10888672 .16569011-.106282558 .17154949-.092936199 .18164063-.068847659 .19173177-.044759115 .19905599-.026855469 .20361328-.015136719L.010253906 .5234375H.10986328L.25 .09727478 .39111329 .5234375M.24951172 .5361328V.5361328Z"/>
<path id="font_2_23" d="M.28857423 .35839845C.28857423 .32714845 .2784017 .30126954 .25805665 .28076173 .2377116 .2602539 .21191406 .25 .18066406 .25 .14941406 .25 .12361654 .2602539 .103271488 .28076173 .08292643 .30126954 .072753909 .32714845 .072753909 .35839845 .072753909 .38964845 .08292643 .4153646 .103271488 .43554688 .12361654 .45572917 .14941406 .4658203 .18066406 .4658203 .21191406 .4658203 .2377116 .45572917 .25805665 .43554688 .2784017 .4153646 .28857423 .38964845 .28857423 .35839845Z"/>
<path id="font_3_2" d="M0 0Z"/>
<path id="font_2_4" d="M.37841798 .7373047C.46923829 .7373047 .53971359 .71332809 .58984377 .66537478 .63997396 .61742147 .66780599 .5629476 .67333987 .5019531H.5786133C.5678711 .54817709 .5464681 .58479818 .5144043 .6118164 .48234049 .63883468 .43733726 .65234377 .37939454 .65234377 .3087565 .65234377 .25170899 .62754318 .20825196 .5779419 .16479492 .52834066 .1430664 .45231629 .1430664 .34986878 .1430664 .26594544 .16267903 .19788106 .2019043 .14567566 .24112956 .09348043 .29964195 .06738281 .3774414 .06738281 .449056 .06738281 .50358077 .094823207 .5410156 .14970398 .5608724 .17860413 .5756836 .21659343 .5854492 .26367188H.6801758C.6717122 .18815105 .64371749 .12483724 .5961914 .07373047 .5392253 .012207031 .46240235-.018554688 .36572267-.018554688 .2823893-.018554688 .21240235 .006688436 .15576172 .057174684 .081217449 .12394714 .043945314 .2270406 .043945314 .36645509 .043945314 .47232057 .0719401 .5591278 .12792969 .62687686 .18847656 .7004954 .27197267 .7373047 .37841798 .7373047M.35888673 .7373047V.7373047Z"/>
<path id="font_2_10" d="M.26611329 .53808596C.32503257 .53808596 .37296549 .5237274 .4099121 .49501039 .44685874 .46629334 .46907554 .41684977 .4765625 .3466797H.39111329C.38590495 .37890626 .37402345 .40568034 .35546876 .42700196 .33691407 .44832359 .3071289 .45898438 .26611329 .45898438 .2101237 .45898438 .17008464 .43170677 .1459961 .3771515 .1303711 .34176127 .122558597 .29808555 .122558597 .24612427 .122558597 .19384766 .1336263 .14984639 .15576172 .11412048 .17789714 .07840475 .21272786 .060546876 .2602539 .060546876 .29671226 .060546876 .3256022 .0716095 .34692384 .09373474 .36824546 .115859989 .38297526 .1461385 .39111329 .18457031H.4765625C.46679688 .115234378 .4423828 .06453451 .4033203 .032470704 .3642578 .00040690104 .31429038-.015625 .25341798-.015625 .1850586-.015625 .13053386 .009379069 .08984375 .059387208 .049153646 .10940552 .028808594 .17188008 .028808594 .24681092 .028808594 .33868919 .05110677 .41020204 .095703128 .4613495 .14029949 .51250717 .19710286 .53808596 .26611329 .53808596M.2524414 .5361328V.5361328Z"/>
<path id="font_2_9" d="M.057617189 .71875H.1430664V.45948792C.16227214 .4847056 .18522136 .50394698 .21191406 .5172119 .23860677 .53047689 .26757813 .5371094 .29882813 .5371094 .36393229 .5371094 .41674806 .5147095 .4572754 .46990968 .49780274 .42510987 .5180664 .35905458 .5180664 .27174378 .5180664 .1889801 .49804688 .12022909 .4580078 .06549072 .41796876 .010762532 .36246745-.016601563 .2915039-.016601563 .25179038-.016601563 .21826172-.006942749 .19091797 .012374878 .17464192 .023839316 .15722656 .042175294 .13867188 .06738281V0H.057617189V.71875M.2861328 .061523439C.33365885 .061523439 .36922203 .08037821 .39282228 .11808777 .41642253 .1558075 .42822267 .20555115 .42822267 .26731874 .42822267 .32227073 .41642253 .3677877 .39282228 .40386964 .36922203 .43996177 .33447267 .4580078 .28857423 .4580078 .24853516 .4580078 .21346028 .44321189 .18334961 .41362 .15323894 .3840383 .1381836 .3352712 .1381836 .26731874 .1381836 .21822612 .14436849 .17840068 .15673828 .1478424 .17985027 .090296428 .22298177 .061523439 .2861328 .061523439Z"/>
<path id="font_2_16" d="M.0625 .71777346H.14697266V.30101014L.3725586 .5234375H.48486329L.28466798 .32881166 .49609376 0H.38378907L.22070313 .26635743 .14697266 .19647217V0H.0625V.71777346Z"/>
</defs>
<g clip-path="url(#clip_0)">
<g clip-path="url(#clip_1)">
<path transform="matrix(1,0,0,-1,-35.0268,537.665)" d="M0 539.9999H719.9999V.00003079383H0Z" fill="#ffffff" fill-rule="evenodd"/>
<path transform="matrix(1,0,0,-1,-35.0268,537.665)" d="M89.74999 535.1249H425.7499V407.9999H89.74999Z" fill="#cbcbcb" fill-rule="evenodd"/>
<path transform="matrix(.00007874014,0,0,.00007874014,54.723196,2.5401)" stroke-width="12700" stroke-linecap="butt" stroke-miterlimit="8" stroke-linejoin="miter" fill="none" stroke="#000000" d="M-.04660036 .005127192H4267200V1614487H-.04660036Z"/>
<path transform="matrix(1,0,0,-1,-35.0268,537.665)" d="M102 529.1249H143.75V505.1249H102Z" fill="#ffffff" fill-rule="evenodd"/>
<path transform="matrix(.00007874014,0,0,.00007874014,66.973209,8.5401)" stroke-width="12700" stroke-linecap="butt" stroke-miterlimit="8" stroke-linejoin="miter" fill="none" stroke="#000000" d="M.005432099 .01684594H530225.1V304800.1H.005432099Z"/>
<use data-text="V" xlink:href="#font_2_7" transform="matrix(16,0,0,-16,70.1732,26.940064)"/>
<use data-text="a" xlink:href="#font_2_8" transform="matrix(16,0,0,-16,79.666,26.940064)"/>
<use data-text="l" xlink:href="#font_2_17" transform="matrix(16,0,0,-16,88.5668,26.940064)"/>
<use data-text="i" xlink:href="#font_2_15" transform="matrix(16,0,0,-16,92.123607,26.940064)"/>
<use data-text="d" xlink:href="#font_2_11" transform="matrix(16,0,0,-16,95.680408,26.940064)"/>
<use data-text="&#xfffd;" xlink:href="#font_3_1" transform="matrix(16,0,0,-16,104.58121,26.940064)"/>
<path transform="matrix(1,0,0,-1,-35.0268,537.665)" d="M102 497.9999H143.75V473.9999H102Z" fill="#ffffff" fill-rule="evenodd"/>
<path transform="matrix(.00007874014,0,0,.00007874014,66.973209,39.66507)" stroke-width="12700" stroke-linecap="butt" stroke-miterlimit="8" stroke-linejoin="miter" fill="none" stroke="#000000" d="M.005432099 .3024904H530225.1V304800.3H.005432099Z"/>
<use data-text="V" xlink:href="#font_2_7" transform="matrix(16,0,0,-16,70.1732,58.065065)"/>
<use data-text="a" xlink:href="#font_2_8" transform="matrix(16,0,0,-16,79.666,58.065065)"/>
<use data-text="l" xlink:href="#font_2_17" transform="matrix(16,0,0,-16,88.5668,58.065065)"/>
<use data-text="i" xlink:href="#font_2_15" transform="matrix(16,0,0,-16,92.123607,58.065065)"/>
<use data-text="d" xlink:href="#font_2_11" transform="matrix(16,0,0,-16,95.680408,58.065065)"/>
<use data-text="&#xfffd;" xlink:href="#font_3_1" transform="matrix(16,0,0,-16,104.58121,58.065065)"/>
<path transform="matrix(1,0,0,-1,-35.0268,537.665)" d="M161.75 529.1249H233.75V505.1249H161.75Z" fill="#ffffff" fill-rule="evenodd"/>
<path transform="matrix(.00007874014,0,0,.00007874014,126.723209,8.5401)" stroke-width="12700" stroke-linecap="butt" stroke-miterlimit="8" stroke-linejoin="miter" fill="none" stroke="#000000" d="M-.002868682 .01684594H914399.9V304800.1H-.002868682Z"/>
<use data-text="T" xlink:href="#font_2_6" transform="matrix(16,0,0,-16,149.9232,26.940064)"/>
<use data-text="a" xlink:href="#font_2_8" transform="matrix(16,0,0,-16,157.9232,26.940064)"/>
<use data-text="g" xlink:href="#font_2_13" transform="matrix(16,0,0,-16,166.8192,26.940064)"/>
<use data-text="&#xfffd;" xlink:href="#font_3_1" transform="matrix(16,0,0,-16,175.71521,26.940064)"/>
<path transform="matrix(1,0,0,-1,-35.0268,537.665)" d="M161.75 497.9999H233.75V473.9999H161.75Z" fill="#ffffff" fill-rule="evenodd"/>
<path transform="matrix(.00007874014,0,0,.00007874014,126.723209,39.66507)" stroke-width="12700" stroke-linecap="butt" stroke-miterlimit="8" stroke-linejoin="miter" fill="none" stroke="#000000" d="M-.002868682 .3024904H914399.9V304800.3H-.002868682Z"/>
<use data-text="T" xlink:href="#font_2_6" transform="matrix(16,0,0,-16,149.9232,58.065065)"/>
<use data-text="a" xlink:href="#font_2_8" transform="matrix(16,0,0,-16,157.9232,58.065065)"/>
<use data-text="g" xlink:href="#font_2_13" transform="matrix(16,0,0,-16,166.8192,58.065065)"/>
<use data-text="&#xfffd;" xlink:href="#font_3_1" transform="matrix(16,0,0,-16,175.71521,58.065065)"/>
<use data-text="S" xlink:href="#font_2_5" transform="matrix(16,0,0,-16,6.923191,67.81506)"/>
<use data-text="e" xlink:href="#font_2_12" transform="matrix(16,0,0,-16,17.595192,67.81506)"/>
<use data-text="t" xlink:href="#font_2_21" transform="matrix(16,0,0,-16,26.494393,67.81506)"/>
<use data-text=" " xlink:href="#font_2_1" transform="matrix(16,0,0,-16,30.939192,67.81506)"/>
<use data-text="0" xlink:href="#font_2_2" transform="matrix(16,0,0,-16,35.38399,67.81506)"/>
<use data-text=":" xlink:href="#font_2_3" transform="matrix(16,0,0,-16,44.28319,67.81506)"/>
<use data-text="&#xfffd;" xlink:href="#font_3_1" transform="matrix(16,0,0,-16,48.727994,67.81506)"/>
<path transform="matrix(.00007874014,0,0,.00007874014,396.5982,9.6651)" stroke-width="12700" stroke-linecap="butt" stroke-linejoin="round" fill="none" stroke="#000000" d="M-.04455572 .2438966C63564.69 .2438966 115094.1 51173.87 115094.1 114299.5V571501.1C115094.1 634626.8 166623.1 685800.4 230187.9 685800.4 166623.1 685800.4 115094.1 736973.6 115094.1 800099.2V1257301C115094.1 1320427 63564.69 1371600-.04455572 1371600"/>
<use data-text="E" xlink:href="#font_4_6" transform="matrix(16,0,0,-16,434.29823,61.589967)"/>
<use data-text=" " xlink:href="#font_4_1" transform="matrix(16,0,0,-16,444.9702,61.589967)"/>
<use data-text="=" xlink:href="#font_4_3" transform="matrix(16,0,0,-16,449.415,61.589967)"/>
<use data-text=" " xlink:href="#font_4_1" transform="matrix(16,0,0,-16,458.75904,61.589967)"/>
<use data-text="C" xlink:href="#font_4_5" transform="matrix(16,0,0,-16,463.20384,61.589967)"/>
<use data-text="/" xlink:href="#font_4_2" transform="matrix(16,0,0,-16,474.75904,61.589967)"/>
<use data-text="B" xlink:href="#font_4_4" transform="matrix(16,0,0,-16,479.20384,61.589967)"/>
<use data-text=" " xlink:href="#font_2_1" transform="matrix(16,0,0,-16,489.87635,61.589967)"/>
<use data-text=" " xlink:href="#font_2_1" transform="matrix(16,0,0,-16,494.32115,61.589967)"/>
<use data-text="l" xlink:href="#font_2_17" transform="matrix(16,0,0,-16,498.76594,61.589967)"/>
<use data-text="i" xlink:href="#font_2_15" transform="matrix(16,0,0,-16,502.32115,61.589967)"/>
<use data-text="n" xlink:href="#font_2_18" transform="matrix(16,0,0,-16,505.87635,61.589967)"/>
<use data-text="e" xlink:href="#font_2_12" transform="matrix(16,0,0,-16,514.7755,61.589967)"/>
<use data-text="s" xlink:href="#font_2_20" transform="matrix(16,0,0,-16,523.67477,61.589967)"/>
<use data-text=" " xlink:href="#font_2_1" transform="matrix(16,0,0,-16,531.67477,61.589967)"/>
<use data-text="i" xlink:href="#font_2_15" transform="matrix(16,0,0,-16,536.11959,61.589967)"/>
<use data-text="n" xlink:href="#font_2_18" transform="matrix(16,0,0,-16,539.67477,61.589967)"/>
<use data-text=" " xlink:href="#font_2_1" transform="matrix(16,0,0,-16,548.574,61.589967)"/>
<use data-text="&#xfffd;" xlink:href="#font_3_1" transform="matrix(16,0,0,-16,553.01876,61.589967)"/>
<use data-text="t" xlink:href="#font_2_21" transform="matrix(16,0,0,-16,419.29823,80.589969)"/>
<use data-text="h" xlink:href="#font_2_14" transform="matrix(16,0,0,-16,423.743,80.589969)"/>
<use data-text="e" xlink:href="#font_2_12" transform="matrix(16,0,0,-16,432.6422,80.589969)"/>
<use data-text=" " xlink:href="#font_2_1" transform="matrix(16,0,0,-16,441.5414,80.589969)"/>
<use data-text="o" xlink:href="#font_2_19" transform="matrix(16,0,0,-16,445.9862,80.589969)"/>
<use data-text="n" xlink:href="#font_2_18" transform="matrix(16,0,0,-16,454.88545,80.589969)"/>
<use data-text="e" xlink:href="#font_2_12" transform="matrix(16,0,0,-16,463.7846,80.589969)"/>
<use data-text=" " xlink:href="#font_2_1" transform="matrix(16,0,0,-16,472.68385,80.589969)"/>
<use data-text="a" xlink:href="#font_2_8" transform="matrix(16,0,0,-16,477.12864,80.589969)"/>
<use data-text="n" xlink:href="#font_2_18" transform="matrix(16,0,0,-16,486.02784,80.589969)"/>
<use data-text="d" xlink:href="#font_2_11" transform="matrix(16,0,0,-16,494.92704,80.589969)"/>
<use data-text=" " xlink:href="#font_2_1" transform="matrix(16,0,0,-16,503.82624,80.589969)"/>
<use data-text="o" xlink:href="#font_2_19" transform="matrix(16,0,0,-16,508.27104,80.589969)"/>
<use data-text="n" xlink:href="#font_2_18" transform="matrix(16,0,0,-16,517.1702,80.589969)"/>
<use data-text="l" xlink:href="#font_2_17" transform="matrix(16,0,0,-16,526.06948,80.589969)"/>
<use data-text="y" xlink:href="#font_2_22" transform="matrix(16,0,0,-16,529.62466,80.589969)"/>
<use data-text=" " xlink:href="#font_2_1" transform="matrix(16,0,0,-16,537.62466,80.589969)"/>
<use data-text="s" xlink:href="#font_2_20" transform="matrix(16,0,0,-16,542.06948,80.589969)"/>
<use data-text="e" xlink:href="#font_2_12" transform="matrix(16,0,0,-16,550.06948,80.589969)"/>
<use data-text="t" xlink:href="#font_2_21" transform="matrix(16,0,0,-16,558.9686,80.589969)"/>
<use data-text="&#xfffd;" xlink:href="#font_3_1" transform="matrix(16,0,0,-16,563.41348,80.589969)"/>
<path transform="matrix(1,0,0,-1,-35.0268,537.665)" d="M102 443.9999H143.75V419.9999H102Z" fill="#ffffff" fill-rule="evenodd"/>
<path transform="matrix(.00007874014,0,0,.00007874014,66.973209,93.66507)" stroke-width="12700" stroke-linecap="butt" stroke-miterlimit="8" stroke-linejoin="miter" fill="none" stroke="#000000" d="M.005432099-.0920409H530225.1V304800H.005432099Z"/>
<use data-text="V" xlink:href="#font_2_7" transform="matrix(16,0,0,-16,70.1732,112.06506)"/>
<use data-text="a" xlink:href="#font_2_8" transform="matrix(16,0,0,-16,79.666,112.06506)"/>
<use data-text="l" xlink:href="#font_2_17" transform="matrix(16,0,0,-16,88.5668,112.06506)"/>
<use data-text="i" xlink:href="#font_2_15" transform="matrix(16,0,0,-16,92.123607,112.06506)"/>
<use data-text="d" xlink:href="#font_2_11" transform="matrix(16,0,0,-16,95.680408,112.06506)"/>
<use data-text="&#xfffd;" xlink:href="#font_3_1" transform="matrix(16,0,0,-16,104.58121,112.06506)"/>
<path transform="matrix(1,0,0,-1,-35.0268,537.665)" d="M161.75 443.9999H233.75V419.9999H161.75Z" fill="#ffffff" fill-rule="evenodd"/>
<path transform="matrix(.00007874014,0,0,.00007874014,126.723209,93.66507)" stroke-width="12700" stroke-linecap="butt" stroke-miterlimit="8" stroke-linejoin="miter" fill="none" stroke="#000000" d="M-.002868682-.0920409H914399.9V304800H-.002868682Z"/>
<use data-text="T" xlink:href="#font_2_6" transform="matrix(16,0,0,-16,149.9232,112.06506)"/>
<use data-text="a" xlink:href="#font_2_8" transform="matrix(16,0,0,-16,157.9232,112.06506)"/>
<use data-text="g" xlink:href="#font_2_13" transform="matrix(16,0,0,-16,166.8192,112.06506)"/>
<use data-text="&#xfffd;" xlink:href="#font_3_1" transform="matrix(16,0,0,-16,175.71521,112.06506)"/>
<use data-text="&#x2022;" xlink:href="#font_2_23" transform="matrix(0,10,10,0,216.7232,73.264987)"/>
<use data-text="&#x00a0;" xlink:href="#font_3_2" transform="matrix(0,10,10,0,216.7232,76.76598)"/>
<use data-text="&#x2022;" xlink:href="#font_2_23" transform="matrix(0,10,10,0,216.7232,79.54698)"/>
<use data-text="&#x00a0;" xlink:href="#font_3_2" transform="matrix(0,10,10,0,216.7232,83.04799)"/>
<use data-text="&#x2022;" xlink:href="#font_2_23" transform="matrix(0,10,10,0,216.7232,85.82899)"/>
<use data-text="&#xfffd;" xlink:href="#font_3_1" transform="matrix(0,10,10,0,216.7232,89.32999)"/>
<path transform="matrix(1,0,0,-1,-35.0268,537.665)" d="M245.75 529.1249H407.7499V505.1249H245.75Z" fill="#ffffff" fill-rule="evenodd"/>
<path transform="matrix(.00007874014,0,0,.00007874014,210.7232,8.5401)" stroke-width="12700" stroke-linecap="butt" stroke-miterlimit="8" stroke-linejoin="miter" fill="none" stroke="#000000" d="M-.1575928 .01684594H2057400V304800.1H-.1575928Z"/>
<use data-text="C" xlink:href="#font_2_4" transform="matrix(16,0,0,-16,247.92322,26.940064)"/>
<use data-text="a" xlink:href="#font_2_8" transform="matrix(16,0,0,-16,259.47843,26.940064)"/>
<use data-text="c" xlink:href="#font_2_10" transform="matrix(16,0,0,-16,268.37763,26.940064)"/>
<use data-text="h" xlink:href="#font_2_14" transform="matrix(16,0,0,-16,276.37763,26.940064)"/>
<use data-text="e" xlink:href="#font_2_12" transform="matrix(16,0,0,-16,285.27684,26.940064)"/>
<use data-text=" " xlink:href="#font_2_1" transform="matrix(16,0,0,-16,294.17604,26.940064)"/>
<use data-text="b" xlink:href="#font_2_9" transform="matrix(16,0,0,-16,298.62083,26.940064)"/>
<use data-text="l" xlink:href="#font_2_17" transform="matrix(16,0,0,-16,307.52003,26.940064)"/>
<use data-text="o" xlink:href="#font_2_19" transform="matrix(16,0,0,-16,311.07524,26.940064)"/>
<use data-text="c" xlink:href="#font_2_10" transform="matrix(16,0,0,-16,319.97444,26.940064)"/>
<use data-text="k" xlink:href="#font_2_16" transform="matrix(16,0,0,-16,327.97444,26.940064)"/>
<use data-text="&#xfffd;" xlink:href="#font_3_1" transform="matrix(16,0,0,-16,335.97444,26.940064)"/>
<path transform="matrix(1,0,0,-1,-35.0268,537.665)" d="M245.75 499.1249H407.7499V475.1249H245.75Z" fill="#ffffff" fill-rule="evenodd"/>
<path transform="matrix(.00007874014,0,0,.00007874014,210.7232,38.54007)" stroke-width="12700" stroke-linecap="butt" stroke-miterlimit="8" stroke-linejoin="miter" fill="none" stroke="#000000" d="M-.1575928 .1878664H2057400V304800.2H-.1575928Z"/>
<use data-text="C" xlink:href="#font_2_4" transform="matrix(16,0,0,-16,247.92322,56.940065)"/>
<use data-text="a" xlink:href="#font_2_8" transform="matrix(16,0,0,-16,259.47843,56.940065)"/>
<use data-text="c" xlink:href="#font_2_10" transform="matrix(16,0,0,-16,268.37763,56.940065)"/>
<use data-text="h" xlink:href="#font_2_14" transform="matrix(16,0,0,-16,276.37763,56.940065)"/>
<use data-text="e" xlink:href="#font_2_12" transform="matrix(16,0,0,-16,285.27684,56.940065)"/>
<use data-text=" " xlink:href="#font_2_1" transform="matrix(16,0,0,-16,294.17604,56.940065)"/>
<use data-text="b" xlink:href="#font_2_9" transform="matrix(16,0,0,-16,298.62083,56.940065)"/>
<use data-text="l" xlink:href="#font_2_17" transform="matrix(16,0,0,-16,307.52003,56.940065)"/>
<use data-text="o" xlink:href="#font_2_19" transform="matrix(16,0,0,-16,311.07524,56.940065)"/>
<use data-text="c" xlink:href="#font_2_10" transform="matrix(16,0,0,-16,319.97444,56.940065)"/>
<use data-text="k" xlink:href="#font_2_16" transform="matrix(16,0,0,-16,327.97444,56.940065)"/>
<use data-text="&#xfffd;" xlink:href="#font_3_1" transform="matrix(16,0,0,-16,335.97444,56.940065)"/>
<path transform="matrix(1,0,0,-1,-35.0268,537.665)" d="M245.75 445.1249H407.7499V421.1249H245.75Z" fill="#ffffff" fill-rule="evenodd"/>
<path transform="matrix(.00007874014,0,0,.00007874014,210.7232,92.54007)" stroke-width="12700" stroke-linecap="butt" stroke-miterlimit="8" stroke-linejoin="miter" fill="none" stroke="#000000" d="M-.1575928 .2933351H2057400V304800.3H-.1575928Z"/>
<use data-text="C" xlink:href="#font_2_4" transform="matrix(16,0,0,-16,247.92322,110.94006)"/>
<use data-text="a" xlink:href="#font_2_8" transform="matrix(16,0,0,-16,259.47843,110.94006)"/>
<use data-text="c" xlink:href="#font_2_10" transform="matrix(16,0,0,-16,268.37763,110.94006)"/>
<use data-text="h" xlink:href="#font_2_14" transform="matrix(16,0,0,-16,276.37763,110.94006)"/>
<use data-text="e" xlink:href="#font_2_12" transform="matrix(16,0,0,-16,285.27684,110.94006)"/>
<use data-text=" " xlink:href="#font_2_1" transform="matrix(16,0,0,-16,294.17604,110.94006)"/>
<use data-text="b" xlink:href="#font_2_9" transform="matrix(16,0,0,-16,298.62083,110.94006)"/>
<use data-text="l" xlink:href="#font_2_17" transform="matrix(16,0,0,-16,307.52003,110.94006)"/>
<use data-text="o" xlink:href="#font_2_19" transform="matrix(16,0,0,-16,311.07524,110.94006)"/>
<use data-text="c" xlink:href="#font_2_10" transform="matrix(16,0,0,-16,319.97444,110.94006)"/>
<use data-text="k" xlink:href="#font_2_16" transform="matrix(16,0,0,-16,327.97444,110.94006)"/>
<use data-text="&#xfffd;" xlink:href="#font_3_1" transform="matrix(16,0,0,-16,335.97444,110.94006)"/>
</g>
</g>
</svg>
