<svg xmlns="http://www.w3.org/2000/svg" xmlns:xlink="http://www.w3.org/1999/xlink" version="1.1" width="674.8504pt" height="537.8566pt" viewBox="0 0 674.8504 537.8566">
<defs>
<clipPath id="clip_0">
<path transform="matrix(1,0,0,-1,-11.6756,540)" d="M11.6756 2.14337H686.526V540H11.6756Z" fill-rule="evenodd"/>
</clipPath>
<clipPath id="clip_1">
<path transform="matrix(1,0,0,-1,-11.6756,540)" d="M0 .00002324581H719.9999V540H0Z"/>
</clipPath>
<path id="font_2_15" d="M.07373047 .71777346H.21289063L.4189453 .11091614 .62353518 .71777346H.76123049V0H.6689453V.42362977C.6689453 .43828837 .6692708 .46255494 .6699219 .49642945 .67057296 .53030398 .67089846 .56662496 .67089846 .60539248L.4663086 0H.3701172L.1640625 .60539248V.58340457C.1640625 .5658162 .1644694 .5390218 .1652832 .50302127 .166097 .46703086 .1665039 .44056703 .1665039 .42362977V0H.07373047V.71777346Z"/>
<path id="font_2_22" d="M.13183594 .1394043C.13183594 .114095058 .14111328 .09413656 .15966797 .07952881 .17822266 .06492106 .20019531 .057617189 .22558594 .057617189 .2565104 .057617189 .28645835 .06471761 .3154297 .07891846 .3642578 .10247803 .38867188 .14127605 .38867188 .1953125V.26611329C.3779297 .25886027 .36409507 .2528127 .34716798 .24797058 .33024089 .24313863 .3136393 .23983257 .29736329 .23805237L.24414063 .23184204C.21223958 .22799683 .1883138 .22153218 .17236328 .21244812 .14534505 .19718933 .13183594 .17284139 .13183594 .1394043M.34472657 .31689454C.36490885 .3194987 .37841798 .32796226 .3852539 .34228517 .38916017 .35012818 .39111329 .36140443 .39111329 .3761139 .39111329 .40618388 .38045249 .42799888 .35913087 .44155885 .33780924 .455129 .30729167 .46191407 .26757813 .46191407 .22167969 .46191407 .18912761 .44948326 .16992188 .42462159 .15917969 .4108785 .15218099 .39043174 .14892578 .36328126H.06689453C.06852213 .42791749 .08943685 .47288514 .12963867 .4981842 .1698405 .5234833 .21647136 .5361328 .26953126 .5361328 .3310547 .5361328 .38102214 .52441409 .4194336 .50097659 .45751954 .47753907 .4765625 .4410502 .4765625 .39151V.08985901C.4765625 .08073425 .47843424 .073404949 .48217774 .067871097 .48592124 .06233724 .4938151 .059570314 .5058594 .059570314 .5097656 .059570314 .51416018 .059814454 .51904299 .060302736 .5239258 .060791017 .5291341 .061523439 .53466799 .0625V-.0028076173C.5209961-.00676473 .5105794-.009236653 .50341799-.010223389 .4962565-.011220296 .48649089-.01171875 .4741211-.01171875 .44384767-.01171875 .421875-.0009104411 .40820313 .020706177 .40104167 .032170614 .3959961 .048380536 .3930664 .06933594 .37516276 .045633954 .34944663 .025060019 .31591798 .0076141359 .2823893-.009831746 .2454427-.018554688 .20507813-.018554688 .15657552-.018554688 .11694336-.0037790936 .08618164 .025772095 .055419923 .055323285 .040039064 .092300418 .040039064 .13670349 .040039064 .18535869 .05517578 .22307332 .08544922 .24984741 .115722659 .2766215 .1554362 .29311119 .20458985 .2993164L.34472657 .31689454M.27197267 .5361328V.5361328Z"/>
<path id="font_2_30" d="M.064453128 .5205078H.1538086V0H.064453128V.5205078M.064453128 .71777346H.1538086V.61816409H.064453128V.71777346Z"/>
<path id="font_2_34" d="M.064453128 .5234375H.14794922V.44921876C.1726888 .47981773 .19889324 .50179037 .2265625 .5151367 .25423179 .5284831 .2849935 .53515627 .31884767 .53515627 .3930664 .53515627 .44319663 .5092519 .46923829 .45744325 .4835612 .42910258 .49072267 .38853965 .49072267 .3357544V0H.4013672V.3299408C.4013672 .36188255 .39664714 .38762919 .38720704 .4071808 .37158204 .4397634 .34326173 .4560547 .3022461 .4560547 .28141276 .4560547 .2643229 .4539388 .25097657 .44970704 .22688802 .4425354 .20572917 .42819724 .1875 .4066925 .17285156 .38941957 .16333008 .37157694 .15893555 .35316468 .15454102 .3347524 .15234375 .30844117 .15234375 .27423097V0H.064453128V.5234375M.2709961 .5361328V.5361328Z"/>
<path id="font_3_1" d="M0 0Z"/>
<path id="font_2_33" d="M.064453128 .5234375H.15136719V.44921876C.17220052 .4749349 .19108074 .49365235 .20800781 .5053711 .23697917 .52522787 .26985679 .53515627 .30664063 .53515627 .34830729 .53515627 .38183595 .52490237 .40722657 .50439456 .42154948 .49267579 .4345703 .4754232 .44628907 .45263673 .4658203 .4806315 .48876954 .5013835 .5151367 .5148926 .5415039 .5284017 .5711263 .53515627 .6040039 .53515627 .6743164 .53515627 .72216799 .5097402 .7475586 .45890809 .76123049 .43154399 .7680664 .3947296 .7680664 .34846498V0H.6767578V.36367799C.6767578 .39853923 .6680501 .42248536 .65063479 .43551637 .6332194 .44855754 .6119792 .45507813 .58691409 .45507813 .5524089 .45507813 .5227051 .44350688 .49780274 .42036439 .4729004 .39723207 .46044923 .35861717 .46044923 .30451966V0H.37109376V.3416748C.37109376 .37719728 .36686198 .4031016 .35839845 .41938783 .3450521 .4438324 .32014976 .4560547 .2836914 .4560547 .25048829 .4560547 .22029622 .44318138 .19311524 .4174347 .16593425 .3916982 .15234375 .34510295 .15234375 .27764894V0H.064453128V.5234375Z"/>
<path id="font_2_26" d="M.28222657 .53515627C.31933595 .53515627 .355306 .52644857 .39013673 .5090332 .42496745 .49161784 .4514974 .4690806 .46972657 .4414215 .4873047 .41505433 .49902345 .3842977 .5048828 .3491516 .5100911 .32506309 .5126953 .28647868 .5126953 .23339844H.12939453C.13102214 .18033855 .14355469 .13777669 .16699219 .10571289 .19042969 .073649089 .22672527 .057617189 .2758789 .057617189 .32177735 .057617189 .35839845 .07261658 .3857422 .10261536 .4013672 .12003072 .4124349 .14018758 .4189453 .16308594H.5053711C.50309249 .14398194 .49552409 .122690837 .48266603 .09921265 .46980796 .07574463 .45540367 .05656433 .43945313 .041671754 .4127604 .01576233 .37972007-.0017242432 .34033204-.010787964 .3191732-.01596578 .2952474-.018554688 .2685547-.018554688 .20345052-.018554688 .14827474 .0051472985 .103027347 .05255127 .05777995 .09995524 .03515625 .16634114 .03515625 .25170899 .03515625 .33576457 .057942708 .40401713 .103515628 .45646668 .14908855 .5089264 .20865886 .53515627 .28222657 .53515627M.42236329 .30371095C.41878257 .34191896 .41048179 .37245179 .39746095 .39530946 .3733724 .4377594 .33317057 .45898438 .27685548 .45898438 .23649089 .45898438 .20263672 .44437156 .17529297 .41514588 .14794922 .3859202 .13346355 .34877525 .13183594 .30371095H.42236329M.27392579 .5361328V.5361328Z"/>
<path id="font_2_35" d="M.27197267 .057617189C.33024089 .057617189 .37019859 .07964579 .3918457 .123703 .41349284 .16776021 .4243164 .21677144 .4243164 .2707367 .4243164 .31950379 .4165039 .35917155 .4008789 .38974 .3761393 .43785606 .3334961 .46191407 .27294923 .46191407 .21923828 .46191407 .18017578 .44143168 .15576172 .40046693 .13134766 .35950218 .119140628 .31008403 .119140628 .25221253 .119140628 .1966095 .13134766 .15027364 .15576172 .113204959 .18017578 .076146449 .21891277 .057617189 .27197267 .057617189M.27539063 .53808596C.34277345 .53808596 .3997396 .5156453 .44628907 .47076417 .49283854 .42588298 .5161133 .35985819 .5161133 .27268983 .5161133 .1884613 .49560548 .11886088 .45458985 .06388855 .41357423 .008926392 .3499349-.018554688 .26367188-.018554688 .19173177-.018554688 .13460286 .00575765 .092285159 .054382326 .04996745 .103006999 .028808594 .16829936 .028808594 .2502594 .028808594 .33806864 .05110677 .4079895 .095703128 .46002198 .14029949 .51206466 .20019531 .53808596 .27539063 .53808596M.27246095 .5361328V.5361328Z"/>
<path id="font_2_37" d="M.06689453 .5234375H.15039063V.4326172C.15722656 .4502767 .17399089 .4717814 .2006836 .49713136 .2273763 .52248129 .25813804 .53515627 .29296876 .53515627 .29459635 .53515627 .29736329 .5349579 .30126954 .53456118 .30517579 .5341746 .31184898 .5333964 .32128907 .53222659V.43945313C.31608073 .44062297 .3112793 .44140116 .30688478 .44178773 .30249024 .44218446 .2976888 .4423828 .29248048 .4423828 .24820964 .4423828 .2141927 .4280599 .19042969 .39941407 .16666667 .37076823 .15478516 .33789063 .15478516 .30078126V0H.06689453V.5234375Z"/>
<path id="font_2_44" d="M.39111329 .5234375H.48828126C.47591148 .48987834 .44840495 .41330973 .40576173 .2937317 .3738607 .20380657 .34716798 .13049825 .3256836 .07380676 .27490235-.059921266 .23909505-.14145915 .21826172-.17080689 .19742839-.2001648 .1616211-.21484375 .110839847-.21484375 .098470058-.21484375 .08894857-.21435039 .08227539-.21336365 .07560221-.21238709 .06738281-.21058655 .057617189-.20796204V-.1274414C.072916667-.13167317 .083984378-.13427735 .09082031-.1352539 .09765625-.13623047 .10367838-.13671875 .10888672-.13671875 .12516277-.13671875 .13712566-.1340332 .14477539-.12866211 .15242513-.123291019 .15885417-.11669922 .1640625-.10888672 .16569011-.106282558 .17154949-.092936199 .18164063-.068847659 .19173177-.044759115 .19905599-.026855469 .20361328-.015136719L.010253906 .5234375H.10986328L.25 .09727478 .39111329 .5234375M.24951172 .5361328V.5361328Z"/>
<path id="font_2_12" d="M.09814453 .71777346H.19628906V0H.09814453V.71777346Z"/>
<path id="font_2_4" d="M.22753906 .71777346H.3017578L.07421875 0H0L.22753906 .71777346Z"/>
<path id="font_2_16" d="M.3857422 .7373047C.5123698 .7373047 .6061198 .6965637 .6669922 .6150818 .71451827 .55152389 .73828127 .47019959 .73828127 .371109 .73828127 .2638804 .7111003 .17473857 .6567383 .10368347 .5929362 .020238242 .5019531-.021484375 .38378907-.021484375 .2734375-.021484375 .1866862 .015019734 .123535159 .088027957 .067220058 .158432 .0390625 .24741619 .0390625 .35498048 .0390625 .45210777 .06315104 .53522238 .111328128 .60432437 .17317708 .6929779 .26464845 .7373047 .3857422 .7373047M.3955078 .06542969C.48111979 .06542969 .5430501 .09613546 .5812988 .157547 .61954757 .21895854 .6386719 .2895762 .6386719 .36940003 .6386719 .45378114 .61661788 .5217082 .57250979 .57318118 .5284017 .6246541 .46809898 .6503906 .39160157 .6503906 .3173828 .6503906 .25683595 .62489828 .20996094 .5739136 .16308594 .5229289 .13964844 .4477488 .13964844 .3483734 .13964844 .26888529 .15974935 .20185344 .19995117 .14727783 .240153 .0927124 .30533854 .06542969 .3955078 .06542969M.38867188 .7373047V.7373047Z"/>
<path id="font_2_1" d="M0 0Z"/>
<path id="font_2_23" d="M.057617189 .71875H.1430664V.45948792C.16227214 .4847056 .18522136 .50394698 .21191406 .5172119 .23860677 .53047689 .26757813 .5371094 .29882813 .5371094 .36393229 .5371094 .41674806 .5147095 .4572754 .46990968 .49780274 .42510987 .5180664 .35905458 .5180664 .27174378 .5180664 .1889801 .49804688 .12022909 .4580078 .06549072 .41796876 .010762532 .36246745-.016601563 .2915039-.016601563 .25179038-.016601563 .21826172-.006942749 .19091797 .012374878 .17464192 .023839316 .15722656 .042175294 .13867188 .06738281V0H.057617189V.71875M.2861328 .061523439C.33365885 .061523439 .36922203 .08037821 .39282228 .11808777 .41642253 .1558075 .42822267 .20555115 .42822267 .26731874 .42822267 .32227073 .41642253 .3677877 .39282228 .40386964 .36922203 .43996177 .33447267 .4580078 .28857423 .4580078 .24853516 .4580078 .21346028 .44321189 .18334961 .41362 .15323894 .3840383 .1381836 .3352712 .1381836 .26731874 .1381836 .21822612 .14436849 .17840068 .15673828 .1478424 .17985027 .090296428 .22298177 .061523439 .2861328 .061523439Z"/>
<path id="font_2_25" d="M.12011719 .2553711C.12011719 .19923909 .1319987 .15224712 .15576172 .11439514 .17952474 .076543178 .21761067 .057617189 .27001954 .057617189 .31070964 .057617189 .3441569 .075154628 .37036134 .11022949 .39656578 .14531453 .40966798 .19565328 .40966798 .26124574 .40966798 .32748924 .39615885 .37651573 .36914063 .4083252 .3421224 .44014488 .3087565 .4560547 .26904298 .4560547 .22477214 .4560547 .18888347 .4390869 .16137696 .40515138 .13387044 .37121583 .12011719 .32128907 .12011719 .2553711M.2524414 .53222659C.29248048 .53222659 .32600913 .52381899 .35302735 .5070038 .36865235 .4972992 .38639323 .48031617 .40625 .4560547V.71875H.49072267V0H.4116211V.07229614C.39111329 .04023234 .36686198 .017074585 .3388672 .002822876 .3108724-.011428833 .2788086-.018554688 .24267578-.018554688 .18440755-.018554688 .13395183 .0059407555 .091308597 .05493164 .048665365 .10392252 .02734375 .16910808 .02734375 .25048829 .02734375 .32666017 .04679362 .39265953 .08569336 .44848634 .1245931 .5043132 .18017578 .53222659 .2524414 .53222659Z"/>
<path id="font_2_28" d="M.24902344 .53222659C.29003907 .53222659 .32584635 .5220744 .3564453 .50177 .37304688 .49030558 .38997398 .4736023 .40722657 .45166017V.5185547H.48828126V.04234314C.48828126-.024154664 .47851563-.07663473 .45898438-.115097049 .42252604-.18615215 .35367839-.22167969 .2524414-.22167969 .1961263-.22167969 .14876302-.20906575 .11035156-.18383789 .0719401-.15861003 .05045573-.119140628 .045898439-.06542969H.1352539C.13948567-.08873495 .14794922-.10669454 .16064453-.11930847 .1805013-.13872783 .2117513-.1484375 .25439454-.1484375 .32177735-.1484375 .3658854-.12467448 .38671876-.07714844 .39908854-.04916382 .40478517 .0007985433 .4038086 .07273865 .38623048 .04588318 .36507163 .025904337 .34033204 .012802124 .31559245-.000289917 .2828776-.0068359377 .2421875-.0068359377 .18554688-.0068359377 .13598633 .013280232 .09350586 .053512575 .05102539 .09375509 .029785157 .16030376 .029785157 .25315858 .029785157 .34080506 .051188154 .40922547 .09399414 .4584198 .13680013 .5076243 .18847656 .53222659 .24902344 .53222659M.40722657 .26342774C.40722657 .328125 .39388023 .37607829 .3671875 .4072876 .34049479 .43849693 .30647788 .45410157 .26513673 .45410157 .20328777 .45410157 .16097005 .4251658 .1381836 .3672943 .12613933 .33641053 .12011719 .29593406 .12011719 .24586487 .12011719 .1870168 .13208008 .14223226 .15600586 .11151123 .17993164 .0807902 .21207683 .06542969 .2524414 .06542969 .31559245 .06542969 .36002604 .09387716 .3857422 .1507721 .4000651 .18295796 .40722657 .22050984 .40722657 .26342774M.25927735 .5361328V.5361328Z"/>
<path id="font_2_6" d="M.34570313 .4140625C.38671876 .4140625 .41861979 .4197693 .44140626 .43118287 .47721354 .4491272 .4951172 .48142497 .4951172 .5280762 .4951172 .57506307 .47607423 .6067098 .43798829 .62301638 .4165039 .6321513 .38460288 .63671877 .34228517 .63671877H.16894531V.4140625H.34570313M.37841798 .08300781C.43798829 .08300781 .48046876 .100224819 .5058594 .13465882 .5218099 .15642803 .52978518 .18274434 .52978518 .21360779 .52978518 .26559959 .50651046 .30101524 .45996095 .31985475 .43522135 .32992555 .4025065 .33496095 .3618164 .33496095H.16894531V.08300781H.37841798M.07373047 .71777346H.38183595C.4658203 .71777346 .5255534 .6926575 .56103518 .64242556 .58186849 .6127421 .59228518 .5784963 .59228518 .5396881 .59228518 .49434916 .57942709 .45716349 .55371096 .4281311 .54036459 .41280113 .5211589 .3987783 .49609376 .38606263 .5328776 .3720754 .5603841 .35629273 .5786133 .3387146 .61083987 .30748496 .6269531 .26437379 .6269531 .2093811 .6269531 .16317749 .61246749 .12136841 .5834961 .08395386 .54020187 .02798462 .47135417 0 .37695313 0H.07373047V.71777346Z"/>
<path id="font_2_40" d="M.15234375 .5234375V.17590332C.15234375 .1491801 .15657552 .12734477 .16503906 .11039734 .18066406 .07911682 .20979817 .06347656 .2524414 .06347656 .3136393 .06347656 .355306 .09085083 .3774414 .14559937 .3894857 .17492676 .3955078 .21516927 .3955078 .2663269V.5234375H.48339845V0H.40039063L.4013672 .0771637C.38997398 .057195028 .3758138 .040339155 .35888673 .02659607 .32535807-.00090026858 .28466798-.0146484379 .2368164-.0146484379 .16227214-.0146484379 .11149088 .010299683 .084472659 .060195924 .06982422 .08693949 .0625 .12265015 .0625 .16732788V.5234375H.15234375M.27294923 .5361328V.5361328Z"/>
<path id="font_2_38" d="M.11669922 .1640625C.11930338 .13463338 .12662761 .11207072 .13867188 .09637451 .1608073 .06793213 .19921875 .053710939 .25390626 .053710939 .28645835 .053710939 .31510417 .060806276 .33984376 .07499695 .36458335 .08919779 .37695313 .11115011 .37695313 .14085388 .37695313 .16337586 .36702476 .18051148 .34716798 .19226074 .33447267 .19944255 .30940757 .20775859 .27197267 .21720886L.20214844 .2348175C.15755208 .24590557 .12467448 .25829569 .103515628 .27198792 .06575521 .29579164 .046875 .32873027 .046875 .37080384 .046875 .42036439 .064697269 .46046958 .1003418 .49111939 .13598633 .52177938 .18391927 .5371094 .24414063 .5371094 .32291667 .5371094 .37972007 .5139974 .41455079 .46777345 .4363607 .43847657 .4469401 .40690104 .44628907 .37304688H.36328126C.36165367 .39269004 .35465495 .41055808 .34228517 .426651 .32210288 .44950868 .28710938 .4609375 .23730469 .4609375 .20410156 .4609375 .17895508 .45461528 .16186524 .44197084 .14477539 .42933656 .13623047 .41264854 .13623047 .39190675 .13623047 .36922203 .14746094 .35107423 .16992188 .33746339 .1829427 .32936607 .20214844 .32221986 .22753906 .31602479L.28564454 .3018341C.34879557 .28650413 .39111329 .27166749 .41259767 .25732423 .44677735 .23482259 .4638672 .19944255 .4638672 .15118408 .4638672 .10455322 .44620768 .06428019 .41088868 .03036499 .37556968-.0035502117 .32177735-.020507813 .24951172-.020507813 .17171224-.020507813 .116617839-.002802531 .084228519 .032608034 .05183919 .06801859 .034505208 .111836757 .032226564 .1640625H.11669922M.24658203 .5361328V.5361328Z"/>
<path id="font_2_39" d="M.08203125 .66796877H.17089844V.5234375H.25439454V.4501953H.17089844V.110183719C.17089844 .09202576 .17708333 .07986959 .18945313 .07371521 .19628906 .07014465 .2076823 .068359378 .22363281 .068359378 .22786458 .068359378 .23242188 .06846619 .23730469 .06867981 .2421875 .0689036 .24788411 .06944784 .25439454 .0703125V0C.24430339-.0031026204 .23380535-.005340576 .22290039-.006713867 .21199544-.008097331 .20019531-.0087890629 .1875-.0087890629 .14648438-.0087890629 .118652347 .0016988119 .104003909 .02267456 .08935547 .04365031 .08203125 .070882167 .08203125 .10437012V.4501953H.011230469V.5234375H.08203125V.66796877Z"/>
<path id="font_2_27" d="M.08642578 .6021576C.08772787 .638443 .09407552 .66500857 .10546875 .68185427 .12597656 .7116597 .16552735 .7265625 .2241211 .7265625 .22965496 .7265625 .23535156 .7263997 .24121094 .7260742 .24707031 .7257487 .2537435 .72526046 .26123048 .7246094V.64453127C.25211589 .6449687 .2455241 .6452382 .24145508 .64533999 .23738607 .64545187 .2335612 .6455078 .22998047 .6455078 .20328777 .6455078 .18733724 .6386719 .1821289 .625 .17692058 .6113281 .1743164 .5764974 .1743164 .5205078H.26123048V.45117188H.17333985V0H.08642578V.45117188H.013671875V.5205078H.08642578V.6021576Z"/>
<path id="font_2_24" d="M.26611329 .53808596C.32503257 .53808596 .37296549 .5237274 .4099121 .49501039 .44685874 .46629334 .46907554 .41684977 .4765625 .3466797H.39111329C.38590495 .37890626 .37402345 .40568034 .35546876 .42700196 .33691407 .44832359 .3071289 .45898438 .26611329 .45898438 .2101237 .45898438 .17008464 .43170677 .1459961 .3771515 .1303711 .34176127 .122558597 .29808555 .122558597 .24612427 .122558597 .19384766 .1336263 .14984639 .15576172 .11412048 .17789714 .07840475 .21272786 .060546876 .2602539 .060546876 .29671226 .060546876 .3256022 .0716095 .34692384 .09373474 .36824546 .115859989 .38297526 .1461385 .39111329 .18457031H.4765625C.46679688 .115234378 .4423828 .06453451 .4033203 .032470704 .3642578 .00040690104 .31429038-.015625 .25341798-.015625 .1850586-.015625 .13053386 .009379069 .08984375 .059387208 .049153646 .10940552 .028808594 .17188008 .028808594 .24681092 .028808594 .33868919 .05110677 .41020204 .095703128 .4613495 .14029949 .51250717 .19710286 .53808596 .26611329 .53808596M.2524414 .5361328V.5361328Z"/>
<path id="font_2_5" d="M.44433595 .2939453 .33544923 .61120608 .21972656 .2939453H.44433595M.28466798 .71777346H.39453126L.65478518 0H.54833987L.47558595 .21484375H.19189453L.11425781 0H.0146484379L.28466798 .71777346M.33496095 .71777346V.71777346Z"/>
<path id="font_2_14" d="M.076171878 .71777346H.17333985V.0859375H.5366211V0H.076171878V.71777346Z"/>
<path id="font_2_21" d="M.18164063 .71777346V.27441407C.18164063 .22233074 .19140625 .17903646 .2109375 .14453125 .23990886 .092447917 .28873698 .06640625 .35742188 .06640625 .43977867 .06640625 .49576823 .094563808 .5253906 .1508789 .5413411 .18147786 .5493164 .22265625 .5493164 .27441407V.71777346H.6479492V.3149414C.6479492 .22672527 .6360677 .15885417 .6123047 .111328128 .5686849 .024739584 .48632813-.018554688 .36523438-.018554688 .24414063-.018554688 .16194661 .024739584 .118652347 .111328128 .09488932 .15885417 .08300781 .22672527 .08300781 .3149414V.71777346H.18164063M.36572267 .71777346V.71777346Z"/>
<path id="font_2_18" d="M.40966798 .38867188C.45524089 .38867188 .49129234 .39778648 .51782229 .41601563 .54435226 .43424479 .5576172 .4671224 .5576172 .51464846 .5576172 .5657552 .5390625 .60058596 .5019531 .6191406 .48209635 .62890627 .4555664 .63378909 .42236329 .63378909H.1850586V.38867188H.40966798M.087890628 .71777346H.41992188C.47460938 .71777346 .51969406 .709788 .5551758 .69381716 .6225586 .6631775 .65625 .60662338 .65625 .52415469 .65625 .48112489 .6473796 .44591777 .6296387 .41853334 .61189779 .39115907 .58707687 .36916099 .5551758 .35253907 .5831706 .34114585 .60424807 .32617188 .6184082 .3076172 .63256838 .2890625 .6404622 .2589518 .64208987 .21728516L.6455078 .12109375C.6464844 .09388224 .648763 .07363383 .65234377 .06034851 .6582031 .037663778 .6686198 .023081461 .68359377 .016601563V0H.5644531C.56119796 .006184896 .55859377 .014160156 .5566406 .023925782 .5546875 .033691408 .5530599 .052571615 .5517578 .080566409L.54589846 .20019531C.5436198 .24707031 .5262044 .27848307 .49365235 .2944336 .47509767 .30322267 .44596354 .3076172 .40625 .3076172H.1850586V0H.087890628V.71777346Z"/>
<path id="font_2_45" d="M.08642578 .6021576C.08772787 .638443 .09407552 .66500857 .10546875 .68185427 .12597656 .7116597 .16552735 .7265625 .2241211 .7265625 .22965496 .7265625 .23535156 .7263997 .24121094 .7260742 .24707031 .7257487 .2537435 .72526046 .26123048 .7246094V.64453127C.25211589 .6449687 .2455241 .6452382 .24145508 .64533999 .23738607 .64545187 .2335612 .6455078 .22998047 .6455078 .20328777 .6455078 .18733724 .6386719 .1821289 .625 .17692058 .6113281 .1743164 .5764974 .1743164 .5205078H.26123048V.45117188H.17333985V0H.08642578V.45117188H.013671875V.5205078H.08642578V.6021576M.34570313 .61816409V.71777346H.43359376V.61816409H.34570313M.34570313 .5205078H.43359376V0H.34570313V.5205078Z"/>
<path id="font_2_32" d="M.06689453 .71777346H.15478516V0H.06689453V.71777346Z"/>
<path id="font_2_7" d="M.37841798 .7373047C.46923829 .7373047 .53971359 .71332809 .58984377 .66537478 .63997396 .61742147 .66780599 .5629476 .67333987 .5019531H.5786133C.5678711 .54817709 .5464681 .58479818 .5144043 .6118164 .48234049 .63883468 .43733726 .65234377 .37939454 .65234377 .3087565 .65234377 .25170899 .62754318 .20825196 .5779419 .16479492 .52834066 .1430664 .45231629 .1430664 .34986878 .1430664 .26594544 .16267903 .19788106 .2019043 .14567566 .24112956 .09348043 .29964195 .06738281 .3774414 .06738281 .449056 .06738281 .50358077 .094823207 .5410156 .14970398 .5608724 .17860413 .5756836 .21659343 .5854492 .26367188H.6801758C.6717122 .18815105 .64371749 .12483724 .5961914 .07373047 .5392253 .012207031 .46240235-.018554688 .36572267-.018554688 .2823893-.018554688 .21240235 .006688436 .15576172 .057174684 .081217449 .12394714 .043945314 .2270406 .043945314 .36645509 .043945314 .47232057 .0719401 .5591278 .12792969 .62687686 .18847656 .7004954 .27197267 .7373047 .37841798 .7373047M.35888673 .7373047V.7373047Z"/>
<path id="font_2_17" d="M.08544922 .71777346H.40820313C.47200523 .71777346 .5234375 .6997884 .5625 .66381838 .6015625 .6278483 .62109377 .5773112 .62109377 .51220706 .62109377 .45621745 .6036784 .4074707 .56884768 .3659668 .5340169 .3244629 .48046876 .30371095 .40820313 .30371095H.18261719V0H.08544922V.71777346M.5229492 .5114746C.5229492 .56410726 .50341799 .5998433 .46435548 .61868289 .4428711 .62875369 .41341148 .63378909 .37597657 .63378909H.18261719V.3857422H.37597657C.41959635 .3857422 .45499674 .39499919 .48217774 .41351319 .5093587 .43203736 .5229492 .46469117 .5229492 .5114746Z"/>
<path id="font_2_19" d="M.13964844 .23144531C.14192708 .19064331 .15152996 .1575063 .16845703 .1320343 .2006836 .084376018 .25748698 .060546876 .3388672 .060546876 .37532554 .060546876 .40852867 .06575521 .43847657 .076171878 .49641929 .096354167 .5253906 .13248189 .5253906 .18455506 .5253906 .22361756 .5131836 .25144959 .48876954 .26805116 .46402995 .2843882 .42529298 .29859925 .3725586 .3106842L.27539063 .3327484C.21191406 .3471222 .16699219 .36294047 .140625 .38020326 .095052089 .41016136 .072265628 .4549408 .072265628 .5145416 .072265628 .57902529 .094563808 .6319478 .13916016 .6733093 .18375652 .71467086 .24690755 .73535159 .32861329 .73535159 .4038086 .73535159 .46769206 .7172038 .5202637 .6809082 .57283529 .6446126 .5991211 .58658859 .5991211 .50683596H.5078125C.5029297 .5452474 .49251304 .57470706 .4765625 .59521487 .4469401 .6326497 .39664714 .6513672 .3256836 .6513672 .26839195 .6513672 .22721355 .63931277 .20214844 .61520388 .17708333 .591095 .16455078 .56307479 .16455078 .5311432 .16455078 .49595643 .17919922 .47021995 .2084961 .45393373 .22770183 .44350688 .27115885 .43047587 .3388672 .4148407L.43945313 .39187623C.48795573 .38079835 .5253906 .36565147 .5517578 .34643556 .59733077 .31288658 .6201172 .26419068 .6201172 .2003479 .6201172 .12085978 .59122726 .06401571 .53344729 .029815674 .47566734-.004384359 .40852867-.021484375 .33203126-.021484375 .24283855-.021484375 .17301433 .0013478597 .122558597 .04701233 .07210287 .0923411 .04736328 .15381877 .048339845 .23144531H.13964844M.3359375 .7373047V.7373047Z"/>
<path id="font_2_11" d="M.07861328 .71777346H.17675781V.42089845H.5498047V.71777346H.6479492V0H.5498047V.33496095H.17675781V0H.07861328V.71777346Z"/>
<path id="font_2_36" d="M.28515626 .057617189C.32617188 .057617189 .36027018 .07486979 .38745118 .109375 .41463218 .14389038 .42822267 .1954956 .42822267 .26419068 .42822267 .3060608 .42220054 .34204103 .41015626 .37213136 .38736979 .43003337 .34570313 .45898438 .28515626 .45898438 .22428386 .45898438 .18261719 .42840068 .16015625 .36723329 .14811199 .33451844 .14208985 .29297386 .14208985 .24259949 .14208985 .20204163 .14811199 .16753133 .16015625 .1390686 .1829427 .08476766 .22460938 .057617189 .28515626 .057617189M.057617189 .5205078H.1430664V.45162965C.16064453 .47540284 .17985027 .49379985 .2006836 .5068207 .23030599 .5263621 .26513673 .5361328 .30517579 .5361328 .36442057 .5361328 .41471354 .5133667 .4560547 .46783448 .49739585 .42230226 .5180664 .3572693 .5180664 .2727356 .5180664 .1585083 .48828126 .07691447 .42871095 .027954102 .39095054-.0030517579 .34700523-.018554688 .296875-.018554688 .25748698-.018554688 .22444661-.009984334 .1977539 .007156372 .1821289 .016860962 .16471355 .033518476 .14550781 .057128908V-.20898438H.057617189V.5205078Z"/>
<path id="font_2_2" d="M.29589845 .7294922C.24479167 .6301575 .21158855 .55703738 .19628906 .51013186 .17317708 .43881227 .1616211 .3564148 .1616211 .26293946 .1616211 .16848755 .17480469 .08217875 .20117188 .0040130617 .21744792-.044184369 .24951172-.11355591 .29736329-.20410156H.23828125C.1907552-.12984212 .16129558-.08245341 .14990235-.061935426 .13850911-.04141744 .12613933-.013570149 .11279297 .021606446 .094563808 .06980387 .08186849 .1212616 .07470703 .17597962 .071126308 .2043101 .06933594 .23134358 .06933594 .25708009 .06933594 .3534851 .084472659 .43930564 .114746097 .5145416 .13395183 .5624135 .17399089 .6340637 .23486328 .7294922H.29589845Z"/>
<path id="font_2_20" d="M.59814456 .71777346V.63183596H.3564453V0H.2578125V.63183596H.016113282V.71777346H.59814456Z"/>
<path id="font_2_3" d="M.03466797-.20410156C.08642578-.103139247 .119791667-.029530844 .13476563 .016723633 .15755208 .08674113 .16894531 .16881307 .16894531 .26293946 .16894531 .35706584 .15576172 .44321189 .12939453 .52137759 .11311849 .569575 .08105469 .63894656 .033203126 .7294922H.092285159C.14241536 .64937338 .17277019 .59995016 .18334961 .58122256 .19392903 .56249496 .20540364 .5366821 .21777344 .5037842 .23339844 .46307374 .24454753 .42285157 .2512207 .38311769 .2578939 .3433838 .26123048 .30511476 .26123048 .26831056 .26123048 .17190552 .24593099 .08592224 .21533203 .010360718 .1961263-.03816223 .15625-.10964966 .095703128-.20410156H.03466797Z"/>
<path id="font_2_10" d="M.38623048 .7363281C.45361329 .7363281 .51188156 .7233327 .56103518 .6973419 .6323242 .6599884 .67594406 .59453329 .69189456 .50097659H.5957031C.5839844 .55304977 .5597331 .59096786 .5229492 .61473086 .48616538 .638504 .43977867 .6503906 .38378907 .6503906 .3173828 .6503906 .2614746 .625529 .21606446 .57580569 .1706543 .52608236 .14794922 .4519857 .14794922 .35351563 .14794922 .26837159 .16666667 .19907125 .20410156 .14561463 .24153646 .092158 .30257163 .06542969 .38720704 .06542969 .4519857 .06542969 .50561526 .084111537 .5480957 .12147522 .5905762 .15884908 .6123047 .2192688 .61328127 .30273438H.38867188V.38378907H.7036133V0H.6411133L.6176758 .09309387C.58479818 .056859334 .55566409 .031723024 .53027346 .017684937 .48763023-.006474813 .433431-.018554688 .36767579-.018554688 .28271485-.018554688 .20963542 .008951823 .1484375 .063964847 .08170573 .13297527 .048339845 .22770183 .048339845 .34814454 .048339845 .46826173 .08089193 .56380209 .1459961 .6347656 .20784505 .70247396 .2879232 .7363281 .38623048 .7363281M.3701172 .7373047V.7373047Z"/>
<path id="font_2_29" d="M.064453128 .71875H.15234375V.45214845C.17317708 .4786682 .19189453 .4973297 .2084961 .50813296 .2368164 .5267995 .2721354 .5361328 .31445313 .5361328 .39029948 .5361328 .44173179 .50957748 .46875 .45646668 .48339845 .42747499 .49072267 .38723756 .49072267 .3357544V0H.40039063V.32958985C.40039063 .3680013 .3955078 .39615885 .3857422 .4140625 .36979167 .44270835 .33984376 .45703126 .29589845 .45703126 .2594401 .45703126 .22639974 .4444987 .19677735 .4194336 .16715496 .3943685 .15234375 .34700523 .15234375 .27734376V0H.064453128V.71875Z"/>
<path id="font_2_13" d="M.076171878 .71777346H.17089844V.36769105L.5205078 .71777346H.65478518L.3564453 .4291687 .66308596 0H.5366211L.28564454 .360672 .17089844 .25016786V0H.076171878V.71777346Z"/>
<path id="font_2_9" d="M.08544922 .71777346H.60839846V.6298828H.18017578V.41210938H.5761719V.32910157H.18017578V.0859375H.61572268V0H.08544922V.71777346M.35058595 .71777346V.71777346Z"/>
<path id="font_2_43" d="M.0146484379 .5234375H.12841797L.24853516 .33918763 .3701172 .5234375 .47705079 .5209961 .30078126 .26831056 .48486329 0H.3725586L.24267578 .19647217 .11669922 0H.0053710939L.18945313 .26831056 .0146484379 .5234375Z"/>
<path id="font_2_41" d="M.107421878 .5234375 .24707031 .09725952 .3930664 .5234375H.4892578L.2919922 0H.19824219L.0053710939 .5234375H.107421878Z"/>
<path id="font_2_42" d="M.10498047 .5234375 .2055664 .110946658 .3076172 .5234375H.40625L.50878909 .11338806 .61572268 .5234375H.7036133L.5517578 0H.46044923L.3540039 .40516664 .25097657 0H.15966797L.0087890629 .5234375H.10498047Z"/>
<path id="font_2_31" d="M.0625 .71777346H.14697266V.30101014L.3725586 .5234375H.48486329L.28466798 .32881166 .49609376 0H.38378907L.22070313 .26635743 .14697266 .19647217V0H.0625V.71777346Z"/>
<path id="font_2_8" d="M.3515625 .08300781C.3844401 .08300781 .41145835 .08642578 .4326172 .09326172 .4703776 .10595703 .50130209 .1303711 .5253906 .1665039 .5445964 .19547527 .55843099 .23258464 .56689456 .27783204 .57177737 .30485026 .57421877 .32991538 .57421877 .35302735 .57421877 .44189454 .55655929 .51090499 .52124026 .5600586 .48592124 .6092122 .42903648 .63378909 .35058595 .63378909H.17822266V.08300781H.3515625M.080566409 .71777346H.37109376C.46972657 .71777346 .54622396 .6827545 .60058596 .6127167 .64908859 .54952499 .67333987 .46857707 .67333987 .36987306 .67333987 .2936503 .6590169 .22475688 .6303711 .16319275 .57991537 .054397584 .49316407 0 .3701172 0H.080566409V.71777346Z"/>
</defs>
<g clip-path="url(#clip_0)">
<g clip-path="url(#clip_1)">
<path transform="matrix(1,0,0,-1,-11.6756,540)" d="M0 539.9999H719.9999V.00003079383H0Z" fill="#ffffff" fill-rule="evenodd"/>
<path transform="matrix(.00007874014,0,0,-.00007874014,95.5744,316)" stroke-width="12700" stroke-linecap="butt" stroke-miterlimit="8" stroke-linejoin="miter" fill="none" stroke="#000000" d="M-.01242067 222251 247650-.006286651 495300 222251H338456V685799.9H156844V222251Z"/>
<path transform="matrix(.00007874014,0,0,.00007874014,522.6993,138)" stroke-width="12700" stroke-linecap="butt" stroke-miterlimit="8" stroke-linejoin="miter" fill="none" stroke="#000000" d="M-.2314454 .1024171H909636.6V914400.2H-.2314454Z"/>
<use data-text="M" xlink:href="#font_2_15" transform="matrix(16,0,0,-16,540.8994,170.79999)"/>
<use data-text="a" xlink:href="#font_2_22" transform="matrix(16,0,0,-16,554.2274,170.79999)"/>
<use data-text="i" xlink:href="#font_2_30" transform="matrix(16,0,0,-16,563.1266,170.79999)"/>
<use data-text="n" xlink:href="#font_2_34" transform="matrix(16,0,0,-16,566.6818,170.79999)"/>
<use data-text="&#xfffd;" xlink:href="#font_3_1" transform="matrix(16,0,0,-16,575.581,170.79999)"/>
<use data-text="m" xlink:href="#font_2_33" transform="matrix(16,0,0,-16,529.8994,189.79999)"/>
<use data-text="e" xlink:href="#font_2_26" transform="matrix(16,0,0,-16,543.2274,189.79999)"/>
<use data-text="m" xlink:href="#font_2_33" transform="matrix(16,0,0,-16,552.1266,189.79999)"/>
<use data-text="o" xlink:href="#font_2_35" transform="matrix(16,0,0,-16,565.4546,189.79999)"/>
<use data-text="r" xlink:href="#font_2_37" transform="matrix(16,0,0,-16,574.3538,189.79999)"/>
<use data-text="y" xlink:href="#font_2_44" transform="matrix(16,0,0,-16,579.6818,189.79999)"/>
<use data-text="&#xfffd;" xlink:href="#font_3_1" transform="matrix(16,0,0,-16,587.6818,189.79999)"/>
<path transform="matrix(.00007874014,0,0,.00007874014,402.6994,150)" stroke-width="12700" stroke-linecap="butt" stroke-miterlimit="8" stroke-linejoin="miter" fill="none" stroke="#000000" d="M-.1906738 266700.2 298447.9 .1258546V133350.1H1193802V.1258546L1492250 266700.2 1193802 533400.2V400050.2H298447.9V533400.2Z"/>
<path transform="matrix(.00007874014,0,0,.00007874014,330.6994,152.5)" stroke-width="12700" stroke-linecap="butt" stroke-miterlimit="8" stroke-linejoin="miter" fill="none" stroke="#000000" d="M.1687012 .1307374H909637.1V577850.2H.1687012Z"/>
<use data-text="I" xlink:href="#font_2_12" transform="matrix(16,0,0,-16,355.8994,172.04999)"/>
<use data-text="/" xlink:href="#font_2_4" transform="matrix(16,0,0,-16,360.3442,172.04999)"/>
<use data-text="O" xlink:href="#font_2_16" transform="matrix(16,0,0,-16,364.789,172.04999)"/>
<use data-text=" " xlink:href="#font_2_1" transform="matrix(16,0,0,-16,377.23384,172.04999)"/>
<use data-text="&#xfffd;" xlink:href="#font_3_1" transform="matrix(16,0,0,-16,381.67863,172.04999)"/>
<use data-text="b" xlink:href="#font_2_23" transform="matrix(16,0,0,-16,343.8994,191.04999)"/>
<use data-text="r" xlink:href="#font_2_37" transform="matrix(16,0,0,-16,352.7986,191.04999)"/>
<use data-text="i" xlink:href="#font_2_30" transform="matrix(16,0,0,-16,358.12663,191.04999)"/>
<use data-text="d" xlink:href="#font_2_25" transform="matrix(16,0,0,-16,361.68183,191.04999)"/>
<use data-text="g" xlink:href="#font_2_28" transform="matrix(16,0,0,-16,370.58103,191.04999)"/>
<use data-text="e" xlink:href="#font_2_26" transform="matrix(16,0,0,-16,379.48023,191.04999)"/>
<use data-text="&#xfffd;" xlink:href="#font_3_1" transform="matrix(16,0,0,-16,388.37944,191.04999)"/>
<path transform="matrix(.00007874014,0,0,.00007874014,215.9494,150)" stroke-width="12700" stroke-linecap="butt" stroke-miterlimit="8" stroke-linejoin="miter" fill="none" stroke="#000000" d="M-.05541992 266700.2 290510.9 .1258546V133350.1H1162051V.1258546L1452562 266700.2 1162051 533400.2V400050.2H290510.9V533400.2Z"/>
<path transform="matrix(.00007874014,0,0,.00007874014,66.32438,152.5)" stroke-width="12700" stroke-linecap="butt" stroke-miterlimit="8" stroke-linejoin="miter" fill="none" stroke="#000000" d="M-.0414429 .1307374H1873250V577850.2H-.0414429Z"/>
<use data-text=" " xlink:href="#font_2_1" transform="matrix(16,0,0,-16,91.5244,181.65)"/>
<use data-text="B" xlink:href="#font_2_6" transform="matrix(16,0,0,-16,95.9692,181.65)"/>
<use data-text="u" xlink:href="#font_2_40" transform="matrix(16,0,0,-16,106.6412,181.65)"/>
<use data-text="s" xlink:href="#font_2_38" transform="matrix(16,0,0,-16,115.540409,181.65)"/>
<use data-text=" " xlink:href="#font_2_1" transform="matrix(16,0,0,-16,123.540409,181.65)"/>
<use data-text="i" xlink:href="#font_2_30" transform="matrix(16,0,0,-16,127.9852,181.65)"/>
<use data-text="n" xlink:href="#font_2_34" transform="matrix(16,0,0,-16,131.5404,181.65)"/>
<use data-text="t" xlink:href="#font_2_39" transform="matrix(16,0,0,-16,140.4396,181.65)"/>
<use data-text="e" xlink:href="#font_2_26" transform="matrix(16,0,0,-16,144.8844,181.65)"/>
<use data-text="r" xlink:href="#font_2_37" transform="matrix(16,0,0,-16,153.7836,181.65)"/>
<use data-text="f" xlink:href="#font_2_27" transform="matrix(16,0,0,-16,159.1116,181.65)"/>
<use data-text="a" xlink:href="#font_2_22" transform="matrix(16,0,0,-16,163.55641,181.65)"/>
<use data-text="c" xlink:href="#font_2_24" transform="matrix(16,0,0,-16,172.45561,181.65)"/>
<use data-text="e" xlink:href="#font_2_26" transform="matrix(16,0,0,-16,180.45561,181.65)"/>
<use data-text="&#xfffd;" xlink:href="#font_3_1" transform="matrix(16,0,0,-16,189.35482,181.65)"/>
<path transform="matrix(.00007874014,0,0,.00007874014,138.4494,48.00009)" stroke-width="12700" stroke-linecap="butt" stroke-miterlimit="8" stroke-linejoin="miter" fill="none" stroke="#000000" d="M-.01300046 .3142091H684212V152400.3H-.01300046Z"/>
<path transform="matrix(.00007874014,0,0,.00007874014,138.4494,60.00009)" stroke-width="12700" stroke-linecap="butt" stroke-miterlimit="8" stroke-linejoin="miter" fill="none" stroke="#000000" d="M-.01300046 .3376466H684212V152400.4H-.01300046Z"/>
<path transform="matrix(.00007874014,0,0,.00007874014,138.4494,72.00009)" stroke-width="12700" stroke-linecap="butt" stroke-miterlimit="8" stroke-linejoin="miter" fill="none" stroke="#000000" d="M-.01300046-.1389159H684212V152399.9H-.01300046Z"/>
<path transform="matrix(.00007874014,0,0,.00007874014,138.4494,84.00009)" stroke-width="12700" stroke-linecap="butt" stroke-miterlimit="8" stroke-linejoin="miter" fill="none" stroke="#000000" d="M-.01300046-.1154784H684212V152399.9H-.01300046Z"/>
<path transform="matrix(.00007874014,0,0,.00007874014,138.4494,96.00009)" stroke-width="12700" stroke-linecap="butt" stroke-miterlimit="8" stroke-linejoin="miter" fill="none" stroke="#000000" d="M-.01300046-.0920409H684212V152399.9H-.01300046Z"/>
<path transform="matrix(.00007874014,0,0,.00007874014,199.3244,48.00009)" stroke-width="12700" stroke-linecap="butt" stroke-miterlimit="8" stroke-linejoin="miter" fill="none" stroke="#000000" d="M.02453607 95250.33H333374.1V.3142091L444500.1 190500.3 333374.1 381000.4V285750.3H.02453607Z"/>
<path transform="matrix(-.00007874014,-0,0,.00007874014,227.3244,78.00009)" stroke-width="12700" stroke-linecap="butt" stroke-miterlimit="8" stroke-linejoin="miter" fill="none" stroke="#000000" d="M.1707764 95249.89H333374.2V-.1271971L444500.2 190499.9 333374.2 380999.9V285749.9H.1707764Z"/>
<path transform="matrix(.00007874014,0,0,.00007874014,234.3244,36.00009)" stroke-width="12700" stroke-linecap="butt" stroke-miterlimit="8" stroke-linejoin="miter" fill="none" stroke="#000000" d="M-.1571046 .2907716H533399.9V1066800H-.1571046Z"/>
<use data-text="A" xlink:href="#font_2_5" transform="matrix(16,0,0,-16,239.5244,84.400089)"/>
<use data-text="L" xlink:href="#font_2_14" transform="matrix(16,0,0,-16,250.1964,84.400089)"/>
<use data-text="U" xlink:href="#font_2_21" transform="matrix(16,0,0,-16,259.0956,84.400089)"/>
<use data-text="&#xfffd;" xlink:href="#font_3_1" transform="matrix(16,0,0,-16,270.65083,84.400089)"/>
<use data-text="R" xlink:href="#font_2_18" transform="matrix(16,0,0,-16,124.5244,42.400087)"/>
<use data-text="e" xlink:href="#font_2_26" transform="matrix(16,0,0,-16,136.0796,42.400087)"/>
<use data-text="g" xlink:href="#font_2_28" transform="matrix(16,0,0,-16,144.9788,42.400087)"/>
<use data-text="i" xlink:href="#font_2_30" transform="matrix(16,0,0,-16,153.878,42.400087)"/>
<use data-text="s" xlink:href="#font_2_38" transform="matrix(16,0,0,-16,157.4332,42.400087)"/>
<use data-text="t" xlink:href="#font_2_39" transform="matrix(16,0,0,-16,165.4332,42.400087)"/>
<use data-text="e" xlink:href="#font_2_26" transform="matrix(16,0,0,-16,169.878,42.400087)"/>
<use data-text="r" xlink:href="#font_2_37" transform="matrix(16,0,0,-16,178.7772,42.400087)"/>
<use data-text=" " xlink:href="#font_2_1" transform="matrix(16,0,0,-16,184.10521,42.400087)"/>
<use data-text="&#xfb01;" xlink:href="#font_2_45" transform="matrix(16,0,0,-16,188.55002,42.400087)"/>
<use data-text="l" xlink:href="#font_2_32" transform="matrix(16,0,0,-16,196.55002,42.400087)"/>
<use data-text="e" xlink:href="#font_2_26" transform="matrix(16,0,0,-16,200.10521,42.400087)"/>
<use data-text="&#xfffd;" xlink:href="#font_3_1" transform="matrix(16,0,0,-16,209.00441,42.400087)"/>
<path transform="matrix(.00007874014,0,0,.00007874014,144.3244,114.00009)" stroke-width="12700" stroke-linecap="butt" stroke-miterlimit="8" stroke-linejoin="miter" fill="none" stroke="#000000" d="M-.0828858 91440.11 304800-.05688465 609599.8 91440.11H457200V365759.8H609599.8L304800 457200-.0828858 365759.8H152399.9V91440.11Z"/>
<path transform="matrix(.00007874014,0,0,.00007874014,54.324396,18.000123)" stroke-width="12700" stroke-linecap="round" stroke-dasharray="1.269531,25401.27" stroke-miterlimit="8" stroke-linejoin="miter" fill="none" stroke="#000000" d="M-.03048708 .2556154H2971800V2438400H-.03048708Z"/>
<use data-text="C" xlink:href="#font_2_7" transform="matrix(16,0,0,-16,56.149446,13.650085)"/>
<use data-text="P" xlink:href="#font_2_17" transform="matrix(16,0,0,-16,67.70464,13.650085)"/>
<use data-text="U" xlink:href="#font_2_21" transform="matrix(16,0,0,-16,78.37665,13.650085)"/>
<use data-text="&#xfffd;" xlink:href="#font_3_1" transform="matrix(16,0,0,-16,89.93185,13.650085)"/>
<use data-text="S" xlink:href="#font_2_19" transform="matrix(16,0,0,-16,294.7744,115.650089)"/>
<use data-text="y" xlink:href="#font_2_44" transform="matrix(16,0,0,-16,305.4464,115.650089)"/>
<use data-text="s" xlink:href="#font_2_38" transform="matrix(16,0,0,-16,313.4464,115.650089)"/>
<use data-text="t" xlink:href="#font_2_39" transform="matrix(16,0,0,-16,321.4464,115.650089)"/>
<use data-text="e" xlink:href="#font_2_26" transform="matrix(16,0,0,-16,325.8912,115.650089)"/>
<use data-text="m" xlink:href="#font_2_33" transform="matrix(16,0,0,-16,334.7904,115.650089)"/>
<use data-text=" " xlink:href="#font_2_1" transform="matrix(16,0,0,-16,348.1184,115.650089)"/>
<use data-text="b" xlink:href="#font_2_23" transform="matrix(16,0,0,-16,352.56324,115.650089)"/>
<use data-text="u" xlink:href="#font_2_40" transform="matrix(16,0,0,-16,361.4624,115.650089)"/>
<use data-text="s" xlink:href="#font_2_38" transform="matrix(16,0,0,-16,370.36164,115.650089)"/>
<use data-text="&#xfffd;" xlink:href="#font_3_1" transform="matrix(16,0,0,-16,378.36164,115.650089)"/>
<path transform="matrix(-.00007874014,-0,0,.00007874014,330.3243,120)" stroke-width="12700" stroke-linecap="butt" stroke-linejoin="round" fill="none" stroke="#000000" d="M.1071779 .0672608 664665.8 443110.7"/>
<path transform="matrix(1,0,0,-1,-11.6756,540)" d="M291.3282 389.8243 288 384 294.6564 384.832Z" fill-rule="evenodd"/>
<use data-text="M" xlink:href="#font_2_15" transform="matrix(16,0,0,-16,415.7743,115.650089)"/>
<use data-text="e" xlink:href="#font_2_26" transform="matrix(16,0,0,-16,429.1023,115.650089)"/>
<use data-text="m" xlink:href="#font_2_33" transform="matrix(16,0,0,-16,438.0015,115.650089)"/>
<use data-text="o" xlink:href="#font_2_35" transform="matrix(16,0,0,-16,451.3295,115.650089)"/>
<use data-text="r" xlink:href="#font_2_37" transform="matrix(16,0,0,-16,460.2287,115.650089)"/>
<use data-text="y" xlink:href="#font_2_44" transform="matrix(16,0,0,-16,465.5567,115.650089)"/>
<use data-text=" " xlink:href="#font_2_1" transform="matrix(16,0,0,-16,473.5567,115.650089)"/>
<use data-text="b" xlink:href="#font_2_23" transform="matrix(16,0,0,-16,478.0015,115.650089)"/>
<use data-text="u" xlink:href="#font_2_40" transform="matrix(16,0,0,-16,486.9007,115.650089)"/>
<use data-text="s" xlink:href="#font_2_38" transform="matrix(16,0,0,-16,495.7999,115.650089)"/>
<use data-text="&#xfffd;" xlink:href="#font_3_1" transform="matrix(16,0,0,-16,503.7999,115.650089)"/>
<path transform="matrix(.00007874014,0,0,.00007874014,456.3243,120)" stroke-width="12700" stroke-linecap="butt" stroke-linejoin="round" fill="none" stroke="#000000" d="M.1389159 .0672608V431800.1"/>
<path transform="matrix(1,0,0,-1,-11.6756,540)" d="M470.9999 390 467.9999 384 464.9999 390Z" fill-rule="evenodd"/>
<path transform="matrix(.00007874014,0,0,.00007874014,348.3243,204)" stroke-width="12700" stroke-linecap="butt" stroke-miterlimit="8" stroke-linejoin="miter" fill="none" stroke="#000000" d="M-.0720216 222251 247650 .2313233 495300 222251H338456.1V685800.3H156843.9V222251Z"/>
<path transform="matrix(.00007874014,0,0,-.00007874014,435.3243,316)" stroke-width="12700" stroke-linecap="butt" stroke-miterlimit="8" stroke-linejoin="miter" fill="none" stroke="#000000" d="M.09790027 222251 247650.1-.006286651 495300.2 222251H338456.2V685799.9H156844V222251Z"/>
<path transform="matrix(.00007874014,0,0,.00007874014,402.3243,319)" stroke-width="12700" stroke-linecap="butt" stroke-miterlimit="8" stroke-linejoin="miter" fill="none" stroke="#000000" d="M.03344715 .01214603H1295400V749299.9H.03344715Z"/>
<use data-text="H" xlink:href="#font_2_11" transform="matrix(16,0,0,-16,421.5243,335.7)"/>
<use data-text="o" xlink:href="#font_2_35" transform="matrix(16,0,0,-16,433.0795,335.7)"/>
<use data-text="s" xlink:href="#font_2_38" transform="matrix(16,0,0,-16,441.9787,335.7)"/>
<use data-text="t" xlink:href="#font_2_39" transform="matrix(16,0,0,-16,449.9787,335.7)"/>
<use data-text=" " xlink:href="#font_2_1" transform="matrix(16,0,0,-16,454.4235,335.7)"/>
<use data-text="b" xlink:href="#font_2_23" transform="matrix(16,0,0,-16,458.8683,335.7)"/>
<use data-text="u" xlink:href="#font_2_40" transform="matrix(16,0,0,-16,467.7675,335.7)"/>
<use data-text="s" xlink:href="#font_2_38" transform="matrix(16,0,0,-16,476.6667,335.7)"/>
<use data-text=" " xlink:href="#font_2_1" transform="matrix(16,0,0,-16,484.6667,335.7)"/>
<use data-text="&#xfffd;" xlink:href="#font_3_1" transform="matrix(16,0,0,-16,489.1115,335.7)"/>
<use data-text="a" xlink:href="#font_2_22" transform="matrix(16,0,0,-16,426.5244,354.7)"/>
<use data-text="d" xlink:href="#font_2_25" transform="matrix(16,0,0,-16,435.4236,354.7)"/>
<use data-text="a" xlink:href="#font_2_22" transform="matrix(16,0,0,-16,444.3228,354.7)"/>
<use data-text="p" xlink:href="#font_2_36" transform="matrix(16,0,0,-16,453.22203,354.7)"/>
<use data-text="t" xlink:href="#font_2_39" transform="matrix(16,0,0,-16,462.12123,354.7)"/>
<use data-text="e" xlink:href="#font_2_26" transform="matrix(16,0,0,-16,466.566,354.7)"/>
<use data-text="r" xlink:href="#font_2_37" transform="matrix(16,0,0,-16,475.4652,354.7)"/>
<use data-text=" " xlink:href="#font_2_1" transform="matrix(16,0,0,-16,480.7932,354.7)"/>
<use data-text="&#xfffd;" xlink:href="#font_3_1" transform="matrix(16,0,0,-16,485.238,354.7)"/>
<use data-text="(" xlink:href="#font_2_2" transform="matrix(16,0,0,-16,407.5244,373.7)"/>
<use data-text="S" xlink:href="#font_2_19" transform="matrix(16,0,0,-16,412.85243,373.7)"/>
<use data-text="C" xlink:href="#font_2_7" transform="matrix(16,0,0,-16,423.5244,373.7)"/>
<use data-text="S" xlink:href="#font_2_19" transform="matrix(16,0,0,-16,435.07963,373.7)"/>
<use data-text="I" xlink:href="#font_2_12" transform="matrix(16,0,0,-16,445.75163,373.7)"/>
<use data-text="/" xlink:href="#font_2_4" transform="matrix(16,0,0,-16,450.1964,373.7)"/>
<use data-text="S" xlink:href="#font_2_19" transform="matrix(16,0,0,-16,454.64125,373.7)"/>
<use data-text="A" xlink:href="#font_2_5" transform="matrix(16,0,0,-16,465.31324,373.7)"/>
<use data-text="T" xlink:href="#font_2_20" transform="matrix(16,0,0,-16,474.80604,373.7)"/>
<use data-text="A" xlink:href="#font_2_5" transform="matrix(16,0,0,-16,483.39964,373.7)"/>
<use data-text=")" xlink:href="#font_2_3" transform="matrix(16,0,0,-16,494.07164,373.7)"/>
<use data-text="&#xfffd;" xlink:href="#font_3_1" transform="matrix(16,0,0,-16,499.39964,373.7)"/>
<path transform="matrix(.00007874014,0,0,-.00007874014,251.8244,316)" stroke-width="12700" stroke-linecap="butt" stroke-miterlimit="8" stroke-linejoin="miter" fill="none" stroke="#000000" d="M-.1229249 222251 247649.9-.006286651 495300 222251H338456V685799.9H156843.8V222251Z"/>
<path transform="matrix(.00007874014,0,0,.00007874014,218.8244,319)" stroke-width="12700" stroke-linecap="butt" stroke-miterlimit="8" stroke-linejoin="miter" fill="none" stroke="#000000" d="M.06262201 .01214603H1295400V520700.1H.06262201Z"/>
<use data-text="G" xlink:href="#font_2_10" transform="matrix(16,0,0,-16,238.0244,336.3)"/>
<use data-text="r" xlink:href="#font_2_37" transform="matrix(16,0,0,-16,250.46921,336.3)"/>
<use data-text="a" xlink:href="#font_2_22" transform="matrix(16,0,0,-16,255.7972,336.3)"/>
<use data-text="p" xlink:href="#font_2_36" transform="matrix(16,0,0,-16,264.6964,336.3)"/>
<use data-text="h" xlink:href="#font_2_29" transform="matrix(16,0,0,-16,273.5956,336.3)"/>
<use data-text="i" xlink:href="#font_2_30" transform="matrix(16,0,0,-16,282.4948,336.3)"/>
<use data-text="c" xlink:href="#font_2_24" transform="matrix(16,0,0,-16,286.05,336.3)"/>
<use data-text="s" xlink:href="#font_2_38" transform="matrix(16,0,0,-16,294.05,336.3)"/>
<use data-text="&#xfffd;" xlink:href="#font_3_1" transform="matrix(16,0,0,-16,302.05,336.3)"/>
<use data-text="a" xlink:href="#font_2_22" transform="matrix(16,0,0,-16,243.0244,355.3)"/>
<use data-text="d" xlink:href="#font_2_25" transform="matrix(16,0,0,-16,251.9236,355.3)"/>
<use data-text="a" xlink:href="#font_2_22" transform="matrix(16,0,0,-16,260.8228,355.3)"/>
<use data-text="p" xlink:href="#font_2_36" transform="matrix(16,0,0,-16,269.722,355.3)"/>
<use data-text="t" xlink:href="#font_2_39" transform="matrix(16,0,0,-16,278.62123,355.3)"/>
<use data-text="e" xlink:href="#font_2_26" transform="matrix(16,0,0,-16,283.066,355.3)"/>
<use data-text="r" xlink:href="#font_2_37" transform="matrix(16,0,0,-16,291.9652,355.3)"/>
<use data-text="&#xfffd;" xlink:href="#font_3_1" transform="matrix(16,0,0,-16,297.2932,355.3)"/>
<path transform="matrix(.00007874014,0,0,.00007874014,43.824388,318)" stroke-width="12700" stroke-linecap="butt" stroke-miterlimit="8" stroke-linejoin="miter" fill="none" stroke="#000000" d="M.01150511-.04602045H1860550V520700H.01150511Z"/>
<use data-text="U" xlink:href="#font_2_21" transform="matrix(16,0,0,-16,101.0244,335.3)"/>
<use data-text="S" xlink:href="#font_2_19" transform="matrix(16,0,0,-16,112.5796,335.3)"/>
<use data-text="B" xlink:href="#font_2_6" transform="matrix(16,0,0,-16,123.2516,335.3)"/>
<use data-text="&#xfffd;" xlink:href="#font_3_1" transform="matrix(16,0,0,-16,133.9236,335.3)"/>
<use data-text="c" xlink:href="#font_2_24" transform="matrix(16,0,0,-16,84.02438,354.3)"/>
<use data-text="o" xlink:href="#font_2_35" transform="matrix(16,0,0,-16,92.02438,354.3)"/>
<use data-text="n" xlink:href="#font_2_34" transform="matrix(16,0,0,-16,100.923587,354.3)"/>
<use data-text="t" xlink:href="#font_2_39" transform="matrix(16,0,0,-16,109.822788,354.3)"/>
<use data-text="r" xlink:href="#font_2_37" transform="matrix(16,0,0,-16,114.267589,354.3)"/>
<use data-text="o" xlink:href="#font_2_35" transform="matrix(16,0,0,-16,119.59558,354.3)"/>
<use data-text="l" xlink:href="#font_2_32" transform="matrix(16,0,0,-16,128.49478,354.3)"/>
<use data-text="l" xlink:href="#font_2_32" transform="matrix(16,0,0,-16,132.04999,354.3)"/>
<use data-text="e" xlink:href="#font_2_26" transform="matrix(16,0,0,-16,135.6052,354.3)"/>
<use data-text="r" xlink:href="#font_2_37" transform="matrix(16,0,0,-16,144.5044,354.3)"/>
<use data-text="&#xfffd;" xlink:href="#font_3_1" transform="matrix(16,0,0,-16,149.8324,354.3)"/>
<path transform="matrix(.00007874014,0,0,.00007874014,61.82438,360)" stroke-width="12700" stroke-linecap="butt" stroke-linejoin="round" fill="none" stroke="#000000" d="M.01226804 25400.1V304800.1"/>
<path transform="matrix(1,0,0,-1,-11.6756,540)" d="M70.49998 174 73.49998 180 76.49998 174Z" fill-rule="evenodd"/>
<use data-text="M" xlink:href="#font_2_15" transform="matrix(16,0,0,-16,36.52439,397.65)"/>
<use data-text="o" xlink:href="#font_2_35" transform="matrix(16,0,0,-16,49.852396,397.65)"/>
<use data-text="u" xlink:href="#font_2_40" transform="matrix(16,0,0,-16,58.751596,397.65)"/>
<use data-text="s" xlink:href="#font_2_38" transform="matrix(16,0,0,-16,67.650798,397.65)"/>
<use data-text="e" xlink:href="#font_2_26" transform="matrix(16,0,0,-16,75.650798,397.65)"/>
<use data-text="&#xfffd;" xlink:href="#font_3_1" transform="matrix(16,0,0,-16,84.549999,397.65)"/>
<path transform="matrix(.00007874014,0,0,.00007874014,173.1994,360)" stroke-width="12700" stroke-linecap="butt" stroke-linejoin="round" fill="none" stroke="#000000" d="M.05487064 25400.1V304800.1"/>
<path transform="matrix(1,0,0,-1,-11.6756,540)" d="M181.875 174 184.875 180 187.875 174Z" fill-rule="evenodd"/>
<use data-text="K" xlink:href="#font_2_13" transform="matrix(16,0,0,-16,159.0244,397.675)"/>
<use data-text="e" xlink:href="#font_2_26" transform="matrix(16,0,0,-16,169.6964,397.675)"/>
<use data-text="y" xlink:href="#font_2_44" transform="matrix(16,0,0,-16,178.5956,397.675)"/>
<use data-text="&#xfffd;" xlink:href="#font_3_1" transform="matrix(16,0,0,-16,186.5956,397.675)"/>
<use data-text="b" xlink:href="#font_2_23" transform="matrix(16,0,0,-16,153.0244,416.675)"/>
<use data-text="o" xlink:href="#font_2_35" transform="matrix(16,0,0,-16,161.9236,416.675)"/>
<use data-text="a" xlink:href="#font_2_22" transform="matrix(16,0,0,-16,170.8228,416.675)"/>
<use data-text="r" xlink:href="#font_2_37" transform="matrix(16,0,0,-16,179.722,416.675)"/>
<use data-text="d" xlink:href="#font_2_25" transform="matrix(16,0,0,-16,185.05,416.675)"/>
<use data-text="&#xfffd;" xlink:href="#font_3_1" transform="matrix(16,0,0,-16,193.9492,416.675)"/>
<path transform="matrix(.00007874014,0,0,.00007874014,272.8244,360)" stroke-width="12700" stroke-linecap="butt" stroke-linejoin="round" fill="none" stroke="#000000" d="M-.08190924 .09222415V279400.1"/>
<path transform="matrix(1,0,0,-1,-11.6756,540)" d="M287.5 162 284.5 156 281.5 162Z" fill-rule="evenodd"/>
<use data-text="M" xlink:href="#font_2_15" transform="matrix(16,0,0,-16,244.0244,397.65)"/>
<use data-text="o" xlink:href="#font_2_35" transform="matrix(16,0,0,-16,257.3524,397.65)"/>
<use data-text="n" xlink:href="#font_2_34" transform="matrix(16,0,0,-16,266.2516,397.65)"/>
<use data-text="i" xlink:href="#font_2_30" transform="matrix(16,0,0,-16,275.15083,397.65)"/>
<use data-text="t" xlink:href="#font_2_39" transform="matrix(16,0,0,-16,278.706,397.65)"/>
<use data-text="o" xlink:href="#font_2_35" transform="matrix(16,0,0,-16,283.15083,397.65)"/>
<use data-text="r" xlink:href="#font_2_37" transform="matrix(16,0,0,-16,292.05003,397.65)"/>
<use data-text="&#xfffd;" xlink:href="#font_3_1" transform="matrix(16,0,0,-16,297.378,397.65)"/>
<path transform="matrix(.00007874014,0,0,.00007874014,456.3243,450)" stroke-width="12700" stroke-linecap="butt" stroke-linejoin="round" fill="none" stroke="#000000" d="M.1389159 25400.08V355600.1"/>
<path transform="matrix(1,0,0,-1,-11.6756,540)" d="M464.9999 84 467.9999 90 470.9999 84Z" fill-rule="evenodd"/>
<path transform="matrix(1,0,0,-1,-11.6756,540)" d="M470.9999 66 467.9999 60 464.9999 66Z" fill-rule="evenodd"/>
<path transform="matrix(.00007874014,0,0,.00007874014,430.3243,479.99998)" stroke-width="12700" stroke-linecap="butt" stroke-linejoin="round" fill="none" stroke="#000000" d="M609600.2 76200.02C609600.2 118284.1 473136.4 152400 304800.1 152400 136463.9 152400 .08813465 118284.1 .08813465 76200.02 .08813465 34115.9 136463.9 .001525849 304800.1 .001525849 473136.4 .001525849 609600.2 34115.9 609600.2 76200.02ZL609600.2 533400C609600.2 575484.1 473136.4 609600 304800.1 609600 136463.9 609600 .08813465 575484.1 .08813465 533400V76200.02"/>
<path transform="matrix(1,0,0,-1,-11.6756,540)" d="M24 279.5 55.46495 295V287.0347H601.5349V295L632.9999 279.5 601.5349 264V271.9652H55.46495V264Z" fill="#ffffff" fill-rule="evenodd"/>
<path transform="matrix(.00007874014,0,0,.00007874014,12.3244,245)" stroke-width="12700" stroke-linecap="butt" stroke-miterlimit="8" stroke-linejoin="miter" fill="none" stroke="#000000" d="M-.008598331 196850.1 399605 .06140143V101159H7334694V.06140143L7734300 196850.1 7334694 393700.1V292541.2H399605V393700.1Z"/>
<path transform="matrix(1,0,0,-1,-11.6756,540)" d="M120.125 281.6249H133.25V269.6249H120.125Z" fill="#ffffff" fill-rule="evenodd"/>
<path transform="matrix(1,0,0,-1,-11.6756,540)" d="M276.75 282.3749H289.875V270.3749H276.75Z" fill="#ffffff" fill-rule="evenodd"/>
<path transform="matrix(1,0,0,-1,-11.6756,540)" d="M460.4999 283.1249H473.2499V271.1249H460.4999Z" fill="#ffffff" fill-rule="evenodd"/>
<use data-text="I" xlink:href="#font_2_12" transform="matrix(16,0,0,-16,346.0243,288.65)"/>
<use data-text="/" xlink:href="#font_2_4" transform="matrix(16,0,0,-16,350.4691,288.65)"/>
<use data-text="O" xlink:href="#font_2_16" transform="matrix(16,0,0,-16,354.91389,288.65)"/>
<use data-text=" " xlink:href="#font_2_1" transform="matrix(16,0,0,-16,367.3587,288.65)"/>
<use data-text="b" xlink:href="#font_2_23" transform="matrix(16,0,0,-16,371.8035,288.65)"/>
<use data-text="u" xlink:href="#font_2_40" transform="matrix(16,0,0,-16,380.7027,288.65)"/>
<use data-text="s" xlink:href="#font_2_38" transform="matrix(16,0,0,-16,389.6019,288.65)"/>
<use data-text="&#xfffd;" xlink:href="#font_3_1" transform="matrix(16,0,0,-16,397.6019,288.65)"/>
<path transform="matrix(1,0,0,-1,-11.6756,540)" d="M373.125 288H385.875V276H373.125Z" fill="#ffffff" fill-rule="evenodd"/>
<path transform="matrix(1,0,0,-1,-11.6756,540)" d="M521.9999 294H531.9999V262H521.9999Z" fill="#ffffff" fill-rule="evenodd"/>
<path transform="matrix(.00007874014,0,0,.00007874014,510.32429,246)" stroke-width="12700" stroke-linecap="butt" stroke-miterlimit="8" stroke-linejoin="miter" fill="none" stroke="#000000" d="M-.2556154 .06335455H126999.8V406400.1H-.2556154Z"/>
<path transform="matrix(1,0,0,-1,-11.6756,540)" d="M545.9999 294H555.9999V262H545.9999Z" fill="#ffffff" fill-rule="evenodd"/>
<path transform="matrix(.00007874014,0,0,.00007874014,534.3243,246)" stroke-width="12700" stroke-linecap="butt" stroke-miterlimit="8" stroke-linejoin="miter" fill="none" stroke="#000000" d="M-.2087404 .06335455H126999.8V406400.1H-.2087404Z"/>
<path transform="matrix(1,0,0,-1,-11.6756,540)" d="M569.9999 294H579.9999V262H569.9999Z" fill="#ffffff" fill-rule="evenodd"/>
<path transform="matrix(.00007874014,0,0,.00007874014,558.3243,246)" stroke-width="12700" stroke-linecap="butt" stroke-miterlimit="8" stroke-linejoin="miter" fill="none" stroke="#000000" d="M-.1618654 .06335455H126999.9V406400.1H-.1618654Z"/>
<use data-text="E" xlink:href="#font_2_9" transform="matrix(16,0,0,-16,516.3994,295.725)"/>
<use data-text="x" xlink:href="#font_2_43" transform="matrix(16,0,0,-16,527.0714,295.725)"/>
<use data-text="p" xlink:href="#font_2_36" transform="matrix(16,0,0,-16,535.0714,295.725)"/>
<use data-text="a" xlink:href="#font_2_22" transform="matrix(16,0,0,-16,543.97067,295.725)"/>
<use data-text="n" xlink:href="#font_2_34" transform="matrix(16,0,0,-16,552.8698,295.725)"/>
<use data-text="s" xlink:href="#font_2_38" transform="matrix(16,0,0,-16,561.76907,295.725)"/>
<use data-text="i" xlink:href="#font_2_30" transform="matrix(16,0,0,-16,569.76907,295.725)"/>
<use data-text="o" xlink:href="#font_2_35" transform="matrix(16,0,0,-16,573.3242,295.725)"/>
<use data-text="n" xlink:href="#font_2_34" transform="matrix(16,0,0,-16,582.2234,295.725)"/>
<use data-text=" " xlink:href="#font_2_1" transform="matrix(16,0,0,-16,591.1226,295.725)"/>
<use data-text="s" xlink:href="#font_2_38" transform="matrix(16,0,0,-16,595.56747,295.725)"/>
<use data-text="l" xlink:href="#font_2_32" transform="matrix(16,0,0,-16,603.56747,295.725)"/>
<use data-text="o" xlink:href="#font_2_35" transform="matrix(16,0,0,-16,607.1226,295.725)"/>
<use data-text="t" xlink:href="#font_2_39" transform="matrix(16,0,0,-16,616.02188,295.725)"/>
<use data-text="s" xlink:href="#font_2_38" transform="matrix(16,0,0,-16,620.4666,295.725)"/>
<use data-text=" " xlink:href="#font_2_1" transform="matrix(16,0,0,-16,628.4666,295.725)"/>
<use data-text="f" xlink:href="#font_2_27" transform="matrix(16,0,0,-16,632.91146,295.725)"/>
<use data-text="o" xlink:href="#font_2_35" transform="matrix(16,0,0,-16,637.3562,295.725)"/>
<use data-text="r" xlink:href="#font_2_37" transform="matrix(16,0,0,-16,646.25546,295.725)"/>
<use data-text="&#xfffd;" xlink:href="#font_3_1" transform="matrix(16,0,0,-16,651.58346,295.725)"/>
<use data-text="o" xlink:href="#font_2_35" transform="matrix(16,0,0,-16,516.3994,314.725)"/>
<use data-text="t" xlink:href="#font_2_39" transform="matrix(16,0,0,-16,525.2986,314.725)"/>
<use data-text="h" xlink:href="#font_2_29" transform="matrix(16,0,0,-16,529.7434,314.725)"/>
<use data-text="e" xlink:href="#font_2_26" transform="matrix(16,0,0,-16,538.64266,314.725)"/>
<use data-text="r" xlink:href="#font_2_37" transform="matrix(16,0,0,-16,547.5418,314.725)"/>
<use data-text=" " xlink:href="#font_2_1" transform="matrix(16,0,0,-16,552.8698,314.725)"/>
<use data-text="d" xlink:href="#font_2_25" transform="matrix(16,0,0,-16,557.31466,314.725)"/>
<use data-text="e" xlink:href="#font_2_26" transform="matrix(16,0,0,-16,566.2138,314.725)"/>
<use data-text="v" xlink:href="#font_2_41" transform="matrix(16,0,0,-16,575.11306,314.725)"/>
<use data-text="i" xlink:href="#font_2_30" transform="matrix(16,0,0,-16,583.11306,314.725)"/>
<use data-text="c" xlink:href="#font_2_24" transform="matrix(16,0,0,-16,586.6682,314.725)"/>
<use data-text="e" xlink:href="#font_2_26" transform="matrix(16,0,0,-16,594.6682,314.725)"/>
<use data-text="s" xlink:href="#font_2_38" transform="matrix(16,0,0,-16,603.56747,314.725)"/>
<use data-text=" " xlink:href="#font_2_1" transform="matrix(16,0,0,-16,611.56747,314.725)"/>
<use data-text="s" xlink:href="#font_2_38" transform="matrix(16,0,0,-16,616.0122,314.725)"/>
<use data-text="u" xlink:href="#font_2_40" transform="matrix(16,0,0,-16,624.0122,314.725)"/>
<use data-text="c" xlink:href="#font_2_24" transform="matrix(16,0,0,-16,632.91146,314.725)"/>
<use data-text="h" xlink:href="#font_2_29" transform="matrix(16,0,0,-16,640.91146,314.725)"/>
<use data-text="&#xfffd;" xlink:href="#font_3_1" transform="matrix(16,0,0,-16,649.8106,314.725)"/>
<use data-text="a" xlink:href="#font_2_22" transform="matrix(16,0,0,-16,516.3994,333.725)"/>
<use data-text="s" xlink:href="#font_2_38" transform="matrix(16,0,0,-16,525.2986,333.725)"/>
<use data-text=" " xlink:href="#font_2_1" transform="matrix(16,0,0,-16,533.2986,333.725)"/>
<use data-text="n" xlink:href="#font_2_34" transform="matrix(16,0,0,-16,537.7434,333.725)"/>
<use data-text="e" xlink:href="#font_2_26" transform="matrix(16,0,0,-16,546.64266,333.725)"/>
<use data-text="t" xlink:href="#font_2_39" transform="matrix(16,0,0,-16,555.5418,333.725)"/>
<use data-text="w" xlink:href="#font_2_42" transform="matrix(16,0,0,-16,559.98666,333.725)"/>
<use data-text="o" xlink:href="#font_2_35" transform="matrix(16,0,0,-16,571.5418,333.725)"/>
<use data-text="r" xlink:href="#font_2_37" transform="matrix(16,0,0,-16,580.44107,333.725)"/>
<use data-text="k" xlink:href="#font_2_31" transform="matrix(16,0,0,-16,585.76907,333.725)"/>
<use data-text=" " xlink:href="#font_2_1" transform="matrix(16,0,0,-16,593.76907,333.725)"/>
<use data-text="a" xlink:href="#font_2_22" transform="matrix(16,0,0,-16,598.2138,333.725)"/>
<use data-text="d" xlink:href="#font_2_25" transform="matrix(16,0,0,-16,607.11306,333.725)"/>
<use data-text="a" xlink:href="#font_2_22" transform="matrix(16,0,0,-16,616.0122,333.725)"/>
<use data-text="p" xlink:href="#font_2_36" transform="matrix(16,0,0,-16,624.91146,333.725)"/>
<use data-text="t" xlink:href="#font_2_39" transform="matrix(16,0,0,-16,633.8106,333.725)"/>
<use data-text="e" xlink:href="#font_2_26" transform="matrix(16,0,0,-16,638.25546,333.725)"/>
<use data-text="r" xlink:href="#font_2_37" transform="matrix(16,0,0,-16,647.15469,333.725)"/>
<use data-text="s" xlink:href="#font_2_38" transform="matrix(16,0,0,-16,652.48269,333.725)"/>
<use data-text="&#xfffd;" xlink:href="#font_3_1" transform="matrix(16,0,0,-16,660.48269,333.725)"/>
<use data-text="&#xfffd;" xlink:href="#font_3_1" transform="matrix(16,0,0,-16,516.3994,352.725)"/>
<path transform="matrix(.00007874014,0,0,.00007874014,402.3243,409)" stroke-width="12700" stroke-linecap="butt" stroke-miterlimit="8" stroke-linejoin="miter" fill="none" stroke="#000000" d="M.03344715 .05035397H1295400V520700H.03344715Z"/>
<use data-text="D" xlink:href="#font_2_8" transform="matrix(16,0,0,-16,437.5243,426.3)"/>
<use data-text="i" xlink:href="#font_2_30" transform="matrix(16,0,0,-16,449.0795,426.3)"/>
<use data-text="s" xlink:href="#font_2_38" transform="matrix(16,0,0,-16,452.6347,426.3)"/>
<use data-text="k" xlink:href="#font_2_31" transform="matrix(16,0,0,-16,460.6347,426.3)"/>
<use data-text=" " xlink:href="#font_2_1" transform="matrix(16,0,0,-16,468.6347,426.3)"/>
<use data-text="&#xfffd;" xlink:href="#font_3_1" transform="matrix(16,0,0,-16,473.0795,426.3)"/>
<use data-text="c" xlink:href="#font_2_24" transform="matrix(16,0,0,-16,420.5243,445.3)"/>
<use data-text="o" xlink:href="#font_2_35" transform="matrix(16,0,0,-16,428.5243,445.3)"/>
<use data-text="n" xlink:href="#font_2_34" transform="matrix(16,0,0,-16,437.4235,445.3)"/>
<use data-text="t" xlink:href="#font_2_39" transform="matrix(16,0,0,-16,446.3227,445.3)"/>
<use data-text="r" xlink:href="#font_2_37" transform="matrix(16,0,0,-16,450.7675,445.3)"/>
<use data-text="o" xlink:href="#font_2_35" transform="matrix(16,0,0,-16,456.0955,445.3)"/>
<use data-text="l" xlink:href="#font_2_32" transform="matrix(16,0,0,-16,464.9947,445.3)"/>
<use data-text="l" xlink:href="#font_2_32" transform="matrix(16,0,0,-16,468.5499,445.3)"/>
<use data-text="e" xlink:href="#font_2_26" transform="matrix(16,0,0,-16,472.1051,445.3)"/>
<use data-text="r" xlink:href="#font_2_37" transform="matrix(16,0,0,-16,481.0043,445.3)"/>
<use data-text="&#xfffd;" xlink:href="#font_3_1" transform="matrix(16,0,0,-16,486.3323,445.3)"/>
<path transform="matrix(.00007874014,0,0,.00007874014,456.3243,378)" stroke-width="12700" stroke-linecap="butt" stroke-linejoin="round" fill="none" stroke="#000000" d="M.1389159 25400.01V355600.1"/>
<path transform="matrix(1,0,0,-1,-11.6756,540)" d="M464.9999 156 467.9999 162 470.9999 156Z" fill-rule="evenodd"/>
<path transform="matrix(1,0,0,-1,-11.6756,540)" d="M470.9999 138 467.9999 132 464.9999 138Z" fill-rule="evenodd"/>
<path transform="matrix(.00007874014,0,0,.00007874014,396.3243,402)" stroke-width="12700" stroke-linecap="butt" stroke-dasharray="50800,38100" stroke-miterlimit="8" stroke-linejoin="miter" fill="none" stroke="#000000" d="M.0217284 .0492554H1447800V1676400H.0217284Z"/>
<use data-text="D" xlink:href="#font_2_8" transform="matrix(16,0,0,-16,517.6494,469.6)"/>
<use data-text="i" xlink:href="#font_2_30" transform="matrix(16,0,0,-16,529.2046,469.6)"/>
<use data-text="s" xlink:href="#font_2_38" transform="matrix(16,0,0,-16,532.7598,469.6)"/>
<use data-text="k" xlink:href="#font_2_31" transform="matrix(16,0,0,-16,540.7598,469.6)"/>
<use data-text=" " xlink:href="#font_2_1" transform="matrix(16,0,0,-16,548.7598,469.6)"/>
<use data-text="d" xlink:href="#font_2_25" transform="matrix(16,0,0,-16,553.2046,469.6)"/>
<use data-text="r" xlink:href="#font_2_37" transform="matrix(16,0,0,-16,562.1038,469.6)"/>
<use data-text="i" xlink:href="#font_2_30" transform="matrix(16,0,0,-16,567.4318,469.6)"/>
<use data-text="v" xlink:href="#font_2_41" transform="matrix(16,0,0,-16,570.987,469.6)"/>
<use data-text="e" xlink:href="#font_2_26" transform="matrix(16,0,0,-16,578.987,469.6)"/>
<use data-text="&#xfffd;" xlink:href="#font_3_1" transform="matrix(16,0,0,-16,587.8862,469.6)"/>
<path transform="matrix(.00007874014,0,0,.00007874014,116.1994,360)" stroke-width="12700" stroke-linecap="butt" stroke-linejoin="round" fill="none" stroke="#000000" d="M-.08456416 25400.1V304800.1"/>
<path transform="matrix(1,0,0,-1,-11.6756,540)" d="M124.875 174 127.875 180 130.875 174Z" fill-rule="evenodd"/>
<use data-text="S" xlink:href="#font_2_19" transform="matrix(16,0,0,-16,101.0244,397.7)"/>
<use data-text="o" xlink:href="#font_2_35" transform="matrix(16,0,0,-16,111.696399,397.7)"/>
<use data-text="l" xlink:href="#font_2_32" transform="matrix(16,0,0,-16,120.5956,397.7)"/>
<use data-text="i" xlink:href="#font_2_30" transform="matrix(16,0,0,-16,124.1508,397.7)"/>
<use data-text="d" xlink:href="#font_2_25" transform="matrix(16,0,0,-16,127.706,397.7)"/>
<use data-text=" " xlink:href="#font_2_1" transform="matrix(16,0,0,-16,136.6052,397.7)"/>
<use data-text="&#xfffd;" xlink:href="#font_3_1" transform="matrix(16,0,0,-16,141.05,397.7)"/>
<use data-text="s" xlink:href="#font_2_38" transform="matrix(16,0,0,-16,101.0244,416.7)"/>
<use data-text="t" xlink:href="#font_2_39" transform="matrix(16,0,0,-16,109.0244,416.7)"/>
<use data-text="a" xlink:href="#font_2_22" transform="matrix(16,0,0,-16,113.4692,416.7)"/>
<use data-text="t" xlink:href="#font_2_39" transform="matrix(16,0,0,-16,122.3684,416.7)"/>
<use data-text="e" xlink:href="#font_2_26" transform="matrix(16,0,0,-16,126.8132,416.7)"/>
<use data-text=" " xlink:href="#font_2_1" transform="matrix(16,0,0,-16,135.7124,416.7)"/>
<use data-text="&#xfffd;" xlink:href="#font_3_1" transform="matrix(16,0,0,-16,140.1572,416.7)"/>
<use data-text="d" xlink:href="#font_2_25" transform="matrix(16,0,0,-16,105.0244,435.7)"/>
<use data-text="i" xlink:href="#font_2_30" transform="matrix(16,0,0,-16,113.9236,435.7)"/>
<use data-text="s" xlink:href="#font_2_38" transform="matrix(16,0,0,-16,117.4788,435.7)"/>
<use data-text="k" xlink:href="#font_2_31" transform="matrix(16,0,0,-16,125.4788,435.7)"/>
<use data-text="&#xfffd;" xlink:href="#font_3_1" transform="matrix(16,0,0,-16,133.47879,435.7)"/>
</g>
</g>
</svg>
