<svg xmlns="http://www.w3.org/2000/svg" xmlns:xlink="http://www.w3.org/1999/xlink" version="1.1" width="558.873pt" height="191.48001pt" viewBox="0 0 558.873 191.48001">
<defs>
<clipPath id="clip_0">
<path transform="matrix(1,0,0,-1,0,540)" d="M0 348.52H558.873V540H0Z" fill-rule="evenodd"/>
</clipPath>
<clipPath id="clip_1">
<path transform="matrix(1,0,0,-1,0,540)" d="M0 .00002324581H719.9999V540H0Z"/>
</clipPath>
<path id="font_2_28" d="M.39111329 .5234375H.48828126C.47591148 .48987834 .44840495 .41330973 .40576173 .2937317 .3738607 .20380657 .34716798 .13049825 .3256836 .07380676 .27490235-.059921266 .23909505-.14145915 .21826172-.17080689 .19742839-.2001648 .1616211-.21484375 .110839847-.21484375 .098470058-.21484375 .08894857-.21435039 .08227539-.21336365 .07560221-.21238709 .06738281-.21058655 .057617189-.20796204V-.1274414C.072916667-.13167317 .083984378-.13427735 .09082031-.1352539 .09765625-.13623047 .10367838-.13671875 .10888672-.13671875 .12516277-.13671875 .13712566-.1340332 .14477539-.12866211 .15242513-.123291019 .15885417-.11669922 .1640625-.10888672 .16569011-.106282558 .17154949-.092936199 .18164063-.068847659 .19173177-.044759115 .19905599-.026855469 .20361328-.015136719L.010253906 .5234375H.10986328L.25 .09727478 .39111329 .5234375M.24951172 .5361328V.5361328Z"/>
<path id="font_3_1" d="M0 0Z"/>
<path id="font_2_4" d="M.44433595 .2939453 .33544923 .61120608 .21972656 .2939453H.44433595M.28466798 .71777346H.39453126L.65478518 0H.54833987L.47558595 .21484375H.19189453L.11425781 0H.0146484379L.28466798 .71777346M.33496095 .71777346V.71777346Z"/>
<path id="font_2_7" d="M.076171878 .71777346H.17333985V.0859375H.5366211V0H.076171878V.71777346Z"/>
<path id="font_2_11" d="M.18164063 .71777346V.27441407C.18164063 .22233074 .19140625 .17903646 .2109375 .14453125 .23990886 .092447917 .28873698 .06640625 .35742188 .06640625 .43977867 .06640625 .49576823 .094563808 .5253906 .1508789 .5413411 .18147786 .5493164 .22265625 .5493164 .27441407V.71777346H.6479492V.3149414C.6479492 .22672527 .6360677 .15885417 .6123047 .111328128 .5686849 .024739584 .48632813-.018554688 .36523438-.018554688 .24414063-.018554688 .16194661 .024739584 .118652347 .111328128 .09488932 .15885417 .08300781 .22672527 .08300781 .3149414V.71777346H.18164063M.36572267 .71777346V.71777346Z"/>
<path id="font_2_10" d="M.40966798 .38867188C.45524089 .38867188 .49129234 .39778648 .51782229 .41601563 .54435226 .43424479 .5576172 .4671224 .5576172 .51464846 .5576172 .5657552 .5390625 .60058596 .5019531 .6191406 .48209635 .62890627 .4555664 .63378909 .42236329 .63378909H.1850586V.38867188H.40966798M.087890628 .71777346H.41992188C.47460938 .71777346 .51969406 .709788 .5551758 .69381716 .6225586 .6631775 .65625 .60662338 .65625 .52415469 .65625 .48112489 .6473796 .44591777 .6296387 .41853334 .61189779 .39115907 .58707687 .36916099 .5551758 .35253907 .5831706 .34114585 .60424807 .32617188 .6184082 .3076172 .63256838 .2890625 .6404622 .2589518 .64208987 .21728516L.6455078 .12109375C.6464844 .09388224 .648763 .07363383 .65234377 .06034851 .6582031 .037663778 .6686198 .023081461 .68359377 .016601563V0H.5644531C.56119796 .006184896 .55859377 .014160156 .5566406 .023925782 .5546875 .033691408 .5530599 .052571615 .5517578 .080566409L.54589846 .20019531C.5436198 .24707031 .5262044 .27848307 .49365235 .2944336 .47509767 .30322267 .44596354 .3076172 .40625 .3076172H.1850586V0H.087890628V.71777346Z"/>
<path id="font_2_16" d="M.28222657 .53515627C.31933595 .53515627 .355306 .52644857 .39013673 .5090332 .42496745 .49161784 .4514974 .4690806 .46972657 .4414215 .4873047 .41505433 .49902345 .3842977 .5048828 .3491516 .5100911 .32506309 .5126953 .28647868 .5126953 .23339844H.12939453C.13102214 .18033855 .14355469 .13777669 .16699219 .10571289 .19042969 .073649089 .22672527 .057617189 .2758789 .057617189 .32177735 .057617189 .35839845 .07261658 .3857422 .10261536 .4013672 .12003072 .4124349 .14018758 .4189453 .16308594H.5053711C.50309249 .14398194 .49552409 .122690837 .48266603 .09921265 .46980796 .07574463 .45540367 .05656433 .43945313 .041671754 .4127604 .01576233 .37972007-.0017242432 .34033204-.010787964 .3191732-.01596578 .2952474-.018554688 .2685547-.018554688 .20345052-.018554688 .14827474 .0051472985 .103027347 .05255127 .05777995 .09995524 .03515625 .16634114 .03515625 .25170899 .03515625 .33576457 .057942708 .40401713 .103515628 .45646668 .14908855 .5089264 .20865886 .53515627 .28222657 .53515627M.42236329 .30371095C.41878257 .34191896 .41048179 .37245179 .39746095 .39530946 .3733724 .4377594 .33317057 .45898438 .27685548 .45898438 .23649089 .45898438 .20263672 .44437156 .17529297 .41514588 .14794922 .3859202 .13346355 .34877525 .13183594 .30371095H.42236329M.27392579 .5361328V.5361328Z"/>
<path id="font_2_18" d="M.24902344 .53222659C.29003907 .53222659 .32584635 .5220744 .3564453 .50177 .37304688 .49030558 .38997398 .4736023 .40722657 .45166017V.5185547H.48828126V.04234314C.48828126-.024154664 .47851563-.07663473 .45898438-.115097049 .42252604-.18615215 .35367839-.22167969 .2524414-.22167969 .1961263-.22167969 .14876302-.20906575 .11035156-.18383789 .0719401-.15861003 .05045573-.119140628 .045898439-.06542969H.1352539C.13948567-.08873495 .14794922-.10669454 .16064453-.11930847 .1805013-.13872783 .2117513-.1484375 .25439454-.1484375 .32177735-.1484375 .3658854-.12467448 .38671876-.07714844 .39908854-.04916382 .40478517 .0007985433 .4038086 .07273865 .38623048 .04588318 .36507163 .025904337 .34033204 .012802124 .31559245-.000289917 .2828776-.0068359377 .2421875-.0068359377 .18554688-.0068359377 .13598633 .013280232 .09350586 .053512575 .05102539 .09375509 .029785157 .16030376 .029785157 .25315858 .029785157 .34080506 .051188154 .40922547 .09399414 .4584198 .13680013 .5076243 .18847656 .53222659 .24902344 .53222659M.40722657 .26342774C.40722657 .328125 .39388023 .37607829 .3671875 .4072876 .34049479 .43849693 .30647788 .45410157 .26513673 .45410157 .20328777 .45410157 .16097005 .4251658 .1381836 .3672943 .12613933 .33641053 .12011719 .29593406 .12011719 .24586487 .12011719 .1870168 .13208008 .14223226 .15600586 .11151123 .17993164 .0807902 .21207683 .06542969 .2524414 .06542969 .31559245 .06542969 .36002604 .09387716 .3857422 .1507721 .4000651 .18295796 .40722657 .22050984 .40722657 .26342774M.25927735 .5361328V.5361328Z"/>
<path id="font_2_19" d="M.064453128 .5205078H.1538086V0H.064453128V.5205078M.064453128 .71777346H.1538086V.61816409H.064453128V.71777346Z"/>
<path id="font_2_25" d="M.11669922 .1640625C.11930338 .13463338 .12662761 .11207072 .13867188 .09637451 .1608073 .06793213 .19921875 .053710939 .25390626 .053710939 .28645835 .053710939 .31510417 .060806276 .33984376 .07499695 .36458335 .08919779 .37695313 .11115011 .37695313 .14085388 .37695313 .16337586 .36702476 .18051148 .34716798 .19226074 .33447267 .19944255 .30940757 .20775859 .27197267 .21720886L.20214844 .2348175C.15755208 .24590557 .12467448 .25829569 .103515628 .27198792 .06575521 .29579164 .046875 .32873027 .046875 .37080384 .046875 .42036439 .064697269 .46046958 .1003418 .49111939 .13598633 .52177938 .18391927 .5371094 .24414063 .5371094 .32291667 .5371094 .37972007 .5139974 .41455079 .46777345 .4363607 .43847657 .4469401 .40690104 .44628907 .37304688H.36328126C.36165367 .39269004 .35465495 .41055808 .34228517 .426651 .32210288 .44950868 .28710938 .4609375 .23730469 .4609375 .20410156 .4609375 .17895508 .45461528 .16186524 .44197084 .14477539 .42933656 .13623047 .41264854 .13623047 .39190675 .13623047 .36922203 .14746094 .35107423 .16992188 .33746339 .1829427 .32936607 .20214844 .32221986 .22753906 .31602479L.28564454 .3018341C.34879557 .28650413 .39111329 .27166749 .41259767 .25732423 .44677735 .23482259 .4638672 .19944255 .4638672 .15118408 .4638672 .10455322 .44620768 .06428019 .41088868 .03036499 .37556968-.0035502117 .32177735-.020507813 .24951172-.020507813 .17171224-.020507813 .116617839-.002802531 .084228519 .032608034 .05183919 .06801859 .034505208 .111836757 .032226564 .1640625H.11669922M.24658203 .5361328V.5361328Z"/>
<path id="font_2_26" d="M.08203125 .66796877H.17089844V.5234375H.25439454V.4501953H.17089844V.110183719C.17089844 .09202576 .17708333 .07986959 .18945313 .07371521 .19628906 .07014465 .2076823 .068359378 .22363281 .068359378 .22786458 .068359378 .23242188 .06846619 .23730469 .06867981 .2421875 .0689036 .24788411 .06944784 .25439454 .0703125V0C.24430339-.0031026204 .23380535-.005340576 .22290039-.006713867 .21199544-.008097331 .20019531-.0087890629 .1875-.0087890629 .14648438-.0087890629 .118652347 .0016988119 .104003909 .02267456 .08935547 .04365031 .08203125 .070882167 .08203125 .10437012V.4501953H.011230469V.5234375H.08203125V.66796877Z"/>
<path id="font_2_24" d="M.06689453 .5234375H.15039063V.4326172C.15722656 .4502767 .17399089 .4717814 .2006836 .49713136 .2273763 .52248129 .25813804 .53515627 .29296876 .53515627 .29459635 .53515627 .29736329 .5349579 .30126954 .53456118 .30517579 .5341746 .31184898 .5333964 .32128907 .53222659V.43945313C.31608073 .44062297 .3112793 .44140116 .30688478 .44178773 .30249024 .44218446 .2976888 .4423828 .29248048 .4423828 .24820964 .4423828 .2141927 .4280599 .19042969 .39941407 .16666667 .37076823 .15478516 .33789063 .15478516 .30078126V0H.06689453V.5234375Z"/>
<path id="font_2_1" d="M0 0Z"/>
<path id="font_2_29" d="M.08642578 .6021576C.08772787 .638443 .09407552 .66500857 .10546875 .68185427 .12597656 .7116597 .16552735 .7265625 .2241211 .7265625 .22965496 .7265625 .23535156 .7263997 .24121094 .7260742 .24707031 .7257487 .2537435 .72526046 .26123048 .7246094V.64453127C.25211589 .6449687 .2455241 .6452382 .24145508 .64533999 .23738607 .64545187 .2335612 .6455078 .22998047 .6455078 .20328777 .6455078 .18733724 .6386719 .1821289 .625 .17692058 .6113281 .1743164 .5764974 .1743164 .5205078H.26123048V.45117188H.17333985V0H.08642578V.45117188H.013671875V.5205078H.08642578V.6021576M.34570313 .61816409V.71777346H.43359376V.61816409H.34570313M.34570313 .5205078H.43359376V0H.34570313V.5205078Z"/>
<path id="font_2_20" d="M.06689453 .71777346H.15478516V0H.06689453V.71777346Z"/>
<path id="font_2_5" d="M.34570313 .4140625C.38671876 .4140625 .41861979 .4197693 .44140626 .43118287 .47721354 .4491272 .4951172 .48142497 .4951172 .5280762 .4951172 .57506307 .47607423 .6067098 .43798829 .62301638 .4165039 .6321513 .38460288 .63671877 .34228517 .63671877H.16894531V.4140625H.34570313M.37841798 .08300781C.43798829 .08300781 .48046876 .100224819 .5058594 .13465882 .5218099 .15642803 .52978518 .18274434 .52978518 .21360779 .52978518 .26559959 .50651046 .30101524 .45996095 .31985475 .43522135 .32992555 .4025065 .33496095 .3618164 .33496095H.16894531V.08300781H.37841798M.07373047 .71777346H.38183595C.4658203 .71777346 .5255534 .6926575 .56103518 .64242556 .58186849 .6127421 .59228518 .5784963 .59228518 .5396881 .59228518 .49434916 .57942709 .45716349 .55371096 .4281311 .54036459 .41280113 .5211589 .3987783 .49609376 .38606263 .5328776 .3720754 .5603841 .35629273 .5786133 .3387146 .61083987 .30748496 .6269531 .26437379 .6269531 .2093811 .6269531 .16317749 .61246749 .12136841 .5834961 .08395386 .54020187 .02798462 .47135417 0 .37695313 0H.07373047V.71777346Z"/>
<path id="font_2_27" d="M.15234375 .5234375V.17590332C.15234375 .1491801 .15657552 .12734477 .16503906 .11039734 .18066406 .07911682 .20979817 .06347656 .2524414 .06347656 .3136393 .06347656 .355306 .09085083 .3774414 .14559937 .3894857 .17492676 .3955078 .21516927 .3955078 .2663269V.5234375H.48339845V0H.40039063L.4013672 .0771637C.38997398 .057195028 .3758138 .040339155 .35888673 .02659607 .32535807-.00090026858 .28466798-.0146484379 .2368164-.0146484379 .16227214-.0146484379 .11149088 .010299683 .084472659 .060195924 .06982422 .08693949 .0625 .12265015 .0625 .16732788V.5234375H.15234375M.27294923 .5361328V.5361328Z"/>
<path id="font_2_22" d="M.064453128 .5234375H.14794922V.44921876C.1726888 .47981773 .19889324 .50179037 .2265625 .5151367 .25423179 .5284831 .2849935 .53515627 .31884767 .53515627 .3930664 .53515627 .44319663 .5092519 .46923829 .45744325 .4835612 .42910258 .49072267 .38853965 .49072267 .3357544V0H.4013672V.3299408C.4013672 .36188255 .39664714 .38762919 .38720704 .4071808 .37158204 .4397634 .34326173 .4560547 .3022461 .4560547 .28141276 .4560547 .2643229 .4539388 .25097657 .44970704 .22688802 .4425354 .20572917 .42819724 .1875 .4066925 .17285156 .38941957 .16333008 .37157694 .15893555 .35316468 .15454102 .3347524 .15234375 .30844117 .15234375 .27423097V0H.064453128V.5234375M.2709961 .5361328V.5361328Z"/>
<path id="font_2_17" d="M.08642578 .6021576C.08772787 .638443 .09407552 .66500857 .10546875 .68185427 .12597656 .7116597 .16552735 .7265625 .2241211 .7265625 .22965496 .7265625 .23535156 .7263997 .24121094 .7260742 .24707031 .7257487 .2537435 .72526046 .26123048 .7246094V.64453127C.25211589 .6449687 .2455241 .6452382 .24145508 .64533999 .23738607 .64545187 .2335612 .6455078 .22998047 .6455078 .20328777 .6455078 .18733724 .6386719 .1821289 .625 .17692058 .6113281 .1743164 .5764974 .1743164 .5205078H.26123048V.45117188H.17333985V0H.08642578V.45117188H.013671875V.5205078H.08642578V.6021576Z"/>
<path id="font_2_12" d="M.13183594 .1394043C.13183594 .114095058 .14111328 .09413656 .15966797 .07952881 .17822266 .06492106 .20019531 .057617189 .22558594 .057617189 .2565104 .057617189 .28645835 .06471761 .3154297 .07891846 .3642578 .10247803 .38867188 .14127605 .38867188 .1953125V.26611329C.3779297 .25886027 .36409507 .2528127 .34716798 .24797058 .33024089 .24313863 .3136393 .23983257 .29736329 .23805237L.24414063 .23184204C.21223958 .22799683 .1883138 .22153218 .17236328 .21244812 .14534505 .19718933 .13183594 .17284139 .13183594 .1394043M.34472657 .31689454C.36490885 .3194987 .37841798 .32796226 .3852539 .34228517 .38916017 .35012818 .39111329 .36140443 .39111329 .3761139 .39111329 .40618388 .38045249 .42799888 .35913087 .44155885 .33780924 .455129 .30729167 .46191407 .26757813 .46191407 .22167969 .46191407 .18912761 .44948326 .16992188 .42462159 .15917969 .4108785 .15218099 .39043174 .14892578 .36328126H.06689453C.06852213 .42791749 .08943685 .47288514 .12963867 .4981842 .1698405 .5234833 .21647136 .5361328 .26953126 .5361328 .3310547 .5361328 .38102214 .52441409 .4194336 .50097659 .45751954 .47753907 .4765625 .4410502 .4765625 .39151V.08985901C.4765625 .08073425 .47843424 .073404949 .48217774 .067871097 .48592124 .06233724 .4938151 .059570314 .5058594 .059570314 .5097656 .059570314 .51416018 .059814454 .51904299 .060302736 .5239258 .060791017 .5291341 .061523439 .53466799 .0625V-.0028076173C.5209961-.00676473 .5105794-.009236653 .50341799-.010223389 .4962565-.011220296 .48649089-.01171875 .4741211-.01171875 .44384767-.01171875 .421875-.0009104411 .40820313 .020706177 .40104167 .032170614 .3959961 .048380536 .3930664 .06933594 .37516276 .045633954 .34944663 .025060019 .31591798 .0076141359 .2823893-.009831746 .2454427-.018554688 .20507813-.018554688 .15657552-.018554688 .11694336-.0037790936 .08618164 .025772095 .055419923 .055323285 .040039064 .092300418 .040039064 .13670349 .040039064 .18535869 .05517578 .22307332 .08544922 .24984741 .115722659 .2766215 .1554362 .29311119 .20458985 .2993164L.34472657 .31689454M.27197267 .5361328V.5361328Z"/>
<path id="font_2_14" d="M.26611329 .53808596C.32503257 .53808596 .37296549 .5237274 .4099121 .49501039 .44685874 .46629334 .46907554 .41684977 .4765625 .3466797H.39111329C.38590495 .37890626 .37402345 .40568034 .35546876 .42700196 .33691407 .44832359 .3071289 .45898438 .26611329 .45898438 .2101237 .45898438 .17008464 .43170677 .1459961 .3771515 .1303711 .34176127 .122558597 .29808555 .122558597 .24612427 .122558597 .19384766 .1336263 .14984639 .15576172 .11412048 .17789714 .07840475 .21272786 .060546876 .2602539 .060546876 .29671226 .060546876 .3256022 .0716095 .34692384 .09373474 .36824546 .115859989 .38297526 .1461385 .39111329 .18457031H.4765625C.46679688 .115234378 .4423828 .06453451 .4033203 .032470704 .3642578 .00040690104 .31429038-.015625 .25341798-.015625 .1850586-.015625 .13053386 .009379069 .08984375 .059387208 .049153646 .10940552 .028808594 .17188008 .028808594 .24681092 .028808594 .33868919 .05110677 .41020204 .095703128 .4613495 .14029949 .51250717 .19710286 .53808596 .26611329 .53808596M.2524414 .5361328V.5361328Z"/>
<path id="font_4_1" d="M.50634768 .2939453 .46484376 .61083987 .28173829 .2939453H.50634768M.43701173 .71728518H.546875L.65478518 0H.54833987L.5209961 .21484375H.23730469L.11425781 0H.0146484379L.43701173 .71728518Z"/>
<path id="font_5_1" d="M0 0Z"/>
<path id="font_2_8" d="M.07373047 .71777346H.21289063L.4189453 .11091614 .62353518 .71777346H.76123049V0H.6689453V.42362977C.6689453 .43828837 .6692708 .46255494 .6699219 .49642945 .67057296 .53030398 .67089846 .56662496 .67089846 .60539248L.4663086 0H.3701172L.1640625 .60539248V.58340457C.1640625 .5658162 .1644694 .5390218 .1652832 .50302127 .166097 .46703086 .1665039 .44056703 .1665039 .42362977V0H.07373047V.71777346Z"/>
<path id="font_2_21" d="M.064453128 .5234375H.15136719V.44921876C.17220052 .4749349 .19108074 .49365235 .20800781 .5053711 .23697917 .52522787 .26985679 .53515627 .30664063 .53515627 .34830729 .53515627 .38183595 .52490237 .40722657 .50439456 .42154948 .49267579 .4345703 .4754232 .44628907 .45263673 .4658203 .4806315 .48876954 .5013835 .5151367 .5148926 .5415039 .5284017 .5711263 .53515627 .6040039 .53515627 .6743164 .53515627 .72216799 .5097402 .7475586 .45890809 .76123049 .43154399 .7680664 .3947296 .7680664 .34846498V0H.6767578V.36367799C.6767578 .39853923 .6680501 .42248536 .65063479 .43551637 .6332194 .44855754 .6119792 .45507813 .58691409 .45507813 .5524089 .45507813 .5227051 .44350688 .49780274 .42036439 .4729004 .39723207 .46044923 .35861717 .46044923 .30451966V0H.37109376V.3416748C.37109376 .37719728 .36686198 .4031016 .35839845 .41938783 .3450521 .4438324 .32014976 .4560547 .2836914 .4560547 .25048829 .4560547 .22029622 .44318138 .19311524 .4174347 .16593425 .3916982 .15234375 .34510295 .15234375 .27764894V0H.064453128V.5234375Z"/>
<path id="font_2_23" d="M.27197267 .057617189C.33024089 .057617189 .37019859 .07964579 .3918457 .123703 .41349284 .16776021 .4243164 .21677144 .4243164 .2707367 .4243164 .31950379 .4165039 .35917155 .4008789 .38974 .3761393 .43785606 .3334961 .46191407 .27294923 .46191407 .21923828 .46191407 .18017578 .44143168 .15576172 .40046693 .13134766 .35950218 .119140628 .31008403 .119140628 .25221253 .119140628 .1966095 .13134766 .15027364 .15576172 .113204959 .18017578 .076146449 .21891277 .057617189 .27197267 .057617189M.27539063 .53808596C.34277345 .53808596 .3997396 .5156453 .44628907 .47076417 .49283854 .42588298 .5161133 .35985819 .5161133 .27268983 .5161133 .1884613 .49560548 .11886088 .45458985 .06388855 .41357423 .008926392 .3499349-.018554688 .26367188-.018554688 .19173177-.018554688 .13460286 .00575765 .092285159 .054382326 .04996745 .103006999 .028808594 .16829936 .028808594 .2502594 .028808594 .33806864 .05110677 .4079895 .095703128 .46002198 .14029949 .51206466 .20019531 .53808596 .27539063 .53808596M.27246095 .5361328V.5361328Z"/>
<path id="font_2_3" d="M.2705078 .7001953C.3610026 .7001953 .42643229 .66289779 .46679688 .5883026 .49804688 .5306447 .5136719 .45165 .5136719 .35131837 .5136719 .25620524 .49951173 .17754109 .4711914 .11532593 .43017579 .026072184 .3631185-.018554688 .27001954-.018554688 .18603516-.018554688 .123535159 .017929078 .08251953 .09089661 .048339845 .15180969 .03125 .23357137 .03125 .33618165 .03125 .41565959 .041503908 .48390199 .06201172 .5409088 .10042318 .6470998 .16992188 .7001953 .2705078 .7001953M.26953126 .061523439C.31510417 .061523439 .35139976 .08168539 .37841798 .12200928 .4054362 .16234334 .4189453 .23747762 .4189453 .3474121 .4189453 .42676798 .4091797 .49205528 .38964845 .5432739 .3701172 .59450277 .332194 .6201172 .2758789 .6201172 .2241211 .6201172 .1862793 .59580489 .16235352 .5471802 .13842774 .4985555 .12646485 .42692057 .12646485 .3322754 .12646485 .26105754 .13411458 .20381673 .14941406 .16055298 .17285156 .09453329 .21289063 .061523439 .26953126 .061523439Z"/>
<path id="font_6_2" d="M.3623047 .49682618C.3623047 .46174113 .35001628 .43184916 .32543946 .40715028 .30086265 .38246156 .27148438 .3701172 .23730469 .3701172 .20279949 .3701172 .17333985 .38246156 .14892578 .40715028 .12451172 .43184916 .11230469 .46174113 .11230469 .49682618 .11230469 .5319112 .12451172 .56171676 .14892578 .5862427 .17333985 .6107788 .20279949 .6230469 .23730469 .6230469 .2718099 .6230469 .30126954 .6107788 .3256836 .5862427 .35009767 .56171676 .3623047 .5319112 .3623047 .49682618M.3330078 .49658204C.3330078 .5236003 .32364909 .5465495 .30493165 .5654297 .2862142 .5843099 .26367188 .59375 .23730469 .59375 .2109375 .59375 .18839519 .5843099 .16967774 .5654297 .15096028 .5465495 .14160156 .5236003 .14160156 .49658204 .14160156 .4695638 .15096028 .4466146 .16967774 .42773438 .18839519 .40885417 .2109375 .39941407 .23730469 .39941407 .26367188 .39941407 .2862142 .40885417 .30493165 .42773438 .32364909 .4466146 .3330078 .4695638 .3330078 .49658204M.4951172 .3564453 .115234378 .22949219C.110677089 .22819011 .10725912 .22753906 .10498047 .22753906 .10139974 .22753906 .098225917 .22896321 .095458988 .23181153 .092692058 .23467 .091308597 .23798116 .091308597 .241745 .091308597 .2448883 .092447917 .24803162 .09472656 .25117494 .096354167 .25306703 .100097659 .254954 .10595703 .25683595L.48583985 .38378907C.49039714 .38509117 .49397788 .3857422 .49658204 .3857422 .49983726 .3857422 .5028483 .38431297 .50561526 .38145448 .50838217 .37860618 .5097656 .37530009 .5097656 .37153626 .5097656 .36839295 .5086263 .36524964 .50634768 .36210633 .50472006 .36021424 .50097659 .35832725 .4951172 .3564453M.48876954 .11450195C.48876954 .07941691 .4764811 .049606325 .4519043 .02507019 .42732749 .00054423019 .39778648-.01171875 .36328126-.01171875 .32910157-.01171875 .2997233 .00062561038 .27514649 .025314331 .25056968 .050013227 .23828125 .07974243 .23828125 .11450195 .23828125 .14958699 .25048829 .17947388 .27490235 .2041626 .2993164 .2288615 .32877604 .24121094 .36328126 .24121094 .39778648 .24121094 .42732749 .2288615 .4519043 .2041626 .4764811 .17947388 .48876954 .14958699 .48876954 .11450195M.45898438 .114746097C.45898438 .14208985 .44962565 .16512044 .4309082 .18383789 .41219078 .20255535 .38964845 .21191406 .36328126 .21191406 .33691407 .21191406 .31437174 .20247396 .2956543 .18359375 .27693687 .16471355 .26757813 .14176433 .26757813 .114746097 .26757813 .08805338 .27693687 .06518555 .2956543 .046142579 .31437174 .02709961 .33691407 .017578125 .36328126 .017578125 .38964845 .017578125 .41219078 .027018229 .4309082 .045898439 .44962565 .06477865 .45898438 .08772787 .45898438 .114746097Z"/>
<path id="font_6_4" d="M.25097657 .42382813V.3200531C.30436198 .36812846 .34431968 .3990682 .3708496 .4128723 .39737956 .4266866 .421875 .43359376 .44433595 .43359376 .46875 .43359376 .49145509 .4253184 .5124512 .4087677 .53344729 .392217 .5439453 .37967936 .5439453 .3711548 .5439453 .3649292 .5419108 .3597819 .5378418 .3557129 .53377279 .3516439 .5286458 .34960938 .52246096 .34960938 .51920577 .34960938 .5164388 .35017906 .51416018 .35131837 .51188156 .35245768 .5076497 .3561605 .50146487 .36242677 .49007163 .3739624 .48014323 .38187156 .4716797 .38615418 .46321617 .3904368 .45491538 .39257813 .44677735 .39257813 .4288737 .39257813 .40730796 .38542176 .38208009 .371109 .3568522 .35679627 .31315104 .32182823 .25097657 .26620484V.041015626H.4326172C.44270835 .041015626 .44986979 .03914388 .45410157 .03540039 .45833335 .031656904 .46044923 .026692709 .46044923 .020507813 .46044923 .0146484379 .45833335 .009765625 .45410157 .005859375 .44986979 .001953125 .44270835 0 .4326172 0H.110839847C.10107422 0 .09407552 .0019175211 .08984375 .0057525637 .08561198 .0095876059 .083496097 .014506022 .083496097 .020507813 .083496097 .026041666 .0855306 .030680338 .08959961 .034423829 .09366862 .038167318 .100748699 .040039064 .110839847 .040039064H.20996094V.3828125H.13427735C.12451172 .3828125 .11751302 .38476563 .11328125 .38867188 .10904948 .39257813 .106933597 .3976237 .106933597 .4038086 .106933597 .40952555 .1089681 .41429139 .11303711 .41810609 .11710612 .42192079 .124186199 .42382813 .13427735 .42382813H.25097657Z"/>
<path id="font_6_3" d="M.41796876 0V.059570314C.35839845 .0094401049 .29475913-.015625 .22705078-.015625 .17789714-.015625 .13948567-.0031738282 .111816409 .021728516 .08414713 .04663086 .0703125 .07714844 .0703125 .11328125 .0703125 .1529948 .088541667 .18766277 .125 .21728516 .16145833 .24690755 .21468099 .26171876 .28466798 .26171876 .3035482 .26171876 .324056 .26049806 .3461914 .25805665 .3683268 .25561524 .3922526 .25179038 .41796876 .24658203V.31341554C.41796876 .33602906 .4075521 .35568748 .38671876 .37239076 .3658854 .38910423 .3346354 .39746095 .29296876 .39746095 .26106773 .39746095 .2163086 .38804627 .1586914 .36921693 .14827474 .36591087 .14160156 .3642578 .13867188 .3642578 .13346355 .3642578 .12898763 .36621095 .12524414 .3701172 .12150065 .37402345 .119628909 .37890626 .119628909 .38476563 .119628909 .39029948 .12125651 .394694 .12451172 .39794923 .12906902 .40283204 .14746094 .40950523 .1796875 .41796876 .23046875 .43164063 .26888023 .43847657 .29492188 .43847657 .3466797 .43847657 .38704429 .42566935 .41601563 .40005494 .44498698 .37444053 .45947267 .34547935 .45947267 .3131714V.041015626H.51416018C.5242513 .041015626 .5314128 .03914388 .53564456 .03540039 .5398763 .031656904 .5419922 .026692709 .5419922 .020507813 .5419922 .0146484379 .5398763 .009765625 .53564456 .005859375 .5314128 .001953125 .5242513 0 .51416018 0H.41796876M.41796876 .20458985C.39876304 .2101237 .37841798 .2141927 .3569336 .21679688 .33544923 .21940105 .31282554 .22070313 .2890625 .22070313 .22949219 .22070313 .1829427 .20784505 .14941406 .1821289 .12402344 .16292317 .111328128 .13997396 .111328128 .11328125 .111328128 .088541667 .12101237 .067708339 .14038086 .05078125 .15974935 .033854169 .18798828 .025390625 .22509766 .025390625 .26057945 .025390625 .29353843 .032470704 .3239746 .04663086 .3544108 .060791017 .3857422 .083333339 .41796876 .11425781V.20458985Z"/>
<path id="font_6_5" d="M.32885743 .22181702 .5161133 .041015626C.5284831 .041015626 .5362956 .040445966 .5395508 .03930664 .54280599 .038167318 .5456543 .035807294 .5480957 .032226564 .5505371 .028645834 .5517578 .024739584 .5517578 .020507813 .5517578 .0146484379 .5496419 .009765625 .54541018 .005859375 .5411784 .001953125 .5340169 0 .5239258 0H.39208985C.3819987 0 .37483726 .001953125 .37060548 .005859375 .3663737 .009765625 .3642578 .0146484379 .3642578 .020507813 .3642578 .026692709 .3663737 .031656904 .37060548 .03540039 .37483726 .03914388 .3819987 .041015626 .39208985 .041015626H.45996095L.30067445 .19459534 .14160156 .041015626H.20996094C.21972656 .041015626 .22672527 .03914388 .23095703 .03540039 .2351888 .031656904 .23730469 .026692709 .23730469 .020507813 .23730469 .0146484379 .2351888 .009765625 .23095703 .005859375 .22672527 .001953125 .21972656 0 .20996094 0H.076660159C.06689453 0 .059895833 .001953125 .055664064 .005859375 .051432294 .009765625 .049316408 .0146484379 .049316408 .020507813 .049316408 .024739584 .05053711 .028645834 .052978517 .032226564 .055419923 .035807294 .058186849 .038167318 .061279298 .03930664 .06437174 .040445966 .07210287 .041015626 .084472659 .041015626L.27233888 .22190857 .10546875 .3828125C.09375 .3828125 .0863444 .38345338 .08325195 .3847351 .08015951 .386027 .07739258 .388443 .07495117 .39198304 .072509769 .39552308 .07128906 .39938355 .07128906 .40356446 .07128906 .40935264 .073404949 .4141744 .07763672 .4180298 .08186849 .42189536 .089029949 .42382813 .099121097 .42382813H.2109375C.22102864 .42382813 .22810872 .42189536 .23217774 .4180298 .23624675 .4141744 .23828125 .40918986 .23828125 .40307618 .23828125 .397288 .23624675 .39246116 .23217774 .38859559 .22810872 .3847402 .22102864 .3828125 .2109375 .3828125H.16210938L.3005829 .24909973 .43945313 .3828125H.390625C.38085938 .3828125 .3737793 .3847402 .36938478 .38859559 .36499024 .39246116 .36279298 .39745078 .36279298 .40356446 .36279298 .40935264 .36490885 .4141744 .36914063 .4180298 .3733724 .42189536 .38053385 .42382813 .390625 .42382813H.5024414C.51220706 .42382813 .51920577 .42189536 .5234375 .4180298 .52766928 .4141744 .52978518 .40918986 .52978518 .40307618 .52978518 .3992208 .52856448 .39552308 .52612307 .39198304 .52368167 .388443 .52091476 .386027 .51782229 .3847351 .5147298 .38345338 .5073242 .3828125 .49560548 .3828125L.32885743 .22181702Z"/>
<path id="font_6_1" d="M0 0Z"/>
<path id="font_2_6" d="M.09814453 .71777346H.19628906V0H.09814453V.71777346Z"/>
<path id="font_2_2" d="M.22753906 .71777346H.3017578L.07421875 0H0L.22753906 .71777346Z"/>
<path id="font_2_9" d="M.3857422 .7373047C.5123698 .7373047 .6061198 .6965637 .6669922 .6150818 .71451827 .55152389 .73828127 .47019959 .73828127 .371109 .73828127 .2638804 .7111003 .17473857 .6567383 .10368347 .5929362 .020238242 .5019531-.021484375 .38378907-.021484375 .2734375-.021484375 .1866862 .015019734 .123535159 .088027957 .067220058 .158432 .0390625 .24741619 .0390625 .35498048 .0390625 .45210777 .06315104 .53522238 .111328128 .60432437 .17317708 .6929779 .26464845 .7373047 .3857422 .7373047M.3955078 .06542969C.48111979 .06542969 .5430501 .09613546 .5812988 .157547 .61954757 .21895854 .6386719 .2895762 .6386719 .36940003 .6386719 .45378114 .61661788 .5217082 .57250979 .57318118 .5284017 .6246541 .46809898 .6503906 .39160157 .6503906 .3173828 .6503906 .25683595 .62489828 .20996094 .5739136 .16308594 .5229289 .13964844 .4477488 .13964844 .3483734 .13964844 .26888529 .15974935 .20185344 .19995117 .14727783 .240153 .0927124 .30533854 .06542969 .3955078 .06542969M.38867188 .7373047V.7373047Z"/>
<path id="font_2_13" d="M.057617189 .71875H.1430664V.45948792C.16227214 .4847056 .18522136 .50394698 .21191406 .5172119 .23860677 .53047689 .26757813 .5371094 .29882813 .5371094 .36393229 .5371094 .41674806 .5147095 .4572754 .46990968 .49780274 .42510987 .5180664 .35905458 .5180664 .27174378 .5180664 .1889801 .49804688 .12022909 .4580078 .06549072 .41796876 .010762532 .36246745-.016601563 .2915039-.016601563 .25179038-.016601563 .21826172-.006942749 .19091797 .012374878 .17464192 .023839316 .15722656 .042175294 .13867188 .06738281V0H.057617189V.71875M.2861328 .061523439C.33365885 .061523439 .36922203 .08037821 .39282228 .11808777 .41642253 .1558075 .42822267 .20555115 .42822267 .26731874 .42822267 .32227073 .41642253 .3677877 .39282228 .40386964 .36922203 .43996177 .33447267 .4580078 .28857423 .4580078 .24853516 .4580078 .21346028 .44321189 .18334961 .41362 .15323894 .3840383 .1381836 .3352712 .1381836 .26731874 .1381836 .21822612 .14436849 .17840068 .15673828 .1478424 .17985027 .090296428 .22298177 .061523439 .2861328 .061523439Z"/>
<path id="font_2_15" d="M.12011719 .2553711C.12011719 .19923909 .1319987 .15224712 .15576172 .11439514 .17952474 .076543178 .21761067 .057617189 .27001954 .057617189 .31070964 .057617189 .3441569 .075154628 .37036134 .11022949 .39656578 .14531453 .40966798 .19565328 .40966798 .26124574 .40966798 .32748924 .39615885 .37651573 .36914063 .4083252 .3421224 .44014488 .3087565 .4560547 .26904298 .4560547 .22477214 .4560547 .18888347 .4390869 .16137696 .40515138 .13387044 .37121583 .12011719 .32128907 .12011719 .2553711M.2524414 .53222659C.29248048 .53222659 .32600913 .52381899 .35302735 .5070038 .36865235 .4972992 .38639323 .48031617 .40625 .4560547V.71875H.49072267V0H.4116211V.07229614C.39111329 .04023234 .36686198 .017074585 .3388672 .002822876 .3108724-.011428833 .2788086-.018554688 .24267578-.018554688 .18440755-.018554688 .13395183 .0059407555 .091308597 .05493164 .048665365 .10392252 .02734375 .16910808 .02734375 .25048829 .02734375 .32666017 .04679362 .39265953 .08569336 .44848634 .1245931 .5043132 .18017578 .53222659 .2524414 .53222659Z"/>
</defs>
<g clip-path="url(#clip_0)">
<g clip-path="url(#clip_1)">
<path transform="matrix(1,0,0,-1,0,540)" d="M0 539.9999H719.9999V.00003079383H0Z" fill="#ffffff" fill-rule="evenodd"/>
<path transform="matrix(.00007874014,0,0,.00007874014,342.375,121.25009)" stroke-width="12700" stroke-linecap="butt" stroke-miterlimit="8" stroke-linejoin="miter" fill="none" stroke="#000000" d="M.1687012 266700 298448.3-.04272449V133350H1193802V-.04272449L1492250 266700 1193802 533400.1V400050H298448.3V533400.1Z"/>
<path transform="matrix(.00007874014,0,0,.00007874014,270.375,123.75)" stroke-width="12700" stroke-linecap="butt" stroke-miterlimit="8" stroke-linejoin="miter" fill="none" stroke="#000000" d="M.02807617 .07458502H909636.9V577850.2H.02807617Z"/>
<path transform="matrix(.00007874014,0,0,.00007874014,155.625,121.25009)" stroke-width="12700" stroke-linecap="butt" stroke-miterlimit="8" stroke-linejoin="miter" fill="none" stroke="#000000" d="M-.002258271 266700 290511-.04272449V133350H1162051V-.04272449L1452562 266700 1162051 533400.1V400050H290511V533400.1Z"/>
<path transform="matrix(.00007874014,0,0,.00007874014,78.12503,19.250123)" stroke-width="12700" stroke-linecap="butt" stroke-miterlimit="8" stroke-linejoin="miter" fill="none" stroke="#000000" d="M-.02233881 .2580568H684212V152400.3H-.02233881Z"/>
<path transform="matrix(.00007874014,0,0,.00007874014,78.12503,31.250092)" stroke-width="12700" stroke-linecap="butt" stroke-miterlimit="8" stroke-linejoin="miter" fill="none" stroke="#000000" d="M-.02233881 .2814943H684212V152400.3H-.02233881Z"/>
<path transform="matrix(.00007874014,0,0,.00007874014,78.12503,43.25009)" stroke-width="12700" stroke-linecap="butt" stroke-miterlimit="8" stroke-linejoin="miter" fill="none" stroke="#000000" d="M-.02233881 .3049318H684212V152400.3H-.02233881Z"/>
<path transform="matrix(.00007874014,0,0,.00007874014,78.12503,55.25009)" stroke-width="12700" stroke-linecap="butt" stroke-miterlimit="8" stroke-linejoin="miter" fill="none" stroke="#000000" d="M-.02233881 .3283693H684212V152400.4H-.02233881Z"/>
<use data-text="y" xlink:href="#font_2_28" transform="matrix(14,0,0,-14,101.325,66.8501)"/>
<use data-text="&#xfffd;" xlink:href="#font_3_1" transform="matrix(10,0,0,-10,108.325,66.8501)"/>
<path transform="matrix(.00007874014,0,0,.00007874014,78.12503,67.25009)" stroke-width="12700" stroke-linecap="butt" stroke-miterlimit="8" stroke-linejoin="miter" fill="none" stroke="#000000" d="M-.02233881-.1481932H684212V152399.9H-.02233881Z"/>
<path transform="matrix(.00007874014,0,0,.00007874014,139,19.250123)" stroke-width="12700" stroke-linecap="butt" stroke-miterlimit="8" stroke-linejoin="miter" fill="none" stroke="#000000" d="M-.04730228 95250.27H333374V.2580568L444500 190500.3 333374 381000.3V285750.3H-.04730228Z"/>
<path transform="matrix(-.00007874014,-0,0,.00007874014,167,49.25009)" stroke-width="12700" stroke-linecap="butt" stroke-miterlimit="8" stroke-linejoin="miter" fill="none" stroke="#000000" d="M.06140143 95250.33H333374.2V.3166505L444500.1 190500.3 333374.2 381000.4V285750.4H.06140143Z"/>
<path transform="matrix(.00007874014,0,0,.00007874014,174,7.250122)" stroke-width="12700" stroke-linecap="butt" stroke-miterlimit="8" stroke-linejoin="miter" fill="none" stroke="#000000" d="M-.1039429 .2346193H533400V1066800H-.1039429Z"/>
<use data-text="A" xlink:href="#font_2_4" transform="matrix(16,0,0,-16,179.2,55.650087)"/>
<use data-text="L" xlink:href="#font_2_7" transform="matrix(16,0,0,-16,189.872,55.650087)"/>
<use data-text="U" xlink:href="#font_2_11" transform="matrix(16,0,0,-16,198.7712,55.650087)"/>
<use data-text="&#xfffd;" xlink:href="#font_3_1" transform="matrix(16,0,0,-16,210.3264,55.650087)"/>
<use data-text="R" xlink:href="#font_2_10" transform="matrix(16,0,0,-16,64.19999,13.650085)"/>
<use data-text="e" xlink:href="#font_2_16" transform="matrix(16,0,0,-16,75.75519,13.650085)"/>
<use data-text="g" xlink:href="#font_2_18" transform="matrix(16,0,0,-16,84.65439,13.650085)"/>
<use data-text="i" xlink:href="#font_2_19" transform="matrix(16,0,0,-16,93.55359,13.650085)"/>
<use data-text="s" xlink:href="#font_2_25" transform="matrix(16,0,0,-16,97.108798,13.650085)"/>
<use data-text="t" xlink:href="#font_2_26" transform="matrix(16,0,0,-16,105.108798,13.650085)"/>
<use data-text="e" xlink:href="#font_2_16" transform="matrix(16,0,0,-16,109.5536,13.650085)"/>
<use data-text="r" xlink:href="#font_2_24" transform="matrix(16,0,0,-16,118.4528,13.650085)"/>
<use data-text=" " xlink:href="#font_2_1" transform="matrix(16,0,0,-16,123.78079,13.650085)"/>
<use data-text="&#xfb01;" xlink:href="#font_2_29" transform="matrix(16,0,0,-16,128.2256,13.650085)"/>
<use data-text="l" xlink:href="#font_2_20" transform="matrix(16,0,0,-16,136.2256,13.650085)"/>
<use data-text="e" xlink:href="#font_2_16" transform="matrix(16,0,0,-16,139.78079,13.650085)"/>
<use data-text="&#xfffd;" xlink:href="#font_3_1" transform="matrix(16,0,0,-16,148.68,13.650085)"/>
<path transform="matrix(.00007874014,0,0,.00007874014,83.99998,85.25009)" stroke-width="12700" stroke-linecap="butt" stroke-miterlimit="8" stroke-linejoin="miter" fill="none" stroke="#000000" d="M-.02972415 91440.05 304799.9-.113037 609599.9 91440.05H457199.9V365759.8H609599.9L304799.9 457200-.02972415 365759.8H152400V91440.05Z"/>
<path transform="matrix(.00007874014,0,0,.00007874014,150,139.25)" stroke-width="76200" stroke-linecap="butt" stroke-linejoin="round" fill="none" stroke="#000000" d="M-.0258179 .1048585H3886200"/>
<path transform="matrix(1,0,0,-1,0,540)" d="M444 409.75 462 400.75 444 391.75Z" fill-rule="evenodd"/>
<path transform="matrix(1,0,0,-1,0,540)" d="M6 416.25H153.5V370.75H6Z" fill="#ffffff" fill-rule="evenodd"/>
<path transform="matrix(.00007874014,0,0,.00007874014,6,123.75)" stroke-width="12700" stroke-linecap="butt" stroke-miterlimit="8" stroke-linejoin="miter" fill="none" stroke="#000000" d="M-.002149583 .07458502H1873250V577850.2H-.002149583Z"/>
<use data-text="B" xlink:href="#font_2_5" transform="matrix(16,0,0,-16,33.2,152.9)"/>
<use data-text="u" xlink:href="#font_2_27" transform="matrix(16,0,0,-16,43.872,152.9)"/>
<use data-text="s" xlink:href="#font_2_25" transform="matrix(16,0,0,-16,52.771203,152.9)"/>
<use data-text=" " xlink:href="#font_2_1" transform="matrix(16,0,0,-16,60.771203,152.9)"/>
<use data-text="i" xlink:href="#font_2_19" transform="matrix(16,0,0,-16,65.216,152.9)"/>
<use data-text="n" xlink:href="#font_2_22" transform="matrix(16,0,0,-16,68.77121,152.9)"/>
<use data-text="t" xlink:href="#font_2_26" transform="matrix(16,0,0,-16,77.67041,152.9)"/>
<use data-text="e" xlink:href="#font_2_16" transform="matrix(16,0,0,-16,82.115207,152.9)"/>
<use data-text="r" xlink:href="#font_2_24" transform="matrix(16,0,0,-16,91.014408,152.9)"/>
<use data-text="f" xlink:href="#font_2_17" transform="matrix(16,0,0,-16,96.34241,152.9)"/>
<use data-text="a" xlink:href="#font_2_12" transform="matrix(16,0,0,-16,100.78722,152.9)"/>
<use data-text="c" xlink:href="#font_2_14" transform="matrix(16,0,0,-16,109.68642,152.9)"/>
<use data-text="e" xlink:href="#font_2_16" transform="matrix(16,0,0,-16,117.68642,152.9)"/>
<use data-text="&#xfffd;" xlink:href="#font_3_1" transform="matrix(16,0,0,-16,126.58562,152.9)"/>
<use data-text="A" xlink:href="#font_4_1" transform="matrix(16,0,0,-16,389.7,128.90009)"/>
<use data-text="&#xfffd;" xlink:href="#font_5_1" transform="matrix(16,0,0,-16,400.372,128.90009)"/>
<path transform="matrix(.00007874014,0,0,.00007874014,462.375,109.25009)" stroke-width="12700" stroke-linecap="butt" stroke-miterlimit="8" stroke-linejoin="miter" fill="none" stroke="#000000" d="M.01550287-.06616199H909637.2V914400.1H.01550287Z"/>
<path transform="matrix(.00007874014,0,0,.00007874014,461.9999,146.5)" stroke-width="12700" stroke-linecap="butt" stroke-miterlimit="8" stroke-linejoin="miter" fill="none" stroke="#000000" d="M.1271971 .1190186H914400.2V152400.1H.1271971Z"/>
<use data-text="M" xlink:href="#font_2_8" transform="matrix(16,0,0,-16,453.6999,97.650089)"/>
<use data-text="a" xlink:href="#font_2_12" transform="matrix(16,0,0,-16,467.0279,97.650089)"/>
<use data-text="i" xlink:href="#font_2_19" transform="matrix(16,0,0,-16,475.9271,97.650089)"/>
<use data-text="n" xlink:href="#font_2_22" transform="matrix(16,0,0,-16,479.4823,97.650089)"/>
<use data-text=" " xlink:href="#font_2_1" transform="matrix(16,0,0,-16,488.3815,97.650089)"/>
<use data-text="m" xlink:href="#font_2_21" transform="matrix(16,0,0,-16,492.8263,97.650089)"/>
<use data-text="e" xlink:href="#font_2_16" transform="matrix(16,0,0,-16,506.1543,97.650089)"/>
<use data-text="m" xlink:href="#font_2_21" transform="matrix(16,0,0,-16,515.05349,97.650089)"/>
<use data-text="o" xlink:href="#font_2_23" transform="matrix(16,0,0,-16,528.3815,97.650089)"/>
<use data-text="r" xlink:href="#font_2_24" transform="matrix(16,0,0,-16,537.2807,97.650089)"/>
<use data-text="y" xlink:href="#font_2_28" transform="matrix(16,0,0,-16,542.6087,97.650089)"/>
<use data-text="&#xfffd;" xlink:href="#font_3_1" transform="matrix(16,0,0,-16,550.6087,97.650089)"/>
<use data-text="0" xlink:href="#font_2_3" transform="matrix(10,0,0,-10,538.575,116.75009)"/>
<use data-text="&#xfffd;" xlink:href="#font_3_1" transform="matrix(10,0,0,-10,544.137,116.75009)"/>
<use data-text="A" xlink:href="#font_2_4" transform="matrix(10,0,0,-10,538.075,156.37509)"/>
<use data-text="&#xfffd;" xlink:href="#font_3_1" transform="matrix(10,0,0,-10,544.745,156.37509)"/>
<use data-text="%" xlink:href="#font_6_2" transform="matrix(16,0,0,-16,31.28905,65.150089)"/>
<use data-text="r" xlink:href="#font_6_4" transform="matrix(16,0,0,-16,40.89061,65.150089)"/>
<use data-text="a" xlink:href="#font_6_3" transform="matrix(16,0,0,-16,50.49221,65.150089)"/>
<use data-text="x" xlink:href="#font_6_5" transform="matrix(16,0,0,-16,60.09381,65.150089)"/>
<use data-text=" " xlink:href="#font_6_1" transform="matrix(16,0,0,-16,69.6953,65.150089)"/>
<use data-text="I" xlink:href="#font_2_6" transform="matrix(16,0,0,-16,271.2,120.400089)"/>
<use data-text="/" xlink:href="#font_2_2" transform="matrix(16,0,0,-16,275.6448,120.400089)"/>
<use data-text="O" xlink:href="#font_2_9" transform="matrix(16,0,0,-16,280.0896,120.400089)"/>
<use data-text=" " xlink:href="#font_2_1" transform="matrix(16,0,0,-16,292.53443,120.400089)"/>
<use data-text="b" xlink:href="#font_2_13" transform="matrix(16,0,0,-16,296.97923,120.400089)"/>
<use data-text="r" xlink:href="#font_2_24" transform="matrix(16,0,0,-16,305.87843,120.400089)"/>
<use data-text="i" xlink:href="#font_2_19" transform="matrix(16,0,0,-16,311.20643,120.400089)"/>
<use data-text="d" xlink:href="#font_2_15" transform="matrix(16,0,0,-16,314.76164,120.400089)"/>
<use data-text="g" xlink:href="#font_2_18" transform="matrix(16,0,0,-16,323.66084,120.400089)"/>
<use data-text="e" xlink:href="#font_2_16" transform="matrix(16,0,0,-16,332.56004,120.400089)"/>
<use data-text="&#xfffd;" xlink:href="#font_3_1" transform="matrix(16,0,0,-16,341.45924,120.400089)"/>
</g>
</g>
</svg>
