<svg xmlns="http://www.w3.org/2000/svg" xmlns:xlink="http://www.w3.org/1999/xlink" version="1.1" width="607.1316pt" height="208.604pt" viewBox="0 0 607.1316 208.604">
<defs>
<clipPath id="clip_0">
<path transform="matrix(1,0,0,-1,-.778381,540)" d="M.778381 331.396H607.91V540H.778381Z" fill-rule="evenodd"/>
</clipPath>
<clipPath id="clip_1">
<path transform="matrix(1,0,0,-1,-.778381,540)" d="M0 .00002324581H719.9999V540H0Z"/>
</clipPath>
<path id="font_2_2" d="M.09082031 0V.10058594H.19091797V0H.09082031Z"/>
<path id="font_2_1" d="M0 0Z"/>
<path id="font_2_3" d="M.044921876 .23046875 .13427735 .23828125C.13850911 .20247396 .14835613 .1730957 .16381836 .15014649 .1792806 .12719727 .20328777 .10864258 .23583985 .09448242 .26839195 .080322269 .30501304 .07324219 .34570313 .07324219 .38183595 .07324219 .41373698 .07861328 .44140626 .08935547 .46907554 .100097659 .4896647 .11482748 .5031738 .13354492 .5166829 .15226238 .5234375 .17263794 .5234375 .19467163 .5234375 .21703084 .51692709 .23655193 .50390627 .25323487 .4908854 .26992799 .46940104 .28396098 .43945313 .29533387 .4202474 .3028005 .37776695 .31440736 .31201173 .33015443 .24625652 .3459015 .20019531 .36078898 .17382813 .3748169 .13964844 .39275108 .11417643 .41500855 .09741211 .44158937 .08064779 .46817018 .072265628 .4979299 .072265628 .53086856 .072265628 .5670726 .08251953 .60091146 .103027347 .63238528 .123535159 .66385909 .15348308 .6877492 .1928711 .7040558 .23225911 .72036239 .27604167 .7285156 .32421876 .7285156 .37727867 .7285156 .42407228 .7199707 .4645996 .70288088 .50512698 .685791 .5362956 .66064456 .55810549 .6274414 .57991537 .5942383 .5916341 .5566406 .5932617 .51464846L.5024414 .5078125C.4975586 .5525818 .48103843 .58639529 .45288087 .6092529 .4247233 .6321208 .38313804 .6435547 .328125 .6435547 .27083335 .6435547 .22908528 .6330821 .20288086 .61213687 .17667644 .5912018 .16357422 .5659587 .16357422 .5364075 .16357422 .5107625 .17285156 .48965965 .19140625 .47309876 .20963542 .45653788 .25724284 .4395701 .33422853 .42219544 .4112142 .40483094 .46402995 .38965354 .49267579 .3766632 .53434249 .357488 .5651042 .33320109 .58496096 .3038025 .6048177 .2744039 .6147461 .24053955 .6147461 .20220948 .6147461 .16419475 .6038411 .12837728 .58203127 .09475708 .5602214 .061136884 .52888998 .03498332 .4880371 .016296387 .44718424-.002380371 .40120445-.01171875 .35009767-.01171875 .285319-.01171875 .2310384-.0022786458 .18725586 .016601563 .14347331 .03548177 .10913086 .06388346 .084228519 .10180664 .059326173 .13972982 .046223958 .18261719 .044921876 .23046875Z"/>
<path id="font_2_16" d="M.2578125 .07861328 .2705078 .0009765625C.24576824-.004231771 .22363281-.0068359377 .20410156-.0068359377 .17220052-.0068359377 .14746094-.0017903646 .12988281 .008300781 .11230469 .018391928 .0999349 .031656904 .09277344 .048095704 .08561198 .06453451 .08203125 .099121097 .08203125 .15185547V.4501953H.017578125V.5185547H.08203125V.64697268L.1694336 .69970706V.5185547H.2578125V.4501953H.1694336V.14697266C.1694336 .121907558 .17097982 .10579427 .17407227 .09863281 .17716472 .09147135 .18221028 .08577474 .18920899 .08154297 .19620769 .077311199 .20621746 .07519531 .21923828 .07519531 .2290039 .07519531 .24186199 .07633463 .2578125 .07861328Z"/>
<path id="font_2_5" d="M.40429688 .06542969C.37174479 .03722127 .34041343 .017308554 .31030274 .0056915285 .28019206-.0059153239 .24788411-.01171875 .2133789-.01171875 .15641277-.01171875 .11263021 .0021972657 .08203125 .030029297 .051432294 .057861329 .036132814 .09342448 .036132814 .13671875 .036132814 .16210938 .04191081 .18530274 .053466798 .20629883 .06502279 .22729492 .08015951 .24414063 .09887695 .25683595 .1175944 .26953126 .13867188 .27913413 .16210938 .28564454 .17936199 .2902018 .20540364 .29459635 .24023438 .29882813 .3111979 .30729167 .363444 .3173828 .39697267 .32910157 .3972982 .34109498 .39746095 .3487142 .39746095 .35195924 .39746095 .38763429 .38916017 .4127655 .3725586 .4273529 .35009767 .44713847 .31673179 .45703126 .27246095 .45703126 .2311198 .45703126 .20060222 .44978843 .1809082 .43530274 .16121419 .42081706 .14664714 .39518229 .13720703 .35839845L.05126953 .3701172C.05908203 .40701295 .0719401 .43680827 .08984375 .45950318 .1077474 .4821981 .1336263 .4996643 .16748047 .51190188 .20133464 .5241496 .24055989 .53027346 .28515626 .53027346 .3294271 .53027346 .36539714 .52504476 .3930664 .5145874 .4207357 .5041402 .44108073 .49099223 .45410157 .47514344 .4671224 .4593048 .47623698 .43929545 .4814453 .41511537 .484375 .40009056 .48583985 .3731028 .48583985 .33415223V.21730042C.48583985 .13582866 .48771159 .084228519 .49145509 .0625 .49519859 .040771486 .5026042 .01993815 .5136719 0H.421875C.4127604 .01864624 .40690104 .040456136 .40429688 .06542969M.39697267 .25976563C.36507163 .24680583 .31722007 .23578899 .25341798 .22671509 .21728516 .22153728 .19173177 .21570842 .17675781 .20922852 .16178386 .20274861 .15022786 .1932729 .14208985 .18080139 .13395183 .16832988 .12988281 .15447998 .12988281 .13925171 .12988281 .11592611 .13875325 .09648641 .15649414 .08093262 .17423503 .065389 .20019531 .057617189 .234375 .057617189 .26822917 .057617189 .29833985 .06499735 .32470704 .07975769 .35107423 .0945282 .37044273 .114705409 .3828125 .1402893 .3922526 .16003418 .39697267 .18917339 .39697267 .22770691V.25976563Z"/>
<path id="font_2_6" d="M.14697266 0H.06542969V.7158203H.15332031V.46044923C.19042969 .5069987 .23779297 .53027346 .29541017 .53027346 .3273112 .53027346 .35750328 .5238444 .38598634 .5109863 .4144694 .49812828 .4379069 .48006187 .45629884 .4567871 .47469078 .43351237 .48909507 .4054362 .49951173 .3725586 .5099284 .339681 .5151367 .30452476 .5151367 .26708985 .5151367 .17822266 .49316407 .10953776 .44921876 .061035158 .40527345 .012532552 .35253907-.01171875 .29101563-.01171875 .2298177-.01171875 .18180339 .013834636 .14697266 .064941409V0M.1459961 .2631836C.1459961 .20100911 .15445964 .15608724 .17138672 .12841797 .19905599 .08317057 .23649089 .060546876 .2836914 .060546876 .32210288 .060546876 .355306 .07722982 .38330079 .1105957 .41129557 .1439616 .42529298 .19368489 .42529298 .25976563 .42529298 .32747398 .41186524 .3774414 .38500978 .40966798 .3581543 .44189454 .3256836 .4580078 .28759767 .4580078 .2491862 .4580078 .21598308 .44132487 .18798828 .40795899 .15999349 .3745931 .1459961 .32633464 .1459961 .2631836Z"/>
<path id="font_2_12" d="M.063964847 0V.7158203H.15185547V0H.063964847Z"/>
<path id="font_2_7" d="M.42089845 .16796875 .51171877 .15625C.49739585 .103037517 .47086589 .06173706 .4321289 .032348634 .39339195 .0029703777 .34391276-.01171875 .2836914-.01171875 .20784505-.01171875 .14770508 .01163737 .103271488 .05834961 .05883789 .10506185 .036621095 .17057292 .036621095 .2548828 .036621095 .3421224 .05908203 .40983073 .104003909 .4580078 .14892578 .5061849 .20719402 .53027346 .2788086 .53027346 .34814454 .53027346 .40478517 .5067088 .44873048 .45957948 .49267579 .41246034 .51464846 .34616599 .51464846 .2606964 .51464846 .25549827 .51448568 .247701 .51416018 .23730469H.1274414C.13069661 .18017578 .14680989 .13643392 .17578125 .1060791 .20475261 .07572428 .24088542 .060546876 .2841797 .060546876 .31640626 .060546876 .34391276 .06908671 .36669923 .08616638 .3894857 .103256229 .4075521 .13052368 .42089845 .16796875M.13232422 .3095703H.421875C.41796876 .3530477 .40690104 .38565574 .38867188 .4073944 .3606771 .4411367 .3243815 .4580078 .27978517 .4580078 .23942058 .4580078 .20548503 .4445394 .17797852 .41760255 .150472 .39067588 .1352539 .35466514 .13232422 .3095703Z"/>
<path id="font_2_8" d="M.08691406 0V.4501953H.009277344V.5185547H.08691406V.5736084C.08691406 .6083577 .09000651 .6341756 .096191409 .651062 .104654949 .6737874 .11954752 .69221499 .14086914 .7063446 .16219075 .72047427 .1920573 .72753909 .23046875 .72753909 .25520835 .72753909 .2825521 .7245941 .3125 .7187042L.2993164 .6416321C.28108726 .64486697 .26383464 .6464844 .2475586 .6464844 .22086589 .6464844 .20198567 .64082846 .19091797 .6295166 .17985027 .6182149 .1743164 .5970561 .1743164 .56604006V.5185547H.27539063V.4501953H.1743164V0H.08691406Z"/>
<path id="font_2_14" d="M.064941409 0V.5185547H.14404297V.4399414C.16422527 .47672526 .18286133 .50097659 .19995117 .5126953 .21704102 .52441409 .23583985 .53027346 .25634767 .53027346 .28597007 .53027346 .31608073 .5208333 .3466797 .5019531L.31640626 .4204712C.29492188 .43312583 .2734375 .43945313 .25195313 .43945313 .23274739 .43945313 .2154948 .43367515 .20019531 .42211915 .18489583 .41056315 .17399089 .39453126 .16748047 .37402345 .15771485 .34277345 .15283203 .30859376 .15283203 .27148438V0H.064941409Z"/>
<path id="font_2_11" d="M.06640625 .6152344V.7158203H.15429688V.6152344H.06640625M.06640625 0V.5185547H.15429688V0H.06640625Z"/>
<path id="font_2_9" d="M.049804689-.04296875 .1352539-.0546875C.13883464-.08137003 .14876302-.10080465 .16503906-.11299133 .18684896-.12946065 .21663411-.13769531 .25439454-.13769531 .29508464-.13769531 .3264974-.12953694 .3486328-.113220218 .37076823-.09690348 .3857422-.07406616 .3935547-.044708253 .39811198-.026753745 .40022788 .010935466 .39990235 .068359378 .36149089 .022786459 .3136393 0 .25634767 0 .1850586 0 .12988281 .025716147 .09082031 .07714844 .051757814 .12858074 .032226564 .19026692 .032226564 .26220704 .032226564 .3116862 .041178388 .35734049 .05908203 .39916993 .07698568 .44099937 .10294596 .47330729 .13696289 .49609376 .17097982 .5188802 .2109375 .53027346 .25683595 .53027346 .31803385 .53027346 .3684896 .5052083 .40820313 .45507813V.5185547H.4892578V.070007327C.4892578-.010772705 .48103843-.06801859 .4645996-.10173035 .4481608-.1354421 .42211915-.16206868 .3864746-.1816101 .35083009-.2011617 .30696617-.2109375 .2548828-.2109375 .19303386-.2109375 .1430664-.19698079 .10498047-.16906739 .06689453-.14115398 .048502607-.099121097 .049804689-.04296875M.122558597 .26853944C.122558597 .20067851 .1360677 .15116374 .16308594 .11999512 .19010417 .0888265 .22395833 .07324219 .26464845 .07324219 .30501304 .07324219 .3388672 .08874512 .36621095 .11975098 .3935547 .15075684 .40722657 .19938152 .40722657 .265625 .40722657 .3289388 .3931478 .3766683 .36499024 .40881349 .33683268 .44095866 .30289714 .45703126 .2631836 .45703126 .2241211 .45703126 .19091797 .4412028 .16357422 .4095459 .13623047 .377889 .122558597 .33088685 .122558597 .26853944Z"/>
<path id="font_2_10" d="M.06591797 0V.7158203H.1538086V.4585266C.19482422 .50635787 .24658203 .53027346 .30908204 .53027346 .3474935 .53027346 .38085938 .5227051 .4091797 .50756838 .4375 .49243165 .45776368 .47151695 .4699707 .44482423 .48217774 .4181315 .48828126 .37939454 .48828126 .32861329V0H.40039063V.32826234C.40039063 .37215678 .39086915 .4041036 .37182618 .42410279 .3527832 .44410197 .32584635 .45410157 .29101563 .45410157 .26497398 .45410157 .24047852 .44735209 .2175293 .43385316 .19458008 .42036439 .17822266 .4020742 .16845703 .37898255 .1586914 .3559011 .1538086 .32403565 .1538086 .28338624V0H.06591797Z"/>
<path id="font_2_4" d="M.546875 .7158203H.64160159V.30252076C.64160159 .23063152 .63346359 .17354329 .6171875 .1312561 .60091146 .08896891 .5715332 .05456543 .52905276 .028045655 .48657228 .0015360514 .4308268-.01171875 .3618164-.01171875 .29475913-.01171875 .23990886-.00017293294 .19726563 .022918702 .15462239 .046020509 .124186199 .079447429 .10595703 .12319946 .08772787 .16695149 .07861328 .22672527 .07861328 .30252076V.7158203H.17333985V.30336C.17333985 .24127706 .17911785 .19552613 .19067383 .16610718 .20222982 .13669841 .2220866 .11402893 .25024415 .098098758 .2784017 .08217875 .31282554 .07421875 .35351563 .07421875 .4231771 .07421875 .472819 .08998108 .5024414 .12150574 .5320638 .15304058 .546875 .21365865 .546875 .30336V.7158203Z"/>
<path id="font_2_13" d="M.06591797 0V.5185547H.14501953V.44482423C.18310547 .50179037 .23811849 .53027346 .3100586 .53027346 .3413086 .53027346 .3700358 .5246582 .39624024 .51342776 .42244468 .50219729 .44205729 .48746745 .45507813 .46923829 .46809898 .45100913 .47721354 .42936198 .48242188 .40429688 .4856771 .38802085 .4873047 .35953776 .4873047 .31884767V0H.39941407V.3154297C.39941407 .35123698 .3959961 .37801109 .38916017 .39575196 .38232423 .41349284 .37019859 .42765299 .3527832 .43823243 .33536784 .44881187 .3149414 .45410157 .2915039 .45410157 .254069 .45410157 .22176107 .44222007 .19458008 .41845704 .1673991 .394694 .1538086 .34960938 .1538086 .28320313V0H.06591797Z"/>
<path id="font_2_15" d="M.030761719 .15527344 .11767578 .16894531C.122558597 .13396199 .1361491 .10714722 .15844727 .08850098 .18074544 .06986491 .21191406 .060546876 .25195313 .060546876 .29231773 .060546876 .32226563 .06876627 .34179688 .08520508 .36132813 .10164388 .37109376 .12093099 .37109376 .1430664 .37109376 .16292317 .36246745 .17854817 .34521485 .1899414 .33317057 .1977539 .30322267 .2076823 .2553711 .21972656 .19091797 .23600261 .14624024 .2500814 .12133789 .2619629 .09643555 .2738444 .077555339 .2902832 .064697269 .3112793 .05183919 .3322754 .045410158 .35546876 .045410158 .38085938 .045410158 .40397135 .05069987 .42537437 .061279298 .44506837 .07185873 .46476237 .08626302 .48111979 .10449219 .49414063 .11816406 .50423178 .13680013 .5127767 .16040039 .5197754 .18400066 .5267741 .20930989 .53027346 .23632813 .53027346 .27701823 .53027346 .31274415 .52441409 .34350587 .5126953 .37426759 .50097659 .39697267 .48510743 .4116211 .4650879 .42626954 .44506837 .4363607 .41829429 .44189454 .38476563L.35595704 .37304688C.35205079 .3997396 .34073893 .4205729 .32202149 .43554688 .30330406 .45052085 .27685548 .4580078 .24267578 .4580078 .2023112 .4580078 .17350261 .45133464 .15625 .43798829 .13899739 .42464195 .1303711 .40901695 .1303711 .39111329 .1303711 .37972007 .13395183 .36946617 .14111328 .36035157 .14827474 .35091148 .1595052 .34309898 .17480469 .33691407 .18359375 .33365885 .20947266 .32617188 .2524414 .31445313 .31461589 .29785157 .35799156 .28426109 .38256837 .27368165 .40714518 .2631022 .42643229 .24772136 .4404297 .22753906 .4544271 .20735677 .46142579 .18229167 .46142579 .15234375 .46142579 .123046878 .45288087 .095458988 .43579103 .06958008 .41870118 .043701173 .39404298 .02368164 .3618164 .009521484 .32958985-.004638672 .2931315-.01171875 .2524414-.01171875 .1850586-.01171875 .13370769 .002319336 .09838867 .030395508 .063069667 .05847168 .040527345 .100097659 .030761719 .15527344Z"/>
</defs>
<g clip-path="url(#clip_0)">
<g clip-path="url(#clip_1)">
<path transform="matrix(1,0,0,-1,-.778381,540)" d="M0 539.9999H719.9999V.00003079383H0Z" fill="#ffffff" fill-rule="evenodd"/>
<path transform="matrix(1,0,0,-1,-.778381,540)" d="M92.99998 347.8749 135 413.8749 177 347.8749Z" fill="#cbcbcb" fill-rule="evenodd"/>
<path transform="matrix(.00007874014,0,0,.00007874014,92.221599,126.12509)" stroke-width="12700" stroke-linecap="butt" stroke-miterlimit="8" stroke-linejoin="miter" fill="none" stroke="#000000" d="M-.01214603 838200 533400.1-.1456297 1066800 838200Z"/>
<path transform="matrix(1,0,0,-1,-.778381,540)" d="M31.69955 369.637 118.3784 404.9528C129.7336 409.5793 139.9524 410.842 141.2027 407.7733 142.453 404.7045 134.2614 398.4663 122.9062 393.8398L36.22736 358.524C24.87219 353.8975 14.65343 352.6347 13.40311 355.7035 12.15279 358.7723 20.34439 365.0105 31.69955 369.637Z" fill="#a7a7a7" fill-rule="evenodd"/>
<path transform="matrix(1,0,0,-1,-.778381,540)" d="M13.40313 355.7035C10.90249 361.841 13.85079 368.8437 19.98833 371.3443 26.12588 373.8449 33.12851 370.8966 35.62915 364.7591 38.12978 358.6216 35.18149 351.6189 29.04394 349.1183 22.9064 346.6176 15.90377 349.5659 13.40313 355.7035Z" fill="#a7a7a7" fill-rule="evenodd"/>
<path transform="matrix(1,0,0,-1,-.778381,540)" d="M136.7716 404.1997 134.1786 403.1432 133.1221 405.7362 135.7151 406.7927 136.7716 404.1997Z"/>
<path transform="matrix(.00007874014,0,0,.00007874014,2.2216192,192.12509)" stroke-width="12700" stroke-linecap="butt" stroke-linejoin="round" fill="none" stroke="#000000" d="M-.001074791 .09570324 609600 1.258423"/>
<path transform="matrix(1,0,0,-1,-.778381,540)" d="M501.9999 347.8749 459.9999 413.8749 417.9999 347.8749Z" fill="#cbcbcb" fill-rule="evenodd"/>
<path transform="matrix(-.00007874014,-0,0,.00007874014,501.22154,126.12509)" stroke-width="12700" stroke-linecap="butt" stroke-miterlimit="8" stroke-linejoin="miter" fill="none" stroke="#000000" d="M.2946779 838200 533400.4-.1456297 1066800 838200Z"/>
<path transform="matrix(1,0,0,-1,-.778381,540)" d="M563.3004 369.637 476.6215 404.9528C465.2663 409.5793 455.0475 410.842 453.7972 407.7733 452.5469 404.7045 460.7385 398.4663 472.0937 393.8398L558.7726 358.524C570.1277 353.8975 580.3465 352.6347 581.5968 355.7035 582.8471 358.7723 574.6555 365.0105 563.3004 369.637Z" fill="#a7a7a7" fill-rule="evenodd"/>
<path transform="matrix(1,0,0,-1,-.778381,540)" d="M581.5967 355.7035C584.0974 361.841 581.1491 368.8437 575.0115 371.3443 568.874 373.8449 561.8714 370.8966 559.3707 364.7591 556.8701 358.6216 559.8184 351.6189 565.9559 349.1183 572.0935 346.6176 579.0961 349.5659 581.5967 355.7035Z" fill="#a7a7a7" fill-rule="evenodd"/>
<path transform="matrix(1,0,0,-1,-.778381,540)" d="M460.864 403.1258 458.2709 404.1823 459.3274 406.7754 461.9205 405.7189 460.864 403.1258Z"/>
<path transform="matrix(-.00007874014,-0,0,.00007874014,591.2215,192.12509)" stroke-width="12700" stroke-linecap="butt" stroke-linejoin="round" fill="none" stroke="#000000" d="M.1188966 .09570324 609600.2 1.258423"/>
<path transform="matrix(1,0,0,-1,-.778381,540)" d="M255.5 347.8749 297.5 413.8749 339.5 347.8749Z" fill="#cbcbcb" fill-rule="evenodd"/>
<path transform="matrix(.00007874014,0,0,.00007874014,254.72162,126.12509)" stroke-width="12700" stroke-linecap="butt" stroke-miterlimit="8" stroke-linejoin="miter" fill="none" stroke="#000000" d="M-.1385499 838200 533399.9-.1456297 1066800 838200Z"/>
<path transform="matrix(1,0,0,-1,-.778381,540)" d="M287.0512 516.7908 301.1278 424.2582C302.9719 412.1362 301.8111 401.9053 298.5351 401.407 295.259 400.9086 291.1084 410.3314 289.2643 422.4535L275.1877 514.9861C273.3436 527.1081 274.5044 537.3389 277.7804 537.8373 281.0565 538.3357 285.2071 528.9128 287.0512 516.7908Z" fill="#a7a7a7" fill-rule="evenodd"/>
<path transform="matrix(1,0,0,-1,-.778381,540)" d="M277.7804 537.8373C284.3325 538.834 290.4519 534.3306 291.4487 527.7785 292.4454 521.2265 287.942 515.107 281.3899 514.1103 274.8379 513.1135 268.7184 517.617 267.7216 524.169 266.7249 530.7211 271.2284 536.8405 277.7804 537.8373Z" fill="#a7a7a7" fill-rule="evenodd"/>
<use data-text="." xlink:href="#font_2_2" transform="matrix(4.2110826,27.681523,27.681523,-4.2110826,294.5135,128.16208)"/>
<use data-text=" " xlink:href="#font_2_1" transform="matrix(4.2110826,27.681523,27.681523,-4.2110826,295.68333,135.852)"/>
<use data-text="S" xlink:href="#font_2_3" transform="matrix(16,0,0,-16,27.92162,119.275089)"/>
<use data-text="t" xlink:href="#font_2_16" transform="matrix(16,0,0,-16,38.59362,119.275089)"/>
<use data-text="a" xlink:href="#font_2_5" transform="matrix(16,0,0,-16,43.03842,119.275089)"/>
<use data-text="b" xlink:href="#font_2_6" transform="matrix(16,0,0,-16,51.937623,119.275089)"/>
<use data-text="l" xlink:href="#font_2_12" transform="matrix(16,0,0,-16,60.836824,119.275089)"/>
<use data-text="e" xlink:href="#font_2_7" transform="matrix(16,0,0,-16,64.39203,119.275089)"/>
<use data-text=" " xlink:href="#font_2_1" transform="matrix(16,0,0,-16,73.29123,119.275089)"/>
<use data-text="l" xlink:href="#font_2_12" transform="matrix(16,0,0,-16,77.73602,119.275089)"/>
<use data-text="e" xlink:href="#font_2_7" transform="matrix(16,0,0,-16,81.29123,119.275089)"/>
<use data-text="f" xlink:href="#font_2_8" transform="matrix(16,0,0,-16,90.19043,119.275089)"/>
<use data-text="t" xlink:href="#font_2_16" transform="matrix(16,0,0,-16,94.63524,119.275089)"/>
<use data-text=" " xlink:href="#font_2_1" transform="matrix(16,0,0,-16,99.08003,119.275089)"/>
<use data-text="S" xlink:href="#font_2_3" transform="matrix(16,0,0,-16,488.17164,119.525089)"/>
<use data-text="t" xlink:href="#font_2_16" transform="matrix(16,0,0,-16,498.84364,119.525089)"/>
<use data-text="a" xlink:href="#font_2_5" transform="matrix(16,0,0,-16,503.28843,119.525089)"/>
<use data-text="b" xlink:href="#font_2_6" transform="matrix(16,0,0,-16,512.1876,119.525089)"/>
<use data-text="l" xlink:href="#font_2_12" transform="matrix(16,0,0,-16,521.08688,119.525089)"/>
<use data-text="e" xlink:href="#font_2_7" transform="matrix(16,0,0,-16,524.642,119.525089)"/>
<use data-text=" " xlink:href="#font_2_1" transform="matrix(16,0,0,-16,533.54129,119.525089)"/>
<use data-text="r" xlink:href="#font_2_14" transform="matrix(16,0,0,-16,537.986,119.525089)"/>
<use data-text="i" xlink:href="#font_2_11" transform="matrix(16,0,0,-16,543.314,119.525089)"/>
<use data-text="g" xlink:href="#font_2_9" transform="matrix(16,0,0,-16,546.86929,119.525089)"/>
<use data-text="h" xlink:href="#font_2_10" transform="matrix(16,0,0,-16,555.76846,119.525089)"/>
<use data-text="t" xlink:href="#font_2_16" transform="matrix(16,0,0,-16,564.66769,119.525089)"/>
<use data-text=" " xlink:href="#font_2_1" transform="matrix(16,0,0,-16,569.1124,119.525089)"/>
<use data-text="U" xlink:href="#font_2_4" transform="matrix(16,0,0,-16,306.29664,36.525087)"/>
<use data-text="n" xlink:href="#font_2_13" transform="matrix(16,0,0,-16,317.85185,36.525087)"/>
<use data-text="s" xlink:href="#font_2_15" transform="matrix(16,0,0,-16,326.75105,36.525087)"/>
<use data-text="t" xlink:href="#font_2_16" transform="matrix(16,0,0,-16,334.75105,36.525087)"/>
<use data-text="a" xlink:href="#font_2_5" transform="matrix(16,0,0,-16,339.19584,36.525087)"/>
<use data-text="b" xlink:href="#font_2_6" transform="matrix(16,0,0,-16,348.09504,36.525087)"/>
<use data-text="l" xlink:href="#font_2_12" transform="matrix(16,0,0,-16,356.99424,36.525087)"/>
<use data-text="e" xlink:href="#font_2_7" transform="matrix(16,0,0,-16,360.54945,36.525087)"/>
<use data-text=" " xlink:href="#font_2_1" transform="matrix(16,0,0,-16,369.44865,36.525087)"/>
</g>
</g>
</svg>
