<svg xmlns="http://www.w3.org/2000/svg" xmlns:xlink="http://www.w3.org/1999/xlink" version="1.1" width="720pt" height="540pt" viewBox="0 0 720 540">
<defs>
<clipPath id="clip_0">
<path transform="matrix(1,0,0,-1,0,540)" d="M0 .00002324581H719.9999V540H0Z"/>
</clipPath>
<path id="font_1_22" d="M.2241211 .6689453H.31298829L.28173829 .5234375H.36523438L.35009767 .45117188H.26660157L.19384766 .10948181C.1899414 .0912323 .19352214 .07901001 .20458985 .07281494 .21077474 .069234218 .22184246 .06744385 .23779297 .06744385 .24202474 .06744385 .24658203 .06752523 .25146485 .06768799 .25634767 .067850749 .26220704 .06825765 .26904298 .06890869L.25439454-.00048828127C.24365235-.0034179688 .23266602-.005533854 .22143555-.0068359377 .21020508-.0081380209 .19824219-.0087890629 .18554688-.0087890629 .14453125-.0087890629 .118896488 .0017191569 .10864258 .022735596 .09838867 .043752035 .096842449 .07104492 .104003909 .10461426L.17773438 .45117188H.106933597L.12207031 .5234375H.1928711L.2241211 .6689453Z"/>
<path id="font_1_1" d="M0 0Z"/>
<path id="font_2_5" d="M.057617189 .71875H.1430664V.45948792C.16227214 .4847056 .18522136 .50394698 .21191406 .5172119 .23860677 .53047689 .26757813 .5371094 .29882813 .5371094 .36393229 .5371094 .41674806 .5147095 .4572754 .46990968 .49780274 .42510987 .5180664 .35905458 .5180664 .27174378 .5180664 .1889801 .49804688 .12022909 .4580078 .06549072 .41796876 .010762532 .36246745-.016601563 .2915039-.016601563 .25179038-.016601563 .21826172-.006942749 .19091797 .012374878 .17464192 .023839316 .15722656 .042175294 .13867188 .06738281V0H.057617189V.71875M.2861328 .061523439C.33365885 .061523439 .36922203 .08037821 .39282228 .11808777 .41642253 .1558075 .42822267 .20555115 .42822267 .26731874 .42822267 .32227073 .41642253 .3677877 .39282228 .40386964 .36922203 .43996177 .33447267 .4580078 .28857423 .4580078 .24853516 .4580078 .21346028 .44321189 .18334961 .41362 .15323894 .3840383 .1381836 .3352712 .1381836 .26731874 .1381836 .21822612 .14436849 .17840068 .15673828 .1478424 .17985027 .090296428 .22298177 .061523439 .2861328 .061523439Z"/>
<path id="font_2_6" d="M.064453128 .5205078H.1538086V0H.064453128V.5205078M.064453128 .71777346H.1538086V.61816409H.064453128V.71777346Z"/>
<path id="font_2_8" d="M.08203125 .66796877H.17089844V.5234375H.25439454V.4501953H.17089844V.110183719C.17089844 .09202576 .17708333 .07986959 .18945313 .07371521 .19628906 .07014465 .2076823 .068359378 .22363281 .068359378 .22786458 .068359378 .23242188 .06846619 .23730469 .06867981 .2421875 .0689036 .24788411 .06944784 .25439454 .0703125V0C.24430339-.0031026204 .23380535-.005340576 .22290039-.006713867 .21199544-.008097331 .20019531-.0087890629 .1875-.0087890629 .14648438-.0087890629 .118652347 .0016988119 .104003909 .02267456 .08935547 .04365031 .08203125 .070882167 .08203125 .10437012V.4501953H.011230469V.5234375H.08203125V.66796877Z"/>
<path id="font_2_7" d="M.11669922 .1640625C.11930338 .13463338 .12662761 .11207072 .13867188 .09637451 .1608073 .06793213 .19921875 .053710939 .25390626 .053710939 .28645835 .053710939 .31510417 .060806276 .33984376 .07499695 .36458335 .08919779 .37695313 .11115011 .37695313 .14085388 .37695313 .16337586 .36702476 .18051148 .34716798 .19226074 .33447267 .19944255 .30940757 .20775859 .27197267 .21720886L.20214844 .2348175C.15755208 .24590557 .12467448 .25829569 .103515628 .27198792 .06575521 .29579164 .046875 .32873027 .046875 .37080384 .046875 .42036439 .064697269 .46046958 .1003418 .49111939 .13598633 .52177938 .18391927 .5371094 .24414063 .5371094 .32291667 .5371094 .37972007 .5139974 .41455079 .46777345 .4363607 .43847657 .4469401 .40690104 .44628907 .37304688H.36328126C.36165367 .39269004 .35465495 .41055808 .34228517 .426651 .32210288 .44950868 .28710938 .4609375 .23730469 .4609375 .20410156 .4609375 .17895508 .45461528 .16186524 .44197084 .14477539 .42933656 .13623047 .41264854 .13623047 .39190675 .13623047 .36922203 .14746094 .35107423 .16992188 .33746339 .1829427 .32936607 .20214844 .32221986 .22753906 .31602479L.28564454 .3018341C.34879557 .28650413 .39111329 .27166749 .41259767 .25732423 .44677735 .23482259 .4638672 .19944255 .4638672 .15118408 .4638672 .10455322 .44620768 .06428019 .41088868 .03036499 .37556968-.0035502117 .32177735-.020507813 .24951172-.020507813 .17171224-.020507813 .116617839-.002802531 .084228519 .032608034 .05183919 .06801859 .034505208 .111836757 .032226564 .1640625H.11669922M.24658203 .5361328V.5361328Z"/>
<path id="font_3_1" d="M0 0Z"/>
<path id="font_1_21" d="M.15136719 .1640625C.14778646 .13463338 .15039063 .11207072 .15917969 .09637451 .1751302 .06793213 .21044922 .053710939 .26513673 .053710939 .2976888 .053710939 .32788087 .060806276 .3557129 .07499695 .38354493 .08918762 .40055339 .11112467 .40673829 .1408081 .4116211 .16330974 .40527345 .1804301 .3876953 .19216919 .3766276 .199351 .35335288 .20767212 .3178711 .21713257L.25195313 .23474121C.20963542 .24582927 .17936199 .2582245 .16113281 .27192689 .1282552 .29574076 .116373699 .32868449 .12548828 .37075807 .13590496 .42033897 .16219075 .46045939 .2043457 .49111939 .24650066 .52177938 .2976888 .5371094 .35791017 .5371094 .4366862 .5371094 .48860679 .5139974 .5136719 .46777345 .5292969 .43847657 .5332031 .40690104 .5253906 .37304688H.4423828C.44498698 .39290367 .44173179 .41097007 .4326172 .4272461 .41731773 .45035807 .38476563 .46191407 .33496095 .46191407 .3017578 .46191407 .27530924 .45555116 .25561524 .44282533 .23592122 .43010966 .22379558 .41331483 .21923828 .3924408 .21435547 .36960349 .22167969 .3513387 .24121094 .33764649 .25260417 .32948814 .27034507 .3223114 .2944336 .31611634L.34960938 .30192567C.40950523 .28659568 .44873048 .27175395 .46728517 .2574005 .49658204 .23488872 .50602218 .19949849 .49560548 .15122986 .48583985 .10458883 .4597168 .064305629 .41723634 .030380249 .37475587-.0035451253 .3173828-.020507813 .24511719-.020507813 .1673177-.020507813 .1159668-.002802531 .09106445 .032608034 .06616211 .06801859 .05810547 .111836757 .06689453 .1640625H.15136719Z"/>
<path id="font_2_1" d="M0 0Z"/>
<path id="font_1_8" d="M.21044922 .71972659H.29589845L.24072266 .45948792C.26513673 .4847056 .29207359 .50394698 .3215332 .5172119 .35099284 .53047689 .38134767 .5371094 .41259767 .5371094 .4777018 .5371094 .52579757 .5147095 .55688479 .46990968 .587972 .42510987 .5942383 .35905458 .5756836 .27174378 .55810549 .1889801 .5234375 .12022909 .4716797 .06549072 .41992188 .010762532 .3585612-.016601563 .28759767-.016601563 .24788411-.016601563 .21647136-.0069986979 .19335938 .012207031 .17936199 .02360026 .16585286 .041829427 .15283203 .06689453L.13867188 0H.057617189L.21044922 .71972659M.48486329 .26731874C.49658204 .32227073 .49446617 .3677877 .47851563 .40386964 .4625651 .43996177 .43164063 .4580078 .3857422 .4580078 .34570313 .4580078 .30745445 .44321189 .2709961 .41362 .23453777 .3840383 .20914714 .3352712 .19482422 .26731874 .18440755 .21822612 .1821289 .17840068 .18798828 .1478424 .19873047 .090296428 .23567708 .061523439 .29882813 .061523439 .34635417 .061523439 .38590495 .08037821 .41748048 .11808777 .449056 .1558075 .47151695 .20555115 .48486329 .26731874Z"/>
<path id="font_2_3" d="M.2705078 .7001953C.3610026 .7001953 .42643229 .66289779 .46679688 .5883026 .49804688 .5306447 .5136719 .45165 .5136719 .35131837 .5136719 .25620524 .49951173 .17754109 .4711914 .11532593 .43017579 .026072184 .3631185-.018554688 .27001954-.018554688 .18603516-.018554688 .123535159 .017929078 .08251953 .09089661 .048339845 .15180969 .03125 .23357137 .03125 .33618165 .03125 .41565959 .041503908 .48390199 .06201172 .5409088 .10042318 .6470998 .16992188 .7001953 .2705078 .7001953M.26953126 .061523439C.31510417 .061523439 .35139976 .08168539 .37841798 .12200928 .4054362 .16234334 .4189453 .23747762 .4189453 .3474121 .4189453 .42676798 .4091797 .49205528 .38964845 .5432739 .3701172 .59450277 .332194 .6201172 .2758789 .6201172 .2241211 .6201172 .1862793 .59580489 .16235352 .5471802 .13842774 .4985555 .12646485 .42692057 .12646485 .3322754 .12646485 .26105754 .13411458 .20381673 .14941406 .16055298 .17285156 .09453329 .21289063 .061523439 .26953126 .061523439Z"/>
<path id="font_1_17" d="M.17529297 .5234375H.26220704L.24658203 .44914247C.27294923 .47487895 .2957357 .49361167 .3149414 .5053406 .34814454 .5252177 .38313804 .53515627 .41992188 .53515627 .46158854 .53515627 .4930013 .52489218 .51416018 .504364 .5258789 .4926351 .53515627 .47536723 .5419922 .45256043 .5677083 .48058573 .5951335 .50135806 .6242676 .5148773 .6534017 .5283966 .68440756 .53515627 .71728518 .53515627 .78759768 .53515627 .8300781 .5097402 .84472659 .45890809 .85253909 .43154399 .8515625 .3947296 .8417969 .34846498L.7680664 0H.6767578L.75390627 .36367799C.7610677 .39853923 .7573242 .42248536 .7426758 .43551637 .72802737 .44855754 .7081706 .45507813 .68310549 .45507813 .6486003 .45507813 .6164551 .44350688 .5866699 .42036439 .55688479 .39723207 .5362956 .35861717 .52490237 .30451966L.46044923 0H.37109376L.44335938 .3416748C.45084635 .37719728 .45214845 .4031016 .44726563 .41938783 .4391276 .4438324 .41682945 .4560547 .3803711 .4560547 .34716798 .4560547 .31420899 .44318138 .28149415 .4174347 .2487793 .3916982 .22526042 .34509788 .2109375 .27763368L.15234375 0H.064453128L.17529297 .5234375Z"/>
<path id="font_2_2" d="M.041503908 .32421876H.2866211V.23339844H.041503908V.32421876Z"/>
<path id="font_2_4" d="M.095703128 .4951172V.5625C.15917969 .5686849 .20345052 .5790202 .22851563 .59350588 .25358073 .6079915 .2722982 .6422526 .28466798 .69628909H.3540039V0H.2602539V.4951172H.095703128Z"/>
<path id="font_1_6" d="M.7504883 .71777346 .7324219 .63183596H.49072267L.3564453 0H.2578125L.39208985 .63183596H.15039063L.16845703 .71777346H.7504883Z"/>
<path id="font_1_7" d="M.23730469 .057617189C.26822917 .057617189 .2998047 .06476847 .33203126 .079071048 .3857422 .10281372 .41845704 .14166768 .43017579 .19563294L.44482423 .26635743C.43277995 .25953166 .417806 .25384013 .39990235 .24928284 .3819987 .24473572 .3647461 .2414856 .34814454 .23953247L.29345704 .23271179C.26057945 .22848003 .2351888 .22181194 .21728516 .21270752 .18701172 .19742839 .16829427 .17304485 .16113281 .13955689 .15559896 .11419678 .16056316 .09419759 .17602539 .079559329 .19148763 .064931239 .21191406 .057617189 .23730469 .057617189M.4116211 .31723023C.43245445 .31984458 .44791667 .32831828 .4580078 .34265138 .46354167 .35047404 .46777345 .3617147 .47070313 .3763733 .47721354 .40635173 .4711914 .4281006 .45263673 .44161988 .43408204 .45514933 .4049479 .46191407 .36523438 .46191407 .31933595 .46191407 .2841797 .44954429 .25976563 .4248047 .24609375 .4111328 .23486328 .39078776 .22607422 .36376954H.14404297C.15934246 .42822267 .18977864 .47306315 .23535156 .49829103 .28092448 .52351889 .33024089 .5361328 .38330079 .5361328 .44482423 .5361328 .4921875 .52441409 .5253906 .50097659 .55859377 .47753907 .569987 .44108073 .5595703 .39160157L.49560548 .09033203C.49365235 .081217449 .49389649 .07389323 .4963379 .068359378 .4987793 .06282552 .50602218 .060058595 .5180664 .060058595 .52197268 .060058595 .52644857 .060343427 .53149417 .060913087 .53653976 .061482748 .5419922 .06233724 .54785159 .06347656L.5336914-.0027618409C.51936849-.0067392985 .5085449-.009226481 .5012207-.010223389 .49389649-.011220296 .48404948-.01171875 .4716797-.01171875 .44140626-.01171875 .42171226-.00090026858 .41259767 .020736695 .40771485 .032211305 .40608726 .04843648 .40771485 .06941223 .38460288 .045954389 .3544922 .02558899 .3173828 .00831604 .28027345-.008946736 .24153646-.017578125 .20117188-.017578125 .15266927-.017578125 .116129558-.0028330486 .091552738 .026657105 .066975917 .05614726 .05940755 .093048099 .068847659 .13735962 .07926432 .18591309 .10245768 .22355144 .13842774 .25027467 .17439778 .2769979 .21761067 .29345194 .2680664 .29963685L.4116211 .31723023Z"/>
<path id="font_1_13" d="M.46289063 .50193789C.47721354 .49053446 .4905599 .47392274 .5029297 .45210267L.51708987 .51802065H.59814456L.4970703 .042160036C.4830729-.024286906 .4622396-.07672628 .4345703-.11515808 .3828125-.18617249 .3063151-.22167969 .20507813-.22167969 .14876302-.22167969 .10408529-.20914714 .07104492-.18408203 .03800456-.15901692 .024902344-.119628909 .03173828-.06591797H.12109375C.12044271-.08935547 .12516277-.107421878 .1352539-.12011719 .1508789-.13964844 .18001302-.14941406 .22265625-.14941406 .29003907-.14941406 .33919273-.12557984 .3701172-.07791138 .38834635-.04982503 .4046224 .00029500327 .4189453 .07244873 .39583335 .04569499 .37052409 .02579244 .34301759 .012741089 .31551109-.00031026206 .28141276-.0068359377 .24072266-.0068359377 .18408203-.0068359377 .13875325 .013280232 .10473633 .053512575 .0707194 .09375509 .06363932 .16030376 .083496097 .25315858 .10205078 .34080506 .13793946 .40922547 .19116211 .4584198 .24438477 .5076243 .30126954 .53222659 .3618164 .53222659 .40283204 .53222659 .43652345 .5221303 .46289063 .50193789M.36132813 .45410157C.29947917 .45410157 .2511393 .4251658 .2163086 .3672943 .19742839 .33641053 .18277996 .29593406 .17236328 .24586487 .15966797 .1870168 .162028 .14223226 .17944336 .11151123 .19685872 .0807902 .2257487 .06542969 .26611329 .06542969 .3292643 .06542969 .37972007 .09387716 .41748048 .1507721 .4386393 .18295796 .45377604 .22050984 .46289063 .26342774 .47688804 .328125 .47379557 .37607829 .45361329 .4072876 .433431 .43849693 .40266929 .45410157 .36132813 .45410157Z"/>
<path id="font_4_1" d="M0 0Z"/>
<path id="font_1_5" d="M.18847656 .23095703C.18229167 .19026692 .18489583 .15722656 .19628906 .13183594 .21842449 .0843099 .27018229 .060546876 .3515625 .060546876 .38802085 .060546876 .42236329 .06576029 .45458985 .076187137 .51676437 .0963796 .55338546 .13253784 .5644531 .18466187 .5729167 .22375489 .56656906 .25160728 .54541018 .268219 .5242513 .28450523 .48860679 .29867555 .43847657 .31072999L.34570313 .3327179C.28548179 .347051 .24397786 .3628489 .2211914 .3801117 .1821289 .41007997 .16894531 .45487467 .18164063 .51449587 .1953125 .5789897 .22884114 .6319224 .28222657 .67329409 .33561198 .7146657 .40315757 .73535159 .48486329 .73535159 .5600586 .73535159 .6200358 .7172038 .6647949 .6809082 .709554 .6446126 .72347006 .58658859 .70654299 .50683596H.6152344C.61848959 .5452474 .6144206 .57470706 .60302737 .59521487 .58121749 .6326497 .53483077 .6513672 .4638672 .6513672 .40657554 .6513672 .36287437 .63931277 .33276368 .61520388 .30265299 .59110519 .2841797 .56309 .27734376 .53115847 .26985679 .49598185 .27897135 .47025047 .3046875 .45396424 .3216146 .44353739 .3623047 .43050639 .4267578 .41487123L.52246096 .39190675C.5686849 .38082887 .60286459 .36567689 .625 .3464508 .663737 .31290183 .67626956 .26420594 .66259768 .20036316 .6456706 .12087504 .60465499 .06402588 .5395508 .029815674 .47444663-.004384359 .40364585-.021484375 .32714845-.021484375 .23795574-.021484375 .17301433 .0013020834 .13232422 .046875 .09163412 .0921224 .07991537 .15348308 .09716797 .23095703H.18847656Z"/>
<path id="font_1_11" d="M.5629883 .44125367C.57503256 .4148458 .5802409 .3840332 .5786133 .34881593 .5789388 .32468669 .57340499 .2862142 .5620117 .23339844H.17871094C.16894531 .18033855 .17244466 .13777669 .18920899 .10571289 .20597331 .073649089 .2389323 .057617189 .28808595 .057617189 .33398438 .057617189 .3736979 .072779338 .40722657 .10310364 .4267578 .12070211 .44222007 .14107768 .45361329 .16423035H.54003909C.5335286 .14500427 .521403 .12358093 .5036621 .09996033 .48592124 .07633972 .4674479 .057037355 .4482422 .042053224 .41601563 .015981039 .37923179-.0016174316 .33789063-.0107421879 .3154297-.015950522 .29085288-.018554688 .26416017-.018554688 .19905599-.018554688 .14892578 .0051472985 .11376953 .05255127 .07861328 .09995524 .07014974 .16634114 .088378909 .25170899 .106282558 .33576457 .14355469 .40401713 .20019531 .45646668 .25683595 .5089264 .3219401 .53515627 .3955078 .53515627 .4326172 .53515627 .46679688 .5264333 .49804688 .5089874 .5292969 .49154154 .55094406 .46896363 .5629883 .44125367M.48632813 .30371095C.4908854 .3416748 .48909507 .37201438 .48095704 .3947296 .46598307 .43691508 .43033854 .4580078 .37402345 .4580078 .33365885 .4580078 .29671226 .44348655 .2631836 .41444398 .22965496 .3854014 .20719402 .3484904 .19580078 .30371095H.48632813Z"/>
<path id="font_1_14" d="M.17480469 .5205078H.26416017L.1538086 0H.064453128L.17480469 .5205078M.21679688 .71777346H.30615235L.28466798 .61816409H.1953125L.21679688 .71777346Z"/>
<path id="font_1_18" d="M.17529297 .5234375H.25878907L.24316406 .44914247C.27441407 .47977195 .30525718 .50176498 .33569337 .51512148 .36612956 .52847799 .39827476 .53515627 .4321289 .53515627 .50634768 .53515627 .55094406 .5092519 .56591799 .45744325 .57438156 .42910258 .5730794 .38853965 .5620117 .3357544L.49072267 0H.4013672L.4711914 .3299408C.47802735 .36188255 .47884117 .38762919 .4736328 .4071808 .46484376 .4397634 .4399414 .4560547 .39892579 .4560547 .37809245 .4560547 .3605143 .4539388 .3461914 .44970704 .32047526 .4425354 .29622398 .42819724 .2734375 .4066925 .25520835 .38941957 .24194336 .37157694 .23364258 .35316468 .2253418 .3347524 .21761067 .30843608 .21044922 .2742157L.15234375 0H.064453128L.17529297 .5234375Z"/>
<path id="font_1_10" d="M.28222657 .05859375C.32291667 .05859375 .36002604 .076044719 .3935547 .110946658 .42708335 .14585877 .45084635 .19594829 .46484376 .2612152 .47884117 .32713319 .4757487 .37592063 .4555664 .4075775 .43538413 .4392446 .4054362 .45507813 .36572267 .45507813 .3214518 .45507813 .28198243 .43819175 .24731446 .40441896 .21264649 .37064616 .1883138 .32096354 .1743164 .2553711 .16227214 .19952393 .16414388 .15276592 .17993164 .115097049 .1957194 .077428188 .2298177 .05859375 .28222657 .05859375M.46044923 .50683596C.4741211 .4970703 .48828126 .47998048 .5029297 .4555664L.55908206 .71972659H.6435547L.49072267 0H.4116211L.4267578 .072753909C.39941407 .040527345 .37019859 .017252604 .33911134 .0029296876 .30802409-.0113932299 .27441407-.018554688 .23828125-.018554688 .18001302-.018554688 .13476563 .0059407555 .10253906 .05493164 .0703125 .10392252 .06298828 .16910808 .080566409 .25048829 .09651693 .32666017 .12988281 .39265953 .18066406 .44848634 .23144531 .5043132 .29296876 .53222659 .36523438 .53222659 .40527345 .53222659 .43701173 .523763 .46044923 .50683596Z"/>
<path id="font_1_23" d="M.12548828 .5234375H.23925781L.3203125 .33918763 .48095704 .5234375 .58740237 .5209961 .35742188 .26831056 .48486329 0H.3725586L.2841797 .19647217 .11669922 0H.0053710939L.24609375 .26831056 .12548828 .5234375Z"/>
<path id="font_1_4" d="M.43359376 .4140625C.47460938 .4140625 .5076497 .4197693 .53271487 .43118287 .5724284 .4491272 .59716799 .48142497 .6069336 .5280762 .6170247 .57506307 .6048177 .6067098 .5703125 .62301638 .55045577 .6321513 .51936849 .63671877 .47705079 .63671877H.30371095L.25683595 .4140625H.43359376M.3959961 .083984378C.4555664 .083984378 .5016276 .101135257 .5341797 .13543701 .5546875 .15712483 .5683594 .18333943 .5751953 .21408081 .586263 .26586915 .5704753 .30114747 .52783206 .31991578 .5053711 .3299459 .47379557 .33496095 .43310548 .33496095H.24023438L.18652344 .083984378H.3959961M.22607422 .71777346H.5341797C.61816409 .71777346 .67252609 .6926575 .6972656 .64242556 .71191409 .6127421 .71500656 .5784963 .70654299 .5396881 .69710287 .49434916 .6764323 .45716349 .64453127 .4281311 .6279297 .41280113 .60579428 .3987783 .578125 .38606263 .6116536 .3720754 .6357422 .35629273 .6503906 .3387146 .67610678 .30748496 .68310549 .26437379 .6713867 .2093811 .6616211 .16317749 .6381836 .12136841 .6010742 .08395386 .5460612 .02798462 .47135417 0 .37695313 0H.07373047L.22607422 .71777346Z"/>
<path id="font_1_16" d="M.21923828 .71777346H.3071289L.15478516 0H.06689453L.21923828 .71777346Z"/>
<path id="font_1_19" d="M.4814453 .26976014C.49186198 .31852723 .49251304 .35819499 .48339845 .38876344 .46875 .4368795 .43115235 .4609375 .37060548 .4609375 .31689454 .4609375 .2735189 .4404551 .24047852 .39949037 .20743816 .3585256 .18473308 .30910746 .17236328 .25123597 .16064453 .19563294 .16300456 .14929708 .17944336 .11222839 .19588216 .07516988 .23063152 .056640626 .2836914 .056640626 .34195964 .056640626 .38663737 .07866923 .4177246 .12272644 .44881187 .16678365 .4700521 .21579488 .4814453 .26976014M.57373049 .27223207C.55582687 .18784078 .5205078 .1181132 .46777345 .06304932 .41503907 .0079956059 .34554038-.01953125 .25927735-.01953125 .18733724-.01953125 .13541667 .0048217775 .103515628 .053527833 .071614589 .10223389 .06429037 .16763814 .08154297 .2497406 .10042318 .33771263 .13769531 .40776063 .19335938 .45988465 .24902344 .51201888 .31445313 .53808596 .38964845 .53808596 .45703126 .53808596 .509196 .5156047 .5461426 .4706421 .5830892 .42567954 .59228518 .35954286 .57373049 .27223207Z"/>
<path id="font_1_9" d="M.55029299 .3466797H.46484376C.46647135 .37890626 .46028648 .40568034 .44628907 .42700196 .43229167 .44832359 .40478517 .45898438 .36376954 .45898438 .30777995 .45898438 .2618815 .43164063 .22607422 .37695313 .20296224 .34147135 .18587239 .2976888 .17480469 .24560547 .16341146 .19319661 .16503906 .14908855 .1796875 .11328125 .19433594 .07747396 .22542317 .059570314 .27294923 .059570314 .30940757 .059570314 .34065757 .0707194 .36669923 .09301758 .39274089 .11531576 .41389976 .14583333 .43017579 .18457031H.515625C.49121095 .115234378 .4560547 .06453451 .41015626 .032470704 .3642578 .00040690104 .3108724-.015625 .25-.015625 .18164063-.015625 .1324056 .009379069 .10229492 .059387208 .07218424 .10940552 .065104167 .17188008 .08105469 .24681092 .10058594 .33868919 .13810222 .41020204 .19360352 .4613495 .24910482 .51250717 .3113607 .53808596 .3803711 .53808596 .43929038 .53808596 .48413087 .5237274 .5148926 .49501039 .5456543 .46629334 .5574544 .41684977 .55029299 .3466797Z"/>
<path id="font_1_15" d="M.21484375 .71777346H.2993164L.21044922 .3009796 .48339845 .5234375 .5957031 .5233002 .3540039 .32736207 .49609376 0H.38378907L.2763672 .26385499 .18847656 .19642639 .14697266 0H.0625L.21484375 .71777346Z"/>
<path id="font_1_12" d="M.25048829 .6826172C.277181 .7125651 .31982423 .72753909 .37841798 .72753909 .3839518 .72753909 .38964845 .7273763 .3955078 .7270508 .4013672 .7267253 .4078776 .726237 .41503907 .72558596L.39794923 .6455078C.38916017 .6461589 .3827311 .64656576 .3786621 .6467285 .3745931 .6468913 .37076823 .64697268 .3671875 .64697268 .34049479 .64697268 .32307945 .64005538 .3149414 .6262207 .30680339 .61238607 .29671226 .57714846 .28466798 .5205078H.37158204L.3569336 .45117188H.26904298L.17333985 0H.08642578L.1821289 .45117188H.109375L.12402344 .5205078H.19677735L.21435547 .60253909C.22347005 .6389974 .23551433 .6656901 .25048829 .6826172Z"/>
<path id="font_1_3" d="M.50634768 .2939453 .46484376 .61083987 .28173829 .2939453H.50634768M.43701173 .71777346H.546875L.65478518 0H.54833987L.5209961 .21484375H.23730469L.11425781 0H.0146484379L.43701173 .71777346Z"/>
<path id="font_1_20" d="M.17773438 .5234375H.26123048L.2421875 .43301393C.25260417 .4506124 .2738444 .47203575 .3059082 .49728395 .33797203 .52253219 .37141929 .53515627 .40625 .53515627 .4078776 .53515627 .41064454 .5349579 .41455079 .53456118 .41845704 .5341746 .42496745 .5333964 .43408204 .53222659L.41455079 .4399414C.40934245 .44091798 .4046224 .441569 .40039063 .44189454 .39615885 .44222007 .3914388 .4423828 .38623048 .4423828 .34195964 .4423828 .30493165 .428126 .27514649 .39961244 .24536133 .37109886 .22639974 .338267 .21826172 .30111695L.15478516 0H.06689453L.17773438 .5234375Z"/>
<path id="font_1_2" d="M.22021485 .51660159H.32226563L.2998047 .41015626H.1977539L.22021485 .51660159M.13330078 .10644531H.23535156L.21289063 0H.110839847L.13330078 .10644531Z"/>
</defs>
<g clip-path="url(#clip_0)">
<path transform="matrix(1,0,0,-1,0,540)" d="M0 539.9999H719.9999V.00003079383H0Z" fill="#ffffff" fill-rule="evenodd"/>
<use data-text="t" xlink:href="#font_1_22" transform="matrix(16,0,0,-16,119.5,15.875)"/>
<use data-text=" " xlink:href="#font_1_1" transform="matrix(16,0,0,-16,123.9448,15.875)"/>
<use data-text="b" xlink:href="#font_2_5" transform="matrix(16,0,0,-16,128.39063,15.875)"/>
<use data-text="i" xlink:href="#font_2_6" transform="matrix(16,0,0,-16,137.28983,15.875)"/>
<use data-text="t" xlink:href="#font_2_8" transform="matrix(16,0,0,-16,140.84503,15.875)"/>
<use data-text="s" xlink:href="#font_2_7" transform="matrix(16,0,0,-16,145.28983,15.875)"/>
<use data-text="&#xfffd;" xlink:href="#font_3_1" transform="matrix(16,0,0,-16,153.28983,15.875)"/>
<use data-text="s" xlink:href="#font_1_21" transform="matrix(16,0,0,-16,206,15.875)"/>
<use data-text=" " xlink:href="#font_2_1" transform="matrix(16,0,0,-16,214,15.875)"/>
<use data-text="b" xlink:href="#font_2_5" transform="matrix(16,0,0,-16,218.4448,15.875)"/>
<use data-text="i" xlink:href="#font_2_6" transform="matrix(16,0,0,-16,227.344,15.875)"/>
<use data-text="t" xlink:href="#font_2_8" transform="matrix(16,0,0,-16,230.8992,15.875)"/>
<use data-text="s" xlink:href="#font_2_7" transform="matrix(16,0,0,-16,235.344,15.875)"/>
<use data-text="&#xfffd;" xlink:href="#font_3_1" transform="matrix(16,0,0,-16,243.344,15.875)"/>
<path transform="matrix(.00007874014,0,0,.00007874014,268.5,26.250123)" stroke-width="12700" stroke-linecap="butt" stroke-miterlimit="8" stroke-linejoin="miter" fill="none" stroke="#000000" d="M-.1131592 .2717286H1143000V231775.3H-.1131592Z"/>
<path transform="matrix(.00007874014,0,0,.00007874014,178.5,26.250123)" stroke-width="12700" stroke-linecap="butt" stroke-miterlimit="8" stroke-linejoin="miter" fill="none" stroke="#000000" d="M-.09515384 .2717286H1143000V231775.3H-.09515384Z"/>
<path transform="matrix(.00007874014,0,0,.00007874014,88.49998,26.250123)" stroke-width="12700" stroke-linecap="butt" stroke-miterlimit="8" stroke-linejoin="miter" fill="none" stroke="#000000" d="M-.02093509 .2717286H1143000V231775.3H-.02093509Z"/>
<use data-text="b" xlink:href="#font_1_8" transform="matrix(16,0,0,-16,295.1249,15.875)"/>
<use data-text=" " xlink:href="#font_2_1" transform="matrix(16,0,0,-16,304.02336,15.875)"/>
<use data-text="b" xlink:href="#font_2_5" transform="matrix(16,0,0,-16,308.46815,15.875)"/>
<use data-text="i" xlink:href="#font_2_6" transform="matrix(16,0,0,-16,317.36735,15.875)"/>
<use data-text="t" xlink:href="#font_2_8" transform="matrix(16,0,0,-16,320.92256,15.875)"/>
<use data-text="s" xlink:href="#font_2_7" transform="matrix(16,0,0,-16,325.36735,15.875)"/>
<use data-text="&#xfffd;" xlink:href="#font_3_1" transform="matrix(16,0,0,-16,333.36735,15.875)"/>
<use data-text="0" xlink:href="#font_2_3" transform="matrix(10,0,0,-10,355.7,55.62509)"/>
<use data-text="&#xfffd;" xlink:href="#font_3_1" transform="matrix(10,0,0,-10,361.26203,55.62509)"/>
<use data-text="m" xlink:href="#font_1_17" transform="matrix(10,0,0,-10,89.02031,55.62509)"/>
<use data-text="-" xlink:href="#font_2_2" transform="matrix(10,0,0,-10,97.35039,55.62509)"/>
<use data-text="1" xlink:href="#font_2_4" transform="matrix(10,0,0,-10,100.68039,55.62509)"/>
<use data-text="&#xfffd;" xlink:href="#font_3_1" transform="matrix(10,0,0,-10,106.242389,55.62509)"/>
<use data-text="T" xlink:href="#font_1_6" transform="matrix(16,0,0,-16,119.6249,107.25009)"/>
<use data-text="a" xlink:href="#font_1_7" transform="matrix(16,0,0,-16,127.6249,107.25009)"/>
<use data-text="g" xlink:href="#font_1_13" transform="matrix(16,0,0,-16,136.5209,107.25009)"/>
<use data-text="&#xfffd;" xlink:href="#font_4_1" transform="matrix(16,0,0,-16,145.4169,107.25009)"/>
<use data-text="S" xlink:href="#font_1_5" transform="matrix(16,0,0,-16,185.5,107.25009)"/>
<use data-text="e" xlink:href="#font_1_11" transform="matrix(16,0,0,-16,196.172,107.25009)"/>
<use data-text="t" xlink:href="#font_1_22" transform="matrix(16,0,0,-16,205.0712,107.25009)"/>
<use data-text=" " xlink:href="#font_1_1" transform="matrix(16,0,0,-16,209.516,107.25009)"/>
<use data-text="i" xlink:href="#font_1_14" transform="matrix(16,0,0,-16,213.9608,107.25009)"/>
<use data-text="n" xlink:href="#font_1_18" transform="matrix(16,0,0,-16,217.516,107.25009)"/>
<use data-text="d" xlink:href="#font_1_10" transform="matrix(16,0,0,-16,226.4152,107.25009)"/>
<use data-text="e" xlink:href="#font_1_11" transform="matrix(16,0,0,-16,235.3144,107.25009)"/>
<use data-text="x" xlink:href="#font_1_23" transform="matrix(16,0,0,-16,244.21361,107.25009)"/>
<use data-text="&#xfffd;" xlink:href="#font_4_1" transform="matrix(16,0,0,-16,252.21361,107.25009)"/>
<use data-text="B" xlink:href="#font_1_4" transform="matrix(16,0,0,-16,270.3749,107.25009)"/>
<use data-text="l" xlink:href="#font_1_16" transform="matrix(16,0,0,-16,281.0469,107.25009)"/>
<use data-text="o" xlink:href="#font_1_19" transform="matrix(16,0,0,-16,284.6021,107.25009)"/>
<use data-text="c" xlink:href="#font_1_9" transform="matrix(16,0,0,-16,293.5013,107.25009)"/>
<use data-text="k" xlink:href="#font_1_15" transform="matrix(16,0,0,-16,301.5013,107.25009)"/>
<use data-text=" " xlink:href="#font_1_1" transform="matrix(16,0,0,-16,309.5013,107.25009)"/>
<use data-text="o" xlink:href="#font_1_19" transform="matrix(16,0,0,-16,313.9461,107.25009)"/>
<use data-text="f" xlink:href="#font_1_12" transform="matrix(16,0,0,-16,322.8453,107.25009)"/>
<use data-text="f" xlink:href="#font_1_12" transform="matrix(16,0,0,-16,327.01014,107.25009)"/>
<use data-text="s" xlink:href="#font_1_21" transform="matrix(16,0,0,-16,331.45494,107.25009)"/>
<use data-text="e" xlink:href="#font_1_11" transform="matrix(16,0,0,-16,339.45494,107.25009)"/>
<use data-text="t" xlink:href="#font_1_22" transform="matrix(16,0,0,-16,348.35414,107.25009)"/>
<use data-text="&#xfffd;" xlink:href="#font_4_1" transform="matrix(16,0,0,-16,352.79893,107.25009)"/>
<path transform="matrix(0,.00007874014,-.00007874014,-0,172.5,60.00009)" stroke-width="12700" stroke-linecap="butt" stroke-linejoin="round" fill="none" stroke="#000000" d="M.3376466 .05065924C84168.47 .05065924 152400.4 39802.47 152400.4 88901.03V444499C152400.4 493597.7 220632.2 533400.1 304800.4 533400.1 220632.2 533400.1 152400.4 573202.4 152400.4 622301V977899.1C152400.4 1026998 84168.47 1066800 .3376466 1066800"/>
<path transform="matrix(0,.00007874014,-.00007874014,-0,262.5,60.00009)" stroke-width="12700" stroke-linecap="butt" stroke-linejoin="round" fill="none" stroke="#000000" d="M.3376466 .124878C84168.47 .124878 152400.4 39802.35 152400.4 88901.11V444499C152400.4 493597.8 220632.2 533400.2 304800.4 533400.2 220632.2 533400.2 152400.4 573202.4 152400.4 622301.2V977899.1C152400.4 1026998 84168.47 1066800 .3376466 1066800"/>
<path transform="matrix(0,.00007874014,-.00007874014,-0,358.4999,60.00009)" stroke-width="12700" stroke-linecap="butt" stroke-linejoin="round" fill="none" stroke="#000000" d="M.3376466 .07495129C84168.47 .07495129 152400.4 39802.3 152400.4 88901.25V444499C152400.4 493597.5 220632.2 533400.2 304800.4 533400.2 220632.2 533400.2 152400.4 573202.4 152400.4 622300.9V977899.1C152400.4 1026998 84168.47 1066800 .3376466 1066800"/>
<use data-text="A" xlink:href="#font_1_3" transform="matrix(16,0,0,-16,6.199999,41.275087)"/>
<use data-text="d" xlink:href="#font_1_10" transform="matrix(16,0,0,-16,16.872,41.275087)"/>
<use data-text="d" xlink:href="#font_1_10" transform="matrix(16,0,0,-16,25.7712,41.275087)"/>
<use data-text="r" xlink:href="#font_1_20" transform="matrix(16,0,0,-16,34.670404,41.275087)"/>
<use data-text="e" xlink:href="#font_1_11" transform="matrix(16,0,0,-16,39.998399,41.275087)"/>
<use data-text="s" xlink:href="#font_1_21" transform="matrix(16,0,0,-16,48.8976,41.275087)"/>
<use data-text="s" xlink:href="#font_1_21" transform="matrix(16,0,0,-16,56.8976,41.275087)"/>
<use data-text=":" xlink:href="#font_1_2" transform="matrix(16,0,0,-16,64.8976,41.275087)"/>
<use data-text="&#xfffd;" xlink:href="#font_4_1" transform="matrix(16,0,0,-16,69.3424,41.275087)"/>
</g>
</svg>
