<svg xmlns="http://www.w3.org/2000/svg" xmlns:xlink="http://www.w3.org/1999/xlink" version="1.1" width="720pt" height="540pt" viewBox="0 0 720 540">
<defs>
<clipPath id="clip_0">
<path transform="matrix(1,0,0,-1,0,540)" d="M0 .00002324581H719.9999V540H0Z"/>
</clipPath>
<path id="font_1_7" d="M.095703128 .4951172V.5625C.15917969 .5686849 .20345052 .5790202 .22851563 .59350588 .25358073 .6079915 .2722982 .6422526 .28466798 .69628909H.3540039V0H.2602539V.4951172H.095703128Z"/>
<path id="font_2_1" d="M0 0Z"/>
<path id="font_1_6" d="M.2705078 .7001953C.3610026 .7001953 .42643229 .66289779 .46679688 .5883026 .49804688 .5306447 .5136719 .45165 .5136719 .35131837 .5136719 .25620524 .49951173 .17754109 .4711914 .11532593 .43017579 .026072184 .3631185-.018554688 .27001954-.018554688 .18603516-.018554688 .123535159 .017929078 .08251953 .09089661 .048339845 .15180969 .03125 .23357137 .03125 .33618165 .03125 .41565959 .041503908 .48390199 .06201172 .5409088 .10042318 .6470998 .16992188 .7001953 .2705078 .7001953M.26953126 .061523439C.31510417 .061523439 .35139976 .08168539 .37841798 .12200928 .4054362 .16234334 .4189453 .23747762 .4189453 .3474121 .4189453 .42676798 .4091797 .49205528 .38964845 .5432739 .3701172 .59450277 .332194 .6201172 .2758789 .6201172 .2241211 .6201172 .1862793 .59580489 .16235352 .5471802 .13842774 .4985555 .12646485 .42692057 .12646485 .3322754 .12646485 .26105754 .13411458 .20381673 .14941406 .16055298 .17285156 .09453329 .21289063 .061523439 .26953126 .061523439Z"/>
<path id="font_3_5" d="M.21582031 .5234375 .2290039 .110946658 .41845704 .5234375H.51708987L.53271487 .11338806 .7265625 .5234375H.8144531L.5517578 0H.46044923L.4399414 .40516664 .25097657 0H.15966797L.119628909 .5234375H.21582031Z"/>
<path id="font_1_9" d="M.25976563-.018554688C.17708333-.018554688 .11710612 .004196167 .079833988 .049697877 .042561849 .095209758 .023925782 .15058391 .023925782 .21582031H.115722659C.119628909 .1704305 .12809246 .13744609 .14111328 .116867069 .16389974 .07997131 .20507813 .061523439 .26464845 .061523439 .3108724 .061523439 .34798179 .07389323 .37597657 .09863281 .40397135 .1233724 .41796876 .15527344 .41796876 .19433594 .41796876 .24251302 .40323893 .27620445 .3737793 .29541017 .34431968 .31461589 .3033854 .32421876 .25097657 .32421876 .24511719 .32421876 .23917644 .32413737 .2331543 .3239746 .22713216 .32381187 .22102864 .32356773 .21484375 .3232422V.4013672C.22395833 .40019737 .23160808 .39941407 .23779297 .39901734 .24397786 .39863078 .25065104 .3984375 .2578125 .3984375 .2906901 .3984375 .31770835 .40363566 .3388672 .41403199 .37597657 .43222047 .39453126 .46470133 .39453126 .5114746 .39453126 .54622396 .38216148 .5730184 .35742188 .5918579 .33268229 .61069747 .3038737 .6201172 .2709961 .6201172 .21240235 .6201172 .171875 .6007131 .14941406 .5619049 .13704427 .5405629 .13004558 .51016238 .12841797 .47070313H.041503908C.041503908 .5225627 .051920576 .5666453 .072753909 .60295107 .108561199 .6677806 .17154949 .7001953 .26171876 .7001953 .3330078 .7001953 .3881836 .6843465 .4272461 .6526489 .4663086 .6209615 .48583985 .5750529 .48583985 .5149231 .48583985 .47201539 .47428385 .4372355 .45117188 .4105835 .43684898 .39401246 .41829429 .38101197 .3955078 .37158204 .43229167 .36149089 .4610189 .34204103 .48168946 .31323243 .50236007 .28442384 .5126953 .2491862 .5126953 .20751953 .5126953 .14078777 .49072267 .08642578 .44677735 .044433595 .40283204 .0024414063 .34049479-.018554688 .25976563-.018554688Z"/>
<path id="font_1_8" d="M.03125 0C.034505208 .060221357 .04695638 .11263021 .068603519 .15722656 .09025065 .20182292 .13248699 .24235027 .1953125 .2788086L.2890625 .3330078C.3310547 .35742188 .3605143 .3782908 .3774414 .39561463 .40413413 .4227346 .41748048 .45377604 .41748048 .488739 .41748048 .52959188 .40527345 .562027 .38085938 .5860443 .3564453 .61006167 .32389323 .6220703 .28320313 .6220703 .22298177 .6220703 .18131511 .5991516 .15820313 .5533142 .14583333 .52875778 .13899739 .4947103 .13769531 .45117188H.048339845C.049316408 .5121663 .060546876 .5619049 .08203125 .6003876 .12011719 .66822817 .18733724 .70214846 .2836914 .70214846 .36376954 .70214846 .4222819 .68047079 .45922853 .6371155 .49617515 .5937703 .51464846 .5455373 .51464846 .49241639 .51464846 .4363556 .49495445 .388443 .4555664 .3486786 .43277995 .3255361 .3919271 .29752604 .3330078 .26464845L.26611329 .22753906C.23421224 .20996094 .20914714 .19319661 .19091797 .1772461 .15836589 .14892578 .13785808 .11751302 .12939453 .08300781H.51123049V0H.03125Z"/>
<path id="font_3_4" d="M.2241211 .6689453H.31298829L.28173829 .5234375H.36523438L.35009767 .45117188H.26660157L.19384766 .10948181C.1899414 .0912323 .19352214 .07901001 .20458985 .07281494 .21077474 .069234218 .22184246 .06744385 .23779297 .06744385 .24202474 .06744385 .24658203 .06752523 .25146485 .06768799 .25634767 .067850749 .26220704 .06825765 .26904298 .06890869L.25439454-.00048828127C.24365235-.0034179688 .23266602-.005533854 .22143555-.0068359377 .21020508-.0081380209 .19824219-.0087890629 .18554688-.0087890629 .14453125-.0087890629 .118896488 .0017191569 .10864258 .022735596 .09838867 .043752035 .096842449 .07104492 .104003909 .10461426L.17773438 .45117188H.106933597L.12207031 .5234375H.1928711L.2241211 .6689453Z"/>
<path id="font_1_1" d="M0 0Z"/>
<path id="font_1_22" d="M.057617189 .71875H.1430664V.45948792C.16227214 .4847056 .18522136 .50394698 .21191406 .5172119 .23860677 .53047689 .26757813 .5371094 .29882813 .5371094 .36393229 .5371094 .41674806 .5147095 .4572754 .46990968 .49780274 .42510987 .5180664 .35905458 .5180664 .27174378 .5180664 .1889801 .49804688 .12022909 .4580078 .06549072 .41796876 .010762532 .36246745-.016601563 .2915039-.016601563 .25179038-.016601563 .21826172-.006942749 .19091797 .012374878 .17464192 .023839316 .15722656 .042175294 .13867188 .06738281V0H.057617189V.71875M.2861328 .061523439C.33365885 .061523439 .36922203 .08037821 .39282228 .11808777 .41642253 .1558075 .42822267 .20555115 .42822267 .26731874 .42822267 .32227073 .41642253 .3677877 .39282228 .40386964 .36922203 .43996177 .33447267 .4580078 .28857423 .4580078 .24853516 .4580078 .21346028 .44321189 .18334961 .41362 .15323894 .3840383 .1381836 .3352712 .1381836 .26731874 .1381836 .21822612 .14436849 .17840068 .15673828 .1478424 .17985027 .090296428 .22298177 .061523439 .2861328 .061523439Z"/>
<path id="font_1_29" d="M.064453128 .5205078H.1538086V0H.064453128V.5205078M.064453128 .71777346H.1538086V.61816409H.064453128V.71777346Z"/>
<path id="font_1_37" d="M.08203125 .66796877H.17089844V.5234375H.25439454V.4501953H.17089844V.110183719C.17089844 .09202576 .17708333 .07986959 .18945313 .07371521 .19628906 .07014465 .2076823 .068359378 .22363281 .068359378 .22786458 .068359378 .23242188 .06846619 .23730469 .06867981 .2421875 .0689036 .24788411 .06944784 .25439454 .0703125V0C.24430339-.0031026204 .23380535-.005340576 .22290039-.006713867 .21199544-.008097331 .20019531-.0087890629 .1875-.0087890629 .14648438-.0087890629 .118652347 .0016988119 .104003909 .02267456 .08935547 .04365031 .08203125 .070882167 .08203125 .10437012V.4501953H.011230469V.5234375H.08203125V.66796877Z"/>
<path id="font_1_36" d="M.11669922 .1640625C.11930338 .13463338 .12662761 .11207072 .13867188 .09637451 .1608073 .06793213 .19921875 .053710939 .25390626 .053710939 .28645835 .053710939 .31510417 .060806276 .33984376 .07499695 .36458335 .08919779 .37695313 .11115011 .37695313 .14085388 .37695313 .16337586 .36702476 .18051148 .34716798 .19226074 .33447267 .19944255 .30940757 .20775859 .27197267 .21720886L.20214844 .2348175C.15755208 .24590557 .12467448 .25829569 .103515628 .27198792 .06575521 .29579164 .046875 .32873027 .046875 .37080384 .046875 .42036439 .064697269 .46046958 .1003418 .49111939 .13598633 .52177938 .18391927 .5371094 .24414063 .5371094 .32291667 .5371094 .37972007 .5139974 .41455079 .46777345 .4363607 .43847657 .4469401 .40690104 .44628907 .37304688H.36328126C.36165367 .39269004 .35465495 .41055808 .34228517 .426651 .32210288 .44950868 .28710938 .4609375 .23730469 .4609375 .20410156 .4609375 .17895508 .45461528 .16186524 .44197084 .14477539 .42933656 .13623047 .41264854 .13623047 .39190675 .13623047 .36922203 .14746094 .35107423 .16992188 .33746339 .1829427 .32936607 .20214844 .32221986 .22753906 .31602479L.28564454 .3018341C.34879557 .28650413 .39111329 .27166749 .41259767 .25732423 .44677735 .23482259 .4638672 .19944255 .4638672 .15118408 .4638672 .10455322 .44620768 .06428019 .41088868 .03036499 .37556968-.0035502117 .32177735-.020507813 .24951172-.020507813 .17171224-.020507813 .116617839-.002802531 .084228519 .032608034 .05183919 .06801859 .034505208 .111836757 .032226564 .1640625H.11669922M.24658203 .5361328V.5361328Z"/>
<path id="font_3_3" d="M.15136719 .1640625C.14778646 .13463338 .15039063 .11207072 .15917969 .09637451 .1751302 .06793213 .21044922 .053710939 .26513673 .053710939 .2976888 .053710939 .32788087 .060806276 .3557129 .07499695 .38354493 .08918762 .40055339 .11112467 .40673829 .1408081 .4116211 .16330974 .40527345 .1804301 .3876953 .19216919 .3766276 .199351 .35335288 .20767212 .3178711 .21713257L.25195313 .23474121C.20963542 .24582927 .17936199 .2582245 .16113281 .27192689 .1282552 .29574076 .116373699 .32868449 .12548828 .37075807 .13590496 .42033897 .16219075 .46045939 .2043457 .49111939 .24650066 .52177938 .2976888 .5371094 .35791017 .5371094 .4366862 .5371094 .48860679 .5139974 .5136719 .46777345 .5292969 .43847657 .5332031 .40690104 .5253906 .37304688H.4423828C.44498698 .39290367 .44173179 .41097007 .4326172 .4272461 .41731773 .45035807 .38476563 .46191407 .33496095 .46191407 .3017578 .46191407 .27530924 .45555116 .25561524 .44282533 .23592122 .43010966 .22379558 .41331483 .21923828 .3924408 .21435547 .36960349 .22167969 .3513387 .24121094 .33764649 .25260417 .32948814 .27034507 .3223114 .2944336 .31611634L.34960938 .30192567C.40950523 .28659568 .44873048 .27175395 .46728517 .2574005 .49658204 .23488872 .50602218 .19949849 .49560548 .15122986 .48583985 .10458883 .4597168 .064305629 .41723634 .030380249 .37475587-.0035451253 .3173828-.020507813 .24511719-.020507813 .1673177-.020507813 .1159668-.002802531 .09106445 .032608034 .06616211 .06801859 .05810547 .111836757 .06689453 .1640625H.15136719Z"/>
<path id="font_3_2" d="M.17480469 .5205078H.26416017L.1538086 0H.064453128L.17480469 .5205078M.21679688 .71777346H.30615235L.28466798 .61816409H.1953125L.21679688 .71777346Z"/>
<path id="font_4_1" d="M0 0Z"/>
<path id="font_1_32" d="M.064453128 .5234375H.15136719V.44921876C.17220052 .4749349 .19108074 .49365235 .20800781 .5053711 .23697917 .52522787 .26985679 .53515627 .30664063 .53515627 .34830729 .53515627 .38183595 .52490237 .40722657 .50439456 .42154948 .49267579 .4345703 .4754232 .44628907 .45263673 .4658203 .4806315 .48876954 .5013835 .5151367 .5148926 .5415039 .5284017 .5711263 .53515627 .6040039 .53515627 .6743164 .53515627 .72216799 .5097402 .7475586 .45890809 .76123049 .43154399 .7680664 .3947296 .7680664 .34846498V0H.6767578V.36367799C.6767578 .39853923 .6680501 .42248536 .65063479 .43551637 .6332194 .44855754 .6119792 .45507813 .58691409 .45507813 .5524089 .45507813 .5227051 .44350688 .49780274 .42036439 .4729004 .39723207 .46044923 .35861717 .46044923 .30451966V0H.37109376V.3416748C.37109376 .37719728 .36686198 .4031016 .35839845 .41938783 .3450521 .4438324 .32014976 .4560547 .2836914 .4560547 .25048829 .4560547 .22029622 .44318138 .19311524 .4174347 .16593425 .3916982 .15234375 .34510295 .15234375 .27764894V0H.064453128V.5234375Z"/>
<path id="font_1_5" d="M.041503908 .32421876H.2866211V.23339844H.041503908V.32421876Z"/>
<path id="font_3_1" d="M.21044922 .71972659H.29589845L.24072266 .45948792C.26513673 .4847056 .29207359 .50394698 .3215332 .5172119 .35099284 .53047689 .38134767 .5371094 .41259767 .5371094 .4777018 .5371094 .52579757 .5147095 .55688479 .46990968 .587972 .42510987 .5942383 .35905458 .5756836 .27174378 .55810549 .1889801 .5234375 .12022909 .4716797 .06549072 .41992188 .010762532 .3585612-.016601563 .28759767-.016601563 .24788411-.016601563 .21647136-.0069986979 .19335938 .012207031 .17936199 .02360026 .16585286 .041829427 .15283203 .06689453L.13867188 0H.057617189L.21044922 .71972659M.48486329 .26731874C.49658204 .32227073 .49446617 .3677877 .47851563 .40386964 .4625651 .43996177 .43164063 .4580078 .3857422 .4580078 .34570313 .4580078 .30745445 .44321189 .2709961 .41362 .23453777 .3840383 .20914714 .3352712 .19482422 .26731874 .18440755 .21822612 .1821289 .17840068 .18798828 .1478424 .19873047 .090296428 .23567708 .061523439 .29882813 .061523439 .34635417 .061523439 .38590495 .08037821 .41748048 .11808777 .449056 .1558075 .47151695 .20555115 .48486329 .26731874Z"/>
<path id="font_1_20" d="M.59814456 .71777346V.63183596H.3564453V0H.2578125V.63183596H.016113282V.71777346H.59814456Z"/>
<path id="font_1_21" d="M.13183594 .1394043C.13183594 .114095058 .14111328 .09413656 .15966797 .07952881 .17822266 .06492106 .20019531 .057617189 .22558594 .057617189 .2565104 .057617189 .28645835 .06471761 .3154297 .07891846 .3642578 .10247803 .38867188 .14127605 .38867188 .1953125V.26611329C.3779297 .25886027 .36409507 .2528127 .34716798 .24797058 .33024089 .24313863 .3136393 .23983257 .29736329 .23805237L.24414063 .23184204C.21223958 .22799683 .1883138 .22153218 .17236328 .21244812 .14534505 .19718933 .13183594 .17284139 .13183594 .1394043M.34472657 .31689454C.36490885 .3194987 .37841798 .32796226 .3852539 .34228517 .38916017 .35012818 .39111329 .36140443 .39111329 .3761139 .39111329 .40618388 .38045249 .42799888 .35913087 .44155885 .33780924 .455129 .30729167 .46191407 .26757813 .46191407 .22167969 .46191407 .18912761 .44948326 .16992188 .42462159 .15917969 .4108785 .15218099 .39043174 .14892578 .36328126H.06689453C.06852213 .42791749 .08943685 .47288514 .12963867 .4981842 .1698405 .5234833 .21647136 .5361328 .26953126 .5361328 .3310547 .5361328 .38102214 .52441409 .4194336 .50097659 .45751954 .47753907 .4765625 .4410502 .4765625 .39151V.08985901C.4765625 .08073425 .47843424 .073404949 .48217774 .067871097 .48592124 .06233724 .4938151 .059570314 .5058594 .059570314 .5097656 .059570314 .51416018 .059814454 .51904299 .060302736 .5239258 .060791017 .5291341 .061523439 .53466799 .0625V-.0028076173C.5209961-.00676473 .5105794-.009236653 .50341799-.010223389 .4962565-.011220296 .48649089-.01171875 .4741211-.01171875 .44384767-.01171875 .421875-.0009104411 .40820313 .020706177 .40104167 .032170614 .3959961 .048380536 .3930664 .06933594 .37516276 .045633954 .34944663 .025060019 .31591798 .0076141359 .2823893-.009831746 .2454427-.018554688 .20507813-.018554688 .15657552-.018554688 .11694336-.0037790936 .08618164 .025772095 .055419923 .055323285 .040039064 .092300418 .040039064 .13670349 .040039064 .18535869 .05517578 .22307332 .08544922 .24984741 .115722659 .2766215 .1554362 .29311119 .20458985 .2993164L.34472657 .31689454M.27197267 .5361328V.5361328Z"/>
<path id="font_1_27" d="M.24902344 .53222659C.29003907 .53222659 .32584635 .5220744 .3564453 .50177 .37304688 .49030558 .38997398 .4736023 .40722657 .45166017V.5185547H.48828126V.04234314C.48828126-.024154664 .47851563-.07663473 .45898438-.115097049 .42252604-.18615215 .35367839-.22167969 .2524414-.22167969 .1961263-.22167969 .14876302-.20906575 .11035156-.18383789 .0719401-.15861003 .05045573-.119140628 .045898439-.06542969H.1352539C.13948567-.08873495 .14794922-.10669454 .16064453-.11930847 .1805013-.13872783 .2117513-.1484375 .25439454-.1484375 .32177735-.1484375 .3658854-.12467448 .38671876-.07714844 .39908854-.04916382 .40478517 .0007985433 .4038086 .07273865 .38623048 .04588318 .36507163 .025904337 .34033204 .012802124 .31559245-.000289917 .2828776-.0068359377 .2421875-.0068359377 .18554688-.0068359377 .13598633 .013280232 .09350586 .053512575 .05102539 .09375509 .029785157 .16030376 .029785157 .25315858 .029785157 .34080506 .051188154 .40922547 .09399414 .4584198 .13680013 .5076243 .18847656 .53222659 .24902344 .53222659M.40722657 .26342774C.40722657 .328125 .39388023 .37607829 .3671875 .4072876 .34049479 .43849693 .30647788 .45410157 .26513673 .45410157 .20328777 .45410157 .16097005 .4251658 .1381836 .3672943 .12613933 .33641053 .12011719 .29593406 .12011719 .24586487 .12011719 .1870168 .13208008 .14223226 .15600586 .11151123 .17993164 .0807902 .21207683 .06542969 .2524414 .06542969 .31559245 .06542969 .36002604 .09387716 .3857422 .1507721 .4000651 .18295796 .40722657 .22050984 .40722657 .26342774M.25927735 .5361328V.5361328Z"/>
<path id="font_1_19" d="M.13964844 .23144531C.14192708 .19064331 .15152996 .1575063 .16845703 .1320343 .2006836 .084376018 .25748698 .060546876 .3388672 .060546876 .37532554 .060546876 .40852867 .06575521 .43847657 .076171878 .49641929 .096354167 .5253906 .13248189 .5253906 .18455506 .5253906 .22361756 .5131836 .25144959 .48876954 .26805116 .46402995 .2843882 .42529298 .29859925 .3725586 .3106842L.27539063 .3327484C.21191406 .3471222 .16699219 .36294047 .140625 .38020326 .095052089 .41016136 .072265628 .4549408 .072265628 .5145416 .072265628 .57902529 .094563808 .6319478 .13916016 .6733093 .18375652 .71467086 .24690755 .73535159 .32861329 .73535159 .4038086 .73535159 .46769206 .7172038 .5202637 .6809082 .57283529 .6446126 .5991211 .58658859 .5991211 .50683596H.5078125C.5029297 .5452474 .49251304 .57470706 .4765625 .59521487 .4469401 .6326497 .39664714 .6513672 .3256836 .6513672 .26839195 .6513672 .22721355 .63931277 .20214844 .61520388 .17708333 .591095 .16455078 .56307479 .16455078 .5311432 .16455078 .49595643 .17919922 .47021995 .2084961 .45393373 .22770183 .44350688 .27115885 .43047587 .3388672 .4148407L.43945313 .39187623C.48795573 .38079835 .5253906 .36565147 .5517578 .34643556 .59733077 .31288658 .6201172 .26419068 .6201172 .2003479 .6201172 .12085978 .59122726 .06401571 .53344729 .029815674 .47566734-.004384359 .40852867-.021484375 .33203126-.021484375 .24283855-.021484375 .17301433 .0013478597 .122558597 .04701233 .07210287 .0923411 .04736328 .15381877 .048339845 .23144531H.13964844M.3359375 .7373047V.7373047Z"/>
<path id="font_1_25" d="M.28222657 .53515627C.31933595 .53515627 .355306 .52644857 .39013673 .5090332 .42496745 .49161784 .4514974 .4690806 .46972657 .4414215 .4873047 .41505433 .49902345 .3842977 .5048828 .3491516 .5100911 .32506309 .5126953 .28647868 .5126953 .23339844H.12939453C.13102214 .18033855 .14355469 .13777669 .16699219 .10571289 .19042969 .073649089 .22672527 .057617189 .2758789 .057617189 .32177735 .057617189 .35839845 .07261658 .3857422 .10261536 .4013672 .12003072 .4124349 .14018758 .4189453 .16308594H.5053711C.50309249 .14398194 .49552409 .122690837 .48266603 .09921265 .46980796 .07574463 .45540367 .05656433 .43945313 .041671754 .4127604 .01576233 .37972007-.0017242432 .34033204-.010787964 .3191732-.01596578 .2952474-.018554688 .2685547-.018554688 .20345052-.018554688 .14827474 .0051472985 .103027347 .05255127 .05777995 .09995524 .03515625 .16634114 .03515625 .25170899 .03515625 .33576457 .057942708 .40401713 .103515628 .45646668 .14908855 .5089264 .20865886 .53515627 .28222657 .53515627M.42236329 .30371095C.41878257 .34191896 .41048179 .37245179 .39746095 .39530946 .3733724 .4377594 .33317057 .45898438 .27685548 .45898438 .23649089 .45898438 .20263672 .44437156 .17529297 .41514588 .14794922 .3859202 .13346355 .34877525 .13183594 .30371095H.42236329M.27392579 .5361328V.5361328Z"/>
<path id="font_1_33" d="M.064453128 .5234375H.14794922V.44921876C.1726888 .47981773 .19889324 .50179037 .2265625 .5151367 .25423179 .5284831 .2849935 .53515627 .31884767 .53515627 .3930664 .53515627 .44319663 .5092519 .46923829 .45744325 .4835612 .42910258 .49072267 .38853965 .49072267 .3357544V0H.4013672V.3299408C.4013672 .36188255 .39664714 .38762919 .38720704 .4071808 .37158204 .4397634 .34326173 .4560547 .3022461 .4560547 .28141276 .4560547 .2643229 .4539388 .25097657 .44970704 .22688802 .4425354 .20572917 .42819724 .1875 .4066925 .17285156 .38941957 .16333008 .37157694 .15893555 .35316468 .15454102 .3347524 .15234375 .30844117 .15234375 .27423097V0H.064453128V.5234375M.2709961 .5361328V.5361328Z"/>
<path id="font_1_24" d="M.12011719 .2553711C.12011719 .19923909 .1319987 .15224712 .15576172 .11439514 .17952474 .076543178 .21761067 .057617189 .27001954 .057617189 .31070964 .057617189 .3441569 .075154628 .37036134 .11022949 .39656578 .14531453 .40966798 .19565328 .40966798 .26124574 .40966798 .32748924 .39615885 .37651573 .36914063 .4083252 .3421224 .44014488 .3087565 .4560547 .26904298 .4560547 .22477214 .4560547 .18888347 .4390869 .16137696 .40515138 .13387044 .37121583 .12011719 .32128907 .12011719 .2553711M.2524414 .53222659C.29248048 .53222659 .32600913 .52381899 .35302735 .5070038 .36865235 .4972992 .38639323 .48031617 .40625 .4560547V.71875H.49072267V0H.4116211V.07229614C.39111329 .04023234 .36686198 .017074585 .3388672 .002822876 .3108724-.011428833 .2788086-.018554688 .24267578-.018554688 .18440755-.018554688 .13395183 .0059407555 .091308597 .05493164 .048665365 .10392252 .02734375 .16910808 .02734375 .25048829 .02734375 .32666017 .04679362 .39265953 .08569336 .44848634 .1245931 .5043132 .18017578 .53222659 .2524414 .53222659Z"/>
<path id="font_1_40" d="M.0146484379 .5234375H.12841797L.24853516 .33918763 .3701172 .5234375 .47705079 .5209961 .30078126 .26831056 .48486329 0H.3725586L.24267578 .19647217 .11669922 0H.0053710939L.18945313 .26831056 .0146484379 .5234375Z"/>
<path id="font_1_17" d="M.34570313 .4140625C.38671876 .4140625 .41861979 .4197693 .44140626 .43118287 .47721354 .4491272 .4951172 .48142497 .4951172 .5280762 .4951172 .57506307 .47607423 .6067098 .43798829 .62301638 .4165039 .6321513 .38460288 .63671877 .34228517 .63671877H.16894531V.4140625H.34570313M.37841798 .08300781C.43798829 .08300781 .48046876 .100224819 .5058594 .13465882 .5218099 .15642803 .52978518 .18274434 .52978518 .21360779 .52978518 .26559959 .50651046 .30101524 .45996095 .31985475 .43522135 .32992555 .4025065 .33496095 .3618164 .33496095H.16894531V.08300781H.37841798M.07373047 .71777346H.38183595C.4658203 .71777346 .5255534 .6926575 .56103518 .64242556 .58186849 .6127421 .59228518 .5784963 .59228518 .5396881 .59228518 .49434916 .57942709 .45716349 .55371096 .4281311 .54036459 .41280113 .5211589 .3987783 .49609376 .38606263 .5328776 .3720754 .5603841 .35629273 .5786133 .3387146 .61083987 .30748496 .6269531 .26437379 .6269531 .2093811 .6269531 .16317749 .61246749 .12136841 .5834961 .08395386 .54020187 .02798462 .47135417 0 .37695313 0H.07373047V.71777346Z"/>
<path id="font_1_31" d="M.06689453 .71777346H.15478516V0H.06689453V.71777346Z"/>
<path id="font_1_34" d="M.27197267 .057617189C.33024089 .057617189 .37019859 .07964579 .3918457 .123703 .41349284 .16776021 .4243164 .21677144 .4243164 .2707367 .4243164 .31950379 .4165039 .35917155 .4008789 .38974 .3761393 .43785606 .3334961 .46191407 .27294923 .46191407 .21923828 .46191407 .18017578 .44143168 .15576172 .40046693 .13134766 .35950218 .119140628 .31008403 .119140628 .25221253 .119140628 .1966095 .13134766 .15027364 .15576172 .113204959 .18017578 .076146449 .21891277 .057617189 .27197267 .057617189M.27539063 .53808596C.34277345 .53808596 .3997396 .5156453 .44628907 .47076417 .49283854 .42588298 .5161133 .35985819 .5161133 .27268983 .5161133 .1884613 .49560548 .11886088 .45458985 .06388855 .41357423 .008926392 .3499349-.018554688 .26367188-.018554688 .19173177-.018554688 .13460286 .00575765 .092285159 .054382326 .04996745 .103006999 .028808594 .16829936 .028808594 .2502594 .028808594 .33806864 .05110677 .4079895 .095703128 .46002198 .14029949 .51206466 .20019531 .53808596 .27539063 .53808596M.27246095 .5361328V.5361328Z"/>
<path id="font_1_23" d="M.26611329 .53808596C.32503257 .53808596 .37296549 .5237274 .4099121 .49501039 .44685874 .46629334 .46907554 .41684977 .4765625 .3466797H.39111329C.38590495 .37890626 .37402345 .40568034 .35546876 .42700196 .33691407 .44832359 .3071289 .45898438 .26611329 .45898438 .2101237 .45898438 .17008464 .43170677 .1459961 .3771515 .1303711 .34176127 .122558597 .29808555 .122558597 .24612427 .122558597 .19384766 .1336263 .14984639 .15576172 .11412048 .17789714 .07840475 .21272786 .060546876 .2602539 .060546876 .29671226 .060546876 .3256022 .0716095 .34692384 .09373474 .36824546 .115859989 .38297526 .1461385 .39111329 .18457031H.4765625C.46679688 .115234378 .4423828 .06453451 .4033203 .032470704 .3642578 .00040690104 .31429038-.015625 .25341798-.015625 .1850586-.015625 .13053386 .009379069 .08984375 .059387208 .049153646 .10940552 .028808594 .17188008 .028808594 .24681092 .028808594 .33868919 .05110677 .41020204 .095703128 .4613495 .14029949 .51250717 .19710286 .53808596 .26611329 .53808596M.2524414 .5361328V.5361328Z"/>
<path id="font_1_30" d="M.0625 .71777346H.14697266V.30101014L.3725586 .5234375H.48486329L.28466798 .32881166 .49609376 0H.38378907L.22070313 .26635743 .14697266 .19647217V0H.0625V.71777346Z"/>
<path id="font_1_26" d="M.08642578 .6021576C.08772787 .638443 .09407552 .66500857 .10546875 .68185427 .12597656 .7116597 .16552735 .7265625 .2241211 .7265625 .22965496 .7265625 .23535156 .7263997 .24121094 .7260742 .24707031 .7257487 .2537435 .72526046 .26123048 .7246094V.64453127C.25211589 .6449687 .2455241 .6452382 .24145508 .64533999 .23738607 .64545187 .2335612 .6455078 .22998047 .6455078 .20328777 .6455078 .18733724 .6386719 .1821289 .625 .17692058 .6113281 .1743164 .5764974 .1743164 .5205078H.26123048V.45117188H.17333985V0H.08642578V.45117188H.013671875V.5205078H.08642578V.6021576Z"/>
<path id="font_1_2" d="M.29589845 .7294922C.24479167 .6301575 .21158855 .55703738 .19628906 .51013186 .17317708 .43881227 .1616211 .3564148 .1616211 .26293946 .1616211 .16848755 .17480469 .08217875 .20117188 .0040130617 .21744792-.044184369 .24951172-.11355591 .29736329-.20410156H.23828125C.1907552-.12984212 .16129558-.08245341 .14990235-.061935426 .13850911-.04141744 .12613933-.013570149 .11279297 .021606446 .094563808 .06980387 .08186849 .1212616 .07470703 .17597962 .071126308 .2043101 .06933594 .23134358 .06933594 .25708009 .06933594 .3534851 .084472659 .43930564 .114746097 .5145416 .13395183 .5624135 .17399089 .6340637 .23486328 .7294922H.29589845Z"/>
<path id="font_1_3" d="M.03466797-.20410156C.08642578-.103139247 .119791667-.029530844 .13476563 .016723633 .15755208 .08674113 .16894531 .16881307 .16894531 .26293946 .16894531 .35706584 .15576172 .44321189 .12939453 .52137759 .11311849 .569575 .08105469 .63894656 .033203126 .7294922H.092285159C.14241536 .64937338 .17277019 .59995016 .18334961 .58122256 .19392903 .56249496 .20540364 .5366821 .21777344 .5037842 .23339844 .46307374 .24454753 .42285157 .2512207 .38311769 .2578939 .3433838 .26123048 .30511476 .26123048 .26831056 .26123048 .17190552 .24593099 .08592224 .21533203 .010360718 .1961263-.03816223 .15625-.10964966 .095703128-.20410156H.03466797Z"/>
<path id="font_1_14" d="M.110839847 .51660159H.21289063V.41015626H.110839847V.51660159M.110839847 .10644531H.21289063V0H.110839847V.10644531Z"/>
<path id="font_1_15" d="M.5541992 .4013672V.31933595H.044921876V.4013672H.5541992M.5541992 .19238281V.10839844H.044921876V.19238281H.5541992Z"/>
<path id="font_1_16" d="M.24072266 .1015625H.33789063V0H.24072266V.1015625M.076171878 .4921875C.076171878 .5626424 .09602865 .61931869 .13574219 .6622162 .17545574 .7051137 .22998047 .7265625 .2993164 .7265625 .363444 .7265625 .41479493 .7082316 .45336915 .6715698 .49194337 .634908 .51123049 .5880585 .51123049 .5310211 .51123049 .49647523 .5041504 .46844483 .48999024 .44692994 .47583009 .4254252 .44726563 .39387004 .40429688 .3522644 .37304688 .32204185 .3527832 .29644776 .34350587 .27548219 .33422853 .25452677 .32958985 .22357178 .32958985 .18261719H.24267578C.24267578 .22909546 .24820964 .2665507 .25927735 .2949829 .27034507 .3234253 .29459635 .3560079 .33203126 .3927307L.37109376 .43125917C.3828125 .44230653 .3922526 .45386253 .39941407 .46592713 .4124349 .48713685 .4189453 .5091553 .4189453 .5319824 .4189453 .56395468 .40942384 .5916799 .39038087 .6151581 .3713379 .6386464 .33984376 .6503906 .29589845 .6503906 .24153646 .6503906 .2039388 .6301473 .18310547 .58966067 .17138672 .5671285 .16471355 .53463748 .16308594 .4921875H.076171878Z"/>
<path id="font_5_2" d="M.5644531 .44433595V.3154297H.03564453V.44433595H.5644531M.5644531 .21582031V.08691406H.03564453V.21582031H.5644531Z"/>
<path id="font_5_1" d="M0 0Z"/>
<path id="font_5_3" d="M.23828125 .14160156H.38378907V0H.23828125V.14160156M.060058595 .49316407C.063964847 .58555099 .096354167 .6510315 .15722656 .6896057 .19563802 .7142436 .24283855 .7265625 .29882813 .7265625 .37239585 .7265625 .43351237 .70906069 .48217774 .674057 .5308431 .63906356 .5551758 .5872142 .5551758 .5185089 .5551758 .4763845 .5445964 .4408976 .5234375 .41204835 .5110677 .3945516 .4873047 .37220256 .45214845 .34500123L.41748048 .31828309C.39860026 .30371604 .38606773 .28671775 .3798828 .2672882 .37597657 .25497947 .3738607 .23587036 .37353517 .20996094H.24169922C.24365235 .26468913 .24886067 .30249534 .25732423 .32337953 .26578776 .3442739 .28759767 .36832176 .3227539 .39552308L.35839845 .4232025C.3701172 .4319509 .37955729 .44148255 .38671876 .4517975 .3997396 .46951805 .40625 .48900859 .40625 .51026919 .40625 .5347646 .39900718 .55707809 .38452149 .5772095 .3700358 .5973511 .34358726 .6074219 .30517579 .6074219 .26741538 .6074219 .24064128 .595047 .22485352 .57029727 .20906575 .5455475 .20117188 .5198364 .20117188 .49316407H.060058595Z"/>
<path id="font_1_18" d="M.09814453 .71777346H.19628906V0H.09814453V.71777346Z"/>
<path id="font_1_4" d="M.08300781-.10253906C.10546875-.098612468 .12125651-.08274841 .1303711-.0549469 .1352539-.040227254 .13769531-.026000977 .13769531-.012268066 .13769531-.009979248 .13761394-.00793457 .13745117-.006134033 .1372884-.004333496 .13688152-.0022888184 .13623047 0H.08300781V.10644531H.1875V.0078125C.1875-.030924479 .1796875-.064941409 .1640625-.09423828 .1484375-.123535159 .12141927-.14160156 .08300781-.1484375V-.10253906Z"/>
<path id="font_1_28" d="M.064453128 .71875H.15234375V.45214845C.17317708 .4786682 .19189453 .4973297 .2084961 .50813296 .2368164 .5267995 .2721354 .5361328 .31445313 .5361328 .39029948 .5361328 .44173179 .50957748 .46875 .45646668 .48339845 .42747499 .49072267 .38723756 .49072267 .3357544V0H.40039063V.32958985C.40039063 .3680013 .3955078 .39615885 .3857422 .4140625 .36979167 .44270835 .33984376 .45703126 .29589845 .45703126 .2594401 .45703126 .22639974 .4444987 .19677735 .4194336 .16715496 .3943685 .15234375 .34700523 .15234375 .27734376V0H.064453128V.71875Z"/>
<path id="font_1_35" d="M.06689453 .5234375H.15039063V.4326172C.15722656 .4502767 .17399089 .4717814 .2006836 .49713136 .2273763 .52248129 .25813804 .53515627 .29296876 .53515627 .29459635 .53515627 .29736329 .5349579 .30126954 .53456118 .30517579 .5341746 .31184898 .5333964 .32128907 .53222659V.43945313C.31608073 .44062297 .3112793 .44140116 .30688478 .44178773 .30249024 .44218446 .2976888 .4423828 .29248048 .4423828 .24820964 .4423828 .2141927 .4280599 .19042969 .39941407 .16666667 .37076823 .15478516 .33789063 .15478516 .30078126V0H.06689453V.5234375Z"/>
<path id="font_1_41" d="M.39111329 .5234375H.48828126C.47591148 .48987834 .44840495 .41330973 .40576173 .2937317 .3738607 .20380657 .34716798 .13049825 .3256836 .07380676 .27490235-.059921266 .23909505-.14145915 .21826172-.17080689 .19742839-.2001648 .1616211-.21484375 .110839847-.21484375 .098470058-.21484375 .08894857-.21435039 .08227539-.21336365 .07560221-.21238709 .06738281-.21058655 .057617189-.20796204V-.1274414C.072916667-.13167317 .083984378-.13427735 .09082031-.1352539 .09765625-.13623047 .10367838-.13671875 .10888672-.13671875 .12516277-.13671875 .13712566-.1340332 .14477539-.12866211 .15242513-.123291019 .15885417-.11669922 .1640625-.10888672 .16569011-.106282558 .17154949-.092936199 .18164063-.068847659 .19173177-.044759115 .19905599-.026855469 .20361328-.015136719L.010253906 .5234375H.10986328L.25 .09727478 .39111329 .5234375M.24951172 .5361328V.5361328Z"/>
<path id="font_1_38" d="M.15234375 .5234375V.17590332C.15234375 .1491801 .15657552 .12734477 .16503906 .11039734 .18066406 .07911682 .20979817 .06347656 .2524414 .06347656 .3136393 .06347656 .355306 .09085083 .3774414 .14559937 .3894857 .17492676 .3955078 .21516927 .3955078 .2663269V.5234375H.48339845V0H.40039063L.4013672 .0771637C.38997398 .057195028 .3758138 .040339155 .35888673 .02659607 .32535807-.00090026858 .28466798-.0146484379 .2368164-.0146484379 .16227214-.0146484379 .11149088 .010299683 .084472659 .060195924 .06982422 .08693949 .0625 .12265015 .0625 .16732788V.5234375H.15234375M.27294923 .5361328V.5361328Z"/>
<path id="font_1_39" d="M.107421878 .5234375 .24707031 .09725952 .3930664 .5234375H.4892578L.2919922 0H.19824219L.0053710939 .5234375H.107421878Z"/>
<path id="font_1_13" d="M.5229492 .6875V.6104126C.5004883 .5888875 .47062174 .55110678 .4333496 .4970703 .39607749 .44303385 .3631185 .38476563 .33447267 .32226563 .30615235 .26139323 .28466798 .20589192 .27001954 .15576172 .26057945 .123535159 .24837239 .071614589 .23339844 0H.13623047C.15836589 .13335164 .20719402 .26605735 .28271485 .39811708 .3273112 .47553 .3741862 .5423686 .42333985 .5986328H.036621095V.6875H.5229492Z"/>
<path id="font_1_10" d="M.3305664 .24902344V.5639038L.10644531 .24902344H.3305664M.33203126 0V.17089844H.025390625V.25827027L.34570313 .7011719H.41992188V.24902344H.5229492V.17089844H.41992188V0H.33203126Z"/>
<path id="font_1_11" d="M.123535159 .17773438C.12939453 .12740071 .15266927 .09259033 .19335938 .07330322 .2141927 .06349691 .23828125 .05859375 .265625 .05859375 .31770835 .05859375 .35628257 .07524618 .38134767 .108551029 .40641276 .14185588 .4189453 .17875672 .4189453 .21925354 .4189453 .26823426 .40405274 .30611167 .37426759 .33288575 .34448243 .35965983 .3087565 .37304688 .26708985 .37304688 .2368164 .37304688 .21085613 .36714173 .18920899 .35533143 .16756185 .34352113 .14908855 .32696534 .13378906 .30566407L.057617189 .31054688 .110839847 .6875H.4741211V.60253909H.17675781L.14697266 .40863038C.1632487 .42115275 .17871094 .4305471 .19335938 .43681336 .21940105 .44768778 .24951172 .453125 .2836914 .453125 .347819 .453125 .402181 .43236796 .44677735 .39085389 .4913737 .3493398 .5136719 .29671226 .5136719 .23297119 .5136719 .1666158 .49324546 .10810343 .45239259 .057434083 .4115397 .0067749025 .34635417-.018554688 .25683595-.018554688 .1998698-.018554688 .14949544-.0024820965 .10571289 .029663086 .06193034 .06180827 .037434896 .11116537 .032226564 .17773438H.123535159Z"/>
<path id="font_1_12" d="M.29248048 .70214846C.37060548 .70214846 .42504884 .6818288 .45581056 .6411896 .48657228 .6005605 .5019531 .5587056 .5019531 .515625H.41503907C.40983073 .5434163 .40152995 .5651601 .39013673 .5808563 .36897788 .61028549 .33691407 .625 .2939453 .625 .24479167 .625 .20572917 .60224917 .17675781 .55674746 .14778646 .5112559 .13167317 .44611613 .12841797 .36132813 .14860027 .39095054 .17399089 .41308595 .20458985 .42773438 .23258464 .44075523 .26383464 .44726563 .29833985 .44726563 .3569336 .44726563 .40804038 .4285482 .45166017 .39111329 .49527995 .35367839 .51708987 .29785157 .51708987 .22363281 .51708987 .16015625 .49641929 .10392252 .45507813 .05493164 .41373698 .0059407555 .35481773-.018554688 .2783203-.018554688 .21289063-.018554688 .15641277 .0062815349 .10888672 .05595398 .061360677 .1056366 .037597658 .18927002 .037597658 .30685426 .037597658 .39382936 .048177083 .4676107 .06933594 .52819827 .11002604 .64416506 .18440755 .70214846 .29248048 .70214846M.2861328 .059570314C.33235679 .059570314 .36694337 .07511393 .38989259 .10620117 .4128418 .1372884 .4243164 .17399089 .4243164 .2163086 .4243164 .25211589 .4140625 .2862142 .3935547 .31860353 .37304688 .35099284 .33577476 .3671875 .28173829 .3671875 .24397786 .3671875 .21085613 .35465495 .18237305 .32958985 .15388997 .30452476 .13964844 .2667643 .13964844 .2163086 .13964844 .17203777 .15258789 .134847 .1784668 .10473633 .2043457 .07462565 .24023438 .059570314 .2861328 .059570314Z"/>
</defs>
<g clip-path="url(#clip_0)">
<path transform="matrix(1,0,0,-1,0,540)" d="M0 539.9999H719.9999V.00003079383H0Z" fill="#ffffff" fill-rule="evenodd"/>
<path transform="matrix(1,0,0,-1,0,540)" d="M128.5 489.2499H586.4999V416.3749H128.5Z" fill="#cbcbcb" fill-rule="evenodd"/>
<path transform="matrix(.00007874014,0,0,.00007874014,128.5,50.75009)" stroke-width="12700" stroke-linecap="butt" stroke-miterlimit="8" stroke-linejoin="miter" fill="none" stroke="#000000" d="M-.06781009 .3195802H5816600V925513.4H-.06781009Z"/>
<path transform="matrix(1,0,0,-1,0,540)" d="M388.5 449.7499H424.5V425.7499H388.5Z" fill="#ffffff" fill-rule="evenodd"/>
<path transform="matrix(.00007874014,0,0,.00007874014,388.5,90.25009)" stroke-width="12700" stroke-linecap="butt" stroke-miterlimit="8" stroke-linejoin="miter" fill="none" stroke="#000000" d="M-.1287842-.1032714H457199.9V304799.9H-.1287842Z"/>
<path transform="matrix(1,0,0,-1,0,540)" d="M284.5 449.7499H320.5V425.7499H284.5Z" fill="#ffffff" fill-rule="evenodd"/>
<path transform="matrix(.00007874014,0,0,.00007874014,284.5,90.25009)" stroke-width="12700" stroke-linecap="butt" stroke-miterlimit="8" stroke-linejoin="miter" fill="none" stroke="#000000" d="M-.08190924-.1032714H457200V304799.9H-.08190924Z"/>
<path transform="matrix(1,0,0,-1,0,540)" d="M146.5 449.7499H182.5V425.7499H146.5Z" fill="#ffffff" fill-rule="evenodd"/>
<path transform="matrix(.00007874014,0,0,.00007874014,146.5,90.25009)" stroke-width="38100" stroke-linecap="butt" stroke-miterlimit="8" stroke-linejoin="miter" fill="none" stroke="#000000" d="M-.03265384-.1032714H457200V304799.9H-.03265384Z"/>
<use data-text="1" xlink:href="#font_1_7" transform="matrix(16,0,0,-16,159.7,108.650089)"/>
<use data-text="&#xfffd;" xlink:href="#font_2_1" transform="matrix(16,0,0,-16,168.5992,108.650089)"/>
<path transform="matrix(1,0,0,-1,0,540)" d="M200.5 449.7499H272.5V425.7499H200.5Z" fill="#ffffff" fill-rule="evenodd"/>
<path transform="matrix(.00007874014,0,0,.00007874014,200.5,90.25009)" stroke-width="38100" stroke-linecap="butt" stroke-miterlimit="8" stroke-linejoin="miter" fill="none" stroke="#000000" d="M-.05218509-.1032714H914399.9V304799.9H-.05218509Z"/>
<use data-text="0" xlink:href="#font_1_6" transform="matrix(16,0,0,-16,218.7,108.650089)"/>
<use data-text="1" xlink:href="#font_1_7" transform="matrix(16,0,0,-16,227.5992,108.650089)"/>
<use data-text="1" xlink:href="#font_1_7" transform="matrix(16,0,0,-16,235.31439,108.650089)"/>
<use data-text="0" xlink:href="#font_1_6" transform="matrix(16,0,0,-16,244.2136,108.650089)"/>
<use data-text="&#xfffd;" xlink:href="#font_2_1" transform="matrix(16,0,0,-16,253.1128,108.650089)"/>
<path transform="matrix(1,0,0,-1,0,540)" d="M320.4999 449.7499H356.4999V425.7499H320.4999Z" fill="#ffffff" fill-rule="evenodd"/>
<path transform="matrix(.00007874014,0,0,.00007874014,320.4999,90.25009)" stroke-width="12700" stroke-linecap="butt" stroke-miterlimit="8" stroke-linejoin="miter" fill="none" stroke="#000000" d="M-.14917-.1032714H457199.9V304799.9H-.14917Z"/>
<path transform="matrix(1,0,0,-1,0,540)" d="M352.5 449.7499H388.5V425.7499H352.5Z" fill="#ffffff" fill-rule="evenodd"/>
<path transform="matrix(.00007874014,0,0,.00007874014,352.5,90.25009)" stroke-width="12700" stroke-linecap="butt" stroke-miterlimit="8" stroke-linejoin="miter" fill="none" stroke="#000000" d="M-.1990967-.1032714H457199.9V304799.9H-.1990967Z"/>
<path transform="matrix(1,0,0,-1,0,540)" d="M526.4999 449.7499H562.4999V425.7499H526.4999Z" fill="#ffffff" fill-rule="evenodd"/>
<path transform="matrix(.00007874014,0,0,.00007874014,526.4999,90.25009)" stroke-width="12700" stroke-linecap="butt" stroke-miterlimit="8" stroke-linejoin="miter" fill="none" stroke="#000000" d="M-.2468263-.1032714H457199.8V304799.9H-.2468263Z"/>
<use data-text="w" xlink:href="#font_3_5" transform="matrix(16,0,0,-16,536.6999,108.650089)"/>
<use data-text="3" xlink:href="#font_1_9" transform="matrix(10.66666,0,0,-10.66666,548.2546,112.650089)"/>
<use data-text="&#xfffd;" xlink:href="#font_2_1" transform="matrix(10.66666,0,0,-10.66666,554.1874,112.650089)"/>
<path transform="matrix(1,0,0,-1,0,540)" d="M422.4999 449.7499H458.4999V425.7499H422.4999Z" fill="#ffffff" fill-rule="evenodd"/>
<path transform="matrix(.00007874014,0,0,.00007874014,422.4999,90.25009)" stroke-width="12700" stroke-linecap="butt" stroke-miterlimit="8" stroke-linejoin="miter" fill="none" stroke="#000000" d="M.05004871-.1032714H457200.1V304799.9H.05004871Z"/>
<use data-text="w" xlink:href="#font_3_5" transform="matrix(16,0,0,-16,432.7,108.650089)"/>
<use data-text="0" xlink:href="#font_1_6" transform="matrix(10.66666,0,0,-10.66666,444.2547,112.650089)"/>
<use data-text="&#xfffd;" xlink:href="#font_2_1" transform="matrix(16,0,0,-16,450.18699,108.650089)"/>
<path transform="matrix(1,0,0,-1,0,540)" d="M458.4999 449.7499H494.4999V425.7499H458.4999Z" fill="#ffffff" fill-rule="evenodd"/>
<path transform="matrix(.00007874014,0,0,.00007874014,458.4999,90.25009)" stroke-width="12700" stroke-linecap="butt" stroke-miterlimit="8" stroke-linejoin="miter" fill="none" stroke="#000000" d="M-.2672121-.1032714H457199.8V304799.9H-.2672121Z"/>
<use data-text="w" xlink:href="#font_3_5" transform="matrix(16,0,0,-16,468.7,108.650089)"/>
<use data-text="1" xlink:href="#font_1_7" transform="matrix(10.66666,0,0,-10.66666,480.2547,112.650089)"/>
<use data-text="&#xfffd;" xlink:href="#font_2_1" transform="matrix(16,0,0,-16,486.18699,108.650089)"/>
<path transform="matrix(1,0,0,-1,0,540)" d="M490.4999 449.7499H526.4999V425.7499H490.4999Z" fill="#ffffff" fill-rule="evenodd"/>
<path transform="matrix(.00007874014,0,0,.00007874014,490.4999,90.25009)" stroke-width="12700" stroke-linecap="butt" stroke-miterlimit="8" stroke-linejoin="miter" fill="none" stroke="#000000" d="M-.3171388-.1032714H457199.8V304799.9H-.3171388Z"/>
<use data-text="w" xlink:href="#font_3_5" transform="matrix(16,0,0,-16,500.6999,108.650089)"/>
<use data-text="2" xlink:href="#font_1_8" transform="matrix(10.66666,0,0,-10.66666,512.2546,112.650089)"/>
<use data-text="&#xfffd;" xlink:href="#font_2_1" transform="matrix(16,0,0,-16,518.1869,108.650089)"/>
<path transform="matrix(.00007874014,0,0,.00007874014,420.7499,90.12509)" stroke-width="38100" stroke-linecap="butt" stroke-miterlimit="8" stroke-linejoin="miter" fill="none" stroke="#000000" d="M.04663074 .2840578H1828800V304800.3H.04663074Z"/>
<path transform="matrix(1,0,0,-1,0,540)" d="M390.4999 480.7499H426.4999V456.7499H390.4999Z" fill="#ffffff" fill-rule="evenodd"/>
<path transform="matrix(.00007874014,0,0,.00007874014,390.4999,59.25009)" stroke-width="12700" stroke-linecap="butt" stroke-miterlimit="8" stroke-linejoin="miter" fill="none" stroke="#000000" d="M-.01245129 .3361818H457200.1V304800.4H-.01245129Z"/>
<path transform="matrix(1,0,0,-1,0,540)" d="M286.5 480.7499H322.5V456.7499H286.5Z" fill="#ffffff" fill-rule="evenodd"/>
<path transform="matrix(.00007874014,0,0,.00007874014,286.5,59.25009)" stroke-width="12700" stroke-linecap="butt" stroke-miterlimit="8" stroke-linejoin="miter" fill="none" stroke="#000000" d="M-.07800299 .3361818H457200V304800.4H-.07800299Z"/>
<path transform="matrix(1,0,0,-1,0,540)" d="M148.5 480.7499H184.5V456.7499H148.5Z" fill="#ffffff" fill-rule="evenodd"/>
<path transform="matrix(.00007874014,0,0,.00007874014,148.5,59.25009)" stroke-width="12700" stroke-linecap="butt" stroke-miterlimit="8" stroke-linejoin="miter" fill="none" stroke="#000000" d="M-.02874759 .3361818H457200V304800.4H-.02874759Z"/>
<use data-text="1" xlink:href="#font_1_7" transform="matrix(16,0,0,-16,161.7,77.650089)"/>
<use data-text="&#xfffd;" xlink:href="#font_2_1" transform="matrix(16,0,0,-16,170.5992,77.650089)"/>
<path transform="matrix(1,0,0,-1,0,540)" d="M202.5 480.7499H274.5V456.7499H202.5Z" fill="#ffffff" fill-rule="evenodd"/>
<path transform="matrix(.00007874014,0,0,.00007874014,202.5,59.25009)" stroke-width="12700" stroke-linecap="butt" stroke-miterlimit="8" stroke-linejoin="miter" fill="none" stroke="#000000" d="M.007934511 .3361818H914400.1V304800.4H.007934511Z"/>
<use data-text="1" xlink:href="#font_1_7" transform="matrix(16,0,0,-16,220.7,77.650089)"/>
<use data-text="0" xlink:href="#font_1_6" transform="matrix(16,0,0,-16,229.5992,77.650089)"/>
<use data-text="0" xlink:href="#font_1_6" transform="matrix(16,0,0,-16,238.4984,77.650089)"/>
<use data-text="1" xlink:href="#font_1_7" transform="matrix(16,0,0,-16,247.3976,77.650089)"/>
<use data-text="&#xfffd;" xlink:href="#font_2_1" transform="matrix(16,0,0,-16,256.2968,77.650089)"/>
<path transform="matrix(1,0,0,-1,0,540)" d="M322.5 480.7499H358.5V456.7499H322.5Z" fill="#ffffff" fill-rule="evenodd"/>
<path transform="matrix(.00007874014,0,0,.00007874014,322.5,59.25009)" stroke-width="12700" stroke-linecap="butt" stroke-miterlimit="8" stroke-linejoin="miter" fill="none" stroke="#000000" d="M-.007690489 .3361818H457200.1V304800.4H-.007690489Z"/>
<path transform="matrix(1,0,0,-1,0,540)" d="M354.5 480.7499H390.5V456.7499H354.5Z" fill="#ffffff" fill-rule="evenodd"/>
<path transform="matrix(.00007874014,0,0,.00007874014,354.5,59.25009)" stroke-width="12700" stroke-linecap="butt" stroke-miterlimit="8" stroke-linejoin="miter" fill="none" stroke="#000000" d="M-.1951905 .3361818H457199.9V304800.4H-.1951905Z"/>
<path transform="matrix(1,0,0,-1,0,540)" d="M528.4999 480.7499H564.4999V456.7499H528.4999Z" fill="#ffffff" fill-rule="evenodd"/>
<path transform="matrix(.00007874014,0,0,.00007874014,528.4999,59.25009)" stroke-width="12700" stroke-linecap="butt" stroke-miterlimit="8" stroke-linejoin="miter" fill="none" stroke="#000000" d="M-.24292 .3361818H457199.8V304800.4H-.24292Z"/>
<path transform="matrix(1,0,0,-1,0,540)" d="M424.5 480.7499H460.5V456.7499H424.5Z" fill="#ffffff" fill-rule="evenodd"/>
<path transform="matrix(.00007874014,0,0,.00007874014,424.5,59.25009)" stroke-width="12700" stroke-linecap="butt" stroke-miterlimit="8" stroke-linejoin="miter" fill="none" stroke="#000000" d="M-.05847174 .3361818H457200V304800.4H-.05847174Z"/>
<path transform="matrix(1,0,0,-1,0,540)" d="M460.4999 480.7499H496.4999V456.7499H460.4999Z" fill="#ffffff" fill-rule="evenodd"/>
<path transform="matrix(.00007874014,0,0,.00007874014,460.4999,59.25009)" stroke-width="12700" stroke-linecap="butt" stroke-miterlimit="8" stroke-linejoin="miter" fill="none" stroke="#000000" d="M.1242675 .3361818H457200.2V304800.4H.1242675Z"/>
<path transform="matrix(1,0,0,-1,0,540)" d="M492.4999 480.7499H528.4999V456.7499H492.4999Z" fill="#ffffff" fill-rule="evenodd"/>
<path transform="matrix(.00007874014,0,0,.00007874014,492.4999,59.25009)" stroke-width="12700" stroke-linecap="butt" stroke-miterlimit="8" stroke-linejoin="miter" fill="none" stroke="#000000" d="M-.3132325 .3361818H457199.8V304800.4H-.3132325Z"/>
<use data-text="t" xlink:href="#font_3_4" transform="matrix(16,0,0,-16,223,234.75)"/>
<use data-text=" " xlink:href="#font_1_1" transform="matrix(16,0,0,-16,227.44532,234.75)"/>
<use data-text="b" xlink:href="#font_1_22" transform="matrix(16,0,0,-16,231.8901,234.75)"/>
<use data-text="i" xlink:href="#font_1_29" transform="matrix(16,0,0,-16,240.7893,234.75)"/>
<use data-text="t" xlink:href="#font_1_37" transform="matrix(16,0,0,-16,244.34452,234.75)"/>
<use data-text="s" xlink:href="#font_1_36" transform="matrix(16,0,0,-16,248.7893,234.75)"/>
<use data-text="&#xfffd;" xlink:href="#font_2_1" transform="matrix(16,0,0,-16,256.7893,234.75)"/>
<use data-text="s" xlink:href="#font_3_3" transform="matrix(16,0,0,-16,309.5,234.75)"/>
<use data-text=" " xlink:href="#font_1_1" transform="matrix(16,0,0,-16,317.5,234.75)"/>
<use data-text="b" xlink:href="#font_1_22" transform="matrix(16,0,0,-16,321.9448,234.75)"/>
<use data-text="i" xlink:href="#font_1_29" transform="matrix(16,0,0,-16,330.844,234.75)"/>
<use data-text="t" xlink:href="#font_1_37" transform="matrix(16,0,0,-16,334.3992,234.75)"/>
<use data-text="s" xlink:href="#font_1_36" transform="matrix(16,0,0,-16,338.844,234.75)"/>
<use data-text="&#xfffd;" xlink:href="#font_2_1" transform="matrix(16,0,0,-16,346.844,234.75)"/>
<path transform="matrix(.00007874014,0,0,.00007874014,371.9999,239.12509)" stroke-width="12700" stroke-linecap="butt" stroke-miterlimit="8" stroke-linejoin="miter" fill="none" stroke="#000000" d="M-.0485841-.06249988H1143000V231775H-.0485841Z"/>
<use data-text="1" xlink:href="#font_1_7" transform="matrix(16,0,0,-16,403.2,254.65009)"/>
<use data-text="0" xlink:href="#font_1_6" transform="matrix(16,0,0,-16,412.0992,254.65009)"/>
<use data-text="0" xlink:href="#font_1_6" transform="matrix(16,0,0,-16,420.9984,254.65009)"/>
<use data-text="&#xfffd;" xlink:href="#font_2_1" transform="matrix(16,0,0,-16,429.8976,254.65009)"/>
<path transform="matrix(.00007874014,0,0,.00007874014,282,239.12509)" stroke-width="12700" stroke-linecap="butt" stroke-miterlimit="8" stroke-linejoin="miter" fill="none" stroke="#000000" d="M-.08679205-.06249988H1143000V231775H-.08679205Z"/>
<use data-text="i" xlink:href="#font_3_2" transform="matrix(16,0,0,-16,324.2,254.65009)"/>
<use data-text="&#xfffd;" xlink:href="#font_4_1" transform="matrix(16,0,0,-16,327.7547,254.65009)"/>
<path transform="matrix(.00007874014,0,0,.00007874014,192,239.12509)" stroke-width="12700" stroke-linecap="butt" stroke-miterlimit="8" stroke-linejoin="miter" fill="none" stroke="#000000" d="M-.06878665-.06249988H1143000V231775H-.06878665Z"/>
<use data-text="0" xlink:href="#font_1_6" transform="matrix(16,0,0,-16,219.2,254.65009)"/>
<use data-text="1" xlink:href="#font_1_7" transform="matrix(16,0,0,-16,228.0992,254.65009)"/>
<use data-text="1" xlink:href="#font_1_7" transform="matrix(16,0,0,-16,235.81439,254.65009)"/>
<use data-text="0" xlink:href="#font_1_6" transform="matrix(16,0,0,-16,244.7136,254.65009)"/>
<use data-text="&#xfffd;" xlink:href="#font_2_1" transform="matrix(16,0,0,-16,253.6128,254.65009)"/>
<use data-text="0" xlink:href="#font_1_6" transform="matrix(10,0,0,-10,461.1999,270.7501)"/>
<use data-text="&#xfffd;" xlink:href="#font_2_1" transform="matrix(10,0,0,-10,466.7619,270.7501)"/>
<use data-text="m" xlink:href="#font_1_32" transform="matrix(10,0,0,-10,191.825,270.7501)"/>
<use data-text="-" xlink:href="#font_1_5" transform="matrix(10,0,0,-10,200.155,270.7501)"/>
<use data-text="1" xlink:href="#font_1_7" transform="matrix(10,0,0,-10,203.485,270.7501)"/>
<use data-text="&#xfffd;" xlink:href="#font_2_1" transform="matrix(10,0,0,-10,209.047,270.7501)"/>
<use data-text="b" xlink:href="#font_3_1" transform="matrix(16,0,0,-16,397.1249,235.87509)"/>
<use data-text=" " xlink:href="#font_1_1" transform="matrix(16,0,0,-16,406.02336,235.87509)"/>
<use data-text="b" xlink:href="#font_1_22" transform="matrix(16,0,0,-16,410.46815,235.87509)"/>
<use data-text="i" xlink:href="#font_1_29" transform="matrix(16,0,0,-16,419.36735,235.87509)"/>
<use data-text="t" xlink:href="#font_1_37" transform="matrix(16,0,0,-16,422.92256,235.87509)"/>
<use data-text="s" xlink:href="#font_1_36" transform="matrix(16,0,0,-16,427.36735,235.87509)"/>
<use data-text="&#xfffd;" xlink:href="#font_2_1" transform="matrix(16,0,0,-16,435.36735,235.87509)"/>
<use data-text="T" xlink:href="#font_1_20" transform="matrix(16,0,0,-16,228.6249,279.8751)"/>
<use data-text="a" xlink:href="#font_1_21" transform="matrix(16,0,0,-16,236.6249,279.8751)"/>
<use data-text="g" xlink:href="#font_1_27" transform="matrix(16,0,0,-16,245.52089,279.8751)"/>
<use data-text="&#xfffd;" xlink:href="#font_2_1" transform="matrix(16,0,0,-16,254.4169,279.8751)"/>
<use data-text="S" xlink:href="#font_1_19" transform="matrix(16,0,0,-16,295.1249,279.8751)"/>
<use data-text="e" xlink:href="#font_1_25" transform="matrix(16,0,0,-16,305.7969,279.8751)"/>
<use data-text="t" xlink:href="#font_1_37" transform="matrix(16,0,0,-16,314.6961,279.8751)"/>
<use data-text=" " xlink:href="#font_1_1" transform="matrix(16,0,0,-16,319.1409,279.8751)"/>
<use data-text="i" xlink:href="#font_1_29" transform="matrix(16,0,0,-16,323.5857,279.8751)"/>
<use data-text="n" xlink:href="#font_1_33" transform="matrix(16,0,0,-16,327.1409,279.8751)"/>
<use data-text="d" xlink:href="#font_1_24" transform="matrix(16,0,0,-16,336.0401,279.8751)"/>
<use data-text="e" xlink:href="#font_1_25" transform="matrix(16,0,0,-16,344.9393,279.8751)"/>
<use data-text="x" xlink:href="#font_1_40" transform="matrix(16,0,0,-16,353.8385,279.8751)"/>
<use data-text="&#xfffd;" xlink:href="#font_2_1" transform="matrix(16,0,0,-16,361.8385,279.8751)"/>
<use data-text="B" xlink:href="#font_1_17" transform="matrix(16,0,0,-16,373.1249,279.8751)"/>
<use data-text="l" xlink:href="#font_1_31" transform="matrix(16,0,0,-16,383.7969,279.8751)"/>
<use data-text="o" xlink:href="#font_1_34" transform="matrix(16,0,0,-16,387.3521,279.8751)"/>
<use data-text="c" xlink:href="#font_1_23" transform="matrix(16,0,0,-16,396.2513,279.8751)"/>
<use data-text="k" xlink:href="#font_1_30" transform="matrix(16,0,0,-16,404.2513,279.8751)"/>
<use data-text=" " xlink:href="#font_1_1" transform="matrix(16,0,0,-16,412.2513,279.8751)"/>
<use data-text="o" xlink:href="#font_1_34" transform="matrix(16,0,0,-16,416.6961,279.8751)"/>
<use data-text="f" xlink:href="#font_1_26" transform="matrix(16,0,0,-16,425.5953,279.8751)"/>
<use data-text="f" xlink:href="#font_1_26" transform="matrix(16,0,0,-16,429.76014,279.8751)"/>
<use data-text="s" xlink:href="#font_1_36" transform="matrix(16,0,0,-16,434.20494,279.8751)"/>
<use data-text="e" xlink:href="#font_1_25" transform="matrix(16,0,0,-16,442.20494,279.8751)"/>
<use data-text="t" xlink:href="#font_1_37" transform="matrix(16,0,0,-16,451.10414,279.8751)"/>
<use data-text="&#xfffd;" xlink:href="#font_2_1" transform="matrix(16,0,0,-16,455.54893,279.8751)"/>
<use data-text="S" xlink:href="#font_1_19" transform="matrix(16,0,0,-16,16.32504,96.400089)"/>
<use data-text="e" xlink:href="#font_1_25" transform="matrix(16,0,0,-16,26.997042,96.400089)"/>
<use data-text="l" xlink:href="#font_1_31" transform="matrix(16,0,0,-16,35.89624,96.400089)"/>
<use data-text="e" xlink:href="#font_1_25" transform="matrix(16,0,0,-16,39.451444,96.400089)"/>
<use data-text="c" xlink:href="#font_1_23" transform="matrix(16,0,0,-16,48.350648,96.400089)"/>
<use data-text="t" xlink:href="#font_1_37" transform="matrix(16,0,0,-16,56.350648,96.400089)"/>
<use data-text="e" xlink:href="#font_1_25" transform="matrix(16,0,0,-16,60.79545,96.400089)"/>
<use data-text="d" xlink:href="#font_1_24" transform="matrix(16,0,0,-16,69.69465,96.400089)"/>
<use data-text=" " xlink:href="#font_1_1" transform="matrix(16,0,0,-16,78.59385,96.400089)"/>
<use data-text="s" xlink:href="#font_1_36" transform="matrix(16,0,0,-16,83.03865,96.400089)"/>
<use data-text="e" xlink:href="#font_1_25" transform="matrix(16,0,0,-16,91.03865,96.400089)"/>
<use data-text="t" xlink:href="#font_1_37" transform="matrix(16,0,0,-16,99.93785,96.400089)"/>
<use data-text=" " xlink:href="#font_1_1" transform="matrix(16,0,0,-16,104.38265,96.400089)"/>
<use data-text="(" xlink:href="#font_1_2" transform="matrix(16,0,0,-16,108.82745,96.400089)"/>
<use data-text="i" xlink:href="#font_3_2" transform="matrix(16,0,0,-16,114.15316,96.400089)"/>
<use data-text=")" xlink:href="#font_1_3" transform="matrix(16,0,0,-16,117.70784,96.400089)"/>
<use data-text=":" xlink:href="#font_1_14" transform="matrix(16,0,0,-16,123.03584,96.400089)"/>
<use data-text="&#xfffd;" xlink:href="#font_2_1" transform="matrix(16,0,0,-16,127.480648,96.400089)"/>
<use data-text="=" xlink:href="#font_1_15" transform="matrix(16,0,0,-16,152.325,14.150085)"/>
<use data-text="1" xlink:href="#font_1_7" transform="matrix(16,0,0,-16,161.66899,14.150085)"/>
<use data-text="?" xlink:href="#font_1_16" transform="matrix(16,0,0,-16,170.5682,14.150085)"/>
<use data-text="&#xfffd;" xlink:href="#font_2_1" transform="matrix(16,0,0,-16,179.4674,14.150085)"/>
<path transform="matrix(0,-.00007874014,.00007874014,0,374.4999,220.37509)" stroke-width="12700" stroke-linecap="butt" stroke-linejoin="round" fill="none" stroke="#000000" d="M-.150879-.04370129C42084.11-.04370129 76199.86 41460.22 76199.86 92604.01V463021C76199.86 514164.8 110315.6 555625.1 152399.9 555625.1 110315.6 555625.1 76199.86 597085.3 76199.86 648229.1V1018646C76199.86 1069790 42084.11 1111250-.150879 1111250"/>
<path transform="matrix(0,-.00007874014,.00007874014,0,192,220.37509)" stroke-width="12700" stroke-linecap="butt" stroke-linejoin="round" fill="none" stroke="#000000" d="M-.150879-.06878665C42084.11-.06878665 76199.86 41460.2 76199.86 92603.98V463021C76199.86 514164.8 110315.6 555625 152399.9 555625 110315.6 555625 76199.86 597085.1 76199.86 648228.9V1018646C76199.86 1069790 42084.11 1111250-.150879 1111250"/>
<use data-text="=" xlink:href="#font_5_2" transform="matrix(16,0,0,-16,225.075,173.52509)"/>
<use data-text=" " xlink:href="#font_5_1" transform="matrix(16,0,0,-16,234.41899,173.52509)"/>
<use data-text="?" xlink:href="#font_5_3" transform="matrix(16,0,0,-16,238.8638,173.52509)"/>
<use data-text="&#xfffd;" xlink:href="#font_2_1" transform="matrix(16,0,0,-16,248.6375,173.52509)"/>
<path transform="matrix(.00007874014,0,0,.00007874014,236,179.12509)" stroke-width="12700" stroke-linecap="butt" stroke-linejoin="round" fill="none" stroke="#000000" d="M-.1204225 25399.96V369887.5"/>
<path transform="matrix(1,0,0,-1,0,540)" d="M233 354.8749 236 360.8749 239 354.8749Z" fill-rule="evenodd"/>
<path transform="matrix(.00007874014,0,0,-.00007874014,417.4999,181.37509)" stroke-width="12700" stroke-linecap="butt" stroke-linejoin="round" fill="none" stroke="#000000" d="M.04028308 .03771955 317500.1 1.200439"/>
<path transform="matrix(.00007874014,0,0,.00007874014,417.9999,181.87509)" stroke-width="12700" stroke-linecap="butt" stroke-linejoin="round" fill="none" stroke="#000000" d="M.04125965-.03674299 1.203979 369887.1"/>
<use data-text="(" xlink:href="#font_1_2" transform="matrix(16,0,0,-16,483.69599,153.3501)"/>
<use data-text="3" xlink:href="#font_1_9" transform="matrix(16,0,0,-16,489.024,153.3501)"/>
<use data-text=")" xlink:href="#font_1_3" transform="matrix(16,0,0,-16,497.9232,153.3501)"/>
<use data-text=" " xlink:href="#font_1_1" transform="matrix(16,0,0,-16,503.2512,153.3501)"/>
<use data-text="I" xlink:href="#font_1_18" transform="matrix(16,0,0,-16,507.69599,153.3501)"/>
<use data-text="f" xlink:href="#font_1_26" transform="matrix(16,0,0,-16,512.1408,153.3501)"/>
<use data-text=" " xlink:href="#font_1_1" transform="matrix(16,0,0,-16,516.5856,153.3501)"/>
<use data-text="(" xlink:href="#font_1_2" transform="matrix(16,0,0,-16,521.0304,153.3501)"/>
<use data-text="1" xlink:href="#font_1_7" transform="matrix(16,0,0,-16,526.3584,153.3501)"/>
<use data-text=")" xlink:href="#font_1_3" transform="matrix(16,0,0,-16,535.25759,153.3501)"/>
<use data-text=" " xlink:href="#font_1_1" transform="matrix(16,0,0,-16,540.5856,153.3501)"/>
<use data-text="a" xlink:href="#font_1_21" transform="matrix(16,0,0,-16,545.0304,153.3501)"/>
<use data-text="n" xlink:href="#font_1_33" transform="matrix(16,0,0,-16,553.92959,153.3501)"/>
<use data-text="d" xlink:href="#font_1_24" transform="matrix(16,0,0,-16,562.8288,153.3501)"/>
<use data-text=" " xlink:href="#font_1_1" transform="matrix(16,0,0,-16,571.728,153.3501)"/>
<use data-text="(" xlink:href="#font_1_2" transform="matrix(16,0,0,-16,576.1728,153.3501)"/>
<use data-text="2" xlink:href="#font_1_8" transform="matrix(16,0,0,-16,581.5008,153.3501)"/>
<use data-text=")" xlink:href="#font_1_3" transform="matrix(16,0,0,-16,590.4,153.3501)"/>
<use data-text="," xlink:href="#font_1_4" transform="matrix(16,0,0,-16,595.728,153.3501)"/>
<use data-text=" " xlink:href="#font_1_1" transform="matrix(16,0,0,-16,600.1728,153.3501)"/>
<use data-text="t" xlink:href="#font_1_37" transform="matrix(16,0,0,-16,604.6176,153.3501)"/>
<use data-text="h" xlink:href="#font_1_28" transform="matrix(16,0,0,-16,609.0624,153.3501)"/>
<use data-text="e" xlink:href="#font_1_25" transform="matrix(16,0,0,-16,617.9616,153.3501)"/>
<use data-text="n" xlink:href="#font_1_33" transform="matrix(16,0,0,-16,626.8608,153.3501)"/>
<use data-text=" " xlink:href="#font_1_1" transform="matrix(16,0,0,-16,635.76,153.3501)"/>
<use data-text="&#xfffd;" xlink:href="#font_2_1" transform="matrix(16,0,0,-16,635.76,153.3501)"/>
<use data-text="c" xlink:href="#font_1_23" transform="matrix(16,0,0,-16,512.1374,172.3501)"/>
<use data-text="a" xlink:href="#font_1_21" transform="matrix(16,0,0,-16,520.1374,172.3501)"/>
<use data-text="c" xlink:href="#font_1_23" transform="matrix(16,0,0,-16,529.0366,172.3501)"/>
<use data-text="h" xlink:href="#font_1_28" transform="matrix(16,0,0,-16,537.0366,172.3501)"/>
<use data-text="e" xlink:href="#font_1_25" transform="matrix(16,0,0,-16,545.9358,172.3501)"/>
<use data-text=" " xlink:href="#font_1_1" transform="matrix(16,0,0,-16,554.83499,172.3501)"/>
<use data-text="h" xlink:href="#font_1_28" transform="matrix(16,0,0,-16,559.2798,172.3501)"/>
<use data-text="i" xlink:href="#font_1_29" transform="matrix(16,0,0,-16,568.179,172.3501)"/>
<use data-text="t" xlink:href="#font_1_37" transform="matrix(16,0,0,-16,571.7342,172.3501)"/>
<use data-text="," xlink:href="#font_1_4" transform="matrix(16,0,0,-16,576.179,172.3501)"/>
<use data-text=" " xlink:href="#font_1_1" transform="matrix(16,0,0,-16,580.6238,172.3501)"/>
<use data-text="a" xlink:href="#font_1_21" transform="matrix(16,0,0,-16,585.0686,172.3501)"/>
<use data-text="n" xlink:href="#font_1_33" transform="matrix(16,0,0,-16,593.9678,172.3501)"/>
<use data-text="d" xlink:href="#font_1_24" transform="matrix(16,0,0,-16,602.867,172.3501)"/>
<use data-text="&#xfffd;" xlink:href="#font_2_1" transform="matrix(16,0,0,-16,607.31979,172.3501)"/>
<use data-text=" " xlink:href="#font_1_1" transform="matrix(16,0,0,-16,487.8366,191.3501)"/>
<use data-text="b" xlink:href="#font_1_22" transform="matrix(16,0,0,-16,492.2814,191.3501)"/>
<use data-text="l" xlink:href="#font_1_31" transform="matrix(16,0,0,-16,501.1806,191.3501)"/>
<use data-text="o" xlink:href="#font_1_34" transform="matrix(16,0,0,-16,504.7358,191.3501)"/>
<use data-text="c" xlink:href="#font_1_23" transform="matrix(16,0,0,-16,513.635,191.3501)"/>
<use data-text="k" xlink:href="#font_1_30" transform="matrix(16,0,0,-16,521.635,191.3501)"/>
<use data-text=" " xlink:href="#font_1_1" transform="matrix(16,0,0,-16,529.635,191.3501)"/>
<use data-text=" " xlink:href="#font_1_1" transform="matrix(16,0,0,-16,534.07986,191.3501)"/>
<use data-text="o" xlink:href="#font_1_34" transform="matrix(16,0,0,-16,538.5246,191.3501)"/>
<use data-text="f" xlink:href="#font_1_26" transform="matrix(16,0,0,-16,547.4238,191.3501)"/>
<use data-text="f" xlink:href="#font_1_26" transform="matrix(16,0,0,-16,551.5886,191.3501)"/>
<use data-text="s" xlink:href="#font_1_36" transform="matrix(16,0,0,-16,556.0334,191.3501)"/>
<use data-text="e" xlink:href="#font_1_25" transform="matrix(16,0,0,-16,564.0334,191.3501)"/>
<use data-text="t" xlink:href="#font_1_37" transform="matrix(16,0,0,-16,572.9326,191.3501)"/>
<use data-text=" " xlink:href="#font_1_1" transform="matrix(16,0,0,-16,577.37747,191.3501)"/>
<use data-text="s" xlink:href="#font_1_36" transform="matrix(16,0,0,-16,581.8222,191.3501)"/>
<use data-text="e" xlink:href="#font_1_25" transform="matrix(16,0,0,-16,589.8222,191.3501)"/>
<use data-text="l" xlink:href="#font_1_31" transform="matrix(16,0,0,-16,598.72146,191.3501)"/>
<use data-text="e" xlink:href="#font_1_25" transform="matrix(16,0,0,-16,602.2766,191.3501)"/>
<use data-text="c" xlink:href="#font_1_23" transform="matrix(16,0,0,-16,611.1758,191.3501)"/>
<use data-text="t" xlink:href="#font_1_37" transform="matrix(16,0,0,-16,619.1758,191.3501)"/>
<use data-text="s" xlink:href="#font_1_36" transform="matrix(16,0,0,-16,623.6206,191.3501)"/>
<use data-text=" " xlink:href="#font_1_1" transform="matrix(16,0,0,-16,631.6206,191.3501)"/>
<use data-text="&#xfffd;" xlink:href="#font_2_1" transform="matrix(16,0,0,-16,631.6206,191.3501)"/>
<use data-text="s" xlink:href="#font_1_36" transform="matrix(16,0,0,-16,518.37179,210.3501)"/>
<use data-text="t" xlink:href="#font_1_37" transform="matrix(16,0,0,-16,526.37179,210.3501)"/>
<use data-text="a" xlink:href="#font_1_21" transform="matrix(16,0,0,-16,530.8166,210.3501)"/>
<use data-text="r" xlink:href="#font_1_35" transform="matrix(16,0,0,-16,539.71578,210.3501)"/>
<use data-text="t" xlink:href="#font_1_37" transform="matrix(16,0,0,-16,545.04379,210.3501)"/>
<use data-text="i" xlink:href="#font_1_29" transform="matrix(16,0,0,-16,549.4886,210.3501)"/>
<use data-text="n" xlink:href="#font_1_33" transform="matrix(16,0,0,-16,553.04379,210.3501)"/>
<use data-text="g" xlink:href="#font_1_27" transform="matrix(16,0,0,-16,561.943,210.3501)"/>
<use data-text=" " xlink:href="#font_1_1" transform="matrix(16,0,0,-16,570.84219,210.3501)"/>
<use data-text="b" xlink:href="#font_1_22" transform="matrix(16,0,0,-16,575.287,210.3501)"/>
<use data-text="y" xlink:href="#font_1_41" transform="matrix(16,0,0,-16,584.18618,210.3501)"/>
<use data-text="t" xlink:href="#font_1_37" transform="matrix(16,0,0,-16,592.18618,210.3501)"/>
<use data-text="e" xlink:href="#font_1_25" transform="matrix(16,0,0,-16,596.631,210.3501)"/>
<use data-text="&#xfffd;" xlink:href="#font_2_1" transform="matrix(16,0,0,-16,601.08377,210.3501)"/>
<use data-text="(" xlink:href="#font_1_2" transform="matrix(16,0,0,-16,9.825001,161.3501)"/>
<use data-text="2" xlink:href="#font_1_8" transform="matrix(16,0,0,-16,15.153,161.3501)"/>
<use data-text=")" xlink:href="#font_1_3" transform="matrix(16,0,0,-16,24.0522,161.3501)"/>
<use data-text=" " xlink:href="#font_1_1" transform="matrix(16,0,0,-16,29.3802,161.3501)"/>
<use data-text="T" xlink:href="#font_1_20" transform="matrix(16,0,0,-16,33.544996,161.3501)"/>
<use data-text="h" xlink:href="#font_1_28" transform="matrix(16,0,0,-16,43.3178,161.3501)"/>
<use data-text="e" xlink:href="#font_1_25" transform="matrix(16,0,0,-16,52.217,161.3501)"/>
<use data-text=" " xlink:href="#font_1_1" transform="matrix(16,0,0,-16,61.1162,161.3501)"/>
<use data-text="t" xlink:href="#font_1_37" transform="matrix(16,0,0,-16,65.561008,161.3501)"/>
<use data-text="a" xlink:href="#font_1_21" transform="matrix(16,0,0,-16,70.0058,161.3501)"/>
<use data-text="g" xlink:href="#font_1_27" transform="matrix(16,0,0,-16,78.905,161.3501)"/>
<use data-text=" " xlink:href="#font_1_1" transform="matrix(16,0,0,-16,87.8042,161.3501)"/>
<use data-text="b" xlink:href="#font_1_22" transform="matrix(16,0,0,-16,92.24901,161.3501)"/>
<use data-text="i" xlink:href="#font_1_29" transform="matrix(16,0,0,-16,101.14821,161.3501)"/>
<use data-text="t" xlink:href="#font_1_37" transform="matrix(16,0,0,-16,104.703418,161.3501)"/>
<use data-text="s" xlink:href="#font_1_36" transform="matrix(16,0,0,-16,109.14821,161.3501)"/>
<use data-text=" " xlink:href="#font_1_1" transform="matrix(16,0,0,-16,117.14821,161.3501)"/>
<use data-text="i" xlink:href="#font_1_29" transform="matrix(16,0,0,-16,121.593,161.3501)"/>
<use data-text="n" xlink:href="#font_1_33" transform="matrix(16,0,0,-16,125.14821,161.3501)"/>
<use data-text=" " xlink:href="#font_1_1" transform="matrix(16,0,0,-16,134.04741,161.3501)"/>
<use data-text="o" xlink:href="#font_1_34" transform="matrix(16,0,0,-16,138.4922,161.3501)"/>
<use data-text="n" xlink:href="#font_1_33" transform="matrix(16,0,0,-16,147.3914,161.3501)"/>
<use data-text="e" xlink:href="#font_1_25" transform="matrix(16,0,0,-16,156.2906,161.3501)"/>
<use data-text=" " xlink:href="#font_1_1" transform="matrix(16,0,0,-16,165.1898,161.3501)"/>
<use data-text=" " xlink:href="#font_1_1" transform="matrix(16,0,0,-16,169.6346,161.3501)"/>
<use data-text="&#xfffd;" xlink:href="#font_2_1" transform="matrix(16,0,0,-16,169.6346,161.3501)"/>
<use data-text="o" xlink:href="#font_1_34" transform="matrix(16,0,0,-16,7.907032,180.3501)"/>
<use data-text="f" xlink:href="#font_1_26" transform="matrix(16,0,0,-16,16.806233,180.3501)"/>
<use data-text=" " xlink:href="#font_1_1" transform="matrix(16,0,0,-16,21.251034,180.3501)"/>
<use data-text="t" xlink:href="#font_1_37" transform="matrix(16,0,0,-16,25.695836,180.3501)"/>
<use data-text="h" xlink:href="#font_1_28" transform="matrix(16,0,0,-16,30.140637,180.3501)"/>
<use data-text="e" xlink:href="#font_1_25" transform="matrix(16,0,0,-16,39.039838,180.3501)"/>
<use data-text=" " xlink:href="#font_1_1" transform="matrix(16,0,0,-16,47.939039,180.3501)"/>
<use data-text="c" xlink:href="#font_1_23" transform="matrix(16,0,0,-16,52.38384,180.3501)"/>
<use data-text="a" xlink:href="#font_1_21" transform="matrix(16,0,0,-16,60.38384,180.3501)"/>
<use data-text="c" xlink:href="#font_1_23" transform="matrix(16,0,0,-16,69.283039,180.3501)"/>
<use data-text="h" xlink:href="#font_1_28" transform="matrix(16,0,0,-16,77.283039,180.3501)"/>
<use data-text="e" xlink:href="#font_1_25" transform="matrix(16,0,0,-16,86.182239,180.3501)"/>
<use data-text=" " xlink:href="#font_1_1" transform="matrix(16,0,0,-16,95.081439,180.3501)"/>
<use data-text="l" xlink:href="#font_1_31" transform="matrix(16,0,0,-16,99.52623,180.3501)"/>
<use data-text="i" xlink:href="#font_1_29" transform="matrix(16,0,0,-16,103.081439,180.3501)"/>
<use data-text="n" xlink:href="#font_1_33" transform="matrix(16,0,0,-16,106.63664,180.3501)"/>
<use data-text="e" xlink:href="#font_1_25" transform="matrix(16,0,0,-16,115.53584,180.3501)"/>
<use data-text="s" xlink:href="#font_1_36" transform="matrix(16,0,0,-16,124.43504,180.3501)"/>
<use data-text=" " xlink:href="#font_1_1" transform="matrix(16,0,0,-16,132.43505,180.3501)"/>
<use data-text="m" xlink:href="#font_1_32" transform="matrix(16,0,0,-16,136.87984,180.3501)"/>
<use data-text="u" xlink:href="#font_1_38" transform="matrix(16,0,0,-16,150.20784,180.3501)"/>
<use data-text="s" xlink:href="#font_1_36" transform="matrix(16,0,0,-16,159.10704,180.3501)"/>
<use data-text="t" xlink:href="#font_1_37" transform="matrix(16,0,0,-16,167.10704,180.3501)"/>
<use data-text=" " xlink:href="#font_1_1" transform="matrix(16,0,0,-16,171.55184,180.3501)"/>
<use data-text="&#xfffd;" xlink:href="#font_2_1" transform="matrix(16,0,0,-16,171.55184,180.3501)"/>
<use data-text="m" xlink:href="#font_1_32" transform="matrix(16,0,0,-16,20.35625,199.3501)"/>
<use data-text="a" xlink:href="#font_1_21" transform="matrix(16,0,0,-16,33.684255,199.3501)"/>
<use data-text="t" xlink:href="#font_1_37" transform="matrix(16,0,0,-16,42.583456,199.3501)"/>
<use data-text="c" xlink:href="#font_1_23" transform="matrix(16,0,0,-16,47.028257,199.3501)"/>
<use data-text="h" xlink:href="#font_1_28" transform="matrix(16,0,0,-16,55.028257,199.3501)"/>
<use data-text=" " xlink:href="#font_1_1" transform="matrix(16,0,0,-16,63.927457,199.3501)"/>
<use data-text="t" xlink:href="#font_1_37" transform="matrix(16,0,0,-16,68.37225,199.3501)"/>
<use data-text="h" xlink:href="#font_1_28" transform="matrix(16,0,0,-16,72.81706,199.3501)"/>
<use data-text="e" xlink:href="#font_1_25" transform="matrix(16,0,0,-16,81.71626,199.3501)"/>
<use data-text=" " xlink:href="#font_1_1" transform="matrix(16,0,0,-16,90.61546,199.3501)"/>
<use data-text="t" xlink:href="#font_1_37" transform="matrix(16,0,0,-16,95.06026,199.3501)"/>
<use data-text="a" xlink:href="#font_1_21" transform="matrix(16,0,0,-16,99.50505,199.3501)"/>
<use data-text="g" xlink:href="#font_1_27" transform="matrix(16,0,0,-16,108.40425,199.3501)"/>
<use data-text=" " xlink:href="#font_1_1" transform="matrix(16,0,0,-16,117.30345,199.3501)"/>
<use data-text="b" xlink:href="#font_1_22" transform="matrix(16,0,0,-16,121.748249,199.3501)"/>
<use data-text="i" xlink:href="#font_1_29" transform="matrix(16,0,0,-16,130.64745,199.3501)"/>
<use data-text="t" xlink:href="#font_1_37" transform="matrix(16,0,0,-16,134.20265,199.3501)"/>
<use data-text="s" xlink:href="#font_1_36" transform="matrix(16,0,0,-16,138.64745,199.3501)"/>
<use data-text=" " xlink:href="#font_1_1" transform="matrix(16,0,0,-16,146.64745,199.3501)"/>
<use data-text="i" xlink:href="#font_1_29" transform="matrix(16,0,0,-16,151.09224,199.3501)"/>
<use data-text="n" xlink:href="#font_1_33" transform="matrix(16,0,0,-16,154.64745,199.3501)"/>
<use data-text="&#xfffd;" xlink:href="#font_2_1" transform="matrix(16,0,0,-16,159.10024,199.3501)"/>
<use data-text="t" xlink:href="#font_1_37" transform="matrix(16,0,0,-16,50.145315,218.3501)"/>
<use data-text="h" xlink:href="#font_1_28" transform="matrix(16,0,0,-16,54.590116,218.3501)"/>
<use data-text="e" xlink:href="#font_1_25" transform="matrix(16,0,0,-16,63.489316,218.3501)"/>
<use data-text=" " xlink:href="#font_1_1" transform="matrix(16,0,0,-16,72.38852,218.3501)"/>
<use data-text="a" xlink:href="#font_1_21" transform="matrix(16,0,0,-16,76.83331,218.3501)"/>
<use data-text="d" xlink:href="#font_1_24" transform="matrix(16,0,0,-16,85.73251,218.3501)"/>
<use data-text="d" xlink:href="#font_1_24" transform="matrix(16,0,0,-16,94.631717,218.3501)"/>
<use data-text="r" xlink:href="#font_1_35" transform="matrix(16,0,0,-16,103.530918,218.3501)"/>
<use data-text="e" xlink:href="#font_1_25" transform="matrix(16,0,0,-16,108.85892,218.3501)"/>
<use data-text="s" xlink:href="#font_1_36" transform="matrix(16,0,0,-16,117.75812,218.3501)"/>
<use data-text="s" xlink:href="#font_1_36" transform="matrix(16,0,0,-16,125.75812,218.3501)"/>
<use data-text="&#xfffd;" xlink:href="#font_2_1" transform="matrix(16,0,0,-16,129.31333,218.3501)"/>
<path transform="matrix(.00007874014,0,0,-.00007874014,155.75,58.75009)" stroke-width="12700" stroke-linecap="butt" stroke-linejoin="round" fill="none" stroke="#000000" d="M-.08337408-.3352052V431799.7"/>
<path transform="matrix(1,0,0,-1,0,540)" d="M158.75 511.2499 155.75 517.2499 152.75 511.2499Z" fill-rule="evenodd"/>
<path transform="matrix(.00007874014,0,0,-.00007874014,170.75,90.12509)" stroke-width="12700" stroke-linecap="butt" stroke-linejoin="round" fill="none" stroke="#000000" d="M-.05407721-.2840578V830261.9"/>
<path transform="matrix(1,0,0,-1,0,540)" d="M173.75 511.2499 170.75 517.2499 167.75 511.2499Z" fill-rule="evenodd"/>
<use data-text="(" xlink:href="#font_1_2" transform="matrix(16,0,0,-16,201.2,13.025085)"/>
<use data-text="1" xlink:href="#font_1_7" transform="matrix(16,0,0,-16,206.528,13.025085)"/>
<use data-text=")" xlink:href="#font_1_3" transform="matrix(16,0,0,-16,215.4272,13.025085)"/>
<use data-text=" " xlink:href="#font_1_1" transform="matrix(16,0,0,-16,220.7552,13.025085)"/>
<use data-text="T" xlink:href="#font_1_20" transform="matrix(16,0,0,-16,224.92,13.025085)"/>
<use data-text="h" xlink:href="#font_1_28" transform="matrix(16,0,0,-16,234.6928,13.025085)"/>
<use data-text="e" xlink:href="#font_1_25" transform="matrix(16,0,0,-16,243.592,13.025085)"/>
<use data-text=" " xlink:href="#font_1_1" transform="matrix(16,0,0,-16,252.4912,13.025085)"/>
<use data-text="v" xlink:href="#font_1_39" transform="matrix(16,0,0,-16,256.936,13.025085)"/>
<use data-text="a" xlink:href="#font_1_21" transform="matrix(16,0,0,-16,264.936,13.025085)"/>
<use data-text="l" xlink:href="#font_1_31" transform="matrix(16,0,0,-16,273.8352,13.025085)"/>
<use data-text="i" xlink:href="#font_1_29" transform="matrix(16,0,0,-16,277.39039,13.025085)"/>
<use data-text="d" xlink:href="#font_1_24" transform="matrix(16,0,0,-16,280.9456,13.025085)"/>
<use data-text=" " xlink:href="#font_1_1" transform="matrix(16,0,0,-16,289.8448,13.025085)"/>
<use data-text="b" xlink:href="#font_1_22" transform="matrix(16,0,0,-16,294.2896,13.025085)"/>
<use data-text="i" xlink:href="#font_1_29" transform="matrix(16,0,0,-16,303.18879,13.025085)"/>
<use data-text="t" xlink:href="#font_1_37" transform="matrix(16,0,0,-16,306.744,13.025085)"/>
<use data-text=" " xlink:href="#font_1_1" transform="matrix(16,0,0,-16,311.18879,13.025085)"/>
<use data-text="m" xlink:href="#font_1_32" transform="matrix(16,0,0,-16,315.6336,13.025085)"/>
<use data-text="u" xlink:href="#font_1_38" transform="matrix(16,0,0,-16,328.9616,13.025085)"/>
<use data-text="s" xlink:href="#font_1_36" transform="matrix(16,0,0,-16,337.8608,13.025085)"/>
<use data-text="t" xlink:href="#font_1_37" transform="matrix(16,0,0,-16,345.8608,13.025085)"/>
<use data-text=" " xlink:href="#font_1_1" transform="matrix(16,0,0,-16,350.3056,13.025085)"/>
<use data-text="b" xlink:href="#font_1_22" transform="matrix(16,0,0,-16,354.7504,13.025085)"/>
<use data-text="e" xlink:href="#font_1_25" transform="matrix(16,0,0,-16,363.6496,13.025085)"/>
<use data-text=" " xlink:href="#font_1_1" transform="matrix(16,0,0,-16,372.5488,13.025085)"/>
<use data-text="s" xlink:href="#font_1_36" transform="matrix(16,0,0,-16,376.9936,13.025085)"/>
<use data-text="e" xlink:href="#font_1_25" transform="matrix(16,0,0,-16,384.9936,13.025085)"/>
<use data-text="t" xlink:href="#font_1_37" transform="matrix(16,0,0,-16,393.8928,13.025085)"/>
<use data-text="&#xfffd;" xlink:href="#font_2_1" transform="matrix(16,0,0,-16,398.3376,13.025085)"/>
<path transform="matrix(-.00007874014,-0,0,.00007874014,263,113)" stroke-width="12700" stroke-linecap="butt" stroke-linejoin="round" fill="none" stroke="#000000" d="M.1239014 .05358893 .899048 569913"/>
<path transform="matrix(1,0,0,-1,0,540)" d="M259.9999 386.1249 262.9999 380.1249 265.9999 386.1249Z" fill-rule="evenodd"/>
<path transform="matrix(.00007874014,0,0,.00007874014,214.875,83.00009)" stroke-width="12700" stroke-linecap="butt" stroke-linejoin="round" fill="none" stroke="#000000" d="M-.1365356-.1174315V950912.5"/>
<path transform="matrix(1,0,0,-1,0,540)" d="M217.875 386.1249 214.875 380.1249 211.875 386.1249Z" fill-rule="evenodd"/>
<path transform="matrix(.00007874014,0,0,-.00007874014,442.4999,181.37509)" stroke-width="12700" stroke-linecap="butt" stroke-linejoin="round" fill="none" stroke="#000000" d="M.08911121 .03771955V814387.7"/>
<path transform="matrix(1,0,0,-1,0,540)" d="M445.4999 418.7499 442.4999 424.7499 439.4999 418.7499Z" fill-rule="evenodd"/>
<use data-text="3" xlink:href="#font_1_9" transform="matrix(10,0,0,-10,405.95,48.87509)"/>
<use data-text="&#xfffd;" xlink:href="#font_2_1" transform="matrix(10,0,0,-10,411.51203,48.87509)"/>
<use data-text="0" xlink:href="#font_1_6" transform="matrix(10,0,0,-10,301.95,48.87509)"/>
<use data-text="&#xfffd;" xlink:href="#font_2_1" transform="matrix(10,0,0,-10,307.51203,48.87509)"/>
<use data-text="1" xlink:href="#font_1_7" transform="matrix(10,0,0,-10,337.95,48.87509)"/>
<use data-text="&#xfffd;" xlink:href="#font_2_1" transform="matrix(10,0,0,-10,343.51203,48.87509)"/>
<use data-text="2" xlink:href="#font_1_8" transform="matrix(10,0,0,-10,369.95,48.87509)"/>
<use data-text="&#xfffd;" xlink:href="#font_2_1" transform="matrix(10,0,0,-10,375.51203,48.87509)"/>
<use data-text="7" xlink:href="#font_1_13" transform="matrix(10,0,0,-10,543.95,48.87509)"/>
<use data-text="&#xfffd;" xlink:href="#font_2_1" transform="matrix(10,0,0,-10,549.512,48.87509)"/>
<use data-text="4" xlink:href="#font_1_10" transform="matrix(10,0,0,-10,439.9499,48.87509)"/>
<use data-text="&#xfffd;" xlink:href="#font_2_1" transform="matrix(10,0,0,-10,445.5119,48.87509)"/>
<use data-text="5" xlink:href="#font_1_11" transform="matrix(10,0,0,-10,475.9499,48.87509)"/>
<use data-text="&#xfffd;" xlink:href="#font_2_1" transform="matrix(10,0,0,-10,481.5119,48.87509)"/>
<use data-text="6" xlink:href="#font_1_12" transform="matrix(10,0,0,-10,507.95,48.87509)"/>
<use data-text="&#xfffd;" xlink:href="#font_2_1" transform="matrix(10,0,0,-10,513.512,48.87509)"/>
</g>
</svg>
