<svg xmlns="http://www.w3.org/2000/svg" xmlns:xlink="http://www.w3.org/1999/xlink" version="1.1" width="615.6942pt" height="283.328pt" viewBox="0 0 615.6942 283.328">
<defs>
<clipPath id="clip_0">
<path transform="matrix(1,0,0,-1,-1.55675,540)" d="M1.55675 256.672H617.251V540H1.55675Z" fill-rule="evenodd"/>
</clipPath>
<clipPath id="clip_1">
<path transform="matrix(1,0,0,-1,-1.55675,540)" d="M0 .00002324581H719.9999V540H0Z"/>
</clipPath>
<path id="font_2_10" d="M.08203125 0V.7158203H.5649414V.6308594H.17675781V.41015626H.5126953V.3251953H.17675781V0H.08203125Z"/>
<path id="font_2_24" d="M.063964847 0V.7158203H.15185547V0H.063964847Z"/>
<path id="font_2_15" d="M.40429688 .06542969C.37174479 .03722127 .34041343 .017308554 .31030274 .0056915285 .28019206-.0059153239 .24788411-.01171875 .2133789-.01171875 .15641277-.01171875 .11263021 .0021972657 .08203125 .030029297 .051432294 .057861329 .036132814 .09342448 .036132814 .13671875 .036132814 .16210938 .04191081 .18530274 .053466798 .20629883 .06502279 .22729492 .08015951 .24414063 .09887695 .25683595 .1175944 .26953126 .13867188 .27913413 .16210938 .28564454 .17936199 .2902018 .20540364 .29459635 .24023438 .29882813 .3111979 .30729167 .363444 .3173828 .39697267 .32910157 .3972982 .34109498 .39746095 .3487142 .39746095 .35195924 .39746095 .38763429 .38916017 .4127655 .3725586 .4273529 .35009767 .44713847 .31673179 .45703126 .27246095 .45703126 .2311198 .45703126 .20060222 .44978843 .1809082 .43530274 .16121419 .42081706 .14664714 .39518229 .13720703 .35839845L.05126953 .3701172C.05908203 .40701295 .0719401 .43680827 .08984375 .45950318 .1077474 .4821981 .1336263 .4996643 .16748047 .51190188 .20133464 .5241496 .24055989 .53027346 .28515626 .53027346 .3294271 .53027346 .36539714 .52504476 .3930664 .5145874 .4207357 .5041402 .44108073 .49099223 .45410157 .47514344 .4671224 .4593048 .47623698 .43929545 .4814453 .41511537 .484375 .40009056 .48583985 .3731028 .48583985 .33415223V.21730042C.48583985 .13582866 .48771159 .084228519 .49145509 .0625 .49519859 .040771486 .5026042 .01993815 .5136719 0H.421875C.4127604 .01864624 .40690104 .040456136 .40429688 .06542969M.39697267 .25976563C.36507163 .24680583 .31722007 .23578899 .25341798 .22671509 .21728516 .22153728 .19173177 .21570842 .17675781 .20922852 .16178386 .20274861 .15022786 .1932729 .14208985 .18080139 .13395183 .16832988 .12988281 .15447998 .12988281 .13925171 .12988281 .11592611 .13875325 .09648641 .15649414 .08093262 .17423503 .065389 .20019531 .057617189 .234375 .057617189 .26822917 .057617189 .29833985 .06499735 .32470704 .07975769 .35107423 .0945282 .37044273 .114705409 .3828125 .1402893 .3922526 .16003418 .39697267 .18917339 .39697267 .22770691V.25976563Z"/>
<path id="font_2_29" d="M.030761719 .15527344 .11767578 .16894531C.122558597 .13396199 .1361491 .10714722 .15844727 .08850098 .18074544 .06986491 .21191406 .060546876 .25195313 .060546876 .29231773 .060546876 .32226563 .06876627 .34179688 .08520508 .36132813 .10164388 .37109376 .12093099 .37109376 .1430664 .37109376 .16292317 .36246745 .17854817 .34521485 .1899414 .33317057 .1977539 .30322267 .2076823 .2553711 .21972656 .19091797 .23600261 .14624024 .2500814 .12133789 .2619629 .09643555 .2738444 .077555339 .2902832 .064697269 .3112793 .05183919 .3322754 .045410158 .35546876 .045410158 .38085938 .045410158 .40397135 .05069987 .42537437 .061279298 .44506837 .07185873 .46476237 .08626302 .48111979 .10449219 .49414063 .11816406 .50423178 .13680013 .5127767 .16040039 .5197754 .18400066 .5267741 .20930989 .53027346 .23632813 .53027346 .27701823 .53027346 .31274415 .52441409 .34350587 .5126953 .37426759 .50097659 .39697267 .48510743 .4116211 .4650879 .42626954 .44506837 .4363607 .41829429 .44189454 .38476563L.35595704 .37304688C.35205079 .3997396 .34073893 .4205729 .32202149 .43554688 .30330406 .45052085 .27685548 .4580078 .24267578 .4580078 .2023112 .4580078 .17350261 .45133464 .15625 .43798829 .13899739 .42464195 .1303711 .40901695 .1303711 .39111329 .1303711 .37972007 .13395183 .36946617 .14111328 .36035157 .14827474 .35091148 .1595052 .34309898 .17480469 .33691407 .18359375 .33365885 .20947266 .32617188 .2524414 .31445313 .31461589 .29785157 .35799156 .28426109 .38256837 .27368165 .40714518 .2631022 .42643229 .24772136 .4404297 .22753906 .4544271 .20735677 .46142579 .18229167 .46142579 .15234375 .46142579 .123046878 .45288087 .095458988 .43579103 .06958008 .41870118 .043701173 .39404298 .02368164 .3618164 .009521484 .32958985-.004638672 .2931315-.01171875 .2524414-.01171875 .1850586-.01171875 .13370769 .002319336 .09838867 .030395508 .063069667 .05847168 .040527345 .100097659 .030761719 .15527344Z"/>
<path id="font_2_21" d="M.06591797 0V.7158203H.1538086V.4585266C.19482422 .50635787 .24658203 .53027346 .30908204 .53027346 .3474935 .53027346 .38085938 .5227051 .4091797 .50756838 .4375 .49243165 .45776368 .47151695 .4699707 .44482423 .48217774 .4181315 .48828126 .37939454 .48828126 .32861329V0H.40039063V.32826234C.40039063 .37215678 .39086915 .4041036 .37182618 .42410279 .3527832 .44410197 .32584635 .45410157 .29101563 .45410157 .26497398 .45410157 .24047852 .44735209 .2175293 .43385316 .19458008 .42036439 .17822266 .4020742 .16845703 .37898255 .1586914 .3559011 .1538086 .32403565 .1538086 .28338624V0H.06591797Z"/>
<path id="font_2_1" d="M0 0Z"/>
<path id="font_2_30" d="M.2578125 .07861328 .2705078 .0009765625C.24576824-.004231771 .22363281-.0068359377 .20410156-.0068359377 .17220052-.0068359377 .14746094-.0017903646 .12988281 .008300781 .11230469 .018391928 .0999349 .031656904 .09277344 .048095704 .08561198 .06453451 .08203125 .099121097 .08203125 .15185547V.4501953H.017578125V.5185547H.08203125V.64697268L.1694336 .69970706V.5185547H.2578125V.4501953H.1694336V.14697266C.1694336 .121907558 .17097982 .10579427 .17407227 .09863281 .17716472 .09147135 .18221028 .08577474 .18920899 .08154297 .19620769 .077311199 .20621746 .07519531 .21923828 .07519531 .2290039 .07519531 .24186199 .07633463 .2578125 .07861328Z"/>
<path id="font_2_28" d="M.064941409 0V.5185547H.14404297V.4399414C.16422527 .47672526 .18286133 .50097659 .19995117 .5126953 .21704102 .52441409 .23583985 .53027346 .25634767 .53027346 .28597007 .53027346 .31608073 .5208333 .3466797 .5019531L.31640626 .4204712C.29492188 .43312583 .2734375 .43945313 .25195313 .43945313 .23274739 .43945313 .2154948 .43367515 .20019531 .42211915 .18489583 .41056315 .17399089 .39453126 .16748047 .37402345 .15771485 .34277345 .15283203 .30859376 .15283203 .27148438V0H.064941409Z"/>
<path id="font_2_26" d="M.06591797 0V.5185547H.14501953V.44482423C.18310547 .50179037 .23811849 .53027346 .3100586 .53027346 .3413086 .53027346 .3700358 .5246582 .39624024 .51342776 .42244468 .50219729 .44205729 .48746745 .45507813 .46923829 .46809898 .45100913 .47721354 .42936198 .48242188 .40429688 .4856771 .38802085 .4873047 .35953776 .4873047 .31884767V0H.39941407V.3154297C.39941407 .35123698 .3959961 .37801109 .38916017 .39575196 .38232423 .41349284 .37019859 .42765299 .3527832 .43823243 .33536784 .44881187 .3149414 .45410157 .2915039 .45410157 .254069 .45410157 .22176107 .44222007 .19458008 .41845704 .1673991 .394694 .1538086 .34960938 .1538086 .28320313V0H.06591797Z"/>
<path id="font_2_22" d="M.06640625 .6152344V.7158203H.15429688V.6152344H.06640625M.06640625 0V.5185547H.15429688V0H.06640625Z"/>
<path id="font_2_27" d="M.033203126 .25927735C.033203126 .355306 .059895833 .42643229 .11328125 .47265626 .15787761 .5110677 .21223958 .53027346 .2763672 .53027346 .34765626 .53027346 .40592448 .5069173 .45117188 .46020509 .49641929 .41349284 .51904299 .34895835 .51904299 .26660157 .51904299 .1998698 .5090332 .14737956 .48901368 .10913086 .46899415 .070882167 .43986003 .041178388 .40161134 .020019532 .36336265-.0011393229 .3216146-.01171875 .2763672-.01171875 .20377605-.01171875 .1451009 .011555989 .1003418 .05810547 .055582685 .104654949 .033203126 .17171224 .033203126 .25927735M.123535159 .2590332C.123535159 .19270833 .13802083 .14304607 .16699219 .11004639 .19596355 .077046718 .23242188 .060546876 .2763672 .060546876 .31998698 .060546876 .35628257 .07712809 .3852539 .11029053 .41422526 .14345296 .42871095 .19401042 .42871095 .2619629 .42871095 .32600913 .4141439 .37453208 .38500978 .40753175 .35587565 .4405314 .31966148 .45703126 .2763672 .45703126 .23242188 .45703126 .19596355 .4406128 .16699219 .40777589 .13802083 .37493897 .123535159 .32535807 .123535159 .2590332Z"/>
<path id="font_2_32" d="M.06201172-.20025635 .052246095-.11816406C.07145182-.1233724 .08821615-.12597656 .10253906-.12597656 .12207031-.12597656 .13769531-.12271627 .14941406-.11619568 .16113281-.10967509 .17073567-.10054525 .17822266-.08880615 .18375652-.08000692 .19270833-.058166505 .20507813-.023284913 .20670574-.018391928 .20930989-.011220296 .21289063-.0017700195L.016113282 .5185547H.110839847L.21875 .21817017C.23274739 .18007405 .24527996 .14002483 .25634767 .09802246 .2664388 .13847859 .27848307 .17790222 .29248048 .21629334L.4033203 .5185547H.49121095L.2939453-.008728027C.27278648-.06584676 .25634767-.10517883 .2446289-.12672425 .2290039-.15577698 .21110027-.17707317 .19091797-.1906128 .17073567-.2041626 .14664714-.2109375 .118652347-.2109375 .10172526-.2109375 .082845058-.20737712 .06201172-.20025635Z"/>
<path id="font_2_19" d="M.42089845 .16796875 .51171877 .15625C.49739585 .103037517 .47086589 .06173706 .4321289 .032348634 .39339195 .0029703777 .34391276-.01171875 .2836914-.01171875 .20784505-.01171875 .14770508 .01163737 .103271488 .05834961 .05883789 .10506185 .036621095 .17057292 .036621095 .2548828 .036621095 .3421224 .05908203 .40983073 .104003909 .4580078 .14892578 .5061849 .20719402 .53027346 .2788086 .53027346 .34814454 .53027346 .40478517 .5067088 .44873048 .45957948 .49267579 .41246034 .51464846 .34616599 .51464846 .2606964 .51464846 .25549827 .51448568 .247701 .51416018 .23730469H.1274414C.13069661 .18017578 .14680989 .13643392 .17578125 .1060791 .20475261 .07572428 .24088542 .060546876 .2841797 .060546876 .31640626 .060546876 .34391276 .06908671 .36669923 .08616638 .3894857 .103256229 .4075521 .13052368 .42089845 .16796875M.13232422 .3095703H.421875C.41796876 .3530477 .40690104 .38565574 .38867188 .4073944 .3606771 .4411367 .3243815 .4580078 .27978517 .4580078 .23942058 .4580078 .20548503 .4445394 .17797852 .41760255 .150472 .39067588 .1352539 .35466514 .13232422 .3095703Z"/>
<path id="font_2_11" d="M.09326172 0V.7158203H.18798828V0H.09326172Z"/>
<path id="font_2_5" d="M0-.0126953129 .20751953 .7285156H.27783204L.07080078-.0126953129H0Z"/>
<path id="font_2_12" d="M.048339845 .34887696C.048339845 .46762086 .08024088 .5605774 .14404297 .6277466 .20784505 .69492599 .2902018 .7285156 .39111329 .7285156 .457194 .7285156 .51676437 .71273806 .5698242 .68118289 .6228841 .6496277 .6633301 .6056264 .6911621 .5491791 .71899417 .4927419 .73291018 .42874146 .73291018 .35717774 .73291018 .28463746 .7182617 .21973674 .68896487 .16247559 .65966799 .10522461 .61816409 .061879476 .5644531 .032440187 .5107422 .0030008953 .45279948-.01171875 .390625-.01171875 .3232422-.01171875 .26302085 .004547119 .20996094 .037078859 .15690105 .069610599 .11669922 .11401367 .08935547 .17028809 .06201172 .2265625 .048339845 .28609214 .048339845 .34887696M.1459961 .34718324C.1459961 .26107279 .16918946 .1932373 .21557617 .14367676 .2619629 .09411621 .32014976 .06933594 .39013673 .06933594 .46142579 .06933594 .5201009 .09435526 .5661621 .14439392 .6122233 .19444275 .6352539 .26545207 .6352539 .35742188 .6352539 .41558839 .6254069 .46636454 .6057129 .50975039 .58601889 .55313619 .55721029 .58677169 .5192871 .61065676 .48136393 .6345418 .4388021 .6464844 .39160157 .6464844 .32454429 .6464844 .2668457 .6234894 .21850586 .5774994 .17016602 .5315196 .1459961 .45474754 .1459961 .34718324Z"/>
<path id="font_2_16" d="M.14697266 0H.06542969V.7158203H.15332031V.46044923C.19042969 .5069987 .23779297 .53027346 .29541017 .53027346 .3273112 .53027346 .35750328 .5238444 .38598634 .5109863 .4144694 .49812828 .4379069 .48006187 .45629884 .4567871 .47469078 .43351237 .48909507 .4054362 .49951173 .3725586 .5099284 .339681 .5151367 .30452476 .5151367 .26708985 .5151367 .17822266 .49316407 .10953776 .44921876 .061035158 .40527345 .012532552 .35253907-.01171875 .29101563-.01171875 .2298177-.01171875 .18180339 .013834636 .14697266 .064941409V0M.1459961 .2631836C.1459961 .20100911 .15445964 .15608724 .17138672 .12841797 .19905599 .08317057 .23649089 .060546876 .2836914 .060546876 .32210288 .060546876 .355306 .07722982 .38330079 .1105957 .41129557 .1439616 .42529298 .19368489 .42529298 .25976563 .42529298 .32747398 .41186524 .3774414 .38500978 .40966798 .3581543 .44189454 .3256836 .4580078 .28759767 .4580078 .2491862 .4580078 .21598308 .44132487 .18798828 .40795899 .15999349 .3745931 .1459961 .32633464 .1459961 .2631836Z"/>
<path id="font_2_31" d="M.40576173 0V.0766449C.36539714 .0177358 .31054688-.01171875 .24121094-.01171875 .21061199-.01171875 .18204753-.005859375 .15551758 .005859375 .12898763 .017578125 .10929362 .03230794 .09643555 .050048829 .08357748 .06778971 .07454427 .08951823 .06933594 .115234378 .06575521 .13248699 .063964847 .15983074 .063964847 .19726563V.5185547H.15185547V.2312622C.15185547 .18541463 .15364583 .15452576 .15722656 .13859558 .16276042 .115503948 .17447917 .09737142 .19238281 .084198 .21028646 .07103475 .23242188 .064453128 .25878907 .064453128 .28515626 .064453128 .30989585 .07119751 .3330078 .08468628 .35611979 .09818522 .3724772 .1165568 .38208009 .13980103 .39168296 .16305542 .39648438 .1967926 .39648438 .24101258V.5185547H.484375V0H.40576173Z"/>
<path id="font_2_13" d="M.07714844 0V.7158203H.34716798C.394694 .7158203 .4309896 .7135417 .4560547 .7089844 .49121095 .703125 .5206706 .6919759 .5444336 .6755371 .5681966 .6590983 .587321 .6360677 .60180667 .6064453 .6162923 .57682296 .62353518 .5442708 .62353518 .50878909 .62353518 .44791667 .6041667 .39640299 .5654297 .35424806 .5266927 .3120931 .45670573 .29101563 .35546876 .29101563H.171875V0H.07714844M.171875 .37597657H.3569336C.4181315 .37597657 .46158854 .387324 .4873047 .41001893 .5130208 .432724 .5258789 .46466575 .5258789 .5058441 .5258789 .5356801 .51831057 .56121829 .5031738 .5824585 .4880371 .60369876 .46809898 .6177266 .44335938 .62454226 .42740885 .62875369 .39794923 .6308594 .35498048 .6308594H.171875V.37597657Z"/>
<path id="font_2_20" d="M.049804689-.04296875 .1352539-.0546875C.13883464-.08137003 .14876302-.10080465 .16503906-.11299133 .18684896-.12946065 .21663411-.13769531 .25439454-.13769531 .29508464-.13769531 .3264974-.12953694 .3486328-.113220218 .37076823-.09690348 .3857422-.07406616 .3935547-.044708253 .39811198-.026753745 .40022788 .010935466 .39990235 .068359378 .36149089 .022786459 .3136393 0 .25634767 0 .1850586 0 .12988281 .025716147 .09082031 .07714844 .051757814 .12858074 .032226564 .19026692 .032226564 .26220704 .032226564 .3116862 .041178388 .35734049 .05908203 .39916993 .07698568 .44099937 .10294596 .47330729 .13696289 .49609376 .17097982 .5188802 .2109375 .53027346 .25683595 .53027346 .31803385 .53027346 .3684896 .5052083 .40820313 .45507813V.5185547H.4892578V.070007327C.4892578-.010772705 .48103843-.06801859 .4645996-.10173035 .4481608-.1354421 .42211915-.16206868 .3864746-.1816101 .35083009-.2011617 .30696617-.2109375 .2548828-.2109375 .19303386-.2109375 .1430664-.19698079 .10498047-.16906739 .06689453-.14115398 .048502607-.099121097 .049804689-.04296875M.122558597 .26853944C.122558597 .20067851 .1360677 .15116374 .16308594 .11999512 .19010417 .0888265 .22395833 .07324219 .26464845 .07324219 .30501304 .07324219 .3388672 .08874512 .36621095 .11975098 .3935547 .15075684 .40722657 .19938152 .40722657 .265625 .40722657 .3289388 .3931478 .3766683 .36499024 .40881349 .33683268 .44095866 .30289714 .45703126 .2631836 .45703126 .2241211 .45703126 .19091797 .4412028 .16357422 .4095459 .13623047 .377889 .122558597 .33088685 .122558597 .26853944Z"/>
<path id="font_2_6" d="M.041503908 .35327149C.041503908 .43784587 .05021159 .50591537 .06762695 .55747988 .08504232 .6090444 .11092123 .6488139 .14526367 .67678835 .17960613 .70476278 .22281902 .71875 .27490235 .71875 .3133138 .71875 .34700523 .711024 .37597657 .6955719 .4049479 .6801198 .4288737 .6578369 .4477539 .62872317 .46663413 .5996094 .4814453 .56414797 .4921875 .52233889 .5029297 .48053996 .5083008 .42418418 .5083008 .35327149 .5083008 .26934815 .49967448 .2016042 .48242188 .15003968 .46516929 .098475139 .43937174 .058624269 .4050293 .03048706 .37068687 .0023498536 .3273112-.01171875 .27490235-.01171875 .20589192-.01171875 .1516927 .013005574 .11230469 .062454225 .065104167 .12198385 .041503908 .21892293 .041503908 .35327149M.13183594 .35302735C.13183594 .2357076 .14558919 .15762837 .1730957 .11878967 .20060222 .07996114 .23453777 .060546876 .27490235 .060546876 .31526695 .060546876 .34920249 .08004252 .37670899 .11903381 .40421549 .15803528 .41796876 .23603313 .41796876 .35302735 .41796876 .4706726 .40421549 .5488281 .37670899 .5874939 .34920249 .62616989 .3149414 .6455078 .27392579 .6455078 .2335612 .6455078 .20133464 .6284485 .1772461 .59432986 .14697266 .55078127 .13183594 .47034709 .13183594 .35302735Z"/>
<path id="font_2_7" d="M.3725586 0H.28466798V.5600586C.26350913 .5398763 .23575847 .51969406 .20141602 .49951173 .16707357 .47932945 .13623047 .46419273 .10888672 .45410157V.5390625C.15804036 .5621745 .20100911 .59016928 .23779297 .6230469 .2745768 .6559245 .3006185 .6878255 .31591798 .71875H.3725586V0Z"/>
<path id="font_2_4" d="M.03173828 .21484375V.30371095H.3017578V.21484375H.03173828Z"/>
<path id="font_2_33" d="M.11669922 0V.10058594H.21679688V0H.11669922M.4501953 0V.10058594H.55029299V0H.4501953M.7832031 0V.10058594H.88378909V0H.7832031Z"/>
<path id="font_2_8" d="M.07324219 0V.7158203H.34179688C.39648438 .7158203 .4403483 .70859786 .47338868 .69415286 .506429 .6797078 .5323079 .65747579 .5510254 .62745669 .56974288 .59743759 .57910159 .566035 .57910159 .5332489 .57910159 .5027415 .5708008 .47401429 .5541992 .44706727 .53759768 .4201304 .51253256 .39838664 .4790039 .38183595 .52229818 .3691101 .5555827 .347407 .5788574 .31672669 .60213217 .28604637 .61376956 .24982198 .61376956 .20805359 .61376956 .1744334 .60668948 .1431834 .5925293 .11430359 .57836917 .08542379 .5608724 .06315104 .54003909 .04748535 .51920577 .03181966 .49308268 .019989014 .46166993 .011993408 .43025718 .0039978029 .3917643 0 .3461914 0H.07324219M.16796875 .41601563H.3227539C.3647461 .41601563 .39485679 .4187673 .41308595 .42427064 .43717448 .43138124 .45532228 .44318138 .4675293 .45967103 .47973634 .47616069 .48583985 .4968516 .48583985 .5217438 .48583985 .54534408 .48014323 .56611636 .46875 .58406069 .45735679 .602005 .44108073 .61428835 .41992188 .62091067 .39876304 .62754318 .36246745 .6308594 .31103517 .6308594H.16796875V.41601563M.16796875 .08496094H.3461914C.37679038 .08496094 .39827476 .08610026 .41064454 .088378909 .43245445 .092285159 .4506836 .09879557 .46533204 .107910159 .47998048 .11702474 .49202476 .13028972 .50146487 .14770508 .51090499 .16512044 .515625 .18522136 .515625 .20800781 .515625 .23470052 .50878909 .2578939 .4951172 .2775879 .4814453 .2972819 .46248374 .31111656 .43823243 .3190918 .4139811 .32706706 .379069 .3310547 .3334961 .3310547H.16796875V.08496094Z"/>
<path id="font_2_17" d="M.40429688 .19042969 .49072267 .17871094C.48128257 .119140628 .45711265 .072509769 .4182129 .03881836 .37931315 .005126953 .33154298-.01171875 .27490235-.01171875 .2039388-.01171875 .14689128 .011474609 .103759769 .057861329 .060628255 .10424805 .0390625 .17073567 .0390625 .25732423 .0390625 .3133138 .048339845 .3623047 .06689453 .40429688 .08544922 .44628907 .11368815 .4777832 .15161133 .4987793 .1895345 .5197754 .23079427 .53027346 .27539063 .53027346 .33170573 .53027346 .37776695 .5161133 .41357423 .48779298 .4493815 .45948283 .47233073 .419281 .48242188 .3671875L.39697267 .35351563C.38883464 .3881836 .37443034 .41426597 .35375978 .4317627 .3330892 .44925944 .30810548 .4580078 .2788086 .4580078 .23453777 .4580078 .1985677 .44213868 .17089844 .4104004 .14322917 .3786621 .12939453 .32845054 .12939453 .25976563 .12939453 .19010417 .14274089 .13948567 .1694336 .107910159 .1961263 .07633463 .23095703 .060546876 .27392579 .060546876 .308431 .060546876 .3372396 .07116699 .36035157 .09240723 .38346354 .11364746 .39811198 .14632161 .40429688 .19042969Z"/>
<path id="font_2_23" d="M.06640625 0V.7158203H.15429688V.3080597L.3623047 .5185547H.47607423L.27783204 .32589723 .49609376 0H.3876953L.2163086 .26557923 .15429688 .2055664V0H.06640625Z"/>
<path id="font_2_25" d="M.06591797 0V.5185547H.14453125V.44580079C.1608073 .4711914 .18245442 .49161784 .20947266 .5070801 .23649089 .5225423 .2672526 .53027346 .3017578 .53027346 .34016929 .53027346 .37166343 .52229818 .39624024 .50634768 .42081706 .49039714 .43815104 .46809898 .4482422 .43945313 .4892578 .5 .54264327 .53027346 .60839846 .53027346 .65983077 .53027346 .69938156 .5160319 .7270508 .48754884 .75472006 .45906578 .7685547 .4152018 .7685547 .35595704V0H.68115237V.32666017C.68115237 .3618164 .678304 .38712565 .6726074 .4025879 .6669108 .41805015 .6565755 .4305013 .64160159 .4399414 .6266276 .4493815 .6090495 .45410157 .5888672 .45410157 .5524089 .45410157 .52213546 .44197593 .49804688 .4177246 .47395835 .3934733 .46191407 .35465495 .46191407 .30126954V0H.37402345V.33691407C.37402345 .37597657 .36686198 .40527345 .35253907 .4248047 .33821617 .44433595 .31477867 .45410157 .28222657 .45410157 .25748698 .45410157 .23461914 .44759117 .21362305 .4345703 .19262696 .42154948 .17740886 .4025065 .16796875 .3774414 .15852864 .3523763 .1538086 .3162435 .1538086 .26904298V0H.06591797Z"/>
<path id="font_2_14" d="M.044921876 .23046875 .13427735 .23828125C.13850911 .20247396 .14835613 .1730957 .16381836 .15014649 .1792806 .12719727 .20328777 .10864258 .23583985 .09448242 .26839195 .080322269 .30501304 .07324219 .34570313 .07324219 .38183595 .07324219 .41373698 .07861328 .44140626 .08935547 .46907554 .100097659 .4896647 .11482748 .5031738 .13354492 .5166829 .15226238 .5234375 .17263794 .5234375 .19467163 .5234375 .21703084 .51692709 .23655193 .50390627 .25323487 .4908854 .26992799 .46940104 .28396098 .43945313 .29533387 .4202474 .3028005 .37776695 .31440736 .31201173 .33015443 .24625652 .3459015 .20019531 .36078898 .17382813 .3748169 .13964844 .39275108 .11417643 .41500855 .09741211 .44158937 .08064779 .46817018 .072265628 .4979299 .072265628 .53086856 .072265628 .5670726 .08251953 .60091146 .103027347 .63238528 .123535159 .66385909 .15348308 .6877492 .1928711 .7040558 .23225911 .72036239 .27604167 .7285156 .32421876 .7285156 .37727867 .7285156 .42407228 .7199707 .4645996 .70288088 .50512698 .685791 .5362956 .66064456 .55810549 .6274414 .57991537 .5942383 .5916341 .5566406 .5932617 .51464846L.5024414 .5078125C.4975586 .5525818 .48103843 .58639529 .45288087 .6092529 .4247233 .6321208 .38313804 .6435547 .328125 .6435547 .27083335 .6435547 .22908528 .6330821 .20288086 .61213687 .17667644 .5912018 .16357422 .5659587 .16357422 .5364075 .16357422 .5107625 .17285156 .48965965 .19140625 .47309876 .20963542 .45653788 .25724284 .4395701 .33422853 .42219544 .4112142 .40483094 .46402995 .38965354 .49267579 .3766632 .53434249 .357488 .5651042 .33320109 .58496096 .3038025 .6048177 .2744039 .6147461 .24053955 .6147461 .20220948 .6147461 .16419475 .6038411 .12837728 .58203127 .09475708 .5602214 .061136884 .52888998 .03498332 .4880371 .016296387 .44718424-.002380371 .40120445-.01171875 .35009767-.01171875 .285319-.01171875 .2310384-.0022786458 .18725586 .016601563 .14347331 .03548177 .10913086 .06388346 .084228519 .10180664 .059326173 .13972982 .046223958 .18261719 .044921876 .23046875Z"/>
<path id="font_2_18" d="M.40234376 0V.06542969C.36946617 .0139973959 .3211263-.01171875 .25732423-.01171875 .21598308-.01171875 .17797852-.00032552085 .14331055 .022460938 .10864258 .045247396 .08178711 .077067058 .06274414 .11791992 .043701173 .15877278 .034179689 .20572917 .034179689 .25878907 .034179689 .31054688 .04280599 .35750328 .060058595 .3996582 .077311199 .44181315 .1031901 .4741211 .13769531 .49658204 .17220052 .51904299 .21077474 .53027346 .25341798 .53027346 .28466798 .53027346 .3125 .52363589 .33691407 .5103607 .36132813 .49709574 .3811849 .47981263 .39648438 .45851136V.7158203H.48388673V0H.40234376M.12451172 .25854493C.12451172 .19222005 .13850911 .14263916 .1665039 .109802249 .1944987 .07696533 .22753906 .060546876 .265625 .060546876 .30403648 .060546876 .33666993 .07623291 .3635254 .10760498 .39038087 .13897705 .4038086 .18685405 .4038086 .25123597 .4038086 .32210795 .39013673 .37412516 .36279298 .4072876 .33544923 .44045005 .3017578 .45703126 .26171876 .45703126 .22265625 .45703126 .19002278 .44110108 .16381836 .40924073 .13761394 .37738038 .12451172 .32714845 .12451172 .25854493Z"/>
<path id="font_2_9" d="M.07714844 0V.7158203H.32373048C.37939454 .7158203 .421875 .71240237 .45117188 .7055664 .4921875 .6961263 .52718099 .67903646 .55615237 .6542969 .5939128 .6223958 .6221517 .5816243 .64086917 .5319824 .6595866 .48234049 .6689453 .4256185 .6689453 .3618164 .6689453 .30745445 .66259768 .25927735 .64990237 .21728516 .63720706 .17529297 .62093099 .14054363 .6010742 .11303711 .58121749 .0855306 .55948898 .06388346 .5358887 .048095704 .5122884 .03230794 .48380534 .020345053 .45043946 .012207031 .41707359 .0040690104 .3787435 0 .33544923 0H.07714844M.171875 .08496094H.32470704C.37190757 .08496094 .40893556 .0893453 .43579103 .09811401 .46264649 .106892909 .48404948 .11924235 .5 .13516236 .52246096 .1575826 .5399577 .1877187 .55249026 .22557068 .56502279 .26343284 .57128909 .30933128 .57128909 .363266 .57128909 .43800355 .5590007 .49543763 .5344238 .53556826 .509847 .57569888 .47998048 .6025899 .44482423 .61624148 .4194336 .62598678 .37858073 .6308594 .32226563 .6308594H.171875V.08496094Z"/>
<path id="font_2_2" d="M.23388672-.2109375C.18538411-.14967855 .14436849-.07799276 .110839847 .004119873 .077311199 .086242679 .060546876 .17129517 .060546876 .25927735 .060546876 .33683268 .07307943 .41112773 .09814453 .48216249 .1274414 .5646108 .1726888 .6467285 .23388672 .7285156H.296875C.25748698 .6607361 .23144531 .6123454 .21875 .5833435 .19889324 .5383809 .18326824 .49146018 .171875 .44258119 .15787761 .38163758 .1508789 .32037355 .1508789 .25878907 .1508789 .10205078 .19954427-.05452474 .296875-.2109375H.23388672Z"/>
<path id="font_2_3" d="M.123535159-.2109375H.060546876C.15787761-.05452474 .20654297 .10205078 .20654297 .25878907 .20654297 .320048 .19954427 .3808187 .18554688 .44110108 .17447917 .48998008 .15901692 .53690597 .13916016 .58187869 .12646485 .61120608 .100260417 .660085 .060546876 .7285156H.123535159C.18473308 .6467285 .22998047 .5646108 .25927735 .48216249 .28434245 .41112773 .296875 .33683268 .296875 .25927735 .296875 .17129517 .2800293 .086242679 .24633789 .004119873 .21264649-.07799276 .17171224-.14967855 .123535159-.2109375Z"/>
<path id="font_3_2" d="M.4921875 .38867188C.53776046 .38867188 .57576498 .39778648 .6062012 .41601563 .6366374 .43424479 .65690109 .4671224 .6669922 .51464846 .6777344 .5657552 .6665039 .60058596 .6333008 .6191406 .61539718 .62890627 .58984377 .63378909 .5566406 .63378909H.31933595L.26757813 .38867188H.4921875M.24023438 .71777346H.5722656C.6269531 .71777346 .6702474 .709788 .70214846 .69381716 .7630208 .6631775 .78483077 .60662338 .7675781 .52415469 .75846359 .48112489 .74210616 .44591777 .71850588 .41853334 .6949056 .39115907 .66536459 .36916099 .6298828 .35253907 .65559896 .34114585 .6735026 .32617188 .68359377 .3076172 .6936849 .2890625 .6951497 .2589518 .6879883 .21728516L.67089846 .12109375C.6660156 .09375 .6640625 .073404949 .66503909 .060058595 .6660156 .037272138 .67333987 .022623698 .6870117 .016113282L.68359377 0H.5644531C.5625 .006184896 .56152346 .014160156 .56152346 .023925782 .56152346 .033691408 .56396487 .052571615 .56884768 .080566409L.5883789 .20019531C.5958659 .24707031 .5851237 .27848307 .55615237 .2944336 .5392253 .30322267 .51090499 .3076172 .4711914 .3076172H.25L.1850586 0H.087890628L.24023438 .71777346Z"/>
<path id="font_3_7" d="M.5629883 .44125367C.57503256 .4148458 .5802409 .3840332 .5786133 .34881593 .5789388 .32468669 .57340499 .2862142 .5620117 .23339844H.17871094C.16894531 .18033855 .17244466 .13777669 .18920899 .10571289 .20597331 .073649089 .2389323 .057617189 .28808595 .057617189 .33398438 .057617189 .3736979 .072779338 .40722657 .10310364 .4267578 .12070211 .44222007 .14107768 .45361329 .16423035H.54003909C.5335286 .14500427 .521403 .12358093 .5036621 .09996033 .48592124 .07633972 .4674479 .057037355 .4482422 .042053224 .41601563 .015981039 .37923179-.0016174316 .33789063-.0107421879 .3154297-.015950522 .29085288-.018554688 .26416017-.018554688 .19905599-.018554688 .14892578 .0051472985 .11376953 .05255127 .07861328 .09995524 .07014974 .16634114 .088378909 .25170899 .106282558 .33576457 .14355469 .40401713 .20019531 .45646668 .25683595 .5089264 .3219401 .53515627 .3955078 .53515627 .4326172 .53515627 .46679688 .5264333 .49804688 .5089874 .5292969 .49154154 .55094406 .46896363 .5629883 .44125367M.48632813 .30371095C.4908854 .3416748 .48909507 .37201438 .48095704 .3947296 .46598307 .43691508 .43033854 .4580078 .37402345 .4580078 .33365885 .4580078 .29671226 .44348655 .2631836 .41444398 .22965496 .3854014 .20719402 .3484904 .19580078 .30371095H.48632813Z"/>
<path id="font_3_14" d="M.16992188 .14100647C.18066406 .0867157 .21500652 .059570314 .27294923 .059570314 .33414714 .059570314 .38248698 .08818054 .41796876 .145401 .43717448 .17693584 .4519857 .21724956 .46240235 .26634217 .47216798 .3115387 .47330729 .34925334 .4658203 .37948609 .45279948 .43118287 .41634117 .45703126 .3564453 .45703126 .31835938 .45703126 .28222657 .4405314 .24804688 .40753175 .21386719 .37453208 .18945313 .32356773 .17480469 .25463868 .16536458 .20945232 .16373699 .1715749 .16992188 .14100647M.46679688 .50239565C.48046876 .49066673 .49235026 .47339378 .5024414 .45057679L.5180664 .5234375H.6015625L.44628907-.20898438H.35791017L.41503907 .059921266C.39518229 .036524457 .3708496 .017918906 .34204103 .0041046144 .31323243-.009699504 .27945964-.016601563 .24072266-.016601563 .1850586-.016601563 .13989258 .005228678 .10522461 .04888916 .07055664 .092549648 .06266276 .15901184 .08154297 .24827576 .09944662 .332016 .13468425 .40076194 .18725586 .45451356 .23982747 .50827535 .29882813 .53515627 .3642578 .53515627 .4075521 .53515627 .44173179 .524236 .46679688 .50239565Z"/>
<path id="font_3_18" d="M.2631836 .5234375 .18945313 .17590332C.18391927 .1491801 .18359375 .12734477 .18847656 .11039734 .19726563 .07911682 .22298177 .06347656 .265625 .06347656 .3268229 .06347656 .37434898 .09085083 .40820313 .14559937 .42643229 .17492676 .44091798 .21516927 .45166017 .2663269L.50634768 .5234375H.5942383L.48339845 0H.40039063L.41748048 .076828C.40185548 .056930543 .3841146 .0401357 .3642578 .026443482 .32486979-.00095113119 .28125-.0146484379 .23339844-.0146484379 .15885417-.0146484379 .11344401 .010299683 .09716797 .060195924 .08805338 .08693949 .08821615 .12265015 .09765625 .16732788L.17333985 .5234375H.2631836Z"/>
<path id="font_3_16" d="M.15136719 .1640625C.14778646 .13463338 .15039063 .11207072 .15917969 .09637451 .1751302 .06793213 .21044922 .053710939 .26513673 .053710939 .2976888 .053710939 .32788087 .060806276 .3557129 .07499695 .38354493 .08918762 .40055339 .11112467 .40673829 .1408081 .4116211 .16330974 .40527345 .1804301 .3876953 .19216919 .3766276 .199351 .35335288 .20767212 .3178711 .21713257L.25195313 .23474121C.20963542 .24582927 .17936199 .2582245 .16113281 .27192689 .1282552 .29574076 .116373699 .32868449 .12548828 .37075807 .13590496 .42033897 .16219075 .46045939 .2043457 .49111939 .24650066 .52177938 .2976888 .5371094 .35791017 .5371094 .4366862 .5371094 .48860679 .5139974 .5136719 .46777345 .5292969 .43847657 .5332031 .40690104 .5253906 .37304688H.4423828C.44498698 .39290367 .44173179 .41097007 .4326172 .4272461 .41731773 .45035807 .38476563 .46191407 .33496095 .46191407 .3017578 .46191407 .27530924 .45555116 .25561524 .44282533 .23592122 .43010966 .22379558 .41331483 .21923828 .3924408 .21435547 .36960349 .22167969 .3513387 .24121094 .33764649 .25260417 .32948814 .27034507 .3223114 .2944336 .31611634L.34960938 .30192567C.40950523 .28659568 .44873048 .27175395 .46728517 .2574005 .49658204 .23488872 .50602218 .19949849 .49560548 .15122986 .48583985 .10458883 .4597168 .064305629 .41723634 .030380249 .37475587-.0035451253 .3173828-.020507813 .24511719-.020507813 .1673177-.020507813 .1159668-.002802531 .09106445 .032608034 .06616211 .06801859 .05810547 .111836757 .06689453 .1640625H.15136719Z"/>
<path id="font_3_17" d="M.2241211 .6689453H.31298829L.28173829 .5234375H.36523438L.35009767 .45117188H.26660157L.19384766 .10948181C.1899414 .0912323 .19352214 .07901001 .20458985 .07281494 .21077474 .069234218 .22184246 .06744385 .23779297 .06744385 .24202474 .06744385 .24658203 .06752523 .25146485 .06768799 .25634767 .067850749 .26220704 .06825765 .26904298 .06890869L.25439454-.00048828127C.24365235-.0034179688 .23266602-.005533854 .22143555-.0068359377 .21020508-.0081380209 .19824219-.0087890629 .18554688-.0087890629 .14453125-.0087890629 .118896488 .0017191569 .10864258 .022735596 .09838867 .043752035 .096842449 .07104492 .104003909 .10461426L.17773438 .45117188H.106933597L.12207031 .5234375H.1928711L.2241211 .6689453Z"/>
<path id="font_3_1" d="M0 0Z"/>
<path id="font_3_13" d="M.4814453 .26976014C.49186198 .31852723 .49251304 .35819499 .48339845 .38876344 .46875 .4368795 .43115235 .4609375 .37060548 .4609375 .31689454 .4609375 .2735189 .4404551 .24047852 .39949037 .20743816 .3585256 .18473308 .30910746 .17236328 .25123597 .16064453 .19563294 .16300456 .14929708 .17944336 .11222839 .19588216 .07516988 .23063152 .056640626 .2836914 .056640626 .34195964 .056640626 .38663737 .07866923 .4177246 .12272644 .44881187 .16678365 .4700521 .21579488 .4814453 .26976014M.57373049 .27223207C.55582687 .18784078 .5205078 .1181132 .46777345 .06304932 .41503907 .0079956059 .34554038-.01953125 .25927735-.01953125 .18733724-.01953125 .13541667 .0048217775 .103515628 .053527833 .071614589 .10223389 .06429037 .16763814 .08154297 .2497406 .10042318 .33771263 .13769531 .40776063 .19335938 .45988465 .24902344 .51201888 .31445313 .53808596 .38964845 .53808596 .45703126 .53808596 .509196 .5156047 .5461426 .4706421 .5830892 .42567954 .59228518 .35954286 .57373049 .27223207Z"/>
<path id="font_3_15" d="M.17773438 .5234375H.26123048L.2421875 .43301393C.25260417 .4506124 .2738444 .47203575 .3059082 .49728395 .33797203 .52253219 .37141929 .53515627 .40625 .53515627 .4078776 .53515627 .41064454 .5349579 .41455079 .53456118 .41845704 .5341746 .42496745 .5333964 .43408204 .53222659L.41455079 .4399414C.40934245 .44091798 .4046224 .441569 .40039063 .44189454 .39615885 .44222007 .3914388 .4423828 .38623048 .4423828 .34195964 .4423828 .30493165 .428126 .27514649 .39961244 .24536133 .37109886 .22639974 .338267 .21826172 .30111695L.15478516 0H.06689453L.17773438 .5234375Z"/>
<path id="font_3_3" d="M.23730469 .057617189C.26822917 .057617189 .2998047 .06476847 .33203126 .079071048 .3857422 .10281372 .41845704 .14166768 .43017579 .19563294L.44482423 .26635743C.43277995 .25953166 .417806 .25384013 .39990235 .24928284 .3819987 .24473572 .3647461 .2414856 .34814454 .23953247L.29345704 .23271179C.26057945 .22848003 .2351888 .22181194 .21728516 .21270752 .18701172 .19742839 .16829427 .17304485 .16113281 .13955689 .15559896 .11419678 .16056316 .09419759 .17602539 .079559329 .19148763 .064931239 .21191406 .057617189 .23730469 .057617189M.4116211 .31723023C.43245445 .31984458 .44791667 .32831828 .4580078 .34265138 .46354167 .35047404 .46777345 .3617147 .47070313 .3763733 .47721354 .40635173 .4711914 .4281006 .45263673 .44161988 .43408204 .45514933 .4049479 .46191407 .36523438 .46191407 .31933595 .46191407 .2841797 .44954429 .25976563 .4248047 .24609375 .4111328 .23486328 .39078776 .22607422 .36376954H.14404297C.15934246 .42822267 .18977864 .47306315 .23535156 .49829103 .28092448 .52351889 .33024089 .5361328 .38330079 .5361328 .44482423 .5361328 .4921875 .52441409 .5253906 .50097659 .55859377 .47753907 .569987 .44108073 .5595703 .39160157L.49560548 .09033203C.49365235 .081217449 .49389649 .07389323 .4963379 .068359378 .4987793 .06282552 .50602218 .060058595 .5180664 .060058595 .52197268 .060058595 .52644857 .060343427 .53149417 .060913087 .53653976 .061482748 .5419922 .06233724 .54785159 .06347656L.5336914-.0027618409C.51936849-.0067392985 .5085449-.009226481 .5012207-.010223389 .49389649-.011220296 .48404948-.01171875 .4716797-.01171875 .44140626-.01171875 .42171226-.00090026858 .41259767 .020736695 .40771485 .032211305 .40608726 .04843648 .40771485 .06941223 .38460288 .045954389 .3544922 .02558899 .3173828 .00831604 .28027345-.008946736 .24153646-.017578125 .20117188-.017578125 .15266927-.017578125 .116129558-.0028330486 .091552738 .026657105 .066975917 .05614726 .05940755 .093048099 .068847659 .13735962 .07926432 .18591309 .10245768 .22355144 .13842774 .25027467 .17439778 .2769979 .21761067 .29345194 .2680664 .29963685L.4116211 .31723023Z"/>
<path id="font_3_6" d="M.28222657 .05859375C.32291667 .05859375 .36002604 .076044719 .3935547 .110946658 .42708335 .14585877 .45084635 .19594829 .46484376 .2612152 .47884117 .32713319 .4757487 .37592063 .4555664 .4075775 .43538413 .4392446 .4054362 .45507813 .36572267 .45507813 .3214518 .45507813 .28198243 .43819175 .24731446 .40441896 .21264649 .37064616 .1883138 .32096354 .1743164 .2553711 .16227214 .19952393 .16414388 .15276592 .17993164 .115097049 .1957194 .077428188 .2298177 .05859375 .28222657 .05859375M.46044923 .50683596C.4741211 .4970703 .48828126 .47998048 .5029297 .4555664L.55908206 .71972659H.6435547L.49072267 0H.4116211L.4267578 .072753909C.39941407 .040527345 .37019859 .017252604 .33911134 .0029296876 .30802409-.0113932299 .27441407-.018554688 .23828125-.018554688 .18001302-.018554688 .13476563 .0059407555 .10253906 .05493164 .0703125 .10392252 .06298828 .16910808 .080566409 .25048829 .09651693 .32666017 .12988281 .39265953 .18066406 .44848634 .23144531 .5043132 .29296876 .53222659 .36523438 .53222659 .40527345 .53222659 .43701173 .523763 .46044923 .50683596Z"/>
<path id="font_3_12" d="M.17529297 .5234375H.25878907L.24316406 .44914247C.27441407 .47977195 .30525718 .50176498 .33569337 .51512148 .36612956 .52847799 .39827476 .53515627 .4321289 .53515627 .50634768 .53515627 .55094406 .5092519 .56591799 .45744325 .57438156 .42910258 .5730794 .38853965 .5620117 .3357544L.49072267 0H.4013672L.4711914 .3299408C.47802735 .36188255 .47884117 .38762919 .4736328 .4071808 .46484376 .4397634 .4399414 .4560547 .39892579 .4560547 .37809245 .4560547 .3605143 .4539388 .3461914 .44970704 .32047526 .4425354 .29622398 .42819724 .2734375 .4066925 .25520835 .38941957 .24194336 .37157694 .23364258 .35316468 .2253418 .3347524 .21761067 .30843608 .21044922 .2742157L.15234375 0H.064453128L.17529297 .5234375Z"/>
<path id="font_4_1" d="M0 0Z"/>
<path id="font_3_19" d="M.21582031 .5234375 .2290039 .110946658 .41845704 .5234375H.51708987L.53271487 .11338806 .7265625 .5234375H.8144531L.5517578 0H.46044923L.4399414 .40516664 .25097657 0H.15966797L.119628909 .5234375H.21582031Z"/>
<path id="font_3_9" d="M.17480469 .5205078H.26416017L.1538086 0H.064453128L.17480469 .5205078M.21679688 .71777346H.30615235L.28466798 .61816409H.1953125L.21679688 .71777346Z"/>
<path id="font_3_11" d="M.21923828 .71777346H.3071289L.15478516 0H.06689453L.21923828 .71777346Z"/>
<path id="font_3_8" d="M.46289063 .50193789C.47721354 .49053446 .4905599 .47392274 .5029297 .45210267L.51708987 .51802065H.59814456L.4970703 .042160036C.4830729-.024286906 .4622396-.07672628 .4345703-.11515808 .3828125-.18617249 .3063151-.22167969 .20507813-.22167969 .14876302-.22167969 .10408529-.20914714 .07104492-.18408203 .03800456-.15901692 .024902344-.119628909 .03173828-.06591797H.12109375C.12044271-.08935547 .12516277-.107421878 .1352539-.12011719 .1508789-.13964844 .18001302-.14941406 .22265625-.14941406 .29003907-.14941406 .33919273-.12557984 .3701172-.07791138 .38834635-.04982503 .4046224 .00029500327 .4189453 .07244873 .39583335 .04569499 .37052409 .02579244 .34301759 .012741089 .31551109-.00031026206 .28141276-.0068359377 .24072266-.0068359377 .18408203-.0068359377 .13875325 .013280232 .10473633 .053512575 .0707194 .09375509 .06363932 .16030376 .083496097 .25315858 .10205078 .34080506 .13793946 .40922547 .19116211 .4584198 .24438477 .5076243 .30126954 .53222659 .3618164 .53222659 .40283204 .53222659 .43652345 .5221303 .46289063 .50193789M.36132813 .45410157C.29947917 .45410157 .2511393 .4251658 .2163086 .3672943 .19742839 .33641053 .18277996 .29593406 .17236328 .24586487 .15966797 .1870168 .162028 .14223226 .17944336 .11151123 .19685872 .0807902 .2257487 .06542969 .26611329 .06542969 .3292643 .06542969 .37972007 .09387716 .41748048 .1507721 .4386393 .18295796 .45377604 .22050984 .46289063 .26342774 .47688804 .328125 .47379557 .37607829 .45361329 .4072876 .433431 .43849693 .40266929 .45410157 .36132813 .45410157Z"/>
<path id="font_3_5" d="M.55029299 .3466797H.46484376C.46647135 .37890626 .46028648 .40568034 .44628907 .42700196 .43229167 .44832359 .40478517 .45898438 .36376954 .45898438 .30777995 .45898438 .2618815 .43164063 .22607422 .37695313 .20296224 .34147135 .18587239 .2976888 .17480469 .24560547 .16341146 .19319661 .16503906 .14908855 .1796875 .11328125 .19433594 .07747396 .22542317 .059570314 .27294923 .059570314 .30940757 .059570314 .34065757 .0707194 .36669923 .09301758 .39274089 .11531576 .41389976 .14583333 .43017579 .18457031H.515625C.49121095 .115234378 .4560547 .06453451 .41015626 .032470704 .3642578 .00040690104 .3108724-.015625 .25-.015625 .18164063-.015625 .1324056 .009379069 .10229492 .059387208 .07218424 .10940552 .065104167 .17188008 .08105469 .24681092 .10058594 .33868919 .13810222 .41020204 .19360352 .4613495 .24910482 .51250717 .3113607 .53808596 .3803711 .53808596 .43929038 .53808596 .48413087 .5237274 .5148926 .49501039 .5456543 .46629334 .5574544 .41684977 .55029299 .3466797Z"/>
<path id="font_3_10" d="M.21484375 .71777346H.2993164L.21044922 .3009796 .48339845 .5234375 .5957031 .5233002 .3540039 .32736207 .49609376 0H.38378907L.2763672 .26385499 .18847656 .19642639 .14697266 0H.0625L.21484375 .71777346Z"/>
<path id="font_3_4" d="M.21044922 .71972659H.29589845L.24072266 .45948792C.26513673 .4847056 .29207359 .50394698 .3215332 .5172119 .35099284 .53047689 .38134767 .5371094 .41259767 .5371094 .4777018 .5371094 .52579757 .5147095 .55688479 .46990968 .587972 .42510987 .5942383 .35905458 .5756836 .27174378 .55810549 .1889801 .5234375 .12022909 .4716797 .06549072 .41992188 .010762532 .3585612-.016601563 .28759767-.016601563 .24788411-.016601563 .21647136-.0069986979 .19335938 .012207031 .17936199 .02360026 .16585286 .041829427 .15283203 .06689453L.13867188 0H.057617189L.21044922 .71972659M.48486329 .26731874C.49658204 .32227073 .49446617 .3677877 .47851563 .40386964 .4625651 .43996177 .43164063 .4580078 .3857422 .4580078 .34570313 .4580078 .30745445 .44321189 .2709961 .41362 .23453777 .3840383 .20914714 .3352712 .19482422 .26731874 .18440755 .21822612 .1821289 .17840068 .18798828 .1478424 .19873047 .090296428 .23567708 .061523439 .29882813 .061523439 .34635417 .061523439 .38590495 .08037821 .41748048 .11808777 .449056 .1558075 .47151695 .20555115 .48486329 .26731874Z"/>
</defs>
<g clip-path="url(#clip_0)">
<g clip-path="url(#clip_1)">
<path transform="matrix(1,0,0,-1,-1.55675,540)" d="M0 539.9999H719.9999V.00003079383H0Z" fill="#ffffff" fill-rule="evenodd"/>
<path transform="matrix(1,0,0,-1,-1.55675,540)" d="M285 461 304.5 443.4999 324 461H311.6501V497.4999H297.3499V461Z" fill="#cbcbcb" fill-rule="evenodd"/>
<path transform="matrix(.00007874014,0,0,-.00007874014,283.44325,96.50009)" stroke-width="12700" stroke-linecap="butt" stroke-miterlimit="8" stroke-linejoin="miter" fill="none" stroke="#000000" d="M-.08093268 222250.9 247650 .09106433 495300 222250.9H338456.1V685800.2H156843.9V222250.9Z"/>
<path transform="matrix(.00007874014,0,0,.00007874014,220.44326,105.50009)" stroke-width="12700" stroke-linecap="butt" stroke-miterlimit="8" stroke-linejoin="miter" fill="none" stroke="#000000" d="M.04602045-.07348621H2057400V520700H.04602045Z"/>
<use data-text="F" xlink:href="#font_2_10" transform="matrix(16,0,0,-16,281.64326,122.79999)"/>
<use data-text="l" xlink:href="#font_2_24" transform="matrix(16,0,0,-16,291.41606,122.79999)"/>
<use data-text="a" xlink:href="#font_2_15" transform="matrix(16,0,0,-16,294.97126,122.79999)"/>
<use data-text="s" xlink:href="#font_2_29" transform="matrix(16,0,0,-16,303.87046,122.79999)"/>
<use data-text="h" xlink:href="#font_2_21" transform="matrix(16,0,0,-16,311.87046,122.79999)"/>
<use data-text=" " xlink:href="#font_2_1" transform="matrix(16,0,0,-16,320.76966,122.79999)"/>
<use data-text=" " xlink:href="#font_2_1" transform="matrix(16,0,0,-16,325.21446,122.79999)"/>
<use data-text="t" xlink:href="#font_2_30" transform="matrix(16,0,0,-16,244.64325,141.79999)"/>
<use data-text="r" xlink:href="#font_2_28" transform="matrix(16,0,0,-16,249.08805,141.79999)"/>
<use data-text="a" xlink:href="#font_2_15" transform="matrix(16,0,0,-16,254.41605,141.79999)"/>
<use data-text="n" xlink:href="#font_2_26" transform="matrix(16,0,0,-16,263.31526,141.79999)"/>
<use data-text="s" xlink:href="#font_2_29" transform="matrix(16,0,0,-16,272.21446,141.79999)"/>
<use data-text="l" xlink:href="#font_2_24" transform="matrix(16,0,0,-16,280.21446,141.79999)"/>
<use data-text="a" xlink:href="#font_2_15" transform="matrix(16,0,0,-16,283.76966,141.79999)"/>
<use data-text="t" xlink:href="#font_2_30" transform="matrix(16,0,0,-16,292.66886,141.79999)"/>
<use data-text="i" xlink:href="#font_2_22" transform="matrix(16,0,0,-16,297.11366,141.79999)"/>
<use data-text="o" xlink:href="#font_2_27" transform="matrix(16,0,0,-16,300.66886,141.79999)"/>
<use data-text="n" xlink:href="#font_2_26" transform="matrix(16,0,0,-16,309.56806,141.79999)"/>
<use data-text=" " xlink:href="#font_2_1" transform="matrix(16,0,0,-16,318.46726,141.79999)"/>
<use data-text="l" xlink:href="#font_2_24" transform="matrix(16,0,0,-16,322.91206,141.79999)"/>
<use data-text="a" xlink:href="#font_2_15" transform="matrix(16,0,0,-16,326.46726,141.79999)"/>
<use data-text="y" xlink:href="#font_2_32" transform="matrix(16,0,0,-16,335.36647,141.79999)"/>
<use data-text="e" xlink:href="#font_2_19" transform="matrix(16,0,0,-16,343.36647,141.79999)"/>
<use data-text="r" xlink:href="#font_2_28" transform="matrix(16,0,0,-16,352.26567,141.79999)"/>
<use data-text=" " xlink:href="#font_2_1" transform="matrix(16,0,0,-16,357.59367,141.79999)"/>
<path transform="matrix(.00007874014,0,0,.00007874014,304.44325,146.5)" stroke-width="38100" stroke-linecap="butt" stroke-linejoin="round" fill="none" stroke="#000000" d="M-.03991705 38100.12V342900.2"/>
<path transform="matrix(1,0,0,-1,-1.55675,540)" d="M301.5 384.5 306 393.5 310.5 384.5Z" fill-rule="evenodd"/>
<path transform="matrix(1,0,0,-1,-1.55675,540)" d="M310.5 372.5 306 363.5 301.5 372.5Z" fill-rule="evenodd"/>
<path transform="matrix(1,0,0,-1,-1.55675,540)" d="M216 514.4999H389.9999V495.4999H216Z" fill="#cbcbcb" fill-rule="evenodd"/>
<path transform="matrix(.00007874014,0,0,.00007874014,214.44326,25.500123)" stroke-width="12700" stroke-linecap="butt" stroke-miterlimit="8" stroke-linejoin="miter" fill="none" stroke="#000000" d="M.0343017 .2702638H2209800V241300.3H.0343017Z"/>
<path transform="matrix(1,0,0,-1,-1.55675,540)" d="M298.4999 502.6249H311.2499V490.6249H298.4999Z" fill="#cbcbcb" fill-rule="evenodd"/>
<use data-text="I" xlink:href="#font_2_11" transform="matrix(16,0,0,-16,221.64325,19.650086)"/>
<use data-text="/" xlink:href="#font_2_5" transform="matrix(16,0,0,-16,226.08805,19.650086)"/>
<use data-text="O" xlink:href="#font_2_12" transform="matrix(16,0,0,-16,230.53285,19.650086)"/>
<use data-text=" " xlink:href="#font_2_1" transform="matrix(16,0,0,-16,242.97765,19.650086)"/>
<use data-text="b" xlink:href="#font_2_16" transform="matrix(16,0,0,-16,247.42246,19.650086)"/>
<use data-text="u" xlink:href="#font_2_31" transform="matrix(16,0,0,-16,256.32167,19.650086)"/>
<use data-text="s" xlink:href="#font_2_29" transform="matrix(16,0,0,-16,265.22087,19.650086)"/>
<use data-text=" " xlink:href="#font_2_1" transform="matrix(16,0,0,-16,273.22087,19.650086)"/>
<path transform="matrix(1,0,0,-1,-1.55675,540)" d="M384 531.4999H420V489.4999H384Z" fill="#ffffff" fill-rule="evenodd"/>
<path transform="matrix(1,0,0,-1,-1.55675,540)" d="M186 527.9999H222V491.9999H186Z" fill="#ffffff" fill-rule="evenodd"/>
<path transform="matrix(1,0,0,-1,-1.55675,540)" d="M36.87503 337H282.875V301H36.87503Z" fill="#cbcbcb" fill-rule="evenodd"/>
<path transform="matrix(.00007874014,0,0,.00007874014,35.31828,203)" stroke-width="12700" stroke-linecap="butt" stroke-miterlimit="8" stroke-linejoin="miter" fill="none" stroke="#000000" d="M-.02320855 .2293702H3124200V457200.3H-.02320855Z"/>
<path transform="matrix(1,0,0,-1,-1.55675,540)" d="M42.87503 331H108.875V307H42.87503Z" fill="#ffffff" fill-rule="evenodd"/>
<path transform="matrix(.00007874014,0,0,.00007874014,41.31828,209)" stroke-width="12700" stroke-linecap="butt" stroke-miterlimit="8" stroke-linejoin="miter" fill="none" stroke="#000000" d="M.0197602 .2410889H838200V304800.3H.0197602Z"/>
<use data-text="P" xlink:href="#font_2_13" transform="matrix(15,0,0,-15,50.518289,227)"/>
<use data-text="a" xlink:href="#font_2_15" transform="matrix(15,0,0,-15,60.52329,227)"/>
<use data-text="g" xlink:href="#font_2_20" transform="matrix(15,0,0,-15,68.86629,227)"/>
<use data-text="e" xlink:href="#font_2_19" transform="matrix(15,0,0,-15,77.20929,227)"/>
<use data-text=" " xlink:href="#font_2_1" transform="matrix(15,0,0,-15,85.55229,227)"/>
<use data-text="0" xlink:href="#font_2_6" transform="matrix(15,0,0,-15,89.7193,227)"/>
<use data-text=" " xlink:href="#font_2_1" transform="matrix(15,0,0,-15,98.062297,227)"/>
<path transform="matrix(1,0,0,-1,-1.55675,540)" d="M108.875 331H174.875V307H108.875Z" fill="#ffffff" fill-rule="evenodd"/>
<path transform="matrix(.00007874014,0,0,.00007874014,107.31825,209)" stroke-width="12700" stroke-linecap="butt" stroke-miterlimit="8" stroke-linejoin="miter" fill="none" stroke="#000000" d="M.003326461 .2410889H838200.1V304800.3H.003326461Z"/>
<use data-text="P" xlink:href="#font_2_13" transform="matrix(15,0,0,-15,116.51825,227)"/>
<use data-text="a" xlink:href="#font_2_15" transform="matrix(15,0,0,-15,126.523258,227)"/>
<use data-text="g" xlink:href="#font_2_20" transform="matrix(15,0,0,-15,134.86626,227)"/>
<use data-text="e" xlink:href="#font_2_19" transform="matrix(15,0,0,-15,143.20926,227)"/>
<use data-text=" " xlink:href="#font_2_1" transform="matrix(15,0,0,-15,151.55225,227)"/>
<use data-text="1" xlink:href="#font_2_7" transform="matrix(15,0,0,-15,155.71926,227)"/>
<use data-text=" " xlink:href="#font_2_1" transform="matrix(15,0,0,-15,164.06226,227)"/>
<path transform="matrix(1,0,0,-1,-1.55675,540)" d="M210.875 331H276.875V307H210.875Z" fill="#ffffff" fill-rule="evenodd"/>
<path transform="matrix(.00007874014,0,0,.00007874014,209.31826,209)" stroke-width="12700" stroke-linecap="butt" stroke-miterlimit="8" stroke-linejoin="miter" fill="none" stroke="#000000" d="M-.1443481 .2410889H838199.8V304800.3H-.1443481Z"/>
<use data-text="P" xlink:href="#font_2_13" transform="matrix(15,0,0,-15,210.51825,227)"/>
<use data-text="a" xlink:href="#font_2_15" transform="matrix(15,0,0,-15,220.52326,227)"/>
<use data-text="g" xlink:href="#font_2_20" transform="matrix(15,0,0,-15,228.86626,227)"/>
<use data-text="e" xlink:href="#font_2_19" transform="matrix(15,0,0,-15,237.20926,227)"/>
<use data-text=" " xlink:href="#font_2_1" transform="matrix(15,0,0,-15,245.55225,227)"/>
<use data-text="P" xlink:href="#font_2_13" transform="matrix(15,0,0,-15,249.71926,227)"/>
<use data-text="-" xlink:href="#font_2_4" transform="matrix(15,0,0,-15,259.72425,227)"/>
<use data-text="1" xlink:href="#font_2_7" transform="matrix(15,0,0,-15,264.71928,227)"/>
<use data-text=" " xlink:href="#font_2_1" transform="matrix(15,0,0,-15,273.06227,227)"/>
<use data-text="&#x2026;" xlink:href="#font_2_33" transform="matrix(24,0,0,-24,180.51825,224.6)"/>
<use data-text=" " xlink:href="#font_2_1" transform="matrix(24,0,0,-24,204.51825,224.6)"/>
<use data-text="B" xlink:href="#font_2_8" transform="matrix(16,0,0,-16,35.643239,199.6)"/>
<use data-text="l" xlink:href="#font_2_24" transform="matrix(16,0,0,-16,46.31524,199.6)"/>
<use data-text="o" xlink:href="#font_2_27" transform="matrix(16,0,0,-16,49.870439,199.6)"/>
<use data-text="c" xlink:href="#font_2_17" transform="matrix(16,0,0,-16,58.769639,199.6)"/>
<use data-text="k" xlink:href="#font_2_23" transform="matrix(16,0,0,-16,66.76964,199.6)"/>
<use data-text=" " xlink:href="#font_2_1" transform="matrix(16,0,0,-16,74.76964,199.6)"/>
<use data-text="0" xlink:href="#font_2_6" transform="matrix(16,0,0,-16,79.21445,199.6)"/>
<use data-text=" " xlink:href="#font_2_1" transform="matrix(16,0,0,-16,88.11365,199.6)"/>
<use data-text="&#x2026;" xlink:href="#font_2_33" transform="matrix(24,0,0,-24,291.14326,228.1)"/>
<use data-text=" " xlink:href="#font_2_1" transform="matrix(24,0,0,-24,315.14326,228.1)"/>
<path transform="matrix(1,0,0,-1,-1.55675,540)" d="M329.9999 337H575.9999V301H329.9999Z" fill="#cbcbcb" fill-rule="evenodd"/>
<path transform="matrix(.00007874014,0,0,.00007874014,328.44316,203)" stroke-width="12700" stroke-linecap="butt" stroke-miterlimit="8" stroke-linejoin="miter" fill="none" stroke="#000000" d="M-.1306154 .2293702H3124200V457200.3H-.1306154Z"/>
<path transform="matrix(1,0,0,-1,-1.55675,540)" d="M335.9999 331H401.9999V307H335.9999Z" fill="#ffffff" fill-rule="evenodd"/>
<path transform="matrix(.00007874014,0,0,.00007874014,334.44316,209)" stroke-width="12700" stroke-linecap="butt" stroke-miterlimit="8" stroke-linejoin="miter" fill="none" stroke="#000000" d="M-.1188966 .2410889H838200V304800.3H-.1188966Z"/>
<use data-text="P" xlink:href="#font_2_13" transform="matrix(15,0,0,-15,343.64326,227)"/>
<use data-text="a" xlink:href="#font_2_15" transform="matrix(15,0,0,-15,353.64826,227)"/>
<use data-text="g" xlink:href="#font_2_20" transform="matrix(15,0,0,-15,361.99125,227)"/>
<use data-text="e" xlink:href="#font_2_19" transform="matrix(15,0,0,-15,370.33427,227)"/>
<use data-text=" " xlink:href="#font_2_1" transform="matrix(15,0,0,-15,378.67726,227)"/>
<use data-text="0" xlink:href="#font_2_6" transform="matrix(15,0,0,-15,382.84428,227)"/>
<use data-text=" " xlink:href="#font_2_1" transform="matrix(15,0,0,-15,391.18727,227)"/>
<path transform="matrix(1,0,0,-1,-1.55675,540)" d="M402 331H468V307H402Z" fill="#ffffff" fill-rule="evenodd"/>
<path transform="matrix(.00007874014,0,0,.00007874014,400.44325,209)" stroke-width="12700" stroke-linecap="butt" stroke-miterlimit="8" stroke-linejoin="miter" fill="none" stroke="#000000" d="M-.1024171 .2410889H838200V304800.3H-.1024171Z"/>
<use data-text="P" xlink:href="#font_2_13" transform="matrix(15,0,0,-15,409.64326,227)"/>
<use data-text="a" xlink:href="#font_2_15" transform="matrix(15,0,0,-15,419.64826,227)"/>
<use data-text="g" xlink:href="#font_2_20" transform="matrix(15,0,0,-15,427.99125,227)"/>
<use data-text="e" xlink:href="#font_2_19" transform="matrix(15,0,0,-15,436.33427,227)"/>
<use data-text=" " xlink:href="#font_2_1" transform="matrix(15,0,0,-15,444.67726,227)"/>
<use data-text="1" xlink:href="#font_2_7" transform="matrix(15,0,0,-15,448.84428,227)"/>
<use data-text=" " xlink:href="#font_2_1" transform="matrix(15,0,0,-15,457.18727,227)"/>
<path transform="matrix(1,0,0,-1,-1.55675,540)" d="M503.9999 331H569.9999V307H503.9999Z" fill="#ffffff" fill-rule="evenodd"/>
<path transform="matrix(.00007874014,0,0,.00007874014,502.44316,209)" stroke-width="12700" stroke-linecap="butt" stroke-miterlimit="8" stroke-linejoin="miter" fill="none" stroke="#000000" d="M-.2907716 .2410889H838199.8V304800.3H-.2907716Z"/>
<use data-text="P" xlink:href="#font_2_13" transform="matrix(15,0,0,-15,503.64314,227)"/>
<use data-text="a" xlink:href="#font_2_15" transform="matrix(15,0,0,-15,513.64816,227)"/>
<use data-text="g" xlink:href="#font_2_20" transform="matrix(15,0,0,-15,521.99118,227)"/>
<use data-text="e" xlink:href="#font_2_19" transform="matrix(15,0,0,-15,530.3341,227)"/>
<use data-text=" " xlink:href="#font_2_1" transform="matrix(15,0,0,-15,538.6771,227)"/>
<use data-text="P" xlink:href="#font_2_13" transform="matrix(15,0,0,-15,542.8441,227)"/>
<use data-text="-" xlink:href="#font_2_4" transform="matrix(15,0,0,-15,552.8491,227)"/>
<use data-text="1" xlink:href="#font_2_7" transform="matrix(15,0,0,-15,557.8441,227)"/>
<use data-text=" " xlink:href="#font_2_1" transform="matrix(15,0,0,-15,566.18716,227)"/>
<use data-text="&#x2026;" xlink:href="#font_2_33" transform="matrix(24,0,0,-24,473.64326,224.6)"/>
<use data-text=" " xlink:href="#font_2_1" transform="matrix(24,0,0,-24,497.64326,224.6)"/>
<use data-text="B" xlink:href="#font_2_8" transform="matrix(16,0,0,-16,329.64326,199.6)"/>
<use data-text="l" xlink:href="#font_2_24" transform="matrix(16,0,0,-16,340.31526,199.6)"/>
<use data-text="o" xlink:href="#font_2_27" transform="matrix(16,0,0,-16,343.87046,199.6)"/>
<use data-text="c" xlink:href="#font_2_17" transform="matrix(16,0,0,-16,352.76966,199.6)"/>
<use data-text="k" xlink:href="#font_2_23" transform="matrix(16,0,0,-16,360.76966,199.6)"/>
<use data-text=" " xlink:href="#font_2_1" transform="matrix(16,0,0,-16,368.76966,199.6)"/>
<use data-text=" " xlink:href="#font_2_1" transform="matrix(16,0,0,-16,373.21446,199.6)"/>
<use data-text="B" xlink:href="#font_2_8" transform="matrix(16,0,0,-16,377.65925,199.6)"/>
<use data-text="-" xlink:href="#font_2_4" transform="matrix(16,0,0,-16,388.33128,199.6)"/>
<use data-text="1" xlink:href="#font_2_7" transform="matrix(16,0,0,-16,393.65925,199.6)"/>
<use data-text=" " xlink:href="#font_2_1" transform="matrix(16,0,0,-16,402.55848,199.6)"/>
<path transform="matrix(.00007874014,0,0,.00007874014,22.44325,176.5)" stroke-width="12700" stroke-linecap="butt" stroke-miterlimit="8" stroke-linejoin="miter" fill="none" stroke="#000000" d="M-.008598331 .1776124H7162800V990600.3H-.008598331Z"/>
<use data-text="F" xlink:href="#font_2_10" transform="matrix(16,0,0,-16,23.518292,171.9751)"/>
<use data-text="l" xlink:href="#font_2_24" transform="matrix(16,0,0,-16,33.291093,171.9751)"/>
<use data-text="a" xlink:href="#font_2_15" transform="matrix(16,0,0,-16,36.84629,171.9751)"/>
<use data-text="s" xlink:href="#font_2_29" transform="matrix(16,0,0,-16,45.74549,171.9751)"/>
<use data-text="h" xlink:href="#font_2_21" transform="matrix(16,0,0,-16,53.74549,171.9751)"/>
<use data-text=" " xlink:href="#font_2_1" transform="matrix(16,0,0,-16,62.644697,171.9751)"/>
<use data-text="m" xlink:href="#font_2_25" transform="matrix(16,0,0,-16,67.08949,171.9751)"/>
<use data-text="e" xlink:href="#font_2_19" transform="matrix(16,0,0,-16,80.417499,171.9751)"/>
<use data-text="m" xlink:href="#font_2_25" transform="matrix(16,0,0,-16,89.316699,171.9751)"/>
<use data-text="o" xlink:href="#font_2_27" transform="matrix(16,0,0,-16,102.6447,171.9751)"/>
<use data-text="r" xlink:href="#font_2_28" transform="matrix(16,0,0,-16,111.5439,171.9751)"/>
<use data-text="y" xlink:href="#font_2_32" transform="matrix(16,0,0,-16,116.8719,171.9751)"/>
<use data-text=" " xlink:href="#font_2_1" transform="matrix(16,0,0,-16,124.8719,171.9751)"/>
<path transform="matrix(.00007874014,0,0,.00007874014,10.44325,98.50009)" stroke-width="12700" stroke-linecap="butt" stroke-dasharray="50800,38100" stroke-miterlimit="8" stroke-linejoin="miter" fill="none" stroke="#000000" d="M-.004299166-.08715808H7467600V2178050H-.004299166Z"/>
<use data-text="S" xlink:href="#font_2_14" transform="matrix(16,0,0,-16,10.3932499,94.100009)"/>
<use data-text="o" xlink:href="#font_2_27" transform="matrix(16,0,0,-16,21.06525,94.100009)"/>
<use data-text="l" xlink:href="#font_2_24" transform="matrix(16,0,0,-16,29.96445,94.100009)"/>
<use data-text="i" xlink:href="#font_2_22" transform="matrix(16,0,0,-16,33.519655,94.100009)"/>
<use data-text="d" xlink:href="#font_2_18" transform="matrix(16,0,0,-16,37.074853,94.100009)"/>
<use data-text=" " xlink:href="#font_2_1" transform="matrix(16,0,0,-16,45.974054,94.100009)"/>
<use data-text="S" xlink:href="#font_2_14" transform="matrix(16,0,0,-16,50.418855,94.100009)"/>
<use data-text="t" xlink:href="#font_2_30" transform="matrix(16,0,0,-16,61.090856,94.100009)"/>
<use data-text="a" xlink:href="#font_2_15" transform="matrix(16,0,0,-16,65.53566,94.100009)"/>
<use data-text="t" xlink:href="#font_2_30" transform="matrix(16,0,0,-16,74.43485,94.100009)"/>
<use data-text="e" xlink:href="#font_2_19" transform="matrix(16,0,0,-16,78.879657,94.100009)"/>
<use data-text=" " xlink:href="#font_2_1" transform="matrix(16,0,0,-16,87.778858,94.100009)"/>
<use data-text="D" xlink:href="#font_2_9" transform="matrix(16,0,0,-16,92.223659,94.100009)"/>
<use data-text="i" xlink:href="#font_2_22" transform="matrix(16,0,0,-16,103.778858,94.100009)"/>
<use data-text="s" xlink:href="#font_2_29" transform="matrix(16,0,0,-16,107.33405,94.100009)"/>
<use data-text="k" xlink:href="#font_2_23" transform="matrix(16,0,0,-16,115.33405,94.100009)"/>
<use data-text=" " xlink:href="#font_2_1" transform="matrix(16,0,0,-16,123.33405,94.100009)"/>
<use data-text="(" xlink:href="#font_2_2" transform="matrix(16,0,0,-16,127.778858,94.100009)"/>
<use data-text="S" xlink:href="#font_2_14" transform="matrix(16,0,0,-16,133.10686,94.100009)"/>
<use data-text="S" xlink:href="#font_2_14" transform="matrix(16,0,0,-16,143.77886,94.100009)"/>
<use data-text="D" xlink:href="#font_2_9" transform="matrix(16,0,0,-16,154.45085,94.100009)"/>
<use data-text=")" xlink:href="#font_2_3" transform="matrix(16,0,0,-16,166.00606,94.100009)"/>
<use data-text=" " xlink:href="#font_2_1" transform="matrix(16,0,0,-16,171.33406,94.100009)"/>
<use data-text="R" xlink:href="#font_3_2" transform="matrix(14,0,0,-14,331.76435,63.975099)"/>
<use data-text="e" xlink:href="#font_3_7" transform="matrix(14,0,0,-14,341.87516,63.975099)"/>
<use data-text="q" xlink:href="#font_3_14" transform="matrix(14,0,0,-14,349.66197,63.975099)"/>
<use data-text="u" xlink:href="#font_3_18" transform="matrix(14,0,0,-14,357.44874,63.975099)"/>
<use data-text="e" xlink:href="#font_3_7" transform="matrix(14,0,0,-14,365.23554,63.975099)"/>
<use data-text="s" xlink:href="#font_3_16" transform="matrix(14,0,0,-14,373.02235,63.975099)"/>
<use data-text="t" xlink:href="#font_3_17" transform="matrix(14,0,0,-14,380.02235,63.975099)"/>
<use data-text="s" xlink:href="#font_3_16" transform="matrix(14,0,0,-14,383.91157,63.975099)"/>
<use data-text=" " xlink:href="#font_3_1" transform="matrix(14,0,0,-14,390.91157,63.975099)"/>
<use data-text="t" xlink:href="#font_3_17" transform="matrix(14,0,0,-14,394.80076,63.975099)"/>
<use data-text="o" xlink:href="#font_3_13" transform="matrix(14,0,0,-14,398.68995,63.975099)"/>
<use data-text=" " xlink:href="#font_3_1" transform="matrix(14,0,0,-14,406.47676,63.975099)"/>
<use data-text="r" xlink:href="#font_3_15" transform="matrix(14,0,0,-14,410.36595,63.975099)"/>
<use data-text="e" xlink:href="#font_3_7" transform="matrix(14,0,0,-14,415.02796,63.975099)"/>
<use data-text="a" xlink:href="#font_3_3" transform="matrix(14,0,0,-14,422.81477,63.975099)"/>
<use data-text="d" xlink:href="#font_3_6" transform="matrix(14,0,0,-14,430.60157,63.975099)"/>
<use data-text=" " xlink:href="#font_3_1" transform="matrix(14,0,0,-14,438.38838,63.975099)"/>
<use data-text="a" xlink:href="#font_3_3" transform="matrix(14,0,0,-14,442.27757,63.975099)"/>
<use data-text="n" xlink:href="#font_3_12" transform="matrix(14,0,0,-14,450.06437,63.975099)"/>
<use data-text="d" xlink:href="#font_3_6" transform="matrix(14,0,0,-14,457.85118,63.975099)"/>
<use data-text=" " xlink:href="#font_3_1" transform="matrix(14,0,0,-14,465.63798,63.975099)"/>
<use data-text="&#xfffd;" xlink:href="#font_4_1" transform="matrix(14,0,0,-14,465.63798,63.975099)"/>
<use data-text="w" xlink:href="#font_3_19" transform="matrix(14,0,0,-14,327.8952,79.9751)"/>
<use data-text="r" xlink:href="#font_3_15" transform="matrix(14,0,0,-14,338.006,79.9751)"/>
<use data-text="i" xlink:href="#font_3_9" transform="matrix(14,0,0,-14,342.668,79.9751)"/>
<use data-text="t" xlink:href="#font_3_17" transform="matrix(14,0,0,-14,345.7788,79.9751)"/>
<use data-text="e" xlink:href="#font_3_7" transform="matrix(14,0,0,-14,349.668,79.9751)"/>
<use data-text=" " xlink:href="#font_3_1" transform="matrix(14,0,0,-14,357.4548,79.9751)"/>
<use data-text="l" xlink:href="#font_3_11" transform="matrix(14,0,0,-14,361.344,79.9751)"/>
<use data-text="o" xlink:href="#font_3_13" transform="matrix(14,0,0,-14,364.4548,79.9751)"/>
<use data-text="g" xlink:href="#font_3_8" transform="matrix(14,0,0,-14,372.2416,79.9751)"/>
<use data-text="i" xlink:href="#font_3_9" transform="matrix(14,0,0,-14,380.0284,79.9751)"/>
<use data-text="c" xlink:href="#font_3_5" transform="matrix(14,0,0,-14,383.13923,79.9751)"/>
<use data-text="a" xlink:href="#font_3_3" transform="matrix(14,0,0,-14,390.13923,79.9751)"/>
<use data-text="l" xlink:href="#font_3_11" transform="matrix(14,0,0,-14,397.92604,79.9751)"/>
<use data-text=" " xlink:href="#font_3_1" transform="matrix(14,0,0,-14,401.0368,79.9751)"/>
<use data-text="d" xlink:href="#font_3_6" transform="matrix(14,0,0,-14,404.92604,79.9751)"/>
<use data-text="i" xlink:href="#font_3_9" transform="matrix(14,0,0,-14,412.71284,79.9751)"/>
<use data-text="s" xlink:href="#font_3_16" transform="matrix(14,0,0,-14,415.8236,79.9751)"/>
<use data-text="k" xlink:href="#font_3_10" transform="matrix(14,0,0,-14,422.8236,79.9751)"/>
<use data-text=" " xlink:href="#font_3_1" transform="matrix(14,0,0,-14,429.8236,79.9751)"/>
<use data-text="b" xlink:href="#font_3_4" transform="matrix(14,0,0,-14,433.71284,79.9751)"/>
<use data-text="l" xlink:href="#font_3_11" transform="matrix(14,0,0,-14,441.49964,79.9751)"/>
<use data-text="o" xlink:href="#font_3_13" transform="matrix(14,0,0,-14,444.6104,79.9751)"/>
<use data-text="c" xlink:href="#font_3_5" transform="matrix(14,0,0,-14,452.39723,79.9751)"/>
<use data-text="k" xlink:href="#font_3_10" transform="matrix(14,0,0,-14,459.39723,79.9751)"/>
<use data-text="s" xlink:href="#font_3_16" transform="matrix(14,0,0,-14,466.39723,79.9751)"/>
<use data-text="&#xfffd;" xlink:href="#font_4_1" transform="matrix(14,0,0,-14,469.50804,79.9751)"/>
</g>
</g>
</svg>
