<?xml version="1.0" encoding="UTF-8" standalone="no"?><svg xmlns="http://www.w3.org/2000/svg" xmlns:xlink="http://www.w3.org/1999/xlink" contentScriptType="application/ecmascript" contentStyleType="text/css" height="256px" preserveAspectRatio="none" style="width:346px;height:256px;" version="1.1" viewBox="0 0 346 256" width="346px" zoomAndPan="magnify"><defs><filter height="300%" id="fd617aa88tg7t" width="300%" x="-1" y="-1"><feGaussianBlur result="blurOut" stdDeviation="2.0"/><feColorMatrix in="blurOut" result="blurOut2" type="matrix" values="0 0 0 0 0 0 0 0 0 0 0 0 0 0 0 0 0 0 .4 0"/><feOffset dx="4.0" dy="4.0" in="blurOut2" result="blurOut3"/><feBlend in="SourceGraphic" in2="blurOut3" mode="normal"/></filter></defs><g><!--class Mediator--><rect fill="#FEFECE" filter="url(#fd617aa88tg7t)" height="32" id="Mediator" style="stroke: #A80036; stroke-width: 1.5;" width="83" x="128" y="8"/><ellipse cx="143" cy="24" fill="#B4A7E5" rx="11" ry="11" style="stroke: #A80036; stroke-width: 1.0;"/><path d="M139.4277,20.2651 L139.4277,18.1069 L146.8071,18.1069 L146.8071,20.2651 L144.3418,20.2651 L144.3418,28.3418 L146.8071,28.3418 L146.8071,30.5 L139.4277,30.5 L139.4277,28.3418 L141.8931,28.3418 L141.8931,20.2651 Z "/><text fill="#000000" font-family="sans-serif" font-size="12" font-style="italic" lengthAdjust="spacingAndGlyphs" textLength="51" x="157" y="28.5352">Mediator</text><!--class ConcreteMediator--><rect fill="#FEFECE" filter="url(#fd617aa88tg7t)" height="32" id="ConcreteMediator" style="stroke: #A80036; stroke-width: 1.5;" width="134" x="19.5" y="110.5"/><ellipse cx="34.5" cy="126.5" fill="#ADD1B2" rx="11" ry="11" style="stroke: #A80036; stroke-width: 1.0;"/><path d="M36.9731,132.6431 Q36.3921,132.9419 35.7529,133.0913 Q35.1138,133.2407 34.4082,133.2407 Q31.9014,133.2407 30.5815,131.5889 Q29.2617,129.937 29.2617,126.8159 Q29.2617,123.6865 30.5815,122.0347 Q31.9014,120.3828 34.4082,120.3828 Q35.1138,120.3828 35.7612,120.5322 Q36.4087,120.6816 36.9731,120.9805 L36.9731,123.7031 Q36.3423,123.1221 35.7488,122.8523 Q35.1553,122.5825 34.5244,122.5825 Q33.1797,122.5825 32.4949,123.6492 Q31.8101,124.7158 31.8101,126.8159 Q31.8101,128.9077 32.4949,129.9744 Q33.1797,131.041 34.5244,131.041 Q35.1553,131.041 35.7488,130.7712 Q36.3423,130.5015 36.9731,129.9204 Z "/><text fill="#000000" font-family="sans-serif" font-size="12" lengthAdjust="spacingAndGlyphs" textLength="102" x="48.5" y="131.0352">ConcreteMediator</text><!--class Colleague--><rect fill="#FEFECE" filter="url(#fd617aa88tg7t)" height="52.9551" id="Colleague" style="stroke: #A80036; stroke-width: 1.5;" width="130" x="188.5" y="100"/><ellipse cx="222.4" cy="116" fill="#ADD1B2" rx="11" ry="11" style="stroke: #A80036; stroke-width: 1.0;"/><path d="M224.8731,122.1431 Q224.2921,122.4419 223.6529,122.5913 Q223.0138,122.7407 222.3082,122.7407 Q219.8014,122.7407 218.4815,121.0889 Q217.1617,119.437 217.1617,116.3159 Q217.1617,113.1865 218.4815,111.5347 Q219.8014,109.8828 222.3082,109.8828 Q223.0138,109.8828 223.6612,110.0322 Q224.3087,110.1816 224.8731,110.4805 L224.8731,113.2031 Q224.2423,112.6221 223.6488,112.3523 Q223.0553,112.0825 222.4244,112.0825 Q221.0797,112.0825 220.3949,113.1492 Q219.7101,114.2158 219.7101,116.3159 Q219.7101,118.4077 220.3949,119.4744 Q221.0797,120.541 222.4244,120.541 Q223.0553,120.541 223.6488,120.2712 Q224.2423,120.0015 224.8731,119.4204 Z "/><text fill="#000000" font-family="sans-serif" font-size="12" lengthAdjust="spacingAndGlyphs" textLength="56" x="240.6" y="120.5352">Colleague</text><line style="stroke: #A80036; stroke-width: 1.5;" x1="189.5" x2="317.5" y1="132" y2="132"/><polygon fill="none" points="199.5,138.9775,203.5,142.9775,199.5,146.9775,195.5,142.9775" style="stroke: #B38D22; stroke-width: 1.0;"/><text fill="#000000" font-family="sans-serif" font-size="11" lengthAdjust="spacingAndGlyphs" textLength="104" x="208.5" y="146.6348">mediator : Mediator</text><!--class ConcreteColleague1--><rect fill="#FEFECE" filter="url(#fd617aa88tg7t)" height="32" id="ConcreteColleague1" style="stroke: #A80036; stroke-width: 1.5;" width="147" x="6" y="213"/><ellipse cx="21" cy="229" fill="#ADD1B2" rx="11" ry="11" style="stroke: #A80036; stroke-width: 1.0;"/><path d="M23.4731,235.1431 Q22.8921,235.4419 22.2529,235.5913 Q21.6138,235.7407 20.9082,235.7407 Q18.4014,235.7407 17.0815,234.0889 Q15.7617,232.437 15.7617,229.3159 Q15.7617,226.1865 17.0815,224.5347 Q18.4014,222.8828 20.9082,222.8828 Q21.6138,222.8828 22.2612,223.0322 Q22.9087,223.1816 23.4731,223.4805 L23.4731,226.2031 Q22.8423,225.6221 22.2488,225.3523 Q21.6553,225.0825 21.0244,225.0825 Q19.6797,225.0825 18.9949,226.1492 Q18.3101,227.2158 18.3101,229.3159 Q18.3101,231.4077 18.9949,232.4744 Q19.6797,233.541 21.0244,233.541 Q21.6553,233.541 22.2488,233.2712 Q22.8423,233.0015 23.4731,232.4204 Z "/><text fill="#000000" font-family="sans-serif" font-size="12" lengthAdjust="spacingAndGlyphs" textLength="115" x="35" y="233.5352">ConcreteColleague1</text><!--class ConcreteColleague2--><rect fill="#FEFECE" filter="url(#fd617aa88tg7t)" height="32" id="ConcreteColleague2" style="stroke: #A80036; stroke-width: 1.5;" width="147" x="188" y="213"/><ellipse cx="203" cy="229" fill="#ADD1B2" rx="11" ry="11" style="stroke: #A80036; stroke-width: 1.0;"/><path d="M205.4731,235.1431 Q204.8921,235.4419 204.2529,235.5913 Q203.6138,235.7407 202.9082,235.7407 Q200.4014,235.7407 199.0815,234.0889 Q197.7617,232.437 197.7617,229.3159 Q197.7617,226.1865 199.0815,224.5347 Q200.4014,222.8828 202.9082,222.8828 Q203.6138,222.8828 204.2612,223.0322 Q204.9087,223.1816 205.4731,223.4805 L205.4731,226.2031 Q204.8423,225.6221 204.2488,225.3523 Q203.6553,225.0825 203.0244,225.0825 Q201.6797,225.0825 200.9949,226.1492 Q200.3101,227.2158 200.3101,229.3159 Q200.3101,231.4077 200.9949,232.4744 Q201.6797,233.541 203.0244,233.541 Q203.6553,233.541 204.2488,233.2712 Q204.8423,233.0015 205.4731,232.4204 Z "/><text fill="#000000" font-family="sans-serif" font-size="12" lengthAdjust="spacingAndGlyphs" textLength="115" x="217" y="233.5352">ConcreteColleague2</text><!--link Mediator to ConcreteMediator--><path d="M143.7482,55.8019 C129.1338,73.8499 111.4599,95.676 99.6516,110.2586 " fill="none" id="Mediator-ConcreteMediator" style="stroke: #A80036; stroke-width: 1.0;"/><polygon fill="none" points="138.505,51.1536,156.5313,40.0156,149.3852,59.9639,138.505,51.1536" style="stroke: #A80036; stroke-width: 1.0;"/><!--link Mediator to Colleague--><path d="M185.8237,43.9188 C198.8834,59.8547 217.3174,82.3487 231.6493,99.8369 " fill="none" id="Mediator-Colleague" style="stroke: #A80036; stroke-width: 1.0;"/><polygon fill="#A80036" points="182.625,40.0156,185.2359,49.5121,185.7943,43.8829,191.4235,44.4413,182.625,40.0156" style="stroke: #A80036; stroke-width: 1.0;"/><!--link Colleague to ConcreteColleague1--><path d="M190.9198,163.3648 C162.0956,180.3445 129.3801,199.6166 106.8946,212.8624 " fill="none" id="Colleague-ConcreteColleague1" style="stroke: #A80036; stroke-width: 1.0;"/><polygon fill="none" points="187.4525,157.283,208.2378,153.1631,194.5584,169.3457,187.4525,157.283" style="stroke: #A80036; stroke-width: 1.0;"/><!--link Colleague to ConcreteColleague2--><path d="M257.1757,173.5948 C258.2713,187.6317 259.3995,202.087 260.2287,212.7117 " fill="none" id="Colleague-ConcreteColleague2" style="stroke: #A80036; stroke-width: 1.0;"/><polygon fill="none" points="250.1586,173.6472,255.581,153.1631,264.1161,172.5577,250.1586,173.6472" style="stroke: #A80036; stroke-width: 1.0;"/><!--link ConcreteMediator to ConcreteColleague1--><path d="M85.4063,142.5156 C84.2112,160.0141 82.2908,188.1342 80.966,207.5341 " fill="none" id="ConcreteMediator-ConcreteColleague1" style="stroke: #A80036; stroke-width: 1.0;"/><polygon fill="#A80036" points="80.6092,212.7586,85.2134,204.0522,80.9501,207.7702,77.232,203.5069,80.6092,212.7586" style="stroke: #A80036; stroke-width: 1.0;"/><!--link ConcreteMediator to ConcreteColleague2--><path d="M113.8438,142.5156 C145.2157,160.8906 196.584,190.9778 229.7117,210.3812 " fill="none" id="ConcreteMediator-ConcreteColleague2" style="stroke: #A80036; stroke-width: 1.0;"/><polygon fill="#A80036" points="234.0601,212.928,228.3157,204.9279,229.7457,210.401,224.2725,211.8309,234.0601,212.928" style="stroke: #A80036; stroke-width: 1.0;"/><!--
@startuml
Mediator <|- ConcreteMediator
Mediator <- - Colleague
Colleague <|- - ConcreteColleague1
Colleague <|- - ConcreteColleague2
ConcreteMediator - -> ConcreteColleague1
ConcreteMediator - -> ConcreteColleague2

interface Mediator
class Colleague {
  #mediator : Mediator
}

hide empty attributes
hide empty methods
@enduml

PlantUML version 1.2019.04(Fri Mar 29 23:44:36 CST 2019)
(GPL source distribution)
Java Runtime: Java(TM) SE Runtime Environment
JVM: Java HotSpot(TM) 64-Bit Server VM
Java Version: 1.8.0_152-b16
Operating System: Mac OS X
OS Version: 10.14
Default Encoding: UTF-8
Language: zh
Country: CN
--></g></svg>