<svg xmlns="http://www.w3.org/2000/svg" xmlns:xlink="http://www.w3.org/1999/xlink" version="1.1" width="665.9038pt" height="178.367pt" viewBox="0 0 665.9038 178.367">
<defs>
<clipPath id="clip_0">
<path transform="matrix(1,0,0,-1,-61.0412,479.612)" d="M61.0412 301.245H726.945V479.612H61.0412Z" fill-rule="evenodd"/>
</clipPath>
<path id="font_1_12" d="M.07714844 0V.7158203H.32373048C.37939454 .7158203 .421875 .71240237 .45117188 .7055664 .4921875 .6961263 .52718099 .67903646 .55615237 .6542969 .5939128 .6223958 .6221517 .5816243 .64086917 .5319824 .6595866 .48234049 .6689453 .4256185 .6689453 .3618164 .6689453 .30745445 .66259768 .25927735 .64990237 .21728516 .63720706 .17529297 .62093099 .14054363 .6010742 .11303711 .58121749 .0855306 .55948898 .06388346 .5358887 .048095704 .5122884 .03230794 .48380534 .020345053 .45043946 .012207031 .41707359 .0040690104 .3787435 0 .33544923 0H.07714844M.171875 .08496094H.32470704C.37190757 .08496094 .40893556 .0893453 .43579103 .09811401 .46264649 .106892909 .48404948 .11924235 .5 .13516236 .52246096 .1575826 .5399577 .1877187 .55249026 .22557068 .56502279 .26343284 .57128909 .30933128 .57128909 .363266 .57128909 .43800355 .5590007 .49543763 .5344238 .53556826 .509847 .57569888 .47998048 .6025899 .44482423 .61624148 .4194336 .62598678 .37858073 .6308594 .32226563 .6308594H.171875V.08496094Z"/>
<path id="font_1_22" d="M.42089845 .16796875 .51171877 .15625C.49739585 .103037517 .47086589 .06173706 .4321289 .032348634 .39339195 .0029703777 .34391276-.01171875 .2836914-.01171875 .20784505-.01171875 .14770508 .01163737 .103271488 .05834961 .05883789 .10506185 .036621095 .17057292 .036621095 .2548828 .036621095 .3421224 .05908203 .40983073 .104003909 .4580078 .14892578 .5061849 .20719402 .53027346 .2788086 .53027346 .34814454 .53027346 .40478517 .5067088 .44873048 .45957948 .49267579 .41246034 .51464846 .34616599 .51464846 .2606964 .51464846 .25549827 .51448568 .247701 .51416018 .23730469H.1274414C.13069661 .18017578 .14680989 .13643392 .17578125 .1060791 .20475261 .07572428 .24088542 .060546876 .2841797 .060546876 .31640626 .060546876 .34391276 .06908671 .36669923 .08616638 .3894857 .103256229 .4075521 .13052368 .42089845 .16796875M.13232422 .3095703H.421875C.41796876 .3530477 .40690104 .38565574 .38867188 .4073944 .3606771 .4411367 .3243815 .4580078 .27978517 .4580078 .23942058 .4580078 .20548503 .4445394 .17797852 .41760255 .150472 .39067588 .1352539 .35466514 .13232422 .3095703Z"/>
<path id="font_1_27" d="M.063964847 0V.7158203H.15185547V0H.063964847Z"/>
<path id="font_1_19" d="M.40429688 .06542969C.37174479 .03722127 .34041343 .017308554 .31030274 .0056915285 .28019206-.0059153239 .24788411-.01171875 .2133789-.01171875 .15641277-.01171875 .11263021 .0021972657 .08203125 .030029297 .051432294 .057861329 .036132814 .09342448 .036132814 .13671875 .036132814 .16210938 .04191081 .18530274 .053466798 .20629883 .06502279 .22729492 .08015951 .24414063 .09887695 .25683595 .1175944 .26953126 .13867188 .27913413 .16210938 .28564454 .17936199 .2902018 .20540364 .29459635 .24023438 .29882813 .3111979 .30729167 .363444 .3173828 .39697267 .32910157 .3972982 .34109498 .39746095 .3487142 .39746095 .35195924 .39746095 .38763429 .38916017 .4127655 .3725586 .4273529 .35009767 .44713847 .31673179 .45703126 .27246095 .45703126 .2311198 .45703126 .20060222 .44978843 .1809082 .43530274 .16121419 .42081706 .14664714 .39518229 .13720703 .35839845L.05126953 .3701172C.05908203 .40701295 .0719401 .43680827 .08984375 .45950318 .1077474 .4821981 .1336263 .4996643 .16748047 .51190188 .20133464 .5241496 .24055989 .53027346 .28515626 .53027346 .3294271 .53027346 .36539714 .52504476 .3930664 .5145874 .4207357 .5041402 .44108073 .49099223 .45410157 .47514344 .4671224 .4593048 .47623698 .43929545 .4814453 .41511537 .484375 .40009056 .48583985 .3731028 .48583985 .33415223V.21730042C.48583985 .13582866 .48771159 .084228519 .49145509 .0625 .49519859 .040771486 .5026042 .01993815 .5136719 0H.421875C.4127604 .01864624 .40690104 .040456136 .40429688 .06542969M.39697267 .25976563C.36507163 .24680583 .31722007 .23578899 .25341798 .22671509 .21728516 .22153728 .19173177 .21570842 .17675781 .20922852 .16178386 .20274861 .15022786 .1932729 .14208985 .18080139 .13395183 .16832988 .12988281 .15447998 .12988281 .13925171 .12988281 .11592611 .13875325 .09648641 .15649414 .08093262 .17423503 .065389 .20019531 .057617189 .234375 .057617189 .26822917 .057617189 .29833985 .06499735 .32470704 .07975769 .35107423 .0945282 .37044273 .114705409 .3828125 .1402893 .3922526 .16003418 .39697267 .18917339 .39697267 .22770691V.25976563Z"/>
<path id="font_1_35" d="M.06201172-.20025635 .052246095-.11816406C.07145182-.1233724 .08821615-.12597656 .10253906-.12597656 .12207031-.12597656 .13769531-.12271627 .14941406-.11619568 .16113281-.10967509 .17073567-.10054525 .17822266-.08880615 .18375652-.08000692 .19270833-.058166505 .20507813-.023284913 .20670574-.018391928 .20930989-.011220296 .21289063-.0017700195L.016113282 .5185547H.110839847L.21875 .21817017C.23274739 .18007405 .24527996 .14002483 .25634767 .09802246 .2664388 .13847859 .27848307 .17790222 .29248048 .21629334L.4033203 .5185547H.49121095L.2939453-.008728027C.27278648-.06584676 .25634767-.10517883 .2446289-.12672425 .2290039-.15577698 .21110027-.17707317 .19091797-.1906128 .17073567-.2041626 .14664714-.2109375 .118652347-.2109375 .10172526-.2109375 .082845058-.20737712 .06201172-.20025635Z"/>
<path id="font_1_1" d="M0 0Z"/>
<path id="font_1_10" d="M.5283203 .421875H.055664064V.50390627H.5283203V.421875M.5283203 .20410156H.055664064V.2861328H.5283203V.20410156Z"/>
<path id="font_1_7" d="M.3232422 0V.171875H.0126953129V.2529297L.33935548 .7158203H.4111328V.2529297H.5078125V.171875H.4111328V0H.3232422M.3232422 .2529297V.5739136L.099121097 .2529297H.3232422Z"/>
<path id="font_1_6" d="M.50341799 .08496094V0H.030273438C.029622397 .0211792 .033040365 .041549684 .040527345 .06111145 .052571615 .09336853 .07185873 .12513733 .09838867 .15641785 .12491862 .18770854 .1632487 .22387696 .2133789 .2649231 .29117839 .32877604 .34375 .37928263 .37109376 .41644288 .3984375 .45360313 .41210938 .488739 .41210938 .5218506 .41210938 .5565796 .3996582 .5858714 .37475587 .60972598 .34985353 .6335805 .3173828 .6455078 .27734376 .6455078 .23502605 .6455078 .20117188 .6328125 .17578125 .6074219 .15039063 .58203127 .13753255 .546875 .13720703 .5019531L.046875 .51171877C.053059896 .57910159 .07633463 .63045248 .11669922 .6657715 .1570638 .7010905 .21126302 .71875 .27929688 .71875 .34798179 .71875 .40234376 .6997121 .4423828 .66163638 .48242188 .6235606 .5024414 .57637026 .5024414 .5200653 .5024414 .49142967 .49658204 .4632772 .48486329 .4356079 .47314454 .40794883 .45369468 .37882487 .42651368 .34823609 .39933268 .3176473 .35416667 .27570597 .29101563 .22241211 .23828125 .17822266 .20442708 .14824422 .18945313 .1324768 .17447917 .11671957 .16210938 .10088094 .15234375 .08496094H.50341799Z"/>
<path id="font_1_4" d="M.041503908 .35327149C.041503908 .43784587 .05021159 .50591537 .06762695 .55747988 .08504232 .6090444 .11092123 .6488139 .14526367 .67678835 .17960613 .70476278 .22281902 .71875 .27490235 .71875 .3133138 .71875 .34700523 .711024 .37597657 .6955719 .4049479 .6801198 .4288737 .6578369 .4477539 .62872317 .46663413 .5996094 .4814453 .56414797 .4921875 .52233889 .5029297 .48053996 .5083008 .42418418 .5083008 .35327149 .5083008 .26934815 .49967448 .2016042 .48242188 .15003968 .46516929 .098475139 .43937174 .058624269 .4050293 .03048706 .37068687 .0023498536 .3273112-.01171875 .27490235-.01171875 .20589192-.01171875 .1516927 .013005574 .11230469 .062454225 .065104167 .12198385 .041503908 .21892293 .041503908 .35327149M.13183594 .35302735C.13183594 .2357076 .14558919 .15762837 .1730957 .11878967 .20060222 .07996114 .23453777 .060546876 .27490235 .060546876 .31526695 .060546876 .34920249 .08004252 .37670899 .11903381 .40421549 .15803528 .41796876 .23603313 .41796876 .35302735 .41796876 .4706726 .40421549 .5488281 .37670899 .5874939 .34920249 .62616989 .3149414 .6455078 .27392579 .6455078 .2335612 .6455078 .20133464 .6284485 .1772461 .59432986 .14697266 .55078127 .13183594 .47034709 .13183594 .35302735Z"/>
<path id="font_1_30" d="M.06591797-.19921875V.5185547H.1459961V.45069886C.1648763 .4772288 .18619792 .49712119 .20996094 .510376 .23372396 .52364096 .26253257 .53027346 .29638673 .53027346 .34065757 .53027346 .37972007 .5188802 .41357423 .49609376 .44742839 .47330729 .47298179 .4411621 .49023438 .3996582 .507487 .3581543 .5161133 .31266276 .5161133 .2631836 .5161133 .2101237 .5065918 .16235352 .48754884 .11987305 .46850587 .07739258 .44083659 .044840497 .40454103 .022216797 .36824546-.00040690104 .33007813-.01171875 .29003907-.01171875 .2607422-.01171875 .23445638-.005533854 .21118164 .0068359377 .1879069 .019205729 .16878255 .03483073 .1538086 .053710939V-.19921875H.06591797M.14550781 .25610353C.14550781 .18945313 .15901692 .14019776 .18603516 .1083374 .21305339 .07647705 .24576824 .060546876 .2841797 .060546876 .3232422 .060546876 .35668946 .077046718 .38452149 .11004639 .41235353 .14304607 .42626954 .19417317 .42626954 .26342774 .42626954 .3294271 .41267906 .3788452 .38549806 .41168214 .35831706 .44451905 .32584635 .4609375 .28808595 .4609375 .25065104 .4609375 .2175293 .4434611 .1887207 .4085083 .15991211 .3735555 .14550781 .3227539 .14550781 .25610353Z"/>
<path id="font_1_32" d="M.030761719 .15527344 .11767578 .16894531C.122558597 .13396199 .1361491 .10714722 .15844727 .08850098 .18074544 .06986491 .21191406 .060546876 .25195313 .060546876 .29231773 .060546876 .32226563 .06876627 .34179688 .08520508 .36132813 .10164388 .37109376 .12093099 .37109376 .1430664 .37109376 .16292317 .36246745 .17854817 .34521485 .1899414 .33317057 .1977539 .30322267 .2076823 .2553711 .21972656 .19091797 .23600261 .14624024 .2500814 .12133789 .2619629 .09643555 .2738444 .077555339 .2902832 .064697269 .3112793 .05183919 .3322754 .045410158 .35546876 .045410158 .38085938 .045410158 .40397135 .05069987 .42537437 .061279298 .44506837 .07185873 .46476237 .08626302 .48111979 .10449219 .49414063 .11816406 .50423178 .13680013 .5127767 .16040039 .5197754 .18400066 .5267741 .20930989 .53027346 .23632813 .53027346 .27701823 .53027346 .31274415 .52441409 .34350587 .5126953 .37426759 .50097659 .39697267 .48510743 .4116211 .4650879 .42626954 .44506837 .4363607 .41829429 .44189454 .38476563L.35595704 .37304688C.35205079 .3997396 .34073893 .4205729 .32202149 .43554688 .30330406 .45052085 .27685548 .4580078 .24267578 .4580078 .2023112 .4580078 .17350261 .45133464 .15625 .43798829 .13899739 .42464195 .1303711 .40901695 .1303711 .39111329 .1303711 .37972007 .13395183 .36946617 .14111328 .36035157 .14827474 .35091148 .1595052 .34309898 .17480469 .33691407 .18359375 .33365885 .20947266 .32617188 .2524414 .31445313 .31461589 .29785157 .35799156 .28426109 .38256837 .27368165 .40714518 .2631022 .42643229 .24772136 .4404297 .22753906 .4544271 .20735677 .46142579 .18229167 .46142579 .15234375 .46142579 .123046878 .45288087 .095458988 .43579103 .06958008 .41870118 .043701173 .39404298 .02368164 .3618164 .009521484 .32958985-.004638672 .2931315-.01171875 .2524414-.01171875 .1850586-.01171875 .13370769 .002319336 .09838867 .030395508 .063069667 .05847168 .040527345 .100097659 .030761719 .15527344Z"/>
<path id="font_1_2" d="M.08886719 0V.10058594H.18896485V0C.18896485-.036783857 .18245442-.06648763 .1694336-.08911133 .15641277-.11173502 .13574219-.12923177 .107421878-.14160156L.08300781-.103515628C.1015625-.0954183 .115234378-.08351135 .12402344-.0677948 .1328125-.052078248 .13769531-.02947998 .13867188 0H.08886719Z"/>
<path id="font_1_18" d="M.25927735 0V.6308594H.0234375V.7158203H.5908203V.6308594H.3540039V0H.25927735Z"/>
<path id="font_1_24" d="M.06591797 0V.7158203H.1538086V.4585266C.19482422 .50635787 .24658203 .53027346 .30908204 .53027346 .3474935 .53027346 .38085938 .5227051 .4091797 .50756838 .4375 .49243165 .45776368 .47151695 .4699707 .44482423 .48217774 .4181315 .48828126 .37939454 .48828126 .32861329V0H.40039063V.32826234C.40039063 .37215678 .39086915 .4041036 .37182618 .42410279 .3527832 .44410197 .32584635 .45410157 .29101563 .45410157 .26497398 .45410157 .24047852 .44735209 .2175293 .43385316 .19458008 .42036439 .17822266 .4020742 .16845703 .37898255 .1586914 .3559011 .1538086 .32403565 .1538086 .28338624V0H.06591797Z"/>
<path id="font_1_31" d="M.064941409 0V.5185547H.14404297V.4399414C.16422527 .47672526 .18286133 .50097659 .19995117 .5126953 .21704102 .52441409 .23583985 .53027346 .25634767 .53027346 .28597007 .53027346 .31608073 .5208333 .3466797 .5019531L.31640626 .4204712C.29492188 .43312583 .2734375 .43945313 .25195313 .43945313 .23274739 .43945313 .2154948 .43367515 .20019531 .42211915 .18489583 .41056315 .17399089 .39453126 .16748047 .37402345 .15771485 .34277345 .15283203 .30859376 .15283203 .27148438V0H.064941409Z"/>
<path id="font_1_29" d="M.033203126 .25927735C.033203126 .355306 .059895833 .42643229 .11328125 .47265626 .15787761 .5110677 .21223958 .53027346 .2763672 .53027346 .34765626 .53027346 .40592448 .5069173 .45117188 .46020509 .49641929 .41349284 .51904299 .34895835 .51904299 .26660157 .51904299 .1998698 .5090332 .14737956 .48901368 .10913086 .46899415 .070882167 .43986003 .041178388 .40161134 .020019532 .36336265-.0011393229 .3216146-.01171875 .2763672-.01171875 .20377605-.01171875 .1451009 .011555989 .1003418 .05810547 .055582685 .104654949 .033203126 .17171224 .033203126 .25927735M.123535159 .2590332C.123535159 .19270833 .13802083 .14304607 .16699219 .11004639 .19596355 .077046718 .23242188 .060546876 .2763672 .060546876 .31998698 .060546876 .35628257 .07712809 .3852539 .11029053 .41422526 .14345296 .42871095 .19401042 .42871095 .2619629 .42871095 .32600913 .4141439 .37453208 .38500978 .40753175 .35587565 .4405314 .31966148 .45703126 .2763672 .45703126 .23242188 .45703126 .19596355 .4406128 .16699219 .40777589 .13802083 .37493897 .123535159 .32535807 .123535159 .2590332Z"/>
<path id="font_1_34" d="M.40576173 0V.0766449C.36539714 .0177358 .31054688-.01171875 .24121094-.01171875 .21061199-.01171875 .18204753-.005859375 .15551758 .005859375 .12898763 .017578125 .10929362 .03230794 .09643555 .050048829 .08357748 .06778971 .07454427 .08951823 .06933594 .115234378 .06575521 .13248699 .063964847 .15983074 .063964847 .19726563V.5185547H.15185547V.2312622C.15185547 .18541463 .15364583 .15452576 .15722656 .13859558 .16276042 .115503948 .17447917 .09737142 .19238281 .084198 .21028646 .07103475 .23242188 .064453128 .25878907 .064453128 .28515626 .064453128 .30989585 .07119751 .3330078 .08468628 .35611979 .09818522 .3724772 .1165568 .38208009 .13980103 .39168296 .16305542 .39648438 .1967926 .39648438 .24101258V.5185547H.484375V0H.40576173Z"/>
<path id="font_1_23" d="M.049804689-.04296875 .1352539-.0546875C.13883464-.08137003 .14876302-.10080465 .16503906-.11299133 .18684896-.12946065 .21663411-.13769531 .25439454-.13769531 .29508464-.13769531 .3264974-.12953694 .3486328-.113220218 .37076823-.09690348 .3857422-.07406616 .3935547-.044708253 .39811198-.026753745 .40022788 .010935466 .39990235 .068359378 .36149089 .022786459 .3136393 0 .25634767 0 .1850586 0 .12988281 .025716147 .09082031 .07714844 .051757814 .12858074 .032226564 .19026692 .032226564 .26220704 .032226564 .3116862 .041178388 .35734049 .05908203 .39916993 .07698568 .44099937 .10294596 .47330729 .13696289 .49609376 .17097982 .5188802 .2109375 .53027346 .25683595 .53027346 .31803385 .53027346 .3684896 .5052083 .40820313 .45507813V.5185547H.4892578V.070007327C.4892578-.010772705 .48103843-.06801859 .4645996-.10173035 .4481608-.1354421 .42211915-.16206868 .3864746-.1816101 .35083009-.2011617 .30696617-.2109375 .2548828-.2109375 .19303386-.2109375 .1430664-.19698079 .10498047-.16906739 .06689453-.14115398 .048502607-.099121097 .049804689-.04296875M.122558597 .26853944C.122558597 .20067851 .1360677 .15116374 .16308594 .11999512 .19010417 .0888265 .22395833 .07324219 .26464845 .07324219 .30501304 .07324219 .3388672 .08874512 .36621095 .11975098 .3935547 .15075684 .40722657 .19938152 .40722657 .265625 .40722657 .3289388 .3931478 .3766683 .36499024 .40881349 .33683268 .44095866 .30289714 .45703126 .2631836 .45703126 .2241211 .45703126 .19091797 .4412028 .16357422 .4095459 .13623047 .377889 .122558597 .33088685 .122558597 .26853944Z"/>
<path id="font_1_33" d="M.2578125 .07861328 .2705078 .0009765625C.24576824-.004231771 .22363281-.0068359377 .20410156-.0068359377 .17220052-.0068359377 .14746094-.0017903646 .12988281 .008300781 .11230469 .018391928 .0999349 .031656904 .09277344 .048095704 .08561198 .06453451 .08203125 .099121097 .08203125 .15185547V.4501953H.017578125V.5185547H.08203125V.64697268L.1694336 .69970706V.5185547H.2578125V.4501953H.1694336V.14697266C.1694336 .121907558 .17097982 .10579427 .17407227 .09863281 .17716472 .09147135 .18221028 .08577474 .18920899 .08154297 .19620769 .077311199 .20621746 .07519531 .21923828 .07519531 .2290039 .07519531 .24186199 .07633463 .2578125 .07861328Z"/>
<path id="font_1_5" d="M.3725586 0H.28466798V.5600586C.26350913 .5398763 .23575847 .51969406 .20141602 .49951173 .16707357 .47932945 .13623047 .46419273 .10888672 .45410157V.5390625C.15804036 .5621745 .20100911 .59016928 .23779297 .6230469 .2745768 .6559245 .3006185 .6878255 .31591798 .71875H.3725586V0Z"/>
<path id="font_1_3" d="M.09082031 0V.10058594H.19091797V0H.09082031Z"/>
<path id="font_1_9" d="M.0546875 .16601563 .13916016 .17285156C.14632161 .13348389 .15999349 .10492452 .18017578 .08717346 .20035808 .0694224 .22623699 .060546876 .2578125 .060546876 .28483073 .060546876 .30851237 .06673177 .32885743 .07910156 .34920249 .09147135 .3658854 .10799154 .37890626 .12866211 .3919271 .14933269 .40283204 .1772461 .4116211 .21240235 .42041017 .2475586 .4248047 .28336589 .4248047 .31982423 .4248047 .32373048 .42464195 .32958985 .4243164 .33740235 .40673829 .30940757 .3827311 .28670249 .35229493 .2692871 .32185874 .25187174 .28889976 .24316406 .25341798 .24316406 .19417317 .24316406 .14404297 .26462303 .103027347 .3075409 .06201172 .35046897 .041503908 .40705363 .041503908 .47729493 .041503908 .5498149 .0629069 .6081848 .10571289 .6524048 .14851888 .69663497 .20214844 .71875 .26660157 .71875 .31315104 .71875 .3557129 .70622256 .3942871 .6811676 .43286134 .65612289 .4621582 .62042239 .48217774 .57406619 .50219729 .52770999 .51220706 .46061708 .51220706 .37278749 .51220706 .28137718 .5022786 .20858765 .48242188 .15441895 .4625651 .100260417 .43302409 .05903117 .39379884 .030731202 .35457359 .0024312337 .30859376-.01171875 .25585938-.01171875 .1998698-.01171875 .15413411 .0038248699 .118652347 .03491211 .08317057 .06599935 .061848958 .10970052 .0546875 .16601563M.41455079 .4817047C.41455079 .53192648 .40112306 .5717824 .37426759 .6012726 .3474121 .63076278 .31510417 .6455078 .27734376 .6455078 .23828125 .6455078 .20426433 .6296285 .17529297 .5978699 .14632161 .56611129 .13183594 .5249583 .13183594 .474411 .13183594 .42904154 .14558919 .3921763 .1730957 .3638153 .20060222 .33546449 .23453777 .32128907 .27490235 .32128907 .31559245 .32128907 .3490397 .33546449 .37524415 .3638153 .40144859 .3921763 .41455079 .43147279 .41455079 .4817047Z"/>
<path id="font_1_13" d="M.41210938 .28027345V.36523438H.71533206V.09996033C.66878256 .06289164 .62076827 .035008748 .57128909 .016311646 .5218099-.002375285 .47102867-.01171875 .4189453-.01171875 .3486328-.01171875 .28474937 .0033365887 .22729492 .033447267 .1698405 .063557948 .12646485 .10709635 .09716797 .1640625 .067871097 .22102864 .053222658 .28466798 .053222658 .35498048 .053222658 .42464195 .06778971 .4896647 .09692383 .5500488 .12605794 .6104329 .16796875 .65527346 .22265625 .6845703 .27734376 .7138672 .34033204 .7285156 .4116211 .7285156 .4633789 .7285156 .51017257 .7201233 .55200198 .7033386 .59383139 .68655398 .6266276 .6631724 .6503906 .63319399 .6741536 .6032155 .69222006 .56411239 .70458987 .5158844L.6191406 .4924469C.60839846 .5289459 .59505209 .5576274 .57910159 .5784912 .56315109 .59936526 .54036459 .6160787 .5107422 .6286316 .48111979 .6411845 .4482422 .64746096 .41210938 .64746096 .3688151 .64746096 .33138023 .6408641 .2998047 .6276703 .26822917 .6144765 .24275716 .59712728 .22338867 .57562258 .20402019 .55411788 .18896485 .53049728 .17822266 .50476077 .15999349 .46044923 .1508789 .4123942 .1508789 .3605957 .1508789 .29674278 .16186524 .24331157 .18383789 .20030213 .20581055 .15729268 .23779297 .12536113 .27978517 .10450745 .32177735 .08366394 .3663737 .07324219 .41357423 .07324219 .45458985 .07324219 .4946289 .08111572 .5336914 .09686279 .5727539 .11262003 .6023763 .12943013 .6225586 .14729309V.28027345H.41210938Z"/>
<path id="font_1_14" d="M.09326172 0V.7158203H.18798828V0H.09326172Z"/>
<path id="font_1_15" d="M.07714844 0V.7158203H.34716798C.394694 .7158203 .4309896 .7135417 .4560547 .7089844 .49121095 .703125 .5206706 .6919759 .5444336 .6755371 .5681966 .6590983 .587321 .6360677 .60180667 .6064453 .6162923 .57682296 .62353518 .5442708 .62353518 .50878909 .62353518 .44791667 .6041667 .39640299 .5654297 .35424806 .5266927 .3120931 .45670573 .29101563 .35546876 .29101563H.171875V0H.07714844M.171875 .37597657H.3569336C.4181315 .37597657 .46158854 .387324 .4873047 .41001893 .5130208 .432724 .5258789 .46466575 .5258789 .5058441 .5258789 .5356801 .51831057 .56121829 .5031738 .5824585 .4880371 .60369876 .46809898 .6177266 .44335938 .62454226 .42740885 .62875369 .39794923 .6308594 .35498048 .6308594H.171875V.37597657Z"/>
<path id="font_1_17" d="M.044921876 .23046875 .13427735 .23828125C.13850911 .20247396 .14835613 .1730957 .16381836 .15014649 .1792806 .12719727 .20328777 .10864258 .23583985 .09448242 .26839195 .080322269 .30501304 .07324219 .34570313 .07324219 .38183595 .07324219 .41373698 .07861328 .44140626 .08935547 .46907554 .100097659 .4896647 .11482748 .5031738 .13354492 .5166829 .15226238 .5234375 .17263794 .5234375 .19467163 .5234375 .21703084 .51692709 .23655193 .50390627 .25323487 .4908854 .26992799 .46940104 .28396098 .43945313 .29533387 .4202474 .3028005 .37776695 .31440736 .31201173 .33015443 .24625652 .3459015 .20019531 .36078898 .17382813 .3748169 .13964844 .39275108 .11417643 .41500855 .09741211 .44158937 .08064779 .46817018 .072265628 .4979299 .072265628 .53086856 .072265628 .5670726 .08251953 .60091146 .103027347 .63238528 .123535159 .66385909 .15348308 .6877492 .1928711 .7040558 .23225911 .72036239 .27604167 .7285156 .32421876 .7285156 .37727867 .7285156 .42407228 .7199707 .4645996 .70288088 .50512698 .685791 .5362956 .66064456 .55810549 .6274414 .57991537 .5942383 .5916341 .5566406 .5932617 .51464846L.5024414 .5078125C.4975586 .5525818 .48103843 .58639529 .45288087 .6092529 .4247233 .6321208 .38313804 .6435547 .328125 .6435547 .27083335 .6435547 .22908528 .6330821 .20288086 .61213687 .17667644 .5912018 .16357422 .5659587 .16357422 .5364075 .16357422 .5107625 .17285156 .48965965 .19140625 .47309876 .20963542 .45653788 .25724284 .4395701 .33422853 .42219544 .4112142 .40483094 .46402995 .38965354 .49267579 .3766632 .53434249 .357488 .5651042 .33320109 .58496096 .3038025 .6048177 .2744039 .6147461 .24053955 .6147461 .20220948 .6147461 .16419475 .6038411 .12837728 .58203127 .09475708 .5602214 .061136884 .52888998 .03498332 .4880371 .016296387 .44718424-.002380371 .40120445-.01171875 .35009767-.01171875 .285319-.01171875 .2310384-.0022786458 .18725586 .016601563 .14347331 .03548177 .10913086 .06388346 .084228519 .10180664 .059326173 .13972982 .046223958 .18261719 .044921876 .23046875Z"/>
<path id="font_1_11" d="M.5878906 .25146485 .6826172 .22753906C.66276046 .14973958 .6270345 .090413417 .57543948 .049560548 .5238444 .008707683 .46077476-.01171875 .38623048-.01171875 .30908204-.01171875 .24633789 .0039876305 .19799805 .03540039 .1496582 .06681315 .11287435 .11230469 .087646488 .171875 .06241862 .23144531 .049804689 .29541017 .049804689 .36376954 .049804689 .4383138 .06404623 .5033366 .0925293 .5588379 .12101237 .6143392 .16153972 .65649417 .21411133 .68530276 .26668296 .7141113 .32454429 .7285156 .3876953 .7285156 .4593099 .7285156 .51953127 .71028646 .5683594 .6738281 .6171875 .6373698 .6512044 .5861003 .67041018 .52001956L.57714846 .49804688C.5605469 .5501302 .5364583 .5880534 .5048828 .6118164 .47330729 .6355794 .43359376 .64746096 .3857422 .64746096 .33072917 .64746096 .28474937 .63427737 .24780274 .60791018 .21085613 .58154299 .18489583 .5461426 .16992188 .501709 .15494792 .4572754 .14746094 .41145835 .14746094 .3642578 .14746094 .3033854 .15633138 .25024415 .17407227 .20483399 .19181316 .15942383 .21940105 .12548828 .25683595 .103027347 .29427085 .080566409 .3347982 .06933594 .37841798 .06933594 .43147788 .06933594 .47639976 .084635417 .5131836 .115234378 .54996749 .14583333 .5748698 .19124349 .5878906 .25146485Z"/>
<path id="font_1_21" d="M.40429688 .19042969 .49072267 .17871094C.48128257 .119140628 .45711265 .072509769 .4182129 .03881836 .37931315 .005126953 .33154298-.01171875 .27490235-.01171875 .2039388-.01171875 .14689128 .011474609 .103759769 .057861329 .060628255 .10424805 .0390625 .17073567 .0390625 .25732423 .0390625 .3133138 .048339845 .3623047 .06689453 .40429688 .08544922 .44628907 .11368815 .4777832 .15161133 .4987793 .1895345 .5197754 .23079427 .53027346 .27539063 .53027346 .33170573 .53027346 .37776695 .5161133 .41357423 .48779298 .4493815 .45948283 .47233073 .419281 .48242188 .3671875L.39697267 .35351563C.38883464 .3881836 .37443034 .41426597 .35375978 .4317627 .3330892 .44925944 .30810548 .4580078 .2788086 .4580078 .23453777 .4580078 .1985677 .44213868 .17089844 .4104004 .14322917 .3786621 .12939453 .32845054 .12939453 .25976563 .12939453 .19010417 .14274089 .13948567 .1694336 .107910159 .1961263 .07633463 .23095703 .060546876 .27392579 .060546876 .308431 .060546876 .3372396 .07116699 .36035157 .09240723 .38346354 .11364746 .39811198 .14632161 .40429688 .19042969Z"/>
<path id="font_1_26" d="M.06640625 0V.7158203H.15429688V.3080597L.3623047 .5185547H.47607423L.27783204 .32589723 .49609376 0H.3876953L.2163086 .26557923 .15429688 .2055664V0H.06640625Z"/>
<path id="font_1_16" d="M.07861328 0V.7158203H.3959961C.4597982 .7158203 .5083008 .70939639 .5415039 .69654849 .57470706 .68371078 .601237 .6610362 .62109377 .6285248 .6409505 .59601339 .6508789 .5600891 .6508789 .52075198 .6508789 .47003175 .6344401 .4272766 .6015625 .39248658 .5686849 .3577067 .5179036 .3356018 .44921876 .32617188 .47428385 .31410728 .4933268 .3022054 .50634768 .2904663 .5340169 .2650248 .5602214 .23324077 .58496096 .19511414L.70947268 0H.59033206L.49560548 .14915467C.4679362 .19218445 .44514976 .22510784 .4272461 .2479248 .40934245 .27075196 .39331056 .2867279 .3791504 .29585267 .36499024 .30498759 .35058595 .3113505 .3359375 .3149414 .3251953 .31722007 .3076172 .31835938 .28320313 .31835938H.17333985V0H.07861328M.17333985 .40039063H.37695313C.4202474 .40039063 .45410157 .40485636 .47851563 .41378785 .5029297 .42271934 .5214844 .43701173 .5341797 .45666505 .546875 .47631837 .55322268 .49768067 .55322268 .52075198 .55322268 .5545349 .54093429 .5823059 .5163574 .60406497 .4917806 .62583419 .45296226 .63671877 .39990235 .63671877H.17333985V.40039063Z"/>
<path id="font_1_28" d="M.06591797 0V.5185547H.14453125V.44580079C.1608073 .4711914 .18245442 .49161784 .20947266 .5070801 .23649089 .5225423 .2672526 .53027346 .3017578 .53027346 .34016929 .53027346 .37166343 .52229818 .39624024 .50634768 .42081706 .49039714 .43815104 .46809898 .4482422 .43945313 .4892578 .5 .54264327 .53027346 .60839846 .53027346 .65983077 .53027346 .69938156 .5160319 .7270508 .48754884 .75472006 .45906578 .7685547 .4152018 .7685547 .35595704V0H.68115237V.32666017C.68115237 .3618164 .678304 .38712565 .6726074 .4025879 .6669108 .41805015 .6565755 .4305013 .64160159 .4399414 .6266276 .4493815 .6090495 .45410157 .5888672 .45410157 .5524089 .45410157 .52213546 .44197593 .49804688 .4177246 .47395835 .3934733 .46191407 .35465495 .46191407 .30126954V0H.37402345V.33691407C.37402345 .37597657 .36686198 .40527345 .35253907 .4248047 .33821617 .44433595 .31477867 .45410157 .28222657 .45410157 .25748698 .45410157 .23461914 .44759117 .21362305 .4345703 .19262696 .42154948 .17740886 .4025065 .16796875 .3774414 .15852864 .3523763 .1538086 .3162435 .1538086 .26904298V0H.06591797Z"/>
<path id="font_1_20" d="M.14697266 0H.06542969V.7158203H.15332031V.46044923C.19042969 .5069987 .23779297 .53027346 .29541017 .53027346 .3273112 .53027346 .35750328 .5238444 .38598634 .5109863 .4144694 .49812828 .4379069 .48006187 .45629884 .4567871 .47469078 .43351237 .48909507 .4054362 .49951173 .3725586 .5099284 .339681 .5151367 .30452476 .5151367 .26708985 .5151367 .17822266 .49316407 .10953776 .44921876 .061035158 .40527345 .012532552 .35253907-.01171875 .29101563-.01171875 .2298177-.01171875 .18180339 .013834636 .14697266 .064941409V0M.1459961 .2631836C.1459961 .20100911 .15445964 .15608724 .17138672 .12841797 .19905599 .08317057 .23649089 .060546876 .2836914 .060546876 .32210288 .060546876 .355306 .07722982 .38330079 .1105957 .41129557 .1439616 .42529298 .19368489 .42529298 .25976563 .42529298 .32747398 .41186524 .3774414 .38500978 .40966798 .3581543 .44189454 .3256836 .4580078 .28759767 .4580078 .2491862 .4580078 .21598308 .44132487 .18798828 .40795899 .15999349 .3745931 .1459961 .32633464 .1459961 .2631836Z"/>
<path id="font_1_25" d="M.06640625 .6152344V.7158203H.15429688V.6152344H.06640625M.06640625 0V.5185547H.15429688V0H.06640625Z"/>
<path id="font_1_8" d="M.041503908 .18847656 .13378906 .1953125C.140625 .15055339 .15649414 .11690267 .18139649 .09436035 .20629883 .07181803 .23632813 .060546876 .27148438 .060546876 .3138021 .060546876 .34960938 .0764974 .37890626 .10839844 .40820313 .14029949 .42285157 .18261719 .42285157 .23535156 .42285157 .28548179 .4087728 .32503257 .38061524 .3540039 .35245768 .38297526 .31559245 .39746095 .27001954 .39746095 .24169922 .39746095 .21614583 .39094035 .19335938 .37789918 .17057292 .364858 .15266927 .34794108 .13964844 .32714845L.057128908 .3388672 .12646485 .70703127H.48242188V.6230469H.19677735L.15820313 .43037416C.20117188 .46051536 .24625652 .47558595 .29345704 .47558595 .35595704 .47558595 .4086914 .45391337 .45166017 .41056825 .4946289 .36723329 .5161133 .31151835 .5161133 .24342346 .5161133 .17857361 .49723307 .122528079 .45947267 .075286868 .41357423 .017283122 .35091148-.01171875 .27148438-.01171875 .2063802-.01171875 .15323894 .006556193 .11206055 .04310608 .070882167 .07965597 .04736328 .1281128 .041503908 .18847656Z"/>
</defs>
<g clip-path="url(#clip_0)">
<path transform="matrix(1,0,0,-1,-61.0412,479.612)" d="M36 36H756V576H36Z" fill="#ffffff"/>
<use data-text="D" xlink:href="#font_1_12" transform="matrix(16,0,0,-16,354.0838,169.112)"/>
<use data-text="e" xlink:href="#font_1_22" transform="matrix(16,0,0,-16,365.6358,169.112)"/>
<use data-text="l" xlink:href="#font_1_27" transform="matrix(16,0,0,-16,374.5318,169.112)"/>
<use data-text="a" xlink:href="#font_1_19" transform="matrix(16,0,0,-16,378.0838,169.112)"/>
<use data-text="y" xlink:href="#font_1_35" transform="matrix(16,0,0,-16,386.9798,169.112)"/>
<use data-text=" " xlink:href="#font_1_1" transform="matrix(16,0,0,-16,394.9798,169.112)"/>
<use data-text="=" xlink:href="#font_1_10" transform="matrix(16,0,0,-16,399.4278,169.112)"/>
<use data-text=" " xlink:href="#font_1_1" transform="matrix(16,0,0,-16,408.7718,169.112)"/>
<use data-text="4" xlink:href="#font_1_7" transform="matrix(16,0,0,-16,413.2198,169.112)"/>
<use data-text="2" xlink:href="#font_1_6" transform="matrix(16,0,0,-16,422.11579,169.112)"/>
<use data-text="0" xlink:href="#font_1_4" transform="matrix(16,0,0,-16,431.01179,169.112)"/>
<use data-text=" " xlink:href="#font_1_1" transform="matrix(16,0,0,-16,439.90779,169.112)"/>
<use data-text="p" xlink:href="#font_1_30" transform="matrix(16,0,0,-16,444.35578,169.112)"/>
<use data-text="s" xlink:href="#font_1_32" transform="matrix(16,0,0,-16,453.25178,169.112)"/>
<use data-text="," xlink:href="#font_1_2" transform="matrix(16,0,0,-16,461.25178,169.112)"/>
<use data-text=" " xlink:href="#font_1_1" transform="matrix(16,0,0,-16,465.69978,169.112)"/>
<use data-text="T" xlink:href="#font_1_18" transform="matrix(16,0,0,-16,469.85975,169.112)"/>
<use data-text="h" xlink:href="#font_1_24" transform="matrix(16,0,0,-16,479.63575,169.112)"/>
<use data-text="r" xlink:href="#font_1_31" transform="matrix(16,0,0,-16,488.53175,169.112)"/>
<use data-text="o" xlink:href="#font_1_29" transform="matrix(16,0,0,-16,493.85975,169.112)"/>
<use data-text="u" xlink:href="#font_1_34" transform="matrix(16,0,0,-16,502.75575,169.112)"/>
<use data-text="g" xlink:href="#font_1_23" transform="matrix(16,0,0,-16,511.65174,169.112)"/>
<use data-text="h" xlink:href="#font_1_24" transform="matrix(16,0,0,-16,520.5477,169.112)"/>
<use data-text="p" xlink:href="#font_1_30" transform="matrix(16,0,0,-16,529.4437,169.112)"/>
<use data-text="u" xlink:href="#font_1_34" transform="matrix(16,0,0,-16,538.3397,169.112)"/>
<use data-text="t" xlink:href="#font_1_33" transform="matrix(16,0,0,-16,547.2357,169.112)"/>
<use data-text=" " xlink:href="#font_1_1" transform="matrix(16,0,0,-16,551.6837,169.112)"/>
<use data-text="=" xlink:href="#font_1_10" transform="matrix(16,0,0,-16,556.1317,169.112)"/>
<use data-text=" " xlink:href="#font_1_1" transform="matrix(16,0,0,-16,565.4757,169.112)"/>
<use data-text="1" xlink:href="#font_1_5" transform="matrix(16,0,0,-16,569.9237,169.112)"/>
<use data-text="4" xlink:href="#font_1_7" transform="matrix(16,0,0,-16,578.8197,169.112)"/>
<use data-text="." xlink:href="#font_1_3" transform="matrix(16,0,0,-16,587.7157,169.112)"/>
<use data-text="2" xlink:href="#font_1_6" transform="matrix(16,0,0,-16,592.1637,169.112)"/>
<use data-text="9" xlink:href="#font_1_9" transform="matrix(16,0,0,-16,601.0597,169.112)"/>
<use data-text=" " xlink:href="#font_1_1" transform="matrix(16,0,0,-16,609.9557,169.112)"/>
<use data-text="G" xlink:href="#font_1_13" transform="matrix(16,0,0,-16,614.4037,169.112)"/>
<use data-text="I" xlink:href="#font_1_14" transform="matrix(16,0,0,-16,626.8517,169.112)"/>
<use data-text="P" xlink:href="#font_1_15" transform="matrix(16,0,0,-16,631.2997,169.112)"/>
<use data-text="S" xlink:href="#font_1_17" transform="matrix(16,0,0,-16,641.9717,169.112)"/>
<use data-text=" " xlink:href="#font_1_1" transform="matrix(16,0,0,-16,652.6437,169.112)"/>
<path transform="matrix(1,0,0,-1,106.4588,67.73709)" stroke-width="4" stroke-linecap="butt" stroke-linejoin="round" fill="none" stroke="#434dd6" d="M0 0H28.5"/>
<path transform="matrix(1,0,0,-1,126.9588,61.73709)" d="M0 0 12-6 0-12Z" fill="#434dd6" fill-rule="evenodd"/>
<path transform="matrix(1,0,0,-1,3.4588013,67.73709)" stroke-width="4" stroke-linecap="butt" stroke-linejoin="round" fill="none" stroke="#434dd6" d="M0 0H28.375"/>
<path transform="matrix(1,0,0,-1,23.833802,61.73709)" d="M0 0 12-6 0-12Z" fill="#434dd6" fill-rule="evenodd"/>
<path transform="matrix(1,0,0,-1,63.3338,67.73709)" stroke-width="4" stroke-linecap="butt" stroke-linejoin="round" fill="none" stroke="#434dd6" d="M0 0H28.375"/>
<path transform="matrix(1,0,0,-1,83.7088,61.73709)" d="M0 0 12-6 0-12Z" fill="#434dd6" fill-rule="evenodd"/>
<path transform="matrix(1,0,0,-1,214.4588,67.73709)" stroke-width="4" stroke-linecap="butt" stroke-linejoin="round" fill="none" stroke="#434dd6" d="M0 0H28.375"/>
<path transform="matrix(1,0,0,-1,234.8338,61.73709)" d="M0 0 12-6 0-12Z" fill="#434dd6" fill-rule="evenodd"/>
<path transform="matrix(1,0,0,-1,171.3338,67.73709)" stroke-width="4" stroke-linecap="butt" stroke-linejoin="round" fill="none" stroke="#434dd6" d="M0 0H28.375"/>
<path transform="matrix(1,0,0,-1,191.7088,61.73709)" d="M0 0 12-6 0-12Z" fill="#434dd6" fill-rule="evenodd"/>
<path transform="matrix(1,0,0,-1,322.4587,67.73709)" stroke-width="4" stroke-linecap="butt" stroke-linejoin="round" fill="none" stroke="#434dd6" d="M0 0H28.375"/>
<path transform="matrix(1,0,0,-1,342.8337,61.73709)" d="M0 0 12-6 0-12Z" fill="#434dd6" fill-rule="evenodd"/>
<path transform="matrix(1,0,0,-1,279.3338,67.73709)" stroke-width="4" stroke-linecap="butt" stroke-linejoin="round" fill="none" stroke="#434dd6" d="M0 0H28.375"/>
<path transform="matrix(1,0,0,-1,299.7088,61.73709)" d="M0 0 12-6 0-12Z" fill="#434dd6" fill-rule="evenodd"/>
<path transform="matrix(1,0,0,-1,430.4587,67.73709)" stroke-width="4" stroke-linecap="butt" stroke-linejoin="round" fill="none" stroke="#434dd6" d="M0 0H28.375"/>
<path transform="matrix(1,0,0,-1,450.8337,61.73709)" d="M0 0 12-6 0-12Z" fill="#434dd6" fill-rule="evenodd"/>
<path transform="matrix(1,0,0,-1,387.3338,67.73709)" stroke-width="4" stroke-linecap="butt" stroke-linejoin="round" fill="none" stroke="#434dd6" d="M0 0H28.375"/>
<path transform="matrix(1,0,0,-1,407.7088,61.73709)" d="M0 0 12-6 0-12Z" fill="#434dd6" fill-rule="evenodd"/>
<path transform="matrix(1,0,0,-1,538.4586,67.73709)" stroke-width="4" stroke-linecap="butt" stroke-linejoin="round" fill="none" stroke="#434dd6" d="M0 0H28.375"/>
<path transform="matrix(1,0,0,-1,558.8337,61.73709)" d="M0 0 12-6 0-12Z" fill="#434dd6" fill-rule="evenodd"/>
<path transform="matrix(1,0,0,-1,495.33363,67.73709)" stroke-width="4" stroke-linecap="butt" stroke-linejoin="round" fill="none" stroke="#434dd6" d="M0 0H28.375"/>
<path transform="matrix(1,0,0,-1,515.7087,61.73709)" d="M0 0 12-6 0-12Z" fill="#434dd6" fill-rule="evenodd"/>
<path transform="matrix(1,0,0,-1,603.2086,67.73709)" stroke-width="4" stroke-linecap="butt" stroke-linejoin="round" fill="none" stroke="#434dd6" d="M0 0H28.5"/>
<path transform="matrix(1,0,0,-1,623.7087,61.73709)" d="M0 0 12-6 0-12Z" fill="#434dd6" fill-rule="evenodd"/>
<use data-text="C" xlink:href="#font_1_11" transform="matrix(16,0,0,-16,84.0838,169.112)"/>
<use data-text="l" xlink:href="#font_1_27" transform="matrix(16,0,0,-16,95.6358,169.112)"/>
<use data-text="o" xlink:href="#font_1_29" transform="matrix(16,0,0,-16,99.187808,169.112)"/>
<use data-text="c" xlink:href="#font_1_21" transform="matrix(16,0,0,-16,108.0838,169.112)"/>
<use data-text="k" xlink:href="#font_1_26" transform="matrix(16,0,0,-16,116.0838,169.112)"/>
<use data-text=" " xlink:href="#font_1_1" transform="matrix(16,0,0,-16,124.0838,169.112)"/>
<path transform="matrix(1,0,0,-1,-61.0412,479.612)" d="M157.25 454.625H172.5V363.75H157.25Z" fill="#ffffff" fill-rule="evenodd"/>
<path transform="matrix(1,0,0,-1,96.2088,24.987092)" stroke-width="1" stroke-linecap="butt" stroke-miterlimit="8" stroke-linejoin="miter" fill="none" stroke="#000000" d="M0 0H15.25V-90.875H0Z"/>
<use data-text="R" xlink:href="#font_1_16" transform="matrix(16,0,0,-16,97.7088,57.624605)"/>
<use data-text=" " xlink:href="#font_1_1" transform="matrix(16,0,0,-16,109.2608,57.624605)"/>
<use data-text="e" xlink:href="#font_1_22" transform="matrix(16,0,0,-16,99.7088,76.61661)"/>
<use data-text=" " xlink:href="#font_1_1" transform="matrix(16,0,0,-16,108.6048,76.61661)"/>
<use data-text="g" xlink:href="#font_1_23" transform="matrix(16,0,0,-16,99.7088,95.6246)"/>
<use data-text=" " xlink:href="#font_1_1" transform="matrix(16,0,0,-16,108.6048,95.6246)"/>
<path transform="matrix(1,0,0,-1,106.4588,116.362)" stroke-width="1" stroke-linecap="butt" stroke-linejoin="round" fill="none" stroke="#000000" d="M0 0V-27"/>
<path transform="matrix(1,0,0,-1,-61.0412,479.612)" d="M92.5 454.625H129.25V363.75H92.5Z" fill="#d4feff" fill-rule="evenodd"/>
<path transform="matrix(1,0,0,-1,31.458802,24.987092)" stroke-width="1" stroke-linecap="butt" stroke-miterlimit="8" stroke-linejoin="miter" fill="none" stroke="#000000" d="M0 0H36.75V-90.875H0Z"/>
<use data-text="C" xlink:href="#font_1_11" transform="matrix(12,0,0,-12,31.958802,68.0246)"/>
<use data-text="o" xlink:href="#font_1_29" transform="matrix(12,0,0,-12,40.622804,68.0246)"/>
<use data-text="m" xlink:href="#font_1_28" transform="matrix(12,0,0,-12,47.2948,68.0246)"/>
<use data-text="b" xlink:href="#font_1_20" transform="matrix(12,0,0,-12,57.290803,68.0246)"/>
<use data-text="." xlink:href="#font_1_3" transform="matrix(12,0,0,-12,63.9628,68.0246)"/>
<use data-text=" " xlink:href="#font_1_1" transform="matrix(12,0,0,-12,67.2988,68.0246)"/>
<use data-text="l" xlink:href="#font_1_27" transform="matrix(12,0,0,-12,37.9588,82.028598)"/>
<use data-text="o" xlink:href="#font_1_29" transform="matrix(12,0,0,-12,40.622804,82.028598)"/>
<use data-text="g" xlink:href="#font_1_23" transform="matrix(12,0,0,-12,47.2948,82.028598)"/>
<use data-text="i" xlink:href="#font_1_25" transform="matrix(12,0,0,-12,53.966798,82.028598)"/>
<use data-text="c" xlink:href="#font_1_21" transform="matrix(12,0,0,-12,56.6308,82.028598)"/>
<use data-text=" " xlink:href="#font_1_1" transform="matrix(12,0,0,-12,62.6308,82.028598)"/>
<use data-text="5" xlink:href="#font_1_8" transform="matrix(16,0,0,-16,28.958802,15.237091)"/>
<use data-text="0" xlink:href="#font_1_4" transform="matrix(16,0,0,-16,37.854806,15.237091)"/>
<use data-text=" " xlink:href="#font_1_1" transform="matrix(16,0,0,-16,46.75081,15.237091)"/>
<use data-text="p" xlink:href="#font_1_30" transform="matrix(16,0,0,-16,51.198808,15.237091)"/>
<use data-text="s" xlink:href="#font_1_32" transform="matrix(16,0,0,-16,60.09481,15.237091)"/>
<use data-text=" " xlink:href="#font_1_1" transform="matrix(16,0,0,-16,68.09482,15.237091)"/>
<use data-text="2" xlink:href="#font_1_6" transform="matrix(16,0,0,-16,82.9588,15.237091)"/>
<use data-text="0" xlink:href="#font_1_4" transform="matrix(16,0,0,-16,91.8548,15.237091)"/>
<use data-text=" " xlink:href="#font_1_1" transform="matrix(16,0,0,-16,100.75079,15.237091)"/>
<use data-text="p" xlink:href="#font_1_30" transform="matrix(16,0,0,-16,105.19879,15.237091)"/>
<use data-text="s" xlink:href="#font_1_32" transform="matrix(16,0,0,-16,114.09479,15.237091)"/>
<use data-text=" " xlink:href="#font_1_1" transform="matrix(16,0,0,-16,122.09479,15.237091)"/>
<path transform="matrix(1,0,0,-1,-61.0412,479.612)" d="M265.25 454.625H280.375V363.75H265.25Z" fill="#ffffff" fill-rule="evenodd"/>
<path transform="matrix(1,0,0,-1,204.2088,24.987092)" stroke-width="1" stroke-linecap="butt" stroke-miterlimit="8" stroke-linejoin="miter" fill="none" stroke="#000000" d="M0 0H15.125V-90.875H0Z"/>
<use data-text="R" xlink:href="#font_1_16" transform="matrix(16,0,0,-16,205.7088,57.624605)"/>
<use data-text=" " xlink:href="#font_1_1" transform="matrix(16,0,0,-16,217.2608,57.624605)"/>
<use data-text="e" xlink:href="#font_1_22" transform="matrix(16,0,0,-16,207.7088,76.61661)"/>
<use data-text=" " xlink:href="#font_1_1" transform="matrix(16,0,0,-16,216.6048,76.61661)"/>
<use data-text="g" xlink:href="#font_1_23" transform="matrix(16,0,0,-16,207.7088,95.6246)"/>
<use data-text=" " xlink:href="#font_1_1" transform="matrix(16,0,0,-16,216.6048,95.6246)"/>
<path transform="matrix(1,0,0,-1,214.4588,116.362)" stroke-width="1" stroke-linecap="butt" stroke-linejoin="round" fill="none" stroke="#000000" d="M0 0V-21.625"/>
<path transform="matrix(1,0,0,-1,-61.0412,479.612)" d="M200.5 454.625H237.25V363.75H200.5Z" fill="#d4feff" fill-rule="evenodd"/>
<path transform="matrix(1,0,0,-1,139.4588,24.987092)" stroke-width="1" stroke-linecap="butt" stroke-miterlimit="8" stroke-linejoin="miter" fill="none" stroke="#000000" d="M0 0H36.75V-90.875H0Z"/>
<use data-text="C" xlink:href="#font_1_11" transform="matrix(12,0,0,-12,139.9588,68.0246)"/>
<use data-text="o" xlink:href="#font_1_29" transform="matrix(12,0,0,-12,148.6228,68.0246)"/>
<use data-text="m" xlink:href="#font_1_28" transform="matrix(12,0,0,-12,155.2948,68.0246)"/>
<use data-text="b" xlink:href="#font_1_20" transform="matrix(12,0,0,-12,165.2908,68.0246)"/>
<use data-text="." xlink:href="#font_1_3" transform="matrix(12,0,0,-12,171.9628,68.0246)"/>
<use data-text=" " xlink:href="#font_1_1" transform="matrix(12,0,0,-12,175.2988,68.0246)"/>
<use data-text="l" xlink:href="#font_1_27" transform="matrix(12,0,0,-12,145.9588,82.028598)"/>
<use data-text="o" xlink:href="#font_1_29" transform="matrix(12,0,0,-12,148.6228,82.028598)"/>
<use data-text="g" xlink:href="#font_1_23" transform="matrix(12,0,0,-12,155.2948,82.028598)"/>
<use data-text="i" xlink:href="#font_1_25" transform="matrix(12,0,0,-12,161.9668,82.028598)"/>
<use data-text="c" xlink:href="#font_1_21" transform="matrix(12,0,0,-12,164.6308,82.028598)"/>
<use data-text=" " xlink:href="#font_1_1" transform="matrix(12,0,0,-12,170.6308,82.028598)"/>
<use data-text="5" xlink:href="#font_1_8" transform="matrix(16,0,0,-16,136.9588,15.237091)"/>
<use data-text="0" xlink:href="#font_1_4" transform="matrix(16,0,0,-16,145.8548,15.237091)"/>
<use data-text=" " xlink:href="#font_1_1" transform="matrix(16,0,0,-16,154.7508,15.237091)"/>
<use data-text="p" xlink:href="#font_1_30" transform="matrix(16,0,0,-16,159.19879,15.237091)"/>
<use data-text="s" xlink:href="#font_1_32" transform="matrix(16,0,0,-16,168.09479,15.237091)"/>
<use data-text=" " xlink:href="#font_1_1" transform="matrix(16,0,0,-16,176.09479,15.237091)"/>
<use data-text="2" xlink:href="#font_1_6" transform="matrix(16,0,0,-16,190.9588,15.237091)"/>
<use data-text="0" xlink:href="#font_1_4" transform="matrix(16,0,0,-16,199.8548,15.237091)"/>
<use data-text=" " xlink:href="#font_1_1" transform="matrix(16,0,0,-16,208.7508,15.237091)"/>
<use data-text="p" xlink:href="#font_1_30" transform="matrix(16,0,0,-16,213.19879,15.237091)"/>
<use data-text="s" xlink:href="#font_1_32" transform="matrix(16,0,0,-16,222.09479,15.237091)"/>
<use data-text=" " xlink:href="#font_1_1" transform="matrix(16,0,0,-16,230.09479,15.237091)"/>
<path transform="matrix(1,0,0,-1,-61.0412,479.612)" d="M373.25 454.625H388.375V363.75H373.25Z" fill="#ffffff" fill-rule="evenodd"/>
<path transform="matrix(1,0,0,-1,312.2087,24.987092)" stroke-width="1" stroke-linecap="butt" stroke-miterlimit="8" stroke-linejoin="miter" fill="none" stroke="#000000" d="M0 0H15.125V-90.875H0Z"/>
<use data-text="R" xlink:href="#font_1_16" transform="matrix(16,0,0,-16,313.7088,57.624605)"/>
<use data-text=" " xlink:href="#font_1_1" transform="matrix(16,0,0,-16,325.2608,57.624605)"/>
<use data-text="e" xlink:href="#font_1_22" transform="matrix(16,0,0,-16,315.7088,76.61661)"/>
<use data-text=" " xlink:href="#font_1_1" transform="matrix(16,0,0,-16,324.6048,76.61661)"/>
<use data-text="g" xlink:href="#font_1_23" transform="matrix(16,0,0,-16,315.7088,95.6246)"/>
<use data-text=" " xlink:href="#font_1_1" transform="matrix(16,0,0,-16,324.6048,95.6246)"/>
<path transform="matrix(1,0,0,-1,322.4587,116.362)" stroke-width="1" stroke-linecap="butt" stroke-linejoin="round" fill="none" stroke="#000000" d="M0 0V-21.625"/>
<path transform="matrix(1,0,0,-1,-61.0412,479.612)" d="M308.375 454.625H345.25V363.75H308.375Z" fill="#d4feff" fill-rule="evenodd"/>
<path transform="matrix(1,0,0,-1,247.3338,24.987092)" stroke-width="1" stroke-linecap="butt" stroke-miterlimit="8" stroke-linejoin="miter" fill="none" stroke="#000000" d="M0 0H36.875V-90.875H0Z"/>
<use data-text="C" xlink:href="#font_1_11" transform="matrix(12,0,0,-12,247.8338,68.0246)"/>
<use data-text="o" xlink:href="#font_1_29" transform="matrix(12,0,0,-12,256.4978,68.0246)"/>
<use data-text="m" xlink:href="#font_1_28" transform="matrix(12,0,0,-12,263.1698,68.0246)"/>
<use data-text="b" xlink:href="#font_1_20" transform="matrix(12,0,0,-12,273.1658,68.0246)"/>
<use data-text="." xlink:href="#font_1_3" transform="matrix(12,0,0,-12,279.8378,68.0246)"/>
<use data-text=" " xlink:href="#font_1_1" transform="matrix(12,0,0,-12,283.1738,68.0246)"/>
<use data-text="l" xlink:href="#font_1_27" transform="matrix(12,0,0,-12,253.8338,82.028598)"/>
<use data-text="o" xlink:href="#font_1_29" transform="matrix(12,0,0,-12,256.4978,82.028598)"/>
<use data-text="g" xlink:href="#font_1_23" transform="matrix(12,0,0,-12,263.1698,82.028598)"/>
<use data-text="i" xlink:href="#font_1_25" transform="matrix(12,0,0,-12,269.8418,82.028598)"/>
<use data-text="c" xlink:href="#font_1_21" transform="matrix(12,0,0,-12,272.5058,82.028598)"/>
<use data-text=" " xlink:href="#font_1_1" transform="matrix(12,0,0,-12,278.5058,82.028598)"/>
<use data-text="5" xlink:href="#font_1_8" transform="matrix(16,0,0,-16,244.9588,15.237091)"/>
<use data-text="0" xlink:href="#font_1_4" transform="matrix(16,0,0,-16,253.8548,15.237091)"/>
<use data-text=" " xlink:href="#font_1_1" transform="matrix(16,0,0,-16,262.7508,15.237091)"/>
<use data-text="p" xlink:href="#font_1_30" transform="matrix(16,0,0,-16,267.1988,15.237091)"/>
<use data-text="s" xlink:href="#font_1_32" transform="matrix(16,0,0,-16,276.0948,15.237091)"/>
<use data-text=" " xlink:href="#font_1_1" transform="matrix(16,0,0,-16,284.0948,15.237091)"/>
<use data-text="2" xlink:href="#font_1_6" transform="matrix(16,0,0,-16,298.8308,15.237091)"/>
<use data-text="0" xlink:href="#font_1_4" transform="matrix(16,0,0,-16,307.7268,15.237091)"/>
<use data-text=" " xlink:href="#font_1_1" transform="matrix(16,0,0,-16,316.6228,15.237091)"/>
<use data-text="p" xlink:href="#font_1_30" transform="matrix(16,0,0,-16,321.0708,15.237091)"/>
<use data-text="s" xlink:href="#font_1_32" transform="matrix(16,0,0,-16,329.9668,15.237091)"/>
<use data-text=" " xlink:href="#font_1_1" transform="matrix(16,0,0,-16,337.9668,15.237091)"/>
<path transform="matrix(1,0,0,-1,-61.0412,479.612)" d="M481.25 454.625H496.375V363.75H481.25Z" fill="#ffffff" fill-rule="evenodd"/>
<path transform="matrix(1,0,0,-1,420.2087,24.987092)" stroke-width="1" stroke-linecap="butt" stroke-miterlimit="8" stroke-linejoin="miter" fill="none" stroke="#000000" d="M0 0H15.125V-90.875H0Z"/>
<use data-text="R" xlink:href="#font_1_16" transform="matrix(16,0,0,-16,421.7087,57.624605)"/>
<use data-text=" " xlink:href="#font_1_1" transform="matrix(16,0,0,-16,433.2607,57.624605)"/>
<use data-text="e" xlink:href="#font_1_22" transform="matrix(16,0,0,-16,423.7087,76.61661)"/>
<use data-text=" " xlink:href="#font_1_1" transform="matrix(16,0,0,-16,432.6047,76.61661)"/>
<use data-text="g" xlink:href="#font_1_23" transform="matrix(16,0,0,-16,423.7087,95.6246)"/>
<use data-text=" " xlink:href="#font_1_1" transform="matrix(16,0,0,-16,432.6047,95.6246)"/>
<path transform="matrix(1,0,0,-1,430.4587,116.362)" stroke-width="1" stroke-linecap="butt" stroke-linejoin="round" fill="none" stroke="#000000" d="M0 0V-21.625"/>
<path transform="matrix(1,0,0,-1,-61.0412,479.612)" d="M416.375 454.625H453.25V363.75H416.375Z" fill="#d4feff" fill-rule="evenodd"/>
<path transform="matrix(1,0,0,-1,355.3338,24.987092)" stroke-width="1" stroke-linecap="butt" stroke-miterlimit="8" stroke-linejoin="miter" fill="none" stroke="#000000" d="M0 0H36.875V-90.875H0Z"/>
<use data-text="C" xlink:href="#font_1_11" transform="matrix(12,0,0,-12,355.8338,68.0246)"/>
<use data-text="o" xlink:href="#font_1_29" transform="matrix(12,0,0,-12,364.4978,68.0246)"/>
<use data-text="m" xlink:href="#font_1_28" transform="matrix(12,0,0,-12,371.1698,68.0246)"/>
<use data-text="b" xlink:href="#font_1_20" transform="matrix(12,0,0,-12,381.1658,68.0246)"/>
<use data-text="." xlink:href="#font_1_3" transform="matrix(12,0,0,-12,387.8378,68.0246)"/>
<use data-text=" " xlink:href="#font_1_1" transform="matrix(12,0,0,-12,391.1738,68.0246)"/>
<use data-text="l" xlink:href="#font_1_27" transform="matrix(12,0,0,-12,361.8338,82.028598)"/>
<use data-text="o" xlink:href="#font_1_29" transform="matrix(12,0,0,-12,364.4978,82.028598)"/>
<use data-text="g" xlink:href="#font_1_23" transform="matrix(12,0,0,-12,371.1698,82.028598)"/>
<use data-text="i" xlink:href="#font_1_25" transform="matrix(12,0,0,-12,377.8418,82.028598)"/>
<use data-text="c" xlink:href="#font_1_21" transform="matrix(12,0,0,-12,380.5058,82.028598)"/>
<use data-text=" " xlink:href="#font_1_1" transform="matrix(12,0,0,-12,386.5058,82.028598)"/>
<use data-text="5" xlink:href="#font_1_8" transform="matrix(16,0,0,-16,352.9587,15.237091)"/>
<use data-text="0" xlink:href="#font_1_4" transform="matrix(16,0,0,-16,361.8547,15.237091)"/>
<use data-text=" " xlink:href="#font_1_1" transform="matrix(16,0,0,-16,370.7507,15.237091)"/>
<use data-text="p" xlink:href="#font_1_30" transform="matrix(16,0,0,-16,375.1987,15.237091)"/>
<use data-text="s" xlink:href="#font_1_32" transform="matrix(16,0,0,-16,384.0947,15.237091)"/>
<use data-text=" " xlink:href="#font_1_1" transform="matrix(16,0,0,-16,392.0947,15.237091)"/>
<use data-text="2" xlink:href="#font_1_6" transform="matrix(16,0,0,-16,406.9587,15.237091)"/>
<use data-text="0" xlink:href="#font_1_4" transform="matrix(16,0,0,-16,415.8547,15.237091)"/>
<use data-text=" " xlink:href="#font_1_1" transform="matrix(16,0,0,-16,424.7507,15.237091)"/>
<use data-text="p" xlink:href="#font_1_30" transform="matrix(16,0,0,-16,429.1987,15.237091)"/>
<use data-text="s" xlink:href="#font_1_32" transform="matrix(16,0,0,-16,438.0947,15.237091)"/>
<use data-text=" " xlink:href="#font_1_1" transform="matrix(16,0,0,-16,446.0947,15.237091)"/>
<path transform="matrix(1,0,0,-1,-61.0412,479.612)" d="M589.25 454.625H604.375V363.75H589.25Z" fill="#ffffff" fill-rule="evenodd"/>
<path transform="matrix(1,0,0,-1,528.2086,24.987092)" stroke-width="1" stroke-linecap="butt" stroke-miterlimit="8" stroke-linejoin="miter" fill="none" stroke="#000000" d="M0 0H15.125V-90.875H0Z"/>
<use data-text="R" xlink:href="#font_1_16" transform="matrix(16,0,0,-16,529.7087,57.624605)"/>
<use data-text=" " xlink:href="#font_1_1" transform="matrix(16,0,0,-16,541.2607,57.624605)"/>
<use data-text="e" xlink:href="#font_1_22" transform="matrix(16,0,0,-16,531.7087,76.61661)"/>
<use data-text=" " xlink:href="#font_1_1" transform="matrix(16,0,0,-16,540.6047,76.61661)"/>
<use data-text="g" xlink:href="#font_1_23" transform="matrix(16,0,0,-16,531.7087,95.6246)"/>
<use data-text=" " xlink:href="#font_1_1" transform="matrix(16,0,0,-16,540.6047,95.6246)"/>
<path transform="matrix(1,0,0,-1,538.4586,116.362)" stroke-width="1" stroke-linecap="butt" stroke-linejoin="round" fill="none" stroke="#000000" d="M0 0V-21.625"/>
<path transform="matrix(1,0,0,-1,-61.0412,479.612)" d="M524.375 454.625H561.25V363.75H524.375Z" fill="#d4feff" fill-rule="evenodd"/>
<path transform="matrix(1,0,0,-1,463.3338,24.987092)" stroke-width="1" stroke-linecap="butt" stroke-miterlimit="8" stroke-linejoin="miter" fill="none" stroke="#000000" d="M0 0H36.875V-90.875H0Z"/>
<use data-text="C" xlink:href="#font_1_11" transform="matrix(12,0,0,-12,463.83369,68.0246)"/>
<use data-text="o" xlink:href="#font_1_29" transform="matrix(12,0,0,-12,472.49769,68.0246)"/>
<use data-text="m" xlink:href="#font_1_28" transform="matrix(12,0,0,-12,479.16969,68.0246)"/>
<use data-text="b" xlink:href="#font_1_20" transform="matrix(12,0,0,-12,489.16566,68.0246)"/>
<use data-text="." xlink:href="#font_1_3" transform="matrix(12,0,0,-12,495.83766,68.0246)"/>
<use data-text=" " xlink:href="#font_1_1" transform="matrix(12,0,0,-12,499.17366,68.0246)"/>
<use data-text="l" xlink:href="#font_1_27" transform="matrix(12,0,0,-12,469.83369,82.028598)"/>
<use data-text="o" xlink:href="#font_1_29" transform="matrix(12,0,0,-12,472.49769,82.028598)"/>
<use data-text="g" xlink:href="#font_1_23" transform="matrix(12,0,0,-12,479.16969,82.028598)"/>
<use data-text="i" xlink:href="#font_1_25" transform="matrix(12,0,0,-12,485.84169,82.028598)"/>
<use data-text="c" xlink:href="#font_1_21" transform="matrix(12,0,0,-12,488.50569,82.028598)"/>
<use data-text=" " xlink:href="#font_1_1" transform="matrix(12,0,0,-12,494.50569,82.028598)"/>
<use data-text="5" xlink:href="#font_1_8" transform="matrix(16,0,0,-16,460.95869,15.237091)"/>
<use data-text="0" xlink:href="#font_1_4" transform="matrix(16,0,0,-16,469.85469,15.237091)"/>
<use data-text=" " xlink:href="#font_1_1" transform="matrix(16,0,0,-16,478.75068,15.237091)"/>
<use data-text="p" xlink:href="#font_1_30" transform="matrix(16,0,0,-16,483.19868,15.237091)"/>
<use data-text="s" xlink:href="#font_1_32" transform="matrix(16,0,0,-16,492.09468,15.237091)"/>
<use data-text=" " xlink:href="#font_1_1" transform="matrix(16,0,0,-16,500.09468,15.237091)"/>
<use data-text="2" xlink:href="#font_1_6" transform="matrix(16,0,0,-16,514.9587,15.237091)"/>
<use data-text="0" xlink:href="#font_1_4" transform="matrix(16,0,0,-16,523.8547,15.237091)"/>
<use data-text=" " xlink:href="#font_1_1" transform="matrix(16,0,0,-16,532.7507,15.237091)"/>
<use data-text="p" xlink:href="#font_1_30" transform="matrix(16,0,0,-16,537.19869,15.237091)"/>
<use data-text="s" xlink:href="#font_1_32" transform="matrix(16,0,0,-16,546.09469,15.237091)"/>
<use data-text=" " xlink:href="#font_1_1" transform="matrix(16,0,0,-16,554.09469,15.237091)"/>
<path transform="matrix(1,0,0,-1,-61.0412,479.612)" d="M697.25 454.625H712.375V363.75H697.25Z" fill="#ffffff" fill-rule="evenodd"/>
<path transform="matrix(1,0,0,-1,636.2086,24.987092)" stroke-width="1" stroke-linecap="butt" stroke-miterlimit="8" stroke-linejoin="miter" fill="none" stroke="#000000" d="M0 0H15.125V-90.875H0Z"/>
<use data-text="R" xlink:href="#font_1_16" transform="matrix(16,0,0,-16,637.7087,57.624605)"/>
<use data-text=" " xlink:href="#font_1_1" transform="matrix(16,0,0,-16,649.2607,57.624605)"/>
<use data-text="e" xlink:href="#font_1_22" transform="matrix(16,0,0,-16,639.7087,76.61661)"/>
<use data-text=" " xlink:href="#font_1_1" transform="matrix(16,0,0,-16,648.6047,76.61661)"/>
<use data-text="g" xlink:href="#font_1_23" transform="matrix(16,0,0,-16,639.7087,95.6246)"/>
<use data-text=" " xlink:href="#font_1_1" transform="matrix(16,0,0,-16,648.6047,95.6246)"/>
<path transform="matrix(1,0,0,-1,646.4586,116.362)" stroke-width="1" stroke-linecap="butt" stroke-linejoin="round" fill="none" stroke="#000000" d="M0 0V-21.625"/>
<path transform="matrix(1,0,0,-1,-61.0412,479.612)" d="M632.375 454.625H669.25V363.75H632.375Z" fill="#d4feff" fill-rule="evenodd"/>
<path transform="matrix(1,0,0,-1,571.3336,24.987092)" stroke-width="1" stroke-linecap="butt" stroke-miterlimit="8" stroke-linejoin="miter" fill="none" stroke="#000000" d="M0 0H36.875V-90.875H0Z"/>
<use data-text="C" xlink:href="#font_1_11" transform="matrix(12,0,0,-12,571.8337,68.0246)"/>
<use data-text="o" xlink:href="#font_1_29" transform="matrix(12,0,0,-12,580.4977,68.0246)"/>
<use data-text="m" xlink:href="#font_1_28" transform="matrix(12,0,0,-12,587.1697,68.0246)"/>
<use data-text="b" xlink:href="#font_1_20" transform="matrix(12,0,0,-12,597.16567,68.0246)"/>
<use data-text="." xlink:href="#font_1_3" transform="matrix(12,0,0,-12,603.83767,68.0246)"/>
<use data-text=" " xlink:href="#font_1_1" transform="matrix(12,0,0,-12,607.17367,68.0246)"/>
<use data-text="l" xlink:href="#font_1_27" transform="matrix(12,0,0,-12,577.8337,82.028598)"/>
<use data-text="o" xlink:href="#font_1_29" transform="matrix(12,0,0,-12,580.4977,82.028598)"/>
<use data-text="g" xlink:href="#font_1_23" transform="matrix(12,0,0,-12,587.1697,82.028598)"/>
<use data-text="i" xlink:href="#font_1_25" transform="matrix(12,0,0,-12,593.8417,82.028598)"/>
<use data-text="c" xlink:href="#font_1_21" transform="matrix(12,0,0,-12,596.5057,82.028598)"/>
<use data-text=" " xlink:href="#font_1_1" transform="matrix(12,0,0,-12,602.5057,82.028598)"/>
<use data-text="5" xlink:href="#font_1_8" transform="matrix(16,0,0,-16,568.9587,15.237091)"/>
<use data-text="0" xlink:href="#font_1_4" transform="matrix(16,0,0,-16,577.8547,15.237091)"/>
<use data-text=" " xlink:href="#font_1_1" transform="matrix(16,0,0,-16,586.7507,15.237091)"/>
<use data-text="p" xlink:href="#font_1_30" transform="matrix(16,0,0,-16,591.19869,15.237091)"/>
<use data-text="s" xlink:href="#font_1_32" transform="matrix(16,0,0,-16,600.09469,15.237091)"/>
<use data-text=" " xlink:href="#font_1_1" transform="matrix(16,0,0,-16,608.09469,15.237091)"/>
<use data-text="2" xlink:href="#font_1_6" transform="matrix(16,0,0,-16,622.9587,15.237091)"/>
<use data-text="0" xlink:href="#font_1_4" transform="matrix(16,0,0,-16,631.8547,15.237091)"/>
<use data-text=" " xlink:href="#font_1_1" transform="matrix(16,0,0,-16,640.7507,15.237091)"/>
<use data-text="p" xlink:href="#font_1_30" transform="matrix(16,0,0,-16,645.19869,15.237091)"/>
<use data-text="s" xlink:href="#font_1_32" transform="matrix(16,0,0,-16,654.09469,15.237091)"/>
<use data-text=" " xlink:href="#font_1_1" transform="matrix(16,0,0,-16,662.09469,15.237091)"/>
<path transform="matrix(1,0,0,-1,106.4588,137.98709)" stroke-width="1" stroke-linecap="butt" stroke-linejoin="round" fill="none" stroke="#000000" d="M0 0H541.375"/>
</g>
</svg>
