<svg xmlns="http://www.w3.org/2000/svg" xmlns:xlink="http://www.w3.org/1999/xlink" version="1.1" width="538.04959pt" height="820.46969pt" viewBox="0 0 538.04959 820.46969">
<defs>
<clipPath id="clip_0">
<path transform="matrix(1,0,0,-1,-44.6514,837.209)" d="M44.6514 16.7393H582.701V837.209H44.6514Z" fill-rule="evenodd"/>
</clipPath>
<path id="font_1_7" d="M.25927735 0V.6308594H.0234375V.7158203H.5908203V.6308594H.3540039V0H.25927735Z"/>
<path id="font_1_13" d="M.06640625 .6152344V.7158203H.15429688V.6152344H.06640625M.06640625 0V.5185547H.15429688V0H.06640625Z"/>
<path id="font_1_16" d="M.06591797 0V.5185547H.14453125V.44580079C.1608073 .4711914 .18245442 .49161784 .20947266 .5070801 .23649089 .5225423 .2672526 .53027346 .3017578 .53027346 .34016929 .53027346 .37166343 .52229818 .39624024 .50634768 .42081706 .49039714 .43815104 .46809898 .4482422 .43945313 .4892578 .5 .54264327 .53027346 .60839846 .53027346 .65983077 .53027346 .69938156 .5160319 .7270508 .48754884 .75472006 .45906578 .7685547 .4152018 .7685547 .35595704V0H.68115237V.32666017C.68115237 .3618164 .678304 .38712565 .6726074 .4025879 .6669108 .41805015 .6565755 .4305013 .64160159 .4399414 .6266276 .4493815 .6090495 .45410157 .5888672 .45410157 .5524089 .45410157 .52213546 .44197593 .49804688 .4177246 .47395835 .3934733 .46191407 .35465495 .46191407 .30126954V0H.37402345V.33691407C.37402345 .37597657 .36686198 .40527345 .35253907 .4248047 .33821617 .44433595 .31477867 .45410157 .28222657 .45410157 .25748698 .45410157 .23461914 .44759117 .21362305 .4345703 .19262696 .42154948 .17740886 .4025065 .16796875 .3774414 .15852864 .3523763 .1538086 .3162435 .1538086 .26904298V0H.06591797Z"/>
<path id="font_1_11" d="M.42089845 .16796875 .51171877 .15625C.49739585 .103037517 .47086589 .06173706 .4321289 .032348634 .39339195 .0029703777 .34391276-.01171875 .2836914-.01171875 .20784505-.01171875 .14770508 .01163737 .103271488 .05834961 .05883789 .10506185 .036621095 .17057292 .036621095 .2548828 .036621095 .3421224 .05908203 .40983073 .104003909 .4580078 .14892578 .5061849 .20719402 .53027346 .2788086 .53027346 .34814454 .53027346 .40478517 .5067088 .44873048 .45957948 .49267579 .41246034 .51464846 .34616599 .51464846 .2606964 .51464846 .25549827 .51448568 .247701 .51416018 .23730469H.1274414C.13069661 .18017578 .14680989 .13643392 .17578125 .1060791 .20475261 .07572428 .24088542 .060546876 .2841797 .060546876 .31640626 .060546876 .34391276 .06908671 .36669923 .08616638 .3894857 .103256229 .4075521 .13052368 .42089845 .16796875M.13232422 .3095703H.421875C.41796876 .3530477 .40690104 .38565574 .38867188 .4073944 .3606771 .4411367 .3243815 .4580078 .27978517 .4580078 .23942058 .4580078 .20548503 .4445394 .17797852 .41760255 .150472 .39067588 .1352539 .35466514 .13232422 .3095703Z"/>
<path id="font_1_1" d="M0 0Z"/>
<path id="font_2_6" d="M.32080079 .53027346V.041015626H.46142579C.4711914 .041015626 .4781901 .03914388 .48242188 .03540039 .48665367 .031656904 .48876954 .026692709 .48876954 .020507813 .48876954 .0146484379 .48665367 .009765625 .48242188 .005859375 .4781901 .001953125 .4711914 0 .46142579 0H.13916016C.12939453 0 .122395839 .001953125 .11816406 .005859375 .11393229 .009765625 .111816409 .0146484379 .111816409 .020507813 .111816409 .026692709 .11393229 .031656904 .11816406 .03540039 .122395839 .03914388 .12939453 .041015626 .13916016 .041015626H.27978517V.53027346H.13916016C.12939453 .53027346 .122395839 .5321452 .11816406 .5358887 .11393229 .53963217 .111816409 .5445964 .111816409 .55078127 .111816409 .5569661 .11393229 .56193038 .11816406 .5656738 .122395839 .5694173 .12939453 .57128909 .13916016 .57128909H.46142579C.4711914 .57128909 .4781901 .5694173 .48242188 .5656738 .48665367 .56193038 .48876954 .5569661 .48876954 .55078127 .48876954 .5445964 .48665367 .53963217 .48242188 .5358887 .4781901 .5321452 .4711914 .53027346 .46142579 .53027346H.32080079Z"/>
<path id="font_2_2" d="M.3203125 .62109377V.041015626H.4609375C.47070313 .041015626 .4777018 .03914388 .4819336 .03540039 .48616538 .031656904 .48828126 .026692709 .48828126 .020507813 .48828126 .0146484379 .48616538 .009765625 .4819336 .005859375 .4777018 .001953125 .47070313 0 .4609375 0H.13867188C.12890625 0 .121907558 .001953125 .11767578 .005859375 .11344401 .009765625 .111328128 .0146484379 .111328128 .020507813 .111328128 .026692709 .11344401 .031656904 .11767578 .03540039 .121907558 .03914388 .12890625 .041015626 .13867188 .041015626H.27929688V.5644531L.14550781 .52246096C.13899739 .5205078 .13427735 .51953127 .13134766 .51953127 .12646485 .51953127 .12198893 .52156576 .11791992 .52563479 .113850917 .5297038 .111816409 .5345052 .111816409 .54003909 .111816409 .5449219 .11344401 .5494792 .11669922 .55371096 .11930338 .5563151 .12467448 .55908206 .1328125 .5620117L.3203125 .62109377Z"/>
<path id="font_2_1" d="M0 0Z"/>
<path id="font_2_3" d="M.123535159 .041015626H.43847657V.057617189C.43847657 .06738281 .4404297 .07438151 .44433595 .07861328 .4482422 .082845058 .45328776 .08496094 .45947267 .08496094 .46533204 .08496094 .47021485 .082845058 .4741211 .07861328 .47802735 .07438151 .47998048 .06738281 .47998048 .057617189V0H.083496097V.061523439C.16682942 .13639324 .24788411 .21256511 .32666017 .29003907 .363444 .32617188 .38867188 .3527018 .40234376 .3696289 .41601563 .386556 .42537437 .40144859 .43041993 .41430665 .43546549 .4271647 .43798829 .44010417 .43798829 .453125 .43798829 .48828126 .42382813 .51936849 .3955078 .5463867 .3671875 .57340499 .3330078 .58691409 .29296876 .58691409 .25716148 .58691409 .22542317 .5765788 .1977539 .5559082 .17008464 .5352478 .15218099 .5096639 .14404297 .4791565 .14208985 .47128297 .13964844 .4661967 .13671875 .4638977 .1328125 .46062217 .1282552 .45898438 .123046878 .45898438 .11751302 .45898438 .11287435 .4608612 .10913086 .46461488 .10538737 .46836854 .103515628 .4728597 .103515628 .47808839 .103515628 .49375407 .11206055 .5149689 .12915039 .5417328 .14624024 .5685069 .1698405 .589564 .19995117 .6049042 .23006185 .6202545 .26090495 .6279297 .29248048 .6279297 .34358726 .6279297 .38753257 .6101735 .4243164 .57466128 .46110026 .539149 .4794922 .49891664 .4794922 .45396424 .4794922 .4350637 .47639976 .41770936 .47021485 .40190126 .46402995 .3861033 .4535319 .36883546 .4387207 .35009767 .42390953 .33137004 .3972982 .30311076 .35888673 .26531983 .26253257 .17018636 .18408203 .09639486 .123535159 .043945314V.041015626Z"/>
<path id="font_2_4" d="M.38427735 .33319093C.42203776 .31627403 .45084635 .29310099 .47070313 .26367188 .4905599 .23424275 .5004883 .20358785 .5004883 .17170716 .5004883 .12260437 .48055015 .07926941 .44067384 .04170227 .40079753 .004135132 .35091148-.0146484379 .29101563-.0146484379 .25585938-.0146484379 .21940105-.0071614587 .18164063 .0078125 .1438802 .022786459 .11751302 .038085939 .10253906 .053710939 .09765625 .05891927 .095214847 .064453128 .095214847 .0703125 .095214847 .075520839 .097086589 .080078128 .10083008 .083984378 .10457357 .087890628 .10904948 .08984375 .11425781 .08984375 .11946615 .08984375 .12532552 .087402347 .13183594 .08251953 .18229167 .045084638 .23567708 .026367188 .2919922 .026367188 .33951823 .026367188 .37931315 .041234334 .41137696 .07096863 .44344078 .10070292 .45947267 .13376872 .45947267 .17016602 .45947267 .19453939 .45157878 .21842449 .43579103 .24182129 .42000328 .2652181 .3972982 .2836609 .36767579 .29714967 .33805339 .31063844 .30810548 .3173828 .27783204 .3173828 .2680664 .3173828 .26106773 .3192749 .25683595 .32305909 .25260417 .32685343 .25048829 .33187867 .25048829 .33813478 .25048829 .34406535 .2525228 .34900413 .2565918 .35295106 .2606608 .35690818 .2667643 .35888673 .27490235 .35888673L.3100586 .35839845C.34684245 .35839845 .37719728 .36964927 .40112306 .39215089 .42504884 .4146627 .43701173 .44076539 .43701173 .47045899 .43701173 .50111898 .42447917 .5281932 .39941407 .5516815 .37434898 .57516989 .34163413 .58691409 .30126954 .58691409 .27294923 .58691409 .24690755 .58199569 .22314453 .5721588 .19938152 .56232199 .18033855 .54887899 .16601563 .53182986 .1608073 .52527877 .15681966 .5212657 .15405274 .51979067 .15128581 .5183156 .14811199 .5175781 .14453125 .5175781 .13899739 .5175781 .13427735 .51945498 .1303711 .5232086 .12646485 .5269725 .12451172 .5314738 .12451172 .53671267 .12451172 .54978439 .13867188 .5662944 .16699219 .5862427 .2063802 .614034 .2511393 .6279297 .30126954 .6279297 .35302735 .6279297 .3955078 .6123454 .42871095 .58117678 .46191407 .5500081 .47851563 .5128784 .47851563 .4697876 .47851563 .44237266 .47054038 .41642253 .45458985 .39193727 .4386393 .36746217 .4152018 .34788005 .38427735 .33319093Z"/>
<path id="font_3_2" d="M.29589845 .7294922C.24479167 .6301575 .21158855 .55703738 .19628906 .51013186 .17317708 .43881227 .1616211 .3564148 .1616211 .26293946 .1616211 .16848755 .17480469 .08217875 .20117188 .0040130617 .21744792-.044184369 .24951172-.11355591 .29736329-.20410156H.23828125C.1907552-.12984212 .16129558-.08245341 .14990235-.061935426 .13850911-.04141744 .12613933-.013570149 .11279297 .021606446 .094563808 .06980387 .08186849 .1212616 .07470703 .17597962 .071126308 .2043101 .06933594 .23134358 .06933594 .25708009 .06933594 .3534851 .084472659 .43930564 .114746097 .5145416 .13395183 .5624135 .17399089 .6340637 .23486328 .7294922H.29589845Z"/>
<path id="font_3_15" d="M.26611329 .53808596C.32503257 .53808596 .37296549 .5237274 .4099121 .49501039 .44685874 .46629334 .46907554 .41684977 .4765625 .3466797H.39111329C.38590495 .37890626 .37402345 .40568034 .35546876 .42700196 .33691407 .44832359 .3071289 .45898438 .26611329 .45898438 .2101237 .45898438 .17008464 .43170677 .1459961 .3771515 .1303711 .34176127 .122558597 .29808555 .122558597 .24612427 .122558597 .19384766 .1336263 .14984639 .15576172 .11412048 .17789714 .07840475 .21272786 .060546876 .2602539 .060546876 .29671226 .060546876 .3256022 .0716095 .34692384 .09373474 .36824546 .115859989 .38297526 .1461385 .39111329 .18457031H.4765625C.46679688 .115234378 .4423828 .06453451 .4033203 .032470704 .3642578 .00040690104 .31429038-.015625 .25341798-.015625 .1850586-.015625 .13053386 .009379069 .08984375 .059387208 .049153646 .10940552 .028808594 .17188008 .028808594 .24681092 .028808594 .33868919 .05110677 .41020204 .095703128 .4613495 .14029949 .51250717 .19710286 .53808596 .26611329 .53808596M.2524414 .5361328V.5361328Z"/>
<path id="font_3_3" d="M.03466797-.20410156C.08642578-.103139247 .119791667-.029530844 .13476563 .016723633 .15755208 .08674113 .16894531 .16881307 .16894531 .26293946 .16894531 .35706584 .15576172 .44321189 .12939453 .52137759 .11311849 .569575 .08105469 .63894656 .033203126 .7294922H.092285159C.14241536 .64937338 .17277019 .59995016 .18334961 .58122256 .19392903 .56249496 .20540364 .5366821 .21777344 .5037842 .23339844 .46307374 .24454753 .42285157 .2512207 .38311769 .2578939 .3433838 .26123048 .30511476 .26123048 .26831056 .26123048 .17190552 .24593099 .08592224 .21533203 .010360718 .1961263-.03816223 .15625-.10964966 .095703128-.20410156H.03466797Z"/>
<path id="font_3_1" d="M0 0Z"/>
<path id="font_3_9" d="M.07861328 .71777346H.17675781V.42089845H.5498047V.71777346H.6479492V0H.5498047V.33496095H.17675781V0H.07861328V.71777346Z"/>
<path id="font_3_13" d="M.13183594 .1394043C.13183594 .114095058 .14111328 .09413656 .15966797 .07952881 .17822266 .06492106 .20019531 .057617189 .22558594 .057617189 .2565104 .057617189 .28645835 .06471761 .3154297 .07891846 .3642578 .10247803 .38867188 .14127605 .38867188 .1953125V.26611329C.3779297 .25886027 .36409507 .2528127 .34716798 .24797058 .33024089 .24313863 .3136393 .23983257 .29736329 .23805237L.24414063 .23184204C.21223958 .22799683 .1883138 .22153218 .17236328 .21244812 .14534505 .19718933 .13183594 .17284139 .13183594 .1394043M.34472657 .31689454C.36490885 .3194987 .37841798 .32796226 .3852539 .34228517 .38916017 .35012818 .39111329 .36140443 .39111329 .3761139 .39111329 .40618388 .38045249 .42799888 .35913087 .44155885 .33780924 .455129 .30729167 .46191407 .26757813 .46191407 .22167969 .46191407 .18912761 .44948326 .16992188 .42462159 .15917969 .4108785 .15218099 .39043174 .14892578 .36328126H.06689453C.06852213 .42791749 .08943685 .47288514 .12963867 .4981842 .1698405 .5234833 .21647136 .5361328 .26953126 .5361328 .3310547 .5361328 .38102214 .52441409 .4194336 .50097659 .45751954 .47753907 .4765625 .4410502 .4765625 .39151V.08985901C.4765625 .08073425 .47843424 .073404949 .48217774 .067871097 .48592124 .06233724 .4938151 .059570314 .5058594 .059570314 .5097656 .059570314 .51416018 .059814454 .51904299 .060302736 .5239258 .060791017 .5291341 .061523439 .53466799 .0625V-.0028076173C.5209961-.00676473 .5105794-.009236653 .50341799-.010223389 .4962565-.011220296 .48649089-.01171875 .4741211-.01171875 .44384767-.01171875 .421875-.0009104411 .40820313 .020706177 .40104167 .032170614 .3959961 .048380536 .3930664 .06933594 .37516276 .045633954 .34944663 .025060019 .31591798 .0076141359 .2823893-.009831746 .2454427-.018554688 .20507813-.018554688 .15657552-.018554688 .11694336-.0037790936 .08618164 .025772095 .055419923 .055323285 .040039064 .092300418 .040039064 .13670349 .040039064 .18535869 .05517578 .22307332 .08544922 .24984741 .115722659 .2766215 .1554362 .29311119 .20458985 .2993164L.34472657 .31689454M.27197267 .5361328V.5361328Z"/>
<path id="font_3_27" d="M.06689453 .5234375H.15039063V.4326172C.15722656 .4502767 .17399089 .4717814 .2006836 .49713136 .2273763 .52248129 .25813804 .53515627 .29296876 .53515627 .29459635 .53515627 .29736329 .5349579 .30126954 .53456118 .30517579 .5341746 .31184898 .5333964 .32128907 .53222659V.43945313C.31608073 .44062297 .3112793 .44140116 .30688478 .44178773 .30249024 .44218446 .2976888 .4423828 .29248048 .4423828 .24820964 .4423828 .2141927 .4280599 .19042969 .39941407 .16666667 .37076823 .15478516 .33789063 .15478516 .30078126V0H.06689453V.5234375Z"/>
<path id="font_3_16" d="M.12011719 .2553711C.12011719 .19923909 .1319987 .15224712 .15576172 .11439514 .17952474 .076543178 .21761067 .057617189 .27001954 .057617189 .31070964 .057617189 .3441569 .075154628 .37036134 .11022949 .39656578 .14531453 .40966798 .19565328 .40966798 .26124574 .40966798 .32748924 .39615885 .37651573 .36914063 .4083252 .3421224 .44014488 .3087565 .4560547 .26904298 .4560547 .22477214 .4560547 .18888347 .4390869 .16137696 .40515138 .13387044 .37121583 .12011719 .32128907 .12011719 .2553711M.2524414 .53222659C.29248048 .53222659 .32600913 .52381899 .35302735 .5070038 .36865235 .4972992 .38639323 .48031617 .40625 .4560547V.71875H.49072267V0H.4116211V.07229614C.39111329 .04023234 .36686198 .017074585 .3388672 .002822876 .3108724-.011428833 .2788086-.018554688 .24267578-.018554688 .18440755-.018554688 .13395183 .0059407555 .091308597 .05493164 .048665365 .10392252 .02734375 .16910808 .02734375 .25048829 .02734375 .32666017 .04679362 .39265953 .08569336 .44848634 .1245931 .5043132 .18017578 .53222659 .2524414 .53222659Z"/>
<path id="font_3_30" d="M.10498047 .5234375 .2055664 .110946658 .3076172 .5234375H.40625L.50878909 .11338806 .61572268 .5234375H.7036133L.5517578 0H.46044923L.3540039 .40516664 .25097657 0H.15966797L.0087890629 .5234375H.10498047Z"/>
<path id="font_3_17" d="M.28222657 .53515627C.31933595 .53515627 .355306 .52644857 .39013673 .5090332 .42496745 .49161784 .4514974 .4690806 .46972657 .4414215 .4873047 .41505433 .49902345 .3842977 .5048828 .3491516 .5100911 .32506309 .5126953 .28647868 .5126953 .23339844H.12939453C.13102214 .18033855 .14355469 .13777669 .16699219 .10571289 .19042969 .073649089 .22672527 .057617189 .2758789 .057617189 .32177735 .057617189 .35839845 .07261658 .3857422 .10261536 .4013672 .12003072 .4124349 .14018758 .4189453 .16308594H.5053711C.50309249 .14398194 .49552409 .122690837 .48266603 .09921265 .46980796 .07574463 .45540367 .05656433 .43945313 .041671754 .4127604 .01576233 .37972007-.0017242432 .34033204-.010787964 .3191732-.01596578 .2952474-.018554688 .2685547-.018554688 .20345052-.018554688 .14827474 .0051472985 .103027347 .05255127 .05777995 .09995524 .03515625 .16634114 .03515625 .25170899 .03515625 .33576457 .057942708 .40401713 .103515628 .45646668 .14908855 .5089264 .20865886 .53515627 .28222657 .53515627M.42236329 .30371095C.41878257 .34191896 .41048179 .37245179 .39746095 .39530946 .3733724 .4377594 .33317057 .45898438 .27685548 .45898438 .23649089 .45898438 .20263672 .44437156 .17529297 .41514588 .14794922 .3859202 .13346355 .34877525 .13183594 .30371095H.42236329M.27392579 .5361328V.5361328Z"/>
<path id="font_3_5" d="M.110839847 .51660159H.21289063V.41015626H.110839847V.51660159M.110839847 .10644531H.21289063V0H.110839847V.10644531Z"/>
<path id="font_3_11" d="M.59814456 .71777346V.63183596H.3564453V0H.2578125V.63183596H.016113282V.71777346H.59814456Z"/>
<path id="font_3_20" d="M.064453128 .71875H.15234375V.45214845C.17317708 .4786682 .19189453 .4973297 .2084961 .50813296 .2368164 .5267995 .2721354 .5361328 .31445313 .5361328 .39029948 .5361328 .44173179 .50957748 .46875 .45646668 .48339845 .42747499 .49072267 .38723756 .49072267 .3357544V0H.40039063V.32958985C.40039063 .3680013 .3955078 .39615885 .3857422 .4140625 .36979167 .44270835 .33984376 .45703126 .29589845 .45703126 .2594401 .45703126 .22639974 .4444987 .19677735 .4194336 .16715496 .3943685 .15234375 .34700523 .15234375 .27734376V0H.064453128V.71875Z"/>
<path id="font_3_4" d="M.041503908 .32421876H.2866211V.23339844H.041503908V.32421876Z"/>
<path id="font_3_28" d="M.11669922 .1640625C.11930338 .13463338 .12662761 .11207072 .13867188 .09637451 .1608073 .06793213 .19921875 .053710939 .25390626 .053710939 .28645835 .053710939 .31510417 .060806276 .33984376 .07499695 .36458335 .08919779 .37695313 .11115011 .37695313 .14085388 .37695313 .16337586 .36702476 .18051148 .34716798 .19226074 .33447267 .19944255 .30940757 .20775859 .27197267 .21720886L.20214844 .2348175C.15755208 .24590557 .12467448 .25829569 .103515628 .27198792 .06575521 .29579164 .046875 .32873027 .046875 .37080384 .046875 .42036439 .064697269 .46046958 .1003418 .49111939 .13598633 .52177938 .18391927 .5371094 .24414063 .5371094 .32291667 .5371094 .37972007 .5139974 .41455079 .46777345 .4363607 .43847657 .4469401 .40690104 .44628907 .37304688H.36328126C.36165367 .39269004 .35465495 .41055808 .34228517 .426651 .32210288 .44950868 .28710938 .4609375 .23730469 .4609375 .20410156 .4609375 .17895508 .45461528 .16186524 .44197084 .14477539 .42933656 .13623047 .41264854 .13623047 .39190675 .13623047 .36922203 .14746094 .35107423 .16992188 .33746339 .1829427 .32936607 .20214844 .32221986 .22753906 .31602479L.28564454 .3018341C.34879557 .28650413 .39111329 .27166749 .41259767 .25732423 .44677735 .23482259 .4638672 .19944255 .4638672 .15118408 .4638672 .10455322 .44620768 .06428019 .41088868 .03036499 .37556968-.0035502117 .32177735-.020507813 .24951172-.020507813 .17171224-.020507813 .116617839-.002802531 .084228519 .032608034 .05183919 .06801859 .034505208 .111836757 .032226564 .1640625H.11669922M.24658203 .5361328V.5361328Z"/>
<path id="font_3_29" d="M.08203125 .66796877H.17089844V.5234375H.25439454V.4501953H.17089844V.110183719C.17089844 .09202576 .17708333 .07986959 .18945313 .07371521 .19628906 .07014465 .2076823 .068359378 .22363281 .068359378 .22786458 .068359378 .23242188 .06846619 .23730469 .06867981 .2421875 .0689036 .24788411 .06944784 .25439454 .0703125V0C.24430339-.0031026204 .23380535-.005340576 .22290039-.006713867 .21199544-.008097331 .20019531-.0087890629 .1875-.0087890629 .14648438-.0087890629 .118652347 .0016988119 .104003909 .02267456 .08935547 .04365031 .08203125 .070882167 .08203125 .10437012V.4501953H.011230469V.5234375H.08203125V.66796877Z"/>
<path id="font_3_19" d="M.24902344 .53222659C.29003907 .53222659 .32584635 .5220744 .3564453 .50177 .37304688 .49030558 .38997398 .4736023 .40722657 .45166017V.5185547H.48828126V.04234314C.48828126-.024154664 .47851563-.07663473 .45898438-.115097049 .42252604-.18615215 .35367839-.22167969 .2524414-.22167969 .1961263-.22167969 .14876302-.20906575 .11035156-.18383789 .0719401-.15861003 .05045573-.119140628 .045898439-.06542969H.1352539C.13948567-.08873495 .14794922-.10669454 .16064453-.11930847 .1805013-.13872783 .2117513-.1484375 .25439454-.1484375 .32177735-.1484375 .3658854-.12467448 .38671876-.07714844 .39908854-.04916382 .40478517 .0007985433 .4038086 .07273865 .38623048 .04588318 .36507163 .025904337 .34033204 .012802124 .31559245-.000289917 .2828776-.0068359377 .2421875-.0068359377 .18554688-.0068359377 .13598633 .013280232 .09350586 .053512575 .05102539 .09375509 .029785157 .16030376 .029785157 .25315858 .029785157 .34080506 .051188154 .40922547 .09399414 .4584198 .13680013 .5076243 .18847656 .53222659 .24902344 .53222659M.40722657 .26342774C.40722657 .328125 .39388023 .37607829 .3671875 .4072876 .34049479 .43849693 .30647788 .45410157 .26513673 .45410157 .20328777 .45410157 .16097005 .4251658 .1381836 .3672943 .12613933 .33641053 .12011719 .29593406 .12011719 .24586487 .12011719 .1870168 .13208008 .14223226 .15600586 .11151123 .17993164 .0807902 .21207683 .06542969 .2524414 .06542969 .31559245 .06542969 .36002604 .09387716 .3857422 .1507721 .4000651 .18295796 .40722657 .22050984 .40722657 .26342774M.25927735 .5361328V.5361328Z"/>
<path id="font_3_26" d="M.28515626 .057617189C.32617188 .057617189 .36027018 .07486979 .38745118 .109375 .41463218 .14389038 .42822267 .1954956 .42822267 .26419068 .42822267 .3060608 .42220054 .34204103 .41015626 .37213136 .38736979 .43003337 .34570313 .45898438 .28515626 .45898438 .22428386 .45898438 .18261719 .42840068 .16015625 .36723329 .14811199 .33451844 .14208985 .29297386 .14208985 .24259949 .14208985 .20204163 .14811199 .16753133 .16015625 .1390686 .1829427 .08476766 .22460938 .057617189 .28515626 .057617189M.057617189 .5205078H.1430664V.45162965C.16064453 .47540284 .17985027 .49379985 .2006836 .5068207 .23030599 .5263621 .26513673 .5361328 .30517579 .5361328 .36442057 .5361328 .41471354 .5133667 .4560547 .46783448 .49739585 .42230226 .5180664 .3572693 .5180664 .2727356 .5180664 .1585083 .48828126 .07691447 .42871095 .027954102 .39095054-.0030517579 .34700523-.018554688 .296875-.018554688 .25748698-.018554688 .22444661-.009984334 .1977539 .007156372 .1821289 .016860962 .16471355 .033518476 .14550781 .057128908V-.20898438H.057617189V.5205078Z"/>
<path id="font_3_21" d="M.064453128 .5205078H.1538086V0H.064453128V.5205078M.064453128 .71777346H.1538086V.61816409H.064453128V.71777346Z"/>
<path id="font_3_23" d="M.06689453 .71777346H.15478516V0H.06689453V.71777346Z"/>
<path id="font_3_25" d="M.064453128 .5234375H.14794922V.44921876C.1726888 .47981773 .19889324 .50179037 .2265625 .5151367 .25423179 .5284831 .2849935 .53515627 .31884767 .53515627 .3930664 .53515627 .44319663 .5092519 .46923829 .45744325 .4835612 .42910258 .49072267 .38853965 .49072267 .3357544V0H.4013672V.3299408C.4013672 .36188255 .39664714 .38762919 .38720704 .4071808 .37158204 .4397634 .34326173 .4560547 .3022461 .4560547 .28141276 .4560547 .2643229 .4539388 .25097657 .44970704 .22688802 .4425354 .20572917 .42819724 .1875 .4066925 .17285156 .38941957 .16333008 .37157694 .15893555 .35316468 .15454102 .3347524 .15234375 .30844117 .15234375 .27423097V0H.064453128V.5234375M.2709961 .5361328V.5361328Z"/>
<path id="font_3_18" d="M.08642578 .6021576C.08772787 .638443 .09407552 .66500857 .10546875 .68185427 .12597656 .7116597 .16552735 .7265625 .2241211 .7265625 .22965496 .7265625 .23535156 .7263997 .24121094 .7260742 .24707031 .7257487 .2537435 .72526046 .26123048 .7246094V.64453127C.25211589 .6449687 .2455241 .6452382 .24145508 .64533999 .23738607 .64545187 .2335612 .6455078 .22998047 .6455078 .20328777 .6455078 .18733724 .6386719 .1821289 .625 .17692058 .6113281 .1743164 .5764974 .1743164 .5205078H.26123048V.45117188H.17333985V0H.08642578V.45117188H.013671875V.5205078H.08642578V.6021576Z"/>
<path id="font_3_14" d="M.057617189 .71875H.1430664V.45948792C.16227214 .4847056 .18522136 .50394698 .21191406 .5172119 .23860677 .53047689 .26757813 .5371094 .29882813 .5371094 .36393229 .5371094 .41674806 .5147095 .4572754 .46990968 .49780274 .42510987 .5180664 .35905458 .5180664 .27174378 .5180664 .1889801 .49804688 .12022909 .4580078 .06549072 .41796876 .010762532 .36246745-.016601563 .2915039-.016601563 .25179038-.016601563 .21826172-.006942749 .19091797 .012374878 .17464192 .023839316 .15722656 .042175294 .13867188 .06738281V0H.057617189V.71875M.2861328 .061523439C.33365885 .061523439 .36922203 .08037821 .39282228 .11808777 .41642253 .1558075 .42822267 .20555115 .42822267 .26731874 .42822267 .32227073 .41642253 .3677877 .39282228 .40386964 .36922203 .43996177 .33447267 .4580078 .28857423 .4580078 .24853516 .4580078 .21346028 .44321189 .18334961 .41362 .15323894 .3840383 .1381836 .3352712 .1381836 .26731874 .1381836 .21822612 .14436849 .17840068 .15673828 .1478424 .17985027 .090296428 .22298177 .061523439 .2861328 .061523439Z"/>
<path id="font_3_22" d="M.0625 .71777346H.14697266V.30101014L.3725586 .5234375H.48486329L.28466798 .32881166 .49609376 0H.38378907L.22070313 .26635743 .14697266 .19647217V0H.0625V.71777346Z"/>
<path id="font_4_1" d="M0 0Z"/>
<path id="font_3_10" d="M.08544922 .71777346H.40820313C.47200523 .71777346 .5234375 .6997884 .5625 .66381838 .6015625 .6278483 .62109377 .5773112 .62109377 .51220706 .62109377 .45621745 .6036784 .4074707 .56884768 .3659668 .5340169 .3244629 .48046876 .30371095 .40820313 .30371095H.18261719V0H.08544922V.71777346M.5229492 .5114746C.5229492 .56410726 .50341799 .5998433 .46435548 .61868289 .4428711 .62875369 .41341148 .63378909 .37597657 .63378909H.18261719V.3857422H.37597657C.41959635 .3857422 .45499674 .39499919 .48217774 .41351319 .5093587 .43203736 .5229492 .46469117 .5229492 .5114746Z"/>
<path id="font_3_24" d="M.064453128 .5234375H.15136719V.44921876C.17220052 .4749349 .19108074 .49365235 .20800781 .5053711 .23697917 .52522787 .26985679 .53515627 .30664063 .53515627 .34830729 .53515627 .38183595 .52490237 .40722657 .50439456 .42154948 .49267579 .4345703 .4754232 .44628907 .45263673 .4658203 .4806315 .48876954 .5013835 .5151367 .5148926 .5415039 .5284017 .5711263 .53515627 .6040039 .53515627 .6743164 .53515627 .72216799 .5097402 .7475586 .45890809 .76123049 .43154399 .7680664 .3947296 .7680664 .34846498V0H.6767578V.36367799C.6767578 .39853923 .6680501 .42248536 .65063479 .43551637 .6332194 .44855754 .6119792 .45507813 .58691409 .45507813 .5524089 .45507813 .5227051 .44350688 .49780274 .42036439 .4729004 .39723207 .46044923 .35861717 .46044923 .30451966V0H.37109376V.3416748C.37109376 .37719728 .36686198 .4031016 .35839845 .41938783 .3450521 .4438324 .32014976 .4560547 .2836914 .4560547 .25048829 .4560547 .22029622 .44318138 .19311524 .4174347 .16593425 .3916982 .15234375 .34510295 .15234375 .27764894V0H.064453128V.5234375Z"/>
<path id="font_1_6" d="M.07861328 0V.7158203H.3959961C.4597982 .7158203 .5083008 .70939639 .5415039 .69654849 .57470706 .68371078 .601237 .6610362 .62109377 .6285248 .6409505 .59601339 .6508789 .5600891 .6508789 .52075198 .6508789 .47003175 .6344401 .4272766 .6015625 .39248658 .5686849 .3577067 .5179036 .3356018 .44921876 .32617188 .47428385 .31410728 .4933268 .3022054 .50634768 .2904663 .5340169 .2650248 .5602214 .23324077 .58496096 .19511414L.70947268 0H.59033206L.49560548 .14915467C.4679362 .19218445 .44514976 .22510784 .4272461 .2479248 .40934245 .27075196 .39331056 .2867279 .3791504 .29585267 .36499024 .30498759 .35058595 .3113505 .3359375 .3149414 .3251953 .31722007 .3076172 .31835938 .28320313 .31835938H.17333985V0H.07861328M.17333985 .40039063H.37695313C.4202474 .40039063 .45410157 .40485636 .47851563 .41378785 .5029297 .42271934 .5214844 .43701173 .5341797 .45666505 .546875 .47631837 .55322268 .49768067 .55322268 .52075198 .55322268 .5545349 .54093429 .5823059 .5163574 .60406497 .4917806 .62583419 .45296226 .63671877 .39990235 .63671877H.17333985V.40039063Z"/>
<path id="font_1_12" d="M.049804689-.04296875 .1352539-.0546875C.13883464-.08137003 .14876302-.10080465 .16503906-.11299133 .18684896-.12946065 .21663411-.13769531 .25439454-.13769531 .29508464-.13769531 .3264974-.12953694 .3486328-.113220218 .37076823-.09690348 .3857422-.07406616 .3935547-.044708253 .39811198-.026753745 .40022788 .010935466 .39990235 .068359378 .36149089 .022786459 .3136393 0 .25634767 0 .1850586 0 .12988281 .025716147 .09082031 .07714844 .051757814 .12858074 .032226564 .19026692 .032226564 .26220704 .032226564 .3116862 .041178388 .35734049 .05908203 .39916993 .07698568 .44099937 .10294596 .47330729 .13696289 .49609376 .17097982 .5188802 .2109375 .53027346 .25683595 .53027346 .31803385 .53027346 .3684896 .5052083 .40820313 .45507813V.5185547H.4892578V.070007327C.4892578-.010772705 .48103843-.06801859 .4645996-.10173035 .4481608-.1354421 .42211915-.16206868 .3864746-.1816101 .35083009-.2011617 .30696617-.2109375 .2548828-.2109375 .19303386-.2109375 .1430664-.19698079 .10498047-.16906739 .06689453-.14115398 .048502607-.099121097 .049804689-.04296875M.122558597 .26853944C.122558597 .20067851 .1360677 .15116374 .16308594 .11999512 .19010417 .0888265 .22395833 .07324219 .26464845 .07324219 .30501304 .07324219 .3388672 .08874512 .36621095 .11975098 .3935547 .15075684 .40722657 .19938152 .40722657 .265625 .40722657 .3289388 .3931478 .3766683 .36499024 .40881349 .33683268 .44095866 .30289714 .45703126 .2631836 .45703126 .2241211 .45703126 .19091797 .4412028 .16357422 .4095459 .13623047 .377889 .122558597 .33088685 .122558597 .26853944Z"/>
<path id="font_1_5" d="M.5878906 .25146485 .6826172 .22753906C.66276046 .14973958 .6270345 .090413417 .57543948 .049560548 .5238444 .008707683 .46077476-.01171875 .38623048-.01171875 .30908204-.01171875 .24633789 .0039876305 .19799805 .03540039 .1496582 .06681315 .11287435 .11230469 .087646488 .171875 .06241862 .23144531 .049804689 .29541017 .049804689 .36376954 .049804689 .4383138 .06404623 .5033366 .0925293 .5588379 .12101237 .6143392 .16153972 .65649417 .21411133 .68530276 .26668296 .7141113 .32454429 .7285156 .3876953 .7285156 .4593099 .7285156 .51953127 .71028646 .5683594 .6738281 .6171875 .6373698 .6512044 .5861003 .67041018 .52001956L.57714846 .49804688C.5605469 .5501302 .5364583 .5880534 .5048828 .6118164 .47330729 .6355794 .43359376 .64746096 .3857422 .64746096 .33072917 .64746096 .28474937 .63427737 .24780274 .60791018 .21085613 .58154299 .18489583 .5461426 .16992188 .501709 .15494792 .4572754 .14746094 .41145835 .14746094 .3642578 .14746094 .3033854 .15633138 .25024415 .17407227 .20483399 .19181316 .15942383 .21940105 .12548828 .25683595 .103027347 .29427085 .080566409 .3347982 .06933594 .37841798 .06933594 .43147788 .06933594 .47639976 .084635417 .5131836 .115234378 .54996749 .14583333 .5748698 .19124349 .5878906 .25146485Z"/>
<path id="font_1_15" d="M.063964847 0V.7158203H.15185547V0H.063964847Z"/>
<path id="font_1_18" d="M.033203126 .25927735C.033203126 .355306 .059895833 .42643229 .11328125 .47265626 .15787761 .5110677 .21223958 .53027346 .2763672 .53027346 .34765626 .53027346 .40592448 .5069173 .45117188 .46020509 .49641929 .41349284 .51904299 .34895835 .51904299 .26660157 .51904299 .1998698 .5090332 .14737956 .48901368 .10913086 .46899415 .070882167 .43986003 .041178388 .40161134 .020019532 .36336265-.0011393229 .3216146-.01171875 .2763672-.01171875 .20377605-.01171875 .1451009 .011555989 .1003418 .05810547 .055582685 .104654949 .033203126 .17171224 .033203126 .25927735M.123535159 .2590332C.123535159 .19270833 .13802083 .14304607 .16699219 .11004639 .19596355 .077046718 .23242188 .060546876 .2763672 .060546876 .31998698 .060546876 .35628257 .07712809 .3852539 .11029053 .41422526 .14345296 .42871095 .19401042 .42871095 .2619629 .42871095 .32600913 .4141439 .37453208 .38500978 .40753175 .35587565 .4405314 .31966148 .45703126 .2763672 .45703126 .23242188 .45703126 .19596355 .4406128 .16699219 .40777589 .13802083 .37493897 .123535159 .32535807 .123535159 .2590332Z"/>
<path id="font_1_10" d="M.40429688 .19042969 .49072267 .17871094C.48128257 .119140628 .45711265 .072509769 .4182129 .03881836 .37931315 .005126953 .33154298-.01171875 .27490235-.01171875 .2039388-.01171875 .14689128 .011474609 .103759769 .057861329 .060628255 .10424805 .0390625 .17073567 .0390625 .25732423 .0390625 .3133138 .048339845 .3623047 .06689453 .40429688 .08544922 .44628907 .11368815 .4777832 .15161133 .4987793 .1895345 .5197754 .23079427 .53027346 .27539063 .53027346 .33170573 .53027346 .37776695 .5161133 .41357423 .48779298 .4493815 .45948283 .47233073 .419281 .48242188 .3671875L.39697267 .35351563C.38883464 .3881836 .37443034 .41426597 .35375978 .4317627 .3330892 .44925944 .30810548 .4580078 .2788086 .4580078 .23453777 .4580078 .1985677 .44213868 .17089844 .4104004 .14322917 .3786621 .12939453 .32845054 .12939453 .25976563 .12939453 .19010417 .14274089 .13948567 .1694336 .107910159 .1961263 .07633463 .23095703 .060546876 .27392579 .060546876 .308431 .060546876 .3372396 .07116699 .36035157 .09240723 .38346354 .11364746 .39811198 .14632161 .40429688 .19042969Z"/>
<path id="font_1_14" d="M.06640625 0V.7158203H.15429688V.3080597L.3623047 .5185547H.47607423L.27783204 .32589723 .49609376 0H.3876953L.2163086 .26557923 .15429688 .2055664V0H.06640625Z"/>
<path id="font_1_9" d="M.14697266 0H.06542969V.7158203H.15332031V.46044923C.19042969 .5069987 .23779297 .53027346 .29541017 .53027346 .3273112 .53027346 .35750328 .5238444 .38598634 .5109863 .4144694 .49812828 .4379069 .48006187 .45629884 .4567871 .47469078 .43351237 .48909507 .4054362 .49951173 .3725586 .5099284 .339681 .5151367 .30452476 .5151367 .26708985 .5151367 .17822266 .49316407 .10953776 .44921876 .061035158 .40527345 .012532552 .35253907-.01171875 .29101563-.01171875 .2298177-.01171875 .18180339 .013834636 .14697266 .064941409V0M.1459961 .2631836C.1459961 .20100911 .15445964 .15608724 .17138672 .12841797 .19905599 .08317057 .23649089 .060546876 .2836914 .060546876 .32210288 .060546876 .355306 .07722982 .38330079 .1105957 .41129557 .1439616 .42529298 .19368489 .42529298 .25976563 .42529298 .32747398 .41186524 .3774414 .38500978 .40966798 .3581543 .44189454 .3256836 .4580078 .28759767 .4580078 .2491862 .4580078 .21598308 .44132487 .18798828 .40795899 .15999349 .3745931 .1459961 .32633464 .1459961 .2631836Z"/>
<path id="font_1_2" d="M.09082031 0V.10058594H.19091797V0H.09082031Z"/>
<path id="font_1_3" d="M-.0014648438 0 .2734375 .7158203H.37548829L.66845706 0H.5605469L.47705079 .21679688H.17773438L.099121097 0H-.0014648438M.20507813 .2939453H.4477539L.37304688 .4923706C.3502604 .5525004 .33333335 .6022441 .32226563 .64160159 .31315104 .59510299 .30029298 .5492045 .2836914 .50390627L.20507813 .2939453Z"/>
<path id="font_1_4" d="M.07324219 0V.7158203H.34179688C.39648438 .7158203 .4403483 .70859786 .47338868 .69415286 .506429 .6797078 .5323079 .65747579 .5510254 .62745669 .56974288 .59743759 .57910159 .566035 .57910159 .5332489 .57910159 .5027415 .5708008 .47401429 .5541992 .44706727 .53759768 .4201304 .51253256 .39838664 .4790039 .38183595 .52229818 .3691101 .5555827 .347407 .5788574 .31672669 .60213217 .28604637 .61376956 .24982198 .61376956 .20805359 .61376956 .1744334 .60668948 .1431834 .5925293 .11430359 .57836917 .08542379 .5608724 .06315104 .54003909 .04748535 .51920577 .03181966 .49308268 .019989014 .46166993 .011993408 .43025718 .0039978029 .3917643 0 .3461914 0H.07324219M.16796875 .41601563H.3227539C.3647461 .41601563 .39485679 .4187673 .41308595 .42427064 .43717448 .43138124 .45532228 .44318138 .4675293 .45967103 .47973634 .47616069 .48583985 .4968516 .48583985 .5217438 .48583985 .54534408 .48014323 .56611636 .46875 .58406069 .45735679 .602005 .44108073 .61428835 .41992188 .62091067 .39876304 .62754318 .36246745 .6308594 .31103517 .6308594H.16796875V.41601563M.16796875 .08496094H.3461914C.37679038 .08496094 .39827476 .08610026 .41064454 .088378909 .43245445 .092285159 .4506836 .09879557 .46533204 .107910159 .47998048 .11702474 .49202476 .13028972 .50146487 .14770508 .51090499 .16512044 .515625 .18522136 .515625 .20800781 .515625 .23470052 .50878909 .2578939 .4951172 .2775879 .4814453 .2972819 .46248374 .31111656 .43823243 .3190918 .4139811 .32706706 .379069 .3310547 .3334961 .3310547H.16796875V.08496094Z"/>
<path id="font_3_6" d="M.44433595 .2939453 .33544923 .61120608 .21972656 .2939453H.44433595M.28466798 .71777346H.39453126L.65478518 0H.54833987L.47558595 .21484375H.19189453L.11425781 0H.0146484379L.28466798 .71777346M.33496095 .71777346V.71777346Z"/>
<path id="font_3_7" d="M.34570313 .4140625C.38671876 .4140625 .41861979 .4197693 .44140626 .43118287 .47721354 .4491272 .4951172 .48142497 .4951172 .5280762 .4951172 .57506307 .47607423 .6067098 .43798829 .62301638 .4165039 .6321513 .38460288 .63671877 .34228517 .63671877H.16894531V.4140625H.34570313M.37841798 .08300781C.43798829 .08300781 .48046876 .100224819 .5058594 .13465882 .5218099 .15642803 .52978518 .18274434 .52978518 .21360779 .52978518 .26559959 .50651046 .30101524 .45996095 .31985475 .43522135 .32992555 .4025065 .33496095 .3618164 .33496095H.16894531V.08300781H.37841798M.07373047 .71777346H.38183595C.4658203 .71777346 .5255534 .6926575 .56103518 .64242556 .58186849 .6127421 .59228518 .5784963 .59228518 .5396881 .59228518 .49434916 .57942709 .45716349 .55371096 .4281311 .54036459 .41280113 .5211589 .3987783 .49609376 .38606263 .5328776 .3720754 .5603841 .35629273 .5786133 .3387146 .61083987 .30748496 .6269531 .26437379 .6269531 .2093811 .6269531 .16317749 .61246749 .12136841 .5834961 .08395386 .54020187 .02798462 .47135417 0 .37695313 0H.07373047V.71777346Z"/>
<path id="font_3_8" d="M.37841798 .7373047C.46923829 .7373047 .53971359 .71332809 .58984377 .66537478 .63997396 .61742147 .66780599 .5629476 .67333987 .5019531H.5786133C.5678711 .54817709 .5464681 .58479818 .5144043 .6118164 .48234049 .63883468 .43733726 .65234377 .37939454 .65234377 .3087565 .65234377 .25170899 .62754318 .20825196 .5779419 .16479492 .52834066 .1430664 .45231629 .1430664 .34986878 .1430664 .26594544 .16267903 .19788106 .2019043 .14567566 .24112956 .09348043 .29964195 .06738281 .3774414 .06738281 .449056 .06738281 .50358077 .094823207 .5410156 .14970398 .5608724 .17860413 .5756836 .21659343 .5854492 .26367188H.6801758C.6717122 .18815105 .64371749 .12483724 .5961914 .07373047 .5392253 .012207031 .46240235-.018554688 .36572267-.018554688 .2823893-.018554688 .21240235 .006688436 .15576172 .057174684 .081217449 .12394714 .043945314 .2270406 .043945314 .36645509 .043945314 .47232057 .0719401 .5591278 .12792969 .62687686 .18847656 .7004954 .27197267 .7373047 .37841798 .7373047M.35888673 .7373047V.7373047Z"/>
<path id="font_2_5" d="M.37646485 .171875H.10449219V.21925354L.33251954 .61328127H.41796876V.21289063H.45214845C.4622396 .21289063 .46940104 .21101888 .4736328 .20727539 .4778646 .2035319 .47998048 .1985677 .47998048 .19238281 .47998048 .18652344 .4778646 .18164063 .4736328 .17773438 .46940104 .17382813 .4622396 .171875 .45214845 .171875H.41796876V.041015626H.45214845C.4622396 .041015626 .46940104 .03914388 .4736328 .03540039 .4778646 .031656904 .47998048 .026692709 .47998048 .020507813 .47998048 .0146484379 .4778646 .009765625 .4736328 .005859375 .46940104 .001953125 .4622396 0 .45214845 0H.2998047C.28971354 0 .2825521 .001953125 .2783203 .005859375 .27408854 .009765625 .27197267 .0146484379 .27197267 .020507813 .27197267 .026692709 .27408854 .031656904 .2783203 .03540039 .2825521 .03914388 .28971354 .041015626 .2998047 .041015626H.37646485V.171875M.37646485 .21289063V.5722656H.35498048L.14746094 .21289063H.37646485Z"/>
<path id="font_3_12" d="M.18164063 .71777346V.27441407C.18164063 .22233074 .19140625 .17903646 .2109375 .14453125 .23990886 .092447917 .28873698 .06640625 .35742188 .06640625 .43977867 .06640625 .49576823 .094563808 .5253906 .1508789 .5413411 .18147786 .5493164 .22265625 .5493164 .27441407V.71777346H.6479492V.3149414C.6479492 .22672527 .6360677 .15885417 .6123047 .111328128 .5686849 .024739584 .48632813-.018554688 .36523438-.018554688 .24414063-.018554688 .16194661 .024739584 .118652347 .111328128 .09488932 .15885417 .08300781 .22672527 .08300781 .3149414V.71777346H.18164063M.36572267 .71777346V.71777346Z"/>
<path id="font_1_17" d="M.06591797 0V.5185547H.14501953V.44482423C.18310547 .50179037 .23811849 .53027346 .3100586 .53027346 .3413086 .53027346 .3700358 .5246582 .39624024 .51342776 .42244468 .50219729 .44205729 .48746745 .45507813 .46923829 .46809898 .45100913 .47721354 .42936198 .48242188 .40429688 .4856771 .38802085 .4873047 .35953776 .4873047 .31884767V0H.39941407V.3154297C.39941407 .35123698 .3959961 .37801109 .38916017 .39575196 .38232423 .41349284 .37019859 .42765299 .3527832 .43823243 .33536784 .44881187 .3149414 .45410157 .2915039 .45410157 .254069 .45410157 .22176107 .44222007 .19458008 .41845704 .1673991 .394694 .1538086 .34960938 .1538086 .28320313V0H.06591797Z"/>
<path id="font_1_8" d="M.40429688 .06542969C.37174479 .03722127 .34041343 .017308554 .31030274 .0056915285 .28019206-.0059153239 .24788411-.01171875 .2133789-.01171875 .15641277-.01171875 .11263021 .0021972657 .08203125 .030029297 .051432294 .057861329 .036132814 .09342448 .036132814 .13671875 .036132814 .16210938 .04191081 .18530274 .053466798 .20629883 .06502279 .22729492 .08015951 .24414063 .09887695 .25683595 .1175944 .26953126 .13867188 .27913413 .16210938 .28564454 .17936199 .2902018 .20540364 .29459635 .24023438 .29882813 .3111979 .30729167 .363444 .3173828 .39697267 .32910157 .3972982 .34109498 .39746095 .3487142 .39746095 .35195924 .39746095 .38763429 .38916017 .4127655 .3725586 .4273529 .35009767 .44713847 .31673179 .45703126 .27246095 .45703126 .2311198 .45703126 .20060222 .44978843 .1809082 .43530274 .16121419 .42081706 .14664714 .39518229 .13720703 .35839845L.05126953 .3701172C.05908203 .40701295 .0719401 .43680827 .08984375 .45950318 .1077474 .4821981 .1336263 .4996643 .16748047 .51190188 .20133464 .5241496 .24055989 .53027346 .28515626 .53027346 .3294271 .53027346 .36539714 .52504476 .3930664 .5145874 .4207357 .5041402 .44108073 .49099223 .45410157 .47514344 .4671224 .4593048 .47623698 .43929545 .4814453 .41511537 .484375 .40009056 .48583985 .3731028 .48583985 .33415223V.21730042C.48583985 .13582866 .48771159 .084228519 .49145509 .0625 .49519859 .040771486 .5026042 .01993815 .5136719 0H.421875C.4127604 .01864624 .40690104 .040456136 .40429688 .06542969M.39697267 .25976563C.36507163 .24680583 .31722007 .23578899 .25341798 .22671509 .21728516 .22153728 .19173177 .21570842 .17675781 .20922852 .16178386 .20274861 .15022786 .1932729 .14208985 .18080139 .13395183 .16832988 .12988281 .15447998 .12988281 .13925171 .12988281 .11592611 .13875325 .09648641 .15649414 .08093262 .17423503 .065389 .20019531 .057617189 .234375 .057617189 .26822917 .057617189 .29833985 .06499735 .32470704 .07975769 .35107423 .0945282 .37044273 .114705409 .3828125 .1402893 .3922526 .16003418 .39697267 .18917339 .39697267 .22770691V.25976563Z"/>
<path id="font_1_19" d="M.2578125 .07861328 .2705078 .0009765625C.24576824-.004231771 .22363281-.0068359377 .20410156-.0068359377 .17220052-.0068359377 .14746094-.0017903646 .12988281 .008300781 .11230469 .018391928 .0999349 .031656904 .09277344 .048095704 .08561198 .06453451 .08203125 .099121097 .08203125 .15185547V.4501953H.017578125V.5185547H.08203125V.64697268L.1694336 .69970706V.5185547H.2578125V.4501953H.1694336V.14697266C.1694336 .121907558 .17097982 .10579427 .17407227 .09863281 .17716472 .09147135 .18221028 .08577474 .18920899 .08154297 .19620769 .077311199 .20621746 .07519531 .21923828 .07519531 .2290039 .07519531 .24186199 .07633463 .2578125 .07861328Z"/>
</defs>
<g clip-path="url(#clip_0)">
<path transform="matrix(1,0,0,-1,-44.6514,837.209)" d="M18 0H594V864H18Z" fill="#ffffff"/>
<path transform="matrix(1,0,0,-1,63.3486,782.084)" stroke-width="1" stroke-linecap="butt" stroke-linejoin="round" fill="none" stroke="#000000" d="M0 0H286"/>
<path transform="matrix(1,0,0,-1,345.3486,779.084)" d="M0 0 6-3 0-6Z" fill-rule="evenodd"/>
<use data-text="T" xlink:href="#font_1_7" transform="matrix(16,0,0,-16,123.34871,777.5841)"/>
<use data-text="i" xlink:href="#font_1_13" transform="matrix(16,0,0,-16,132.53272,777.5841)"/>
<use data-text="m" xlink:href="#font_1_16" transform="matrix(16,0,0,-16,136.08472,777.5841)"/>
<use data-text="e" xlink:href="#font_1_11" transform="matrix(16,0,0,-16,149.41272,777.5841)"/>
<use data-text=" " xlink:href="#font_1_1" transform="matrix(16,0,0,-16,158.30872,777.5841)"/>
<path transform="matrix(1,0,0,-1,-44.6514,837.209)" d="M36 175.625H102V151.625H36Z" fill="#ffffff" fill-rule="evenodd"/>
<use data-text="I" xlink:href="#font_2_6" transform="matrix(16,0,0,-16,30.548596,679.984)"/>
<use data-text="1" xlink:href="#font_2_2" transform="matrix(16,0,0,-16,40.148595,679.984)"/>
<use data-text=" " xlink:href="#font_2_1" transform="matrix(16,0,0,-16,49.748594,679.984)"/>
<path transform="matrix(1,0,0,-1,-44.6514,837.209)" d="M36 151.625H102V127.625H36Z" fill="#ffffff" fill-rule="evenodd"/>
<use data-text="I" xlink:href="#font_2_6" transform="matrix(16,0,0,-16,30.548596,703.9841)"/>
<use data-text="2" xlink:href="#font_2_3" transform="matrix(16,0,0,-16,40.148595,703.9841)"/>
<use data-text=" " xlink:href="#font_2_1" transform="matrix(16,0,0,-16,49.748594,703.9841)"/>
<path transform="matrix(1,0,0,-1,-44.6514,837.209)" d="M36 127.625H102V103.625H36Z" fill="#ffffff" fill-rule="evenodd"/>
<use data-text="I" xlink:href="#font_2_6" transform="matrix(16,0,0,-16,30.548596,727.9841)"/>
<use data-text="3" xlink:href="#font_2_4" transform="matrix(16,0,0,-16,40.148595,727.9841)"/>
<use data-text=" " xlink:href="#font_2_1" transform="matrix(16,0,0,-16,49.748594,727.9841)"/>
<use data-text="(" xlink:href="#font_3_2" transform="matrix(18,0,0,-18,4.5485994,630.8091)"/>
<use data-text="c" xlink:href="#font_3_15" transform="matrix(18,0,0,-18,10.542599,630.8091)"/>
<use data-text=")" xlink:href="#font_3_3" transform="matrix(18,0,0,-18,19.542599,630.8091)"/>
<use data-text=" " xlink:href="#font_3_1" transform="matrix(18,0,0,-18,25.536602,630.8091)"/>
<use data-text="H" xlink:href="#font_3_9" transform="matrix(18,0,0,-18,30.5406,630.8091)"/>
<use data-text="a" xlink:href="#font_3_13" transform="matrix(18,0,0,-18,43.536603,630.8091)"/>
<use data-text="r" xlink:href="#font_3_27" transform="matrix(18,0,0,-18,53.544607,630.8091)"/>
<use data-text="d" xlink:href="#font_3_16" transform="matrix(18,0,0,-18,59.53861,630.8091)"/>
<use data-text="w" xlink:href="#font_3_30" transform="matrix(18,0,0,-18,69.546619,630.8091)"/>
<use data-text="a" xlink:href="#font_3_13" transform="matrix(18,0,0,-18,82.54262,630.8091)"/>
<use data-text="r" xlink:href="#font_3_27" transform="matrix(18,0,0,-18,92.55061,630.8091)"/>
<use data-text="e" xlink:href="#font_3_17" transform="matrix(18,0,0,-18,98.54462,630.8091)"/>
<use data-text=":" xlink:href="#font_3_5" transform="matrix(18,0,0,-18,108.55261,630.8091)"/>
<use data-text=" " xlink:href="#font_3_1" transform="matrix(18,0,0,-18,113.55661,630.8091)"/>
<use data-text="T" xlink:href="#font_3_11" transform="matrix(18,0,0,-18,118.2366,630.8091)"/>
<use data-text="h" xlink:href="#font_3_20" transform="matrix(18,0,0,-18,129.2346,630.8091)"/>
<use data-text="r" xlink:href="#font_3_27" transform="matrix(18,0,0,-18,139.2426,630.8091)"/>
<use data-text="e" xlink:href="#font_3_17" transform="matrix(18,0,0,-18,145.2366,630.8091)"/>
<use data-text="e" xlink:href="#font_3_17" transform="matrix(18,0,0,-18,155.2446,630.8091)"/>
<use data-text="-" xlink:href="#font_3_4" transform="matrix(18,0,0,-18,165.2526,630.8091)"/>
<use data-text="s" xlink:href="#font_3_28" transform="matrix(18,0,0,-18,171.2466,630.8091)"/>
<use data-text="t" xlink:href="#font_3_29" transform="matrix(18,0,0,-18,180.2466,630.8091)"/>
<use data-text="a" xlink:href="#font_3_13" transform="matrix(18,0,0,-18,185.2506,630.8091)"/>
<use data-text="g" xlink:href="#font_3_19" transform="matrix(18,0,0,-18,195.25859,630.8091)"/>
<use data-text="e" xlink:href="#font_3_17" transform="matrix(18,0,0,-18,205.26659,630.8091)"/>
<use data-text=" " xlink:href="#font_3_1" transform="matrix(18,0,0,-18,215.2746,630.8091)"/>
<use data-text="p" xlink:href="#font_3_26" transform="matrix(18,0,0,-18,220.2786,630.8091)"/>
<use data-text="i" xlink:href="#font_3_21" transform="matrix(18,0,0,-18,230.28659,630.8091)"/>
<use data-text="p" xlink:href="#font_3_26" transform="matrix(18,0,0,-18,234.2826,630.8091)"/>
<use data-text="e" xlink:href="#font_3_17" transform="matrix(18,0,0,-18,244.29059,630.8091)"/>
<use data-text="l" xlink:href="#font_3_23" transform="matrix(18,0,0,-18,254.29859,630.8091)"/>
<use data-text="i" xlink:href="#font_3_21" transform="matrix(18,0,0,-18,258.2946,630.8091)"/>
<use data-text="n" xlink:href="#font_3_25" transform="matrix(18,0,0,-18,262.2906,630.8091)"/>
<use data-text="e" xlink:href="#font_3_17" transform="matrix(18,0,0,-18,272.29859,630.8091)"/>
<use data-text=" " xlink:href="#font_3_1" transform="matrix(18,0,0,-18,282.30659,630.8091)"/>
<use data-text="w" xlink:href="#font_3_30" transform="matrix(18,0,0,-18,287.31059,630.8091)"/>
<use data-text="i" xlink:href="#font_3_21" transform="matrix(18,0,0,-18,300.30659,630.8091)"/>
<use data-text="t" xlink:href="#font_3_29" transform="matrix(18,0,0,-18,304.30259,630.8091)"/>
<use data-text="h" xlink:href="#font_3_20" transform="matrix(18,0,0,-18,309.30659,630.8091)"/>
<use data-text=" " xlink:href="#font_3_1" transform="matrix(18,0,0,-18,319.31459,630.8091)"/>
<use data-text="f" xlink:href="#font_3_18" transform="matrix(18,0,0,-18,324.31858,630.8091)"/>
<use data-text="e" xlink:href="#font_3_17" transform="matrix(18,0,0,-18,329.32258,630.8091)"/>
<use data-text="e" xlink:href="#font_3_17" transform="matrix(18,0,0,-18,339.33058,630.8091)"/>
<use data-text="d" xlink:href="#font_3_16" transform="matrix(18,0,0,-18,349.33857,630.8091)"/>
<use data-text="b" xlink:href="#font_3_14" transform="matrix(18,0,0,-18,359.34657,630.8091)"/>
<use data-text="a" xlink:href="#font_3_13" transform="matrix(18,0,0,-18,369.35456,630.8091)"/>
<use data-text="c" xlink:href="#font_3_15" transform="matrix(18,0,0,-18,379.36256,630.8091)"/>
<use data-text="k" xlink:href="#font_3_22" transform="matrix(18,0,0,-18,388.36256,630.8091)"/>
<use data-text="&#xfffd;" xlink:href="#font_4_1" transform="matrix(18,0,0,-18,397.36256,630.8091)"/>
<use data-text="(" xlink:href="#font_3_2" transform="matrix(18,0,0,-18,4.5485994,811.69107)"/>
<use data-text="d" xlink:href="#font_3_16" transform="matrix(18,0,0,-18,10.542599,811.69107)"/>
<use data-text=")" xlink:href="#font_3_3" transform="matrix(18,0,0,-18,20.550602,811.69107)"/>
<use data-text=" " xlink:href="#font_3_1" transform="matrix(18,0,0,-18,26.544606,811.69107)"/>
<use data-text="P" xlink:href="#font_3_10" transform="matrix(18,0,0,-18,31.548604,811.69107)"/>
<use data-text="i" xlink:href="#font_3_21" transform="matrix(18,0,0,-18,43.554609,811.69107)"/>
<use data-text="p" xlink:href="#font_3_26" transform="matrix(18,0,0,-18,47.55061,811.69107)"/>
<use data-text="e" xlink:href="#font_3_17" transform="matrix(18,0,0,-18,57.558614,811.69107)"/>
<use data-text="l" xlink:href="#font_3_23" transform="matrix(18,0,0,-18,67.56662,811.69107)"/>
<use data-text="i" xlink:href="#font_3_21" transform="matrix(18,0,0,-18,71.56262,811.69107)"/>
<use data-text="n" xlink:href="#font_3_25" transform="matrix(18,0,0,-18,75.558628,811.69107)"/>
<use data-text="e" xlink:href="#font_3_17" transform="matrix(18,0,0,-18,85.56662,811.69107)"/>
<use data-text=" " xlink:href="#font_3_1" transform="matrix(18,0,0,-18,95.574619,811.69107)"/>
<use data-text="d" xlink:href="#font_3_16" transform="matrix(18,0,0,-18,100.57861,811.69107)"/>
<use data-text="i" xlink:href="#font_3_21" transform="matrix(18,0,0,-18,110.58661,811.69107)"/>
<use data-text="a" xlink:href="#font_3_13" transform="matrix(18,0,0,-18,114.58261,811.69107)"/>
<use data-text="g" xlink:href="#font_3_19" transform="matrix(18,0,0,-18,124.59061,811.69107)"/>
<use data-text="r" xlink:href="#font_3_27" transform="matrix(18,0,0,-18,134.5986,811.69107)"/>
<use data-text="a" xlink:href="#font_3_13" transform="matrix(18,0,0,-18,140.5926,811.69107)"/>
<use data-text="m" xlink:href="#font_3_24" transform="matrix(18,0,0,-18,150.6006,811.69107)"/>
<use data-text="&#xfffd;" xlink:href="#font_4_1" transform="matrix(18,0,0,-18,165.5946,811.69107)"/>
<path transform="matrix(1,0,0,-1,-44.6514,837.209)" d="M198.5 352.875H215.5V251.875H198.5Z" fill="#ffffff" fill-rule="evenodd"/>
<path transform="matrix(1,0,0,-1,153.8486,484.33409)" stroke-width="1" stroke-linecap="butt" stroke-miterlimit="8" stroke-linejoin="miter" fill="none" stroke="#000000" d="M0 0H17V-101H0Z"/>
<use data-text="R" xlink:href="#font_1_6" transform="matrix(16,0,0,-16,156.9736,522.03408)"/>
<use data-text=" " xlink:href="#font_1_1" transform="matrix(16,0,0,-16,168.5256,522.03408)"/>
<use data-text="e" xlink:href="#font_1_11" transform="matrix(16,0,0,-16,157.9656,541.0261)"/>
<use data-text=" " xlink:href="#font_1_1" transform="matrix(16,0,0,-16,166.8616,541.0261)"/>
<use data-text="g" xlink:href="#font_1_12" transform="matrix(16,0,0,-16,157.9656,560.01809)"/>
<use data-text=" " xlink:href="#font_1_1" transform="matrix(16,0,0,-16,166.8616,560.01809)"/>
<path transform="matrix(1,0,0,-1,9.3485989,531.8341)" stroke-width="3" stroke-linecap="butt" stroke-linejoin="round" fill="none" stroke="#434dd6" d="M0 0H33"/>
<path transform="matrix(1,0,0,-1,36.3486,527.3341)" d="M0 0 9-4.5 0-9Z" fill="#434dd6" fill-rule="evenodd"/>
<path transform="matrix(1,0,0,-1,117.3486,531.8341)" stroke-width="3" stroke-linecap="butt" stroke-linejoin="round" fill="none" stroke="#434dd6" d="M0 0H33"/>
<path transform="matrix(1,0,0,-1,144.3486,527.3341)" d="M0 0 9-4.5 0-9Z" fill="#434dd6" fill-rule="evenodd"/>
<path transform="matrix(1,0,0,-1,165.3486,585.8341)" stroke-width="1" stroke-linecap="butt" stroke-linejoin="round" fill="none" stroke="#000000" d="M0 0V-16.25"/>
<use data-text="C" xlink:href="#font_1_5" transform="matrix(16,0,0,-16,465.3486,633.5841)"/>
<use data-text="l" xlink:href="#font_1_15" transform="matrix(16,0,0,-16,476.9006,633.5841)"/>
<use data-text="o" xlink:href="#font_1_18" transform="matrix(16,0,0,-16,480.4526,633.5841)"/>
<use data-text="c" xlink:href="#font_1_10" transform="matrix(16,0,0,-16,489.3486,633.5841)"/>
<use data-text="k" xlink:href="#font_1_14" transform="matrix(16,0,0,-16,497.3486,633.5841)"/>
<use data-text=" " xlink:href="#font_1_1" transform="matrix(16,0,0,-16,505.3486,633.5841)"/>
<path transform="matrix(1,0,0,-1,-44.6514,837.209)" d="M90.5 352.875H161.5V251.875H90.5Z" fill="#d4feff" fill-rule="evenodd"/>
<path transform="matrix(1,0,0,-1,45.8486,484.33409)" stroke-width="1" stroke-linecap="butt" stroke-miterlimit="8" stroke-linejoin="miter" fill="none" stroke="#000000" d="M0 0H71V-101H0Z"/>
<use data-text="C" xlink:href="#font_1_5" transform="matrix(16,0,0,-16,57.9736,522.03408)"/>
<use data-text="o" xlink:href="#font_1_18" transform="matrix(16,0,0,-16,69.525608,522.03408)"/>
<use data-text="m" xlink:href="#font_1_16" transform="matrix(16,0,0,-16,78.4216,522.03408)"/>
<use data-text="b" xlink:href="#font_1_9" transform="matrix(16,0,0,-16,91.7496,522.03408)"/>
<use data-text="." xlink:href="#font_1_2" transform="matrix(16,0,0,-16,100.6456,522.03408)"/>
<use data-text=" " xlink:href="#font_1_1" transform="matrix(16,0,0,-16,105.0936,522.03408)"/>
<use data-text="l" xlink:href="#font_1_15" transform="matrix(16,0,0,-16,64.96559,541.0261)"/>
<use data-text="o" xlink:href="#font_1_18" transform="matrix(16,0,0,-16,68.51759,541.0261)"/>
<use data-text="g" xlink:href="#font_1_12" transform="matrix(16,0,0,-16,77.413608,541.0261)"/>
<use data-text="i" xlink:href="#font_1_13" transform="matrix(16,0,0,-16,86.3096,541.0261)"/>
<use data-text="c" xlink:href="#font_1_10" transform="matrix(16,0,0,-16,89.8616,541.0261)"/>
<use data-text=" " xlink:href="#font_1_1" transform="matrix(16,0,0,-16,97.8616,541.0261)"/>
<use data-text="A" xlink:href="#font_1_3" transform="matrix(16,0,0,-16,75.957599,560.01809)"/>
<use data-text=" " xlink:href="#font_1_1" transform="matrix(16,0,0,-16,85.7496,560.01809)"/>
<path transform="matrix(1,0,0,-1,-44.6514,837.209)" d="M360.5 352.875H377.5V251.875H360.5Z" fill="#ffffff" fill-rule="evenodd"/>
<path transform="matrix(1,0,0,-1,315.8486,484.33409)" stroke-width="1" stroke-linecap="butt" stroke-miterlimit="8" stroke-linejoin="miter" fill="none" stroke="#000000" d="M0 0H17V-101H0Z"/>
<use data-text="R" xlink:href="#font_1_6" transform="matrix(16,0,0,-16,318.9736,522.03408)"/>
<use data-text=" " xlink:href="#font_1_1" transform="matrix(16,0,0,-16,330.5256,522.03408)"/>
<use data-text="e" xlink:href="#font_1_11" transform="matrix(16,0,0,-16,319.9656,541.0261)"/>
<use data-text=" " xlink:href="#font_1_1" transform="matrix(16,0,0,-16,328.8616,541.0261)"/>
<use data-text="g" xlink:href="#font_1_12" transform="matrix(16,0,0,-16,319.9656,560.01809)"/>
<use data-text=" " xlink:href="#font_1_1" transform="matrix(16,0,0,-16,328.8616,560.01809)"/>
<path transform="matrix(1,0,0,-1,171.3486,531.8341)" stroke-width="3" stroke-linecap="butt" stroke-linejoin="round" fill="none" stroke="#434dd6" d="M0 0H33"/>
<path transform="matrix(1,0,0,-1,198.3486,527.3341)" d="M0 0 9-4.5 0-9Z" fill="#434dd6" fill-rule="evenodd"/>
<path transform="matrix(1,0,0,-1,279.3486,531.8341)" stroke-width="3" stroke-linecap="butt" stroke-linejoin="round" fill="none" stroke="#434dd6" d="M0 0H33"/>
<path transform="matrix(1,0,0,-1,306.3486,527.3341)" d="M0 0 9-4.5 0-9Z" fill="#434dd6" fill-rule="evenodd"/>
<path transform="matrix(1,0,0,-1,327.3485,585.8341)" stroke-width="1" stroke-linecap="butt" stroke-linejoin="round" fill="none" stroke="#000000" d="M0 0V-16.25"/>
<path transform="matrix(1,0,0,-1,-44.6514,837.209)" d="M252.5 352.875H323.5V251.875H252.5Z" fill="#d4feff" fill-rule="evenodd"/>
<path transform="matrix(1,0,0,-1,207.8486,484.33409)" stroke-width="1" stroke-linecap="butt" stroke-miterlimit="8" stroke-linejoin="miter" fill="none" stroke="#000000" d="M0 0H71V-101H0Z"/>
<use data-text="C" xlink:href="#font_1_5" transform="matrix(16,0,0,-16,219.9736,522.03408)"/>
<use data-text="o" xlink:href="#font_1_18" transform="matrix(16,0,0,-16,231.5256,522.03408)"/>
<use data-text="m" xlink:href="#font_1_16" transform="matrix(16,0,0,-16,240.4216,522.03408)"/>
<use data-text="b" xlink:href="#font_1_9" transform="matrix(16,0,0,-16,253.7496,522.03408)"/>
<use data-text="." xlink:href="#font_1_2" transform="matrix(16,0,0,-16,262.6456,522.03408)"/>
<use data-text=" " xlink:href="#font_1_1" transform="matrix(16,0,0,-16,267.0936,522.03408)"/>
<use data-text="l" xlink:href="#font_1_15" transform="matrix(16,0,0,-16,226.9656,541.0261)"/>
<use data-text="o" xlink:href="#font_1_18" transform="matrix(16,0,0,-16,230.51761,541.0261)"/>
<use data-text="g" xlink:href="#font_1_12" transform="matrix(16,0,0,-16,239.4136,541.0261)"/>
<use data-text="i" xlink:href="#font_1_13" transform="matrix(16,0,0,-16,248.3096,541.0261)"/>
<use data-text="c" xlink:href="#font_1_10" transform="matrix(16,0,0,-16,251.8616,541.0261)"/>
<use data-text=" " xlink:href="#font_1_1" transform="matrix(16,0,0,-16,259.8616,541.0261)"/>
<use data-text="B" xlink:href="#font_1_4" transform="matrix(16,0,0,-16,237.95761,560.01809)"/>
<use data-text=" " xlink:href="#font_1_1" transform="matrix(16,0,0,-16,248.62961,560.01809)"/>
<path transform="matrix(1,0,0,-1,-44.6514,837.209)" d="M522.5 352.875H539.5V251.875H522.5Z" fill="#ffffff" fill-rule="evenodd"/>
<path transform="matrix(1,0,0,-1,477.84843,484.33409)" stroke-width="1" stroke-linecap="butt" stroke-miterlimit="8" stroke-linejoin="miter" fill="none" stroke="#000000" d="M0 0H17V-101H0Z"/>
<use data-text="R" xlink:href="#font_1_6" transform="matrix(16,0,0,-16,480.9736,522.03408)"/>
<use data-text=" " xlink:href="#font_1_1" transform="matrix(16,0,0,-16,492.5256,522.03408)"/>
<use data-text="e" xlink:href="#font_1_11" transform="matrix(16,0,0,-16,481.9656,541.0261)"/>
<use data-text=" " xlink:href="#font_1_1" transform="matrix(16,0,0,-16,490.8616,541.0261)"/>
<use data-text="g" xlink:href="#font_1_12" transform="matrix(16,0,0,-16,481.9656,560.01809)"/>
<use data-text=" " xlink:href="#font_1_1" transform="matrix(16,0,0,-16,490.8616,560.01809)"/>
<path transform="matrix(1,0,0,-1,333.3485,531.8341)" stroke-width="3" stroke-linecap="butt" stroke-linejoin="round" fill="none" stroke="#434dd6" d="M0 0H33"/>
<path transform="matrix(1,0,0,-1,360.3485,527.3341)" d="M0 0 9-4.5 0-9Z" fill="#434dd6" fill-rule="evenodd"/>
<path transform="matrix(1,0,0,-1,441.3485,531.8341)" stroke-width="3" stroke-linecap="butt" stroke-linejoin="round" fill="none" stroke="#434dd6" d="M0 0H33"/>
<path transform="matrix(1,0,0,-1,468.34849,527.3341)" d="M0 0 9-4.5 0-9Z" fill="#434dd6" fill-rule="evenodd"/>
<path transform="matrix(1,0,0,-1,489.34843,585.8341)" stroke-width="1" stroke-linecap="butt" stroke-linejoin="round" fill="none" stroke="#000000" d="M0 0V-34.25"/>
<path transform="matrix(1,0,0,-1,-44.6514,837.209)" d="M414.5 352.875H485.5V251.875H414.5Z" fill="#d4feff" fill-rule="evenodd"/>
<path transform="matrix(1,0,0,-1,369.8486,484.33409)" stroke-width="1" stroke-linecap="butt" stroke-miterlimit="8" stroke-linejoin="miter" fill="none" stroke="#000000" d="M0 0H71V-101H0Z"/>
<use data-text="C" xlink:href="#font_1_5" transform="matrix(16,0,0,-16,381.9736,522.03408)"/>
<use data-text="o" xlink:href="#font_1_18" transform="matrix(16,0,0,-16,393.5256,522.03408)"/>
<use data-text="m" xlink:href="#font_1_16" transform="matrix(16,0,0,-16,402.4216,522.03408)"/>
<use data-text="b" xlink:href="#font_1_9" transform="matrix(16,0,0,-16,415.7496,522.03408)"/>
<use data-text="." xlink:href="#font_1_2" transform="matrix(16,0,0,-16,424.6456,522.03408)"/>
<use data-text=" " xlink:href="#font_1_1" transform="matrix(16,0,0,-16,429.0936,522.03408)"/>
<use data-text="l" xlink:href="#font_1_15" transform="matrix(16,0,0,-16,388.9656,541.0261)"/>
<use data-text="o" xlink:href="#font_1_18" transform="matrix(16,0,0,-16,392.5176,541.0261)"/>
<use data-text="g" xlink:href="#font_1_12" transform="matrix(16,0,0,-16,401.4136,541.0261)"/>
<use data-text="i" xlink:href="#font_1_13" transform="matrix(16,0,0,-16,410.3096,541.0261)"/>
<use data-text="c" xlink:href="#font_1_10" transform="matrix(16,0,0,-16,413.8616,541.0261)"/>
<use data-text=" " xlink:href="#font_1_1" transform="matrix(16,0,0,-16,421.8616,541.0261)"/>
<use data-text="C" xlink:href="#font_1_5" transform="matrix(16,0,0,-16,399.9576,560.01809)"/>
<use data-text=" " xlink:href="#font_1_1" transform="matrix(16,0,0,-16,411.5096,560.01809)"/>
<path transform="matrix(1,0,0,-1,165.3486,602.0841)" stroke-width="1" stroke-linecap="butt" stroke-linejoin="round" fill="none" stroke="#000000" d="M0 0H324"/>
<path transform="matrix(1,0,0,-1,-44.6514,837.209)" d="M108 175.125H156V151.125H108Z" fill="#76d6ff" fill-rule="evenodd"/>
<path transform="matrix(1,0,0,-1,63.3486,662.0841)" stroke-width=".75" stroke-linecap="butt" stroke-miterlimit="8" stroke-linejoin="miter" fill="none" stroke="#000000" d="M0 0H48V-24H0Z"/>
<use data-text="A" xlink:href="#font_3_6" transform="matrix(16,0,0,-16,81.5486,680.4841)"/>
<use data-text="&#xfffd;" xlink:href="#font_4_1" transform="matrix(16,0,0,-16,92.2206,680.4841)"/>
<path transform="matrix(1,0,0,-1,-44.6514,837.209)" d="M156 175.125H204V151.125H156Z" fill="#76d6ff" fill-rule="evenodd"/>
<path transform="matrix(1,0,0,-1,111.3486,662.0841)" stroke-width=".75" stroke-linecap="butt" stroke-miterlimit="8" stroke-linejoin="miter" fill="none" stroke="#000000" d="M0 0H48V-24H0Z"/>
<use data-text="B" xlink:href="#font_3_7" transform="matrix(16,0,0,-16,129.5486,680.4841)"/>
<use data-text="&#xfffd;" xlink:href="#font_4_1" transform="matrix(16,0,0,-16,140.2206,680.4841)"/>
<path transform="matrix(1,0,0,-1,-44.6514,837.209)" d="M204 175.125H252V151.125H204Z" fill="#76d6ff" fill-rule="evenodd"/>
<path transform="matrix(1,0,0,-1,159.3486,662.0841)" stroke-width=".75" stroke-linecap="butt" stroke-miterlimit="8" stroke-linejoin="miter" fill="none" stroke="#000000" d="M0 0H48V-24H0Z"/>
<use data-text="C" xlink:href="#font_3_8" transform="matrix(16,0,0,-16,177.5486,680.4841)"/>
<use data-text="&#xfffd;" xlink:href="#font_4_1" transform="matrix(16,0,0,-16,189.1006,680.4841)"/>
<path transform="matrix(1,0,0,-1,-44.6514,837.209)" d="M156 151.125H204V127.125H156Z" fill="#76d6ff" fill-rule="evenodd"/>
<path transform="matrix(1,0,0,-1,111.3486,686.084)" stroke-width=".75" stroke-linecap="butt" stroke-miterlimit="8" stroke-linejoin="miter" fill="none" stroke="#000000" d="M0 0H48V-24H0Z"/>
<use data-text="A" xlink:href="#font_3_6" transform="matrix(16,0,0,-16,129.5486,704.484)"/>
<use data-text="&#xfffd;" xlink:href="#font_4_1" transform="matrix(16,0,0,-16,140.2206,704.484)"/>
<path transform="matrix(1,0,0,-1,-44.6514,837.209)" d="M204 151.125H252V127.125H204Z" fill="#76d6ff" fill-rule="evenodd"/>
<path transform="matrix(1,0,0,-1,159.3486,686.084)" stroke-width=".75" stroke-linecap="butt" stroke-miterlimit="8" stroke-linejoin="miter" fill="none" stroke="#000000" d="M0 0H48V-24H0Z"/>
<use data-text="B" xlink:href="#font_3_7" transform="matrix(16,0,0,-16,177.5486,704.484)"/>
<use data-text="&#xfffd;" xlink:href="#font_4_1" transform="matrix(16,0,0,-16,188.2206,704.484)"/>
<path transform="matrix(1,0,0,-1,-44.6514,837.209)" d="M252 151.125H300V127.125H252Z" fill="#76d6ff" fill-rule="evenodd"/>
<path transform="matrix(1,0,0,-1,207.3486,686.084)" stroke-width=".75" stroke-linecap="butt" stroke-miterlimit="8" stroke-linejoin="miter" fill="none" stroke="#000000" d="M0 0H48V-24H0Z"/>
<use data-text="C" xlink:href="#font_3_8" transform="matrix(16,0,0,-16,225.54862,704.484)"/>
<use data-text="&#xfffd;" xlink:href="#font_4_1" transform="matrix(16,0,0,-16,237.10062,704.484)"/>
<path transform="matrix(1,0,0,-1,-44.6514,837.209)" d="M204 127.125H252V103.125H204Z" fill="#76d6ff" fill-rule="evenodd"/>
<path transform="matrix(1,0,0,-1,159.3486,710.084)" stroke-width=".75" stroke-linecap="butt" stroke-miterlimit="8" stroke-linejoin="miter" fill="none" stroke="#000000" d="M0 0H48V-24H0Z"/>
<use data-text="A" xlink:href="#font_3_6" transform="matrix(16,0,0,-16,177.5486,728.4841)"/>
<use data-text="&#xfffd;" xlink:href="#font_4_1" transform="matrix(16,0,0,-16,188.2206,728.4841)"/>
<path transform="matrix(1,0,0,-1,-44.6514,837.209)" d="M252 127.125H300V103.125H252Z" fill="#76d6ff" fill-rule="evenodd"/>
<path transform="matrix(1,0,0,-1,207.3486,710.084)" stroke-width=".75" stroke-linecap="butt" stroke-miterlimit="8" stroke-linejoin="miter" fill="none" stroke="#000000" d="M0 0H48V-24H0Z"/>
<use data-text="B" xlink:href="#font_3_7" transform="matrix(16,0,0,-16,225.54862,728.4841)"/>
<use data-text="&#xfffd;" xlink:href="#font_4_1" transform="matrix(16,0,0,-16,236.22061,728.4841)"/>
<path transform="matrix(1,0,0,-1,-44.6514,837.209)" d="M300 127.125H348V103.125H300Z" fill="#76d6ff" fill-rule="evenodd"/>
<path transform="matrix(1,0,0,-1,255.3486,710.084)" stroke-width=".75" stroke-linecap="butt" stroke-miterlimit="8" stroke-linejoin="miter" fill="none" stroke="#000000" d="M0 0H48V-24H0Z"/>
<use data-text="C" xlink:href="#font_3_8" transform="matrix(16,0,0,-16,273.5486,728.4841)"/>
<use data-text="&#xfffd;" xlink:href="#font_4_1" transform="matrix(16,0,0,-16,285.10063,728.4841)"/>
<path transform="matrix(1,0,0,-1,495.34849,500.08409)" stroke-width="3" stroke-linecap="butt" stroke-linejoin="round" fill="none" stroke="#434dd6" d="M0 0H36V60H-480V0H-453"/>
<path transform="matrix(1,0,0,-1,36.3486,495.58409)" d="M0 0 9-4.5 0-9Z" fill="#434dd6" fill-rule="evenodd"/>
<path transform="matrix(1,0,0,-1,-44.6514,837.209)" d="M36 103.625H102V79.625H36Z" fill="#ffffff" fill-rule="evenodd"/>
<use data-text="I" xlink:href="#font_2_6" transform="matrix(16,0,0,-16,30.548596,751.984)"/>
<use data-text="4" xlink:href="#font_2_5" transform="matrix(16,0,0,-16,40.148595,751.984)"/>
<use data-text=" " xlink:href="#font_2_1" transform="matrix(16,0,0,-16,49.748594,751.984)"/>
<path transform="matrix(1,0,0,-1,-44.6514,837.209)" d="M252 103.125H300V79.125H252Z" fill="#76d6ff" fill-rule="evenodd"/>
<path transform="matrix(1,0,0,-1,207.3486,734.0841)" stroke-width=".75" stroke-linecap="butt" stroke-miterlimit="8" stroke-linejoin="miter" fill="none" stroke="#000000" d="M0 0H48V-24H0Z"/>
<use data-text="A" xlink:href="#font_3_6" transform="matrix(16,0,0,-16,225.54862,752.484)"/>
<use data-text="&#xfffd;" xlink:href="#font_4_1" transform="matrix(16,0,0,-16,236.22061,752.484)"/>
<path transform="matrix(1,0,0,-1,-44.6514,837.209)" d="M300 103.125H348V79.125H300Z" fill="#76d6ff" fill-rule="evenodd"/>
<path transform="matrix(1,0,0,-1,255.3486,734.0841)" stroke-width=".75" stroke-linecap="butt" stroke-miterlimit="8" stroke-linejoin="miter" fill="none" stroke="#000000" d="M0 0H48V-24H0Z"/>
<use data-text="B" xlink:href="#font_3_7" transform="matrix(16,0,0,-16,273.5486,752.484)"/>
<use data-text="&#xfffd;" xlink:href="#font_4_1" transform="matrix(16,0,0,-16,284.2206,752.484)"/>
<path transform="matrix(1,0,0,-1,-44.6514,837.209)" d="M348 103.125H396V79.125H348Z" fill="#76d6ff" fill-rule="evenodd"/>
<path transform="matrix(1,0,0,-1,303.3485,734.0841)" stroke-width=".75" stroke-linecap="butt" stroke-miterlimit="8" stroke-linejoin="miter" fill="none" stroke="#000000" d="M0 0H48V-24H0Z"/>
<use data-text="C" xlink:href="#font_3_8" transform="matrix(16,0,0,-16,321.5486,752.484)"/>
<use data-text="&#xfffd;" xlink:href="#font_4_1" transform="matrix(16,0,0,-16,333.10063,752.484)"/>
<path transform="matrix(1,0,0,-1,206.9736,672.959)" stroke-width="2.25" stroke-linecap="butt" stroke-linejoin="round" fill="none" stroke="#000000" d="M0 0 1.625-.25 2.688-.437 3.938-.875 4.875-1.437 5.625-1.812 6.75-2.25 10.063-3.813 12.312-6.125 13.812-9.063 15-12.375 14.437-14.5 13.312-17.125 11.812-19.937 10-22.937 8.063-25.812 6.25-28.5 4.625-30.875 3.375-32.625 2.313-33.813 .937-35-1.875-37.125-4.937-39.437-6.562-40.812-8.25-42.75-10.188-45.062-12.313-47.75-14.375-50.437-16.125-52.875-17.062-54.75-17.562-56.437-17.625-59.625-17.25-61.25-16.625-62.937-15.563-64.562-13.875-66.375-12.625-67.437-11.063-68.562-7.312-71.125-3.688-73.437-3.108-73.683"/>
<path transform="matrix(1,0,0,-1,202.8302,746.2033)" d="M0 0-1.194 2.95 4.143-1.756-2.949-1.194Z" fill-rule="evenodd"/>
<path transform="matrix(1,0,0,-1,57.3486,368.08409)" stroke-width="1" stroke-linecap="butt" stroke-linejoin="round" fill="none" stroke="#000000" d="M0 0H436"/>
<path transform="matrix(1,0,0,-1,489.3486,365.08409)" d="M0 0 6-3 0-6Z" fill-rule="evenodd"/>
<use data-text="T" xlink:href="#font_1_7" transform="matrix(16,0,0,-16,123.34871,362.45909)"/>
<use data-text="i" xlink:href="#font_1_13" transform="matrix(16,0,0,-16,132.53272,362.45909)"/>
<use data-text="m" xlink:href="#font_1_16" transform="matrix(16,0,0,-16,136.08472,362.45909)"/>
<use data-text="e" xlink:href="#font_1_11" transform="matrix(16,0,0,-16,149.41272,362.45909)"/>
<use data-text=" " xlink:href="#font_1_1" transform="matrix(16,0,0,-16,158.30872,362.45909)"/>
<path transform="matrix(1,0,0,-1,-44.6514,837.209)" d="M36 566.75H102V542.75H36Z" fill="#ffffff" fill-rule="evenodd"/>
<use data-text="I" xlink:href="#font_2_6" transform="matrix(16,0,0,-16,30.548596,288.85908)"/>
<use data-text="1" xlink:href="#font_2_2" transform="matrix(16,0,0,-16,40.148595,288.85908)"/>
<use data-text=" " xlink:href="#font_2_1" transform="matrix(16,0,0,-16,49.748594,288.85908)"/>
<path transform="matrix(1,0,0,-1,-44.6514,837.209)" d="M36 542.75H102V518.75H36Z" fill="#ffffff" fill-rule="evenodd"/>
<use data-text="I" xlink:href="#font_2_6" transform="matrix(16,0,0,-16,30.548596,312.85908)"/>
<use data-text="2" xlink:href="#font_2_3" transform="matrix(16,0,0,-16,40.148595,312.85908)"/>
<use data-text=" " xlink:href="#font_2_1" transform="matrix(16,0,0,-16,49.748594,312.85908)"/>
<path transform="matrix(1,0,0,-1,-44.6514,837.209)" d="M36 518.75H102V494.75H36Z" fill="#ffffff" fill-rule="evenodd"/>
<use data-text="I" xlink:href="#font_2_6" transform="matrix(16,0,0,-16,30.548596,336.85908)"/>
<use data-text="3" xlink:href="#font_2_4" transform="matrix(16,0,0,-16,40.148595,336.85908)"/>
<use data-text=" " xlink:href="#font_2_1" transform="matrix(16,0,0,-16,49.748594,336.85908)"/>
<use data-text="(" xlink:href="#font_3_2" transform="matrix(18,0,0,-18,4.5485994,234.80908)"/>
<use data-text="a" xlink:href="#font_3_13" transform="matrix(18,0,0,-18,10.542599,234.80908)"/>
<use data-text=")" xlink:href="#font_3_3" transform="matrix(18,0,0,-18,20.550602,234.80908)"/>
<use data-text=" " xlink:href="#font_3_1" transform="matrix(18,0,0,-18,26.544606,234.80908)"/>
<use data-text="H" xlink:href="#font_3_9" transform="matrix(18,0,0,-18,31.548604,234.80908)"/>
<use data-text="a" xlink:href="#font_3_13" transform="matrix(18,0,0,-18,44.544607,234.80908)"/>
<use data-text="r" xlink:href="#font_3_27" transform="matrix(18,0,0,-18,54.55261,234.80908)"/>
<use data-text="d" xlink:href="#font_3_16" transform="matrix(18,0,0,-18,60.54661,234.80908)"/>
<use data-text="w" xlink:href="#font_3_30" transform="matrix(18,0,0,-18,70.55461,234.80908)"/>
<use data-text="a" xlink:href="#font_3_13" transform="matrix(18,0,0,-18,83.55061,234.80908)"/>
<use data-text="r" xlink:href="#font_3_27" transform="matrix(18,0,0,-18,93.55861,234.80908)"/>
<use data-text="e" xlink:href="#font_3_17" transform="matrix(18,0,0,-18,99.55261,234.80908)"/>
<use data-text=":" xlink:href="#font_3_5" transform="matrix(18,0,0,-18,109.56061,234.80908)"/>
<use data-text=" " xlink:href="#font_3_1" transform="matrix(18,0,0,-18,114.564609,234.80908)"/>
<use data-text="U" xlink:href="#font_3_12" transform="matrix(18,0,0,-18,119.5686,234.80908)"/>
<use data-text="n" xlink:href="#font_3_25" transform="matrix(18,0,0,-18,132.5646,234.80908)"/>
<use data-text="p" xlink:href="#font_3_26" transform="matrix(18,0,0,-18,142.5726,234.80908)"/>
<use data-text="i" xlink:href="#font_3_21" transform="matrix(18,0,0,-18,152.5806,234.80908)"/>
<use data-text="p" xlink:href="#font_3_26" transform="matrix(18,0,0,-18,156.5766,234.80908)"/>
<use data-text="e" xlink:href="#font_3_17" transform="matrix(18,0,0,-18,166.5846,234.80908)"/>
<use data-text="l" xlink:href="#font_3_23" transform="matrix(18,0,0,-18,176.59259,234.80908)"/>
<use data-text="i" xlink:href="#font_3_21" transform="matrix(18,0,0,-18,180.5886,234.80908)"/>
<use data-text="n" xlink:href="#font_3_25" transform="matrix(18,0,0,-18,184.5846,234.80908)"/>
<use data-text="e" xlink:href="#font_3_17" transform="matrix(18,0,0,-18,194.59259,234.80908)"/>
<use data-text="d" xlink:href="#font_3_16" transform="matrix(18,0,0,-18,204.60059,234.80908)"/>
<use data-text=" " xlink:href="#font_3_1" transform="matrix(18,0,0,-18,214.60858,234.80908)"/>
<use data-text="w" xlink:href="#font_3_30" transform="matrix(18,0,0,-18,219.61258,234.80908)"/>
<use data-text="i" xlink:href="#font_3_21" transform="matrix(18,0,0,-18,232.60858,234.80908)"/>
<use data-text="t" xlink:href="#font_3_29" transform="matrix(18,0,0,-18,236.60459,234.80908)"/>
<use data-text="h" xlink:href="#font_3_20" transform="matrix(18,0,0,-18,241.60858,234.80908)"/>
<use data-text=" " xlink:href="#font_3_1" transform="matrix(18,0,0,-18,251.61658,234.80908)"/>
<use data-text="f" xlink:href="#font_3_18" transform="matrix(18,0,0,-18,256.62059,234.80908)"/>
<use data-text="e" xlink:href="#font_3_17" transform="matrix(18,0,0,-18,261.62458,234.80908)"/>
<use data-text="e" xlink:href="#font_3_17" transform="matrix(18,0,0,-18,271.63258,234.80908)"/>
<use data-text="d" xlink:href="#font_3_16" transform="matrix(18,0,0,-18,281.64057,234.80908)"/>
<use data-text="b" xlink:href="#font_3_14" transform="matrix(18,0,0,-18,291.64857,234.80908)"/>
<use data-text="a" xlink:href="#font_3_13" transform="matrix(18,0,0,-18,301.65657,234.80908)"/>
<use data-text="c" xlink:href="#font_3_15" transform="matrix(18,0,0,-18,311.66456,234.80908)"/>
<use data-text="k" xlink:href="#font_3_22" transform="matrix(18,0,0,-18,320.66456,234.80908)"/>
<use data-text="&#xfffd;" xlink:href="#font_4_1" transform="matrix(18,0,0,-18,329.66456,234.80908)"/>
<use data-text="(" xlink:href="#font_3_2" transform="matrix(18,0,0,-18,4.5485994,402.8031)"/>
<use data-text="b" xlink:href="#font_3_14" transform="matrix(18,0,0,-18,10.542599,402.8031)"/>
<use data-text=")" xlink:href="#font_3_3" transform="matrix(18,0,0,-18,20.550602,402.8031)"/>
<use data-text=" " xlink:href="#font_3_1" transform="matrix(18,0,0,-18,26.544606,402.8031)"/>
<use data-text="P" xlink:href="#font_3_10" transform="matrix(18,0,0,-18,31.548604,402.8031)"/>
<use data-text="i" xlink:href="#font_3_21" transform="matrix(18,0,0,-18,43.554609,402.8031)"/>
<use data-text="p" xlink:href="#font_3_26" transform="matrix(18,0,0,-18,47.55061,402.8031)"/>
<use data-text="e" xlink:href="#font_3_17" transform="matrix(18,0,0,-18,57.558614,402.8031)"/>
<use data-text="l" xlink:href="#font_3_23" transform="matrix(18,0,0,-18,67.56662,402.8031)"/>
<use data-text="i" xlink:href="#font_3_21" transform="matrix(18,0,0,-18,71.56262,402.8031)"/>
<use data-text="n" xlink:href="#font_3_25" transform="matrix(18,0,0,-18,75.558628,402.8031)"/>
<use data-text="e" xlink:href="#font_3_17" transform="matrix(18,0,0,-18,85.56662,402.8031)"/>
<use data-text=" " xlink:href="#font_3_1" transform="matrix(18,0,0,-18,95.574619,402.8031)"/>
<use data-text="d" xlink:href="#font_3_16" transform="matrix(18,0,0,-18,100.57861,402.8031)"/>
<use data-text="i" xlink:href="#font_3_21" transform="matrix(18,0,0,-18,110.58661,402.8031)"/>
<use data-text="a" xlink:href="#font_3_13" transform="matrix(18,0,0,-18,114.58261,402.8031)"/>
<use data-text="g" xlink:href="#font_3_19" transform="matrix(18,0,0,-18,124.59061,402.8031)"/>
<use data-text="r" xlink:href="#font_3_27" transform="matrix(18,0,0,-18,134.5986,402.8031)"/>
<use data-text="a" xlink:href="#font_3_13" transform="matrix(18,0,0,-18,140.5926,402.8031)"/>
<use data-text="m" xlink:href="#font_3_24" transform="matrix(18,0,0,-18,150.6006,402.8031)"/>
<use data-text="&#xfffd;" xlink:href="#font_4_1" transform="matrix(18,0,0,-18,165.5946,402.8031)"/>
<path transform="matrix(1,0,0,-1,27.348599,105.83417)" stroke-width="3" stroke-linecap="butt" stroke-linejoin="round" fill="none" stroke="#434dd6" d="M0 0H33"/>
<path transform="matrix(1,0,0,-1,54.3486,101.33411)" d="M0 0 9-4.5 0-9Z" fill="#434dd6" fill-rule="evenodd"/>
<use data-text="C" xlink:href="#font_1_5" transform="matrix(16,0,0,-16,302.8486,206.4591)"/>
<use data-text="l" xlink:href="#font_1_15" transform="matrix(16,0,0,-16,314.4006,206.4591)"/>
<use data-text="o" xlink:href="#font_1_18" transform="matrix(16,0,0,-16,317.9526,206.4591)"/>
<use data-text="c" xlink:href="#font_1_10" transform="matrix(16,0,0,-16,326.8486,206.4591)"/>
<use data-text="k" xlink:href="#font_1_14" transform="matrix(16,0,0,-16,334.8486,206.4591)"/>
<use data-text=" " xlink:href="#font_1_1" transform="matrix(16,0,0,-16,342.8486,206.4591)"/>
<path transform="matrix(1,0,0,-1,-44.6514,837.209)" d="M108.5 778.875H324V677.875H108.5Z" fill="#d4feff" fill-rule="evenodd"/>
<path transform="matrix(1,0,0,-1,63.8486,58.334169)" stroke-width="1" stroke-linecap="butt" stroke-miterlimit="8" stroke-linejoin="miter" fill="none" stroke="#000000" d="M0 0H215.5V-101H0Z"/>
<use data-text="C" xlink:href="#font_1_5" transform="matrix(16,0,0,-16,119.9736,105.634159)"/>
<use data-text="o" xlink:href="#font_1_18" transform="matrix(16,0,0,-16,131.5256,105.634159)"/>
<use data-text="m" xlink:href="#font_1_16" transform="matrix(16,0,0,-16,140.4216,105.634159)"/>
<use data-text="b" xlink:href="#font_1_9" transform="matrix(16,0,0,-16,153.7496,105.634159)"/>
<use data-text="i" xlink:href="#font_1_13" transform="matrix(16,0,0,-16,162.6456,105.634159)"/>
<use data-text="n" xlink:href="#font_1_17" transform="matrix(16,0,0,-16,166.1976,105.634159)"/>
<use data-text="a" xlink:href="#font_1_8" transform="matrix(16,0,0,-16,175.0936,105.634159)"/>
<use data-text="t" xlink:href="#font_1_19" transform="matrix(16,0,0,-16,183.9896,105.634159)"/>
<use data-text="i" xlink:href="#font_1_13" transform="matrix(16,0,0,-16,188.43759,105.634159)"/>
<use data-text="o" xlink:href="#font_1_18" transform="matrix(16,0,0,-16,191.9896,105.634159)"/>
<use data-text="n" xlink:href="#font_1_17" transform="matrix(16,0,0,-16,200.88559,105.634159)"/>
<use data-text="a" xlink:href="#font_1_8" transform="matrix(16,0,0,-16,209.78159,105.634159)"/>
<use data-text="l" xlink:href="#font_1_15" transform="matrix(16,0,0,-16,218.67758,105.634159)"/>
<use data-text=" " xlink:href="#font_1_1" transform="matrix(16,0,0,-16,222.22959,105.634159)"/>
<use data-text="l" xlink:href="#font_1_15" transform="matrix(16,0,0,-16,154.9816,124.62616)"/>
<use data-text="o" xlink:href="#font_1_18" transform="matrix(16,0,0,-16,158.5336,124.62616)"/>
<use data-text="g" xlink:href="#font_1_12" transform="matrix(16,0,0,-16,167.4296,124.62616)"/>
<use data-text="i" xlink:href="#font_1_13" transform="matrix(16,0,0,-16,176.32559,124.62616)"/>
<use data-text="c" xlink:href="#font_1_10" transform="matrix(16,0,0,-16,179.8776,124.62616)"/>
<use data-text=" " xlink:href="#font_1_1" transform="matrix(16,0,0,-16,187.8776,124.62616)"/>
<path transform="matrix(1,0,0,-1,-44.6514,837.209)" d="M360 780H377V679H360Z" fill="#ffffff" fill-rule="evenodd"/>
<path transform="matrix(1,0,0,-1,315.3485,57.209169)" stroke-width="1" stroke-linecap="butt" stroke-miterlimit="8" stroke-linejoin="miter" fill="none" stroke="#000000" d="M0 0H17V-101H0Z"/>
<use data-text="R" xlink:href="#font_1_6" transform="matrix(16,0,0,-16,318.4736,94.90906)"/>
<use data-text=" " xlink:href="#font_1_1" transform="matrix(16,0,0,-16,330.0256,94.90906)"/>
<use data-text="e" xlink:href="#font_1_11" transform="matrix(16,0,0,-16,319.4656,113.90106)"/>
<use data-text=" " xlink:href="#font_1_1" transform="matrix(16,0,0,-16,328.3616,113.90106)"/>
<use data-text="g" xlink:href="#font_1_12" transform="matrix(16,0,0,-16,319.4656,132.89307)"/>
<use data-text=" " xlink:href="#font_1_1" transform="matrix(16,0,0,-16,328.3616,132.89307)"/>
<path transform="matrix(1,0,0,-1,278.8486,104.70917)" stroke-width="3" stroke-linecap="butt" stroke-linejoin="round" fill="none" stroke="#434dd6" d="M0 0H33"/>
<path transform="matrix(1,0,0,-1,305.8486,100.20911)" d="M0 0 9-4.5 0-9Z" fill="#434dd6" fill-rule="evenodd"/>
<path transform="matrix(1,0,0,-1,326.8486,158.70917)" stroke-width="1" stroke-linecap="butt" stroke-linejoin="round" fill="none" stroke="#000000" d="M0 0V-34.25"/>
<path transform="matrix(1,0,0,-1,-44.6514,837.209)" d="M108 566.25H252V542.25H108Z" fill="#76d6ff" fill-rule="evenodd"/>
<path transform="matrix(1,0,0,-1,63.3486,270.95918)" stroke-width=".75" stroke-linecap="butt" stroke-miterlimit="8" stroke-linejoin="miter" fill="none" stroke="#000000" d="M0 0H144V-24H0Z"/>
<path transform="matrix(1,0,0,-1,206.9736,281.8341)" stroke-width="2.25" stroke-linecap="butt" stroke-linejoin="round" fill="none" stroke="#000000" d="M0 0 1.625-.062 2.688-.125 3.938-.312 4.875-.5 5.625-.687 6.75-.812 10.063-1.312 12.312-2.125 13.812-3.125 15-4.312 14.437-5.062 13.312-6 11.812-7 10-8 6.25-10 4.625-10.813 3.375-11.438 2.313-11.875 .937-12.25-1.875-13-4.937-13.813-8.25-14.938-10.188-15.75-12.313-16.687-14.375-17.625-16.125-18.5-17.062-19.125-17.562-19.75-17.625-20.875-17.25-21.437-16.625-22-15.563-22.625-13.875-23.25-12.625-23.625-11.063-24-7.312-24.875-3.688-25.687-3.336-25.741"/>
<path transform="matrix(1,0,0,-1,202.5251,307.40547)" d="M0 0-1.885 2.564 4.449-.679-2.564-1.885Z" fill-rule="evenodd"/>
<path transform="matrix(1,0,0,-1,333.3485,69.20911)" stroke-width="2.25" stroke-linecap="butt" stroke-linejoin="round" fill="none" stroke="#434dd6" d="M0 0H24V54H-312V-6H-272.25"/>
<path transform="matrix(1,0,0,-1,56.5986,71.83411)" d="M0 0 6.75-3.375 0-6.75Z" fill="#434dd6" fill-rule="evenodd"/>
<path transform="matrix(1,0,0,-1,-44.6514,837.209)" d="M252 541.125H396V517.125H252Z" fill="#76d6ff" fill-rule="evenodd"/>
<path transform="matrix(1,0,0,-1,207.3486,296.0841)" stroke-width=".75" stroke-linecap="butt" stroke-miterlimit="8" stroke-linejoin="miter" fill="none" stroke="#000000" d="M0 0H144V-24H0Z"/>
<path transform="matrix(1,0,0,-1,-44.6514,837.209)" d="M396 516H540V492H396Z" fill="#76d6ff" fill-rule="evenodd"/>
<path transform="matrix(1,0,0,-1,351.3485,321.20918)" stroke-width=".75" stroke-linecap="butt" stroke-miterlimit="8" stroke-linejoin="miter" fill="none" stroke="#000000" d="M0 0H144V-24H0Z"/>
<path transform="matrix(1,0,0,-1,351.3485,308.08418)" stroke-width="2.25" stroke-linecap="butt" stroke-linejoin="round" fill="none" stroke="#000000" d="M0 0 1.625-.062 2.688-.125 3.938-.312 4.875-.5 5.625-.687 6.75-.812 10.063-1.312 12.313-2.125 13.813-3.125 15-4.312 14.438-5.062 13.313-6 11.813-7 10-8 6.25-10 4.625-10.813 3.375-11.438 2.313-11.875 .937-12.25-1.875-13-4.937-13.813-8.25-14.937-10.188-15.75-12.313-16.687-14.375-17.625-16.125-18.5-17.062-19.125-17.562-19.75-17.625-20.875-17.25-21.437-16.625-22-15.563-22.625-13.875-23.25-12.625-23.625-11.063-24-7.312-24.875-3.688-25.687-3.336-25.741"/>
<path transform="matrix(1,0,0,-1,346.9,333.6555)" d="M0 0-1.885 2.564 4.449-.679-2.563-1.885Z" fill-rule="evenodd"/>
</g>
</svg>
