<svg xmlns="http://www.w3.org/2000/svg" xmlns:xlink="http://www.w3.org/1999/xlink" version="1.1" width="578.702pt" height="144.27899pt" viewBox="0 0 578.702 144.27899">
<defs>
<clipPath id="clip_0">
<path transform="matrix(1,0,0,-1,-129.217,480.405)" d="M129.217 336.126H707.919V480.405H129.217Z" fill-rule="evenodd"/>
</clipPath>
<path id="font_1_20" d="M.0146484379 .5234375H.12841797L.24853516 .33918763 .3701172 .5234375 .47705079 .5209961 .30078126 .26831056 .48486329 0H.3725586L.24267578 .19647217 .11669922 0H.0053710939L.18945313 .26831056 .0146484379 .5234375Z"/>
<path id="font_2_1" d="M0 0Z"/>
<path id="font_1_21" d="M.39111329 .5234375H.48828126C.47591148 .48987834 .44840495 .41330973 .40576173 .2937317 .3738607 .20380657 .34716798 .13049825 .3256836 .07380676 .27490235-.059921266 .23909505-.14145915 .21826172-.17080689 .19742839-.2001648 .1616211-.21484375 .110839847-.21484375 .098470058-.21484375 .08894857-.21435039 .08227539-.21336365 .07560221-.21238709 .06738281-.21058655 .057617189-.20796204V-.1274414C.072916667-.13167317 .083984378-.13427735 .09082031-.1352539 .09765625-.13623047 .10367838-.13671875 .10888672-.13671875 .12516277-.13671875 .13712566-.1340332 .14477539-.12866211 .15242513-.123291019 .15885417-.11669922 .1640625-.10888672 .16569011-.106282558 .17154949-.092936199 .18164063-.068847659 .19173177-.044759115 .19905599-.026855469 .20361328-.015136719L.010253906 .5234375H.10986328L.25 .09727478 .39111329 .5234375M.24951172 .5361328V.5361328Z"/>
<path id="font_1_6" d="M.13964844 .23144531C.14192708 .19064331 .15152996 .1575063 .16845703 .1320343 .2006836 .084376018 .25748698 .060546876 .3388672 .060546876 .37532554 .060546876 .40852867 .06575521 .43847657 .076171878 .49641929 .096354167 .5253906 .13248189 .5253906 .18455506 .5253906 .22361756 .5131836 .25144959 .48876954 .26805116 .46402995 .2843882 .42529298 .29859925 .3725586 .3106842L.27539063 .3327484C.21191406 .3471222 .16699219 .36294047 .140625 .38020326 .095052089 .41016136 .072265628 .4549408 .072265628 .5145416 .072265628 .57902529 .094563808 .6319478 .13916016 .6733093 .18375652 .71467086 .24690755 .73535159 .32861329 .73535159 .4038086 .73535159 .46769206 .7172038 .5202637 .6809082 .57283529 .6446126 .5991211 .58658859 .5991211 .50683596H.5078125C.5029297 .5452474 .49251304 .57470706 .4765625 .59521487 .4469401 .6326497 .39664714 .6513672 .3256836 .6513672 .26839195 .6513672 .22721355 .63931277 .20214844 .61520388 .17708333 .591095 .16455078 .56307479 .16455078 .5311432 .16455078 .49595643 .17919922 .47021995 .2084961 .45393373 .22770183 .44350688 .27115885 .43047587 .3388672 .4148407L.43945313 .39187623C.48795573 .38079835 .5253906 .36565147 .5517578 .34643556 .59733077 .31288658 .6201172 .26419068 .6201172 .2003479 .6201172 .12085978 .59122726 .06401571 .53344729 .029815674 .47566734-.004384359 .40852867-.021484375 .33203126-.021484375 .24283855-.021484375 .17301433 .0013478597 .122558597 .04701233 .07210287 .0923411 .04736328 .15381877 .048339845 .23144531H.13964844M.3359375 .7373047V.7373047Z"/>
<path id="font_1_18" d="M.08203125 .66796877H.17089844V.5234375H.25439454V.4501953H.17089844V.110183719C.17089844 .09202576 .17708333 .07986959 .18945313 .07371521 .19628906 .07014465 .2076823 .068359378 .22363281 .068359378 .22786458 .068359378 .23242188 .06846619 .23730469 .06867981 .2421875 .0689036 .24788411 .06944784 .25439454 .0703125V0C.24430339-.0031026204 .23380535-.005340576 .22290039-.006713867 .21199544-.008097331 .20019531-.0087890629 .1875-.0087890629 .14648438-.0087890629 .118652347 .0016988119 .104003909 .02267456 .08935547 .04365031 .08203125 .070882167 .08203125 .10437012V.4501953H.011230469V.5234375H.08203125V.66796877Z"/>
<path id="font_1_7" d="M.13183594 .1394043C.13183594 .114095058 .14111328 .09413656 .15966797 .07952881 .17822266 .06492106 .20019531 .057617189 .22558594 .057617189 .2565104 .057617189 .28645835 .06471761 .3154297 .07891846 .3642578 .10247803 .38867188 .14127605 .38867188 .1953125V.26611329C.3779297 .25886027 .36409507 .2528127 .34716798 .24797058 .33024089 .24313863 .3136393 .23983257 .29736329 .23805237L.24414063 .23184204C.21223958 .22799683 .1883138 .22153218 .17236328 .21244812 .14534505 .19718933 .13183594 .17284139 .13183594 .1394043M.34472657 .31689454C.36490885 .3194987 .37841798 .32796226 .3852539 .34228517 .38916017 .35012818 .39111329 .36140443 .39111329 .3761139 .39111329 .40618388 .38045249 .42799888 .35913087 .44155885 .33780924 .455129 .30729167 .46191407 .26757813 .46191407 .22167969 .46191407 .18912761 .44948326 .16992188 .42462159 .15917969 .4108785 .15218099 .39043174 .14892578 .36328126H.06689453C.06852213 .42791749 .08943685 .47288514 .12963867 .4981842 .1698405 .5234833 .21647136 .5361328 .26953126 .5361328 .3310547 .5361328 .38102214 .52441409 .4194336 .50097659 .45751954 .47753907 .4765625 .4410502 .4765625 .39151V.08985901C.4765625 .08073425 .47843424 .073404949 .48217774 .067871097 .48592124 .06233724 .4938151 .059570314 .5058594 .059570314 .5097656 .059570314 .51416018 .059814454 .51904299 .060302736 .5239258 .060791017 .5291341 .061523439 .53466799 .0625V-.0028076173C.5209961-.00676473 .5105794-.009236653 .50341799-.010223389 .4962565-.011220296 .48649089-.01171875 .4741211-.01171875 .44384767-.01171875 .421875-.0009104411 .40820313 .020706177 .40104167 .032170614 .3959961 .048380536 .3930664 .06933594 .37516276 .045633954 .34944663 .025060019 .31591798 .0076141359 .2823893-.009831746 .2454427-.018554688 .20507813-.018554688 .15657552-.018554688 .11694336-.0037790936 .08618164 .025772095 .055419923 .055323285 .040039064 .092300418 .040039064 .13670349 .040039064 .18535869 .05517578 .22307332 .08544922 .24984741 .115722659 .2766215 .1554362 .29311119 .20458985 .2993164L.34472657 .31689454M.27197267 .5361328V.5361328Z"/>
<path id="font_1_9" d="M.28222657 .53515627C.31933595 .53515627 .355306 .52644857 .39013673 .5090332 .42496745 .49161784 .4514974 .4690806 .46972657 .4414215 .4873047 .41505433 .49902345 .3842977 .5048828 .3491516 .5100911 .32506309 .5126953 .28647868 .5126953 .23339844H.12939453C.13102214 .18033855 .14355469 .13777669 .16699219 .10571289 .19042969 .073649089 .22672527 .057617189 .2758789 .057617189 .32177735 .057617189 .35839845 .07261658 .3857422 .10261536 .4013672 .12003072 .4124349 .14018758 .4189453 .16308594H.5053711C.50309249 .14398194 .49552409 .122690837 .48266603 .09921265 .46980796 .07574463 .45540367 .05656433 .43945313 .041671754 .4127604 .01576233 .37972007-.0017242432 .34033204-.010787964 .3191732-.01596578 .2952474-.018554688 .2685547-.018554688 .20345052-.018554688 .14827474 .0051472985 .103027347 .05255127 .05777995 .09995524 .03515625 .16634114 .03515625 .25170899 .03515625 .33576457 .057942708 .40401713 .103515628 .45646668 .14908855 .5089264 .20865886 .53515627 .28222657 .53515627M.42236329 .30371095C.41878257 .34191896 .41048179 .37245179 .39746095 .39530946 .3733724 .4377594 .33317057 .45898438 .27685548 .45898438 .23649089 .45898438 .20263672 .44437156 .17529297 .41514588 .14794922 .3859202 .13346355 .34877525 .13183594 .30371095H.42236329M.27392579 .5361328V.5361328Z"/>
<path id="font_1_1" d="M0 0Z"/>
<path id="font_1_2" d="M.5541992 .4013672V.31933595H.044921876V.4013672H.5541992M.5541992 .19238281V.10839844H.044921876V.19238281H.5541992Z"/>
<path id="font_1_5" d="M.40966798 .38867188C.45524089 .38867188 .49129234 .39778648 .51782229 .41601563 .54435226 .43424479 .5576172 .4671224 .5576172 .51464846 .5576172 .5657552 .5390625 .60058596 .5019531 .6191406 .48209635 .62890627 .4555664 .63378909 .42236329 .63378909H.1850586V.38867188H.40966798M.087890628 .71777346H.41992188C.47460938 .71777346 .51969406 .709788 .5551758 .69381716 .6225586 .6631775 .65625 .60662338 .65625 .52415469 .65625 .48112489 .6473796 .44591777 .6296387 .41853334 .61189779 .39115907 .58707687 .36916099 .5551758 .35253907 .5831706 .34114585 .60424807 .32617188 .6184082 .3076172 .63256838 .2890625 .6404622 .2589518 .64208987 .21728516L.6455078 .12109375C.6464844 .09388224 .648763 .07363383 .65234377 .06034851 .6582031 .037663778 .6686198 .023081461 .68359377 .016601563V0H.5644531C.56119796 .006184896 .55859377 .014160156 .5566406 .023925782 .5546875 .033691408 .5530599 .052571615 .5517578 .080566409L.54589846 .20019531C.5436198 .24707031 .5262044 .27848307 .49365235 .2944336 .47509767 .30322267 .44596354 .3076172 .40625 .3076172H.1850586V0H.087890628V.71777346Z"/>
<path id="font_1_11" d="M.064453128 .5205078H.1538086V0H.064453128V.5205078M.064453128 .71777346H.1538086V.61816409H.064453128V.71777346Z"/>
<path id="font_1_17" d="M.11669922 .1640625C.11930338 .13463338 .12662761 .11207072 .13867188 .09637451 .1608073 .06793213 .19921875 .053710939 .25390626 .053710939 .28645835 .053710939 .31510417 .060806276 .33984376 .07499695 .36458335 .08919779 .37695313 .11115011 .37695313 .14085388 .37695313 .16337586 .36702476 .18051148 .34716798 .19226074 .33447267 .19944255 .30940757 .20775859 .27197267 .21720886L.20214844 .2348175C.15755208 .24590557 .12467448 .25829569 .103515628 .27198792 .06575521 .29579164 .046875 .32873027 .046875 .37080384 .046875 .42036439 .064697269 .46046958 .1003418 .49111939 .13598633 .52177938 .18391927 .5371094 .24414063 .5371094 .32291667 .5371094 .37972007 .5139974 .41455079 .46777345 .4363607 .43847657 .4469401 .40690104 .44628907 .37304688H.36328126C.36165367 .39269004 .35465495 .41055808 .34228517 .426651 .32210288 .44950868 .28710938 .4609375 .23730469 .4609375 .20410156 .4609375 .17895508 .45461528 .16186524 .44197084 .14477539 .42933656 .13623047 .41264854 .13623047 .39190675 .13623047 .36922203 .14746094 .35107423 .16992188 .33746339 .1829427 .32936607 .20214844 .32221986 .22753906 .31602479L.28564454 .3018341C.34879557 .28650413 .39111329 .27166749 .41259767 .25732423 .44677735 .23482259 .4638672 .19944255 .4638672 .15118408 .4638672 .10455322 .44620768 .06428019 .41088868 .03036499 .37556968-.0035502117 .32177735-.020507813 .24951172-.020507813 .17171224-.020507813 .116617839-.002802531 .084228519 .032608034 .05183919 .06801859 .034505208 .111836757 .032226564 .1640625H.11669922M.24658203 .5361328V.5361328Z"/>
<path id="font_1_14" d="M.064453128 .5234375H.14794922V.44921876C.1726888 .47981773 .19889324 .50179037 .2265625 .5151367 .25423179 .5284831 .2849935 .53515627 .31884767 .53515627 .3930664 .53515627 .44319663 .5092519 .46923829 .45744325 .4835612 .42910258 .49072267 .38853965 .49072267 .3357544V0H.4013672V.3299408C.4013672 .36188255 .39664714 .38762919 .38720704 .4071808 .37158204 .4397634 .34326173 .4560547 .3022461 .4560547 .28141276 .4560547 .2643229 .4539388 .25097657 .44970704 .22688802 .4425354 .20572917 .42819724 .1875 .4066925 .17285156 .38941957 .16333008 .37157694 .15893555 .35316468 .15454102 .3347524 .15234375 .30844117 .15234375 .27423097V0H.064453128V.5234375M.2709961 .5361328V.5361328Z"/>
<path id="font_1_10" d="M.24902344 .53222659C.29003907 .53222659 .32584635 .5220744 .3564453 .50177 .37304688 .49030558 .38997398 .4736023 .40722657 .45166017V.5185547H.48828126V.04234314C.48828126-.024154664 .47851563-.07663473 .45898438-.115097049 .42252604-.18615215 .35367839-.22167969 .2524414-.22167969 .1961263-.22167969 .14876302-.20906575 .11035156-.18383789 .0719401-.15861003 .05045573-.119140628 .045898439-.06542969H.1352539C.13948567-.08873495 .14794922-.10669454 .16064453-.11930847 .1805013-.13872783 .2117513-.1484375 .25439454-.1484375 .32177735-.1484375 .3658854-.12467448 .38671876-.07714844 .39908854-.04916382 .40478517 .0007985433 .4038086 .07273865 .38623048 .04588318 .36507163 .025904337 .34033204 .012802124 .31559245-.000289917 .2828776-.0068359377 .2421875-.0068359377 .18554688-.0068359377 .13598633 .013280232 .09350586 .053512575 .05102539 .09375509 .029785157 .16030376 .029785157 .25315858 .029785157 .34080506 .051188154 .40922547 .09399414 .4584198 .13680013 .5076243 .18847656 .53222659 .24902344 .53222659M.40722657 .26342774C.40722657 .328125 .39388023 .37607829 .3671875 .4072876 .34049479 .43849693 .30647788 .45410157 .26513673 .45410157 .20328777 .45410157 .16097005 .4251658 .1381836 .3672943 .12613933 .33641053 .12011719 .29593406 .12011719 .24586487 .12011719 .1870168 .13208008 .14223226 .15600586 .11151123 .17993164 .0807902 .21207683 .06542969 .2524414 .06542969 .31559245 .06542969 .36002604 .09387716 .3857422 .1507721 .4000651 .18295796 .40722657 .22050984 .40722657 .26342774M.25927735 .5361328V.5361328Z"/>
<path id="font_1_8" d="M.26611329 .53808596C.32503257 .53808596 .37296549 .5237274 .4099121 .49501039 .44685874 .46629334 .46907554 .41684977 .4765625 .3466797H.39111329C.38590495 .37890626 .37402345 .40568034 .35546876 .42700196 .33691407 .44832359 .3071289 .45898438 .26611329 .45898438 .2101237 .45898438 .17008464 .43170677 .1459961 .3771515 .1303711 .34176127 .122558597 .29808555 .122558597 .24612427 .122558597 .19384766 .1336263 .14984639 .15576172 .11412048 .17789714 .07840475 .21272786 .060546876 .2602539 .060546876 .29671226 .060546876 .3256022 .0716095 .34692384 .09373474 .36824546 .115859989 .38297526 .1461385 .39111329 .18457031H.4765625C.46679688 .115234378 .4423828 .06453451 .4033203 .032470704 .3642578 .00040690104 .31429038-.015625 .25341798-.015625 .1850586-.015625 .13053386 .009379069 .08984375 .059387208 .049153646 .10940552 .028808594 .17188008 .028808594 .24681092 .028808594 .33868919 .05110677 .41020204 .095703128 .4613495 .14029949 .51250717 .19710286 .53808596 .26611329 .53808596M.2524414 .5361328V.5361328Z"/>
<path id="font_1_13" d="M.06689453 .71777346H.15478516V0H.06689453V.71777346Z"/>
<path id="font_1_15" d="M.27197267 .057617189C.33024089 .057617189 .37019859 .07964579 .3918457 .123703 .41349284 .16776021 .4243164 .21677144 .4243164 .2707367 .4243164 .31950379 .4165039 .35917155 .4008789 .38974 .3761393 .43785606 .3334961 .46191407 .27294923 .46191407 .21923828 .46191407 .18017578 .44143168 .15576172 .40046693 .13134766 .35950218 .119140628 .31008403 .119140628 .25221253 .119140628 .1966095 .13134766 .15027364 .15576172 .113204959 .18017578 .076146449 .21891277 .057617189 .27197267 .057617189M.27539063 .53808596C.34277345 .53808596 .3997396 .5156453 .44628907 .47076417 .49283854 .42588298 .5161133 .35985819 .5161133 .27268983 .5161133 .1884613 .49560548 .11886088 .45458985 .06388855 .41357423 .008926392 .3499349-.018554688 .26367188-.018554688 .19173177-.018554688 .13460286 .00575765 .092285159 .054382326 .04996745 .103006999 .028808594 .16829936 .028808594 .2502594 .028808594 .33806864 .05110677 .4079895 .095703128 .46002198 .14029949 .51206466 .20019531 .53808596 .27539063 .53808596M.27246095 .5361328V.5361328Z"/>
<path id="font_1_12" d="M.0625 .71777346H.14697266V.30101014L.3725586 .5234375H.48486329L.28466798 .32881166 .49609376 0H.38378907L.22070313 .26635743 .14697266 .19647217V0H.0625V.71777346Z"/>
<path id="font_3_2" d="M.49804688 .052734376H.5463867L.85546877 .36279298 .5463867 .671875H.49804688V.50683596H.084472659V.21777344H.49804688V.052734376M.7392578 .36279298 .5463867 .16929627V.26660157H.1328125V.45898438H.5463867V.55566409L.7392578 .36279298Z"/>
<path id="font_4_1" d="M0 0Z"/>
<path id="font_1_4" d="M.3857422 .7373047C.5123698 .7373047 .6061198 .6965637 .6669922 .6150818 .71451827 .55152389 .73828127 .47019959 .73828127 .371109 .73828127 .2638804 .7111003 .17473857 .6567383 .10368347 .5929362 .020238242 .5019531-.021484375 .38378907-.021484375 .2734375-.021484375 .1866862 .015019734 .123535159 .088027957 .067220058 .158432 .0390625 .24741619 .0390625 .35498048 .0390625 .45210777 .06315104 .53522238 .111328128 .60432437 .17317708 .6929779 .26464845 .7373047 .3857422 .7373047M.3955078 .06542969C.48111979 .06542969 .5430501 .09613546 .5812988 .157547 .61954757 .21895854 .6386719 .2895762 .6386719 .36940003 .6386719 .45378114 .61661788 .5217082 .57250979 .57318118 .5284017 .6246541 .46809898 .6503906 .39160157 .6503906 .3173828 .6503906 .25683595 .62489828 .20996094 .5739136 .16308594 .5229289 .13964844 .4477488 .13964844 .3483734 .13964844 .26888529 .15974935 .20185344 .19995117 .14727783 .240153 .0927124 .30533854 .06542969 .3955078 .06542969M.38867188 .7373047V.7373047Z"/>
<path id="font_1_19" d="M.15234375 .5234375V.17590332C.15234375 .1491801 .15657552 .12734477 .16503906 .11039734 .18066406 .07911682 .20979817 .06347656 .2524414 .06347656 .3136393 .06347656 .355306 .09085083 .3774414 .14559937 .3894857 .17492676 .3955078 .21516927 .3955078 .2663269V.5234375H.48339845V0H.40039063L.4013672 .0771637C.38997398 .057195028 .3758138 .040339155 .35888673 .02659607 .32535807-.00090026858 .28466798-.0146484379 .2368164-.0146484379 .16227214-.0146484379 .11149088 .010299683 .084472659 .060195924 .06982422 .08693949 .0625 .12265015 .0625 .16732788V.5234375H.15234375M.27294923 .5361328V.5361328Z"/>
<path id="font_1_16" d="M.28515626 .057617189C.32617188 .057617189 .36027018 .07486979 .38745118 .109375 .41463218 .14389038 .42822267 .1954956 .42822267 .26419068 .42822267 .3060608 .42220054 .34204103 .41015626 .37213136 .38736979 .43003337 .34570313 .45898438 .28515626 .45898438 .22428386 .45898438 .18261719 .42840068 .16015625 .36723329 .14811199 .33451844 .14208985 .29297386 .14208985 .24259949 .14208985 .20204163 .14811199 .16753133 .16015625 .1390686 .1829427 .08476766 .22460938 .057617189 .28515626 .057617189M.057617189 .5205078H.1430664V.45162965C.16064453 .47540284 .17985027 .49379985 .2006836 .5068207 .23030599 .5263621 .26513673 .5361328 .30517579 .5361328 .36442057 .5361328 .41471354 .5133667 .4560547 .46783448 .49739585 .42230226 .5180664 .3572693 .5180664 .2727356 .5180664 .1585083 .48828126 .07691447 .42871095 .027954102 .39095054-.0030517579 .34700523-.018554688 .296875-.018554688 .25748698-.018554688 .22444661-.009984334 .1977539 .007156372 .1821289 .016860962 .16471355 .033518476 .14550781 .057128908V-.20898438H.057617189V.5205078Z"/>
<path id="font_1_3" d="M.09814453 .71777346H.19628906V0H.09814453V.71777346Z"/>
</defs>
<g clip-path="url(#clip_0)">
<path transform="matrix(1,0,0,-1,-129.217,480.405)" d="M36 36H756V576H36Z" fill="#ffffff"/>
<path transform="matrix(1,0,0,-1,-129.217,480.405)" d="M210 444H228V342H210Z" fill="#bfbfbf" fill-rule="evenodd"/>
<path transform="matrix(1,0,0,-1,80.783008,36.40509)" stroke-width=".75" stroke-linecap="butt" stroke-miterlimit="8" stroke-linejoin="miter" fill="none" stroke="#000000" d="M0 0H18V-102H0Z"/>
<use data-text="x" xlink:href="#font_1_20" transform="matrix(20,0,0,-20,84.983,95.405)"/>
<use data-text="&#xfffd;" xlink:href="#font_2_1" transform="matrix(20,0,0,-20,94.983,95.405)"/>
<path transform="matrix(1,0,0,-1,-129.217,480.405)" d="M588 444H606V342H588Z" fill="#76d6ff" fill-rule="evenodd"/>
<path transform="matrix(1,0,0,-1,458.78285,36.40509)" stroke-width=".75" stroke-linecap="butt" stroke-miterlimit="8" stroke-linejoin="miter" fill="none" stroke="#000000" d="M0 0H18V-102H0Z"/>
<use data-text="y" xlink:href="#font_1_21" transform="matrix(20,0,0,-20,461.98304,95.405)"/>
<use data-text="&#xfffd;" xlink:href="#font_2_1" transform="matrix(20,0,0,-20,471.98304,95.405)"/>
<use data-text="S" xlink:href="#font_1_6" transform="matrix(18,0,0,-18,51.983,22.005005)"/>
<use data-text="t" xlink:href="#font_1_18" transform="matrix(18,0,0,-18,63.989,22.005005)"/>
<use data-text="a" xlink:href="#font_1_7" transform="matrix(18,0,0,-18,68.993,22.005005)"/>
<use data-text="t" xlink:href="#font_1_18" transform="matrix(18,0,0,-18,79.00099,22.005005)"/>
<use data-text="e" xlink:href="#font_1_9" transform="matrix(18,0,0,-18,84.00499,22.005005)"/>
<use data-text=" " xlink:href="#font_1_1" transform="matrix(18,0,0,-18,94.012989,22.005005)"/>
<use data-text="=" xlink:href="#font_1_2" transform="matrix(18,0,0,-18,99.01698,22.005005)"/>
<use data-text=" " xlink:href="#font_1_1" transform="matrix(18,0,0,-18,109.52898,22.005005)"/>
<use data-text="x" xlink:href="#font_1_20" transform="matrix(18,0,0,-18,114.532978,22.005005)"/>
<use data-text="&#xfffd;" xlink:href="#font_2_1" transform="matrix(18,0,0,-18,123.532978,22.005005)"/>
<path transform="matrix(1,0,0,-1,278.7829,120.405)" stroke-width=".75" stroke-linecap="butt" stroke-linejoin="round" fill="none" stroke="#000000" d="M0 0H30V36H54"/>
<use data-text="R" xlink:href="#font_1_5" transform="matrix(18,0,0,-18,283.9737,52.005006)"/>
<use data-text="i" xlink:href="#font_1_11" transform="matrix(18,0,0,-18,296.96974,52.005006)"/>
<use data-text="s" xlink:href="#font_1_17" transform="matrix(18,0,0,-18,300.9657,52.005006)"/>
<use data-text="i" xlink:href="#font_1_11" transform="matrix(18,0,0,-18,309.9657,52.005006)"/>
<use data-text="n" xlink:href="#font_1_14" transform="matrix(18,0,0,-18,313.96174,52.005006)"/>
<use data-text="g" xlink:href="#font_1_10" transform="matrix(18,0,0,-18,323.96974,52.005006)"/>
<use data-text="&#xfffd;" xlink:href="#font_2_1" transform="matrix(18,0,0,-18,333.97773,52.005006)"/>
<use data-text="c" xlink:href="#font_1_8" transform="matrix(18,0,0,-18,288.4737,73.01102)"/>
<use data-text="l" xlink:href="#font_1_13" transform="matrix(18,0,0,-18,297.4737,73.01102)"/>
<use data-text="o" xlink:href="#font_1_15" transform="matrix(18,0,0,-18,301.46974,73.01102)"/>
<use data-text="c" xlink:href="#font_1_8" transform="matrix(18,0,0,-18,311.47773,73.01102)"/>
<use data-text="k" xlink:href="#font_1_12" transform="matrix(18,0,0,-18,320.47773,73.01102)"/>
<use data-text="&#xfffd;" xlink:href="#font_2_1" transform="matrix(18,0,0,-18,329.47773,73.01102)"/>
<use data-text="_" xlink:href="#font_3_2" transform="matrix(36,0,0,-36,219.60802,85.505008)" fill="#000099"/>
<use data-text=" " xlink:href="#font_4_1" transform="matrix(36,0,0,-36,253.41204,85.505008)" fill="#000099"/>
<use data-text="_" xlink:href="#font_3_2" transform="matrix(36,0,0,-36,369.62,85.505008)" fill="#000099"/>
<use data-text=" " xlink:href="#font_4_1" transform="matrix(36,0,0,-36,403.424,85.505008)" fill="#000099"/>
<use data-text="O" xlink:href="#font_1_4" transform="matrix(18,0,0,-18,109.983,64.005008)"/>
<use data-text="u" xlink:href="#font_1_19" transform="matrix(18,0,0,-18,123.987,64.005008)"/>
<use data-text="t" xlink:href="#font_1_18" transform="matrix(18,0,0,-18,133.99501,64.005008)"/>
<use data-text="p" xlink:href="#font_1_16" transform="matrix(18,0,0,-18,138.99901,64.005008)"/>
<use data-text="u" xlink:href="#font_1_19" transform="matrix(18,0,0,-18,149.007,64.005008)"/>
<use data-text="t" xlink:href="#font_1_18" transform="matrix(18,0,0,-18,159.015,64.005008)"/>
<use data-text=" " xlink:href="#font_1_1" transform="matrix(18,0,0,-18,164.019,64.005008)"/>
<use data-text="=" xlink:href="#font_1_2" transform="matrix(18,0,0,-18,169.023,64.005008)"/>
<use data-text=" " xlink:href="#font_1_1" transform="matrix(18,0,0,-18,179.53499,64.005008)"/>
<use data-text="x" xlink:href="#font_1_20" transform="matrix(18,0,0,-18,184.53899,64.005008)"/>
<use data-text="&#xfffd;" xlink:href="#font_2_1" transform="matrix(18,0,0,-18,193.53899,64.005008)"/>
<use data-text="I" xlink:href="#font_1_3" transform="matrix(18,0,0,-18,3.350998,64.005008)"/>
<use data-text="n" xlink:href="#font_1_14" transform="matrix(18,0,0,-18,8.354996,64.005008)"/>
<use data-text="p" xlink:href="#font_1_16" transform="matrix(18,0,0,-18,18.362992,64.005008)"/>
<use data-text="u" xlink:href="#font_1_19" transform="matrix(18,0,0,-18,28.370987,64.005008)"/>
<use data-text="t" xlink:href="#font_1_18" transform="matrix(18,0,0,-18,38.378984,64.005008)"/>
<use data-text=" " xlink:href="#font_1_1" transform="matrix(18,0,0,-18,43.38298,64.005008)"/>
<use data-text="=" xlink:href="#font_1_2" transform="matrix(18,0,0,-18,48.38698,64.005008)"/>
<use data-text=" " xlink:href="#font_1_1" transform="matrix(18,0,0,-18,58.89897,64.005008)"/>
<use data-text="y" xlink:href="#font_1_21" transform="matrix(18,0,0,-18,63.90297,64.005008)"/>
<use data-text="&#xfffd;" xlink:href="#font_2_1" transform="matrix(18,0,0,-18,72.90297,64.005008)"/>
<use data-text="S" xlink:href="#font_1_6" transform="matrix(18,0,0,-18,429.96907,22.011017)"/>
<use data-text="t" xlink:href="#font_1_18" transform="matrix(18,0,0,-18,441.97505,22.011017)"/>
<use data-text="a" xlink:href="#font_1_7" transform="matrix(18,0,0,-18,446.97908,22.011017)"/>
<use data-text="t" xlink:href="#font_1_18" transform="matrix(18,0,0,-18,456.98707,22.011017)"/>
<use data-text="e" xlink:href="#font_1_9" transform="matrix(18,0,0,-18,461.9911,22.011017)"/>
<use data-text=" " xlink:href="#font_1_1" transform="matrix(18,0,0,-18,471.99909,22.011017)"/>
<use data-text="=" xlink:href="#font_1_2" transform="matrix(18,0,0,-18,477.0031,22.011017)"/>
<use data-text=" " xlink:href="#font_1_1" transform="matrix(18,0,0,-18,487.51515,22.011017)"/>
<use data-text="y" xlink:href="#font_1_21" transform="matrix(18,0,0,-18,492.51918,22.011017)"/>
<use data-text="&#xfffd;" xlink:href="#font_2_1" transform="matrix(18,0,0,-18,501.51918,22.011017)"/>
<use data-text="O" xlink:href="#font_1_4" transform="matrix(18,0,0,-18,487.96504,64.005008)"/>
<use data-text="u" xlink:href="#font_1_19" transform="matrix(18,0,0,-18,501.96907,64.005008)"/>
<use data-text="t" xlink:href="#font_1_18" transform="matrix(18,0,0,-18,511.97706,64.005008)"/>
<use data-text="p" xlink:href="#font_1_16" transform="matrix(18,0,0,-18,516.9811,64.005008)"/>
<use data-text="u" xlink:href="#font_1_19" transform="matrix(18,0,0,-18,526.9891,64.005008)"/>
<use data-text="t" xlink:href="#font_1_18" transform="matrix(18,0,0,-18,536.9971,64.005008)"/>
<use data-text=" " xlink:href="#font_1_1" transform="matrix(18,0,0,-18,542.0011,64.005008)"/>
<use data-text="=" xlink:href="#font_1_2" transform="matrix(18,0,0,-18,547.0051,64.005008)"/>
<use data-text=" " xlink:href="#font_1_1" transform="matrix(18,0,0,-18,557.51718,64.005008)"/>
<use data-text="y" xlink:href="#font_1_21" transform="matrix(18,0,0,-18,562.5212,64.005008)"/>
<use data-text="&#xfffd;" xlink:href="#font_2_1" transform="matrix(18,0,0,-18,571.5212,64.005008)"/>
<path transform="matrix(1,0,0,-1,44.783006,85.905)" d="M0 0H24V7.5L36-1.5 24-10.5V-3H0Z" fill="#76d6ff" fill-rule="evenodd"/>
<path transform="matrix(1,0,0,-1,44.783006,85.905)" stroke-width=".75" stroke-linecap="butt" stroke-miterlimit="8" stroke-linejoin="miter" fill="none" stroke="#000000" d="M0 0H24V7.5L36-1.5 24-10.5V-3H0Z"/>
<path transform="matrix(1,0,0,-1,98.783008,85.905)" d="M0 0H24V7.5L36-1.5 24-10.5V-3H0Z" fill="#bfbfbf" fill-rule="evenodd"/>
<path transform="matrix(1,0,0,-1,98.783008,85.905)" stroke-width=".75" stroke-linecap="butt" stroke-miterlimit="8" stroke-linejoin="miter" fill="none" stroke="#000000" d="M0 0H24V7.5L36-1.5 24-10.5V-3H0Z"/>
<path transform="matrix(1,0,0,-1,422.7829,85.905)" d="M0 0H24V7.5L36-1.5 24-10.5V-3H0Z" fill="#ffffff" fill-rule="evenodd"/>
<path transform="matrix(1,0,0,-1,422.78285,85.905)" stroke-width=".75" stroke-linecap="butt" stroke-miterlimit="8" stroke-linejoin="miter" fill="none" stroke="#000000" d="M0 0H24V7.5L36-1.5 24-10.5V-3H0Z"/>
<path transform="matrix(1,0,0,-1,476.7829,85.905)" d="M0 0H24V7.5L36-1.5 24-10.5V-3H0Z" fill="#76d6ff" fill-rule="evenodd"/>
<path transform="matrix(1,0,0,-1,476.78285,85.905)" stroke-width=".75" stroke-linecap="butt" stroke-miterlimit="8" stroke-linejoin="miter" fill="none" stroke="#000000" d="M0 0H24V7.5L36-1.5 24-10.5V-3H0Z"/>
</g>
</svg>
