<svg xmlns="http://www.w3.org/2000/svg" xmlns:xlink="http://www.w3.org/1999/xlink" version="1.1" width="680.1723pt" height="379.723pt" viewBox="0 0 680.1723 379.723">
<defs>
<clipPath id="clip_0">
<path transform="matrix(1,0,0,-1,-59.4557,482.783)" d="M59.4557 103.06H739.628V482.783H59.4557Z" fill-rule="evenodd"/>
</clipPath>
<path id="font_1_18" d="M.25927735 0V.6308594H.0234375V.7158203H.5908203V.6308594H.3540039V0H.25927735Z"/>
<path id="font_1_25" d="M.06640625 .6152344V.7158203H.15429688V.6152344H.06640625M.06640625 0V.5185547H.15429688V0H.06640625Z"/>
<path id="font_1_28" d="M.06591797 0V.5185547H.14453125V.44580079C.1608073 .4711914 .18245442 .49161784 .20947266 .5070801 .23649089 .5225423 .2672526 .53027346 .3017578 .53027346 .34016929 .53027346 .37166343 .52229818 .39624024 .50634768 .42081706 .49039714 .43815104 .46809898 .4482422 .43945313 .4892578 .5 .54264327 .53027346 .60839846 .53027346 .65983077 .53027346 .69938156 .5160319 .7270508 .48754884 .75472006 .45906578 .7685547 .4152018 .7685547 .35595704V0H.68115237V.32666017C.68115237 .3618164 .678304 .38712565 .6726074 .4025879 .6669108 .41805015 .6565755 .4305013 .64160159 .4399414 .6266276 .4493815 .6090495 .45410157 .5888672 .45410157 .5524089 .45410157 .52213546 .44197593 .49804688 .4177246 .47395835 .3934733 .46191407 .35465495 .46191407 .30126954V0H.37402345V.33691407C.37402345 .37597657 .36686198 .40527345 .35253907 .4248047 .33821617 .44433595 .31477867 .45410157 .28222657 .45410157 .25748698 .45410157 .23461914 .44759117 .21362305 .4345703 .19262696 .42154948 .17740886 .4025065 .16796875 .3774414 .15852864 .3523763 .1538086 .3162435 .1538086 .26904298V0H.06591797Z"/>
<path id="font_1_22" d="M.42089845 .16796875 .51171877 .15625C.49739585 .103037517 .47086589 .06173706 .4321289 .032348634 .39339195 .0029703777 .34391276-.01171875 .2836914-.01171875 .20784505-.01171875 .14770508 .01163737 .103271488 .05834961 .05883789 .10506185 .036621095 .17057292 .036621095 .2548828 .036621095 .3421224 .05908203 .40983073 .104003909 .4580078 .14892578 .5061849 .20719402 .53027346 .2788086 .53027346 .34814454 .53027346 .40478517 .5067088 .44873048 .45957948 .49267579 .41246034 .51464846 .34616599 .51464846 .2606964 .51464846 .25549827 .51448568 .247701 .51416018 .23730469H.1274414C.13069661 .18017578 .14680989 .13643392 .17578125 .1060791 .20475261 .07572428 .24088542 .060546876 .2841797 .060546876 .31640626 .060546876 .34391276 .06908671 .36669923 .08616638 .3894857 .103256229 .4075521 .13052368 .42089845 .16796875M.13232422 .3095703H.421875C.41796876 .3530477 .40690104 .38565574 .38867188 .4073944 .3606771 .4411367 .3243815 .4580078 .27978517 .4580078 .23942058 .4580078 .20548503 .4445394 .17797852 .41760255 .150472 .39067588 .1352539 .35466514 .13232422 .3095703Z"/>
<path id="font_1_1" d="M0 0Z"/>
<path id="font_2_5" d="M.32080079 .53027346V.041015626H.46142579C.4711914 .041015626 .4781901 .03914388 .48242188 .03540039 .48665367 .031656904 .48876954 .026692709 .48876954 .020507813 .48876954 .0146484379 .48665367 .009765625 .48242188 .005859375 .4781901 .001953125 .4711914 0 .46142579 0H.13916016C.12939453 0 .122395839 .001953125 .11816406 .005859375 .11393229 .009765625 .111816409 .0146484379 .111816409 .020507813 .111816409 .026692709 .11393229 .031656904 .11816406 .03540039 .122395839 .03914388 .12939453 .041015626 .13916016 .041015626H.27978517V.53027346H.13916016C.12939453 .53027346 .122395839 .5321452 .11816406 .5358887 .11393229 .53963217 .111816409 .5445964 .111816409 .55078127 .111816409 .5569661 .11393229 .56193038 .11816406 .5656738 .122395839 .5694173 .12939453 .57128909 .13916016 .57128909H.46142579C.4711914 .57128909 .4781901 .5694173 .48242188 .5656738 .48665367 .56193038 .48876954 .5569661 .48876954 .55078127 .48876954 .5445964 .48665367 .53963217 .48242188 .5358887 .4781901 .5321452 .4711914 .53027346 .46142579 .53027346H.32080079Z"/>
<path id="font_2_2" d="M.3203125 .62109377V.041015626H.4609375C.47070313 .041015626 .4777018 .03914388 .4819336 .03540039 .48616538 .031656904 .48828126 .026692709 .48828126 .020507813 .48828126 .0146484379 .48616538 .009765625 .4819336 .005859375 .4777018 .001953125 .47070313 0 .4609375 0H.13867188C.12890625 0 .121907558 .001953125 .11767578 .005859375 .11344401 .009765625 .111328128 .0146484379 .111328128 .020507813 .111328128 .026692709 .11344401 .031656904 .11767578 .03540039 .121907558 .03914388 .12890625 .041015626 .13867188 .041015626H.27929688V.5644531L.14550781 .52246096C.13899739 .5205078 .13427735 .51953127 .13134766 .51953127 .12646485 .51953127 .12198893 .52156576 .11791992 .52563479 .113850917 .5297038 .111816409 .5345052 .111816409 .54003909 .111816409 .5449219 .11344401 .5494792 .11669922 .55371096 .11930338 .5563151 .12467448 .55908206 .1328125 .5620117L.3203125 .62109377Z"/>
<path id="font_2_1" d="M0 0Z"/>
<path id="font_2_3" d="M.123535159 .041015626H.43847657V.057617189C.43847657 .06738281 .4404297 .07438151 .44433595 .07861328 .4482422 .082845058 .45328776 .08496094 .45947267 .08496094 .46533204 .08496094 .47021485 .082845058 .4741211 .07861328 .47802735 .07438151 .47998048 .06738281 .47998048 .057617189V0H.083496097V.061523439C.16682942 .13639324 .24788411 .21256511 .32666017 .29003907 .363444 .32617188 .38867188 .3527018 .40234376 .3696289 .41601563 .386556 .42537437 .40144859 .43041993 .41430665 .43546549 .4271647 .43798829 .44010417 .43798829 .453125 .43798829 .48828126 .42382813 .51936849 .3955078 .5463867 .3671875 .57340499 .3330078 .58691409 .29296876 .58691409 .25716148 .58691409 .22542317 .5765788 .1977539 .5559082 .17008464 .5352478 .15218099 .5096639 .14404297 .4791565 .14208985 .47128297 .13964844 .4661967 .13671875 .4638977 .1328125 .46062217 .1282552 .45898438 .123046878 .45898438 .11751302 .45898438 .11287435 .4608612 .10913086 .46461488 .10538737 .46836854 .103515628 .4728597 .103515628 .47808839 .103515628 .49375407 .11206055 .5149689 .12915039 .5417328 .14624024 .5685069 .1698405 .589564 .19995117 .6049042 .23006185 .6202545 .26090495 .6279297 .29248048 .6279297 .34358726 .6279297 .38753257 .6101735 .4243164 .57466128 .46110026 .539149 .4794922 .49891664 .4794922 .45396424 .4794922 .4350637 .47639976 .41770936 .47021485 .40190126 .46402995 .3861033 .4535319 .36883546 .4387207 .35009767 .42390953 .33137004 .3972982 .30311076 .35888673 .26531983 .26253257 .17018636 .18408203 .09639486 .123535159 .043945314V.041015626Z"/>
<path id="font_2_4" d="M.38427735 .33319093C.42203776 .31627403 .45084635 .29310099 .47070313 .26367188 .4905599 .23424275 .5004883 .20358785 .5004883 .17170716 .5004883 .12260437 .48055015 .07926941 .44067384 .04170227 .40079753 .004135132 .35091148-.0146484379 .29101563-.0146484379 .25585938-.0146484379 .21940105-.0071614587 .18164063 .0078125 .1438802 .022786459 .11751302 .038085939 .10253906 .053710939 .09765625 .05891927 .095214847 .064453128 .095214847 .0703125 .095214847 .075520839 .097086589 .080078128 .10083008 .083984378 .10457357 .087890628 .10904948 .08984375 .11425781 .08984375 .11946615 .08984375 .12532552 .087402347 .13183594 .08251953 .18229167 .045084638 .23567708 .026367188 .2919922 .026367188 .33951823 .026367188 .37931315 .041234334 .41137696 .07096863 .44344078 .10070292 .45947267 .13376872 .45947267 .17016602 .45947267 .19453939 .45157878 .21842449 .43579103 .24182129 .42000328 .2652181 .3972982 .2836609 .36767579 .29714967 .33805339 .31063844 .30810548 .3173828 .27783204 .3173828 .2680664 .3173828 .26106773 .3192749 .25683595 .32305909 .25260417 .32685343 .25048829 .33187867 .25048829 .33813478 .25048829 .34406535 .2525228 .34900413 .2565918 .35295106 .2606608 .35690818 .2667643 .35888673 .27490235 .35888673L.3100586 .35839845C.34684245 .35839845 .37719728 .36964927 .40112306 .39215089 .42504884 .4146627 .43701173 .44076539 .43701173 .47045899 .43701173 .50111898 .42447917 .5281932 .39941407 .5516815 .37434898 .57516989 .34163413 .58691409 .30126954 .58691409 .27294923 .58691409 .24690755 .58199569 .22314453 .5721588 .19938152 .56232199 .18033855 .54887899 .16601563 .53182986 .1608073 .52527877 .15681966 .5212657 .15405274 .51979067 .15128581 .5183156 .14811199 .5175781 .14453125 .5175781 .13899739 .5175781 .13427735 .51945498 .1303711 .5232086 .12646485 .5269725 .12451172 .5314738 .12451172 .53671267 .12451172 .54978439 .13867188 .5662944 .16699219 .5862427 .2063802 .614034 .2511393 .6279297 .30126954 .6279297 .35302735 .6279297 .3955078 .6123454 .42871095 .58117678 .46191407 .5500081 .47851563 .5128784 .47851563 .4697876 .47851563 .44237266 .47054038 .41642253 .45458985 .39193727 .4386393 .36746217 .4152018 .34788005 .38427735 .33319093Z"/>
<path id="font_3_2" d="M.29589845 .7294922C.24479167 .6301575 .21158855 .55703738 .19628906 .51013186 .17317708 .43881227 .1616211 .3564148 .1616211 .26293946 .1616211 .16848755 .17480469 .08217875 .20117188 .0040130617 .21744792-.044184369 .24951172-.11355591 .29736329-.20410156H.23828125C.1907552-.12984212 .16129558-.08245341 .14990235-.061935426 .13850911-.04141744 .12613933-.013570149 .11279297 .021606446 .094563808 .06980387 .08186849 .1212616 .07470703 .17597962 .071126308 .2043101 .06933594 .23134358 .06933594 .25708009 .06933594 .3534851 .084472659 .43930564 .114746097 .5145416 .13395183 .5624135 .17399089 .6340637 .23486328 .7294922H.29589845Z"/>
<path id="font_3_13" d="M.13183594 .1394043C.13183594 .114095058 .14111328 .09413656 .15966797 .07952881 .17822266 .06492106 .20019531 .057617189 .22558594 .057617189 .2565104 .057617189 .28645835 .06471761 .3154297 .07891846 .3642578 .10247803 .38867188 .14127605 .38867188 .1953125V.26611329C.3779297 .25886027 .36409507 .2528127 .34716798 .24797058 .33024089 .24313863 .3136393 .23983257 .29736329 .23805237L.24414063 .23184204C.21223958 .22799683 .1883138 .22153218 .17236328 .21244812 .14534505 .19718933 .13183594 .17284139 .13183594 .1394043M.34472657 .31689454C.36490885 .3194987 .37841798 .32796226 .3852539 .34228517 .38916017 .35012818 .39111329 .36140443 .39111329 .3761139 .39111329 .40618388 .38045249 .42799888 .35913087 .44155885 .33780924 .455129 .30729167 .46191407 .26757813 .46191407 .22167969 .46191407 .18912761 .44948326 .16992188 .42462159 .15917969 .4108785 .15218099 .39043174 .14892578 .36328126H.06689453C.06852213 .42791749 .08943685 .47288514 .12963867 .4981842 .1698405 .5234833 .21647136 .5361328 .26953126 .5361328 .3310547 .5361328 .38102214 .52441409 .4194336 .50097659 .45751954 .47753907 .4765625 .4410502 .4765625 .39151V.08985901C.4765625 .08073425 .47843424 .073404949 .48217774 .067871097 .48592124 .06233724 .4938151 .059570314 .5058594 .059570314 .5097656 .059570314 .51416018 .059814454 .51904299 .060302736 .5239258 .060791017 .5291341 .061523439 .53466799 .0625V-.0028076173C.5209961-.00676473 .5105794-.009236653 .50341799-.010223389 .4962565-.011220296 .48649089-.01171875 .4741211-.01171875 .44384767-.01171875 .421875-.0009104411 .40820313 .020706177 .40104167 .032170614 .3959961 .048380536 .3930664 .06933594 .37516276 .045633954 .34944663 .025060019 .31591798 .0076141359 .2823893-.009831746 .2454427-.018554688 .20507813-.018554688 .15657552-.018554688 .11694336-.0037790936 .08618164 .025772095 .055419923 .055323285 .040039064 .092300418 .040039064 .13670349 .040039064 .18535869 .05517578 .22307332 .08544922 .24984741 .115722659 .2766215 .1554362 .29311119 .20458985 .2993164L.34472657 .31689454M.27197267 .5361328V.5361328Z"/>
<path id="font_3_3" d="M.03466797-.20410156C.08642578-.103139247 .119791667-.029530844 .13476563 .016723633 .15755208 .08674113 .16894531 .16881307 .16894531 .26293946 .16894531 .35706584 .15576172 .44321189 .12939453 .52137759 .11311849 .569575 .08105469 .63894656 .033203126 .7294922H.092285159C.14241536 .64937338 .17277019 .59995016 .18334961 .58122256 .19392903 .56249496 .20540364 .5366821 .21777344 .5037842 .23339844 .46307374 .24454753 .42285157 .2512207 .38311769 .2578939 .3433838 .26123048 .30511476 .26123048 .26831056 .26123048 .17190552 .24593099 .08592224 .21533203 .010360718 .1961263-.03816223 .15625-.10964966 .095703128-.20410156H.03466797Z"/>
<path id="font_3_1" d="M0 0Z"/>
<path id="font_3_10" d="M.07861328 .71777346H.17675781V.42089845H.5498047V.71777346H.6479492V0H.5498047V.33496095H.17675781V0H.07861328V.71777346Z"/>
<path id="font_3_26" d="M.06689453 .5234375H.15039063V.4326172C.15722656 .4502767 .17399089 .4717814 .2006836 .49713136 .2273763 .52248129 .25813804 .53515627 .29296876 .53515627 .29459635 .53515627 .29736329 .5349579 .30126954 .53456118 .30517579 .5341746 .31184898 .5333964 .32128907 .53222659V.43945313C.31608073 .44062297 .3112793 .44140116 .30688478 .44178773 .30249024 .44218446 .2976888 .4423828 .29248048 .4423828 .24820964 .4423828 .2141927 .4280599 .19042969 .39941407 .16666667 .37076823 .15478516 .33789063 .15478516 .30078126V0H.06689453V.5234375Z"/>
<path id="font_3_15" d="M.12011719 .2553711C.12011719 .19923909 .1319987 .15224712 .15576172 .11439514 .17952474 .076543178 .21761067 .057617189 .27001954 .057617189 .31070964 .057617189 .3441569 .075154628 .37036134 .11022949 .39656578 .14531453 .40966798 .19565328 .40966798 .26124574 .40966798 .32748924 .39615885 .37651573 .36914063 .4083252 .3421224 .44014488 .3087565 .4560547 .26904298 .4560547 .22477214 .4560547 .18888347 .4390869 .16137696 .40515138 .13387044 .37121583 .12011719 .32128907 .12011719 .2553711M.2524414 .53222659C.29248048 .53222659 .32600913 .52381899 .35302735 .5070038 .36865235 .4972992 .38639323 .48031617 .40625 .4560547V.71875H.49072267V0H.4116211V.07229614C.39111329 .04023234 .36686198 .017074585 .3388672 .002822876 .3108724-.011428833 .2788086-.018554688 .24267578-.018554688 .18440755-.018554688 .13395183 .0059407555 .091308597 .05493164 .048665365 .10392252 .02734375 .16910808 .02734375 .25048829 .02734375 .32666017 .04679362 .39265953 .08569336 .44848634 .1245931 .5043132 .18017578 .53222659 .2524414 .53222659Z"/>
<path id="font_3_30" d="M.10498047 .5234375 .2055664 .110946658 .3076172 .5234375H.40625L.50878909 .11338806 .61572268 .5234375H.7036133L.5517578 0H.46044923L.3540039 .40516664 .25097657 0H.15966797L.0087890629 .5234375H.10498047Z"/>
<path id="font_3_16" d="M.28222657 .53515627C.31933595 .53515627 .355306 .52644857 .39013673 .5090332 .42496745 .49161784 .4514974 .4690806 .46972657 .4414215 .4873047 .41505433 .49902345 .3842977 .5048828 .3491516 .5100911 .32506309 .5126953 .28647868 .5126953 .23339844H.12939453C.13102214 .18033855 .14355469 .13777669 .16699219 .10571289 .19042969 .073649089 .22672527 .057617189 .2758789 .057617189 .32177735 .057617189 .35839845 .07261658 .3857422 .10261536 .4013672 .12003072 .4124349 .14018758 .4189453 .16308594H.5053711C.50309249 .14398194 .49552409 .122690837 .48266603 .09921265 .46980796 .07574463 .45540367 .05656433 .43945313 .041671754 .4127604 .01576233 .37972007-.0017242432 .34033204-.010787964 .3191732-.01596578 .2952474-.018554688 .2685547-.018554688 .20345052-.018554688 .14827474 .0051472985 .103027347 .05255127 .05777995 .09995524 .03515625 .16634114 .03515625 .25170899 .03515625 .33576457 .057942708 .40401713 .103515628 .45646668 .14908855 .5089264 .20865886 .53515627 .28222657 .53515627M.42236329 .30371095C.41878257 .34191896 .41048179 .37245179 .39746095 .39530946 .3733724 .4377594 .33317057 .45898438 .27685548 .45898438 .23649089 .45898438 .20263672 .44437156 .17529297 .41514588 .14794922 .3859202 .13346355 .34877525 .13183594 .30371095H.42236329M.27392579 .5361328V.5361328Z"/>
<path id="font_3_6" d="M.110839847 .51660159H.21289063V.41015626H.110839847V.51660159M.110839847 .10644531H.21289063V0H.110839847V.10644531Z"/>
<path id="font_3_12" d="M.59814456 .71777346V.63183596H.3564453V0H.2578125V.63183596H.016113282V.71777346H.59814456Z"/>
<path id="font_3_19" d="M.064453128 .71875H.15234375V.45214845C.17317708 .4786682 .19189453 .4973297 .2084961 .50813296 .2368164 .5267995 .2721354 .5361328 .31445313 .5361328 .39029948 .5361328 .44173179 .50957748 .46875 .45646668 .48339845 .42747499 .49072267 .38723756 .49072267 .3357544V0H.40039063V.32958985C.40039063 .3680013 .3955078 .39615885 .3857422 .4140625 .36979167 .44270835 .33984376 .45703126 .29589845 .45703126 .2594401 .45703126 .22639974 .4444987 .19677735 .4194336 .16715496 .3943685 .15234375 .34700523 .15234375 .27734376V0H.064453128V.71875Z"/>
<path id="font_3_5" d="M.041503908 .32421876H.2866211V.23339844H.041503908V.32421876Z"/>
<path id="font_3_27" d="M.11669922 .1640625C.11930338 .13463338 .12662761 .11207072 .13867188 .09637451 .1608073 .06793213 .19921875 .053710939 .25390626 .053710939 .28645835 .053710939 .31510417 .060806276 .33984376 .07499695 .36458335 .08919779 .37695313 .11115011 .37695313 .14085388 .37695313 .16337586 .36702476 .18051148 .34716798 .19226074 .33447267 .19944255 .30940757 .20775859 .27197267 .21720886L.20214844 .2348175C.15755208 .24590557 .12467448 .25829569 .103515628 .27198792 .06575521 .29579164 .046875 .32873027 .046875 .37080384 .046875 .42036439 .064697269 .46046958 .1003418 .49111939 .13598633 .52177938 .18391927 .5371094 .24414063 .5371094 .32291667 .5371094 .37972007 .5139974 .41455079 .46777345 .4363607 .43847657 .4469401 .40690104 .44628907 .37304688H.36328126C.36165367 .39269004 .35465495 .41055808 .34228517 .426651 .32210288 .44950868 .28710938 .4609375 .23730469 .4609375 .20410156 .4609375 .17895508 .45461528 .16186524 .44197084 .14477539 .42933656 .13623047 .41264854 .13623047 .39190675 .13623047 .36922203 .14746094 .35107423 .16992188 .33746339 .1829427 .32936607 .20214844 .32221986 .22753906 .31602479L.28564454 .3018341C.34879557 .28650413 .39111329 .27166749 .41259767 .25732423 .44677735 .23482259 .4638672 .19944255 .4638672 .15118408 .4638672 .10455322 .44620768 .06428019 .41088868 .03036499 .37556968-.0035502117 .32177735-.020507813 .24951172-.020507813 .17171224-.020507813 .116617839-.002802531 .084228519 .032608034 .05183919 .06801859 .034505208 .111836757 .032226564 .1640625H.11669922M.24658203 .5361328V.5361328Z"/>
<path id="font_3_28" d="M.08203125 .66796877H.17089844V.5234375H.25439454V.4501953H.17089844V.110183719C.17089844 .09202576 .17708333 .07986959 .18945313 .07371521 .19628906 .07014465 .2076823 .068359378 .22363281 .068359378 .22786458 .068359378 .23242188 .06846619 .23730469 .06867981 .2421875 .0689036 .24788411 .06944784 .25439454 .0703125V0C.24430339-.0031026204 .23380535-.005340576 .22290039-.006713867 .21199544-.008097331 .20019531-.0087890629 .1875-.0087890629 .14648438-.0087890629 .118652347 .0016988119 .104003909 .02267456 .08935547 .04365031 .08203125 .070882167 .08203125 .10437012V.4501953H.011230469V.5234375H.08203125V.66796877Z"/>
<path id="font_3_18" d="M.24902344 .53222659C.29003907 .53222659 .32584635 .5220744 .3564453 .50177 .37304688 .49030558 .38997398 .4736023 .40722657 .45166017V.5185547H.48828126V.04234314C.48828126-.024154664 .47851563-.07663473 .45898438-.115097049 .42252604-.18615215 .35367839-.22167969 .2524414-.22167969 .1961263-.22167969 .14876302-.20906575 .11035156-.18383789 .0719401-.15861003 .05045573-.119140628 .045898439-.06542969H.1352539C.13948567-.08873495 .14794922-.10669454 .16064453-.11930847 .1805013-.13872783 .2117513-.1484375 .25439454-.1484375 .32177735-.1484375 .3658854-.12467448 .38671876-.07714844 .39908854-.04916382 .40478517 .0007985433 .4038086 .07273865 .38623048 .04588318 .36507163 .025904337 .34033204 .012802124 .31559245-.000289917 .2828776-.0068359377 .2421875-.0068359377 .18554688-.0068359377 .13598633 .013280232 .09350586 .053512575 .05102539 .09375509 .029785157 .16030376 .029785157 .25315858 .029785157 .34080506 .051188154 .40922547 .09399414 .4584198 .13680013 .5076243 .18847656 .53222659 .24902344 .53222659M.40722657 .26342774C.40722657 .328125 .39388023 .37607829 .3671875 .4072876 .34049479 .43849693 .30647788 .45410157 .26513673 .45410157 .20328777 .45410157 .16097005 .4251658 .1381836 .3672943 .12613933 .33641053 .12011719 .29593406 .12011719 .24586487 .12011719 .1870168 .13208008 .14223226 .15600586 .11151123 .17993164 .0807902 .21207683 .06542969 .2524414 .06542969 .31559245 .06542969 .36002604 .09387716 .3857422 .1507721 .4000651 .18295796 .40722657 .22050984 .40722657 .26342774M.25927735 .5361328V.5361328Z"/>
<path id="font_3_25" d="M.28515626 .057617189C.32617188 .057617189 .36027018 .07486979 .38745118 .109375 .41463218 .14389038 .42822267 .1954956 .42822267 .26419068 .42822267 .3060608 .42220054 .34204103 .41015626 .37213136 .38736979 .43003337 .34570313 .45898438 .28515626 .45898438 .22428386 .45898438 .18261719 .42840068 .16015625 .36723329 .14811199 .33451844 .14208985 .29297386 .14208985 .24259949 .14208985 .20204163 .14811199 .16753133 .16015625 .1390686 .1829427 .08476766 .22460938 .057617189 .28515626 .057617189M.057617189 .5205078H.1430664V.45162965C.16064453 .47540284 .17985027 .49379985 .2006836 .5068207 .23030599 .5263621 .26513673 .5361328 .30517579 .5361328 .36442057 .5361328 .41471354 .5133667 .4560547 .46783448 .49739585 .42230226 .5180664 .3572693 .5180664 .2727356 .5180664 .1585083 .48828126 .07691447 .42871095 .027954102 .39095054-.0030517579 .34700523-.018554688 .296875-.018554688 .25748698-.018554688 .22444661-.009984334 .1977539 .007156372 .1821289 .016860962 .16471355 .033518476 .14550781 .057128908V-.20898438H.057617189V.5205078Z"/>
<path id="font_3_20" d="M.064453128 .5205078H.1538086V0H.064453128V.5205078M.064453128 .71777346H.1538086V.61816409H.064453128V.71777346Z"/>
<path id="font_3_21" d="M.06689453 .71777346H.15478516V0H.06689453V.71777346Z"/>
<path id="font_3_23" d="M.064453128 .5234375H.14794922V.44921876C.1726888 .47981773 .19889324 .50179037 .2265625 .5151367 .25423179 .5284831 .2849935 .53515627 .31884767 .53515627 .3930664 .53515627 .44319663 .5092519 .46923829 .45744325 .4835612 .42910258 .49072267 .38853965 .49072267 .3357544V0H.4013672V.3299408C.4013672 .36188255 .39664714 .38762919 .38720704 .4071808 .37158204 .4397634 .34326173 .4560547 .3022461 .4560547 .28141276 .4560547 .2643229 .4539388 .25097657 .44970704 .22688802 .4425354 .20572917 .42819724 .1875 .4066925 .17285156 .38941957 .16333008 .37157694 .15893555 .35316468 .15454102 .3347524 .15234375 .30844117 .15234375 .27423097V0H.064453128V.5234375M.2709961 .5361328V.5361328Z"/>
<path id="font_3_4" d="M.08300781-.10253906C.10546875-.098612468 .12125651-.08274841 .1303711-.0549469 .1352539-.040227254 .13769531-.026000977 .13769531-.012268066 .13769531-.009979248 .13761394-.00793457 .13745117-.006134033 .1372884-.004333496 .13688152-.0022888184 .13623047 0H.08300781V.10644531H.1875V.0078125C.1875-.030924479 .1796875-.064941409 .1640625-.09423828 .1484375-.123535159 .12141927-.14160156 .08300781-.1484375V-.10253906Z"/>
<path id="font_3_24" d="M.27197267 .057617189C.33024089 .057617189 .37019859 .07964579 .3918457 .123703 .41349284 .16776021 .4243164 .21677144 .4243164 .2707367 .4243164 .31950379 .4165039 .35917155 .4008789 .38974 .3761393 .43785606 .3334961 .46191407 .27294923 .46191407 .21923828 .46191407 .18017578 .44143168 .15576172 .40046693 .13134766 .35950218 .119140628 .31008403 .119140628 .25221253 .119140628 .1966095 .13134766 .15027364 .15576172 .113204959 .18017578 .076146449 .21891277 .057617189 .27197267 .057617189M.27539063 .53808596C.34277345 .53808596 .3997396 .5156453 .44628907 .47076417 .49283854 .42588298 .5161133 .35985819 .5161133 .27268983 .5161133 .1884613 .49560548 .11886088 .45458985 .06388855 .41357423 .008926392 .3499349-.018554688 .26367188-.018554688 .19173177-.018554688 .13460286 .00575765 .092285159 .054382326 .04996745 .103006999 .028808594 .16829936 .028808594 .2502594 .028808594 .33806864 .05110677 .4079895 .095703128 .46002198 .14029949 .51206466 .20019531 .53808596 .27539063 .53808596M.27246095 .5361328V.5361328Z"/>
<path id="font_3_29" d="M.15234375 .5234375V.17590332C.15234375 .1491801 .15657552 .12734477 .16503906 .11039734 .18066406 .07911682 .20979817 .06347656 .2524414 .06347656 .3136393 .06347656 .355306 .09085083 .3774414 .14559937 .3894857 .17492676 .3955078 .21516927 .3955078 .2663269V.5234375H.48339845V0H.40039063L.4013672 .0771637C.38997398 .057195028 .3758138 .040339155 .35888673 .02659607 .32535807-.00090026858 .28466798-.0146484379 .2368164-.0146484379 .16227214-.0146484379 .11149088 .010299683 .084472659 .060195924 .06982422 .08693949 .0625 .12265015 .0625 .16732788V.5234375H.15234375M.27294923 .5361328V.5361328Z"/>
<path id="font_3_17" d="M.08642578 .6021576C.08772787 .638443 .09407552 .66500857 .10546875 .68185427 .12597656 .7116597 .16552735 .7265625 .2241211 .7265625 .22965496 .7265625 .23535156 .7263997 .24121094 .7260742 .24707031 .7257487 .2537435 .72526046 .26123048 .7246094V.64453127C.25211589 .6449687 .2455241 .6452382 .24145508 .64533999 .23738607 .64545187 .2335612 .6455078 .22998047 .6455078 .20328777 .6455078 .18733724 .6386719 .1821289 .625 .17692058 .6113281 .1743164 .5764974 .1743164 .5205078H.26123048V.45117188H.17333985V0H.08642578V.45117188H.013671875V.5205078H.08642578V.6021576Z"/>
<path id="font_3_22" d="M.064453128 .5234375H.15136719V.44921876C.17220052 .4749349 .19108074 .49365235 .20800781 .5053711 .23697917 .52522787 .26985679 .53515627 .30664063 .53515627 .34830729 .53515627 .38183595 .52490237 .40722657 .50439456 .42154948 .49267579 .4345703 .4754232 .44628907 .45263673 .4658203 .4806315 .48876954 .5013835 .5151367 .5148926 .5415039 .5284017 .5711263 .53515627 .6040039 .53515627 .6743164 .53515627 .72216799 .5097402 .7475586 .45890809 .76123049 .43154399 .7680664 .3947296 .7680664 .34846498V0H.6767578V.36367799C.6767578 .39853923 .6680501 .42248536 .65063479 .43551637 .6332194 .44855754 .6119792 .45507813 .58691409 .45507813 .5524089 .45507813 .5227051 .44350688 .49780274 .42036439 .4729004 .39723207 .46044923 .35861717 .46044923 .30451966V0H.37109376V.3416748C.37109376 .37719728 .36686198 .4031016 .35839845 .41938783 .3450521 .4438324 .32014976 .4560547 .2836914 .4560547 .25048829 .4560547 .22029622 .44318138 .19311524 .4174347 .16593425 .3916982 .15234375 .34510295 .15234375 .27764894V0H.064453128V.5234375Z"/>
<path id="font_3_31" d="M.39111329 .5234375H.48828126C.47591148 .48987834 .44840495 .41330973 .40576173 .2937317 .3738607 .20380657 .34716798 .13049825 .3256836 .07380676 .27490235-.059921266 .23909505-.14145915 .21826172-.17080689 .19742839-.2001648 .1616211-.21484375 .110839847-.21484375 .098470058-.21484375 .08894857-.21435039 .08227539-.21336365 .07560221-.21238709 .06738281-.21058655 .057617189-.20796204V-.1274414C.072916667-.13167317 .083984378-.13427735 .09082031-.1352539 .09765625-.13623047 .10367838-.13671875 .10888672-.13671875 .12516277-.13671875 .13712566-.1340332 .14477539-.12866211 .15242513-.123291019 .15885417-.11669922 .1640625-.10888672 .16569011-.106282558 .17154949-.092936199 .18164063-.068847659 .19173177-.044759115 .19905599-.026855469 .20361328-.015136719L.010253906 .5234375H.10986328L.25 .09727478 .39111329 .5234375M.24951172 .5361328V.5361328Z"/>
<path id="font_4_1" d="M0 0Z"/>
<path id="font_3_14" d="M.057617189 .71875H.1430664V.45948792C.16227214 .4847056 .18522136 .50394698 .21191406 .5172119 .23860677 .53047689 .26757813 .5371094 .29882813 .5371094 .36393229 .5371094 .41674806 .5147095 .4572754 .46990968 .49780274 .42510987 .5180664 .35905458 .5180664 .27174378 .5180664 .1889801 .49804688 .12022909 .4580078 .06549072 .41796876 .010762532 .36246745-.016601563 .2915039-.016601563 .25179038-.016601563 .21826172-.006942749 .19091797 .012374878 .17464192 .023839316 .15722656 .042175294 .13867188 .06738281V0H.057617189V.71875M.2861328 .061523439C.33365885 .061523439 .36922203 .08037821 .39282228 .11808777 .41642253 .1558075 .42822267 .20555115 .42822267 .26731874 .42822267 .32227073 .41642253 .3677877 .39282228 .40386964 .36922203 .43996177 .33447267 .4580078 .28857423 .4580078 .24853516 .4580078 .21346028 .44321189 .18334961 .41362 .15323894 .3840383 .1381836 .3352712 .1381836 .26731874 .1381836 .21822612 .14436849 .17840068 .15673828 .1478424 .17985027 .090296428 .22298177 .061523439 .2861328 .061523439Z"/>
<path id="font_3_11" d="M.08544922 .71777346H.40820313C.47200523 .71777346 .5234375 .6997884 .5625 .66381838 .6015625 .6278483 .62109377 .5773112 .62109377 .51220706 .62109377 .45621745 .6036784 .4074707 .56884768 .3659668 .5340169 .3244629 .48046876 .30371095 .40820313 .30371095H.18261719V0H.08544922V.71777346M.5229492 .5114746C.5229492 .56410726 .50341799 .5998433 .46435548 .61868289 .4428711 .62875369 .41341148 .63378909 .37597657 .63378909H.18261719V.3857422H.37597657C.41959635 .3857422 .45499674 .39499919 .48217774 .41351319 .5093587 .43203736 .5229492 .46469117 .5229492 .5114746Z"/>
<path id="font_1_16" d="M.07861328 0V.7158203H.3959961C.4597982 .7158203 .5083008 .70939639 .5415039 .69654849 .57470706 .68371078 .601237 .6610362 .62109377 .6285248 .6409505 .59601339 .6508789 .5600891 .6508789 .52075198 .6508789 .47003175 .6344401 .4272766 .6015625 .39248658 .5686849 .3577067 .5179036 .3356018 .44921876 .32617188 .47428385 .31410728 .4933268 .3022054 .50634768 .2904663 .5340169 .2650248 .5602214 .23324077 .58496096 .19511414L.70947268 0H.59033206L.49560548 .14915467C.4679362 .19218445 .44514976 .22510784 .4272461 .2479248 .40934245 .27075196 .39331056 .2867279 .3791504 .29585267 .36499024 .30498759 .35058595 .3113505 .3359375 .3149414 .3251953 .31722007 .3076172 .31835938 .28320313 .31835938H.17333985V0H.07861328M.17333985 .40039063H.37695313C.4202474 .40039063 .45410157 .40485636 .47851563 .41378785 .5029297 .42271934 .5214844 .43701173 .5341797 .45666505 .546875 .47631837 .55322268 .49768067 .55322268 .52075198 .55322268 .5545349 .54093429 .5823059 .5163574 .60406497 .4917806 .62583419 .45296226 .63671877 .39990235 .63671877H.17333985V.40039063Z"/>
<path id="font_1_23" d="M.049804689-.04296875 .1352539-.0546875C.13883464-.08137003 .14876302-.10080465 .16503906-.11299133 .18684896-.12946065 .21663411-.13769531 .25439454-.13769531 .29508464-.13769531 .3264974-.12953694 .3486328-.113220218 .37076823-.09690348 .3857422-.07406616 .3935547-.044708253 .39811198-.026753745 .40022788 .010935466 .39990235 .068359378 .36149089 .022786459 .3136393 0 .25634767 0 .1850586 0 .12988281 .025716147 .09082031 .07714844 .051757814 .12858074 .032226564 .19026692 .032226564 .26220704 .032226564 .3116862 .041178388 .35734049 .05908203 .39916993 .07698568 .44099937 .10294596 .47330729 .13696289 .49609376 .17097982 .5188802 .2109375 .53027346 .25683595 .53027346 .31803385 .53027346 .3684896 .5052083 .40820313 .45507813V.5185547H.4892578V.070007327C.4892578-.010772705 .48103843-.06801859 .4645996-.10173035 .4481608-.1354421 .42211915-.16206868 .3864746-.1816101 .35083009-.2011617 .30696617-.2109375 .2548828-.2109375 .19303386-.2109375 .1430664-.19698079 .10498047-.16906739 .06689453-.14115398 .048502607-.099121097 .049804689-.04296875M.122558597 .26853944C.122558597 .20067851 .1360677 .15116374 .16308594 .11999512 .19010417 .0888265 .22395833 .07324219 .26464845 .07324219 .30501304 .07324219 .3388672 .08874512 .36621095 .11975098 .3935547 .15075684 .40722657 .19938152 .40722657 .265625 .40722657 .3289388 .3931478 .3766683 .36499024 .40881349 .33683268 .44095866 .30289714 .45703126 .2631836 .45703126 .2241211 .45703126 .19091797 .4412028 .16357422 .4095459 .13623047 .377889 .122558597 .33088685 .122558597 .26853944Z"/>
<path id="font_1_11" d="M.5878906 .25146485 .6826172 .22753906C.66276046 .14973958 .6270345 .090413417 .57543948 .049560548 .5238444 .008707683 .46077476-.01171875 .38623048-.01171875 .30908204-.01171875 .24633789 .0039876305 .19799805 .03540039 .1496582 .06681315 .11287435 .11230469 .087646488 .171875 .06241862 .23144531 .049804689 .29541017 .049804689 .36376954 .049804689 .4383138 .06404623 .5033366 .0925293 .5588379 .12101237 .6143392 .16153972 .65649417 .21411133 .68530276 .26668296 .7141113 .32454429 .7285156 .3876953 .7285156 .4593099 .7285156 .51953127 .71028646 .5683594 .6738281 .6171875 .6373698 .6512044 .5861003 .67041018 .52001956L.57714846 .49804688C.5605469 .5501302 .5364583 .5880534 .5048828 .6118164 .47330729 .6355794 .43359376 .64746096 .3857422 .64746096 .33072917 .64746096 .28474937 .63427737 .24780274 .60791018 .21085613 .58154299 .18489583 .5461426 .16992188 .501709 .15494792 .4572754 .14746094 .41145835 .14746094 .3642578 .14746094 .3033854 .15633138 .25024415 .17407227 .20483399 .19181316 .15942383 .21940105 .12548828 .25683595 .103027347 .29427085 .080566409 .3347982 .06933594 .37841798 .06933594 .43147788 .06933594 .47639976 .084635417 .5131836 .115234378 .54996749 .14583333 .5748698 .19124349 .5878906 .25146485Z"/>
<path id="font_1_27" d="M.063964847 0V.7158203H.15185547V0H.063964847Z"/>
<path id="font_1_29" d="M.033203126 .25927735C.033203126 .355306 .059895833 .42643229 .11328125 .47265626 .15787761 .5110677 .21223958 .53027346 .2763672 .53027346 .34765626 .53027346 .40592448 .5069173 .45117188 .46020509 .49641929 .41349284 .51904299 .34895835 .51904299 .26660157 .51904299 .1998698 .5090332 .14737956 .48901368 .10913086 .46899415 .070882167 .43986003 .041178388 .40161134 .020019532 .36336265-.0011393229 .3216146-.01171875 .2763672-.01171875 .20377605-.01171875 .1451009 .011555989 .1003418 .05810547 .055582685 .104654949 .033203126 .17171224 .033203126 .25927735M.123535159 .2590332C.123535159 .19270833 .13802083 .14304607 .16699219 .11004639 .19596355 .077046718 .23242188 .060546876 .2763672 .060546876 .31998698 .060546876 .35628257 .07712809 .3852539 .11029053 .41422526 .14345296 .42871095 .19401042 .42871095 .2619629 .42871095 .32600913 .4141439 .37453208 .38500978 .40753175 .35587565 .4405314 .31966148 .45703126 .2763672 .45703126 .23242188 .45703126 .19596355 .4406128 .16699219 .40777589 .13802083 .37493897 .123535159 .32535807 .123535159 .2590332Z"/>
<path id="font_1_21" d="M.40429688 .19042969 .49072267 .17871094C.48128257 .119140628 .45711265 .072509769 .4182129 .03881836 .37931315 .005126953 .33154298-.01171875 .27490235-.01171875 .2039388-.01171875 .14689128 .011474609 .103759769 .057861329 .060628255 .10424805 .0390625 .17073567 .0390625 .25732423 .0390625 .3133138 .048339845 .3623047 .06689453 .40429688 .08544922 .44628907 .11368815 .4777832 .15161133 .4987793 .1895345 .5197754 .23079427 .53027346 .27539063 .53027346 .33170573 .53027346 .37776695 .5161133 .41357423 .48779298 .4493815 .45948283 .47233073 .419281 .48242188 .3671875L.39697267 .35351563C.38883464 .3881836 .37443034 .41426597 .35375978 .4317627 .3330892 .44925944 .30810548 .4580078 .2788086 .4580078 .23453777 .4580078 .1985677 .44213868 .17089844 .4104004 .14322917 .3786621 .12939453 .32845054 .12939453 .25976563 .12939453 .19010417 .14274089 .13948567 .1694336 .107910159 .1961263 .07633463 .23095703 .060546876 .27392579 .060546876 .308431 .060546876 .3372396 .07116699 .36035157 .09240723 .38346354 .11364746 .39811198 .14632161 .40429688 .19042969Z"/>
<path id="font_1_26" d="M.06640625 0V.7158203H.15429688V.3080597L.3623047 .5185547H.47607423L.27783204 .32589723 .49609376 0H.3876953L.2163086 .26557923 .15429688 .2055664V0H.06640625Z"/>
<path id="font_1_20" d="M.14697266 0H.06542969V.7158203H.15332031V.46044923C.19042969 .5069987 .23779297 .53027346 .29541017 .53027346 .3273112 .53027346 .35750328 .5238444 .38598634 .5109863 .4144694 .49812828 .4379069 .48006187 .45629884 .4567871 .47469078 .43351237 .48909507 .4054362 .49951173 .3725586 .5099284 .339681 .5151367 .30452476 .5151367 .26708985 .5151367 .17822266 .49316407 .10953776 .44921876 .061035158 .40527345 .012532552 .35253907-.01171875 .29101563-.01171875 .2298177-.01171875 .18180339 .013834636 .14697266 .064941409V0M.1459961 .2631836C.1459961 .20100911 .15445964 .15608724 .17138672 .12841797 .19905599 .08317057 .23649089 .060546876 .2836914 .060546876 .32210288 .060546876 .355306 .07722982 .38330079 .1105957 .41129557 .1439616 .42529298 .19368489 .42529298 .25976563 .42529298 .32747398 .41186524 .3774414 .38500978 .40966798 .3581543 .44189454 .3256836 .4580078 .28759767 .4580078 .2491862 .4580078 .21598308 .44132487 .18798828 .40795899 .15999349 .3745931 .1459961 .32633464 .1459961 .2631836Z"/>
<path id="font_1_2" d="M.09082031 0V.10058594H.19091797V0H.09082031Z"/>
<path id="font_1_10" d="M.07324219 0V.7158203H.34179688C.39648438 .7158203 .4403483 .70859786 .47338868 .69415286 .506429 .6797078 .5323079 .65747579 .5510254 .62745669 .56974288 .59743759 .57910159 .566035 .57910159 .5332489 .57910159 .5027415 .5708008 .47401429 .5541992 .44706727 .53759768 .4201304 .51253256 .39838664 .4790039 .38183595 .52229818 .3691101 .5555827 .347407 .5788574 .31672669 .60213217 .28604637 .61376956 .24982198 .61376956 .20805359 .61376956 .1744334 .60668948 .1431834 .5925293 .11430359 .57836917 .08542379 .5608724 .06315104 .54003909 .04748535 .51920577 .03181966 .49308268 .019989014 .46166993 .011993408 .43025718 .0039978029 .3917643 0 .3461914 0H.07324219M.16796875 .41601563H.3227539C.3647461 .41601563 .39485679 .4187673 .41308595 .42427064 .43717448 .43138124 .45532228 .44318138 .4675293 .45967103 .47973634 .47616069 .48583985 .4968516 .48583985 .5217438 .48583985 .54534408 .48014323 .56611636 .46875 .58406069 .45735679 .602005 .44108073 .61428835 .41992188 .62091067 .39876304 .62754318 .36246745 .6308594 .31103517 .6308594H.16796875V.41601563M.16796875 .08496094H.3461914C.37679038 .08496094 .39827476 .08610026 .41064454 .088378909 .43245445 .092285159 .4506836 .09879557 .46533204 .107910159 .47998048 .11702474 .49202476 .13028972 .50146487 .14770508 .51090499 .16512044 .515625 .18522136 .515625 .20800781 .515625 .23470052 .50878909 .2578939 .4951172 .2775879 .4814453 .2972819 .46248374 .31111656 .43823243 .3190918 .4139811 .32706706 .379069 .3310547 .3334961 .3310547H.16796875V.08496094Z"/>
<path id="font_1_6" d="M.041503908 .18847656 .13378906 .1953125C.140625 .15055339 .15649414 .11690267 .18139649 .09436035 .20629883 .07181803 .23632813 .060546876 .27148438 .060546876 .3138021 .060546876 .34960938 .0764974 .37890626 .10839844 .40820313 .14029949 .42285157 .18261719 .42285157 .23535156 .42285157 .28548179 .4087728 .32503257 .38061524 .3540039 .35245768 .38297526 .31559245 .39746095 .27001954 .39746095 .24169922 .39746095 .21614583 .39094035 .19335938 .37789918 .17057292 .364858 .15266927 .34794108 .13964844 .32714845L.057128908 .3388672 .12646485 .70703127H.48242188V.6230469H.19677735L.15820313 .43037416C.20117188 .46051536 .24625652 .47558595 .29345704 .47558595 .35595704 .47558595 .4086914 .45391337 .45166017 .41056825 .4946289 .36723329 .5161133 .31151835 .5161133 .24342346 .5161133 .17857361 .49723307 .122528079 .45947267 .075286868 .41357423 .017283122 .35091148-.01171875 .27148438-.01171875 .2063802-.01171875 .15323894 .006556193 .11206055 .04310608 .070882167 .07965597 .04736328 .1281128 .041503908 .18847656Z"/>
<path id="font_1_3" d="M.041503908 .35327149C.041503908 .43784587 .05021159 .50591537 .06762695 .55747988 .08504232 .6090444 .11092123 .6488139 .14526367 .67678835 .17960613 .70476278 .22281902 .71875 .27490235 .71875 .3133138 .71875 .34700523 .711024 .37597657 .6955719 .4049479 .6801198 .4288737 .6578369 .4477539 .62872317 .46663413 .5996094 .4814453 .56414797 .4921875 .52233889 .5029297 .48053996 .5083008 .42418418 .5083008 .35327149 .5083008 .26934815 .49967448 .2016042 .48242188 .15003968 .46516929 .098475139 .43937174 .058624269 .4050293 .03048706 .37068687 .0023498536 .3273112-.01171875 .27490235-.01171875 .20589192-.01171875 .1516927 .013005574 .11230469 .062454225 .065104167 .12198385 .041503908 .21892293 .041503908 .35327149M.13183594 .35302735C.13183594 .2357076 .14558919 .15762837 .1730957 .11878967 .20060222 .07996114 .23453777 .060546876 .27490235 .060546876 .31526695 .060546876 .34920249 .08004252 .37670899 .11903381 .40421549 .15803528 .41796876 .23603313 .41796876 .35302735 .41796876 .4706726 .40421549 .5488281 .37670899 .5874939 .34920249 .62616989 .3149414 .6455078 .27392579 .6455078 .2335612 .6455078 .20133464 .6284485 .1772461 .59432986 .14697266 .55078127 .13183594 .47034709 .13183594 .35302735Z"/>
<path id="font_1_30" d="M.06591797-.19921875V.5185547H.1459961V.45069886C.1648763 .4772288 .18619792 .49712119 .20996094 .510376 .23372396 .52364096 .26253257 .53027346 .29638673 .53027346 .34065757 .53027346 .37972007 .5188802 .41357423 .49609376 .44742839 .47330729 .47298179 .4411621 .49023438 .3996582 .507487 .3581543 .5161133 .31266276 .5161133 .2631836 .5161133 .2101237 .5065918 .16235352 .48754884 .11987305 .46850587 .07739258 .44083659 .044840497 .40454103 .022216797 .36824546-.00040690104 .33007813-.01171875 .29003907-.01171875 .2607422-.01171875 .23445638-.005533854 .21118164 .0068359377 .1879069 .019205729 .16878255 .03483073 .1538086 .053710939V-.19921875H.06591797M.14550781 .25610353C.14550781 .18945313 .15901692 .14019776 .18603516 .1083374 .21305339 .07647705 .24576824 .060546876 .2841797 .060546876 .3232422 .060546876 .35668946 .077046718 .38452149 .11004639 .41235353 .14304607 .42626954 .19417317 .42626954 .26342774 .42626954 .3294271 .41267906 .3788452 .38549806 .41168214 .35831706 .44451905 .32584635 .4609375 .28808595 .4609375 .25065104 .4609375 .2175293 .4434611 .1887207 .4085083 .15991211 .3735555 .14550781 .3227539 .14550781 .25610353Z"/>
<path id="font_1_32" d="M.030761719 .15527344 .11767578 .16894531C.122558597 .13396199 .1361491 .10714722 .15844727 .08850098 .18074544 .06986491 .21191406 .060546876 .25195313 .060546876 .29231773 .060546876 .32226563 .06876627 .34179688 .08520508 .36132813 .10164388 .37109376 .12093099 .37109376 .1430664 .37109376 .16292317 .36246745 .17854817 .34521485 .1899414 .33317057 .1977539 .30322267 .2076823 .2553711 .21972656 .19091797 .23600261 .14624024 .2500814 .12133789 .2619629 .09643555 .2738444 .077555339 .2902832 .064697269 .3112793 .05183919 .3322754 .045410158 .35546876 .045410158 .38085938 .045410158 .40397135 .05069987 .42537437 .061279298 .44506837 .07185873 .46476237 .08626302 .48111979 .10449219 .49414063 .11816406 .50423178 .13680013 .5127767 .16040039 .5197754 .18400066 .5267741 .20930989 .53027346 .23632813 .53027346 .27701823 .53027346 .31274415 .52441409 .34350587 .5126953 .37426759 .50097659 .39697267 .48510743 .4116211 .4650879 .42626954 .44506837 .4363607 .41829429 .44189454 .38476563L.35595704 .37304688C.35205079 .3997396 .34073893 .4205729 .32202149 .43554688 .30330406 .45052085 .27685548 .4580078 .24267578 .4580078 .2023112 .4580078 .17350261 .45133464 .15625 .43798829 .13899739 .42464195 .1303711 .40901695 .1303711 .39111329 .1303711 .37972007 .13395183 .36946617 .14111328 .36035157 .14827474 .35091148 .1595052 .34309898 .17480469 .33691407 .18359375 .33365885 .20947266 .32617188 .2524414 .31445313 .31461589 .29785157 .35799156 .28426109 .38256837 .27368165 .40714518 .2631022 .42643229 .24772136 .4404297 .22753906 .4544271 .20735677 .46142579 .18229167 .46142579 .15234375 .46142579 .123046878 .45288087 .095458988 .43579103 .06958008 .41870118 .043701173 .39404298 .02368164 .3618164 .009521484 .32958985-.004638672 .2931315-.01171875 .2524414-.01171875 .1850586-.01171875 .13370769 .002319336 .09838867 .030395508 .063069667 .05847168 .040527345 .100097659 .030761719 .15527344Z"/>
<path id="font_1_5" d="M.50341799 .08496094V0H.030273438C.029622397 .0211792 .033040365 .041549684 .040527345 .06111145 .052571615 .09336853 .07185873 .12513733 .09838867 .15641785 .12491862 .18770854 .1632487 .22387696 .2133789 .2649231 .29117839 .32877604 .34375 .37928263 .37109376 .41644288 .3984375 .45360313 .41210938 .488739 .41210938 .5218506 .41210938 .5565796 .3996582 .5858714 .37475587 .60972598 .34985353 .6335805 .3173828 .6455078 .27734376 .6455078 .23502605 .6455078 .20117188 .6328125 .17578125 .6074219 .15039063 .58203127 .13753255 .546875 .13720703 .5019531L.046875 .51171877C.053059896 .57910159 .07633463 .63045248 .11669922 .6657715 .1570638 .7010905 .21126302 .71875 .27929688 .71875 .34798179 .71875 .40234376 .6997121 .4423828 .66163638 .48242188 .6235606 .5024414 .57637026 .5024414 .5200653 .5024414 .49142967 .49658204 .4632772 .48486329 .4356079 .47314454 .40794883 .45369468 .37882487 .42651368 .34823609 .39933268 .3176473 .35416667 .27570597 .29101563 .22241211 .23828125 .17822266 .20442708 .14824422 .18945313 .1324768 .17447917 .11671957 .16210938 .10088094 .15234375 .08496094H.50341799Z"/>
<path id="font_1_4" d="M.3725586 0H.28466798V.5600586C.26350913 .5398763 .23575847 .51969406 .20141602 .49951173 .16707357 .47932945 .13623047 .46419273 .10888672 .45410157V.5390625C.15804036 .5621745 .20100911 .59016928 .23779297 .6230469 .2745768 .6559245 .3006185 .6878255 .31591798 .71875H.3725586V0Z"/>
<path id="font_1_12" d="M.07714844 0V.7158203H.32373048C.37939454 .7158203 .421875 .71240237 .45117188 .7055664 .4921875 .6961263 .52718099 .67903646 .55615237 .6542969 .5939128 .6223958 .6221517 .5816243 .64086917 .5319824 .6595866 .48234049 .6689453 .4256185 .6689453 .3618164 .6689453 .30745445 .66259768 .25927735 .64990237 .21728516 .63720706 .17529297 .62093099 .14054363 .6010742 .11303711 .58121749 .0855306 .55948898 .06388346 .5358887 .048095704 .5122884 .03230794 .48380534 .020345053 .45043946 .012207031 .41707359 .0040690104 .3787435 0 .33544923 0H.07714844M.171875 .08496094H.32470704C.37190757 .08496094 .40893556 .0893453 .43579103 .09811401 .46264649 .106892909 .48404948 .11924235 .5 .13516236 .52246096 .1575826 .5399577 .1877187 .55249026 .22557068 .56502279 .26343284 .57128909 .30933128 .57128909 .363266 .57128909 .43800355 .5590007 .49543763 .5344238 .53556826 .509847 .57569888 .47998048 .6025899 .44482423 .61624148 .4194336 .62598678 .37858073 .6308594 .32226563 .6308594H.171875V.08496094Z"/>
<path id="font_1_19" d="M.40429688 .06542969C.37174479 .03722127 .34041343 .017308554 .31030274 .0056915285 .28019206-.0059153239 .24788411-.01171875 .2133789-.01171875 .15641277-.01171875 .11263021 .0021972657 .08203125 .030029297 .051432294 .057861329 .036132814 .09342448 .036132814 .13671875 .036132814 .16210938 .04191081 .18530274 .053466798 .20629883 .06502279 .22729492 .08015951 .24414063 .09887695 .25683595 .1175944 .26953126 .13867188 .27913413 .16210938 .28564454 .17936199 .2902018 .20540364 .29459635 .24023438 .29882813 .3111979 .30729167 .363444 .3173828 .39697267 .32910157 .3972982 .34109498 .39746095 .3487142 .39746095 .35195924 .39746095 .38763429 .38916017 .4127655 .3725586 .4273529 .35009767 .44713847 .31673179 .45703126 .27246095 .45703126 .2311198 .45703126 .20060222 .44978843 .1809082 .43530274 .16121419 .42081706 .14664714 .39518229 .13720703 .35839845L.05126953 .3701172C.05908203 .40701295 .0719401 .43680827 .08984375 .45950318 .1077474 .4821981 .1336263 .4996643 .16748047 .51190188 .20133464 .5241496 .24055989 .53027346 .28515626 .53027346 .3294271 .53027346 .36539714 .52504476 .3930664 .5145874 .4207357 .5041402 .44108073 .49099223 .45410157 .47514344 .4671224 .4593048 .47623698 .43929545 .4814453 .41511537 .484375 .40009056 .48583985 .3731028 .48583985 .33415223V.21730042C.48583985 .13582866 .48771159 .084228519 .49145509 .0625 .49519859 .040771486 .5026042 .01993815 .5136719 0H.421875C.4127604 .01864624 .40690104 .040456136 .40429688 .06542969M.39697267 .25976563C.36507163 .24680583 .31722007 .23578899 .25341798 .22671509 .21728516 .22153728 .19173177 .21570842 .17675781 .20922852 .16178386 .20274861 .15022786 .1932729 .14208985 .18080139 .13395183 .16832988 .12988281 .15447998 .12988281 .13925171 .12988281 .11592611 .13875325 .09648641 .15649414 .08093262 .17423503 .065389 .20019531 .057617189 .234375 .057617189 .26822917 .057617189 .29833985 .06499735 .32470704 .07975769 .35107423 .0945282 .37044273 .114705409 .3828125 .1402893 .3922526 .16003418 .39697267 .18917339 .39697267 .22770691V.25976563Z"/>
<path id="font_1_35" d="M.06201172-.20025635 .052246095-.11816406C.07145182-.1233724 .08821615-.12597656 .10253906-.12597656 .12207031-.12597656 .13769531-.12271627 .14941406-.11619568 .16113281-.10967509 .17073567-.10054525 .17822266-.08880615 .18375652-.08000692 .19270833-.058166505 .20507813-.023284913 .20670574-.018391928 .20930989-.011220296 .21289063-.0017700195L.016113282 .5185547H.110839847L.21875 .21817017C.23274739 .18007405 .24527996 .14002483 .25634767 .09802246 .2664388 .13847859 .27848307 .17790222 .29248048 .21629334L.4033203 .5185547H.49121095L.2939453-.008728027C.27278648-.06584676 .25634767-.10517883 .2446289-.12672425 .2290039-.15577698 .21110027-.17707317 .19091797-.1906128 .17073567-.2041626 .14664714-.2109375 .118652347-.2109375 .10172526-.2109375 .082845058-.20737712 .06201172-.20025635Z"/>
<path id="font_1_8" d="M.5283203 .421875H.055664064V.50390627H.5283203V.421875M.5283203 .20410156H.055664064V.2861328H.5283203V.20410156Z"/>
<path id="font_1_24" d="M.06591797 0V.7158203H.1538086V.4585266C.19482422 .50635787 .24658203 .53027346 .30908204 .53027346 .3474935 .53027346 .38085938 .5227051 .4091797 .50756838 .4375 .49243165 .45776368 .47151695 .4699707 .44482423 .48217774 .4181315 .48828126 .37939454 .48828126 .32861329V0H.40039063V.32826234C.40039063 .37215678 .39086915 .4041036 .37182618 .42410279 .3527832 .44410197 .32584635 .45410157 .29101563 .45410157 .26497398 .45410157 .24047852 .44735209 .2175293 .43385316 .19458008 .42036439 .17822266 .4020742 .16845703 .37898255 .1586914 .3559011 .1538086 .32403565 .1538086 .28338624V0H.06591797Z"/>
<path id="font_1_31" d="M.064941409 0V.5185547H.14404297V.4399414C.16422527 .47672526 .18286133 .50097659 .19995117 .5126953 .21704102 .52441409 .23583985 .53027346 .25634767 .53027346 .28597007 .53027346 .31608073 .5208333 .3466797 .5019531L.31640626 .4204712C.29492188 .43312583 .2734375 .43945313 .25195313 .43945313 .23274739 .43945313 .2154948 .43367515 .20019531 .42211915 .18489583 .41056315 .17399089 .39453126 .16748047 .37402345 .15771485 .34277345 .15283203 .30859376 .15283203 .27148438V0H.064941409Z"/>
<path id="font_1_34" d="M.40576173 0V.0766449C.36539714 .0177358 .31054688-.01171875 .24121094-.01171875 .21061199-.01171875 .18204753-.005859375 .15551758 .005859375 .12898763 .017578125 .10929362 .03230794 .09643555 .050048829 .08357748 .06778971 .07454427 .08951823 .06933594 .115234378 .06575521 .13248699 .063964847 .15983074 .063964847 .19726563V.5185547H.15185547V.2312622C.15185547 .18541463 .15364583 .15452576 .15722656 .13859558 .16276042 .115503948 .17447917 .09737142 .19238281 .084198 .21028646 .07103475 .23242188 .064453128 .25878907 .064453128 .28515626 .064453128 .30989585 .07119751 .3330078 .08468628 .35611979 .09818522 .3724772 .1165568 .38208009 .13980103 .39168296 .16305542 .39648438 .1967926 .39648438 .24101258V.5185547H.484375V0H.40576173Z"/>
<path id="font_1_33" d="M.2578125 .07861328 .2705078 .0009765625C.24576824-.004231771 .22363281-.0068359377 .20410156-.0068359377 .17220052-.0068359377 .14746094-.0017903646 .12988281 .008300781 .11230469 .018391928 .0999349 .031656904 .09277344 .048095704 .08561198 .06453451 .08203125 .099121097 .08203125 .15185547V.4501953H.017578125V.5185547H.08203125V.64697268L.1694336 .69970706V.5185547H.2578125V.4501953H.1694336V.14697266C.1694336 .121907558 .17097982 .10579427 .17407227 .09863281 .17716472 .09147135 .18221028 .08577474 .18920899 .08154297 .19620769 .077311199 .20621746 .07519531 .21923828 .07519531 .2290039 .07519531 .24186199 .07633463 .2578125 .07861328Z"/>
<path id="font_1_7" d="M.17675781 .38893128C.14029949 .4022471 .11328125 .4212443 .095703128 .44592286 .078125 .47061158 .06933594 .50016787 .06933594 .5345917 .06933594 .5865631 .08805338 .630249 .12548828 .6656494 .16292317 .7010498 .21272786 .71875 .27490235 .71875 .33740235 .71875 .3876953 .7006429 .42578126 .6644287 .4638672 .62821456 .48291017 .5841268 .48291017 .5321655 .48291017 .4990336 .47420249 .47020469 .4567871 .4456787 .43937174 .42116294 .4129232 .4022471 .3774414 .38893128 .42138673 .37459819 .45483399 .35147096 .4777832 .31954957 .5007324 .28762818 .51220706 .2495168 .51220706 .20521546 .51220706 .14397685 .4905599 .09250895 .44726563 .050811769 .40397135 .009124756 .34700523-.01171875 .2763672-.01171875 .20572917-.01171875 .14876302 .009206136 .10546875 .05105591 .06217448 .092915859 .040527345 .14511617 .040527345 .20765686 .040527345 .25423686 .052327474 .2932434 .075927738 .3246765 .09952799 .35610963 .13313802 .37752787 .17675781 .38893128M.15917969 .5375824C.15917969 .5038808 .17008464 .47633363 .19189453 .4549408 .21370442 .43354798 .24202474 .42285157 .27685548 .42285157 .31070964 .42285157 .3384603 .43346659 .36010743 .45469667 .38175456 .47592674 .39257813 .50193789 .39257813 .5327301 .39257813 .56481429 .38142906 .5917918 .35913087 .6136627 .33683268 .6355438 .30908204 .6464844 .2758789 .6464844 .24235027 .6464844 .21451824 .63578799 .19238281 .61439517 .17024739 .5930023 .15917969 .5673981 .15917969 .5375824M.13085938 .20703125C.13085938 .18196614 .13680013 .15771485 .14868164 .13427735 .16056316 .110839847 .17822266 .092692058 .20166016 .079833988 .22509766 .066975917 .25032554 .060546876 .27734376 .060546876 .31933595 .060546876 .3540039 .07405599 .38134767 .10107422 .4086914 .12809246 .42236329 .16243489 .42236329 .20410156 .42236329 .24641927 .40828453 .28141276 .38012696 .30908204 .3519694 .3367513 .31673179 .35058595 .27441407 .35058595 .23307292 .35058595 .19881185 .33691407 .17163086 .3095703 .14444988 .28222657 .13085938 .24804688 .13085938 .20703125Z"/>
<path id="font_1_13" d="M.41210938 .28027345V.36523438H.71533206V.09996033C.66878256 .06289164 .62076827 .035008748 .57128909 .016311646 .5218099-.002375285 .47102867-.01171875 .4189453-.01171875 .3486328-.01171875 .28474937 .0033365887 .22729492 .033447267 .1698405 .063557948 .12646485 .10709635 .09716797 .1640625 .067871097 .22102864 .053222658 .28466798 .053222658 .35498048 .053222658 .42464195 .06778971 .4896647 .09692383 .5500488 .12605794 .6104329 .16796875 .65527346 .22265625 .6845703 .27734376 .7138672 .34033204 .7285156 .4116211 .7285156 .4633789 .7285156 .51017257 .7201233 .55200198 .7033386 .59383139 .68655398 .6266276 .6631724 .6503906 .63319399 .6741536 .6032155 .69222006 .56411239 .70458987 .5158844L.6191406 .4924469C.60839846 .5289459 .59505209 .5576274 .57910159 .5784912 .56315109 .59936526 .54036459 .6160787 .5107422 .6286316 .48111979 .6411845 .4482422 .64746096 .41210938 .64746096 .3688151 .64746096 .33138023 .6408641 .2998047 .6276703 .26822917 .6144765 .24275716 .59712728 .22338867 .57562258 .20402019 .55411788 .18896485 .53049728 .17822266 .50476077 .15999349 .46044923 .1508789 .4123942 .1508789 .3605957 .1508789 .29674278 .16186524 .24331157 .18383789 .20030213 .20581055 .15729268 .23779297 .12536113 .27978517 .10450745 .32177735 .08366394 .3663737 .07324219 .41357423 .07324219 .45458985 .07324219 .4946289 .08111572 .5336914 .09686279 .5727539 .11262003 .6023763 .12943013 .6225586 .14729309V.28027345H.41210938Z"/>
<path id="font_1_14" d="M.09326172 0V.7158203H.18798828V0H.09326172Z"/>
<path id="font_1_15" d="M.07714844 0V.7158203H.34716798C.394694 .7158203 .4309896 .7135417 .4560547 .7089844 .49121095 .703125 .5206706 .6919759 .5444336 .6755371 .5681966 .6590983 .587321 .6360677 .60180667 .6064453 .6162923 .57682296 .62353518 .5442708 .62353518 .50878909 .62353518 .44791667 .6041667 .39640299 .5654297 .35424806 .5266927 .3120931 .45670573 .29101563 .35546876 .29101563H.171875V0H.07714844M.171875 .37597657H.3569336C.4181315 .37597657 .46158854 .387324 .4873047 .41001893 .5130208 .432724 .5258789 .46466575 .5258789 .5058441 .5258789 .5356801 .51831057 .56121829 .5031738 .5824585 .4880371 .60369876 .46809898 .6177266 .44335938 .62454226 .42740885 .62875369 .39794923 .6308594 .35498048 .6308594H.171875V.37597657Z"/>
<path id="font_1_17" d="M.044921876 .23046875 .13427735 .23828125C.13850911 .20247396 .14835613 .1730957 .16381836 .15014649 .1792806 .12719727 .20328777 .10864258 .23583985 .09448242 .26839195 .080322269 .30501304 .07324219 .34570313 .07324219 .38183595 .07324219 .41373698 .07861328 .44140626 .08935547 .46907554 .100097659 .4896647 .11482748 .5031738 .13354492 .5166829 .15226238 .5234375 .17263794 .5234375 .19467163 .5234375 .21703084 .51692709 .23655193 .50390627 .25323487 .4908854 .26992799 .46940104 .28396098 .43945313 .29533387 .4202474 .3028005 .37776695 .31440736 .31201173 .33015443 .24625652 .3459015 .20019531 .36078898 .17382813 .3748169 .13964844 .39275108 .11417643 .41500855 .09741211 .44158937 .08064779 .46817018 .072265628 .4979299 .072265628 .53086856 .072265628 .5670726 .08251953 .60091146 .103027347 .63238528 .123535159 .66385909 .15348308 .6877492 .1928711 .7040558 .23225911 .72036239 .27604167 .7285156 .32421876 .7285156 .37727867 .7285156 .42407228 .7199707 .4645996 .70288088 .50512698 .685791 .5362956 .66064456 .55810549 .6274414 .57991537 .5942383 .5916341 .5566406 .5932617 .51464846L.5024414 .5078125C.4975586 .5525818 .48103843 .58639529 .45288087 .6092529 .4247233 .6321208 .38313804 .6435547 .328125 .6435547 .27083335 .6435547 .22908528 .6330821 .20288086 .61213687 .17667644 .5912018 .16357422 .5659587 .16357422 .5364075 .16357422 .5107625 .17285156 .48965965 .19140625 .47309876 .20963542 .45653788 .25724284 .4395701 .33422853 .42219544 .4112142 .40483094 .46402995 .38965354 .49267579 .3766632 .53434249 .357488 .5651042 .33320109 .58496096 .3038025 .6048177 .2744039 .6147461 .24053955 .6147461 .20220948 .6147461 .16419475 .6038411 .12837728 .58203127 .09475708 .5602214 .061136884 .52888998 .03498332 .4880371 .016296387 .44718424-.002380371 .40120445-.01171875 .35009767-.01171875 .285319-.01171875 .2310384-.0022786458 .18725586 .016601563 .14347331 .03548177 .10913086 .06388346 .084228519 .10180664 .059326173 .13972982 .046223958 .18261719 .044921876 .23046875Z"/>
<path id="font_1_9" d="M-.0014648438 0 .2734375 .7158203H.37548829L.66845706 0H.5605469L.47705079 .21679688H.17773438L.099121097 0H-.0014648438M.20507813 .2939453H.4477539L.37304688 .4923706C.3502604 .5525004 .33333335 .6022441 .32226563 .64160159 .31315104 .59510299 .30029298 .5492045 .2836914 .50390627L.20507813 .2939453Z"/>
<path id="font_3_7" d="M.44433595 .2939453 .33544923 .61120608 .21972656 .2939453H.44433595M.28466798 .71777346H.39453126L.65478518 0H.54833987L.47558595 .21484375H.19189453L.11425781 0H.0146484379L.28466798 .71777346M.33496095 .71777346V.71777346Z"/>
<path id="font_3_8" d="M.34570313 .4140625C.38671876 .4140625 .41861979 .4197693 .44140626 .43118287 .47721354 .4491272 .4951172 .48142497 .4951172 .5280762 .4951172 .57506307 .47607423 .6067098 .43798829 .62301638 .4165039 .6321513 .38460288 .63671877 .34228517 .63671877H.16894531V.4140625H.34570313M.37841798 .08300781C.43798829 .08300781 .48046876 .100224819 .5058594 .13465882 .5218099 .15642803 .52978518 .18274434 .52978518 .21360779 .52978518 .26559959 .50651046 .30101524 .45996095 .31985475 .43522135 .32992555 .4025065 .33496095 .3618164 .33496095H.16894531V.08300781H.37841798M.07373047 .71777346H.38183595C.4658203 .71777346 .5255534 .6926575 .56103518 .64242556 .58186849 .6127421 .59228518 .5784963 .59228518 .5396881 .59228518 .49434916 .57942709 .45716349 .55371096 .4281311 .54036459 .41280113 .5211589 .3987783 .49609376 .38606263 .5328776 .3720754 .5603841 .35629273 .5786133 .3387146 .61083987 .30748496 .6269531 .26437379 .6269531 .2093811 .6269531 .16317749 .61246749 .12136841 .5834961 .08395386 .54020187 .02798462 .47135417 0 .37695313 0H.07373047V.71777346Z"/>
<path id="font_3_9" d="M.37841798 .7373047C.46923829 .7373047 .53971359 .71332809 .58984377 .66537478 .63997396 .61742147 .66780599 .5629476 .67333987 .5019531H.5786133C.5678711 .54817709 .5464681 .58479818 .5144043 .6118164 .48234049 .63883468 .43733726 .65234377 .37939454 .65234377 .3087565 .65234377 .25170899 .62754318 .20825196 .5779419 .16479492 .52834066 .1430664 .45231629 .1430664 .34986878 .1430664 .26594544 .16267903 .19788106 .2019043 .14567566 .24112956 .09348043 .29964195 .06738281 .3774414 .06738281 .449056 .06738281 .50358077 .094823207 .5410156 .14970398 .5608724 .17860413 .5756836 .21659343 .5854492 .26367188H.6801758C.6717122 .18815105 .64371749 .12483724 .5961914 .07373047 .5392253 .012207031 .46240235-.018554688 .36572267-.018554688 .2823893-.018554688 .21240235 .006688436 .15576172 .057174684 .081217449 .12394714 .043945314 .2270406 .043945314 .36645509 .043945314 .47232057 .0719401 .5591278 .12792969 .62687686 .18847656 .7004954 .27197267 .7373047 .37841798 .7373047M.35888673 .7373047V.7373047Z"/>
</defs>
<g clip-path="url(#clip_0)">
<path transform="matrix(1,0,0,-1,-59.4557,482.783)" d="M36 36H756V576H36Z" fill="#ffffff"/>
<path transform="matrix(1,0,0,-1,48.5443,336.533)" stroke-width="1" stroke-linecap="butt" stroke-linejoin="round" fill="none" stroke="#000000" d="M0 0H394"/>
<path transform="matrix(1,0,0,-1,438.5443,339.533)" d="M0 0 6 3 0 6Z" fill-rule="evenodd"/>
<use data-text="T" xlink:href="#font_1_18" transform="matrix(16,0,0,-16,108.5444,332.033)"/>
<use data-text="i" xlink:href="#font_1_25" transform="matrix(16,0,0,-16,117.72841,332.033)"/>
<use data-text="m" xlink:href="#font_1_28" transform="matrix(16,0,0,-16,121.28041,332.033)"/>
<use data-text="e" xlink:href="#font_1_22" transform="matrix(16,0,0,-16,134.60842,332.033)"/>
<use data-text=" " xlink:href="#font_1_1" transform="matrix(16,0,0,-16,143.50441,332.033)"/>
<path transform="matrix(1,0,0,-1,-59.4557,482.783)" d="M48 242.75H114V218.75H48Z" fill="#ffffff" fill-rule="evenodd"/>
<use data-text="I" xlink:href="#font_2_5" transform="matrix(16,0,0,-16,27.744297,258.43299)"/>
<use data-text="1" xlink:href="#font_2_2" transform="matrix(16,0,0,-16,37.344297,258.43299)"/>
<use data-text=" " xlink:href="#font_2_1" transform="matrix(16,0,0,-16,46.944295,258.43299)"/>
<path transform="matrix(1,0,0,-1,-59.4557,482.783)" d="M48 218.75H114V194.75H48Z" fill="#ffffff" fill-rule="evenodd"/>
<use data-text="I" xlink:href="#font_2_5" transform="matrix(16,0,0,-16,27.744297,282.43299)"/>
<use data-text="2" xlink:href="#font_2_3" transform="matrix(16,0,0,-16,37.344297,282.43299)"/>
<use data-text=" " xlink:href="#font_2_1" transform="matrix(16,0,0,-16,46.944295,282.43299)"/>
<path transform="matrix(1,0,0,-1,-59.4557,482.783)" d="M48 194.75H114V170.75H48Z" fill="#ffffff" fill-rule="evenodd"/>
<use data-text="I" xlink:href="#font_2_5" transform="matrix(16,0,0,-16,27.744297,306.43299)"/>
<use data-text="3" xlink:href="#font_2_4" transform="matrix(16,0,0,-16,37.344297,306.43299)"/>
<use data-text=" " xlink:href="#font_2_1" transform="matrix(16,0,0,-16,46.944295,306.43299)"/>
<use data-text="(" xlink:href="#font_3_2" transform="matrix(18,0,0,-18,1.7443009,211.25809)"/>
<use data-text="a" xlink:href="#font_3_13" transform="matrix(18,0,0,-18,7.7383005,211.25809)"/>
<use data-text=")" xlink:href="#font_3_3" transform="matrix(18,0,0,-18,17.746304,211.25809)"/>
<use data-text=" " xlink:href="#font_3_1" transform="matrix(18,0,0,-18,23.740307,211.25809)"/>
<use data-text="H" xlink:href="#font_3_10" transform="matrix(18,0,0,-18,28.744305,211.25809)"/>
<use data-text="a" xlink:href="#font_3_13" transform="matrix(18,0,0,-18,41.740308,211.25809)"/>
<use data-text="r" xlink:href="#font_3_26" transform="matrix(18,0,0,-18,51.74831,211.25809)"/>
<use data-text="d" xlink:href="#font_3_15" transform="matrix(18,0,0,-18,57.742315,211.25809)"/>
<use data-text="w" xlink:href="#font_3_30" transform="matrix(18,0,0,-18,67.75032,211.25809)"/>
<use data-text="a" xlink:href="#font_3_13" transform="matrix(18,0,0,-18,80.74631,211.25809)"/>
<use data-text="r" xlink:href="#font_3_26" transform="matrix(18,0,0,-18,90.7543,211.25809)"/>
<use data-text="e" xlink:href="#font_3_16" transform="matrix(18,0,0,-18,96.74831,211.25809)"/>
<use data-text=":" xlink:href="#font_3_6" transform="matrix(18,0,0,-18,106.7563,211.25809)"/>
<use data-text=" " xlink:href="#font_3_1" transform="matrix(18,0,0,-18,111.7603,211.25809)"/>
<use data-text="T" xlink:href="#font_3_12" transform="matrix(18,0,0,-18,116.44029,211.25809)"/>
<use data-text="h" xlink:href="#font_3_19" transform="matrix(18,0,0,-18,127.43829,211.25809)"/>
<use data-text="r" xlink:href="#font_3_26" transform="matrix(18,0,0,-18,137.44629,211.25809)"/>
<use data-text="e" xlink:href="#font_3_16" transform="matrix(18,0,0,-18,143.44029,211.25809)"/>
<use data-text="e" xlink:href="#font_3_16" transform="matrix(18,0,0,-18,153.44829,211.25809)"/>
<use data-text="-" xlink:href="#font_3_5" transform="matrix(18,0,0,-18,163.45629,211.25809)"/>
<use data-text="s" xlink:href="#font_3_27" transform="matrix(18,0,0,-18,169.45029,211.25809)"/>
<use data-text="t" xlink:href="#font_3_28" transform="matrix(18,0,0,-18,178.45029,211.25809)"/>
<use data-text="a" xlink:href="#font_3_13" transform="matrix(18,0,0,-18,183.45429,211.25809)"/>
<use data-text="g" xlink:href="#font_3_18" transform="matrix(18,0,0,-18,193.46228,211.25809)"/>
<use data-text="e" xlink:href="#font_3_16" transform="matrix(18,0,0,-18,203.47029,211.25809)"/>
<use data-text=" " xlink:href="#font_3_1" transform="matrix(18,0,0,-18,213.47829,211.25809)"/>
<use data-text="p" xlink:href="#font_3_25" transform="matrix(18,0,0,-18,218.48229,211.25809)"/>
<use data-text="i" xlink:href="#font_3_20" transform="matrix(18,0,0,-18,228.49028,211.25809)"/>
<use data-text="p" xlink:href="#font_3_25" transform="matrix(18,0,0,-18,232.48628,211.25809)"/>
<use data-text="e" xlink:href="#font_3_16" transform="matrix(18,0,0,-18,242.49428,211.25809)"/>
<use data-text="l" xlink:href="#font_3_21" transform="matrix(18,0,0,-18,252.50228,211.25809)"/>
<use data-text="i" xlink:href="#font_3_20" transform="matrix(18,0,0,-18,256.4983,211.25809)"/>
<use data-text="n" xlink:href="#font_3_23" transform="matrix(18,0,0,-18,260.4943,211.25809)"/>
<use data-text="e" xlink:href="#font_3_16" transform="matrix(18,0,0,-18,270.5023,211.25809)"/>
<use data-text="," xlink:href="#font_3_4" transform="matrix(18,0,0,-18,280.51029,211.25809)"/>
<use data-text=" " xlink:href="#font_3_1" transform="matrix(18,0,0,-18,285.51429,211.25809)"/>
<use data-text="n" xlink:href="#font_3_23" transform="matrix(18,0,0,-18,290.51829,211.25809)"/>
<use data-text="o" xlink:href="#font_3_24" transform="matrix(18,0,0,-18,300.52629,211.25809)"/>
<use data-text="n" xlink:href="#font_3_23" transform="matrix(18,0,0,-18,310.53428,211.25809)"/>
<use data-text="u" xlink:href="#font_3_29" transform="matrix(18,0,0,-18,320.54228,211.25809)"/>
<use data-text="n" xlink:href="#font_3_23" transform="matrix(18,0,0,-18,330.55027,211.25809)"/>
<use data-text="i" xlink:href="#font_3_20" transform="matrix(18,0,0,-18,340.55827,211.25809)"/>
<use data-text="f" xlink:href="#font_3_17" transform="matrix(18,0,0,-18,344.55427,211.25809)"/>
<use data-text="o" xlink:href="#font_3_24" transform="matrix(18,0,0,-18,349.55827,211.25809)"/>
<use data-text="r" xlink:href="#font_3_26" transform="matrix(18,0,0,-18,359.56626,211.25809)"/>
<use data-text="m" xlink:href="#font_3_22" transform="matrix(18,0,0,-18,365.56025,211.25809)"/>
<use data-text=" " xlink:href="#font_3_1" transform="matrix(18,0,0,-18,380.55424,211.25809)"/>
<use data-text="s" xlink:href="#font_3_27" transform="matrix(18,0,0,-18,385.55824,211.25809)"/>
<use data-text="t" xlink:href="#font_3_28" transform="matrix(18,0,0,-18,394.55824,211.25809)"/>
<use data-text="a" xlink:href="#font_3_13" transform="matrix(18,0,0,-18,399.56224,211.25809)"/>
<use data-text="g" xlink:href="#font_3_18" transform="matrix(18,0,0,-18,409.57023,211.25809)"/>
<use data-text="e" xlink:href="#font_3_16" transform="matrix(18,0,0,-18,419.57823,211.25809)"/>
<use data-text=" " xlink:href="#font_3_1" transform="matrix(18,0,0,-18,429.5862,211.25809)"/>
<use data-text="d" xlink:href="#font_3_15" transform="matrix(18,0,0,-18,434.5902,211.25809)"/>
<use data-text="e" xlink:href="#font_3_16" transform="matrix(18,0,0,-18,444.5982,211.25809)"/>
<use data-text="l" xlink:href="#font_3_21" transform="matrix(18,0,0,-18,454.6062,211.25809)"/>
<use data-text="a" xlink:href="#font_3_13" transform="matrix(18,0,0,-18,458.60218,211.25809)"/>
<use data-text="y" xlink:href="#font_3_31" transform="matrix(18,0,0,-18,468.61018,211.25809)"/>
<use data-text="s" xlink:href="#font_3_27" transform="matrix(18,0,0,-18,477.61018,211.25809)"/>
<use data-text="&#xfffd;" xlink:href="#font_4_1" transform="matrix(18,0,0,-18,486.61018,211.25809)"/>
<use data-text="(" xlink:href="#font_3_2" transform="matrix(18,0,0,-18,1.7443009,372.3761)"/>
<use data-text="b" xlink:href="#font_3_14" transform="matrix(18,0,0,-18,7.7383005,372.3761)"/>
<use data-text=")" xlink:href="#font_3_3" transform="matrix(18,0,0,-18,17.746304,372.3761)"/>
<use data-text=" " xlink:href="#font_3_1" transform="matrix(18,0,0,-18,23.740307,372.3761)"/>
<use data-text="P" xlink:href="#font_3_11" transform="matrix(18,0,0,-18,28.744305,372.3761)"/>
<use data-text="i" xlink:href="#font_3_20" transform="matrix(18,0,0,-18,40.75031,372.3761)"/>
<use data-text="p" xlink:href="#font_3_25" transform="matrix(18,0,0,-18,44.74631,372.3761)"/>
<use data-text="e" xlink:href="#font_3_16" transform="matrix(18,0,0,-18,54.754316,372.3761)"/>
<use data-text="l" xlink:href="#font_3_21" transform="matrix(18,0,0,-18,64.762317,372.3761)"/>
<use data-text="i" xlink:href="#font_3_20" transform="matrix(18,0,0,-18,68.758319,372.3761)"/>
<use data-text="n" xlink:href="#font_3_23" transform="matrix(18,0,0,-18,72.75432,372.3761)"/>
<use data-text="e" xlink:href="#font_3_16" transform="matrix(18,0,0,-18,82.762317,372.3761)"/>
<use data-text=" " xlink:href="#font_3_1" transform="matrix(18,0,0,-18,92.77031,372.3761)"/>
<use data-text="d" xlink:href="#font_3_15" transform="matrix(18,0,0,-18,97.77431,372.3761)"/>
<use data-text="i" xlink:href="#font_3_20" transform="matrix(18,0,0,-18,107.7823,372.3761)"/>
<use data-text="a" xlink:href="#font_3_13" transform="matrix(18,0,0,-18,111.778308,372.3761)"/>
<use data-text="g" xlink:href="#font_3_18" transform="matrix(18,0,0,-18,121.7863,372.3761)"/>
<use data-text="r" xlink:href="#font_3_26" transform="matrix(18,0,0,-18,131.7943,372.3761)"/>
<use data-text="a" xlink:href="#font_3_13" transform="matrix(18,0,0,-18,137.7883,372.3761)"/>
<use data-text="m" xlink:href="#font_3_22" transform="matrix(18,0,0,-18,147.7963,372.3761)"/>
<use data-text="&#xfffd;" xlink:href="#font_4_1" transform="matrix(18,0,0,-18,162.7903,372.3761)"/>
<path transform="matrix(1,0,0,-1,-59.4557,482.783)" d="M174.5 453.75H191.5V352.75H174.5Z" fill="#ffffff" fill-rule="evenodd"/>
<path transform="matrix(1,0,0,-1,115.0443,29.03299)" stroke-width="1" stroke-linecap="butt" stroke-miterlimit="8" stroke-linejoin="miter" fill="none" stroke="#000000" d="M0 0H17V-101H0Z"/>
<use data-text="R" xlink:href="#font_1_16" transform="matrix(16,0,0,-16,118.1693,66.733)"/>
<use data-text=" " xlink:href="#font_1_1" transform="matrix(16,0,0,-16,129.7213,66.733)"/>
<use data-text="e" xlink:href="#font_1_22" transform="matrix(16,0,0,-16,119.1613,85.725009)"/>
<use data-text=" " xlink:href="#font_1_1" transform="matrix(16,0,0,-16,128.0573,85.725009)"/>
<use data-text="g" xlink:href="#font_1_23" transform="matrix(16,0,0,-16,119.1613,104.71701)"/>
<use data-text=" " xlink:href="#font_1_1" transform="matrix(16,0,0,-16,128.0573,104.71701)"/>
<path transform="matrix(1,0,0,-1,6.5443,76.53299)" stroke-width="4" stroke-linecap="butt" stroke-linejoin="round" fill="none" stroke="#434dd6" d="M0 0H32"/>
<path transform="matrix(1,0,0,-1,30.5443,70.53299)" d="M0 0 12-6 0-12Z" fill="#434dd6" fill-rule="evenodd"/>
<path transform="matrix(1,0,0,-1,78.5443,76.53299)" stroke-width="4" stroke-linecap="butt" stroke-linejoin="round" fill="none" stroke="#434dd6" d="M0 0H32"/>
<path transform="matrix(1,0,0,-1,102.5443,70.53299)" d="M0 0 12-6 0-12Z" fill="#434dd6" fill-rule="evenodd"/>
<path transform="matrix(1,0,0,-1,126.5443,130.53299)" stroke-width="1" stroke-linecap="butt" stroke-linejoin="round" fill="none" stroke="#000000" d="M0 0V-16.25"/>
<use data-text="C" xlink:href="#font_1_11" transform="matrix(16,0,0,-16,462.5443,178.28299)"/>
<use data-text="l" xlink:href="#font_1_27" transform="matrix(16,0,0,-16,474.0963,178.28299)"/>
<use data-text="o" xlink:href="#font_1_29" transform="matrix(16,0,0,-16,477.64833,178.28299)"/>
<use data-text="c" xlink:href="#font_1_21" transform="matrix(16,0,0,-16,486.5443,178.28299)"/>
<use data-text="k" xlink:href="#font_1_26" transform="matrix(16,0,0,-16,494.5443,178.28299)"/>
<use data-text=" " xlink:href="#font_1_1" transform="matrix(16,0,0,-16,502.5443,178.28299)"/>
<path transform="matrix(1,0,0,-1,-59.4557,482.783)" d="M372.5 453.75H389.5V352.75H372.5Z" fill="#ffffff" fill-rule="evenodd"/>
<path transform="matrix(1,0,0,-1,313.0443,29.03299)" stroke-width="1" stroke-linecap="butt" stroke-miterlimit="8" stroke-linejoin="miter" fill="none" stroke="#000000" d="M0 0H17V-101H0Z"/>
<use data-text="R" xlink:href="#font_1_16" transform="matrix(16,0,0,-16,316.1693,66.733)"/>
<use data-text=" " xlink:href="#font_1_1" transform="matrix(16,0,0,-16,327.7213,66.733)"/>
<use data-text="e" xlink:href="#font_1_22" transform="matrix(16,0,0,-16,317.16133,85.725009)"/>
<use data-text=" " xlink:href="#font_1_1" transform="matrix(16,0,0,-16,326.0573,85.725009)"/>
<use data-text="g" xlink:href="#font_1_23" transform="matrix(16,0,0,-16,317.16133,104.71701)"/>
<use data-text=" " xlink:href="#font_1_1" transform="matrix(16,0,0,-16,326.0573,104.71701)"/>
<path transform="matrix(1,0,0,-1,132.5443,76.53299)" stroke-width="4" stroke-linecap="butt" stroke-linejoin="round" fill="none" stroke="#434dd6" d="M0 0H32"/>
<path transform="matrix(1,0,0,-1,156.5443,70.53299)" d="M0 0 12-6 0-12Z" fill="#434dd6" fill-rule="evenodd"/>
<path transform="matrix(1,0,0,-1,276.5443,76.53299)" stroke-width="4" stroke-linecap="butt" stroke-linejoin="round" fill="none" stroke="#434dd6" d="M0 0H32"/>
<path transform="matrix(1,0,0,-1,300.5443,70.53299)" d="M0 0 12-6 0-12Z" fill="#434dd6" fill-rule="evenodd"/>
<path transform="matrix(1,0,0,-1,324.5443,130.53299)" stroke-width="1" stroke-linecap="butt" stroke-linejoin="round" fill="none" stroke="#000000" d="M0 0V-16.25"/>
<path transform="matrix(1,0,0,-1,-59.4557,482.783)" d="M228 453.75H335.5V352.75H228Z" fill="#d4feff" fill-rule="evenodd"/>
<path transform="matrix(1,0,0,-1,168.5443,29.03299)" stroke-width="1" stroke-linecap="butt" stroke-miterlimit="8" stroke-linejoin="miter" fill="none" stroke="#000000" d="M0 0H107.5V-101H0Z"/>
<use data-text="C" xlink:href="#font_1_11" transform="matrix(16,0,0,-16,198.6693,66.733)"/>
<use data-text="o" xlink:href="#font_1_29" transform="matrix(16,0,0,-16,210.2213,66.733)"/>
<use data-text="m" xlink:href="#font_1_28" transform="matrix(16,0,0,-16,219.1173,66.733)"/>
<use data-text="b" xlink:href="#font_1_20" transform="matrix(16,0,0,-16,232.4453,66.733)"/>
<use data-text="." xlink:href="#font_1_2" transform="matrix(16,0,0,-16,241.3413,66.733)"/>
<use data-text=" " xlink:href="#font_1_1" transform="matrix(16,0,0,-16,245.78929,66.733)"/>
<use data-text="l" xlink:href="#font_1_27" transform="matrix(16,0,0,-16,205.6613,85.725009)"/>
<use data-text="o" xlink:href="#font_1_29" transform="matrix(16,0,0,-16,209.2133,85.725009)"/>
<use data-text="g" xlink:href="#font_1_23" transform="matrix(16,0,0,-16,218.1093,85.725009)"/>
<use data-text="i" xlink:href="#font_1_25" transform="matrix(16,0,0,-16,227.0053,85.725009)"/>
<use data-text="c" xlink:href="#font_1_21" transform="matrix(16,0,0,-16,230.5573,85.725009)"/>
<use data-text=" " xlink:href="#font_1_1" transform="matrix(16,0,0,-16,238.5573,85.725009)"/>
<use data-text="B" xlink:href="#font_1_10" transform="matrix(16,0,0,-16,216.6533,104.71701)"/>
<use data-text=" " xlink:href="#font_1_1" transform="matrix(16,0,0,-16,227.3253,104.71701)"/>
<path transform="matrix(1,0,0,-1,-59.4557,482.783)" d="M534.5 453.75H551.5V352.75H534.5Z" fill="#ffffff" fill-rule="evenodd"/>
<path transform="matrix(1,0,0,-1,475.04414,29.03299)" stroke-width="1" stroke-linecap="butt" stroke-miterlimit="8" stroke-linejoin="miter" fill="none" stroke="#000000" d="M0 0H17V-101H0Z"/>
<use data-text="R" xlink:href="#font_1_16" transform="matrix(16,0,0,-16,478.1692,66.733)"/>
<use data-text=" " xlink:href="#font_1_1" transform="matrix(16,0,0,-16,489.7212,66.733)"/>
<use data-text="e" xlink:href="#font_1_22" transform="matrix(16,0,0,-16,479.1612,85.725009)"/>
<use data-text=" " xlink:href="#font_1_1" transform="matrix(16,0,0,-16,488.0572,85.725009)"/>
<use data-text="g" xlink:href="#font_1_23" transform="matrix(16,0,0,-16,479.1612,104.71701)"/>
<use data-text=" " xlink:href="#font_1_1" transform="matrix(16,0,0,-16,488.0572,104.71701)"/>
<path transform="matrix(1,0,0,-1,330.54423,76.53299)" stroke-width="4" stroke-linecap="butt" stroke-linejoin="round" fill="none" stroke="#434dd6" d="M0 0H32"/>
<path transform="matrix(1,0,0,-1,354.54423,70.53299)" d="M0 0 12-6 0-12Z" fill="#434dd6" fill-rule="evenodd"/>
<path transform="matrix(1,0,0,-1,438.54423,76.53299)" stroke-width="4" stroke-linecap="butt" stroke-linejoin="round" fill="none" stroke="#434dd6" d="M0 0H32"/>
<path transform="matrix(1,0,0,-1,462.5442,70.53299)" d="M0 0 12-6 0-12Z" fill="#434dd6" fill-rule="evenodd"/>
<path transform="matrix(1,0,0,-1,486.54414,130.53299)" stroke-width="1" stroke-linecap="butt" stroke-linejoin="round" fill="none" stroke="#000000" d="M0 0V-34.25"/>
<path transform="matrix(1,0,0,-1,-59.4557,482.783)" d="M426.5 453.75H497.5V352.75H426.5Z" fill="#d4feff" fill-rule="evenodd"/>
<path transform="matrix(1,0,0,-1,367.04423,29.03299)" stroke-width="1" stroke-linecap="butt" stroke-miterlimit="8" stroke-linejoin="miter" fill="none" stroke="#000000" d="M0 0H71V-101H0Z"/>
<use data-text="C" xlink:href="#font_1_11" transform="matrix(16,0,0,-16,379.1693,66.733)"/>
<use data-text="o" xlink:href="#font_1_29" transform="matrix(16,0,0,-16,390.7213,66.733)"/>
<use data-text="m" xlink:href="#font_1_28" transform="matrix(16,0,0,-16,399.6173,66.733)"/>
<use data-text="b" xlink:href="#font_1_20" transform="matrix(16,0,0,-16,412.9453,66.733)"/>
<use data-text="." xlink:href="#font_1_2" transform="matrix(16,0,0,-16,421.8413,66.733)"/>
<use data-text=" " xlink:href="#font_1_1" transform="matrix(16,0,0,-16,426.2893,66.733)"/>
<use data-text="l" xlink:href="#font_1_27" transform="matrix(16,0,0,-16,386.16133,85.725009)"/>
<use data-text="o" xlink:href="#font_1_29" transform="matrix(16,0,0,-16,389.71333,85.725009)"/>
<use data-text="g" xlink:href="#font_1_23" transform="matrix(16,0,0,-16,398.6093,85.725009)"/>
<use data-text="i" xlink:href="#font_1_25" transform="matrix(16,0,0,-16,407.5053,85.725009)"/>
<use data-text="c" xlink:href="#font_1_21" transform="matrix(16,0,0,-16,411.0573,85.725009)"/>
<use data-text=" " xlink:href="#font_1_1" transform="matrix(16,0,0,-16,419.0573,85.725009)"/>
<use data-text="C" xlink:href="#font_1_11" transform="matrix(16,0,0,-16,397.15333,104.71701)"/>
<use data-text=" " xlink:href="#font_1_1" transform="matrix(16,0,0,-16,408.70533,104.71701)"/>
<use data-text="5" xlink:href="#font_1_6" transform="matrix(16,0,0,-16,41.15331,16.269013)"/>
<use data-text="0" xlink:href="#font_1_3" transform="matrix(16,0,0,-16,50.049314,16.269013)"/>
<use data-text=" " xlink:href="#font_1_1" transform="matrix(16,0,0,-16,58.945318,16.269013)"/>
<use data-text="p" xlink:href="#font_1_30" transform="matrix(16,0,0,-16,63.393316,16.269013)"/>
<use data-text="s" xlink:href="#font_1_32" transform="matrix(16,0,0,-16,72.28931,16.269013)"/>
<use data-text=" " xlink:href="#font_1_1" transform="matrix(16,0,0,-16,75.84131,16.269013)"/>
<use data-text="2" xlink:href="#font_1_5" transform="matrix(16,0,0,-16,102.52931,16.269013)"/>
<use data-text="0" xlink:href="#font_1_3" transform="matrix(16,0,0,-16,111.42531,16.269013)"/>
<use data-text=" " xlink:href="#font_1_1" transform="matrix(16,0,0,-16,120.321308,16.269013)"/>
<use data-text="p" xlink:href="#font_1_30" transform="matrix(16,0,0,-16,124.7693,16.269013)"/>
<use data-text="s" xlink:href="#font_1_32" transform="matrix(16,0,0,-16,133.6653,16.269013)"/>
<use data-text=" " xlink:href="#font_1_1" transform="matrix(16,0,0,-16,141.6653,16.269013)"/>
<use data-text="1" xlink:href="#font_1_4" transform="matrix(16,0,0,-16,196.64131,16.269013)"/>
<use data-text="5" xlink:href="#font_1_6" transform="matrix(16,0,0,-16,205.53731,16.269013)"/>
<use data-text="0" xlink:href="#font_1_3" transform="matrix(16,0,0,-16,214.4333,16.269013)"/>
<use data-text=" " xlink:href="#font_1_1" transform="matrix(16,0,0,-16,223.3293,16.269013)"/>
<use data-text="p" xlink:href="#font_1_30" transform="matrix(16,0,0,-16,227.7773,16.269013)"/>
<use data-text="s" xlink:href="#font_1_32" transform="matrix(16,0,0,-16,236.6733,16.269013)"/>
<use data-text=" " xlink:href="#font_1_1" transform="matrix(16,0,0,-16,240.2253,16.269013)"/>
<use data-text="2" xlink:href="#font_1_5" transform="matrix(16,0,0,-16,300.52934,16.269013)"/>
<use data-text="0" xlink:href="#font_1_3" transform="matrix(16,0,0,-16,309.42533,16.269013)"/>
<use data-text=" " xlink:href="#font_1_1" transform="matrix(16,0,0,-16,318.32133,16.269013)"/>
<use data-text="p" xlink:href="#font_1_30" transform="matrix(16,0,0,-16,322.76933,16.269013)"/>
<use data-text="s" xlink:href="#font_1_32" transform="matrix(16,0,0,-16,331.6653,16.269013)"/>
<use data-text=" " xlink:href="#font_1_1" transform="matrix(16,0,0,-16,339.6653,16.269013)"/>
<use data-text="1" xlink:href="#font_1_4" transform="matrix(16,0,0,-16,380.03334,16.269013)"/>
<use data-text="0" xlink:href="#font_1_3" transform="matrix(16,0,0,-16,388.92933,16.269013)"/>
<use data-text="0" xlink:href="#font_1_3" transform="matrix(16,0,0,-16,397.82533,16.269013)"/>
<use data-text=" " xlink:href="#font_1_1" transform="matrix(16,0,0,-16,406.7213,16.269013)"/>
<use data-text="p" xlink:href="#font_1_30" transform="matrix(16,0,0,-16,411.1693,16.269013)"/>
<use data-text="s" xlink:href="#font_1_32" transform="matrix(16,0,0,-16,420.0653,16.269013)"/>
<use data-text=" " xlink:href="#font_1_1" transform="matrix(16,0,0,-16,428.0653,16.269013)"/>
<use data-text="2" xlink:href="#font_1_5" transform="matrix(16,0,0,-16,462.5293,16.269013)"/>
<use data-text="0" xlink:href="#font_1_3" transform="matrix(16,0,0,-16,471.4253,16.269013)"/>
<use data-text=" " xlink:href="#font_1_1" transform="matrix(16,0,0,-16,480.3213,16.269013)"/>
<use data-text="p" xlink:href="#font_1_30" transform="matrix(16,0,0,-16,484.7693,16.269013)"/>
<use data-text="s" xlink:href="#font_1_32" transform="matrix(16,0,0,-16,493.66529,16.269013)"/>
<use data-text=" " xlink:href="#font_1_1" transform="matrix(16,0,0,-16,501.66529,16.269013)"/>
<path transform="matrix(1,0,0,-1,126.5443,146.78299)" stroke-width="1" stroke-linecap="butt" stroke-linejoin="round" fill="none" stroke="#000000" d="M0 0H360"/>
<use data-text="D" xlink:href="#font_1_12" transform="matrix(16,0,0,-16,504.5443,76.28299)"/>
<use data-text="e" xlink:href="#font_1_22" transform="matrix(16,0,0,-16,516.0963,76.28299)"/>
<use data-text="l" xlink:href="#font_1_27" transform="matrix(16,0,0,-16,524.9923,76.28299)"/>
<use data-text="a" xlink:href="#font_1_19" transform="matrix(16,0,0,-16,528.5443,76.28299)"/>
<use data-text="y" xlink:href="#font_1_35" transform="matrix(16,0,0,-16,537.4403,76.28299)"/>
<use data-text=" " xlink:href="#font_1_1" transform="matrix(16,0,0,-16,545.4403,76.28299)"/>
<use data-text="=" xlink:href="#font_1_8" transform="matrix(16,0,0,-16,549.8883,76.28299)"/>
<use data-text=" " xlink:href="#font_1_1" transform="matrix(16,0,0,-16,559.2323,76.28299)"/>
<use data-text="5" xlink:href="#font_1_6" transform="matrix(16,0,0,-16,563.6803,76.28299)"/>
<use data-text="1" xlink:href="#font_1_4" transform="matrix(16,0,0,-16,572.5763,76.28299)"/>
<use data-text="0" xlink:href="#font_1_3" transform="matrix(16,0,0,-16,581.4723,76.28299)"/>
<use data-text=" " xlink:href="#font_1_1" transform="matrix(16,0,0,-16,590.3683,76.28299)"/>
<use data-text="p" xlink:href="#font_1_30" transform="matrix(16,0,0,-16,594.8163,76.28299)"/>
<use data-text="s" xlink:href="#font_1_32" transform="matrix(16,0,0,-16,603.7123,76.28299)"/>
<use data-text=" " xlink:href="#font_1_1" transform="matrix(16,0,0,-16,611.7123,76.28299)"/>
<use data-text="T" xlink:href="#font_1_18" transform="matrix(16,0,0,-16,504.5443,95.274997)"/>
<use data-text="h" xlink:href="#font_1_24" transform="matrix(16,0,0,-16,514.3203,95.274997)"/>
<use data-text="r" xlink:href="#font_1_31" transform="matrix(16,0,0,-16,523.2163,95.274997)"/>
<use data-text="o" xlink:href="#font_1_29" transform="matrix(16,0,0,-16,528.5443,95.274997)"/>
<use data-text="u" xlink:href="#font_1_34" transform="matrix(16,0,0,-16,537.4403,95.274997)"/>
<use data-text="g" xlink:href="#font_1_23" transform="matrix(16,0,0,-16,546.3363,95.274997)"/>
<use data-text="h" xlink:href="#font_1_24" transform="matrix(16,0,0,-16,555.2323,95.274997)"/>
<use data-text="p" xlink:href="#font_1_30" transform="matrix(16,0,0,-16,564.1283,95.274997)"/>
<use data-text="u" xlink:href="#font_1_34" transform="matrix(16,0,0,-16,573.0243,95.274997)"/>
<use data-text="t" xlink:href="#font_1_33" transform="matrix(16,0,0,-16,581.9203,95.274997)"/>
<use data-text=" " xlink:href="#font_1_1" transform="matrix(16,0,0,-16,586.3683,95.274997)"/>
<use data-text="=" xlink:href="#font_1_8" transform="matrix(16,0,0,-16,590.8163,95.274997)"/>
<use data-text=" " xlink:href="#font_1_1" transform="matrix(16,0,0,-16,600.1603,95.274997)"/>
<use data-text="5" xlink:href="#font_1_6" transform="matrix(16,0,0,-16,604.6083,95.274997)"/>
<use data-text="." xlink:href="#font_1_2" transform="matrix(16,0,0,-16,613.5043,95.274997)"/>
<use data-text="8" xlink:href="#font_1_7" transform="matrix(16,0,0,-16,617.9523,95.274997)"/>
<use data-text="8" xlink:href="#font_1_7" transform="matrix(16,0,0,-16,626.84829,95.274997)"/>
<use data-text=" " xlink:href="#font_1_1" transform="matrix(16,0,0,-16,635.74429,95.274997)"/>
<use data-text="G" xlink:href="#font_1_13" transform="matrix(16,0,0,-16,640.19229,95.274997)"/>
<use data-text="I" xlink:href="#font_1_14" transform="matrix(16,0,0,-16,652.64028,95.274997)"/>
<use data-text="P" xlink:href="#font_1_15" transform="matrix(16,0,0,-16,657.08828,95.274997)"/>
<use data-text="S" xlink:href="#font_1_17" transform="matrix(16,0,0,-16,667.76028,95.274997)"/>
<use data-text=" " xlink:href="#font_1_1" transform="matrix(16,0,0,-16,678.43228,95.274997)"/>
<path transform="matrix(1,0,0,-1,-59.4557,482.783)" d="M102 456H138V355H102Z" fill="#d4feff" fill-rule="evenodd"/>
<path transform="matrix(1,0,0,-1,42.5443,26.78299)" stroke-width="1" stroke-linecap="butt" stroke-miterlimit="8" stroke-linejoin="miter" fill="none" stroke="#000000" d="M0 0H36V-101H0Z"/>
<use data-text="C" xlink:href="#font_1_11" transform="matrix(12,0,0,-12,42.6693,65.28299)"/>
<use data-text="o" xlink:href="#font_1_29" transform="matrix(12,0,0,-12,51.3333,65.28299)"/>
<use data-text="m" xlink:href="#font_1_28" transform="matrix(12,0,0,-12,58.0053,65.28299)"/>
<use data-text="b" xlink:href="#font_1_20" transform="matrix(12,0,0,-12,68.0013,65.28299)"/>
<use data-text="." xlink:href="#font_1_2" transform="matrix(12,0,0,-12,74.673297,65.28299)"/>
<use data-text=" " xlink:href="#font_1_1" transform="matrix(12,0,0,-12,78.00929,65.28299)"/>
<use data-text="l" xlink:href="#font_1_27" transform="matrix(12,0,0,-12,47.673299,79.28699)"/>
<use data-text="o" xlink:href="#font_1_29" transform="matrix(12,0,0,-12,50.3373,79.28699)"/>
<use data-text="g" xlink:href="#font_1_23" transform="matrix(12,0,0,-12,57.009298,79.28699)"/>
<use data-text="i" xlink:href="#font_1_25" transform="matrix(12,0,0,-12,63.681295,79.28699)"/>
<use data-text="c" xlink:href="#font_1_21" transform="matrix(12,0,0,-12,66.34529,79.28699)"/>
<use data-text=" " xlink:href="#font_1_1" transform="matrix(12,0,0,-12,72.34529,79.28699)"/>
<use data-text="A" xlink:href="#font_1_9" transform="matrix(16,0,0,-16,55.6693,97.28299)"/>
<use data-text=" " xlink:href="#font_1_1" transform="matrix(16,0,0,-16,65.4613,97.28299)"/>
<path transform="matrix(1,0,0,-1,-59.4557,482.783)" d="M120 242.25H144V218.25H120Z" fill="#76d6ff" fill-rule="evenodd"/>
<path transform="matrix(1,0,0,-1,60.5443,240.53299)" stroke-width=".75" stroke-linecap="butt" stroke-miterlimit="8" stroke-linejoin="miter" fill="none" stroke="#000000" d="M0 0H24V-24H0Z"/>
<use data-text="A" xlink:href="#font_3_7" transform="matrix(16,0,0,-16,66.74429,258.93299)"/>
<use data-text="&#xfffd;" xlink:href="#font_4_1" transform="matrix(16,0,0,-16,77.41629,258.93299)"/>
<path transform="matrix(1,0,0,-1,-59.4557,482.783)" d="M192 242.25H264V218.25H192Z" fill="#76d6ff" fill-rule="evenodd"/>
<path transform="matrix(1,0,0,-1,132.5443,240.53299)" stroke-width=".75" stroke-linecap="butt" stroke-miterlimit="8" stroke-linejoin="miter" fill="none" stroke="#000000" d="M0 0H72V-24H0Z"/>
<use data-text="B" xlink:href="#font_3_8" transform="matrix(16,0,0,-16,162.7443,258.93299)"/>
<use data-text="&#xfffd;" xlink:href="#font_4_1" transform="matrix(16,0,0,-16,173.41629,258.93299)"/>
<path transform="matrix(1,0,0,-1,-59.4557,482.783)" d="M264 242.25H312V218.25H264Z" fill="#76d6ff" fill-rule="evenodd"/>
<path transform="matrix(1,0,0,-1,204.5443,240.53299)" stroke-width=".75" stroke-linecap="butt" stroke-miterlimit="8" stroke-linejoin="miter" fill="none" stroke="#000000" d="M0 0H48V-24H0Z"/>
<use data-text="C" xlink:href="#font_3_9" transform="matrix(16,0,0,-16,222.74431,258.93299)"/>
<use data-text="&#xfffd;" xlink:href="#font_4_1" transform="matrix(16,0,0,-16,234.29631,258.93299)"/>
<path transform="matrix(1,0,0,-1,60.5443,240.53299)" stroke-width=".75" stroke-linecap="butt" stroke-miterlimit="8" stroke-linejoin="miter" fill="none" stroke="#000000" d="M0 0H72V-24H0Z"/>
<path transform="matrix(1,0,0,-1,204.5443,240.53299)" stroke-width=".75" stroke-linecap="butt" stroke-miterlimit="8" stroke-linejoin="miter" fill="none" stroke="#000000" d="M0 0H72V-24H0Z"/>
<path transform="matrix(1,0,0,-1,-59.4557,482.783)" d="M192 218.25H216V194.25H192Z" fill="#76d6ff" fill-rule="evenodd"/>
<path transform="matrix(1,0,0,-1,132.5443,264.533)" stroke-width=".75" stroke-linecap="butt" stroke-miterlimit="8" stroke-linejoin="miter" fill="none" stroke="#000000" d="M0 0H24V-24H0Z"/>
<use data-text="A" xlink:href="#font_3_7" transform="matrix(16,0,0,-16,138.7443,282.93299)"/>
<use data-text="&#xfffd;" xlink:href="#font_4_1" transform="matrix(16,0,0,-16,149.41629,282.93299)"/>
<path transform="matrix(1,0,0,-1,-59.4557,482.783)" d="M264 218.25H336V194.25H264Z" fill="#76d6ff" fill-rule="evenodd"/>
<path transform="matrix(1,0,0,-1,204.5443,264.533)" stroke-width=".75" stroke-linecap="butt" stroke-miterlimit="8" stroke-linejoin="miter" fill="none" stroke="#000000" d="M0 0H72V-24H0Z"/>
<use data-text="B" xlink:href="#font_3_8" transform="matrix(16,0,0,-16,234.74431,282.93299)"/>
<use data-text="&#xfffd;" xlink:href="#font_4_1" transform="matrix(16,0,0,-16,245.4163,282.93299)"/>
<path transform="matrix(1,0,0,-1,-59.4557,482.783)" d="M336 218.25H384V194.25H336Z" fill="#76d6ff" fill-rule="evenodd"/>
<path transform="matrix(1,0,0,-1,276.5443,264.533)" stroke-width=".75" stroke-linecap="butt" stroke-miterlimit="8" stroke-linejoin="miter" fill="none" stroke="#000000" d="M0 0H48V-24H0Z"/>
<use data-text="C" xlink:href="#font_3_9" transform="matrix(16,0,0,-16,294.74433,282.93299)"/>
<use data-text="&#xfffd;" xlink:href="#font_4_1" transform="matrix(16,0,0,-16,306.29634,282.93299)"/>
<path transform="matrix(1,0,0,-1,132.5443,264.533)" stroke-width=".75" stroke-linecap="butt" stroke-miterlimit="8" stroke-linejoin="miter" fill="none" stroke="#000000" d="M0 0H72V-24H0Z"/>
<path transform="matrix(1,0,0,-1,276.5443,264.533)" stroke-width=".75" stroke-linecap="butt" stroke-miterlimit="8" stroke-linejoin="miter" fill="none" stroke="#000000" d="M0 0H72V-24H0Z"/>
<path transform="matrix(1,0,0,-1,-59.4557,482.783)" d="M264 194.25H288V170.25H264Z" fill="#76d6ff" fill-rule="evenodd"/>
<path transform="matrix(1,0,0,-1,204.5443,288.533)" stroke-width=".75" stroke-linecap="butt" stroke-miterlimit="8" stroke-linejoin="miter" fill="none" stroke="#000000" d="M0 0H24V-24H0Z"/>
<use data-text="A" xlink:href="#font_3_7" transform="matrix(16,0,0,-16,210.74431,306.93299)"/>
<use data-text="&#xfffd;" xlink:href="#font_4_1" transform="matrix(16,0,0,-16,221.4163,306.93299)"/>
<path transform="matrix(1,0,0,-1,-59.4557,482.783)" d="M336 194.25H408V170.25H336Z" fill="#76d6ff" fill-rule="evenodd"/>
<path transform="matrix(1,0,0,-1,276.5443,288.533)" stroke-width=".75" stroke-linecap="butt" stroke-miterlimit="8" stroke-linejoin="miter" fill="none" stroke="#000000" d="M0 0H72V-24H0Z"/>
<use data-text="B" xlink:href="#font_3_8" transform="matrix(16,0,0,-16,306.74433,306.93299)"/>
<use data-text="&#xfffd;" xlink:href="#font_4_1" transform="matrix(16,0,0,-16,317.41633,306.93299)"/>
<path transform="matrix(1,0,0,-1,-59.4557,482.783)" d="M408 194.25H456V170.25H408Z" fill="#76d6ff" fill-rule="evenodd"/>
<path transform="matrix(1,0,0,-1,348.54423,288.533)" stroke-width=".75" stroke-linecap="butt" stroke-miterlimit="8" stroke-linejoin="miter" fill="none" stroke="#000000" d="M0 0H48V-24H0Z"/>
<use data-text="C" xlink:href="#font_3_9" transform="matrix(16,0,0,-16,366.74433,306.93299)"/>
<use data-text="&#xfffd;" xlink:href="#font_4_1" transform="matrix(16,0,0,-16,378.29634,306.93299)"/>
<path transform="matrix(1,0,0,-1,204.5443,288.533)" stroke-width=".75" stroke-linecap="butt" stroke-miterlimit="8" stroke-linejoin="miter" fill="none" stroke="#000000" d="M0 0H72V-24H0Z"/>
<path transform="matrix(1,0,0,-1,348.54423,288.533)" stroke-width=".75" stroke-linecap="butt" stroke-miterlimit="8" stroke-linejoin="miter" fill="none" stroke="#000000" d="M0 0H72V-24H0Z"/>
</g>
</svg>
