<svg xmlns="http://www.w3.org/2000/svg" xmlns:xlink="http://www.w3.org/1999/xlink" version="1.1" width="325.8174pt" height="177.57498pt" viewBox="0 0 325.8174 177.57498">
<defs>
<clipPath id="clip_0">
<path transform="matrix(1,0,0,-1,-87.2016,456.623)" d="M87.2016 279.048H413.019V456.623H87.2016Z" fill-rule="evenodd"/>
</clipPath>
<path id="font_1_2" d="M.34570313 .4140625C.38671876 .4140625 .41861979 .4197693 .44140626 .43118287 .47721354 .4491272 .4951172 .48142497 .4951172 .5280762 .4951172 .57506307 .47607423 .6067098 .43798829 .62301638 .4165039 .6321513 .38460288 .63671877 .34228517 .63671877H.16894531V.4140625H.34570313M.37841798 .08300781C.43798829 .08300781 .48046876 .100224819 .5058594 .13465882 .5218099 .15642803 .52978518 .18274434 .52978518 .21360779 .52978518 .26559959 .50651046 .30101524 .45996095 .31985475 .43522135 .32992555 .4025065 .33496095 .3618164 .33496095H.16894531V.08300781H.37841798M.07373047 .71777346H.38183595C.4658203 .71777346 .5255534 .6926575 .56103518 .64242556 .58186849 .6127421 .59228518 .5784963 .59228518 .5396881 .59228518 .49434916 .57942709 .45716349 .55371096 .4281311 .54036459 .41280113 .5211589 .3987783 .49609376 .38606263 .5328776 .3720754 .5603841 .35629273 .5786133 .3387146 .61083987 .30748496 .6269531 .26437379 .6269531 .2093811 .6269531 .16317749 .61246749 .12136841 .5834961 .08395386 .54020187 .02798462 .47135417 0 .37695313 0H.07373047V.71777346Z"/>
<path id="font_1_8" d="M.064453128 .5205078H.1538086V0H.064453128V.5205078M.064453128 .71777346H.1538086V.61816409H.064453128V.71777346Z"/>
<path id="font_1_11" d="M.08203125 .66796877H.17089844V.5234375H.25439454V.4501953H.17089844V.110183719C.17089844 .09202576 .17708333 .07986959 .18945313 .07371521 .19628906 .07014465 .2076823 .068359378 .22363281 .068359378 .22786458 .068359378 .23242188 .06846619 .23730469 .06867981 .2421875 .0689036 .24788411 .06944784 .25439454 .0703125V0C.24430339-.0031026204 .23380535-.005340576 .22290039-.006713867 .21199544-.008097331 .20019531-.0087890629 .1875-.0087890629 .14648438-.0087890629 .118652347 .0016988119 .104003909 .02267456 .08935547 .04365031 .08203125 .070882167 .08203125 .10437012V.4501953H.011230469V.5234375H.08203125V.66796877Z"/>
<path id="font_1_1" d="M0 0Z"/>
<path id="font_1_3" d="M.07373047 .71777346H.21289063L.4189453 .11091614 .62353518 .71777346H.76123049V0H.6689453V.42362977C.6689453 .43828837 .6692708 .46255494 .6699219 .49642945 .67057296 .53030398 .67089846 .56662496 .67089846 .60539248L.4663086 0H.3701172L.1640625 .60539248V.58340457C.1640625 .5658162 .1644694 .5390218 .1652832 .50302127 .166097 .46703086 .1665039 .44056703 .1665039 .42362977V0H.07373047V.71777346Z"/>
<path id="font_1_4" d="M.18164063 .71777346V.27441407C.18164063 .22233074 .19140625 .17903646 .2109375 .14453125 .23990886 .092447917 .28873698 .06640625 .35742188 .06640625 .43977867 .06640625 .49576823 .094563808 .5253906 .1508789 .5413411 .18147786 .5493164 .22265625 .5493164 .27441407V.71777346H.6479492V.3149414C.6479492 .22672527 .6360677 .15885417 .6123047 .111328128 .5686849 .024739584 .48632813-.018554688 .36523438-.018554688 .24414063-.018554688 .16194661 .024739584 .118652347 .111328128 .09488932 .15885417 .08300781 .22672527 .08300781 .3149414V.71777346H.18164063M.36572267 .71777346V.71777346Z"/>
<path id="font_1_5" d="M.13769531 0H.020507813L.27734376 .3681488 .036621095 .71777346H.15820313L.3413086 .44317628 .5229492 .71777346H.6386719L.39794923 .3680725 .6503906 0H.52978518L.33642579 .29512025 .13769531 0Z"/>
<path id="font_2_1" d="M0 0Z"/>
<path id="font_1_7" d="M.057617189 .71875H.1430664V.45948792C.16227214 .4847056 .18522136 .50394698 .21191406 .5172119 .23860677 .53047689 .26757813 .5371094 .29882813 .5371094 .36393229 .5371094 .41674806 .5147095 .4572754 .46990968 .49780274 .42510987 .5180664 .35905458 .5180664 .27174378 .5180664 .1889801 .49804688 .12022909 .4580078 .06549072 .41796876 .010762532 .36246745-.016601563 .2915039-.016601563 .25179038-.016601563 .21826172-.006942749 .19091797 .012374878 .17464192 .023839316 .15722656 .042175294 .13867188 .06738281V0H.057617189V.71875M.2861328 .061523439C.33365885 .061523439 .36922203 .08037821 .39282228 .11808777 .41642253 .1558075 .42822267 .20555115 .42822267 .26731874 .42822267 .32227073 .41642253 .3677877 .39282228 .40386964 .36922203 .43996177 .33447267 .4580078 .28857423 .4580078 .24853516 .4580078 .21346028 .44321189 .18334961 .41362 .15323894 .3840383 .1381836 .3352712 .1381836 .26731874 .1381836 .21822612 .14436849 .17840068 .15673828 .1478424 .17985027 .090296428 .22298177 .061523439 .2861328 .061523439Z"/>
<path id="font_1_10" d="M.11669922 .1640625C.11930338 .13463338 .12662761 .11207072 .13867188 .09637451 .1608073 .06793213 .19921875 .053710939 .25390626 .053710939 .28645835 .053710939 .31510417 .060806276 .33984376 .07499695 .36458335 .08919779 .37695313 .11115011 .37695313 .14085388 .37695313 .16337586 .36702476 .18051148 .34716798 .19226074 .33447267 .19944255 .30940757 .20775859 .27197267 .21720886L.20214844 .2348175C.15755208 .24590557 .12467448 .25829569 .103515628 .27198792 .06575521 .29579164 .046875 .32873027 .046875 .37080384 .046875 .42036439 .064697269 .46046958 .1003418 .49111939 .13598633 .52177938 .18391927 .5371094 .24414063 .5371094 .32291667 .5371094 .37972007 .5139974 .41455079 .46777345 .4363607 .43847657 .4469401 .40690104 .44628907 .37304688H.36328126C.36165367 .39269004 .35465495 .41055808 .34228517 .426651 .32210288 .44950868 .28710938 .4609375 .23730469 .4609375 .20410156 .4609375 .17895508 .45461528 .16186524 .44197084 .14477539 .42933656 .13623047 .41264854 .13623047 .39190675 .13623047 .36922203 .14746094 .35107423 .16992188 .33746339 .1829427 .32936607 .20214844 .32221986 .22753906 .31602479L.28564454 .3018341C.34879557 .28650413 .39111329 .27166749 .41259767 .25732423 .44677735 .23482259 .4638672 .19944255 .4638672 .15118408 .4638672 .10455322 .44620768 .06428019 .41088868 .03036499 .37556968-.0035502117 .32177735-.020507813 .24951172-.020507813 .17171224-.020507813 .116617839-.002802531 .084228519 .032608034 .05183919 .06801859 .034505208 .111836757 .032226564 .1640625H.11669922M.24658203 .5361328V.5361328Z"/>
<path id="font_1_6" d="M.13183594 .1394043C.13183594 .114095058 .14111328 .09413656 .15966797 .07952881 .17822266 .06492106 .20019531 .057617189 .22558594 .057617189 .2565104 .057617189 .28645835 .06471761 .3154297 .07891846 .3642578 .10247803 .38867188 .14127605 .38867188 .1953125V.26611329C.3779297 .25886027 .36409507 .2528127 .34716798 .24797058 .33024089 .24313863 .3136393 .23983257 .29736329 .23805237L.24414063 .23184204C.21223958 .22799683 .1883138 .22153218 .17236328 .21244812 .14534505 .19718933 .13183594 .17284139 .13183594 .1394043M.34472657 .31689454C.36490885 .3194987 .37841798 .32796226 .3852539 .34228517 .38916017 .35012818 .39111329 .36140443 .39111329 .3761139 .39111329 .40618388 .38045249 .42799888 .35913087 .44155885 .33780924 .455129 .30729167 .46191407 .26757813 .46191407 .22167969 .46191407 .18912761 .44948326 .16992188 .42462159 .15917969 .4108785 .15218099 .39043174 .14892578 .36328126H.06689453C.06852213 .42791749 .08943685 .47288514 .12963867 .4981842 .1698405 .5234833 .21647136 .5361328 .26953126 .5361328 .3310547 .5361328 .38102214 .52441409 .4194336 .50097659 .45751954 .47753907 .4765625 .4410502 .4765625 .39151V.08985901C.4765625 .08073425 .47843424 .073404949 .48217774 .067871097 .48592124 .06233724 .4938151 .059570314 .5058594 .059570314 .5097656 .059570314 .51416018 .059814454 .51904299 .060302736 .5239258 .060791017 .5291341 .061523439 .53466799 .0625V-.0028076173C.5209961-.00676473 .5105794-.009236653 .50341799-.010223389 .4962565-.011220296 .48649089-.01171875 .4741211-.01171875 .44384767-.01171875 .421875-.0009104411 .40820313 .020706177 .40104167 .032170614 .3959961 .048380536 .3930664 .06933594 .37516276 .045633954 .34944663 .025060019 .31591798 .0076141359 .2823893-.009831746 .2454427-.018554688 .20507813-.018554688 .15657552-.018554688 .11694336-.0037790936 .08618164 .025772095 .055419923 .055323285 .040039064 .092300418 .040039064 .13670349 .040039064 .18535869 .05517578 .22307332 .08544922 .24984741 .115722659 .2766215 .1554362 .29311119 .20458985 .2993164L.34472657 .31689454M.27197267 .5361328V.5361328Z"/>
<path id="font_1_9" d="M.27197267 .057617189C.33024089 .057617189 .37019859 .07964579 .3918457 .123703 .41349284 .16776021 .4243164 .21677144 .4243164 .2707367 .4243164 .31950379 .4165039 .35917155 .4008789 .38974 .3761393 .43785606 .3334961 .46191407 .27294923 .46191407 .21923828 .46191407 .18017578 .44143168 .15576172 .40046693 .13134766 .35950218 .119140628 .31008403 .119140628 .25221253 .119140628 .1966095 .13134766 .15027364 .15576172 .113204959 .18017578 .076146449 .21891277 .057617189 .27197267 .057617189M.27539063 .53808596C.34277345 .53808596 .3997396 .5156453 .44628907 .47076417 .49283854 .42588298 .5161133 .35985819 .5161133 .27268983 .5161133 .1884613 .49560548 .11886088 .45458985 .06388855 .41357423 .008926392 .3499349-.018554688 .26367188-.018554688 .19173177-.018554688 .13460286 .00575765 .092285159 .054382326 .04996745 .103006999 .028808594 .16829936 .028808594 .2502594 .028808594 .33806864 .05110677 .4079895 .095703128 .46002198 .14029949 .51206466 .20019531 .53808596 .27539063 .53808596M.27246095 .5361328V.5361328Z"/>
<path id="font_1_12" d="M.15234375 .5234375V.17590332C.15234375 .1491801 .15657552 .12734477 .16503906 .11039734 .18066406 .07911682 .20979817 .06347656 .2524414 .06347656 .3136393 .06347656 .355306 .09085083 .3774414 .14559937 .3894857 .17492676 .3955078 .21516927 .3955078 .2663269V.5234375H.48339845V0H.40039063L.4013672 .0771637C.38997398 .057195028 .3758138 .040339155 .35888673 .02659607 .32535807-.00090026858 .28466798-.0146484379 .2368164-.0146484379 .16227214-.0146484379 .11149088 .010299683 .084472659 .060195924 .06982422 .08693949 .0625 .12265015 .0625 .16732788V.5234375H.15234375M.27294923 .5361328V.5361328Z"/>
<clipPath id="clip_3">
<path transform="matrix(1,0,0,-1,-87.2016,456.623)" d="M36 36H756V576H36Z"/>
</clipPath>
</defs>
<g clip-path="url(#clip_0)">
<path transform="matrix(1,0,0,-1,-87.2016,456.623)" d="M36 36H756V576H36Z" fill="#ffffff"/>
<path transform="matrix(1,0,0,-1,-87.2016,456.623)" d="M132 450H354V282H132Z" fill="#eeeeee" fill-rule="evenodd"/>
<path transform="matrix(1,0,0,-1,44.7984,6.622986)" stroke-width=".75" stroke-linecap="butt" stroke-miterlimit="8" stroke-linejoin="miter" fill="none" stroke="#000000" d="M0 0H222V-168H0Z"/>
<use data-text="B" xlink:href="#font_1_2" transform="matrix(18,0,0,-18,122.795398,28.222992)"/>
<use data-text="i" xlink:href="#font_1_8" transform="matrix(18,0,0,-18,134.80139,28.222992)"/>
<use data-text="t" xlink:href="#font_1_11" transform="matrix(18,0,0,-18,138.7974,28.222992)"/>
<use data-text=" " xlink:href="#font_1_1" transform="matrix(18,0,0,-18,143.80139,28.222992)"/>
<use data-text="M" xlink:href="#font_1_3" transform="matrix(18,0,0,-18,148.80539,28.222992)"/>
<use data-text="U" xlink:href="#font_1_4" transform="matrix(18,0,0,-18,163.7994,28.222992)"/>
<use data-text="X" xlink:href="#font_1_5" transform="matrix(18,0,0,-18,176.79538,28.222992)"/>
<use data-text="&#xfffd;" xlink:href="#font_2_1" transform="matrix(18,0,0,-18,188.80139,28.222992)"/>
<path transform="matrix(1,0,0,-1,170.7984,90.622989)" stroke-width="1.5" stroke-linecap="butt" stroke-linejoin="round" fill="none" stroke="#000000" d="M0 0H18V-12H42"/>
<path transform="matrix(1,0,0,-1,170.7984,138.62299)" stroke-width="1.5" stroke-linecap="butt" stroke-linejoin="round" fill="none" stroke="#000000" d="M0 0H18V12H42"/>
<path transform="matrix(1,0,0,-1,253.9234,114.122989)" stroke-width="1.5" stroke-linecap="butt" stroke-linejoin="round" fill="none" stroke="#000000" d="M0 0 30.875-.5"/>
<path transform="matrix(1,0,0,-1,206.5484,96.622989)" d="M0 0H23.75L28.375-.375 32.75-1.375 36.5-2.75 40.25-5 46.5-10.125 51.25-17.5 46.5-24.375 40.25-30 36.5-31.75 32.75-33.25 28.375-34.125 23.75-34.625H0L2.75-30.875 4.75-26.75 5.625-22.125 6.125-17.5 5.625-12.375 4.75-8.25 2.75-4.125Z" fill="#ffffff" fill-rule="evenodd"/>
<path transform="matrix(1,0,0,-1,206.5484,96.622989)" d="M0 0H23.75L28.375-.375 32.75-1.375 36.5-2.75 40.25-5 46.5-10.125 51.25-17.5 46.5-24.375 40.25-30 36.5-31.75 32.75-33.25 28.375-34.125 23.75-34.625H0L2.75-30.875 4.75-26.75 5.625-22.125 6.125-17.5 5.625-12.375 4.75-8.25 2.75-4.125Z" fill="#ffffff" fill-rule="evenodd"/>
<path transform="matrix(1,0,0,-1,206.5484,96.622989)" stroke-width="1" stroke-linecap="butt" stroke-linejoin="round" fill="none" stroke="#000000" d="M0 0H23.75L28.375-.375 32.75-1.375 36.5-2.75 40.25-5 46.5-10.125 51.25-17.5 46.5-24.375 40.25-30 36.5-31.75 32.75-33.25 28.375-34.125 23.75-34.625H0L2.75-30.875 4.75-26.75 5.625-22.125 6.125-17.5 5.625-12.375 4.75-8.25 2.75-4.125 0 0"/>
<path transform="matrix(1,0,0,-1,98.92351,54.747987)" stroke-width="1.5" stroke-linecap="butt" stroke-linejoin="round" fill="none" stroke="#000000" d="M0 0-.125-11.875"/>
<path transform="matrix(1,0,0,-1,109.7984,30.623078)" d="M0 0H-23L-11.5-23.75Z" fill="#ffffff" fill-rule="evenodd"/>
<path transform="matrix(1,0,0,-1,109.7984,30.623078)" d="M0 0H-23L-11.5-23.75Z" fill="#ffffff" fill-rule="evenodd"/>
<path transform="matrix(1,0,0,-1,109.7984,30.623078)" stroke-width="1" stroke-linecap="butt" stroke-linejoin="round" fill="none" stroke="#000000" d="M0 0H-23L-11.5-23.75 0 0"/>
<path transform="matrix(1,0,0,-1,98.1109,60.935487)" d="M0 0-1.875 .875-2.75 3.25-1.875 5.125 0 6.125 2.25 5.125 3.25 3.25 2.25 .875Z" fill="#ffffff" fill-rule="evenodd"/>
<path transform="matrix(1,0,0,-1,98.1109,60.935487)" d="M0 0-1.875 .875-2.75 3.25-1.875 5.125 0 6.125 2.25 5.125 3.25 3.25 2.25 .875Z" fill="#ffffff" fill-rule="evenodd"/>
<path transform="matrix(1,0,0,-1,98.1109,60.935487)" stroke-width="1" stroke-linecap="butt" stroke-linejoin="round" fill="none" stroke="#000000" d="M0 0-1.875 .875-2.75 3.25-1.875 5.125 0 6.125 2.25 5.125 3.25 3.25 2.25 .875 0 0"/>
<path transform="matrix(1,0,0,-1,98.0484,18.623078)" stroke-width="1.5" stroke-linecap="butt" stroke-linejoin="round" fill="none" stroke="#000000" d="M0 0-.125-11.875"/>
<path transform="matrix(1,0,0,-1,110.7984,78.622989)" stroke-width="1.5" stroke-linecap="butt" stroke-linejoin="round" fill="none" stroke="#000000" d="M0 0 11.875-.125"/>
<path transform="matrix(1,0,0,-1,20.7984,102.622989)" stroke-width="1.5" stroke-linecap="butt" stroke-linejoin="round" fill="none" stroke="#000000" d="M0 0 101.875-.125"/>
<path transform="matrix(1,0,0,-1,170.4234,90.12308)" d="M0 0-.5-3.25-1.5-6.5-2.875-9.25-5.25-12-8.125-14.25-11-15.75-14.375-16.625-18.125-17.125H-47.75V17.5H-18.125L-14.375 17.125-11 16.125-8.125 14.75-5.25 12.5-2.875 9.75-1.5 6.875-.5 3.75Z" fill="#ffffff" fill-rule="evenodd"/>
<path transform="matrix(1,0,0,-1,170.4234,90.12308)" stroke-width="1" stroke-linecap="butt" stroke-linejoin="round" fill="none" stroke="#000000" d="M0 0-.5-3.25-1.5-6.5-2.875-9.25-5.25-12-8.125-14.25-11-15.75-14.375-16.625-18.125-17.125H-47.75V17.5H-18.125L-14.375 17.125-11 16.125-8.125 14.75-5.25 12.5-2.875 9.75-1.5 6.875-.5 3.75 0 0"/>
<use data-text="b" xlink:href="#font_1_7" transform="matrix(16,0,0,-16,4.123398,104.22299)"/>
<use data-text="&#xfffd;" xlink:href="#font_2_1" transform="matrix(10.6667,0,0,-10.6667,13.021904,108.22299)"/>
<use data-text="s" xlink:href="#font_1_10" transform="matrix(16,0,0,-16,3.9983979,26.222992)"/>
<use data-text="&#xfffd;" xlink:href="#font_2_1" transform="matrix(16,0,0,-16,11.998398,26.222992)"/>
<path transform="matrix(1,0,0,-1,110.7984,126.622989)" stroke-width="1.5" stroke-linecap="butt" stroke-linejoin="round" fill="none" stroke="#000000" d="M0 0 11.875-.125"/>
<path transform="matrix(1,0,0,-1,20.7984,150.62299)" stroke-width="1.5" stroke-linecap="butt" stroke-linejoin="round" fill="none" stroke="#000000" d="M0 0 101.875 .875"/>
<path transform="matrix(1,0,0,-1,170.4234,138.12308)" d="M0 0-.5-3.25-1.5-6.5-2.875-9.25-5.25-12-8.125-14.25-11-15.75-14.375-16.625-18.125-17.125H-47.75V17.5H-18.125L-14.375 17.125-11 16.125-8.125 14.75-5.25 12.5-2.875 9.75-1.5 6.875-.5 3.75Z" fill="#ffffff" fill-rule="evenodd"/>
<path transform="matrix(1,0,0,-1,170.4234,138.12308)" stroke-width="1" stroke-linecap="butt" stroke-linejoin="round" fill="none" stroke="#000000" d="M0 0-.5-3.25-1.5-6.5-2.875-9.25-5.25-12-8.125-14.25-11-15.75-14.375-16.625-18.125-17.125H-47.75V17.5H-18.125L-14.375 17.125-11 16.125-8.125 14.75-5.25 12.5-2.875 9.75-1.5 6.875-.5 3.75 0 0"/>
<use data-text="a" xlink:href="#font_1_6" transform="matrix(16,0,0,-16,4.123398,155.72299)"/>
<use data-text="&#xfffd;" xlink:href="#font_2_1" transform="matrix(10.6667,0,0,-10.6667,13.021904,159.72299)"/>
<path transform="matrix(1,0,0,-1,110.7984,126.622989)" stroke-width="1.5" stroke-linecap="butt" stroke-linejoin="round" fill="none" stroke="#000000" d="M0 0H-42V108"/>
<path transform="matrix(1,0,0,-1,20.7984,18.622986)" stroke-width="1.5" stroke-linecap="butt" stroke-linejoin="round" fill="none" stroke="#000000" d="M0 0H78"/>
<path transform="matrix(1,0,0,-1,110.7984,78.622989)" stroke-width="1.5" stroke-linecap="butt" stroke-linejoin="round" fill="none" stroke="#000000" d="M0 0H-12V12"/>
<use data-text="o" xlink:href="#font_1_9" transform="matrix(16,0,0,-16,297.9984,122.22299)"/>
<use data-text="u" xlink:href="#font_1_12" transform="matrix(16,0,0,-16,306.8944,122.22299)"/>
<use data-text="t" xlink:href="#font_1_11" transform="matrix(16,0,0,-16,315.7904,122.22299)"/>
<use data-text="&#xfffd;" xlink:href="#font_2_1" transform="matrix(16,0,0,-16,320.2384,122.22299)"/>
<g clip-path="url(#clip_3)">
<path transform="matrix(1,0,0,-1,65.7984,18.622986)" d="M0 0C0 1.657 1.343 3 3 3 4.657 3 6 1.657 6 0 6-1.657 4.657-3 3-3 1.343-3 0-1.657 0 0" fill-rule="evenodd"/>
<path transform="matrix(1,0,0,-1,65.7984,18.622986)" stroke-width=".75" stroke-linecap="butt" stroke-linejoin="round" fill="none" stroke="#000000" d="M0 0C0 1.657 1.343 3 3 3 4.657 3 6 1.657 6 0 6-1.657 4.657-3 3-3 1.343-3 0-1.657 0 0Z"/>
</g>
</g>
</svg>
