<svg xmlns="http://www.w3.org/2000/svg" xmlns:xlink="http://www.w3.org/1999/xlink" version="1.1" width="658.7691pt" height="141.901pt" viewBox="0 0 658.7691 141.901">
<defs>
<clipPath id="clip_0">
<path transform="matrix(1,0,0,-1,-58.6629,501.809)" d="M58.6629 359.908H717.432V501.809H58.6629Z" fill-rule="evenodd"/>
</clipPath>
<path id="font_1_6" d="M.44433595 .2939453 .33544923 .61120608 .21972656 .2939453H.44433595M.28466798 .71777346H.39453126L.65478518 0H.54833987L.47558595 .21484375H.19189453L.11425781 0H.0146484379L.28466798 .71777346M.33496095 .71777346V.71777346Z"/>
<path id="font_2_1" d="M0 0Z"/>
<path id="font_1_8" d="M.076171878 .71777346H.17333985V.0859375H.5366211V0H.076171878V.71777346Z"/>
<path id="font_1_9" d="M.18164063 .71777346V.27441407C.18164063 .22233074 .19140625 .17903646 .2109375 .14453125 .23990886 .092447917 .28873698 .06640625 .35742188 .06640625 .43977867 .06640625 .49576823 .094563808 .5253906 .1508789 .5413411 .18147786 .5493164 .22265625 .5493164 .27441407V.71777346H.6479492V.3149414C.6479492 .22672527 .6360677 .15885417 .6123047 .111328128 .5686849 .024739584 .48632813-.018554688 .36523438-.018554688 .24414063-.018554688 .16194661 .024739584 .118652347 .111328128 .09488932 .15885417 .08300781 .22672527 .08300781 .3149414V.71777346H.18164063M.36572267 .71777346V.71777346Z"/>
<path id="font_1_11" d="M.020507813 .71777346H.13378906L.33984376 .372818 .54589846 .71777346H.65966799L.38867188 .28926087V0H.2915039V.28926087L.020507813 .71777346M.3413086 .71777346V.71777346Z"/>
<path id="font_1_10" d="M.13769531 0H.020507813L.27734376 .3681488 .036621095 .71777346H.15820313L.3413086 .44317628 .5229492 .71777346H.6386719L.39794923 .3680725 .6503906 0H.52978518L.33642579 .29512025 .13769531 0Z"/>
<path id="font_1_1" d="M0 0Z"/>
<path id="font_3_2" d="M.32080079 .265625V.060546876C.32080079 .05078125 .31884767 .04378255 .3149414 .03955078 .31103517 .03531901 .3059896 .033203126 .2998047 .033203126 .2939453 .033203126 .2890625 .03531901 .28515626 .03955078 .28125 .04378255 .27929688 .05078125 .27929688 .060546876V.265625H.09765625C.087890628 .265625 .08089193 .26749674 .076660159 .27124024 .07242838 .27498374 .0703125 .2799479 .0703125 .2861328 .0703125 .29231773 .07242838 .2972819 .076660159 .3010254 .08089193 .3047689 .087890628 .30664063 .09765625 .30664063H.27929688V.5107422C.27929688 .5205078 .28125 .52750656 .28515626 .5317383 .2890625 .53597006 .29410807 .53808596 .30029298 .53808596 .30615235 .53808596 .31103517 .53597006 .3149414 .5317383 .31884767 .52750656 .32080079 .5205078 .32080079 .5107422V.30664063H.5024414C.51220706 .30664063 .51920577 .3047689 .5234375 .3010254 .52766928 .2972819 .52978518 .29231773 .52978518 .2861328 .52978518 .2799479 .52766928 .27498374 .5234375 .27124024 .51920577 .26749674 .51220706 .265625 .5024414 .265625H.32080079Z"/>
<path id="font_1_2" d="M.2705078 .7001953C.3610026 .7001953 .42643229 .66289779 .46679688 .5883026 .49804688 .5306447 .5136719 .45165 .5136719 .35131837 .5136719 .25620524 .49951173 .17754109 .4711914 .11532593 .43017579 .026072184 .3631185-.018554688 .27001954-.018554688 .18603516-.018554688 .123535159 .017929078 .08251953 .09089661 .048339845 .15180969 .03125 .23357137 .03125 .33618165 .03125 .41565959 .041503908 .48390199 .06201172 .5409088 .10042318 .6470998 .16992188 .7001953 .2705078 .7001953M.26953126 .061523439C.31510417 .061523439 .35139976 .08168539 .37841798 .12200928 .4054362 .16234334 .4189453 .23747762 .4189453 .3474121 .4189453 .42676798 .4091797 .49205528 .38964845 .5432739 .3701172 .59450277 .332194 .6201172 .2758789 .6201172 .2241211 .6201172 .1862793 .59580489 .16235352 .5471802 .13842774 .4985555 .12646485 .42692057 .12646485 .3322754 .12646485 .26105754 .13411458 .20381673 .14941406 .16055298 .17285156 .09453329 .21289063 .061523439 .26953126 .061523439Z"/>
<path id="font_3_3" d="M.50927737 .3125V.25390626H.09082031V.3125H.50927737Z"/>
<path id="font_1_3" d="M.095703128 .4951172V.5625C.15917969 .5686849 .20345052 .5790202 .22851563 .59350588 .25358073 .6079915 .2722982 .6422526 .28466798 .69628909H.3540039V0H.2602539V.4951172H.095703128Z"/>
<path id="font_3_1" d="M.41601563 0 .38476563 .048812868C.35546876 .0058542888 .31770835-.015625 .27148438-.015625 .23242188-.015625 .19807942-.00017801921 .16845703 .030715943 .13883464 .061620077 .12402344 .099349979 .12402344 .14390564 .12402344 .17838033 .1340332 .20894878 .15405274 .23561096 .17407227 .26228334 .20166016 .28082276 .2368164 .29122926 .21272786 .3299357 .19832357 .3553823 .19360352 .36756898 .18888347 .37976585 .18652344 .3923696 .18652344 .40538026 .18652344 .4375763 .19873047 .4657898 .22314453 .49002076 .2475586 .5142517 .27685548 .5263672 .31103517 .5263672 .32210288 .5263672 .33317057 .52475997 .34423829 .5215454 .355306 .5183309 .3663737 .51334127 .3774414 .50657656 .3914388 .5136566 .4000651 .51719668 .4033203 .51719668 .40885417 .51719668 .4136556 .51518759 .4177246 .51116946 .4217936 .5071513 .42382813 .50224307 .42382813 .4964447 .42382813 .49258933 .4226888 .4890442 .42041017 .48580934 .4181315 .48257447 .41357423 .47916667 .40673829 .47558595L.375 .4584961C.36490885 .4676107 .35457359 .47436524 .34399415 .47875978 .3334147 .4831543 .32259117 .48535157 .31152345 .48535157 .2890625 .48535157 .26944987 .47703044 .25268556 .46038819 .23592122 .4437561 .22753906 .4251658 .22753906 .4046173 .22753906 .38341777 .2421875 .3494924 .27148438 .3028412L.38476563 .12313843C.4046224 .16026815 .4202474 .20320638 .43164063 .25195313H.4716797C.4814453 .25195313 .488444 .25002036 .49267579 .24615479 .49690757 .2422994 .49902345 .23747762 .49902345 .23168946 .49902345 .22750855 .49780274 .22364807 .49536134 .22010803 .49291993 .216568 .49007163 .21415203 .4868164 .2128601 .4835612 .21157837 .47558595 .2109375 .46289063 .2109375 .44726563 .1560669 .42936198 .11353556 .4091797 .083343509L.43701173 .041015626H.4716797C.4814453 .041015626 .488444 .03914388 .49267579 .03540039 .49690757 .031656904 .49902345 .026692709 .49902345 .020507813 .49902345 .0146484379 .49690757 .009765625 .49267579 .005859375 .488444 .001953125 .4814453 0 .4716797 0H.41601563M.25439454 .25515748C.22705078 .24865723 .20532227 .23540242 .18920899 .21539307 .1730957 .19539388 .16503906 .1715749 .16503906 .14393616 .16503906 .11108907 .17586263 .08311971 .19750977 .060028078 .2191569 .036936445 .24348958 .025390625 .2705078 .025390625 .30696617 .025390625 .3370768 .045959474 .36083985 .08709717L.25439454 .25515748Z"/>
<path id="font_1_4" d="M.03125 0C.034505208 .060221357 .04695638 .11263021 .068603519 .15722656 .09025065 .20182292 .13248699 .24235027 .1953125 .2788086L.2890625 .3330078C.3310547 .35742188 .3605143 .3782908 .3774414 .39561463 .40413413 .4227346 .41748048 .45377604 .41748048 .488739 .41748048 .52959188 .40527345 .562027 .38085938 .5860443 .3564453 .61006167 .32389323 .6220703 .28320313 .6220703 .22298177 .6220703 .18131511 .5991516 .15820313 .5533142 .14583333 .52875778 .13899739 .4947103 .13769531 .45117188H.048339845C.049316408 .5121663 .060546876 .5619049 .08203125 .6003876 .12011719 .66822817 .18733724 .70214846 .2836914 .70214846 .36376954 .70214846 .4222819 .68047079 .45922853 .6371155 .49617515 .5937703 .51464846 .5455373 .51464846 .49241639 .51464846 .4363556 .49495445 .388443 .4555664 .3486786 .43277995 .3255361 .3919271 .29752604 .3330078 .26464845L.26611329 .22753906C.23421224 .20996094 .20914714 .19319661 .19091797 .1772461 .15836589 .14892578 .13785808 .11751302 .12939453 .08300781H.51123049V0H.03125Z"/>
<path id="font_3_4" d="M.2998047 .6245117 .47998048 .3984375C.48583985 .39095054 .48876954 .38505046 .48876954 .3807373 .48876954 .37519328 .48673503 .37056986 .48266603 .36686708 .47859703 .36317445 .4736328 .36132813 .46777345 .36132813 .46126304 .36047364 .4544271 .36427308 .44726563 .37272645L.2998047 .5600281 .15234375 .3728943C.14550781 .36412559 .13883464 .35961915 .13232422 .359375 .12646485 .359375 .12150065 .36140953 .11743164 .36547853 .11336263 .36954753 .111328128 .37451173 .111328128 .3803711 .111328128 .38492839 .11425781 .39095054 .12011719 .3984375L.2998047 .6245117Z"/>
<path id="font_1_5" d="M.25976563-.018554688C.17708333-.018554688 .11710612 .004196167 .079833988 .049697877 .042561849 .095209758 .023925782 .15058391 .023925782 .21582031H.115722659C.119628909 .1704305 .12809246 .13744609 .14111328 .116867069 .16389974 .07997131 .20507813 .061523439 .26464845 .061523439 .3108724 .061523439 .34798179 .07389323 .37597657 .09863281 .40397135 .1233724 .41796876 .15527344 .41796876 .19433594 .41796876 .24251302 .40323893 .27620445 .3737793 .29541017 .34431968 .31461589 .3033854 .32421876 .25097657 .32421876 .24511719 .32421876 .23917644 .32413737 .2331543 .3239746 .22713216 .32381187 .22102864 .32356773 .21484375 .3232422V.4013672C.22395833 .40019737 .23160808 .39941407 .23779297 .39901734 .24397786 .39863078 .25065104 .3984375 .2578125 .3984375 .2906901 .3984375 .31770835 .40363566 .3388672 .41403199 .37597657 .43222047 .39453126 .46470133 .39453126 .5114746 .39453126 .54622396 .38216148 .5730184 .35742188 .5918579 .33268229 .61069747 .3038737 .6201172 .2709961 .6201172 .21240235 .6201172 .171875 .6007131 .14941406 .5619049 .13704427 .5405629 .13004558 .51016238 .12841797 .47070313H.041503908C.041503908 .5225627 .051920576 .5666453 .072753909 .60295107 .108561199 .6677806 .17154949 .7001953 .26171876 .7001953 .3330078 .7001953 .3881836 .6843465 .4272461 .6526489 .4663086 .6209615 .48583985 .5750529 .48583985 .5149231 .48583985 .47201539 .47428385 .4372355 .45117188 .4105835 .43684898 .39401246 .41829429 .38101197 .3955078 .37158204 .43229167 .36149089 .4610189 .34204103 .48168946 .31323243 .50236007 .28442384 .5126953 .2491862 .5126953 .20751953 .5126953 .14078777 .49072267 .08642578 .44677735 .044433595 .40283204 .0024414063 .34049479-.018554688 .25976563-.018554688Z"/>
<path id="font_1_7" d="M.34570313 .4140625C.38671876 .4140625 .41861979 .4197693 .44140626 .43118287 .47721354 .4491272 .4951172 .48142497 .4951172 .5280762 .4951172 .57506307 .47607423 .6067098 .43798829 .62301638 .4165039 .6321513 .38460288 .63671877 .34228517 .63671877H.16894531V.4140625H.34570313M.37841798 .08300781C.43798829 .08300781 .48046876 .100224819 .5058594 .13465882 .5218099 .15642803 .52978518 .18274434 .52978518 .21360779 .52978518 .26559959 .50651046 .30101524 .45996095 .31985475 .43522135 .32992555 .4025065 .33496095 .3618164 .33496095H.16894531V.08300781H.37841798M.07373047 .71777346H.38183595C.4658203 .71777346 .5255534 .6926575 .56103518 .64242556 .58186849 .6127421 .59228518 .5784963 .59228518 .5396881 .59228518 .49434916 .57942709 .45716349 .55371096 .4281311 .54036459 .41280113 .5211589 .3987783 .49609376 .38606263 .5328776 .3720754 .5603841 .35629273 .5786133 .3387146 .61083987 .30748496 .6269531 .26437379 .6269531 .2093811 .6269531 .16317749 .61246749 .12136841 .5834961 .08395386 .54020187 .02798462 .47135417 0 .37695313 0H.07373047V.71777346Z"/>
</defs>
<g clip-path="url(#clip_0)">
<path transform="matrix(1,0,0,-1,-58.6629,501.809)" d="M36 36H756V576H36Z" fill="#ffffff"/>
<path transform="matrix(1,0,0,-1,19.337101,51.80899)" stroke-width="2.25" stroke-linecap="butt" stroke-linejoin="round" fill="none" stroke="#000000" d="M0 0H21.75"/>
<path transform="matrix(1,0,0,-1,38.8371,54.059083)" d="M0 0 4.5 2.25 0 4.5Z" fill-rule="evenodd"/>
<path transform="matrix(1,0,0,-1,61.3371,21.809082)" stroke-width=".75" stroke-linecap="butt" stroke-linejoin="round" fill="none" stroke="#000000" d="M0 0V-22"/>
<path transform="matrix(1,0,0,-1,63.337,41.809083)" d="M0 0-2-4-4 0Z" fill-rule="evenodd"/>
<path transform="matrix(1,0,0,-1,43.3371,33.809083)" d="M0 0 36-24V-78L0-102Z" fill="#a6fcd6" fill-rule="evenodd"/>
<path transform="matrix(1,0,0,-1,43.3371,33.809083)" stroke-width=".75" stroke-linecap="butt" stroke-linejoin="round" fill="none" stroke="#000000" d="M0 0 36-24V-78L0-102V0Z"/>
<use data-text="A" xlink:href="#font_1_6" transform="matrix(16,0,0,-16,56.537099,71.409)"/>
<use data-text="&#xfffd;" xlink:href="#font_2_1" transform="matrix(16,0,0,-16,67.20909,71.409)"/>
<use data-text="L" xlink:href="#font_1_8" transform="matrix(16,0,0,-16,56.537099,90.401)"/>
<use data-text="&#xfffd;" xlink:href="#font_2_1" transform="matrix(16,0,0,-16,65.433109,90.401)"/>
<use data-text="U" xlink:href="#font_1_9" transform="matrix(16,0,0,-16,56.537099,109.393009)"/>
<use data-text="&#xfffd;" xlink:href="#font_2_1" transform="matrix(16,0,0,-16,68.089099,109.393009)"/>
<path transform="matrix(1,0,0,-1,19.337101,117.80899)" stroke-width="2.25" stroke-linecap="butt" stroke-linejoin="round" fill="none" stroke="#000000" d="M0 0H21.75"/>
<path transform="matrix(1,0,0,-1,38.8371,120.05908)" d="M0 0 4.5 2.25 0 4.5Z" fill-rule="evenodd"/>
<path transform="matrix(1,0,0,-1,79.3371,81.80899)" stroke-width="2.25" stroke-linecap="butt" stroke-linejoin="round" fill="none" stroke="#000000" d="M0 0H21.75"/>
<path transform="matrix(1,0,0,-1,98.8371,84.05908)" d="M0 0 4.5 2.25 0 4.5Z" fill-rule="evenodd"/>
<use data-text="Y" xlink:href="#font_1_11" transform="matrix(16,0,0,-16,2.5371018,56.908998)"/>
<use data-text="&#xfffd;" xlink:href="#font_2_1" transform="matrix(16,0,0,-16,13.209103,56.908998)"/>
<use data-text="X" xlink:href="#font_1_10" transform="matrix(16,0,0,-16,2.5371018,125.405)"/>
<use data-text="&#xfffd;" xlink:href="#font_2_1" transform="matrix(16,0,0,-16,13.209103,125.405)"/>
<use data-text="X" xlink:href="#font_1_10" transform="matrix(16,0,0,-16,110.537097,90.397)"/>
<use data-text=" " xlink:href="#font_1_1" transform="matrix(16,0,0,-16,121.20909,90.397)"/>
<use data-text="+" xlink:href="#font_3_2" transform="matrix(16,0,0,-16,125.65709,90.397)"/>
<use data-text=" " xlink:href="#font_1_1" transform="matrix(16,0,0,-16,135.2571,90.397)"/>
<use data-text="Y" xlink:href="#font_1_11" transform="matrix(16,0,0,-16,139.41709,90.397)"/>
<use data-text="&#xfffd;" xlink:href="#font_2_1" transform="matrix(16,0,0,-16,150.08908,90.397)"/>
<use data-text="0" xlink:href="#font_1_2" transform="matrix(16,0,0,-16,56.537099,17.404999)"/>
<use data-text="&#xfffd;" xlink:href="#font_2_1" transform="matrix(16,0,0,-16,65.433109,17.404999)"/>
<path transform="matrix(1,0,0,-1,187.0871,51.80899)" stroke-width="2.25" stroke-linecap="butt" stroke-linejoin="round" fill="none" stroke="#000000" d="M0 0H21.75"/>
<path transform="matrix(1,0,0,-1,206.5871,54.059083)" d="M0 0 4.5 2.25 0 4.5Z" fill-rule="evenodd"/>
<path transform="matrix(1,0,0,-1,229.087,21.809082)" stroke-width=".75" stroke-linecap="butt" stroke-linejoin="round" fill="none" stroke="#000000" d="M0 0V-22"/>
<path transform="matrix(1,0,0,-1,231.087,41.809083)" d="M0 0-2-4-4 0Z" fill-rule="evenodd"/>
<path transform="matrix(1,0,0,-1,211.0871,33.809083)" d="M0 0 36-24V-78L0-102Z" fill="#a6fcd6" fill-rule="evenodd"/>
<path transform="matrix(1,0,0,-1,211.0871,33.809083)" stroke-width=".75" stroke-linecap="butt" stroke-linejoin="round" fill="none" stroke="#000000" d="M0 0 36-24V-78L0-102V0Z"/>
<use data-text="A" xlink:href="#font_1_6" transform="matrix(16,0,0,-16,224.28711,71.409)"/>
<use data-text="&#xfffd;" xlink:href="#font_2_1" transform="matrix(16,0,0,-16,234.9591,71.409)"/>
<use data-text="L" xlink:href="#font_1_8" transform="matrix(16,0,0,-16,224.28711,90.401)"/>
<use data-text="&#xfffd;" xlink:href="#font_2_1" transform="matrix(16,0,0,-16,233.1831,90.401)"/>
<use data-text="U" xlink:href="#font_1_9" transform="matrix(16,0,0,-16,224.28711,109.393009)"/>
<use data-text="&#xfffd;" xlink:href="#font_2_1" transform="matrix(16,0,0,-16,235.83911,109.393009)"/>
<path transform="matrix(1,0,0,-1,187.0871,117.80899)" stroke-width="2.25" stroke-linecap="butt" stroke-linejoin="round" fill="none" stroke="#000000" d="M0 0H21.75"/>
<path transform="matrix(1,0,0,-1,206.5871,120.05908)" d="M0 0 4.5 2.25 0 4.5Z" fill-rule="evenodd"/>
<path transform="matrix(1,0,0,-1,247.087,81.80899)" stroke-width="2.25" stroke-linecap="butt" stroke-linejoin="round" fill="none" stroke="#000000" d="M0 0H21.75"/>
<path transform="matrix(1,0,0,-1,266.587,84.05908)" d="M0 0 4.5 2.25 0 4.5Z" fill-rule="evenodd"/>
<use data-text="Y" xlink:href="#font_1_11" transform="matrix(16,0,0,-16,170.2871,56.908998)"/>
<use data-text="&#xfffd;" xlink:href="#font_2_1" transform="matrix(16,0,0,-16,180.95909,56.908998)"/>
<use data-text="X" xlink:href="#font_1_10" transform="matrix(16,0,0,-16,170.2871,125.405)"/>
<use data-text="&#xfffd;" xlink:href="#font_2_1" transform="matrix(16,0,0,-16,180.95909,125.405)"/>
<use data-text="X" xlink:href="#font_1_10" transform="matrix(16,0,0,-16,278.2871,90.397)"/>
<use data-text=" " xlink:href="#font_1_1" transform="matrix(16,0,0,-16,288.9591,90.397)"/>
<use data-text="-" xlink:href="#font_3_3" transform="matrix(16,0,0,-16,293.4071,90.397)"/>
<use data-text=" " xlink:href="#font_1_1" transform="matrix(16,0,0,-16,303.0071,90.397)"/>
<use data-text="Y" xlink:href="#font_1_11" transform="matrix(16,0,0,-16,307.1671,90.397)"/>
<use data-text="&#xfffd;" xlink:href="#font_2_1" transform="matrix(16,0,0,-16,317.8391,90.397)"/>
<use data-text="1" xlink:href="#font_1_3" transform="matrix(16,0,0,-16,224.28711,17.404999)"/>
<use data-text="&#xfffd;" xlink:href="#font_2_1" transform="matrix(16,0,0,-16,233.1831,17.404999)"/>
<path transform="matrix(1,0,0,-1,354.837,51.80899)" stroke-width="2.25" stroke-linecap="butt" stroke-linejoin="round" fill="none" stroke="#000000" d="M0 0H21.75"/>
<path transform="matrix(1,0,0,-1,374.337,54.059083)" d="M0 0 4.5 2.25 0 4.5Z" fill-rule="evenodd"/>
<path transform="matrix(1,0,0,-1,396.837,21.809082)" stroke-width=".75" stroke-linecap="butt" stroke-linejoin="round" fill="none" stroke="#000000" d="M0 0V-22"/>
<path transform="matrix(1,0,0,-1,398.837,41.809083)" d="M0 0-2-4-4 0Z" fill-rule="evenodd"/>
<path transform="matrix(1,0,0,-1,378.837,33.809083)" d="M0 0 36-24V-78L0-102Z" fill="#a6fcd6" fill-rule="evenodd"/>
<path transform="matrix(1,0,0,-1,378.837,33.809083)" stroke-width=".75" stroke-linecap="butt" stroke-linejoin="round" fill="none" stroke="#000000" d="M0 0 36-24V-78L0-102V0Z"/>
<use data-text="A" xlink:href="#font_1_6" transform="matrix(16,0,0,-16,392.0371,71.409)"/>
<use data-text="&#xfffd;" xlink:href="#font_2_1" transform="matrix(16,0,0,-16,402.7091,71.409)"/>
<use data-text="L" xlink:href="#font_1_8" transform="matrix(16,0,0,-16,392.0371,90.401)"/>
<use data-text="&#xfffd;" xlink:href="#font_2_1" transform="matrix(16,0,0,-16,400.9331,90.401)"/>
<use data-text="U" xlink:href="#font_1_9" transform="matrix(16,0,0,-16,392.0371,109.393009)"/>
<use data-text="&#xfffd;" xlink:href="#font_2_1" transform="matrix(16,0,0,-16,403.5891,109.393009)"/>
<path transform="matrix(1,0,0,-1,354.837,117.80899)" stroke-width="2.25" stroke-linecap="butt" stroke-linejoin="round" fill="none" stroke="#000000" d="M0 0H21.75"/>
<path transform="matrix(1,0,0,-1,374.337,120.05908)" d="M0 0 4.5 2.25 0 4.5Z" fill-rule="evenodd"/>
<path transform="matrix(1,0,0,-1,414.837,81.80899)" stroke-width="2.25" stroke-linecap="butt" stroke-linejoin="round" fill="none" stroke="#000000" d="M0 0H21.75"/>
<path transform="matrix(1,0,0,-1,434.337,84.05908)" d="M0 0 4.5 2.25 0 4.5Z" fill-rule="evenodd"/>
<use data-text="Y" xlink:href="#font_1_11" transform="matrix(16,0,0,-16,338.0371,56.908998)"/>
<use data-text="&#xfffd;" xlink:href="#font_2_1" transform="matrix(16,0,0,-16,348.7091,56.908998)"/>
<use data-text="X" xlink:href="#font_1_10" transform="matrix(16,0,0,-16,338.0371,125.405)"/>
<use data-text="&#xfffd;" xlink:href="#font_2_1" transform="matrix(16,0,0,-16,348.7091,125.405)"/>
<use data-text="X" xlink:href="#font_1_10" transform="matrix(16,0,0,-16,446.0371,90.397)"/>
<use data-text=" " xlink:href="#font_1_1" transform="matrix(16,0,0,-16,456.7091,90.397)"/>
<use data-text="&amp;" xlink:href="#font_3_1" transform="matrix(16,0,0,-16,461.1571,90.397)"/>
<use data-text=" " xlink:href="#font_1_1" transform="matrix(16,0,0,-16,470.75709,90.397)"/>
<use data-text="Y" xlink:href="#font_1_11" transform="matrix(16,0,0,-16,474.9171,90.397)"/>
<use data-text="&#xfffd;" xlink:href="#font_2_1" transform="matrix(16,0,0,-16,485.5891,90.397)"/>
<use data-text="2" xlink:href="#font_1_4" transform="matrix(16,0,0,-16,392.0371,17.404999)"/>
<use data-text="&#xfffd;" xlink:href="#font_2_1" transform="matrix(16,0,0,-16,400.9331,17.404999)"/>
<path transform="matrix(1,0,0,-1,522.5869,51.80899)" stroke-width="2.25" stroke-linecap="butt" stroke-linejoin="round" fill="none" stroke="#000000" d="M0 0H21.75"/>
<path transform="matrix(1,0,0,-1,542.087,54.059083)" d="M0 0 4.5 2.25 0 4.5Z" fill-rule="evenodd"/>
<path transform="matrix(1,0,0,-1,564.5869,21.809082)" stroke-width=".75" stroke-linecap="butt" stroke-linejoin="round" fill="none" stroke="#000000" d="M0 0V-22"/>
<path transform="matrix(1,0,0,-1,566.587,41.809083)" d="M0 0-2-4-4 0Z" fill-rule="evenodd"/>
<path transform="matrix(1,0,0,-1,546.587,33.809083)" d="M0 0 36-24V-78L0-102Z" fill="#a6fcd6" fill-rule="evenodd"/>
<path transform="matrix(1,0,0,-1,546.5869,33.809083)" stroke-width=".75" stroke-linecap="butt" stroke-linejoin="round" fill="none" stroke="#000000" d="M0 0 36-24V-78L0-102V0Z"/>
<use data-text="A" xlink:href="#font_1_6" transform="matrix(16,0,0,-16,559.7871,71.409)"/>
<use data-text="&#xfffd;" xlink:href="#font_2_1" transform="matrix(16,0,0,-16,570.4591,71.409)"/>
<use data-text="L" xlink:href="#font_1_8" transform="matrix(16,0,0,-16,559.7871,90.401)"/>
<use data-text="&#xfffd;" xlink:href="#font_2_1" transform="matrix(16,0,0,-16,568.6831,90.401)"/>
<use data-text="U" xlink:href="#font_1_9" transform="matrix(16,0,0,-16,559.7871,109.393009)"/>
<use data-text="&#xfffd;" xlink:href="#font_2_1" transform="matrix(16,0,0,-16,571.3391,109.393009)"/>
<path transform="matrix(1,0,0,-1,522.5869,117.80899)" stroke-width="2.25" stroke-linecap="butt" stroke-linejoin="round" fill="none" stroke="#000000" d="M0 0H21.75"/>
<path transform="matrix(1,0,0,-1,542.087,120.05908)" d="M0 0 4.5 2.25 0 4.5Z" fill-rule="evenodd"/>
<path transform="matrix(1,0,0,-1,582.5869,81.80899)" stroke-width="2.25" stroke-linecap="butt" stroke-linejoin="round" fill="none" stroke="#000000" d="M0 0H21.75"/>
<path transform="matrix(1,0,0,-1,602.087,84.05908)" d="M0 0 4.5 2.25 0 4.5Z" fill-rule="evenodd"/>
<use data-text="Y" xlink:href="#font_1_11" transform="matrix(16,0,0,-16,505.7871,56.908998)"/>
<use data-text="&#xfffd;" xlink:href="#font_2_1" transform="matrix(16,0,0,-16,516.4591,56.908998)"/>
<use data-text="X" xlink:href="#font_1_10" transform="matrix(16,0,0,-16,505.7871,125.405)"/>
<use data-text="&#xfffd;" xlink:href="#font_2_1" transform="matrix(16,0,0,-16,516.4591,125.405)"/>
<use data-text="X" xlink:href="#font_1_10" transform="matrix(16,0,0,-16,613.7871,90.397)"/>
<use data-text=" " xlink:href="#font_1_1" transform="matrix(16,0,0,-16,624.4591,90.397)"/>
<use data-text="^" xlink:href="#font_3_4" transform="matrix(16,0,0,-16,628.9071,90.397)"/>
<use data-text=" " xlink:href="#font_1_1" transform="matrix(16,0,0,-16,638.5071,90.397)"/>
<use data-text="Y" xlink:href="#font_1_11" transform="matrix(16,0,0,-16,642.6671,90.397)"/>
<use data-text="&#xfffd;" xlink:href="#font_2_1" transform="matrix(16,0,0,-16,653.3391,90.397)"/>
<use data-text="3" xlink:href="#font_1_5" transform="matrix(16,0,0,-16,559.7871,17.404999)"/>
<use data-text="&#xfffd;" xlink:href="#font_2_1" transform="matrix(16,0,0,-16,568.6831,17.404999)"/>
<use data-text="A" xlink:href="#font_1_6" transform="matrix(10,0,0,-10,47.537099,59.408998)"/>
<use data-text="&#xfffd;" xlink:href="#font_2_1" transform="matrix(10,0,0,-10,54.207098,59.408998)"/>
<use data-text="B" xlink:href="#font_1_7" transform="matrix(10,0,0,-10,47.537099,124.159)"/>
<use data-text="&#xfffd;" xlink:href="#font_2_1" transform="matrix(10,0,0,-10,54.207098,124.159)"/>
<use data-text="A" xlink:href="#font_1_6" transform="matrix(10,0,0,-10,215.53711,59.408998)"/>
<use data-text="&#xfffd;" xlink:href="#font_2_1" transform="matrix(10,0,0,-10,222.20713,59.408998)"/>
<use data-text="B" xlink:href="#font_1_7" transform="matrix(10,0,0,-10,215.53711,124.159)"/>
<use data-text="&#xfffd;" xlink:href="#font_2_1" transform="matrix(10,0,0,-10,222.20713,124.159)"/>
<use data-text="A" xlink:href="#font_1_6" transform="matrix(10,0,0,-10,383.5371,59.408998)"/>
<use data-text="&#xfffd;" xlink:href="#font_2_1" transform="matrix(10,0,0,-10,390.20713,59.408998)"/>
<use data-text="B" xlink:href="#font_1_7" transform="matrix(10,0,0,-10,383.5371,124.159)"/>
<use data-text="&#xfffd;" xlink:href="#font_2_1" transform="matrix(10,0,0,-10,390.20713,124.159)"/>
<use data-text="A" xlink:href="#font_1_6" transform="matrix(10,0,0,-10,551.5371,59.408998)"/>
<use data-text="&#xfffd;" xlink:href="#font_2_1" transform="matrix(10,0,0,-10,558.2071,59.408998)"/>
<use data-text="B" xlink:href="#font_1_7" transform="matrix(10,0,0,-10,551.5371,124.159)"/>
<use data-text="&#xfffd;" xlink:href="#font_2_1" transform="matrix(10,0,0,-10,558.2071,124.159)"/>
</g>
</svg>
