<svg xmlns="http://www.w3.org/2000/svg" xmlns:xlink="http://www.w3.org/1999/xlink" version="1.1" width="637.3652pt" height="503.39134pt" viewBox="0 0 637.3652 503.39134">
<defs>
<clipPath id="clip_0">
<path transform="matrix(1,0,0,-1,-71.3468,559.679)" d="M71.3468 56.2877H708.712V559.679H71.3468Z" fill-rule="evenodd"/>
</clipPath>
<path id="font_1_13" d="M.057617189 .71875H.1430664V.45948792C.16227214 .4847056 .18522136 .50394698 .21191406 .5172119 .23860677 .53047689 .26757813 .5371094 .29882813 .5371094 .36393229 .5371094 .41674806 .5147095 .4572754 .46990968 .49780274 .42510987 .5180664 .35905458 .5180664 .27174378 .5180664 .1889801 .49804688 .12022909 .4580078 .06549072 .41796876 .010762532 .36246745-.016601563 .2915039-.016601563 .25179038-.016601563 .21826172-.006942749 .19091797 .012374878 .17464192 .023839316 .15722656 .042175294 .13867188 .06738281V0H.057617189V.71875M.2861328 .061523439C.33365885 .061523439 .36922203 .08037821 .39282228 .11808777 .41642253 .1558075 .42822267 .20555115 .42822267 .26731874 .42822267 .32227073 .41642253 .3677877 .39282228 .40386964 .36922203 .43996177 .33447267 .4580078 .28857423 .4580078 .24853516 .4580078 .21346028 .44321189 .18334961 .41362 .15323894 .3840383 .1381836 .3352712 .1381836 .26731874 .1381836 .21822612 .14436849 .17840068 .15673828 .1478424 .17985027 .090296428 .22298177 .061523439 .2861328 .061523439Z"/>
<path id="font_1_5" d="M.29248048 .70214846C.37060548 .70214846 .42504884 .6818288 .45581056 .6411896 .48657228 .6005605 .5019531 .5587056 .5019531 .515625H.41503907C.40983073 .5434163 .40152995 .5651601 .39013673 .5808563 .36897788 .61028549 .33691407 .625 .2939453 .625 .24479167 .625 .20572917 .60224917 .17675781 .55674746 .14778646 .5112559 .13167317 .44611613 .12841797 .36132813 .14860027 .39095054 .17399089 .41308595 .20458985 .42773438 .23258464 .44075523 .26383464 .44726563 .29833985 .44726563 .3569336 .44726563 .40804038 .4285482 .45166017 .39111329 .49527995 .35367839 .51708987 .29785157 .51708987 .22363281 .51708987 .16015625 .49641929 .10392252 .45507813 .05493164 .41373698 .0059407555 .35481773-.018554688 .2783203-.018554688 .21289063-.018554688 .15641277 .0062815349 .10888672 .05595398 .061360677 .1056366 .037597658 .18927002 .037597658 .30685426 .037597658 .39382936 .048177083 .4676107 .06933594 .52819827 .11002604 .64416506 .18440755 .70214846 .29248048 .70214846M.2861328 .059570314C.33235679 .059570314 .36694337 .07511393 .38989259 .10620117 .4128418 .1372884 .4243164 .17399089 .4243164 .2163086 .4243164 .25211589 .4140625 .2862142 .3935547 .31860353 .37304688 .35099284 .33577476 .3671875 .28173829 .3671875 .24397786 .3671875 .21085613 .35465495 .18237305 .32958985 .15388997 .30452476 .13964844 .2667643 .13964844 .2163086 .13964844 .17203777 .15258789 .134847 .1784668 .10473633 .2043457 .07462565 .24023438 .059570314 .2861328 .059570314Z"/>
<path id="font_1_4" d="M.25976563-.018554688C.17708333-.018554688 .11710612 .004196167 .079833988 .049697877 .042561849 .095209758 .023925782 .15058391 .023925782 .21582031H.115722659C.119628909 .1704305 .12809246 .13744609 .14111328 .116867069 .16389974 .07997131 .20507813 .061523439 .26464845 .061523439 .3108724 .061523439 .34798179 .07389323 .37597657 .09863281 .40397135 .1233724 .41796876 .15527344 .41796876 .19433594 .41796876 .24251302 .40323893 .27620445 .3737793 .29541017 .34431968 .31461589 .3033854 .32421876 .25097657 .32421876 .24511719 .32421876 .23917644 .32413737 .2331543 .3239746 .22713216 .32381187 .22102864 .32356773 .21484375 .3232422V.4013672C.22395833 .40019737 .23160808 .39941407 .23779297 .39901734 .24397786 .39863078 .25065104 .3984375 .2578125 .3984375 .2906901 .3984375 .31770835 .40363566 .3388672 .41403199 .37597657 .43222047 .39453126 .46470133 .39453126 .5114746 .39453126 .54622396 .38216148 .5730184 .35742188 .5918579 .33268229 .61069747 .3038737 .6201172 .2709961 .6201172 .21240235 .6201172 .171875 .6007131 .14941406 .5619049 .13704427 .5405629 .13004558 .51016238 .12841797 .47070313H.041503908C.041503908 .5225627 .051920576 .5666453 .072753909 .60295107 .108561199 .6677806 .17154949 .7001953 .26171876 .7001953 .3330078 .7001953 .3881836 .6843465 .4272461 .6526489 .4663086 .6209615 .48583985 .5750529 .48583985 .5149231 .48583985 .47201539 .47428385 .4372355 .45117188 .4105835 .43684898 .39401246 .41829429 .38101197 .3955078 .37158204 .43229167 .36149089 .4610189 .34204103 .48168946 .31323243 .50236007 .28442384 .5126953 .2491862 .5126953 .20751953 .5126953 .14078777 .49072267 .08642578 .44677735 .044433595 .40283204 .0024414063 .34049479-.018554688 .25976563-.018554688Z"/>
<path id="font_2_1" d="M0 0Z"/>
<path id="font_1_15" d="M.11669922 .1640625C.11930338 .13463338 .12662761 .11207072 .13867188 .09637451 .1608073 .06793213 .19921875 .053710939 .25390626 .053710939 .28645835 .053710939 .31510417 .060806276 .33984376 .07499695 .36458335 .08919779 .37695313 .11115011 .37695313 .14085388 .37695313 .16337586 .36702476 .18051148 .34716798 .19226074 .33447267 .19944255 .30940757 .20775859 .27197267 .21720886L.20214844 .2348175C.15755208 .24590557 .12467448 .25829569 .103515628 .27198792 .06575521 .29579164 .046875 .32873027 .046875 .37080384 .046875 .42036439 .064697269 .46046958 .1003418 .49111939 .13598633 .52177938 .18391927 .5371094 .24414063 .5371094 .32291667 .5371094 .37972007 .5139974 .41455079 .46777345 .4363607 .43847657 .4469401 .40690104 .44628907 .37304688H.36328126C.36165367 .39269004 .35465495 .41055808 .34228517 .426651 .32210288 .44950868 .28710938 .4609375 .23730469 .4609375 .20410156 .4609375 .17895508 .45461528 .16186524 .44197084 .14477539 .42933656 .13623047 .41264854 .13623047 .39190675 .13623047 .36922203 .14746094 .35107423 .16992188 .33746339 .1829427 .32936607 .20214844 .32221986 .22753906 .31602479L.28564454 .3018341C.34879557 .28650413 .39111329 .27166749 .41259767 .25732423 .44677735 .23482259 .4638672 .19944255 .4638672 .15118408 .4638672 .10455322 .44620768 .06428019 .41088868 .03036499 .37556968-.0035502117 .32177735-.020507813 .24951172-.020507813 .17171224-.020507813 .116617839-.002802531 .084228519 .032608034 .05183919 .06801859 .034505208 .111836757 .032226564 .1640625H.11669922M.24658203 .5361328V.5361328Z"/>
<path id="font_1_12" d="M.13183594 .1394043C.13183594 .114095058 .14111328 .09413656 .15966797 .07952881 .17822266 .06492106 .20019531 .057617189 .22558594 .057617189 .2565104 .057617189 .28645835 .06471761 .3154297 .07891846 .3642578 .10247803 .38867188 .14127605 .38867188 .1953125V.26611329C.3779297 .25886027 .36409507 .2528127 .34716798 .24797058 .33024089 .24313863 .3136393 .23983257 .29736329 .23805237L.24414063 .23184204C.21223958 .22799683 .1883138 .22153218 .17236328 .21244812 .14534505 .19718933 .13183594 .17284139 .13183594 .1394043M.34472657 .31689454C.36490885 .3194987 .37841798 .32796226 .3852539 .34228517 .38916017 .35012818 .39111329 .36140443 .39111329 .3761139 .39111329 .40618388 .38045249 .42799888 .35913087 .44155885 .33780924 .455129 .30729167 .46191407 .26757813 .46191407 .22167969 .46191407 .18912761 .44948326 .16992188 .42462159 .15917969 .4108785 .15218099 .39043174 .14892578 .36328126H.06689453C.06852213 .42791749 .08943685 .47288514 .12963867 .4981842 .1698405 .5234833 .21647136 .5361328 .26953126 .5361328 .3310547 .5361328 .38102214 .52441409 .4194336 .50097659 .45751954 .47753907 .4765625 .4410502 .4765625 .39151V.08985901C.4765625 .08073425 .47843424 .073404949 .48217774 .067871097 .48592124 .06233724 .4938151 .059570314 .5058594 .059570314 .5097656 .059570314 .51416018 .059814454 .51904299 .060302736 .5239258 .060791017 .5291341 .061523439 .53466799 .0625V-.0028076173C.5209961-.00676473 .5105794-.009236653 .50341799-.010223389 .4962565-.011220296 .48649089-.01171875 .4741211-.01171875 .44384767-.01171875 .421875-.0009104411 .40820313 .020706177 .40104167 .032170614 .3959961 .048380536 .3930664 .06933594 .37516276 .045633954 .34944663 .025060019 .31591798 .0076141359 .2823893-.009831746 .2454427-.018554688 .20507813-.018554688 .15657552-.018554688 .11694336-.0037790936 .08618164 .025772095 .055419923 .055323285 .040039064 .092300418 .040039064 .13670349 .040039064 .18535869 .05517578 .22307332 .08544922 .24984741 .115722659 .2766215 .1554362 .29311119 .20458985 .2993164L.34472657 .31689454M.27197267 .5361328V.5361328Z"/>
<path id="font_1_14" d="M.27197267 .057617189C.33024089 .057617189 .37019859 .07964579 .3918457 .123703 .41349284 .16776021 .4243164 .21677144 .4243164 .2707367 .4243164 .31950379 .4165039 .35917155 .4008789 .38974 .3761393 .43785606 .3334961 .46191407 .27294923 .46191407 .21923828 .46191407 .18017578 .44143168 .15576172 .40046693 .13134766 .35950218 .119140628 .31008403 .119140628 .25221253 .119140628 .1966095 .13134766 .15027364 .15576172 .113204959 .18017578 .076146449 .21891277 .057617189 .27197267 .057617189M.27539063 .53808596C.34277345 .53808596 .3997396 .5156453 .44628907 .47076417 .49283854 .42588298 .5161133 .35985819 .5161133 .27268983 .5161133 .1884613 .49560548 .11886088 .45458985 .06388855 .41357423 .008926392 .3499349-.018554688 .26367188-.018554688 .19173177-.018554688 .13460286 .00575765 .092285159 .054382326 .04996745 .103006999 .028808594 .16829936 .028808594 .2502594 .028808594 .33806864 .05110677 .4079895 .095703128 .46002198 .14029949 .51206466 .20019531 .53808596 .27539063 .53808596M.27246095 .5361328V.5361328Z"/>
<path id="font_1_17" d="M.15234375 .5234375V.17590332C.15234375 .1491801 .15657552 .12734477 .16503906 .11039734 .18066406 .07911682 .20979817 .06347656 .2524414 .06347656 .3136393 .06347656 .355306 .09085083 .3774414 .14559937 .3894857 .17492676 .3955078 .21516927 .3955078 .2663269V.5234375H.48339845V0H.40039063L.4013672 .0771637C.38997398 .057195028 .3758138 .040339155 .35888673 .02659607 .32535807-.00090026858 .28466798-.0146484379 .2368164-.0146484379 .16227214-.0146484379 .11149088 .010299683 .084472659 .060195924 .06982422 .08693949 .0625 .12265015 .0625 .16732788V.5234375H.15234375M.27294923 .5361328V.5361328Z"/>
<path id="font_1_16" d="M.08203125 .66796877H.17089844V.5234375H.25439454V.4501953H.17089844V.110183719C.17089844 .09202576 .17708333 .07986959 .18945313 .07371521 .19628906 .07014465 .2076823 .068359378 .22363281 .068359378 .22786458 .068359378 .23242188 .06846619 .23730469 .06867981 .2421875 .0689036 .24788411 .06944784 .25439454 .0703125V0C.24430339-.0031026204 .23380535-.005340576 .22290039-.006713867 .21199544-.008097331 .20019531-.0087890629 .1875-.0087890629 .14648438-.0087890629 .118652347 .0016988119 .104003909 .02267456 .08935547 .04365031 .08203125 .070882167 .08203125 .10437012V.4501953H.011230469V.5234375H.08203125V.66796877Z"/>
<path id="font_1_3" d="M.03125 0C.034505208 .060221357 .04695638 .11263021 .068603519 .15722656 .09025065 .20182292 .13248699 .24235027 .1953125 .2788086L.2890625 .3330078C.3310547 .35742188 .3605143 .3782908 .3774414 .39561463 .40413413 .4227346 .41748048 .45377604 .41748048 .488739 .41748048 .52959188 .40527345 .562027 .38085938 .5860443 .3564453 .61006167 .32389323 .6220703 .28320313 .6220703 .22298177 .6220703 .18131511 .5991516 .15820313 .5533142 .14583333 .52875778 .13899739 .4947103 .13769531 .45117188H.048339845C.049316408 .5121663 .060546876 .5619049 .08203125 .6003876 .12011719 .66822817 .18733724 .70214846 .2836914 .70214846 .36376954 .70214846 .4222819 .68047079 .45922853 .6371155 .49617515 .5937703 .51464846 .5455373 .51464846 .49241639 .51464846 .4363556 .49495445 .388443 .4555664 .3486786 .43277995 .3255361 .3919271 .29752604 .3330078 .26464845L.26611329 .22753906C.23421224 .20996094 .20914714 .19319661 .19091797 .1772461 .15836589 .14892578 .13785808 .11751302 .12939453 .08300781H.51123049V0H.03125Z"/>
<path id="font_1_2" d="M.2705078 .7001953C.3610026 .7001953 .42643229 .66289779 .46679688 .5883026 .49804688 .5306447 .5136719 .45165 .5136719 .35131837 .5136719 .25620524 .49951173 .17754109 .4711914 .11532593 .43017579 .026072184 .3631185-.018554688 .27001954-.018554688 .18603516-.018554688 .123535159 .017929078 .08251953 .09089661 .048339845 .15180969 .03125 .23357137 .03125 .33618165 .03125 .41565959 .041503908 .48390199 .06201172 .5409088 .10042318 .6470998 .16992188 .7001953 .2705078 .7001953M.26953126 .061523439C.31510417 .061523439 .35139976 .08168539 .37841798 .12200928 .4054362 .16234334 .4189453 .23747762 .4189453 .3474121 .4189453 .42676798 .4091797 .49205528 .38964845 .5432739 .3701172 .59450277 .332194 .6201172 .2758789 .6201172 .2241211 .6201172 .1862793 .59580489 .16235352 .5471802 .13842774 .4985555 .12646485 .42692057 .12646485 .3322754 .12646485 .26105754 .13411458 .20381673 .14941406 .16055298 .17285156 .09453329 .21289063 .061523439 .26953126 .061523439Z"/>
<clipPath id="clip_3">
<path transform="matrix(1,0,0,-1,-71.3468,559.679)" d="M36 36H756V576H36Z"/>
</clipPath>
<path id="font_1_7" d="M.34570313 .4140625C.38671876 .4140625 .41861979 .4197693 .44140626 .43118287 .47721354 .4491272 .4951172 .48142497 .4951172 .5280762 .4951172 .57506307 .47607423 .6067098 .43798829 .62301638 .4165039 .6321513 .38460288 .63671877 .34228517 .63671877H.16894531V.4140625H.34570313M.37841798 .08300781C.43798829 .08300781 .48046876 .100224819 .5058594 .13465882 .5218099 .15642803 .52978518 .18274434 .52978518 .21360779 .52978518 .26559959 .50651046 .30101524 .45996095 .31985475 .43522135 .32992555 .4025065 .33496095 .3618164 .33496095H.16894531V.08300781H.37841798M.07373047 .71777346H.38183595C.4658203 .71777346 .5255534 .6926575 .56103518 .64242556 .58186849 .6127421 .59228518 .5784963 .59228518 .5396881 .59228518 .49434916 .57942709 .45716349 .55371096 .4281311 .54036459 .41280113 .5211589 .3987783 .49609376 .38606263 .5328776 .3720754 .5603841 .35629273 .5786133 .3387146 .61083987 .30748496 .6269531 .26437379 .6269531 .2093811 .6269531 .16317749 .61246749 .12136841 .5834961 .08395386 .54020187 .02798462 .47135417 0 .37695313 0H.07373047V.71777346Z"/>
<path id="font_1_6" d="M.44433595 .2939453 .33544923 .61120608 .21972656 .2939453H.44433595M.28466798 .71777346H.39453126L.65478518 0H.54833987L.47558595 .21484375H.19189453L.11425781 0H.0146484379L.28466798 .71777346M.33496095 .71777346V.71777346Z"/>
<clipPath id="clip_4">
<path transform="matrix(1,0,0,-1,-71.3468,559.679)" d="M36 36H756V576H36Z"/>
</clipPath>
<path id="font_1_9" d="M.3857422 .7373047C.5123698 .7373047 .6061198 .6965637 .6669922 .6150818 .71451827 .55152389 .73828127 .47019959 .73828127 .371109 .73828127 .2638804 .7111003 .17473857 .6567383 .10368347 .5929362 .020238242 .5019531-.021484375 .38378907-.021484375 .2734375-.021484375 .1866862 .015019734 .123535159 .088027957 .067220058 .158432 .0390625 .24741619 .0390625 .35498048 .0390625 .45210777 .06315104 .53522238 .111328128 .60432437 .17317708 .6929779 .26464845 .7373047 .3857422 .7373047M.3955078 .06542969C.48111979 .06542969 .5430501 .09613546 .5812988 .157547 .61954757 .21895854 .6386719 .2895762 .6386719 .36940003 .6386719 .45378114 .61661788 .5217082 .57250979 .57318118 .5284017 .6246541 .46809898 .6503906 .39160157 .6503906 .3173828 .6503906 .25683595 .62489828 .20996094 .5739136 .16308594 .5229289 .13964844 .4477488 .13964844 .3483734 .13964844 .26888529 .15974935 .20185344 .19995117 .14727783 .240153 .0927124 .30533854 .06542969 .3955078 .06542969M.38867188 .7373047V.7373047Z"/>
<path id="font_5_11" d="M.3203125 .63378909V.5283203H.25976563V.63378909H.3203125M.32177735 .42382813V.041015626H.48291017C.4930013 .041015626 .5001628 .03914388 .50439456 .03540039 .5086263 .031656904 .5107422 .026692709 .5107422 .020507813 .5107422 .0146484379 .5086263 .009765625 .50439456 .005859375 .5001628 .001953125 .4930013 0 .48291017 0H.119628909C.10986328 0 .102864589 .001953125 .09863281 .005859375 .09440104 .009765625 .092285159 .0146484379 .092285159 .020507813 .092285159 .026692709 .09440104 .031656904 .09863281 .03540039 .102864589 .03914388 .10986328 .041015626 .119628909 .041015626H.28076173V.3828125H.16113281C.15136719 .3828125 .14428711 .3847402 .13989258 .38859559 .13549805 .39246116 .13330078 .397288 .13330078 .40307618 .13330078 .40918986 .13541667 .4141744 .13964844 .4180298 .1438802 .42189536 .15104167 .42382813 .16113281 .42382813H.32177735Z"/>
<path id="font_5_12" d="M.16748047 .42382813V.3623047C.1961263 .39109294 .2220052 .41098533 .24511719 .4219818 .26822917 .4329783 .29427085 .43847657 .3232422 .43847657 .3544922 .43847657 .38297526 .43178813 .4086914 .41841126 .42692057 .4086151 .44344078 .39237467 .45825196 .36968995 .47306315 .34701539 .48046876 .32377116 .48046876 .29995729V.041015626H.5151367C.52490237 .041015626 .53190109 .03914388 .5361328 .03540039 .54036459 .031656904 .54248049 .026692709 .54248049 .020507813 .54248049 .0146484379 .54036459 .009765625 .5361328 .005859375 .53190109 .001953125 .52490237 0 .5151367 0H.40527345C.39518229 0 .38802085 .001953125 .38378907 .005859375 .37955729 .009765625 .3774414 .0146484379 .3774414 .020507813 .3774414 .026692709 .37955729 .031656904 .38378907 .03540039 .38802085 .03914388 .39518229 .041015626 .40527345 .041015626H.43945313V.29351808C.43945313 .32261149 .4288737 .34720866 .40771485 .36730958 .386556 .3874105 .3582357 .39746095 .3227539 .39746095 .2957357 .39746095 .2722982 .39200846 .2524414 .38110353 .23258464 .37019859 .20426433 .34309898 .16748047 .2998047V.041015626H.21386719C.22363281 .041015626 .23063152 .03914388 .23486328 .03540039 .23909505 .031656904 .24121094 .026692709 .24121094 .020507813 .24121094 .0146484379 .23909505 .009765625 .23486328 .005859375 .23063152 .001953125 .22363281 0 .21386719 0H.080078128C.0703125 0 .063313808 .001953125 .05908203 .005859375 .05485026 .009765625 .052734376 .0146484379 .052734376 .020507813 .052734376 .026692709 .05485026 .031656904 .05908203 .03540039 .063313808 .03914388 .0703125 .041015626 .080078128 .041015626H.12646485V.3828125H.091796878C.08203125 .3828125 .075032558 .38476563 .07080078 .38867188 .06656901 .39257813 .064453128 .3976237 .064453128 .4038086 .064453128 .40952555 .06656901 .41429139 .07080078 .41810609 .075032558 .42192079 .08203125 .42382813 .091796878 .42382813H.16748047Z"/>
<path id="font_5_14" d="M.21582031 .42382813H.43847657C.4482422 .42382813 .45524089 .42192079 .45947267 .41810609 .46370445 .41429139 .4658203 .4093628 .4658203 .4033203 .4658203 .39746095 .46370445 .39257813 .45947267 .38867188 .45524089 .38476563 .4482422 .3828125 .43847657 .3828125H.21582031V.1091156C.21582031 .08529154 .2253418 .06537882 .24438477 .04937744 .26342774 .03338623 .29134117 .025390625 .328125 .025390625 .35579429 .025390625 .3857422 .029541016 .41796876 .037841798 .4501953 .046142579 .4752604 .0555013 .49316407 .06591797 .49967448 .07014974 .5050456 .072265628 .50927737 .072265628 .51448568 .072265628 .51904299 .07023112 .5229492 .06616211 .52685549 .062093099 .5288086 .057291669 .5288086 .051757814 .5288086 .046875 .5266927 .042317708 .52246096 .038085939 .51204428 .02734375 .48673503 .01570638 .4465332 .0031738282 .4063314-.009358724 .36783854-.015625 .3310547-.015625 .28320313-.015625 .24511719-.0043691 .21679688 .0181427 .18847656 .040664674 .1743164 .071014408 .1743164 .109191898V.3828125H.09863281C.08886719 .3828125 .08186849 .3847402 .07763672 .38859559 .073404949 .39246116 .07128906 .39745078 .07128906 .40356446 .07128906 .40935264 .073404949 .4141744 .07763672 .4180298 .08186849 .42189536 .08886719 .42382813 .09863281 .42382813H.1743164V.54571536C.1743164 .5555522 .17626953 .5625966 .18017578 .56684878 .18408203 .571111 .18896485 .5732422 .19482422 .5732422 .20100911 .5732422 .20605469 .571111 .20996094 .56684878 .21386719 .5625966 .21582031 .5555522 .21582031 .54571536V.42382813Z"/>
<path id="font_5_1" d="M0 0Z"/>
<path id="font_5_8" d="M.55078127 .2841797C.55078127 .22958374 .53971359 .17896526 .5175781 .13232422 .49544273 .08569336 .46492515 .04937744 .4260254 .023376465 .38712565-.0026245118 .3453776-.015625 .30078126-.015625 .23470052-.015625 .17651367 .0124053959 .1262207 .06846619 .075927738 .12452698 .05078125 .19643148 .05078125 .2841797 .05078125 .37225343 .075927738 .4442393 .1262207 .5001373 .17651367 .55603536 .23470052 .5839844 .30078126 .5839844 .3453776 .5839844 .38704429 .5709839 .42578126 .5449829 .46451823 .51898196 .4950358 .4827423 .517334 .43626405 .53963217 .38979594 .55078127 .33910118 .55078127 .2841797M.50927737 .2841797C.50927737 .3507894 .48990885 .41057334 .45117188 .4635315 .4124349 .5164897 .3623047 .54296877 .30078126 .54296877 .24316406 .54296877 .19392903 .51770529 .15307617 .46717835 .112223308 .4166616 .091796878 .35566203 .091796878 .2841797 .091796878 .20815023 .11319987 .14601135 .15600586 .09776306 .19881185 .04951477 .24707031 .025390625 .30078126 .025390625 .3623047 .025390625 .4124349 .05178833 .45117188 .10458374 .48990885 .15737915 .50927737 .21724446 .50927737 .2841797Z"/>
<path id="font_5_15" d="M.4404297 0V.06059265C.3844401 .009780884 .32389323-.015625 .25878907-.015625 .21875-.015625 .1883138-.0046946208 .16748047 .017166138 .14046224 .04588318 .12695313 .079330448 .12695313 .117507938V.3828125H.071777347C.06201172 .3828125 .05501302 .38476563 .05078125 .38867188 .04654948 .39257813 .044433595 .3976237 .044433595 .4038086 .044433595 .40952555 .04654948 .41429139 .05078125 .41810609 .05501302 .42192079 .06201172 .42382813 .071777347 .42382813H.16796875V.11729431C.16796875 .09057108 .1764323 .068573 .19335938 .05130005 .21028646 .0340271 .23144531 .025390625 .25683595 .025390625 .32356773 .025390625 .38476563 .05602519 .4404297 .11729431V.3828125H.3647461C.35498048 .3828125 .34798179 .38476563 .34375 .38867188 .33951823 .39257813 .33740235 .3976237 .33740235 .4038086 .33740235 .40952555 .33951823 .41429139 .34375 .41810609 .34798179 .42192079 .35498048 .42382813 .3647461 .42382813H.4814453V.041015626H.5161133C.5258789 .041015626 .5328776 .03914388 .5371094 .03540039 .5413411 .031656904 .54345706 .026692709 .54345706 .020507813 .54345706 .0146484379 .5413411 .009765625 .5371094 .005859375 .5328776 .001953125 .5258789 0 .5161133 0H.4404297Z"/>
<path id="font_5_5" d="M.5239258 .33984376H.076660159C.06689453 .33984376 .059895833 .34177146 .055664064 .34562684 .051432294 .3494924 .049316408 .35448203 .049316408 .3605957 .049316408 .36638389 .051432294 .37120567 .055664064 .37506105 .059895833 .3789266 .06689453 .38085938 .076660159 .38085938H.5239258C.5336914 .38085938 .5406901 .3789266 .5449219 .37506105 .5491536 .37120567 .55126956 .3662211 .55126956 .36010743 .55126956 .35431925 .5491536 .3494924 .5449219 .34562684 .5406901 .34177146 .5336914 .33984376 .5239258 .33984376M.5239258 .19238281H.076660159C.06689453 .19238281 .059895833 .19425456 .055664064 .19799805 .051432294 .20174153 .049316408 .20670574 .049316408 .21289063 .049316408 .21907552 .051432294 .22403972 .055664064 .2277832 .059895833 .23152669 .06689453 .23339844 .076660159 .23339844H.5239258C.5336914 .23339844 .5406901 .23152669 .5449219 .2277832 .5491536 .22403972 .55126956 .21907552 .55126956 .21289063 .55126956 .20670574 .5491536 .20174153 .5449219 .19799805 .5406901 .19425456 .5336914 .19238281 .5239258 .19238281Z"/>
<path id="font_5_9" d="M.32080079 .5722656V-.0859375H.42041017C.43017579-.0859375 .43717448-.08780924 .44140626-.091552738 .44563804-.09529623 .4477539-.100260417 .4477539-.10644531 .4477539-.11263021 .44563804-.1175944 .44140626-.12133789 .43717448-.12508138 .43017579-.12695313 .42041017-.12695313H.27978517V.61328127H.42041017C.43017579 .61328127 .43717448 .61134847 .44140626 .6074829 .44563804 .6036275 .4477539 .598643 .4477539 .5925293 .4477539 .58674117 .44563804 .58191427 .44140626 .5780487 .43717448 .5741933 .43017579 .5722656 .42041017 .5722656H.32080079Z"/>
<path id="font_5_13" d="M.43554688 .39746095C.43554688 .40672813 .4375 .4134369 .44140626 .41758729 .4453125 .42174784 .4501953 .42382813 .4560547 .42382813 .4622396 .42382813 .46728517 .42170207 .4711914 .41744996 .47509767 .413208 .47705079 .40602113 .47705079 .39588929V.32530213C.47705079 .31549583 .47509767 .30846659 .4711914 .30421449 .46728517 .29997254 .4622396 .29785157 .4560547 .29785157 .45052085 .29785157 .44588218 .2996572 .44213868 .30326844 .43839518 .30688987 .4361979 .31281028 .43554688 .32102967 .43359376 .34075419 .4235026 .35702516 .40527345 .36984254 .37858073 .3882548 .34326173 .39746095 .2993164 .39746095 .25341798 .39746095 .21777344 .3881836 .19238281 .3696289 .17317708 .3556315 .16357422 .3400065 .16357422 .3227539 .16357422 .30322267 .17496746 .28694663 .1977539 .27392579 .2133789 .2648112 .2430013 .2578125 .2866211 .2529297 .34358726 .24672444 .38313804 .23970032 .40527345 .2318573 .43684898 .22042339 .46036784 .20457459 .47583009 .18431092 .49129234 .16405742 .49902345 .14217122 .49902345 .118652347 .49902345 .08369955 .48225913 .052581788 .44873048 .025299073 .4152018-.0019836426 .3660482-.015625 .30126954-.015625 .23649089-.015625 .18343099 .00081380209 .14208985 .033691408 .14208985 .022460938 .1414388 .015192668 .14013672 .011886597 .13883464 .008590698 .13647461 .005783081 .13305664 .0034637452 .12963867 .0011545817 .1258138 0 .12158203 0 .115722659 0 .110839847 .0021209717 .106933597 .006362915 .103027347 .010615031 .10107422 .01763916 .10107422 .027435303V.112213138C.10107422 .12200928 .10294596 .12902832 .10668945 .13327027 .110432948 .13752239 .11539713 .13964844 .12158203 .13964844 .1274414 .13964844 .1324056 .13761394 .13647461 .13354492 .14054363 .1294759 .14257813 .12402344 .14257813 .1171875 .14257813 .10221354 .14632161 .08968099 .1538086 .079589847 .16520183 .063964847 .18334961 .05102539 .20825196 .040771486 .2331543 .030517579 .26367188 .025390625 .2998047 .025390625 .3531901 .025390625 .39290367 .035369874 .4189453 .05532837 .44498698 .075286868 .4580078 .09638977 .4580078 .118637088 .4580078 .14415996 .44482423 .16460674 .41845704 .17997742 .3917643 .19535828 .35294596 .20566304 .30200196 .21089173 .25105796 .21613057 .21451824 .2229716 .19238281 .2314148 .17024739 .23985799 .1529948 .2525228 .140625 .26940919 .1282552 .28630577 .12207031 .3044993 .12207031 .32398988 .12207031 .35906474 .13932292 .38691203 .17382813 .40753175 .20833333 .42816163 .24951172 .43847657 .29736329 .43847657 .3540039 .43847657 .4000651 .4248047 .43554688 .39746095Z"/>
<path id="font_5_3" d="M.2915039 .42382813H.30908204C.3273112 .42382813 .3429362 .41731773 .35595704 .40429688 .36897788 .39127604 .37548829 .3758138 .37548829 .35791017 .37548829 .33870445 .36889649 .3227539 .3557129 .3100586 .3425293 .29736329 .3269857 .29101563 .30908204 .29101563H.2915039C.27327476 .29101563 .25764976 .29752604 .2446289 .31054688 .23160808 .32356773 .22509766 .33902995 .22509766 .3569336 .22509766 .3761393 .23168946 .39208985 .24487305 .40478517 .25805665 .41748048 .27360026 .42382813 .2915039 .42382813M.2915039 .1171875H.30908204C.3273112 .1171875 .3429362 .11073303 .35595704 .0978241 .36897788 .08492533 .37548829 .06932577 .37548829 .05102539 .37548829 .032073976 .36889649 .01622518 .3557129 .003479004 .3425293-.009256999 .3269857-.015625 .30908204-.015625H.2915039C.27327476-.015625 .25764976-.009175618 .2446289 .0037231446 .23160808 .01663208 .22509766 .032236738 .22509766 .05053711 .22509766 .069488529 .23168946 .08533224 .24487305 .09806824 .25805665 .110814418 .27360026 .1171875 .2915039 .1171875Z"/>
<path id="font_5_6" d="M.4350586 .19140625H.16552735L.11035156 .041015626H.18896485C.19873047 .041015626 .20572917 .03914388 .20996094 .03540039 .2141927 .031656904 .2163086 .026692709 .2163086 .020507813 .2163086 .0146484379 .2141927 .009765625 .20996094 .005859375 .20572917 .001953125 .19873047 0 .18896485 0H.03564453C.025878907 0 .018880209 .001953125 .0146484379 .005859375 .010416667 .009765625 .008300781 .0146484379 .008300781 .020507813 .008300781 .026692709 .010416667 .031656904 .0146484379 .03540039 .018880209 .03914388 .025878907 .041015626 .03564453 .041015626H.06738281L.24853516 .53027346H.1274414C.11767578 .53027346 .110677089 .5321452 .10644531 .5358887 .10221354 .53963217 .100097659 .5445964 .100097659 .55078127 .100097659 .5569661 .10221354 .56193038 .10644531 .5656738 .110677089 .5694173 .11767578 .57128909 .1274414 .57128909H.33398438L.5341797 .041015626H.56591799C.5756836 .041015626 .5826823 .03914388 .58691409 .03540039 .5911458 .031656904 .5932617 .026692709 .5932617 .020507813 .5932617 .0146484379 .5911458 .009765625 .58691409 .005859375 .5826823 .001953125 .5756836 0 .56591799 0H.41308595C.40299479 0 .39583335 .001953125 .39160157 .005859375 .38736979 .009765625 .3852539 .0146484379 .3852539 .020507813 .3852539 .026692709 .38736979 .031656904 .39160157 .03540039 .39583335 .03914388 .40299479 .041015626 .41308595 .041015626H.49121095L.4350586 .19140625M.4194336 .23242188 .30615235 .53027346H.29101563L.18115235 .23242188H.4194336Z"/>
<path id="font_5_4" d="M.29101563 .42382813H.30908204C.3273112 .42382813 .34285484 .41731773 .3557129 .40429688 .36857096 .39127604 .375 .3758138 .375 .35791017 .375 .33870445 .3684896 .3227539 .35546876 .3100586 .3424479 .29736329 .3269857 .29101563 .30908204 .29101563H.29101563C.27278648 .29101563 .25724284 .29752604 .24438477 .31054688 .23152669 .32356773 .22509766 .33902995 .22509766 .3569336 .22509766 .3761393 .23168946 .39208985 .24487305 .40478517 .25805665 .41748048 .2734375 .42382813 .29101563 .42382813M.21972656 .1484375H.3486328L.21044922-.078125C.20361328-.08919271 .19816081-.096191409 .1940918-.099121097 .19002278-.10205078 .18522136-.103515628 .1796875-.103515628 .171875-.103515628 .16536458-.10107422 .16015625-.096191409 .15494792-.091308597 .15234375-.08544922 .15234375-.07861328 .15234375-.07470703 .15332031-.06966146 .15527344-.06347656L.21972656 .1484375Z"/>
<path id="font_5_2" d="M.3203125 .62109377V.041015626H.4609375C.47070313 .041015626 .4777018 .03914388 .4819336 .03540039 .48616538 .031656904 .48828126 .026692709 .48828126 .020507813 .48828126 .0146484379 .48616538 .009765625 .4819336 .005859375 .4777018 .001953125 .47070313 0 .4609375 0H.13867188C.12890625 0 .121907558 .001953125 .11767578 .005859375 .11344401 .009765625 .111328128 .0146484379 .111328128 .020507813 .111328128 .026692709 .11344401 .031656904 .11767578 .03540039 .121907558 .03914388 .12890625 .041015626 .13867188 .041015626H.27929688V.5644531L.14550781 .52246096C.13899739 .5205078 .13427735 .51953127 .13134766 .51953127 .12646485 .51953127 .12198893 .52156576 .11791992 .52563479 .113850917 .5297038 .111816409 .5345052 .111816409 .54003909 .111816409 .5449219 .11344401 .5494792 .11669922 .55371096 .11930338 .5563151 .12467448 .55908206 .1328125 .5620117L.3203125 .62109377Z"/>
<path id="font_5_7" d="M.125 .041015626V.53027346H.06982422C.060058595 .53027346 .053059896 .5321452 .048828126 .5358887 .044596357 .53963217 .04248047 .5445964 .04248047 .55078127 .04248047 .5569661 .044596357 .56193038 .048828126 .5656738 .053059896 .5694173 .060058595 .57128909 .06982422 .57128909H.32763673C.3787435 .57128909 .42032878 .5565694 .45239259 .5271301 .4844564 .49769084 .5004883 .46312968 .5004883 .42344667 .5004883 .37334696 .4736328 .33284507 .41992188 .30194093 .4625651 .28663127 .4938151 .26627098 .5136719 .24085999 .5335286 .21545919 .54345706 .18744914 .54345706 .15682984 .54345706 .1294759 .5369466 .10447693 .5239258 .081832889 .51090499 .059199018 .4909668 .039901735 .46411134 .02394104 .43725587 .007980347 .40804038 0 .37646485 0H.06982422C.060058595 0 .053059896 .001953125 .048828126 .005859375 .044596357 .009765625 .04248047 .0146484379 .04248047 .020507813 .04248047 .026692709 .044596357 .031656904 .048828126 .03540039 .053059896 .03914388 .060058595 .041015626 .06982422 .041015626H.125M.16601563 .3173828H.31103517C.34195964 .3173828 .37027995 .32307945 .3959961 .33447267 .41585288 .34358726 .4313151 .35677085 .4423828 .37402345 .45345054 .39127604 .45898438 .40885417 .45898438 .4267578 .45898438 .45247398 .4469401 .4761556 .42285157 .49780274 .39876304 .5194499 .36735026 .53027346 .32861329 .53027346H.16601563V.3173828M.16601563 .041015626H.37353517C.39990235 .041015626 .42285157 .046885175 .4423828 .058624269 .46191407 .070373538 .47672526 .08488973 .4868164 .10217285 .49690757 .11946615 .5019531 .13741048 .5019531 .15600586 .5019531 .17687989 .4947103 .19710286 .4802246 .2166748 .46573893 .23624675 .44563804 .25108848 .41992188 .26119996 .39420573 .27131144 .35872398 .2763672 .31347657 .2763672H.16601563V.041015626Z"/>
<path id="font_5_10" d="M.28076173-.0859375V.5722656H.18164063C.171875 .5722656 .1648763 .5741933 .16064453 .5780487 .15641277 .58191427 .15429688 .58674117 .15429688 .5925293 .15429688 .598643 .15641277 .6036275 .16064453 .6074829 .1648763 .61134847 .171875 .61328127 .18164063 .61328127H.32226563V-.12695313H.18164063C.171875-.12695313 .1648763-.12508138 .16064453-.12133789 .15641277-.1175944 .15429688-.11263021 .15429688-.10644531 .15429688-.10058594 .15641277-.095703128 .16064453-.091796878 .1648763-.087890628 .171875-.0859375 .18164063-.0859375H.28076173Z"/>
<path id="font_6_5" d="M.27294923 .27246095H.4555664L.36572267 .5551758 .27294923 .27246095M.28222657 .71972659H.45214845L.70703127 0H.5439453L.4975586 .14746094H.23242188L.18261719 0H.025390625L.28222657 .71972659M.36621095 .71972659V.71972659Z"/>
<path id="font_6_2" d="M.11767578 .7314453C.16715496 .6623942 .20475261 .59790548 .23046875 .5379791 .2685547 .45004783 .28759767 .36146037 .28759767 .2722168 .28759767 .17418416 .26497398 .074523929 .21972656-.026763916 .19433594-.08343506 .17041016-.12609864 .14794922-.15475464L.11328125-.20214844H.010253906C.053222658-.12463379 .08317057-.061121625 .100097659-.0116119389 .12906902 .07208761 .14355469 .1637675 .14355469 .26342774 .14355469 .32726036 .13834636 .3862101 .12792969 .4402771 .111979167 .52267459 .083496097 .6014913 .04248047 .6767273L.0126953129 .7314453H.11767578Z"/>
<path id="font_6_4" d="M.0625 .14648438H.21044922V0H.0625V.14648438Z"/>
<path id="font_6_1" d="M0 0Z"/>
<path id="font_6_6" d="M.22216797 .59472659V.43652345H.39892579C.4305013 .43652345 .45613609 .44244386 .47583009 .45428468 .49552409 .46613566 .5053711 .4871521 .5053711 .517334 .5053711 .5507609 .49235026 .57282516 .4663086 .5835266 .44384767 .5909932 .4152018 .59472659 .3803711 .59472659H.22216797M.22216797 .3173828V.125H.39892579C.4305013 .125 .45507813 .12924195 .47265626 .13772583 .5045573 .15339153 .5205078 .18341573 .5205078 .22779846 .5205078 .26532493 .5050456 .29110719 .4741211 .30514527 .4568685 .31297813 .4326172 .31705729 .4013672 .3173828H.22216797M.42822267 .71972659C.5164388 .7184245 .5789388 .6929067 .61572268 .6431732 .6378581 .6126251 .6489258 .57606 .6489258 .5334778 .6489258 .4895935 .6378581 .45432536 .61572268 .42767335 .60335287 .41271974 .5851237 .3990682 .56103518 .38671876 .59781906 .37335206 .62556967 .3521627 .6442871 .32315064 .6630046 .29414878 .6723633 .2589518 .6723633 .21755982 .6723633 .17486573 .6616211 .13656616 .6401367 .10266113 .62646487 .08017985 .609375 .061279298 .5888672 .045959474 .5657552 .028361002 .53849288 .016301474 .5070801 .009780884 .47566734 .0032602947 .441569 0 .40478517 0H.07861328V.71972659H.42822267Z"/>
<path id="font_6_13" d="M.20800781 .5957031H.06689453V.7246094H.20800781V.5957031M.06689453 .53222659H.20800781V0H.06689453V.53222659Z"/>
<path id="font_6_21" d="M.010253906 .42871095V.52734377H.084472659V.6767578H.22216797V.52734377H.30859376V.42871095H.22216797V.1466217C.22216797 .12475077 .22493489 .11111959 .23046875 .10572815 .23600261 .100346889 .2529297 .09765625 .28125 .09765625 .28548179 .09765625 .28995768 .09781901 .29467774 .09814453 .2993978 .098470058 .30403648 .098958339 .30859376 .099609378V-.0048828127L.24267578-.0078125C.17692058-.0100911459 .1319987 .0013275147 .107910159 .026443482 .092285159 .042434694 .084472659 .06706747 .084472659 .1003418V.42871095H.010253906Z"/>
<path id="font_6_3" d="M.022949219 .34472657H.30322267V.21289063H.022949219V.34472657Z"/>
<path id="font_6_14" d="M.20703125 0H.067871097V.71875H.20703125V0Z"/>
<path id="font_6_12" d="M.27490235 .4296875C.24267578 .4296875 .21769206 .41986085 .19995117 .40020753 .18221028 .3805542 .1710612 .35392253 .1665039 .3203125H.3828125C.38053385 .35614015 .36938478 .3833262 .34936524 .40187074 .3293457 .42041526 .30452476 .4296875 .27490235 .4296875M.27490235 .54589846C.3191732 .54589846 .35904948 .53760787 .39453126 .5210266 .43001304 .50445559 .4593099 .47829185 .48242188 .4425354 .5032552 .41101075 .51676437 .3744456 .5229492 .33283998 .52652999 .30846659 .5279948 .2733663 .52734377 .22753906H.16308594C.16503906 .17434693 .18180339 .13704936 .2133789 .11564636 .23258464 .10235087 .25569663 .095703128 .28271485 .095703128 .3113607 .095703128 .3346354 .103775028 .35253907 .11991882 .3623047 .12863668 .370931 .14074707 .37841798 .15625H.5205078C.51692709 .12467448 .5004883 .09261068 .4711914 .060058595 .4256185 .008300781 .3618164-.017578125 .27978517-.017578125 .21207683-.017578125 .15234375 .004211426 .10058594 .047790529 .048828126 .0913798 .022949219 .1622823 .022949219 .26049806 .022949219 .35253907 .04630534 .42311607 .09301758 .472229 .13972982 .521342 .20035808 .54589846 .27490235 .54589846M.28466798 .54589846V.54589846Z"/>
<path id="font_6_22" d="M.3930664 .53222659H.54248049L.35058595 0H.20361328L.0126953129 .53222659H.16894531L.27978517 .13964844 .3930664 .53222659Z"/>
<path id="font_6_15" d="M.65966799 .5439453C.68310549 .5439453 .70621749 .53942367 .7290039 .53038027 .75179037 .52134707 .77246096 .5055339 .7910156 .48294068 .80598959 .46436564 .81608077 .44155375 .82128909 .414505 .82454428 .39658103 .8261719 .37035118 .8261719 .33581544L.8251953 0H.6826172V.3388672C.6826172 .35904948 .679362 .37565104 .67285159 .38867188 .66048178 .41341148 .6376953 .42578126 .6044922 .42578126 .56608077 .42578126 .5395508 .40983073 .52490237 .3779297 .51741537 .3610026 .5136719 .34065757 .5136719 .31689454V0H.37353517V.31652833C.37353517 .34807334 .37027995 .3709971 .36376954 .38529969 .35205079 .41098533 .32910157 .42382813 .29492188 .42382813 .25520835 .42382813 .22851563 .41098533 .21484375 .38529969 .20735677 .3706716 .20361328 .34888713 .20361328 .3199463V0H.0625V.53222659H.1977539V.45387269C.21500652 .48146058 .23128255 .50109866 .24658203 .51278689 .27360026 .53355917 .30859376 .5439453 .3515625 .5439453 .3922526 .5439453 .42513023 .5350189 .4501953 .51716616 .4703776 .5006154 .4856771 .47935487 .49609376 .4533844 .51432296 .48454286 .5369466 .50742599 .56396487 .5220337 .59261068 .5366414 .6245117 .5439453 .65966799 .5439453Z"/>
<path id="font_6_18" d="M.43164063 .26538087C.43164063 .30646769 .4222819 .3428192 .40356446 .37443543 .38484703 .4060618 .3544922 .421875 .3125 .421875 .26204429 .421875 .2273763 .3979136 .2084961 .34999085 .19873047 .32455955 .19384766 .2922821 .19384766 .25315858 .19384766 .19121807 .21028646 .1476949 .24316406 .12258911 .2626953 .10792033 .28580729 .10058594 .3125 .10058594 .35123698 .10058594 .38077799 .11558024 .40112306 .14556885 .4214681 .17556763 .43164063 .21550496 .43164063 .26538087M.35253907 .5439453C.41471354 .5439453 .46736656 .52097579 .51049807 .47503663 .5536296 .4290975 .5751953 .36165367 .5751953 .27270509 .5751953 .1788737 .55411788 .10736084 .5119629 .058166505 .46980796 .008972168 .41552735-.015625 .3491211-.015625 .30680339-.015625 .27164714-.005091349 .24365235 .015975953 .22835286 .027643839 .2133789 .044662477 .19873047 .06703186V-.20996094H.061035158V.53222659H.19433594V.45326234C.20930989 .47646586 .22526042 .49476625 .2421875 .50816348 .27311198 .532018 .30989585 .5439453 .35253907 .5439453Z"/>
<path id="font_6_16" d="M.35986329 .54589846C.4148763 .54589846 .45987956 .5314331 .49487306 .50250247 .5298665 .47358195 .5473633 .42571006 .5473633 .35888673V0H.40478517V.32409669C.40478517 .35212199 .40104167 .3736318 .3935547 .3886261 .3798828 .41600038 .35384117 .4296875 .3154297 .4296875 .26822917 .4296875 .23583985 .4096476 .21826172 .36956788 .20914714 .3483785 .20458985 .32132469 .20458985 .28840638V0H.06591797V.53222659H.20019531V.45422364C.21809896 .4816793 .23502605 .50145468 .25097657 .5135498 .2796224 .53511556 .31591798 .54589846 .35986329 .54589846M.30859376 .54589846V.54589846Z"/>
<path id="font_6_8" d="M.35839845 .2589264C.34960938 .2533722 .34073893 .24887593 .3317871 .24543762 .3228353 .24200948 .31054688 .23882549 .29492188 .23588562L.26367188 .23001099C.234375 .2247823 .2133789 .21840923 .2006836 .21089173 .17919922 .19815572 .16845703 .17839559 .16845703 .15161133 .16845703 .12775676 .17504883 .11051941 .18823242 .09989929 .20141602 .089289348 .21744792 .083984378 .23632813 .083984378 .26627604 .083984378 .29386393 .092803958 .3190918 .110443118 .34431968 .12808228 .35742188 .16026306 .35839845 .20698548V.2589264M.27392579 .3238678C.29964195 .32713319 .31803385 .33121238 .32910157 .33610536 .34895835 .3445994 .35888673 .35782878 .35888673 .37579347 .35888673 .39767457 .35131837 .41277568 .33618165 .4210968 .32104493 .4294281 .29882813 .43359376 .26953126 .43359376 .23665364 .43359376 .2133789 .42545573 .19970703 .4091797 .1899414 .3971354 .18343099 .38085938 .18017578 .36035157H.045898439C.048828126 .4070231 .061848958 .44537355 .08496094 .47540284 .12174479 .5223999 .18489583 .54589846 .27441407 .54589846 .33268229 .54589846 .3844401 .53426107 .4296875 .5109863 .4749349 .48771159 .4975586 .4440104 .4975586 .3798828V.13574219C.4975586 .1188151 .49788413 .09830729 .49853517 .07421875 .49951173 .055826826 .5022786 .043345136 .50683596 .03677368 .51139327 .03020223 .5182292 .024780274 .52734377 .020507813V0H.37597657C.37174479 .010681152 .3688151 .020711264 .3671875 .030090332 .3655599 .039479574 .3642578 .050160726 .36328126 .06213379 .34407554 .041137697 .3219401 .023259482 .296875 .0084991459 .2669271-.008885701 .23307292-.017578125 .1953125-.017578125 .14713542-.017578125 .10734049-.0037790936 .075927738 .02381897 .044514974 .051417035 .028808594 .09052531 .028808594 .1411438 .028808594 .20678711 .054036458 .25430299 .10449219 .2836914 .13216146 .29969279 .17285156 .3111216 .2265625 .3179779L.27392579 .3238678M.28125 .54589846V.54589846Z"/>
<path id="font_6_17" d="M.30371095 .09863281C.34440104 .09863281 .37565104 .113098148 .39746095 .14202881 .41927085 .17095948 .43017579 .21207683 .43017579 .26538087 .43017579 .3186849 .41927085 .35972087 .39746095 .38848878 .37565104 .41725669 .34440104 .43164063 .30371095 .43164063 .26302085 .43164063 .23168946 .41725669 .2097168 .38848878 .18774414 .35972087 .17675781 .3186849 .17675781 .26538087 .17675781 .21207683 .18774414 .17095948 .2097168 .14202881 .23168946 .113098148 .26302085 .09863281 .30371095 .09863281M.5761719 .26586915C.5761719 .18781536 .55371096 .12105814 .50878909 .065597537 .4638672 .010147095 .39567057-.017578125 .30419923-.017578125 .21272786-.017578125 .14453125 .010147095 .099609378 .065597537 .0546875 .12105814 .032226564 .18781536 .032226564 .26586915 .032226564 .342631 .0546875 .40914408 .099609378 .46540834 .14453125 .52167257 .21272786 .5498047 .30419923 .5498047 .39567057 .5498047 .4638672 .52167257 .50878909 .46540834 .55371096 .40914408 .5761719 .342631 .5761719 .26586915M.30419923 .5498047V.5498047Z"/>
<path id="font_7_1" d="M0 0Z"/>
<path id="font_6_7" d="M.1743164 .71972659 .26953126 .3076172 .29003907 .1928711 .31103517 .30517579 .39208985 .71972659H.55078127L.63623049 .3076172 .6582031 .1928711 .6801758 .30322267 .7763672 .71972659H.9291992L.7265625 0H.5830078L.49609376 .42089845 .47070313 .5600586 .4453125 .42089845 .35839845 0H.21875L.0146484379 .71972659H.1743164Z"/>
<path id="font_6_19" d="M.3540039 .54589846C.35660807 .54589846 .35880534 .5458171 .3605957 .5456543 .36238609 .5454915 .3663737 .5452474 .3725586 .5449219V.40234376C.36376954 .40312705 .35595704 .40364585 .3491211 .40390016 .34228517 .40416465 .3367513 .40429688 .33251954 .40429688 .27652995 .40429688 .2389323 .38604737 .21972656 .34954835 .20898438 .32901 .20361328 .2973938 .20361328 .2546997V0H.06347656V.53222659H.19628906V.43980409C.21777344 .47549949 .23649089 .4998932 .2524414 .5129852 .27848307 .53492739 .31233726 .54589846 .3540039 .54589846Z"/>
<path id="font_6_11" d="M.26123048 .54589846C.29345704 .54589846 .32210288 .53878787 .34716798 .52456668 .37223307 .51035568 .39257813 .49066673 .40820313 .46549989V.71875H.5493164V0H.4140625V.073013309C.39420573 .041346235 .37158204 .018330893 .3461914 .003967285 .32080079-.010396321 .28922526-.017578125 .25146485-.017578125 .18929036-.017578125 .13696289 .0076548259 .09448242 .058120729 .052001954 .10858663 .030761719 .17334493 .030761719 .25239564 .030761719 .34353129 .051676435 .41523234 .09350586 .46749879 .13533528 .5197652 .19124349 .54589846 .26123048 .54589846M.2915039 .099609378C.33089195 .099609378 .36083985 .11432394 .38134767 .14375305 .40185548 .17318218 .41210938 .21127828 .41210938 .25804139 .41210938 .32344056 .39567057 .37019859 .36279298 .39831544 .3426107 .41532389 .3191732 .42382813 .29248048 .42382813 .25179038 .42382813 .22192383 .40837608 .20288086 .37747193 .18383789 .34657798 .1743164 .3082377 .1743164 .26245118 .1743164 .21307373 .18400066 .17358907 .20336914 .14399719 .22273763 .11440531 .25211589 .099609378 .2915039 .099609378Z"/>
<path id="font_6_9" d="M.35253907 .5439453C.42252604 .5439453 .47729493 .518692 .5168457 .46818543 .5563965 .417689 .5761719 .3525289 .5761719 .27270509 .5761719 .18995159 .5566406 .12136841 .5175781 .06695557 .47851563 .012552897 .42399089-.0146484379 .3540039-.0146484379 .3100586-.0146484379 .2747396-.0057373049 .24804688 .012084961 .23209636 .022654215 .21484375 .04114278 .19628906 .06755066V0H.060058595V.71875H.19873047V.4625702C.2163086 .4874115 .23567708 .506368 .25683595 .5194397 .28190104 .5357768 .3138021 .5439453 .35253907 .5439453M.31689454 .1015625C.3527018 .1015625 .38053385 .115982059 .40039063 .14482117 .4202474 .17366028 .43017579 .21157329 .43017579 .25856019 .43017579 .29614768 .42529298 .32725526 .41552735 .35188294 .39697267 .3985443 .36279298 .421875 .31298829 .421875 .26253257 .421875 .22786458 .3990326 .20898438 .35334779 .19921875 .32903544 .19433594 .29760234 .19433594 .25904847 .19433594 .213679 .20442708 .17608643 .22460938 .14627075 .24479167 .11646525 .27555339 .1015625 .31689454 .1015625Z"/>
<path id="font_6_20" d="M.17333985 .17089844C.17626953 .14600627 .18261719 .12832134 .19238281 .11784363 .20963542 .09917704 .24153646 .08984375 .28808595 .08984375 .3154297 .08984375 .3371582 .09392802 .35327149 .10209656 .36938478 .11027527 .3774414 .122538249 .3774414 .1388855 .3774414 .15457154 .370931 .1665039 .35791017 .17468262 .3448893 .18285115 .29654948 .19681295 .21289063 .216568 .15266927 .23147075 .110188808 .2501475 .08544922 .27259828 .060709638 .2947235 .048339845 .32660929 .048339845 .36825563 .048339845 .41737876 .06762695 .45958964 .10620117 .4948883 .14477539 .53019717 .19905599 .54785159 .26904298 .54785159 .33544923 .54785159 .38956706 .53455099 .43139649 .5079498 .47322593 .48134867 .49723307 .43540446 .50341799 .3701172H.3642578C.3623047 .3881429 .35725913 .4023997 .3491211 .41288758 .33382163 .43190003 .30777995 .44140626 .2709961 .44140626 .24072266 .44140626 .2191569 .43666587 .20629883 .42718507 .19344075 .41770426 .18701172 .4065908 .18701172 .3938446 .18701172 .37783305 .19384766 .3662313 .20751953 .3590393 .2211914 .35152183 .26953126 .33869425 .35253907 .32055665 .4078776 .30759684 .4493815 .28793846 .47705079 .26158143 .50439456 .23489888 .5180664 .20154827 .5180664 .16152954 .5180664 .10882568 .49845378 .0657959 .45922853 .032440187 .42000328-.0009053548 .359375-.017578125 .27734376-.017578125 .19368489-.017578125 .13191732 .00012715657 .092041019 .03553772 .052164716 .07094828 .032226564 .11606852 .032226564 .17089844H.17333985M.27978517 .54785159V.54785159Z"/>
<path id="font_6_10" d="M.3828125 .34179688C.38020835 .36165367 .37353517 .37955729 .36279298 .3955078 .34716798 .4169922 .32291667 .42773438 .29003907 .42773438 .24316406 .42773438 .21110027 .40445964 .19384766 .35791017 .18473308 .33326213 .18017578 .3005015 .18017578 .2596283 .18017578 .2207082 .18473308 .18940735 .19384766 .16572571 .21044922 .12099711 .24169922 .09863281 .28759767 .09863281 .32014976 .09863281 .34326173 .10751343 .3569336 .12527466 .37060548 .14303589 .37890626 .16605632 .38183595 .19433594H.5239258C.5206706 .1519165 .5053711 .11178589 .47802735 .07394409 .43440757 .01292928 .36979167-.017578125 .2841797-.017578125 .1985677-.017578125 .13557942 .007792155 .095214847 .058532716 .05485026 .10927328 .03466797 .17511495 .03466797 .25605775 .03466797 .34739686 .056966146 .41853843 .1015625 .46948243 .14615886 .52042648 .2076823 .54589846 .2861328 .54589846 .3528646 .54589846 .4074707 .53088888 .44995118 .50086978 .49243165 .47085063 .5175781 .41782633 .5253906 .34179688H.3828125M.28857423 .54589846V.54589846Z"/>
<clipPath id="clip_8">
<path transform="matrix(1,0,0,-1,-71.3468,559.679)" d="M36 36H756V576H36Z"/>
</clipPath>
<path id="font_1_8" d="M.07373047 .71777346H.21289063L.4189453 .11091614 .62353518 .71777346H.76123049V0H.6689453V.42362977C.6689453 .43828837 .6692708 .46255494 .6699219 .49642945 .67057296 .53030398 .67089846 .56662496 .67089846 .60539248L.4663086 0H.3701172L.1640625 .60539248V.58340457C.1640625 .5658162 .1644694 .5390218 .1652832 .50302127 .166097 .46703086 .1665039 .44056703 .1665039 .42362977V0H.07373047V.71777346Z"/>
<path id="font_1_10" d="M.18164063 .71777346V.27441407C.18164063 .22233074 .19140625 .17903646 .2109375 .14453125 .23990886 .092447917 .28873698 .06640625 .35742188 .06640625 .43977867 .06640625 .49576823 .094563808 .5253906 .1508789 .5413411 .18147786 .5493164 .22265625 .5493164 .27441407V.71777346H.6479492V.3149414C.6479492 .22672527 .6360677 .15885417 .6123047 .111328128 .5686849 .024739584 .48632813-.018554688 .36523438-.018554688 .24414063-.018554688 .16194661 .024739584 .118652347 .111328128 .09488932 .15885417 .08300781 .22672527 .08300781 .3149414V.71777346H.18164063M.36572267 .71777346V.71777346Z"/>
<path id="font_1_11" d="M.13769531 0H.020507813L.27734376 .3681488 .036621095 .71777346H.15820313L.3413086 .44317628 .5229492 .71777346H.6386719L.39794923 .3680725 .6503906 0H.52978518L.33642579 .29512025 .13769531 0Z"/>
<path id="font_1_1" d="M.115722659 .71777346H.21484375V.48171998L.19091797 .17089844H.14111328L.115722659 .48171998V.71777346M.115722659 .1015625H.21289063V0H.115722659V.1015625Z"/>
</defs>
<g clip-path="url(#clip_0)">
<path transform="matrix(1,0,0,-1,-71.3468,559.679)" d="M36 36H756V576H36Z" fill="#ffffff"/>
<path transform="matrix(1,0,0,-1,-71.3468,559.679)" d="M138 451.125H360V355.125H138Z" fill="#eeeeee" fill-rule="evenodd"/>
<path transform="matrix(1,0,0,-1,66.6532,108.554019)" stroke-width=".75" stroke-linecap="butt" stroke-miterlimit="8" stroke-linejoin="miter" fill="none" stroke="#000000" d="M0 0H222V-96H0Z"/>
<path transform="matrix(1,0,0,-1,192.6532,132.55402)" stroke-width="1.5" stroke-linecap="butt" stroke-linejoin="round" fill="none" stroke="#000000" d="M0 0H18V-12H42"/>
<path transform="matrix(1,0,0,-1,192.6532,180.55402)" stroke-width="1.5" stroke-linecap="butt" stroke-linejoin="round" fill="none" stroke="#000000" d="M0 0H18V12H42"/>
<path transform="matrix(1,0,0,-1,275.7782,156.05402)" stroke-width="1.5" stroke-linecap="butt" stroke-linejoin="round" fill="none" stroke="#000000" d="M0 0 30.875-.5"/>
<path transform="matrix(1,0,0,-1,228.4032,138.55402)" d="M0 0H23.75L28.375-.375 32.75-1.375 36.5-2.75 40.25-5 46.5-10.125 51.25-17.5 46.5-24.375 40.25-30 36.5-31.75 32.75-33.25 28.375-34.125 23.75-34.625H0L2.75-30.875 4.75-26.75 5.625-22.125 6.125-17.5 5.625-12.375 4.75-8.25 2.75-4.125Z" fill="#ffffff" fill-rule="evenodd"/>
<path transform="matrix(1,0,0,-1,228.4032,138.55402)" d="M0 0H23.75L28.375-.375 32.75-1.375 36.5-2.75 40.25-5 46.5-10.125 51.25-17.5 46.5-24.375 40.25-30 36.5-31.75 32.75-33.25 28.375-34.125 23.75-34.625H0L2.75-30.875 4.75-26.75 5.625-22.125 6.125-17.5 5.625-12.375 4.75-8.25 2.75-4.125Z" fill="#ffffff" fill-rule="evenodd"/>
<path transform="matrix(1,0,0,-1,228.4032,138.55402)" stroke-width="1" stroke-linecap="butt" stroke-linejoin="round" fill="none" stroke="#000000" d="M0 0H23.75L28.375-.375 32.75-1.375 36.5-2.75 40.25-5 46.5-10.125 51.25-17.5 46.5-24.375 40.25-30 36.5-31.75 32.75-33.25 28.375-34.125 23.75-34.625H0L2.75-30.875 4.75-26.75 5.625-22.125 6.125-17.5 5.625-12.375 4.75-8.25 2.75-4.125 0 0"/>
<path transform="matrix(1,0,0,-1,120.778308,79.80411)" stroke-width="1.5" stroke-linecap="butt" stroke-linejoin="round" fill="none" stroke="#000000" d="M0 0-.125-11.875"/>
<path transform="matrix(1,0,0,-1,131.6532,55.679109)" d="M0 0H-23L-11.5-23.75Z" fill="#ffffff" fill-rule="evenodd"/>
<path transform="matrix(1,0,0,-1,131.6532,55.679109)" d="M0 0H-23L-11.5-23.75Z" fill="#ffffff" fill-rule="evenodd"/>
<path transform="matrix(1,0,0,-1,131.6532,55.679109)" stroke-width="1" stroke-linecap="butt" stroke-linejoin="round" fill="none" stroke="#000000" d="M0 0H-23L-11.5-23.75 0 0"/>
<path transform="matrix(1,0,0,-1,119.9657,85.99161)" d="M0 0-1.875 .875-2.75 3.25-1.875 5.125 0 6.125 2.25 5.125 3.25 3.25 2.25 .875Z" fill="#ffffff" fill-rule="evenodd"/>
<path transform="matrix(1,0,0,-1,119.9657,85.99161)" d="M0 0-1.875 .875-2.75 3.25-1.875 5.125 0 6.125 2.25 5.125 3.25 3.25 2.25 .875Z" fill="#ffffff" fill-rule="evenodd"/>
<path transform="matrix(1,0,0,-1,119.9657,85.99161)" stroke-width="1" stroke-linecap="butt" stroke-linejoin="round" fill="none" stroke="#000000" d="M0 0-1.875 .875-2.75 3.25-1.875 5.125 0 6.125 2.25 5.125 3.25 3.25 2.25 .875 0 0"/>
<path transform="matrix(1,0,0,-1,119.9032,43.6792)" stroke-width="1.5" stroke-linecap="butt" stroke-linejoin="round" fill="none" stroke="#000000" d="M0 0-.125-11.875"/>
<path transform="matrix(1,0,0,-1,132.6532,121.679019)" stroke-width="1.5" stroke-linecap="butt" stroke-linejoin="round" fill="none" stroke="#000000" d="M0 0 11.875-.125"/>
<path transform="matrix(1,0,0,-1,42.6532,144.55402)" stroke-width="1.5" stroke-linecap="butt" stroke-linejoin="round" fill="none" stroke="#000000" d="M0 0 101.875-.125"/>
<path transform="matrix(1,0,0,-1,192.2782,132.05402)" d="M0 0-.5-3.25-1.5-6.5-2.875-9.25-5.25-12-8.125-14.25-11-15.75-14.375-16.625-18.125-17.125H-47.75V17.5H-18.125L-14.375 17.125-11 16.125-8.125 14.75-5.25 12.5-2.875 9.75-1.5 6.875-.5 3.75Z" fill="#ffffff" fill-rule="evenodd"/>
<path transform="matrix(1,0,0,-1,192.2782,132.05411)" stroke-width="1" stroke-linecap="butt" stroke-linejoin="round" fill="none" stroke="#000000" d="M0 0-.5-3.25-1.5-6.5-2.875-9.25-5.25-12-8.125-14.25-11-15.75-14.375-16.625-18.125-17.125H-47.75V17.5H-18.125L-14.375 17.125-11 16.125-8.125 14.75-5.25 12.5-2.875 9.75-1.5 6.875-.5 3.75 0 0"/>
<use data-text="b" xlink:href="#font_1_13" transform="matrix(16,0,0,-16,13.728195,146.15402)"/>
<use data-text="6" xlink:href="#font_1_5" transform="matrix(10.6667,0,0,-10.6667,22.626702,150.15402)"/>
<use data-text="3" xlink:href="#font_1_4" transform="matrix(10.6667,0,0,-10.6667,28.557389,150.15402)"/>
<use data-text="&#xfffd;" xlink:href="#font_2_1" transform="matrix(10.6667,0,0,-10.6667,34.488077,150.15402)"/>
<use data-text="s" xlink:href="#font_1_15" transform="matrix(16,0,0,-16,13.853195,45.27899)"/>
<use data-text="&#xfffd;" xlink:href="#font_2_1" transform="matrix(16,0,0,-16,21.853196,45.27899)"/>
<path transform="matrix(1,0,0,-1,90.6532,168.55402)" stroke-width="1.5" stroke-linecap="butt" stroke-linejoin="round" fill="none" stroke="#000000" d="M0 0 53.875-.125"/>
<path transform="matrix(1,0,0,-1,42.6532,192.55402)" stroke-width="1.5" stroke-linecap="butt" stroke-linejoin="round" fill="none" stroke="#000000" d="M0 0H102"/>
<path transform="matrix(1,0,0,-1,192.2782,180.05402)" d="M0 0-.5-3.25-1.5-6.5-2.875-9.25-5.25-12-8.125-14.25-11-15.75-14.375-16.625-18.125-17.125H-47.75V17.5H-18.125L-14.375 17.125-11 16.125-8.125 14.75-5.25 12.5-2.875 9.75-1.5 6.875-.5 3.75Z" fill="#ffffff" fill-rule="evenodd"/>
<path transform="matrix(1,0,0,-1,192.2782,180.05411)" stroke-width="1" stroke-linecap="butt" stroke-linejoin="round" fill="none" stroke="#000000" d="M0 0-.5-3.25-1.5-6.5-2.875-9.25-5.25-12-8.125-14.25-11-15.75-14.375-16.625-18.125-17.125H-47.75V17.5H-18.125L-14.375 17.125-11 16.125-8.125 14.75-5.25 12.5-2.875 9.75-1.5 6.875-.5 3.75 0 0"/>
<use data-text="a" xlink:href="#font_1_12" transform="matrix(16,0,0,-16,13.728195,197.65402)"/>
<use data-text="6" xlink:href="#font_1_5" transform="matrix(10.6667,0,0,-10.6667,22.626702,201.65402)"/>
<use data-text="3" xlink:href="#font_1_4" transform="matrix(10.6667,0,0,-10.6667,28.557389,201.65402)"/>
<use data-text="&#xfffd;" xlink:href="#font_2_1" transform="matrix(10.6667,0,0,-10.6667,34.488077,201.65402)"/>
<path transform="matrix(1,0,0,-1,42.6532,43.6792)" stroke-width="1.5" stroke-linecap="butt" stroke-linejoin="round" fill="none" stroke="#000000" d="M0 0H78"/>
<path transform="matrix(1,0,0,-1,132.6532,121.679019)" stroke-width="1.5" stroke-linecap="butt" stroke-linejoin="round" fill="none" stroke="#000000" d="M0 0H-12V12"/>
<use data-text="o" xlink:href="#font_1_14" transform="matrix(16,0,0,-16,319.8532,164.15402)"/>
<use data-text="u" xlink:href="#font_1_17" transform="matrix(16,0,0,-16,328.7492,164.15402)"/>
<use data-text="t" xlink:href="#font_1_16" transform="matrix(16,0,0,-16,337.6452,164.15402)"/>
<use data-text="6" xlink:href="#font_1_5" transform="matrix(10.6667,0,0,-10.6667,342.0954,168.15402)"/>
<use data-text="3" xlink:href="#font_1_4" transform="matrix(10.6667,0,0,-10.6667,348.0261,168.15402)"/>
<use data-text="&#xfffd;" xlink:href="#font_2_1" transform="matrix(10.6667,0,0,-10.6667,353.9568,168.15402)"/>
<path transform="matrix(1,0,0,-1,-71.3468,559.679)" d="M138 355.125H360V259.125H138Z" fill="#eeeeee" fill-rule="evenodd"/>
<path transform="matrix(1,0,0,-1,66.6532,204.55402)" stroke-width=".75" stroke-linecap="butt" stroke-miterlimit="8" stroke-linejoin="miter" fill="none" stroke="#000000" d="M0 0H222V-96H0Z"/>
<path transform="matrix(1,0,0,-1,192.6532,228.55402)" stroke-width="1.5" stroke-linecap="butt" stroke-linejoin="round" fill="none" stroke="#000000" d="M0 0H18V-12H42"/>
<path transform="matrix(1,0,0,-1,192.6532,276.55403)" stroke-width="1.5" stroke-linecap="butt" stroke-linejoin="round" fill="none" stroke="#000000" d="M0 0H18V12H42"/>
<path transform="matrix(1,0,0,-1,275.7782,252.05402)" stroke-width="1.5" stroke-linecap="butt" stroke-linejoin="round" fill="none" stroke="#000000" d="M0 0 30.875-.5"/>
<path transform="matrix(1,0,0,-1,228.4032,234.55402)" d="M0 0H23.75L28.375-.375 32.75-1.375 36.5-2.75 40.25-5 46.5-10.125 51.25-17.5 46.5-24.375 40.25-30 36.5-31.75 32.75-33.25 28.375-34.125 23.75-34.625H0L2.75-30.875 4.75-26.75 5.625-22.125 6.125-17.5 5.625-12.375 4.75-8.25 2.75-4.125Z" fill="#ffffff" fill-rule="evenodd"/>
<path transform="matrix(1,0,0,-1,228.4032,234.55402)" d="M0 0H23.75L28.375-.375 32.75-1.375 36.5-2.75 40.25-5 46.5-10.125 51.25-17.5 46.5-24.375 40.25-30 36.5-31.75 32.75-33.25 28.375-34.125 23.75-34.625H0L2.75-30.875 4.75-26.75 5.625-22.125 6.125-17.5 5.625-12.375 4.75-8.25 2.75-4.125Z" fill="#ffffff" fill-rule="evenodd"/>
<path transform="matrix(1,0,0,-1,228.4032,234.55402)" stroke-width="1" stroke-linecap="butt" stroke-linejoin="round" fill="none" stroke="#000000" d="M0 0H23.75L28.375-.375 32.75-1.375 36.5-2.75 40.25-5 46.5-10.125 51.25-17.5 46.5-24.375 40.25-30 36.5-31.75 32.75-33.25 28.375-34.125 23.75-34.625H0L2.75-30.875 4.75-26.75 5.625-22.125 6.125-17.5 5.625-12.375 4.75-8.25 2.75-4.125 0 0"/>
<path transform="matrix(1,0,0,-1,132.6532,216.55402)" stroke-width="1.5" stroke-linecap="butt" stroke-linejoin="round" fill="none" stroke="#000000" d="M0 0 11.875-.125"/>
<path transform="matrix(1,0,0,-1,42.6532,240.55402)" stroke-width="1.5" stroke-linecap="butt" stroke-linejoin="round" fill="none" stroke="#000000" d="M0 0 101.875-.125"/>
<path transform="matrix(1,0,0,-1,192.2782,228.05402)" d="M0 0-.5-3.25-1.5-6.5-2.875-9.25-5.25-12-8.125-14.25-11-15.75-14.375-16.625-18.125-17.125H-47.75V17.5H-18.125L-14.375 17.125-11 16.125-8.125 14.75-5.25 12.5-2.875 9.75-1.5 6.875-.5 3.75Z" fill="#ffffff" fill-rule="evenodd"/>
<path transform="matrix(1,0,0,-1,192.2782,228.05411)" stroke-width="1" stroke-linecap="butt" stroke-linejoin="round" fill="none" stroke="#000000" d="M0 0-.5-3.25-1.5-6.5-2.875-9.25-5.25-12-8.125-14.25-11-15.75-14.375-16.625-18.125-17.125H-47.75V17.5H-18.125L-14.375 17.125-11 16.125-8.125 14.75-5.25 12.5-2.875 9.75-1.5 6.875-.5 3.75 0 0"/>
<use data-text="b" xlink:href="#font_1_13" transform="matrix(16,0,0,-16,13.728195,242.15402)"/>
<use data-text="6" xlink:href="#font_1_5" transform="matrix(10.6667,0,0,-10.6667,22.626702,246.15402)"/>
<use data-text="2" xlink:href="#font_1_3" transform="matrix(10.6667,0,0,-10.6667,28.557389,246.15402)"/>
<use data-text="&#xfffd;" xlink:href="#font_2_1" transform="matrix(10.6667,0,0,-10.6667,34.488077,246.15402)"/>
<path transform="matrix(1,0,0,-1,90.6532,264.55403)" stroke-width="1.5" stroke-linecap="butt" stroke-linejoin="round" fill="none" stroke="#000000" d="M0 0 53.875-.125"/>
<path transform="matrix(1,0,0,-1,42.6532,288.55403)" stroke-width="1.5" stroke-linecap="butt" stroke-linejoin="round" fill="none" stroke="#000000" d="M0 0H102"/>
<path transform="matrix(1,0,0,-1,192.2782,276.05403)" d="M0 0-.5-3.25-1.5-6.5-2.875-9.25-5.25-12-8.125-14.25-11-15.75-14.375-16.625-18.125-17.125H-47.75V17.5H-18.125L-14.375 17.125-11 16.125-8.125 14.75-5.25 12.5-2.875 9.75-1.5 6.875-.5 3.75Z" fill="#ffffff" fill-rule="evenodd"/>
<path transform="matrix(1,0,0,-1,192.2782,276.0541)" stroke-width="1" stroke-linecap="butt" stroke-linejoin="round" fill="none" stroke="#000000" d="M0 0-.5-3.25-1.5-6.5-2.875-9.25-5.25-12-8.125-14.25-11-15.75-14.375-16.625-18.125-17.125H-47.75V17.5H-18.125L-14.375 17.125-11 16.125-8.125 14.75-5.25 12.5-2.875 9.75-1.5 6.875-.5 3.75 0 0"/>
<use data-text="a" xlink:href="#font_1_12" transform="matrix(16,0,0,-16,13.728195,293.65403)"/>
<use data-text="6" xlink:href="#font_1_5" transform="matrix(10.6667,0,0,-10.6667,22.626702,297.65403)"/>
<use data-text="2" xlink:href="#font_1_3" transform="matrix(10.6667,0,0,-10.6667,28.557389,297.65403)"/>
<use data-text="&#xfffd;" xlink:href="#font_2_1" transform="matrix(10.6667,0,0,-10.6667,34.488077,297.65403)"/>
<path transform="matrix(1,0,0,-1,132.6532,216.55402)" stroke-width="1.5" stroke-linecap="butt" stroke-linejoin="round" fill="none" stroke="#000000" d="M0 0H-12V12"/>
<use data-text="o" xlink:href="#font_1_14" transform="matrix(16,0,0,-16,319.8532,260.15403)"/>
<use data-text="u" xlink:href="#font_1_17" transform="matrix(16,0,0,-16,328.7492,260.15403)"/>
<use data-text="t" xlink:href="#font_1_16" transform="matrix(16,0,0,-16,337.6452,260.15403)"/>
<use data-text="6" xlink:href="#font_1_5" transform="matrix(10.6667,0,0,-10.6667,342.0954,264.15403)"/>
<use data-text="2" xlink:href="#font_1_3" transform="matrix(10.6667,0,0,-10.6667,348.0261,264.15403)"/>
<use data-text="&#xfffd;" xlink:href="#font_2_1" transform="matrix(10.6667,0,0,-10.6667,353.9568,264.15403)"/>
<path transform="matrix(1,0,0,-1,-71.3468,559.679)" d="M138 163.125H360V67.125H138Z" fill="#eeeeee" fill-rule="evenodd"/>
<path transform="matrix(1,0,0,-1,66.6532,396.55403)" stroke-width=".75" stroke-linecap="butt" stroke-miterlimit="8" stroke-linejoin="miter" fill="none" stroke="#000000" d="M0 0H222V-96H0Z"/>
<path transform="matrix(1,0,0,-1,192.6532,420.55403)" stroke-width="1.5" stroke-linecap="butt" stroke-linejoin="round" fill="none" stroke="#000000" d="M0 0H18V-12H42"/>
<path transform="matrix(1,0,0,-1,192.6532,468.55403)" stroke-width="1.5" stroke-linecap="butt" stroke-linejoin="round" fill="none" stroke="#000000" d="M0 0H18V12H42"/>
<path transform="matrix(1,0,0,-1,275.7782,444.05403)" stroke-width="1.5" stroke-linecap="butt" stroke-linejoin="round" fill="none" stroke="#000000" d="M0 0 30.875-.5"/>
<path transform="matrix(1,0,0,-1,228.4032,426.55403)" d="M0 0H23.75L28.375-.375 32.75-1.375 36.5-2.75 40.25-5 46.5-10.125 51.25-17.5 46.5-24.375 40.25-30 36.5-31.75 32.75-33.25 28.375-34.125 23.75-34.625H0L2.75-30.875 4.75-26.75 5.625-22.125 6.125-17.5 5.625-12.375 4.75-8.25 2.75-4.125Z" fill="#ffffff" fill-rule="evenodd"/>
<path transform="matrix(1,0,0,-1,228.4032,426.55403)" d="M0 0H23.75L28.375-.375 32.75-1.375 36.5-2.75 40.25-5 46.5-10.125 51.25-17.5 46.5-24.375 40.25-30 36.5-31.75 32.75-33.25 28.375-34.125 23.75-34.625H0L2.75-30.875 4.75-26.75 5.625-22.125 6.125-17.5 5.625-12.375 4.75-8.25 2.75-4.125Z" fill="#ffffff" fill-rule="evenodd"/>
<path transform="matrix(1,0,0,-1,228.4032,426.55403)" stroke-width="1" stroke-linecap="butt" stroke-linejoin="round" fill="none" stroke="#000000" d="M0 0H23.75L28.375-.375 32.75-1.375 36.5-2.75 40.25-5 46.5-10.125 51.25-17.5 46.5-24.375 40.25-30 36.5-31.75 32.75-33.25 28.375-34.125 23.75-34.625H0L2.75-30.875 4.75-26.75 5.625-22.125 6.125-17.5 5.625-12.375 4.75-8.25 2.75-4.125 0 0"/>
<path transform="matrix(1,0,0,-1,132.6532,408.55403)" stroke-width="1.5" stroke-linecap="butt" stroke-linejoin="round" fill="none" stroke="#000000" d="M0 0 11.875-.125"/>
<path transform="matrix(1,0,0,-1,42.6532,432.55403)" stroke-width="1.5" stroke-linecap="butt" stroke-linejoin="round" fill="none" stroke="#000000" d="M0 0 101.875-.125"/>
<path transform="matrix(1,0,0,-1,192.2782,420.05403)" d="M0 0-.5-3.25-1.5-6.5-2.875-9.25-5.25-12-8.125-14.25-11-15.75-14.375-16.625-18.125-17.125H-47.75V17.5H-18.125L-14.375 17.125-11 16.125-8.125 14.75-5.25 12.5-2.875 9.75-1.5 6.875-.5 3.75Z" fill="#ffffff" fill-rule="evenodd"/>
<path transform="matrix(1,0,0,-1,192.2782,420.05403)" stroke-width="1" stroke-linecap="butt" stroke-linejoin="round" fill="none" stroke="#000000" d="M0 0-.5-3.25-1.5-6.5-2.875-9.25-5.25-12-8.125-14.25-11-15.75-14.375-16.625-18.125-17.125H-47.75V17.5H-18.125L-14.375 17.125-11 16.125-8.125 14.75-5.25 12.5-2.875 9.75-1.5 6.875-.5 3.75 0 0"/>
<use data-text="b" xlink:href="#font_1_13" transform="matrix(16,0,0,-16,19.853196,434.15403)"/>
<use data-text="0" xlink:href="#font_1_2" transform="matrix(10.6667,0,0,-10.6667,28.751595,438.15403)"/>
<use data-text="&#xfffd;" xlink:href="#font_2_1" transform="matrix(10.6667,0,0,-10.6667,34.68228,438.15403)"/>
<path transform="matrix(1,0,0,-1,132.6532,456.55403)" stroke-width="1.5" stroke-linecap="butt" stroke-linejoin="round" fill="none" stroke="#000000" d="M0 0 11.875-.125"/>
<path transform="matrix(1,0,0,-1,42.6532,480.55393)" stroke-width="1.5" stroke-linecap="butt" stroke-linejoin="round" fill="none" stroke="#000000" d="M0 0H102"/>
<path transform="matrix(1,0,0,-1,192.2782,468.05403)" d="M0 0-.5-3.25-1.5-6.5-2.875-9.25-5.25-12-8.125-14.25-11-15.75-14.375-16.625-18.125-17.125H-47.75V17.5H-18.125L-14.375 17.125-11 16.125-8.125 14.75-5.25 12.5-2.875 9.75-1.5 6.875-.5 3.75Z" fill="#ffffff" fill-rule="evenodd"/>
<path transform="matrix(1,0,0,-1,192.2782,468.05403)" stroke-width="1" stroke-linecap="butt" stroke-linejoin="round" fill="none" stroke="#000000" d="M0 0-.5-3.25-1.5-6.5-2.875-9.25-5.25-12-8.125-14.25-11-15.75-14.375-16.625-18.125-17.125H-47.75V17.5H-18.125L-14.375 17.125-11 16.125-8.125 14.75-5.25 12.5-2.875 9.75-1.5 6.875-.5 3.75 0 0"/>
<use data-text="a" xlink:href="#font_1_12" transform="matrix(16,0,0,-16,19.853196,485.65403)"/>
<use data-text="0" xlink:href="#font_1_2" transform="matrix(10.6667,0,0,-10.6667,28.751595,489.65403)"/>
<use data-text="&#xfffd;" xlink:href="#font_2_1" transform="matrix(10.6667,0,0,-10.6667,34.68228,489.65403)"/>
<path transform="matrix(1,0,0,-1,138.6532,408.55403)" stroke-width="1.5" stroke-linecap="butt" stroke-linejoin="round" fill="none" stroke="#000000" d="M0 0H-18V316.875"/>
<use data-text="o" xlink:href="#font_1_14" transform="matrix(16,0,0,-16,319.8532,452.15403)"/>
<use data-text="u" xlink:href="#font_1_17" transform="matrix(16,0,0,-16,328.7492,452.15403)"/>
<use data-text="t" xlink:href="#font_1_16" transform="matrix(16,0,0,-16,337.6452,452.15403)"/>
<use data-text="0" xlink:href="#font_1_2" transform="matrix(10.6667,0,0,-10.6667,342.0954,456.15403)"/>
<use data-text="&#xfffd;" xlink:href="#font_2_1" transform="matrix(10.6667,0,0,-10.6667,348.0261,456.15403)"/>
<path transform="matrix(1,0,0,-1,132.6532,456.55403)" stroke-width="1.5" stroke-linecap="butt" stroke-linejoin="round" fill="none" stroke="#000000" d="M0 0H-42V412.875"/>
<g clip-path="url(#clip_3)">
<path transform="matrix(1,0,0,-1,117.6532,121.679019)" d="M0 0C0 1.657 1.343 3 3 3 4.657 3 6 1.657 6 0 6-1.657 4.657-3 3-3 1.343-3 0-1.657 0 0" fill-rule="evenodd"/>
<path transform="matrix(1,0,0,-1,117.6532,121.679019)" stroke-width=".75" stroke-linecap="butt" stroke-linejoin="round" fill="none" stroke="#000000" d="M0 0C0 1.657 1.343 3 3 3 4.657 3 6 1.657 6 0 6-1.657 4.657-3 3-3 1.343-3 0-1.657 0 0Z"/>
<path transform="matrix(1,0,0,-1,117.6532,216.55402)" d="M0 0C0 1.657 1.343 3 3 3 4.657 3 6 1.657 6 0 6-1.657 4.657-3 3-3 1.343-3 0-1.657 0 0" fill-rule="evenodd"/>
<path transform="matrix(1,0,0,-1,117.6532,216.55402)" stroke-width=".75" stroke-linecap="butt" stroke-linejoin="round" fill="none" stroke="#000000" d="M0 0C0 1.657 1.343 3 3 3 4.657 3 6 1.657 6 0 6-1.657 4.657-3 3-3 1.343-3 0-1.657 0 0Z"/>
<path transform="matrix(1,0,0,-1,87.6532,168.55402)" d="M0 0C0 1.657 1.343 3 3 3 4.657 3 6 1.657 6 0 6-1.657 4.657-3 3-3 1.343-3 0-1.657 0 0" fill-rule="evenodd"/>
<path transform="matrix(1,0,0,-1,87.6532,168.55402)" stroke-width=".75" stroke-linecap="butt" stroke-linejoin="round" fill="none" stroke="#000000" d="M0 0C0 1.657 1.343 3 3 3 4.657 3 6 1.657 6 0 6-1.657 4.657-3 3-3 1.343-3 0-1.657 0 0Z"/>
<path transform="matrix(1,0,0,-1,87.6532,264.55403)" d="M0 0C0 1.657 1.343 3 3 3 4.657 3 6 1.657 6 0 6-1.657 4.657-3 3-3 1.343-3 0-1.657 0 0" fill-rule="evenodd"/>
<path transform="matrix(1,0,0,-1,87.6532,264.55403)" stroke-width=".75" stroke-linecap="butt" stroke-linejoin="round" fill="none" stroke="#000000" d="M0 0C0 1.657 1.343 3 3 3 4.657 3 6 1.657 6 0 6-1.657 4.657-3 3-3 1.343-3 0-1.657 0 0Z"/>
<path transform="matrix(1,0,0,-1,165.6532,330.55403)" d="M0 0C0 1.657 1.343 3 3 3 4.657 3 6 1.657 6 0 6-1.657 4.657-3 3-3 1.343-3 0-1.657 0 0" fill-rule="evenodd"/>
<path transform="matrix(1,0,0,-1,165.6532,330.55403)" stroke-width=".75" stroke-linecap="butt" stroke-linejoin="round" fill="none" stroke="#000000" d="M0 0C0 1.657 1.343 3 3 3 4.657 3 6 1.657 6 0 6-1.657 4.657-3 3-3 1.343-3 0-1.657 0 0Z"/>
<path transform="matrix(1,0,0,-1,165.6532,348.55403)" d="M0 0C0 1.657 1.343 3 3 3 4.657 3 6 1.657 6 0 6-1.657 4.657-3 3-3 1.343-3 0-1.657 0 0" fill-rule="evenodd"/>
<path transform="matrix(1,0,0,-1,165.6532,348.55403)" stroke-width=".75" stroke-linecap="butt" stroke-linejoin="round" fill="none" stroke="#000000" d="M0 0C0 1.657 1.343 3 3 3 4.657 3 6 1.657 6 0 6-1.657 4.657-3 3-3 1.343-3 0-1.657 0 0Z"/>
<path transform="matrix(1,0,0,-1,165.6532,366.55403)" d="M0 0C0 1.657 1.343 3 3 3 4.657 3 6 1.657 6 0 6-1.657 4.657-3 3-3 1.343-3 0-1.657 0 0" fill-rule="evenodd"/>
<path transform="matrix(1,0,0,-1,165.6532,366.55403)" stroke-width=".75" stroke-linecap="butt" stroke-linejoin="round" fill="none" stroke="#000000" d="M0 0C0 1.657 1.343 3 3 3 4.657 3 6 1.657 6 0 6-1.657 4.657-3 3-3 1.343-3 0-1.657 0 0Z"/>
<path transform="matrix(1,0,0,-1,426.6531,264.55403)" stroke-width="2.25" stroke-linecap="butt" stroke-linejoin="round" fill="none" stroke="#000000" d="M0 0H30"/>
<path transform="matrix(1,0,0,-1,426.6531,294.55403)" stroke-width="2.25" stroke-linecap="butt" stroke-linejoin="round" fill="none" stroke="#000000" d="M0 0H30"/>
</g>
<use data-text="B" xlink:href="#font_1_7" transform="matrix(16,0,0,-16,409.8532,269.65403)"/>
<use data-text="&#xfffd;" xlink:href="#font_2_1" transform="matrix(16,0,0,-16,420.5252,269.65403)"/>
<use data-text="A" xlink:href="#font_1_6" transform="matrix(16,0,0,-16,409.8532,302.15003)"/>
<use data-text="&#xfffd;" xlink:href="#font_2_1" transform="matrix(16,0,0,-16,420.5252,302.15003)"/>
<g clip-path="url(#clip_4)">
<path transform="matrix(1,0,0,-1,504.653,276.55403)" stroke-width="2.25" stroke-linecap="butt" stroke-linejoin="round" fill="none" stroke="#000000" d="M0 0H30"/>
</g>
<use data-text="O" xlink:href="#font_1_9" transform="matrix(16,0,0,-16,541.8531,282.90403)"/>
<use data-text="u" xlink:href="#font_1_17" transform="matrix(16,0,0,-16,554.3011,282.90403)"/>
<use data-text="t" xlink:href="#font_1_16" transform="matrix(16,0,0,-16,563.1971,282.90403)"/>
<use data-text="&#xfffd;" xlink:href="#font_2_1" transform="matrix(16,0,0,-16,567.6451,282.90403)"/>
<use data-text="i" xlink:href="#font_5_11" transform="matrix(16,0,0,-16,451.8531,338.15205)"/>
<use data-text="n" xlink:href="#font_5_12" transform="matrix(16,0,0,-16,461.45307,338.15205)"/>
<use data-text="t" xlink:href="#font_5_14" transform="matrix(16,0,0,-16,471.05305,338.15205)"/>
<use data-text=" " xlink:href="#font_5_1" transform="matrix(16,0,0,-16,480.653,338.15205)"/>
<use data-text="O" xlink:href="#font_5_8" transform="matrix(16,0,0,-16,490.253,338.15205)"/>
<use data-text="u" xlink:href="#font_5_15" transform="matrix(16,0,0,-16,499.85298,338.15205)"/>
<use data-text="t" xlink:href="#font_5_14" transform="matrix(16,0,0,-16,509.45295,338.15205)"/>
<use data-text=" " xlink:href="#font_5_1" transform="matrix(16,0,0,-16,519.0529,338.15205)"/>
<use data-text="=" xlink:href="#font_5_5" transform="matrix(16,0,0,-16,528.6529,338.15205)"/>
<use data-text=" " xlink:href="#font_5_1" transform="matrix(16,0,0,-16,538.25289,338.15205)"/>
<use data-text="[" xlink:href="#font_5_9" transform="matrix(16,0,0,-16,547.85287,338.15205)"/>
<use data-text=" " xlink:href="#font_5_1" transform="matrix(16,0,0,-16,557.4528,338.15205)"/>
<use data-text=" " xlink:href="#font_5_1" transform="matrix(16,0,0,-16,451.8531,357.14405)"/>
<use data-text=" " xlink:href="#font_5_1" transform="matrix(16,0,0,-16,461.45307,357.14405)"/>
<use data-text="s" xlink:href="#font_5_13" transform="matrix(16,0,0,-16,471.05305,357.14405)"/>
<use data-text=" " xlink:href="#font_5_1" transform="matrix(16,0,0,-16,480.653,357.14405)"/>
<use data-text=":" xlink:href="#font_5_3" transform="matrix(16,0,0,-16,490.253,357.14405)"/>
<use data-text=" " xlink:href="#font_5_1" transform="matrix(16,0,0,-16,499.85298,357.14405)"/>
<use data-text="A" xlink:href="#font_5_6" transform="matrix(16,0,0,-16,509.45295,357.14405)"/>
<use data-text=";" xlink:href="#font_5_4" transform="matrix(16,0,0,-16,519.0529,357.14405)"/>
<use data-text=" " xlink:href="#font_5_1" transform="matrix(16,0,0,-16,528.6529,357.14405)"/>
<use data-text=" " xlink:href="#font_5_1" transform="matrix(16,0,0,-16,451.8531,376.13606)"/>
<use data-text=" " xlink:href="#font_5_1" transform="matrix(16,0,0,-16,461.45307,376.13606)"/>
<use data-text="1" xlink:href="#font_5_2" transform="matrix(16,0,0,-16,471.05305,376.13606)"/>
<use data-text=" " xlink:href="#font_5_1" transform="matrix(16,0,0,-16,480.653,376.13606)"/>
<use data-text=":" xlink:href="#font_5_3" transform="matrix(16,0,0,-16,490.253,376.13606)"/>
<use data-text=" " xlink:href="#font_5_1" transform="matrix(16,0,0,-16,499.85298,376.13606)"/>
<use data-text="B" xlink:href="#font_5_7" transform="matrix(16,0,0,-16,509.45295,376.13606)"/>
<use data-text=";" xlink:href="#font_5_4" transform="matrix(16,0,0,-16,519.0529,376.13606)"/>
<use data-text=" " xlink:href="#font_5_1" transform="matrix(16,0,0,-16,528.6529,376.13606)"/>
<use data-text="]" xlink:href="#font_5_10" transform="matrix(16,0,0,-16,451.8531,395.12806)"/>
<use data-text=";" xlink:href="#font_5_4" transform="matrix(16,0,0,-16,461.45307,395.12806)"/>
<use data-text=" " xlink:href="#font_5_1" transform="matrix(16,0,0,-16,471.05305,395.12806)"/>
<use data-text="s" xlink:href="#font_1_15" transform="matrix(16,0,0,-16,409.8531,230.12006)"/>
<use data-text="&#xfffd;" xlink:href="#font_2_1" transform="matrix(16,0,0,-16,417.8531,230.12006)"/>
<use data-text="A" xlink:href="#font_6_5" transform="matrix(18,0,0,-18,43.853197,23.278992)"/>
<use data-text=")" xlink:href="#font_6_2" transform="matrix(18,0,0,-18,56.849199,23.278992)"/>
<use data-text="." xlink:href="#font_6_4" transform="matrix(18,0,0,-18,62.8432,23.278992)"/>
<use data-text=" " xlink:href="#font_6_1" transform="matrix(18,0,0,-18,67.8472,23.278992)"/>
<use data-text="B" xlink:href="#font_6_6" transform="matrix(18,0,0,-18,72.8512,23.278992)"/>
<use data-text="i" xlink:href="#font_6_13" transform="matrix(18,0,0,-18,85.8472,23.278992)"/>
<use data-text="t" xlink:href="#font_6_21" transform="matrix(18,0,0,-18,90.8512,23.278992)"/>
<use data-text="-" xlink:href="#font_6_3" transform="matrix(18,0,0,-18,96.8452,23.278992)"/>
<use data-text="l" xlink:href="#font_6_14" transform="matrix(18,0,0,-18,102.8392,23.278992)"/>
<use data-text="e" xlink:href="#font_6_12" transform="matrix(18,0,0,-18,107.8432,23.278992)"/>
<use data-text="v" xlink:href="#font_6_22" transform="matrix(18,0,0,-18,117.8512,23.278992)"/>
<use data-text="e" xlink:href="#font_6_12" transform="matrix(18,0,0,-18,127.85919,23.278992)"/>
<use data-text="l" xlink:href="#font_6_14" transform="matrix(18,0,0,-18,137.86719,23.278992)"/>
<use data-text=" " xlink:href="#font_6_1" transform="matrix(18,0,0,-18,142.87119,23.278992)"/>
<use data-text="i" xlink:href="#font_6_13" transform="matrix(18,0,0,-18,147.87519,23.278992)"/>
<use data-text="m" xlink:href="#font_6_15" transform="matrix(18,0,0,-18,152.87918,23.278992)"/>
<use data-text="p" xlink:href="#font_6_18" transform="matrix(18,0,0,-18,168.88118,23.278992)"/>
<use data-text="l" xlink:href="#font_6_14" transform="matrix(18,0,0,-18,179.87918,23.278992)"/>
<use data-text="e" xlink:href="#font_6_12" transform="matrix(18,0,0,-18,184.88318,23.278992)"/>
<use data-text="m" xlink:href="#font_6_15" transform="matrix(18,0,0,-18,194.89118,23.278992)"/>
<use data-text="e" xlink:href="#font_6_12" transform="matrix(18,0,0,-18,210.89319,23.278992)"/>
<use data-text="n" xlink:href="#font_6_16" transform="matrix(18,0,0,-18,220.90119,23.278992)"/>
<use data-text="t" xlink:href="#font_6_21" transform="matrix(18,0,0,-18,231.89917,23.278992)"/>
<use data-text="a" xlink:href="#font_6_8" transform="matrix(18,0,0,-18,237.89316,23.278992)"/>
<use data-text="t" xlink:href="#font_6_21" transform="matrix(18,0,0,-18,247.90116,23.278992)"/>
<use data-text="i" xlink:href="#font_6_13" transform="matrix(18,0,0,-18,253.89514,23.278992)"/>
<use data-text="o" xlink:href="#font_6_17" transform="matrix(18,0,0,-18,258.89915,23.278992)"/>
<use data-text="n" xlink:href="#font_6_16" transform="matrix(18,0,0,-18,269.89714,23.278992)"/>
<use data-text="&#xfffd;" xlink:href="#font_7_1" transform="matrix(18,0,0,-18,280.8951,23.278992)"/>
<use data-text="B" xlink:href="#font_6_6" transform="matrix(18,0,0,-18,409.84724,23.278992)"/>
<use data-text=")" xlink:href="#font_6_2" transform="matrix(18,0,0,-18,422.84324,23.278992)"/>
<use data-text="." xlink:href="#font_6_4" transform="matrix(18,0,0,-18,428.83723,23.278992)"/>
<use data-text=" " xlink:href="#font_6_1" transform="matrix(18,0,0,-18,433.84123,23.278992)"/>
<use data-text="W" xlink:href="#font_6_7" transform="matrix(18,0,0,-18,438.8452,23.278992)"/>
<use data-text="o" xlink:href="#font_6_17" transform="matrix(18,0,0,-18,455.51325,23.278992)"/>
<use data-text="r" xlink:href="#font_6_19" transform="matrix(18,0,0,-18,466.51124,23.278992)"/>
<use data-text="d" xlink:href="#font_6_11" transform="matrix(18,0,0,-18,473.51325,23.278992)"/>
<use data-text="-" xlink:href="#font_6_3" transform="matrix(18,0,0,-18,484.51124,23.278992)"/>
<use data-text="l" xlink:href="#font_6_14" transform="matrix(18,0,0,-18,490.50526,23.278992)"/>
<use data-text="e" xlink:href="#font_6_12" transform="matrix(18,0,0,-18,495.50929,23.278992)"/>
<use data-text="v" xlink:href="#font_6_22" transform="matrix(18,0,0,-18,505.51728,23.278992)"/>
<use data-text="e" xlink:href="#font_6_12" transform="matrix(18,0,0,-18,515.52529,23.278992)"/>
<use data-text="l" xlink:href="#font_6_14" transform="matrix(18,0,0,-18,525.53329,23.278992)"/>
<use data-text=" " xlink:href="#font_6_1" transform="matrix(18,0,0,-18,530.5373,23.278992)"/>
<use data-text="a" xlink:href="#font_6_8" transform="matrix(18,0,0,-18,535.5413,23.278992)"/>
<use data-text="b" xlink:href="#font_6_9" transform="matrix(18,0,0,-18,545.5493,23.278992)"/>
<use data-text="s" xlink:href="#font_6_20" transform="matrix(18,0,0,-18,556.5473,23.278992)"/>
<use data-text="t" xlink:href="#font_6_21" transform="matrix(18,0,0,-18,566.5553,23.278992)"/>
<use data-text="r" xlink:href="#font_6_19" transform="matrix(18,0,0,-18,572.5493,23.278992)"/>
<use data-text="a" xlink:href="#font_6_8" transform="matrix(18,0,0,-18,579.55136,23.278992)"/>
<use data-text="c" xlink:href="#font_6_10" transform="matrix(18,0,0,-18,589.5593,23.278992)"/>
<use data-text="t" xlink:href="#font_6_21" transform="matrix(18,0,0,-18,599.5673,23.278992)"/>
<use data-text="i" xlink:href="#font_6_13" transform="matrix(18,0,0,-18,605.56137,23.278992)"/>
<use data-text="o" xlink:href="#font_6_17" transform="matrix(18,0,0,-18,610.56539,23.278992)"/>
<use data-text="n" xlink:href="#font_6_16" transform="matrix(18,0,0,-18,621.56338,23.278992)"/>
<use data-text="&#xfffd;" xlink:href="#font_7_1" transform="matrix(18,0,0,-18,632.56137,23.278992)"/>
<g clip-path="url(#clip_8)">
<path transform="matrix(1,0,0,-1,87.6532,43.67914)" d="M0 0C0 1.657 1.343 3 3 3 4.657 3 6 1.657 6 0 6-1.657 4.657-3 3-3 1.343-3 0-1.657 0 0" fill-rule="evenodd"/>
<path transform="matrix(1,0,0,-1,87.6532,43.6792)" stroke-width=".75" stroke-linecap="butt" stroke-linejoin="round" fill="none" stroke="#000000" d="M0 0C0 1.657 1.343 3 3 3 4.657 3 6 1.657 6 0 6-1.657 4.657-3 3-3 1.343-3 0-1.657 0 0Z"/>
<path transform="matrix(1,0,0,-1,480.653,246.55402)" stroke-width="1.5" stroke-linecap="butt" stroke-dasharray="1.5,1.5" stroke-linejoin="round" fill="none" stroke="#000000" d="M0 0V18H-54"/>
<path transform="matrix(1,0,0,-1,456.65309,252.36673)" d="M0 0C0 4.867 3.946 8.813 8.813 8.813H44.062C48.93 8.813 52.875 4.867 52.875 0V-48.375C52.875-53.242 48.93-57.187 44.062-57.187H8.813C3.946-57.187 0-53.242 0-48.375Z" fill="#929292" fill-rule="evenodd"/>
<path transform="matrix(1,0,0,-1,456.653,252.36673)" stroke-width=".75" stroke-linecap="butt" stroke-linejoin="round" fill="none" stroke="#000000" d="M0 0C0 4.867 3.946 8.813 8.813 8.813H44.062C48.929 8.813 52.875 4.867 52.875 0V-48.375C52.875-53.242 48.929-57.187 44.062-57.187H8.813C3.946-57.187 0-53.242 0-48.375Z"/>
</g>
<use data-text="M" xlink:href="#font_1_8" transform="matrix(12,0,0,-12,469.43348,281.354)"/>
<use data-text="U" xlink:href="#font_1_10" transform="matrix(12,0,0,-12,479.42945,281.354)"/>
<use data-text="X" xlink:href="#font_1_11" transform="matrix(12,0,0,-12,488.09346,281.354)"/>
<use data-text="&#xfffd;" xlink:href="#font_2_1" transform="matrix(12,0,0,-12,496.09748,281.354)"/>
<use data-text="!" xlink:href="#font_1_1" transform="matrix(16,0,0,-16,124.7457,99.27902)"/>
<use data-text="s" xlink:href="#font_1_15" transform="matrix(16,0,0,-16,129.1937,99.27902)"/>
<use data-text="&#xfffd;" xlink:href="#font_2_1" transform="matrix(16,0,0,-16,137.1937,99.27902)"/>
</g>
</svg>
