<svg xmlns="http://www.w3.org/2000/svg" xmlns:xlink="http://www.w3.org/1999/xlink" version="1.1" width="319.4751pt" height="167.26898pt" viewBox="0 0 319.4751 167.26898">
<defs>
<clipPath id="clip_0">
<path transform="matrix(1,0,0,-1,-86.4089,462.172)" d="M86.4089 294.903H405.884V462.172H86.4089Z" fill-rule="evenodd"/>
</clipPath>
<path id="font_1_2" d="M.34570313 .4140625C.38671876 .4140625 .41861979 .4197693 .44140626 .43118287 .47721354 .4491272 .4951172 .48142497 .4951172 .5280762 .4951172 .57506307 .47607423 .6067098 .43798829 .62301638 .4165039 .6321513 .38460288 .63671877 .34228517 .63671877H.16894531V.4140625H.34570313M.37841798 .08300781C.43798829 .08300781 .48046876 .100224819 .5058594 .13465882 .5218099 .15642803 .52978518 .18274434 .52978518 .21360779 .52978518 .26559959 .50651046 .30101524 .45996095 .31985475 .43522135 .32992555 .4025065 .33496095 .3618164 .33496095H.16894531V.08300781H.37841798M.07373047 .71777346H.38183595C.4658203 .71777346 .5255534 .6926575 .56103518 .64242556 .58186849 .6127421 .59228518 .5784963 .59228518 .5396881 .59228518 .49434916 .57942709 .45716349 .55371096 .4281311 .54036459 .41280113 .5211589 .3987783 .49609376 .38606263 .5328776 .3720754 .5603841 .35629273 .5786133 .3387146 .61083987 .30748496 .6269531 .26437379 .6269531 .2093811 .6269531 .16317749 .61246749 .12136841 .5834961 .08395386 .54020187 .02798462 .47135417 0 .37695313 0H.07373047V.71777346Z"/>
<path id="font_1_6" d="M.064453128 .5205078H.1538086V0H.064453128V.5205078M.064453128 .71777346H.1538086V.61816409H.064453128V.71777346Z"/>
<path id="font_1_9" d="M.08203125 .66796877H.17089844V.5234375H.25439454V.4501953H.17089844V.110183719C.17089844 .09202576 .17708333 .07986959 .18945313 .07371521 .19628906 .07014465 .2076823 .068359378 .22363281 .068359378 .22786458 .068359378 .23242188 .06846619 .23730469 .06867981 .2421875 .0689036 .24788411 .06944784 .25439454 .0703125V0C.24430339-.0031026204 .23380535-.005340576 .22290039-.006713867 .21199544-.008097331 .20019531-.0087890629 .1875-.0087890629 .14648438-.0087890629 .118652347 .0016988119 .104003909 .02267456 .08935547 .04365031 .08203125 .070882167 .08203125 .10437012V.4501953H.011230469V.5234375H.08203125V.66796877Z"/>
<path id="font_1_1" d="M0 0Z"/>
<path id="font_1_5" d="M.28222657 .53515627C.31933595 .53515627 .355306 .52644857 .39013673 .5090332 .42496745 .49161784 .4514974 .4690806 .46972657 .4414215 .4873047 .41505433 .49902345 .3842977 .5048828 .3491516 .5100911 .32506309 .5126953 .28647868 .5126953 .23339844H.12939453C.13102214 .18033855 .14355469 .13777669 .16699219 .10571289 .19042969 .073649089 .22672527 .057617189 .2758789 .057617189 .32177735 .057617189 .35839845 .07261658 .3857422 .10261536 .4013672 .12003072 .4124349 .14018758 .4189453 .16308594H.5053711C.50309249 .14398194 .49552409 .122690837 .48266603 .09921265 .46980796 .07574463 .45540367 .05656433 .43945313 .041671754 .4127604 .01576233 .37972007-.0017242432 .34033204-.010787964 .3191732-.01596578 .2952474-.018554688 .2685547-.018554688 .20345052-.018554688 .14827474 .0051472985 .103027347 .05255127 .05777995 .09995524 .03515625 .16634114 .03515625 .25170899 .03515625 .33576457 .057942708 .40401713 .103515628 .45646668 .14908855 .5089264 .20865886 .53515627 .28222657 .53515627M.42236329 .30371095C.41878257 .34191896 .41048179 .37245179 .39746095 .39530946 .3733724 .4377594 .33317057 .45898438 .27685548 .45898438 .23649089 .45898438 .20263672 .44437156 .17529297 .41514588 .14794922 .3859202 .13346355 .34877525 .13183594 .30371095H.42236329M.27392579 .5361328V.5361328Z"/>
<path id="font_1_8" d="M.12109375 .25463868C.12109375 .20945232 .1274414 .1715749 .14013672 .14100647 .16259766 .0867157 .20279949 .059570314 .2607422 .059570314 .3219401 .059570314 .36409507 .08818054 .38720704 .145401 .39990235 .17693584 .40625 .21724956 .40625 .26634217 .40625 .3115387 .3992513 .34925334 .3852539 .37948609 .36149089 .43118287 .31966148 .45703126 .25976563 .45703126 .22167969 .45703126 .18904622 .4405314 .16186524 .40753175 .13468425 .37453208 .12109375 .32356773 .12109375 .25463868M.25097657 .53515627C.29427085 .53515627 .33072917 .52419027 .36035157 .5022583 .3766276 .49047853 .3922526 .47312928 .40722657 .45021058V.5234375H.49072267V-.20898438H.40234376V.060546876C.3876953 .036956788 .36743165 .018198649 .34155274 .004272461 .31567384-.009643555 .28336589-.016601563 .2446289-.016601563 .18896485-.016601563 .13916016 .005228678 .095214847 .04888916 .05126953 .092549648 .029296875 .15901184 .029296875 .24827576 .029296875 .332016 .049886068 .40076194 .09106445 .45451356 .13224285 .50827535 .18554688 .53515627 .25097657 .53515627Z"/>
<path id="font_1_10" d="M.15234375 .5234375V.17590332C.15234375 .1491801 .15657552 .12734477 .16503906 .11039734 .18066406 .07911682 .20979817 .06347656 .2524414 .06347656 .3136393 .06347656 .355306 .09085083 .3774414 .14559937 .3894857 .17492676 .3955078 .21516927 .3955078 .2663269V.5234375H.48339845V0H.40039063L.4013672 .0771637C.38997398 .057195028 .3758138 .040339155 .35888673 .02659607 .32535807-.00090026858 .28466798-.0146484379 .2368164-.0146484379 .16227214-.0146484379 .11149088 .010299683 .084472659 .060195924 .06982422 .08693949 .0625 .12265015 .0625 .16732788V.5234375H.15234375M.27294923 .5361328V.5361328Z"/>
<path id="font_1_3" d="M.13183594 .1394043C.13183594 .114095058 .14111328 .09413656 .15966797 .07952881 .17822266 .06492106 .20019531 .057617189 .22558594 .057617189 .2565104 .057617189 .28645835 .06471761 .3154297 .07891846 .3642578 .10247803 .38867188 .14127605 .38867188 .1953125V.26611329C.3779297 .25886027 .36409507 .2528127 .34716798 .24797058 .33024089 .24313863 .3136393 .23983257 .29736329 .23805237L.24414063 .23184204C.21223958 .22799683 .1883138 .22153218 .17236328 .21244812 .14534505 .19718933 .13183594 .17284139 .13183594 .1394043M.34472657 .31689454C.36490885 .3194987 .37841798 .32796226 .3852539 .34228517 .38916017 .35012818 .39111329 .36140443 .39111329 .3761139 .39111329 .40618388 .38045249 .42799888 .35913087 .44155885 .33780924 .455129 .30729167 .46191407 .26757813 .46191407 .22167969 .46191407 .18912761 .44948326 .16992188 .42462159 .15917969 .4108785 .15218099 .39043174 .14892578 .36328126H.06689453C.06852213 .42791749 .08943685 .47288514 .12963867 .4981842 .1698405 .5234833 .21647136 .5361328 .26953126 .5361328 .3310547 .5361328 .38102214 .52441409 .4194336 .50097659 .45751954 .47753907 .4765625 .4410502 .4765625 .39151V.08985901C.4765625 .08073425 .47843424 .073404949 .48217774 .067871097 .48592124 .06233724 .4938151 .059570314 .5058594 .059570314 .5097656 .059570314 .51416018 .059814454 .51904299 .060302736 .5239258 .060791017 .5291341 .061523439 .53466799 .0625V-.0028076173C.5209961-.00676473 .5105794-.009236653 .50341799-.010223389 .4962565-.011220296 .48649089-.01171875 .4741211-.01171875 .44384767-.01171875 .421875-.0009104411 .40820313 .020706177 .40104167 .032170614 .3959961 .048380536 .3930664 .06933594 .37516276 .045633954 .34944663 .025060019 .31591798 .0076141359 .2823893-.009831746 .2454427-.018554688 .20507813-.018554688 .15657552-.018554688 .11694336-.0037790936 .08618164 .025772095 .055419923 .055323285 .040039064 .092300418 .040039064 .13670349 .040039064 .18535869 .05517578 .22307332 .08544922 .24984741 .115722659 .2766215 .1554362 .29311119 .20458985 .2993164L.34472657 .31689454M.27197267 .5361328V.5361328Z"/>
<path id="font_1_7" d="M.06689453 .71777346H.15478516V0H.06689453V.71777346Z"/>
<path id="font_2_1" d="M0 0Z"/>
<path id="font_1_4" d="M.057617189 .71875H.1430664V.45948792C.16227214 .4847056 .18522136 .50394698 .21191406 .5172119 .23860677 .53047689 .26757813 .5371094 .29882813 .5371094 .36393229 .5371094 .41674806 .5147095 .4572754 .46990968 .49780274 .42510987 .5180664 .35905458 .5180664 .27174378 .5180664 .1889801 .49804688 .12022909 .4580078 .06549072 .41796876 .010762532 .36246745-.016601563 .2915039-.016601563 .25179038-.016601563 .21826172-.006942749 .19091797 .012374878 .17464192 .023839316 .15722656 .042175294 .13867188 .06738281V0H.057617189V.71875M.2861328 .061523439C.33365885 .061523439 .36922203 .08037821 .39282228 .11808777 .41642253 .1558075 .42822267 .20555115 .42822267 .26731874 .42822267 .32227073 .41642253 .3677877 .39282228 .40386964 .36922203 .43996177 .33447267 .4580078 .28857423 .4580078 .24853516 .4580078 .21346028 .44321189 .18334961 .41362 .15323894 .3840383 .1381836 .3352712 .1381836 .26731874 .1381836 .21822612 .14436849 .17840068 .15673828 .1478424 .17985027 .090296428 .22298177 .061523439 .2861328 .061523439Z"/>
<clipPath id="clip_3">
<path transform="matrix(1,0,0,-1,-86.4089,462.172)" d="M36 36H756V576H36Z"/>
</clipPath>
</defs>
<g clip-path="url(#clip_0)">
<path transform="matrix(1,0,0,-1,-86.4089,462.172)" d="M36 36H756V576H36Z" fill="#ffffff"/>
<path transform="matrix(1,0,0,-1,-86.4089,462.172)" d="M132 456H354V300H132Z" fill="#eeeeee" fill-rule="evenodd"/>
<path transform="matrix(1,0,0,-1,45.591104,6.171997)" stroke-width=".75" stroke-linecap="butt" stroke-miterlimit="8" stroke-linejoin="miter" fill="none" stroke="#000000" d="M0 0H222V-156H0Z"/>
<use data-text="B" xlink:href="#font_1_2" transform="matrix(18,0,0,-18,121.5667,27.772004)"/>
<use data-text="i" xlink:href="#font_1_6" transform="matrix(18,0,0,-18,133.5727,27.772004)"/>
<use data-text="t" xlink:href="#font_1_9" transform="matrix(18,0,0,-18,137.5687,27.772004)"/>
<use data-text=" " xlink:href="#font_1_1" transform="matrix(18,0,0,-18,142.5727,27.772004)"/>
<use data-text="e" xlink:href="#font_1_5" transform="matrix(18,0,0,-18,147.57669,27.772004)"/>
<use data-text="q" xlink:href="#font_1_8" transform="matrix(18,0,0,-18,157.58469,27.772004)"/>
<use data-text="u" xlink:href="#font_1_10" transform="matrix(18,0,0,-18,167.59268,27.772004)"/>
<use data-text="a" xlink:href="#font_1_3" transform="matrix(18,0,0,-18,177.60068,27.772004)"/>
<use data-text="l" xlink:href="#font_1_7" transform="matrix(18,0,0,-18,187.60868,27.772004)"/>
<use data-text="&#xfffd;" xlink:href="#font_2_1" transform="matrix(18,0,0,-18,191.60468,27.772004)"/>
<path transform="matrix(1,0,0,-1,171.7161,54.171998)" stroke-width="1.5" stroke-linecap="butt" stroke-linejoin="round" fill="none" stroke="#000000" d="M0 0H18V-24H42"/>
<path transform="matrix(1,0,0,-1,171.7161,126.172)" stroke-width="1.5" stroke-linecap="butt" stroke-linejoin="round" fill="none" stroke="#000000" d="M0 0H18V24H42"/>
<path transform="matrix(1,0,0,-1,254.841,89.672)" stroke-width="1.5" stroke-linecap="butt" stroke-linejoin="round" fill="none" stroke="#000000" d="M0 0 30.875-.5"/>
<path transform="matrix(1,0,0,-1,207.7161,72.172)" d="M0 0H23.75L28.375-.375 32.75-1.375 36.5-2.75 40.25-5 46.5-10.125 51.25-17.5 46.5-24.375 40.25-30 36.5-31.75 32.75-33.25 28.375-34.125 23.75-34.625H0L2.75-30.875 4.75-26.75 5.625-22.125 6.125-17.5 5.625-12.375 4.75-8.25 2.75-4.125Z" fill="#ffffff" fill-rule="evenodd"/>
<path transform="matrix(1,0,0,-1,207.7161,72.172)" d="M0 0H23.75L28.375-.375 32.75-1.375 36.5-2.75 40.25-5 46.5-10.125 51.25-17.5 46.5-24.375 40.25-30 36.5-31.75 32.75-33.25 28.375-34.125 23.75-34.625H0L2.75-30.875 4.75-26.75 5.625-22.125 6.125-17.5 5.625-12.375 4.75-8.25 2.75-4.125Z" fill="#ffffff" fill-rule="evenodd"/>
<path transform="matrix(1,0,0,-1,207.7161,72.172)" stroke-width="1" stroke-linecap="butt" stroke-linejoin="round" fill="none" stroke="#000000" d="M0 0H23.75L28.375-.375 32.75-1.375 36.5-2.75 40.25-5 46.5-10.125 51.25-17.5 46.5-24.375 40.25-30 36.5-31.75 32.75-33.25 28.375-34.125 23.75-34.625H0L2.75-30.875 4.75-26.75 5.625-22.125 6.125-17.5 5.625-12.375 4.75-8.25 2.75-4.125 0 0"/>
<path transform="matrix(1,0,0,-1,105.8411,102.297)" stroke-width="1.5" stroke-linecap="butt" stroke-linejoin="round" fill="none" stroke="#000000" d="M0 0-.125-11.875"/>
<path transform="matrix(1,0,0,-1,116.7161,78.42209)" d="M0 0H-23L-11.5-23.75Z" fill="#ffffff" fill-rule="evenodd"/>
<path transform="matrix(1,0,0,-1,116.7161,78.17209)" d="M0 0H-23L-11.5-23.75Z" fill="#ffffff" fill-rule="evenodd"/>
<path transform="matrix(1,0,0,-1,116.7161,78.17209)" stroke-width="1" stroke-linecap="butt" stroke-linejoin="round" fill="none" stroke="#000000" d="M0 0H-23L-11.5-23.75 0 0"/>
<path transform="matrix(1,0,0,-1,105.090999,108.42209)" d="M0 0-1.875 .875-2.75 3.25-1.875 5.125 0 6.125 2.25 5.125 3.25 3.25 2.25 .875Z" fill="#ffffff" fill-rule="evenodd"/>
<path transform="matrix(1,0,0,-1,105.090999,108.42209)" d="M0 0-1.875 .875-2.75 3.25-1.875 5.125 0 6.125 2.25 5.125 3.25 3.25 2.25 .875Z" fill="#ffffff" fill-rule="evenodd"/>
<path transform="matrix(1,0,0,-1,105.090999,108.42209)" stroke-width="1" stroke-linecap="butt" stroke-linejoin="round" fill="none" stroke="#000000" d="M0 0-1.875 .875-2.75 3.25-1.875 5.125 0 6.125 2.25 5.125 3.25 3.25 2.25 .875 0 0"/>
<path transform="matrix(1,0,0,-1,105.8411,66.172)" stroke-width="1.5" stroke-linecap="butt" stroke-linejoin="round" fill="none" stroke="#000000" d="M0 0-.125-11.875"/>
<path transform="matrix(1,0,0,-1,111.7161,42.171998)" stroke-width="1.5" stroke-linecap="butt" stroke-linejoin="round" fill="none" stroke="#000000" d="M0 0 11.875-.125"/>
<path transform="matrix(1,0,0,-1,21.716103,42.171998)" stroke-width="1.5" stroke-linecap="butt" stroke-linejoin="round" fill="none" stroke="#000000" d="M0 0 101.875-.125"/>
<path transform="matrix(1,0,0,-1,171.3411,53.67209)" d="M0 0-.5-3.25-1.5-6.5-2.875-9.25-5.25-12-8.125-14.25-11-15.75-14.375-16.625-18.125-17.125H-47.75V17.5H-18.125L-14.375 17.125-11 16.125-8.125 14.75-5.25 12.5-2.875 9.75-1.5 6.875-.5 3.75Z" fill="#ffffff" fill-rule="evenodd"/>
<path transform="matrix(1,0,0,-1,171.3411,53.67209)" stroke-width="1" stroke-linecap="butt" stroke-linejoin="round" fill="none" stroke="#000000" d="M0 0-.5-3.25-1.5-6.5-2.875-9.25-5.25-12-8.125-14.25-11-15.75-14.375-16.625-18.125-17.125H-47.75V17.5H-18.125L-14.375 17.125-11 16.125-8.125 14.75-5.25 12.5-2.875 9.75-1.5 6.875-.5 3.75 0 0"/>
<use data-text="a" xlink:href="#font_1_3" transform="matrix(16,0,0,-16,5.0410997,43.772005)"/>
<use data-text="&#xfffd;" xlink:href="#font_2_1" transform="matrix(10.6667,0,0,-10.6667,13.939499,47.772005)"/>
<path transform="matrix(1,0,0,-1,75.7161,66.172)" stroke-width="1.5" stroke-linecap="butt" stroke-linejoin="round" fill="none" stroke="#000000" d="M0 0 47.875-.125"/>
<path transform="matrix(1,0,0,-1,21.841103,138.172)" stroke-width="1.5" stroke-linecap="butt" stroke-linejoin="round" fill="none" stroke="#000000" d="M0 0 101.875 .875"/>
<path transform="matrix(1,0,0,-1,171.4661,125.67209)" d="M0 0-.5-3.25-1.5-6.5-2.875-9.25-5.25-12-8.125-14.25-11-15.75-14.375-16.625-18.125-17.125H-47.75V17.5H-18.125L-14.375 17.125-11 16.125-8.125 14.75-5.25 12.5-2.875 9.75-1.5 6.875-.5 3.75Z" fill="#ffffff" fill-rule="evenodd"/>
<path transform="matrix(1,0,0,-1,171.4661,125.67209)" stroke-width="1" stroke-linecap="butt" stroke-linejoin="round" fill="none" stroke="#000000" d="M0 0-.5-3.25-1.5-6.5-2.875-9.25-5.25-12-8.125-14.25-11-15.75-14.375-16.625-18.125-17.125H-47.75V17.5H-18.125L-14.375 17.125-11 16.125-8.125 14.75-5.25 12.5-2.875 9.75-1.5 6.875-.5 3.75 0 0"/>
<use data-text="b" xlink:href="#font_1_4" transform="matrix(16,0,0,-16,5.1660997,143.272)"/>
<use data-text="&#xfffd;" xlink:href="#font_2_1" transform="matrix(10.6667,0,0,-10.6667,14.064606,147.272)"/>
<path transform="matrix(1,0,0,-1,75.7161,138.172)" stroke-width="1.5" stroke-linecap="butt" stroke-linejoin="round" fill="none" stroke="#000000" d="M0 0V72"/>
<use data-text="e" xlink:href="#font_1_5" transform="matrix(16,0,0,-16,292.7911,97.772)"/>
<use data-text="q" xlink:href="#font_1_8" transform="matrix(16,0,0,-16,301.6871,97.772)"/>
<use data-text="&#xfffd;" xlink:href="#font_2_1" transform="matrix(16,0,0,-16,310.5831,97.772)"/>
<path transform="matrix(1,0,0,-1,111.7161,138.29709)" stroke-width="1.5" stroke-linecap="butt" stroke-linejoin="round" fill="none" stroke="#000000" d="M0 0 11.875 .125"/>
<path transform="matrix(1,0,0,-1,87.5911,149.172)" d="M0 0V23L23.75 11.5Z" fill="#ffffff" fill-rule="evenodd"/>
<path transform="matrix(1,0,0,-1,87.5911,149.172)" d="M0 0V23L23.75 11.5Z" fill="#ffffff" fill-rule="evenodd"/>
<path transform="matrix(1,0,0,-1,87.5911,149.172)" stroke-width="1" stroke-linecap="butt" stroke-linejoin="round" fill="none" stroke="#000000" d="M0 0V23L23.75 11.5 0 0"/>
<path transform="matrix(1,0,0,-1,117.7786,137.4845)" d="M0 0-.875 1.875-3.25 2.75-5.125 1.875-6.125 0-5.125-2.25-3.25-3.25-.875-2.25Z" fill="#ffffff" fill-rule="evenodd"/>
<path transform="matrix(1,0,0,-1,117.7786,137.4845)" d="M0 0-.875 1.875-3.25 2.75-5.125 1.875-6.125 0-5.125-2.25-3.25-3.25-.875-2.25Z" fill="#ffffff" fill-rule="evenodd"/>
<path transform="matrix(1,0,0,-1,117.778499,137.4845)" stroke-width="1" stroke-linecap="butt" stroke-linejoin="round" fill="none" stroke="#000000" d="M0 0-.875 1.875-3.25 2.75-5.125 1.875-6.125 0-5.125-2.25-3.25-3.25-.875-2.25 0 0"/>
<path transform="matrix(1,0,0,-1,75.7161,138.29709)" stroke-width="1.5" stroke-linecap="butt" stroke-linejoin="round" fill="none" stroke="#000000" d="M0 0 11.875 .125"/>
<path transform="matrix(1,0,0,-1,105.7161,114.172)" stroke-width="1.5" stroke-linecap="butt" stroke-linejoin="round" fill="none" stroke="#000000" d="M0 0 17.875-.125"/>
<path transform="matrix(1,0,0,-1,105.7161,42.171998)" stroke-width="1.5" stroke-linecap="butt" stroke-linejoin="round" fill="none" stroke="#000000" d="M0 0V-24"/>
<g clip-path="url(#clip_3)">
<path transform="matrix(1,0,0,-1,102.7161,42.171998)" d="M0 0C0 1.657 1.343 3 3 3 4.657 3 6 1.657 6 0 6-1.657 4.657-3 3-3 1.343-3 0-1.657 0 0" fill-rule="evenodd"/>
<path transform="matrix(1,0,0,-1,102.7161,42.171998)" stroke-width=".75" stroke-linecap="butt" stroke-linejoin="round" fill="none" stroke="#000000" d="M0 0C0 1.657 1.343 3 3 3 4.657 3 6 1.657 6 0 6-1.657 4.657-3 3-3 1.343-3 0-1.657 0 0Z"/>
<path transform="matrix(1,0,0,-1,72.7161,138.172)" d="M0 0C0 1.657 1.343 3 3 3 4.657 3 6 1.657 6 0 6-1.657 4.657-3 3-3 1.343-3 0-1.657 0 0" fill-rule="evenodd"/>
<path transform="matrix(1,0,0,-1,72.7161,138.172)" stroke-width=".75" stroke-linecap="butt" stroke-linejoin="round" fill="none" stroke="#000000" d="M0 0C0 1.657 1.343 3 3 3 4.657 3 6 1.657 6 0 6-1.657 4.657-3 3-3 1.343-3 0-1.657 0 0Z"/>
</g>
</g>
</svg>
