<svg xmlns="http://www.w3.org/2000/svg" xmlns:xlink="http://www.w3.org/1999/xlink" version="1.1" width="618.4857pt" height="192.26593pt" viewBox="0 0 618.4857 192.26593">
<defs>
<clipPath id="clip_0">
<path transform="matrix(1,0,0,-1,-58.4873,1108.57)" d="M58.4873 916.304H676.973V1108.57H58.4873Z" fill-rule="evenodd"/>
</clipPath>
<clipPath id="clip_1">
<path transform="matrix(1,0,0,-1,-58.4873,1108.57)" d="M0 0H720V1440H0Z"/>
</clipPath>
<path id="font_2_9" d="M.076171878 .71777346H.19091797L.55322268 .1362915V.71777346H.6455078V0H.5366211L.16894531 .58084109V0H.076171878V.71777346M.3544922 .71777346V.71777346Z"/>
<path id="font_2_18" d="M.28222657 .53515627C.31933595 .53515627 .355306 .52644857 .39013673 .5090332 .42496745 .49161784 .4514974 .4690806 .46972657 .4414215 .4873047 .41505433 .49902345 .3842977 .5048828 .3491516 .5100911 .32506309 .5126953 .28647868 .5126953 .23339844H.12939453C.13102214 .18033855 .14355469 .13777669 .16699219 .10571289 .19042969 .073649089 .22672527 .057617189 .2758789 .057617189 .32177735 .057617189 .35839845 .07261658 .3857422 .10261536 .4013672 .12003072 .4124349 .14018758 .4189453 .16308594H.5053711C.50309249 .14398194 .49552409 .122690837 .48266603 .09921265 .46980796 .07574463 .45540367 .05656433 .43945313 .041671754 .4127604 .01576233 .37972007-.0017242432 .34033204-.010787964 .3191732-.01596578 .2952474-.018554688 .2685547-.018554688 .20345052-.018554688 .14827474 .0051472985 .103027347 .05255127 .05777995 .09995524 .03515625 .16634114 .03515625 .25170899 .03515625 .33576457 .057942708 .40401713 .103515628 .45646668 .14908855 .5089264 .20865886 .53515627 .28222657 .53515627M.42236329 .30371095C.41878257 .34191896 .41048179 .37245179 .39746095 .39530946 .3733724 .4377594 .33317057 .45898438 .27685548 .45898438 .23649089 .45898438 .20263672 .44437156 .17529297 .41514588 .14794922 .3859202 .13346355 .34877525 .13183594 .30371095H.42236329M.27392579 .5361328V.5361328Z"/>
<path id="font_2_29" d="M.10498047 .5234375 .2055664 .110946658 .3076172 .5234375H.40625L.50878909 .11338806 .61572268 .5234375H.7036133L.5517578 0H.46044923L.3540039 .40516664 .25097657 0H.15966797L.0087890629 .5234375H.10498047Z"/>
<path id="font_3_1" d="M0 0Z"/>
<path id="font_2_10" d="M.08544922 .71777346H.40820313C.47200523 .71777346 .5234375 .6997884 .5625 .66381838 .6015625 .6278483 .62109377 .5773112 .62109377 .51220706 .62109377 .45621745 .6036784 .4074707 .56884768 .3659668 .5340169 .3244629 .48046876 .30371095 .40820313 .30371095H.18261719V0H.08544922V.71777346M.5229492 .5114746C.5229492 .56410726 .50341799 .5998433 .46435548 .61868289 .4428711 .62875369 .41341148 .63378909 .37597657 .63378909H.18261719V.3857422H.37597657C.41959635 .3857422 .45499674 .39499919 .48217774 .41351319 .5093587 .43203736 .5229492 .46469117 .5229492 .5114746Z"/>
<path id="font_2_5" d="M.37841798 .7373047C.46923829 .7373047 .53971359 .71332809 .58984377 .66537478 .63997396 .61742147 .66780599 .5629476 .67333987 .5019531H.5786133C.5678711 .54817709 .5464681 .58479818 .5144043 .6118164 .48234049 .63883468 .43733726 .65234377 .37939454 .65234377 .3087565 .65234377 .25170899 .62754318 .20825196 .5779419 .16479492 .52834066 .1430664 .45231629 .1430664 .34986878 .1430664 .26594544 .16267903 .19788106 .2019043 .14567566 .24112956 .09348043 .29964195 .06738281 .3774414 .06738281 .449056 .06738281 .50358077 .094823207 .5410156 .14970398 .5608724 .17860413 .5756836 .21659343 .5854492 .26367188H.6801758C.6717122 .18815105 .64371749 .12483724 .5961914 .07373047 .5392253 .012207031 .46240235-.018554688 .36572267-.018554688 .2823893-.018554688 .21240235 .006688436 .15576172 .057174684 .081217449 .12394714 .043945314 .2270406 .043945314 .36645509 .043945314 .47232057 .0719401 .5591278 .12792969 .62687686 .18847656 .7004954 .27197267 .7373047 .37841798 .7373047M.35888673 .7373047V.7373047Z"/>
<path id="font_2_22" d="M.064453128 .5234375H.14794922V.44921876C.1726888 .47981773 .19889324 .50179037 .2265625 .5151367 .25423179 .5284831 .2849935 .53515627 .31884767 .53515627 .3930664 .53515627 .44319663 .5092519 .46923829 .45744325 .4835612 .42910258 .49072267 .38853965 .49072267 .3357544V0H.4013672V.3299408C.4013672 .36188255 .39664714 .38762919 .38720704 .4071808 .37158204 .4397634 .34326173 .4560547 .3022461 .4560547 .28141276 .4560547 .2643229 .4539388 .25097657 .44970704 .22688802 .4425354 .20572917 .42819724 .1875 .4066925 .17285156 .38941957 .16333008 .37157694 .15893555 .35316468 .15454102 .3347524 .15234375 .30844117 .15234375 .27423097V0H.064453128V.5234375M.2709961 .5361328V.5361328Z"/>
<path id="font_2_17" d="M.12011719 .2553711C.12011719 .19923909 .1319987 .15224712 .15576172 .11439514 .17952474 .076543178 .21761067 .057617189 .27001954 .057617189 .31070964 .057617189 .3441569 .075154628 .37036134 .11022949 .39656578 .14531453 .40966798 .19565328 .40966798 .26124574 .40966798 .32748924 .39615885 .37651573 .36914063 .4083252 .3421224 .44014488 .3087565 .4560547 .26904298 .4560547 .22477214 .4560547 .18888347 .4390869 .16137696 .40515138 .13387044 .37121583 .12011719 .32128907 .12011719 .2553711M.2524414 .53222659C.29248048 .53222659 .32600913 .52381899 .35302735 .5070038 .36865235 .4972992 .38639323 .48031617 .40625 .4560547V.71875H.49072267V0H.4116211V.07229614C.39111329 .04023234 .36686198 .017074585 .3388672 .002822876 .3108724-.011428833 .2788086-.018554688 .24267578-.018554688 .18440755-.018554688 .13395183 .0059407555 .091308597 .05493164 .048665365 .10392252 .02734375 .16910808 .02734375 .25048829 .02734375 .32666017 .04679362 .39265953 .08569336 .44848634 .1245931 .5043132 .18017578 .53222659 .2524414 .53222659Z"/>
<path id="font_2_19" d="M.064453128 .5205078H.1538086V0H.064453128V.5205078M.064453128 .71777346H.1538086V.61816409H.064453128V.71777346Z"/>
<path id="font_2_16" d="M.26611329 .53808596C.32503257 .53808596 .37296549 .5237274 .4099121 .49501039 .44685874 .46629334 .46907554 .41684977 .4765625 .3466797H.39111329C.38590495 .37890626 .37402345 .40568034 .35546876 .42700196 .33691407 .44832359 .3071289 .45898438 .26611329 .45898438 .2101237 .45898438 .17008464 .43170677 .1459961 .3771515 .1303711 .34176127 .122558597 .29808555 .122558597 .24612427 .122558597 .19384766 .1336263 .14984639 .15576172 .11412048 .17789714 .07840475 .21272786 .060546876 .2602539 .060546876 .29671226 .060546876 .3256022 .0716095 .34692384 .09373474 .36824546 .115859989 .38297526 .1461385 .39111329 .18457031H.4765625C.46679688 .115234378 .4423828 .06453451 .4033203 .032470704 .3642578 .00040690104 .31429038-.015625 .25341798-.015625 .1850586-.015625 .13053386 .009379069 .08984375 .059387208 .049153646 .10940552 .028808594 .17188008 .028808594 .24681092 .028808594 .33868919 .05110677 .41020204 .095703128 .4613495 .14029949 .51250717 .19710286 .53808596 .26611329 .53808596M.2524414 .5361328V.5361328Z"/>
<path id="font_2_23" d="M.27197267 .057617189C.33024089 .057617189 .37019859 .07964579 .3918457 .123703 .41349284 .16776021 .4243164 .21677144 .4243164 .2707367 .4243164 .31950379 .4165039 .35917155 .4008789 .38974 .3761393 .43785606 .3334961 .46191407 .27294923 .46191407 .21923828 .46191407 .18017578 .44143168 .15576172 .40046693 .13134766 .35950218 .119140628 .31008403 .119140628 .25221253 .119140628 .1966095 .13134766 .15027364 .15576172 .113204959 .18017578 .076146449 .21891277 .057617189 .27197267 .057617189M.27539063 .53808596C.34277345 .53808596 .3997396 .5156453 .44628907 .47076417 .49283854 .42588298 .5161133 .35985819 .5161133 .27268983 .5161133 .1884613 .49560548 .11886088 .45458985 .06388855 .41357423 .008926392 .3499349-.018554688 .26367188-.018554688 .19173177-.018554688 .13460286 .00575765 .092285159 .054382326 .04996745 .103006999 .028808594 .16829936 .028808594 .2502594 .028808594 .33806864 .05110677 .4079895 .095703128 .46002198 .14029949 .51206466 .20019531 .53808596 .27539063 .53808596M.27246095 .5361328V.5361328Z"/>
<clipPath id="clip_4">
<path transform="matrix(1,0,0,-1,-58.4873,1108.57)" d="M0 0H720V1440H0Z"/>
</clipPath>
<path id="font_2_28" d="M.107421878 .5234375 .24707031 .09725952 .3930664 .5234375H.4892578L.2919922 0H.19824219L.0053710939 .5234375H.107421878Z"/>
<path id="font_2_14" d="M.13183594 .1394043C.13183594 .114095058 .14111328 .09413656 .15966797 .07952881 .17822266 .06492106 .20019531 .057617189 .22558594 .057617189 .2565104 .057617189 .28645835 .06471761 .3154297 .07891846 .3642578 .10247803 .38867188 .14127605 .38867188 .1953125V.26611329C.3779297 .25886027 .36409507 .2528127 .34716798 .24797058 .33024089 .24313863 .3136393 .23983257 .29736329 .23805237L.24414063 .23184204C.21223958 .22799683 .1883138 .22153218 .17236328 .21244812 .14534505 .19718933 .13183594 .17284139 .13183594 .1394043M.34472657 .31689454C.36490885 .3194987 .37841798 .32796226 .3852539 .34228517 .38916017 .35012818 .39111329 .36140443 .39111329 .3761139 .39111329 .40618388 .38045249 .42799888 .35913087 .44155885 .33780924 .455129 .30729167 .46191407 .26757813 .46191407 .22167969 .46191407 .18912761 .44948326 .16992188 .42462159 .15917969 .4108785 .15218099 .39043174 .14892578 .36328126H.06689453C.06852213 .42791749 .08943685 .47288514 .12963867 .4981842 .1698405 .5234833 .21647136 .5361328 .26953126 .5361328 .3310547 .5361328 .38102214 .52441409 .4194336 .50097659 .45751954 .47753907 .4765625 .4410502 .4765625 .39151V.08985901C.4765625 .08073425 .47843424 .073404949 .48217774 .067871097 .48592124 .06233724 .4938151 .059570314 .5058594 .059570314 .5097656 .059570314 .51416018 .059814454 .51904299 .060302736 .5239258 .060791017 .5291341 .061523439 .53466799 .0625V-.0028076173C.5209961-.00676473 .5105794-.009236653 .50341799-.010223389 .4962565-.011220296 .48649089-.01171875 .4741211-.01171875 .44384767-.01171875 .421875-.0009104411 .40820313 .020706177 .40104167 .032170614 .3959961 .048380536 .3930664 .06933594 .37516276 .045633954 .34944663 .025060019 .31591798 .0076141359 .2823893-.009831746 .2454427-.018554688 .20507813-.018554688 .15657552-.018554688 .11694336-.0037790936 .08618164 .025772095 .055419923 .055323285 .040039064 .092300418 .040039064 .13670349 .040039064 .18535869 .05517578 .22307332 .08544922 .24984741 .115722659 .2766215 .1554362 .29311119 .20458985 .2993164L.34472657 .31689454M.27197267 .5361328V.5361328Z"/>
<path id="font_2_20" d="M.06689453 .71777346H.15478516V0H.06689453V.71777346Z"/>
<path id="font_2_8" d="M.07373047 .71777346H.21289063L.4189453 .11091614 .62353518 .71777346H.76123049V0H.6689453V.42362977C.6689453 .43828837 .6692708 .46255494 .6699219 .49642945 .67057296 .53030398 .67089846 .56662496 .67089846 .60539248L.4663086 0H.3701172L.1640625 .60539248V.58340457C.1640625 .5658162 .1644694 .5390218 .1652832 .50302127 .166097 .46703086 .1665039 .44056703 .1665039 .42362977V0H.07373047V.71777346Z"/>
<clipPath id="clip_5">
<path transform="matrix(1,0,0,-1,-58.4873,1108.57)" d="M0 0H720V1440H0Z"/>
</clipPath>
<clipPath id="clip_6">
<path transform="matrix(1,0,0,-1,-58.4873,1108.57)" d="M0 0H720V1440H0Z"/>
</clipPath>
<clipPath id="clip_7">
<path transform="matrix(1,0,0,-1,-58.4873,1108.57)" d="M0 0H720V1440H0Z"/>
</clipPath>
<path id="font_2_24" d="M.28515626 .057617189C.32617188 .057617189 .36027018 .07486979 .38745118 .109375 .41463218 .14389038 .42822267 .1954956 .42822267 .26419068 .42822267 .3060608 .42220054 .34204103 .41015626 .37213136 .38736979 .43003337 .34570313 .45898438 .28515626 .45898438 .22428386 .45898438 .18261719 .42840068 .16015625 .36723329 .14811199 .33451844 .14208985 .29297386 .14208985 .24259949 .14208985 .20204163 .14811199 .16753133 .16015625 .1390686 .1829427 .08476766 .22460938 .057617189 .28515626 .057617189M.057617189 .5205078H.1430664V.45162965C.16064453 .47540284 .17985027 .49379985 .2006836 .5068207 .23030599 .5263621 .26513673 .5361328 .30517579 .5361328 .36442057 .5361328 .41471354 .5133667 .4560547 .46783448 .49739585 .42230226 .5180664 .3572693 .5180664 .2727356 .5180664 .1585083 .48828126 .07691447 .42871095 .027954102 .39095054-.0030517579 .34700523-.018554688 .296875-.018554688 .25748698-.018554688 .22444661-.009984334 .1977539 .007156372 .1821289 .016860962 .16471355 .033518476 .14550781 .057128908V-.20898438H.057617189V.5205078Z"/>
<clipPath id="clip_8">
<path transform="matrix(1,0,0,-1,-58.4873,1108.57)" d="M0 0H720V1440H0Z"/>
</clipPath>
<path id="font_2_13" d="M.1328125 .71777346 .3388672 .10652161 .54248049 .71777346H.6513672L.38964845 0H.2866211L.025390625 .71777346H.1328125Z"/>
<clipPath id="clip_9">
<path transform="matrix(1,0,0,-1,-58.4873,1108.57)" d="M0 0H720V1440H0Z"/>
</clipPath>
<clipPath id="clip_10">
<path transform="matrix(1,0,0,-1,-58.4873,1108.57)" d="M0 0H720V1440H0Z"/>
</clipPath>
<clipPath id="clip_11">
<path transform="matrix(1,0,0,-1,-58.4873,1108.57)" d="M0 0H720V1440H0Z"/>
</clipPath>
<path id="font_2_7" d="M.09814453 .71777346H.19628906V0H.09814453V.71777346Z"/>
<clipPath id="clip_12">
<path transform="matrix(1,0,0,-1,-58.4873,1108.57)" d="M0 0H720V1440H0Z"/>
</clipPath>
<path id="font_2_2" d="M.29589845 .7294922C.24479167 .6301575 .21158855 .55703738 .19628906 .51013186 .17317708 .43881227 .1616211 .3564148 .1616211 .26293946 .1616211 .16848755 .17480469 .08217875 .20117188 .0040130617 .21744792-.044184369 .24951172-.11355591 .29736329-.20410156H.23828125C.1907552-.12984212 .16129558-.08245341 .14990235-.061935426 .13850911-.04141744 .12613933-.013570149 .11279297 .021606446 .094563808 .06980387 .08186849 .1212616 .07470703 .17597962 .071126308 .2043101 .06933594 .23134358 .06933594 .25708009 .06933594 .3534851 .084472659 .43930564 .114746097 .5145416 .13395183 .5624135 .17399089 .6340637 .23486328 .7294922H.29589845Z"/>
<path id="font_2_3" d="M.03466797-.20410156C.08642578-.103139247 .119791667-.029530844 .13476563 .016723633 .15755208 .08674113 .16894531 .16881307 .16894531 .26293946 .16894531 .35706584 .15576172 .44321189 .12939453 .52137759 .11311849 .569575 .08105469 .63894656 .033203126 .7294922H.092285159C.14241536 .64937338 .17277019 .59995016 .18334961 .58122256 .19392903 .56249496 .20540364 .5366821 .21777344 .5037842 .23339844 .46307374 .24454753 .42285157 .2512207 .38311769 .2578939 .3433838 .26123048 .30511476 .26123048 .26831056 .26123048 .17190552 .24593099 .08592224 .21533203 .010360718 .1961263-.03816223 .15625-.10964966 .095703128-.20410156H.03466797Z"/>
<path id="font_2_1" d="M0 0Z"/>
<path id="font_2_12" d="M.13964844 .23144531C.14192708 .19064331 .15152996 .1575063 .16845703 .1320343 .2006836 .084376018 .25748698 .060546876 .3388672 .060546876 .37532554 .060546876 .40852867 .06575521 .43847657 .076171878 .49641929 .096354167 .5253906 .13248189 .5253906 .18455506 .5253906 .22361756 .5131836 .25144959 .48876954 .26805116 .46402995 .2843882 .42529298 .29859925 .3725586 .3106842L.27539063 .3327484C.21191406 .3471222 .16699219 .36294047 .140625 .38020326 .095052089 .41016136 .072265628 .4549408 .072265628 .5145416 .072265628 .57902529 .094563808 .6319478 .13916016 .6733093 .18375652 .71467086 .24690755 .73535159 .32861329 .73535159 .4038086 .73535159 .46769206 .7172038 .5202637 .6809082 .57283529 .6446126 .5991211 .58658859 .5991211 .50683596H.5078125C.5029297 .5452474 .49251304 .57470706 .4765625 .59521487 .4469401 .6326497 .39664714 .6513672 .3256836 .6513672 .26839195 .6513672 .22721355 .63931277 .20214844 .61520388 .17708333 .591095 .16455078 .56307479 .16455078 .5311432 .16455078 .49595643 .17919922 .47021995 .2084961 .45393373 .22770183 .44350688 .27115885 .43047587 .3388672 .4148407L.43945313 .39187623C.48795573 .38079835 .5253906 .36565147 .5517578 .34643556 .59733077 .31288658 .6201172 .26419068 .6201172 .2003479 .6201172 .12085978 .59122726 .06401571 .53344729 .029815674 .47566734-.004384359 .40852867-.021484375 .33203126-.021484375 .24283855-.021484375 .17301433 .0013478597 .122558597 .04701233 .07210287 .0923411 .04736328 .15381877 .048339845 .23144531H.13964844M.3359375 .7373047V.7373047Z"/>
<path id="font_2_6" d="M.08544922 .71777346H.60839846V.6298828H.18017578V.41210938H.5761719V.32910157H.18017578V.0859375H.61572268V0H.08544922V.71777346M.35058595 .71777346V.71777346Z"/>
<path id="font_2_11" d="M.7324219 .0014953613 .68359377-.05744934 .5727539 .027114869C.5460612 .012385051 .5171712 .0006052653 .48608399-.008224487 .45499674-.017064413 .4210612-.021484375 .38427735-.021484375 .27294923-.021484375 .18570964 .015019734 .122558597 .088027957 .06689453 .15908306 .0390625 .24806722 .0390625 .35498048 .0390625 .45210777 .06315104 .53522238 .111328128 .60432437 .17317708 .6929779 .26464845 .7373047 .3857422 .7373047 .5123698 .7373047 .6061198 .6965739 .6669922 .6151123 .71451827 .5515747 .73828127 .47028099 .73828127 .37123109 .73828127 .32495628 .73258468 .2804769 .7211914 .23779297 .7039388 .17262776 .6748047 .119517009 .63378909 .07846069L.7324219 .0014953613M.3959961 .06542969C.41617839 .06542969 .4350586 .066823329 .45263673 .069610599 .47021485 .07240804 .4855143 .07791138 .49853517 .086120609L.41992188 .14756775 .46875 .2076416 .5625 .134552C.5921224 .16845703 .6122233 .20643108 .62280276 .24847412 .63338217 .29052735 .6386719 .33078514 .6386719 .36924745 .6386719 .45366923 .61661788 .5216319 .57250979 .5731354 .5284017 .62463888 .46809898 .6503906 .39160157 .6503906 .3141276 .6503906 .25276695 .6257121 .20751953 .576355 .16227214 .52699789 .13964844 .45100404 .13964844 .3483734 .13964844 .26203919 .16137696 .19329834 .20483399 .14215088 .24829102 .09100342 .31201173 .06542969 .3959961 .06542969Z"/>
<path id="font_2_21" d="M.064453128 .5234375H.15136719V.44921876C.17220052 .4749349 .19108074 .49365235 .20800781 .5053711 .23697917 .52522787 .26985679 .53515627 .30664063 .53515627 .34830729 .53515627 .38183595 .52490237 .40722657 .50439456 .42154948 .49267579 .4345703 .4754232 .44628907 .45263673 .4658203 .4806315 .48876954 .5013835 .5151367 .5148926 .5415039 .5284017 .5711263 .53515627 .6040039 .53515627 .6743164 .53515627 .72216799 .5097402 .7475586 .45890809 .76123049 .43154399 .7680664 .3947296 .7680664 .34846498V0H.6767578V.36367799C.6767578 .39853923 .6680501 .42248536 .65063479 .43551637 .6332194 .44855754 .6119792 .45507813 .58691409 .45507813 .5524089 .45507813 .5227051 .44350688 .49780274 .42036439 .4729004 .39723207 .46044923 .35861717 .46044923 .30451966V0H.37109376V.3416748C.37109376 .37719728 .36686198 .4031016 .35839845 .41938783 .3450521 .4438324 .32014976 .4560547 .2836914 .4560547 .25048829 .4560547 .22029622 .44318138 .19311524 .4174347 .16593425 .3916982 .15234375 .34510295 .15234375 .27764894V0H.064453128V.5234375Z"/>
<path id="font_2_27" d="M.15234375 .5234375V.17590332C.15234375 .1491801 .15657552 .12734477 .16503906 .11039734 .18066406 .07911682 .20979817 .06347656 .2524414 .06347656 .3136393 .06347656 .355306 .09085083 .3774414 .14559937 .3894857 .17492676 .3955078 .21516927 .3955078 .2663269V.5234375H.48339845V0H.40039063L.4013672 .0771637C.38997398 .057195028 .3758138 .040339155 .35888673 .02659607 .32535807-.00090026858 .28466798-.0146484379 .2368164-.0146484379 .16227214-.0146484379 .11149088 .010299683 .084472659 .060195924 .06982422 .08693949 .0625 .12265015 .0625 .16732788V.5234375H.15234375M.27294923 .5361328V.5361328Z"/>
<path id="font_2_26" d="M.08203125 .66796877H.17089844V.5234375H.25439454V.4501953H.17089844V.110183719C.17089844 .09202576 .17708333 .07986959 .18945313 .07371521 .19628906 .07014465 .2076823 .068359378 .22363281 .068359378 .22786458 .068359378 .23242188 .06846619 .23730469 .06867981 .2421875 .0689036 .24788411 .06944784 .25439454 .0703125V0C.24430339-.0031026204 .23380535-.005340576 .22290039-.006713867 .21199544-.008097331 .20019531-.0087890629 .1875-.0087890629 .14648438-.0087890629 .118652347 .0016988119 .104003909 .02267456 .08935547 .04365031 .08203125 .070882167 .08203125 .10437012V.4501953H.011230469V.5234375H.08203125V.66796877Z"/>
<path id="font_2_15" d="M.057617189 .71875H.1430664V.45948792C.16227214 .4847056 .18522136 .50394698 .21191406 .5172119 .23860677 .53047689 .26757813 .5371094 .29882813 .5371094 .36393229 .5371094 .41674806 .5147095 .4572754 .46990968 .49780274 .42510987 .5180664 .35905458 .5180664 .27174378 .5180664 .1889801 .49804688 .12022909 .4580078 .06549072 .41796876 .010762532 .36246745-.016601563 .2915039-.016601563 .25179038-.016601563 .21826172-.006942749 .19091797 .012374878 .17464192 .023839316 .15722656 .042175294 .13867188 .06738281V0H.057617189V.71875M.2861328 .061523439C.33365885 .061523439 .36922203 .08037821 .39282228 .11808777 .41642253 .1558075 .42822267 .20555115 .42822267 .26731874 .42822267 .32227073 .41642253 .3677877 .39282228 .40386964 .36922203 .43996177 .33447267 .4580078 .28857423 .4580078 .24853516 .4580078 .21346028 .44321189 .18334961 .41362 .15323894 .3840383 .1381836 .3352712 .1381836 .26731874 .1381836 .21822612 .14436849 .17840068 .15673828 .1478424 .17985027 .090296428 .22298177 .061523439 .2861328 .061523439Z"/>
<path id="font_2_4" d="M.044921876 .21289063V.29492188H.2578125V.5097656H.3413086V.29492188H.5541992V.21289063H.3413086V0H.2578125V.21289063H.044921876Z"/>
<path id="font_2_25" d="M.11669922 .1640625C.11930338 .13463338 .12662761 .11207072 .13867188 .09637451 .1608073 .06793213 .19921875 .053710939 .25390626 .053710939 .28645835 .053710939 .31510417 .060806276 .33984376 .07499695 .36458335 .08919779 .37695313 .11115011 .37695313 .14085388 .37695313 .16337586 .36702476 .18051148 .34716798 .19226074 .33447267 .19944255 .30940757 .20775859 .27197267 .21720886L.20214844 .2348175C.15755208 .24590557 .12467448 .25829569 .103515628 .27198792 .06575521 .29579164 .046875 .32873027 .046875 .37080384 .046875 .42036439 .064697269 .46046958 .1003418 .49111939 .13598633 .52177938 .18391927 .5371094 .24414063 .5371094 .32291667 .5371094 .37972007 .5139974 .41455079 .46777345 .4363607 .43847657 .4469401 .40690104 .44628907 .37304688H.36328126C.36165367 .39269004 .35465495 .41055808 .34228517 .426651 .32210288 .44950868 .28710938 .4609375 .23730469 .4609375 .20410156 .4609375 .17895508 .45461528 .16186524 .44197084 .14477539 .42933656 .13623047 .41264854 .13623047 .39190675 .13623047 .36922203 .14746094 .35107423 .16992188 .33746339 .1829427 .32936607 .20214844 .32221986 .22753906 .31602479L.28564454 .3018341C.34879557 .28650413 .39111329 .27166749 .41259767 .25732423 .44677735 .23482259 .4638672 .19944255 .4638672 .15118408 .4638672 .10455322 .44620768 .06428019 .41088868 .03036499 .37556968-.0035502117 .32177735-.020507813 .24951172-.020507813 .17171224-.020507813 .116617839-.002802531 .084228519 .032608034 .05183919 .06801859 .034505208 .111836757 .032226564 .1640625H.11669922M.24658203 .5361328V.5361328Z"/>
</defs>
<g clip-path="url(#clip_0)">
<path transform="matrix(1,0,0,-1,-58.4873,1108.57)" d="M0 0H720V1440H0Z" fill="#ffffff"/>
<g clip-path="url(#clip_1)">
<path transform="matrix(1,0,0,-1,7.512699,65.56995)" d="M0 0C0 3.866 3.134 7 7 7H215C218.866 7 222 3.866 222 0V-28C222-31.866 218.866-35 215-35H7C3.134-35 0-31.866 0-28Z" fill="#929292" fill-rule="evenodd"/>
<path transform="matrix(1,0,0,-1,7.512699,65.57019)" stroke-width=".75" stroke-linecap="butt" stroke-linejoin="round" fill="none" stroke="#000000" d="M0 0C0 3.866 3.134 7 7 7H215C218.866 7 222 3.866 222 0V-28C222-31.866 218.866-35 215-35H7C3.134-35 0-31.866 0-28Z"/>
</g>
<use data-text="N" xlink:href="#font_2_9" transform="matrix(12,0,0,-12,106.7621,77.16992)"/>
<use data-text="e" xlink:href="#font_2_18" transform="matrix(12,0,0,-12,115.4261,77.16992)"/>
<use data-text="w" xlink:href="#font_2_29" transform="matrix(12,0,0,-12,122.0981,77.16992)"/>
<use data-text="&#xfffd;" xlink:href="#font_3_1" transform="matrix(12,0,0,-12,130.7621,77.16992)"/>
<use data-text="P" xlink:href="#font_2_10" transform="matrix(12,0,0,-12,109.7621,91.17395)"/>
<use data-text="C" xlink:href="#font_2_5" transform="matrix(12,0,0,-12,117.7661,91.17395)"/>
<use data-text="&#xfffd;" xlink:href="#font_3_1" transform="matrix(12,0,0,-12,126.4301,91.17395)"/>
<use data-text="C" xlink:href="#font_2_5" transform="matrix(12,0,0,-12,61.978109,144.36994)"/>
<use data-text="n" xlink:href="#font_2_22" transform="matrix(12,0,0,-12,70.642108,144.36994)"/>
<use data-text="d" xlink:href="#font_2_17" transform="matrix(12,0,0,-12,77.3141,144.36994)"/>
<use data-text="&#xfffd;" xlink:href="#font_3_1" transform="matrix(12,0,0,-12,83.9861,144.36994)"/>
<use data-text="i" xlink:href="#font_2_19" transform="matrix(12,0,0,-12,10.978107,144.36994)"/>
<use data-text="c" xlink:href="#font_2_16" transform="matrix(12,0,0,-12,13.642109,144.36994)"/>
<use data-text="o" xlink:href="#font_2_23" transform="matrix(12,0,0,-12,19.642109,144.36994)"/>
<use data-text="d" xlink:href="#font_2_17" transform="matrix(12,0,0,-12,26.314106,144.36994)"/>
<use data-text="e" xlink:href="#font_2_18" transform="matrix(12,0,0,-12,32.986104,144.36994)"/>
<use data-text="&#xfffd;" xlink:href="#font_3_1" transform="matrix(12,0,0,-12,39.6581,144.36994)"/>
<g clip-path="url(#clip_4)">
<path transform="matrix(1,0,0,-1,217.5127,124.57013)" stroke-width="3" stroke-linecap="butt" stroke-linejoin="round" fill="none" stroke="#000000" d="M0 0V21"/>
<path transform="matrix(1,0,0,-1,220.5127,106.56995)" d="M0 0-3 6-6 0Z" fill-rule="evenodd"/>
</g>
<use data-text="v" xlink:href="#font_2_28" transform="matrix(12,0,0,-12,108.9839,144.37012)"/>
<use data-text="a" xlink:href="#font_2_14" transform="matrix(12,0,0,-12,114.9839,144.37012)"/>
<use data-text="l" xlink:href="#font_2_20" transform="matrix(12,0,0,-12,121.6559,144.37012)"/>
<use data-text="C" xlink:href="#font_2_5" transform="matrix(12,0,0,-12,124.3199,144.37012)"/>
<use data-text="&#xfffd;" xlink:href="#font_3_1" transform="matrix(12,0,0,-12,132.9839,144.37012)"/>
<use data-text="v" xlink:href="#font_2_28" transform="matrix(12,0,0,-12,205.97992,144.37012)"/>
<use data-text="a" xlink:href="#font_2_14" transform="matrix(12,0,0,-12,211.97992,144.37012)"/>
<use data-text="l" xlink:href="#font_2_20" transform="matrix(12,0,0,-12,218.65192,144.37012)"/>
<use data-text="P" xlink:href="#font_2_10" transform="matrix(12,0,0,-12,221.31592,144.37012)"/>
<use data-text="&#xfffd;" xlink:href="#font_3_1" transform="matrix(12,0,0,-12,229.31992,144.37012)"/>
<use data-text="v" xlink:href="#font_2_28" transform="matrix(12,0,0,-12,156.98392,144.37012)"/>
<use data-text="a" xlink:href="#font_2_14" transform="matrix(12,0,0,-12,162.98392,144.37012)"/>
<use data-text="l" xlink:href="#font_2_20" transform="matrix(12,0,0,-12,169.65592,144.37012)"/>
<use data-text="M" xlink:href="#font_2_8" transform="matrix(12,0,0,-12,172.31992,144.37012)"/>
<use data-text="&#xfffd;" xlink:href="#font_3_1" transform="matrix(12,0,0,-12,182.31592,144.37012)"/>
<g clip-path="url(#clip_5)">
<path transform="matrix(1,0,0,-1,73.512699,124.57013)" stroke-width="1.5" stroke-linecap="round" stroke-dasharray="0,3" stroke-linejoin="round" fill="none" stroke="#000000" d="M0 0V21.764"/>
<path transform="matrix(1,0,0,-1,71.51259,104.56995)" d="M0 0 2 4 4 0Z" fill-rule="evenodd"/>
<path transform="matrix(1,0,0,-1,127.512699,58.57007)" stroke-width="3" stroke-linecap="butt" stroke-linejoin="round" fill="none" stroke="#000000" d="M0 0V21"/>
<path transform="matrix(1,0,0,-1,130.5127,40.569948)" d="M0 0-3 6-6 0Z" fill-rule="evenodd"/>
<path transform="matrix(1,0,0,-1,169.5127,124.57013)" stroke-width="3" stroke-linecap="butt" stroke-linejoin="round" fill="none" stroke="#000000" d="M0 0V21"/>
<path transform="matrix(1,0,0,-1,172.5127,106.56995)" d="M0 0-3 6-6 0Z" fill-rule="evenodd"/>
<path transform="matrix(1,0,0,-1,121.512699,124.57013)" stroke-width="3" stroke-linecap="butt" stroke-linejoin="round" fill="none" stroke="#000000" d="M0 0V21"/>
<path transform="matrix(1,0,0,-1,124.512699,106.56995)" d="M0 0-3 6-6 0Z" fill-rule="evenodd"/>
<path transform="matrix(1,0,0,-1,25.5127,124.57013)" stroke-width="1" stroke-linecap="butt" stroke-linejoin="round" fill="none" stroke="#000000" d="M0 0V22"/>
<path transform="matrix(1,0,0,-1,27.5127,104.56995)" d="M0 0-2 4-4 0Z" fill-rule="evenodd"/>
<path transform="matrix(1,0,0,-1,-58.4873,1108.57)" d="M168 1104H204V1074H168Z" fill="#ffffff" fill-rule="evenodd"/>
<path transform="matrix(1,0,0,-1,109.512699,4.5699465)" stroke-width=".75" stroke-linecap="butt" stroke-miterlimit="8" stroke-linejoin="miter" fill="none" stroke="#000000" d="M0 0H36V-30H0Z"/>
</g>
<use data-text="P" xlink:href="#font_2_10" transform="matrix(12,0,0,-12,118.7119,24.369996)"/>
<use data-text="C" xlink:href="#font_2_5" transform="matrix(12,0,0,-12,126.7159,24.369996)"/>
<use data-text="&#xfffd;" xlink:href="#font_3_1" transform="matrix(12,0,0,-12,135.3799,24.369996)"/>
<g clip-path="url(#clip_6)">
<path transform="matrix(1,0,0,-1,325.5127,65.56995)" d="M0 0C0 3.866 3.134 7 7 7H281C284.866 7 288 3.866 288 0V-28C288-31.866 284.866-35 281-35H7C3.134-35 0-31.866 0-28Z" fill="#929292" fill-rule="evenodd"/>
<path transform="matrix(1,0,0,-1,325.5127,65.57019)" stroke-width=".75" stroke-linecap="butt" stroke-linejoin="round" fill="none" stroke="#000000" d="M0 0C0 3.866 3.134 7 7 7H281C284.866 7 288 3.866 288 0V-28C288-31.866 284.866-35 281-35H7C3.134-35 0-31.866 0-28Z"/>
</g>
<use data-text="P" xlink:href="#font_2_10" transform="matrix(12,0,0,-12,460.7621,84.369998)"/>
<use data-text="C" xlink:href="#font_2_5" transform="matrix(12,0,0,-12,468.7661,84.369998)"/>
<use data-text="&#xfffd;" xlink:href="#font_3_1" transform="matrix(12,0,0,-12,477.4301,84.369998)"/>
<g clip-path="url(#clip_7)">
<path transform="matrix(1,0,0,-1,469.5125,58.57007)" stroke-width="3" stroke-linecap="butt" stroke-linejoin="round" fill="none" stroke="#000000" d="M0 0V21"/>
<path transform="matrix(1,0,0,-1,472.51258,40.569948)" d="M0 0-3 6-6 0Z" fill-rule="evenodd"/>
<path transform="matrix(1,0,0,-1,433.5126,118.57013)" stroke-width="3" stroke-linecap="butt" stroke-linejoin="round" fill="none" stroke="#000000" d="M0 0V15"/>
<path transform="matrix(1,0,0,-1,436.5126,106.56995)" d="M0 0-3 6-6 0Z" fill-rule="evenodd"/>
<path transform="matrix(1,0,0,-1,-58.4873,1108.57)" d="M420 990H456V960H420Z" fill="#ffffff" fill-rule="evenodd"/>
<path transform="matrix(1,0,0,-1,361.5127,118.57013)" stroke-width=".75" stroke-linecap="butt" stroke-miterlimit="8" stroke-linejoin="miter" fill="none" stroke="#000000" d="M0 0H36V-30H0Z"/>
</g>
<use data-text="p" xlink:href="#font_2_24" transform="matrix(12,0,0,-12,364.71189,138.37012)"/>
<use data-text="C" xlink:href="#font_2_5" transform="matrix(12,0,0,-12,371.38389,138.37012)"/>
<use data-text="n" xlink:href="#font_2_22" transform="matrix(12,0,0,-12,380.04789,138.37012)"/>
<use data-text="d" xlink:href="#font_2_17" transform="matrix(12,0,0,-12,386.71989,138.37012)"/>
<use data-text="&#xfffd;" xlink:href="#font_3_1" transform="matrix(12,0,0,-12,393.39189,138.37012)"/>
<g clip-path="url(#clip_8)">
<path transform="matrix(1,0,0,-1,-58.4873,1108.57)" d="M456 990H528V960H456Z" fill="#ffffff" fill-rule="evenodd"/>
<path transform="matrix(1,0,0,-1,397.5126,118.57013)" stroke-width=".75" stroke-linecap="butt" stroke-miterlimit="8" stroke-linejoin="miter" fill="none" stroke="#000000" d="M0 0H72V-30H0Z"/>
</g>
<use data-text="p" xlink:href="#font_2_24" transform="matrix(12,0,0,-12,416.7118,138.37012)"/>
<use data-text="V" xlink:href="#font_2_13" transform="matrix(12,0,0,-12,423.3838,138.37012)"/>
<use data-text="a" xlink:href="#font_2_14" transform="matrix(12,0,0,-12,430.4998,138.37012)"/>
<use data-text="l" xlink:href="#font_2_20" transform="matrix(12,0,0,-12,437.17179,138.37012)"/>
<use data-text="M" xlink:href="#font_2_8" transform="matrix(12,0,0,-12,439.8358,138.37012)"/>
<use data-text="&#xfffd;" xlink:href="#font_3_1" transform="matrix(12,0,0,-12,449.8318,138.37012)"/>
<g clip-path="url(#clip_9)">
<path transform="matrix(1,0,0,-1,-58.4873,1108.57)" d="M528 990H600V960H528Z" fill="#ffffff" fill-rule="evenodd"/>
<path transform="matrix(1,0,0,-1,469.5125,118.57013)" stroke-width=".75" stroke-linecap="butt" stroke-miterlimit="8" stroke-linejoin="miter" fill="none" stroke="#000000" d="M0 0H72V-30H0Z"/>
</g>
<use data-text="p" xlink:href="#font_2_24" transform="matrix(12,0,0,-12,489.7118,138.37012)"/>
<use data-text="V" xlink:href="#font_2_13" transform="matrix(12,0,0,-12,496.3838,138.37012)"/>
<use data-text="a" xlink:href="#font_2_14" transform="matrix(12,0,0,-12,503.49983,138.37012)"/>
<use data-text="l" xlink:href="#font_2_20" transform="matrix(12,0,0,-12,510.1718,138.37012)"/>
<use data-text="C" xlink:href="#font_2_5" transform="matrix(12,0,0,-12,512.8358,138.37012)"/>
<use data-text="&#xfffd;" xlink:href="#font_3_1" transform="matrix(12,0,0,-12,521.4998,138.37012)"/>
<g clip-path="url(#clip_10)">
<path transform="matrix(1,0,0,-1,-58.4873,1108.57)" d="M600 990H672V960H600Z" fill="#ffffff" fill-rule="evenodd"/>
<path transform="matrix(1,0,0,-1,541.5125,118.57013)" stroke-width=".75" stroke-linecap="butt" stroke-miterlimit="8" stroke-linejoin="miter" fill="none" stroke="#000000" d="M0 0H72V-30H0Z"/>
</g>
<use data-text="p" xlink:href="#font_2_24" transform="matrix(12,0,0,-12,561.7118,138.37012)"/>
<use data-text="V" xlink:href="#font_2_13" transform="matrix(12,0,0,-12,568.3838,138.37012)"/>
<use data-text="a" xlink:href="#font_2_14" transform="matrix(12,0,0,-12,575.4998,138.37012)"/>
<use data-text="l" xlink:href="#font_2_20" transform="matrix(12,0,0,-12,582.1718,138.37012)"/>
<use data-text="P" xlink:href="#font_2_10" transform="matrix(12,0,0,-12,584.8358,138.37012)"/>
<use data-text="&#xfffd;" xlink:href="#font_3_1" transform="matrix(12,0,0,-12,592.83987,138.37012)"/>
<g clip-path="url(#clip_11)">
<path transform="matrix(1,0,0,-1,-58.4873,1108.57)" d="M384 990H420V960H384Z" fill="#ffffff" fill-rule="evenodd"/>
<path transform="matrix(1,0,0,-1,325.5127,118.57013)" stroke-width=".75" stroke-linecap="butt" stroke-miterlimit="8" stroke-linejoin="miter" fill="none" stroke="#000000" d="M0 0H36V-30H0Z"/>
</g>
<use data-text="p" xlink:href="#font_2_24" transform="matrix(12,0,0,-12,325.71189,138.37012)"/>
<use data-text="I" xlink:href="#font_2_7" transform="matrix(12,0,0,-12,332.38389,138.37012)"/>
<use data-text="c" xlink:href="#font_2_16" transform="matrix(12,0,0,-12,335.71989,138.37012)"/>
<use data-text="o" xlink:href="#font_2_23" transform="matrix(12,0,0,-12,341.71989,138.37012)"/>
<use data-text="d" xlink:href="#font_2_17" transform="matrix(12,0,0,-12,348.39189,138.37012)"/>
<use data-text="e" xlink:href="#font_2_18" transform="matrix(12,0,0,-12,355.06388,138.37012)"/>
<use data-text="&#xfffd;" xlink:href="#font_3_1" transform="matrix(12,0,0,-12,361.73588,138.37012)"/>
<g clip-path="url(#clip_12)">
<path transform="matrix(1,0,0,-1,499.5125,118.57013)" stroke-width="3" stroke-linecap="butt" stroke-linejoin="round" fill="none" stroke="#000000" d="M0 0V15"/>
<path transform="matrix(1,0,0,-1,502.51258,106.56995)" d="M0 0-3 6-6 0Z" fill-rule="evenodd"/>
<path transform="matrix(1,0,0,-1,565.5125,118.57013)" stroke-width="3" stroke-linecap="butt" stroke-linejoin="round" fill="none" stroke="#000000" d="M0 0V15"/>
<path transform="matrix(1,0,0,-1,568.5126,106.56995)" d="M0 0-3 6-6 0Z" fill-rule="evenodd"/>
<path transform="matrix(1,0,0,-1,343.5127,118.57013)" stroke-width="1" stroke-linecap="butt" stroke-linejoin="round" fill="none" stroke="#000000" d="M0 0V16"/>
<path transform="matrix(1,0,0,-1,345.5127,104.56995)" d="M0 0-2 4-4 0Z" fill-rule="evenodd"/>
<path transform="matrix(1,0,0,-1,379.5127,118.57013)" stroke-width="1" stroke-linecap="round" stroke-dasharray="0,2" stroke-linejoin="round" fill="none" stroke="#000000" d="M0 0V15.764"/>
<path transform="matrix(1,0,0,-1,381.5127,104.56995)" d="M0 0-2 4-4 0Z" fill-rule="evenodd"/>
</g>
<use data-text="P" xlink:href="#font_2_10" transform="matrix(12,0,0,-12,460.9839,30.369996)"/>
<use data-text="C" xlink:href="#font_2_5" transform="matrix(12,0,0,-12,468.9879,30.369996)"/>
<use data-text="&#xfffd;" xlink:href="#font_3_1" transform="matrix(12,0,0,-12,477.65193,30.369996)"/>
<use data-text="(" xlink:href="#font_2_2" transform="matrix(14,0,0,-14,2.7127,183.92017)"/>
<use data-text="a" xlink:href="#font_2_14" transform="matrix(14,0,0,-14,7.3746988,183.92017)"/>
<use data-text=")" xlink:href="#font_2_3" transform="matrix(14,0,0,-14,15.158703,183.92017)"/>
<use data-text=" " xlink:href="#font_2_1" transform="matrix(14,0,0,-14,19.820706,183.92017)"/>
<use data-text=" " xlink:href="#font_2_1" transform="matrix(14,0,0,-14,23.712704,183.92017)"/>
<use data-text="S" xlink:href="#font_2_12" transform="matrix(14,0,0,-14,27.604702,183.92017)"/>
<use data-text="E" xlink:href="#font_2_6" transform="matrix(14,0,0,-14,36.942708,183.92017)"/>
<use data-text="Q" xlink:href="#font_2_11" transform="matrix(14,0,0,-14,46.280706,183.92017)"/>
<use data-text=" " xlink:href="#font_2_1" transform="matrix(14,0,0,-14,57.172704,183.92017)"/>
<use data-text="n" xlink:href="#font_2_22" transform="matrix(14,0,0,-14,61.0647,183.92017)"/>
<use data-text="e" xlink:href="#font_2_18" transform="matrix(14,0,0,-14,68.84871,183.92017)"/>
<use data-text="w" xlink:href="#font_2_29" transform="matrix(14,0,0,-14,76.632709,183.92017)"/>
<use data-text=" " xlink:href="#font_2_1" transform="matrix(14,0,0,-14,86.74071,183.92017)"/>
<use data-text="P" xlink:href="#font_2_10" transform="matrix(14,0,0,-14,90.632709,183.92017)"/>
<use data-text="C" xlink:href="#font_2_5" transform="matrix(14,0,0,-14,99.9707,183.92017)"/>
<use data-text=" " xlink:href="#font_2_1" transform="matrix(14,0,0,-14,110.078708,183.92017)"/>
<use data-text="c" xlink:href="#font_2_16" transform="matrix(14,0,0,-14,113.9707,183.92017)"/>
<use data-text="o" xlink:href="#font_2_23" transform="matrix(14,0,0,-14,120.9707,183.92017)"/>
<use data-text="m" xlink:href="#font_2_21" transform="matrix(14,0,0,-14,128.7547,183.92017)"/>
<use data-text="p" xlink:href="#font_2_24" transform="matrix(14,0,0,-14,140.4167,183.92017)"/>
<use data-text="u" xlink:href="#font_2_27" transform="matrix(14,0,0,-14,148.2007,183.92017)"/>
<use data-text="t" xlink:href="#font_2_26" transform="matrix(14,0,0,-14,155.9847,183.92017)"/>
<use data-text="a" xlink:href="#font_2_14" transform="matrix(14,0,0,-14,159.8767,183.92017)"/>
<use data-text="t" xlink:href="#font_2_26" transform="matrix(14,0,0,-14,167.66069,183.92017)"/>
<use data-text="i" xlink:href="#font_2_19" transform="matrix(14,0,0,-14,171.55269,183.92017)"/>
<use data-text="o" xlink:href="#font_2_23" transform="matrix(14,0,0,-14,174.66069,183.92017)"/>
<use data-text="n" xlink:href="#font_2_22" transform="matrix(14,0,0,-14,182.44469,183.92017)"/>
<use data-text="&#xfffd;" xlink:href="#font_3_1" transform="matrix(14,0,0,-14,190.22869,183.92017)"/>
<use data-text="(" xlink:href="#font_2_2" transform="matrix(14,0,0,-14,320.7087,182.92615)"/>
<use data-text="b" xlink:href="#font_2_15" transform="matrix(14,0,0,-14,325.3707,182.92615)"/>
<use data-text=")" xlink:href="#font_2_3" transform="matrix(14,0,0,-14,333.1547,182.92615)"/>
<use data-text=" " xlink:href="#font_2_1" transform="matrix(14,0,0,-14,337.81669,182.92615)"/>
<use data-text=" " xlink:href="#font_2_1" transform="matrix(14,0,0,-14,341.70869,182.92615)"/>
<use data-text="S" xlink:href="#font_2_12" transform="matrix(14,0,0,-14,345.60069,182.92615)"/>
<use data-text="E" xlink:href="#font_2_6" transform="matrix(14,0,0,-14,354.9387,182.92615)"/>
<use data-text="Q" xlink:href="#font_2_11" transform="matrix(14,0,0,-14,364.2767,182.92615)"/>
<use data-text="+" xlink:href="#font_2_4" transform="matrix(14,0,0,-14,375.1687,182.92615)"/>
<use data-text=" " xlink:href="#font_2_1" transform="matrix(14,0,0,-14,383.3447,182.92615)"/>
<use data-text="P" xlink:href="#font_2_10" transform="matrix(14,0,0,-14,387.2367,182.92615)"/>
<use data-text="C" xlink:href="#font_2_5" transform="matrix(14,0,0,-14,396.5747,182.92615)"/>
<use data-text=" " xlink:href="#font_2_1" transform="matrix(14,0,0,-14,406.6827,182.92615)"/>
<use data-text="s" xlink:href="#font_2_25" transform="matrix(14,0,0,-14,410.5747,182.92615)"/>
<use data-text="e" xlink:href="#font_2_18" transform="matrix(14,0,0,-14,417.5747,182.92615)"/>
<use data-text="l" xlink:href="#font_2_20" transform="matrix(14,0,0,-14,425.3587,182.92615)"/>
<use data-text="e" xlink:href="#font_2_18" transform="matrix(14,0,0,-14,428.4667,182.92615)"/>
<use data-text="c" xlink:href="#font_2_16" transform="matrix(14,0,0,-14,436.2507,182.92615)"/>
<use data-text="t" xlink:href="#font_2_26" transform="matrix(14,0,0,-14,443.2507,182.92615)"/>
<use data-text="i" xlink:href="#font_2_19" transform="matrix(14,0,0,-14,447.1427,182.92615)"/>
<use data-text="o" xlink:href="#font_2_23" transform="matrix(14,0,0,-14,450.2507,182.92615)"/>
<use data-text="n" xlink:href="#font_2_22" transform="matrix(14,0,0,-14,458.03474,182.92615)"/>
<use data-text="&#xfffd;" xlink:href="#font_3_1" transform="matrix(14,0,0,-14,465.81874,182.92615)"/>
</g>
</svg>
