<svg xmlns="http://www.w3.org/2000/svg" xmlns:xlink="http://www.w3.org/1999/xlink" version="1.1" width="272.70298pt" height="225.139pt" viewBox="0 0 272.70298 225.139">
<defs>
<clipPath id="clip_0">
<path transform="matrix(1,0,0,-1,-367.04,561.265)" d="M367.04 336.126H639.743V561.265H367.04Z" fill-rule="evenodd"/>
</clipPath>
<path id="font_1_2" d="M.3623047 .49682618C.3623047 .46174113 .35001628 .43184916 .32543946 .40715028 .30086265 .38246156 .27148438 .3701172 .23730469 .3701172 .20279949 .3701172 .17333985 .38246156 .14892578 .40715028 .12451172 .43184916 .11230469 .46174113 .11230469 .49682618 .11230469 .5319112 .12451172 .56171676 .14892578 .5862427 .17333985 .6107788 .20279949 .6230469 .23730469 .6230469 .2718099 .6230469 .30126954 .6107788 .3256836 .5862427 .35009767 .56171676 .3623047 .5319112 .3623047 .49682618M.3330078 .49658204C.3330078 .5236003 .32364909 .5465495 .30493165 .5654297 .2862142 .5843099 .26367188 .59375 .23730469 .59375 .2109375 .59375 .18839519 .5843099 .16967774 .5654297 .15096028 .5465495 .14160156 .5236003 .14160156 .49658204 .14160156 .4695638 .15096028 .4466146 .16967774 .42773438 .18839519 .40885417 .2109375 .39941407 .23730469 .39941407 .26367188 .39941407 .2862142 .40885417 .30493165 .42773438 .32364909 .4466146 .3330078 .4695638 .3330078 .49658204M.4951172 .3564453 .115234378 .22949219C.110677089 .22819011 .10725912 .22753906 .10498047 .22753906 .10139974 .22753906 .098225917 .22896321 .095458988 .23181153 .092692058 .23467 .091308597 .23798116 .091308597 .241745 .091308597 .2448883 .092447917 .24803162 .09472656 .25117494 .096354167 .25306703 .100097659 .254954 .10595703 .25683595L.48583985 .38378907C.49039714 .38509117 .49397788 .3857422 .49658204 .3857422 .49983726 .3857422 .5028483 .38431297 .50561526 .38145448 .50838217 .37860618 .5097656 .37530009 .5097656 .37153626 .5097656 .36839295 .5086263 .36524964 .50634768 .36210633 .50472006 .36021424 .50097659 .35832725 .4951172 .3564453M.48876954 .11450195C.48876954 .07941691 .4764811 .049606325 .4519043 .02507019 .42732749 .00054423019 .39778648-.01171875 .36328126-.01171875 .32910157-.01171875 .2997233 .00062561038 .27514649 .025314331 .25056968 .050013227 .23828125 .07974243 .23828125 .11450195 .23828125 .14958699 .25048829 .17947388 .27490235 .2041626 .2993164 .2288615 .32877604 .24121094 .36328126 .24121094 .39778648 .24121094 .42732749 .2288615 .4519043 .2041626 .4764811 .17947388 .48876954 .14958699 .48876954 .11450195M.45898438 .114746097C.45898438 .14208985 .44962565 .16512044 .4309082 .18383789 .41219078 .20255535 .38964845 .21191406 .36328126 .21191406 .33691407 .21191406 .31437174 .20247396 .2956543 .18359375 .27693687 .16471355 .26757813 .14176433 .26757813 .114746097 .26757813 .08805338 .27693687 .06518555 .2956543 .046142579 .31437174 .02709961 .33691407 .017578125 .36328126 .017578125 .38964845 .017578125 .41219078 .027018229 .4309082 .045898439 .44962565 .06477865 .45898438 .08772787 .45898438 .114746097Z"/>
<path id="font_1_20" d="M.25097657 .42382813V.3200531C.30436198 .36812846 .34431968 .3990682 .3708496 .4128723 .39737956 .4266866 .421875 .43359376 .44433595 .43359376 .46875 .43359376 .49145509 .4253184 .5124512 .4087677 .53344729 .392217 .5439453 .37967936 .5439453 .3711548 .5439453 .3649292 .5419108 .3597819 .5378418 .3557129 .53377279 .3516439 .5286458 .34960938 .52246096 .34960938 .51920577 .34960938 .5164388 .35017906 .51416018 .35131837 .51188156 .35245768 .5076497 .3561605 .50146487 .36242677 .49007163 .3739624 .48014323 .38187156 .4716797 .38615418 .46321617 .3904368 .45491538 .39257813 .44677735 .39257813 .4288737 .39257813 .40730796 .38542176 .38208009 .371109 .3568522 .35679627 .31315104 .32182823 .25097657 .26620484V.041015626H.4326172C.44270835 .041015626 .44986979 .03914388 .45410157 .03540039 .45833335 .031656904 .46044923 .026692709 .46044923 .020507813 .46044923 .0146484379 .45833335 .009765625 .45410157 .005859375 .44986979 .001953125 .44270835 0 .4326172 0H.110839847C.10107422 0 .09407552 .0019175211 .08984375 .0057525637 .08561198 .0095876059 .083496097 .014506022 .083496097 .020507813 .083496097 .026041666 .0855306 .030680338 .08959961 .034423829 .09366862 .038167318 .100748699 .040039064 .110839847 .040039064H.20996094V.3828125H.13427735C.12451172 .3828125 .11751302 .38476563 .11328125 .38867188 .10904948 .39257813 .106933597 .3976237 .106933597 .4038086 .106933597 .40952555 .1089681 .41429139 .11303711 .41810609 .11710612 .42192079 .124186199 .42382813 .13427735 .42382813H.25097657Z"/>
<path id="font_1_14" d="M.41796876 0V.059570314C.35839845 .0094401049 .29475913-.015625 .22705078-.015625 .17789714-.015625 .13948567-.0031738282 .111816409 .021728516 .08414713 .04663086 .0703125 .07714844 .0703125 .11328125 .0703125 .1529948 .088541667 .18766277 .125 .21728516 .16145833 .24690755 .21468099 .26171876 .28466798 .26171876 .3035482 .26171876 .324056 .26049806 .3461914 .25805665 .3683268 .25561524 .3922526 .25179038 .41796876 .24658203V.31341554C.41796876 .33602906 .4075521 .35568748 .38671876 .37239076 .3658854 .38910423 .3346354 .39746095 .29296876 .39746095 .26106773 .39746095 .2163086 .38804627 .1586914 .36921693 .14827474 .36591087 .14160156 .3642578 .13867188 .3642578 .13346355 .3642578 .12898763 .36621095 .12524414 .3701172 .12150065 .37402345 .119628909 .37890626 .119628909 .38476563 .119628909 .39029948 .12125651 .394694 .12451172 .39794923 .12906902 .40283204 .14746094 .40950523 .1796875 .41796876 .23046875 .43164063 .26888023 .43847657 .29492188 .43847657 .3466797 .43847657 .38704429 .42566935 .41601563 .40005494 .44498698 .37444053 .45947267 .34547935 .45947267 .3131714V.041015626H.51416018C.5242513 .041015626 .5314128 .03914388 .53564456 .03540039 .5398763 .031656904 .5419922 .026692709 .5419922 .020507813 .5419922 .0146484379 .5398763 .009765625 .53564456 .005859375 .5314128 .001953125 .5242513 0 .51416018 0H.41796876M.41796876 .20458985C.39876304 .2101237 .37841798 .2141927 .3569336 .21679688 .33544923 .21940105 .31282554 .22070313 .2890625 .22070313 .22949219 .22070313 .1829427 .20784505 .14941406 .1821289 .12402344 .16292317 .111328128 .13997396 .111328128 .11328125 .111328128 .088541667 .12101237 .067708339 .14038086 .05078125 .15974935 .033854169 .18798828 .025390625 .22509766 .025390625 .26057945 .025390625 .29353843 .032470704 .3239746 .04663086 .3544108 .060791017 .3857422 .083333339 .41796876 .11425781V.20458985Z"/>
<path id="font_1_22" d="M.32885743 .22181702 .5161133 .041015626C.5284831 .041015626 .5362956 .040445966 .5395508 .03930664 .54280599 .038167318 .5456543 .035807294 .5480957 .032226564 .5505371 .028645834 .5517578 .024739584 .5517578 .020507813 .5517578 .0146484379 .5496419 .009765625 .54541018 .005859375 .5411784 .001953125 .5340169 0 .5239258 0H.39208985C.3819987 0 .37483726 .001953125 .37060548 .005859375 .3663737 .009765625 .3642578 .0146484379 .3642578 .020507813 .3642578 .026692709 .3663737 .031656904 .37060548 .03540039 .37483726 .03914388 .3819987 .041015626 .39208985 .041015626H.45996095L.30067445 .19459534 .14160156 .041015626H.20996094C.21972656 .041015626 .22672527 .03914388 .23095703 .03540039 .2351888 .031656904 .23730469 .026692709 .23730469 .020507813 .23730469 .0146484379 .2351888 .009765625 .23095703 .005859375 .22672527 .001953125 .21972656 0 .20996094 0H.076660159C.06689453 0 .059895833 .001953125 .055664064 .005859375 .051432294 .009765625 .049316408 .0146484379 .049316408 .020507813 .049316408 .024739584 .05053711 .028645834 .052978517 .032226564 .055419923 .035807294 .058186849 .038167318 .061279298 .03930664 .06437174 .040445966 .07210287 .041015626 .084472659 .041015626L.27233888 .22190857 .10546875 .3828125C.09375 .3828125 .0863444 .38345338 .08325195 .3847351 .08015951 .386027 .07739258 .388443 .07495117 .39198304 .072509769 .39552308 .07128906 .39938355 .07128906 .40356446 .07128906 .40935264 .073404949 .4141744 .07763672 .4180298 .08186849 .42189536 .089029949 .42382813 .099121097 .42382813H.2109375C.22102864 .42382813 .22810872 .42189536 .23217774 .4180298 .23624675 .4141744 .23828125 .40918986 .23828125 .40307618 .23828125 .397288 .23624675 .39246116 .23217774 .38859559 .22810872 .3847402 .22102864 .3828125 .2109375 .3828125H.16210938L.3005829 .24909973 .43945313 .3828125H.390625C.38085938 .3828125 .3737793 .3847402 .36938478 .38859559 .36499024 .39246116 .36279298 .39745078 .36279298 .40356446 .36279298 .40935264 .36490885 .4141744 .36914063 .4180298 .3733724 .42189536 .38053385 .42382813 .390625 .42382813H.5024414C.51220706 .42382813 .51920577 .42189536 .5234375 .4180298 .52766928 .4141744 .52978518 .40918986 .52978518 .40307618 .52978518 .3992208 .52856448 .39552308 .52612307 .39198304 .52368167 .388443 .52091476 .386027 .51782229 .3847351 .5147298 .38345338 .5073242 .3828125 .49560548 .3828125L.32885743 .22181702Z"/>
<path id="font_1_1" d="M0 0Z"/>
<path id="font_1_16" d="M.4711914 .38275147V.396286C.4711914 .40627543 .47314454 .4133606 .47705079 .4175415 .48095704 .42173258 .48583985 .42382813 .49169923 .42382813 .49788413 .42382813 .5029297 .42171226 .50683596 .41748048 .5107422 .4132487 .5126953 .40608726 .5126953 .3959961V.30322267C.5123698 .2931315 .51033529 .28597007 .5065918 .28173829 .5028483 .2775065 .49788413 .27539063 .49169923 .27539063 .48616538 .27539063 .4815267 .27726747 .4777832 .28102113 .4740397 .28478495 .47184245 .29108177 .4711914 .2999115 .46923829 .32311503 .45402018 .34517417 .4255371 .36608888 .39705406 .38700358 .35872398 .39746095 .31054688 .39746095 .24967449 .39746095 .20345052 .3783671 .171875 .34017945 .14029949 .3019918 .12451172 .2582601 .12451172 .20898438 .12451172 .15578206 .14192708 .11188253 .17675781 .07728577 .21158855 .042689008 .2566732 .025390625 .31201173 .025390625 .34391276 .025390625 .37638346 .03131612 .40942384 .043167116 .4424642 .05502828 .47233073 .074132289 .49902345 .100479129 .5058594 .10706075 .51188156 .11035156 .51708987 .11035156 .5226237 .11035156 .5272624 .10846456 .53100588 .10469055 .5347493 .10091654 .5366211 .09624227 .5366211 .090667728 .5366211 .07655843 .5201823 .058680219 .4873047 .03703308 .43424479 .0019276937 .37516276-.015625 .3100586-.015625 .24397786-.015625 .18969727 .005472819 .1472168 .047668458 .10473633 .08987427 .083496097 .1434021 .083496097 .20825196 .083496097 .2744039 .10522461 .3293101 .14868164 .37297059 .19213867 .41664125 .24690755 .43847657 .31298829 .43847657 .3758138 .43847657 .4285482 .41990153 .4711914 .38275147Z"/>
<path id="font_1_17" d="M.50097659 .61328127V.041015626H.55566409C.5657552 .041015626 .5729167 .03914388 .57714846 .03540039 .5813802 .031656904 .5834961 .026692709 .5834961 .020507813 .5834961 .014923096 .5813802 .010269165 .57714846 .0065460207 .5729167 .0028330486 .5657552 .0009765625 .55566409 .0009765625H.45947267V.08218384C.41194663 .016977946 .3515625-.015625 .2783203-.015625 .24121094-.015625 .20564778-.0057678224 .17163086 .013946533 .13761394 .03366089 .11075846 .061767579 .09106445 .0982666 .071370448 .13476563 .061523439 .17240398 .061523439 .21118164 .061523439 .25028483 .071370448 .28800456 .09106445 .32434083 .11075846 .3606771 .13761394 .38878379 .17163086 .4086609 .20564778 .428538 .2413737 .43847657 .2788086 .43847657 .3504232 .43847657 .41064454 .40603639 .45947267 .341156V.5722656H.40478517C.394694 .5722656 .38753257 .574173 .38330079 .5779877 .379069 .58180239 .37695313 .58673098 .37695313 .59277346 .37695313 .5986328 .379069 .6035156 .38330079 .6074219 .38753257 .6113281 .394694 .61328127 .40478517 .61328127H.50097659M.45947267 .21142578C.45947267 .26364137 .44189454 .30769859 .40673829 .3435974 .37158204 .37950645 .3297526 .39746095 .28125 .39746095 .23242188 .39746095 .19042969 .37950645 .15527344 .3435974 .12011719 .30769859 .10253906 .26364137 .10253906 .21142578 .10253906 .15953572 .12011719 .11555481 .15527344 .07948303 .19042969 .04342143 .23242188 .025390625 .28125 .025390625 .3297526 .025390625 .37158204 .04342143 .40673829 .07948303 .44189454 .11555481 .45947267 .15953572 .45947267 .21142578Z"/>
<path id="font_1_15" d="M.14550781 .61328127V.34213258C.19498699 .4063619 .25472007 .43847657 .32470704 .43847657 .38460288 .43847657 .4358724 .41672264 .47851563 .37321473 .5211589 .329717 .54248049 .27635703 .54248049 .21313477 .54248049 .14926148 .52091476 .09516398 .4777832 .050842287 .4346517 .0065307619 .3836263-.015625 .32470704-.015625 .25309245-.015625 .19335938 .016652426 .14550781 .081207279V.0009765625H.049316408C.03955078 .0009765625 .032552083 .0028330486 .028320313 .0065460207 .024088541 .010269165 .021972657 .014923096 .021972657 .020507813 .021972657 .026692709 .024088541 .031656904 .028320313 .03540039 .032552083 .03914388 .03955078 .041015626 .049316408 .041015626H.10449219V.5722656H.049316408C.03955078 .5722656 .032552083 .574173 .028320313 .5779877 .024088541 .58180239 .021972657 .58673098 .021972657 .59277346 .021972657 .5986328 .024088541 .6035156 .028320313 .6074219 .032552083 .6113281 .03955078 .61328127 .049316408 .61328127H.14550781M.50146487 .21095276C.50146487 .26272074 .48372398 .30674745 .4482422 .34303285 .4127604 .37931825 .3712565 .39746095 .32373048 .39746095 .27620445 .39746095 .23470052 .37942506 .19921875 .34335328 .16373699 .30729167 .1459961 .26331584 .1459961 .21142578 .1459961 .15953572 .16373699 .11555481 .19921875 .07948303 .23470052 .04342143 .27620445 .025390625 .32373048 .025390625 .3712565 .025390625 .4127604 .043375654 .4482422 .0793457 .48372398 .11532593 .50146487 .15919495 .50146487 .21095276Z"/>
<path id="font_1_21" d="M.43554688 .39746095C.43554688 .40672813 .4375 .4134369 .44140626 .41758729 .4453125 .42174784 .4501953 .42382813 .4560547 .42382813 .4622396 .42382813 .46728517 .42170207 .4711914 .41744996 .47509767 .413208 .47705079 .40602113 .47705079 .39588929V.32530213C.47705079 .31549583 .47509767 .30846659 .4711914 .30421449 .46728517 .29997254 .4622396 .29785157 .4560547 .29785157 .45052085 .29785157 .44588218 .2996572 .44213868 .30326844 .43839518 .30688987 .4361979 .31281028 .43554688 .32102967 .43359376 .34075419 .4235026 .35702516 .40527345 .36984254 .37858073 .3882548 .34326173 .39746095 .2993164 .39746095 .25341798 .39746095 .21777344 .3881836 .19238281 .3696289 .17317708 .3556315 .16357422 .3400065 .16357422 .3227539 .16357422 .30322267 .17496746 .28694663 .1977539 .27392579 .2133789 .2648112 .2430013 .2578125 .2866211 .2529297 .34358726 .24672444 .38313804 .23970032 .40527345 .2318573 .43684898 .22042339 .46036784 .20457459 .47583009 .18431092 .49129234 .16405742 .49902345 .14217122 .49902345 .118652347 .49902345 .08369955 .48225913 .052581788 .44873048 .025299073 .4152018-.0019836426 .3660482-.015625 .30126954-.015625 .23649089-.015625 .18343099 .00081380209 .14208985 .033691408 .14208985 .022460938 .1414388 .015192668 .14013672 .011886597 .13883464 .008590698 .13647461 .005783081 .13305664 .0034637452 .12963867 .0011545817 .1258138 0 .12158203 0 .115722659 0 .110839847 .0021209717 .106933597 .006362915 .103027347 .010615031 .10107422 .01763916 .10107422 .027435303V.112213138C.10107422 .12200928 .10294596 .12902832 .10668945 .13327027 .110432948 .13752239 .11539713 .13964844 .12158203 .13964844 .1274414 .13964844 .1324056 .13761394 .13647461 .13354492 .14054363 .1294759 .14257813 .12402344 .14257813 .1171875 .14257813 .10221354 .14632161 .08968099 .1538086 .079589847 .16520183 .063964847 .18334961 .05102539 .20825196 .040771486 .2331543 .030517579 .26367188 .025390625 .2998047 .025390625 .3531901 .025390625 .39290367 .035369874 .4189453 .05532837 .44498698 .075286868 .4580078 .09638977 .4580078 .118637088 .4580078 .14415996 .44482423 .16460674 .41845704 .17997742 .3917643 .19535828 .35294596 .20566304 .30200196 .21089173 .25105796 .21613057 .21451824 .2229716 .19238281 .2314148 .17024739 .23985799 .1529948 .2525228 .140625 .26940919 .1282552 .28630577 .12207031 .3044993 .12207031 .32398988 .12207031 .35906474 .13932292 .38691203 .17382813 .40753175 .20833333 .42816163 .24951172 .43847657 .29736329 .43847657 .3540039 .43847657 .4000651 .4248047 .43554688 .39746095Z"/>
<path id="font_1_19" d="M.14550781 .42382813V.349411C.16992188 .37894187 .1961263 .40116883 .2241211 .41609193 .25211589 .431015 .28515626 .43847657 .3232422 .43847657 .36360679 .43847657 .4008789 .42902629 .4350586 .41012574 .46923829 .3912252 .49568687 .36490885 .5144043 .33117677 .53312179 .29744468 .54248049 .26200358 .54248049 .22485352 .54248049 .16586304 .521403 .11542765 .47924806 .07354736 .4370931 .031677247 .3852539 .0107421879 .32373048 .0107421879 .25048829 .0107421879 .19108074 .040430707 .14550781 .09980774V-.14746094H.24511719C.2548828-.14746094 .2618815-.14933269 .26611329-.15307617 .27034507-.15681966 .27246095-.16178386 .27246095-.16796875 .27246095-.17382813 .27034507-.17871094 .26611329-.18261719 .2618815-.18652344 .2548828-.18847656 .24511719-.18847656H.049316408C.03955078-.18847656 .032552083-.18660482 .028320313-.18286133 .024088541-.17911785 .021972657-.17415364 .021972657-.16796875 .021972657-.16178386 .024088541-.15681966 .028320313-.15307617 .032552083-.14933269 .03955078-.14746094 .049316408-.14746094H.10449219V.3828125H.049316408C.03955078 .3828125 .032552083 .38476563 .028320313 .38867188 .024088541 .39257813 .021972657 .3976237 .021972657 .4038086 .021972657 .40952555 .024088541 .41429139 .028320313 .41810609 .032552083 .42192079 .03955078 .42382813 .049316408 .42382813H.14550781M.50097659 .22485352C.50097659 .27225749 .48380534 .31287638 .4494629 .3467102 .41512046 .38054405 .37320964 .39746095 .32373048 .39746095 .27392579 .39746095 .23177083 .38046266 .19726563 .34646607 .16276042 .31246949 .14550781 .27193199 .14550781 .22485352 .14550781 .17744954 .16276042 .13674927 .19726563 .102752689 .23177083 .0687561 .27392579 .051757814 .32373048 .051757814 .37288413 .051757814 .41471354 .06867472 .44921876 .102508548 .48372398 .13634236 .50097659 .17712403 .50097659 .22485352Z"/>
<path id="font_1_18" d="M.3203125 .63378909V.5283203H.25976563V.63378909H.3203125M.32177735 .42382813V.041015626H.48291017C.4930013 .041015626 .5001628 .03914388 .50439456 .03540039 .5086263 .031656904 .5107422 .026692709 .5107422 .020507813 .5107422 .0146484379 .5086263 .009765625 .50439456 .005859375 .5001628 .001953125 .4930013 0 .48291017 0H.119628909C.10986328 0 .102864589 .001953125 .09863281 .005859375 .09440104 .009765625 .092285159 .0146484379 .092285159 .020507813 .092285159 .026692709 .09440104 .031656904 .09863281 .03540039 .102864589 .03914388 .10986328 .041015626 .119628909 .041015626H.28076173V.3828125H.16113281C.15136719 .3828125 .14428711 .3847402 .13989258 .38859559 .13549805 .39246116 .13330078 .397288 .13330078 .40307618 .13330078 .40918986 .13541667 .4141744 .13964844 .4180298 .1438802 .42189536 .15104167 .42382813 .16113281 .42382813H.32177735Z"/>
<path id="font_2_9" d="M.40966798 .38867188C.45524089 .38867188 .49129234 .39778648 .51782229 .41601563 .54435226 .43424479 .5576172 .4671224 .5576172 .51464846 .5576172 .5657552 .5390625 .60058596 .5019531 .6191406 .48209635 .62890627 .4555664 .63378909 .42236329 .63378909H.1850586V.38867188H.40966798M.087890628 .71777346H.41992188C.47460938 .71777346 .51969406 .709788 .5551758 .69381716 .6225586 .6631775 .65625 .60662338 .65625 .52415469 .65625 .48112489 .6473796 .44591777 .6296387 .41853334 .61189779 .39115907 .58707687 .36916099 .5551758 .35253907 .5831706 .34114585 .60424807 .32617188 .6184082 .3076172 .63256838 .2890625 .6404622 .2589518 .64208987 .21728516L.6455078 .12109375C.6464844 .09388224 .648763 .07363383 .65234377 .06034851 .6582031 .037663778 .6686198 .023081461 .68359377 .016601563V0H.5644531C.56119796 .006184896 .55859377 .014160156 .5566406 .023925782 .5546875 .033691408 .5530599 .052571615 .5517578 .080566409L.54589846 .20019531C.5436198 .24707031 .5262044 .27848307 .49365235 .2944336 .47509767 .30322267 .44596354 .3076172 .40625 .3076172H.1850586V0H.087890628V.71777346Z"/>
<path id="font_2_6" d="M.08544922 .71777346H.5830078V.6298828H.18261719V.41210938H.53466799V.32617188H.18261719V0H.08544922V.71777346Z"/>
<path id="font_2_2" d="M.110839847 .51660159H.21289063V.41015626H.110839847V.51660159M.110839847 .10644531H.21289063V0H.110839847V.10644531Z"/>
<path id="font_2_1" d="M0 0Z"/>
<path id="font_2_8" d="M.08544922 .71777346H.40820313C.47200523 .71777346 .5234375 .6997884 .5625 .66381838 .6015625 .6278483 .62109377 .5773112 .62109377 .51220706 .62109377 .45621745 .6036784 .4074707 .56884768 .3659668 .5340169 .3244629 .48046876 .30371095 .40820313 .30371095H.18261719V0H.08544922V.71777346M.5229492 .5114746C.5229492 .56410726 .50341799 .5998433 .46435548 .61868289 .4428711 .62875369 .41341148 .63378909 .37597657 .63378909H.18261719V.3857422H.37597657C.41959635 .3857422 .45499674 .39499919 .48217774 .41351319 .5093587 .43203736 .5229492 .46469117 .5229492 .5114746Z"/>
<path id="font_2_20" d="M.06689453 .5234375H.15039063V.4326172C.15722656 .4502767 .17399089 .4717814 .2006836 .49713136 .2273763 .52248129 .25813804 .53515627 .29296876 .53515627 .29459635 .53515627 .29736329 .5349579 .30126954 .53456118 .30517579 .5341746 .31184898 .5333964 .32128907 .53222659V.43945313C.31608073 .44062297 .3112793 .44140116 .30688478 .44178773 .30249024 .44218446 .2976888 .4423828 .29248048 .4423828 .24820964 .4423828 .2141927 .4280599 .19042969 .39941407 .16666667 .37076823 .15478516 .33789063 .15478516 .30078126V0H.06689453V.5234375Z"/>
<path id="font_2_19" d="M.27197267 .057617189C.33024089 .057617189 .37019859 .07964579 .3918457 .123703 .41349284 .16776021 .4243164 .21677144 .4243164 .2707367 .4243164 .31950379 .4165039 .35917155 .4008789 .38974 .3761393 .43785606 .3334961 .46191407 .27294923 .46191407 .21923828 .46191407 .18017578 .44143168 .15576172 .40046693 .13134766 .35950218 .119140628 .31008403 .119140628 .25221253 .119140628 .1966095 .13134766 .15027364 .15576172 .113204959 .18017578 .076146449 .21891277 .057617189 .27197267 .057617189M.27539063 .53808596C.34277345 .53808596 .3997396 .5156453 .44628907 .47076417 .49283854 .42588298 .5161133 .35985819 .5161133 .27268983 .5161133 .1884613 .49560548 .11886088 .45458985 .06388855 .41357423 .008926392 .3499349-.018554688 .26367188-.018554688 .19173177-.018554688 .13460286 .00575765 .092285159 .054382326 .04996745 .103006999 .028808594 .16829936 .028808594 .2502594 .028808594 .33806864 .05110677 .4079895 .095703128 .46002198 .14029949 .51206466 .20019531 .53808596 .27539063 .53808596M.27246095 .5361328V.5361328Z"/>
<path id="font_2_15" d="M.24902344 .53222659C.29003907 .53222659 .32584635 .5220744 .3564453 .50177 .37304688 .49030558 .38997398 .4736023 .40722657 .45166017V.5185547H.48828126V.04234314C.48828126-.024154664 .47851563-.07663473 .45898438-.115097049 .42252604-.18615215 .35367839-.22167969 .2524414-.22167969 .1961263-.22167969 .14876302-.20906575 .11035156-.18383789 .0719401-.15861003 .05045573-.119140628 .045898439-.06542969H.1352539C.13948567-.08873495 .14794922-.10669454 .16064453-.11930847 .1805013-.13872783 .2117513-.1484375 .25439454-.1484375 .32177735-.1484375 .3658854-.12467448 .38671876-.07714844 .39908854-.04916382 .40478517 .0007985433 .4038086 .07273865 .38623048 .04588318 .36507163 .025904337 .34033204 .012802124 .31559245-.000289917 .2828776-.0068359377 .2421875-.0068359377 .18554688-.0068359377 .13598633 .013280232 .09350586 .053512575 .05102539 .09375509 .029785157 .16030376 .029785157 .25315858 .029785157 .34080506 .051188154 .40922547 .09399414 .4584198 .13680013 .5076243 .18847656 .53222659 .24902344 .53222659M.40722657 .26342774C.40722657 .328125 .39388023 .37607829 .3671875 .4072876 .34049479 .43849693 .30647788 .45410157 .26513673 .45410157 .20328777 .45410157 .16097005 .4251658 .1381836 .3672943 .12613933 .33641053 .12011719 .29593406 .12011719 .24586487 .12011719 .1870168 .13208008 .14223226 .15600586 .11151123 .17993164 .0807902 .21207683 .06542969 .2524414 .06542969 .31559245 .06542969 .36002604 .09387716 .3857422 .1507721 .4000651 .18295796 .40722657 .22050984 .40722657 .26342774M.25927735 .5361328V.5361328Z"/>
<path id="font_2_11" d="M.13183594 .1394043C.13183594 .114095058 .14111328 .09413656 .15966797 .07952881 .17822266 .06492106 .20019531 .057617189 .22558594 .057617189 .2565104 .057617189 .28645835 .06471761 .3154297 .07891846 .3642578 .10247803 .38867188 .14127605 .38867188 .1953125V.26611329C.3779297 .25886027 .36409507 .2528127 .34716798 .24797058 .33024089 .24313863 .3136393 .23983257 .29736329 .23805237L.24414063 .23184204C.21223958 .22799683 .1883138 .22153218 .17236328 .21244812 .14534505 .19718933 .13183594 .17284139 .13183594 .1394043M.34472657 .31689454C.36490885 .3194987 .37841798 .32796226 .3852539 .34228517 .38916017 .35012818 .39111329 .36140443 .39111329 .3761139 .39111329 .40618388 .38045249 .42799888 .35913087 .44155885 .33780924 .455129 .30729167 .46191407 .26757813 .46191407 .22167969 .46191407 .18912761 .44948326 .16992188 .42462159 .15917969 .4108785 .15218099 .39043174 .14892578 .36328126H.06689453C.06852213 .42791749 .08943685 .47288514 .12963867 .4981842 .1698405 .5234833 .21647136 .5361328 .26953126 .5361328 .3310547 .5361328 .38102214 .52441409 .4194336 .50097659 .45751954 .47753907 .4765625 .4410502 .4765625 .39151V.08985901C.4765625 .08073425 .47843424 .073404949 .48217774 .067871097 .48592124 .06233724 .4938151 .059570314 .5058594 .059570314 .5097656 .059570314 .51416018 .059814454 .51904299 .060302736 .5239258 .060791017 .5291341 .061523439 .53466799 .0625V-.0028076173C.5209961-.00676473 .5105794-.009236653 .50341799-.010223389 .4962565-.011220296 .48649089-.01171875 .4741211-.01171875 .44384767-.01171875 .421875-.0009104411 .40820313 .020706177 .40104167 .032170614 .3959961 .048380536 .3930664 .06933594 .37516276 .045633954 .34944663 .025060019 .31591798 .0076141359 .2823893-.009831746 .2454427-.018554688 .20507813-.018554688 .15657552-.018554688 .11694336-.0037790936 .08618164 .025772095 .055419923 .055323285 .040039064 .092300418 .040039064 .13670349 .040039064 .18535869 .05517578 .22307332 .08544922 .24984741 .115722659 .2766215 .1554362 .29311119 .20458985 .2993164L.34472657 .31689454M.27197267 .5361328V.5361328Z"/>
<path id="font_2_17" d="M.064453128 .5234375H.15136719V.44921876C.17220052 .4749349 .19108074 .49365235 .20800781 .5053711 .23697917 .52522787 .26985679 .53515627 .30664063 .53515627 .34830729 .53515627 .38183595 .52490237 .40722657 .50439456 .42154948 .49267579 .4345703 .4754232 .44628907 .45263673 .4658203 .4806315 .48876954 .5013835 .5151367 .5148926 .5415039 .5284017 .5711263 .53515627 .6040039 .53515627 .6743164 .53515627 .72216799 .5097402 .7475586 .45890809 .76123049 .43154399 .7680664 .3947296 .7680664 .34846498V0H.6767578V.36367799C.6767578 .39853923 .6680501 .42248536 .65063479 .43551637 .6332194 .44855754 .6119792 .45507813 .58691409 .45507813 .5524089 .45507813 .5227051 .44350688 .49780274 .42036439 .4729004 .39723207 .46044923 .35861717 .46044923 .30451966V0H.37109376V.3416748C.37109376 .37719728 .36686198 .4031016 .35839845 .41938783 .3450521 .4438324 .32014976 .4560547 .2836914 .4560547 .25048829 .4560547 .22029622 .44318138 .19311524 .4174347 .16593425 .3916982 .15234375 .34510295 .15234375 .27764894V0H.064453128V.5234375Z"/>
<path id="font_2_14" d="M.28222657 .53515627C.31933595 .53515627 .355306 .52644857 .39013673 .5090332 .42496745 .49161784 .4514974 .4690806 .46972657 .4414215 .4873047 .41505433 .49902345 .3842977 .5048828 .3491516 .5100911 .32506309 .5126953 .28647868 .5126953 .23339844H.12939453C.13102214 .18033855 .14355469 .13777669 .16699219 .10571289 .19042969 .073649089 .22672527 .057617189 .2758789 .057617189 .32177735 .057617189 .35839845 .07261658 .3857422 .10261536 .4013672 .12003072 .4124349 .14018758 .4189453 .16308594H.5053711C.50309249 .14398194 .49552409 .122690837 .48266603 .09921265 .46980796 .07574463 .45540367 .05656433 .43945313 .041671754 .4127604 .01576233 .37972007-.0017242432 .34033204-.010787964 .3191732-.01596578 .2952474-.018554688 .2685547-.018554688 .20345052-.018554688 .14827474 .0051472985 .103027347 .05255127 .05777995 .09995524 .03515625 .16634114 .03515625 .25170899 .03515625 .33576457 .057942708 .40401713 .103515628 .45646668 .14908855 .5089264 .20865886 .53515627 .28222657 .53515627M.42236329 .30371095C.41878257 .34191896 .41048179 .37245179 .39746095 .39530946 .3733724 .4377594 .33317057 .45898438 .27685548 .45898438 .23649089 .45898438 .20263672 .44437156 .17529297 .41514588 .14794922 .3859202 .13346355 .34877525 .13183594 .30371095H.42236329M.27392579 .5361328V.5361328Z"/>
<path id="font_2_16" d="M.064453128 .5205078H.1538086V0H.064453128V.5205078M.064453128 .71777346H.1538086V.61816409H.064453128V.71777346Z"/>
<path id="font_2_21" d="M.11669922 .1640625C.11930338 .13463338 .12662761 .11207072 .13867188 .09637451 .1608073 .06793213 .19921875 .053710939 .25390626 .053710939 .28645835 .053710939 .31510417 .060806276 .33984376 .07499695 .36458335 .08919779 .37695313 .11115011 .37695313 .14085388 .37695313 .16337586 .36702476 .18051148 .34716798 .19226074 .33447267 .19944255 .30940757 .20775859 .27197267 .21720886L.20214844 .2348175C.15755208 .24590557 .12467448 .25829569 .103515628 .27198792 .06575521 .29579164 .046875 .32873027 .046875 .37080384 .046875 .42036439 .064697269 .46046958 .1003418 .49111939 .13598633 .52177938 .18391927 .5371094 .24414063 .5371094 .32291667 .5371094 .37972007 .5139974 .41455079 .46777345 .4363607 .43847657 .4469401 .40690104 .44628907 .37304688H.36328126C.36165367 .39269004 .35465495 .41055808 .34228517 .426651 .32210288 .44950868 .28710938 .4609375 .23730469 .4609375 .20410156 .4609375 .17895508 .45461528 .16186524 .44197084 .14477539 .42933656 .13623047 .41264854 .13623047 .39190675 .13623047 .36922203 .14746094 .35107423 .16992188 .33746339 .1829427 .32936607 .20214844 .32221986 .22753906 .31602479L.28564454 .3018341C.34879557 .28650413 .39111329 .27166749 .41259767 .25732423 .44677735 .23482259 .4638672 .19944255 .4638672 .15118408 .4638672 .10455322 .44620768 .06428019 .41088868 .03036499 .37556968-.0035502117 .32177735-.020507813 .24951172-.020507813 .17171224-.020507813 .116617839-.002802531 .084228519 .032608034 .05183919 .06801859 .034505208 .111836757 .032226564 .1640625H.11669922M.24658203 .5361328V.5361328Z"/>
<path id="font_2_22" d="M.08203125 .66796877H.17089844V.5234375H.25439454V.4501953H.17089844V.110183719C.17089844 .09202576 .17708333 .07986959 .18945313 .07371521 .19628906 .07014465 .2076823 .068359378 .22363281 .068359378 .22786458 .068359378 .23242188 .06846619 .23730469 .06867981 .2421875 .0689036 .24788411 .06944784 .25439454 .0703125V0C.24430339-.0031026204 .23380535-.005340576 .22290039-.006713867 .21199544-.008097331 .20019531-.0087890629 .1875-.0087890629 .14648438-.0087890629 .118652347 .0016988119 .104003909 .02267456 .08935547 .04365031 .08203125 .070882167 .08203125 .10437012V.4501953H.011230469V.5234375H.08203125V.66796877Z"/>
<path id="font_3_1" d="M0 0Z"/>
<path id="font_1_13" d="M.49902345 0H.104003909V.059570314L.43701173 .52685549V.53027346H.1640625V.41015626C.1640625 .39989219 .16210938 .39260356 .15820313 .3882904 .15429688 .38398744 .1492513 .38183595 .1430664 .38183595 .13720703 .38183595 .13232422 .38398744 .12841797 .3882904 .12451172 .39260356 .122558597 .39989219 .122558597 .41015626V.57128909H.4765625V.5131836L.14355469 .045410158V.041015626H.4580078V.18359375C.4580078 .19385784 .45987956 .20114136 .46362306 .20544434 .46736656 .20975749 .47233073 .21191406 .47851563 .21191406 .48470054 .21191406 .4896647 .20975749 .4934082 .20544434 .4971517 .20114136 .49902345 .19385784 .49902345 .18359375V0Z"/>
<path id="font_1_10" d="M.20117188 .2763672V.041015626H.34179688C.3515625 .041015626 .3585612 .03914388 .36279298 .03540039 .36702476 .031656904 .36914063 .026692709 .36914063 .020507813 .36914063 .0146484379 .36702476 .009765625 .36279298 .005859375 .3585612 .001953125 .3515625 0 .34179688 0H.10498047C.095214847 0 .08821615 .001953125 .083984378 .005859375 .0797526 .009765625 .07763672 .0146484379 .07763672 .020507813 .07763672 .026692709 .0797526 .031656904 .083984378 .03540039 .08821615 .03914388 .095214847 .041015626 .10498047 .041015626H.16015625V.53027346H.10498047C.095214847 .53027346 .08821615 .5321452 .083984378 .5358887 .0797526 .53963217 .07763672 .5445964 .07763672 .55078127 .07763672 .5569661 .080078128 .5621745 .08496094 .56640627 .088541667 .56966146 .095214847 .57128909 .10498047 .57128909H.5566406V.4296875C.5566406 .41992188 .5546875 .4129232 .55078127 .4086914 .546875 .40445964 .5419922 .40234376 .5361328 .40234376 .52994796 .40234376 .52490237 .40445964 .5209961 .4086914 .51708987 .4129232 .5151367 .41992188 .5151367 .4296875V.53027346H.20117188V.3173828H.34814454V.3642578C.34814454 .37402345 .35009767 .38102214 .3540039 .3852539 .35791017 .3894857 .36295573 .39160157 .36914063 .39160157 .375 .39160157 .3798828 .3894857 .38378907 .3852539 .3876953 .38102214 .38964845 .37402345 .38964845 .3642578V.22949219C.38964845 .21972656 .3876953 .21272786 .38378907 .2084961 .3798828 .20426433 .375 .20214844 .36914063 .20214844 .36295573 .20214844 .35791017 .20426433 .3540039 .2084961 .35009767 .21272786 .34814454 .21972656 .34814454 .22949219V.2763672H.20117188Z"/>
<path id="font_1_12" d="M.44677735 .52983096V.5436554C.44677735 .55352279 .44864909 .56059268 .45239259 .5648651 .45613609 .56914779 .46110026 .57128909 .46728517 .57128909 .47347007 .57128909 .47843424 .56917318 .48217774 .5649414 .48592124 .56070968 .48779298 .55371096 .48779298 .5439453V.43945313C.48779298 .4296875 .48592124 .4226888 .48217774 .41845704 .47843424 .41422526 .47347007 .41210938 .46728517 .41210938 .46142579 .41210938 .45662437 .41405235 .45288087 .41793824 .44913737 .42183433 .44710288 .42816163 .44677735 .43692018 .44514976 .4641622 .43107096 .48864747 .40454103 .510376 .37801109 .5321045 .34326173 .54296877 .30029298 .54296877 .25504557 .54296877 .21907552 .5314026 .19238281 .50827029 .16569011 .4851481 .15234375 .457901 .15234375 .42652894 .15234375 .4103546 .15608724 .39563499 .16357422 .38237 .1710612 .3691152 .18098958 .35836283 .19335938 .35011292 .20572917 .341863 .21972656 .3352305 .23535156 .33021546 .25097657 .32521058 .27539063 .31995646 .30859376 .31445313 .3642578 .30532838 .40266929 .29603578 .42382813 .28657533 .45214845 .27385966 .47355143 .2562561 .4880371 .23376465 .50252279 .2112732 .5097656 .18470256 .5097656 .15405274 .5097656 .1071167 .4910482 .067103069 .45361329 .03401184 .41617839 .0009206136 .36572267-.015625 .3022461-.015625 .23095703-.015625 .17399089 .0066731774 .13134766 .05126953V.02760315C.13134766 .017745972 .1294759 .010681152 .12573242 .0064086916 .12198893 .0021362305 .11702474 0 .110839847 0 .10498047 0 .100097659 .0021209717 .096191409 .006362915 .092285159 .010604858 .09033203 .017623902 .09033203 .027420044V.14103699C.09033203 .15115865 .09220377 .15834046 .095947269 .1625824 .09969076 .16682434 .104654949 .16894531 .110839847 .16894531 .11669922 .16894531 .12150065 .16699219 .12524414 .16308594 .12898763 .15917969 .13102214 .15283203 .13134766 .14404297 .13297527 .114095058 .14900716 .08683268 .17944336 .06225586 .20987956 .037679037 .2508138 .025390625 .3022461 .025390625 .35367839 .025390625 .3942871 .0382487 .42407228 .063964847 .45385743 .08968099 .46875 .12011719 .46875 .15527344 .46875 .17675781 .46305339 .19588216 .45166017 .21264649 .44026695 .22941081 .42333985 .24267578 .4008789 .2524414 .3852539 .25927735 .3527018 .2669271 .30322267 .27539063 .2351888 .28674317 .18619792 .30410258 .15625 .32746888 .12630208 .35083518 .111328128 .38409934 .111328128 .42726136 .111328128 .47008769 .12849935 .50691226 .1628418 .537735 .19718425 .56856796 .24251302 .5839844 .29882813 .5839844 .35611979 .5839844 .4054362 .5659332 .44677735 .52983096Z"/>
<path id="font_1_11" d="M.55078127 .2841797C.55078127 .22958374 .53971359 .17896526 .5175781 .13232422 .49544273 .08569336 .46492515 .04937744 .4260254 .023376465 .38712565-.0026245118 .3453776-.015625 .30078126-.015625 .23470052-.015625 .17651367 .0124053959 .1262207 .06846619 .075927738 .12452698 .05078125 .19643148 .05078125 .2841797 .05078125 .37225343 .075927738 .4442393 .1262207 .5001373 .17651367 .55603536 .23470052 .5839844 .30078126 .5839844 .3453776 .5839844 .38704429 .5709839 .42578126 .5449829 .46451823 .51898196 .4950358 .4827423 .517334 .43626405 .53963217 .38979594 .55078127 .33910118 .55078127 .2841797M.50927737 .2841797C.50927737 .3507894 .48990885 .41057334 .45117188 .4635315 .4124349 .5164897 .3623047 .54296877 .30078126 .54296877 .24316406 .54296877 .19392903 .51770529 .15307617 .46717835 .112223308 .4166616 .091796878 .35566203 .091796878 .2841797 .091796878 .20815023 .11319987 .14601135 .15600586 .09776306 .19881185 .04951477 .24707031 .025390625 .30078126 .025390625 .3623047 .025390625 .4124349 .05178833 .45117188 .10458374 .48990885 .15737915 .50927737 .21724446 .50927737 .2841797Z"/>
<path id="font_2_3" d="M.37841798 .7373047C.46923829 .7373047 .53971359 .71332809 .58984377 .66537478 .63997396 .61742147 .66780599 .5629476 .67333987 .5019531H.5786133C.5678711 .54817709 .5464681 .58479818 .5144043 .6118164 .48234049 .63883468 .43733726 .65234377 .37939454 .65234377 .3087565 .65234377 .25170899 .62754318 .20825196 .5779419 .16479492 .52834066 .1430664 .45231629 .1430664 .34986878 .1430664 .26594544 .16267903 .19788106 .2019043 .14567566 .24112956 .09348043 .29964195 .06738281 .3774414 .06738281 .449056 .06738281 .50358077 .094823207 .5410156 .14970398 .5608724 .17860413 .5756836 .21659343 .5854492 .26367188H.6801758C.6717122 .18815105 .64371749 .12483724 .5961914 .07373047 .5392253 .012207031 .46240235-.018554688 .36572267-.018554688 .2823893-.018554688 .21240235 .006688436 .15576172 .057174684 .081217449 .12394714 .043945314 .2270406 .043945314 .36645509 .043945314 .47232057 .0719401 .5591278 .12792969 .62687686 .18847656 .7004954 .27197267 .7373047 .37841798 .7373047M.35888673 .7373047V.7373047Z"/>
<path id="font_2_18" d="M.064453128 .5234375H.14794922V.44921876C.1726888 .47981773 .19889324 .50179037 .2265625 .5151367 .25423179 .5284831 .2849935 .53515627 .31884767 .53515627 .3930664 .53515627 .44319663 .5092519 .46923829 .45744325 .4835612 .42910258 .49072267 .38853965 .49072267 .3357544V0H.4013672V.3299408C.4013672 .36188255 .39664714 .38762919 .38720704 .4071808 .37158204 .4397634 .34326173 .4560547 .3022461 .4560547 .28141276 .4560547 .2643229 .4539388 .25097657 .44970704 .22688802 .4425354 .20572917 .42819724 .1875 .4066925 .17285156 .38941957 .16333008 .37157694 .15893555 .35316468 .15454102 .3347524 .15234375 .30844117 .15234375 .27423097V0H.064453128V.5234375M.2709961 .5361328V.5361328Z"/>
<path id="font_2_13" d="M.12011719 .2553711C.12011719 .19923909 .1319987 .15224712 .15576172 .11439514 .17952474 .076543178 .21761067 .057617189 .27001954 .057617189 .31070964 .057617189 .3441569 .075154628 .37036134 .11022949 .39656578 .14531453 .40966798 .19565328 .40966798 .26124574 .40966798 .32748924 .39615885 .37651573 .36914063 .4083252 .3421224 .44014488 .3087565 .4560547 .26904298 .4560547 .22477214 .4560547 .18888347 .4390869 .16137696 .40515138 .13387044 .37121583 .12011719 .32128907 .12011719 .2553711M.2524414 .53222659C.29248048 .53222659 .32600913 .52381899 .35302735 .5070038 .36865235 .4972992 .38639323 .48031617 .40625 .4560547V.71875H.49072267V0H.4116211V.07229614C.39111329 .04023234 .36686198 .017074585 .3388672 .002822876 .3108724-.011428833 .2788086-.018554688 .24267578-.018554688 .18440755-.018554688 .13395183 .0059407555 .091308597 .05493164 .048665365 .10392252 .02734375 .16910808 .02734375 .25048829 .02734375 .32666017 .04679362 .39265953 .08569336 .44848634 .1245931 .5043132 .18017578 .53222659 .2524414 .53222659Z"/>
<path id="font_2_12" d="M.26611329 .53808596C.32503257 .53808596 .37296549 .5237274 .4099121 .49501039 .44685874 .46629334 .46907554 .41684977 .4765625 .3466797H.39111329C.38590495 .37890626 .37402345 .40568034 .35546876 .42700196 .33691407 .44832359 .3071289 .45898438 .26611329 .45898438 .2101237 .45898438 .17008464 .43170677 .1459961 .3771515 .1303711 .34176127 .122558597 .29808555 .122558597 .24612427 .122558597 .19384766 .1336263 .14984639 .15576172 .11412048 .17789714 .07840475 .21272786 .060546876 .2602539 .060546876 .29671226 .060546876 .3256022 .0716095 .34692384 .09373474 .36824546 .115859989 .38297526 .1461385 .39111329 .18457031H.4765625C.46679688 .115234378 .4423828 .06453451 .4033203 .032470704 .3642578 .00040690104 .31429038-.015625 .25341798-.015625 .1850586-.015625 .13053386 .009379069 .08984375 .059387208 .049153646 .10940552 .028808594 .17188008 .028808594 .24681092 .028808594 .33868919 .05110677 .41020204 .095703128 .4613495 .14029949 .51250717 .19710286 .53808596 .26611329 .53808596M.2524414 .5361328V.5361328Z"/>
<path id="font_2_4" d="M.3515625 .08300781C.3844401 .08300781 .41145835 .08642578 .4326172 .09326172 .4703776 .10595703 .50130209 .1303711 .5253906 .1665039 .5445964 .19547527 .55843099 .23258464 .56689456 .27783204 .57177737 .30485026 .57421877 .32991538 .57421877 .35302735 .57421877 .44189454 .55655929 .51090499 .52124026 .5600586 .48592124 .6092122 .42903648 .63378909 .35058595 .63378909H.17822266V.08300781H.3515625M.080566409 .71777346H.37109376C.46972657 .71777346 .54622396 .6827545 .60058596 .6127167 .64908859 .54952499 .67333987 .46857707 .67333987 .36987306 .67333987 .2936503 .6590169 .22475688 .6303711 .16319275 .57991537 .054397584 .49316407 0 .3701172 0H.080566409V.71777346Z"/>
<path id="font_2_7" d="M.07373047 .71777346H.21289063L.4189453 .11091614 .62353518 .71777346H.76123049V0H.6689453V.42362977C.6689453 .43828837 .6692708 .46255494 .6699219 .49642945 .67057296 .53030398 .67089846 .56662496 .67089846 .60539248L.4663086 0H.3701172L.1640625 .60539248V.58340457C.1640625 .5658162 .1644694 .5390218 .1652832 .50302127 .166097 .46703086 .1665039 .44056703 .1665039 .42362977V0H.07373047V.71777346Z"/>
<path id="font_2_5" d="M.08544922 .71777346H.60839846V.6298828H.18017578V.41210938H.5761719V.32910157H.18017578V.0859375H.61572268V0H.08544922V.71777346M.35058595 .71777346V.71777346Z"/>
<path id="font_2_24" d="M.39111329 .5234375H.48828126C.47591148 .48987834 .44840495 .41330973 .40576173 .2937317 .3738607 .20380657 .34716798 .13049825 .3256836 .07380676 .27490235-.059921266 .23909505-.14145915 .21826172-.17080689 .19742839-.2001648 .1616211-.21484375 .110839847-.21484375 .098470058-.21484375 .08894857-.21435039 .08227539-.21336365 .07560221-.21238709 .06738281-.21058655 .057617189-.20796204V-.1274414C.072916667-.13167317 .083984378-.13427735 .09082031-.1352539 .09765625-.13623047 .10367838-.13671875 .10888672-.13671875 .12516277-.13671875 .13712566-.1340332 .14477539-.12866211 .15242513-.123291019 .15885417-.11669922 .1640625-.10888672 .16569011-.106282558 .17154949-.092936199 .18164063-.068847659 .19173177-.044759115 .19905599-.026855469 .20361328-.015136719L.010253906 .5234375H.10986328L.25 .09727478 .39111329 .5234375M.24951172 .5361328V.5361328Z"/>
<path id="font_2_10" d="M.13964844 .23144531C.14192708 .19064331 .15152996 .1575063 .16845703 .1320343 .2006836 .084376018 .25748698 .060546876 .3388672 .060546876 .37532554 .060546876 .40852867 .06575521 .43847657 .076171878 .49641929 .096354167 .5253906 .13248189 .5253906 .18455506 .5253906 .22361756 .5131836 .25144959 .48876954 .26805116 .46402995 .2843882 .42529298 .29859925 .3725586 .3106842L.27539063 .3327484C.21191406 .3471222 .16699219 .36294047 .140625 .38020326 .095052089 .41016136 .072265628 .4549408 .072265628 .5145416 .072265628 .57902529 .094563808 .6319478 .13916016 .6733093 .18375652 .71467086 .24690755 .73535159 .32861329 .73535159 .4038086 .73535159 .46769206 .7172038 .5202637 .6809082 .57283529 .6446126 .5991211 .58658859 .5991211 .50683596H.5078125C.5029297 .5452474 .49251304 .57470706 .4765625 .59521487 .4469401 .6326497 .39664714 .6513672 .3256836 .6513672 .26839195 .6513672 .22721355 .63931277 .20214844 .61520388 .17708333 .591095 .16455078 .56307479 .16455078 .5311432 .16455078 .49595643 .17919922 .47021995 .2084961 .45393373 .22770183 .44350688 .27115885 .43047587 .3388672 .4148407L.43945313 .39187623C.48795573 .38079835 .5253906 .36565147 .5517578 .34643556 .59733077 .31288658 .6201172 .26419068 .6201172 .2003479 .6201172 .12085978 .59122726 .06401571 .53344729 .029815674 .47566734-.004384359 .40852867-.021484375 .33203126-.021484375 .24283855-.021484375 .17301433 .0013478597 .122558597 .04701233 .07210287 .0923411 .04736328 .15381877 .048339845 .23144531H.13964844M.3359375 .7373047V.7373047Z"/>
<path id="font_2_23" d="M.15234375 .5234375V.17590332C.15234375 .1491801 .15657552 .12734477 .16503906 .11039734 .18066406 .07911682 .20979817 .06347656 .2524414 .06347656 .3136393 .06347656 .355306 .09085083 .3774414 .14559937 .3894857 .17492676 .3955078 .21516927 .3955078 .2663269V.5234375H.48339845V0H.40039063L.4013672 .0771637C.38997398 .057195028 .3758138 .040339155 .35888673 .02659607 .32535807-.00090026858 .28466798-.0146484379 .2368164-.0146484379 .16227214-.0146484379 .11149088 .010299683 .084472659 .060195924 .06982422 .08693949 .0625 .12265015 .0625 .16732788V.5234375H.15234375M.27294923 .5361328V.5361328Z"/>
<path id="font_1_8" d="M.38427735 .3181305C.41845704 .30150859 .44425456 .27959696 .46166993 .25239564 .4790853 .22519429 .48779298 .19595845 .48779298 .16468811 .48779298 .11614481 .4695638 .07411703 .43310548 .038604738 .39664714 .0031026204 .3523763-.0146484379 .30029298-.0146484379 .24820964-.0146484379 .2039388 .0031026204 .16748047 .038604738 .13102214 .07411703 .11279297 .11614481 .11279297 .16468811 .11279297 .19563294 .12150065 .22470601 .13891602 .25190736 .15633138 .27910868 .18229167 .30118308 .21679688 .3181305 .18684896 .33539329 .16503906 .3533071 .15136719 .37187196 .13248699 .3982595 .123046878 .42741905 .123046878 .4593506 .123046878 .504303 .14038086 .5436351 .17504883 .5773468 .2097168 .6110687 .25146485 .6279297 .30029298 .6279297 .34944663 .6279297 .39127604 .6110687 .42578126 .5773468 .46028648 .5436351 .47753907 .504303 .47753907 .4593506 .47753907 .42741905 .46809898 .39842225 .44921876 .37236024 .4358724 .35346986 .41422526 .33539329 .38427735 .3181305M.43554688 .4582367C.43554688 .49346415 .42244468 .5237172 .39624024 .548996 .3700358 .5742747 .33789063 .58691409 .2998047 .58691409 .26204429 .58691409 .23006185 .5741933 .20385742 .54875186 .177653 .52331039 .16455078 .4933014 .16455078 .45872499 .16455078 .4267629 .17749024 .39879356 .20336914 .3748169 .22924805 .35085044 .26139323 .3388672 .2998047 .3388672 .33854167 .3388672 .3708496 .35085044 .39672853 .3748169 .42260743 .39879356 .43554688 .42660014 .43554688 .4582367M.44677735 .16357422C.44677735 .19970703 .43277995 .2311198 .40478517 .2578125 .37679038 .28450523 .34195964 .29785157 .30029298 .29785157 .2586263 .29785157 .22379558 .28450523 .19580078 .2578125 .16780599 .2311198 .1538086 .1998698 .1538086 .1640625 .1538086 .12695313 .16788738 .09472656 .19604492 .06738281 .22420247 .040039064 .2589518 .026367188 .30029298 .026367188 .34163413 .026367188 .37638346 .040039064 .40454103 .06738281 .43269859 .09472656 .44677735 .12679036 .44677735 .16357422Z"/>
<path id="font_1_9" d="M.46826173 .34765626C.44710288 .3100586 .4219564 .28177897 .39282228 .26281739 .36368815 .24385579 .33382163 .234375 .30322267 .234375 .27490235 .234375 .24747722 .24251302 .22094727 .25878907 .19441732 .2750651 .17333985 .29890953 .15771485 .33032228 .14208985 .36173503 .13427735 .394694 .13427735 .42919923 .13427735 .47932945 .14982097 .5249837 .1809082 .5661621 .21199544 .6073405 .25358073 .6279297 .30566407 .6279297 .34277345 .6279297 .3766276 .6163635 .40722657 .5932312 .43782554 .57010909 .46158854 .536555 .47851563 .49256898 .5003255 .43621318 .51123049 .37073265 .51123049 .29612733 .51123049 .23814392 .5019531 .18993123 .48339845 .15148926 .47102867 .12542725 .45288087 .10017904 .42895509 .07574463 .4050293 .051320394 .37809245 .03145345 .34814454 .016143799 .3071289-.004384359 .2644857-.0146484379 .22021485-.0146484379 .19091797-.0146484379 .16699219-.009114583 .1484375 .001953125 .13997396 .0071614587 .13574219 .013671875 .13574219 .021484375 .13574219 .027018229 .13769531 .031656904 .14160156 .03540039 .14550781 .03914388 .15022786 .041015626 .15576172 .041015626 .15966797 .041015626 .16536458 .03922526 .17285156 .03564453 .18554688 .029459635 .20019531 .026367188 .21679688 .026367188 .2861328 .026367188 .34570313 .051427206 .3955078 .10154724 .4453125 .15166728 .47021485 .21443685 .47021485 .28985597 .47021485 .3035787 .4695638 .32284547 .46826173 .34765626M.46044923 .41574098C.44319663 .4819336 .4217936 .52700808 .39624024 .55096438 .37068687 .57493087 .3408203 .58691409 .30664063 .58691409 .2718099 .58691409 .24121094 .5722402 .21484375 .54289248 .18847656 .5135549 .17529297 .47590129 .17529297 .42993165 .17529297 .38526408 .18847656 .3483378 .21484375 .31915284 .24121094 .28997804 .2709961 .27539063 .30419923 .27539063 .32340495 .27539063 .34236656 .28060404 .36108399 .29103089 .37980143 .3014679 .39746095 .31711833 .4140625 .33798219 .4248047 .3520101 .44026695 .3779297 .46044923 .41574098Z"/>
<path id="font_1_4" d="M.3203125 .62109377V.041015626H.4609375C.47070313 .041015626 .4777018 .03914388 .4819336 .03540039 .48616538 .031656904 .48828126 .026692709 .48828126 .020507813 .48828126 .0146484379 .48616538 .009765625 .4819336 .005859375 .4777018 .001953125 .47070313 0 .4609375 0H.13867188C.12890625 0 .121907558 .001953125 .11767578 .005859375 .11344401 .009765625 .111328128 .0146484379 .111328128 .020507813 .111328128 .026692709 .11344401 .031656904 .11767578 .03540039 .121907558 .03914388 .12890625 .041015626 .13867188 .041015626H.27929688V.5644531L.14550781 .52246096C.13899739 .5205078 .13427735 .51953127 .13134766 .51953127 .12646485 .51953127 .12198893 .52156576 .11791992 .52563479 .113850917 .5297038 .111816409 .5345052 .111816409 .54003909 .111816409 .5449219 .11344401 .5494792 .11669922 .55371096 .11930338 .5563151 .12467448 .55908206 .1328125 .5620117L.3203125 .62109377Z"/>
<path id="font_1_3" d="M.48828126 .3572235V.25556947C.48828126 .16729228 .46728517 .0974172 .42529298 .045944215 .39241538 .005549113 .35091148-.0146484379 .30078126-.0146484379 .27669273-.0146484379 .25398765-.009841919 .23266602-.00022888184 .2113444 .009373982 .19319661 .02281189 .17822266 .04008484 .16878255 .0508372 .15844727 .068099979 .1472168 .09187317 .13598633 .11565653 .12792969 .13748677 .123046878 .15736389 .1155599 .18537903 .111816409 .21811421 .111816409 .25556947V.3572235C.111816409 .4458262 .1328125 .5158641 .17480469 .56733706 .2076823 .6077321 .2491862 .6279297 .2993164 .6279297 .32373048 .6279297 .34651695 .62312319 .36767579 .61351016 .38883464 .6039073 .40690104 .59046939 .421875 .5731964 .43164063 .56211856 .44205729 .5446879 .453125 .52090457 .46419273 .49713136 .47233073 .47546897 .47753907 .45591737 .48470054 .42790223 .48828126 .39500428 .48828126 .3572235M.44726563 .3517151C.44726563 .39048258 .44181315 .42655946 .4309082 .45994569 .42000328 .49334208 .40771485 .519989 .39404298 .5398865 .38590495 .55130007 .37532554 .5611623 .3623047 .56947329 .34375 .58110049 .32291667 .58691409 .2998047 .58691409 .25390626 .58653768 .2179362 .5628662 .19189453 .51589968 .16585286 .46894328 .15283203 .41419984 .15283203 .3516693V.26130677C.15283203 .22254944 .1582845 .18639629 .16918946 .15284729 .1800944 .11930847 .19254558 .09261068 .20654297 .072753909 .21435547 .0616862 .22477214 .052083333 .23779297 .043945314 .25634767 .032226564 .27734376 .026367188 .30078126 .026367188 .34635417 .026367188 .38216148 .049886068 .40820313 .09692383 .43424479 .1439616 .44726563 .1987559 .44726563 .26130677V.3517151Z"/>
<path id="font_1_5" d="M.123535159 .041015626H.43847657V.057617189C.43847657 .06738281 .4404297 .07438151 .44433595 .07861328 .4482422 .082845058 .45328776 .08496094 .45947267 .08496094 .46533204 .08496094 .47021485 .082845058 .4741211 .07861328 .47802735 .07438151 .47998048 .06738281 .47998048 .057617189V0H.083496097V.061523439C.16682942 .13639324 .24788411 .21256511 .32666017 .29003907 .363444 .32617188 .38867188 .3527018 .40234376 .3696289 .41601563 .386556 .42537437 .40144859 .43041993 .41430665 .43546549 .4271647 .43798829 .44010417 .43798829 .453125 .43798829 .48828126 .42382813 .51936849 .3955078 .5463867 .3671875 .57340499 .3330078 .58691409 .29296876 .58691409 .25716148 .58691409 .22542317 .5765788 .1977539 .5559082 .17008464 .5352478 .15218099 .5096639 .14404297 .4791565 .14208985 .47128297 .13964844 .4661967 .13671875 .4638977 .1328125 .46062217 .1282552 .45898438 .123046878 .45898438 .11751302 .45898438 .11287435 .4608612 .10913086 .46461488 .10538737 .46836854 .103515628 .4728597 .103515628 .47808839 .103515628 .49375407 .11206055 .5149689 .12915039 .5417328 .14624024 .5685069 .1698405 .589564 .19995117 .6049042 .23006185 .6202545 .26090495 .6279297 .29248048 .6279297 .34358726 .6279297 .38753257 .6101735 .4243164 .57466128 .46110026 .539149 .4794922 .49891664 .4794922 .45396424 .4794922 .4350637 .47639976 .41770936 .47021485 .40190126 .46402995 .3861033 .4535319 .36883546 .4387207 .35009767 .42390953 .33137004 .3972982 .30311076 .35888673 .26531983 .26253257 .17018636 .18408203 .09639486 .123535159 .043945314V.041015626Z"/>
<path id="font_1_6" d="M.38427735 .33319093C.42203776 .31627403 .45084635 .29310099 .47070313 .26367188 .4905599 .23424275 .5004883 .20358785 .5004883 .17170716 .5004883 .12260437 .48055015 .07926941 .44067384 .04170227 .40079753 .004135132 .35091148-.0146484379 .29101563-.0146484379 .25585938-.0146484379 .21940105-.0071614587 .18164063 .0078125 .1438802 .022786459 .11751302 .038085939 .10253906 .053710939 .09765625 .05891927 .095214847 .064453128 .095214847 .0703125 .095214847 .075520839 .097086589 .080078128 .10083008 .083984378 .10457357 .087890628 .10904948 .08984375 .11425781 .08984375 .11946615 .08984375 .12532552 .087402347 .13183594 .08251953 .18229167 .045084638 .23567708 .026367188 .2919922 .026367188 .33951823 .026367188 .37931315 .041234334 .41137696 .07096863 .44344078 .10070292 .45947267 .13376872 .45947267 .17016602 .45947267 .19453939 .45157878 .21842449 .43579103 .24182129 .42000328 .2652181 .3972982 .2836609 .36767579 .29714967 .33805339 .31063844 .30810548 .3173828 .27783204 .3173828 .2680664 .3173828 .26106773 .3192749 .25683595 .32305909 .25260417 .32685343 .25048829 .33187867 .25048829 .33813478 .25048829 .34406535 .2525228 .34900413 .2565918 .35295106 .2606608 .35690818 .2667643 .35888673 .27490235 .35888673L.3100586 .35839845C.34684245 .35839845 .37719728 .36964927 .40112306 .39215089 .42504884 .4146627 .43701173 .44076539 .43701173 .47045899 .43701173 .50111898 .42447917 .5281932 .39941407 .5516815 .37434898 .57516989 .34163413 .58691409 .30126954 .58691409 .27294923 .58691409 .24690755 .58199569 .22314453 .5721588 .19938152 .56232199 .18033855 .54887899 .16601563 .53182986 .1608073 .52527877 .15681966 .5212657 .15405274 .51979067 .15128581 .5183156 .14811199 .5175781 .14453125 .5175781 .13899739 .5175781 .13427735 .51945498 .1303711 .5232086 .12646485 .5269725 .12451172 .5314738 .12451172 .53671267 .12451172 .54978439 .13867188 .5662944 .16699219 .5862427 .2063802 .614034 .2511393 .6279297 .30126954 .6279297 .35302735 .6279297 .3955078 .6123454 .42871095 .58117678 .46191407 .5500081 .47851563 .5128784 .47851563 .4697876 .47851563 .44237266 .47054038 .41642253 .45458985 .39193727 .4386393 .36746217 .4152018 .34788005 .38427735 .33319093Z"/>
<path id="font_1_7" d="M.37646485 .171875H.10449219V.21925354L.33251954 .61328127H.41796876V.21289063H.45214845C.4622396 .21289063 .46940104 .21101888 .4736328 .20727539 .4778646 .2035319 .47998048 .1985677 .47998048 .19238281 .47998048 .18652344 .4778646 .18164063 .4736328 .17773438 .46940104 .17382813 .4622396 .171875 .45214845 .171875H.41796876V.041015626H.45214845C.4622396 .041015626 .46940104 .03914388 .4736328 .03540039 .4778646 .031656904 .47998048 .026692709 .47998048 .020507813 .47998048 .0146484379 .4778646 .009765625 .4736328 .005859375 .46940104 .001953125 .4622396 0 .45214845 0H.2998047C.28971354 0 .2825521 .001953125 .2783203 .005859375 .27408854 .009765625 .27197267 .0146484379 .27197267 .020507813 .27197267 .026692709 .27408854 .031656904 .2783203 .03540039 .2825521 .03914388 .28971354 .041015626 .2998047 .041015626H.37646485V.171875M.37646485 .21289063V.5722656H.35498048L.14746094 .21289063H.37646485Z"/>
</defs>
<g clip-path="url(#clip_0)">
<path transform="matrix(1,0,0,-1,-367.04,561.265)" d="M36 36H756V576H36Z" fill="#ffffff"/>
<path transform="matrix(1,0,0,-1,-367.04,561.265)" d="M372 534H438V516H372Z" fill="#ffffff" fill-rule="evenodd"/>
<path transform="matrix(1,0,0,-1,4.9599,27.265198)" stroke-width="1" stroke-linecap="butt" stroke-miterlimit="8" stroke-linejoin="miter" fill="none" stroke="#000000" d="M0 0H66V-18H0Z"/>
<use data-text="%" xlink:href="#font_1_2" transform="matrix(12,0,0,-12,23.160004,41.065004)"/>
<use data-text="r" xlink:href="#font_1_20" transform="matrix(12,0,0,-12,30.360016,41.065004)"/>
<use data-text="a" xlink:href="#font_1_14" transform="matrix(12,0,0,-12,37.560029,41.065004)"/>
<use data-text="x" xlink:href="#font_1_22" transform="matrix(12,0,0,-12,44.76004,41.065004)"/>
<use data-text=" " xlink:href="#font_1_1" transform="matrix(12,0,0,-12,51.960054,41.065004)"/>
<path transform="matrix(1,0,0,-1,-367.04,561.265)" d="M372 516H438V498H372Z" fill="#ffffff" fill-rule="evenodd"/>
<path transform="matrix(1,0,0,-1,4.9599,45.265199)" stroke-width="1" stroke-linecap="butt" stroke-miterlimit="8" stroke-linejoin="miter" fill="none" stroke="#000000" d="M0 0H66V-18H0Z"/>
<use data-text="%" xlink:href="#font_1_2" transform="matrix(12,0,0,-12,23.160004,59.065004)"/>
<use data-text="r" xlink:href="#font_1_20" transform="matrix(12,0,0,-12,30.360016,59.065004)"/>
<use data-text="c" xlink:href="#font_1_16" transform="matrix(12,0,0,-12,37.560029,59.065004)"/>
<use data-text="x" xlink:href="#font_1_22" transform="matrix(12,0,0,-12,44.76004,59.065004)"/>
<use data-text=" " xlink:href="#font_1_1" transform="matrix(12,0,0,-12,51.960054,59.065004)"/>
<path transform="matrix(1,0,0,-1,-367.04,561.265)" d="M372 498H438V480H372Z" fill="#ffffff" fill-rule="evenodd"/>
<path transform="matrix(1,0,0,-1,4.9599,63.265108)" stroke-width="1" stroke-linecap="butt" stroke-miterlimit="8" stroke-linejoin="miter" fill="none" stroke="#000000" d="M0 0H66V-18H0Z"/>
<use data-text="%" xlink:href="#font_1_2" transform="matrix(12,0,0,-12,23.160004,77.065)"/>
<use data-text="r" xlink:href="#font_1_20" transform="matrix(12,0,0,-12,30.360016,77.065)"/>
<use data-text="d" xlink:href="#font_1_17" transform="matrix(12,0,0,-12,37.560029,77.065)"/>
<use data-text="x" xlink:href="#font_1_22" transform="matrix(12,0,0,-12,44.76004,77.065)"/>
<use data-text=" " xlink:href="#font_1_1" transform="matrix(12,0,0,-12,51.960054,77.065)"/>
<path transform="matrix(1,0,0,-1,-367.04,561.265)" d="M372 480H438V462H372Z" fill="#ffffff" fill-rule="evenodd"/>
<path transform="matrix(1,0,0,-1,4.9599,81.26511)" stroke-width="1" stroke-linecap="butt" stroke-miterlimit="8" stroke-linejoin="miter" fill="none" stroke="#000000" d="M0 0H66V-18H0Z"/>
<use data-text="%" xlink:href="#font_1_2" transform="matrix(12,0,0,-12,23.160004,95.065)"/>
<use data-text="r" xlink:href="#font_1_20" transform="matrix(12,0,0,-12,30.360016,95.065)"/>
<use data-text="b" xlink:href="#font_1_15" transform="matrix(12,0,0,-12,37.560029,95.065)"/>
<use data-text="x" xlink:href="#font_1_22" transform="matrix(12,0,0,-12,44.76004,95.065)"/>
<use data-text=" " xlink:href="#font_1_1" transform="matrix(12,0,0,-12,51.960054,95.065)"/>
<path transform="matrix(1,0,0,-1,-367.04,561.265)" d="M438 534H504V516H438Z" fill="#ffffff" fill-rule="evenodd"/>
<path transform="matrix(1,0,0,-1,70.95999,27.265198)" stroke-width="1" stroke-linecap="butt" stroke-miterlimit="8" stroke-linejoin="miter" fill="none" stroke="#000000" d="M0 0H66V-18H0Z"/>
<use data-text="%" xlink:href="#font_1_2" transform="matrix(12,0,0,-12,89.16,41.065004)"/>
<use data-text="r" xlink:href="#font_1_20" transform="matrix(12,0,0,-12,96.360019,41.065004)"/>
<use data-text="s" xlink:href="#font_1_21" transform="matrix(12,0,0,-12,103.56003,41.065004)"/>
<use data-text="p" xlink:href="#font_1_19" transform="matrix(12,0,0,-12,110.76004,41.065004)"/>
<use data-text=" " xlink:href="#font_1_1" transform="matrix(12,0,0,-12,117.96005,41.065004)"/>
<path transform="matrix(1,0,0,-1,-367.04,561.265)" d="M438 516H504V498H438Z" fill="#ffffff" fill-rule="evenodd"/>
<path transform="matrix(1,0,0,-1,70.95999,45.265199)" stroke-width="1" stroke-linecap="butt" stroke-miterlimit="8" stroke-linejoin="miter" fill="none" stroke="#000000" d="M0 0H66V-18H0Z"/>
<use data-text="%" xlink:href="#font_1_2" transform="matrix(12,0,0,-12,89.16,59.065004)"/>
<use data-text="r" xlink:href="#font_1_20" transform="matrix(12,0,0,-12,96.360019,59.065004)"/>
<use data-text="b" xlink:href="#font_1_15" transform="matrix(12,0,0,-12,103.56003,59.065004)"/>
<use data-text="p" xlink:href="#font_1_19" transform="matrix(12,0,0,-12,110.76004,59.065004)"/>
<use data-text=" " xlink:href="#font_1_1" transform="matrix(12,0,0,-12,117.96005,59.065004)"/>
<path transform="matrix(1,0,0,-1,-367.04,561.265)" d="M438 498H504V480H438Z" fill="#ffffff" fill-rule="evenodd"/>
<path transform="matrix(1,0,0,-1,70.95999,63.265108)" stroke-width="1" stroke-linecap="butt" stroke-miterlimit="8" stroke-linejoin="miter" fill="none" stroke="#000000" d="M0 0H66V-18H0Z"/>
<use data-text="%" xlink:href="#font_1_2" transform="matrix(12,0,0,-12,89.16,77.065)"/>
<use data-text="r" xlink:href="#font_1_20" transform="matrix(12,0,0,-12,96.360019,77.065)"/>
<use data-text="s" xlink:href="#font_1_21" transform="matrix(12,0,0,-12,103.56003,77.065)"/>
<use data-text="i" xlink:href="#font_1_18" transform="matrix(12,0,0,-12,110.76004,77.065)"/>
<use data-text=" " xlink:href="#font_1_1" transform="matrix(12,0,0,-12,117.96005,77.065)"/>
<path transform="matrix(1,0,0,-1,-367.04,561.265)" d="M438 480H504V462H438Z" fill="#ffffff" fill-rule="evenodd"/>
<path transform="matrix(1,0,0,-1,70.95999,81.26511)" stroke-width="1" stroke-linecap="butt" stroke-miterlimit="8" stroke-linejoin="miter" fill="none" stroke="#000000" d="M0 0H66V-18H0Z"/>
<use data-text="%" xlink:href="#font_1_2" transform="matrix(12,0,0,-12,89.16,95.065)"/>
<use data-text="r" xlink:href="#font_1_20" transform="matrix(12,0,0,-12,96.360019,95.065)"/>
<use data-text="d" xlink:href="#font_1_17" transform="matrix(12,0,0,-12,103.56003,95.065)"/>
<use data-text="i" xlink:href="#font_1_18" transform="matrix(12,0,0,-12,110.76004,95.065)"/>
<use data-text=" " xlink:href="#font_1_1" transform="matrix(12,0,0,-12,117.96005,95.065)"/>
<use data-text="R" xlink:href="#font_2_9" transform="matrix(12,0,0,-12,78.14401,18.86499)"/>
<use data-text="F" xlink:href="#font_2_6" transform="matrix(12,0,0,-12,86.808017,18.86499)"/>
<use data-text=":" xlink:href="#font_2_2" transform="matrix(12,0,0,-12,94.140018,18.86499)"/>
<use data-text=" " xlink:href="#font_2_1" transform="matrix(12,0,0,-12,97.47601,18.86499)"/>
<use data-text="P" xlink:href="#font_2_8" transform="matrix(12,0,0,-12,100.81201,18.86499)"/>
<use data-text="r" xlink:href="#font_2_20" transform="matrix(12,0,0,-12,108.81601,18.86499)"/>
<use data-text="o" xlink:href="#font_2_19" transform="matrix(12,0,0,-12,112.81201,18.86499)"/>
<use data-text="g" xlink:href="#font_2_15" transform="matrix(12,0,0,-12,119.48401,18.86499)"/>
<use data-text="r" xlink:href="#font_2_20" transform="matrix(12,0,0,-12,126.156009,18.86499)"/>
<use data-text="a" xlink:href="#font_2_11" transform="matrix(12,0,0,-12,130.15201,18.86499)"/>
<use data-text="m" xlink:href="#font_2_17" transform="matrix(12,0,0,-12,136.824,18.86499)"/>
<use data-text=" " xlink:href="#font_2_1" transform="matrix(12,0,0,-12,146.81998,18.86499)"/>
<use data-text="r" xlink:href="#font_2_20" transform="matrix(12,0,0,-12,150.15598,18.86499)"/>
<use data-text="e" xlink:href="#font_2_14" transform="matrix(12,0,0,-12,154.15195,18.86499)"/>
<use data-text="g" xlink:href="#font_2_15" transform="matrix(12,0,0,-12,160.82395,18.86499)"/>
<use data-text="i" xlink:href="#font_2_16" transform="matrix(12,0,0,-12,167.49594,18.86499)"/>
<use data-text="s" xlink:href="#font_2_21" transform="matrix(12,0,0,-12,170.15995,18.86499)"/>
<use data-text="t" xlink:href="#font_2_22" transform="matrix(12,0,0,-12,176.15995,18.86499)"/>
<use data-text="e" xlink:href="#font_2_14" transform="matrix(12,0,0,-12,179.49594,18.86499)"/>
<use data-text="r" xlink:href="#font_2_20" transform="matrix(12,0,0,-12,186.16794,18.86499)"/>
<use data-text="s" xlink:href="#font_2_21" transform="matrix(12,0,0,-12,190.16391,18.86499)"/>
<use data-text="&#xfffd;" xlink:href="#font_3_1" transform="matrix(12,0,0,-12,196.16391,18.86499)"/>
<path transform="matrix(1,0,0,-1,-367.04,561.265)" d="M402 398.375H420V380.375H402Z" fill="#ffffff" fill-rule="evenodd"/>
<path transform="matrix(1,0,0,-1,34.95999,162.8901)" stroke-width="1" stroke-linecap="butt" stroke-miterlimit="8" stroke-linejoin="miter" fill="none" stroke="#000000" d="M0 0H18V-18H0Z"/>
<use data-text="Z" xlink:href="#font_1_13" transform="matrix(12,0,0,-12,37.160005,176.69013)"/>
<use data-text="F" xlink:href="#font_1_10" transform="matrix(12,0,0,-12,44.360017,176.69013)"/>
<use data-text=" " xlink:href="#font_1_1" transform="matrix(12,0,0,-12,51.560029,176.69013)"/>
<path transform="matrix(1,0,0,-1,-367.04,561.265)" d="M420 398.375H438V380.375H420Z" fill="#ffffff" fill-rule="evenodd"/>
<path transform="matrix(1,0,0,-1,52.95999,162.8901)" stroke-width="1" stroke-linecap="butt" stroke-miterlimit="8" stroke-linejoin="miter" fill="none" stroke="#000000" d="M0 0H18V-18H0Z"/>
<use data-text="S" xlink:href="#font_1_12" transform="matrix(12,0,0,-12,55.160005,176.69013)"/>
<use data-text="F" xlink:href="#font_1_10" transform="matrix(12,0,0,-12,62.360017,176.69013)"/>
<use data-text=" " xlink:href="#font_1_1" transform="matrix(12,0,0,-12,69.56003,176.69013)"/>
<path transform="matrix(1,0,0,-1,-367.04,561.265)" d="M438 398.375H456V380.375H438Z" fill="#ffffff" fill-rule="evenodd"/>
<path transform="matrix(1,0,0,-1,70.95999,162.8901)" stroke-width="1" stroke-linecap="butt" stroke-miterlimit="8" stroke-linejoin="miter" fill="none" stroke="#000000" d="M0 0H18V-18H0Z"/>
<use data-text="O" xlink:href="#font_1_11" transform="matrix(12,0,0,-12,73.16,176.69013)"/>
<use data-text="F" xlink:href="#font_1_10" transform="matrix(12,0,0,-12,80.360019,176.69013)"/>
<use data-text=" " xlink:href="#font_1_1" transform="matrix(12,0,0,-12,87.56003,176.69013)"/>
<path transform="matrix(1,0,0,-1,34.95999,162.8901)" stroke-width="2.25" stroke-linecap="butt" stroke-miterlimit="8" stroke-linejoin="miter" fill="none" stroke="#000000" d="M0 0H54V-18H0Z"/>
<use data-text="C" xlink:href="#font_2_3" transform="matrix(12,0,0,-12,51.826997,126.86502)"/>
<use data-text="C" xlink:href="#font_2_3" transform="matrix(12,0,0,-12,60.490999,126.86502)"/>
<use data-text=":" xlink:href="#font_2_2" transform="matrix(12,0,0,-12,69.155,126.86502)"/>
<use data-text=" " xlink:href="#font_2_1" transform="matrix(12,0,0,-12,72.491,126.86502)"/>
<use data-text="C" xlink:href="#font_2_3" transform="matrix(12,0,0,-12,36.815004,140.86902)"/>
<use data-text="o" xlink:href="#font_2_19" transform="matrix(12,0,0,-12,45.479005,140.86902)"/>
<use data-text="n" xlink:href="#font_2_18" transform="matrix(12,0,0,-12,52.151,140.86902)"/>
<use data-text="d" xlink:href="#font_2_13" transform="matrix(12,0,0,-12,58.822999,140.86902)"/>
<use data-text="i" xlink:href="#font_2_16" transform="matrix(12,0,0,-12,65.494998,140.86902)"/>
<use data-text="t" xlink:href="#font_2_22" transform="matrix(12,0,0,-12,68.159,140.86902)"/>
<use data-text="i" xlink:href="#font_2_16" transform="matrix(12,0,0,-12,71.494998,140.86902)"/>
<use data-text="o" xlink:href="#font_2_19" transform="matrix(12,0,0,-12,74.159,140.86902)"/>
<use data-text="n" xlink:href="#font_2_18" transform="matrix(12,0,0,-12,80.83099,140.86902)"/>
<use data-text=" " xlink:href="#font_2_1" transform="matrix(12,0,0,-12,87.50299,140.86902)"/>
<use data-text="c" xlink:href="#font_2_12" transform="matrix(12,0,0,-12,46.151,154.87302)"/>
<use data-text="o" xlink:href="#font_2_19" transform="matrix(12,0,0,-12,52.151,154.87302)"/>
<use data-text="d" xlink:href="#font_2_13" transform="matrix(12,0,0,-12,58.822999,154.87302)"/>
<use data-text="e" xlink:href="#font_2_14" transform="matrix(12,0,0,-12,65.494998,154.87302)"/>
<use data-text="s" xlink:href="#font_2_21" transform="matrix(12,0,0,-12,72.16699,154.87302)"/>
<use data-text="&#xfffd;" xlink:href="#font_3_1" transform="matrix(12,0,0,-12,78.16699,154.87302)"/>
<path transform="matrix(1,0,0,-1,28.9599,201.26502)" stroke-width="2.25" stroke-linecap="butt" stroke-miterlimit="8" stroke-linejoin="miter" fill="none" stroke="#000000" d="M0 0H66V-18H0Z"/>
<use data-text="P" xlink:href="#font_2_8" transform="matrix(12,0,0,-12,53.825105,195.24011)"/>
<use data-text="C" xlink:href="#font_2_3" transform="matrix(12,0,0,-12,61.8291,195.24011)"/>
<use data-text="&#xfffd;" xlink:href="#font_3_1" transform="matrix(12,0,0,-12,70.4931,195.24011)"/>
<path transform="matrix(1,0,0,-1,112.9599,183.26502)" stroke-width="2.25" stroke-linecap="butt" stroke-miterlimit="8" stroke-linejoin="miter" fill="none" stroke="#000000" d="M0 0H132V-36H0Z"/>
<use data-text="D" xlink:href="#font_2_4" transform="matrix(12,0,0,-12,135.8269,174.86502)"/>
<use data-text="M" xlink:href="#font_2_7" transform="matrix(12,0,0,-12,144.4909,174.86502)"/>
<use data-text="E" xlink:href="#font_2_5" transform="matrix(12,0,0,-12,154.48691,174.86502)"/>
<use data-text="M" xlink:href="#font_2_7" transform="matrix(12,0,0,-12,162.49094,174.86502)"/>
<use data-text=":" xlink:href="#font_2_2" transform="matrix(12,0,0,-12,172.48691,174.86502)"/>
<use data-text=" " xlink:href="#font_2_1" transform="matrix(12,0,0,-12,175.8229,174.86502)"/>
<use data-text="M" xlink:href="#font_2_7" transform="matrix(12,0,0,-12,179.1589,174.86502)"/>
<use data-text="e" xlink:href="#font_2_14" transform="matrix(12,0,0,-12,189.15488,174.86502)"/>
<use data-text="m" xlink:href="#font_2_17" transform="matrix(12,0,0,-12,195.82688,174.86502)"/>
<use data-text="o" xlink:href="#font_2_19" transform="matrix(12,0,0,-12,205.82285,174.86502)"/>
<use data-text="r" xlink:href="#font_2_20" transform="matrix(12,0,0,-12,212.49485,174.86502)"/>
<use data-text="y" xlink:href="#font_2_24" transform="matrix(12,0,0,-12,216.49082,174.86502)"/>
<use data-text="&#xfffd;" xlink:href="#font_3_1" transform="matrix(12,0,0,-12,222.49082,174.86502)"/>
<path transform="matrix(1,0,0,-1,154.95981,141.26502)" stroke-width="2.25" stroke-linecap="butt" stroke-miterlimit="8" stroke-linejoin="miter" fill="none" stroke="#000000" d="M0 0H42V-18H0Z"/>
<use data-text="S" xlink:href="#font_2_10" transform="matrix(12,0,0,-12,121.4715,132.86502)"/>
<use data-text="t" xlink:href="#font_2_22" transform="matrix(12,0,0,-12,129.4755,132.86502)"/>
<use data-text="a" xlink:href="#font_2_11" transform="matrix(12,0,0,-12,132.8115,132.86502)"/>
<use data-text="t" xlink:href="#font_2_22" transform="matrix(12,0,0,-12,139.48349,132.86502)"/>
<use data-text=":" xlink:href="#font_2_2" transform="matrix(12,0,0,-12,142.81949,132.86502)"/>
<use data-text=" " xlink:href="#font_2_1" transform="matrix(12,0,0,-12,146.15549,132.86502)"/>
<use data-text="P" xlink:href="#font_2_8" transform="matrix(12,0,0,-12,149.49149,132.86502)"/>
<use data-text="r" xlink:href="#font_2_20" transform="matrix(12,0,0,-12,157.49552,132.86502)"/>
<use data-text="o" xlink:href="#font_2_19" transform="matrix(12,0,0,-12,161.49149,132.86502)"/>
<use data-text="g" xlink:href="#font_2_15" transform="matrix(12,0,0,-12,168.16349,132.86502)"/>
<use data-text="r" xlink:href="#font_2_20" transform="matrix(12,0,0,-12,174.83548,132.86502)"/>
<use data-text="a" xlink:href="#font_2_11" transform="matrix(12,0,0,-12,178.83145,132.86502)"/>
<use data-text="m" xlink:href="#font_2_17" transform="matrix(12,0,0,-12,185.50345,132.86502)"/>
<use data-text=" " xlink:href="#font_2_1" transform="matrix(12,0,0,-12,195.49942,132.86502)"/>
<use data-text="s" xlink:href="#font_2_21" transform="matrix(12,0,0,-12,198.83542,132.86502)"/>
<use data-text="t" xlink:href="#font_2_22" transform="matrix(12,0,0,-12,204.83542,132.86502)"/>
<use data-text="a" xlink:href="#font_2_11" transform="matrix(12,0,0,-12,208.17142,132.86502)"/>
<use data-text="t" xlink:href="#font_2_22" transform="matrix(12,0,0,-12,214.84342,132.86502)"/>
<use data-text="u" xlink:href="#font_2_23" transform="matrix(12,0,0,-12,218.17942,132.86502)"/>
<use data-text="s" xlink:href="#font_2_21" transform="matrix(12,0,0,-12,224.85141,132.86502)"/>
<use data-text="&#xfffd;" xlink:href="#font_3_1" transform="matrix(12,0,0,-12,230.85141,132.86502)"/>
<path transform="matrix(1,0,0,-1,-367.04,561.265)" d="M504 534H570V516H504Z" fill="#ffffff" fill-rule="evenodd"/>
<path transform="matrix(1,0,0,-1,136.9599,27.265198)" stroke-width="1" stroke-linecap="butt" stroke-miterlimit="8" stroke-linejoin="miter" fill="none" stroke="#000000" d="M0 0H66V-18H0Z"/>
<use data-text="%" xlink:href="#font_1_2" transform="matrix(12,0,0,-12,159.16,41.065004)"/>
<use data-text="r" xlink:href="#font_1_20" transform="matrix(12,0,0,-12,166.36002,41.065004)"/>
<use data-text="8" xlink:href="#font_1_8" transform="matrix(12,0,0,-12,173.56003,41.065004)"/>
<use data-text=" " xlink:href="#font_1_1" transform="matrix(12,0,0,-12,180.76004,41.065004)"/>
<path transform="matrix(1,0,0,-1,-367.04,561.265)" d="M504 516H570V498H504Z" fill="#ffffff" fill-rule="evenodd"/>
<path transform="matrix(1,0,0,-1,136.9599,45.265199)" stroke-width="1" stroke-linecap="butt" stroke-miterlimit="8" stroke-linejoin="miter" fill="none" stroke="#000000" d="M0 0H66V-18H0Z"/>
<use data-text="%" xlink:href="#font_1_2" transform="matrix(12,0,0,-12,159.16,59.065004)"/>
<use data-text="r" xlink:href="#font_1_20" transform="matrix(12,0,0,-12,166.36002,59.065004)"/>
<use data-text="9" xlink:href="#font_1_9" transform="matrix(12,0,0,-12,173.56003,59.065004)"/>
<use data-text=" " xlink:href="#font_1_1" transform="matrix(12,0,0,-12,180.76004,59.065004)"/>
<path transform="matrix(1,0,0,-1,-367.04,561.265)" d="M504 498H570V480H504Z" fill="#ffffff" fill-rule="evenodd"/>
<path transform="matrix(1,0,0,-1,136.9599,63.265108)" stroke-width="1" stroke-linecap="butt" stroke-miterlimit="8" stroke-linejoin="miter" fill="none" stroke="#000000" d="M0 0H66V-18H0Z"/>
<use data-text="%" xlink:href="#font_1_2" transform="matrix(12,0,0,-12,155.16,77.065)"/>
<use data-text="r" xlink:href="#font_1_20" transform="matrix(12,0,0,-12,162.36002,77.065)"/>
<use data-text="1" xlink:href="#font_1_4" transform="matrix(12,0,0,-12,169.56003,77.065)"/>
<use data-text="0" xlink:href="#font_1_3" transform="matrix(12,0,0,-12,176.76004,77.065)"/>
<use data-text=" " xlink:href="#font_1_1" transform="matrix(12,0,0,-12,183.96006,77.065)"/>
<path transform="matrix(1,0,0,-1,-367.04,561.265)" d="M504 480H570V462H504Z" fill="#ffffff" fill-rule="evenodd"/>
<path transform="matrix(1,0,0,-1,136.9599,81.26511)" stroke-width="1" stroke-linecap="butt" stroke-miterlimit="8" stroke-linejoin="miter" fill="none" stroke="#000000" d="M0 0H66V-18H0Z"/>
<use data-text="%" xlink:href="#font_1_2" transform="matrix(12,0,0,-12,155.16,95.065)"/>
<use data-text="r" xlink:href="#font_1_20" transform="matrix(12,0,0,-12,162.36002,95.065)"/>
<use data-text="1" xlink:href="#font_1_4" transform="matrix(12,0,0,-12,169.56003,95.065)"/>
<use data-text="1" xlink:href="#font_1_4" transform="matrix(12,0,0,-12,176.76004,95.065)"/>
<use data-text=" " xlink:href="#font_1_1" transform="matrix(12,0,0,-12,183.96006,95.065)"/>
<path transform="matrix(1,0,0,-1,-367.04,561.265)" d="M570 534H636V516H570Z" fill="#ffffff" fill-rule="evenodd"/>
<path transform="matrix(1,0,0,-1,202.95981,27.265198)" stroke-width="1" stroke-linecap="butt" stroke-miterlimit="8" stroke-linejoin="miter" fill="none" stroke="#000000" d="M0 0H66V-18H0Z"/>
<use data-text="%" xlink:href="#font_1_2" transform="matrix(12,0,0,-12,221.16,41.065004)"/>
<use data-text="r" xlink:href="#font_1_20" transform="matrix(12,0,0,-12,228.36002,41.065004)"/>
<use data-text="1" xlink:href="#font_1_4" transform="matrix(12,0,0,-12,235.56003,41.065004)"/>
<use data-text="2" xlink:href="#font_1_5" transform="matrix(12,0,0,-12,242.76004,41.065004)"/>
<use data-text=" " xlink:href="#font_1_1" transform="matrix(12,0,0,-12,249.96006,41.065004)"/>
<path transform="matrix(1,0,0,-1,-367.04,561.265)" d="M570 516H636V498H570Z" fill="#ffffff" fill-rule="evenodd"/>
<path transform="matrix(1,0,0,-1,202.95981,45.265199)" stroke-width="1" stroke-linecap="butt" stroke-miterlimit="8" stroke-linejoin="miter" fill="none" stroke="#000000" d="M0 0H66V-18H0Z"/>
<use data-text="%" xlink:href="#font_1_2" transform="matrix(12,0,0,-12,221.16,59.065004)"/>
<use data-text="r" xlink:href="#font_1_20" transform="matrix(12,0,0,-12,228.36002,59.065004)"/>
<use data-text="1" xlink:href="#font_1_4" transform="matrix(12,0,0,-12,235.56003,59.065004)"/>
<use data-text="3" xlink:href="#font_1_6" transform="matrix(12,0,0,-12,242.76004,59.065004)"/>
<use data-text=" " xlink:href="#font_1_1" transform="matrix(12,0,0,-12,249.96006,59.065004)"/>
<path transform="matrix(1,0,0,-1,-367.04,561.265)" d="M570 498H636V480H570Z" fill="#ffffff" fill-rule="evenodd"/>
<path transform="matrix(1,0,0,-1,202.95981,63.265108)" stroke-width="1" stroke-linecap="butt" stroke-miterlimit="8" stroke-linejoin="miter" fill="none" stroke="#000000" d="M0 0H66V-18H0Z"/>
<use data-text="%" xlink:href="#font_1_2" transform="matrix(12,0,0,-12,221.16,77.065)"/>
<use data-text="r" xlink:href="#font_1_20" transform="matrix(12,0,0,-12,228.36002,77.065)"/>
<use data-text="1" xlink:href="#font_1_4" transform="matrix(12,0,0,-12,235.56003,77.065)"/>
<use data-text="4" xlink:href="#font_1_7" transform="matrix(12,0,0,-12,242.76004,77.065)"/>
<use data-text=" " xlink:href="#font_1_1" transform="matrix(12,0,0,-12,249.96006,77.065)"/>
<path transform="matrix(1,0,0,-1,-367.04,561.265)" d="M570 480H636V462H570Z" fill="#929292" fill-rule="evenodd"/>
<path transform="matrix(1,0,0,-1,202.95981,81.26511)" stroke-width="1" stroke-linecap="butt" stroke-miterlimit="8" stroke-linejoin="miter" fill="none" stroke="#000000" d="M0 0H66V-18H0Z"/>
<path transform="matrix(1,0,0,-1,4.9599,27.265198)" stroke-width="2.25" stroke-linecap="butt" stroke-miterlimit="8" stroke-linejoin="miter" fill="none" stroke="#000000" d="M0 0H264V-72H0Z"/>
</g>
</svg>
