<?xml version="1.0" encoding="UTF-8" standalone="no"?><svg xmlns="http://www.w3.org/2000/svg" xmlns:xlink="http://www.w3.org/1999/xlink" contentScriptType="application/ecmascript" contentStyleType="text/css" height="338px" preserveAspectRatio="none" style="width:576px;height:338px;" version="1.1" viewBox="0 0 576 338" width="576px" zoomAndPan="magnify"><defs><filter height="300%" id="f1e7h995re4fqu" width="300%" x="-1" y="-1"><feGaussianBlur result="blurOut" stdDeviation="2.0"/><feColorMatrix in="blurOut" result="blurOut2" type="matrix" values="0 0 0 0 0 0 0 0 0 0 0 0 0 0 0 0 0 0 .4 0"/><feOffset dx="4.0" dy="4.0" in="blurOut2" result="blurOut3"/><feBlend in="SourceGraphic" in2="blurOut3" mode="normal"/></filter></defs><g><!--class Component--><rect fill="#FEFECE" filter="url(#f1e7h995re4fqu)" height="52.9551" id="Component" style="stroke: #A80036; stroke-width: 1.5;" width="98" x="281" y="8"/><ellipse cx="296" cy="24" fill="#B4A7E5" rx="11" ry="11" style="stroke: #A80036; stroke-width: 1.0;"/><path d="M292.4277,20.2651 L292.4277,18.1069 L299.8071,18.1069 L299.8071,20.2651 L297.3418,20.2651 L297.3418,28.3418 L299.8071,28.3418 L299.8071,30.5 L292.4277,30.5 L292.4277,28.3418 L294.8931,28.3418 L294.8931,20.2651 Z "/><text fill="#000000" font-family="sans-serif" font-size="12" font-style="italic" lengthAdjust="spacingAndGlyphs" textLength="66" x="310" y="28.5352">Component</text><line style="stroke: #A80036; stroke-width: 1.5;" x1="282" x2="378" y1="40" y2="40"/><ellipse cx="292" cy="51.9775" fill="#84BE84" rx="3" ry="3" style="stroke: #038048; stroke-width: 1.0;"/><text fill="#000000" font-family="sans-serif" font-size="11" font-style="italic" lengthAdjust="spacingAndGlyphs" textLength="60" x="301" y="54.6348">operation()</text><!--class ConcreteComponent--><rect fill="#FEFECE" filter="url(#f1e7h995re4fqu)" height="52.9551" id="ConcreteComponent" style="stroke: #A80036; stroke-width: 1.5;" width="149" x="414.5" y="8"/><ellipse cx="429.5" cy="24" fill="#ADD1B2" rx="11" ry="11" style="stroke: #A80036; stroke-width: 1.0;"/><path d="M431.9731,30.1431 Q431.3921,30.4419 430.7529,30.5913 Q430.1138,30.7407 429.4082,30.7407 Q426.9014,30.7407 425.5815,29.0889 Q424.2617,27.437 424.2617,24.3159 Q424.2617,21.1865 425.5815,19.5347 Q426.9014,17.8828 429.4082,17.8828 Q430.1138,17.8828 430.7612,18.0322 Q431.4087,18.1816 431.9731,18.4805 L431.9731,21.2031 Q431.3423,20.6221 430.7488,20.3523 Q430.1553,20.0825 429.5244,20.0825 Q428.1797,20.0825 427.4949,21.1492 Q426.8101,22.2158 426.8101,24.3159 Q426.8101,26.4077 427.4949,27.4744 Q428.1797,28.541 429.5244,28.541 Q430.1553,28.541 430.7488,28.2712 Q431.3423,28.0015 431.9731,27.4204 Z "/><text fill="#000000" font-family="sans-serif" font-size="12" lengthAdjust="spacingAndGlyphs" textLength="117" x="443.5" y="28.5352">ConcreteComponent</text><line style="stroke: #A80036; stroke-width: 1.5;" x1="415.5" x2="562.5" y1="40" y2="40"/><ellipse cx="425.5" cy="51.9775" fill="#84BE84" rx="3" ry="3" style="stroke: #038048; stroke-width: 1.0;"/><text fill="#000000" font-family="sans-serif" font-size="11" lengthAdjust="spacingAndGlyphs" textLength="60" x="434.5" y="54.6348">operation()</text><!--class Decorator--><rect fill="#FEFECE" filter="url(#f1e7h995re4fqu)" height="73.9102" id="Decorator" style="stroke: #A80036; stroke-width: 1.5;" width="167" x="246.5" y="121"/><ellipse cx="297.25" cy="137" fill="#ADD1B2" rx="11" ry="11" style="stroke: #A80036; stroke-width: 1.0;"/><path d="M299.7231,143.1431 Q299.1421,143.4419 298.5029,143.5913 Q297.8638,143.7407 297.1582,143.7407 Q294.6514,143.7407 293.3315,142.0889 Q292.0117,140.437 292.0117,137.3159 Q292.0117,134.1865 293.3315,132.5347 Q294.6514,130.8828 297.1582,130.8828 Q297.8638,130.8828 298.5112,131.0322 Q299.1587,131.1816 299.7231,131.4805 L299.7231,134.2031 Q299.0923,133.6221 298.4988,133.3523 Q297.9053,133.0825 297.2744,133.0825 Q295.9297,133.0825 295.2449,134.1492 Q294.5601,135.2158 294.5601,137.3159 Q294.5601,139.4077 295.2449,140.4744 Q295.9297,141.541 297.2744,141.541 Q297.9053,141.541 298.4988,141.2712 Q299.0923,141.0015 299.7231,140.4204 Z "/><text fill="#000000" font-family="sans-serif" font-size="12" lengthAdjust="spacingAndGlyphs" textLength="57" x="317.75" y="141.5352">Decorator</text><line style="stroke: #A80036; stroke-width: 1.5;" x1="247.5" x2="412.5" y1="153" y2="153"/><rect fill="none" height="6" style="stroke: #C82930; stroke-width: 1.0;" width="6" x="254.5" y="161.9775"/><text fill="#000000" font-family="sans-serif" font-size="11" lengthAdjust="spacingAndGlyphs" textLength="141" x="266.5" y="167.6348">aComponent : Component</text><line style="stroke: #A80036; stroke-width: 1.5;" x1="247.5" x2="412.5" y1="173.9551" y2="173.9551"/><ellipse cx="257.5" cy="185.9326" fill="#84BE84" rx="3" ry="3" style="stroke: #038048; stroke-width: 1.0;"/><text fill="#000000" font-family="sans-serif" font-size="11" lengthAdjust="spacingAndGlyphs" textLength="60" x="266.5" y="188.5898">operation()</text><!--class BehaviorDecorator--><rect fill="#FEFECE" filter="url(#f1e7h995re4fqu)" height="65.9102" id="BehaviorDecorator" style="stroke: #A80036; stroke-width: 1.5;" width="138" x="261" y="257.5"/><ellipse cx="276" cy="273.5" fill="#ADD1B2" rx="11" ry="11" style="stroke: #A80036; stroke-width: 1.0;"/><path d="M278.4731,279.6431 Q277.8921,279.9419 277.2529,280.0913 Q276.6138,280.2407 275.9082,280.2407 Q273.4014,280.2407 272.0815,278.5889 Q270.7617,276.937 270.7617,273.8159 Q270.7617,270.6865 272.0815,269.0347 Q273.4014,267.3828 275.9082,267.3828 Q276.6138,267.3828 277.2612,267.5322 Q277.9087,267.6816 278.4731,267.9805 L278.4731,270.7031 Q277.8423,270.1221 277.2488,269.8523 Q276.6553,269.5825 276.0244,269.5825 Q274.6797,269.5825 273.9949,270.6492 Q273.3101,271.7158 273.3101,273.8159 Q273.3101,275.9077 273.9949,276.9744 Q274.6797,278.041 276.0244,278.041 Q276.6553,278.041 277.2488,277.7712 Q277.8423,277.5015 278.4731,276.9204 Z "/><text fill="#000000" font-family="sans-serif" font-size="12" lengthAdjust="spacingAndGlyphs" textLength="106" x="290" y="278.0352">BehaviorDecorator</text><line style="stroke: #A80036; stroke-width: 1.5;" x1="262" x2="398" y1="289.5" y2="289.5"/><ellipse cx="272" cy="301.4775" fill="#84BE84" rx="3" ry="3" style="stroke: #038048; stroke-width: 1.0;"/><text fill="#000000" font-family="sans-serif" font-size="11" lengthAdjust="spacingAndGlyphs" textLength="60" x="281" y="304.1348">operation()</text><rect fill="#F24D5C" height="6" style="stroke: #C82930; stroke-width: 1.0;" width="6" x="269" y="311.4326"/><text fill="#000000" font-family="sans-serif" font-size="11" lengthAdjust="spacingAndGlyphs" textLength="87" x="281" y="317.0898">addedBehavior()</text><!--class StateDecorator--><rect fill="#FEFECE" filter="url(#f1e7h995re4fqu)" height="73.9102" id="StateDecorator" style="stroke: #A80036; stroke-width: 1.5;" width="117" x="448.5" y="121"/><ellipse cx="463.5" cy="137" fill="#ADD1B2" rx="11" ry="11" style="stroke: #A80036; stroke-width: 1.0;"/><path d="M465.9731,143.1431 Q465.3921,143.4419 464.7529,143.5913 Q464.1138,143.7407 463.4082,143.7407 Q460.9014,143.7407 459.5815,142.0889 Q458.2617,140.437 458.2617,137.3159 Q458.2617,134.1865 459.5815,132.5347 Q460.9014,130.8828 463.4082,130.8828 Q464.1138,130.8828 464.7612,131.0322 Q465.4087,131.1816 465.9731,131.4805 L465.9731,134.2031 Q465.3423,133.6221 464.7488,133.3523 Q464.1553,133.0825 463.5244,133.0825 Q462.1797,133.0825 461.4949,134.1492 Q460.8101,135.2158 460.8101,137.3159 Q460.8101,139.4077 461.4949,140.4744 Q462.1797,141.541 463.5244,141.541 Q464.1553,141.541 464.7488,141.2712 Q465.3423,141.0015 465.9731,140.4204 Z "/><text fill="#000000" font-family="sans-serif" font-size="12" lengthAdjust="spacingAndGlyphs" textLength="85" x="477.5" y="141.5352">StateDecorator</text><line style="stroke: #A80036; stroke-width: 1.5;" x1="449.5" x2="564.5" y1="153" y2="153"/><rect fill="none" height="6" style="stroke: #C82930; stroke-width: 1.0;" width="6" x="456.5" y="161.9775"/><text fill="#000000" font-family="sans-serif" font-size="11" lengthAdjust="spacingAndGlyphs" textLength="59" x="468.5" y="167.6348">addedState</text><line style="stroke: #A80036; stroke-width: 1.5;" x1="449.5" x2="564.5" y1="173.9551" y2="173.9551"/><ellipse cx="459.5" cy="185.9326" fill="#84BE84" rx="3" ry="3" style="stroke: #038048; stroke-width: 1.0;"/><text fill="#000000" font-family="sans-serif" font-size="11" lengthAdjust="spacingAndGlyphs" textLength="60" x="468.5" y="188.5898">operation()</text><path d="M26.5,130 L26.5,185.9316 A0,0 0 0 0 26.5,185.9316 L211.5,185.9316 A0,0 0 0 0 211.5,185.9316 L211.5,162 L246.3756,158 L211.5,154 L211.5,140 L201.5,130 L26.5,130 A0,0 0 0 0 26.5,130 " fill="#FBFB77" filter="url(#f1e7h995re4fqu)" style="stroke: #A80036; stroke-width: 1.0;"/><path d="M201.5,130 L201.5,140 L211.5,140 L201.5,130 " fill="#FBFB77" style="stroke: #A80036; stroke-width: 1.0;"/><text fill="#000000" font-family="sans-serif" font-size="13" lengthAdjust="spacingAndGlyphs" textLength="146" x="32.5" y="147.5684">Decorator::operation() {</text><text fill="#000000" font-family="sans-serif" font-size="13" lengthAdjust="spacingAndGlyphs" textLength="156" x="40.5" y="162.8789">aComponent.operation();</text><text fill="#000000" font-family="sans-serif" font-size="13" lengthAdjust="spacingAndGlyphs" textLength="4" x="32.5" y="178.1895">}</text><path d="M6,255 L6,326.2422 A0,0 0 0 0 6,326.2422 L226,326.2422 A0,0 0 0 0 226,326.2422 L226,294.5 L260.7609,290.5 L226,286.5 L226,265 L216,255 L6,255 A0,0 0 0 0 6,255 " fill="#FBFB77" filter="url(#f1e7h995re4fqu)" style="stroke: #A80036; stroke-width: 1.0;"/><path d="M216,255 L216,265 L226,265 L216,255 " fill="#FBFB77" style="stroke: #A80036; stroke-width: 1.0;"/><text fill="#000000" font-family="sans-serif" font-size="13" lengthAdjust="spacingAndGlyphs" textLength="199" x="12" y="272.5684">BehaviorDecorator::operation() {</text><text fill="#000000" font-family="sans-serif" font-size="13" lengthAdjust="spacingAndGlyphs" textLength="142" x="20" y="287.8789">Decorator::operation();</text><text fill="#000000" font-family="sans-serif" font-size="13" lengthAdjust="spacingAndGlyphs" textLength="103" x="20" y="303.1895">addedBehavior();</text><text fill="#000000" font-family="sans-serif" font-size="13" lengthAdjust="spacingAndGlyphs" textLength="4" x="12" y="318.5">}</text><!--link Component to ConcreteComponent--><path d="M399.1489,34.5 C404.1924,34.5 409.236,34.5 414.2795,34.5 " fill="none" id="Component-ConcreteComponent" style="stroke: #A80036; stroke-width: 1.0;"/><polygon fill="none" points="399.0664,41.4999,379.0664,34.5,399.0664,27.4999,399.0664,41.4999" style="stroke: #A80036; stroke-width: 1.0;"/><!--link Component to Decorator--><path d="M330,81.3561 C330,94.454 330,108.5026 330,120.9485 " fill="none" id="Component-Decorator" style="stroke: #A80036; stroke-width: 1.0;"/><polygon fill="none" points="323.0001,81.2977,330,61.2977,337.0001,81.2976,323.0001,81.2977" style="stroke: #A80036; stroke-width: 1.0;"/><!--link Decorator to BehaviorDecorator--><path d="M330,215.4251 C330,229.6732 330,244.4757 330,257.1328 " fill="none" id="Decorator-BehaviorDecorator" style="stroke: #A80036; stroke-width: 1.0;"/><polygon fill="none" points="323.0001,215.2613,330,195.2612,337.0001,215.2612,323.0001,215.2613" style="stroke: #A80036; stroke-width: 1.0;"/><!--link Decorator to StateDecorator--><path d="M433.6852,158 C438.5561,158 443.427,158 448.298,158 " fill="none" id="Decorator-StateDecorator" style="stroke: #A80036; stroke-width: 1.0;"/><polygon fill="none" points="433.6602,164.9999,413.6602,158,433.6601,150.9999,433.6602,164.9999" style="stroke: #A80036; stroke-width: 1.0;"/><!--
@startuml
Component <|- ConcreteComponent
Component <|- - Decorator
Decorator <|- - BehaviorDecorator
Decorator <|- StateDecorator

interface Component {
  {abstract} +operation()
}

class ConcreteComponent {
  +operation()
}
class Decorator {
  -aComponent : Component
  +operation()
}
note left of Decorator
  Decorator::operation() {
    aComponent.operation();
  }
end note

class BehaviorDecorator {
  +operation()
  -addedBehavior()
}
note left of BehaviorDecorator
  BehaviorDecorator::operation() {
    Decorator::operation();
    addedBehavior();
  }
end note
class StateDecorator {
  -addedState
  +operation()
}

hide empty attributes
hide empty methods
@enduml

PlantUML version 1.2019.04(Fri Mar 29 23:44:36 CST 2019)
(GPL source distribution)
Java Runtime: Java(TM) SE Runtime Environment
JVM: Java HotSpot(TM) 64-Bit Server VM
Java Version: 1.8.0_152-b16
Operating System: Mac OS X
OS Version: 10.14
Default Encoding: UTF-8
Language: zh
Country: CN
--></g></svg>