<svg xmlns="http://www.w3.org/2000/svg" xmlns:xlink="http://www.w3.org/1999/xlink" version="1.1" width="402.713pt" height="174.40302pt" viewBox="0 0 402.713 174.40302">
<defs>
<clipPath id="clip_0">
<path transform="matrix(1,0,0,-1,-80.067,550.166)" d="M80.067 375.763H482.78V550.166H80.067Z" fill-rule="evenodd"/>
</clipPath>
<path id="font_1_7" d="M.08544922 .71777346H.40820313C.47200523 .71777346 .5234375 .6997884 .5625 .66381838 .6015625 .6278483 .62109377 .5773112 .62109377 .51220706 .62109377 .45621745 .6036784 .4074707 .56884768 .3659668 .5340169 .3244629 .48046876 .30371095 .40820313 .30371095H.18261719V0H.08544922V.71777346M.5229492 .5114746C.5229492 .56410726 .50341799 .5998433 .46435548 .61868289 .4428711 .62875369 .41341148 .63378909 .37597657 .63378909H.18261719V.3857422H.37597657C.41959635 .3857422 .45499674 .39499919 .48217774 .41351319 .5093587 .43203736 .5229492 .46469117 .5229492 .5114746Z"/>
<path id="font_1_18" d="M.06689453 .5234375H.15039063V.4326172C.15722656 .4502767 .17399089 .4717814 .2006836 .49713136 .2273763 .52248129 .25813804 .53515627 .29296876 .53515627 .29459635 .53515627 .29736329 .5349579 .30126954 .53456118 .30517579 .5341746 .31184898 .5333964 .32128907 .53222659V.43945313C.31608073 .44062297 .3112793 .44140116 .30688478 .44178773 .30249024 .44218446 .2976888 .4423828 .29248048 .4423828 .24820964 .4423828 .2141927 .4280599 .19042969 .39941407 .16666667 .37076823 .15478516 .33789063 .15478516 .30078126V0H.06689453V.5234375Z"/>
<path id="font_1_17" d="M.27197267 .057617189C.33024089 .057617189 .37019859 .07964579 .3918457 .123703 .41349284 .16776021 .4243164 .21677144 .4243164 .2707367 .4243164 .31950379 .4165039 .35917155 .4008789 .38974 .3761393 .43785606 .3334961 .46191407 .27294923 .46191407 .21923828 .46191407 .18017578 .44143168 .15576172 .40046693 .13134766 .35950218 .119140628 .31008403 .119140628 .25221253 .119140628 .1966095 .13134766 .15027364 .15576172 .113204959 .18017578 .076146449 .21891277 .057617189 .27197267 .057617189M.27539063 .53808596C.34277345 .53808596 .3997396 .5156453 .44628907 .47076417 .49283854 .42588298 .5161133 .35985819 .5161133 .27268983 .5161133 .1884613 .49560548 .11886088 .45458985 .06388855 .41357423 .008926392 .3499349-.018554688 .26367188-.018554688 .19173177-.018554688 .13460286 .00575765 .092285159 .054382326 .04996745 .103006999 .028808594 .16829936 .028808594 .2502594 .028808594 .33806864 .05110677 .4079895 .095703128 .46002198 .14029949 .51206466 .20019531 .53808596 .27539063 .53808596M.27246095 .5361328V.5361328Z"/>
<path id="font_1_10" d="M.26611329 .53808596C.32503257 .53808596 .37296549 .5237274 .4099121 .49501039 .44685874 .46629334 .46907554 .41684977 .4765625 .3466797H.39111329C.38590495 .37890626 .37402345 .40568034 .35546876 .42700196 .33691407 .44832359 .3071289 .45898438 .26611329 .45898438 .2101237 .45898438 .17008464 .43170677 .1459961 .3771515 .1303711 .34176127 .122558597 .29808555 .122558597 .24612427 .122558597 .19384766 .1336263 .14984639 .15576172 .11412048 .17789714 .07840475 .21272786 .060546876 .2602539 .060546876 .29671226 .060546876 .3256022 .0716095 .34692384 .09373474 .36824546 .115859989 .38297526 .1461385 .39111329 .18457031H.4765625C.46679688 .115234378 .4423828 .06453451 .4033203 .032470704 .3642578 .00040690104 .31429038-.015625 .25341798-.015625 .1850586-.015625 .13053386 .009379069 .08984375 .059387208 .049153646 .10940552 .028808594 .17188008 .028808594 .24681092 .028808594 .33868919 .05110677 .41020204 .095703128 .4613495 .14029949 .51250717 .19710286 .53808596 .26611329 .53808596M.2524414 .5361328V.5361328Z"/>
<path id="font_1_12" d="M.28222657 .53515627C.31933595 .53515627 .355306 .52644857 .39013673 .5090332 .42496745 .49161784 .4514974 .4690806 .46972657 .4414215 .4873047 .41505433 .49902345 .3842977 .5048828 .3491516 .5100911 .32506309 .5126953 .28647868 .5126953 .23339844H.12939453C.13102214 .18033855 .14355469 .13777669 .16699219 .10571289 .19042969 .073649089 .22672527 .057617189 .2758789 .057617189 .32177735 .057617189 .35839845 .07261658 .3857422 .10261536 .4013672 .12003072 .4124349 .14018758 .4189453 .16308594H.5053711C.50309249 .14398194 .49552409 .122690837 .48266603 .09921265 .46980796 .07574463 .45540367 .05656433 .43945313 .041671754 .4127604 .01576233 .37972007-.0017242432 .34033204-.010787964 .3191732-.01596578 .2952474-.018554688 .2685547-.018554688 .20345052-.018554688 .14827474 .0051472985 .103027347 .05255127 .05777995 .09995524 .03515625 .16634114 .03515625 .25170899 .03515625 .33576457 .057942708 .40401713 .103515628 .45646668 .14908855 .5089264 .20865886 .53515627 .28222657 .53515627M.42236329 .30371095C.41878257 .34191896 .41048179 .37245179 .39746095 .39530946 .3733724 .4377594 .33317057 .45898438 .27685548 .45898438 .23649089 .45898438 .20263672 .44437156 .17529297 .41514588 .14794922 .3859202 .13346355 .34877525 .13183594 .30371095H.42236329M.27392579 .5361328V.5361328Z"/>
<path id="font_1_19" d="M.11669922 .1640625C.11930338 .13463338 .12662761 .11207072 .13867188 .09637451 .1608073 .06793213 .19921875 .053710939 .25390626 .053710939 .28645835 .053710939 .31510417 .060806276 .33984376 .07499695 .36458335 .08919779 .37695313 .11115011 .37695313 .14085388 .37695313 .16337586 .36702476 .18051148 .34716798 .19226074 .33447267 .19944255 .30940757 .20775859 .27197267 .21720886L.20214844 .2348175C.15755208 .24590557 .12467448 .25829569 .103515628 .27198792 .06575521 .29579164 .046875 .32873027 .046875 .37080384 .046875 .42036439 .064697269 .46046958 .1003418 .49111939 .13598633 .52177938 .18391927 .5371094 .24414063 .5371094 .32291667 .5371094 .37972007 .5139974 .41455079 .46777345 .4363607 .43847657 .4469401 .40690104 .44628907 .37304688H.36328126C.36165367 .39269004 .35465495 .41055808 .34228517 .426651 .32210288 .44950868 .28710938 .4609375 .23730469 .4609375 .20410156 .4609375 .17895508 .45461528 .16186524 .44197084 .14477539 .42933656 .13623047 .41264854 .13623047 .39190675 .13623047 .36922203 .14746094 .35107423 .16992188 .33746339 .1829427 .32936607 .20214844 .32221986 .22753906 .31602479L.28564454 .3018341C.34879557 .28650413 .39111329 .27166749 .41259767 .25732423 .44677735 .23482259 .4638672 .19944255 .4638672 .15118408 .4638672 .10455322 .44620768 .06428019 .41088868 .03036499 .37556968-.0035502117 .32177735-.020507813 .24951172-.020507813 .17171224-.020507813 .116617839-.002802531 .084228519 .032608034 .05183919 .06801859 .034505208 .111836757 .032226564 .1640625H.11669922M.24658203 .5361328V.5361328Z"/>
<path id="font_1_1" d="M0 0Z"/>
<path id="font_2_1" d="M0 0Z"/>
<path id="font_1_5" d="M.07373047 .71777346H.21289063L.4189453 .11091614 .62353518 .71777346H.76123049V0H.6689453V.42362977C.6689453 .43828837 .6692708 .46255494 .6699219 .49642945 .67057296 .53030398 .67089846 .56662496 .67089846 .60539248L.4663086 0H.3701172L.1640625 .60539248V.58340457C.1640625 .5658162 .1644694 .5390218 .1652832 .50302127 .166097 .46703086 .1665039 .44056703 .1665039 .42362977V0H.07373047V.71777346Z"/>
<path id="font_1_9" d="M.13183594 .1394043C.13183594 .114095058 .14111328 .09413656 .15966797 .07952881 .17822266 .06492106 .20019531 .057617189 .22558594 .057617189 .2565104 .057617189 .28645835 .06471761 .3154297 .07891846 .3642578 .10247803 .38867188 .14127605 .38867188 .1953125V.26611329C.3779297 .25886027 .36409507 .2528127 .34716798 .24797058 .33024089 .24313863 .3136393 .23983257 .29736329 .23805237L.24414063 .23184204C.21223958 .22799683 .1883138 .22153218 .17236328 .21244812 .14534505 .19718933 .13183594 .17284139 .13183594 .1394043M.34472657 .31689454C.36490885 .3194987 .37841798 .32796226 .3852539 .34228517 .38916017 .35012818 .39111329 .36140443 .39111329 .3761139 .39111329 .40618388 .38045249 .42799888 .35913087 .44155885 .33780924 .455129 .30729167 .46191407 .26757813 .46191407 .22167969 .46191407 .18912761 .44948326 .16992188 .42462159 .15917969 .4108785 .15218099 .39043174 .14892578 .36328126H.06689453C.06852213 .42791749 .08943685 .47288514 .12963867 .4981842 .1698405 .5234833 .21647136 .5361328 .26953126 .5361328 .3310547 .5361328 .38102214 .52441409 .4194336 .50097659 .45751954 .47753907 .4765625 .4410502 .4765625 .39151V.08985901C.4765625 .08073425 .47843424 .073404949 .48217774 .067871097 .48592124 .06233724 .4938151 .059570314 .5058594 .059570314 .5097656 .059570314 .51416018 .059814454 .51904299 .060302736 .5239258 .060791017 .5291341 .061523439 .53466799 .0625V-.0028076173C.5209961-.00676473 .5105794-.009236653 .50341799-.010223389 .4962565-.011220296 .48649089-.01171875 .4741211-.01171875 .44384767-.01171875 .421875-.0009104411 .40820313 .020706177 .40104167 .032170614 .3959961 .048380536 .3930664 .06933594 .37516276 .045633954 .34944663 .025060019 .31591798 .0076141359 .2823893-.009831746 .2454427-.018554688 .20507813-.018554688 .15657552-.018554688 .11694336-.0037790936 .08618164 .025772095 .055419923 .055323285 .040039064 .092300418 .040039064 .13670349 .040039064 .18535869 .05517578 .22307332 .08544922 .24984741 .115722659 .2766215 .1554362 .29311119 .20458985 .2993164L.34472657 .31689454M.27197267 .5361328V.5361328Z"/>
<path id="font_1_13" d="M.064453128 .5205078H.1538086V0H.064453128V.5205078M.064453128 .71777346H.1538086V.61816409H.064453128V.71777346Z"/>
<path id="font_1_16" d="M.064453128 .5234375H.14794922V.44921876C.1726888 .47981773 .19889324 .50179037 .2265625 .5151367 .25423179 .5284831 .2849935 .53515627 .31884767 .53515627 .3930664 .53515627 .44319663 .5092519 .46923829 .45744325 .4835612 .42910258 .49072267 .38853965 .49072267 .3357544V0H.4013672V.3299408C.4013672 .36188255 .39664714 .38762919 .38720704 .4071808 .37158204 .4397634 .34326173 .4560547 .3022461 .4560547 .28141276 .4560547 .2643229 .4539388 .25097657 .44970704 .22688802 .4425354 .20572917 .42819724 .1875 .4066925 .17285156 .38941957 .16333008 .37157694 .15893555 .35316468 .15454102 .3347524 .15234375 .30844117 .15234375 .27423097V0H.064453128V.5234375M.2709961 .5361328V.5361328Z"/>
<path id="font_1_15" d="M.064453128 .5234375H.15136719V.44921876C.17220052 .4749349 .19108074 .49365235 .20800781 .5053711 .23697917 .52522787 .26985679 .53515627 .30664063 .53515627 .34830729 .53515627 .38183595 .52490237 .40722657 .50439456 .42154948 .49267579 .4345703 .4754232 .44628907 .45263673 .4658203 .4806315 .48876954 .5013835 .5151367 .5148926 .5415039 .5284017 .5711263 .53515627 .6040039 .53515627 .6743164 .53515627 .72216799 .5097402 .7475586 .45890809 .76123049 .43154399 .7680664 .3947296 .7680664 .34846498V0H.6767578V.36367799C.6767578 .39853923 .6680501 .42248536 .65063479 .43551637 .6332194 .44855754 .6119792 .45507813 .58691409 .45507813 .5524089 .45507813 .5227051 .44350688 .49780274 .42036439 .4729004 .39723207 .46044923 .35861717 .46044923 .30451966V0H.37109376V.3416748C.37109376 .37719728 .36686198 .4031016 .35839845 .41938783 .3450521 .4438324 .32014976 .4560547 .2836914 .4560547 .25048829 .4560547 .22029622 .44318138 .19311524 .4174347 .16593425 .3916982 .15234375 .34510295 .15234375 .27764894V0H.064453128V.5234375Z"/>
<path id="font_1_23" d="M.39111329 .5234375H.48828126C.47591148 .48987834 .44840495 .41330973 .40576173 .2937317 .3738607 .20380657 .34716798 .13049825 .3256836 .07380676 .27490235-.059921266 .23909505-.14145915 .21826172-.17080689 .19742839-.2001648 .1616211-.21484375 .110839847-.21484375 .098470058-.21484375 .08894857-.21435039 .08227539-.21336365 .07560221-.21238709 .06738281-.21058655 .057617189-.20796204V-.1274414C.072916667-.13167317 .083984378-.13427735 .09082031-.1352539 .09765625-.13623047 .10367838-.13671875 .10888672-.13671875 .12516277-.13671875 .13712566-.1340332 .14477539-.12866211 .15242513-.123291019 .15885417-.11669922 .1640625-.10888672 .16569011-.106282558 .17154949-.092936199 .18164063-.068847659 .19173177-.044759115 .19905599-.026855469 .20361328-.015136719L.010253906 .5234375H.10986328L.25 .09727478 .39111329 .5234375M.24951172 .5361328V.5361328Z"/>
<path id="font_1_4" d="M.09814453 .71777346H.19628906V0H.09814453V.71777346Z"/>
<path id="font_1_2" d="M.22753906 .71777346H.3017578L.07421875 0H0L.22753906 .71777346Z"/>
<path id="font_1_6" d="M.3857422 .7373047C.5123698 .7373047 .6061198 .6965637 .6669922 .6150818 .71451827 .55152389 .73828127 .47019959 .73828127 .371109 .73828127 .2638804 .7111003 .17473857 .6567383 .10368347 .5929362 .020238242 .5019531-.021484375 .38378907-.021484375 .2734375-.021484375 .1866862 .015019734 .123535159 .088027957 .067220058 .158432 .0390625 .24741619 .0390625 .35498048 .0390625 .45210777 .06315104 .53522238 .111328128 .60432437 .17317708 .6929779 .26464845 .7373047 .3857422 .7373047M.3955078 .06542969C.48111979 .06542969 .5430501 .09613546 .5812988 .157547 .61954757 .21895854 .6386719 .2895762 .6386719 .36940003 .6386719 .45378114 .61661788 .5217082 .57250979 .57318118 .5284017 .6246541 .46809898 .6503906 .39160157 .6503906 .3173828 .6503906 .25683595 .62489828 .20996094 .5739136 .16308594 .5229289 .13964844 .4477488 .13964844 .3483734 .13964844 .26888529 .15974935 .20185344 .19995117 .14727783 .240153 .0927124 .30533854 .06542969 .3955078 .06542969M.38867188 .7373047V.7373047Z"/>
<path id="font_1_11" d="M.12011719 .2553711C.12011719 .19923909 .1319987 .15224712 .15576172 .11439514 .17952474 .076543178 .21761067 .057617189 .27001954 .057617189 .31070964 .057617189 .3441569 .075154628 .37036134 .11022949 .39656578 .14531453 .40966798 .19565328 .40966798 .26124574 .40966798 .32748924 .39615885 .37651573 .36914063 .4083252 .3421224 .44014488 .3087565 .4560547 .26904298 .4560547 .22477214 .4560547 .18888347 .4390869 .16137696 .40515138 .13387044 .37121583 .12011719 .32128907 .12011719 .2553711M.2524414 .53222659C.29248048 .53222659 .32600913 .52381899 .35302735 .5070038 .36865235 .4972992 .38639323 .48031617 .40625 .4560547V.71875H.49072267V0H.4116211V.07229614C.39111329 .04023234 .36686198 .017074585 .3388672 .002822876 .3108724-.011428833 .2788086-.018554688 .24267578-.018554688 .18440755-.018554688 .13395183 .0059407555 .091308597 .05493164 .048665365 .10392252 .02734375 .16910808 .02734375 .25048829 .02734375 .32666017 .04679362 .39265953 .08569336 .44848634 .1245931 .5043132 .18017578 .53222659 .2524414 .53222659Z"/>
<path id="font_1_22" d="M.107421878 .5234375 .24707031 .09725952 .3930664 .5234375H.4892578L.2919922 0H.19824219L.0053710939 .5234375H.107421878Z"/>
<clipPath id="clip_3">
<path transform="matrix(1,0,0,-1,-80.067,550.166)" d="M36 36H756V576H36Z"/>
</clipPath>
<clipPath id="clip_4">
<path transform="matrix(1,0,0,-1,-80.067,550.166)" d="M36 36H756V576H36Z"/>
</clipPath>
<path id="font_1_3" d="M.08544922 .71777346H.5830078V.6298828H.18261719V.41210938H.53466799V.32617188H.18261719V0H.08544922V.71777346Z"/>
<path id="font_1_14" d="M.06689453 .71777346H.15478516V0H.06689453V.71777346Z"/>
<clipPath id="clip_5">
<path transform="matrix(1,0,0,-1,-80.067,550.166)" d="M36 36H756V576H36Z"/>
</clipPath>
<path id="font_1_8" d="M.1328125 .71777346 .3388672 .10652161 .54248049 .71777346H.6513672L.38964845 0H.2866211L.025390625 .71777346H.1328125Z"/>
<path id="font_1_20" d="M.08203125 .66796877H.17089844V.5234375H.25439454V.4501953H.17089844V.110183719C.17089844 .09202576 .17708333 .07986959 .18945313 .07371521 .19628906 .07014465 .2076823 .068359378 .22363281 .068359378 .22786458 .068359378 .23242188 .06846619 .23730469 .06867981 .2421875 .0689036 .24788411 .06944784 .25439454 .0703125V0C.24430339-.0031026204 .23380535-.005340576 .22290039-.006713867 .21199544-.008097331 .20019531-.0087890629 .1875-.0087890629 .14648438-.0087890629 .118652347 .0016988119 .104003909 .02267456 .08935547 .04365031 .08203125 .070882167 .08203125 .10437012V.4501953H.011230469V.5234375H.08203125V.66796877Z"/>
<path id="font_1_21" d="M.15234375 .5234375V.17590332C.15234375 .1491801 .15657552 .12734477 .16503906 .11039734 .18066406 .07911682 .20979817 .06347656 .2524414 .06347656 .3136393 .06347656 .355306 .09085083 .3774414 .14559937 .3894857 .17492676 .3955078 .21516927 .3955078 .2663269V.5234375H.48339845V0H.40039063L.4013672 .0771637C.38997398 .057195028 .3758138 .040339155 .35888673 .02659607 .32535807-.00090026858 .28466798-.0146484379 .2368164-.0146484379 .16227214-.0146484379 .11149088 .010299683 .084472659 .060195924 .06982422 .08693949 .0625 .12265015 .0625 .16732788V.5234375H.15234375M.27294923 .5361328V.5361328Z"/>
</defs>
<g clip-path="url(#clip_0)">
<path transform="matrix(1,0,0,-1,-80.067,550.166)" d="M36 36H756V576H36Z" fill="#ffffff"/>
<path transform="matrix(1,0,0,-1,3.9329987,142.16602)" stroke-width="1" stroke-linecap="butt" stroke-miterlimit="8" stroke-linejoin="miter" fill="none" stroke="#000000" d="M0 0H132V-30H0Z"/>
<use data-text="P" xlink:href="#font_1_7" transform="matrix(16,0,0,-16,34.132997,163.56601)"/>
<use data-text="r" xlink:href="#font_1_18" transform="matrix(16,0,0,-16,44.804994,163.56601)"/>
<use data-text="o" xlink:href="#font_1_17" transform="matrix(16,0,0,-16,50.132997,163.56601)"/>
<use data-text="c" xlink:href="#font_1_10" transform="matrix(16,0,0,-16,59.02899,163.56601)"/>
<use data-text="e" xlink:href="#font_1_12" transform="matrix(16,0,0,-16,67.02899,163.56601)"/>
<use data-text="s" xlink:href="#font_1_19" transform="matrix(16,0,0,-16,75.92499,163.56601)"/>
<use data-text="s" xlink:href="#font_1_19" transform="matrix(16,0,0,-16,83.92499,163.56601)"/>
<use data-text="o" xlink:href="#font_1_17" transform="matrix(16,0,0,-16,91.92499,163.56601)"/>
<use data-text="r" xlink:href="#font_1_18" transform="matrix(16,0,0,-16,100.820987,163.56601)"/>
<use data-text=" " xlink:href="#font_1_1" transform="matrix(16,0,0,-16,106.14899,163.56601)"/>
<use data-text="&#xfffd;" xlink:href="#font_2_1" transform="matrix(16,0,0,-16,110.596988,163.56601)"/>
<path transform="matrix(1,0,0,-1,135.933,142.16602)" stroke-width="1" stroke-linecap="butt" stroke-miterlimit="8" stroke-linejoin="miter" fill="none" stroke="#000000" d="M0 0H132V-30H0Z"/>
<use data-text="M" xlink:href="#font_1_5" transform="matrix(16,0,0,-16,153.133,163.56601)"/>
<use data-text="a" xlink:href="#font_1_9" transform="matrix(16,0,0,-16,166.461,163.56601)"/>
<use data-text="i" xlink:href="#font_1_13" transform="matrix(16,0,0,-16,175.357,163.56601)"/>
<use data-text="n" xlink:href="#font_1_16" transform="matrix(16,0,0,-16,178.90898,163.56601)"/>
<use data-text=" " xlink:href="#font_1_1" transform="matrix(16,0,0,-16,187.80498,163.56601)"/>
<use data-text="m" xlink:href="#font_1_15" transform="matrix(16,0,0,-16,192.25298,163.56601)"/>
<use data-text="e" xlink:href="#font_1_12" transform="matrix(16,0,0,-16,205.58098,163.56601)"/>
<use data-text="m" xlink:href="#font_1_15" transform="matrix(16,0,0,-16,214.47698,163.56601)"/>
<use data-text="o" xlink:href="#font_1_17" transform="matrix(16,0,0,-16,227.80498,163.56601)"/>
<use data-text="r" xlink:href="#font_1_18" transform="matrix(16,0,0,-16,236.70098,163.56601)"/>
<use data-text="y" xlink:href="#font_1_23" transform="matrix(16,0,0,-16,242.02898,163.56601)"/>
<use data-text="&#xfffd;" xlink:href="#font_2_1" transform="matrix(16,0,0,-16,250.02898,163.56601)"/>
<path transform="matrix(1,0,0,-1,267.93293,142.16602)" stroke-width="1" stroke-linecap="butt" stroke-miterlimit="8" stroke-linejoin="miter" fill="none" stroke="#000000" d="M0 0H132V-30H0Z"/>
<use data-text="I" xlink:href="#font_1_4" transform="matrix(16,0,0,-16,294.133,163.56601)"/>
<use data-text="/" xlink:href="#font_1_2" transform="matrix(16,0,0,-16,298.581,163.56601)"/>
<use data-text="O" xlink:href="#font_1_6" transform="matrix(16,0,0,-16,303.029,163.56601)"/>
<use data-text=" " xlink:href="#font_1_1" transform="matrix(16,0,0,-16,315.477,163.56601)"/>
<use data-text="d" xlink:href="#font_1_11" transform="matrix(16,0,0,-16,319.925,163.56601)"/>
<use data-text="e" xlink:href="#font_1_12" transform="matrix(16,0,0,-16,328.82099,163.56601)"/>
<use data-text="v" xlink:href="#font_1_22" transform="matrix(16,0,0,-16,337.71699,163.56601)"/>
<use data-text="i" xlink:href="#font_1_13" transform="matrix(16,0,0,-16,345.71699,163.56601)"/>
<use data-text="c" xlink:href="#font_1_10" transform="matrix(16,0,0,-16,349.26899,163.56601)"/>
<use data-text="e" xlink:href="#font_1_12" transform="matrix(16,0,0,-16,357.26899,163.56601)"/>
<use data-text="s" xlink:href="#font_1_19" transform="matrix(16,0,0,-16,366.16499,163.56601)"/>
<use data-text="&#xfffd;" xlink:href="#font_2_1" transform="matrix(16,0,0,-16,374.16499,163.56601)"/>
<g clip-path="url(#clip_3)">
<path transform="matrix(1,0,0,-1,3.9329987,41.416109)" stroke-width="1" stroke-linecap="butt" stroke-linejoin="round" fill="none" stroke="#000000" d="M0 0C0 4.971 14.775 9 33 9H165C183.225 9 198 13.029 198 18 198 13.029 212.774 9 231 9H363C381.225 9 396 4.971 396 0"/>
</g>
<use data-text="P" xlink:href="#font_1_7" transform="matrix(16,0,0,-16,164.883,17.816102)"/>
<use data-text="r" xlink:href="#font_1_18" transform="matrix(16,0,0,-16,175.555,17.816102)"/>
<use data-text="o" xlink:href="#font_1_17" transform="matrix(16,0,0,-16,180.88298,17.816102)"/>
<use data-text="c" xlink:href="#font_1_10" transform="matrix(16,0,0,-16,189.77898,17.816102)"/>
<use data-text="e" xlink:href="#font_1_12" transform="matrix(16,0,0,-16,197.77898,17.816102)"/>
<use data-text="s" xlink:href="#font_1_19" transform="matrix(16,0,0,-16,206.67498,17.816102)"/>
<use data-text="s" xlink:href="#font_1_19" transform="matrix(16,0,0,-16,214.67498,17.816102)"/>
<use data-text="e" xlink:href="#font_1_12" transform="matrix(16,0,0,-16,222.67498,17.816102)"/>
<use data-text="s" xlink:href="#font_1_19" transform="matrix(16,0,0,-16,231.57097,17.816102)"/>
<use data-text="&#xfffd;" xlink:href="#font_2_1" transform="matrix(16,0,0,-16,239.57097,17.816102)"/>
<g clip-path="url(#clip_4)">
<path transform="matrix(1,0,0,-1,399.93293,136.16602)" stroke-width="1" stroke-linecap="butt" stroke-linejoin="round" fill="none" stroke="#000000" d="M0 0C0 4.971-4.925 9-11 9H-55C-61.075 9-66 13.029-66 18-66 13.029-70.925 9-77 9H-121C-127.075 9-132 4.971-132 0"/>
</g>
<use data-text="F" xlink:href="#font_1_3" transform="matrix(16,0,0,-16,320.508,111.3161)"/>
<use data-text="i" xlink:href="#font_1_13" transform="matrix(16,0,0,-16,330.284,111.3161)"/>
<use data-text="l" xlink:href="#font_1_14" transform="matrix(16,0,0,-16,333.836,111.3161)"/>
<use data-text="e" xlink:href="#font_1_12" transform="matrix(16,0,0,-16,337.388,111.3161)"/>
<use data-text="s" xlink:href="#font_1_19" transform="matrix(16,0,0,-16,346.284,111.3161)"/>
<use data-text="&#xfffd;" xlink:href="#font_2_1" transform="matrix(16,0,0,-16,354.284,111.3161)"/>
<g clip-path="url(#clip_5)">
<path transform="matrix(1,0,0,-1,135.933,94.166019)" stroke-width="1" stroke-linecap="butt" stroke-linejoin="round" fill="none" stroke="#000000" d="M0 0C0 6.627 9.85 12 22 12H110C122.15 12 132 17.373 132 24 132 17.373 141.85 12 154 12H242C254.15 12 264 6.627 264 0"/>
</g>
<use data-text="V" xlink:href="#font_1_8" transform="matrix(16,0,0,-16,213.88301,65.8161)"/>
<use data-text="i" xlink:href="#font_1_13" transform="matrix(16,0,0,-16,224.26702,65.8161)"/>
<use data-text="r" xlink:href="#font_1_18" transform="matrix(16,0,0,-16,227.81902,65.8161)"/>
<use data-text="t" xlink:href="#font_1_20" transform="matrix(16,0,0,-16,233.14702,65.8161)"/>
<use data-text="u" xlink:href="#font_1_21" transform="matrix(16,0,0,-16,237.59502,65.8161)"/>
<use data-text="a" xlink:href="#font_1_9" transform="matrix(16,0,0,-16,246.49102,65.8161)"/>
<use data-text="l" xlink:href="#font_1_14" transform="matrix(16,0,0,-16,255.38701,65.8161)"/>
<use data-text=" " xlink:href="#font_1_1" transform="matrix(16,0,0,-16,258.93904,65.8161)"/>
<use data-text="m" xlink:href="#font_1_15" transform="matrix(16,0,0,-16,263.38703,65.8161)"/>
<use data-text="e" xlink:href="#font_1_12" transform="matrix(16,0,0,-16,276.71504,65.8161)"/>
<use data-text="m" xlink:href="#font_1_15" transform="matrix(16,0,0,-16,285.61103,65.8161)"/>
<use data-text="o" xlink:href="#font_1_17" transform="matrix(16,0,0,-16,298.93904,65.8161)"/>
<use data-text="r" xlink:href="#font_1_18" transform="matrix(16,0,0,-16,307.83503,65.8161)"/>
<use data-text="y" xlink:href="#font_1_23" transform="matrix(16,0,0,-16,313.16304,65.8161)"/>
<use data-text="&#xfffd;" xlink:href="#font_2_1" transform="matrix(16,0,0,-16,321.16304,65.8161)"/>
<path transform="matrix(1,0,0,-1,3.9329987,142.16602)" stroke-width="1" stroke-linecap="butt" stroke-dasharray="4,3" stroke-linejoin="round" fill="none" stroke="#000000" d="M0 0V102"/>
<path transform="matrix(1,0,0,-1,399.93293,142.16602)" stroke-width="1" stroke-linecap="butt" stroke-dasharray="4,3" stroke-linejoin="round" fill="none" stroke="#000000" d="M0 0V102"/>
<path transform="matrix(1,0,0,-1,135.933,142.16602)" stroke-width="1" stroke-linecap="butt" stroke-dasharray="4,3" stroke-linejoin="round" fill="none" stroke="#000000" d="M0 0V48"/>
</g>
</svg>
