<svg xmlns="http://www.w3.org/2000/svg" xmlns:xlink="http://www.w3.org/1999/xlink" version="1.1" width="662.7323pt" height="139.52298pt" viewBox="0 0 662.7323 139.52298">
<defs>
<clipPath id="clip_0">
<path transform="matrix(1,0,0,-1,-28.5387,569.985)" d="M28.5387 430.462H691.271V569.985H28.5387Z" fill-rule="evenodd"/>
</clipPath>
<path id="font_1_8" d="M.08544922 .71777346H.40820313C.47200523 .71777346 .5234375 .6997884 .5625 .66381838 .6015625 .6278483 .62109377 .5773112 .62109377 .51220706 .62109377 .45621745 .6036784 .4074707 .56884768 .3659668 .5340169 .3244629 .48046876 .30371095 .40820313 .30371095H.18261719V0H.08544922V.71777346M.5229492 .5114746C.5229492 .56410726 .50341799 .5998433 .46435548 .61868289 .4428711 .62875369 .41341148 .63378909 .37597657 .63378909H.18261719V.3857422H.37597657C.41959635 .3857422 .45499674 .39499919 .48217774 .41351319 .5093587 .43203736 .5229492 .46469117 .5229492 .5114746Z"/>
<path id="font_1_19" d="M.06689453 .5234375H.15039063V.4326172C.15722656 .4502767 .17399089 .4717814 .2006836 .49713136 .2273763 .52248129 .25813804 .53515627 .29296876 .53515627 .29459635 .53515627 .29736329 .5349579 .30126954 .53456118 .30517579 .5341746 .31184898 .5333964 .32128907 .53222659V.43945313C.31608073 .44062297 .3112793 .44140116 .30688478 .44178773 .30249024 .44218446 .2976888 .4423828 .29248048 .4423828 .24820964 .4423828 .2141927 .4280599 .19042969 .39941407 .16666667 .37076823 .15478516 .33789063 .15478516 .30078126V0H.06689453V.5234375Z"/>
<path id="font_1_11" d="M.28222657 .53515627C.31933595 .53515627 .355306 .52644857 .39013673 .5090332 .42496745 .49161784 .4514974 .4690806 .46972657 .4414215 .4873047 .41505433 .49902345 .3842977 .5048828 .3491516 .5100911 .32506309 .5126953 .28647868 .5126953 .23339844H.12939453C.13102214 .18033855 .14355469 .13777669 .16699219 .10571289 .19042969 .073649089 .22672527 .057617189 .2758789 .057617189 .32177735 .057617189 .35839845 .07261658 .3857422 .10261536 .4013672 .12003072 .4124349 .14018758 .4189453 .16308594H.5053711C.50309249 .14398194 .49552409 .122690837 .48266603 .09921265 .46980796 .07574463 .45540367 .05656433 .43945313 .041671754 .4127604 .01576233 .37972007-.0017242432 .34033204-.010787964 .3191732-.01596578 .2952474-.018554688 .2685547-.018554688 .20345052-.018554688 .14827474 .0051472985 .103027347 .05255127 .05777995 .09995524 .03515625 .16634114 .03515625 .25170899 .03515625 .33576457 .057942708 .40401713 .103515628 .45646668 .14908855 .5089264 .20865886 .53515627 .28222657 .53515627M.42236329 .30371095C.41878257 .34191896 .41048179 .37245179 .39746095 .39530946 .3733724 .4377594 .33317057 .45898438 .27685548 .45898438 .23649089 .45898438 .20263672 .44437156 .17529297 .41514588 .14794922 .3859202 .13346355 .34877525 .13183594 .30371095H.42236329M.27392579 .5361328V.5361328Z"/>
<path id="font_1_4" d="M.041503908 .32421876H.2866211V.23339844H.041503908V.32421876Z"/>
<path id="font_2_1" d="M0 0Z"/>
<path id="font_1_18" d="M.28515626 .057617189C.32617188 .057617189 .36027018 .07486979 .38745118 .109375 .41463218 .14389038 .42822267 .1954956 .42822267 .26419068 .42822267 .3060608 .42220054 .34204103 .41015626 .37213136 .38736979 .43003337 .34570313 .45898438 .28515626 .45898438 .22428386 .45898438 .18261719 .42840068 .16015625 .36723329 .14811199 .33451844 .14208985 .29297386 .14208985 .24259949 .14208985 .20204163 .14811199 .16753133 .16015625 .1390686 .1829427 .08476766 .22460938 .057617189 .28515626 .057617189M.057617189 .5205078H.1430664V.45162965C.16064453 .47540284 .17985027 .49379985 .2006836 .5068207 .23030599 .5263621 .26513673 .5361328 .30517579 .5361328 .36442057 .5361328 .41471354 .5133667 .4560547 .46783448 .49739585 .42230226 .5180664 .3572693 .5180664 .2727356 .5180664 .1585083 .48828126 .07691447 .42871095 .027954102 .39095054-.0030517579 .34700523-.018554688 .296875-.018554688 .25748698-.018554688 .22444661-.009984334 .1977539 .007156372 .1821289 .016860962 .16471355 .033518476 .14550781 .057128908V-.20898438H.057617189V.5205078Z"/>
<path id="font_1_17" d="M.27197267 .057617189C.33024089 .057617189 .37019859 .07964579 .3918457 .123703 .41349284 .16776021 .4243164 .21677144 .4243164 .2707367 .4243164 .31950379 .4165039 .35917155 .4008789 .38974 .3761393 .43785606 .3334961 .46191407 .27294923 .46191407 .21923828 .46191407 .18017578 .44143168 .15576172 .40046693 .13134766 .35950218 .119140628 .31008403 .119140628 .25221253 .119140628 .1966095 .13134766 .15027364 .15576172 .113204959 .18017578 .076146449 .21891277 .057617189 .27197267 .057617189M.27539063 .53808596C.34277345 .53808596 .3997396 .5156453 .44628907 .47076417 .49283854 .42588298 .5161133 .35985819 .5161133 .27268983 .5161133 .1884613 .49560548 .11886088 .45458985 .06388855 .41357423 .008926392 .3499349-.018554688 .26367188-.018554688 .19173177-.018554688 .13460286 .00575765 .092285159 .054382326 .04996745 .103006999 .028808594 .16829936 .028808594 .2502594 .028808594 .33806864 .05110677 .4079895 .095703128 .46002198 .14029949 .51206466 .20019531 .53808596 .27539063 .53808596M.27246095 .5361328V.5361328Z"/>
<path id="font_1_10" d="M.26611329 .53808596C.32503257 .53808596 .37296549 .5237274 .4099121 .49501039 .44685874 .46629334 .46907554 .41684977 .4765625 .3466797H.39111329C.38590495 .37890626 .37402345 .40568034 .35546876 .42700196 .33691407 .44832359 .3071289 .45898438 .26611329 .45898438 .2101237 .45898438 .17008464 .43170677 .1459961 .3771515 .1303711 .34176127 .122558597 .29808555 .122558597 .24612427 .122558597 .19384766 .1336263 .14984639 .15576172 .11412048 .17789714 .07840475 .21272786 .060546876 .2602539 .060546876 .29671226 .060546876 .3256022 .0716095 .34692384 .09373474 .36824546 .115859989 .38297526 .1461385 .39111329 .18457031H.4765625C.46679688 .115234378 .4423828 .06453451 .4033203 .032470704 .3642578 .00040690104 .31429038-.015625 .25341798-.015625 .1850586-.015625 .13053386 .009379069 .08984375 .059387208 .049153646 .10940552 .028808594 .17188008 .028808594 .24681092 .028808594 .33868919 .05110677 .41020204 .095703128 .4613495 .14029949 .51250717 .19710286 .53808596 .26611329 .53808596M.2524414 .5361328V.5361328Z"/>
<path id="font_1_20" d="M.11669922 .1640625C.11930338 .13463338 .12662761 .11207072 .13867188 .09637451 .1608073 .06793213 .19921875 .053710939 .25390626 .053710939 .28645835 .053710939 .31510417 .060806276 .33984376 .07499695 .36458335 .08919779 .37695313 .11115011 .37695313 .14085388 .37695313 .16337586 .36702476 .18051148 .34716798 .19226074 .33447267 .19944255 .30940757 .20775859 .27197267 .21720886L.20214844 .2348175C.15755208 .24590557 .12467448 .25829569 .103515628 .27198792 .06575521 .29579164 .046875 .32873027 .046875 .37080384 .046875 .42036439 .064697269 .46046958 .1003418 .49111939 .13598633 .52177938 .18391927 .5371094 .24414063 .5371094 .32291667 .5371094 .37972007 .5139974 .41455079 .46777345 .4363607 .43847657 .4469401 .40690104 .44628907 .37304688H.36328126C.36165367 .39269004 .35465495 .41055808 .34228517 .426651 .32210288 .44950868 .28710938 .4609375 .23730469 .4609375 .20410156 .4609375 .17895508 .45461528 .16186524 .44197084 .14477539 .42933656 .13623047 .41264854 .13623047 .39190675 .13623047 .36922203 .14746094 .35107423 .16992188 .33746339 .1829427 .32936607 .20214844 .32221986 .22753906 .31602479L.28564454 .3018341C.34879557 .28650413 .39111329 .27166749 .41259767 .25732423 .44677735 .23482259 .4638672 .19944255 .4638672 .15118408 .4638672 .10455322 .44620768 .06428019 .41088868 .03036499 .37556968-.0035502117 .32177735-.020507813 .24951172-.020507813 .17171224-.020507813 .116617839-.002802531 .084228519 .032608034 .05183919 .06801859 .034505208 .111836757 .032226564 .1640625H.11669922M.24658203 .5361328V.5361328Z"/>
<path id="font_1_2" d="M.29589845 .7294922C.24479167 .6301575 .21158855 .55703738 .19628906 .51013186 .17317708 .43881227 .1616211 .3564148 .1616211 .26293946 .1616211 .16848755 .17480469 .08217875 .20117188 .0040130617 .21744792-.044184369 .24951172-.11355591 .29736329-.20410156H.23828125C.1907552-.12984212 .16129558-.08245341 .14990235-.061935426 .13850911-.04141744 .12613933-.013570149 .11279297 .021606446 .094563808 .06980387 .08186849 .1212616 .07470703 .17597962 .071126308 .2043101 .06933594 .23134358 .06933594 .25708009 .06933594 .3534851 .084472659 .43930564 .114746097 .5145416 .13395183 .5624135 .17399089 .6340637 .23486328 .7294922H.29589845Z"/>
<path id="font_3_5" d="M.4711914 .38275147V.396286C.4711914 .40627543 .47314454 .4133606 .47705079 .4175415 .48095704 .42173258 .48583985 .42382813 .49169923 .42382813 .49788413 .42382813 .5029297 .42171226 .50683596 .41748048 .5107422 .4132487 .5126953 .40608726 .5126953 .3959961V.30322267C.5123698 .2931315 .51033529 .28597007 .5065918 .28173829 .5028483 .2775065 .49788413 .27539063 .49169923 .27539063 .48616538 .27539063 .4815267 .27726747 .4777832 .28102113 .4740397 .28478495 .47184245 .29108177 .4711914 .2999115 .46923829 .32311503 .45402018 .34517417 .4255371 .36608888 .39705406 .38700358 .35872398 .39746095 .31054688 .39746095 .24967449 .39746095 .20345052 .3783671 .171875 .34017945 .14029949 .3019918 .12451172 .2582601 .12451172 .20898438 .12451172 .15578206 .14192708 .11188253 .17675781 .07728577 .21158855 .042689008 .2566732 .025390625 .31201173 .025390625 .34391276 .025390625 .37638346 .03131612 .40942384 .043167116 .4424642 .05502828 .47233073 .074132289 .49902345 .100479129 .5058594 .10706075 .51188156 .11035156 .51708987 .11035156 .5226237 .11035156 .5272624 .10846456 .53100588 .10469055 .5347493 .10091654 .5366211 .09624227 .5366211 .090667728 .5366211 .07655843 .5201823 .058680219 .4873047 .03703308 .43424479 .0019276937 .37516276-.015625 .3100586-.015625 .24397786-.015625 .18969727 .005472819 .1472168 .047668458 .10473633 .08987427 .083496097 .1434021 .083496097 .20825196 .083496097 .2744039 .10522461 .3293101 .14868164 .37297059 .19213867 .41664125 .24690755 .43847657 .31298829 .43847657 .3758138 .43847657 .4285482 .41990153 .4711914 .38275147Z"/>
<path id="font_3_14" d="M.14550781 .42382813V.349411C.16992188 .37894187 .1961263 .40116883 .2241211 .41609193 .25211589 .431015 .28515626 .43847657 .3232422 .43847657 .36360679 .43847657 .4008789 .42902629 .4350586 .41012574 .46923829 .3912252 .49568687 .36490885 .5144043 .33117677 .53312179 .29744468 .54248049 .26200358 .54248049 .22485352 .54248049 .16586304 .521403 .11542765 .47924806 .07354736 .4370931 .031677247 .3852539 .0107421879 .32373048 .0107421879 .25048829 .0107421879 .19108074 .040430707 .14550781 .09980774V-.14746094H.24511719C.2548828-.14746094 .2618815-.14933269 .26611329-.15307617 .27034507-.15681966 .27246095-.16178386 .27246095-.16796875 .27246095-.17382813 .27034507-.17871094 .26611329-.18261719 .2618815-.18652344 .2548828-.18847656 .24511719-.18847656H.049316408C.03955078-.18847656 .032552083-.18660482 .028320313-.18286133 .024088541-.17911785 .021972657-.17415364 .021972657-.16796875 .021972657-.16178386 .024088541-.15681966 .028320313-.15307617 .032552083-.14933269 .03955078-.14746094 .049316408-.14746094H.10449219V.3828125H.049316408C.03955078 .3828125 .032552083 .38476563 .028320313 .38867188 .024088541 .39257813 .021972657 .3976237 .021972657 .4038086 .021972657 .40952555 .024088541 .41429139 .028320313 .41810609 .032552083 .42192079 .03955078 .42382813 .049316408 .42382813H.14550781M.50097659 .22485352C.50097659 .27225749 .48380534 .31287638 .4494629 .3467102 .41512046 .38054405 .37320964 .39746095 .32373048 .39746095 .27392579 .39746095 .23177083 .38046266 .19726563 .34646607 .16276042 .31246949 .14550781 .27193199 .14550781 .22485352 .14550781 .17744954 .16276042 .13674927 .19726563 .102752689 .23177083 .0687561 .27392579 .051757814 .32373048 .051757814 .37288413 .051757814 .41471354 .06867472 .44921876 .102508548 .48372398 .13634236 .50097659 .17712403 .50097659 .22485352Z"/>
<path id="font_1_3" d="M.03466797-.20410156C.08642578-.103139247 .119791667-.029530844 .13476563 .016723633 .15755208 .08674113 .16894531 .16881307 .16894531 .26293946 .16894531 .35706584 .15576172 .44321189 .12939453 .52137759 .11311849 .569575 .08105469 .63894656 .033203126 .7294922H.092285159C.14241536 .64937338 .17277019 .59995016 .18334961 .58122256 .19392903 .56249496 .20540364 .5366821 .21777344 .5037842 .23339844 .46307374 .24454753 .42285157 .2512207 .38311769 .2578939 .3433838 .26123048 .30511476 .26123048 .26831056 .26123048 .17190552 .24593099 .08592224 .21533203 .010360718 .1961263-.03816223 .15625-.10964966 .095703128-.20410156H.03466797Z"/>
<path id="font_3_9" d="M.16503906 .61328127V.36123658C.19108074 .3895874 .21606446 .4095459 .23999024 .42111207 .26391603 .4326884 .2906901 .43847657 .3203125 .43847657 .35221354 .43847657 .37931315 .43284608 .40161134 .42158509 .42390953 .41033427 .44254557 .39304099 .45751954 .3697052 .4724935 .34636943 .47998048 .32181297 .47998048 .29603578V.041015626H.5258789C.53597006 .041015626 .5430501 .03914388 .54711917 .03540039 .5511882 .031656904 .55322268 .026692709 .55322268 .020507813 .55322268 .0146484379 .5511882 .009765625 .54711917 .005859375 .5430501 .001953125 .53597006 0 .5258789 0H.39257813C.38248698 0 .37532554 .001953125 .37109376 .005859375 .36686198 .009765625 .3647461 .0146484379 .3647461 .020507813 .3647461 .026692709 .36686198 .031656904 .37109376 .03540039 .37532554 .03914388 .38248698 .041015626 .39257813 .041015626H.43847657V.2931671C.43847657 .32287089 .42781578 .3476766 .40649415 .36758424 .38517253 .38750205 .35546876 .39746095 .3173828 .39746095 .2874349 .39746095 .2618815 .39012147 .24072266 .3754425 .22542317 .36499534 .20019531 .34035746 .16503906 .30152894V.041015626H.21142578C.2211914 .041015626 .22819011 .03914388 .23242188 .03540039 .23665364 .031656904 .23876953 .026692709 .23876953 .020507813 .23876953 .0146484379 .23665364 .009765625 .23242188 .005859375 .22819011 .001953125 .2211914 0 .21142578 0H.07763672C.067871097 0 .060872396 .001953125 .056640626 .005859375 .052408857 .009765625 .05029297 .0146484379 .05029297 .020507813 .05029297 .026692709 .052408857 .031656904 .056640626 .03540039 .060872396 .03914388 .067871097 .041015626 .07763672 .041015626H.12402344V.5722656H.068847659C.05908203 .5722656 .052083333 .574173 .047851564 .5779877 .043619794 .58180239 .041503908 .58673098 .041503908 .59277346 .041503908 .5986328 .043619794 .6035156 .047851564 .6074219 .052083333 .6113281 .05908203 .61328127 .068847659 .61328127H.16503906Z"/>
<path id="font_3_7" d="M.52197268 .20214844H.104003909C.11116537 .14908855 .13338216 .10636393 .1706543 .07397461 .20792644 .041585287 .254069 .025390625 .30908204 .025390625 .339681 .025390625 .37174479 .030436198 .40527345 .040527345 .4388021 .05061849 .46614585 .063964847 .4873047 .080566409 .4934896 .08544922 .4988607 .087890628 .50341799 .087890628 .5086263 .087890628 .5131836 .08585612 .51708987 .08178711 .5209961 .0777181 .5229492 .072916667 .5229492 .06738281 .5229492 .061848958 .52034506 .056477865 .5151367 .05126953 .49951173 .03499349 .47176109 .01977539 .43188478 .0056152346 .39200846-.008544922 .35107423-.015625 .30908204-.015625 .23876953-.015625 .1800944 .0074310305 .13305664 .05354309 .08601888 .09965515 .0625 .15546163 .0625 .22096253 .0625 .28059388 .08455404 .3317515 .12866211 .37443543 .17277019 .41712953 .2273763 .43847657 .29248048 .43847657 .35953776 .43847657 .41471354 .41653953 .4580078 .3726654 .50130209 .3287913 .5226237 .2719523 .52197268 .20214844M.48046876 .24316406C.47233073 .28884889 .45092774 .32598368 .41625978 .35456849 .3815918 .38316346 .34033204 .39746095 .29248048 .39746095 .2446289 .39746095 .20345052 .3833262 .16894531 .35505677 .13444011 .3267975 .11295573 .2894999 .10449219 .24316406H.48046876Z"/>
<path id="font_3_11" d="M.32080079 .61328127V.041015626H.4819336C.49202476 .041015626 .4991862 .03914388 .50341799 .03540039 .5076497 .031656904 .5097656 .026692709 .5097656 .020507813 .5097656 .0146484379 .5076497 .009765625 .50341799 .005859375 .4991862 .001953125 .49202476 0 .4819336 0H.118652347C.10888672 0 .10188802 .001953125 .09765625 .005859375 .09342448 .009765625 .091308597 .0146484379 .091308597 .020507813 .091308597 .026692709 .09342448 .031656904 .09765625 .03540039 .10188802 .03914388 .10888672 .041015626 .118652347 .041015626H.27978517V.5722656H.1616211C.15185547 .5722656 .14477539 .5741933 .14038086 .5780487 .13598633 .58191427 .13378906 .58690389 .13378906 .5930176 .13378906 .5988057 .13590496 .6036275 .14013672 .6074829 .14436849 .61134847 .15152996 .61328127 .1616211 .61328127H.32080079Z"/>
<path id="font_3_13" d="M.5292969 .21118164C.5292969 .14861043 .5069173 .09516398 .4621582 .050842287 .41739909 .0065307619 .363444-.015625 .30029298-.015625 .23649089-.015625 .18229167 .006612142 .13769531 .051086427 .09309896 .095570888 .07080078 .14893596 .07080078 .21118164 .07080078 .27375285 .09309896 .3272756 .13769531 .37174989 .18229167 .41623435 .23649089 .43847657 .30029298 .43847657 .363444 .43847657 .41739909 .4163157 .4621582 .37199403 .5069173 .3276825 .5292969 .27407838 .5292969 .21118164M.48779298 .21142578C.48779298 .26299034 .46948243 .30688478 .43286134 .34310914 .39624024 .37934367 .35188804 .39746095 .2998047 .39746095 .24772136 .39746095 .20336914 .3792623 .16674805 .342865 .13012696 .30647788 .111816409 .2626648 .111816409 .21142578 .111816409 .16051229 .13012696 .11677551 .16674805 .080215457 .20336914 .04366557 .24772136 .025390625 .2998047 .025390625 .35188804 .025390625 .39624024 .043584188 .43286134 .07997131 .46948243 .116368617 .48779298 .16018677 .48779298 .21142578Z"/>
<path id="font_3_2" d="M.2915039 .1171875H.30908204C.3273112 .1171875 .3429362 .11073303 .35595704 .0978241 .36897788 .08492533 .37548829 .06932577 .37548829 .05102539 .37548829 .032073976 .36889649 .01622518 .3557129 .003479004 .3425293-.009256999 .3269857-.015625 .30908204-.015625H.2915039C.27327476-.015625 .25764976-.009175618 .2446289 .0037231446 .23160808 .01663208 .22509766 .032236738 .22509766 .05053711 .22509766 .069488529 .23168946 .08533224 .24487305 .09806824 .25805665 .110814418 .27360026 .1171875 .2915039 .1171875Z"/>
<path id="font_3_10" d="M.3203125 .63378909V.5283203H.25976563V.63378909H.3203125M.32177735 .42382813V.041015626H.48291017C.4930013 .041015626 .5001628 .03914388 .50439456 .03540039 .5086263 .031656904 .5107422 .026692709 .5107422 .020507813 .5107422 .0146484379 .5086263 .009765625 .50439456 .005859375 .5001628 .001953125 .4930013 0 .48291017 0H.119628909C.10986328 0 .102864589 .001953125 .09863281 .005859375 .09440104 .009765625 .092285159 .0146484379 .092285159 .020507813 .092285159 .026692709 .09440104 .031656904 .09863281 .03540039 .102864589 .03914388 .10986328 .041015626 .119628909 .041015626H.28076173V.3828125H.16113281C.15136719 .3828125 .14428711 .3847402 .13989258 .38859559 .13549805 .39246116 .13330078 .397288 .13330078 .40307618 .13330078 .40918986 .13541667 .4141744 .13964844 .4180298 .1438802 .42189536 .15104167 .42382813 .16113281 .42382813H.32177735Z"/>
<path id="font_3_1" d="M0 0Z"/>
<path id="font_1_1" d="M0 0Z"/>
<path id="font_1_6" d="M.37841798 .7373047C.46923829 .7373047 .53971359 .71332809 .58984377 .66537478 .63997396 .61742147 .66780599 .5629476 .67333987 .5019531H.5786133C.5678711 .54817709 .5464681 .58479818 .5144043 .6118164 .48234049 .63883468 .43733726 .65234377 .37939454 .65234377 .3087565 .65234377 .25170899 .62754318 .20825196 .5779419 .16479492 .52834066 .1430664 .45231629 .1430664 .34986878 .1430664 .26594544 .16267903 .19788106 .2019043 .14567566 .24112956 .09348043 .29964195 .06738281 .3774414 .06738281 .449056 .06738281 .50358077 .094823207 .5410156 .14970398 .5608724 .17860413 .5756836 .21659343 .5854492 .26367188H.6801758C.6717122 .18815105 .64371749 .12483724 .5961914 .07373047 .5392253 .012207031 .46240235-.018554688 .36572267-.018554688 .2823893-.018554688 .21240235 .006688436 .15576172 .057174684 .081217449 .12394714 .043945314 .2270406 .043945314 .36645509 .043945314 .47232057 .0719401 .5591278 .12792969 .62687686 .18847656 .7004954 .27197267 .7373047 .37841798 .7373047M.35888673 .7373047V.7373047Z"/>
<path id="font_1_15" d="M.064453128 .5234375H.15136719V.44921876C.17220052 .4749349 .19108074 .49365235 .20800781 .5053711 .23697917 .52522787 .26985679 .53515627 .30664063 .53515627 .34830729 .53515627 .38183595 .52490237 .40722657 .50439456 .42154948 .49267579 .4345703 .4754232 .44628907 .45263673 .4658203 .4806315 .48876954 .5013835 .5151367 .5148926 .5415039 .5284017 .5711263 .53515627 .6040039 .53515627 .6743164 .53515627 .72216799 .5097402 .7475586 .45890809 .76123049 .43154399 .7680664 .3947296 .7680664 .34846498V0H.6767578V.36367799C.6767578 .39853923 .6680501 .42248536 .65063479 .43551637 .6332194 .44855754 .6119792 .45507813 .58691409 .45507813 .5524089 .45507813 .5227051 .44350688 .49780274 .42036439 .4729004 .39723207 .46044923 .35861717 .46044923 .30451966V0H.37109376V.3416748C.37109376 .37719728 .36686198 .4031016 .35839845 .41938783 .3450521 .4438324 .32014976 .4560547 .2836914 .4560547 .25048829 .4560547 .22029622 .44318138 .19311524 .4174347 .16593425 .3916982 .15234375 .34510295 .15234375 .27764894V0H.064453128V.5234375Z"/>
<path id="font_1_12" d="M.064453128 .5205078H.1538086V0H.064453128V.5205078M.064453128 .71777346H.1538086V.61816409H.064453128V.71777346Z"/>
<path id="font_1_14" d="M.06689453 .71777346H.15478516V0H.06689453V.71777346Z"/>
<path id="font_3_3" d="M.3203125 .62109377V.041015626H.4609375C.47070313 .041015626 .4777018 .03914388 .4819336 .03540039 .48616538 .031656904 .48828126 .026692709 .48828126 .020507813 .48828126 .0146484379 .48616538 .009765625 .4819336 .005859375 .4777018 .001953125 .47070313 0 .4609375 0H.13867188C.12890625 0 .121907558 .001953125 .11767578 .005859375 .11344401 .009765625 .111328128 .0146484379 .111328128 .020507813 .111328128 .026692709 .11344401 .031656904 .11767578 .03540039 .121907558 .03914388 .12890625 .041015626 .13867188 .041015626H.27929688V.5644531L.14550781 .52246096C.13899739 .5205078 .13427735 .51953127 .13134766 .51953127 .12646485 .51953127 .12198893 .52156576 .11791992 .52563479 .113850917 .5297038 .111816409 .5345052 .111816409 .54003909 .111816409 .5449219 .11344401 .5494792 .11669922 .55371096 .11930338 .5563151 .12467448 .55908206 .1328125 .5620117L.3203125 .62109377Z"/>
<path id="font_3_16" d="M.43554688 .39746095C.43554688 .40672813 .4375 .4134369 .44140626 .41758729 .4453125 .42174784 .4501953 .42382813 .4560547 .42382813 .4622396 .42382813 .46728517 .42170207 .4711914 .41744996 .47509767 .413208 .47705079 .40602113 .47705079 .39588929V.32530213C.47705079 .31549583 .47509767 .30846659 .4711914 .30421449 .46728517 .29997254 .4622396 .29785157 .4560547 .29785157 .45052085 .29785157 .44588218 .2996572 .44213868 .30326844 .43839518 .30688987 .4361979 .31281028 .43554688 .32102967 .43359376 .34075419 .4235026 .35702516 .40527345 .36984254 .37858073 .3882548 .34326173 .39746095 .2993164 .39746095 .25341798 .39746095 .21777344 .3881836 .19238281 .3696289 .17317708 .3556315 .16357422 .3400065 .16357422 .3227539 .16357422 .30322267 .17496746 .28694663 .1977539 .27392579 .2133789 .2648112 .2430013 .2578125 .2866211 .2529297 .34358726 .24672444 .38313804 .23970032 .40527345 .2318573 .43684898 .22042339 .46036784 .20457459 .47583009 .18431092 .49129234 .16405742 .49902345 .14217122 .49902345 .118652347 .49902345 .08369955 .48225913 .052581788 .44873048 .025299073 .4152018-.0019836426 .3660482-.015625 .30126954-.015625 .23649089-.015625 .18343099 .00081380209 .14208985 .033691408 .14208985 .022460938 .1414388 .015192668 .14013672 .011886597 .13883464 .008590698 .13647461 .005783081 .13305664 .0034637452 .12963867 .0011545817 .1258138 0 .12158203 0 .115722659 0 .110839847 .0021209717 .106933597 .006362915 .103027347 .010615031 .10107422 .01763916 .10107422 .027435303V.112213138C.10107422 .12200928 .10294596 .12902832 .10668945 .13327027 .110432948 .13752239 .11539713 .13964844 .12158203 .13964844 .1274414 .13964844 .1324056 .13761394 .13647461 .13354492 .14054363 .1294759 .14257813 .12402344 .14257813 .1171875 .14257813 .10221354 .14632161 .08968099 .1538086 .079589847 .16520183 .063964847 .18334961 .05102539 .20825196 .040771486 .2331543 .030517579 .26367188 .025390625 .2998047 .025390625 .3531901 .025390625 .39290367 .035369874 .4189453 .05532837 .44498698 .075286868 .4580078 .09638977 .4580078 .118637088 .4580078 .14415996 .44482423 .16460674 .41845704 .17997742 .3917643 .19535828 .35294596 .20566304 .30200196 .21089173 .25105796 .21613057 .21451824 .2229716 .19238281 .2314148 .17024739 .23985799 .1529948 .2525228 .140625 .26940919 .1282552 .28630577 .12207031 .3044993 .12207031 .32398988 .12207031 .35906474 .13932292 .38691203 .17382813 .40753175 .20833333 .42816163 .24951172 .43847657 .29736329 .43847657 .3540039 .43847657 .4000651 .4248047 .43554688 .39746095Z"/>
<path id="font_1_5" d="M.44433595 .2939453 .33544923 .61120608 .21972656 .2939453H.44433595M.28466798 .71777346H.39453126L.65478518 0H.54833987L.47558595 .21484375H.19189453L.11425781 0H.0146484379L.28466798 .71777346M.33496095 .71777346V.71777346Z"/>
<path id="font_1_9" d="M.057617189 .71875H.1430664V.45948792C.16227214 .4847056 .18522136 .50394698 .21191406 .5172119 .23860677 .53047689 .26757813 .5371094 .29882813 .5371094 .36393229 .5371094 .41674806 .5147095 .4572754 .46990968 .49780274 .42510987 .5180664 .35905458 .5180664 .27174378 .5180664 .1889801 .49804688 .12022909 .4580078 .06549072 .41796876 .010762532 .36246745-.016601563 .2915039-.016601563 .25179038-.016601563 .21826172-.006942749 .19091797 .012374878 .17464192 .023839316 .15722656 .042175294 .13867188 .06738281V0H.057617189V.71875M.2861328 .061523439C.33365885 .061523439 .36922203 .08037821 .39282228 .11808777 .41642253 .1558075 .42822267 .20555115 .42822267 .26731874 .42822267 .32227073 .41642253 .3677877 .39282228 .40386964 .36922203 .43996177 .33447267 .4580078 .28857423 .4580078 .24853516 .4580078 .21346028 .44321189 .18334961 .41362 .15323894 .3840383 .1381836 .3352712 .1381836 .26731874 .1381836 .21822612 .14436849 .17840068 .15673828 .1478424 .17985027 .090296428 .22298177 .061523439 .2861328 .061523439Z"/>
<path id="font_3_4" d="M.41796876 0V.059570314C.35839845 .0094401049 .29475913-.015625 .22705078-.015625 .17789714-.015625 .13948567-.0031738282 .111816409 .021728516 .08414713 .04663086 .0703125 .07714844 .0703125 .11328125 .0703125 .1529948 .088541667 .18766277 .125 .21728516 .16145833 .24690755 .21468099 .26171876 .28466798 .26171876 .3035482 .26171876 .324056 .26049806 .3461914 .25805665 .3683268 .25561524 .3922526 .25179038 .41796876 .24658203V.31341554C.41796876 .33602906 .4075521 .35568748 .38671876 .37239076 .3658854 .38910423 .3346354 .39746095 .29296876 .39746095 .26106773 .39746095 .2163086 .38804627 .1586914 .36921693 .14827474 .36591087 .14160156 .3642578 .13867188 .3642578 .13346355 .3642578 .12898763 .36621095 .12524414 .3701172 .12150065 .37402345 .119628909 .37890626 .119628909 .38476563 .119628909 .39029948 .12125651 .394694 .12451172 .39794923 .12906902 .40283204 .14746094 .40950523 .1796875 .41796876 .23046875 .43164063 .26888023 .43847657 .29492188 .43847657 .3466797 .43847657 .38704429 .42566935 .41601563 .40005494 .44498698 .37444053 .45947267 .34547935 .45947267 .3131714V.041015626H.51416018C.5242513 .041015626 .5314128 .03914388 .53564456 .03540039 .5398763 .031656904 .5419922 .026692709 .5419922 .020507813 .5419922 .0146484379 .5398763 .009765625 .53564456 .005859375 .5314128 .001953125 .5242513 0 .51416018 0H.41796876M.41796876 .20458985C.39876304 .2101237 .37841798 .2141927 .3569336 .21679688 .33544923 .21940105 .31282554 .22070313 .2890625 .22070313 .22949219 .22070313 .1829427 .20784505 .14941406 .1821289 .12402344 .16292317 .111328128 .13997396 .111328128 .11328125 .111328128 .088541667 .12101237 .067708339 .14038086 .05078125 .15974935 .033854169 .18798828 .025390625 .22509766 .025390625 .26057945 .025390625 .29353843 .032470704 .3239746 .04663086 .3544108 .060791017 .3857422 .083333339 .41796876 .11425781V.20458985Z"/>
<path id="font_1_7" d="M.076171878 .71777346H.17333985V.0859375H.5366211V0H.076171878V.71777346Z"/>
<path id="font_1_16" d="M.064453128 .5234375H.14794922V.44921876C.1726888 .47981773 .19889324 .50179037 .2265625 .5151367 .25423179 .5284831 .2849935 .53515627 .31884767 .53515627 .3930664 .53515627 .44319663 .5092519 .46923829 .45744325 .4835612 .42910258 .49072267 .38853965 .49072267 .3357544V0H.4013672V.3299408C.4013672 .36188255 .39664714 .38762919 .38720704 .4071808 .37158204 .4397634 .34326173 .4560547 .3022461 .4560547 .28141276 .4560547 .2643229 .4539388 .25097657 .44970704 .22688802 .4425354 .20572917 .42819724 .1875 .4066925 .17285156 .38941957 .16333008 .37157694 .15893555 .35316468 .15454102 .3347524 .15234375 .30844117 .15234375 .27423097V0H.064453128V.5234375M.2709961 .5361328V.5361328Z"/>
<path id="font_1_13" d="M.0625 .71777346H.14697266V.30101014L.3725586 .5234375H.48486329L.28466798 .32881166 .49609376 0H.38378907L.22070313 .26635743 .14697266 .19647217V0H.0625V.71777346Z"/>
<path id="font_3_6" d="M.50097659 .61328127V.041015626H.55566409C.5657552 .041015626 .5729167 .03914388 .57714846 .03540039 .5813802 .031656904 .5834961 .026692709 .5834961 .020507813 .5834961 .014923096 .5813802 .010269165 .57714846 .0065460207 .5729167 .0028330486 .5657552 .0009765625 .55566409 .0009765625H.45947267V.08218384C.41194663 .016977946 .3515625-.015625 .2783203-.015625 .24121094-.015625 .20564778-.0057678224 .17163086 .013946533 .13761394 .03366089 .11075846 .061767579 .09106445 .0982666 .071370448 .13476563 .061523439 .17240398 .061523439 .21118164 .061523439 .25028483 .071370448 .28800456 .09106445 .32434083 .11075846 .3606771 .13761394 .38878379 .17163086 .4086609 .20564778 .428538 .2413737 .43847657 .2788086 .43847657 .3504232 .43847657 .41064454 .40603639 .45947267 .341156V.5722656H.40478517C.394694 .5722656 .38753257 .574173 .38330079 .5779877 .379069 .58180239 .37695313 .58673098 .37695313 .59277346 .37695313 .5986328 .379069 .6035156 .38330079 .6074219 .38753257 .6113281 .394694 .61328127 .40478517 .61328127H.50097659M.45947267 .21142578C.45947267 .26364137 .44189454 .30769859 .40673829 .3435974 .37158204 .37950645 .3297526 .39746095 .28125 .39746095 .23242188 .39746095 .19042969 .37950645 .15527344 .3435974 .12011719 .30769859 .10253906 .26364137 .10253906 .21142578 .10253906 .15953572 .12011719 .11555481 .15527344 .07948303 .19042969 .04342143 .23242188 .025390625 .28125 .025390625 .3297526 .025390625 .37158204 .04342143 .40673829 .07948303 .44189454 .11555481 .45947267 .15953572 .45947267 .21142578Z"/>
<clipPath id="clip_4">
<path transform="matrix(1,0,0,-1,-28.5387,569.985)" d="M36 36H756V576H36Z"/>
</clipPath>
<path id="font_5_7" d="M.18847656 .23095703C.18229167 .19026692 .18489583 .15722656 .19628906 .13183594 .21842449 .0843099 .27018229 .060546876 .3515625 .060546876 .38802085 .060546876 .42236329 .06576029 .45458985 .076187137 .51676437 .0963796 .55338546 .13253784 .5644531 .18466187 .5729167 .22375489 .56656906 .25160728 .54541018 .268219 .5242513 .28450523 .48860679 .29867555 .43847657 .31072999L.34570313 .3327179C.28548179 .347051 .24397786 .3628489 .2211914 .3801117 .1821289 .41007997 .16894531 .45487467 .18164063 .51449587 .1953125 .5789897 .22884114 .6319224 .28222657 .67329409 .33561198 .7146657 .40315757 .73535159 .48486329 .73535159 .5600586 .73535159 .6200358 .7172038 .6647949 .6809082 .709554 .6446126 .72347006 .58658859 .70654299 .50683596H.6152344C.61848959 .5452474 .6144206 .57470706 .60302737 .59521487 .58121749 .6326497 .53483077 .6513672 .4638672 .6513672 .40657554 .6513672 .36287437 .63931277 .33276368 .61520388 .30265299 .59110519 .2841797 .56309 .27734376 .53115847 .26985679 .49598185 .27897135 .47025047 .3046875 .45396424 .3216146 .44353739 .3623047 .43050639 .4267578 .41487123L.52246096 .39190675C.5686849 .38082887 .60286459 .36567689 .625 .3464508 .663737 .31290183 .67626956 .26420594 .66259768 .20036316 .6456706 .12087504 .60465499 .06402588 .5395508 .029815674 .47444663-.004384359 .40364585-.021484375 .32714845-.021484375 .23795574-.021484375 .17301433 .0013020834 .13232422 .046875 .09163412 .0921224 .07991537 .15348308 .09716797 .23095703H.18847656Z"/>
<path id="font_5_19" d="M.4814453 .26976014C.49186198 .31852723 .49251304 .35819499 .48339845 .38876344 .46875 .4368795 .43115235 .4609375 .37060548 .4609375 .31689454 .4609375 .2735189 .4404551 .24047852 .39949037 .20743816 .3585256 .18473308 .30910746 .17236328 .25123597 .16064453 .19563294 .16300456 .14929708 .17944336 .11222839 .19588216 .07516988 .23063152 .056640626 .2836914 .056640626 .34195964 .056640626 .38663737 .07866923 .4177246 .12272644 .44881187 .16678365 .4700521 .21579488 .4814453 .26976014M.57373049 .27223207C.55582687 .18784078 .5205078 .1181132 .46777345 .06304932 .41503907 .0079956059 .34554038-.01953125 .25927735-.01953125 .18733724-.01953125 .13541667 .0048217775 .103515628 .053527833 .071614589 .10223389 .06429037 .16763814 .08154297 .2497406 .10042318 .33771263 .13769531 .40776063 .19335938 .45988465 .24902344 .51201888 .31445313 .53808596 .38964845 .53808596 .45703126 .53808596 .509196 .5156047 .5461426 .4706421 .5830892 .42567954 .59228518 .35954286 .57373049 .27223207Z"/>
<path id="font_5_24" d="M.2631836 .5234375 .18945313 .17590332C.18391927 .1491801 .18359375 .12734477 .18847656 .11039734 .19726563 .07911682 .22298177 .06347656 .265625 .06347656 .3268229 .06347656 .37434898 .09085083 .40820313 .14559937 .42643229 .17492676 .44091798 .21516927 .45166017 .2663269L.50634768 .5234375H.5942383L.48339845 0H.40039063L.41748048 .07714844C.40185548 .057291669 .3841146 .040527345 .3642578 .026855469 .32486979-.00081380209 .28125-.0146484379 .23339844-.0146484379 .15885417-.0146484379 .11344401 .010299683 .09716797 .060195924 .08805338 .08693949 .08821615 .12265015 .09765625 .16732788L.17333985 .5234375H.2631836Z"/>
<path id="font_5_21" d="M.17773438 .52342227H.26123048L.2421875 .43301393C.25260417 .4506022 .2738444 .47202049 .3059082 .49726869 .33797203 .52252706 .37141929 .53515627 .40625 .53515627 .4078776 .53515627 .41064454 .535024 .41455079 .5347595 .41845704 .5345052 .42496745 .5339864 .43408204 .5332031L.41455079 .4399414C.40934245 .44091798 .4046224 .441569 .40039063 .44189454 .39615885 .44222007 .3914388 .4423828 .38623048 .4423828 .34195964 .4423828 .30493165 .428126 .27514649 .39961244 .24536133 .37109886 .22639974 .338267 .21826172 .30111695L.15478516 0H.06689453L.17773438 .52342227Z"/>
<path id="font_5_10" d="M.55029299 .3466797H.46484376C.46647135 .37890626 .46028648 .40568034 .44628907 .42700196 .43229167 .44832359 .40478517 .45898438 .36376954 .45898438 .30777995 .45898438 .2618815 .43164063 .22607422 .37695313 .20296224 .34147135 .18587239 .2976888 .17480469 .24560547 .16341146 .19319661 .16503906 .14908855 .1796875 .11328125 .19433594 .07747396 .22542317 .059570314 .27294923 .059570314 .30940757 .059570314 .34065757 .0707194 .36669923 .09301758 .39274089 .11531576 .41389976 .14583333 .43017579 .18457031H.515625C.49121095 .115234378 .4560547 .06453451 .41015626 .032470704 .3642578 .00040690104 .3108724-.015625 .25-.015625 .18164063-.015625 .1324056 .009379069 .10229492 .059387208 .07218424 .10940552 .065104167 .17188008 .08105469 .24681092 .10058594 .33868919 .13810222 .41020204 .19360352 .4613495 .24910482 .51250717 .3113607 .53808596 .3803711 .53808596 .43929038 .53808596 .48413087 .5237274 .5148926 .49501039 .5456543 .46629334 .5574544 .41684977 .55029299 .3466797Z"/>
<path id="font_5_12" d="M.5629883 .44125367C.57503256 .4148458 .5802409 .3840332 .5786133 .34881593 .5789388 .32468669 .57340499 .2862142 .5620117 .23339844H.17871094C.16894531 .18033855 .17244466 .13777669 .18920899 .10571289 .20597331 .073649089 .2389323 .057617189 .28808595 .057617189 .33398438 .057617189 .3736979 .072753909 .40722657 .103027347 .4267578 .12060547 .44222007 .14095052 .45361329 .1640625H.54003909C.5335286 .14485677 .521403 .12345377 .5036621 .099853519 .48592124 .07625326 .4674479 .056966146 .4482422 .041992189 .41601563 .015950522 .37923179-.0016276041 .33789063-.0107421879 .3154297-.015950522 .29085288-.018554688 .26416017-.018554688 .19905599-.018554688 .14892578 .0051472985 .11376953 .05255127 .07861328 .09995524 .07014974 .16634114 .088378909 .25170899 .106282558 .33576457 .14355469 .40401713 .20019531 .45646668 .25683595 .5089264 .3219401 .53515627 .3955078 .53515627 .4326172 .53515627 .46679688 .5264333 .49804688 .5089874 .5292969 .49154154 .55094406 .46896363 .5629883 .44125367M.48632813 .30371095C.4908854 .3416748 .48909507 .37201438 .48095704 .3947296 .46598307 .43691508 .43033854 .4580078 .37402345 .4580078 .33365885 .4580078 .29671226 .44348655 .2631836 .41444398 .22965496 .3854014 .20719402 .3484904 .19580078 .30371095H.48632813Z"/>
<path id="font_6_1" d="M0 0Z"/>
<path id="font_5_20" d="M.484375 .26513673C.49316407 .30680339 .4946289 .3426107 .48876954 .3725586 .47835288 .43017579 .4428711 .45898438 .38232423 .45898438 .3214518 .45898438 .27327476 .4285482 .23779297 .36767579 .21891277 .3351237 .20410156 .29378257 .19335938 .24365235 .18489583 .20328777 .18375652 .16894531 .1899414 .140625 .20100911 .08658854 .2368164 .059570314 .29736329 .059570314 .3383789 .059570314 .3761393 .07674154 .41064454 .111083988 .44514976 .14542644 .46972657 .19677735 .484375 .26513673M.16796875 .5214844H.25341798L.23876953 .45214845C.26123048 .47591148 .28434245 .49430339 .30810548 .5073242 .34195964 .52652999 .37890626 .5361328 .4189453 .5361328 .4781901 .5361328 .5236003 .5134074 .5551758 .46795655 .5867513 .4225057 .5935872 .35758973 .5756836 .27320863 .55159506 .1591746 .5045573 .07772318 .4345703 .02885437 .39029948-.0021006268 .34309898-.017578125 .29296876-.017578125 .25358073-.017578125 .22233074-.008895874 .19921875 .008468628 .18554688 .018295289 .17171224 .035166425 .15771485 .05908203L.10107422-.20898438H.013183594L.16796875 .5214844Z"/>
<path id="font_5_13" d="M.46289063 .50193789C.47721354 .49053446 .4905599 .47392274 .5029297 .45210267L.51708987 .51805117H.59814456L.4970703 .042160036C.4830729-.024286906 .4622396-.07672628 .4345703-.11515808 .3828125-.18617249 .3063151-.22167969 .20507813-.22167969 .14876302-.22167969 .10408529-.20898438 .07104492-.18359375 .03800456-.15820313 .024902344-.118652347 .03173828-.064941409H.12109375C.12044271-.088378909 .12516277-.10644531 .1352539-.119140628 .1508789-.13867188 .18001302-.1484375 .22265625-.1484375 .29003907-.1484375 .33919273-.12475586 .3701172-.07739258 .38834635-.04949951 .4046224 .000386556 .4189453 .072265628 .39583335 .045572919 .37052409 .025716147 .34301759 .0126953129 .31551109-.00032552085 .28141276-.0068359377 .24072266-.0068359377 .18408203-.0068359377 .13875325 .013280232 .10473633 .053512575 .0707194 .09375509 .06363932 .16030376 .083496097 .25315858 .10205078 .34080506 .13793946 .40922547 .19116211 .4584198 .24438477 .5076243 .30126954 .53222659 .3618164 .53222659 .40283204 .53222659 .43652345 .5221303 .46289063 .50193789M.36132813 .45410157C.29947917 .45410157 .2511393 .4251658 .2163086 .3672943 .19742839 .33641053 .18277996 .29593406 .17236328 .24586487 .15966797 .1870168 .162028 .14223226 .17944336 .11151123 .19685872 .0807902 .2257487 .06542969 .26611329 .06542969 .3292643 .06542969 .37972007 .09387716 .41748048 .1507721 .4386393 .18295796 .45377604 .22050984 .46289063 .26342774 .47688804 .328125 .47379557 .37607829 .45361329 .4072876 .433431 .43849693 .40266929 .45410157 .36132813 .45410157Z"/>
<path id="font_5_8" d="M.23730469 .057617189C.26822917 .057617189 .2998047 .06477865 .33203126 .07910156 .3857422 .102864589 .41845704 .14176433 .43017579 .19580078L.44482423 .26660157C.43277995 .25976563 .417806 .254069 .39990235 .24951172 .3819987 .24495442 .3647461 .24169922 .34814454 .2397461L.29345704 .23291016C.26057945 .22867839 .2351888 .2220052 .21728516 .21289063 .18701172 .19759114 .16829427 .17317708 .16113281 .13964844 .15559896 .11425781 .16056316 .09423828 .17602539 .079589847 .19148763 .064941409 .21191406 .057617189 .23730469 .057617189M.4116211 .31723023C.43245445 .31984458 .44791667 .32831828 .4580078 .34265138 .46354167 .35047404 .46777345 .3617147 .47070313 .3763733 .47721354 .40635173 .4711914 .4281006 .45263673 .44161988 .43408204 .45514933 .4049479 .46191407 .36523438 .46191407 .31933595 .46191407 .2841797 .44954429 .25976563 .4248047 .24609375 .4111328 .23486328 .39078776 .22607422 .36376954H.14404297C.15934246 .42822267 .18977864 .47306315 .23535156 .49829103 .28092448 .52351889 .33024089 .5361328 .38330079 .5361328 .44482423 .5361328 .4921875 .52440389 .5253906 .50094607 .55859377 .47747804 .569987 .440979 .5595703 .39144898L.49560548 .08987427C.49365235 .08074951 .49389649 .07341512 .4963379 .067871097 .4987793 .06233724 .50602218 .059570314 .5180664 .059570314 .52197268 .059570314 .52644857 .059814454 .53149417 .060302736 .53653976 .060791017 .5419922 .061523439 .54785159 .0625L.5336914-.0028686524C.51936849-.00680542 .5085449-.009262085 .5012207-.010238647 .49389649-.011225383 .48404948-.01171875 .4716797-.01171875 .44140626-.01171875 .42171226-.0009765625 .41259767 .020507813 .40771485 .031901044 .40608726 .048014326 .40771485 .068847659 .38460288 .045410158 .3544922 .025146485 .3173828 .008056641 .28027345-.009033203 .24153646-.017578125 .20117188-.017578125 .15266927-.017578125 .116129558-.0028330486 .091552738 .026657105 .066975917 .05614726 .05940755 .093048099 .068847659 .13735962 .07926432 .18591309 .10245768 .22355144 .13842774 .25027467 .17439778 .2769979 .21761067 .29345194 .2680664 .29963685L.4116211 .31723023Z"/>
<path id="font_5_17" d="M.17529297 .52342227H.26220704L.24658203 .44914247C.27294923 .47487895 .2957357 .49361167 .3149414 .5053406 .34814454 .5252177 .38313804 .53515627 .41992188 .53515627 .46158854 .53515627 .4930013 .52490237 .51416018 .50439456 .5258789 .49267579 .53515627 .4754232 .5419922 .45263673 .5677083 .4806315 .5951335 .5013835 .6242676 .5148926 .6534017 .5284017 .68440756 .53515627 .71728518 .53515627 .78759768 .53515627 .8300781 .5097402 .84472659 .45890809 .85253909 .43154399 .8515625 .3947296 .8417969 .34846498L.7680664 0H.6767578L.75390627 .36367799C.7610677 .39853923 .7573242 .42248536 .7426758 .43551637 .72802737 .44855754 .7081706 .45507813 .68310549 .45507813 .6486003 .45507813 .6164551 .44350688 .5866699 .42036439 .55688479 .39723207 .5362956 .35861717 .52490237 .30451966L.46044923 0H.37109376L.44335938 .3416748C.45084635 .37719728 .45214845 .4031016 .44726563 .41938783 .4391276 .4438324 .41682945 .4560547 .3803711 .4560547 .34716798 .4560547 .31420899 .44318138 .28149415 .4174347 .2487793 .3916982 .22526042 .34509788 .2109375 .27763368L.15234375 0H.064453128L.17529297 .52342227Z"/>
<path id="font_5_1" d="M.4506836 .7294922C.37841798 .6301575 .32958985 .55703738 .30419923 .51013186 .26611329 .43881227 .23714192 .3564148 .21728516 .26293946 .19710286 .16848755 .19189453 .08217875 .20166016 .0040130617 .20784505-.044184369 .22526042-.11355591 .25390626-.20410156H.19482422C.16292317-.12984212 .14347331-.08245341 .13647461-.061935426 .1294759-.04141744 .123046878-.013570149 .1171875 .021606446 .10904948 .06980387 .10725912 .1212616 .111816409 .17597962 .11442057 .2043101 .11832682 .23134358 .123535159 .25708009 .14404297 .3534851 .17740886 .43930564 .22363281 .5145416 .25325523 .5624135 .30859376 .6340637 .38964845 .7294922H.4506836Z"/>
<path id="font_5_23" d="M.2241211 .6689453H.31298829L.28173829 .5234375H.36523438L.35009767 .45117188H.26660157L.19384766 .10948181C.1899414 .0912323 .19352214 .07901001 .20458985 .07281494 .21077474 .069234218 .22184246 .06744385 .23779297 .06744385 .24202474 .06744385 .24658203 .06752523 .25146485 .06768799 .25634767 .067850749 .26220704 .06825765 .26904298 .06890869L.25439454-.00048828127C.24365235-.0034179688 .23266602-.005533854 .22143555-.0068359377 .21020508-.0081380209 .19824219-.0087890629 .18554688-.0087890629 .14453125-.0087890629 .118896488 .0017191569 .10864258 .022735596 .09838867 .043752035 .096842449 .07104492 .104003909 .10461426L.17773438 .45117188H.106933597L.12207031 .5234375H.1928711L.2241211 .6689453Z"/>
<path id="font_5_25" d="M.12548828 .5234375H.23925781L.3203125 .33918763 .48095704 .5234375 .58740237 .5209961 .35742188 .26831056 .48486329 0H.3725586L.2841797 .19647217 .11669922 0H.0053710939L.24609375 .26831056 .12548828 .5234375Z"/>
<path id="font_5_2" d="M-.008300781-.20410156C.06461588-.103139247 .11344401-.029530844 .1381836 .016723633 .17561849 .08674113 .20442708 .16881307 .22460938 .26293946 .24446614 .35706584 .24951172 .44321189 .2397461 .52137759 .23388672 .569575 .21663411 .63894656 .18798828 .7294922H.24707031C.28027345 .64937338 .30013023 .59995016 .30664063 .58122256 .31315104 .56249496 .3191732 .5366821 .32470704 .5037842 .33154298 .46307374 .33406578 .42285157 .3322754 .38311769 .33048503 .3433838 .3256836 .30511476 .3178711 .26831056 .29736329 .17190552 .26383464 .08592224 .21728516 .010360718 .18766277-.03816223 .13264974-.10964966 .052246095-.20410156H-.008300781Z"/>
<path id="font_7_5" d="M.22607422 .71777346H.36523438L.4423828 .11091614 .7758789 .71777346H.9135742L.76123049 0H.6689453L.75878909 .42362977C.76171877 .43828837 .7671712 .46255494 .7751465 .49642945 .78312179 .53030398 .7911784 .56662496 .7993164 .60539248L.4663086 0H.3701172L.29248048 .60539248 .28759767 .58340457C.28401695 .5658162 .2788086 .5390218 .27197267 .50302127 .26513673 .46703086 .25992839 .44056703 .25634767 .42362977L.1665039 0H.07373047L.22607422 .71777346Z"/>
<path id="font_7_19" d="M.4814453 .26976014C.49186198 .31852723 .49251304 .35819499 .48339845 .38876344 .46875 .4368795 .43115235 .4609375 .37060548 .4609375 .31689454 .4609375 .2735189 .4404551 .24047852 .39949037 .20743816 .3585256 .18473308 .30910746 .17236328 .25123597 .16064453 .19563294 .16300456 .14929708 .17944336 .11222839 .19588216 .07516988 .23063152 .056640626 .2836914 .056640626 .34195964 .056640626 .38663737 .07866923 .4177246 .12272644 .44881187 .16678365 .4700521 .21579488 .4814453 .26976014M.57373049 .27223207C.55582687 .18784078 .5205078 .1181132 .46777345 .06304932 .41503907 .0079956059 .34554038-.01953125 .25927735-.01953125 .18733724-.01953125 .13541667 .0048217775 .103515628 .053527833 .071614589 .10223389 .06429037 .16763814 .08154297 .2497406 .10042318 .33771263 .13769531 .40776063 .19335938 .45988465 .24902344 .51201888 .31445313 .53808596 .38964845 .53808596 .45703126 .53808596 .509196 .5156047 .5461426 .4706421 .5830892 .42567954 .59228518 .35954286 .57373049 .27223207Z"/>
<path id="font_7_11" d="M.28222657 .05859375C.32291667 .05859375 .36002604 .076044719 .3935547 .110946658 .42708335 .14585877 .45084635 .19594829 .46484376 .2612152 .47884117 .32713319 .4757487 .37592063 .4555664 .4075775 .43538413 .4392446 .4054362 .45507813 .36572267 .45507813 .3214518 .45507813 .28198243 .43819175 .24731446 .40441896 .21264649 .37064616 .1883138 .32096354 .1743164 .2553711 .16227214 .19952393 .16414388 .15276592 .17993164 .115097049 .1957194 .077428188 .2298177 .05859375 .28222657 .05859375M.46044923 .50683596C.4741211 .4970703 .48828126 .47998048 .5029297 .4555664L.55908206 .71972659H.6435547L.49072267 0H.4116211L.4267578 .072753909C.39941407 .040527345 .37019859 .017252604 .33911134 .0029296876 .30802409-.0113932299 .27441407-.018554688 .23828125-.018554688 .18001302-.018554688 .13476563 .0059407555 .10253906 .05493164 .0703125 .10392252 .06298828 .16910808 .080566409 .25048829 .09651693 .32666017 .12988281 .39265953 .18066406 .44848634 .23144531 .5043132 .29296876 .53222659 .36523438 .53222659 .40527345 .53222659 .43701173 .523763 .46044923 .50683596Z"/>
<path id="font_7_14" d="M.17480469 .5205078H.26416017L.1538086 0H.064453128L.17480469 .5205078M.21679688 .71777346H.30615235L.28466798 .61816409H.1953125L.21679688 .71777346Z"/>
<path id="font_7_27" d="M.25048829 .6826172C.277181 .7125651 .31982423 .72753909 .37841798 .72753909 .3839518 .72753909 .38964845 .7273763 .3955078 .7270508 .4013672 .7267253 .4078776 .726237 .41503907 .72558596L.39794923 .6455078C.38916017 .6461589 .3827311 .64656576 .3786621 .6467285 .3745931 .6468913 .37076823 .64697268 .3671875 .64697268 .34049479 .64697268 .32307945 .64005538 .3149414 .6262207 .30680339 .61238607 .29671226 .57714846 .28466798 .5205078H.37158204L.3569336 .45117188H.26904298L.17333985 0H.08642578L.1821289 .45117188H.109375L.12402344 .5205078H.19677735L.21435547 .60253909C.22347005 .6389974 .23551433 .6656901 .25048829 .6826172M.4765625 .6171875 .49804688 .7167969H.5859375L.5644531 .6171875H.4765625M.4560547 .5205078H.5439453L.43359376 0H.34570313L.4560547 .5205078Z"/>
<path id="font_7_12" d="M.5629883 .44125367C.57503256 .4148458 .5802409 .3840332 .5786133 .34881593 .5789388 .32468669 .57340499 .2862142 .5620117 .23339844H.17871094C.16894531 .18033855 .17244466 .13777669 .18920899 .10571289 .20597331 .073649089 .2389323 .057617189 .28808595 .057617189 .33398438 .057617189 .3736979 .072753909 .40722657 .103027347 .4267578 .12060547 .44222007 .14095052 .45361329 .1640625H.54003909C.5335286 .14485677 .521403 .12345377 .5036621 .099853519 .48592124 .07625326 .4674479 .056966146 .4482422 .041992189 .41601563 .015950522 .37923179-.0016276041 .33789063-.0107421879 .3154297-.015950522 .29085288-.018554688 .26416017-.018554688 .19905599-.018554688 .14892578 .0051472985 .11376953 .05255127 .07861328 .09995524 .07014974 .16634114 .088378909 .25170899 .106282558 .33576457 .14355469 .40401713 .20019531 .45646668 .25683595 .5089264 .3219401 .53515627 .3955078 .53515627 .4326172 .53515627 .46679688 .5264333 .49804688 .5089874 .5292969 .49154154 .55094406 .46896363 .5629883 .44125367M.48632813 .30371095C.4908854 .3416748 .48909507 .37201438 .48095704 .3947296 .46598307 .43691508 .43033854 .4580078 .37402345 .4580078 .33365885 .4580078 .29671226 .44348655 .2631836 .41444398 .22965496 .3854014 .20719402 .3484904 .19580078 .30371095H.48632813Z"/>
<path id="font_5_22" d="M.15136719 .1640625C.14778646 .13463338 .15039063 .11207072 .15917969 .09637451 .1751302 .06793213 .21044922 .053710939 .26513673 .053710939 .2976888 .053710939 .32788087 .060806276 .3557129 .07499695 .38354493 .08918762 .40055339 .11112467 .40673829 .1408081 .4116211 .16330974 .40527345 .1804301 .3876953 .19216919 .3766276 .199351 .35335288 .20767212 .3178711 .21713257L.25195313 .23474121C.20963542 .24582927 .17936199 .2582245 .16113281 .27192689 .1282552 .29574076 .116373699 .32868449 .12548828 .37075807 .13590496 .42033897 .16219075 .46045939 .2043457 .49111939 .24650066 .52177938 .2976888 .5371094 .35791017 .5371094 .4366862 .5371094 .48860679 .5139974 .5136719 .46777345 .5292969 .43847657 .5332031 .40690104 .5253906 .37304688H.4423828C.44498698 .39290367 .44173179 .41097007 .4326172 .4272461 .41731773 .45035807 .38476563 .46191407 .33496095 .46191407 .3017578 .46191407 .27530924 .45555116 .25561524 .44282533 .23592122 .43010966 .22379558 .41331483 .21923828 .3924408 .21435547 .36960349 .22167969 .3513387 .24121094 .33764649 .25260417 .32948814 .27034507 .3223114 .2944336 .31611634L.34960938 .30192567C.40950523 .28659568 .44873048 .27175395 .46728517 .2574005 .49658204 .23488872 .50602218 .19949849 .49560548 .15122986 .48583985 .10458883 .4597168 .064305629 .41723634 .030380249 .37475587-.0035451253 .3173828-.020507813 .24511719-.020507813 .1673177-.020507813 .1159668-.002802531 .09106445 .032608034 .06616211 .06801859 .05810547 .111836757 .06689453 .1640625H.15136719Z"/>
<path id="font_5_3" d="M.50634768 .2939453 .46484376 .61083987 .28173829 .2939453H.50634768M.43701173 .71777346H.546875L.65478518 0H.54833987L.5209961 .21484375H.23730469L.11425781 0H.0146484379L.43701173 .71777346Z"/>
<path id="font_5_9" d="M.21044922 .71972659H.29589845L.24072266 .45948792C.26513673 .4847056 .29207359 .50394698 .3215332 .5172119 .35099284 .53047689 .38134767 .5371094 .41259767 .5371094 .4777018 .5371094 .52579757 .5147095 .55688479 .46990968 .587972 .42510987 .5942383 .35905458 .5756836 .27174378 .55810549 .1889801 .5234375 .12022909 .4716797 .06549072 .41992188 .010762532 .3585612-.016601563 .28759767-.016601563 .24788411-.016601563 .21647136-.0069986979 .19335938 .012207031 .17936199 .02360026 .16585286 .041829427 .15283203 .06689453L.13867188 0H.057617189L.21044922 .71972659M.48486329 .26731874C.49658204 .32227073 .49446617 .3677877 .47851563 .40386964 .4625651 .43996177 .43164063 .4580078 .3857422 .4580078 .34570313 .4580078 .30745445 .44321189 .2709961 .41362 .23453777 .3840383 .20914714 .3352712 .19482422 .26731874 .18440755 .21822612 .1821289 .17840068 .18798828 .1478424 .19873047 .090296428 .23567708 .061523439 .29882813 .061523439 .34635417 .061523439 .38590495 .08037821 .41748048 .11808777 .449056 .1558075 .47151695 .20555115 .48486329 .26731874Z"/>
<path id="font_5_16" d="M.21923828 .71777346H.3071289L.15478516 0H.06689453L.21923828 .71777346Z"/>
<path id="font_5_26" d="M.5019531 .5234375H.5991211C.57958987 .48986817 .5358073 .41326905 .46777345 .29364015 .4169922 .20367432 .37483726 .1303355 .3413086 .07362366 .2618815-.060012819 .20865886-.14149983 .18164063-.1708374 .15462239-.20017497 .115722659-.21484375 .064941409-.21484375 .052571615-.21484375 .04313151-.21435039 .036621095-.21336365 .030110678-.21238709 .022298178-.21058655 .013183594-.20796204L.030273438-.1274414C.044596357-.13167317 .055094404-.13427735 .061767579-.1352539 .06844076-.13623047 .07438151-.13671875 .079589847-.13671875 .09586588-.13671875 .10839844-.13402812 .1171875-.12864685 .12597656-.12327576 .13378906-.11668396 .140625-.10887146 .14290364-.10625712 .15161133-.09289551 .16674805-.06878662 .18188477-.04468791 .19303386-.026774088 .20019531-.015045166L.12109375 .5234375H.22070313L.2705078 .09765625 .5019531 .5234375Z"/>
<path id="font_5_6" d="M.4921875 .38867188C.53776046 .38867188 .57576498 .39778648 .6062012 .41601563 .6366374 .43424479 .65690109 .4671224 .6669922 .51464846 .6777344 .5657552 .6665039 .60058596 .6333008 .6191406 .61539718 .62890627 .58984377 .63378909 .5566406 .63378909H.31933595L.26757813 .38867188H.4921875M.24023438 .71777346H.5722656C.6269531 .71777346 .6702474 .709788 .70214846 .69381716 .7630208 .6631775 .78483077 .60662338 .7675781 .52415469 .75846359 .48112489 .74210616 .44591777 .71850588 .41853334 .6949056 .39115907 .66536459 .36916099 .6298828 .35253907 .65559896 .34114585 .6735026 .32617188 .68359377 .3076172 .6936849 .2890625 .6951497 .2589518 .6879883 .21728516L.67089846 .12109375C.6660156 .09375 .6640625 .073404949 .66503909 .060058595 .6660156 .037272138 .67333987 .022623698 .6870117 .016113282L.68359377 0H.5644531C.5625 .006184896 .56152346 .014160156 .56152346 .023925782 .56152346 .033691408 .56396487 .052571615 .56884768 .080566409L.5883789 .20019531C.5958659 .24707031 .5851237 .27848307 .55615237 .2944336 .5392253 .30322267 .51090499 .3076172 .4711914 .3076172H.25L.1850586 0H.087890628L.24023438 .71777346Z"/>
<path id="font_5_15" d="M.28320313 .61621096H.1953125L.21679688 .71777346H.3046875L.28320313 .61621096M-.04638672-.1328125C-.0069986979-.13151042 .017252604-.12801107 .026367188-.12231445 .03548177-.116617839 .04329427-.09879557 .049804689-.068847659L.17480469 .52001956H.2626953L.13574219-.078125C.12760417-.11621094 .11539713-.14469402 .099121097-.16357422 .071777347-.19514974 .029622397-.2109375-.02734375-.2109375-.03157552-.2109375-.036051435-.21080525-.040771486-.21054077-.045491537-.21028646-.052734376-.20976766-.0625-.20898438L-.04638672-.1328125Z"/>
<path id="font_5_14" d="M.17480469 .5205078H.26416017L.1538086 0H.064453128L.17480469 .5205078M.21679688 .71777346H.30615235L.28466798 .61816409H.1953125L.21679688 .71777346Z"/>
<path id="font_5_18" d="M.17529297 .52342227H.25878907L.24316406 .44914247C.27441407 .47977195 .30525718 .50176498 .33569337 .51512148 .36612956 .52847799 .39827476 .53515627 .4321289 .53515627 .50634768 .53515627 .55094406 .5092519 .56591799 .45744325 .57438156 .42910258 .5730794 .38853965 .5620117 .3357544L.49072267 0H.4013672L.4711914 .3299408C.47802735 .36188255 .47884117 .38762919 .4736328 .4071808 .46484376 .4397634 .4399414 .4560547 .39892579 .4560547 .37809245 .4560547 .3605143 .4539388 .3461914 .44970704 .32047526 .4425354 .29622398 .42819724 .2734375 .4066925 .25520835 .38941957 .24194336 .37157694 .23364258 .35316468 .2253418 .3347524 .21761067 .30843608 .21044922 .2742157L.15234375 0H.064453128L.17529297 .52342227Z"/>
<path id="font_5_4" d="M.23779297 .71777346H.7607422L.7416992 .6298828H.31347657L.26757813 .41210938H.6635742L.6459961 .32910157H.25L.19824219 .0859375H.63378909L.61572268 0H.08544922L.23779297 .71777346Z"/>
<path id="font_3_15" d="M.25097657 .42382813V.3200531C.30436198 .36812846 .34431968 .3990682 .3708496 .4128723 .39737956 .4266866 .421875 .43359376 .44433595 .43359376 .46875 .43359376 .49145509 .4253184 .5124512 .4087677 .53344729 .392217 .5439453 .37967936 .5439453 .3711548 .5439453 .3649292 .5419108 .3597819 .5378418 .3557129 .53377279 .3516439 .5286458 .34960938 .52246096 .34960938 .51920577 .34960938 .5164388 .35017906 .51416018 .35131837 .51188156 .35245768 .5076497 .3561605 .50146487 .36242677 .49007163 .3739624 .48014323 .38187156 .4716797 .38615418 .46321617 .3904368 .45491538 .39257813 .44677735 .39257813 .4288737 .39257813 .40730796 .38542176 .38208009 .371109 .3568522 .35679627 .31315104 .32182823 .25097657 .26620484V.041015626H.4326172C.44270835 .041015626 .44986979 .03914388 .45410157 .03540039 .45833335 .031656904 .46044923 .026692709 .46044923 .020507813 .46044923 .0146484379 .45833335 .009765625 .45410157 .005859375 .44986979 .001953125 .44270835 0 .4326172 0H.110839847C.10107422 0 .09407552 .0019175211 .08984375 .0057525637 .08561198 .0095876059 .083496097 .014506022 .083496097 .020507813 .083496097 .026041666 .0855306 .030680338 .08959961 .034423829 .09366862 .038167318 .100748699 .040039064 .110839847 .040039064H.20996094V.3828125H.13427735C.12451172 .3828125 .11751302 .38476563 .11328125 .38867188 .10904948 .39257813 .106933597 .3976237 .106933597 .4038086 .106933597 .40952555 .1089681 .41429139 .11303711 .41810609 .11710612 .42192079 .124186199 .42382813 .13427735 .42382813H.25097657Z"/>
<path id="font_3_12" d="M.16748047 .42382813V.3623047C.1961263 .39109294 .2220052 .41098533 .24511719 .4219818 .26822917 .4329783 .29427085 .43847657 .3232422 .43847657 .3544922 .43847657 .38297526 .43178813 .4086914 .41841126 .42692057 .4086151 .44344078 .39237467 .45825196 .36968995 .47306315 .34701539 .48046876 .32377116 .48046876 .29995729V.041015626H.5151367C.52490237 .041015626 .53190109 .03914388 .5361328 .03540039 .54036459 .031656904 .54248049 .026692709 .54248049 .020507813 .54248049 .0146484379 .54036459 .009765625 .5361328 .005859375 .53190109 .001953125 .52490237 0 .5151367 0H.40527345C.39518229 0 .38802085 .001953125 .38378907 .005859375 .37955729 .009765625 .3774414 .0146484379 .3774414 .020507813 .3774414 .026692709 .37955729 .031656904 .38378907 .03540039 .38802085 .03914388 .39518229 .041015626 .40527345 .041015626H.43945313V.29351808C.43945313 .32261149 .4288737 .34720866 .40771485 .36730958 .386556 .3874105 .3582357 .39746095 .3227539 .39746095 .2957357 .39746095 .2722982 .39200846 .2524414 .38110353 .23258464 .37019859 .20426433 .34309898 .16748047 .2998047V.041015626H.21386719C.22363281 .041015626 .23063152 .03914388 .23486328 .03540039 .23909505 .031656904 .24121094 .026692709 .24121094 .020507813 .24121094 .0146484379 .23909505 .009765625 .23486328 .005859375 .23063152 .001953125 .22363281 0 .21386719 0H.080078128C.0703125 0 .063313808 .001953125 .05908203 .005859375 .05485026 .009765625 .052734376 .0146484379 .052734376 .020507813 .052734376 .026692709 .05485026 .031656904 .05908203 .03540039 .063313808 .03914388 .0703125 .041015626 .080078128 .041015626H.12646485V.3828125H.091796878C.08203125 .3828125 .075032558 .38476563 .07080078 .38867188 .06656901 .39257813 .064453128 .3976237 .064453128 .4038086 .064453128 .40952555 .06656901 .41429139 .07080078 .41810609 .075032558 .42192079 .08203125 .42382813 .091796878 .42382813H.16748047Z"/>
<path id="font_3_17" d="M.21582031 .42382813H.43847657C.4482422 .42382813 .45524089 .42192079 .45947267 .41810609 .46370445 .41429139 .4658203 .4093628 .4658203 .4033203 .4658203 .39746095 .46370445 .39257813 .45947267 .38867188 .45524089 .38476563 .4482422 .3828125 .43847657 .3828125H.21582031V.1091156C.21582031 .08529154 .2253418 .06537882 .24438477 .04937744 .26342774 .03338623 .29134117 .025390625 .328125 .025390625 .35579429 .025390625 .3857422 .029541016 .41796876 .037841798 .4501953 .046142579 .4752604 .0555013 .49316407 .06591797 .49967448 .07014974 .5050456 .072265628 .50927737 .072265628 .51448568 .072265628 .51904299 .07023112 .5229492 .06616211 .52685549 .062093099 .5288086 .057291669 .5288086 .051757814 .5288086 .046875 .5266927 .042317708 .52246096 .038085939 .51204428 .02734375 .48673503 .01570638 .4465332 .0031738282 .4063314-.009358724 .36783854-.015625 .3310547-.015625 .28320313-.015625 .24511719-.0043691 .21679688 .0181427 .18847656 .040664674 .1743164 .071014408 .1743164 .109191898V.3828125H.09863281C.08886719 .3828125 .08186849 .3847402 .07763672 .38859559 .073404949 .39246116 .07128906 .39745078 .07128906 .40356446 .07128906 .40935264 .073404949 .4141744 .07763672 .4180298 .08186849 .42189536 .08886719 .42382813 .09863281 .42382813H.1743164V.54571536C.1743164 .5555522 .17626953 .5625966 .18017578 .56684878 .18408203 .571111 .18896485 .5732422 .19482422 .5732422 .20100911 .5732422 .20605469 .571111 .20996094 .56684878 .21386719 .5625966 .21582031 .5555522 .21582031 .54571536V.42382813Z"/>
<path id="font_3_8" d="M.27294923 .3828125V.041015626H.453125C.46289063 .041015626 .4698893 .03914388 .4741211 .03540039 .47835288 .031656904 .48046876 .026692709 .48046876 .020507813 .48046876 .0146484379 .47835288 .009765625 .4741211 .005859375 .4698893 .001953125 .46289063 0 .453125 0H.13232422C.122558597 0 .1155599 .001953125 .111328128 .005859375 .10709635 .009765625 .10498047 .0146484379 .10498047 .020507813 .10498047 .026692709 .10709635 .031656904 .111328128 .03540039 .1155599 .03914388 .122558597 .041015626 .13232422 .041015626H.23144531V.3828125H.14257813C.1328125 .3828125 .1258138 .3847402 .12158203 .38859559 .11735026 .39246116 .115234378 .39745078 .115234378 .40356446 .115234378 .40935264 .11735026 .4141744 .12158203 .4180298 .1258138 .42189536 .1328125 .42382813 .14257813 .42382813H.23144531V.48568727C.23144531 .5201009 .2454427 .54996749 .2734375 .57528689 .30143229 .60061648 .33854167 .61328127 .38476563 .61328127 .4235026 .61328127 .46484376 .609731 .50878909 .6026306 .5253906 .60005697 .5354004 .59699508 .53881838 .5934448 .5422363 .5898946 .5439453 .5852153 .5439453 .57940676 .5439453 .5735982 .5419922 .56883749 .53808596 .5651245 .5341797 .5614217 .5289714 .5595703 .52246096 .5595703 .51985678 .5595703 .5154622 .5600586 .50927737 .56103518 .4601237 .56852218 .41861979 .5722656 .38476563 .5722656 .34895835 .5722656 .32137046 .56347659 .30200196 .54589846 .28263346 .5283203 .27294923 .5083008 .27294923 .48583985V.42382813H.46484376C.47460938 .42382813 .48160807 .42189536 .48583985 .4180298 .49007163 .4141744 .4921875 .40918986 .4921875 .40307618 .4921875 .397288 .49007163 .39246116 .48583985 .38859559 .48160807 .3847402 .47460938 .3828125 .46484376 .3828125H.27294923Z"/>
</defs>
<g clip-path="url(#clip_0)">
<path transform="matrix(1,0,0,-1,-28.5387,569.985)" d="M36 36H756V576H36Z" fill="#ffffff"/>
<path transform="matrix(1,0,0,-1,79.4613,21.610108)" stroke-width="1" stroke-linecap="butt" stroke-miterlimit="8" stroke-linejoin="miter" fill="none" stroke="#000000" d="M0 0H72V-66H0Z"/>
<use data-text="P" xlink:href="#font_1_8" transform="matrix(14,0,0,-14,102.6613,43.410097)"/>
<use data-text="r" xlink:href="#font_1_19" transform="matrix(14,0,0,-14,111.9993,43.410097)"/>
<use data-text="e" xlink:href="#font_1_11" transform="matrix(14,0,0,-14,116.6613,43.410097)"/>
<use data-text="-" xlink:href="#font_1_4" transform="matrix(14,0,0,-14,124.4453,43.410097)"/>
<use data-text="&#xfffd;" xlink:href="#font_2_1" transform="matrix(14,0,0,-14,129.1073,43.410097)"/>
<use data-text="p" xlink:href="#font_1_18" transform="matrix(14,0,0,-14,84.6573,59.41211)"/>
<use data-text="r" xlink:href="#font_1_19" transform="matrix(14,0,0,-14,92.4413,59.41211)"/>
<use data-text="o" xlink:href="#font_1_17" transform="matrix(14,0,0,-14,97.1033,59.41211)"/>
<use data-text="c" xlink:href="#font_1_10" transform="matrix(14,0,0,-14,104.887317,59.41211)"/>
<use data-text="e" xlink:href="#font_1_11" transform="matrix(14,0,0,-14,111.887317,59.41211)"/>
<use data-text="s" xlink:href="#font_1_20" transform="matrix(14,0,0,-14,119.67131,59.41211)"/>
<use data-text="s" xlink:href="#font_1_20" transform="matrix(14,0,0,-14,126.67131,59.41211)"/>
<use data-text="o" xlink:href="#font_1_17" transform="matrix(14,0,0,-14,133.67131,59.41211)"/>
<use data-text="r" xlink:href="#font_1_19" transform="matrix(14,0,0,-14,141.4553,59.41211)"/>
<use data-text="&#xfffd;" xlink:href="#font_2_1" transform="matrix(14,0,0,-14,146.11731,59.41211)"/>
<use data-text="(" xlink:href="#font_1_2" transform="matrix(14,0,0,-14,97.6633,76.40811)"/>
<use data-text="c" xlink:href="#font_3_5" transform="matrix(14,0,0,-14,102.3253,76.40811)"/>
<use data-text="p" xlink:href="#font_3_14" transform="matrix(14,0,0,-14,110.725299,76.40811)"/>
<use data-text="p" xlink:href="#font_3_14" transform="matrix(14,0,0,-14,119.12529,76.40811)"/>
<use data-text=")" xlink:href="#font_1_3" transform="matrix(14,0,0,-14,127.52528,76.40811)"/>
<use data-text="&#xfffd;" xlink:href="#font_2_1" transform="matrix(14,0,0,-14,132.18729,76.40811)"/>
<path transform="matrix(1,0,0,-1,151.4613,57.61017)" stroke-width="1" stroke-linecap="butt" stroke-linejoin="round" fill="none" stroke="#000000" d="M0 0H70"/>
<path transform="matrix(1,0,0,-1,217.4613,54.610109)" d="M0 0 6-3 0-6Z" fill-rule="evenodd"/>
<use data-text="h" xlink:href="#font_3_9" transform="matrix(12,0,0,-12,158.6613,51.597475)"/>
<use data-text="e" xlink:href="#font_3_7" transform="matrix(12,0,0,-12,165.8613,51.597475)"/>
<use data-text="l" xlink:href="#font_3_11" transform="matrix(12,0,0,-12,173.0613,51.597475)"/>
<use data-text="l" xlink:href="#font_3_11" transform="matrix(12,0,0,-12,180.26129,51.597475)"/>
<use data-text="o" xlink:href="#font_3_13" transform="matrix(12,0,0,-12,187.46129,51.597475)"/>
<use data-text="." xlink:href="#font_3_2" transform="matrix(12,0,0,-12,194.66129,51.597475)"/>
<use data-text="i" xlink:href="#font_3_10" transform="matrix(12,0,0,-12,201.86128,51.597475)"/>
<use data-text=" " xlink:href="#font_3_1" transform="matrix(12,0,0,-12,209.06128,51.597475)"/>
<path transform="matrix(1,0,0,-1,223.4613,21.610108)" stroke-width="1" stroke-linecap="butt" stroke-miterlimit="8" stroke-linejoin="miter" fill="none" stroke="#000000" d="M0 0H72V-66H0Z"/>
<use data-text=" " xlink:href="#font_1_1" transform="matrix(14,0,0,-14,229.66132,51.81006)"/>
<use data-text="C" xlink:href="#font_1_6" transform="matrix(14,0,0,-14,233.55332,51.81006)"/>
<use data-text="o" xlink:href="#font_1_17" transform="matrix(14,0,0,-14,243.66132,51.81006)"/>
<use data-text="m" xlink:href="#font_1_15" transform="matrix(14,0,0,-14,251.44532,51.81006)"/>
<use data-text="p" xlink:href="#font_1_18" transform="matrix(14,0,0,-14,263.1073,51.81006)"/>
<use data-text="i" xlink:href="#font_1_12" transform="matrix(14,0,0,-14,270.8913,51.81006)"/>
<use data-text="l" xlink:href="#font_1_14" transform="matrix(14,0,0,-14,273.9993,51.81006)"/>
<use data-text="e" xlink:href="#font_1_11" transform="matrix(14,0,0,-14,277.1073,51.81006)"/>
<use data-text="r" xlink:href="#font_1_19" transform="matrix(14,0,0,-14,284.8913,51.81006)"/>
<use data-text="&#xfffd;" xlink:href="#font_2_1" transform="matrix(14,0,0,-14,289.55329,51.81006)"/>
<use data-text="(" xlink:href="#font_1_2" transform="matrix(14,0,0,-14,241.6593,67.81207)"/>
<use data-text="c" xlink:href="#font_3_5" transform="matrix(14,0,0,-14,246.32129,67.81207)"/>
<use data-text="c" xlink:href="#font_3_5" transform="matrix(14,0,0,-14,254.72129,67.81207)"/>
<use data-text="1" xlink:href="#font_3_3" transform="matrix(14,0,0,-14,263.12129,67.81207)"/>
<use data-text=")" xlink:href="#font_1_3" transform="matrix(14,0,0,-14,271.52128,67.81207)"/>
<use data-text="&#xfffd;" xlink:href="#font_2_1" transform="matrix(14,0,0,-14,276.18327,67.81207)"/>
<path transform="matrix(1,0,0,-1,295.4613,57.61017)" stroke-width="1" stroke-linecap="butt" stroke-linejoin="round" fill="none" stroke="#000000" d="M0 0H70"/>
<path transform="matrix(1,0,0,-1,361.4613,54.610109)" d="M0 0 6-3 0-6Z" fill-rule="evenodd"/>
<use data-text="h" xlink:href="#font_3_9" transform="matrix(12,0,0,-12,302.66133,51.597475)"/>
<use data-text="e" xlink:href="#font_3_7" transform="matrix(12,0,0,-12,309.86134,51.597475)"/>
<use data-text="l" xlink:href="#font_3_11" transform="matrix(12,0,0,-12,317.06135,51.597475)"/>
<use data-text="l" xlink:href="#font_3_11" transform="matrix(12,0,0,-12,324.26136,51.597475)"/>
<use data-text="o" xlink:href="#font_3_13" transform="matrix(12,0,0,-12,331.46138,51.597475)"/>
<use data-text="." xlink:href="#font_3_2" transform="matrix(12,0,0,-12,338.66139,51.597475)"/>
<use data-text="s" xlink:href="#font_3_16" transform="matrix(12,0,0,-12,345.8614,51.597475)"/>
<use data-text=" " xlink:href="#font_3_1" transform="matrix(12,0,0,-12,353.0614,51.597475)"/>
<path transform="matrix(1,0,0,-1,367.4612,21.610108)" stroke-width="1" stroke-linecap="butt" stroke-miterlimit="8" stroke-linejoin="miter" fill="none" stroke="#000000" d="M0 0H72V-66H0Z"/>
<use data-text="A" xlink:href="#font_1_5" transform="matrix(14,0,0,-14,370.66133,51.81006)"/>
<use data-text="s" xlink:href="#font_1_20" transform="matrix(14,0,0,-14,379.99934,51.81006)"/>
<use data-text="s" xlink:href="#font_1_20" transform="matrix(14,0,0,-14,386.99934,51.81006)"/>
<use data-text="e" xlink:href="#font_1_11" transform="matrix(14,0,0,-14,393.99934,51.81006)"/>
<use data-text="m" xlink:href="#font_1_15" transform="matrix(14,0,0,-14,401.78334,51.81006)"/>
<use data-text="b" xlink:href="#font_1_9" transform="matrix(14,0,0,-14,413.4453,51.81006)"/>
<use data-text="l" xlink:href="#font_1_14" transform="matrix(14,0,0,-14,421.2293,51.81006)"/>
<use data-text="e" xlink:href="#font_1_11" transform="matrix(14,0,0,-14,424.3373,51.81006)"/>
<use data-text="r" xlink:href="#font_1_19" transform="matrix(14,0,0,-14,432.1213,51.81006)"/>
<use data-text="&#xfffd;" xlink:href="#font_2_1" transform="matrix(14,0,0,-14,436.7833,51.81006)"/>
<use data-text="(" xlink:href="#font_1_2" transform="matrix(14,0,0,-14,390.66734,67.81207)"/>
<use data-text="a" xlink:href="#font_3_4" transform="matrix(14,0,0,-14,395.3293,67.81207)"/>
<use data-text="s" xlink:href="#font_3_16" transform="matrix(14,0,0,-14,403.7293,67.81207)"/>
<use data-text=")" xlink:href="#font_1_3" transform="matrix(14,0,0,-14,412.1293,67.81207)"/>
<use data-text="&#xfffd;" xlink:href="#font_2_1" transform="matrix(14,0,0,-14,416.7913,67.81207)"/>
<path transform="matrix(1,0,0,-1,439.4612,57.61017)" stroke-width="1" stroke-linecap="butt" stroke-linejoin="round" fill="none" stroke="#000000" d="M0 0H70"/>
<path transform="matrix(1,0,0,-1,505.46119,54.610109)" d="M0 0 6-3 0-6Z" fill-rule="evenodd"/>
<use data-text="h" xlink:href="#font_3_9" transform="matrix(12,0,0,-12,446.66133,51.597475)"/>
<use data-text="e" xlink:href="#font_3_7" transform="matrix(12,0,0,-12,453.86134,51.597475)"/>
<use data-text="l" xlink:href="#font_3_11" transform="matrix(12,0,0,-12,461.06135,51.597475)"/>
<use data-text="l" xlink:href="#font_3_11" transform="matrix(12,0,0,-12,468.26136,51.597475)"/>
<use data-text="o" xlink:href="#font_3_13" transform="matrix(12,0,0,-12,475.46138,51.597475)"/>
<use data-text="." xlink:href="#font_3_2" transform="matrix(12,0,0,-12,482.66139,51.597475)"/>
<use data-text="o" xlink:href="#font_3_13" transform="matrix(12,0,0,-12,489.8614,51.597475)"/>
<use data-text=" " xlink:href="#font_3_1" transform="matrix(12,0,0,-12,497.0614,51.597475)"/>
<path transform="matrix(1,0,0,-1,511.46113,21.610108)" stroke-width="1" stroke-linecap="butt" stroke-miterlimit="8" stroke-linejoin="miter" fill="none" stroke="#000000" d="M0 0H72V-66H0Z"/>
<use data-text="L" xlink:href="#font_1_7" transform="matrix(14,0,0,-14,528.6613,51.81006)"/>
<use data-text="i" xlink:href="#font_1_12" transform="matrix(14,0,0,-14,536.4453,51.81006)"/>
<use data-text="n" xlink:href="#font_1_16" transform="matrix(14,0,0,-14,539.5533,51.81006)"/>
<use data-text="k" xlink:href="#font_1_13" transform="matrix(14,0,0,-14,547.3373,51.81006)"/>
<use data-text="e" xlink:href="#font_1_11" transform="matrix(14,0,0,-14,554.3373,51.81006)"/>
<use data-text="r" xlink:href="#font_1_19" transform="matrix(14,0,0,-14,562.1213,51.81006)"/>
<use data-text="&#xfffd;" xlink:href="#font_2_1" transform="matrix(14,0,0,-14,566.78329,51.81006)"/>
<use data-text="(" xlink:href="#font_1_2" transform="matrix(14,0,0,-14,534.6673,67.81207)"/>
<use data-text="l" xlink:href="#font_3_11" transform="matrix(14,0,0,-14,539.3293,67.81207)"/>
<use data-text="d" xlink:href="#font_3_6" transform="matrix(14,0,0,-14,547.7293,67.81207)"/>
<use data-text=")" xlink:href="#font_1_3" transform="matrix(14,0,0,-14,556.12936,67.81207)"/>
<use data-text="&#xfffd;" xlink:href="#font_2_1" transform="matrix(14,0,0,-14,560.7913,67.81207)"/>
<path transform="matrix(1,0,0,-1,583.4611,57.61017)" stroke-width="1" stroke-linecap="butt" stroke-linejoin="round" fill="none" stroke="#000000" d="M0 0H70"/>
<path transform="matrix(1,0,0,-1,649.4612,54.610109)" d="M0 0 6-3 0-6Z" fill-rule="evenodd"/>
<use data-text="h" xlink:href="#font_3_9" transform="matrix(12,0,0,-12,597.9113,51.597475)"/>
<use data-text="e" xlink:href="#font_3_7" transform="matrix(12,0,0,-12,605.1113,51.597475)"/>
<use data-text="l" xlink:href="#font_3_11" transform="matrix(12,0,0,-12,612.31137,51.597475)"/>
<use data-text="l" xlink:href="#font_3_11" transform="matrix(12,0,0,-12,619.51138,51.597475)"/>
<use data-text="o" xlink:href="#font_3_13" transform="matrix(12,0,0,-12,626.71139,51.597475)"/>
<use data-text=" " xlink:href="#font_3_1" transform="matrix(12,0,0,-12,633.9114,51.597475)"/>
<g clip-path="url(#clip_4)">
<path transform="matrix(1,0,0,-1,7.4613,57.61017)" stroke-width="1" stroke-linecap="butt" stroke-linejoin="round" fill="none" stroke="#000000" d="M0 0H70"/>
</g>
<path transform="matrix(1,0,0,-1,73.4613,54.610109)" d="M0 0 6-3 0-6Z" fill-rule="evenodd"/>
<use data-text="h" xlink:href="#font_3_9" transform="matrix(12,0,0,-12,14.661301,51.597475)"/>
<use data-text="e" xlink:href="#font_3_7" transform="matrix(12,0,0,-12,21.861302,51.597475)"/>
<use data-text="l" xlink:href="#font_3_11" transform="matrix(12,0,0,-12,29.061303,51.597475)"/>
<use data-text="l" xlink:href="#font_3_11" transform="matrix(12,0,0,-12,36.261304,51.597475)"/>
<use data-text="o" xlink:href="#font_3_13" transform="matrix(12,0,0,-12,43.4613,51.597475)"/>
<use data-text="." xlink:href="#font_3_2" transform="matrix(12,0,0,-12,50.661298,51.597475)"/>
<use data-text="c" xlink:href="#font_3_5" transform="matrix(12,0,0,-12,57.861295,51.597475)"/>
<use data-text=" " xlink:href="#font_3_1" transform="matrix(12,0,0,-12,65.061298,51.597475)"/>
<use data-text="S" xlink:href="#font_5_7" transform="matrix(12,0,0,-12,18.285302,85.19748)"/>
<use data-text="o" xlink:href="#font_5_19" transform="matrix(12,0,0,-12,26.289303,85.19748)"/>
<use data-text="u" xlink:href="#font_5_24" transform="matrix(12,0,0,-12,32.961305,85.19748)"/>
<use data-text="r" xlink:href="#font_5_21" transform="matrix(12,0,0,-12,39.633306,85.19748)"/>
<use data-text="c" xlink:href="#font_5_10" transform="matrix(12,0,0,-12,43.629308,85.19748)"/>
<use data-text="e" xlink:href="#font_5_12" transform="matrix(12,0,0,-12,49.629308,85.19748)"/>
<use data-text="&#xfffd;" xlink:href="#font_6_1" transform="matrix(12,0,0,-12,56.30131,85.19748)"/>
<use data-text="p" xlink:href="#font_5_20" transform="matrix(12,0,0,-12,14.289303,99.20148)"/>
<use data-text="r" xlink:href="#font_5_21" transform="matrix(12,0,0,-12,20.961304,99.20148)"/>
<use data-text="o" xlink:href="#font_5_19" transform="matrix(12,0,0,-12,24.957303,99.20148)"/>
<use data-text="g" xlink:href="#font_5_13" transform="matrix(12,0,0,-12,31.629303,99.20148)"/>
<use data-text="r" xlink:href="#font_5_21" transform="matrix(12,0,0,-12,38.301305,99.20148)"/>
<use data-text="a" xlink:href="#font_5_8" transform="matrix(12,0,0,-12,42.297307,99.20148)"/>
<use data-text="m" xlink:href="#font_5_17" transform="matrix(12,0,0,-12,48.96931,99.20148)"/>
<use data-text="&#xfffd;" xlink:href="#font_6_1" transform="matrix(12,0,0,-12,58.965314,99.20148)"/>
<use data-text="(" xlink:href="#font_5_1" transform="matrix(12,0,0,-12,23.289303,113.205478)"/>
<use data-text="t" xlink:href="#font_5_23" transform="matrix(12,0,0,-12,27.285302,113.205478)"/>
<use data-text="e" xlink:href="#font_5_12" transform="matrix(12,0,0,-12,30.621304,113.205478)"/>
<use data-text="x" xlink:href="#font_5_25" transform="matrix(12,0,0,-12,37.2933,113.205478)"/>
<use data-text="t" xlink:href="#font_5_23" transform="matrix(12,0,0,-12,43.2933,113.205478)"/>
<use data-text=")" xlink:href="#font_5_2" transform="matrix(12,0,0,-12,46.6293,113.205478)"/>
<use data-text="&#xfffd;" xlink:href="#font_6_1" transform="matrix(12,0,0,-12,50.6253,113.205478)"/>
<use data-text="&#xfffd;" xlink:href="#font_7_5" transform="matrix(12,0,0,-12,163.66532,86.445468)"/>
<use data-text="&#xfffd;" xlink:href="#font_7_19" transform="matrix(12,0,0,-12,173.66132,86.445468)"/>
<use data-text="&#xfffd;" xlink:href="#font_7_11" transform="matrix(12,0,0,-12,180.33332,86.445468)"/>
<use data-text="&#xfffd;" xlink:href="#font_7_14" transform="matrix(12,0,0,-12,187.00531,86.445468)"/>
<use data-text="&#xfffd;" xlink:href="#font_7_27" transform="matrix(12,0,0,-12,189.66931,86.445468)"/>
<use data-text="&#xfffd;" xlink:href="#font_7_12" transform="matrix(12,0,0,-12,195.66931,86.445468)"/>
<use data-text="&#xfffd;" xlink:href="#font_7_11" transform="matrix(12,0,0,-12,202.34131,86.445468)"/>
<use data-text="&#xfffd;" xlink:href="#font_6_1" transform="matrix(12,0,0,-12,209.0133,86.445468)"/>
<use data-text="s" xlink:href="#font_5_22" transform="matrix(12,0,0,-12,168.66931,100.44946)"/>
<use data-text="o" xlink:href="#font_5_19" transform="matrix(12,0,0,-12,174.66931,100.44946)"/>
<use data-text="u" xlink:href="#font_5_24" transform="matrix(12,0,0,-12,181.34131,100.44946)"/>
<use data-text="r" xlink:href="#font_5_21" transform="matrix(12,0,0,-12,188.0133,100.44946)"/>
<use data-text="c" xlink:href="#font_5_10" transform="matrix(12,0,0,-12,192.00931,100.44946)"/>
<use data-text="e" xlink:href="#font_5_12" transform="matrix(12,0,0,-12,198.00931,100.44946)"/>
<use data-text="&#xfffd;" xlink:href="#font_6_1" transform="matrix(12,0,0,-12,204.6813,100.44946)"/>
<use data-text="p" xlink:href="#font_5_20" transform="matrix(12,0,0,-12,164.67331,114.45346)"/>
<use data-text="r" xlink:href="#font_5_21" transform="matrix(12,0,0,-12,171.3453,114.45346)"/>
<use data-text="o" xlink:href="#font_5_19" transform="matrix(12,0,0,-12,175.34131,114.45346)"/>
<use data-text="g" xlink:href="#font_5_13" transform="matrix(12,0,0,-12,182.0133,114.45346)"/>
<use data-text="r" xlink:href="#font_5_21" transform="matrix(12,0,0,-12,188.6853,114.45346)"/>
<use data-text="a" xlink:href="#font_5_8" transform="matrix(12,0,0,-12,192.6813,114.45346)"/>
<use data-text="m" xlink:href="#font_5_17" transform="matrix(12,0,0,-12,199.3533,114.45346)"/>
<use data-text="&#xfffd;" xlink:href="#font_6_1" transform="matrix(12,0,0,-12,209.3493,114.45346)"/>
<use data-text="(" xlink:href="#font_5_1" transform="matrix(12,0,0,-12,172.6773,129.45346)"/>
<use data-text="t" xlink:href="#font_5_23" transform="matrix(12,0,0,-12,176.67331,129.45346)"/>
<use data-text="e" xlink:href="#font_5_12" transform="matrix(12,0,0,-12,180.00931,129.45346)"/>
<use data-text="x" xlink:href="#font_5_25" transform="matrix(12,0,0,-12,186.6813,129.45346)"/>
<use data-text="t" xlink:href="#font_5_23" transform="matrix(12,0,0,-12,192.6813,129.45346)"/>
<use data-text=")" xlink:href="#font_5_2" transform="matrix(12,0,0,-12,196.0173,129.45346)"/>
<use data-text="&#xfffd;" xlink:href="#font_6_1" transform="matrix(12,0,0,-12,200.0133,129.45346)"/>
<use data-text="A" xlink:href="#font_5_3" transform="matrix(12,0,0,-12,304.1733,85.221469)"/>
<use data-text="s" xlink:href="#font_5_22" transform="matrix(12,0,0,-12,312.1773,85.221469)"/>
<use data-text="s" xlink:href="#font_5_22" transform="matrix(12,0,0,-12,318.1773,85.221469)"/>
<use data-text="e" xlink:href="#font_5_12" transform="matrix(12,0,0,-12,324.1773,85.221469)"/>
<use data-text="m" xlink:href="#font_5_17" transform="matrix(12,0,0,-12,330.8493,85.221469)"/>
<use data-text="b" xlink:href="#font_5_9" transform="matrix(12,0,0,-12,340.8453,85.221469)"/>
<use data-text="l" xlink:href="#font_5_16" transform="matrix(12,0,0,-12,347.5173,85.221469)"/>
<use data-text="y" xlink:href="#font_5_26" transform="matrix(12,0,0,-12,350.1813,85.221469)"/>
<use data-text="&#xfffd;" xlink:href="#font_6_1" transform="matrix(12,0,0,-12,356.1813,85.221469)"/>
<use data-text="p" xlink:href="#font_5_20" transform="matrix(12,0,0,-12,308.1693,99.225467)"/>
<use data-text="r" xlink:href="#font_5_21" transform="matrix(12,0,0,-12,314.8413,99.225467)"/>
<use data-text="o" xlink:href="#font_5_19" transform="matrix(12,0,0,-12,318.8373,99.225467)"/>
<use data-text="g" xlink:href="#font_5_13" transform="matrix(12,0,0,-12,325.5093,99.225467)"/>
<use data-text="r" xlink:href="#font_5_21" transform="matrix(12,0,0,-12,332.1813,99.225467)"/>
<use data-text="a" xlink:href="#font_5_8" transform="matrix(12,0,0,-12,336.1773,99.225467)"/>
<use data-text="m" xlink:href="#font_5_17" transform="matrix(12,0,0,-12,342.8493,99.225467)"/>
<use data-text="&#xfffd;" xlink:href="#font_6_1" transform="matrix(12,0,0,-12,352.8453,99.225467)"/>
<use data-text="(" xlink:href="#font_5_1" transform="matrix(12,0,0,-12,317.1693,113.22946)"/>
<use data-text="t" xlink:href="#font_5_23" transform="matrix(12,0,0,-12,321.1653,113.22946)"/>
<use data-text="e" xlink:href="#font_5_12" transform="matrix(12,0,0,-12,324.5013,113.22946)"/>
<use data-text="x" xlink:href="#font_5_25" transform="matrix(12,0,0,-12,331.1733,113.22946)"/>
<use data-text="t" xlink:href="#font_5_23" transform="matrix(12,0,0,-12,337.1733,113.22946)"/>
<use data-text=")" xlink:href="#font_5_2" transform="matrix(12,0,0,-12,340.5093,113.22946)"/>
<use data-text="&#xfffd;" xlink:href="#font_6_1" transform="matrix(12,0,0,-12,344.5053,113.22946)"/>
<use data-text="R" xlink:href="#font_5_6" transform="matrix(12,0,0,-12,445.54533,86.46945)"/>
<use data-text="e" xlink:href="#font_5_12" transform="matrix(12,0,0,-12,454.20933,86.46945)"/>
<use data-text="l" xlink:href="#font_5_16" transform="matrix(12,0,0,-12,460.88133,86.46945)"/>
<use data-text="o" xlink:href="#font_5_19" transform="matrix(12,0,0,-12,463.54533,86.46945)"/>
<use data-text="c" xlink:href="#font_5_10" transform="matrix(12,0,0,-12,470.21733,86.46945)"/>
<use data-text="a" xlink:href="#font_5_8" transform="matrix(12,0,0,-12,476.21733,86.46945)"/>
<use data-text="t" xlink:href="#font_5_23" transform="matrix(12,0,0,-12,482.8893,86.46945)"/>
<use data-text="a" xlink:href="#font_5_8" transform="matrix(12,0,0,-12,486.22535,86.46945)"/>
<use data-text="b" xlink:href="#font_5_9" transform="matrix(12,0,0,-12,492.89735,86.46945)"/>
<use data-text="l" xlink:href="#font_5_16" transform="matrix(12,0,0,-12,499.56935,86.46945)"/>
<use data-text="e" xlink:href="#font_5_12" transform="matrix(12,0,0,-12,502.23335,86.46945)"/>
<use data-text="&#xfffd;" xlink:href="#font_6_1" transform="matrix(12,0,0,-12,508.90534,86.46945)"/>
<use data-text="o" xlink:href="#font_5_19" transform="matrix(12,0,0,-12,461.54133,100.47345)"/>
<use data-text="b" xlink:href="#font_5_9" transform="matrix(12,0,0,-12,468.21333,100.47345)"/>
<use data-text="j" xlink:href="#font_5_15" transform="matrix(12,0,0,-12,474.8853,100.47345)"/>
<use data-text="e" xlink:href="#font_5_12" transform="matrix(12,0,0,-12,477.54933,100.47345)"/>
<use data-text="c" xlink:href="#font_5_10" transform="matrix(12,0,0,-12,484.2213,100.47345)"/>
<use data-text="t" xlink:href="#font_5_23" transform="matrix(12,0,0,-12,490.2213,100.47345)"/>
<use data-text="&#xfffd;" xlink:href="#font_6_1" transform="matrix(12,0,0,-12,493.5573,100.47345)"/>
<use data-text="p" xlink:href="#font_5_20" transform="matrix(12,0,0,-12,452.54133,114.47745)"/>
<use data-text="r" xlink:href="#font_5_21" transform="matrix(12,0,0,-12,459.21333,114.47745)"/>
<use data-text="o" xlink:href="#font_5_19" transform="matrix(12,0,0,-12,463.20933,114.47745)"/>
<use data-text="g" xlink:href="#font_5_13" transform="matrix(12,0,0,-12,469.88133,114.47745)"/>
<use data-text="r" xlink:href="#font_5_21" transform="matrix(12,0,0,-12,476.5533,114.47745)"/>
<use data-text="a" xlink:href="#font_5_8" transform="matrix(12,0,0,-12,480.54933,114.47745)"/>
<use data-text="m" xlink:href="#font_5_17" transform="matrix(12,0,0,-12,487.2213,114.47745)"/>
<use data-text="s" xlink:href="#font_5_22" transform="matrix(12,0,0,-12,497.2173,114.47745)"/>
<use data-text="&#xfffd;" xlink:href="#font_6_1" transform="matrix(12,0,0,-12,503.2173,114.47745)"/>
<use data-text="(" xlink:href="#font_5_1" transform="matrix(12,0,0,-12,457.54533,129.47745)"/>
<use data-text="b" xlink:href="#font_5_9" transform="matrix(12,0,0,-12,461.54133,129.47745)"/>
<use data-text="i" xlink:href="#font_5_14" transform="matrix(12,0,0,-12,468.21333,129.47745)"/>
<use data-text="n" xlink:href="#font_5_18" transform="matrix(12,0,0,-12,470.87733,129.47745)"/>
<use data-text="a" xlink:href="#font_5_8" transform="matrix(12,0,0,-12,477.54933,129.47745)"/>
<use data-text="r" xlink:href="#font_5_21" transform="matrix(12,0,0,-12,484.2213,129.47745)"/>
<use data-text="y" xlink:href="#font_5_26" transform="matrix(12,0,0,-12,488.2173,129.47745)"/>
<use data-text=")" xlink:href="#font_5_2" transform="matrix(12,0,0,-12,494.2173,129.47745)"/>
<use data-text="&#xfffd;" xlink:href="#font_6_1" transform="matrix(12,0,0,-12,498.21327,129.47745)"/>
<use data-text="E" xlink:href="#font_5_4" transform="matrix(12,0,0,-12,591.2973,86.481449)"/>
<use data-text="x" xlink:href="#font_5_25" transform="matrix(12,0,0,-12,599.30136,86.481449)"/>
<use data-text="e" xlink:href="#font_5_12" transform="matrix(12,0,0,-12,605.30136,86.481449)"/>
<use data-text="c" xlink:href="#font_5_10" transform="matrix(12,0,0,-12,611.9733,86.481449)"/>
<use data-text="u" xlink:href="#font_5_24" transform="matrix(12,0,0,-12,617.9733,86.481449)"/>
<use data-text="t" xlink:href="#font_5_23" transform="matrix(12,0,0,-12,624.6453,86.481449)"/>
<use data-text="a" xlink:href="#font_5_8" transform="matrix(12,0,0,-12,627.9813,86.481449)"/>
<use data-text="b" xlink:href="#font_5_9" transform="matrix(12,0,0,-12,634.6533,86.481449)"/>
<use data-text="l" xlink:href="#font_5_16" transform="matrix(12,0,0,-12,641.3253,86.481449)"/>
<use data-text="e" xlink:href="#font_5_12" transform="matrix(12,0,0,-12,643.9893,86.481449)"/>
<use data-text="&#xfffd;" xlink:href="#font_6_1" transform="matrix(12,0,0,-12,650.6613,86.481449)"/>
<use data-text="o" xlink:href="#font_5_19" transform="matrix(12,0,0,-12,605.30136,100.48544)"/>
<use data-text="b" xlink:href="#font_5_9" transform="matrix(12,0,0,-12,611.9733,100.48544)"/>
<use data-text="j" xlink:href="#font_5_15" transform="matrix(12,0,0,-12,618.6453,100.48544)"/>
<use data-text="e" xlink:href="#font_5_12" transform="matrix(12,0,0,-12,621.3093,100.48544)"/>
<use data-text="c" xlink:href="#font_5_10" transform="matrix(12,0,0,-12,627.9813,100.48544)"/>
<use data-text="t" xlink:href="#font_5_23" transform="matrix(12,0,0,-12,633.9813,100.48544)"/>
<use data-text="&#xfffd;" xlink:href="#font_6_1" transform="matrix(12,0,0,-12,637.3173,100.48544)"/>
<use data-text="p" xlink:href="#font_5_20" transform="matrix(12,0,0,-12,599.30136,114.48944)"/>
<use data-text="r" xlink:href="#font_5_21" transform="matrix(12,0,0,-12,605.9733,114.48944)"/>
<use data-text="o" xlink:href="#font_5_19" transform="matrix(12,0,0,-12,609.9693,114.48944)"/>
<use data-text="g" xlink:href="#font_5_13" transform="matrix(12,0,0,-12,616.6413,114.48944)"/>
<use data-text="r" xlink:href="#font_5_21" transform="matrix(12,0,0,-12,623.3133,114.48944)"/>
<use data-text="a" xlink:href="#font_5_8" transform="matrix(12,0,0,-12,627.30929,114.48944)"/>
<use data-text="m" xlink:href="#font_5_17" transform="matrix(12,0,0,-12,633.98129,114.48944)"/>
<use data-text="&#xfffd;" xlink:href="#font_6_1" transform="matrix(12,0,0,-12,643.97726,114.48944)"/>
<use data-text="(" xlink:href="#font_5_1" transform="matrix(12,0,0,-12,601.30538,129.48944)"/>
<use data-text="b" xlink:href="#font_5_9" transform="matrix(12,0,0,-12,605.30136,129.48944)"/>
<use data-text="i" xlink:href="#font_5_14" transform="matrix(12,0,0,-12,611.9733,129.48944)"/>
<use data-text="n" xlink:href="#font_5_18" transform="matrix(12,0,0,-12,614.6373,129.48944)"/>
<use data-text="a" xlink:href="#font_5_8" transform="matrix(12,0,0,-12,621.3093,129.48944)"/>
<use data-text="r" xlink:href="#font_5_21" transform="matrix(12,0,0,-12,627.9813,129.48944)"/>
<use data-text="y" xlink:href="#font_5_26" transform="matrix(12,0,0,-12,631.9773,129.48944)"/>
<use data-text=")" xlink:href="#font_5_2" transform="matrix(12,0,0,-12,637.9773,129.48944)"/>
<use data-text="&#xfffd;" xlink:href="#font_6_1" transform="matrix(12,0,0,-12,641.97329,129.48944)"/>
<path transform="matrix(1,0,0,-1,469.4612,35.98517)" stroke-width="1" stroke-linecap="butt" stroke-linejoin="round" fill="none" stroke="#000000" d="M0 0H40"/>
<path transform="matrix(1,0,0,-1,505.46119,32.985109)" d="M0 0 6-3 0-6Z" fill-rule="evenodd"/>
<use data-text="p" xlink:href="#font_3_14" transform="matrix(12,0,0,-12,440.6612,11.972595)"/>
<use data-text="r" xlink:href="#font_3_15" transform="matrix(12,0,0,-12,447.8612,11.972595)"/>
<use data-text="i" xlink:href="#font_3_10" transform="matrix(12,0,0,-12,455.06123,11.972595)"/>
<use data-text="n" xlink:href="#font_3_12" transform="matrix(12,0,0,-12,462.26124,11.972595)"/>
<use data-text="t" xlink:href="#font_3_17" transform="matrix(12,0,0,-12,469.46125,11.972595)"/>
<use data-text="f" xlink:href="#font_3_8" transform="matrix(12,0,0,-12,476.66127,11.972595)"/>
<use data-text="." xlink:href="#font_3_2" transform="matrix(12,0,0,-12,483.86128,11.972595)"/>
<use data-text="o" xlink:href="#font_3_13" transform="matrix(12,0,0,-12,491.06129,11.972595)"/>
<use data-text=" " xlink:href="#font_3_1" transform="matrix(12,0,0,-12,498.2613,11.972595)"/>
<path transform="matrix(1,0,0,-1,469.4612,17.985169)" stroke-width="1" stroke-linecap="butt" stroke-linejoin="round" fill="none" stroke="#000000" d="M0 0V-18"/>
</g>
</svg>
