<svg xmlns="http://www.w3.org/2000/svg" xmlns:xlink="http://www.w3.org/1999/xlink" version="1.1" width="619.92489pt" height="443.14299pt" viewBox="0 0 619.92489 443.14299">
<defs>
<clipPath id="clip_0">
<path transform="matrix(1,0,0,-1,-36.4661,580.29)" d="M36.4661 137.147H656.391V580.29H36.4661Z" fill-rule="evenodd"/>
</clipPath>
<path id="font_1_12" d="M.07373047 .71777346H.21289063L.4189453 .11091614 .62353518 .71777346H.76123049V0H.6689453V.42362977C.6689453 .43828837 .6692708 .46255494 .6699219 .49642945 .67057296 .53030398 .67089846 .56662496 .67089846 .60539248L.4663086 0H.3701172L.1640625 .60539248V.58340457C.1640625 .5658162 .1644694 .5390218 .1652832 .50302127 .166097 .46703086 .1665039 .44056703 .1665039 .42362977V0H.07373047V.71777346Z"/>
<path id="font_1_18" d="M.13183594 .1394043C.13183594 .114095058 .14111328 .09413656 .15966797 .07952881 .17822266 .06492106 .20019531 .057617189 .22558594 .057617189 .2565104 .057617189 .28645835 .06471761 .3154297 .07891846 .3642578 .10247803 .38867188 .14127605 .38867188 .1953125V.26611329C.3779297 .25886027 .36409507 .2528127 .34716798 .24797058 .33024089 .24313863 .3136393 .23983257 .29736329 .23805237L.24414063 .23184204C.21223958 .22799683 .1883138 .22153218 .17236328 .21244812 .14534505 .19718933 .13183594 .17284139 .13183594 .1394043M.34472657 .31689454C.36490885 .3194987 .37841798 .32796226 .3852539 .34228517 .38916017 .35012818 .39111329 .36140443 .39111329 .3761139 .39111329 .40618388 .38045249 .42799888 .35913087 .44155885 .33780924 .455129 .30729167 .46191407 .26757813 .46191407 .22167969 .46191407 .18912761 .44948326 .16992188 .42462159 .15917969 .4108785 .15218099 .39043174 .14892578 .36328126H.06689453C.06852213 .42791749 .08943685 .47288514 .12963867 .4981842 .1698405 .5234833 .21647136 .5361328 .26953126 .5361328 .3310547 .5361328 .38102214 .52441409 .4194336 .50097659 .45751954 .47753907 .4765625 .4410502 .4765625 .39151V.08985901C.4765625 .08073425 .47843424 .073404949 .48217774 .067871097 .48592124 .06233724 .4938151 .059570314 .5058594 .059570314 .5097656 .059570314 .51416018 .059814454 .51904299 .060302736 .5239258 .060791017 .5291341 .061523439 .53466799 .0625V-.0028076173C.5209961-.00676473 .5105794-.009236653 .50341799-.010223389 .4962565-.011220296 .48649089-.01171875 .4741211-.01171875 .44384767-.01171875 .421875-.0009104411 .40820313 .020706177 .40104167 .032170614 .3959961 .048380536 .3930664 .06933594 .37516276 .045633954 .34944663 .025060019 .31591798 .0076141359 .2823893-.009831746 .2454427-.018554688 .20507813-.018554688 .15657552-.018554688 .11694336-.0037790936 .08618164 .025772095 .055419923 .055323285 .040039064 .092300418 .040039064 .13670349 .040039064 .18535869 .05517578 .22307332 .08544922 .24984741 .115722659 .2766215 .1554362 .29311119 .20458985 .2993164L.34472657 .31689454M.27197267 .5361328V.5361328Z"/>
<path id="font_1_26" d="M.064453128 .5205078H.1538086V0H.064453128V.5205078M.064453128 .71777346H.1538086V.61816409H.064453128V.71777346Z"/>
<path id="font_1_30" d="M.064453128 .5234375H.14794922V.44921876C.1726888 .47981773 .19889324 .50179037 .2265625 .5151367 .25423179 .5284831 .2849935 .53515627 .31884767 .53515627 .3930664 .53515627 .44319663 .5092519 .46923829 .45744325 .4835612 .42910258 .49072267 .38853965 .49072267 .3357544V0H.4013672V.3299408C.4013672 .36188255 .39664714 .38762919 .38720704 .4071808 .37158204 .4397634 .34326173 .4560547 .3022461 .4560547 .28141276 .4560547 .2643229 .4539388 .25097657 .44970704 .22688802 .4425354 .20572917 .42819724 .1875 .4066925 .17285156 .38941957 .16333008 .37157694 .15893555 .35316468 .15454102 .3347524 .15234375 .30844117 .15234375 .27423097V0H.064453128V.5234375M.2709961 .5361328V.5361328Z"/>
<path id="font_2_1" d="M0 0Z"/>
<path id="font_1_29" d="M.064453128 .5234375H.15136719V.44921876C.17220052 .4749349 .19108074 .49365235 .20800781 .5053711 .23697917 .52522787 .26985679 .53515627 .30664063 .53515627 .34830729 .53515627 .38183595 .52490237 .40722657 .50439456 .42154948 .49267579 .4345703 .4754232 .44628907 .45263673 .4658203 .4806315 .48876954 .5013835 .5151367 .5148926 .5415039 .5284017 .5711263 .53515627 .6040039 .53515627 .6743164 .53515627 .72216799 .5097402 .7475586 .45890809 .76123049 .43154399 .7680664 .3947296 .7680664 .34846498V0H.6767578V.36367799C.6767578 .39853923 .6680501 .42248536 .65063479 .43551637 .6332194 .44855754 .6119792 .45507813 .58691409 .45507813 .5524089 .45507813 .5227051 .44350688 .49780274 .42036439 .4729004 .39723207 .46044923 .35861717 .46044923 .30451966V0H.37109376V.3416748C.37109376 .37719728 .36686198 .4031016 .35839845 .41938783 .3450521 .4438324 .32014976 .4560547 .2836914 .4560547 .25048829 .4560547 .22029622 .44318138 .19311524 .4174347 .16593425 .3916982 .15234375 .34510295 .15234375 .27764894V0H.064453128V.5234375Z"/>
<path id="font_1_22" d="M.28222657 .53515627C.31933595 .53515627 .355306 .52644857 .39013673 .5090332 .42496745 .49161784 .4514974 .4690806 .46972657 .4414215 .4873047 .41505433 .49902345 .3842977 .5048828 .3491516 .5100911 .32506309 .5126953 .28647868 .5126953 .23339844H.12939453C.13102214 .18033855 .14355469 .13777669 .16699219 .10571289 .19042969 .073649089 .22672527 .057617189 .2758789 .057617189 .32177735 .057617189 .35839845 .07261658 .3857422 .10261536 .4013672 .12003072 .4124349 .14018758 .4189453 .16308594H.5053711C.50309249 .14398194 .49552409 .122690837 .48266603 .09921265 .46980796 .07574463 .45540367 .05656433 .43945313 .041671754 .4127604 .01576233 .37972007-.0017242432 .34033204-.010787964 .3191732-.01596578 .2952474-.018554688 .2685547-.018554688 .20345052-.018554688 .14827474 .0051472985 .103027347 .05255127 .05777995 .09995524 .03515625 .16634114 .03515625 .25170899 .03515625 .33576457 .057942708 .40401713 .103515628 .45646668 .14908855 .5089264 .20865886 .53515627 .28222657 .53515627M.42236329 .30371095C.41878257 .34191896 .41048179 .37245179 .39746095 .39530946 .3733724 .4377594 .33317057 .45898438 .27685548 .45898438 .23649089 .45898438 .20263672 .44437156 .17529297 .41514588 .14794922 .3859202 .13346355 .34877525 .13183594 .30371095H.42236329M.27392579 .5361328V.5361328Z"/>
<path id="font_1_31" d="M.27197267 .057617189C.33024089 .057617189 .37019859 .07964579 .3918457 .123703 .41349284 .16776021 .4243164 .21677144 .4243164 .2707367 .4243164 .31950379 .4165039 .35917155 .4008789 .38974 .3761393 .43785606 .3334961 .46191407 .27294923 .46191407 .21923828 .46191407 .18017578 .44143168 .15576172 .40046693 .13134766 .35950218 .119140628 .31008403 .119140628 .25221253 .119140628 .1966095 .13134766 .15027364 .15576172 .113204959 .18017578 .076146449 .21891277 .057617189 .27197267 .057617189M.27539063 .53808596C.34277345 .53808596 .3997396 .5156453 .44628907 .47076417 .49283854 .42588298 .5161133 .35985819 .5161133 .27268983 .5161133 .1884613 .49560548 .11886088 .45458985 .06388855 .41357423 .008926392 .3499349-.018554688 .26367188-.018554688 .19173177-.018554688 .13460286 .00575765 .092285159 .054382326 .04996745 .103006999 .028808594 .16829936 .028808594 .2502594 .028808594 .33806864 .05110677 .4079895 .095703128 .46002198 .14029949 .51206466 .20019531 .53808596 .27539063 .53808596M.27246095 .5361328V.5361328Z"/>
<path id="font_1_33" d="M.06689453 .5234375H.15039063V.4326172C.15722656 .4502767 .17399089 .4717814 .2006836 .49713136 .2273763 .52248129 .25813804 .53515627 .29296876 .53515627 .29459635 .53515627 .29736329 .5349579 .30126954 .53456118 .30517579 .5341746 .31184898 .5333964 .32128907 .53222659V.43945313C.31608073 .44062297 .3112793 .44140116 .30688478 .44178773 .30249024 .44218446 .2976888 .4423828 .29248048 .4423828 .24820964 .4423828 .2141927 .4280599 .19042969 .39941407 .16666667 .37076823 .15478516 .33789063 .15478516 .30078126V0H.06689453V.5234375Z"/>
<path id="font_1_40" d="M.39111329 .5234375H.48828126C.47591148 .48987834 .44840495 .41330973 .40576173 .2937317 .3738607 .20380657 .34716798 .13049825 .3256836 .07380676 .27490235-.059921266 .23909505-.14145915 .21826172-.17080689 .19742839-.2001648 .1616211-.21484375 .110839847-.21484375 .098470058-.21484375 .08894857-.21435039 .08227539-.21336365 .07560221-.21238709 .06738281-.21058655 .057617189-.20796204V-.1274414C.072916667-.13167317 .083984378-.13427735 .09082031-.1352539 .09765625-.13623047 .10367838-.13671875 .10888672-.13671875 .12516277-.13671875 .13712566-.1340332 .14477539-.12866211 .15242513-.123291019 .15885417-.11669922 .1640625-.10888672 .16569011-.106282558 .17154949-.092936199 .18164063-.068847659 .19173177-.044759115 .19905599-.026855469 .20361328-.015136719L.010253906 .5234375H.10986328L.25 .09727478 .39111329 .5234375M.24951172 .5361328V.5361328Z"/>
<path id="font_1_9" d="M.09814453 .71777346H.19628906V0H.09814453V.71777346Z"/>
<path id="font_1_2" d="M.22753906 .71777346H.3017578L.07421875 0H0L.22753906 .71777346Z"/>
<path id="font_1_13" d="M.3857422 .7373047C.5123698 .7373047 .6061198 .6965637 .6669922 .6150818 .71451827 .55152389 .73828127 .47019959 .73828127 .371109 .73828127 .2638804 .7111003 .17473857 .6567383 .10368347 .5929362 .020238242 .5019531-.021484375 .38378907-.021484375 .2734375-.021484375 .1866862 .015019734 .123535159 .088027957 .067220058 .158432 .0390625 .24741619 .0390625 .35498048 .0390625 .45210777 .06315104 .53522238 .111328128 .60432437 .17317708 .6929779 .26464845 .7373047 .3857422 .7373047M.3955078 .06542969C.48111979 .06542969 .5430501 .09613546 .5812988 .157547 .61954757 .21895854 .6386719 .2895762 .6386719 .36940003 .6386719 .45378114 .61661788 .5217082 .57250979 .57318118 .5284017 .6246541 .46809898 .6503906 .39160157 .6503906 .3173828 .6503906 .25683595 .62489828 .20996094 .5739136 .16308594 .5229289 .13964844 .4477488 .13964844 .3483734 .13964844 .26888529 .15974935 .20185344 .19995117 .14727783 .240153 .0927124 .30533854 .06542969 .3955078 .06542969M.38867188 .7373047V.7373047Z"/>
<path id="font_1_1" d="M0 0Z"/>
<path id="font_1_19" d="M.057617189 .71875H.1430664V.45948792C.16227214 .4847056 .18522136 .50394698 .21191406 .5172119 .23860677 .53047689 .26757813 .5371094 .29882813 .5371094 .36393229 .5371094 .41674806 .5147095 .4572754 .46990968 .49780274 .42510987 .5180664 .35905458 .5180664 .27174378 .5180664 .1889801 .49804688 .12022909 .4580078 .06549072 .41796876 .010762532 .36246745-.016601563 .2915039-.016601563 .25179038-.016601563 .21826172-.006942749 .19091797 .012374878 .17464192 .023839316 .15722656 .042175294 .13867188 .06738281V0H.057617189V.71875M.2861328 .061523439C.33365885 .061523439 .36922203 .08037821 .39282228 .11808777 .41642253 .1558075 .42822267 .20555115 .42822267 .26731874 .42822267 .32227073 .41642253 .3677877 .39282228 .40386964 .36922203 .43996177 .33447267 .4580078 .28857423 .4580078 .24853516 .4580078 .21346028 .44321189 .18334961 .41362 .15323894 .3840383 .1381836 .3352712 .1381836 .26731874 .1381836 .21822612 .14436849 .17840068 .15673828 .1478424 .17985027 .090296428 .22298177 .061523439 .2861328 .061523439Z"/>
<path id="font_1_21" d="M.12011719 .2553711C.12011719 .19923909 .1319987 .15224712 .15576172 .11439514 .17952474 .076543178 .21761067 .057617189 .27001954 .057617189 .31070964 .057617189 .3441569 .075154628 .37036134 .11022949 .39656578 .14531453 .40966798 .19565328 .40966798 .26124574 .40966798 .32748924 .39615885 .37651573 .36914063 .4083252 .3421224 .44014488 .3087565 .4560547 .26904298 .4560547 .22477214 .4560547 .18888347 .4390869 .16137696 .40515138 .13387044 .37121583 .12011719 .32128907 .12011719 .2553711M.2524414 .53222659C.29248048 .53222659 .32600913 .52381899 .35302735 .5070038 .36865235 .4972992 .38639323 .48031617 .40625 .4560547V.71875H.49072267V0H.4116211V.07229614C.39111329 .04023234 .36686198 .017074585 .3388672 .002822876 .3108724-.011428833 .2788086-.018554688 .24267578-.018554688 .18440755-.018554688 .13395183 .0059407555 .091308597 .05493164 .048665365 .10392252 .02734375 .16910808 .02734375 .25048829 .02734375 .32666017 .04679362 .39265953 .08569336 .44848634 .1245931 .5043132 .18017578 .53222659 .2524414 .53222659Z"/>
<path id="font_1_24" d="M.24902344 .53222659C.29003907 .53222659 .32584635 .5220744 .3564453 .50177 .37304688 .49030558 .38997398 .4736023 .40722657 .45166017V.5185547H.48828126V.04234314C.48828126-.024154664 .47851563-.07663473 .45898438-.115097049 .42252604-.18615215 .35367839-.22167969 .2524414-.22167969 .1961263-.22167969 .14876302-.20906575 .11035156-.18383789 .0719401-.15861003 .05045573-.119140628 .045898439-.06542969H.1352539C.13948567-.08873495 .14794922-.10669454 .16064453-.11930847 .1805013-.13872783 .2117513-.1484375 .25439454-.1484375 .32177735-.1484375 .3658854-.12467448 .38671876-.07714844 .39908854-.04916382 .40478517 .0007985433 .4038086 .07273865 .38623048 .04588318 .36507163 .025904337 .34033204 .012802124 .31559245-.000289917 .2828776-.0068359377 .2421875-.0068359377 .18554688-.0068359377 .13598633 .013280232 .09350586 .053512575 .05102539 .09375509 .029785157 .16030376 .029785157 .25315858 .029785157 .34080506 .051188154 .40922547 .09399414 .4584198 .13680013 .5076243 .18847656 .53222659 .24902344 .53222659M.40722657 .26342774C.40722657 .328125 .39388023 .37607829 .3671875 .4072876 .34049479 .43849693 .30647788 .45410157 .26513673 .45410157 .20328777 .45410157 .16097005 .4251658 .1381836 .3672943 .12613933 .33641053 .12011719 .29593406 .12011719 .24586487 .12011719 .1870168 .13208008 .14223226 .15600586 .11151123 .17993164 .0807902 .21207683 .06542969 .2524414 .06542969 .31559245 .06542969 .36002604 .09387716 .3857422 .1507721 .4000651 .18295796 .40722657 .22050984 .40722657 .26342774M.25927735 .5361328V.5361328Z"/>
<path id="font_1_4" d="M.34570313 .4140625C.38671876 .4140625 .41861979 .4197693 .44140626 .43118287 .47721354 .4491272 .4951172 .48142497 .4951172 .5280762 .4951172 .57506307 .47607423 .6067098 .43798829 .62301638 .4165039 .6321513 .38460288 .63671877 .34228517 .63671877H.16894531V.4140625H.34570313M.37841798 .08300781C.43798829 .08300781 .48046876 .100224819 .5058594 .13465882 .5218099 .15642803 .52978518 .18274434 .52978518 .21360779 .52978518 .26559959 .50651046 .30101524 .45996095 .31985475 .43522135 .32992555 .4025065 .33496095 .3618164 .33496095H.16894531V.08300781H.37841798M.07373047 .71777346H.38183595C.4658203 .71777346 .5255534 .6926575 .56103518 .64242556 .58186849 .6127421 .59228518 .5784963 .59228518 .5396881 .59228518 .49434916 .57942709 .45716349 .55371096 .4281311 .54036459 .41280113 .5211589 .3987783 .49609376 .38606263 .5328776 .3720754 .5603841 .35629273 .5786133 .3387146 .61083987 .30748496 .6269531 .26437379 .6269531 .2093811 .6269531 .16317749 .61246749 .12136841 .5834961 .08395386 .54020187 .02798462 .47135417 0 .37695313 0H.07373047V.71777346Z"/>
<path id="font_1_36" d="M.15234375 .5234375V.17590332C.15234375 .1491801 .15657552 .12734477 .16503906 .11039734 .18066406 .07911682 .20979817 .06347656 .2524414 .06347656 .3136393 .06347656 .355306 .09085083 .3774414 .14559937 .3894857 .17492676 .3955078 .21516927 .3955078 .2663269V.5234375H.48339845V0H.40039063L.4013672 .0771637C.38997398 .057195028 .3758138 .040339155 .35888673 .02659607 .32535807-.00090026858 .28466798-.0146484379 .2368164-.0146484379 .16227214-.0146484379 .11149088 .010299683 .084472659 .060195924 .06982422 .08693949 .0625 .12265015 .0625 .16732788V.5234375H.15234375M.27294923 .5361328V.5361328Z"/>
<path id="font_1_34" d="M.11669922 .1640625C.11930338 .13463338 .12662761 .11207072 .13867188 .09637451 .1608073 .06793213 .19921875 .053710939 .25390626 .053710939 .28645835 .053710939 .31510417 .060806276 .33984376 .07499695 .36458335 .08919779 .37695313 .11115011 .37695313 .14085388 .37695313 .16337586 .36702476 .18051148 .34716798 .19226074 .33447267 .19944255 .30940757 .20775859 .27197267 .21720886L.20214844 .2348175C.15755208 .24590557 .12467448 .25829569 .103515628 .27198792 .06575521 .29579164 .046875 .32873027 .046875 .37080384 .046875 .42036439 .064697269 .46046958 .1003418 .49111939 .13598633 .52177938 .18391927 .5371094 .24414063 .5371094 .32291667 .5371094 .37972007 .5139974 .41455079 .46777345 .4363607 .43847657 .4469401 .40690104 .44628907 .37304688H.36328126C.36165367 .39269004 .35465495 .41055808 .34228517 .426651 .32210288 .44950868 .28710938 .4609375 .23730469 .4609375 .20410156 .4609375 .17895508 .45461528 .16186524 .44197084 .14477539 .42933656 .13623047 .41264854 .13623047 .39190675 .13623047 .36922203 .14746094 .35107423 .16992188 .33746339 .1829427 .32936607 .20214844 .32221986 .22753906 .31602479L.28564454 .3018341C.34879557 .28650413 .39111329 .27166749 .41259767 .25732423 .44677735 .23482259 .4638672 .19944255 .4638672 .15118408 .4638672 .10455322 .44620768 .06428019 .41088868 .03036499 .37556968-.0035502117 .32177735-.020507813 .24951172-.020507813 .17171224-.020507813 .116617839-.002802531 .084228519 .032608034 .05183919 .06801859 .034505208 .111836757 .032226564 .1640625H.11669922M.24658203 .5361328V.5361328Z"/>
<path id="font_1_35" d="M.08203125 .66796877H.17089844V.5234375H.25439454V.4501953H.17089844V.110183719C.17089844 .09202576 .17708333 .07986959 .18945313 .07371521 .19628906 .07014465 .2076823 .068359378 .22363281 .068359378 .22786458 .068359378 .23242188 .06846619 .23730469 .06867981 .2421875 .0689036 .24788411 .06944784 .25439454 .0703125V0C.24430339-.0031026204 .23380535-.005340576 .22290039-.006713867 .21199544-.008097331 .20019531-.0087890629 .1875-.0087890629 .14648438-.0087890629 .118652347 .0016988119 .104003909 .02267456 .08935547 .04365031 .08203125 .070882167 .08203125 .10437012V.4501953H.011230469V.5234375H.08203125V.66796877Z"/>
<path id="font_1_23" d="M.08642578 .6021576C.08772787 .638443 .09407552 .66500857 .10546875 .68185427 .12597656 .7116597 .16552735 .7265625 .2241211 .7265625 .22965496 .7265625 .23535156 .7263997 .24121094 .7260742 .24707031 .7257487 .2537435 .72526046 .26123048 .7246094V.64453127C.25211589 .6449687 .2455241 .6452382 .24145508 .64533999 .23738607 .64545187 .2335612 .6455078 .22998047 .6455078 .20328777 .6455078 .18733724 .6386719 .1821289 .625 .17692058 .6113281 .1743164 .5764974 .1743164 .5205078H.26123048V.45117188H.17333985V0H.08642578V.45117188H.013671875V.5205078H.08642578V.6021576Z"/>
<path id="font_1_20" d="M.26611329 .53808596C.32503257 .53808596 .37296549 .5237274 .4099121 .49501039 .44685874 .46629334 .46907554 .41684977 .4765625 .3466797H.39111329C.38590495 .37890626 .37402345 .40568034 .35546876 .42700196 .33691407 .44832359 .3071289 .45898438 .26611329 .45898438 .2101237 .45898438 .17008464 .43170677 .1459961 .3771515 .1303711 .34176127 .122558597 .29808555 .122558597 .24612427 .122558597 .19384766 .1336263 .14984639 .15576172 .11412048 .17789714 .07840475 .21272786 .060546876 .2602539 .060546876 .29671226 .060546876 .3256022 .0716095 .34692384 .09373474 .36824546 .115859989 .38297526 .1461385 .39111329 .18457031H.4765625C.46679688 .115234378 .4423828 .06453451 .4033203 .032470704 .3642578 .00040690104 .31429038-.015625 .25341798-.015625 .1850586-.015625 .13053386 .009379069 .08984375 .059387208 .049153646 .10940552 .028808594 .17188008 .028808594 .24681092 .028808594 .33868919 .05110677 .41020204 .095703128 .4613495 .14029949 .51250717 .19710286 .53808596 .26611329 .53808596M.2524414 .5361328V.5361328Z"/>
<path id="font_1_3" d="M.44433595 .2939453 .33544923 .61120608 .21972656 .2939453H.44433595M.28466798 .71777346H.39453126L.65478518 0H.54833987L.47558595 .21484375H.19189453L.11425781 0H.0146484379L.28466798 .71777346M.33496095 .71777346V.71777346Z"/>
<path id="font_1_11" d="M.076171878 .71777346H.17333985V.0859375H.5366211V0H.076171878V.71777346Z"/>
<path id="font_1_17" d="M.18164063 .71777346V.27441407C.18164063 .22233074 .19140625 .17903646 .2109375 .14453125 .23990886 .092447917 .28873698 .06640625 .35742188 .06640625 .43977867 .06640625 .49576823 .094563808 .5253906 .1508789 .5413411 .18147786 .5493164 .22265625 .5493164 .27441407V.71777346H.6479492V.3149414C.6479492 .22672527 .6360677 .15885417 .6123047 .111328128 .5686849 .024739584 .48632813-.018554688 .36523438-.018554688 .24414063-.018554688 .16194661 .024739584 .118652347 .111328128 .09488932 .15885417 .08300781 .22672527 .08300781 .3149414V.71777346H.18164063M.36572267 .71777346V.71777346Z"/>
<path id="font_3_15" d="M.40966798 .38867188C.45524089 .38867188 .49129234 .39778648 .51782229 .41601563 .54435226 .43424479 .5576172 .4671224 .5576172 .51464846 .5576172 .5657552 .5390625 .60058596 .5019531 .6191406 .48209635 .62890627 .4555664 .63378909 .42236329 .63378909H.1850586V.38867188H.40966798M.087890628 .71777346H.41992188C.47460938 .71777346 .51969406 .709788 .5551758 .69381716 .6225586 .6631775 .65625 .60662338 .65625 .52415469 .65625 .48112489 .6473796 .44591777 .6296387 .41853334 .61189779 .39115907 .58707687 .36916099 .5551758 .35253907 .5831706 .34114585 .60424807 .32617188 .6184082 .3076172 .63256838 .2890625 .6404622 .2589518 .64208987 .21728516L.6455078 .12109375C.6464844 .09388224 .648763 .07363383 .65234377 .06034851 .6582031 .037663778 .6686198 .023081461 .68359377 .016601563V0H.5644531C.56119796 .006184896 .55859377 .014160156 .5566406 .023925782 .5546875 .033691408 .5530599 .052571615 .5517578 .080566409L.54589846 .20019531C.5436198 .24707031 .5262044 .27848307 .49365235 .2944336 .47509767 .30322267 .44596354 .3076172 .40625 .3076172H.1850586V0H.087890628V.71777346Z"/>
<path id="font_3_22" d="M.28222657 .53515627C.31933595 .53515627 .355306 .52644857 .39013673 .5090332 .42496745 .49161784 .4514974 .4690806 .46972657 .4414215 .4873047 .41505433 .49902345 .3842977 .5048828 .3491516 .5100911 .32506309 .5126953 .28647868 .5126953 .23339844H.12939453C.13102214 .18033855 .14355469 .13777669 .16699219 .10571289 .19042969 .073649089 .22672527 .057617189 .2758789 .057617189 .32177735 .057617189 .35839845 .07261658 .3857422 .10261536 .4013672 .12003072 .4124349 .14018758 .4189453 .16308594H.5053711C.50309249 .14398194 .49552409 .122690837 .48266603 .09921265 .46980796 .07574463 .45540367 .05656433 .43945313 .041671754 .4127604 .01576233 .37972007-.0017242432 .34033204-.010787964 .3191732-.01596578 .2952474-.018554688 .2685547-.018554688 .20345052-.018554688 .14827474 .0051472985 .103027347 .05255127 .05777995 .09995524 .03515625 .16634114 .03515625 .25170899 .03515625 .33576457 .057942708 .40401713 .103515628 .45646668 .14908855 .5089264 .20865886 .53515627 .28222657 .53515627M.42236329 .30371095C.41878257 .34191896 .41048179 .37245179 .39746095 .39530946 .3733724 .4377594 .33317057 .45898438 .27685548 .45898438 .23649089 .45898438 .20263672 .44437156 .17529297 .41514588 .14794922 .3859202 .13346355 .34877525 .13183594 .30371095H.42236329M.27392579 .5361328V.5361328Z"/>
<path id="font_3_24" d="M.24902344 .53222659C.29003907 .53222659 .32584635 .5220744 .3564453 .50177 .37304688 .49030558 .38997398 .4736023 .40722657 .45166017V.5185547H.48828126V.04234314C.48828126-.024154664 .47851563-.07663473 .45898438-.115097049 .42252604-.18615215 .35367839-.22167969 .2524414-.22167969 .1961263-.22167969 .14876302-.20906575 .11035156-.18383789 .0719401-.15861003 .05045573-.119140628 .045898439-.06542969H.1352539C.13948567-.08873495 .14794922-.10669454 .16064453-.11930847 .1805013-.13872783 .2117513-.1484375 .25439454-.1484375 .32177735-.1484375 .3658854-.12467448 .38671876-.07714844 .39908854-.04916382 .40478517 .0007985433 .4038086 .07273865 .38623048 .04588318 .36507163 .025904337 .34033204 .012802124 .31559245-.000289917 .2828776-.0068359377 .2421875-.0068359377 .18554688-.0068359377 .13598633 .013280232 .09350586 .053512575 .05102539 .09375509 .029785157 .16030376 .029785157 .25315858 .029785157 .34080506 .051188154 .40922547 .09399414 .4584198 .13680013 .5076243 .18847656 .53222659 .24902344 .53222659M.40722657 .26342774C.40722657 .328125 .39388023 .37607829 .3671875 .4072876 .34049479 .43849693 .30647788 .45410157 .26513673 .45410157 .20328777 .45410157 .16097005 .4251658 .1381836 .3672943 .12613933 .33641053 .12011719 .29593406 .12011719 .24586487 .12011719 .1870168 .13208008 .14223226 .15600586 .11151123 .17993164 .0807902 .21207683 .06542969 .2524414 .06542969 .31559245 .06542969 .36002604 .09387716 .3857422 .1507721 .4000651 .18295796 .40722657 .22050984 .40722657 .26342774M.25927735 .5361328V.5361328Z"/>
<path id="font_3_26" d="M.064453128 .5205078H.1538086V0H.064453128V.5205078M.064453128 .71777346H.1538086V.61816409H.064453128V.71777346Z"/>
<path id="font_3_34" d="M.11669922 .1640625C.11930338 .13463338 .12662761 .11207072 .13867188 .09637451 .1608073 .06793213 .19921875 .053710939 .25390626 .053710939 .28645835 .053710939 .31510417 .060806276 .33984376 .07499695 .36458335 .08919779 .37695313 .11115011 .37695313 .14085388 .37695313 .16337586 .36702476 .18051148 .34716798 .19226074 .33447267 .19944255 .30940757 .20775859 .27197267 .21720886L.20214844 .2348175C.15755208 .24590557 .12467448 .25829569 .103515628 .27198792 .06575521 .29579164 .046875 .32873027 .046875 .37080384 .046875 .42036439 .064697269 .46046958 .1003418 .49111939 .13598633 .52177938 .18391927 .5371094 .24414063 .5371094 .32291667 .5371094 .37972007 .5139974 .41455079 .46777345 .4363607 .43847657 .4469401 .40690104 .44628907 .37304688H.36328126C.36165367 .39269004 .35465495 .41055808 .34228517 .426651 .32210288 .44950868 .28710938 .4609375 .23730469 .4609375 .20410156 .4609375 .17895508 .45461528 .16186524 .44197084 .14477539 .42933656 .13623047 .41264854 .13623047 .39190675 .13623047 .36922203 .14746094 .35107423 .16992188 .33746339 .1829427 .32936607 .20214844 .32221986 .22753906 .31602479L.28564454 .3018341C.34879557 .28650413 .39111329 .27166749 .41259767 .25732423 .44677735 .23482259 .4638672 .19944255 .4638672 .15118408 .4638672 .10455322 .44620768 .06428019 .41088868 .03036499 .37556968-.0035502117 .32177735-.020507813 .24951172-.020507813 .17171224-.020507813 .116617839-.002802531 .084228519 .032608034 .05183919 .06801859 .034505208 .111836757 .032226564 .1640625H.11669922M.24658203 .5361328V.5361328Z"/>
<path id="font_3_35" d="M.08203125 .66796877H.17089844V.5234375H.25439454V.4501953H.17089844V.110183719C.17089844 .09202576 .17708333 .07986959 .18945313 .07371521 .19628906 .07014465 .2076823 .068359378 .22363281 .068359378 .22786458 .068359378 .23242188 .06846619 .23730469 .06867981 .2421875 .0689036 .24788411 .06944784 .25439454 .0703125V0C.24430339-.0031026204 .23380535-.005340576 .22290039-.006713867 .21199544-.008097331 .20019531-.0087890629 .1875-.0087890629 .14648438-.0087890629 .118652347 .0016988119 .104003909 .02267456 .08935547 .04365031 .08203125 .070882167 .08203125 .10437012V.4501953H.011230469V.5234375H.08203125V.66796877Z"/>
<path id="font_3_33" d="M.06689453 .5234375H.15039063V.4326172C.15722656 .4502767 .17399089 .4717814 .2006836 .49713136 .2273763 .52248129 .25813804 .53515627 .29296876 .53515627 .29459635 .53515627 .29736329 .5349579 .30126954 .53456118 .30517579 .5341746 .31184898 .5333964 .32128907 .53222659V.43945313C.31608073 .44062297 .3112793 .44140116 .30688478 .44178773 .30249024 .44218446 .2976888 .4423828 .29248048 .4423828 .24820964 .4423828 .2141927 .4280599 .19042969 .39941407 .16666667 .37076823 .15478516 .33789063 .15478516 .30078126V0H.06689453V.5234375Z"/>
<path id="font_3_1" d="M0 0Z"/>
<path id="font_3_41" d="M.08642578 .6021576C.08772787 .638443 .09407552 .66500857 .10546875 .68185427 .12597656 .7116597 .16552735 .7265625 .2241211 .7265625 .22965496 .7265625 .23535156 .7263997 .24121094 .7260742 .24707031 .7257487 .2537435 .72526046 .26123048 .7246094V.64453127C.25211589 .6449687 .2455241 .6452382 .24145508 .64533999 .23738607 .64545187 .2335612 .6455078 .22998047 .6455078 .20328777 .6455078 .18733724 .6386719 .1821289 .625 .17692058 .6113281 .1743164 .5764974 .1743164 .5205078H.26123048V.45117188H.17333985V0H.08642578V.45117188H.013671875V.5205078H.08642578V.6021576M.34570313 .61816409V.71777346H.43359376V.61816409H.34570313M.34570313 .5205078H.43359376V0H.34570313V.5205078Z"/>
<path id="font_3_28" d="M.06689453 .71777346H.15478516V0H.06689453V.71777346Z"/>
<clipPath id="clip_4">
<path transform="matrix(1,0,0,-1,-36.4661,580.29)" d="M36 36H756V576H36Z"/>
</clipPath>
<path id="font_1_5" d="M.37841798 .7373047C.46923829 .7373047 .53971359 .71332809 .58984377 .66537478 .63997396 .61742147 .66780599 .5629476 .67333987 .5019531H.5786133C.5678711 .54817709 .5464681 .58479818 .5144043 .6118164 .48234049 .63883468 .43733726 .65234377 .37939454 .65234377 .3087565 .65234377 .25170899 .62754318 .20825196 .5779419 .16479492 .52834066 .1430664 .45231629 .1430664 .34986878 .1430664 .26594544 .16267903 .19788106 .2019043 .14567566 .24112956 .09348043 .29964195 .06738281 .3774414 .06738281 .449056 .06738281 .50358077 .094823207 .5410156 .14970398 .5608724 .17860413 .5756836 .21659343 .5854492 .26367188H.6801758C.6717122 .18815105 .64371749 .12483724 .5961914 .07373047 .5392253 .012207031 .46240235-.018554688 .36572267-.018554688 .2823893-.018554688 .21240235 .006688436 .15576172 .057174684 .081217449 .12394714 .043945314 .2270406 .043945314 .36645509 .043945314 .47232057 .0719401 .5591278 .12792969 .62687686 .18847656 .7004954 .27197267 .7373047 .37841798 .7373047M.35888673 .7373047V.7373047Z"/>
<path id="font_1_14" d="M.08544922 .71777346H.40820313C.47200523 .71777346 .5234375 .6997884 .5625 .66381838 .6015625 .6278483 .62109377 .5773112 .62109377 .51220706 .62109377 .45621745 .6036784 .4074707 .56884768 .3659668 .5340169 .3244629 .48046876 .30371095 .40820313 .30371095H.18261719V0H.08544922V.71777346M.5229492 .5114746C.5229492 .56410726 .50341799 .5998433 .46435548 .61868289 .4428711 .62875369 .41341148 .63378909 .37597657 .63378909H.18261719V.3857422H.37597657C.41959635 .3857422 .45499674 .39499919 .48217774 .41351319 .5093587 .43203736 .5229492 .46469117 .5229492 .5114746Z"/>
<path id="font_1_16" d="M.13964844 .23144531C.14192708 .19064331 .15152996 .1575063 .16845703 .1320343 .2006836 .084376018 .25748698 .060546876 .3388672 .060546876 .37532554 .060546876 .40852867 .06575521 .43847657 .076171878 .49641929 .096354167 .5253906 .13248189 .5253906 .18455506 .5253906 .22361756 .5131836 .25144959 .48876954 .26805116 .46402995 .2843882 .42529298 .29859925 .3725586 .3106842L.27539063 .3327484C.21191406 .3471222 .16699219 .36294047 .140625 .38020326 .095052089 .41016136 .072265628 .4549408 .072265628 .5145416 .072265628 .57902529 .094563808 .6319478 .13916016 .6733093 .18375652 .71467086 .24690755 .73535159 .32861329 .73535159 .4038086 .73535159 .46769206 .7172038 .5202637 .6809082 .57283529 .6446126 .5991211 .58658859 .5991211 .50683596H.5078125C.5029297 .5452474 .49251304 .57470706 .4765625 .59521487 .4469401 .6326497 .39664714 .6513672 .3256836 .6513672 .26839195 .6513672 .22721355 .63931277 .20214844 .61520388 .17708333 .591095 .16455078 .56307479 .16455078 .5311432 .16455078 .49595643 .17919922 .47021995 .2084961 .45393373 .22770183 .44350688 .27115885 .43047587 .3388672 .4148407L.43945313 .39187623C.48795573 .38079835 .5253906 .36565147 .5517578 .34643556 .59733077 .31288658 .6201172 .26419068 .6201172 .2003479 .6201172 .12085978 .59122726 .06401571 .53344729 .029815674 .47566734-.004384359 .40852867-.021484375 .33203126-.021484375 .24283855-.021484375 .17301433 .0013478597 .122558597 .04701233 .07210287 .0923411 .04736328 .15381877 .048339845 .23144531H.13964844M.3359375 .7373047V.7373047Z"/>
<path id="font_1_6" d="M.3515625 .08300781C.3844401 .08300781 .41145835 .08642578 .4326172 .09326172 .4703776 .10595703 .50130209 .1303711 .5253906 .1665039 .5445964 .19547527 .55843099 .23258464 .56689456 .27783204 .57177737 .30485026 .57421877 .32991538 .57421877 .35302735 .57421877 .44189454 .55655929 .51090499 .52124026 .5600586 .48592124 .6092122 .42903648 .63378909 .35058595 .63378909H.17822266V.08300781H.3515625M.080566409 .71777346H.37109376C.46972657 .71777346 .54622396 .6827545 .60058596 .6127167 .64908859 .54952499 .67333987 .46857707 .67333987 .36987306 .67333987 .2936503 .6590169 .22475688 .6303711 .16319275 .57991537 .054397584 .49316407 0 .3701172 0H.080566409V.71777346Z"/>
<path id="font_1_27" d="M.0625 .71777346H.14697266V.30101014L.3725586 .5234375H.48486329L.28466798 .32881166 .49609376 0H.38378907L.22070313 .26635743 .14697266 .19647217V0H.0625V.71777346Z"/>
<path id="font_3_20" d="M.26611329 .53808596C.32503257 .53808596 .37296549 .5237274 .4099121 .49501039 .44685874 .46629334 .46907554 .41684977 .4765625 .3466797H.39111329C.38590495 .37890626 .37402345 .40568034 .35546876 .42700196 .33691407 .44832359 .3071289 .45898438 .26611329 .45898438 .2101237 .45898438 .17008464 .43170677 .1459961 .3771515 .1303711 .34176127 .122558597 .29808555 .122558597 .24612427 .122558597 .19384766 .1336263 .14984639 .15576172 .11412048 .17789714 .07840475 .21272786 .060546876 .2602539 .060546876 .29671226 .060546876 .3256022 .0716095 .34692384 .09373474 .36824546 .115859989 .38297526 .1461385 .39111329 .18457031H.4765625C.46679688 .115234378 .4423828 .06453451 .4033203 .032470704 .3642578 .00040690104 .31429038-.015625 .25341798-.015625 .1850586-.015625 .13053386 .009379069 .08984375 .059387208 .049153646 .10940552 .028808594 .17188008 .028808594 .24681092 .028808594 .33868919 .05110677 .41020204 .095703128 .4613495 .14029949 .51250717 .19710286 .53808596 .26611329 .53808596M.2524414 .5361328V.5361328Z"/>
<path id="font_3_31" d="M.27197267 .057617189C.33024089 .057617189 .37019859 .07964579 .3918457 .123703 .41349284 .16776021 .4243164 .21677144 .4243164 .2707367 .4243164 .31950379 .4165039 .35917155 .4008789 .38974 .3761393 .43785606 .3334961 .46191407 .27294923 .46191407 .21923828 .46191407 .18017578 .44143168 .15576172 .40046693 .13134766 .35950218 .119140628 .31008403 .119140628 .25221253 .119140628 .1966095 .13134766 .15027364 .15576172 .113204959 .18017578 .076146449 .21891277 .057617189 .27197267 .057617189M.27539063 .53808596C.34277345 .53808596 .3997396 .5156453 .44628907 .47076417 .49283854 .42588298 .5161133 .35985819 .5161133 .27268983 .5161133 .1884613 .49560548 .11886088 .45458985 .06388855 .41357423 .008926392 .3499349-.018554688 .26367188-.018554688 .19173177-.018554688 .13460286 .00575765 .092285159 .054382326 .04996745 .103006999 .028808594 .16829936 .028808594 .2502594 .028808594 .33806864 .05110677 .4079895 .095703128 .46002198 .14029949 .51206466 .20019531 .53808596 .27539063 .53808596M.27246095 .5361328V.5361328Z"/>
<path id="font_3_30" d="M.064453128 .5234375H.14794922V.44921876C.1726888 .47981773 .19889324 .50179037 .2265625 .5151367 .25423179 .5284831 .2849935 .53515627 .31884767 .53515627 .3930664 .53515627 .44319663 .5092519 .46923829 .45744325 .4835612 .42910258 .49072267 .38853965 .49072267 .3357544V0H.4013672V.3299408C.4013672 .36188255 .39664714 .38762919 .38720704 .4071808 .37158204 .4397634 .34326173 .4560547 .3022461 .4560547 .28141276 .4560547 .2643229 .4539388 .25097657 .44970704 .22688802 .4425354 .20572917 .42819724 .1875 .4066925 .17285156 .38941957 .16333008 .37157694 .15893555 .35316468 .15454102 .3347524 .15234375 .30844117 .15234375 .27423097V0H.064453128V.5234375M.2709961 .5361328V.5361328Z"/>
<path id="font_1_8" d="M.38623048 .7363281C.45361329 .7363281 .51188156 .7233327 .56103518 .6973419 .6323242 .6599884 .67594406 .59453329 .69189456 .50097659H.5957031C.5839844 .55304977 .5597331 .59096786 .5229492 .61473086 .48616538 .638504 .43977867 .6503906 .38378907 .6503906 .3173828 .6503906 .2614746 .625529 .21606446 .57580569 .1706543 .52608236 .14794922 .4519857 .14794922 .35351563 .14794922 .26837159 .16666667 .19907125 .20410156 .14561463 .24153646 .092158 .30257163 .06542969 .38720704 .06542969 .4519857 .06542969 .50561526 .084111537 .5480957 .12147522 .5905762 .15884908 .6123047 .2192688 .61328127 .30273438H.38867188V.38378907H.7036133V0H.6411133L.6176758 .09309387C.58479818 .056859334 .55566409 .031723024 .53027346 .017684937 .48763023-.006474813 .433431-.018554688 .36767579-.018554688 .28271485-.018554688 .20963542 .008951823 .1484375 .063964847 .08170573 .13297527 .048339845 .22770183 .048339845 .34814454 .048339845 .46826173 .08089193 .56380209 .1459961 .6347656 .20784505 .70247396 .2879232 .7363281 .38623048 .7363281M.3701172 .7373047V.7373047Z"/>
<path id="font_1_32" d="M.28515626 .057617189C.32617188 .057617189 .36027018 .07486979 .38745118 .109375 .41463218 .14389038 .42822267 .1954956 .42822267 .26419068 .42822267 .3060608 .42220054 .34204103 .41015626 .37213136 .38736979 .43003337 .34570313 .45898438 .28515626 .45898438 .22428386 .45898438 .18261719 .42840068 .16015625 .36723329 .14811199 .33451844 .14208985 .29297386 .14208985 .24259949 .14208985 .20204163 .14811199 .16753133 .16015625 .1390686 .1829427 .08476766 .22460938 .057617189 .28515626 .057617189M.057617189 .5205078H.1430664V.45162965C.16064453 .47540284 .17985027 .49379985 .2006836 .5068207 .23030599 .5263621 .26513673 .5361328 .30517579 .5361328 .36442057 .5361328 .41471354 .5133667 .4560547 .46783448 .49739585 .42230226 .5180664 .3572693 .5180664 .2727356 .5180664 .1585083 .48828126 .07691447 .42871095 .027954102 .39095054-.0030517579 .34700523-.018554688 .296875-.018554688 .25748698-.018554688 .22444661-.009984334 .1977539 .007156372 .1821289 .016860962 .16471355 .033518476 .14550781 .057128908V-.20898438H.057617189V.5205078Z"/>
<path id="font_1_25" d="M.064453128 .71875H.15234375V.45214845C.17317708 .4786682 .19189453 .4973297 .2084961 .50813296 .2368164 .5267995 .2721354 .5361328 .31445313 .5361328 .39029948 .5361328 .44173179 .50957748 .46875 .45646668 .48339845 .42747499 .49072267 .38723756 .49072267 .3357544V0H.40039063V.32958985C.40039063 .3680013 .3955078 .39615885 .3857422 .4140625 .36979167 .44270835 .33984376 .45703126 .29589845 .45703126 .2594401 .45703126 .22639974 .4444987 .19677735 .4194336 .16715496 .3943685 .15234375 .34700523 .15234375 .27734376V0H.064453128V.71875Z"/>
<path id="font_1_10" d="M.076171878 .71777346H.17089844V.36769105L.5205078 .71777346H.65478518L.3564453 .4291687 .66308596 0H.5366211L.28564454 .360672 .17089844 .25016786V0H.076171878V.71777346Z"/>
<path id="font_3_6" d="M.3515625 .08300781C.3844401 .08300781 .41145835 .08642578 .4326172 .09326172 .4703776 .10595703 .50130209 .1303711 .5253906 .1665039 .5445964 .19547527 .55843099 .23258464 .56689456 .27783204 .57177737 .30485026 .57421877 .32991538 .57421877 .35302735 .57421877 .44189454 .55655929 .51090499 .52124026 .5600586 .48592124 .6092122 .42903648 .63378909 .35058595 .63378909H.17822266V.08300781H.3515625M.080566409 .71777346H.37109376C.46972657 .71777346 .54622396 .6827545 .60058596 .6127167 .64908859 .54952499 .67333987 .46857707 .67333987 .36987306 .67333987 .2936503 .6590169 .22475688 .6303711 .16319275 .57991537 .054397584 .49316407 0 .3701172 0H.080566409V.71777346Z"/>
<path id="font_3_32" d="M.28515626 .057617189C.32617188 .057617189 .36027018 .07486979 .38745118 .109375 .41463218 .14389038 .42822267 .1954956 .42822267 .26419068 .42822267 .3060608 .42220054 .34204103 .41015626 .37213136 .38736979 .43003337 .34570313 .45898438 .28515626 .45898438 .22428386 .45898438 .18261719 .42840068 .16015625 .36723329 .14811199 .33451844 .14208985 .29297386 .14208985 .24259949 .14208985 .20204163 .14811199 .16753133 .16015625 .1390686 .1829427 .08476766 .22460938 .057617189 .28515626 .057617189M.057617189 .5205078H.1430664V.45162965C.16064453 .47540284 .17985027 .49379985 .2006836 .5068207 .23030599 .5263621 .26513673 .5361328 .30517579 .5361328 .36442057 .5361328 .41471354 .5133667 .4560547 .46783448 .49739585 .42230226 .5180664 .3572693 .5180664 .2727356 .5180664 .1585083 .48828126 .07691447 .42871095 .027954102 .39095054-.0030517579 .34700523-.018554688 .296875-.018554688 .25748698-.018554688 .22444661-.009984334 .1977539 .007156372 .1821289 .016860962 .16471355 .033518476 .14550781 .057128908V-.20898438H.057617189V.5205078Z"/>
<path id="font_3_18" d="M.13183594 .1394043C.13183594 .114095058 .14111328 .09413656 .15966797 .07952881 .17822266 .06492106 .20019531 .057617189 .22558594 .057617189 .2565104 .057617189 .28645835 .06471761 .3154297 .07891846 .3642578 .10247803 .38867188 .14127605 .38867188 .1953125V.26611329C.3779297 .25886027 .36409507 .2528127 .34716798 .24797058 .33024089 .24313863 .3136393 .23983257 .29736329 .23805237L.24414063 .23184204C.21223958 .22799683 .1883138 .22153218 .17236328 .21244812 .14534505 .19718933 .13183594 .17284139 .13183594 .1394043M.34472657 .31689454C.36490885 .3194987 .37841798 .32796226 .3852539 .34228517 .38916017 .35012818 .39111329 .36140443 .39111329 .3761139 .39111329 .40618388 .38045249 .42799888 .35913087 .44155885 .33780924 .455129 .30729167 .46191407 .26757813 .46191407 .22167969 .46191407 .18912761 .44948326 .16992188 .42462159 .15917969 .4108785 .15218099 .39043174 .14892578 .36328126H.06689453C.06852213 .42791749 .08943685 .47288514 .12963867 .4981842 .1698405 .5234833 .21647136 .5361328 .26953126 .5361328 .3310547 .5361328 .38102214 .52441409 .4194336 .50097659 .45751954 .47753907 .4765625 .4410502 .4765625 .39151V.08985901C.4765625 .08073425 .47843424 .073404949 .48217774 .067871097 .48592124 .06233724 .4938151 .059570314 .5058594 .059570314 .5097656 .059570314 .51416018 .059814454 .51904299 .060302736 .5239258 .060791017 .5291341 .061523439 .53466799 .0625V-.0028076173C.5209961-.00676473 .5105794-.009236653 .50341799-.010223389 .4962565-.011220296 .48649089-.01171875 .4741211-.01171875 .44384767-.01171875 .421875-.0009104411 .40820313 .020706177 .40104167 .032170614 .3959961 .048380536 .3930664 .06933594 .37516276 .045633954 .34944663 .025060019 .31591798 .0076141359 .2823893-.009831746 .2454427-.018554688 .20507813-.018554688 .15657552-.018554688 .11694336-.0037790936 .08618164 .025772095 .055419923 .055323285 .040039064 .092300418 .040039064 .13670349 .040039064 .18535869 .05517578 .22307332 .08544922 .24984741 .115722659 .2766215 .1554362 .29311119 .20458985 .2993164L.34472657 .31689454M.27197267 .5361328V.5361328Z"/>
<path id="font_3_40" d="M.39111329 .5234375H.48828126C.47591148 .48987834 .44840495 .41330973 .40576173 .2937317 .3738607 .20380657 .34716798 .13049825 .3256836 .07380676 .27490235-.059921266 .23909505-.14145915 .21826172-.17080689 .19742839-.2001648 .1616211-.21484375 .110839847-.21484375 .098470058-.21484375 .08894857-.21435039 .08227539-.21336365 .07560221-.21238709 .06738281-.21058655 .057617189-.20796204V-.1274414C.072916667-.13167317 .083984378-.13427735 .09082031-.1352539 .09765625-.13623047 .10367838-.13671875 .10888672-.13671875 .12516277-.13671875 .13712566-.1340332 .14477539-.12866211 .15242513-.123291019 .15885417-.11669922 .1640625-.10888672 .16569011-.106282558 .17154949-.092936199 .18164063-.068847659 .19173177-.044759115 .19905599-.026855469 .20361328-.015136719L.010253906 .5234375H.10986328L.25 .09727478 .39111329 .5234375M.24951172 .5361328V.5361328Z"/>
<clipPath id="clip_5">
<path transform="matrix(1,0,0,-1,-36.4661,580.29)" d="M36 36H756V576H36Z"/>
</clipPath>
<path id="font_3_7" d="M.08544922 .71777346H.60839846V.6298828H.18017578V.41210938H.5761719V.32910157H.18017578V.0859375H.61572268V0H.08544922V.71777346M.35058595 .71777346V.71777346Z"/>
<path id="font_3_39" d="M.0146484379 .5234375H.12841797L.24853516 .33918763 .3701172 .5234375 .47705079 .5209961 .30078126 .26831056 .48486329 0H.3725586L.24267578 .19647217 .11669922 0H.0053710939L.18945313 .26831056 .0146484379 .5234375Z"/>
<path id="font_3_23" d="M.08642578 .6021576C.08772787 .638443 .09407552 .66500857 .10546875 .68185427 .12597656 .7116597 .16552735 .7265625 .2241211 .7265625 .22965496 .7265625 .23535156 .7263997 .24121094 .7260742 .24707031 .7257487 .2537435 .72526046 .26123048 .7246094V.64453127C.25211589 .6449687 .2455241 .6452382 .24145508 .64533999 .23738607 .64545187 .2335612 .6455078 .22998047 .6455078 .20328777 .6455078 .18733724 .6386719 .1821289 .625 .17692058 .6113281 .1743164 .5764974 .1743164 .5205078H.26123048V.45117188H.17333985V0H.08642578V.45117188H.013671875V.5205078H.08642578V.6021576Z"/>
<path id="font_1_37" d="M.107421878 .5234375 .24707031 .09725952 .3930664 .5234375H.4892578L.2919922 0H.19824219L.0053710939 .5234375H.107421878Z"/>
<path id="font_1_38" d="M.10498047 .5234375 .2055664 .110946658 .3076172 .5234375H.40625L.50878909 .11338806 .61572268 .5234375H.7036133L.5517578 0H.46044923L.3540039 .40516664 .25097657 0H.15966797L.0087890629 .5234375H.10498047Z"/>
<path id="font_6_2" d="M.29589845 .61328127 .2421875 .36062623C.2747396 .38953654 .30419923 .40973918 .3305664 .42123414 .3569336 .4327291 .38460288 .43847657 .41357423 .43847657 .45589195 .43847657 .4885254 .42770896 .5114746 .4061737 .5344238 .38463847 .54589846 .3572286 .54589846 .3239441 .54589846 .3151245 .5449219 .30582176 .54296877 .29603578L.48876954 .041015626H.53515627C.5442708 .041015626 .55045577 .03963216 .55371096 .036865236 .5569661 .03409831 .55859377 .030110678 .55859377 .024902344 .55859377 .018066407 .5559082 .012207031 .5505371 .0073242189 .545166 .0024414063 .5371094 0 .5263672 0H.39257813C.38346354 0 .37727867 .0014648438 .37402345 .0043945314 .37076823 .0073242189 .36914063 .0113932299 .36914063 .016601563 .36914063 .023111979 .37182618 .028808594 .37719728 .033691408 .38256837 .03857422 .390625 .041015626 .4013672 .041015626H.4477539L.50097659 .29386903C.5026042 .301061 .50341799 .3084208 .50341799 .3159485 .50341799 .34016929 .4950358 .3599701 .47827149 .37535096 .46150718 .39074198 .4366862 .3984375 .4038086 .3984375 .37646485 .3984375 .3527018 .3932139 .33251954 .38276673 .31233726 .3723297 .27799479 .34507243 .22949219 .30099488L.1743164 .041015626H.22070313C.2298177 .041015626 .23600261 .03963216 .23925781 .036865236 .24251302 .03409831 .24414063 .030110678 .24414063 .024902344 .24414063 .018066407 .24145508 .012207031 .23608399 .0073242189 .23071289 .0024414063 .22265625 0 .21191406 0H.078125C.069010417 0 .06282552 .0014648438 .059570314 .0043945314 .056315107 .0073242189 .0546875 .0113932299 .0546875 .016601563 .0546875 .023111979 .057373048 .028808594 .06274414 .033691408 .068115238 .03857422 .076171878 .041015626 .08691406 .041015626H.13330078L.24560547 .5722656H.19091797C.18180339 .5722656 .17561849 .57373049 .17236328 .57666018 .16910808 .57958987 .16748047 .5836589 .16748047 .5888672 .16748047 .59524539 .17016602 .6009064 .17553711 .6058502 .1809082 .61080428 .18896485 .61328127 .19970703 .61328127H.29589845Z"/>
<path id="font_6_1" d="M.5654297 .20117188H.14746094C.14648438 .19108074 .1459961 .18343099 .1459961 .17822266 .1459961 .1336263 .16113281 .096842449 .19140625 .067871097 .22167969 .03889974 .2626953 .024414063 .31445313 .024414063 .34472657 .024414063 .37760417 .029378256 .41308595 .03930664 .44856773 .049235029 .4790039 .06266276 .50439456 .079589847 .51188156 .084472659 .5179036 .08691406 .52246096 .08691406 .5266927 .08691406 .53027346 .085367839 .5332031 .08227539 .5361328 .079182948 .53759768 .07519531 .53759768 .0703125 .53759768 .064453128 .53499349 .05891927 .52978518 .053710939 .5148112 .037760419 .48486329 .022216797 .4399414 .007080078 .39501954-.008056641 .34944663-.015625 .30322267-.015625 .24332683-.015625 .19523113 .0021362305 .15893555 .03765869 .12263998 .07318115 .10449219 .11831156 .10449219 .17304993 .10449219 .20922344 .11230469 .24335735 .12792969 .27545167 .14355469 .30755616 .16414388 .33525596 .18969727 .35855104 .21525066 .3818563 .24471028 .40100099 .27807618 .4159851 .31144206 .4309794 .347819 .43847657 .38720704 .43847657 .44319663 .43847657 .48819987 .42193605 .5222168 .38885499 .5562337 .35577394 .5732422 .31352235 .5732422 .26210023 .5732422 .24506124 .570638 .22475179 .5654297 .20117188M.53222659 .24316406C.5338542 .28822837 .5205078 .32512919 .4921875 .35386659 .46354167 .38227845 .42513023 .39648438 .37695313 .39648438 .33007813 .39648438 .28629557 .38260398 .24560547 .35484315 .20491536 .3270925 .1751302 .28986613 .15625 .24316406H.53222659Z"/>
<path id="font_6_3" d="M.45166017 .61328127 .33007813 .041015626H.49121095C.5003255 .041015626 .50651046 .03963216 .5097656 .036865236 .5130208 .03409831 .51464846 .030110678 .51464846 .024902344 .51464846 .018066407 .5119629 .012207031 .5065918 .0073242189 .5012207 .0024414063 .49316407 0 .48242188 0H.119140628C.11002604 0 .10384115 .0014648438 .10058594 .0043945314 .09733073 .0073242189 .095703128 .0113932299 .095703128 .016601563 .095703128 .023111979 .09838867 .028808594 .103759769 .033691408 .10913086 .03857422 .1171875 .041015626 .12792969 .041015626H.2890625L.40185548 .5722656H.28320313C.27408854 .5722656 .26790367 .57373049 .26464845 .57666018 .26139323 .57958987 .25976563 .5836589 .25976563 .5888672 .25976563 .59524539 .26245118 .6009064 .26782228 .6058502 .27319337 .61080428 .28125 .61328127 .2919922 .61328127H.45166017Z"/>
<path id="font_6_4" d="M.29492188-.015625C.24121094-.015625 .19710286 .0013987223 .16259766 .035446168 .12809246 .069503787 .110839847 .11276754 .110839847 .16523743 .110839847 .20792134 .12386068 .25134278 .14990235 .2955017 .17594402 .33966065 .21166992 .37452699 .25708009 .4001007 .30249024 .4256846 .34847007 .43847657 .39501954 .43847657 .44840495 .43847657 .49235026 .42152915 .52685549 .38763429 .56136068 .3537496 .5786133 .31154887 .5786133 .2610321 .5786133 .21672058 .5659993 .17272949 .5407715 .12905884 .51554366 .08539835 .48006187 .050369264 .43432618 .023971558 .38859049-.0024261475 .3421224-.015625 .29492188-.015625M.30419923 .024414063C.3426107 .024414063 .38061524 .03526306 .4182129 .05696106 .45581056 .07866923 .48494468 .10747274 .50561526 .14337158 .5262858 .1792806 .5366211 .21534729 .5366211 .25157167 .5366211 .2926992 .52246096 .32713319 .49414063 .35487367 .4658203 .38261415 .4296875 .39648438 .3857422 .39648438 .35416667 .39648438 .32478843 .39020286 .29760743 .37763978 .27042643 .3650767 .24633789 .34891764 .2253418 .3291626 .2043457 .30941773 .18701172 .28575645 .17333985 .2581787 .15966797 .230601 .15283203 .2021281 .15283203 .17276001 .15283203 .1299947 .16699219 .09457906 .1953125 .06651306 .22363281 .038447065 .25992839 .024414063 .30419923 .024414063Z"/>
<path id="font_7_1" d="M0 0Z"/>
<path id="font_7_6" d="M.5629883 .44125367C.57503256 .4148458 .5802409 .3840332 .5786133 .34881593 .5789388 .32468669 .57340499 .2862142 .5620117 .23339844H.17871094C.16894531 .18033855 .17244466 .13777669 .18920899 .10571289 .20597331 .073649089 .2389323 .057617189 .28808595 .057617189 .33398438 .057617189 .3736979 .072753909 .40722657 .103027347 .4267578 .12060547 .44222007 .14095052 .45361329 .1640625H.54003909C.5335286 .14485677 .521403 .12345377 .5036621 .099853519 .48592124 .07625326 .4674479 .056966146 .4482422 .041992189 .41601563 .015950522 .37923179-.0016276041 .33789063-.0107421879 .3154297-.015950522 .29085288-.018554688 .26416017-.018554688 .19905599-.018554688 .14892578 .0051472985 .11376953 .05255127 .07861328 .09995524 .07014974 .16634114 .088378909 .25170899 .106282558 .33576457 .14355469 .40401713 .20019531 .45646668 .25683595 .5089264 .3219401 .53515627 .3955078 .53515627 .4326172 .53515627 .46679688 .5264333 .49804688 .5089874 .5292969 .49154154 .55094406 .46896363 .5629883 .44125367M.48632813 .30371095C.4908854 .3416748 .48909507 .37201438 .48095704 .3947296 .46598307 .43691508 .43033854 .4580078 .37402345 .4580078 .33365885 .4580078 .29671226 .44348655 .2631836 .41444398 .22965496 .3854014 .20719402 .3484904 .19580078 .30371095H.48632813Z"/>
<path id="font_7_16" d="M.12548828 .5234375H.23925781L.3203125 .33918763 .48095704 .5234375 .58740237 .5209961 .35742188 .26831056 .48486329 0H.3725586L.2841797 .19647217 .11669922 0H.0053710939L.24609375 .26831056 .12548828 .5234375Z"/>
<path id="font_7_4" d="M.55029299 .3466797H.46484376C.46647135 .37890626 .46028648 .40568034 .44628907 .42700196 .43229167 .44832359 .40478517 .45898438 .36376954 .45898438 .30777995 .45898438 .2618815 .43164063 .22607422 .37695313 .20296224 .34147135 .18587239 .2976888 .17480469 .24560547 .16341146 .19319661 .16503906 .14908855 .1796875 .11328125 .19433594 .07747396 .22542317 .059570314 .27294923 .059570314 .30940757 .059570314 .34065757 .0707194 .36669923 .09301758 .39274089 .11531576 .41389976 .14583333 .43017579 .18457031H.515625C.49121095 .115234378 .4560547 .06453451 .41015626 .032470704 .3642578 .00040690104 .3108724-.015625 .25-.015625 .18164063-.015625 .1324056 .009379069 .10229492 .059387208 .07218424 .10940552 .065104167 .17188008 .08105469 .24681092 .10058594 .33868919 .13810222 .41020204 .19360352 .4613495 .24910482 .51250717 .3113607 .53808596 .3803711 .53808596 .43929038 .53808596 .48413087 .5237274 .5148926 .49501039 .5456543 .46629334 .5574544 .41684977 .55029299 .3466797Z"/>
<path id="font_7_15" d="M.2631836 .5234375 .18945313 .17590332C.18391927 .1491801 .18359375 .12734477 .18847656 .11039734 .19726563 .07911682 .22298177 .06347656 .265625 .06347656 .3268229 .06347656 .37434898 .09085083 .40820313 .14559937 .42643229 .17492676 .44091798 .21516927 .45166017 .2663269L.50634768 .5234375H.5942383L.48339845 0H.40039063L.41748048 .07714844C.40185548 .057291669 .3841146 .040527345 .3642578 .026855469 .32486979-.00081380209 .28125-.0146484379 .23339844-.0146484379 .15885417-.0146484379 .11344401 .010299683 .09716797 .060195924 .08805338 .08693949 .08821615 .12265015 .09765625 .16732788L.17333985 .5234375H.2631836Z"/>
<path id="font_7_14" d="M.2241211 .6689453H.31298829L.28173829 .5234375H.36523438L.35009767 .45117188H.26660157L.19384766 .10948181C.1899414 .0912323 .19352214 .07901001 .20458985 .07281494 .21077474 .069234218 .22184246 .06744385 .23779297 .06744385 .24202474 .06744385 .24658203 .06752523 .25146485 .06768799 .25634767 .067850749 .26220704 .06825765 .26904298 .06890869L.25439454-.00048828127C.24365235-.0034179688 .23266602-.005533854 .22143555-.0068359377 .21020508-.0081380209 .19824219-.0087890629 .18554688-.0087890629 .14453125-.0087890629 .118896488 .0017191569 .10864258 .022735596 .09838867 .043752035 .096842449 .07104492 .104003909 .10461426L.17773438 .45117188H.106933597L.12207031 .5234375H.1928711L.2241211 .6689453Z"/>
<path id="font_7_2" d="M.23730469 .057617189C.26822917 .057617189 .2998047 .06477865 .33203126 .07910156 .3857422 .102864589 .41845704 .14176433 .43017579 .19580078L.44482423 .26660157C.43277995 .25976563 .417806 .254069 .39990235 .24951172 .3819987 .24495442 .3647461 .24169922 .34814454 .2397461L.29345704 .23291016C.26057945 .22867839 .2351888 .2220052 .21728516 .21289063 .18701172 .19759114 .16829427 .17317708 .16113281 .13964844 .15559896 .11425781 .16056316 .09423828 .17602539 .079589847 .19148763 .064941409 .21191406 .057617189 .23730469 .057617189M.4116211 .31723023C.43245445 .31984458 .44791667 .32831828 .4580078 .34265138 .46354167 .35047404 .46777345 .3617147 .47070313 .3763733 .47721354 .40635173 .4711914 .4281006 .45263673 .44161988 .43408204 .45514933 .4049479 .46191407 .36523438 .46191407 .31933595 .46191407 .2841797 .44954429 .25976563 .4248047 .24609375 .4111328 .23486328 .39078776 .22607422 .36376954H.14404297C.15934246 .42822267 .18977864 .47306315 .23535156 .49829103 .28092448 .52351889 .33024089 .5361328 .38330079 .5361328 .44482423 .5361328 .4921875 .52440389 .5253906 .50094607 .55859377 .47747804 .569987 .440979 .5595703 .39144898L.49560548 .08987427C.49365235 .08074951 .49389649 .07341512 .4963379 .067871097 .4987793 .06233724 .50602218 .059570314 .5180664 .059570314 .52197268 .059570314 .52644857 .059814454 .53149417 .060302736 .53653976 .060791017 .5419922 .061523439 .54785159 .0625L.5336914-.0028686524C.51936849-.00680542 .5085449-.009262085 .5012207-.010238647 .49389649-.011225383 .48404948-.01171875 .4716797-.01171875 .44140626-.01171875 .42171226-.0009765625 .41259767 .020507813 .40771485 .031901044 .40608726 .048014326 .40771485 .068847659 .38460288 .045410158 .3544922 .025146485 .3173828 .008056641 .28027345-.009033203 .24153646-.017578125 .20117188-.017578125 .15266927-.017578125 .116129558-.0028330486 .091552738 .026657105 .066975917 .05614726 .05940755 .093048099 .068847659 .13735962 .07926432 .18591309 .10245768 .22355144 .13842774 .25027467 .17439778 .2769979 .21761067 .29345194 .2680664 .29963685L.4116211 .31723023Z"/>
<path id="font_7_3" d="M.21044922 .71972659H.29589845L.24072266 .45948792C.26513673 .4847056 .29207359 .50394698 .3215332 .5172119 .35099284 .53047689 .38134767 .5371094 .41259767 .5371094 .4777018 .5371094 .52579757 .5147095 .55688479 .46990968 .587972 .42510987 .5942383 .35905458 .5756836 .27174378 .55810549 .1889801 .5234375 .12022909 .4716797 .06549072 .41992188 .010762532 .3585612-.016601563 .28759767-.016601563 .24788411-.016601563 .21647136-.0069986979 .19335938 .012207031 .17936199 .02360026 .16585286 .041829427 .15283203 .06689453L.13867188 0H.057617189L.21044922 .71972659M.48486329 .26731874C.49658204 .32227073 .49446617 .3677877 .47851563 .40386964 .4625651 .43996177 .43164063 .4580078 .3857422 .4580078 .34570313 .4580078 .30745445 .44321189 .2709961 .41362 .23453777 .3840383 .20914714 .3352712 .19482422 .26731874 .18440755 .21822612 .1821289 .17840068 .18798828 .1478424 .19873047 .090296428 .23567708 .061523439 .29882813 .061523439 .34635417 .061523439 .38590495 .08037821 .41748048 .11808777 .449056 .1558075 .47151695 .20555115 .48486329 .26731874Z"/>
<path id="font_7_9" d="M.21923828 .71777346H.3071289L.15478516 0H.06689453L.21923828 .71777346Z"/>
<path id="font_8_1" d="M0 0Z"/>
<path id="font_7_13" d="M.15136719 .1640625C.14778646 .13463338 .15039063 .11207072 .15917969 .09637451 .1751302 .06793213 .21044922 .053710939 .26513673 .053710939 .2976888 .053710939 .32788087 .060806276 .3557129 .07499695 .38354493 .08918762 .40055339 .11112467 .40673829 .1408081 .4116211 .16330974 .40527345 .1804301 .3876953 .19216919 .3766276 .199351 .35335288 .20767212 .3178711 .21713257L.25195313 .23474121C.20963542 .24582927 .17936199 .2582245 .16113281 .27192689 .1282552 .29574076 .116373699 .32868449 .12548828 .37075807 .13590496 .42033897 .16219075 .46045939 .2043457 .49111939 .24650066 .52177938 .2976888 .5371094 .35791017 .5371094 .4366862 .5371094 .48860679 .5139974 .5136719 .46777345 .5292969 .43847657 .5332031 .40690104 .5253906 .37304688H.4423828C.44498698 .39290367 .44173179 .41097007 .4326172 .4272461 .41731773 .45035807 .38476563 .46191407 .33496095 .46191407 .3017578 .46191407 .27530924 .45555116 .25561524 .44282533 .23592122 .43010966 .22379558 .41331483 .21923828 .3924408 .21435547 .36960349 .22167969 .3513387 .24121094 .33764649 .25260417 .32948814 .27034507 .3223114 .2944336 .31611634L.34960938 .30192567C.40950523 .28659568 .44873048 .27175395 .46728517 .2574005 .49658204 .23488872 .50602218 .19949849 .49560548 .15122986 .48583985 .10458883 .4597168 .064305629 .41723634 .030380249 .37475587-.0035451253 .3173828-.020507813 .24511719-.020507813 .1673177-.020507813 .1159668-.002802531 .09106445 .032608034 .06616211 .06801859 .05810547 .111836757 .06689453 .1640625H.15136719Z"/>
<path id="font_7_11" d="M.4814453 .26976014C.49186198 .31852723 .49251304 .35819499 .48339845 .38876344 .46875 .4368795 .43115235 .4609375 .37060548 .4609375 .31689454 .4609375 .2735189 .4404551 .24047852 .39949037 .20743816 .3585256 .18473308 .30910746 .17236328 .25123597 .16064453 .19563294 .16300456 .14929708 .17944336 .11222839 .19588216 .07516988 .23063152 .056640626 .2836914 .056640626 .34195964 .056640626 .38663737 .07866923 .4177246 .12272644 .44881187 .16678365 .4700521 .21579488 .4814453 .26976014M.57373049 .27223207C.55582687 .18784078 .5205078 .1181132 .46777345 .06304932 .41503907 .0079956059 .34554038-.01953125 .25927735-.01953125 .18733724-.01953125 .13541667 .0048217775 .103515628 .053527833 .071614589 .10223389 .06429037 .16763814 .08154297 .2497406 .10042318 .33771263 .13769531 .40776063 .19335938 .45988465 .24902344 .51201888 .31445313 .53808596 .38964845 .53808596 .45703126 .53808596 .509196 .5156047 .5461426 .4706421 .5830892 .42567954 .59228518 .35954286 .57373049 .27223207Z"/>
<path id="font_7_12" d="M.17773438 .52342227H.26123048L.2421875 .43301393C.25260417 .4506022 .2738444 .47202049 .3059082 .49726869 .33797203 .52252706 .37141929 .53515627 .40625 .53515627 .4078776 .53515627 .41064454 .535024 .41455079 .5347595 .41845704 .5345052 .42496745 .5339864 .43408204 .5332031L.41455079 .4399414C.40934245 .44091798 .4046224 .441569 .40039063 .44189454 .39615885 .44222007 .3914388 .4423828 .38623048 .4423828 .34195964 .4423828 .30493165 .428126 .27514649 .39961244 .24536133 .37109886 .22639974 .338267 .21826172 .30111695L.15478516 0H.06689453L.17773438 .52342227Z"/>
<path id="font_7_5" d="M.28222657 .05859375C.32291667 .05859375 .36002604 .076044719 .3935547 .110946658 .42708335 .14585877 .45084635 .19594829 .46484376 .2612152 .47884117 .32713319 .4757487 .37592063 .4555664 .4075775 .43538413 .4392446 .4054362 .45507813 .36572267 .45507813 .3214518 .45507813 .28198243 .43819175 .24731446 .40441896 .21264649 .37064616 .1883138 .32096354 .1743164 .2553711 .16227214 .19952393 .16414388 .15276592 .17993164 .115097049 .1957194 .077428188 .2298177 .05859375 .28222657 .05859375M.46044923 .50683596C.4741211 .4970703 .48828126 .47998048 .5029297 .4555664L.55908206 .71972659H.6435547L.49072267 0H.4116211L.4267578 .072753909C.39941407 .040527345 .37019859 .017252604 .33911134 .0029296876 .30802409-.0113932299 .27441407-.018554688 .23828125-.018554688 .18001302-.018554688 .13476563 .0059407555 .10253906 .05493164 .0703125 .10392252 .06298828 .16910808 .080566409 .25048829 .09651693 .32666017 .12988281 .39265953 .18066406 .44848634 .23144531 .5043132 .29296876 .53222659 .36523438 .53222659 .40527345 .53222659 .43701173 .523763 .46044923 .50683596Z"/>
<path id="font_7_10" d="M.17529297 .52342227H.25878907L.24316406 .44914247C.27441407 .47977195 .30525718 .50176498 .33569337 .51512148 .36612956 .52847799 .39827476 .53515627 .4321289 .53515627 .50634768 .53515627 .55094406 .5092519 .56591799 .45744325 .57438156 .42910258 .5730794 .38853965 .5620117 .3357544L.49072267 0H.4013672L.4711914 .3299408C.47802735 .36188255 .47884117 .38762919 .4736328 .4071808 .46484376 .4397634 .4399414 .4560547 .39892579 .4560547 .37809245 .4560547 .3605143 .4539388 .3461914 .44970704 .32047526 .4425354 .29622398 .42819724 .2734375 .4066925 .25520835 .38941957 .24194336 .37157694 .23364258 .35316468 .2253418 .3347524 .21761067 .30843608 .21044922 .2742157L.15234375 0H.064453128L.17529297 .52342227Z"/>
<path id="font_7_7" d="M.17480469 .5205078H.26416017L.1538086 0H.064453128L.17480469 .5205078M.21679688 .71777346H.30615235L.28466798 .61816409H.1953125L.21679688 .71777346Z"/>
<path id="font_7_8" d="M.21484375 .71777346H.2993164L.21044922 .3009796 .48339845 .5233002H.5957031L.3540039 .32736207 .49609376 0H.38378907L.2763672 .26385499 .18847656 .19642639 .14697266 0H.0625L.21484375 .71777346Z"/>
</defs>
<g clip-path="url(#clip_0)">
<path transform="matrix(1,0,0,-1,-36.4661,580.29)" d="M36 36H756V576H36Z" fill="#ffffff"/>
<path transform="matrix(1,0,0,-1,479.9089,142.28998)" stroke-width="1" stroke-linecap="butt" stroke-miterlimit="8" stroke-linejoin="miter" fill="none" stroke="#000000" d="M0 0H71.625V-72H0Z"/>
<use data-text="M" xlink:href="#font_1_12" transform="matrix(16,0,0,-16,498.10893,175.08997)"/>
<use data-text="a" xlink:href="#font_1_18" transform="matrix(16,0,0,-16,511.43693,175.08997)"/>
<use data-text="i" xlink:href="#font_1_26" transform="matrix(16,0,0,-16,520.3329,175.08997)"/>
<use data-text="n" xlink:href="#font_1_30" transform="matrix(16,0,0,-16,523.8849,175.08997)"/>
<use data-text="&#xfffd;" xlink:href="#font_2_1" transform="matrix(16,0,0,-16,532.7809,175.08997)"/>
<use data-text="m" xlink:href="#font_1_29" transform="matrix(16,0,0,-16,487.1169,194.08197)"/>
<use data-text="e" xlink:href="#font_1_22" transform="matrix(16,0,0,-16,500.44493,194.08197)"/>
<use data-text="m" xlink:href="#font_1_29" transform="matrix(16,0,0,-16,509.3409,194.08197)"/>
<use data-text="o" xlink:href="#font_1_31" transform="matrix(16,0,0,-16,522.6689,194.08197)"/>
<use data-text="r" xlink:href="#font_1_33" transform="matrix(16,0,0,-16,531.5649,194.08197)"/>
<use data-text="y" xlink:href="#font_1_40" transform="matrix(16,0,0,-16,536.8929,194.08197)"/>
<use data-text="&#xfffd;" xlink:href="#font_2_1" transform="matrix(16,0,0,-16,544.8929,194.08197)"/>
<path transform="matrix(1,0,0,-1,359.9089,175.28998)" stroke-width="1" stroke-linecap="butt" stroke-miterlimit="8" stroke-linejoin="miter" fill="none" stroke="#000000" d="M0 0 23.5 21V10.5H94V21L117.5 0 94-21V-10.5H23.5V-21Z"/>
<path transform="matrix(1,0,0,-1,287.9089,156.78998)" stroke-width="1" stroke-linecap="butt" stroke-miterlimit="8" stroke-linejoin="miter" fill="none" stroke="#000000" d="M0 0H71.625V-45.5H0Z"/>
<use data-text="I" xlink:href="#font_1_9" transform="matrix(16,0,0,-16,313.10893,176.33997)"/>
<use data-text="/" xlink:href="#font_1_2" transform="matrix(16,0,0,-16,317.55693,176.33997)"/>
<use data-text="O" xlink:href="#font_1_13" transform="matrix(16,0,0,-16,322.0049,176.33997)"/>
<use data-text=" " xlink:href="#font_1_1" transform="matrix(16,0,0,-16,334.4529,176.33997)"/>
<use data-text="&#xfffd;" xlink:href="#font_2_1" transform="matrix(16,0,0,-16,338.9009,176.33997)"/>
<use data-text="b" xlink:href="#font_1_19" transform="matrix(16,0,0,-16,301.10893,195.33197)"/>
<use data-text="r" xlink:href="#font_1_33" transform="matrix(16,0,0,-16,310.0049,195.33197)"/>
<use data-text="i" xlink:href="#font_1_26" transform="matrix(16,0,0,-16,315.33293,195.33197)"/>
<use data-text="d" xlink:href="#font_1_21" transform="matrix(16,0,0,-16,318.88493,195.33197)"/>
<use data-text="g" xlink:href="#font_1_24" transform="matrix(16,0,0,-16,327.7809,195.33197)"/>
<use data-text="e" xlink:href="#font_1_22" transform="matrix(16,0,0,-16,336.6769,195.33197)"/>
<use data-text="&#xfffd;" xlink:href="#font_2_1" transform="matrix(16,0,0,-16,345.5729,195.33197)"/>
<path transform="matrix(1,0,0,-1,173.1589,175.28998)" stroke-width="1" stroke-linecap="butt" stroke-miterlimit="8" stroke-linejoin="miter" fill="none" stroke="#000000" d="M0 0 22.875 21V10.5H91.5V21L114.375 0 91.5-21V-10.5H22.875V-21Z"/>
<path transform="matrix(1,0,0,-1,23.533902,156.78998)" stroke-width="1" stroke-linecap="butt" stroke-miterlimit="8" stroke-linejoin="miter" fill="none" stroke="#000000" d="M0 0H147.5V-45.5H0Z"/>
<use data-text="B" xlink:href="#font_1_4" transform="matrix(16,0,0,-16,50.7339,185.93997)"/>
<use data-text="u" xlink:href="#font_1_36" transform="matrix(16,0,0,-16,61.405897,185.93997)"/>
<use data-text="s" xlink:href="#font_1_34" transform="matrix(16,0,0,-16,70.301898,185.93997)"/>
<use data-text=" " xlink:href="#font_1_1" transform="matrix(16,0,0,-16,78.301898,185.93997)"/>
<use data-text="i" xlink:href="#font_1_26" transform="matrix(16,0,0,-16,82.74989,185.93997)"/>
<use data-text="n" xlink:href="#font_1_30" transform="matrix(16,0,0,-16,86.301898,185.93997)"/>
<use data-text="t" xlink:href="#font_1_35" transform="matrix(16,0,0,-16,95.19791,185.93997)"/>
<use data-text="e" xlink:href="#font_1_22" transform="matrix(16,0,0,-16,99.645908,185.93997)"/>
<use data-text="r" xlink:href="#font_1_33" transform="matrix(16,0,0,-16,108.5419,185.93997)"/>
<use data-text="f" xlink:href="#font_1_23" transform="matrix(16,0,0,-16,113.8699,185.93997)"/>
<use data-text="a" xlink:href="#font_1_18" transform="matrix(16,0,0,-16,118.3179,185.93997)"/>
<use data-text="c" xlink:href="#font_1_20" transform="matrix(16,0,0,-16,127.2139,185.93997)"/>
<use data-text="e" xlink:href="#font_1_22" transform="matrix(16,0,0,-16,135.2139,185.93997)"/>
<use data-text="&#xfffd;" xlink:href="#font_2_1" transform="matrix(16,0,0,-16,144.1099,185.93997)"/>
<path transform="matrix(1,0,0,-1,95.658908,52.29016)" stroke-width="1" stroke-linecap="butt" stroke-miterlimit="8" stroke-linejoin="miter" fill="none" stroke="#000000" d="M0 0H53.875V-12H0Z"/>
<path transform="matrix(1,0,0,-1,95.658908,64.29016)" stroke-width="1" stroke-linecap="butt" stroke-miterlimit="8" stroke-linejoin="miter" fill="none" stroke="#000000" d="M0 0H53.875V-12H0Z"/>
<path transform="matrix(1,0,0,-1,95.658908,76.29007)" stroke-width="1" stroke-linecap="butt" stroke-miterlimit="8" stroke-linejoin="miter" fill="none" stroke="#000000" d="M0 0H53.875V-12H0Z"/>
<path transform="matrix(1,0,0,-1,95.658908,88.29007)" stroke-width="1" stroke-linecap="butt" stroke-miterlimit="8" stroke-linejoin="miter" fill="none" stroke="#000000" d="M0 0H53.875V-12H0Z"/>
<path transform="matrix(1,0,0,-1,95.658908,100.29007)" stroke-width="1" stroke-linecap="butt" stroke-miterlimit="8" stroke-linejoin="miter" fill="none" stroke="#000000" d="M0 0H53.875V-12H0Z"/>
<path transform="matrix(1,0,0,-1,156.5339,59.79016)" stroke-width="1" stroke-linecap="butt" stroke-miterlimit="8" stroke-linejoin="miter" fill="none" stroke="#000000" d="M0 0H26.25V7.5L35-7.5 26.25-22.5V-15H0Z"/>
<path transform="matrix(1,0,0,-1,184.5339,89.79007)" stroke-width="1" stroke-linecap="butt" stroke-miterlimit="8" stroke-linejoin="miter" fill="none" stroke="#000000" d="M0 0H-26.25V7.5L-35-7.5-26.25-22.5V-15H0Z"/>
<path transform="matrix(1,0,0,-1,191.5339,40.29016)" stroke-width="1" stroke-linecap="butt" stroke-miterlimit="8" stroke-linejoin="miter" fill="none" stroke="#000000" d="M0 0H42V-84H0Z"/>
<use data-text="A" xlink:href="#font_1_3" transform="matrix(16,0,0,-16,196.7339,88.69006)"/>
<use data-text="L" xlink:href="#font_1_11" transform="matrix(16,0,0,-16,207.4059,88.69006)"/>
<use data-text="U" xlink:href="#font_1_17" transform="matrix(16,0,0,-16,216.3019,88.69006)"/>
<use data-text="&#xfffd;" xlink:href="#font_2_1" transform="matrix(16,0,0,-16,227.85388,88.69006)"/>
<use data-text="&#xfffd;" xlink:href="#font_3_15" transform="matrix(16,0,0,-16,81.7419,46.690065)"/>
<use data-text="&#xfffd;" xlink:href="#font_3_22" transform="matrix(16,0,0,-16,93.2939,46.690065)"/>
<use data-text="&#xfffd;" xlink:href="#font_3_24" transform="matrix(16,0,0,-16,102.189899,46.690065)"/>
<use data-text="&#xfffd;" xlink:href="#font_3_26" transform="matrix(16,0,0,-16,111.08589,46.690065)"/>
<use data-text="&#xfffd;" xlink:href="#font_3_34" transform="matrix(16,0,0,-16,114.63789,46.690065)"/>
<use data-text="&#xfffd;" xlink:href="#font_3_35" transform="matrix(16,0,0,-16,122.63789,46.690065)"/>
<use data-text="&#xfffd;" xlink:href="#font_3_22" transform="matrix(16,0,0,-16,127.08589,46.690065)"/>
<use data-text="&#xfffd;" xlink:href="#font_3_33" transform="matrix(16,0,0,-16,135.98189,46.690065)"/>
<use data-text="&#xfffd;" xlink:href="#font_3_1" transform="matrix(16,0,0,-16,141.30989,46.690065)"/>
<use data-text="&#xfffd;" xlink:href="#font_3_41" transform="matrix(16,0,0,-16,145.75789,46.690065)"/>
<use data-text="&#xfffd;" xlink:href="#font_3_28" transform="matrix(16,0,0,-16,153.75789,46.690065)"/>
<use data-text="&#xfffd;" xlink:href="#font_3_22" transform="matrix(16,0,0,-16,157.30989,46.690065)"/>
<use data-text="&#xfffd;" xlink:href="#font_2_1" transform="matrix(16,0,0,-16,166.20589,46.690065)"/>
<path transform="matrix(1,0,0,-1,101.533908,125.49008)" stroke-width="1" stroke-linecap="butt" stroke-miterlimit="8" stroke-linejoin="miter" fill="none" stroke="#000000" d="M0 0 24 7.2 48 0H36V-21.6H48L24-28.8 0-21.6H12V0Z"/>
<path transform="matrix(1,0,0,-1,11.533901,22.290162)" stroke-width="1" stroke-linecap="round" stroke-dasharray="0,2" stroke-miterlimit="8" stroke-linejoin="miter" fill="none" stroke="#000000" d="M0 0H234V-192H0Z"/>
<g clip-path="url(#clip_4)">
<use data-text="C" xlink:href="#font_1_5" transform="matrix(16,0,0,-16,13.358902,17.940064)"/>
<use data-text="P" xlink:href="#font_1_14" transform="matrix(16,0,0,-16,24.910904,17.940064)"/>
<use data-text="U" xlink:href="#font_1_17" transform="matrix(16,0,0,-16,35.582906,17.940064)"/>
<use data-text="&#xfffd;" xlink:href="#font_2_1" transform="matrix(16,0,0,-16,47.134908,17.940064)"/>
</g>
<use data-text="S" xlink:href="#font_1_16" transform="matrix(16,0,0,-16,251.98392,119.94006)"/>
<use data-text="y" xlink:href="#font_1_40" transform="matrix(16,0,0,-16,262.6559,119.94006)"/>
<use data-text="s" xlink:href="#font_1_34" transform="matrix(16,0,0,-16,270.6559,119.94006)"/>
<use data-text="t" xlink:href="#font_1_35" transform="matrix(16,0,0,-16,278.6559,119.94006)"/>
<use data-text="e" xlink:href="#font_1_22" transform="matrix(16,0,0,-16,283.1039,119.94006)"/>
<use data-text="m" xlink:href="#font_1_29" transform="matrix(16,0,0,-16,291.9999,119.94006)"/>
<use data-text=" " xlink:href="#font_1_1" transform="matrix(16,0,0,-16,305.3279,119.94006)"/>
<use data-text="b" xlink:href="#font_1_19" transform="matrix(16,0,0,-16,309.7759,119.94006)"/>
<use data-text="u" xlink:href="#font_1_36" transform="matrix(16,0,0,-16,318.6719,119.94006)"/>
<use data-text="s" xlink:href="#font_1_34" transform="matrix(16,0,0,-16,327.5679,119.94006)"/>
<use data-text="&#xfffd;" xlink:href="#font_2_1" transform="matrix(16,0,0,-16,335.5679,119.94006)"/>
<path transform="matrix(1,0,0,-1,287.5339,124.28998)" stroke-width="1" stroke-linecap="butt" stroke-dasharray="4,3" stroke-linejoin="round" fill="none" stroke="#000000" d="M0 0-52.336-34.891"/>
<path transform="matrix(1,0,0,-1,236.86209,154.46567)" d="M0 0-3.328-5.824 3.328-4.992Z" fill-rule="evenodd"/>
<use data-text="M" xlink:href="#font_1_12" transform="matrix(16,0,0,-16,372.9838,119.94006)"/>
<use data-text="e" xlink:href="#font_1_22" transform="matrix(16,0,0,-16,386.3118,119.94006)"/>
<use data-text="m" xlink:href="#font_1_29" transform="matrix(16,0,0,-16,395.2078,119.94006)"/>
<use data-text="o" xlink:href="#font_1_31" transform="matrix(16,0,0,-16,408.5358,119.94006)"/>
<use data-text="r" xlink:href="#font_1_33" transform="matrix(16,0,0,-16,417.4318,119.94006)"/>
<use data-text="y" xlink:href="#font_1_40" transform="matrix(16,0,0,-16,422.7598,119.94006)"/>
<use data-text=" " xlink:href="#font_1_1" transform="matrix(16,0,0,-16,430.7598,119.94006)"/>
<use data-text="b" xlink:href="#font_1_19" transform="matrix(16,0,0,-16,435.2078,119.94006)"/>
<use data-text="u" xlink:href="#font_1_36" transform="matrix(16,0,0,-16,444.1038,119.94006)"/>
<use data-text="s" xlink:href="#font_1_34" transform="matrix(16,0,0,-16,452.9998,119.94006)"/>
<use data-text="&#xfffd;" xlink:href="#font_2_1" transform="matrix(16,0,0,-16,460.9998,119.94006)"/>
<path transform="matrix(1,0,0,-1,413.5338,124.28998)" stroke-width="1" stroke-linecap="butt" stroke-dasharray="4,3" stroke-linejoin="round" fill="none" stroke="#000000" d="M0 0V-34"/>
<path transform="matrix(1,0,0,-1,416.5338,154.28998)" d="M0 0-3-6-6 0Z" fill-rule="evenodd"/>
<path transform="matrix(1,0,0,-1,305.5339,225.79007)" stroke-width="1" stroke-linecap="butt" stroke-miterlimit="8" stroke-linejoin="miter" fill="none" stroke="#000000" d="M0 0 19.5 17.5 39 0H26.65V-36.5H12.35V0Z"/>
<path transform="matrix(1,0,0,-1,392.5339,302.78999)" stroke-width="1" stroke-linecap="butt" stroke-miterlimit="8" stroke-linejoin="miter" fill="none" stroke="#000000" d="M0 0 19.5-17.5 39 0H26.65V36.5H12.35V0Z"/>
<path transform="matrix(1,0,0,-1,359.5338,323.28999)" stroke-width="1" stroke-linecap="butt" stroke-miterlimit="8" stroke-linejoin="miter" fill="none" stroke="#000000" d="M0 0H102V-41H0Z"/>
<use data-text="D" xlink:href="#font_1_6" transform="matrix(16,0,0,-16,394.73393,340.58998)"/>
<use data-text="i" xlink:href="#font_1_26" transform="matrix(16,0,0,-16,406.28593,340.58998)"/>
<use data-text="s" xlink:href="#font_1_34" transform="matrix(16,0,0,-16,409.83793,340.58998)"/>
<use data-text="k" xlink:href="#font_1_27" transform="matrix(16,0,0,-16,417.83793,340.58998)"/>
<use data-text=" " xlink:href="#font_1_1" transform="matrix(16,0,0,-16,425.83793,340.58998)"/>
<use data-text="&#xfffd;" xlink:href="#font_2_1" transform="matrix(16,0,0,-16,430.28593,340.58998)"/>
<use data-text="&#xfffd;" xlink:href="#font_3_20" transform="matrix(16,0,0,-16,377.7419,359.58198)"/>
<use data-text="&#xfffd;" xlink:href="#font_3_31" transform="matrix(16,0,0,-16,385.7419,359.58198)"/>
<use data-text="&#xfffd;" xlink:href="#font_3_30" transform="matrix(16,0,0,-16,394.6379,359.58198)"/>
<use data-text="&#xfffd;" xlink:href="#font_3_35" transform="matrix(16,0,0,-16,403.5339,359.58198)"/>
<use data-text="&#xfffd;" xlink:href="#font_3_33" transform="matrix(16,0,0,-16,407.9819,359.58198)"/>
<use data-text="&#xfffd;" xlink:href="#font_3_31" transform="matrix(16,0,0,-16,413.3099,359.58198)"/>
<use data-text="&#xfffd;" xlink:href="#font_3_28" transform="matrix(16,0,0,-16,422.2059,359.58198)"/>
<use data-text="&#xfffd;" xlink:href="#font_3_28" transform="matrix(16,0,0,-16,425.7579,359.58198)"/>
<use data-text="&#xfffd;" xlink:href="#font_3_22" transform="matrix(16,0,0,-16,429.3099,359.58198)"/>
<use data-text="&#xfffd;" xlink:href="#font_3_33" transform="matrix(16,0,0,-16,438.2059,359.58198)"/>
<use data-text="&#xfffd;" xlink:href="#font_2_1" transform="matrix(16,0,0,-16,443.5339,359.58198)"/>
<path transform="matrix(1,0,0,-1,209.0339,302.78999)" stroke-width="1" stroke-linecap="butt" stroke-miterlimit="8" stroke-linejoin="miter" fill="none" stroke="#000000" d="M0 0 19.5-17.5 39 0H26.65V36.5H12.35V0Z"/>
<path transform="matrix(1,0,0,-1,176.0339,323.28999)" stroke-width="1" stroke-linecap="butt" stroke-miterlimit="8" stroke-linejoin="miter" fill="none" stroke="#000000" d="M0 0H102V-41H0Z"/>
<use data-text="G" xlink:href="#font_1_8" transform="matrix(16,0,0,-16,195.2339,340.58998)"/>
<use data-text="r" xlink:href="#font_1_33" transform="matrix(16,0,0,-16,207.6819,340.58998)"/>
<use data-text="a" xlink:href="#font_1_18" transform="matrix(16,0,0,-16,213.0099,340.58998)"/>
<use data-text="p" xlink:href="#font_1_32" transform="matrix(16,0,0,-16,221.90592,340.58998)"/>
<use data-text="h" xlink:href="#font_1_25" transform="matrix(16,0,0,-16,230.80191,340.58998)"/>
<use data-text="i" xlink:href="#font_1_26" transform="matrix(16,0,0,-16,239.6979,340.58998)"/>
<use data-text="c" xlink:href="#font_1_20" transform="matrix(16,0,0,-16,243.24991,340.58998)"/>
<use data-text="s" xlink:href="#font_1_34" transform="matrix(16,0,0,-16,251.24991,340.58998)"/>
<use data-text="&#xfffd;" xlink:href="#font_2_1" transform="matrix(16,0,0,-16,259.2499,340.58998)"/>
<use data-text="a" xlink:href="#font_1_18" transform="matrix(16,0,0,-16,200.2259,359.58198)"/>
<use data-text="d" xlink:href="#font_1_21" transform="matrix(16,0,0,-16,209.1219,359.58198)"/>
<use data-text="a" xlink:href="#font_1_18" transform="matrix(16,0,0,-16,218.0179,359.58198)"/>
<use data-text="p" xlink:href="#font_1_32" transform="matrix(16,0,0,-16,226.91391,359.58198)"/>
<use data-text="t" xlink:href="#font_1_35" transform="matrix(16,0,0,-16,235.8099,359.58198)"/>
<use data-text="e" xlink:href="#font_1_22" transform="matrix(16,0,0,-16,240.2579,359.58198)"/>
<use data-text="r" xlink:href="#font_1_33" transform="matrix(16,0,0,-16,249.1539,359.58198)"/>
<use data-text="&#xfffd;" xlink:href="#font_2_1" transform="matrix(16,0,0,-16,254.4819,359.58198)"/>
<path transform="matrix(1,0,0,-1,77.033908,302.78999)" stroke-width="1" stroke-linecap="butt" stroke-miterlimit="8" stroke-linejoin="miter" fill="none" stroke="#000000" d="M0 0 19.5-17.5 39 0H26.65V36.5H12.35V0Z"/>
<path transform="matrix(1,0,0,-1,50.0339,322.28999)" stroke-width="1" stroke-linecap="butt" stroke-miterlimit="8" stroke-linejoin="miter" fill="none" stroke="#000000" d="M0 0H90V-41H0Z"/>
<use data-text="U" xlink:href="#font_1_17" transform="matrix(16,0,0,-16,78.2339,339.58998)"/>
<use data-text="S" xlink:href="#font_1_16" transform="matrix(16,0,0,-16,89.785907,339.58998)"/>
<use data-text="B" xlink:href="#font_1_4" transform="matrix(16,0,0,-16,100.4579,339.58998)"/>
<use data-text="&#xfffd;" xlink:href="#font_2_1" transform="matrix(16,0,0,-16,111.1299,339.58998)"/>
<use data-text="&#xfffd;" xlink:href="#font_3_20" transform="matrix(16,0,0,-16,62.2339,358.58198)"/>
<use data-text="&#xfffd;" xlink:href="#font_3_31" transform="matrix(16,0,0,-16,70.2339,358.58198)"/>
<use data-text="&#xfffd;" xlink:href="#font_3_30" transform="matrix(16,0,0,-16,79.1299,358.58198)"/>
<use data-text="&#xfffd;" xlink:href="#font_3_35" transform="matrix(16,0,0,-16,88.02591,358.58198)"/>
<use data-text="&#xfffd;" xlink:href="#font_3_33" transform="matrix(16,0,0,-16,92.47391,358.58198)"/>
<use data-text="&#xfffd;" xlink:href="#font_3_31" transform="matrix(16,0,0,-16,97.80191,358.58198)"/>
<use data-text="&#xfffd;" xlink:href="#font_3_28" transform="matrix(16,0,0,-16,106.69791,358.58198)"/>
<use data-text="&#xfffd;" xlink:href="#font_3_28" transform="matrix(16,0,0,-16,110.24991,358.58198)"/>
<use data-text="&#xfffd;" xlink:href="#font_3_22" transform="matrix(16,0,0,-16,113.80191,358.58198)"/>
<use data-text="&#xfffd;" xlink:href="#font_3_33" transform="matrix(16,0,0,-16,122.69791,358.58198)"/>
<use data-text="&#xfffd;" xlink:href="#font_2_1" transform="matrix(16,0,0,-16,128.02591,358.58198)"/>
<path transform="matrix(1,0,0,-1,68.033908,366.28999)" stroke-width="1" stroke-linecap="butt" stroke-linejoin="round" fill="none" stroke="#000000" d="M0 0V-22"/>
<path transform="matrix(1,0,0,-1,65.033908,370.28999)" d="M0 0 3 6 6 0Z" fill-rule="evenodd"/>
<path transform="matrix(1,0,0,-1,128.0339,366.28999)" stroke-width="1" stroke-linecap="butt" stroke-linejoin="round" fill="none" stroke="#000000" d="M0 0V-22"/>
<path transform="matrix(1,0,0,-1,125.033908,370.28999)" d="M0 0 3 6 6 0Z" fill-rule="evenodd"/>
<use data-text="M" xlink:href="#font_1_12" transform="matrix(16,0,0,-16,42.7339,401.93998)"/>
<use data-text="o" xlink:href="#font_1_31" transform="matrix(16,0,0,-16,56.0619,401.93998)"/>
<use data-text="u" xlink:href="#font_1_36" transform="matrix(16,0,0,-16,64.9579,401.93998)"/>
<use data-text="s" xlink:href="#font_1_34" transform="matrix(16,0,0,-16,73.85391,401.93998)"/>
<use data-text="e" xlink:href="#font_1_22" transform="matrix(16,0,0,-16,81.85391,401.93998)"/>
<use data-text="&#xfffd;" xlink:href="#font_2_1" transform="matrix(16,0,0,-16,90.74991,401.93998)"/>
<use data-text="K" xlink:href="#font_1_10" transform="matrix(16,0,0,-16,95.7419,401.93998)"/>
<use data-text="e" xlink:href="#font_1_22" transform="matrix(16,0,0,-16,106.413898,401.93998)"/>
<use data-text="y" xlink:href="#font_1_40" transform="matrix(16,0,0,-16,115.30989,401.93998)"/>
<use data-text="b" xlink:href="#font_1_19" transform="matrix(16,0,0,-16,123.30989,401.93998)"/>
<use data-text="o" xlink:href="#font_1_31" transform="matrix(16,0,0,-16,132.20589,401.93998)"/>
<use data-text="a" xlink:href="#font_1_18" transform="matrix(16,0,0,-16,141.10189,401.93998)"/>
<use data-text="r" xlink:href="#font_1_33" transform="matrix(16,0,0,-16,149.99788,401.93998)"/>
<use data-text="d" xlink:href="#font_1_21" transform="matrix(16,0,0,-16,155.32588,401.93998)"/>
<use data-text="&#xfffd;" xlink:href="#font_2_1" transform="matrix(16,0,0,-16,164.22188,401.93998)"/>
<path transform="matrix(1,0,0,-1,230.0339,364.28999)" stroke-width="1" stroke-linecap="butt" stroke-linejoin="round" fill="none" stroke="#000000" d="M0 0V-22"/>
<path transform="matrix(1,0,0,-1,233.0339,382.28999)" d="M0 0-3-6-6 0Z" fill-rule="evenodd"/>
<use data-text="&#xfffd;" xlink:href="#font_3_6" transform="matrix(16,0,0,-16,201.9839,401.93998)"/>
<use data-text="&#xfffd;" xlink:href="#font_3_26" transform="matrix(16,0,0,-16,213.5359,401.93998)"/>
<use data-text="&#xfffd;" xlink:href="#font_3_34" transform="matrix(16,0,0,-16,217.0879,401.93998)"/>
<use data-text="&#xfffd;" xlink:href="#font_3_32" transform="matrix(16,0,0,-16,225.08792,401.93998)"/>
<use data-text="&#xfffd;" xlink:href="#font_3_28" transform="matrix(16,0,0,-16,233.98392,401.93998)"/>
<use data-text="&#xfffd;" xlink:href="#font_3_18" transform="matrix(16,0,0,-16,237.53592,401.93998)"/>
<use data-text="&#xfffd;" xlink:href="#font_3_40" transform="matrix(16,0,0,-16,246.43192,401.93998)"/>
<use data-text="&#xfffd;" xlink:href="#font_2_1" transform="matrix(16,0,0,-16,254.43192,401.93998)"/>
<path transform="matrix(1,0,0,-1,411.5338,366.28999)" stroke-width="1" stroke-linecap="butt" stroke-linejoin="round" fill="none" stroke="#000000" d="M0 0V-26"/>
<path transform="matrix(1,0,0,-1,408.5338,370.28999)" d="M0 0 3 6 6 0Z" fill-rule="evenodd"/>
<path transform="matrix(1,0,0,-1,414.5338,388.28999)" d="M0 0-3-6-6 0Z" fill-rule="evenodd"/>
<g clip-path="url(#clip_5)">
<path transform="matrix(1,0,0,-1,435.5338,400.28999)" stroke-width="1" stroke-linecap="butt" stroke-linejoin="round" fill="none" stroke="#000000" d="M0 0C0-3.314-10.745-6-24-6-37.255-6-48-3.314-48 0-48 3.314-37.255 6-24 6-10.745 6 0 3.314 0 0ZL0-36C0-39.314-10.745-42-24-42-37.255-42-48-39.314-48-36V0"/>
</g>
<use data-text="D" xlink:href="#font_1_6" transform="matrix(16,0,0,-16,395.7338,427.68998)"/>
<use data-text="i" xlink:href="#font_1_26" transform="matrix(16,0,0,-16,407.2858,427.68998)"/>
<use data-text="s" xlink:href="#font_1_34" transform="matrix(16,0,0,-16,410.8378,427.68998)"/>
<use data-text="k" xlink:href="#font_1_27" transform="matrix(16,0,0,-16,418.8378,427.68998)"/>
<use data-text="&#xfffd;" xlink:href="#font_2_1" transform="matrix(16,0,0,-16,426.8378,427.68998)"/>
<path transform="matrix(1,0,0,-1,5.533901,264.78999)" d="M0 0 29.605 15.5V7.535H543.395V15.5L573 0 543.395-15.5V-7.535H29.605V-15.5Z" fill="#ffffff" fill-rule="evenodd"/>
<path transform="matrix(1,0,0,-1,5.533901,264.78999)" stroke-width="1" stroke-linecap="butt" stroke-miterlimit="8" stroke-linejoin="miter" fill="none" stroke="#000000" d="M0 0 29.605 15.5V7.535H543.395V15.5L573 0 543.395-15.5V-7.535H29.605V-15.5Z"/>
<path transform="matrix(1,0,0,-1,-36.4661,580.29)" d="M126.75 317.625H139.875V305.625H126.75Z" fill="#ffffff" fill-rule="evenodd"/>
<path transform="matrix(1,0,0,-1,-36.4661,580.29)" d="M258.75 318.375H271.875V306.375H258.75Z" fill="#ffffff" fill-rule="evenodd"/>
<path transform="matrix(1,0,0,-1,-36.4661,580.29)" d="M442.5 319.125H455.25V307.125H442.5Z" fill="#ffffff" fill-rule="evenodd"/>
<use data-text="I" xlink:href="#font_1_9" transform="matrix(16,0,0,-16,303.23393,292.93998)"/>
<use data-text="/" xlink:href="#font_1_2" transform="matrix(16,0,0,-16,307.68193,292.93998)"/>
<use data-text="O" xlink:href="#font_1_13" transform="matrix(16,0,0,-16,312.1299,292.93998)"/>
<use data-text=" " xlink:href="#font_1_1" transform="matrix(16,0,0,-16,324.5779,292.93998)"/>
<use data-text="b" xlink:href="#font_1_19" transform="matrix(16,0,0,-16,329.0259,292.93998)"/>
<use data-text="u" xlink:href="#font_1_36" transform="matrix(16,0,0,-16,337.9219,292.93998)"/>
<use data-text="s" xlink:href="#font_1_34" transform="matrix(16,0,0,-16,346.8179,292.93998)"/>
<use data-text="&#xfffd;" xlink:href="#font_2_1" transform="matrix(16,0,0,-16,354.8179,292.93998)"/>
<path transform="matrix(1,0,0,-1,-36.4661,580.29)" d="M355.125 324H367.875V312H355.125Z" fill="#ffffff" fill-rule="evenodd"/>
<path transform="matrix(1,0,0,-1,-36.4661,580.29)" d="M504 330H514V298H504Z" fill="#ffffff" fill-rule="evenodd"/>
<path transform="matrix(1,0,0,-1,467.5338,250.28998)" stroke-width="1" stroke-linecap="butt" stroke-miterlimit="8" stroke-linejoin="miter" fill="none" stroke="#000000" d="M0 0H10V-32H0Z"/>
<path transform="matrix(1,0,0,-1,-36.4661,580.29)" d="M528 330H538V298H528Z" fill="#ffffff" fill-rule="evenodd"/>
<path transform="matrix(1,0,0,-1,491.53373,250.28998)" stroke-width="1" stroke-linecap="butt" stroke-miterlimit="8" stroke-linejoin="miter" fill="none" stroke="#000000" d="M0 0H10V-32H0Z"/>
<path transform="matrix(1,0,0,-1,-36.4661,580.29)" d="M552 330H562V298H552Z" fill="#ffffff" fill-rule="evenodd"/>
<path transform="matrix(1,0,0,-1,515.5337,250.28998)" stroke-width="1" stroke-linecap="butt" stroke-miterlimit="8" stroke-linejoin="miter" fill="none" stroke="#000000" d="M0 0H10V-32H0Z"/>
<use data-text="&#xfffd;" xlink:href="#font_3_7" transform="matrix(16,0,0,-16,473.60893,300.01499)"/>
<use data-text="&#xfffd;" xlink:href="#font_3_39" transform="matrix(16,0,0,-16,484.2809,300.01499)"/>
<use data-text="&#xfffd;" xlink:href="#font_3_32" transform="matrix(16,0,0,-16,492.2809,300.01499)"/>
<use data-text="&#xfffd;" xlink:href="#font_3_18" transform="matrix(16,0,0,-16,501.1769,300.01499)"/>
<use data-text="&#xfffd;" xlink:href="#font_3_30" transform="matrix(16,0,0,-16,510.0729,300.01499)"/>
<use data-text="&#xfffd;" xlink:href="#font_3_34" transform="matrix(16,0,0,-16,518.9689,300.01499)"/>
<use data-text="&#xfffd;" xlink:href="#font_3_26" transform="matrix(16,0,0,-16,526.9689,300.01499)"/>
<use data-text="&#xfffd;" xlink:href="#font_3_31" transform="matrix(16,0,0,-16,530.5209,300.01499)"/>
<use data-text="&#xfffd;" xlink:href="#font_3_30" transform="matrix(16,0,0,-16,539.4169,300.01499)"/>
<use data-text="&#xfffd;" xlink:href="#font_3_1" transform="matrix(16,0,0,-16,548.31289,300.01499)"/>
<use data-text="&#xfffd;" xlink:href="#font_3_34" transform="matrix(16,0,0,-16,552.76089,300.01499)"/>
<use data-text="&#xfffd;" xlink:href="#font_3_28" transform="matrix(16,0,0,-16,560.76089,300.01499)"/>
<use data-text="&#xfffd;" xlink:href="#font_3_31" transform="matrix(16,0,0,-16,564.31289,300.01499)"/>
<use data-text="&#xfffd;" xlink:href="#font_3_35" transform="matrix(16,0,0,-16,573.20889,300.01499)"/>
<use data-text="&#xfffd;" xlink:href="#font_3_34" transform="matrix(16,0,0,-16,577.65689,300.01499)"/>
<use data-text="&#xfffd;" xlink:href="#font_3_1" transform="matrix(16,0,0,-16,585.65689,300.01499)"/>
<use data-text="&#xfffd;" xlink:href="#font_3_23" transform="matrix(16,0,0,-16,590.10488,300.01499)"/>
<use data-text="&#xfffd;" xlink:href="#font_3_31" transform="matrix(16,0,0,-16,594.55288,300.01499)"/>
<use data-text="&#xfffd;" xlink:href="#font_3_33" transform="matrix(16,0,0,-16,603.44888,300.01499)"/>
<use data-text="&#xfffd;" xlink:href="#font_2_1" transform="matrix(16,0,0,-16,608.77688,300.01499)"/>
<use data-text="o" xlink:href="#font_1_31" transform="matrix(16,0,0,-16,473.60893,319.007)"/>
<use data-text="t" xlink:href="#font_1_35" transform="matrix(16,0,0,-16,482.5049,319.007)"/>
<use data-text="h" xlink:href="#font_1_25" transform="matrix(16,0,0,-16,486.9529,319.007)"/>
<use data-text="e" xlink:href="#font_1_22" transform="matrix(16,0,0,-16,495.8489,319.007)"/>
<use data-text="r" xlink:href="#font_1_33" transform="matrix(16,0,0,-16,504.7449,319.007)"/>
<use data-text=" " xlink:href="#font_1_1" transform="matrix(16,0,0,-16,510.0729,319.007)"/>
<use data-text="d" xlink:href="#font_1_21" transform="matrix(16,0,0,-16,514.5209,319.007)"/>
<use data-text="e" xlink:href="#font_1_22" transform="matrix(16,0,0,-16,523.4169,319.007)"/>
<use data-text="v" xlink:href="#font_1_37" transform="matrix(16,0,0,-16,532.31289,319.007)"/>
<use data-text="i" xlink:href="#font_1_26" transform="matrix(16,0,0,-16,540.31289,319.007)"/>
<use data-text="c" xlink:href="#font_1_20" transform="matrix(16,0,0,-16,543.86489,319.007)"/>
<use data-text="e" xlink:href="#font_1_22" transform="matrix(16,0,0,-16,551.86489,319.007)"/>
<use data-text="s" xlink:href="#font_1_34" transform="matrix(16,0,0,-16,560.76089,319.007)"/>
<use data-text=" " xlink:href="#font_1_1" transform="matrix(16,0,0,-16,568.76089,319.007)"/>
<use data-text="s" xlink:href="#font_1_34" transform="matrix(16,0,0,-16,573.20889,319.007)"/>
<use data-text="u" xlink:href="#font_1_36" transform="matrix(16,0,0,-16,581.20889,319.007)"/>
<use data-text="c" xlink:href="#font_1_20" transform="matrix(16,0,0,-16,590.10488,319.007)"/>
<use data-text="h" xlink:href="#font_1_25" transform="matrix(16,0,0,-16,598.10488,319.007)"/>
<use data-text="&#xfffd;" xlink:href="#font_2_1" transform="matrix(16,0,0,-16,607.00088,319.007)"/>
<use data-text="a" xlink:href="#font_1_18" transform="matrix(16,0,0,-16,473.60893,337.999)"/>
<use data-text="s" xlink:href="#font_1_34" transform="matrix(16,0,0,-16,482.5049,337.999)"/>
<use data-text=" " xlink:href="#font_1_1" transform="matrix(16,0,0,-16,490.5049,337.999)"/>
<use data-text="n" xlink:href="#font_1_30" transform="matrix(16,0,0,-16,494.9529,337.999)"/>
<use data-text="e" xlink:href="#font_1_22" transform="matrix(16,0,0,-16,503.8489,337.999)"/>
<use data-text="t" xlink:href="#font_1_35" transform="matrix(16,0,0,-16,512.7449,337.999)"/>
<use data-text="w" xlink:href="#font_1_38" transform="matrix(16,0,0,-16,517.1929,337.999)"/>
<use data-text="o" xlink:href="#font_1_31" transform="matrix(16,0,0,-16,528.7449,337.999)"/>
<use data-text="r" xlink:href="#font_1_33" transform="matrix(16,0,0,-16,537.64089,337.999)"/>
<use data-text="k" xlink:href="#font_1_27" transform="matrix(16,0,0,-16,542.9689,337.999)"/>
<use data-text=" " xlink:href="#font_1_1" transform="matrix(16,0,0,-16,550.9689,337.999)"/>
<use data-text="a" xlink:href="#font_1_18" transform="matrix(16,0,0,-16,555.4169,337.999)"/>
<use data-text="d" xlink:href="#font_1_21" transform="matrix(16,0,0,-16,564.31289,337.999)"/>
<use data-text="a" xlink:href="#font_1_18" transform="matrix(16,0,0,-16,573.20889,337.999)"/>
<use data-text="p" xlink:href="#font_1_32" transform="matrix(16,0,0,-16,582.10488,337.999)"/>
<use data-text="t" xlink:href="#font_1_35" transform="matrix(16,0,0,-16,591.00088,337.999)"/>
<use data-text="e" xlink:href="#font_1_22" transform="matrix(16,0,0,-16,595.44888,337.999)"/>
<use data-text="r" xlink:href="#font_1_33" transform="matrix(16,0,0,-16,604.34487,337.999)"/>
<use data-text="s" xlink:href="#font_1_34" transform="matrix(16,0,0,-16,609.67288,337.999)"/>
<use data-text="&#xfffd;" xlink:href="#font_2_1" transform="matrix(16,0,0,-16,617.67288,337.999)"/>
<use data-text="&#xfffd;" xlink:href="#font_2_1" transform="matrix(16,0,0,-16,473.60893,356.991)"/>
<use data-text="h" xlink:href="#font_6_2" transform="matrix(16,0,0,-16,451.7369,416.19099)"/>
<use data-text="e" xlink:href="#font_6_1" transform="matrix(16,0,0,-16,461.3369,416.19099)"/>
<use data-text="l" xlink:href="#font_6_3" transform="matrix(16,0,0,-16,470.93693,416.19099)"/>
<use data-text="l" xlink:href="#font_6_3" transform="matrix(16,0,0,-16,480.5369,416.19099)"/>
<use data-text="o" xlink:href="#font_6_4" transform="matrix(16,0,0,-16,490.13688,416.19099)"/>
<use data-text=" " xlink:href="#font_7_1" transform="matrix(16,0,0,-16,499.73686,416.19099)"/>
<use data-text="e" xlink:href="#font_7_6" transform="matrix(16,0,0,-16,504.18486,416.19099)"/>
<use data-text="x" xlink:href="#font_7_16" transform="matrix(16,0,0,-16,513.0808,416.19099)"/>
<use data-text="e" xlink:href="#font_7_6" transform="matrix(16,0,0,-16,521.0808,416.19099)"/>
<use data-text="c" xlink:href="#font_7_4" transform="matrix(16,0,0,-16,529.9768,416.19099)"/>
<use data-text="u" xlink:href="#font_7_15" transform="matrix(16,0,0,-16,537.9768,416.19099)"/>
<use data-text="t" xlink:href="#font_7_14" transform="matrix(16,0,0,-16,546.8728,416.19099)"/>
<use data-text="a" xlink:href="#font_7_2" transform="matrix(16,0,0,-16,551.3208,416.19099)"/>
<use data-text="b" xlink:href="#font_7_3" transform="matrix(16,0,0,-16,560.2168,416.19099)"/>
<use data-text="l" xlink:href="#font_7_9" transform="matrix(16,0,0,-16,569.1128,416.19099)"/>
<use data-text="e" xlink:href="#font_7_6" transform="matrix(16,0,0,-16,572.6648,416.19099)"/>
<use data-text=" " xlink:href="#font_7_1" transform="matrix(16,0,0,-16,581.5608,416.19099)"/>
<use data-text="&#xfffd;" xlink:href="#font_8_1" transform="matrix(16,0,0,-16,586.0088,416.19099)"/>
<use data-text="s" xlink:href="#font_7_13" transform="matrix(16,0,0,-16,467.7369,435.18299)"/>
<use data-text="t" xlink:href="#font_7_14" transform="matrix(16,0,0,-16,475.7369,435.18299)"/>
<use data-text="o" xlink:href="#font_7_11" transform="matrix(16,0,0,-16,480.1849,435.18299)"/>
<use data-text="r" xlink:href="#font_7_12" transform="matrix(16,0,0,-16,489.0809,435.18299)"/>
<use data-text="e" xlink:href="#font_7_6" transform="matrix(16,0,0,-16,494.4089,435.18299)"/>
<use data-text="d" xlink:href="#font_7_5" transform="matrix(16,0,0,-16,503.3049,435.18299)"/>
<use data-text=" " xlink:href="#font_7_1" transform="matrix(16,0,0,-16,512.20089,435.18299)"/>
<use data-text="o" xlink:href="#font_7_11" transform="matrix(16,0,0,-16,516.64889,435.18299)"/>
<use data-text="n" xlink:href="#font_7_10" transform="matrix(16,0,0,-16,525.54489,435.18299)"/>
<use data-text=" " xlink:href="#font_7_1" transform="matrix(16,0,0,-16,534.44088,435.18299)"/>
<use data-text="d" xlink:href="#font_7_5" transform="matrix(16,0,0,-16,538.88888,435.18299)"/>
<use data-text="i" xlink:href="#font_7_7" transform="matrix(16,0,0,-16,547.78488,435.18299)"/>
<use data-text="s" xlink:href="#font_7_13" transform="matrix(16,0,0,-16,551.33688,435.18299)"/>
<use data-text="k" xlink:href="#font_7_8" transform="matrix(16,0,0,-16,559.33688,435.18299)"/>
<use data-text="&#xfffd;" xlink:href="#font_8_1" transform="matrix(16,0,0,-16,567.33688,435.18299)"/>
<path transform="matrix(1,0,0,-1,23.533902,70.29007)" stroke-width="1" stroke-linecap="butt" stroke-miterlimit="8" stroke-linejoin="miter" fill="none" stroke="#000000" d="M0 0H60V-24H0Z"/>
<use data-text="P" xlink:href="#font_1_14" transform="matrix(16,0,0,-16,42.7339,88.69006)"/>
<use data-text="C" xlink:href="#font_1_5" transform="matrix(16,0,0,-16,53.405897,88.69006)"/>
<use data-text="&#xfffd;" xlink:href="#font_2_1" transform="matrix(16,0,0,-16,64.9579,88.69006)"/>
</g>
</svg>
