<svg xmlns="http://www.w3.org/2000/svg" xmlns:xlink="http://www.w3.org/1999/xlink" version="1.1" width="518.45309pt" height="453.44898pt" viewBox="0 0 518.45309 453.44898">
<defs>
<clipPath id="clip_0">
<path transform="matrix(1,0,0,-1,-83.2379,572.363)" d="M83.2379 118.914H601.691V572.363H83.2379Z" fill-rule="evenodd"/>
</clipPath>
<path id="font_1_6" d="M.076171878 .71777346H.17089844V.36769105L.5205078 .71777346H.65478518L.3564453 .4291687 .66308596 0H.5366211L.28564454 .360672 .17089844 .25016786V0H.076171878V.71777346Z"/>
<path id="font_1_16" d="M.28222657 .53515627C.31933595 .53515627 .355306 .52644857 .39013673 .5090332 .42496745 .49161784 .4514974 .4690806 .46972657 .4414215 .4873047 .41505433 .49902345 .3842977 .5048828 .3491516 .5100911 .32506309 .5126953 .28647868 .5126953 .23339844H.12939453C.13102214 .18033855 .14355469 .13777669 .16699219 .10571289 .19042969 .073649089 .22672527 .057617189 .2758789 .057617189 .32177735 .057617189 .35839845 .07261658 .3857422 .10261536 .4013672 .12003072 .4124349 .14018758 .4189453 .16308594H.5053711C.50309249 .14398194 .49552409 .122690837 .48266603 .09921265 .46980796 .07574463 .45540367 .05656433 .43945313 .041671754 .4127604 .01576233 .37972007-.0017242432 .34033204-.010787964 .3191732-.01596578 .2952474-.018554688 .2685547-.018554688 .20345052-.018554688 .14827474 .0051472985 .103027347 .05255127 .05777995 .09995524 .03515625 .16634114 .03515625 .25170899 .03515625 .33576457 .057942708 .40401713 .103515628 .45646668 .14908855 .5089264 .20865886 .53515627 .28222657 .53515627M.42236329 .30371095C.41878257 .34191896 .41048179 .37245179 .39746095 .39530946 .3733724 .4377594 .33317057 .45898438 .27685548 .45898438 .23649089 .45898438 .20263672 .44437156 .17529297 .41514588 .14794922 .3859202 .13346355 .34877525 .13183594 .30371095H.42236329M.27392579 .5361328V.5361328Z"/>
<path id="font_1_27" d="M.06689453 .5234375H.15039063V.4326172C.15722656 .4502767 .17399089 .4717814 .2006836 .49713136 .2273763 .52248129 .25813804 .53515627 .29296876 .53515627 .29459635 .53515627 .29736329 .5349579 .30126954 .53456118 .30517579 .5341746 .31184898 .5333964 .32128907 .53222659V.43945313C.31608073 .44062297 .3112793 .44140116 .30688478 .44178773 .30249024 .44218446 .2976888 .4423828 .29248048 .4423828 .24820964 .4423828 .2141927 .4280599 .19042969 .39941407 .16666667 .37076823 .15478516 .33789063 .15478516 .30078126V0H.06689453V.5234375Z"/>
<path id="font_1_24" d="M.064453128 .5234375H.14794922V.44921876C.1726888 .47981773 .19889324 .50179037 .2265625 .5151367 .25423179 .5284831 .2849935 .53515627 .31884767 .53515627 .3930664 .53515627 .44319663 .5092519 .46923829 .45744325 .4835612 .42910258 .49072267 .38853965 .49072267 .3357544V0H.4013672V.3299408C.4013672 .36188255 .39664714 .38762919 .38720704 .4071808 .37158204 .4397634 .34326173 .4560547 .3022461 .4560547 .28141276 .4560547 .2643229 .4539388 .25097657 .44970704 .22688802 .4425354 .20572917 .42819724 .1875 .4066925 .17285156 .38941957 .16333008 .37157694 .15893555 .35316468 .15454102 .3347524 .15234375 .30844117 .15234375 .27423097V0H.064453128V.5234375M.2709961 .5361328V.5361328Z"/>
<path id="font_1_22" d="M.06689453 .71777346H.15478516V0H.06689453V.71777346Z"/>
<path id="font_1_1" d="M0 0Z"/>
<path id="font_1_31" d="M.107421878 .5234375 .24707031 .09725952 .3930664 .5234375H.4892578L.2919922 0H.19824219L.0053710939 .5234375H.107421878Z"/>
<path id="font_1_20" d="M.064453128 .5205078H.1538086V0H.064453128V.5205078M.064453128 .71777346H.1538086V.61816409H.064453128V.71777346Z"/>
<path id="font_1_29" d="M.08203125 .66796877H.17089844V.5234375H.25439454V.4501953H.17089844V.110183719C.17089844 .09202576 .17708333 .07986959 .18945313 .07371521 .19628906 .07014465 .2076823 .068359378 .22363281 .068359378 .22786458 .068359378 .23242188 .06846619 .23730469 .06867981 .2421875 .0689036 .24788411 .06944784 .25439454 .0703125V0C.24430339-.0031026204 .23380535-.005340576 .22290039-.006713867 .21199544-.008097331 .20019531-.0087890629 .1875-.0087890629 .14648438-.0087890629 .118652347 .0016988119 .104003909 .02267456 .08935547 .04365031 .08203125 .070882167 .08203125 .10437012V.4501953H.011230469V.5234375H.08203125V.66796877Z"/>
<path id="font_1_30" d="M.15234375 .5234375V.17590332C.15234375 .1491801 .15657552 .12734477 .16503906 .11039734 .18066406 .07911682 .20979817 .06347656 .2524414 .06347656 .3136393 .06347656 .355306 .09085083 .3774414 .14559937 .3894857 .17492676 .3955078 .21516927 .3955078 .2663269V.5234375H.48339845V0H.40039063L.4013672 .0771637C.38997398 .057195028 .3758138 .040339155 .35888673 .02659607 .32535807-.00090026858 .28466798-.0146484379 .2368164-.0146484379 .16227214-.0146484379 .11149088 .010299683 .084472659 .060195924 .06982422 .08693949 .0625 .12265015 .0625 .16732788V.5234375H.15234375M.27294923 .5361328V.5361328Z"/>
<path id="font_1_12" d="M.13183594 .1394043C.13183594 .114095058 .14111328 .09413656 .15966797 .07952881 .17822266 .06492106 .20019531 .057617189 .22558594 .057617189 .2565104 .057617189 .28645835 .06471761 .3154297 .07891846 .3642578 .10247803 .38867188 .14127605 .38867188 .1953125V.26611329C.3779297 .25886027 .36409507 .2528127 .34716798 .24797058 .33024089 .24313863 .3136393 .23983257 .29736329 .23805237L.24414063 .23184204C.21223958 .22799683 .1883138 .22153218 .17236328 .21244812 .14534505 .19718933 .13183594 .17284139 .13183594 .1394043M.34472657 .31689454C.36490885 .3194987 .37841798 .32796226 .3852539 .34228517 .38916017 .35012818 .39111329 .36140443 .39111329 .3761139 .39111329 .40618388 .38045249 .42799888 .35913087 .44155885 .33780924 .455129 .30729167 .46191407 .26757813 .46191407 .22167969 .46191407 .18912761 .44948326 .16992188 .42462159 .15917969 .4108785 .15218099 .39043174 .14892578 .36328126H.06689453C.06852213 .42791749 .08943685 .47288514 .12963867 .4981842 .1698405 .5234833 .21647136 .5361328 .26953126 .5361328 .3310547 .5361328 .38102214 .52441409 .4194336 .50097659 .45751954 .47753907 .4765625 .4410502 .4765625 .39151V.08985901C.4765625 .08073425 .47843424 .073404949 .48217774 .067871097 .48592124 .06233724 .4938151 .059570314 .5058594 .059570314 .5097656 .059570314 .51416018 .059814454 .51904299 .060302736 .5239258 .060791017 .5291341 .061523439 .53466799 .0625V-.0028076173C.5209961-.00676473 .5105794-.009236653 .50341799-.010223389 .4962565-.011220296 .48649089-.01171875 .4741211-.01171875 .44384767-.01171875 .421875-.0009104411 .40820313 .020706177 .40104167 .032170614 .3959961 .048380536 .3930664 .06933594 .37516276 .045633954 .34944663 .025060019 .31591798 .0076141359 .2823893-.009831746 .2454427-.018554688 .20507813-.018554688 .15657552-.018554688 .11694336-.0037790936 .08618164 .025772095 .055419923 .055323285 .040039064 .092300418 .040039064 .13670349 .040039064 .18535869 .05517578 .22307332 .08544922 .24984741 .115722659 .2766215 .1554362 .29311119 .20458985 .2993164L.34472657 .31689454M.27197267 .5361328V.5361328Z"/>
<path id="font_1_23" d="M.064453128 .5234375H.15136719V.44921876C.17220052 .4749349 .19108074 .49365235 .20800781 .5053711 .23697917 .52522787 .26985679 .53515627 .30664063 .53515627 .34830729 .53515627 .38183595 .52490237 .40722657 .50439456 .42154948 .49267579 .4345703 .4754232 .44628907 .45263673 .4658203 .4806315 .48876954 .5013835 .5151367 .5148926 .5415039 .5284017 .5711263 .53515627 .6040039 .53515627 .6743164 .53515627 .72216799 .5097402 .7475586 .45890809 .76123049 .43154399 .7680664 .3947296 .7680664 .34846498V0H.6767578V.36367799C.6767578 .39853923 .6680501 .42248536 .65063479 .43551637 .6332194 .44855754 .6119792 .45507813 .58691409 .45507813 .5524089 .45507813 .5227051 .44350688 .49780274 .42036439 .4729004 .39723207 .46044923 .35861717 .46044923 .30451966V0H.37109376V.3416748C.37109376 .37719728 .36686198 .4031016 .35839845 .41938783 .3450521 .4438324 .32014976 .4560547 .2836914 .4560547 .25048829 .4560547 .22029622 .44318138 .19311524 .4174347 .16593425 .3916982 .15234375 .34510295 .15234375 .27764894V0H.064453128V.5234375Z"/>
<path id="font_1_25" d="M.27197267 .057617189C.33024089 .057617189 .37019859 .07964579 .3918457 .123703 .41349284 .16776021 .4243164 .21677144 .4243164 .2707367 .4243164 .31950379 .4165039 .35917155 .4008789 .38974 .3761393 .43785606 .3334961 .46191407 .27294923 .46191407 .21923828 .46191407 .18017578 .44143168 .15576172 .40046693 .13134766 .35950218 .119140628 .31008403 .119140628 .25221253 .119140628 .1966095 .13134766 .15027364 .15576172 .113204959 .18017578 .076146449 .21891277 .057617189 .27197267 .057617189M.27539063 .53808596C.34277345 .53808596 .3997396 .5156453 .44628907 .47076417 .49283854 .42588298 .5161133 .35985819 .5161133 .27268983 .5161133 .1884613 .49560548 .11886088 .45458985 .06388855 .41357423 .008926392 .3499349-.018554688 .26367188-.018554688 .19173177-.018554688 .13460286 .00575765 .092285159 .054382326 .04996745 .103006999 .028808594 .16829936 .028808594 .2502594 .028808594 .33806864 .05110677 .4079895 .095703128 .46002198 .14029949 .51206466 .20019531 .53808596 .27539063 .53808596M.27246095 .5361328V.5361328Z"/>
<path id="font_1_34" d="M.39111329 .5234375H.48828126C.47591148 .48987834 .44840495 .41330973 .40576173 .2937317 .3738607 .20380657 .34716798 .13049825 .3256836 .07380676 .27490235-.059921266 .23909505-.14145915 .21826172-.17080689 .19742839-.2001648 .1616211-.21484375 .110839847-.21484375 .098470058-.21484375 .08894857-.21435039 .08227539-.21336365 .07560221-.21238709 .06738281-.21058655 .057617189-.20796204V-.1274414C.072916667-.13167317 .083984378-.13427735 .09082031-.1352539 .09765625-.13623047 .10367838-.13671875 .10888672-.13671875 .12516277-.13671875 .13712566-.1340332 .14477539-.12866211 .15242513-.123291019 .15885417-.11669922 .1640625-.10888672 .16569011-.106282558 .17154949-.092936199 .18164063-.068847659 .19173177-.044759115 .19905599-.026855469 .20361328-.015136719L.010253906 .5234375H.10986328L.25 .09727478 .39111329 .5234375M.24951172 .5361328V.5361328Z"/>
<path id="font_2_1" d="M0 0Z"/>
<path id="font_1_8" d="M.07373047 .71777346H.21289063L.4189453 .11091614 .62353518 .71777346H.76123049V0H.6689453V.42362977C.6689453 .43828837 .6692708 .46255494 .6699219 .49642945 .67057296 .53030398 .67089846 .56662496 .67089846 .60539248L.4663086 0H.3701172L.1640625 .60539248V.58340457C.1640625 .5658162 .1644694 .5390218 .1652832 .50302127 .166097 .46703086 .1665039 .44056703 .1665039 .42362977V0H.07373047V.71777346Z"/>
<path id="font_1_26" d="M.28515626 .057617189C.32617188 .057617189 .36027018 .07486979 .38745118 .109375 .41463218 .14389038 .42822267 .1954956 .42822267 .26419068 .42822267 .3060608 .42220054 .34204103 .41015626 .37213136 .38736979 .43003337 .34570313 .45898438 .28515626 .45898438 .22428386 .45898438 .18261719 .42840068 .16015625 .36723329 .14811199 .33451844 .14208985 .29297386 .14208985 .24259949 .14208985 .20204163 .14811199 .16753133 .16015625 .1390686 .1829427 .08476766 .22460938 .057617189 .28515626 .057617189M.057617189 .5205078H.1430664V.45162965C.16064453 .47540284 .17985027 .49379985 .2006836 .5068207 .23030599 .5263621 .26513673 .5361328 .30517579 .5361328 .36442057 .5361328 .41471354 .5133667 .4560547 .46783448 .49739585 .42230226 .5180664 .3572693 .5180664 .2727356 .5180664 .1585083 .48828126 .07691447 .42871095 .027954102 .39095054-.0030517579 .34700523-.018554688 .296875-.018554688 .25748698-.018554688 .22444661-.009984334 .1977539 .007156372 .1821289 .016860962 .16471355 .033518476 .14550781 .057128908V-.20898438H.057617189V.5205078Z"/>
<path id="font_1_15" d="M.12011719 .2553711C.12011719 .19923909 .1319987 .15224712 .15576172 .11439514 .17952474 .076543178 .21761067 .057617189 .27001954 .057617189 .31070964 .057617189 .3441569 .075154628 .37036134 .11022949 .39656578 .14531453 .40966798 .19565328 .40966798 .26124574 .40966798 .32748924 .39615885 .37651573 .36914063 .4083252 .3421224 .44014488 .3087565 .4560547 .26904298 .4560547 .22477214 .4560547 .18888347 .4390869 .16137696 .40515138 .13387044 .37121583 .12011719 .32128907 .12011719 .2553711M.2524414 .53222659C.29248048 .53222659 .32600913 .52381899 .35302735 .5070038 .36865235 .4972992 .38639323 .48031617 .40625 .4560547V.71875H.49072267V0H.4116211V.07229614C.39111329 .04023234 .36686198 .017074585 .3388672 .002822876 .3108724-.011428833 .2788086-.018554688 .24267578-.018554688 .18440755-.018554688 .13395183 .0059407555 .091308597 .05493164 .048665365 .10392252 .02734375 .16910808 .02734375 .25048829 .02734375 .32666017 .04679362 .39265953 .08569336 .44848634 .1245931 .5043132 .18017578 .53222659 .2524414 .53222659Z"/>
<path id="font_1_18" d="M.24902344 .53222659C.29003907 .53222659 .32584635 .5220744 .3564453 .50177 .37304688 .49030558 .38997398 .4736023 .40722657 .45166017V.5185547H.48828126V.04234314C.48828126-.024154664 .47851563-.07663473 .45898438-.115097049 .42252604-.18615215 .35367839-.22167969 .2524414-.22167969 .1961263-.22167969 .14876302-.20906575 .11035156-.18383789 .0719401-.15861003 .05045573-.119140628 .045898439-.06542969H.1352539C.13948567-.08873495 .14794922-.10669454 .16064453-.11930847 .1805013-.13872783 .2117513-.1484375 .25439454-.1484375 .32177735-.1484375 .3658854-.12467448 .38671876-.07714844 .39908854-.04916382 .40478517 .0007985433 .4038086 .07273865 .38623048 .04588318 .36507163 .025904337 .34033204 .012802124 .31559245-.000289917 .2828776-.0068359377 .2421875-.0068359377 .18554688-.0068359377 .13598633 .013280232 .09350586 .053512575 .05102539 .09375509 .029785157 .16030376 .029785157 .25315858 .029785157 .34080506 .051188154 .40922547 .09399414 .4584198 .13680013 .5076243 .18847656 .53222659 .24902344 .53222659M.40722657 .26342774C.40722657 .328125 .39388023 .37607829 .3671875 .4072876 .34049479 .43849693 .30647788 .45410157 .26513673 .45410157 .20328777 .45410157 .16097005 .4251658 .1381836 .3672943 .12613933 .33641053 .12011719 .29593406 .12011719 .24586487 .12011719 .1870168 .13208008 .14223226 .15600586 .11151123 .17993164 .0807902 .21207683 .06542969 .2524414 .06542969 .31559245 .06542969 .36002604 .09387716 .3857422 .1507721 .4000651 .18295796 .40722657 .22050984 .40722657 .26342774M.25927735 .5361328V.5361328Z"/>
<path id="font_1_17" d="M.08642578 .6021576C.08772787 .638443 .09407552 .66500857 .10546875 .68185427 .12597656 .7116597 .16552735 .7265625 .2241211 .7265625 .22965496 .7265625 .23535156 .7263997 .24121094 .7260742 .24707031 .7257487 .2537435 .72526046 .26123048 .7246094V.64453127C.25211589 .6449687 .2455241 .6452382 .24145508 .64533999 .23738607 .64545187 .2335612 .6455078 .22998047 .6455078 .20328777 .6455078 .18733724 .6386719 .1821289 .625 .17692058 .6113281 .1743164 .5764974 .1743164 .5205078H.26123048V.45117188H.17333985V0H.08642578V.45117188H.013671875V.5205078H.08642578V.6021576Z"/>
<path id="font_1_28" d="M.11669922 .1640625C.11930338 .13463338 .12662761 .11207072 .13867188 .09637451 .1608073 .06793213 .19921875 .053710939 .25390626 .053710939 .28645835 .053710939 .31510417 .060806276 .33984376 .07499695 .36458335 .08919779 .37695313 .11115011 .37695313 .14085388 .37695313 .16337586 .36702476 .18051148 .34716798 .19226074 .33447267 .19944255 .30940757 .20775859 .27197267 .21720886L.20214844 .2348175C.15755208 .24590557 .12467448 .25829569 .103515628 .27198792 .06575521 .29579164 .046875 .32873027 .046875 .37080384 .046875 .42036439 .064697269 .46046958 .1003418 .49111939 .13598633 .52177938 .18391927 .5371094 .24414063 .5371094 .32291667 .5371094 .37972007 .5139974 .41455079 .46777345 .4363607 .43847657 .4469401 .40690104 .44628907 .37304688H.36328126C.36165367 .39269004 .35465495 .41055808 .34228517 .426651 .32210288 .44950868 .28710938 .4609375 .23730469 .4609375 .20410156 .4609375 .17895508 .45461528 .16186524 .44197084 .14477539 .42933656 .13623047 .41264854 .13623047 .39190675 .13623047 .36922203 .14746094 .35107423 .16992188 .33746339 .1829427 .32936607 .20214844 .32221986 .22753906 .31602479L.28564454 .3018341C.34879557 .28650413 .39111329 .27166749 .41259767 .25732423 .44677735 .23482259 .4638672 .19944255 .4638672 .15118408 .4638672 .10455322 .44620768 .06428019 .41088868 .03036499 .37556968-.0035502117 .32177735-.020507813 .24951172-.020507813 .17171224-.020507813 .116617839-.002802531 .084228519 .032608034 .05183919 .06801859 .034505208 .111836757 .032226564 .1640625H.11669922M.24658203 .5361328V.5361328Z"/>
<path id="font_1_19" d="M.064453128 .71875H.15234375V.45214845C.17317708 .4786682 .19189453 .4973297 .2084961 .50813296 .2368164 .5267995 .2721354 .5361328 .31445313 .5361328 .39029948 .5361328 .44173179 .50957748 .46875 .45646668 .48339845 .42747499 .49072267 .38723756 .49072267 .3357544V0H.40039063V.32958985C.40039063 .3680013 .3955078 .39615885 .3857422 .4140625 .36979167 .44270835 .33984376 .45703126 .29589845 .45703126 .2594401 .45703126 .22639974 .4444987 .19677735 .4194336 .16715496 .3943685 .15234375 .34700523 .15234375 .27734376V0H.064453128V.71875Z"/>
<path id="font_1_13" d="M.057617189 .71875H.1430664V.45948792C.16227214 .4847056 .18522136 .50394698 .21191406 .5172119 .23860677 .53047689 .26757813 .5371094 .29882813 .5371094 .36393229 .5371094 .41674806 .5147095 .4572754 .46990968 .49780274 .42510987 .5180664 .35905458 .5180664 .27174378 .5180664 .1889801 .49804688 .12022909 .4580078 .06549072 .41796876 .010762532 .36246745-.016601563 .2915039-.016601563 .25179038-.016601563 .21826172-.006942749 .19091797 .012374878 .17464192 .023839316 .15722656 .042175294 .13867188 .06738281V0H.057617189V.71875M.2861328 .061523439C.33365885 .061523439 .36922203 .08037821 .39282228 .11808777 .41642253 .1558075 .42822267 .20555115 .42822267 .26731874 .42822267 .32227073 .41642253 .3677877 .39282228 .40386964 .36922203 .43996177 .33447267 .4580078 .28857423 .4580078 .24853516 .4580078 .21346028 .44321189 .18334961 .41362 .15323894 .3840383 .1381836 .3352712 .1381836 .26731874 .1381836 .21822612 .14436849 .17840068 .15673828 .1478424 .17985027 .090296428 .22298177 .061523439 .2861328 .061523439Z"/>
<path id="font_1_10" d="M.40966798 .38867188C.45524089 .38867188 .49129234 .39778648 .51782229 .41601563 .54435226 .43424479 .5576172 .4671224 .5576172 .51464846 .5576172 .5657552 .5390625 .60058596 .5019531 .6191406 .48209635 .62890627 .4555664 .63378909 .42236329 .63378909H.1850586V.38867188H.40966798M.087890628 .71777346H.41992188C.47460938 .71777346 .51969406 .709788 .5551758 .69381716 .6225586 .6631775 .65625 .60662338 .65625 .52415469 .65625 .48112489 .6473796 .44591777 .6296387 .41853334 .61189779 .39115907 .58707687 .36916099 .5551758 .35253907 .5831706 .34114585 .60424807 .32617188 .6184082 .3076172 .63256838 .2890625 .6404622 .2589518 .64208987 .21728516L.6455078 .12109375C.6464844 .09388224 .648763 .07363383 .65234377 .06034851 .6582031 .037663778 .6686198 .023081461 .68359377 .016601563V0H.5644531C.56119796 .006184896 .55859377 .014160156 .5566406 .023925782 .5546875 .033691408 .5530599 .052571615 .5517578 .080566409L.54589846 .20019531C.5436198 .24707031 .5262044 .27848307 .49365235 .2944336 .47509767 .30322267 .44596354 .3076172 .40625 .3076172H.1850586V0H.087890628V.71777346Z"/>
<path id="font_1_4" d="M.041503908 .32421876H.2866211V.23339844H.041503908V.32421876Z"/>
<path id="font_1_2" d="M.29589845 .7294922C.24479167 .6301575 .21158855 .55703738 .19628906 .51013186 .17317708 .43881227 .1616211 .3564148 .1616211 .26293946 .1616211 .16848755 .17480469 .08217875 .20117188 .0040130617 .21744792-.044184369 .24951172-.11355591 .29736329-.20410156H.23828125C.1907552-.12984212 .16129558-.08245341 .14990235-.061935426 .13850911-.04141744 .12613933-.013570149 .11279297 .021606446 .094563808 .06980387 .08186849 .1212616 .07470703 .17597962 .071126308 .2043101 .06933594 .23134358 .06933594 .25708009 .06933594 .3534851 .084472659 .43930564 .114746097 .5145416 .13395183 .5624135 .17399089 .6340637 .23486328 .7294922H.29589845Z"/>
<path id="font_1_14" d="M.26611329 .53808596C.32503257 .53808596 .37296549 .5237274 .4099121 .49501039 .44685874 .46629334 .46907554 .41684977 .4765625 .3466797H.39111329C.38590495 .37890626 .37402345 .40568034 .35546876 .42700196 .33691407 .44832359 .3071289 .45898438 .26611329 .45898438 .2101237 .45898438 .17008464 .43170677 .1459961 .3771515 .1303711 .34176127 .122558597 .29808555 .122558597 .24612427 .122558597 .19384766 .1336263 .14984639 .15576172 .11412048 .17789714 .07840475 .21272786 .060546876 .2602539 .060546876 .29671226 .060546876 .3256022 .0716095 .34692384 .09373474 .36824546 .115859989 .38297526 .1461385 .39111329 .18457031H.4765625C.46679688 .115234378 .4423828 .06453451 .4033203 .032470704 .3642578 .00040690104 .31429038-.015625 .25341798-.015625 .1850586-.015625 .13053386 .009379069 .08984375 .059387208 .049153646 .10940552 .028808594 .17188008 .028808594 .24681092 .028808594 .33868919 .05110677 .41020204 .095703128 .4613495 .14029949 .51250717 .19710286 .53808596 .26611329 .53808596M.2524414 .5361328V.5361328Z"/>
<path id="font_3_10" d="M.11328125 .42382813V.38275147C.14811199 .41990153 .18310547 .43847657 .21826172 .43847657 .23942058 .43847657 .25797526 .43289186 .27392579 .4217224 .2898763 .41056315 .30322267 .3936564 .31396485 .3710022 .332194 .3936564 .35066734 .41056315 .36938478 .4217224 .3881022 .43289186 .40690104 .43847657 .42578126 .43847657 .45540367 .43847657 .4790039 .42884828 .49658204 .40959168 .51969406 .38479106 .53125 .3577067 .53125 .32833863V.041015626H.56591799C.5756836 .041015626 .5826823 .03914388 .58691409 .03540039 .5911458 .031656904 .5932617 .026692709 .5932617 .020507813 .5932617 .0146484379 .5911458 .009765625 .58691409 .005859375 .5826823 .001953125 .5756836 0 .56591799 0H.49023438V.32492066C.49023438 .34583537 .48388673 .36315409 .4711914 .37687684 .4584961 .39059959 .44384767 .39746095 .4272461 .39746095 .41227214 .39746095 .39648438 .39182536 .3798828 .3805542 .36328126 .36928306 .34440104 .3471476 .3232422 .31414796V.041015626H.35742188C.3671875 .041015626 .3741862 .03914388 .37841798 .03540039 .38264976 .031656904 .38476563 .026692709 .38476563 .020507813 .38476563 .0146484379 .38264976 .009765625 .37841798 .005859375 .3741862 .001953125 .3671875 0 .35742188 0H.28173829V.32199098C.28173829 .34388224 .27530924 .36193339 .26245118 .3761444 .2495931 .39035545 .2351888 .39746095 .21923828 .39746095 .20458985 .39746095 .19010417 .39272563 .17578125 .383255 .15592449 .3698578 .13509114 .3468221 .11328125 .31414796V.041015626H.14794922C.15771485 .041015626 .16471355 .03914388 .16894531 .03540039 .17317708 .031656904 .17529297 .026692709 .17529297 .020507813 .17529297 .0146484379 .17317708 .009765625 .16894531 .005859375 .16471355 .001953125 .15771485 0 .14794922 0H.037597658C.027832032 0 .020833334 .001953125 .016601563 .005859375 .012369792 .009765625 .010253906 .0146484379 .010253906 .020507813 .010253906 .026692709 .012369792 .031656904 .016601563 .03540039 .020833334 .03914388 .027832032 .041015626 .037597658 .041015626H.072265628V.3828125H.037597658C.027832032 .3828125 .020833334 .38476563 .016601563 .38867188 .012369792 .39257813 .010253906 .3976237 .010253906 .4038086 .010253906 .40952555 .012369792 .41429139 .016601563 .41810609 .020833334 .42192079 .027832032 .42382813 .037597658 .42382813H.11328125Z"/>
<path id="font_3_3" d="M.41796876 0V.059570314C.35839845 .0094401049 .29475913-.015625 .22705078-.015625 .17789714-.015625 .13948567-.0031738282 .111816409 .021728516 .08414713 .04663086 .0703125 .07714844 .0703125 .11328125 .0703125 .1529948 .088541667 .18766277 .125 .21728516 .16145833 .24690755 .21468099 .26171876 .28466798 .26171876 .3035482 .26171876 .324056 .26049806 .3461914 .25805665 .3683268 .25561524 .3922526 .25179038 .41796876 .24658203V.31341554C.41796876 .33602906 .4075521 .35568748 .38671876 .37239076 .3658854 .38910423 .3346354 .39746095 .29296876 .39746095 .26106773 .39746095 .2163086 .38804627 .1586914 .36921693 .14827474 .36591087 .14160156 .3642578 .13867188 .3642578 .13346355 .3642578 .12898763 .36621095 .12524414 .3701172 .12150065 .37402345 .119628909 .37890626 .119628909 .38476563 .119628909 .39029948 .12125651 .394694 .12451172 .39794923 .12906902 .40283204 .14746094 .40950523 .1796875 .41796876 .23046875 .43164063 .26888023 .43847657 .29492188 .43847657 .3466797 .43847657 .38704429 .42566935 .41601563 .40005494 .44498698 .37444053 .45947267 .34547935 .45947267 .3131714V.041015626H.51416018C.5242513 .041015626 .5314128 .03914388 .53564456 .03540039 .5398763 .031656904 .5419922 .026692709 .5419922 .020507813 .5419922 .0146484379 .5398763 .009765625 .53564456 .005859375 .5314128 .001953125 .5242513 0 .51416018 0H.41796876M.41796876 .20458985C.39876304 .2101237 .37841798 .2141927 .3569336 .21679688 .33544923 .21940105 .31282554 .22070313 .2890625 .22070313 .22949219 .22070313 .1829427 .20784505 .14941406 .1821289 .12402344 .16292317 .111328128 .13997396 .111328128 .11328125 .111328128 .088541667 .12101237 .067708339 .14038086 .05078125 .15974935 .033854169 .18798828 .025390625 .22509766 .025390625 .26057945 .025390625 .29353843 .032470704 .3239746 .04663086 .3544108 .060791017 .3857422 .083333339 .41796876 .11425781V.20458985Z"/>
<path id="font_3_9" d="M.32080079 .61328127V.041015626H.4819336C.49202476 .041015626 .4991862 .03914388 .50341799 .03540039 .5076497 .031656904 .5097656 .026692709 .5097656 .020507813 .5097656 .0146484379 .5076497 .009765625 .50341799 .005859375 .4991862 .001953125 .49202476 0 .4819336 0H.118652347C.10888672 0 .10188802 .001953125 .09765625 .005859375 .09342448 .009765625 .091308597 .0146484379 .091308597 .020507813 .091308597 .026692709 .09342448 .031656904 .09765625 .03540039 .10188802 .03914388 .10888672 .041015626 .118652347 .041015626H.27978517V.5722656H.1616211C.15185547 .5722656 .14477539 .5741933 .14038086 .5780487 .13598633 .58191427 .13378906 .58690389 .13378906 .5930176 .13378906 .5988057 .13590496 .6036275 .14013672 .6074829 .14436849 .61134847 .15152996 .61328127 .1616211 .61328127H.32080079Z"/>
<path id="font_3_12" d="M.5292969 .21118164C.5292969 .14861043 .5069173 .09516398 .4621582 .050842287 .41739909 .0065307619 .363444-.015625 .30029298-.015625 .23649089-.015625 .18229167 .006612142 .13769531 .051086427 .09309896 .095570888 .07080078 .14893596 .07080078 .21118164 .07080078 .27375285 .09309896 .3272756 .13769531 .37174989 .18229167 .41623435 .23649089 .43847657 .30029298 .43847657 .363444 .43847657 .41739909 .4163157 .4621582 .37199403 .5069173 .3276825 .5292969 .27407838 .5292969 .21118164M.48779298 .21142578C.48779298 .26299034 .46948243 .30688478 .43286134 .34310914 .39624024 .37934367 .35188804 .39746095 .2998047 .39746095 .24772136 .39746095 .20336914 .3792623 .16674805 .342865 .13012696 .30647788 .111816409 .2626648 .111816409 .21142578 .111816409 .16051229 .13012696 .11677551 .16674805 .080215457 .20336914 .04366557 .24772136 .025390625 .2998047 .025390625 .35188804 .025390625 .39624024 .043584188 .43286134 .07997131 .46948243 .116368617 .48779298 .16018677 .48779298 .21142578Z"/>
<path id="font_3_4" d="M.4711914 .38275147V.396286C.4711914 .40627543 .47314454 .4133606 .47705079 .4175415 .48095704 .42173258 .48583985 .42382813 .49169923 .42382813 .49788413 .42382813 .5029297 .42171226 .50683596 .41748048 .5107422 .4132487 .5126953 .40608726 .5126953 .3959961V.30322267C.5123698 .2931315 .51033529 .28597007 .5065918 .28173829 .5028483 .2775065 .49788413 .27539063 .49169923 .27539063 .48616538 .27539063 .4815267 .27726747 .4777832 .28102113 .4740397 .28478495 .47184245 .29108177 .4711914 .2999115 .46923829 .32311503 .45402018 .34517417 .4255371 .36608888 .39705406 .38700358 .35872398 .39746095 .31054688 .39746095 .24967449 .39746095 .20345052 .3783671 .171875 .34017945 .14029949 .3019918 .12451172 .2582601 .12451172 .20898438 .12451172 .15578206 .14192708 .11188253 .17675781 .07728577 .21158855 .042689008 .2566732 .025390625 .31201173 .025390625 .34391276 .025390625 .37638346 .03131612 .40942384 .043167116 .4424642 .05502828 .47233073 .074132289 .49902345 .100479129 .5058594 .10706075 .51188156 .11035156 .51708987 .11035156 .5226237 .11035156 .5272624 .10846456 .53100588 .10469055 .5347493 .10091654 .5366211 .09624227 .5366211 .090667728 .5366211 .07655843 .5201823 .058680219 .4873047 .03703308 .43424479 .0019276937 .37516276-.015625 .3100586-.015625 .24397786-.015625 .18969727 .005472819 .1472168 .047668458 .10473633 .08987427 .083496097 .1434021 .083496097 .20825196 .083496097 .2744039 .10522461 .3293101 .14868164 .37297059 .19213867 .41664125 .24690755 .43847657 .31298829 .43847657 .3758138 .43847657 .4285482 .41990153 .4711914 .38275147Z"/>
<path id="font_1_3" d="M.03466797-.20410156C.08642578-.103139247 .119791667-.029530844 .13476563 .016723633 .15755208 .08674113 .16894531 .16881307 .16894531 .26293946 .16894531 .35706584 .15576172 .44321189 .12939453 .52137759 .11311849 .569575 .08105469 .63894656 .033203126 .7294922H.092285159C.14241536 .64937338 .17277019 .59995016 .18334961 .58122256 .19392903 .56249496 .20540364 .5366821 .21777344 .5037842 .23339844 .46307374 .24454753 .42285157 .2512207 .38311769 .2578939 .3433838 .26123048 .30511476 .26123048 .26831056 .26123048 .17190552 .24593099 .08592224 .21533203 .010360718 .1961263-.03816223 .15625-.10964966 .095703128-.20410156H.03466797Z"/>
<path id="font_1_11" d="M.18164063 .71777346V.27441407C.18164063 .22233074 .19140625 .17903646 .2109375 .14453125 .23990886 .092447917 .28873698 .06640625 .35742188 .06640625 .43977867 .06640625 .49576823 .094563808 .5253906 .1508789 .5413411 .18147786 .5493164 .22265625 .5493164 .27441407V.71777346H.6479492V.3149414C.6479492 .22672527 .6360677 .15885417 .6123047 .111328128 .5686849 .024739584 .48632813-.018554688 .36523438-.018554688 .24414063-.018554688 .16194661 .024739584 .118652347 .111328128 .09488932 .15885417 .08300781 .22672527 .08300781 .3149414V.71777346H.18164063M.36572267 .71777346V.71777346Z"/>
<path id="font_1_21" d="M.0625 .71777346H.14697266V.30101014L.3725586 .5234375H.48486329L.28466798 .32881166 .49609376 0H.38378907L.22070313 .26635743 .14697266 .19647217V0H.0625V.71777346Z"/>
<path id="font_3_2" d="M.48828126 .3572235V.25556947C.48828126 .16729228 .46728517 .0974172 .42529298 .045944215 .39241538 .005549113 .35091148-.0146484379 .30078126-.0146484379 .27669273-.0146484379 .25398765-.009841919 .23266602-.00022888184 .2113444 .009373982 .19319661 .02281189 .17822266 .04008484 .16878255 .0508372 .15844727 .068099979 .1472168 .09187317 .13598633 .11565653 .12792969 .13748677 .123046878 .15736389 .1155599 .18537903 .111816409 .21811421 .111816409 .25556947V.3572235C.111816409 .4458262 .1328125 .5158641 .17480469 .56733706 .2076823 .6077321 .2491862 .6279297 .2993164 .6279297 .32373048 .6279297 .34651695 .62312319 .36767579 .61351016 .38883464 .6039073 .40690104 .59046939 .421875 .5731964 .43164063 .56211856 .44205729 .5446879 .453125 .52090457 .46419273 .49713136 .47233073 .47546897 .47753907 .45591737 .48470054 .42790223 .48828126 .39500428 .48828126 .3572235M.44726563 .3517151C.44726563 .39048258 .44181315 .42655946 .4309082 .45994569 .42000328 .49334208 .40771485 .519989 .39404298 .5398865 .38590495 .55130007 .37532554 .5611623 .3623047 .56947329 .34375 .58110049 .32291667 .58691409 .2998047 .58691409 .25390626 .58653768 .2179362 .5628662 .19189453 .51589968 .16585286 .46894328 .15283203 .41419984 .15283203 .3516693V.26130677C.15283203 .22254944 .1582845 .18639629 .16918946 .15284729 .1800944 .11930847 .19254558 .09261068 .20654297 .072753909 .21435547 .0616862 .22477214 .052083333 .23779297 .043945314 .25634767 .032226564 .27734376 .026367188 .30078126 .026367188 .34635417 .026367188 .38216148 .049886068 .40820313 .09692383 .43424479 .1439616 .44726563 .1987559 .44726563 .26130677V.3517151Z"/>
<path id="font_3_1" d="M0 0Z"/>
<path id="font_1_5" d="M.22753906 .71777346H.3017578L.07421875 0H0L.22753906 .71777346Z"/>
<path id="font_1_32" d="M.10498047 .5234375 .2055664 .110946658 .3076172 .5234375H.40625L.50878909 .11338806 .61572268 .5234375H.7036133L.5517578 0H.46044923L.3540039 .40516664 .25097657 0H.15966797L.0087890629 .5234375H.10498047Z"/>
<clipPath id="clip_4">
<path transform="matrix(1,0,0,-1,-83.2379,572.363)" d="M36 36H756V576H36Z"/>
</clipPath>
<path id="font_1_7" d="M.076171878 .71777346H.17333985V.0859375H.5366211V0H.076171878V.71777346Z"/>
<path id="font_3_7" d="M.16503906 .61328127V.36123658C.19108074 .3895874 .21606446 .4095459 .23999024 .42111207 .26391603 .4326884 .2906901 .43847657 .3203125 .43847657 .35221354 .43847657 .37931315 .43284608 .40161134 .42158509 .42390953 .41033427 .44254557 .39304099 .45751954 .3697052 .4724935 .34636943 .47998048 .32181297 .47998048 .29603578V.041015626H.5258789C.53597006 .041015626 .5430501 .03914388 .54711917 .03540039 .5511882 .031656904 .55322268 .026692709 .55322268 .020507813 .55322268 .0146484379 .5511882 .009765625 .54711917 .005859375 .5430501 .001953125 .53597006 0 .5258789 0H.39257813C.38248698 0 .37532554 .001953125 .37109376 .005859375 .36686198 .009765625 .3647461 .0146484379 .3647461 .020507813 .3647461 .026692709 .36686198 .031656904 .37109376 .03540039 .37532554 .03914388 .38248698 .041015626 .39257813 .041015626H.43847657V.2931671C.43847657 .32287089 .42781578 .3476766 .40649415 .36758424 .38517253 .38750205 .35546876 .39746095 .3173828 .39746095 .2874349 .39746095 .2618815 .39012147 .24072266 .3754425 .22542317 .36499534 .20019531 .34035746 .16503906 .30152894V.041015626H.21142578C.2211914 .041015626 .22819011 .03914388 .23242188 .03540039 .23665364 .031656904 .23876953 .026692709 .23876953 .020507813 .23876953 .0146484379 .23665364 .009765625 .23242188 .005859375 .22819011 .001953125 .2211914 0 .21142578 0H.07763672C.067871097 0 .060872396 .001953125 .056640626 .005859375 .052408857 .009765625 .05029297 .0146484379 .05029297 .020507813 .05029297 .026692709 .052408857 .031656904 .056640626 .03540039 .060872396 .03914388 .067871097 .041015626 .07763672 .041015626H.12402344V.5722656H.068847659C.05908203 .5722656 .052083333 .574173 .047851564 .5779877 .043619794 .58180239 .041503908 .58673098 .041503908 .59277346 .041503908 .5986328 .043619794 .6035156 .047851564 .6074219 .052083333 .6113281 .05908203 .61328127 .068847659 .61328127H.16503906Z"/>
<path id="font_3_5" d="M.52197268 .20214844H.104003909C.11116537 .14908855 .13338216 .10636393 .1706543 .07397461 .20792644 .041585287 .254069 .025390625 .30908204 .025390625 .339681 .025390625 .37174479 .030436198 .40527345 .040527345 .4388021 .05061849 .46614585 .063964847 .4873047 .080566409 .4934896 .08544922 .4988607 .087890628 .50341799 .087890628 .5086263 .087890628 .5131836 .08585612 .51708987 .08178711 .5209961 .0777181 .5229492 .072916667 .5229492 .06738281 .5229492 .061848958 .52034506 .056477865 .5151367 .05126953 .49951173 .03499349 .47176109 .01977539 .43188478 .0056152346 .39200846-.008544922 .35107423-.015625 .30908204-.015625 .23876953-.015625 .1800944 .0074310305 .13305664 .05354309 .08601888 .09965515 .0625 .15546163 .0625 .22096253 .0625 .28059388 .08455404 .3317515 .12866211 .37443543 .17277019 .41712953 .2273763 .43847657 .29248048 .43847657 .35953776 .43847657 .41471354 .41653953 .4580078 .3726654 .50130209 .3287913 .5226237 .2719523 .52197268 .20214844M.48046876 .24316406C.47233073 .28884889 .45092774 .32598368 .41625978 .35456849 .3815918 .38316346 .34033204 .39746095 .29248048 .39746095 .2446289 .39746095 .20345052 .3833262 .16894531 .35505677 .13444011 .3267975 .11295573 .2894999 .10449219 .24316406H.48046876Z"/>
<path id="font_5_1" d="M0 0Z"/>
<path id="font_5_16" d="M.28222657 .53515627C.31933595 .53515627 .355306 .52644857 .39013673 .5090332 .42496745 .49161784 .4514974 .4690806 .46972657 .4414215 .4873047 .41505433 .49902345 .3842977 .5048828 .3491516 .5100911 .32506309 .5126953 .28647868 .5126953 .23339844H.12939453C.13102214 .18033855 .14355469 .13777669 .16699219 .10571289 .19042969 .073649089 .22672527 .057617189 .2758789 .057617189 .32177735 .057617189 .35839845 .07261658 .3857422 .10261536 .4013672 .12003072 .4124349 .14018758 .4189453 .16308594H.5053711C.50309249 .14398194 .49552409 .122690837 .48266603 .09921265 .46980796 .07574463 .45540367 .05656433 .43945313 .041671754 .4127604 .01576233 .37972007-.0017242432 .34033204-.010787964 .3191732-.01596578 .2952474-.018554688 .2685547-.018554688 .20345052-.018554688 .14827474 .0051472985 .103027347 .05255127 .05777995 .09995524 .03515625 .16634114 .03515625 .25170899 .03515625 .33576457 .057942708 .40401713 .103515628 .45646668 .14908855 .5089264 .20865886 .53515627 .28222657 .53515627M.42236329 .30371095C.41878257 .34191896 .41048179 .37245179 .39746095 .39530946 .3733724 .4377594 .33317057 .45898438 .27685548 .45898438 .23649089 .45898438 .20263672 .44437156 .17529297 .41514588 .14794922 .3859202 .13346355 .34877525 .13183594 .30371095H.42236329M.27392579 .5361328V.5361328Z"/>
<path id="font_5_33" d="M.0146484379 .5234375H.12841797L.24853516 .33918763 .3701172 .5234375 .47705079 .5209961 .30078126 .26831056 .48486329 0H.3725586L.24267578 .19647217 .11669922 0H.0053710939L.18945313 .26831056 .0146484379 .5234375Z"/>
<path id="font_5_14" d="M.26611329 .53808596C.32503257 .53808596 .37296549 .5237274 .4099121 .49501039 .44685874 .46629334 .46907554 .41684977 .4765625 .3466797H.39111329C.38590495 .37890626 .37402345 .40568034 .35546876 .42700196 .33691407 .44832359 .3071289 .45898438 .26611329 .45898438 .2101237 .45898438 .17008464 .43170677 .1459961 .3771515 .1303711 .34176127 .122558597 .29808555 .122558597 .24612427 .122558597 .19384766 .1336263 .14984639 .15576172 .11412048 .17789714 .07840475 .21272786 .060546876 .2602539 .060546876 .29671226 .060546876 .3256022 .0716095 .34692384 .09373474 .36824546 .115859989 .38297526 .1461385 .39111329 .18457031H.4765625C.46679688 .115234378 .4423828 .06453451 .4033203 .032470704 .3642578 .00040690104 .31429038-.015625 .25341798-.015625 .1850586-.015625 .13053386 .009379069 .08984375 .059387208 .049153646 .10940552 .028808594 .17188008 .028808594 .24681092 .028808594 .33868919 .05110677 .41020204 .095703128 .4613495 .14029949 .51250717 .19710286 .53808596 .26611329 .53808596M.2524414 .5361328V.5361328Z"/>
<path id="font_5_30" d="M.15234375 .5234375V.17590332C.15234375 .1491801 .15657552 .12734477 .16503906 .11039734 .18066406 .07911682 .20979817 .06347656 .2524414 .06347656 .3136393 .06347656 .355306 .09085083 .3774414 .14559937 .3894857 .17492676 .3955078 .21516927 .3955078 .2663269V.5234375H.48339845V0H.40039063L.4013672 .0771637C.38997398 .057195028 .3758138 .040339155 .35888673 .02659607 .32535807-.00090026858 .28466798-.0146484379 .2368164-.0146484379 .16227214-.0146484379 .11149088 .010299683 .084472659 .060195924 .06982422 .08693949 .0625 .12265015 .0625 .16732788V.5234375H.15234375M.27294923 .5361328V.5361328Z"/>
<path id="font_5_29" d="M.08203125 .66796877H.17089844V.5234375H.25439454V.4501953H.17089844V.110183719C.17089844 .09202576 .17708333 .07986959 .18945313 .07371521 .19628906 .07014465 .2076823 .068359378 .22363281 .068359378 .22786458 .068359378 .23242188 .06846619 .23730469 .06867981 .2421875 .0689036 .24788411 .06944784 .25439454 .0703125V0C.24430339-.0031026204 .23380535-.005340576 .22290039-.006713867 .21199544-.008097331 .20019531-.0087890629 .1875-.0087890629 .14648438-.0087890629 .118652347 .0016988119 .104003909 .02267456 .08935547 .04365031 .08203125 .070882167 .08203125 .10437012V.4501953H.011230469V.5234375H.08203125V.66796877Z"/>
<path id="font_5_12" d="M.13183594 .1394043C.13183594 .114095058 .14111328 .09413656 .15966797 .07952881 .17822266 .06492106 .20019531 .057617189 .22558594 .057617189 .2565104 .057617189 .28645835 .06471761 .3154297 .07891846 .3642578 .10247803 .38867188 .14127605 .38867188 .1953125V.26611329C.3779297 .25886027 .36409507 .2528127 .34716798 .24797058 .33024089 .24313863 .3136393 .23983257 .29736329 .23805237L.24414063 .23184204C.21223958 .22799683 .1883138 .22153218 .17236328 .21244812 .14534505 .19718933 .13183594 .17284139 .13183594 .1394043M.34472657 .31689454C.36490885 .3194987 .37841798 .32796226 .3852539 .34228517 .38916017 .35012818 .39111329 .36140443 .39111329 .3761139 .39111329 .40618388 .38045249 .42799888 .35913087 .44155885 .33780924 .455129 .30729167 .46191407 .26757813 .46191407 .22167969 .46191407 .18912761 .44948326 .16992188 .42462159 .15917969 .4108785 .15218099 .39043174 .14892578 .36328126H.06689453C.06852213 .42791749 .08943685 .47288514 .12963867 .4981842 .1698405 .5234833 .21647136 .5361328 .26953126 .5361328 .3310547 .5361328 .38102214 .52441409 .4194336 .50097659 .45751954 .47753907 .4765625 .4410502 .4765625 .39151V.08985901C.4765625 .08073425 .47843424 .073404949 .48217774 .067871097 .48592124 .06233724 .4938151 .059570314 .5058594 .059570314 .5097656 .059570314 .51416018 .059814454 .51904299 .060302736 .5239258 .060791017 .5291341 .061523439 .53466799 .0625V-.0028076173C.5209961-.00676473 .5105794-.009236653 .50341799-.010223389 .4962565-.011220296 .48649089-.01171875 .4741211-.01171875 .44384767-.01171875 .421875-.0009104411 .40820313 .020706177 .40104167 .032170614 .3959961 .048380536 .3930664 .06933594 .37516276 .045633954 .34944663 .025060019 .31591798 .0076141359 .2823893-.009831746 .2454427-.018554688 .20507813-.018554688 .15657552-.018554688 .11694336-.0037790936 .08618164 .025772095 .055419923 .055323285 .040039064 .092300418 .040039064 .13670349 .040039064 .18535869 .05517578 .22307332 .08544922 .24984741 .115722659 .2766215 .1554362 .29311119 .20458985 .2993164L.34472657 .31689454M.27197267 .5361328V.5361328Z"/>
<path id="font_5_13" d="M.057617189 .71875H.1430664V.45948792C.16227214 .4847056 .18522136 .50394698 .21191406 .5172119 .23860677 .53047689 .26757813 .5371094 .29882813 .5371094 .36393229 .5371094 .41674806 .5147095 .4572754 .46990968 .49780274 .42510987 .5180664 .35905458 .5180664 .27174378 .5180664 .1889801 .49804688 .12022909 .4580078 .06549072 .41796876 .010762532 .36246745-.016601563 .2915039-.016601563 .25179038-.016601563 .21826172-.006942749 .19091797 .012374878 .17464192 .023839316 .15722656 .042175294 .13867188 .06738281V0H.057617189V.71875M.2861328 .061523439C.33365885 .061523439 .36922203 .08037821 .39282228 .11808777 .41642253 .1558075 .42822267 .20555115 .42822267 .26731874 .42822267 .32227073 .41642253 .3677877 .39282228 .40386964 .36922203 .43996177 .33447267 .4580078 .28857423 .4580078 .24853516 .4580078 .21346028 .44321189 .18334961 .41362 .15323894 .3840383 .1381836 .3352712 .1381836 .26731874 .1381836 .21822612 .14436849 .17840068 .15673828 .1478424 .17985027 .090296428 .22298177 .061523439 .2861328 .061523439Z"/>
<path id="font_5_22" d="M.06689453 .71777346H.15478516V0H.06689453V.71777346Z"/>
<path id="font_5_35" d="M.08642578 .6021576C.08772787 .638443 .09407552 .66500857 .10546875 .68185427 .12597656 .7116597 .16552735 .7265625 .2241211 .7265625 .22965496 .7265625 .23535156 .7263997 .24121094 .7260742 .24707031 .7257487 .2537435 .72526046 .26123048 .7246094V.64453127C.25211589 .6449687 .2455241 .6452382 .24145508 .64533999 .23738607 .64545187 .2335612 .6455078 .22998047 .6455078 .20328777 .6455078 .18733724 .6386719 .1821289 .625 .17692058 .6113281 .1743164 .5764974 .1743164 .5205078H.26123048V.45117188H.17333985V0H.08642578V.45117188H.013671875V.5205078H.08642578V.6021576M.34570313 .61816409V.71777346H.43359376V.61816409H.34570313M.34570313 .5205078H.43359376V0H.34570313V.5205078Z"/>
<path id="font_3_13" d="M.14550781 .42382813V.349411C.16992188 .37894187 .1961263 .40116883 .2241211 .41609193 .25211589 .431015 .28515626 .43847657 .3232422 .43847657 .36360679 .43847657 .4008789 .42902629 .4350586 .41012574 .46923829 .3912252 .49568687 .36490885 .5144043 .33117677 .53312179 .29744468 .54248049 .26200358 .54248049 .22485352 .54248049 .16586304 .521403 .11542765 .47924806 .07354736 .4370931 .031677247 .3852539 .0107421879 .32373048 .0107421879 .25048829 .0107421879 .19108074 .040430707 .14550781 .09980774V-.14746094H.24511719C.2548828-.14746094 .2618815-.14933269 .26611329-.15307617 .27034507-.15681966 .27246095-.16178386 .27246095-.16796875 .27246095-.17382813 .27034507-.17871094 .26611329-.18261719 .2618815-.18652344 .2548828-.18847656 .24511719-.18847656H.049316408C.03955078-.18847656 .032552083-.18660482 .028320313-.18286133 .024088541-.17911785 .021972657-.17415364 .021972657-.16796875 .021972657-.16178386 .024088541-.15681966 .028320313-.15307617 .032552083-.14933269 .03955078-.14746094 .049316408-.14746094H.10449219V.3828125H.049316408C.03955078 .3828125 .032552083 .38476563 .028320313 .38867188 .024088541 .39257813 .021972657 .3976237 .021972657 .4038086 .021972657 .40952555 .024088541 .41429139 .028320313 .41810609 .032552083 .42192079 .03955078 .42382813 .049316408 .42382813H.14550781M.50097659 .22485352C.50097659 .27225749 .48380534 .31287638 .4494629 .3467102 .41512046 .38054405 .37320964 .39746095 .32373048 .39746095 .27392579 .39746095 .23177083 .38046266 .19726563 .34646607 .16276042 .31246949 .14550781 .27193199 .14550781 .22485352 .14550781 .17744954 .16276042 .13674927 .19726563 .102752689 .23177083 .0687561 .27392579 .051757814 .32373048 .051757814 .37288413 .051757814 .41471354 .06867472 .44921876 .102508548 .48372398 .13634236 .50097659 .17712403 .50097659 .22485352Z"/>
<path id="font_3_14" d="M.25097657 .42382813V.3200531C.30436198 .36812846 .34431968 .3990682 .3708496 .4128723 .39737956 .4266866 .421875 .43359376 .44433595 .43359376 .46875 .43359376 .49145509 .4253184 .5124512 .4087677 .53344729 .392217 .5439453 .37967936 .5439453 .3711548 .5439453 .3649292 .5419108 .3597819 .5378418 .3557129 .53377279 .3516439 .5286458 .34960938 .52246096 .34960938 .51920577 .34960938 .5164388 .35017906 .51416018 .35131837 .51188156 .35245768 .5076497 .3561605 .50146487 .36242677 .49007163 .3739624 .48014323 .38187156 .4716797 .38615418 .46321617 .3904368 .45491538 .39257813 .44677735 .39257813 .4288737 .39257813 .40730796 .38542176 .38208009 .371109 .3568522 .35679627 .31315104 .32182823 .25097657 .26620484V.041015626H.4326172C.44270835 .041015626 .44986979 .03914388 .45410157 .03540039 .45833335 .031656904 .46044923 .026692709 .46044923 .020507813 .46044923 .0146484379 .45833335 .009765625 .45410157 .005859375 .44986979 .001953125 .44270835 0 .4326172 0H.110839847C.10107422 0 .09407552 .0019175211 .08984375 .0057525637 .08561198 .0095876059 .083496097 .014506022 .083496097 .020507813 .083496097 .026041666 .0855306 .030680338 .08959961 .034423829 .09366862 .038167318 .100748699 .040039064 .110839847 .040039064H.20996094V.3828125H.13427735C.12451172 .3828125 .11751302 .38476563 .11328125 .38867188 .10904948 .39257813 .106933597 .3976237 .106933597 .4038086 .106933597 .40952555 .1089681 .41429139 .11303711 .41810609 .11710612 .42192079 .124186199 .42382813 .13427735 .42382813H.25097657Z"/>
<path id="font_3_8" d="M.3203125 .63378909V.5283203H.25976563V.63378909H.3203125M.32177735 .42382813V.041015626H.48291017C.4930013 .041015626 .5001628 .03914388 .50439456 .03540039 .5086263 .031656904 .5107422 .026692709 .5107422 .020507813 .5107422 .0146484379 .5086263 .009765625 .50439456 .005859375 .5001628 .001953125 .4930013 0 .48291017 0H.119628909C.10986328 0 .102864589 .001953125 .09863281 .005859375 .09440104 .009765625 .092285159 .0146484379 .092285159 .020507813 .092285159 .026692709 .09440104 .031656904 .09863281 .03540039 .102864589 .03914388 .10986328 .041015626 .119628909 .041015626H.28076173V.3828125H.16113281C.15136719 .3828125 .14428711 .3847402 .13989258 .38859559 .13549805 .39246116 .13330078 .397288 .13330078 .40307618 .13330078 .40918986 .13541667 .4141744 .13964844 .4180298 .1438802 .42189536 .15104167 .42382813 .16113281 .42382813H.32177735Z"/>
<path id="font_3_11" d="M.16748047 .42382813V.3623047C.1961263 .39109294 .2220052 .41098533 .24511719 .4219818 .26822917 .4329783 .29427085 .43847657 .3232422 .43847657 .3544922 .43847657 .38297526 .43178813 .4086914 .41841126 .42692057 .4086151 .44344078 .39237467 .45825196 .36968995 .47306315 .34701539 .48046876 .32377116 .48046876 .29995729V.041015626H.5151367C.52490237 .041015626 .53190109 .03914388 .5361328 .03540039 .54036459 .031656904 .54248049 .026692709 .54248049 .020507813 .54248049 .0146484379 .54036459 .009765625 .5361328 .005859375 .53190109 .001953125 .52490237 0 .5151367 0H.40527345C.39518229 0 .38802085 .001953125 .38378907 .005859375 .37955729 .009765625 .3774414 .0146484379 .3774414 .020507813 .3774414 .026692709 .37955729 .031656904 .38378907 .03540039 .38802085 .03914388 .39518229 .041015626 .40527345 .041015626H.43945313V.29351808C.43945313 .32261149 .4288737 .34720866 .40771485 .36730958 .386556 .3874105 .3582357 .39746095 .3227539 .39746095 .2957357 .39746095 .2722982 .39200846 .2524414 .38110353 .23258464 .37019859 .20426433 .34309898 .16748047 .2998047V.041015626H.21386719C.22363281 .041015626 .23063152 .03914388 .23486328 .03540039 .23909505 .031656904 .24121094 .026692709 .24121094 .020507813 .24121094 .0146484379 .23909505 .009765625 .23486328 .005859375 .23063152 .001953125 .22363281 0 .21386719 0H.080078128C.0703125 0 .063313808 .001953125 .05908203 .005859375 .05485026 .009765625 .052734376 .0146484379 .052734376 .020507813 .052734376 .026692709 .05485026 .031656904 .05908203 .03540039 .063313808 .03914388 .0703125 .041015626 .080078128 .041015626H.12646485V.3828125H.091796878C.08203125 .3828125 .075032558 .38476563 .07080078 .38867188 .06656901 .39257813 .064453128 .3976237 .064453128 .4038086 .064453128 .40952555 .06656901 .41429139 .07080078 .41810609 .075032558 .42192079 .08203125 .42382813 .091796878 .42382813H.16748047Z"/>
<path id="font_3_15" d="M.21582031 .42382813H.43847657C.4482422 .42382813 .45524089 .42192079 .45947267 .41810609 .46370445 .41429139 .4658203 .4093628 .4658203 .4033203 .4658203 .39746095 .46370445 .39257813 .45947267 .38867188 .45524089 .38476563 .4482422 .3828125 .43847657 .3828125H.21582031V.1091156C.21582031 .08529154 .2253418 .06537882 .24438477 .04937744 .26342774 .03338623 .29134117 .025390625 .328125 .025390625 .35579429 .025390625 .3857422 .029541016 .41796876 .037841798 .4501953 .046142579 .4752604 .0555013 .49316407 .06591797 .49967448 .07014974 .5050456 .072265628 .50927737 .072265628 .51448568 .072265628 .51904299 .07023112 .5229492 .06616211 .52685549 .062093099 .5288086 .057291669 .5288086 .051757814 .5288086 .046875 .5266927 .042317708 .52246096 .038085939 .51204428 .02734375 .48673503 .01570638 .4465332 .0031738282 .4063314-.009358724 .36783854-.015625 .3310547-.015625 .28320313-.015625 .24511719-.0043691 .21679688 .0181427 .18847656 .040664674 .1743164 .071014408 .1743164 .109191898V.3828125H.09863281C.08886719 .3828125 .08186849 .3847402 .07763672 .38859559 .073404949 .39246116 .07128906 .39745078 .07128906 .40356446 .07128906 .40935264 .073404949 .4141744 .07763672 .4180298 .08186849 .42189536 .08886719 .42382813 .09863281 .42382813H.1743164V.54571536C.1743164 .5555522 .17626953 .5625966 .18017578 .56684878 .18408203 .571111 .18896485 .5732422 .19482422 .5732422 .20100911 .5732422 .20605469 .571111 .20996094 .56684878 .21386719 .5625966 .21582031 .5555522 .21582031 .54571536V.42382813Z"/>
<path id="font_3_6" d="M.27294923 .3828125V.041015626H.453125C.46289063 .041015626 .4698893 .03914388 .4741211 .03540039 .47835288 .031656904 .48046876 .026692709 .48046876 .020507813 .48046876 .0146484379 .47835288 .009765625 .4741211 .005859375 .4698893 .001953125 .46289063 0 .453125 0H.13232422C.122558597 0 .1155599 .001953125 .111328128 .005859375 .10709635 .009765625 .10498047 .0146484379 .10498047 .020507813 .10498047 .026692709 .10709635 .031656904 .111328128 .03540039 .1155599 .03914388 .122558597 .041015626 .13232422 .041015626H.23144531V.3828125H.14257813C.1328125 .3828125 .1258138 .3847402 .12158203 .38859559 .11735026 .39246116 .115234378 .39745078 .115234378 .40356446 .115234378 .40935264 .11735026 .4141744 .12158203 .4180298 .1258138 .42189536 .1328125 .42382813 .14257813 .42382813H.23144531V.48568727C.23144531 .5201009 .2454427 .54996749 .2734375 .57528689 .30143229 .60061648 .33854167 .61328127 .38476563 .61328127 .4235026 .61328127 .46484376 .609731 .50878909 .6026306 .5253906 .60005697 .5354004 .59699508 .53881838 .5934448 .5422363 .5898946 .5439453 .5852153 .5439453 .57940676 .5439453 .5735982 .5419922 .56883749 .53808596 .5651245 .5341797 .5614217 .5289714 .5595703 .52246096 .5595703 .51985678 .5595703 .5154622 .5600586 .50927737 .56103518 .4601237 .56852218 .41861979 .5722656 .38476563 .5722656 .34895835 .5722656 .32137046 .56347659 .30200196 .54589846 .28263346 .5283203 .27294923 .5083008 .27294923 .48583985V.42382813H.46484376C.47460938 .42382813 .48160807 .42189536 .48583985 .4180298 .49007163 .4141744 .4921875 .40918986 .4921875 .40307618 .4921875 .397288 .49007163 .39246116 .48583985 .38859559 .48160807 .3847402 .47460938 .3828125 .46484376 .3828125H.27294923Z"/>
<path id="font_6_3" d="M.08691406 0V.4501953H.009277344V.5185547H.08691406V.5736084C.08691406 .6083577 .09000651 .6341756 .096191409 .651062 .104654949 .6737874 .11954752 .69221499 .14086914 .7063446 .16219075 .72047427 .1920573 .72753909 .23046875 .72753909 .25520835 .72753909 .2825521 .7245941 .3125 .7187042L.2993164 .6416321C.28108726 .64486697 .26383464 .6464844 .2475586 .6464844 .22086589 .6464844 .20198567 .64082846 .19091797 .6295166 .17985027 .6182149 .1743164 .5970561 .1743164 .56604006V.5185547H.27539063V.4501953H.1743164V0H.08691406Z"/>
<path id="font_6_8" d="M.40576173 0V.0766449C.36539714 .0177358 .31054688-.01171875 .24121094-.01171875 .21061199-.01171875 .18204753-.005859375 .15551758 .005859375 .12898763 .017578125 .10929362 .03230794 .09643555 .050048829 .08357748 .06778971 .07454427 .08951823 .06933594 .115234378 .06575521 .13248699 .063964847 .15983074 .063964847 .19726563V.5185547H.15185547V.2312622C.15185547 .18541463 .15364583 .15452576 .15722656 .13859558 .16276042 .115503948 .17447917 .09737142 .19238281 .084198 .21028646 .07103475 .23242188 .064453128 .25878907 .064453128 .28515626 .064453128 .30989585 .07119751 .3330078 .08468628 .35611979 .09818522 .3724772 .1165568 .38208009 .13980103 .39168296 .16305542 .39648438 .1967926 .39648438 .24101258V.5185547H.484375V0H.40576173Z"/>
<path id="font_6_5" d="M.06591797 0V.5185547H.14501953V.44482423C.18310547 .50179037 .23811849 .53027346 .3100586 .53027346 .3413086 .53027346 .3700358 .5246582 .39624024 .51342776 .42244468 .50219729 .44205729 .48746745 .45507813 .46923829 .46809898 .45100913 .47721354 .42936198 .48242188 .40429688 .4856771 .38802085 .4873047 .35953776 .4873047 .31884767V0H.39941407V.3154297C.39941407 .35123698 .3959961 .37801109 .38916017 .39575196 .38232423 .41349284 .37019859 .42765299 .3527832 .43823243 .33536784 .44881187 .3149414 .45410157 .2915039 .45410157 .254069 .45410157 .22176107 .44222007 .19458008 .41845704 .1673991 .394694 .1538086 .34960938 .1538086 .28320313V0H.06591797Z"/>
<path id="font_6_2" d="M.40429688 .19042969 .49072267 .17871094C.48128257 .119140628 .45711265 .072509769 .4182129 .03881836 .37931315 .005126953 .33154298-.01171875 .27490235-.01171875 .2039388-.01171875 .14689128 .011474609 .103759769 .057861329 .060628255 .10424805 .0390625 .17073567 .0390625 .25732423 .0390625 .3133138 .048339845 .3623047 .06689453 .40429688 .08544922 .44628907 .11368815 .4777832 .15161133 .4987793 .1895345 .5197754 .23079427 .53027346 .27539063 .53027346 .33170573 .53027346 .37776695 .5161133 .41357423 .48779298 .4493815 .45948283 .47233073 .419281 .48242188 .3671875L.39697267 .35351563C.38883464 .3881836 .37443034 .41426597 .35375978 .4317627 .3330892 .44925944 .30810548 .4580078 .2788086 .4580078 .23453777 .4580078 .1985677 .44213868 .17089844 .4104004 .14322917 .3786621 .12939453 .32845054 .12939453 .25976563 .12939453 .19010417 .14274089 .13948567 .1694336 .107910159 .1961263 .07633463 .23095703 .060546876 .27392579 .060546876 .308431 .060546876 .3372396 .07116699 .36035157 .09240723 .38346354 .11364746 .39811198 .14632161 .40429688 .19042969Z"/>
<path id="font_6_7" d="M.2578125 .07861328 .2705078 .0009765625C.24576824-.004231771 .22363281-.0068359377 .20410156-.0068359377 .17220052-.0068359377 .14746094-.0017903646 .12988281 .008300781 .11230469 .018391928 .0999349 .031656904 .09277344 .048095704 .08561198 .06453451 .08203125 .099121097 .08203125 .15185547V.4501953H.017578125V.5185547H.08203125V.64697268L.1694336 .69970706V.5185547H.2578125V.4501953H.1694336V.14697266C.1694336 .121907558 .17097982 .10579427 .17407227 .09863281 .17716472 .09147135 .18221028 .08577474 .18920899 .08154297 .19620769 .077311199 .20621746 .07519531 .21923828 .07519531 .2290039 .07519531 .24186199 .07633463 .2578125 .07861328Z"/>
<path id="font_6_4" d="M.06640625 .6152344V.7158203H.15429688V.6152344H.06640625M.06640625 0V.5185547H.15429688V0H.06640625Z"/>
<path id="font_6_6" d="M.033203126 .25927735C.033203126 .355306 .059895833 .42643229 .11328125 .47265626 .15787761 .5110677 .21223958 .53027346 .2763672 .53027346 .34765626 .53027346 .40592448 .5069173 .45117188 .46020509 .49641929 .41349284 .51904299 .34895835 .51904299 .26660157 .51904299 .1998698 .5090332 .14737956 .48901368 .10913086 .46899415 .070882167 .43986003 .041178388 .40161134 .020019532 .36336265-.0011393229 .3216146-.01171875 .2763672-.01171875 .20377605-.01171875 .1451009 .011555989 .1003418 .05810547 .055582685 .104654949 .033203126 .17171224 .033203126 .25927735M.123535159 .2590332C.123535159 .19270833 .13802083 .14304607 .16699219 .11004639 .19596355 .077046718 .23242188 .060546876 .2763672 .060546876 .31998698 .060546876 .35628257 .07712809 .3852539 .11029053 .41422526 .14345296 .42871095 .19401042 .42871095 .2619629 .42871095 .32600913 .4141439 .37453208 .38500978 .40753175 .35587565 .4405314 .31966148 .45703126 .2763672 .45703126 .23242188 .45703126 .19596355 .4406128 .16699219 .40777589 .13802083 .37493897 .123535159 .32535807 .123535159 .2590332Z"/>
<path id="font_6_1" d="M0 0Z"/>
<path id="font_1_9" d="M.08544922 .71777346H.40820313C.47200523 .71777346 .5234375 .6997884 .5625 .66381838 .6015625 .6278483 .62109377 .5773112 .62109377 .51220706 .62109377 .45621745 .6036784 .4074707 .56884768 .3659668 .5340169 .3244629 .48046876 .30371095 .40820313 .30371095H.18261719V0H.08544922V.71777346M.5229492 .5114746C.5229492 .56410726 .50341799 .5998433 .46435548 .61868289 .4428711 .62875369 .41341148 .63378909 .37597657 .63378909H.18261719V.3857422H.37597657C.41959635 .3857422 .45499674 .39499919 .48217774 .41351319 .5093587 .43203736 .5229492 .46469117 .5229492 .5114746Z"/>
</defs>
<g clip-path="url(#clip_0)">
<path transform="matrix(1,0,0,-1,-83.2379,572.363)" d="M36 36H756V576H36Z" fill="#ffffff"/>
<path transform="matrix(1,0,0,-1,-83.2379,572.363)" d="M197.625 554.5H417.25V516.125H197.625Z" fill="#ffffff" fill-rule="evenodd"/>
<path transform="matrix(1,0,0,-1,114.3871,17.86316)" stroke-width=".327" stroke-linecap="butt" stroke-miterlimit="8" stroke-linejoin="miter" fill="none" stroke="#000000" d="M0 0H219.625V-38.375H0Z"/>
<use data-text="K" xlink:href="#font_1_6" transform="matrix(16,0,0,-16,146.5871,43.45056)"/>
<use data-text="e" xlink:href="#font_1_16" transform="matrix(16,0,0,-16,157.2591,43.45056)"/>
<use data-text="r" xlink:href="#font_1_27" transform="matrix(16,0,0,-16,166.15509,43.45056)"/>
<use data-text="n" xlink:href="#font_1_24" transform="matrix(16,0,0,-16,171.4831,43.45056)"/>
<use data-text="e" xlink:href="#font_1_16" transform="matrix(16,0,0,-16,180.3791,43.45056)"/>
<use data-text="l" xlink:href="#font_1_22" transform="matrix(16,0,0,-16,189.2751,43.45056)"/>
<use data-text=" " xlink:href="#font_1_1" transform="matrix(16,0,0,-16,192.8271,43.45056)"/>
<use data-text="v" xlink:href="#font_1_31" transform="matrix(16,0,0,-16,197.2751,43.45056)"/>
<use data-text="i" xlink:href="#font_1_20" transform="matrix(16,0,0,-16,205.2751,43.45056)"/>
<use data-text="r" xlink:href="#font_1_27" transform="matrix(16,0,0,-16,208.8271,43.45056)"/>
<use data-text="t" xlink:href="#font_1_29" transform="matrix(16,0,0,-16,214.1551,43.45056)"/>
<use data-text="u" xlink:href="#font_1_30" transform="matrix(16,0,0,-16,218.6031,43.45056)"/>
<use data-text="a" xlink:href="#font_1_12" transform="matrix(16,0,0,-16,227.4991,43.45056)"/>
<use data-text="l" xlink:href="#font_1_22" transform="matrix(16,0,0,-16,236.3951,43.45056)"/>
<use data-text=" " xlink:href="#font_1_1" transform="matrix(16,0,0,-16,239.9471,43.45056)"/>
<use data-text="m" xlink:href="#font_1_23" transform="matrix(16,0,0,-16,244.3951,43.45056)"/>
<use data-text="e" xlink:href="#font_1_16" transform="matrix(16,0,0,-16,257.72309,43.45056)"/>
<use data-text="m" xlink:href="#font_1_23" transform="matrix(16,0,0,-16,266.61909,43.45056)"/>
<use data-text="o" xlink:href="#font_1_25" transform="matrix(16,0,0,-16,279.94709,43.45056)"/>
<use data-text="r" xlink:href="#font_1_27" transform="matrix(16,0,0,-16,288.84309,43.45056)"/>
<use data-text="y" xlink:href="#font_1_34" transform="matrix(16,0,0,-16,294.17109,43.45056)"/>
<use data-text="&#xfffd;" xlink:href="#font_2_1" transform="matrix(16,0,0,-16,302.17109,43.45056)"/>
<path transform="matrix(1,0,0,-1,-83.2379,572.363)" d="M197.625 420.5H417.25V367.75H197.625Z" fill="#ffffff" fill-rule="evenodd"/>
<path transform="matrix(1,0,0,-1,114.3871,151.86298)" stroke-width=".327" stroke-linecap="butt" stroke-miterlimit="8" stroke-linejoin="miter" fill="none" stroke="#000000" d="M0 0H219.625V-52.75H0Z"/>
<use data-text="M" xlink:href="#font_1_8" transform="matrix(16,0,0,-16,128.5871,175.03797)"/>
<use data-text="e" xlink:href="#font_1_16" transform="matrix(16,0,0,-16,141.9151,175.03797)"/>
<use data-text="m" xlink:href="#font_1_23" transform="matrix(16,0,0,-16,150.8111,175.03797)"/>
<use data-text="o" xlink:href="#font_1_25" transform="matrix(16,0,0,-16,164.1391,175.03797)"/>
<use data-text="r" xlink:href="#font_1_27" transform="matrix(16,0,0,-16,173.03511,175.03797)"/>
<use data-text="y" xlink:href="#font_1_34" transform="matrix(16,0,0,-16,178.36312,175.03797)"/>
<use data-text=" " xlink:href="#font_1_1" transform="matrix(16,0,0,-16,186.36312,175.03797)"/>
<use data-text="m" xlink:href="#font_1_23" transform="matrix(16,0,0,-16,190.81111,175.03797)"/>
<use data-text="a" xlink:href="#font_1_12" transform="matrix(16,0,0,-16,204.13912,175.03797)"/>
<use data-text="p" xlink:href="#font_1_26" transform="matrix(16,0,0,-16,213.03511,175.03797)"/>
<use data-text="p" xlink:href="#font_1_26" transform="matrix(16,0,0,-16,221.9311,175.03797)"/>
<use data-text="e" xlink:href="#font_1_16" transform="matrix(16,0,0,-16,230.8271,175.03797)"/>
<use data-text="d" xlink:href="#font_1_15" transform="matrix(16,0,0,-16,239.7231,175.03797)"/>
<use data-text=" " xlink:href="#font_1_1" transform="matrix(16,0,0,-16,248.6191,175.03797)"/>
<use data-text="r" xlink:href="#font_1_27" transform="matrix(16,0,0,-16,253.0671,175.03797)"/>
<use data-text="e" xlink:href="#font_1_16" transform="matrix(16,0,0,-16,258.39509,175.03797)"/>
<use data-text="g" xlink:href="#font_1_18" transform="matrix(16,0,0,-16,267.29109,175.03797)"/>
<use data-text="i" xlink:href="#font_1_20" transform="matrix(16,0,0,-16,276.18708,175.03797)"/>
<use data-text="o" xlink:href="#font_1_25" transform="matrix(16,0,0,-16,279.73908,175.03797)"/>
<use data-text="n" xlink:href="#font_1_24" transform="matrix(16,0,0,-16,288.63508,175.03797)"/>
<use data-text=" " xlink:href="#font_1_1" transform="matrix(16,0,0,-16,297.53108,175.03797)"/>
<use data-text="f" xlink:href="#font_1_17" transform="matrix(16,0,0,-16,301.97908,175.03797)"/>
<use data-text="o" xlink:href="#font_1_25" transform="matrix(16,0,0,-16,306.42707,175.03797)"/>
<use data-text="r" xlink:href="#font_1_27" transform="matrix(16,0,0,-16,315.32307,175.03797)"/>
<use data-text="&#xfffd;" xlink:href="#font_2_1" transform="matrix(16,0,0,-16,320.65107,175.03797)"/>
<use data-text="s" xlink:href="#font_1_28" transform="matrix(16,0,0,-16,169.5951,194.02997)"/>
<use data-text="h" xlink:href="#font_1_19" transform="matrix(16,0,0,-16,177.59511,194.02997)"/>
<use data-text="a" xlink:href="#font_1_12" transform="matrix(16,0,0,-16,186.4911,194.02997)"/>
<use data-text="r" xlink:href="#font_1_27" transform="matrix(16,0,0,-16,195.3871,194.02997)"/>
<use data-text="e" xlink:href="#font_1_16" transform="matrix(16,0,0,-16,200.7151,194.02997)"/>
<use data-text="d" xlink:href="#font_1_15" transform="matrix(16,0,0,-16,209.6111,194.02997)"/>
<use data-text=" " xlink:href="#font_1_1" transform="matrix(16,0,0,-16,218.5071,194.02997)"/>
<use data-text="l" xlink:href="#font_1_22" transform="matrix(16,0,0,-16,222.9551,194.02997)"/>
<use data-text="i" xlink:href="#font_1_20" transform="matrix(16,0,0,-16,226.5071,194.02997)"/>
<use data-text="b" xlink:href="#font_1_13" transform="matrix(16,0,0,-16,230.0591,194.02997)"/>
<use data-text="r" xlink:href="#font_1_27" transform="matrix(16,0,0,-16,238.9551,194.02997)"/>
<use data-text="a" xlink:href="#font_1_12" transform="matrix(16,0,0,-16,244.2831,194.02997)"/>
<use data-text="r" xlink:href="#font_1_27" transform="matrix(16,0,0,-16,253.1791,194.02997)"/>
<use data-text="i" xlink:href="#font_1_20" transform="matrix(16,0,0,-16,258.50709,194.02997)"/>
<use data-text="e" xlink:href="#font_1_16" transform="matrix(16,0,0,-16,262.05909,194.02997)"/>
<use data-text="s" xlink:href="#font_1_28" transform="matrix(16,0,0,-16,270.95509,194.02997)"/>
<use data-text="&#xfffd;" xlink:href="#font_2_1" transform="matrix(16,0,0,-16,278.95509,194.02997)"/>
<path transform="matrix(1,0,0,-1,-83.2379,572.363)" d="M197.625 368.125H417.25V311.125H197.625Z" fill="#cbcbcb" fill-rule="evenodd"/>
<path transform="matrix(1,0,0,-1,114.3871,204.23807)" stroke-width=".327" stroke-linecap="butt" stroke-miterlimit="8" stroke-linejoin="miter" fill="none" stroke="#000000" d="M0 0H219.625V-57H0Z"/>
<path transform="matrix(1,0,0,-1,-83.2379,572.363)" d="M197.625 310.875H417.25V258.125H197.625Z" fill="#ffffff" fill-rule="evenodd"/>
<path transform="matrix(1,0,0,-1,114.3871,261.48808)" stroke-width=".327" stroke-linecap="butt" stroke-miterlimit="8" stroke-linejoin="miter" fill="none" stroke="#000000" d="M0 0H219.625V-52.75H0Z"/>
<use data-text="R" xlink:href="#font_1_10" transform="matrix(16,0,0,-16,171.5871,284.66297)"/>
<use data-text="u" xlink:href="#font_1_30" transform="matrix(16,0,0,-16,183.13909,284.66297)"/>
<use data-text="n" xlink:href="#font_1_24" transform="matrix(16,0,0,-16,192.03508,284.66297)"/>
<use data-text="-" xlink:href="#font_1_4" transform="matrix(16,0,0,-16,200.93108,284.66297)"/>
<use data-text="t" xlink:href="#font_1_29" transform="matrix(16,0,0,-16,206.25908,284.66297)"/>
<use data-text="i" xlink:href="#font_1_20" transform="matrix(16,0,0,-16,210.70708,284.66297)"/>
<use data-text="m" xlink:href="#font_1_23" transform="matrix(16,0,0,-16,214.25908,284.66297)"/>
<use data-text="e" xlink:href="#font_1_16" transform="matrix(16,0,0,-16,227.58708,284.66297)"/>
<use data-text=" " xlink:href="#font_1_1" transform="matrix(16,0,0,-16,236.48308,284.66297)"/>
<use data-text="h" xlink:href="#font_1_19" transform="matrix(16,0,0,-16,240.93108,284.66297)"/>
<use data-text="e" xlink:href="#font_1_16" transform="matrix(16,0,0,-16,249.82707,284.66297)"/>
<use data-text="a" xlink:href="#font_1_12" transform="matrix(16,0,0,-16,258.72309,284.66297)"/>
<use data-text="p" xlink:href="#font_1_26" transform="matrix(16,0,0,-16,267.61909,284.66297)"/>
<use data-text="&#xfffd;" xlink:href="#font_2_1" transform="matrix(16,0,0,-16,276.51509,284.66297)"/>
<use data-text="(" xlink:href="#font_1_2" transform="matrix(16,0,0,-16,150.5951,303.65498)"/>
<use data-text="c" xlink:href="#font_1_14" transform="matrix(16,0,0,-16,155.9231,303.65498)"/>
<use data-text="r" xlink:href="#font_1_27" transform="matrix(16,0,0,-16,163.9231,303.65498)"/>
<use data-text="e" xlink:href="#font_1_16" transform="matrix(16,0,0,-16,169.2511,303.65498)"/>
<use data-text="a" xlink:href="#font_1_12" transform="matrix(16,0,0,-16,178.14711,303.65498)"/>
<use data-text="t" xlink:href="#font_1_29" transform="matrix(16,0,0,-16,187.0431,303.65498)"/>
<use data-text="e" xlink:href="#font_1_16" transform="matrix(16,0,0,-16,191.4911,303.65498)"/>
<use data-text="d" xlink:href="#font_1_15" transform="matrix(16,0,0,-16,200.3871,303.65498)"/>
<use data-text=" " xlink:href="#font_1_1" transform="matrix(16,0,0,-16,209.2831,303.65498)"/>
<use data-text="b" xlink:href="#font_1_13" transform="matrix(16,0,0,-16,213.7311,303.65498)"/>
<use data-text="y" xlink:href="#font_1_34" transform="matrix(16,0,0,-16,222.62709,303.65498)"/>
<use data-text=" " xlink:href="#font_1_1" transform="matrix(16,0,0,-16,230.62709,303.65498)"/>
<use data-text="m" xlink:href="#font_3_10" transform="matrix(16,0,0,-16,235.07509,303.65498)"/>
<use data-text="a" xlink:href="#font_3_3" transform="matrix(16,0,0,-16,244.6751,303.65498)"/>
<use data-text="l" xlink:href="#font_3_9" transform="matrix(16,0,0,-16,254.2751,303.65498)"/>
<use data-text="l" xlink:href="#font_3_9" transform="matrix(16,0,0,-16,263.87513,303.65498)"/>
<use data-text="o" xlink:href="#font_3_12" transform="matrix(16,0,0,-16,273.4751,303.65498)"/>
<use data-text="c" xlink:href="#font_3_4" transform="matrix(16,0,0,-16,283.07514,303.65498)"/>
<use data-text=")" xlink:href="#font_1_3" transform="matrix(16,0,0,-16,292.6751,303.65498)"/>
<use data-text="&#xfffd;" xlink:href="#font_2_1" transform="matrix(16,0,0,-16,298.0031,303.65498)"/>
<path transform="matrix(1,0,0,-1,-83.2379,572.363)" d="M197.625 492.125H417.25V420.75H197.625Z" fill="#cbcbcb" fill-rule="evenodd"/>
<path transform="matrix(1,0,0,-1,114.3871,80.23807)" stroke-width=".327" stroke-linecap="butt" stroke-miterlimit="8" stroke-linejoin="miter" fill="none" stroke="#000000" d="M0 0H219.625V-71.375H0Z"/>
<path transform="matrix(1,0,0,-1,227.5121,260.23808)" stroke-width=".655" stroke-linecap="butt" stroke-linejoin="round" fill="none" stroke="#000000" d="M0 0V28"/>
<path transform="matrix(1,0,0,-1,224.51201,236.23807)" d="M0 0 3 6 6 0Z" fill-rule="evenodd"/>
<path transform="matrix(1,0,0,-1,-83.2379,572.363)" d="M197.625 518.5H417.25V474.125H197.625Z" fill="#ffffff" fill-rule="evenodd"/>
<path transform="matrix(1,0,0,-1,114.3871,53.86316)" stroke-width=".327" stroke-linecap="butt" stroke-miterlimit="8" stroke-linejoin="miter" fill="none" stroke="#000000" d="M0 0H219.625V-44.375H0Z"/>
<use data-text="U" xlink:href="#font_1_11" transform="matrix(16,0,0,-16,186.58712,72.850467)"/>
<use data-text="s" xlink:href="#font_1_28" transform="matrix(16,0,0,-16,198.13912,72.850467)"/>
<use data-text="e" xlink:href="#font_1_16" transform="matrix(16,0,0,-16,206.13912,72.850467)"/>
<use data-text="r" xlink:href="#font_1_27" transform="matrix(16,0,0,-16,215.03511,72.850467)"/>
<use data-text=" " xlink:href="#font_1_1" transform="matrix(16,0,0,-16,220.36312,72.850467)"/>
<use data-text="s" xlink:href="#font_1_28" transform="matrix(16,0,0,-16,224.81111,72.850467)"/>
<use data-text="t" xlink:href="#font_1_29" transform="matrix(16,0,0,-16,232.81111,72.850467)"/>
<use data-text="a" xlink:href="#font_1_12" transform="matrix(16,0,0,-16,237.25911,72.850467)"/>
<use data-text="c" xlink:href="#font_1_14" transform="matrix(16,0,0,-16,246.1551,72.850467)"/>
<use data-text="k" xlink:href="#font_1_21" transform="matrix(16,0,0,-16,254.1551,72.850467)"/>
<use data-text="&#xfffd;" xlink:href="#font_2_1" transform="matrix(16,0,0,-16,262.1551,72.850467)"/>
<use data-text="(" xlink:href="#font_1_2" transform="matrix(16,0,0,-16,154.58712,91.85846)"/>
<use data-text="c" xlink:href="#font_1_14" transform="matrix(16,0,0,-16,159.91512,91.85846)"/>
<use data-text="r" xlink:href="#font_1_27" transform="matrix(16,0,0,-16,167.91512,91.85846)"/>
<use data-text="e" xlink:href="#font_1_16" transform="matrix(16,0,0,-16,173.24312,91.85846)"/>
<use data-text="a" xlink:href="#font_1_12" transform="matrix(16,0,0,-16,182.13912,91.85846)"/>
<use data-text="t" xlink:href="#font_1_29" transform="matrix(16,0,0,-16,191.03511,91.85846)"/>
<use data-text="e" xlink:href="#font_1_16" transform="matrix(16,0,0,-16,195.48311,91.85846)"/>
<use data-text="d" xlink:href="#font_1_15" transform="matrix(16,0,0,-16,204.3791,91.85846)"/>
<use data-text=" " xlink:href="#font_1_1" transform="matrix(16,0,0,-16,213.2751,91.85846)"/>
<use data-text="a" xlink:href="#font_1_12" transform="matrix(16,0,0,-16,217.7231,91.85846)"/>
<use data-text="t" xlink:href="#font_1_29" transform="matrix(16,0,0,-16,226.6191,91.85846)"/>
<use data-text=" " xlink:href="#font_1_1" transform="matrix(16,0,0,-16,231.0671,91.85846)"/>
<use data-text="r" xlink:href="#font_1_27" transform="matrix(16,0,0,-16,235.51509,91.85846)"/>
<use data-text="u" xlink:href="#font_1_30" transform="matrix(16,0,0,-16,240.8431,91.85846)"/>
<use data-text="n" xlink:href="#font_1_24" transform="matrix(16,0,0,-16,249.73909,91.85846)"/>
<use data-text="t" xlink:href="#font_1_29" transform="matrix(16,0,0,-16,258.63508,91.85846)"/>
<use data-text="i" xlink:href="#font_1_20" transform="matrix(16,0,0,-16,263.08308,91.85846)"/>
<use data-text="m" xlink:href="#font_1_23" transform="matrix(16,0,0,-16,266.63508,91.85846)"/>
<use data-text="e" xlink:href="#font_1_16" transform="matrix(16,0,0,-16,279.96308,91.85846)"/>
<use data-text=")" xlink:href="#font_1_3" transform="matrix(16,0,0,-16,288.85908,91.85846)"/>
<use data-text="&#xfffd;" xlink:href="#font_2_1" transform="matrix(16,0,0,-16,294.18708,91.85846)"/>
<path transform="matrix(1,0,0,-1,227.5121,152.23807)" stroke-width=".655" stroke-linecap="butt" stroke-linejoin="round" fill="none" stroke="#000000" d="M0 0V16"/>
<path transform="matrix(1,0,0,-1,224.51201,140.23807)" d="M0 0 3 6 6 0Z" fill-rule="evenodd"/>
<path transform="matrix(1,0,0,-1,227.5121,98.23807)" stroke-width=".655" stroke-linecap="butt" stroke-linejoin="round" fill="none" stroke="#000000" d="M0 0V-16"/>
<path transform="matrix(1,0,0,-1,224.51201,110.23807)" d="M0 0 3-6 6 0Z" fill-rule="evenodd"/>
<path transform="matrix(1,0,0,-1,-83.2379,572.363)" d="M196.75 156.125H416.375V124.875H196.75Z" fill="#cbcbcb" fill-rule="evenodd"/>
<path transform="matrix(1,0,0,-1,113.5121,416.2381)" stroke-width=".327" stroke-linecap="butt" stroke-miterlimit="8" stroke-linejoin="miter" fill="none" stroke="#000000" d="M0 0H219.625V-31.25H0Z"/>
<use data-text="0" xlink:href="#font_3_2" transform="matrix(12,0,0,-12,101.9621,446.58808)"/>
<use data-text=" " xlink:href="#font_3_1" transform="matrix(12,0,0,-12,109.162097,446.58808)"/>
<use data-text="M" xlink:href="#font_1_8" transform="matrix(16,0,0,-16,355.71199,16.962952)"/>
<use data-text="e" xlink:href="#font_1_16" transform="matrix(16,0,0,-16,369.03999,16.962952)"/>
<use data-text="m" xlink:href="#font_1_23" transform="matrix(16,0,0,-16,377.93598,16.962952)"/>
<use data-text="o" xlink:href="#font_1_25" transform="matrix(16,0,0,-16,391.26399,16.962952)"/>
<use data-text="r" xlink:href="#font_1_27" transform="matrix(16,0,0,-16,400.15998,16.962952)"/>
<use data-text="y" xlink:href="#font_1_34" transform="matrix(16,0,0,-16,405.48799,16.962952)"/>
<use data-text="&#xfffd;" xlink:href="#font_2_1" transform="matrix(16,0,0,-16,413.48799,16.962952)"/>
<use data-text="i" xlink:href="#font_1_20" transform="matrix(16,0,0,-16,355.71199,35.954957)"/>
<use data-text="n" xlink:href="#font_1_24" transform="matrix(16,0,0,-16,359.26399,35.954957)"/>
<use data-text="v" xlink:href="#font_1_31" transform="matrix(16,0,0,-16,368.15998,35.954957)"/>
<use data-text="i" xlink:href="#font_1_20" transform="matrix(16,0,0,-16,376.15998,35.954957)"/>
<use data-text="s" xlink:href="#font_1_28" transform="matrix(16,0,0,-16,379.71199,35.954957)"/>
<use data-text="i" xlink:href="#font_1_20" transform="matrix(16,0,0,-16,387.71199,35.954957)"/>
<use data-text="b" xlink:href="#font_1_13" transform="matrix(16,0,0,-16,391.26399,35.954957)"/>
<use data-text="l" xlink:href="#font_1_22" transform="matrix(16,0,0,-16,400.15998,35.954957)"/>
<use data-text="e" xlink:href="#font_1_16" transform="matrix(16,0,0,-16,403.71199,35.954957)"/>
<use data-text=" " xlink:href="#font_1_1" transform="matrix(16,0,0,-16,412.60798,35.954957)"/>
<use data-text="t" xlink:href="#font_1_29" transform="matrix(16,0,0,-16,417.05598,35.954957)"/>
<use data-text="o" xlink:href="#font_1_25" transform="matrix(16,0,0,-16,421.50398,35.954957)"/>
<use data-text="&#xfffd;" xlink:href="#font_2_1" transform="matrix(16,0,0,-16,430.39997,35.954957)"/>
<use data-text="u" xlink:href="#font_1_30" transform="matrix(16,0,0,-16,355.71199,54.94696)"/>
<use data-text="s" xlink:href="#font_1_28" transform="matrix(16,0,0,-16,364.60798,54.94696)"/>
<use data-text="e" xlink:href="#font_1_16" transform="matrix(16,0,0,-16,372.60798,54.94696)"/>
<use data-text="r" xlink:href="#font_1_27" transform="matrix(16,0,0,-16,381.50398,54.94696)"/>
<use data-text=" " xlink:href="#font_1_1" transform="matrix(16,0,0,-16,386.83198,54.94696)"/>
<use data-text="c" xlink:href="#font_1_14" transform="matrix(16,0,0,-16,391.27998,54.94696)"/>
<use data-text="o" xlink:href="#font_1_25" transform="matrix(16,0,0,-16,399.27998,54.94696)"/>
<use data-text="d" xlink:href="#font_1_15" transform="matrix(16,0,0,-16,408.17597,54.94696)"/>
<use data-text="e" xlink:href="#font_1_16" transform="matrix(16,0,0,-16,417.07197,54.94696)"/>
<use data-text="&#xfffd;" xlink:href="#font_2_1" transform="matrix(16,0,0,-16,425.96797,54.94696)"/>
<path transform="matrix(1,0,0,-1,341.51203,50.23816)" stroke-width=".655" stroke-linecap="butt" stroke-linejoin="round" fill="none" stroke="#000000" d="M0 0V34"/>
<path transform="matrix(1,0,0,-1,338.51203,20.238099)" d="M0 0 3 6 6 0Z" fill-rule="evenodd"/>
<path transform="matrix(1,0,0,-1,-83.2379,572.363)" d="M196.75 258.125H416.375V205.375H196.75Z" fill="#ffffff" fill-rule="evenodd"/>
<path transform="matrix(1,0,0,-1,113.5121,314.23808)" stroke-width=".327" stroke-linecap="butt" stroke-miterlimit="8" stroke-linejoin="miter" fill="none" stroke="#000000" d="M0 0H219.625V-52.75H0Z"/>
<use data-text="R" xlink:href="#font_1_10" transform="matrix(16,0,0,-16,167.7121,347.01307)"/>
<use data-text="e" xlink:href="#font_1_16" transform="matrix(16,0,0,-16,179.26409,347.01307)"/>
<use data-text="a" xlink:href="#font_1_12" transform="matrix(16,0,0,-16,188.16008,347.01307)"/>
<use data-text="d" xlink:href="#font_1_15" transform="matrix(16,0,0,-16,197.05608,347.01307)"/>
<use data-text="/" xlink:href="#font_1_5" transform="matrix(16,0,0,-16,205.95207,347.01307)"/>
<use data-text="w" xlink:href="#font_1_32" transform="matrix(16,0,0,-16,210.40007,347.01307)"/>
<use data-text="r" xlink:href="#font_1_27" transform="matrix(16,0,0,-16,221.95207,347.01307)"/>
<use data-text="i" xlink:href="#font_1_20" transform="matrix(16,0,0,-16,227.28008,347.01307)"/>
<use data-text="t" xlink:href="#font_1_29" transform="matrix(16,0,0,-16,230.83208,347.01307)"/>
<use data-text="e" xlink:href="#font_1_16" transform="matrix(16,0,0,-16,235.28008,347.01307)"/>
<use data-text=" " xlink:href="#font_1_1" transform="matrix(16,0,0,-16,244.17607,347.01307)"/>
<use data-text="d" xlink:href="#font_1_15" transform="matrix(16,0,0,-16,248.62407,347.01307)"/>
<use data-text="a" xlink:href="#font_1_12" transform="matrix(16,0,0,-16,257.52009,347.01307)"/>
<use data-text="t" xlink:href="#font_1_29" transform="matrix(16,0,0,-16,266.41609,347.01307)"/>
<use data-text="a" xlink:href="#font_1_12" transform="matrix(16,0,0,-16,270.86408,347.01307)"/>
<use data-text=" " xlink:href="#font_1_1" transform="matrix(16,0,0,-16,279.76008,347.01307)"/>
<use data-text="&#xfffd;" xlink:href="#font_2_1" transform="matrix(16,0,0,-16,284.20808,347.01307)"/>
<path transform="matrix(1,0,0,-1,-83.2379,572.363)" d="M196.75 208.875H416.375V156.125H196.75Z" fill="#ffffff" fill-rule="evenodd"/>
<path transform="matrix(1,0,0,-1,113.5121,363.4881)" stroke-width=".327" stroke-linecap="butt" stroke-miterlimit="8" stroke-linejoin="miter" fill="none" stroke="#000000" d="M0 0H219.625V-52.75H0Z"/>
<use data-text="R" xlink:href="#font_1_10" transform="matrix(16,0,0,-16,133.7121,396.26307)"/>
<use data-text="e" xlink:href="#font_1_16" transform="matrix(16,0,0,-16,145.2641,396.26307)"/>
<use data-text="a" xlink:href="#font_1_12" transform="matrix(16,0,0,-16,154.1601,396.26307)"/>
<use data-text="d" xlink:href="#font_1_15" transform="matrix(16,0,0,-16,163.05609,396.26307)"/>
<use data-text="-" xlink:href="#font_1_4" transform="matrix(16,0,0,-16,171.95209,396.26307)"/>
<use data-text="o" xlink:href="#font_1_25" transform="matrix(16,0,0,-16,177.28008,396.26307)"/>
<use data-text="n" xlink:href="#font_1_24" transform="matrix(16,0,0,-16,186.17607,396.26307)"/>
<use data-text="l" xlink:href="#font_1_22" transform="matrix(16,0,0,-16,195.07207,396.26307)"/>
<use data-text="y" xlink:href="#font_1_34" transform="matrix(16,0,0,-16,198.62407,396.26307)"/>
<use data-text=" " xlink:href="#font_1_1" transform="matrix(16,0,0,-16,206.62407,396.26307)"/>
<use data-text="c" xlink:href="#font_1_14" transform="matrix(16,0,0,-16,211.07207,396.26307)"/>
<use data-text="o" xlink:href="#font_1_25" transform="matrix(16,0,0,-16,219.07207,396.26307)"/>
<use data-text="d" xlink:href="#font_1_15" transform="matrix(16,0,0,-16,227.96807,396.26307)"/>
<use data-text="e" xlink:href="#font_1_16" transform="matrix(16,0,0,-16,236.86406,396.26307)"/>
<use data-text=" " xlink:href="#font_1_1" transform="matrix(16,0,0,-16,245.76006,396.26307)"/>
<use data-text="a" xlink:href="#font_1_12" transform="matrix(16,0,0,-16,250.20806,396.26307)"/>
<use data-text="n" xlink:href="#font_1_24" transform="matrix(16,0,0,-16,259.10408,396.26307)"/>
<use data-text="d" xlink:href="#font_1_15" transform="matrix(16,0,0,-16,268.00007,396.26307)"/>
<use data-text=" " xlink:href="#font_1_1" transform="matrix(16,0,0,-16,276.89607,396.26307)"/>
<use data-text="d" xlink:href="#font_1_15" transform="matrix(16,0,0,-16,281.34407,396.26307)"/>
<use data-text="a" xlink:href="#font_1_12" transform="matrix(16,0,0,-16,290.24006,396.26307)"/>
<use data-text="t" xlink:href="#font_1_29" transform="matrix(16,0,0,-16,299.13606,396.26307)"/>
<use data-text="a" xlink:href="#font_1_12" transform="matrix(16,0,0,-16,303.58406,396.26307)"/>
<use data-text="&#xfffd;" xlink:href="#font_2_1" transform="matrix(16,0,0,-16,312.48005,396.26307)"/>
<g clip-path="url(#clip_4)">
<path transform="matrix(1,0,0,-1,341.51203,314.23808)" stroke-width="1" stroke-linecap="butt" stroke-linejoin="round" fill="none" stroke="#000000" d="M0 0C1.657 0 3-3.806 3-8.5V-42.5C3-47.194 4.343-51 6-51 4.343-51 3-54.806 3-59.5V-93.5C3-98.194 1.657-102 0-102"/>
</g>
<use data-text="L" xlink:href="#font_1_7" transform="matrix(16,0,0,-16,360.7121,363.83808)"/>
<use data-text="o" xlink:href="#font_1_25" transform="matrix(16,0,0,-16,369.6081,363.83808)"/>
<use data-text="a" xlink:href="#font_1_12" transform="matrix(16,0,0,-16,378.5041,363.83808)"/>
<use data-text="d" xlink:href="#font_1_15" transform="matrix(16,0,0,-16,387.4001,363.83808)"/>
<use data-text="e" xlink:href="#font_1_16" transform="matrix(16,0,0,-16,396.29609,363.83808)"/>
<use data-text="d" xlink:href="#font_1_15" transform="matrix(16,0,0,-16,405.19209,363.83808)"/>
<use data-text=" " xlink:href="#font_1_1" transform="matrix(16,0,0,-16,414.08808,363.83808)"/>
<use data-text="f" xlink:href="#font_1_17" transform="matrix(16,0,0,-16,418.53608,363.83808)"/>
<use data-text="r" xlink:href="#font_1_27" transform="matrix(16,0,0,-16,422.98408,363.83808)"/>
<use data-text="o" xlink:href="#font_1_25" transform="matrix(16,0,0,-16,428.31208,363.83808)"/>
<use data-text="m" xlink:href="#font_1_23" transform="matrix(16,0,0,-16,437.20808,363.83808)"/>
<use data-text=" " xlink:href="#font_1_1" transform="matrix(16,0,0,-16,450.53608,363.83808)"/>
<use data-text="t" xlink:href="#font_1_29" transform="matrix(16,0,0,-16,454.98408,363.83808)"/>
<use data-text="h" xlink:href="#font_1_19" transform="matrix(16,0,0,-16,459.43208,363.83808)"/>
<use data-text="e" xlink:href="#font_1_16" transform="matrix(16,0,0,-16,468.32807,363.83808)"/>
<use data-text=" " xlink:href="#font_1_1" transform="matrix(16,0,0,-16,477.22407,363.83808)"/>
<use data-text="&#xfffd;" xlink:href="#font_2_1" transform="matrix(16,0,0,-16,481.67207,363.83808)"/>
<use data-text="h" xlink:href="#font_3_7" transform="matrix(16,0,0,-16,360.7121,382.83009)"/>
<use data-text="e" xlink:href="#font_3_5" transform="matrix(16,0,0,-16,370.31214,382.83009)"/>
<use data-text="l" xlink:href="#font_3_9" transform="matrix(16,0,0,-16,379.9121,382.83009)"/>
<use data-text="l" xlink:href="#font_3_9" transform="matrix(16,0,0,-16,389.51216,382.83009)"/>
<use data-text="o" xlink:href="#font_3_12" transform="matrix(16,0,0,-16,399.11213,382.83009)"/>
<use data-text="&#xfffd;" xlink:href="#font_5_1" transform="matrix(16,0,0,-16,408.71217,382.83009)"/>
<use data-text="&#xfffd;" xlink:href="#font_5_16" transform="matrix(16,0,0,-16,413.16017,382.83009)"/>
<use data-text="&#xfffd;" xlink:href="#font_5_33" transform="matrix(16,0,0,-16,422.05616,382.83009)"/>
<use data-text="&#xfffd;" xlink:href="#font_5_16" transform="matrix(16,0,0,-16,430.05616,382.83009)"/>
<use data-text="&#xfffd;" xlink:href="#font_5_14" transform="matrix(16,0,0,-16,438.95216,382.83009)"/>
<use data-text="&#xfffd;" xlink:href="#font_5_30" transform="matrix(16,0,0,-16,446.95216,382.83009)"/>
<use data-text="&#xfffd;" xlink:href="#font_5_29" transform="matrix(16,0,0,-16,455.84815,382.83009)"/>
<use data-text="&#xfffd;" xlink:href="#font_5_12" transform="matrix(16,0,0,-16,460.29615,382.83009)"/>
<use data-text="&#xfffd;" xlink:href="#font_5_13" transform="matrix(16,0,0,-16,469.19215,382.83009)"/>
<use data-text="&#xfffd;" xlink:href="#font_5_22" transform="matrix(16,0,0,-16,478.08815,382.83009)"/>
<use data-text="&#xfffd;" xlink:href="#font_5_16" transform="matrix(16,0,0,-16,481.64015,382.83009)"/>
<use data-text="&#xfffd;" xlink:href="#font_5_1" transform="matrix(16,0,0,-16,490.53614,382.83009)"/>
<use data-text="&#xfffd;" xlink:href="#font_5_35" transform="matrix(16,0,0,-16,494.98414,382.83009)"/>
<use data-text="&#xfffd;" xlink:href="#font_5_22" transform="matrix(16,0,0,-16,502.98414,382.83009)"/>
<use data-text="&#xfffd;" xlink:href="#font_5_16" transform="matrix(16,0,0,-16,506.53614,382.83009)"/>
<use data-text="&#xfffd;" xlink:href="#font_2_1" transform="matrix(16,0,0,-16,515.4321,382.83009)"/>
<use data-text="p" xlink:href="#font_3_13" transform="matrix(16,0,0,-16,350.45613,183.95008)"/>
<use data-text="r" xlink:href="#font_3_14" transform="matrix(16,0,0,-16,360.0561,183.95008)"/>
<use data-text="i" xlink:href="#font_3_8" transform="matrix(16,0,0,-16,369.65614,183.95008)"/>
<use data-text="n" xlink:href="#font_3_11" transform="matrix(16,0,0,-16,379.2561,183.95008)"/>
<use data-text="t" xlink:href="#font_3_15" transform="matrix(16,0,0,-16,388.85615,183.95008)"/>
<use data-text="f" xlink:href="#font_3_6" transform="matrix(16,0,0,-16,398.45613,183.95008)"/>
<use data-text=" " xlink:href="#font_3_1" transform="matrix(16,0,0,-16,408.05616,183.95008)"/>
<use data-text="f" xlink:href="#font_6_3" transform="matrix(16,0,0,-16,417.65614,183.95008)"/>
<use data-text="u" xlink:href="#font_6_8" transform="matrix(16,0,0,-16,422.10414,183.95008)"/>
<use data-text="n" xlink:href="#font_6_5" transform="matrix(16,0,0,-16,431.00013,183.95008)"/>
<use data-text="c" xlink:href="#font_6_2" transform="matrix(16,0,0,-16,439.89613,183.95008)"/>
<use data-text="t" xlink:href="#font_6_7" transform="matrix(16,0,0,-16,447.89613,183.95008)"/>
<use data-text="i" xlink:href="#font_6_4" transform="matrix(16,0,0,-16,452.34413,183.95008)"/>
<use data-text="o" xlink:href="#font_6_6" transform="matrix(16,0,0,-16,455.89613,183.95008)"/>
<use data-text="n" xlink:href="#font_6_5" transform="matrix(16,0,0,-16,464.7921,183.95008)"/>
<use data-text=" " xlink:href="#font_6_1" transform="matrix(16,0,0,-16,473.6881,183.95008)"/>
<use data-text="P" xlink:href="#font_1_9" transform="matrix(16,0,0,-16,8.952103,405.95008)"/>
<use data-text="r" xlink:href="#font_1_27" transform="matrix(16,0,0,-16,19.6241,405.95008)"/>
<use data-text="o" xlink:href="#font_1_25" transform="matrix(16,0,0,-16,24.952103,405.95008)"/>
<use data-text="g" xlink:href="#font_1_18" transform="matrix(16,0,0,-16,33.848108,405.95008)"/>
<use data-text="r" xlink:href="#font_1_27" transform="matrix(16,0,0,-16,42.74411,405.95008)"/>
<use data-text="a" xlink:href="#font_1_12" transform="matrix(16,0,0,-16,48.072114,405.95008)"/>
<use data-text="m" xlink:href="#font_1_23" transform="matrix(16,0,0,-16,56.96811,405.95008)"/>
<use data-text="&#xfffd;" xlink:href="#font_2_1" transform="matrix(16,0,0,-16,70.29611,405.95008)"/>
<use data-text="s" xlink:href="#font_1_28" transform="matrix(16,0,0,-16,38.952104,424.94209)"/>
<use data-text="t" xlink:href="#font_1_29" transform="matrix(16,0,0,-16,46.952104,424.94209)"/>
<use data-text="a" xlink:href="#font_1_12" transform="matrix(16,0,0,-16,51.4001,424.94209)"/>
<use data-text="r" xlink:href="#font_1_27" transform="matrix(16,0,0,-16,60.296098,424.94209)"/>
<use data-text="t" xlink:href="#font_1_29" transform="matrix(16,0,0,-16,65.6241,424.94209)"/>
<use data-text="&#xfffd;" xlink:href="#font_2_1" transform="matrix(16,0,0,-16,70.0721,424.94209)"/>
<path transform="matrix(1,0,0,-1,76.0121,416.36299)" stroke-width="1" stroke-linecap="butt" stroke-linejoin="round" fill="none" stroke="#000000" d="M0 0H32.5"/>
<path transform="matrix(1,0,0,-1,104.5121,413.36299)" d="M0 0 6-3 0-6Z" fill-rule="evenodd"/>
</g>
</svg>
