<?xml version="1.0" encoding="UTF-8" standalone="no"?><svg xmlns="http://www.w3.org/2000/svg" xmlns:xlink="http://www.w3.org/1999/xlink" contentScriptType="application/ecmascript" contentStyleType="text/css" height="404px" preserveAspectRatio="none" style="width:441px;height:404px;" version="1.1" viewBox="0 0 441 404" width="441px" zoomAndPan="magnify"><defs><filter height="300%" id="f1ce457fc2pfqi" width="300%" x="-1" y="-1"><feGaussianBlur result="blurOut" stdDeviation="2.0"/><feColorMatrix in="blurOut" result="blurOut2" type="matrix" values="0 0 0 0 0 0 0 0 0 0 0 0 0 0 0 0 0 0 .4 0"/><feOffset dx="4.0" dy="4.0" in="blurOut2" result="blurOut3"/><feBlend in="SourceGraphic" in2="blurOut3" mode="normal"/></filter></defs><g><rect fill="#FFFFFF" filter="url(#f1ce457fc2pfqi)" height="306.7949" style="stroke: #A80036; stroke-width: 1.0;" width="10" x="32" y="48.4883"/><rect fill="#FFFFFF" filter="url(#f1ce457fc2pfqi)" height="29.3105" style="stroke: #A80036; stroke-width: 1.0;" width="10" x="255" y="128.4199"/><rect fill="#FFFFFF" filter="url(#f1ce457fc2pfqi)" height="159.2422" style="stroke: #A80036; stroke-width: 1.0;" width="10" x="255" y="187.041"/><rect fill="#FFFFFF" filter="url(#f1ce457fc2pfqi)" height="29.3105" style="stroke: #A80036; stroke-width: 1.0;" width="10" x="365.5" y="69.7988"/><rect fill="#FFFFFF" filter="url(#f1ce457fc2pfqi)" height="14" style="stroke: #A80036; stroke-width: 1.0;" width="10" x="365.5" y="216.3516"/><rect fill="#FFFFFF" filter="url(#f1ce457fc2pfqi)" height="14" style="stroke: #A80036; stroke-width: 1.0;" width="10" x="365.5" y="259.6621"/><rect fill="#FFFFFF" filter="url(#f1ce457fc2pfqi)" height="29.3105" style="stroke: #A80036; stroke-width: 1.0;" width="10" x="365.5" y="302.9727"/><line style="stroke: #A80036; stroke-width: 1.0; stroke-dasharray: 5.0,5.0;" x1="37" x2="37" y1="38.4883" y2="364.2832"/><line style="stroke: #A80036; stroke-width: 1.0; stroke-dasharray: 5.0,5.0;" x1="259.5" x2="259.5" y1="38.4883" y2="364.2832"/><line style="stroke: #A80036; stroke-width: 1.0; stroke-dasharray: 5.0,5.0;" x1="370.5" x2="370.5" y1="38.4883" y2="364.2832"/><rect fill="#FEFECE" filter="url(#f1ce457fc2pfqi)" height="30.4883" style="stroke: #A80036; stroke-width: 1.5;" width="54" x="8" y="3"/><text fill="#000000" font-family="sans-serif" font-size="14" lengthAdjust="spacingAndGlyphs" textLength="40" x="15" y="23.5352">Client</text><rect fill="#FEFECE" filter="url(#f1ce457fc2pfqi)" height="30.4883" style="stroke: #A80036; stroke-width: 1.5;" width="54" x="8" y="363.2832"/><text fill="#000000" font-family="sans-serif" font-size="14" lengthAdjust="spacingAndGlyphs" textLength="40" x="15" y="383.8184">Client</text><rect fill="#FEFECE" filter="url(#f1ce457fc2pfqi)" height="30.4883" style="stroke: #A80036; stroke-width: 1.5;" width="69" x="223.5" y="3"/><text fill="#000000" font-family="sans-serif" font-size="14" lengthAdjust="spacingAndGlyphs" textLength="55" x="230.5" y="23.5352">Director</text><rect fill="#FEFECE" filter="url(#f1ce457fc2pfqi)" height="30.4883" style="stroke: #A80036; stroke-width: 1.5;" width="69" x="223.5" y="363.2832"/><text fill="#000000" font-family="sans-serif" font-size="14" lengthAdjust="spacingAndGlyphs" textLength="55" x="230.5" y="383.8184">Director</text><rect fill="#FEFECE" filter="url(#f1ce457fc2pfqi)" height="30.4883" style="stroke: #A80036; stroke-width: 1.5;" width="124" x="306.5" y="3"/><text fill="#000000" font-family="sans-serif" font-size="14" lengthAdjust="spacingAndGlyphs" textLength="110" x="313.5" y="23.5352">ConcreteBuilder</text><rect fill="#FEFECE" filter="url(#f1ce457fc2pfqi)" height="30.4883" style="stroke: #A80036; stroke-width: 1.5;" width="124" x="306.5" y="363.2832"/><text fill="#000000" font-family="sans-serif" font-size="14" lengthAdjust="spacingAndGlyphs" textLength="110" x="313.5" y="383.8184">ConcreteBuilder</text><rect fill="#FFFFFF" filter="url(#f1ce457fc2pfqi)" height="306.7949" style="stroke: #A80036; stroke-width: 1.0;" width="10" x="32" y="48.4883"/><rect fill="#FFFFFF" filter="url(#f1ce457fc2pfqi)" height="29.3105" style="stroke: #A80036; stroke-width: 1.0;" width="10" x="255" y="128.4199"/><rect fill="#FFFFFF" filter="url(#f1ce457fc2pfqi)" height="159.2422" style="stroke: #A80036; stroke-width: 1.0;" width="10" x="255" y="187.041"/><rect fill="#FFFFFF" filter="url(#f1ce457fc2pfqi)" height="29.3105" style="stroke: #A80036; stroke-width: 1.0;" width="10" x="365.5" y="69.7988"/><rect fill="#FFFFFF" filter="url(#f1ce457fc2pfqi)" height="14" style="stroke: #A80036; stroke-width: 1.0;" width="10" x="365.5" y="216.3516"/><rect fill="#FFFFFF" filter="url(#f1ce457fc2pfqi)" height="14" style="stroke: #A80036; stroke-width: 1.0;" width="10" x="365.5" y="259.6621"/><rect fill="#FFFFFF" filter="url(#f1ce457fc2pfqi)" height="29.3105" style="stroke: #A80036; stroke-width: 1.0;" width="10" x="365.5" y="302.9727"/><polygon fill="#A80036" points="353.5,65.7988,363.5,69.7988,353.5,73.7988,357.5,69.7988" style="stroke: #A80036; stroke-width: 1.0;"/><line style="stroke: #A80036; stroke-width: 1.0;" x1="42" x2="359.5" y1="69.7988" y2="69.7988"/><text fill="#000000" font-family="sans-serif" font-size="13" lengthAdjust="spacingAndGlyphs" textLength="136" x="49" y="65.0566">new ConcreteBuilder()</text><polygon fill="#A80036" points="53,95.1094,43,99.1094,53,103.1094,49,99.1094" style="stroke: #A80036; stroke-width: 1.0;"/><line style="stroke: #A80036; stroke-width: 1.0; stroke-dasharray: 2.0,2.0;" x1="47" x2="369.5" y1="99.1094" y2="99.1094"/><text fill="#000000" font-family="sans-serif" font-size="13" lengthAdjust="spacingAndGlyphs" textLength="106" x="59" y="94.3672">aConcreteBuilder</text><polygon fill="#A80036" points="243,124.4199,253,128.4199,243,132.4199,247,128.4199" style="stroke: #A80036; stroke-width: 1.0;"/><line style="stroke: #A80036; stroke-width: 1.0;" x1="42" x2="249" y1="128.4199" y2="128.4199"/><text fill="#000000" font-family="sans-serif" font-size="13" lengthAdjust="spacingAndGlyphs" textLength="194" x="49" y="123.6777">new Director(aConcreteBuilder)</text><polygon fill="#A80036" points="53,153.7305,43,157.7305,53,161.7305,49,157.7305" style="stroke: #A80036; stroke-width: 1.0;"/><line style="stroke: #A80036; stroke-width: 1.0; stroke-dasharray: 2.0,2.0;" x1="47" x2="259" y1="157.7305" y2="157.7305"/><text fill="#000000" font-family="sans-serif" font-size="13" lengthAdjust="spacingAndGlyphs" textLength="58" x="59" y="152.9883">aDirector</text><polygon fill="#A80036" points="243,183.041,253,187.041,243,191.041,247,187.041" style="stroke: #A80036; stroke-width: 1.0;"/><line style="stroke: #A80036; stroke-width: 1.0;" x1="42" x2="249" y1="187.041" y2="187.041"/><text fill="#000000" font-family="sans-serif" font-size="13" lengthAdjust="spacingAndGlyphs" textLength="88" x="49" y="182.2988">buildProduct()</text><polygon fill="#A80036" points="353.5,212.3516,363.5,216.3516,353.5,220.3516,357.5,216.3516" style="stroke: #A80036; stroke-width: 1.0;"/><line style="stroke: #A80036; stroke-width: 1.0;" x1="265" x2="359.5" y1="216.3516" y2="216.3516"/><text fill="#000000" font-family="sans-serif" font-size="13" lengthAdjust="spacingAndGlyphs" textLength="73" x="272" y="211.6094">buildPartA()</text><polygon fill="#A80036" points="276,226.3516,266,230.3516,276,234.3516,272,230.3516" style="stroke: #A80036; stroke-width: 1.0;"/><line style="stroke: #A80036; stroke-width: 1.0; stroke-dasharray: 2.0,2.0;" x1="270" x2="369.5" y1="230.3516" y2="230.3516"/><polygon fill="#A80036" points="353.5,255.6621,363.5,259.6621,353.5,263.6621,357.5,259.6621" style="stroke: #A80036; stroke-width: 1.0;"/><line style="stroke: #A80036; stroke-width: 1.0;" x1="265" x2="359.5" y1="259.6621" y2="259.6621"/><text fill="#000000" font-family="sans-serif" font-size="13" lengthAdjust="spacingAndGlyphs" textLength="71" x="272" y="254.9199">buildPartB()</text><polygon fill="#A80036" points="276,269.6621,266,273.6621,276,277.6621,272,273.6621" style="stroke: #A80036; stroke-width: 1.0;"/><line style="stroke: #A80036; stroke-width: 1.0; stroke-dasharray: 2.0,2.0;" x1="270" x2="369.5" y1="273.6621" y2="273.6621"/><polygon fill="#A80036" points="353.5,298.9727,363.5,302.9727,353.5,306.9727,357.5,302.9727" style="stroke: #A80036; stroke-width: 1.0;"/><line style="stroke: #A80036; stroke-width: 1.0;" x1="265" x2="359.5" y1="302.9727" y2="302.9727"/><text fill="#000000" font-family="sans-serif" font-size="13" lengthAdjust="spacingAndGlyphs" textLength="76" x="272" y="298.2305">getProduct()</text><polygon fill="#A80036" points="276,328.2832,266,332.2832,276,336.2832,272,332.2832" style="stroke: #A80036; stroke-width: 1.0;"/><line style="stroke: #A80036; stroke-width: 1.0; stroke-dasharray: 2.0,2.0;" x1="270" x2="369.5" y1="332.2832" y2="332.2832"/><text fill="#000000" font-family="sans-serif" font-size="13" lengthAdjust="spacingAndGlyphs" textLength="55" x="282" y="327.541">aProduct</text><polygon fill="#A80036" points="53,342.2832,43,346.2832,53,350.2832,49,346.2832" style="stroke: #A80036; stroke-width: 1.0;"/><line style="stroke: #A80036; stroke-width: 1.0; stroke-dasharray: 2.0,2.0;" x1="47" x2="259" y1="346.2832" y2="346.2832"/><!--
@startuml
participant Client order 1
participant Director order 2
participant ConcreteBuilder order 3

activate Client

Client -> ConcreteBuilder: new ConcreteBuilder()
activate ConcreteBuilder
Client <- - ConcreteBuilder: aConcreteBuilder
deactivate ConcreteBuilder

Client -> Director: new Director(aConcreteBuilder)
activate Director
Client <- - Director: aDirector
deactivate Director

Client -> Director: buildProduct()
activate Director
  Director -> ConcreteBuilder: buildPartA()
  activate ConcreteBuilder
  Director <- - ConcreteBuilder
  deactivate ConcreteBuilder

  Director -> ConcreteBuilder: buildPartB()
  activate ConcreteBuilder
  Director <- - ConcreteBuilder
  deactivate ConcreteBuilder

  Director -> ConcreteBuilder: getProduct()
  activate ConcreteBuilder
  Director <- - ConcreteBuilder: aProduct
  deactivate ConcreteBuilder
Client <- - Director
deactivate Director
@enduml

PlantUML version 1.2019.04(Fri Mar 29 23:44:36 CST 2019)
(GPL source distribution)
Java Runtime: Java(TM) SE Runtime Environment
JVM: Java HotSpot(TM) 64-Bit Server VM
Java Version: 1.8.0_152-b16
Operating System: Mac OS X
OS Version: 10.14
Default Encoding: UTF-8
Language: zh
Country: CN
--></g></svg>