<?xml version="1.0" encoding="UTF-8" standalone="no"?><svg xmlns="http://www.w3.org/2000/svg" xmlns:xlink="http://www.w3.org/1999/xlink" contentScriptType="application/ecmascript" contentStyleType="text/css" height="404px" preserveAspectRatio="none" style="width:412px;height:404px;" version="1.1" viewBox="0 0 412 404" width="412px" zoomAndPan="magnify"><defs><filter height="300%" id="fuhdkr33a9w2j" width="300%" x="-1" y="-1"><feGaussianBlur result="blurOut" stdDeviation="2.0"/><feColorMatrix in="blurOut" result="blurOut2" type="matrix" values="0 0 0 0 0 0 0 0 0 0 0 0 0 0 0 0 0 0 .4 0"/><feOffset dx="4.0" dy="4.0" in="blurOut2" result="blurOut3"/><feBlend in="SourceGraphic" in2="blurOut3" mode="normal"/></filter></defs><g><rect fill="#FFFFFF" filter="url(#fuhdkr33a9w2j)" height="306.7949" style="stroke: #A80036; stroke-width: 1.0;" width="10" x="32" y="48.4883"/><rect fill="#FFFFFF" filter="url(#fuhdkr33a9w2j)" height="29.3105" style="stroke: #A80036; stroke-width: 1.0;" width="10" x="226" y="128.4199"/><rect fill="#FFFFFF" filter="url(#fuhdkr33a9w2j)" height="100.6211" style="stroke: #A80036; stroke-width: 1.0;" width="10" x="226" y="187.041"/><rect fill="#FFFFFF" filter="url(#fuhdkr33a9w2j)" height="29.3105" style="stroke: #A80036; stroke-width: 1.0;" width="10" x="336.5" y="69.7988"/><rect fill="#FFFFFF" filter="url(#fuhdkr33a9w2j)" height="14" style="stroke: #A80036; stroke-width: 1.0;" width="10" x="336.5" y="216.3516"/><rect fill="#FFFFFF" filter="url(#fuhdkr33a9w2j)" height="14" style="stroke: #A80036; stroke-width: 1.0;" width="10" x="336.5" y="259.6621"/><rect fill="#FFFFFF" filter="url(#fuhdkr33a9w2j)" height="29.3105" style="stroke: #A80036; stroke-width: 1.0;" width="10" x="336.5" y="316.9727"/><line style="stroke: #A80036; stroke-width: 1.0; stroke-dasharray: 5.0,5.0;" x1="37" x2="37" y1="38.4883" y2="364.2832"/><line style="stroke: #A80036; stroke-width: 1.0; stroke-dasharray: 5.0,5.0;" x1="230.5" x2="230.5" y1="38.4883" y2="364.2832"/><line style="stroke: #A80036; stroke-width: 1.0; stroke-dasharray: 5.0,5.0;" x1="341.5" x2="341.5" y1="38.4883" y2="364.2832"/><rect fill="#FEFECE" filter="url(#fuhdkr33a9w2j)" height="30.4883" style="stroke: #A80036; stroke-width: 1.5;" width="54" x="8" y="3"/><text fill="#000000" font-family="sans-serif" font-size="14" lengthAdjust="spacingAndGlyphs" textLength="40" x="15" y="23.5352">Client</text><rect fill="#FEFECE" filter="url(#fuhdkr33a9w2j)" height="30.4883" style="stroke: #A80036; stroke-width: 1.5;" width="54" x="8" y="363.2832"/><text fill="#000000" font-family="sans-serif" font-size="14" lengthAdjust="spacingAndGlyphs" textLength="40" x="15" y="383.8184">Client</text><rect fill="#FEFECE" filter="url(#fuhdkr33a9w2j)" height="30.4883" style="stroke: #A80036; stroke-width: 1.5;" width="69" x="194.5" y="3"/><text fill="#000000" font-family="sans-serif" font-size="14" lengthAdjust="spacingAndGlyphs" textLength="55" x="201.5" y="23.5352">Director</text><rect fill="#FEFECE" filter="url(#fuhdkr33a9w2j)" height="30.4883" style="stroke: #A80036; stroke-width: 1.5;" width="69" x="194.5" y="363.2832"/><text fill="#000000" font-family="sans-serif" font-size="14" lengthAdjust="spacingAndGlyphs" textLength="55" x="201.5" y="383.8184">Director</text><rect fill="#FEFECE" filter="url(#fuhdkr33a9w2j)" height="30.4883" style="stroke: #A80036; stroke-width: 1.5;" width="124" x="277.5" y="3"/><text fill="#000000" font-family="sans-serif" font-size="14" lengthAdjust="spacingAndGlyphs" textLength="110" x="284.5" y="23.5352">ConcreteBuilder</text><rect fill="#FEFECE" filter="url(#fuhdkr33a9w2j)" height="30.4883" style="stroke: #A80036; stroke-width: 1.5;" width="124" x="277.5" y="363.2832"/><text fill="#000000" font-family="sans-serif" font-size="14" lengthAdjust="spacingAndGlyphs" textLength="110" x="284.5" y="383.8184">ConcreteBuilder</text><rect fill="#FFFFFF" filter="url(#fuhdkr33a9w2j)" height="306.7949" style="stroke: #A80036; stroke-width: 1.0;" width="10" x="32" y="48.4883"/><rect fill="#FFFFFF" filter="url(#fuhdkr33a9w2j)" height="29.3105" style="stroke: #A80036; stroke-width: 1.0;" width="10" x="226" y="128.4199"/><rect fill="#FFFFFF" filter="url(#fuhdkr33a9w2j)" height="100.6211" style="stroke: #A80036; stroke-width: 1.0;" width="10" x="226" y="187.041"/><rect fill="#FFFFFF" filter="url(#fuhdkr33a9w2j)" height="29.3105" style="stroke: #A80036; stroke-width: 1.0;" width="10" x="336.5" y="69.7988"/><rect fill="#FFFFFF" filter="url(#fuhdkr33a9w2j)" height="14" style="stroke: #A80036; stroke-width: 1.0;" width="10" x="336.5" y="216.3516"/><rect fill="#FFFFFF" filter="url(#fuhdkr33a9w2j)" height="14" style="stroke: #A80036; stroke-width: 1.0;" width="10" x="336.5" y="259.6621"/><rect fill="#FFFFFF" filter="url(#fuhdkr33a9w2j)" height="29.3105" style="stroke: #A80036; stroke-width: 1.0;" width="10" x="336.5" y="316.9727"/><polygon fill="#A80036" points="324.5,65.7988,334.5,69.7988,324.5,73.7988,328.5,69.7988" style="stroke: #A80036; stroke-width: 1.0;"/><line style="stroke: #A80036; stroke-width: 1.0;" x1="42" x2="330.5" y1="69.7988" y2="69.7988"/><text fill="#000000" font-family="sans-serif" font-size="13" lengthAdjust="spacingAndGlyphs" textLength="107" x="49" y="65.0566">ConcreteBuilder()</text><polygon fill="#A80036" points="53,95.1094,43,99.1094,53,103.1094,49,99.1094" style="stroke: #A80036; stroke-width: 1.0;"/><line style="stroke: #A80036; stroke-width: 1.0; stroke-dasharray: 2.0,2.0;" x1="47" x2="340.5" y1="99.1094" y2="99.1094"/><text fill="#000000" font-family="sans-serif" font-size="13" lengthAdjust="spacingAndGlyphs" textLength="106" x="59" y="94.3672">aConcreteBuilder</text><polygon fill="#A80036" points="214,124.4199,224,128.4199,214,132.4199,218,128.4199" style="stroke: #A80036; stroke-width: 1.0;"/><line style="stroke: #A80036; stroke-width: 1.0;" x1="42" x2="220" y1="128.4199" y2="128.4199"/><text fill="#000000" font-family="sans-serif" font-size="13" lengthAdjust="spacingAndGlyphs" textLength="165" x="49" y="123.6777">Director(aConcreteBuilder)</text><polygon fill="#A80036" points="53,153.7305,43,157.7305,53,161.7305,49,157.7305" style="stroke: #A80036; stroke-width: 1.0;"/><line style="stroke: #A80036; stroke-width: 1.0; stroke-dasharray: 2.0,2.0;" x1="47" x2="230" y1="157.7305" y2="157.7305"/><text fill="#000000" font-family="sans-serif" font-size="13" lengthAdjust="spacingAndGlyphs" textLength="58" x="59" y="152.9883">aDirector</text><polygon fill="#A80036" points="214,183.041,224,187.041,214,191.041,218,187.041" style="stroke: #A80036; stroke-width: 1.0;"/><line style="stroke: #A80036; stroke-width: 1.0;" x1="42" x2="220" y1="187.041" y2="187.041"/><text fill="#000000" font-family="sans-serif" font-size="13" lengthAdjust="spacingAndGlyphs" textLength="70" x="49" y="182.2988">Construct()</text><polygon fill="#A80036" points="324.5,212.3516,334.5,216.3516,324.5,220.3516,328.5,216.3516" style="stroke: #A80036; stroke-width: 1.0;"/><line style="stroke: #A80036; stroke-width: 1.0;" x1="236" x2="330.5" y1="216.3516" y2="216.3516"/><text fill="#000000" font-family="sans-serif" font-size="13" lengthAdjust="spacingAndGlyphs" textLength="72" x="243" y="211.6094">BuildPartA()</text><polygon fill="#A80036" points="247,226.3516,237,230.3516,247,234.3516,243,230.3516" style="stroke: #A80036; stroke-width: 1.0;"/><line style="stroke: #A80036; stroke-width: 1.0; stroke-dasharray: 2.0,2.0;" x1="241" x2="340.5" y1="230.3516" y2="230.3516"/><polygon fill="#A80036" points="324.5,255.6621,334.5,259.6621,324.5,263.6621,328.5,259.6621" style="stroke: #A80036; stroke-width: 1.0;"/><line style="stroke: #A80036; stroke-width: 1.0;" x1="236" x2="330.5" y1="259.6621" y2="259.6621"/><text fill="#000000" font-family="sans-serif" font-size="13" lengthAdjust="spacingAndGlyphs" textLength="70" x="243" y="254.9199">BuildPartB()</text><polygon fill="#A80036" points="247,269.6621,237,273.6621,247,277.6621,243,273.6621" style="stroke: #A80036; stroke-width: 1.0;"/><line style="stroke: #A80036; stroke-width: 1.0; stroke-dasharray: 2.0,2.0;" x1="241" x2="340.5" y1="273.6621" y2="273.6621"/><polygon fill="#A80036" points="53,283.6621,43,287.6621,53,291.6621,49,287.6621" style="stroke: #A80036; stroke-width: 1.0;"/><line style="stroke: #A80036; stroke-width: 1.0; stroke-dasharray: 2.0,2.0;" x1="47" x2="230" y1="287.6621" y2="287.6621"/><polygon fill="#A80036" points="324.5,312.9727,334.5,316.9727,324.5,320.9727,328.5,316.9727" style="stroke: #A80036; stroke-width: 1.0;"/><line style="stroke: #A80036; stroke-width: 1.0;" x1="42" x2="330.5" y1="316.9727" y2="316.9727"/><text fill="#000000" font-family="sans-serif" font-size="13" lengthAdjust="spacingAndGlyphs" textLength="77" x="49" y="312.2305">GetProduct()</text><polygon fill="#A80036" points="53,342.2832,43,346.2832,53,350.2832,49,346.2832" style="stroke: #A80036; stroke-width: 1.0;"/><line style="stroke: #A80036; stroke-width: 1.0; stroke-dasharray: 2.0,2.0;" x1="47" x2="340.5" y1="346.2832" y2="346.2832"/><text fill="#000000" font-family="sans-serif" font-size="13" lengthAdjust="spacingAndGlyphs" textLength="55" x="59" y="341.541">aProduct</text><!--
@startuml
participant Client order 1
participant Director order 2
participant ConcreteBuilder order 3

activate Client
  Client -> ConcreteBuilder: ConcreteBuilder()
  activate ConcreteBuilder
  Client <- - ConcreteBuilder: aConcreteBuilder
  deactivate ConcreteBuilder

  Client -> Director: Director(aConcreteBuilder)
  activate Director
  Client <- - Director: aDirector
  deactivate Director

  Client -> Director: Construct()
  activate Director
    Director -> ConcreteBuilder: BuildPartA()
    activate ConcreteBuilder
    Director <- - ConcreteBuilder
    deactivate ConcreteBuilder

    Director -> ConcreteBuilder: BuildPartB()
    activate ConcreteBuilder
    Director <- - ConcreteBuilder
    deactivate ConcreteBuilder
  Client <- - Director
  deactivate Director

  Client -> ConcreteBuilder: GetProduct()
  activate ConcreteBuilder
  Client <- - ConcreteBuilder : aProduct
  deactivate ConcreteBuilder
@enduml

PlantUML version 1.2019.04(Fri Mar 29 23:44:36 CST 2019)
(GPL source distribution)
Java Runtime: Java(TM) SE Runtime Environment
JVM: Java HotSpot(TM) 64-Bit Server VM
Java Version: 1.8.0_152-b16
Operating System: Mac OS X
OS Version: 10.14
Default Encoding: UTF-8
Language: zh
Country: CN
--></g></svg>