<?xml version="1.0" encoding="UTF-8" standalone="no"?><svg xmlns="http://www.w3.org/2000/svg" xmlns:xlink="http://www.w3.org/1999/xlink" contentScriptType="application/ecmascript" contentStyleType="text/css" height="164px" preserveAspectRatio="none" style="width:486px;height:164px;" version="1.1" viewBox="0 0 486 164" width="486px" zoomAndPan="magnify"><defs><filter height="300%" id="fse9vo1v0xzjn" width="300%" x="-1" y="-1"><feGaussianBlur result="blurOut" stdDeviation="2.0"/><feColorMatrix in="blurOut" result="blurOut2" type="matrix" values="0 0 0 0 0 0 0 0 0 0 0 0 0 0 0 0 0 0 .4 0"/><feOffset dx="4.0" dy="4.0" in="blurOut2" result="blurOut3"/><feBlend in="SourceGraphic" in2="blurOut3" mode="normal"/></filter></defs><g><!--class Prototype--><rect fill="#FEFECE" filter="url(#fse9vo1v0xzjn)" height="52.9551" id="Prototype" style="stroke: #A80036; stroke-width: 1.5;" width="131" x="6" y="8"/><ellipse cx="40.8" cy="24" fill="#B4A7E5" rx="11" ry="11" style="stroke: #A80036; stroke-width: 1.0;"/><path d="M37.2277,20.2651 L37.2277,18.1069 L44.6071,18.1069 L44.6071,20.2651 L42.1418,20.2651 L42.1418,28.3418 L44.6071,28.3418 L44.6071,30.5 L37.2277,30.5 L37.2277,28.3418 L39.6931,28.3418 L39.6931,20.2651 Z "/><text fill="#000000" font-family="sans-serif" font-size="12" font-style="italic" lengthAdjust="spacingAndGlyphs" textLength="55" x="59.2" y="28.5352">Prototype</text><line style="stroke: #A80036; stroke-width: 1.5;" x1="7" x2="136" y1="40" y2="40"/><ellipse cx="17" cy="51.9775" fill="#84BE84" rx="3" ry="3" style="stroke: #038048; stroke-width: 1.0;"/><text fill="#000000" font-family="sans-serif" font-size="11" font-style="italic" lengthAdjust="spacingAndGlyphs" textLength="105" x="26" y="54.6348">Clone() : Prototype*</text><!--class ConcretePrototype--><rect fill="#FEFECE" filter="url(#fse9vo1v0xzjn)" height="52.9551" id="ConcretePrototype" style="stroke: #A80036; stroke-width: 1.5;" width="180" x="172.5" y="8"/><ellipse cx="206.4" cy="24" fill="#ADD1B2" rx="11" ry="11" style="stroke: #A80036; stroke-width: 1.0;"/><path d="M208.8731,30.1431 Q208.2921,30.4419 207.6529,30.5913 Q207.0138,30.7407 206.3082,30.7407 Q203.8014,30.7407 202.4815,29.0889 Q201.1617,27.437 201.1617,24.3159 Q201.1617,21.1865 202.4815,19.5347 Q203.8014,17.8828 206.3082,17.8828 Q207.0138,17.8828 207.6612,18.0322 Q208.3087,18.1816 208.8731,18.4805 L208.8731,21.2031 Q208.2423,20.6221 207.6488,20.3523 Q207.0553,20.0825 206.4244,20.0825 Q205.0797,20.0825 204.3949,21.1492 Q203.7101,22.2158 203.7101,24.3159 Q203.7101,26.4077 204.3949,27.4744 Q205.0797,28.541 206.4244,28.541 Q207.0553,28.541 207.6488,28.2712 Q208.2423,28.0015 208.8731,27.4204 Z "/><text fill="#000000" font-family="sans-serif" font-size="12" lengthAdjust="spacingAndGlyphs" textLength="106" x="224.6" y="28.5352">ConcretePrototype</text><line style="stroke: #A80036; stroke-width: 1.5;" x1="173.5" x2="351.5" y1="40" y2="40"/><ellipse cx="183.5" cy="51.9775" fill="#84BE84" rx="3" ry="3" style="stroke: #038048; stroke-width: 1.0;"/><text fill="#000000" font-family="sans-serif" font-size="11" lengthAdjust="spacingAndGlyphs" textLength="154" x="192.5" y="54.6348">Clone() : ConcretePrototype*</text><!--class Client--><rect fill="#FEFECE" filter="url(#fse9vo1v0xzjn)" height="32" id="Client" style="stroke: #A80036; stroke-width: 1.5;" width="64" x="39.5" y="121"/><ellipse cx="54.5" cy="137" fill="#ADD1B2" rx="11" ry="11" style="stroke: #A80036; stroke-width: 1.0;"/><path d="M56.9731,143.1431 Q56.3921,143.4419 55.7529,143.5913 Q55.1138,143.7407 54.4082,143.7407 Q51.9014,143.7407 50.5815,142.0889 Q49.2617,140.437 49.2617,137.3159 Q49.2617,134.1865 50.5815,132.5347 Q51.9014,130.8828 54.4082,130.8828 Q55.1138,130.8828 55.7612,131.0322 Q56.4087,131.1816 56.9731,131.4805 L56.9731,134.2031 Q56.3423,133.6221 55.7488,133.3523 Q55.1553,133.0825 54.5244,133.0825 Q53.1797,133.0825 52.4949,134.1492 Q51.8101,135.2158 51.8101,137.3159 Q51.8101,139.4077 52.4949,140.4744 Q53.1797,141.541 54.5244,141.541 Q55.1553,141.541 55.7488,141.2712 Q56.3423,141.0015 56.9731,140.4204 Z "/><text fill="#000000" font-family="sans-serif" font-size="12" lengthAdjust="spacingAndGlyphs" textLength="32" x="68.5" y="141.5352">Client</text><path d="M138.5,124.5 L138.5,133 L103.6289,137 L138.5,141 L138.5,149.8105 A0,0 0 0 0 138.5,149.8105 L474.5,149.8105 A0,0 0 0 0 474.5,149.8105 L474.5,134.5 L464.5,124.5 L138.5,124.5 A0,0 0 0 0 138.5,124.5 " fill="#FBFB77" filter="url(#fse9vo1v0xzjn)" style="stroke: #A80036; stroke-width: 1.0;"/><path d="M464.5,124.5 L464.5,134.5 L474.5,134.5 L464.5,124.5 " fill="#FBFB77" style="stroke: #A80036; stroke-width: 1.0;"/><text fill="#000000" font-family="sans-serif" font-size="13" lengthAdjust="spacingAndGlyphs" textLength="315" x="144.5" y="142.0684">Prototype* aNewPrototype = aPrototype-&gt;Clone();</text><!--link Prototype to ConcretePrototype--><path d="M157.2614,34.5 C162.3107,34.5 167.3599,34.5 172.4092,34.5 " fill="none" id="Prototype-ConcretePrototype" style="stroke: #A80036; stroke-width: 1.0;"/><polygon fill="none" points="157.1563,41.4999,137.1563,34.5,157.1562,27.4999,157.1563,41.4999" style="stroke: #A80036; stroke-width: 1.0;"/><!--link Prototype to Client--><path d="M71.5,66.6098 C71.5,84.5782 71.5,106.2122 71.5,120.7117 " fill="none" id="Prototype-Client" style="stroke: #A80036; stroke-width: 1.0;"/><polygon fill="#A80036" points="71.5,61.1631,67.5,70.1631,71.5,66.1631,75.5,70.1631,71.5,61.1631" style="stroke: #A80036; stroke-width: 1.0;"/><!--
@startuml
Prototype <|- ConcretePrototype
Prototype <- - Client

interface Prototype {
  {abstract} +Clone() : Prototype*
}
note right of Client: Prototype* aNewPrototype = aPrototype->Clone();
class ConcretePrototype {
  +Clone() : ConcretePrototype*
}

hide empty attributes
hide empty methods
@enduml

PlantUML version 1.2019.04(Fri Mar 29 23:44:36 CST 2019)
(GPL source distribution)
Java Runtime: Java(TM) SE Runtime Environment
JVM: Java HotSpot(TM) 64-Bit Server VM
Java Version: 1.8.0_152-b16
Operating System: Mac OS X
OS Version: 10.14
Default Encoding: UTF-8
Language: zh
Country: CN
--></g></svg>