<?xml version="1.0" encoding="UTF-8" standalone="no"?><svg xmlns="http://www.w3.org/2000/svg" xmlns:xlink="http://www.w3.org/1999/xlink" contentScriptType="application/ecmascript" contentStyleType="text/css" height="175px" preserveAspectRatio="none" style="width:131px;height:175px;" version="1.1" viewBox="0 0 131 175" width="131px" zoomAndPan="magnify"><defs><filter height="300%" id="f9wzng83cnurz" width="300%" x="-1" y="-1"><feGaussianBlur result="blurOut" stdDeviation="2.0"/><feColorMatrix in="blurOut" result="blurOut2" type="matrix" values="0 0 0 0 0 0 0 0 0 0 0 0 0 0 0 0 0 0 .4 0"/><feOffset dx="4.0" dy="4.0" in="blurOut2" result="blurOut3"/><feBlend in="SourceGraphic" in2="blurOut3" mode="normal"/></filter></defs><g><!--class A--><rect fill="#FEFECE" filter="url(#f9wzng83cnurz)" height="48" id="A" style="stroke: #A80036; stroke-width: 1.5;" width="40" x="42.5" y="8"/><ellipse cx="57.5" cy="24" fill="#ADD1B2" rx="11" ry="11" style="stroke: #A80036; stroke-width: 1.0;"/><path d="M59.9731,30.1431 Q59.3921,30.4419 58.7529,30.5913 Q58.1138,30.7407 57.4082,30.7407 Q54.9014,30.7407 53.5815,29.0889 Q52.2617,27.437 52.2617,24.3159 Q52.2617,21.1865 53.5815,19.5347 Q54.9014,17.8828 57.4082,17.8828 Q58.1138,17.8828 58.7612,18.0322 Q59.4087,18.1816 59.9731,18.4805 L59.9731,21.2031 Q59.3423,20.6221 58.7488,20.3523 Q58.1553,20.0825 57.5244,20.0825 Q56.1797,20.0825 55.4949,21.1492 Q54.8101,22.2158 54.8101,24.3159 Q54.8101,26.4077 55.4949,27.4744 Q56.1797,28.541 57.5244,28.541 Q58.1553,28.541 58.7488,28.2712 Q59.3423,28.0015 59.9731,27.4204 Z "/><text fill="#000000" font-family="sans-serif" font-size="12" lengthAdjust="spacingAndGlyphs" textLength="8" x="71.5" y="28.5352">A</text><line style="stroke: #A80036; stroke-width: 1.5;" x1="43.5" x2="81.5" y1="40" y2="40"/><line style="stroke: #A80036; stroke-width: 1.5;" x1="43.5" x2="81.5" y1="48" y2="48"/><!--class B--><rect fill="#FEFECE" filter="url(#f9wzng83cnurz)" height="48" id="B" style="stroke: #A80036; stroke-width: 1.5;" width="39" x="6" y="116"/><ellipse cx="21" cy="132" fill="#ADD1B2" rx="11" ry="11" style="stroke: #A80036; stroke-width: 1.0;"/><path d="M23.4731,138.1431 Q22.8921,138.4419 22.2529,138.5913 Q21.6138,138.7407 20.9082,138.7407 Q18.4014,138.7407 17.0815,137.0889 Q15.7617,135.437 15.7617,132.3159 Q15.7617,129.1865 17.0815,127.5347 Q18.4014,125.8828 20.9082,125.8828 Q21.6138,125.8828 22.2612,126.0322 Q22.9087,126.1816 23.4731,126.4805 L23.4731,129.2031 Q22.8423,128.6221 22.2488,128.3523 Q21.6553,128.0825 21.0244,128.0825 Q19.6797,128.0825 18.9949,129.1492 Q18.3101,130.2158 18.3101,132.3159 Q18.3101,134.4077 18.9949,135.4744 Q19.6797,136.541 21.0244,136.541 Q21.6553,136.541 22.2488,136.2712 Q22.8423,136.0015 23.4731,135.4204 Z "/><text fill="#000000" font-family="sans-serif" font-size="12" lengthAdjust="spacingAndGlyphs" textLength="7" x="35" y="136.5352">B</text><line style="stroke: #A80036; stroke-width: 1.5;" x1="7" x2="44" y1="148" y2="148"/><line style="stroke: #A80036; stroke-width: 1.5;" x1="7" x2="44" y1="156" y2="156"/><!--class C--><rect fill="#FEFECE" filter="url(#f9wzng83cnurz)" height="48" id="C" style="stroke: #A80036; stroke-width: 1.5;" width="40" x="80.5" y="116"/><ellipse cx="95.5" cy="132" fill="#ADD1B2" rx="11" ry="11" style="stroke: #A80036; stroke-width: 1.0;"/><path d="M97.9731,138.1431 Q97.3921,138.4419 96.7529,138.5913 Q96.1138,138.7407 95.4082,138.7407 Q92.9014,138.7407 91.5815,137.0889 Q90.2617,135.437 90.2617,132.3159 Q90.2617,129.1865 91.5815,127.5347 Q92.9014,125.8828 95.4082,125.8828 Q96.1138,125.8828 96.7612,126.0322 Q97.4087,126.1816 97.9731,126.4805 L97.9731,129.2031 Q97.3423,128.6221 96.7488,128.3523 Q96.1553,128.0825 95.5244,128.0825 Q94.1797,128.0825 93.4949,129.1492 Q92.8101,130.2158 92.8101,132.3159 Q92.8101,134.4077 93.4949,135.4744 Q94.1797,136.541 95.5244,136.541 Q96.1553,136.541 96.7488,136.2712 Q97.3423,136.0015 97.9731,135.4204 Z "/><text fill="#000000" font-family="sans-serif" font-size="12" lengthAdjust="spacingAndGlyphs" textLength="8" x="109.5" y="136.5352">C</text><line style="stroke: #A80036; stroke-width: 1.5;" x1="81.5" x2="119.5" y1="148" y2="148"/><line style="stroke: #A80036; stroke-width: 1.5;" x1="81.5" x2="119.5" y1="156" y2="156"/><!--link A to B--><path d="M47.6567,75.3264 C42.9272,89.1315 37.8656,103.9059 33.7758,115.8436 " fill="none" id="A-B" style="stroke: #A80036; stroke-width: 1.0;"/><polygon fill="none" points="41.0922,72.889,54.1965,56.2373,54.3366,77.4265,41.0922,72.889" style="stroke: #A80036; stroke-width: 1.0;"/><!--link A to C--><path d="M77.7445,75.3264 C82.6018,89.1315 87.8002,103.9059 92.0005,115.8436 " fill="none" id="A-C" style="stroke: #A80036; stroke-width: 1.0;"/><polygon fill="none" points="71.0629,77.4269,71.0279,56.2373,84.2693,72.7802,71.0629,77.4269" style="stroke: #A80036; stroke-width: 1.0;"/><!--
@startuml
A <|- - B
A <|- - C
@enduml

PlantUML version 1.2019.04(Fri Mar 29 23:44:36 CST 2019)
(GPL source distribution)
Java Runtime: Java(TM) SE Runtime Environment
JVM: Java HotSpot(TM) 64-Bit Server VM
Java Version: 1.8.0_152-b16
Operating System: Mac OS X
OS Version: 10.14
Default Encoding: UTF-8
Language: zh
Country: CN
--></g></svg>