<svg xmlns="http://www.w3.org/2000/svg" xmlns:xlink="http://www.w3.org/1999/xlink" version="1.1" width="393.1999pt" height="183.12302pt" viewBox="0 0 393.1999 183.12302">
<defs>
<clipPath id="clip_0">
<path transform="matrix(1,0,0,-1,-42.8081,538.275)" d="M42.8081 355.152H436.008V538.275H42.8081Z" fill-rule="evenodd"/>
</clipPath>
<path id="font_1_7" d="M.07763672 .08496094C.09554037 .08496094 .11922201 .075520839 .14868164 .056640626 .17814128 .037760419 .203125 .028320313 .22363281 .028320313 .26920573 .028320313 .3030599 .04377238 .3251953 .07467651 .34733073 .10559082 .35839845 .13920085 .35839845 .17550659 .35839845 .21051026 .34944663 .24125672 .33154298 .26774598 .30126954 .31255595 .25016276 .33496095 .17822266 .33496095 .17399089 .33496095 .16992188 .33487956 .16601563 .3347168 .16210938 .33455406 .15755208 .33414714 .15234375 .3334961L.15136719 .3461914C.20345052 .3650411 .24446614 .38664756 .27441407 .41101075 .30436198 .43538413 .31933595 .46755473 .31933595 .5075226 .31933595 .5429433 .3075358 .5699107 .28393556 .5884247 .2603353 .60694888 .23339844 .61621096 .203125 .61621096 .1673177 .61621096 .13574219 .60302737 .10839844 .57666018 .09342448 .5623372 .077311199 .54020187 .060058595 .5102539L.044921876 .5136719C.057942708 .56315109 .08219401 .60270187 .11767578 .6323242 .15315755 .6619466 .19417317 .6767578 .24072266 .6767578 .29052735 .6767578 .32902018 .66308596 .35620118 .6357422 .38338218 .60839846 .39697267 .57682296 .39697267 .5410156 .39697267 .5094401 .3857422 .48046876 .36328126 .45410157 .35058595 .4391276 .33089195 .42236329 .30419923 .4038086 .33544923 .3904419 .3605143 .37479655 .37939454 .35687257 .4148763 .3226522 .4326172 .27930705 .4326172 .22683716 .4326172 .16491699 .40828453 .11032613 .35961915 .063064578 .31095378 .015813193 .24169922-.0078125 .15185547-.0078125 .111816409-.0078125 .083740238-.0018412272 .06762695 .010101318 .051513673 .022043864 .04345703 .034886678 .04345703 .04862976 .04345703 .057144166 .046142579 .065327968 .051513673 .07318115 .056884767 .08103434 .065592449 .08496094 .07763672 .08496094Z"/>
<path id="font_1_5" d="M.29589845 .67089846C.29720054 .6692708 .29793296 .6680501 .2980957 .6672363 .29825846 .66642257 .29833985 .6645508 .29833985 .6616211V.07421875C.29833985 .048950197 .30501304 .03286743 .31835938 .025970459 .33170573 .019083659 .35660807 .014984131 .3930664 .013671875V0H.11767578V.0146484379C.1570638 .01663208 .18277996 .02207438 .19482422 .030975342 .20686849 .039886476 .21289063 .059183759 .21289063 .08886719V.54003909C.21289063 .55595907 .2109375 .56799319 .20703125 .57614138 .203125 .58429977 .19466146 .5883789 .18164063 .5883789 .17317708 .5883789 .16219075 .58601889 .14868164 .5812988 .13517253 .5765788 .122558597 .57161459 .110839847 .56640627V.5800781L.29003907 .67089846H.29589845Z"/>
<path id="font_2_1" d="M0 0Z"/>
<path id="font_1_4" d="M.23925781 .018554688C.28710938 .018554688 .31998698 .04473877 .33789063 .09710693 .35579429 .1494751 .3647461 .22526042 .3647461 .3244629 .3647461 .40350343 .359375 .46660868 .3486328 .5137787 .32845054 .6015981 .2906901 .6455078 .23535156 .6455078 .18001302 .6455078 .14208985 .600296 .12158203 .50987246 .110839847 .46173606 .10546875 .39831034 .10546875 .31959535 .10546875 .24575298 .1110026 .18671672 .12207031 .14248657 .14290364 .059865316 .18196614 .018554688 .23925781 .018554688M.23779297 .671875C.31266276 .671875 .37076823 .6326192 .41210938 .55410769 .44498698 .49059043 .46142579 .4176229 .46142579 .33520509 .46142579 .27038575 .45133464 .20930989 .43115235 .15197754 .3930664 .04414876 .32714845-.009765625 .23339844-.009765625 .16927083-.009765625 .11653646 .019388834 .07519531 .077697757 .030924479 .13991292 .0087890629 .22444661 .0087890629 .33129884 .0087890629 .41534425 .02360026 .48766075 .053222658 .5482483 .09326172 .6306661 .15478516 .671875 .23779297 .671875Z"/>
<path id="font_1_6" d="M.029785157 .011230469C.14892578 .13485718 .2298177 .22561138 .27246095 .28349305 .31510417 .3413849 .33642579 .3978119 .33642579 .45277406 .33642579 .50091049 .32340495 .53757736 .29736329 .56277468 .27132163 .5879822 .24023438 .60058596 .20410156 .60058596 .1595052 .60058596 .1233724 .58432516 .095703128 .5518036 .08040365 .5339203 .06575521 .5064392 .051757814 .46936036L.030761719 .47375489C.04703776 .5487569 .07462565 .6008504 .11352539 .6300354 .15242513 .65923056 .19417317 .6738281 .23876953 .6738281 .29378257 .6738281 .33829753 .65649417 .37231446 .6218262 .4063314 .5871582 .42333985 .5447591 .42333985 .4946289 .42333985 .4412435 .4049479 .3898112 .36816407 .34033204 .33138023 .29085288 .25146485 .20279949 .12841797 .076171878H.35253907C.38378907 .076171878 .40576173 .07991028 .41845704 .087387088 .43115235 .09487406 .44547526 .113087978 .46142579 .14202881L.4741211 .13616944 .41992188 0H.029785157V.011230469Z"/>
<path id="font_3_8" d="M.43554688 .39746095C.43554688 .40672813 .4375 .4134369 .44140626 .41758729 .4453125 .42174784 .4501953 .42382813 .4560547 .42382813 .4622396 .42382813 .46728517 .42170207 .4711914 .41744996 .47509767 .413208 .47705079 .40602113 .47705079 .39588929V.32530213C.47705079 .31549583 .47509767 .30846659 .4711914 .30421449 .46728517 .29997254 .4622396 .29785157 .4560547 .29785157 .45052085 .29785157 .44588218 .2996572 .44213868 .30326844 .43839518 .30688987 .4361979 .31281028 .43554688 .32102967 .43359376 .34075419 .4235026 .35702516 .40527345 .36984254 .37858073 .3882548 .34326173 .39746095 .2993164 .39746095 .25341798 .39746095 .21777344 .3881836 .19238281 .3696289 .17317708 .3556315 .16357422 .3400065 .16357422 .3227539 .16357422 .30322267 .17496746 .28694663 .1977539 .27392579 .2133789 .2648112 .2430013 .2578125 .2866211 .2529297 .34358726 .24672444 .38313804 .23970032 .40527345 .2318573 .43684898 .22042339 .46036784 .20457459 .47583009 .18431092 .49129234 .16405742 .49902345 .14217122 .49902345 .118652347 .49902345 .08369955 .48225913 .052581788 .44873048 .025299073 .4152018-.0019836426 .3660482-.015625 .30126954-.015625 .23649089-.015625 .18343099 .00081380209 .14208985 .033691408 .14208985 .022460938 .1414388 .015192668 .14013672 .011886597 .13883464 .008590698 .13647461 .005783081 .13305664 .0034637452 .12963867 .0011545817 .1258138 0 .12158203 0 .115722659 0 .110839847 .0021209717 .106933597 .006362915 .103027347 .010615031 .10107422 .01763916 .10107422 .027435303V.112213138C.10107422 .12200928 .10294596 .12902832 .10668945 .13327027 .110432948 .13752239 .11539713 .13964844 .12158203 .13964844 .1274414 .13964844 .1324056 .13761394 .13647461 .13354492 .14054363 .1294759 .14257813 .12402344 .14257813 .1171875 .14257813 .10221354 .14632161 .08968099 .1538086 .079589847 .16520183 .063964847 .18334961 .05102539 .20825196 .040771486 .2331543 .030517579 .26367188 .025390625 .2998047 .025390625 .3531901 .025390625 .39290367 .035369874 .4189453 .05532837 .44498698 .075286868 .4580078 .09638977 .4580078 .118637088 .4580078 .14415996 .44482423 .16460674 .41845704 .17997742 .3917643 .19535828 .35294596 .20566304 .30200196 .21089173 .25105796 .21613057 .21451824 .2229716 .19238281 .2314148 .17024739 .23985799 .1529948 .2525228 .140625 .26940919 .1282552 .28630577 .12207031 .3044993 .12207031 .32398988 .12207031 .35906474 .13932292 .38691203 .17382813 .40753175 .20833333 .42816163 .24951172 .43847657 .29736329 .43847657 .3540039 .43847657 .4000651 .4248047 .43554688 .39746095Z"/>
<path id="font_3_1" d="M0 0Z"/>
<path id="font_3_4" d="M.52197268 .20214844H.104003909C.11116537 .14908855 .13338216 .10636393 .1706543 .07397461 .20792644 .041585287 .254069 .025390625 .30908204 .025390625 .339681 .025390625 .37174479 .030436198 .40527345 .040527345 .4388021 .05061849 .46614585 .063964847 .4873047 .080566409 .4934896 .08544922 .4988607 .087890628 .50341799 .087890628 .5086263 .087890628 .5131836 .08585612 .51708987 .08178711 .5209961 .0777181 .5229492 .072916667 .5229492 .06738281 .5229492 .061848958 .52034506 .056477865 .5151367 .05126953 .49951173 .03499349 .47176109 .01977539 .43188478 .0056152346 .39200846-.008544922 .35107423-.015625 .30908204-.015625 .23876953-.015625 .1800944 .0074310305 .13305664 .05354309 .08601888 .09965515 .0625 .15546163 .0625 .22096253 .0625 .28059388 .08455404 .3317515 .12866211 .37443543 .17277019 .41712953 .2273763 .43847657 .29248048 .43847657 .35953776 .43847657 .41471354 .41653953 .4580078 .3726654 .50130209 .3287913 .5226237 .2719523 .52197268 .20214844M.48046876 .24316406C.47233073 .28884889 .45092774 .32598368 .41625978 .35456849 .3815918 .38316346 .34033204 .39746095 .29248048 .39746095 .2446289 .39746095 .20345052 .3833262 .16894531 .35505677 .13444011 .3267975 .11295573 .2894999 .10449219 .24316406H.48046876Z"/>
<path id="font_3_9" d="M.32885743 .22181702 .5161133 .041015626C.5284831 .041015626 .5362956 .040445966 .5395508 .03930664 .54280599 .038167318 .5456543 .035807294 .5480957 .032226564 .5505371 .028645834 .5517578 .024739584 .5517578 .020507813 .5517578 .0146484379 .5496419 .009765625 .54541018 .005859375 .5411784 .001953125 .5340169 0 .5239258 0H.39208985C.3819987 0 .37483726 .001953125 .37060548 .005859375 .3663737 .009765625 .3642578 .0146484379 .3642578 .020507813 .3642578 .026692709 .3663737 .031656904 .37060548 .03540039 .37483726 .03914388 .3819987 .041015626 .39208985 .041015626H.45996095L.30067445 .19459534 .14160156 .041015626H.20996094C.21972656 .041015626 .22672527 .03914388 .23095703 .03540039 .2351888 .031656904 .23730469 .026692709 .23730469 .020507813 .23730469 .0146484379 .2351888 .009765625 .23095703 .005859375 .22672527 .001953125 .21972656 0 .20996094 0H.076660159C.06689453 0 .059895833 .001953125 .055664064 .005859375 .051432294 .009765625 .049316408 .0146484379 .049316408 .020507813 .049316408 .024739584 .05053711 .028645834 .052978517 .032226564 .055419923 .035807294 .058186849 .038167318 .061279298 .03930664 .06437174 .040445966 .07210287 .041015626 .084472659 .041015626L.27233888 .22190857 .10546875 .3828125C.09375 .3828125 .0863444 .38345338 .08325195 .3847351 .08015951 .386027 .07739258 .388443 .07495117 .39198304 .072509769 .39552308 .07128906 .39938355 .07128906 .40356446 .07128906 .40935264 .073404949 .4141744 .07763672 .4180298 .08186849 .42189536 .089029949 .42382813 .099121097 .42382813H.2109375C.22102864 .42382813 .22810872 .42189536 .23217774 .4180298 .23624675 .4141744 .23828125 .40918986 .23828125 .40307618 .23828125 .397288 .23624675 .39246116 .23217774 .38859559 .22810872 .3847402 .22102864 .3828125 .2109375 .3828125H.16210938L.3005829 .24909973 .43945313 .3828125H.390625C.38085938 .3828125 .3737793 .3847402 .36938478 .38859559 .36499024 .39246116 .36279298 .39745078 .36279298 .40356446 .36279298 .40935264 .36490885 .4141744 .36914063 .4180298 .3733724 .42189536 .38053385 .42382813 .390625 .42382813H.5024414C.51220706 .42382813 .51920577 .42189536 .5234375 .4180298 .52766928 .4141744 .52978518 .40918986 .52978518 .40307618 .52978518 .3992208 .52856448 .39552308 .52612307 .39198304 .52368167 .388443 .52091476 .386027 .51782229 .3847351 .5147298 .38345338 .5073242 .3828125 .49560548 .3828125L.32885743 .22181702Z"/>
<path id="font_3_6" d="M.14550781 .42382813V.349411C.16992188 .37894187 .1961263 .40116883 .2241211 .41609193 .25211589 .431015 .28515626 .43847657 .3232422 .43847657 .36360679 .43847657 .4008789 .42902629 .4350586 .41012574 .46923829 .3912252 .49568687 .36490885 .5144043 .33117677 .53312179 .29744468 .54248049 .26200358 .54248049 .22485352 .54248049 .16586304 .521403 .11542765 .47924806 .07354736 .4370931 .031677247 .3852539 .0107421879 .32373048 .0107421879 .25048829 .0107421879 .19108074 .040430707 .14550781 .09980774V-.14746094H.24511719C.2548828-.14746094 .2618815-.14933269 .26611329-.15307617 .27034507-.15681966 .27246095-.16178386 .27246095-.16796875 .27246095-.17382813 .27034507-.17871094 .26611329-.18261719 .2618815-.18652344 .2548828-.18847656 .24511719-.18847656H.049316408C.03955078-.18847656 .032552083-.18660482 .028320313-.18286133 .024088541-.17911785 .021972657-.17415364 .021972657-.16796875 .021972657-.16178386 .024088541-.15681966 .028320313-.15307617 .032552083-.14933269 .03955078-.14746094 .049316408-.14746094H.10449219V.3828125H.049316408C.03955078 .3828125 .032552083 .38476563 .028320313 .38867188 .024088541 .39257813 .021972657 .3976237 .021972657 .4038086 .021972657 .40952555 .024088541 .41429139 .028320313 .41810609 .032552083 .42192079 .03955078 .42382813 .049316408 .42382813H.14550781M.50097659 .22485352C.50097659 .27225749 .48380534 .31287638 .4494629 .3467102 .41512046 .38054405 .37320964 .39746095 .32373048 .39746095 .27392579 .39746095 .23177083 .38046266 .19726563 .34646607 .16276042 .31246949 .14550781 .27193199 .14550781 .22485352 .14550781 .17744954 .16276042 .13674927 .19726563 .102752689 .23177083 .0687561 .27392579 .051757814 .32373048 .051757814 .37288413 .051757814 .41471354 .06867472 .44921876 .102508548 .48372398 .13634236 .50097659 .17712403 .50097659 .22485352Z"/>
<path id="font_3_5" d="M.27294923 .3828125V.041015626H.453125C.46289063 .041015626 .4698893 .03914388 .4741211 .03540039 .47835288 .031656904 .48046876 .026692709 .48046876 .020507813 .48046876 .0146484379 .47835288 .009765625 .4741211 .005859375 .4698893 .001953125 .46289063 0 .453125 0H.13232422C.122558597 0 .1155599 .001953125 .111328128 .005859375 .10709635 .009765625 .10498047 .0146484379 .10498047 .020507813 .10498047 .026692709 .10709635 .031656904 .111328128 .03540039 .1155599 .03914388 .122558597 .041015626 .13232422 .041015626H.23144531V.3828125H.14257813C.1328125 .3828125 .1258138 .3847402 .12158203 .38859559 .11735026 .39246116 .115234378 .39745078 .115234378 .40356446 .115234378 .40935264 .11735026 .4141744 .12158203 .4180298 .1258138 .42189536 .1328125 .42382813 .14257813 .42382813H.23144531V.48568727C.23144531 .5201009 .2454427 .54996749 .2734375 .57528689 .30143229 .60061648 .33854167 .61328127 .38476563 .61328127 .4235026 .61328127 .46484376 .609731 .50878909 .6026306 .5253906 .60005697 .5354004 .59699508 .53881838 .5934448 .5422363 .5898946 .5439453 .5852153 .5439453 .57940676 .5439453 .5735982 .5419922 .56883749 .53808596 .5651245 .5341797 .5614217 .5289714 .5595703 .52246096 .5595703 .51985678 .5595703 .5154622 .5600586 .50927737 .56103518 .4601237 .56852218 .41861979 .5722656 .38476563 .5722656 .34895835 .5722656 .32137046 .56347659 .30200196 .54589846 .28263346 .5283203 .27294923 .5083008 .27294923 .48583985V.42382813H.46484376C.47460938 .42382813 .48160807 .42189536 .48583985 .4180298 .49007163 .4141744 .4921875 .40918986 .4921875 .40307618 .4921875 .397288 .49007163 .39246116 .48583985 .38859559 .48160807 .3847402 .47460938 .3828125 .46484376 .3828125H.27294923Z"/>
<path id="font_3_7" d="M.25097657 .42382813V.3200531C.30436198 .36812846 .34431968 .3990682 .3708496 .4128723 .39737956 .4266866 .421875 .43359376 .44433595 .43359376 .46875 .43359376 .49145509 .4253184 .5124512 .4087677 .53344729 .392217 .5439453 .37967936 .5439453 .3711548 .5439453 .3649292 .5419108 .3597819 .5378418 .3557129 .53377279 .3516439 .5286458 .34960938 .52246096 .34960938 .51920577 .34960938 .5164388 .35017906 .51416018 .35131837 .51188156 .35245768 .5076497 .3561605 .50146487 .36242677 .49007163 .3739624 .48014323 .38187156 .4716797 .38615418 .46321617 .3904368 .45491538 .39257813 .44677735 .39257813 .4288737 .39257813 .40730796 .38542176 .38208009 .371109 .3568522 .35679627 .31315104 .32182823 .25097657 .26620484V.041015626H.4326172C.44270835 .041015626 .44986979 .03914388 .45410157 .03540039 .45833335 .031656904 .46044923 .026692709 .46044923 .020507813 .46044923 .0146484379 .45833335 .009765625 .45410157 .005859375 .44986979 .001953125 .44270835 0 .4326172 0H.110839847C.10107422 0 .09407552 .0019175211 .08984375 .0057525637 .08561198 .0095876059 .083496097 .014506022 .083496097 .020507813 .083496097 .026041666 .0855306 .030680338 .08959961 .034423829 .09366862 .038167318 .100748699 .040039064 .110839847 .040039064H.20996094V.3828125H.13427735C.12451172 .3828125 .11751302 .38476563 .11328125 .38867188 .10904948 .39257813 .106933597 .3976237 .106933597 .4038086 .106933597 .40952555 .1089681 .41429139 .11303711 .41810609 .11710612 .42192079 .124186199 .42382813 .13427735 .42382813H.25097657Z"/>
<path id="font_3_2" d="M.41796876 0V.059570314C.35839845 .0094401049 .29475913-.015625 .22705078-.015625 .17789714-.015625 .13948567-.0031738282 .111816409 .021728516 .08414713 .04663086 .0703125 .07714844 .0703125 .11328125 .0703125 .1529948 .088541667 .18766277 .125 .21728516 .16145833 .24690755 .21468099 .26171876 .28466798 .26171876 .3035482 .26171876 .324056 .26049806 .3461914 .25805665 .3683268 .25561524 .3922526 .25179038 .41796876 .24658203V.31341554C.41796876 .33602906 .4075521 .35568748 .38671876 .37239076 .3658854 .38910423 .3346354 .39746095 .29296876 .39746095 .26106773 .39746095 .2163086 .38804627 .1586914 .36921693 .14827474 .36591087 .14160156 .3642578 .13867188 .3642578 .13346355 .3642578 .12898763 .36621095 .12524414 .3701172 .12150065 .37402345 .119628909 .37890626 .119628909 .38476563 .119628909 .39029948 .12125651 .394694 .12451172 .39794923 .12906902 .40283204 .14746094 .40950523 .1796875 .41796876 .23046875 .43164063 .26888023 .43847657 .29492188 .43847657 .3466797 .43847657 .38704429 .42566935 .41601563 .40005494 .44498698 .37444053 .45947267 .34547935 .45947267 .3131714V.041015626H.51416018C.5242513 .041015626 .5314128 .03914388 .53564456 .03540039 .5398763 .031656904 .5419922 .026692709 .5419922 .020507813 .5419922 .0146484379 .5398763 .009765625 .53564456 .005859375 .5314128 .001953125 .5242513 0 .51416018 0H.41796876M.41796876 .20458985C.39876304 .2101237 .37841798 .2141927 .3569336 .21679688 .33544923 .21940105 .31282554 .22070313 .2890625 .22070313 .22949219 .22070313 .1829427 .20784505 .14941406 .1821289 .12402344 .16292317 .111328128 .13997396 .111328128 .11328125 .111328128 .088541667 .12101237 .067708339 .14038086 .05078125 .15974935 .033854169 .18798828 .025390625 .22509766 .025390625 .26057945 .025390625 .29353843 .032470704 .3239746 .04663086 .3544108 .060791017 .3857422 .083333339 .41796876 .11425781V.20458985Z"/>
<path id="font_3_3" d="M.4711914 .38275147V.396286C.4711914 .40627543 .47314454 .4133606 .47705079 .4175415 .48095704 .42173258 .48583985 .42382813 .49169923 .42382813 .49788413 .42382813 .5029297 .42171226 .50683596 .41748048 .5107422 .4132487 .5126953 .40608726 .5126953 .3959961V.30322267C.5123698 .2931315 .51033529 .28597007 .5065918 .28173829 .5028483 .2775065 .49788413 .27539063 .49169923 .27539063 .48616538 .27539063 .4815267 .27726747 .4777832 .28102113 .4740397 .28478495 .47184245 .29108177 .4711914 .2999115 .46923829 .32311503 .45402018 .34517417 .4255371 .36608888 .39705406 .38700358 .35872398 .39746095 .31054688 .39746095 .24967449 .39746095 .20345052 .3783671 .171875 .34017945 .14029949 .3019918 .12451172 .2582601 .12451172 .20898438 .12451172 .15578206 .14192708 .11188253 .17675781 .07728577 .21158855 .042689008 .2566732 .025390625 .31201173 .025390625 .34391276 .025390625 .37638346 .03131612 .40942384 .043167116 .4424642 .05502828 .47233073 .074132289 .49902345 .100479129 .5058594 .10706075 .51188156 .11035156 .51708987 .11035156 .5226237 .11035156 .5272624 .10846456 .53100588 .10469055 .5347493 .10091654 .5366211 .09624227 .5366211 .090667728 .5366211 .07655843 .5201823 .058680219 .4873047 .03703308 .43424479 .0019276937 .37516276-.015625 .3100586-.015625 .24397786-.015625 .18969727 .005472819 .1472168 .047668458 .10473633 .08987427 .083496097 .1434021 .083496097 .20825196 .083496097 .2744039 .10522461 .3293101 .14868164 .37297059 .19213867 .41664125 .24690755 .43847657 .31298829 .43847657 .3758138 .43847657 .4285482 .41990153 .4711914 .38275147Z"/>
<path id="font_1_9" d="M.46777345 .22242737C.46777345 .16278585 .44864909 .10901388 .4104004 .06111145 .3721517 .013209025 .32242839-.0107421879 .26123048-.0107421879 .2039388-.0107421879 .1517741 .016113282 .10473633 .06982422 .057698568 .123535159 .034179689 .19498699 .034179689 .2841797 .034179689 .39908854 .0797526 .49772135 .17089844 .5800781 .25227867 .64908859 .34375 .68359377 .4453125 .68359377L.4477539 .66748049C.4070638 .65999349 .37198893 .649821 .3425293 .6369629 .31306968 .6241048 .28678385 .6061249 .26367188 .5830231 .23990886 .5595856 .21761067 .5298004 .19677735 .4936676 .17594402 .45754496 .1616211 .42174278 .1538086 .386261 .17399089 .39876304 .19140625 .40797425 .20605469 .41389466 .23209636 .42442323 .25830079 .4296875 .28466798 .4296875 .33642579 .4296875 .3798828 .41176353 .41503907 .37591554 .4501953 .34006755 .46777345 .28890483 .46777345 .22242737M.37841798 .18482971C.37841798 .22807312 .37158204 .26643373 .35791017 .2999115 .3351237 .35582987 .29638673 .38378907 .24169922 .38378907 .19124349 .38378907 .15771485 .36883546 .14111328 .33892823 .13134766 .32137046 .12646485 .29211427 .12646485 .25115968 .12646485 .19817098 .13777669 .14631653 .16040039 .09559631 .1830241 .044886274 .21875 .01953125 .26757813 .01953125 .3063151 .01953125 .33447267 .036026 .35205079 .0690155 .3696289 .102015178 .37841798 .14061992 .37841798 .18482971Z"/>
<path id="font_1_8" d="M.07470703 .08984375C.09326172 .08984375 .1175944 .07910156 .14770508 .057617189 .17781575 .036132814 .20100911 .025390625 .21728516 .025390625 .25472007 .025390625 .2874349 .041931154 .3154297 .07501221 .34342448 .10809326 .35742188 .14875286 .35742188 .19699097 .35742188 .28141276 .3125 .3421987 .22265625 .37934876 .17285156 .39988709 .12646485 .41015626 .083496097 .41015626 .07633463 .41015626 .07185873 .4103953 .07006836 .4108734 .06827799 .4113617 .06608073 .41305543 .06347656 .4159546 .0641276 .41852824 .064697269 .42070008 .06518555 .4224701 .06567383 .4242401 .06624349 .42592875 .06689453 .427536L.17333985 .6621094H.3828125C.39322917 .6621094 .4012858 .6638997 .40698243 .66748049 .41267906 .6710612 .42008464 .6777344 .42919923 .6875L.43701173 .68066409 .39892579 .58987429C.3976237 .5869344 .39404298 .5850525 .3881836 .5842285 .38232423 .58341476 .37597657 .5830078 .36914063 .5830078H.18017578L.13867188 .4970703C.1920573 .4879659 .2311198 .47934977 .25585938 .47122193 .29654948 .4575602 .3305664 .4373932 .35791017 .41072084 .38134767 .38763938 .39908854 .3617045 .4111328 .33291627 .4231771 .30413819 .42919923 .27365113 .42919923 .24145508 .42919923 .16958618 .40356446 .109583538 .35229493 .061447145 .3010254 .013320923 .23616536-.0107421879 .15771485-.0107421879 .1258138-.0107421879 .100097659-.007634481 .080566409-.0014190674 .048014326 .008722941 .03173828 .026875815 .03173828 .05303955 .03173828 .06285604 .03523763 .07144165 .042236329 .07879639 .049235029 .08616129 .060058595 .08984375 .07470703 .08984375Z"/>
<clipPath id="clip_4">
<path transform="matrix(1,0,0,-1,-42.8081,538.275)" d="M36 36H756V576H36Z"/>
</clipPath>
<path id="font_1_2" d="M.045898439 .25073243C.045898439 .3640747 .0797526 .46357728 .14746094 .5492401 .18912761 .6016795 .23828125 .64385989 .29492188 .67578127L.30419923 .65966799C.25179038 .61798098 .21435547 .57742819 .19189453 .53800967 .15250652 .46928407 .1328125 .37776185 .1328125 .263443 .1328125 .17875672 .14029949 .10888672 .15527344 .053833009 .18164063-.04257202 .23128255-.114715579 .30419923-.16259766L.2915039-.17871094C.25146485-.15949504 .20817058-.12187704 .1616211-.06585693 .084472659 .026967368 .045898439 .13249715 .045898439 .25073243Z"/>
<path id="font_1_10" d="M.18945313 .40600587C.18945313 .3896586 .18383789 .3763326 .17260742 .36602784 .16137696 .35573326 .14860027 .35058595 .13427735 .35058595 .118652347 .35058595 .10579427 .35614524 .095703128 .3672638 .08561198 .37838236 .080566409 .39113365 .080566409 .40551759 .080566409 .42056275 .08577474 .4333954 .096191409 .4440155 .10660807 .45464579 .11930338 .45996095 .13427735 .45996095 .14860027 .45996095 .16137696 .45480857 .17260742 .44450379 .18383789 .4342092 .18945313 .42137657 .18945313 .40600587M.1328125-.0087890629C.119140628-.0087890629 .10701498-.0034434002 .09643555 .007247925 .08585612 .017949423 .080566409 .030914307 .080566409 .046142579 .080566409 .06072998 .08577474 .07345072 .096191409 .08430481 .10660807 .0951589 .11946615 .10058594 .13476563 .10058594 .15006511 .10058594 .16341146 .09531657 .17480469 .08477783 .18619792 .07424927 .19189453 .06153361 .19189453 .04663086 .19189453 .032368978 .18652344 .019566855 .17578125 .008224487 .16503906-.0031178792 .15071614-.0087890629 .1328125-.0087890629Z"/>
<path id="font_1_3" d="M.28466798 .24584961C.28466798 .19731649 .2783203 .15138753 .265625 .108062747 .2529297 .06474813 .234375 .023874918 .20996094-.014556885 .1842448-.055592855 .14990235-.0938619 .106933597-.12936402 .07861328-.15281169 .05485026-.16926067 .03564453-.17871094L.026367188-.16259766C.0764974-.12449137 .11311849-.0855662 .13623047-.045822145 .1772461 .024531046 .1977539 .117518108 .1977539 .23313904 .1977539 .32662455 .1883138 .40300498 .1694336 .46228028 .1430664 .54599 .0953776 .6117859 .026367188 .65966799L.0390625 .67578127C.09049479 .64711508 .13834636 .60379537 .18261719 .54582217 .25065104 .45657859 .28466798 .35658775 .28466798 .24584961Z"/>
<path id="font_1_12" d="M.064453128 .20117188C.08138021 .15588379 .10123698 .119781497 .12402344 .09286499 .16373699 .045928956 .21305339 .022460938 .27197267 .022460938 .3038737 .022460938 .33146159 .03256734 .35473634 .05278015 .37801109 .07299296 .38964845 .10119629 .38964845 .13739014 .38964845 .16999309 .3779297 .19835918 .3544922 .2224884 .33919273 .23780823 .30696617 .26079307 .2578125 .29144288L.17236328 .34474183C.14664714 .36104838 .12613933 .37752787 .110839847 .3941803 .08251953 .42584739 .068359378 .46077983 .068359378 .49897767 .068359378 .549586 .085123699 .5917053 .118652347 .6253357 .15218099 .65896609 .19661458 .67578127 .25195313 .67578127 .2747396 .67578127 .3021647 .670166 .33422853 .65893557 .36629234 .6477051 .38460288 .64208987 .38916017 .64208987 .40152995 .64208987 .41007487 .64501956 .41479493 .6508789 .41951499 .6567383 .4231771 .66503909 .42578126 .67578127H.44628907L.46826173 .46289063H.44433595C.4280599 .52683517 .40193687 .5714671 .3659668 .5967865 .32999674 .6221059 .2944336 .6347656 .25927735 .6347656 .2319336 .6347656 .20808919 .6266937 .18774414 .6105499 .1673991 .5944163 .15722656 .5720062 .15722656 .5433197 .15722656 .51756289 .16503906 .4955546 .18066406 .47729493 .19628906 .45870973 .22054036 .4393107 .25341798 .4190979L.3413086 .36480714C.39632163 .33089195 .4350586 .29979453 .45751954 .2715149 .47965495 .24291992 .49072267 .2091217 .49072267 .17012024 .49072267 .11779276 .47094728 .07407633 .43139649 .038970949 .3918457 .0038757325 .3413086-.013671875 .27978517-.013671875 .24886067-.013671875 .21655274-.0078125 .18286133 .00390625 .14916992 .015625 .12988281 .021484375 .125 .021484375 .11328125 .021484375 .10538737 .017954508 .10131836 .010894775 .09724935 .0038350423 .094563808-.0037027996 .09326172-.01171875H.07128906L.041503908 .20117188H.064453128M.2783203 .67578127V.67578127Z"/>
<path id="font_1_17" d="M.08203125 .63061526C.08203125 .64454147 .08691406 .65652468 .09667969 .66656497 .10644531 .6766154 .118489589 .6816406 .1328125 .6816406 .14680989 .6816406 .15877278 .6766968 .16870117 .6668091 .17862956 .6569316 .18359375 .64486697 .18359375 .63061526 .18359375 .616689 .17862956 .6047821 .16870117 .5948944 .15877278 .5850169 .14680989 .5800781 .1328125 .5800781 .118489589 .5800781 .10644531 .5850169 .09667969 .5948944 .08691406 .6047821 .08203125 .616689 .08203125 .63061526M.01953125 .013671875C.05436198 .016927084 .07633463 .022867838 .08544922 .03149414 .094563808 .04012044 .099121097 .06347656 .099121097 .1015625V.33496095C.099121097 .35593669 .09765625 .37045799 .09472656 .37852479 .08984375 .39179994 .079589847 .3984375 .063964847 .3984375 .060384115 .3984375 .056884767 .39811198 .053466798 .39746095 .050048829 .3968099 .040201826 .39420573 .023925782 .38964845V.40527345L.044921876 .41210938C.10188802 .43066407 .14160156 .44466148 .1640625 .45410157 .17317708 .4580078 .17903646 .45996095 .18164063 .45996095 .18229167 .45768229 .18261719 .4552358 .18261719 .45262147V.10166931C.18261719 .06451925 .1870931 .04121399 .19604492 .03175354 .20499675 .022303263 .22526042 .016276041 .25683595 .013671875V0H.01953125V.013671875Z"/>
<path id="font_1_19" d="M.018066407 .013671875C.041178388 .016560873 .057373048 .022262574 .06665039 .030776978 .075927738 .03929138 .080566409 .058329267 .080566409 .087890628V.33691407C.080566409 .3574117 .07861328 .37182618 .07470703 .38015748 .06852213 .39234416 .055826826 .3984375 .036621095 .3984375 .033691408 .3984375 .030680338 .39827476 .02758789 .39794923 .024495444 .3976237 .020670573 .3971354 .016113282 .39648438V.4140625C.029459635 .41800944 .061035158 .4282074 .110839847 .44465638L.15673828 .45996095C.15901692 .45996095 .16040039 .45916239 .16088867 .4575653 .16137696 .45596824 .1616211 .45373027 .1616211 .45085145V.37979127C.19156902 .4079895 .21500652 .42733256 .2319336 .43782044 .25732423 .45388285 .2836914 .46191407 .31103517 .46191407 .33317057 .46191407 .35335288 .45554099 .37158204 .4427948 .40673829 .41796366 .4243164 .37368775 .4243164 .30996705V.08105469C.4243164 .057444257 .42903648 .040390016 .43847657 .029891968 .44791667 .019404093 .46370445 .0139973959 .48583985 .013671875V0H.27734376V.013671875C.30110679 .016947428 .31770835 .02357483 .32714845 .033554079 .33658854 .0435435 .3413086 .06523641 .3413086 .09863281V.3078003C.3413086 .33587647 .33610026 .35914103 .3256836 .377594 .31526695 .39604698 .2960612 .40527345 .2680664 .40527345 .24886067 .40527345 .22932942 .39874269 .20947266 .38568116 .19840496 .37816368 .18408203 .36574809 .1665039 .34843446V.07421875C.1665039 .05058797 .17171224 .034754438 .1821289 .02671814 .19254558 .018681845 .20898438 .014333089 .23144531 .013671875V0H.018066407V.013671875M.25048829 .45996095V.45996095Z"/>
<path id="font_1_16" d="M.09814453-.09100342C.09814453-.11827596 .11352539-.1371053 .14428711-.14749146 .17504883-.15788777 .21028646-.16308594 .25-.16308594 .30403648-.16308594 .34798179-.15375774 .38183595-.13510132 .4156901-.11644491 .4326172-.0934906 .4326172-.0662384 .4326172-.044499715 .4189453-.030059815 .39160157-.022918702 .37467448-.018707276 .3426107-.016276041 .29541017-.015625 .28336589-.0152994799 .27067057-.014887492 .25732423-.014389038 .24397786-.013900757 .23177083-.013331096 .22070313-.012680054 .21354167-.012354533 .20198567-.011042277 .18603516-.008743286 .17008464-.006454468 .15820313-.0044911706 .15039063-.0028533936 .14648438-.0028533936 .13688152-.013081868 .12158203-.03353882 .10595703-.05432129 .09814453-.07347616 .09814453-.09100342M.1616211 .1640625C.1319987 .17384847 .1089681 .19129436 .0925293 .21640015 .07609049 .24150594 .067871097 .26970927 .067871097 .30101014 .067871097 .3391571 .08300781 .37534587 .11328125 .40957643 .14355469 .44381715 .18636067 .4609375 .24169922 .4609375 .26546226 .4609375 .29166667 .45532228 .3203125 .4440918 .34895835 .43286134 .37646485 .4272461 .40283204 .4272461 .40966798 .4272461 .42000328 .42749024 .4338379 .42797853 .44767253 .4284668 .45768229 .42871095 .4638672 .42871095H.46972657V.38908387H.3852539C.39111329 .37539164 .39567057 .36348979 .39892579 .3533783 .40445964 .33446757 .40722657 .31653343 .40722657 .2995758 .40722657 .2624054 .3918457 .22824605 .36108399 .19709778 .33032228 .16595967 .28889976 .15039063 .2368164 .15039063 .22867839 .15039063 .21402996 .15185547 .1928711 .15478516 .18343099 .15478516 .17097982 .14676412 .15551758 .13072205 .14005535 .11469015 .13232422 .10160319 .13232422 .09146118 .13232422 .08098348 .14371746 .07329305 .1665039 .06838989 .18147786 .06511434 .19807942 .06347656 .2163086 .06347656 .29996745 .06347656 .35677085 .05876668 .38671876 .049346925 .4358724 .03406779 .46044923 .0012461344 .46044923-.049118043 .46044923-.10045878 .43172203-.1414032 .37426759-.1719513 .31681315-.20249939 .25878907-.21777344 .20019531-.21777344 .14680989-.21777344 .10449219-.20699056 .07324219-.1854248 .041992189-.16386922 .026367188-.14125569 .026367188-.11758423 .026367188-.10591634 .030517579-.09448751 .03881836-.08329773 .04711914-.07210795 .06347656-.05549113 .087890628-.033447267L.12011719-.0047454836 .12597656 .001083374C.1110026 .0069732668 .09977213 .012700398 .092285159 .01826477 .07926432 .028406779 .072753909 .040023805 .072753909 .053115846 .072753909 .06523132 .07836914 .078567508 .08959961 .09312439 .10083008 .107691448 .12483724 .13133748 .1616211 .1640625M.25439454 .17382813C.2722982 .17382813 .28727214 .17871094 .2993164 .18847656 .31884767 .20410156 .32861329 .23128255 .32861329 .27001954 .32861329 .300944 .3207194 .33577476 .30493165 .37451173 .2891439 .4132487 .26285807 .4326172 .22607422 .4326172 .19417317 .4326172 .17220052 .41748048 .16015625 .38720704 .15397136 .3712565 .1508789 .3515625 .1508789 .328125 .1508789 .28841148 .16048177 .25276695 .1796875 .2211914 .19889324 .18961589 .22379558 .17382813 .25439454 .17382813M.25048829 .4609375V.4609375Z"/>
<path id="font_1_18" d="M.020507813 .013671875C.05078125 .016621909 .07128906 .022766114 .08203125 .032104494 .09277344 .04144287 .09814453 .059712728 .09814453 .08691406V.56347659C.09814453 .584788 .096354167 .5994771 .09277344 .60754397 .08626302 .62113448 .07307943 .6279297 .053222658 .6279297 .048665365 .6279297 .043701173 .6274414 .038330079 .62646487 .032958986 .6254883 .026204428 .62402346 .018066407 .6220703V.6386719C.06201172 .6503906 .11490885 .6660156 .17675781 .6855469 .17903646 .6855469 .18041992 .6845703 .1809082 .6826172 .18139649 .68066409 .18164063 .6764323 .18164063 .6699219V.084472659C.18164063 .056152345 .18652344 .037841798 .19628906 .029541016 .20605469 .021240235 .22623699 .015950522 .25683595 .013671875V0H.020507813V.013671875Z"/>
<path id="font_1_15" d="M.2290039 .4580078C.27490235 .4580078 .31510417 .44213868 .34960938 .4104004 .3841146 .3786621 .4013672 .33365885 .4013672 .27539063H.091308597C.094563808 .20020549 .11165365 .1454366 .14257813 .111083988 .17350261 .07674154 .2101237 .059570314 .2524414 .059570314 .2866211 .059570314 .3154297 .068481449 .3388672 .08630371 .3623047 .10412598 .3839518 .12940471 .4038086 .1621399L.42089845 .15629578C.4075521 .11482239 .38256837 .07645162 .34594728 .04118347 .30932618 .0059153239 .2644857-.01171875 .21142578-.01171875 .15022786-.01171875 .10294596 .0113932299 .06958008 .057617189 .03621419 .10384115 .01953125 .1570638 .01953125 .21728516 .01953125 .28271485 .03889974 .33919273 .07763672 .38671876 .116373699 .43424479 .16682942 .4580078 .2290039 .4580078M.2006836 .421875C.16357422 .421875 .1352539 .40550743 .115722659 .37277223 .10530599 .3552653 .09781901 .33322145 .09326172 .30664063H.2993164C.2957357 .3390503 .28955079 .36319987 .28076173 .37908937 .2648112 .40761314 .23811849 .421875 .2006836 .421875M.22265625 .4580078V.4580078Z"/>
<path id="font_1_1" d="M0 0Z"/>
<path id="font_1_21" d="M.15966797 .091049198C.16813152 .06900533 .18074544 .05255127 .19750977 .04168701 .2142741 .030822754 .23404949 .025390625 .25683595 .025390625 .2919922 .025390625 .32202149 .042816163 .34692384 .07766724 .37182618 .11252848 .38427735 .16108704 .38427735 .2233429 .38427735 .28301493 .3713379 .3276011 .34545899 .35710145 .31958009 .38661195 .28955079 .4013672 .2553711 .4013672 .23128255 .4013672 .20930989 .39398704 .18945313 .37922669 .16959636 .36447654 .15966797 .34996543 .15966797 .33569337V.091049198M.0043945314-.20117188C.03499349-.19922893 .05444336-.1927592 .06274414-.1817627 .07104492-.17077637 .07519531-.15348308 .07519531-.12988281V.3388672C.07519531 .36360679 .07218424 .37947593 .06616211 .3864746 .060139974 .3934733 .048828126 .39697267 .032226564 .39697267 .028645834 .39697267 .025309245 .3968099 .022216797 .39648438 .01912435 .39615885 .0146484379 .3955078 .0087890629 .39453126V.4111328L.05517578 .42626954C.056803388 .42659507 .08951823 .43782554 .15332031 .45996095 .15494792 .45996095 .15616863 .45922343 .15698242 .4577484 .15779622 .4562734 .15820313 .45454917 .15820313 .45257569V.3862915C.1796875 .40789796 .1985677 .42394004 .21484375 .43441773 .24414063 .45274864 .2742513 .46191407 .30517579 .46191407 .35009767 .46191407 .38875328 .44281007 .42114259 .40460206 .4535319 .36639405 .46972657 .31412254 .46972657 .24778748 .46972657 .18274434 .4502767 .12371826 .41137696 .07070923 .3724772 .017710368 .32356773-.0087890629 .26464845-.0087890629 .24641927-.0087890629 .23063152-.006490072 .21728516-.0018920899 .19645183 .005015055 .1772461 .017674765 .15966797 .036087037V-.125C.15966797-.15766399 .16503906-.17771404 .17578125-.18515015 .18652344-.19259644 .20996094-.1976115 .24609375-.20019531V-.21777344H.0043945314V-.20117188Z"/>
<path id="font_1_22" d="M.0043945314 .016601563C.03434245 .019185385 .05419922 .024434409 .063964847 .032348634 .07373047 .04027303 .07861328 .057159425 .07861328 .08300781V.3046875C.07861328 .33673097 .07560221 .3596344 .06958008 .37339784 .063557948 .38716126 .052571615 .39404298 .036621095 .39404298 .033365888 .39404298 .029052735 .39363609 .02368164 .39282228 .018310547 .39200846 .0126953129 .39095054 .0068359377 .38964845V.40625C.025390625 .4127604 .044433595 .4194336 .063964847 .42626954 .083496097 .43310548 .09700521 .43798829 .10449219 .44091798 .12076823 .44710288 .13753255 .45410157 .15478516 .46191407 .1570638 .46191407 .15844727 .46100364 .15893555 .45918275 .15942383 .45737205 .15966797 .4535624 .15966797 .4477539V.36767579C.1805013 .39664714 .20060222 .41927085 .2199707 .43554688 .23933919 .4518229 .2594401 .45996095 .28027345 .45996095 .296875 .45996095 .31038413 .45499674 .32080079 .44506837 .33121745 .43513999 .33642579 .4226888 .33642579 .40771485 .33642579 .3943685 .33243815 .38313804 .3244629 .37402345 .31648765 .36490885 .30647788 .36035157 .2944336 .36035157 .2820638 .36035157 .26961265 .3660482 .25708009 .3774414 .24454753 .38883464 .23470052 .39453126 .22753906 .39453126 .21614583 .39453126 .20214844 .3853353 .18554688 .36694337 .16894531 .34855143 .16064453 .32958985 .16064453 .3100586V.08984375C.16064453 .062032064 .16715496 .04270935 .18017578 .03187561 .19319661 .02104187 .21484375 .015950522 .24511719 .016601563V0H.0043945314V.016601563Z"/>
<path id="font_1_14" d="M.24853516 .4609375C.28922526 .4609375 .32430015 .45043946 .35375978 .42944337 .3832194 .40844728 .39794923 .38541667 .39794923 .36035157 .39794923 .34960938 .39420573 .3395996 .38671876 .33032228 .37923179 .32104493 .36767579 .31640626 .35205079 .31640626 .34065757 .31640626 .3306478 .3203125 .32202149 .328125 .31339518 .3359375 .3071289 .34733073 .30322267 .3623047L.29736329 .3857422C.2931315 .40299479 .28580729 .4152018 .27539063 .42236329 .26464845 .42919923 .25048829 .4326172 .23291016 .4326172 .19580078 .4326172 .1644694 .41644288 .13891602 .38409425 .11336263 .3517456 .10058594 .30875144 .10058594 .2551117 .10058594 .20602925 .11466471 .16198223 .14282227 .12297058 .17097982 .083958949 .20898438 .064453128 .25683595 .064453128 .2906901 .064453128 .32080079 .07550049 .34716798 .097595218 .36214195 .11026001 .379069 .13040161 .39794923 .15802002L.4116211 .1497345C.3930664 .110590618 .37353517 .0796051 .35302735 .056777955 .3136393 .013066609 .2680664-.0087890629 .2163086-.0087890629 .16552735-.0087890629 .12060547 .011230469 .08154297 .05126953 .04248047 .091308597 .022949219 .14567058 .022949219 .21435547 .022949219 .28173829 .044270833 .339681 .08691406 .3881836 .1295573 .4366862 .18343099 .4609375 .24853516 .4609375M.22705078 .4609375V.4609375Z"/>
<path id="font_1_23" d="M.051757814 .15527344H.067871097C.07535807 .11803182 .08544922 .08944702 .09814453 .06951904 .12093099 .03293864 .15429688 .0146484379 .19824219 .0146484379 .22265625 .0146484379 .24194336 .021387736 .25610353 .034866334 .27026368 .04834493 .27734376 .06580099 .27734376 .0872345 .27734376 .100875858 .27327476 .11402893 .26513673 .12669373 .2569987 .13935852 .24267578 .1516978 .22216797 .16371155L.16748047 .19490052C.1274414 .21633403 .09798177 .23795574 .07910156 .25976563 .060221357 .28157554 .05078125 .30729167 .05078125 .33691407 .05078125 .3733724 .063802089 .4033203 .08984375 .4267578 .115885417 .4501953 .14860027 .46191407 .18798828 .46191407 .20524089 .46191407 .22420247 .45865885 .24487305 .45214845 .2655436 .44563804 .277181 .4423828 .27978517 .4423828 .28564454 .4423828 .2898763 .4431559 .29248048 .44470216 .29508464 .44625855 .29736329 .44874064 .2993164 .45214845H.31103517L.31445313 .3154297H.2993164C.292806 .3471273 .28401695 .37180076 .27294923 .38945008 .25276695 .4221344 .22363281 .43847657 .18554688 .43847657 .16276042 .43847657 .14485677 .43149314 .13183594 .41752626 .1188151 .40355937 .11230469 .38715617 .11230469 .36831666 .11230469 .33843995 .13476563 .31180827 .1796875 .28842164L.24414063 .25382997C.31347657 .21616109 .34814454 .17225647 .34814454 .12211609 .34814454 .08368429 .33374024 .052256269 .30493165 .027832032 .27612306 .0034179688 .23844402-.0087890629 .19189453-.0087890629 .17236328-.0087890629 .15022786-.005533854 .12548828 .0009765625 .100748699 .007486979 .08610026 .0107421879 .08154297 .0107421879 .07763672 .0107421879 .07421875 .0094045 .07128906 .006729126 .068359378 .0040639245 .06608073 .00084431967 .064453128-.0029296876H.051757814V.15527344M.19482422 .46191407V.46191407Z"/>
<path id="font_1_20" d="M.025390625 .22631836C.025390625 .2911682 .045979818 .34599305 .0871582 .39079286 .1283366 .4356028 .18131511 .4580078 .24609375 .4580078 .31054688 .4580078 .36393229 .43682353 .40625 .39445497 .44856773 .35209657 .46972657 .2957255 .46972657 .2253418 .46972657 .16050212 .44921876 .104131069 .40820313 .056228639 .3671875 .008326213 .3141276-.015625 .24902344-.015625 .18652344-.015625 .1336263 .007344564 .09033203 .05328369 .04703776 .099232997 .025390625 .15691121 .025390625 .22631836M.23242188 .42871095C.20670574 .42871095 .18440755 .4202474 .16552735 .4033203 .13297527 .3736979 .11669922 .32259117 .11669922 .25 .11669922 .1920573 .12980144 .13802083 .15600586 .087890628 .18221028 .037760419 .21858724 .0126953129 .26513673 .0126953129 .30159507 .0126953129 .32967124 .029459635 .34936524 .06298828 .36905924 .09651693 .37890626 .14046224 .37890626 .19482422 .37890626 .2511393 .3663737 .30419923 .3413086 .3540039 .3162435 .4038086 .2799479 .42871095 .23242188 .42871095M.25048829 .4580078V.4580078Z"/>
<path id="font_1_11" d="M.2055664 .076309207C.2055664 .059972127 .20955403 .04918925 .2175293 .04396057 .22550456 .038742067 .24202474 .036132814 .26708985 .036132814 .34521485 .036132814 .40950523 .051645917 .45996095 .08267212 .5374349 .13036092 .5761719 .21184795 .5761719 .32713319 .5761719 .4300181 .5442708 .50742599 .48046876 .5593567 .42578126 .60376998 .35335288 .62597659 .2631836 .62597659 .24072266 .62597659 .22550456 .62352499 .2175293 .6186218 .20955403 .6137288 .2055664 .60295107 .2055664 .58628848V.076309207M.016113282 .018554688C.052571615 .022440592 .07633463 .028996787 .087402347 .038223268 .098470058 .04744975 .104003909 .07084147 .104003909 .10839844V.55371096C.104003909 .59016928 .09863281 .61360678 .087890628 .62402346 .07714844 .6344401 .053222658 .6409505 .016113282 .6435547V.6621094H.28564454C.37646485 .6621094 .45328776 .64712527 .5161133 .617157 .62939456 .56340536 .68603518 .4673055 .68603518 .32885743 .68603518 .27901206 .6758626 .23161316 .6555176 .18666077 .63517257 .14170838 .6044922 .103759769 .56347659 .07281494 .5374349 .053263349 .5104167 .03843689 .48242188 .028335572 .4313151 .00944519 .3684896 0 .2939453 0H.016113282V.018554688Z"/>
<path id="font_1_24" d="M.15478516 .45214845V.1400299C.15478516 .11791483 .15787761 .1001943 .1640625 .086868289 .17610677 .06215922 .19824219 .049804689 .23046875 .049804689 .25260417 .049804689 .2742513 .057118734 .29541017 .071746829 .30745445 .07988485 .31966148 .09110514 .33203126 .105407718V.3720703C.33203126 .3971354 .32714845 .41357423 .3173828 .42138673 .3076172 .42919923 .28808595 .43391929 .25878907 .43554688V.45214845H.4165039V.10839844C.4165039 .08626302 .42049156 .07104492 .4284668 .06274414 .43644206 .05444336 .45328776 .05078125 .4790039 .051757814V.038085939C.46110026 .033152265 .44791667 .029449463 .43945313 .026977539 .4309896 .024515788 .41682945 .0199941 .39697267 .013412476 .38850913 .0104522709 .36995445 .0033772786 .3413086-.0078125 .339681-.0078125 .33870445-.0070648195 .3383789-.005569458 .33805339-.004084269 .33789063-.0023498536 .33789063-.00036621095V.079071048C.31575523 .05271403 .2955729 .033187868 .27734376 .020492554 .24967449 .00097147628 .22037761-.0087890629 .18945313-.0087890629 .16113281-.0087890629 .13444011 .0013020834 .109375 .021484375 .083984378 .041341146 .07128906 .07470703 .07128906 .12158203V.375C.07128906 .40083824 .06575521 .41812135 .0546875 .42684938 .047526044 .43234254 .032226564 .43621827 .0087890629 .43847657V.45214845H.15478516M.25048829 .4580078V.4580078Z"/>
<path id="font_1_13" d="M.0034179688 .62109377V.6376953C.040527345 .6461589 .07389323 .65559896 .103515628 .6660156 .13313802 .6764323 .14908855 .6816406 .15136719 .6816406 .15201824 .6796977 .15234375 .67774966 .15234375 .6757965V.378479C.1608073 .3941854 .17350261 .40907289 .19042969 .42314149 .22037761 .44768778 .2548828 .45996095 .2939453 .45996095 .34179688 .45996095 .38264976 .43977867 .4165039 .39941407 .45035807 .35904948 .46728517 .30664063 .46728517 .2421875 .46728517 .17317708 .4453125 .114095058 .4013672 .064941409 .35742188 .01578776 .29964195-.0087890629 .22802735-.0087890629 .19189453-.0087890629 .15641277-.0016326904 .12158203 .012680054 .086751308 .026992798 .06933594 .041300458 .06933594 .055603029V.57128909C.06933594 .59016928 .06673177 .603597 .061523439 .61157229 .056315107 .61954757 .044270833 .62353518 .025390625 .62353518L.0034179688 .62109377M.15039063 .0725708C.15332031 .055704755 .16601563 .043624879 .18847656 .036331178 .2109375 .029037476 .23063152 .025390625 .2475586 .025390625 .2931315 .025390625 .3269043 .04241435 .34887696 .07646179 .3708496 .11050924 .38183595 .15168762 .38183595 .19999695 .38183595 .24830628 .37158204 .29296876 .35107423 .33398438 .3305664 .375 .29736329 .3955078 .25146485 .3955078 .22835286 .3955078 .20572917 .38845317 .18359375 .37434388 .16145833 .36024476 .15039063 .34233094 .15039063 .32060243V.0725708Z"/>
</defs>
<g clip-path="url(#clip_0)">
<path transform="matrix(1,0,0,-1,-42.8081,538.275)" d="M36 36H756V576H36Z" fill="#ffffff"/>
<use data-text="3" xlink:href="#font_1_7" transform="matrix(10,0,0,-10,6.1918985,28.150116)"/>
<use data-text="1" xlink:href="#font_1_5" transform="matrix(10,0,0,-10,11.191898,28.150116)"/>
<use data-text="&#x0009;" xlink:href="#font_2_1" transform="matrix(10,0,0,-10,16.191899,28.150116)"/>
<use data-text="3" xlink:href="#font_1_7" transform="matrix(10,0,0,-10,18.191899,28.150116)"/>
<use data-text="0" xlink:href="#font_1_4" transform="matrix(10,0,0,-10,23.191899,28.150116)"/>
<use data-text="&#x0009;" xlink:href="#font_2_1" transform="matrix(10,0,0,-10,28.191899,28.150116)"/>
<use data-text="2" xlink:href="#font_1_6" transform="matrix(10,0,0,-10,102.191898,28.150116)"/>
<use data-text="3" xlink:href="#font_1_7" transform="matrix(10,0,0,-10,107.191898,28.150116)"/>
<use data-text="&#x0009;" xlink:href="#font_2_1" transform="matrix(10,0,0,-10,112.191898,28.150116)"/>
<use data-text="2" xlink:href="#font_1_6" transform="matrix(10,0,0,-10,114.191898,28.150116)"/>
<use data-text="2" xlink:href="#font_1_6" transform="matrix(10,0,0,-10,119.191898,28.150116)"/>
<use data-text="&#x0009;" xlink:href="#font_2_1" transform="matrix(10,0,0,-10,124.191898,28.150116)"/>
<use data-text="0" xlink:href="#font_1_4" transform="matrix(10,0,0,-10,380.1919,28.150116)"/>
<use data-text="&#x0009;" xlink:href="#font_2_1" transform="matrix(10,0,0,-10,385.1919,28.150116)"/>
<path transform="matrix(1,0,0,-1,-42.8081,538.275)" d="M47.5 504.375H59.5V486.375H47.5Z" fill="#e4e4e4" fill-rule="evenodd"/>
<path transform="matrix(1,0,0,-1,4.6918985,33.900117)" stroke-width=".75" stroke-linecap="butt" stroke-miterlimit="8" stroke-linejoin="miter" fill="none" stroke="#000000" d="M0 0H12V-18H0Z"/>
<use data-text="s" xlink:href="#font_3_8" transform="matrix(12,0,0,-12,6.6918985,47.700136)"/>
<use data-text=" " xlink:href="#font_3_1" transform="matrix(12,0,0,-12,13.891899,47.700136)"/>
<path transform="matrix(1,0,0,-1,-42.8081,538.275)" d="M59.5 504.375H155.5V486.375H59.5Z" fill="#c6e6e9" fill-rule="evenodd"/>
<path transform="matrix(1,0,0,-1,16.691899,33.900117)" stroke-width=".75" stroke-linecap="butt" stroke-miterlimit="8" stroke-linejoin="miter" fill="none" stroke="#000000" d="M0 0H96V-18H0Z"/>
<use data-text="e" xlink:href="#font_3_4" transform="matrix(12,0,0,-12,53.891897,47.700136)"/>
<use data-text="x" xlink:href="#font_3_9" transform="matrix(12,0,0,-12,61.091894,47.700136)"/>
<use data-text="p" xlink:href="#font_3_6" transform="matrix(12,0,0,-12,68.291889,47.700136)"/>
<use data-text=" " xlink:href="#font_3_1" transform="matrix(12,0,0,-12,75.49188,47.700136)"/>
<path transform="matrix(1,0,0,-1,-42.8081,538.275)" d="M155.5 504.375H431.5V486.375H155.5Z" fill="#eeeeee" fill-rule="evenodd"/>
<path transform="matrix(1,0,0,-1,112.691898,33.900117)" stroke-width=".75" stroke-linecap="butt" stroke-miterlimit="8" stroke-linejoin="miter" fill="none" stroke="#000000" d="M0 0H276V-18H0Z"/>
<use data-text="f" xlink:href="#font_3_5" transform="matrix(12,0,0,-12,235.8919,47.700136)"/>
<use data-text="r" xlink:href="#font_3_7" transform="matrix(12,0,0,-12,243.09192,47.700136)"/>
<use data-text="a" xlink:href="#font_3_2" transform="matrix(12,0,0,-12,250.29193,47.700136)"/>
<use data-text="c" xlink:href="#font_3_3" transform="matrix(12,0,0,-12,257.49195,47.700136)"/>
<use data-text=" " xlink:href="#font_3_1" transform="matrix(12,0,0,-12,264.69197,47.700136)"/>
<use data-text="6" xlink:href="#font_1_9" transform="matrix(10,0,0,-10,6.1918985,107.275028)"/>
<use data-text="3" xlink:href="#font_1_7" transform="matrix(10,0,0,-10,11.191898,107.275028)"/>
<use data-text="&#x0009;" xlink:href="#font_2_1" transform="matrix(10,0,0,-10,16.191899,107.275028)"/>
<use data-text="6" xlink:href="#font_1_9" transform="matrix(10,0,0,-10,18.191899,107.275028)"/>
<use data-text="2" xlink:href="#font_1_6" transform="matrix(10,0,0,-10,23.191899,107.275028)"/>
<use data-text="&#x0009;" xlink:href="#font_2_1" transform="matrix(10,0,0,-10,28.191899,107.275028)"/>
<use data-text="5" xlink:href="#font_1_8" transform="matrix(10,0,0,-10,138.1919,107.275028)"/>
<use data-text="2" xlink:href="#font_1_6" transform="matrix(10,0,0,-10,143.1919,107.275028)"/>
<use data-text="&#x0009;" xlink:href="#font_2_1" transform="matrix(10,0,0,-10,148.1919,107.275028)"/>
<use data-text="5" xlink:href="#font_1_8" transform="matrix(10,0,0,-10,150.1919,107.275028)"/>
<use data-text="1" xlink:href="#font_1_5" transform="matrix(10,0,0,-10,155.1919,107.275028)"/>
<use data-text="&#x0009;" xlink:href="#font_2_1" transform="matrix(10,0,0,-10,160.1919,107.275028)"/>
<g clip-path="url(#clip_4)">
<use data-text="&#x0009;" xlink:href="#font_2_1" transform="matrix(10,0,0,-10,769.1918,107.275028)"/>
</g>
<path transform="matrix(1,0,0,-1,-42.8081,538.275)" d="M47.5 426.375H59.5V408.375H47.5Z" fill="#e4e4e4" fill-rule="evenodd"/>
<path transform="matrix(1,0,0,-1,4.6918985,111.900119)" stroke-width=".75" stroke-linecap="butt" stroke-miterlimit="8" stroke-linejoin="miter" fill="none" stroke="#000000" d="M0 0H12V-18H0Z"/>
<use data-text="s" xlink:href="#font_3_8" transform="matrix(12,0,0,-12,6.6918985,125.700138)"/>
<use data-text=" " xlink:href="#font_3_1" transform="matrix(12,0,0,-12,13.891899,125.700138)"/>
<path transform="matrix(1,0,0,-1,-42.8081,538.275)" d="M59.5 426.375H191.5V408.375H59.5Z" fill="#c6e6e9" fill-rule="evenodd"/>
<path transform="matrix(1,0,0,-1,16.691899,111.900119)" stroke-width=".75" stroke-linecap="butt" stroke-miterlimit="8" stroke-linejoin="miter" fill="none" stroke="#000000" d="M0 0H132V-18H0Z"/>
<use data-text="e" xlink:href="#font_3_4" transform="matrix(12,0,0,-12,71.89189,125.700138)"/>
<use data-text="x" xlink:href="#font_3_9" transform="matrix(12,0,0,-12,79.09189,125.700138)"/>
<use data-text="p" xlink:href="#font_3_6" transform="matrix(12,0,0,-12,86.291889,125.700138)"/>
<use data-text=" " xlink:href="#font_3_1" transform="matrix(12,0,0,-12,93.49188,125.700138)"/>
<path transform="matrix(1,0,0,-1,-42.8081,538.275)" d="M191.5 426.375H431V408.375H191.5Z" fill="#eeeeee" fill-rule="evenodd"/>
<path transform="matrix(1,0,0,-1,148.6919,111.900119)" stroke-width=".75" stroke-linecap="butt" stroke-miterlimit="8" stroke-linejoin="miter" fill="none" stroke="#000000" d="M0 0H239.5V-18H0Z"/>
<use data-text="f" xlink:href="#font_3_5" transform="matrix(12,0,0,-12,232.8919,125.700138)"/>
<use data-text="r" xlink:href="#font_3_7" transform="matrix(12,0,0,-12,240.09192,125.700138)"/>
<use data-text="a" xlink:href="#font_3_2" transform="matrix(12,0,0,-12,247.29193,125.700138)"/>
<use data-text="c" xlink:href="#font_3_3" transform="matrix(12,0,0,-12,254.49195,125.700138)"/>
<use data-text=" " xlink:href="#font_3_1" transform="matrix(12,0,0,-12,261.69197,125.700138)"/>
<use data-text="(" xlink:href="#font_1_2" transform="matrix(12,0,0,-12,268.89198,125.700138)"/>
<use data-text="5" xlink:href="#font_1_8" transform="matrix(12,0,0,-12,272.88798,125.700138)"/>
<use data-text="1" xlink:href="#font_1_5" transform="matrix(12,0,0,-12,278.88798,125.700138)"/>
<use data-text=":" xlink:href="#font_1_10" transform="matrix(12,0,0,-12,284.88798,125.700138)"/>
<use data-text="3" xlink:href="#font_1_7" transform="matrix(12,0,0,-12,288.22398,125.700138)"/>
<use data-text="2" xlink:href="#font_1_6" transform="matrix(12,0,0,-12,294.22398,125.700138)"/>
<use data-text=")" xlink:href="#font_1_3" transform="matrix(12,0,0,-12,300.22398,125.700138)"/>
<use data-text="&#x0009;" xlink:href="#font_2_1" transform="matrix(12,0,0,-12,304.21998,125.700138)"/>
<use data-text="S" xlink:href="#font_1_12" transform="matrix(12,0,0,-12,6.3919107,14.628174)"/>
<use data-text="i" xlink:href="#font_1_17" transform="matrix(12,0,0,-12,13.063911,14.628174)"/>
<use data-text="n" xlink:href="#font_1_19" transform="matrix(12,0,0,-12,16.399914,14.628174)"/>
<use data-text="g" xlink:href="#font_1_16" transform="matrix(12,0,0,-12,22.399914,14.628174)"/>
<use data-text="l" xlink:href="#font_1_18" transform="matrix(12,0,0,-12,28.399914,14.628174)"/>
<use data-text="e" xlink:href="#font_1_15" transform="matrix(12,0,0,-12,31.735913,14.628174)"/>
<use data-text=" " xlink:href="#font_1_1" transform="matrix(12,0,0,-12,37.063917,14.628174)"/>
<use data-text="p" xlink:href="#font_1_21" transform="matrix(12,0,0,-12,40.063917,14.628174)"/>
<use data-text="r" xlink:href="#font_1_22" transform="matrix(12,0,0,-12,46.063917,14.628174)"/>
<use data-text="e" xlink:href="#font_1_15" transform="matrix(12,0,0,-12,50.059919,14.628174)"/>
<use data-text="c" xlink:href="#font_1_14" transform="matrix(12,0,0,-12,55.38792,14.628174)"/>
<use data-text="i" xlink:href="#font_1_17" transform="matrix(12,0,0,-12,60.715925,14.628174)"/>
<use data-text="s" xlink:href="#font_1_23" transform="matrix(12,0,0,-12,64.051929,14.628174)"/>
<use data-text="i" xlink:href="#font_1_17" transform="matrix(12,0,0,-12,68.719928,14.628174)"/>
<use data-text="o" xlink:href="#font_1_20" transform="matrix(12,0,0,-12,72.05592,14.628174)"/>
<use data-text="n" xlink:href="#font_1_19" transform="matrix(12,0,0,-12,78.05592,14.628174)"/>
<use data-text="&#x0009;" xlink:href="#font_2_1" transform="matrix(12,0,0,-12,84.05592,14.628174)"/>
<use data-text="D" xlink:href="#font_1_11" transform="matrix(12,0,0,-12,7.387909,93.756168)"/>
<use data-text="o" xlink:href="#font_1_20" transform="matrix(12,0,0,-12,16.05191,93.756168)"/>
<use data-text="u" xlink:href="#font_1_24" transform="matrix(12,0,0,-12,22.051915,93.756168)"/>
<use data-text="b" xlink:href="#font_1_13" transform="matrix(12,0,0,-12,28.051915,93.756168)"/>
<use data-text="l" xlink:href="#font_1_18" transform="matrix(12,0,0,-12,34.051916,93.756168)"/>
<use data-text="e" xlink:href="#font_1_15" transform="matrix(12,0,0,-12,37.387914,93.756168)"/>
<use data-text=" " xlink:href="#font_1_1" transform="matrix(12,0,0,-12,42.715917,93.756168)"/>
<use data-text="p" xlink:href="#font_1_21" transform="matrix(12,0,0,-12,45.715917,93.756168)"/>
<use data-text="r" xlink:href="#font_1_22" transform="matrix(12,0,0,-12,51.715917,93.756168)"/>
<use data-text="e" xlink:href="#font_1_15" transform="matrix(12,0,0,-12,55.711919,93.756168)"/>
<use data-text="c" xlink:href="#font_1_14" transform="matrix(12,0,0,-12,61.03992,93.756168)"/>
<use data-text="i" xlink:href="#font_1_17" transform="matrix(12,0,0,-12,66.36792,93.756168)"/>
<use data-text="s" xlink:href="#font_1_23" transform="matrix(12,0,0,-12,69.70392,93.756168)"/>
<use data-text="i" xlink:href="#font_1_17" transform="matrix(12,0,0,-12,74.37192,93.756168)"/>
<use data-text="o" xlink:href="#font_1_20" transform="matrix(12,0,0,-12,77.70792,93.756168)"/>
<use data-text="n" xlink:href="#font_1_19" transform="matrix(12,0,0,-12,83.70792,93.756168)"/>
<use data-text="&#x0009;" xlink:href="#font_2_1" transform="matrix(12,0,0,-12,89.70792,93.756168)"/>
<path transform="matrix(1,0,0,-1,-42.8081,538.275)" d="M47.5 378H431.5V358.75H47.5Z" fill="#eeeeee" fill-rule="evenodd"/>
<path transform="matrix(1,0,0,-1,4.6918985,160.27503)" stroke-width=".75" stroke-linecap="butt" stroke-miterlimit="8" stroke-linejoin="miter" fill="none" stroke="#000000" d="M0 0H384V-19.25H0Z"/>
<use data-text="f" xlink:href="#font_3_5" transform="matrix(12,0,0,-12,163.89189,174.70001)"/>
<use data-text="r" xlink:href="#font_3_7" transform="matrix(12,0,0,-12,171.09189,174.70001)"/>
<use data-text="a" xlink:href="#font_3_2" transform="matrix(12,0,0,-12,178.29189,174.70001)"/>
<use data-text="c" xlink:href="#font_3_3" transform="matrix(12,0,0,-12,185.49188,174.70001)"/>
<use data-text=" " xlink:href="#font_3_1" transform="matrix(12,0,0,-12,192.69188,174.70001)"/>
<use data-text="(" xlink:href="#font_1_2" transform="matrix(12,0,0,-12,199.89188,174.70001)"/>
<use data-text="3" xlink:href="#font_1_7" transform="matrix(12,0,0,-12,203.88788,174.70001)"/>
<use data-text="1" xlink:href="#font_1_5" transform="matrix(12,0,0,-12,209.88788,174.70001)"/>
<use data-text=":" xlink:href="#font_1_10" transform="matrix(12,0,0,-12,215.88788,174.70001)"/>
<use data-text="0" xlink:href="#font_1_4" transform="matrix(12,0,0,-12,219.22388,174.70001)"/>
<use data-text=")" xlink:href="#font_1_3" transform="matrix(12,0,0,-12,225.22388,174.70001)"/>
<use data-text="&#x0009;" xlink:href="#font_2_1" transform="matrix(12,0,0,-12,229.21988,174.70001)"/>
<use data-text="3" xlink:href="#font_1_7" transform="matrix(10,0,0,-10,6.1918985,155.27503)"/>
<use data-text="1" xlink:href="#font_1_5" transform="matrix(10,0,0,-10,11.191898,155.27503)"/>
<use data-text="&#x0009;" xlink:href="#font_2_1" transform="matrix(10,0,0,-10,16.191899,155.27503)"/>
<use data-text="0" xlink:href="#font_1_4" transform="matrix(10,0,0,-10,380.1919,155.27503)"/>
<use data-text="&#x0009;" xlink:href="#font_2_1" transform="matrix(10,0,0,-10,385.1919,155.27503)"/>
<use data-text="3" xlink:href="#font_1_7" transform="matrix(10,0,0,-10,378.1919,107.275028)"/>
<use data-text="2" xlink:href="#font_1_6" transform="matrix(10,0,0,-10,383.1919,107.275028)"/>
<use data-text="&#x0009;" xlink:href="#font_2_1" transform="matrix(10,0,0,-10,388.1919,107.275028)"/>
</g>
</svg>
