<svg xmlns="http://www.w3.org/2000/svg" xmlns:xlink="http://www.w3.org/1999/xlink" version="1.1" width="422.53199pt" height="324.232pt" viewBox="0 0 422.53199 324.232">
<defs>
<clipPath id="clip_0">
<path transform="matrix(1,0,0,-1,-171.232,499.431)" d="M171.232 175.199H593.764V499.431H171.232Z" fill-rule="evenodd"/>
</clipPath>
<path id="font_1_10" d="M.17236328 .18847656C.13264974 .18847656 .098958339 .20244853 .07128906 .23039246 .043619794 .25834657 .029785157 .29214479 .029785157 .3317871 .029785157 .3711039 .043701173 .40457154 .0715332 .43218995 .099365238 .4598185 .13297527 .4736328 .17236328 .4736328 .2117513 .4736328 .24511719 .4598185 .27246095 .43218995 .2998047 .40457154 .31347657 .3711039 .31347657 .3317871 .31347657 .29214479 .29964195 .25834657 .27197267 .23039246 .24430339 .20244853 .21110027 .18847656 .17236328 .18847656Z"/>
<path id="font_1_1" d="M0 0Z"/>
<path id="font_2_1" d="M0 0Z"/>
<path id="font_3_2" d="M.16894531 .58691409C.17089844 .59401449 .1722819 .6003876 .1730957 .6060333 .1739095 .61168929 .1743164 .6164551 .1743164 .6203308 .1743164 .6245219 .17325847 .62863668 .17114258 .6326752 .16902669 .6367137 .1640625 .63986209 .15625 .64212039 .15397136 .64276126 .15014649 .64324447 .14477539 .64356997 .1394043 .64389547 .12776692 .64454147 .10986328 .6455078V.6621094C.120279949 .663737 .1315918 .66520187 .14379883 .6665039 .15600586 .66780599 .17252605 .67008468 .19335938 .67333987 .19563802 .67366537 .20548503 .67578127 .22290039 .6796875 .24031575 .68359377 .25276695 .6855469 .2602539 .6855469 .2618815 .6855469 .26342774 .68489077 .26489259 .6835785 .26635743 .6822764 .26708985 .6803182 .26708985 .67770388L.26611329 .6713257 .16894531 .3022461C.19824219 .34361778 .22314453 .37368266 .24365235 .3924408 .27945964 .42508445 .31640626 .44140626 .3544922 .44140626 .39029948 .44140626 .4190267 .4296163 .44067384 .40603639 .46232096 .38246665 .47314454 .35328675 .47314454 .3184967 .47314454 .23752339 .43782554 .16175843 .3671875 .09120178 .2985026 .022588095 .2273763-.01171875 .1538086-.01171875 .120279949-.01171875 .08951823-.004170736 .061523439 .010925293 .033528646 .025705973 .020670573 .037526449 .022949219 .04638672L.16894531 .58691409M.1586914 .01171875C.2163086 .01171875 .27018229 .049153646 .3203125 .12402344 .3655599 .19140625 .3881836 .25309245 .3881836 .30908204 .3881836 .33447267 .3815104 .35473634 .36816407 .36987306 .35481773 .38500978 .33805339 .39257813 .3178711 .39257813 .26611329 .39257813 .21663411 .34635417 .1694336 .25390626 .12841797 .17350261 .107910159 .106770839 .107910159 .053710939 .107910159 .041015626 .111979167 .0308431 .12011719 .02319336 .1282552 .01554362 .14111328 .01171875 .1586914 .01171875Z"/>
<path id="font_3_3" d="M.3720703 .44140626C.38509117 .44140626 .39664714 .43782044 .40673829 .4306488 .42236329 .41989646 .43017579 .4021403 .43017579 .37738038 .43017579 .3663025 .42749024 .35090638 .42211915 .33119203 .41674806 .31148783 .4070638 .27979533 .3930664 .2361145 .42919923 .29151408 .46028648 .3337148 .48632813 .36271668 .5335286 .4151764 .5751953 .44140626 .6113281 .44140626 .6266276 .44140626 .640625 .43619285 .6533203 .425766 .6660156 .41533915 .6723633 .39856468 .6723633 .3754425 .6723633 .36827088 .6692708 .35084025 .66308596 .32315064L.5913086 .056671144C.59000656 .053029378 .5904948 .048858644 .59277346 .044158937 .59505209 .03945923 .5992839 .037109376 .60546877 .037109376 .6113281 .037109376 .6164551 .038589479 .6208496 .041549684 .62524417 .044509889 .6308594 .04944356 .6376953 .056350709 .64420577 .062932338 .6494954 .06868998 .65356448 .07362366 .6576335 .078557338 .6692708 .09286499 .68847659 .11654663L.7036133 .10484314 .69873049 .097961429C.67529299 .06451416 .6516927 .037872316 .6279297 .018035889 .6041667-.0018005371 .5807292-.01171875 .5576172-.01171875 .5472005-.01171875 .53841146-.009114583 .53125-.00390625 .5201823 .0045674645 .51464846 .018737793 .51464846 .038604738 .51464846 .04348755 .51505538 .04869588 .51586917 .054229738 .5166829 .05977376 .5179036 .065963748 .51953127 .07279968L.58984377 .34661866C.5908203 .35053507 .59155276 .35379539 .592041 .35639955 .5925293 .3590037 .59277346 .36161296 .59277346 .3642273 .59277346 .37204997 .59073898 .37807719 .5866699 .38230897 .5826009 .3865509 .57747396 .38867188 .57128909 .38867188 .5494792 .38867188 .52408859 .37225343 .4951172 .3394165 .46614585 .3065796 .44091798 .2732544 .4194336 .23944092 .39990235 .20498657 .38614909 .1761322 .37817384 .15287781 .37019859 .12963359 .3556315 .07867432 .33447267 0H.25878907L.3515625 .34661866C.35221354 .34954835 .3527832 .35239665 .35327149 .35516358 .35375978 .35794068 .3540039 .36079917 .3540039 .363739 .3540039 .37156169 .35229493 .3776703 .34887696 .38206483 .34545899 .3864695 .33984376 .38867188 .33203126 .38867188 .31152345 .38867188 .2862142 .37161256 .25610353 .3374939 .22599285 .30337525 .20133464 .27153016 .1821289 .24195862 .1632487 .21303813 .1451823 .17453003 .12792969 .12643433 .11751302 .09714762 .10367838 .05500285 .08642578 0H.011230469L.10644531 .3466797C.107421878 .3502604 .10823568 .35367839 .10888672 .3569336 .10953776 .3601888 .10986328 .36360679 .10986328 .3671875 .10986328 .3798828 .10546875 .38753257 .09667969 .39013673 .087890628 .39274089 .07096354 .3935547 .045898439 .39257813V.4091797C.07877604 .41438804 .1319987 .42513023 .2055664 .44140626L.20947266 .43798829 .15234375 .23789978C.18847656 .2908783 .22265625 .33513389 .2548828 .3706665 .29915367 .41782633 .33821617 .44140626 .3720703 .44140626Z"/>
<path id="font_4_1" d="M0 0Z"/>
<path id="font_5_11" d="M.49951173 .25V.20117188H-.0024414063V.25H.49951173Z"/>
<path id="font_5_5" d="M.29589845 .67089846C.29720054 .6692708 .29793296 .6680501 .2980957 .6672363 .29825846 .66642257 .29833985 .6645508 .29833985 .6616211V.07421875C.29833985 .048950197 .30501304 .03286743 .31835938 .025970459 .33170573 .019083659 .35660807 .014984131 .3930664 .013671875V0H.11767578V.0146484379C.1570638 .01663208 .18277996 .02207438 .19482422 .030975342 .20686849 .039886476 .21289063 .059183759 .21289063 .08886719V.54003909C.21289063 .55595907 .2109375 .56799319 .20703125 .57614138 .203125 .58429977 .19466146 .5883789 .18164063 .5883789 .17317708 .5883789 .16219075 .58601889 .14868164 .5812988 .13517253 .5765788 .122558597 .57161459 .110839847 .56640627V.5800781L.29003907 .67089846H.29589845Z"/>
<path id="font_5_6" d="M.029785157 .011230469C.14892578 .13485718 .2298177 .22561138 .27246095 .28349305 .31510417 .3413849 .33642579 .3978119 .33642579 .45277406 .33642579 .50091049 .32340495 .53757736 .29736329 .56277468 .27132163 .5879822 .24023438 .60058596 .20410156 .60058596 .1595052 .60058596 .1233724 .58432516 .095703128 .5518036 .08040365 .5339203 .06575521 .5064392 .051757814 .46936036L.030761719 .47375489C.04703776 .5487569 .07462565 .6008504 .11352539 .6300354 .15242513 .65923056 .19417317 .6738281 .23876953 .6738281 .29378257 .6738281 .33829753 .65649417 .37231446 .6218262 .4063314 .5871582 .42333985 .5447591 .42333985 .4946289 .42333985 .4412435 .4049479 .3898112 .36816407 .34033204 .33138023 .29085288 .25146485 .20279949 .12841797 .076171878H.35253907C.38378907 .076171878 .40576173 .07991028 .41845704 .087387088 .43115235 .09487406 .44547526 .113087978 .46142579 .14202881L.4741211 .13616944 .41992188 0H.029785157V.011230469Z"/>
<path id="font_5_4" d="M.23925781 .018554688C.28710938 .018554688 .31998698 .04473877 .33789063 .09710693 .35579429 .1494751 .3647461 .22526042 .3647461 .3244629 .3647461 .40350343 .359375 .46660868 .3486328 .5137787 .32845054 .6015981 .2906901 .6455078 .23535156 .6455078 .18001302 .6455078 .14208985 .600296 .12158203 .50987246 .110839847 .46173606 .10546875 .39831034 .10546875 .31959535 .10546875 .24575298 .1110026 .18671672 .12207031 .14248657 .14290364 .059865316 .18196614 .018554688 .23925781 .018554688M.23779297 .671875C.31266276 .671875 .37076823 .6326192 .41210938 .55410769 .44498698 .49059043 .46142579 .4176229 .46142579 .33520509 .46142579 .27038575 .45133464 .20930989 .43115235 .15197754 .3930664 .04414876 .32714845-.009765625 .23339844-.009765625 .16927083-.009765625 .11653646 .019388834 .07519531 .077697757 .030924479 .13991292 .0087890629 .22444661 .0087890629 .33129884 .0087890629 .41534425 .02360026 .48766075 .053222658 .5482483 .09326172 .6306661 .15478516 .671875 .23779297 .671875Z"/>
<path id="font_5_7" d="M.07763672 .08496094C.09554037 .08496094 .11922201 .075520839 .14868164 .056640626 .17814128 .037760419 .203125 .028320313 .22363281 .028320313 .26920573 .028320313 .3030599 .04377238 .3251953 .07467651 .34733073 .10559082 .35839845 .13920085 .35839845 .17550659 .35839845 .21051026 .34944663 .24125672 .33154298 .26774598 .30126954 .31255595 .25016276 .33496095 .17822266 .33496095 .17399089 .33496095 .16992188 .33487956 .16601563 .3347168 .16210938 .33455406 .15755208 .33414714 .15234375 .3334961L.15136719 .3461914C.20345052 .3650411 .24446614 .38664756 .27441407 .41101075 .30436198 .43538413 .31933595 .46755473 .31933595 .5075226 .31933595 .5429433 .3075358 .5699107 .28393556 .5884247 .2603353 .60694888 .23339844 .61621096 .203125 .61621096 .1673177 .61621096 .13574219 .60302737 .10839844 .57666018 .09342448 .5623372 .077311199 .54020187 .060058595 .5102539L.044921876 .5136719C.057942708 .56315109 .08219401 .60270187 .11767578 .6323242 .15315755 .6619466 .19417317 .6767578 .24072266 .6767578 .29052735 .6767578 .32902018 .66308596 .35620118 .6357422 .38338218 .60839846 .39697267 .57682296 .39697267 .5410156 .39697267 .5094401 .3857422 .48046876 .36328126 .45410157 .35058595 .4391276 .33089195 .42236329 .30419923 .4038086 .33544923 .3904419 .3605143 .37479655 .37939454 .35687257 .4148763 .3226522 .4326172 .27930705 .4326172 .22683716 .4326172 .16491699 .40828453 .11032613 .35961915 .063064578 .31095378 .015813193 .24169922-.0078125 .15185547-.0078125 .111816409-.0078125 .083740238-.0018412272 .06762695 .010101318 .051513673 .022043864 .04345703 .034886678 .04345703 .04862976 .04345703 .057144166 .046142579 .065327968 .051513673 .07318115 .056884767 .08103434 .065592449 .08496094 .07763672 .08496094Z"/>
<path id="font_3_4" d="M.018066407 0 .10253906 .30078126C.10970052 .3263041 .113850917 .34176637 .114990238 .34716798 .116129558 .35256959 .11669922 .35837809 .11669922 .3645935 .11669922 .37408448 .11401367 .38152568 .10864258 .3869171 .103271488 .39231874 .09277344 .39501954 .07714844 .39501954 .07324219 .39501954 .06941732 .3947754 .06567383 .3942871 .06193034 .39379884 .05777995 .39322917 .053222658 .39257813V.4091797C.07438151 .4124349 .08943685 .4148763 .09838867 .4165039 .10734049 .4181315 .11702474 .42008464 .1274414 .42236329L.21484375 .44140626C.21679688 .440094 .21809896 .4386139 .21875 .43696595L.1538086 .2265625C.19352214 .2875773 .22672527 .33292643 .25341798 .36260987 .30029298 .41514079 .34228517 .44140626 .37939454 .44140626 .39371745 .44140626 .40608726 .43862916 .4165039 .43307496 .4363607 .4222819 .44628907 .40283204 .44628907 .37472535 .44628907 .36688233 .44547526 .3587087 .44384767 .35020448 .44222007 .34171043 .44010417 .3325602 .4375 .3227539L.37353517 .08886719C.37223307 .083984378 .37076823 .07804362 .36914063 .07104492 .36751304 .06404623 .36669923 .05908203 .36669923 .056152345 .36669923 .05126953 .36783854 .046875 .3701172 .04296875 .37239585 .0390625 .3761393 .037109376 .38134767 .037109376 .3898112 .037109376 .3995768 .04204305 .41064454 .0519104 .42171226 .061777753 .43977867 .08288574 .46484376 .115234378L.4790039 .10253906C.4523112 .06655884 .43115235 .041275026 .41552735 .026687623 .38883464 .001083374 .36328126-.01171875 .3388672-.01171875 .32779948-.01171875 .31713868-.008056641 .30688478-.0007324219 .29663087 .006591797 .2915039 .019856772 .2915039 .0390625 .2915039 .044596357 .2919108 .05045573 .2927246 .056640626 .29353843 .06282552 .29459635 .06819662 .29589845 .072753909L.35742188 .3100586C.3606771 .32307945 .36287437 .33374024 .36401368 .34204103 .36515299 .3503418 .36572267 .35628257 .36572267 .35986329 .36572267 .36767579 .36385093 .37443034 .36010743 .38012696 .35636393 .38582359 .34977214 .38867188 .34033204 .38867188 .31591798 .38867188 .28515626 .36662293 .24804688 .32252503 .22623699 .29625956 .20410156 .26496888 .18164063 .22865296 .16438802 .20044454 .15079753 .17296346 .14086914 .14620972 .13094075 .11946615 .115234378 .070729579 .09375 0H.018066407Z"/>
<path id="font_5_2" d="M.24853516 .5048828H.31689454V.2861328H.53466799V.21875H.31689454V0H.24853516V.21875H.029785157V.2861328H.24853516V.5048828Z"/>
<path id="font_6_1" d="M.079589847 .0703125C.079589847 .09361776 .08780924 .11343893 .10424805 .129776 .12068685 .14612325 .140625 .15429688 .1640625 .15429688 .1875 .15429688 .20743816 .14612325 .22387696 .129776 .24031575 .11343893 .24853516 .09361776 .24853516 .0703125 .24853516 .047007245 .24031575 .02718099 .22387696 .01083374 .20743816-.0055033366 .1875-.013671875 .1640625-.013671875 .140625-.013671875 .12068685-.0055033366 .10424805 .01083374 .08780924 .02718099 .079589847 .047007245 .079589847 .0703125Z"/>
<path id="font_5_8" d="M.2915039 .5704956 .051757814 .23242188H.2915039V.5704956M.32373048 .67089846H.3701172V.23242188H.47216798V.16699219H.3701172V0H.29248048V.16699219H.011230469V.23242188L.32373048 .67089846Z"/>
<path id="font_5_3" d="M.2241211 .67578127H.27294923L.051757814-.016601563H.001953125L.2241211 .67578127Z"/>
<path id="font_5_9" d="M.25146485 .017578125C.28889976 .017578125 .31722007 .02796936 .33642579 .04875183 .3556315 .0695343 .36523438 .09551493 .36523438 .12669373 .36523438 .16209412 .35506187 .1907552 .3347168 .212677 .31437174 .2345988 .2726237 .267807 .20947266 .31230165 .18147786 .2947642 .16113281 .2720286 .1484375 .24409485 .13574219 .21617127 .12939453 .18921916 .12939453 .16323853 .12939453 .1187439 .14086914 .083343509 .16381836 .057037355 .18676758 .030731202 .21598308 .017578125 .25146485 .017578125M.2578125 .38975526C.28841148 .41118876 .3095703 .42921449 .32128907 .4438324 .34147135 .46883647 .3515625 .4990387 .3515625 .5344391 .3515625 .56529238 .34204103 .59151718 .32299806 .6131134 .30395509 .63470968 .2750651 .6455078 .23632813 .6455078 .2063802 .6455078 .18164063 .6360881 .16210938 .61724856 .14257813 .5984192 .1328125 .57552596 .1328125 .5485687 .1328125 .51804098 .14428711 .4897054 .16723633 .463562 .19018555 .4374186 .22037761 .41281639 .2578125 .38975526M.18261719 .33325196C.13964844 .3677775 .11035156 .39530436 .09472656 .41583253 .07063802 .44710288 .05859375 .4816335 .05859375 .51942446 .05859375 .5624237 .076416019 .5989075 .11206055 .62887576 .14770508 .658844 .19401042 .6738281 .25097657 .6738281 .3033854 .6738281 .3450521 .6596527 .37597657 .6313019 .40690104 .60295107 .42236329 .57003787 .42236329 .53256228 .42236329 .49443565 .40657554 .46021525 .375 .42990113 .35677085 .41262818 .3273112 .39275108 .2866211 .37026979 .34195964 .3292338 .3815918 .29349265 .40551759 .26304627 .42944337 .2325999 .44140626 .19669597 .44140626 .15533448 .44140626 .1084493 .42374674 .06904602 .38842774 .037124635 .35310874 .0052134196 .3058268-.0107421879 .24658203-.0107421879 .19352214-.0107421879 .1480306 .0039978029 .11010742 .033477785 .07218424 .06295776 .053222658 .10180155 .053222658 .15000916 .053222658 .19138082 .06640625 .22786968 .09277344 .2594757 .11002604 .27999369 .13997396 .30458579 .18261719 .33325196Z"/>
<path id="font_3_5" d="M.001953125 .24316406H.50439456L.4951172 .19628906H-.0073242189L.001953125 .24316406Z"/>
<path id="font_3_1" d="M.048339845 .016601563 .08154297 .017089844C.10335287 .01969401 .12076823 .024495444 .13378906 .03149414 .14680989 .03849284 .15576172 .05061849 .16064453 .067871097L.29833985 .5600586C.3006185 .56813558 .30232749 .57499697 .3034668 .5806427 .3046061 .58629867 .30517579 .59138998 .30517579 .59591677 .30517579 .60721847 .30143229 .6148071 .2939453 .61868289 .28645835 .6225688 .2745768 .6245117 .25830079 .6245117L.21044922 .6220703V.6376953L.22314453 .63964846C.23225911 .64127609 .25642906 .6459961 .2956543 .6538086 .33487956 .6616211 .36279298 .6673177 .37939454 .67089846L.39453126 .6743164 .4038086 .67578127 .40966798 .6723633C.40966798 .67041018 .40958659 .66845706 .40942384 .6665039 .40926109 .6645508 .40885417 .66259768 .40820313 .66064456L.24414063 .0625C.24348958 .05984497 .24291992 .057184858 .24243164 .054519655 .24194336 .051864625 .24169922 .049209596 .24169922 .046554567 .24169922 .03293355 .2475586 .02429708 .25927735 .020645142 .2709961 .016993205 .29361979 .014668782 .32714845 .013671875V0H.048339845V.016601563Z"/>
</defs>
<g clip-path="url(#clip_0)">
<path transform="matrix(1,0,0,-1,-171.232,499.431)" d="M36 36H756V576H36Z" fill="#ffffff"/>
<path transform="matrix(1,0,0,-1,-171.232,499.431)" d="M475.25 362H535.25V320H475.25Z" fill="#ffffff" fill-rule="evenodd"/>
<use data-text="&#xfffd;" xlink:href="#font_1_10" transform="matrix(18,0,0,-18,320.21803,165.63101)"/>
<use data-text="&#xfffd;" xlink:href="#font_1_1" transform="matrix(18,0,0,-18,326.518,165.63101)"/>
<use data-text="&#xfffd;" xlink:href="#font_1_10" transform="matrix(18,0,0,-18,331.018,165.63101)"/>
<use data-text="&#xfffd;" xlink:href="#font_1_1" transform="matrix(18,0,0,-18,337.318,165.63101)"/>
<use data-text="&#xfffd;" xlink:href="#font_1_10" transform="matrix(18,0,0,-18,341.818,165.63101)"/>
<use data-text="&#x0009;" xlink:href="#font_2_1" transform="matrix(18,0,0,-18,348.11799,165.63101)"/>
<path transform="matrix(1,0,0,-1,-171.232,499.431)" d="M169.25 362H199.25V320H169.25Z" fill="#ffffff" fill-rule="evenodd"/>
<use data-text="b" xlink:href="#font_3_2" transform="matrix(18,0,0,-18,4.2180025,165.63101)"/>
<use data-text="m" xlink:href="#font_3_3" transform="matrix(12,0,0,-12,13.218002,170.13101)"/>
<use data-text="&#x0009;" xlink:href="#font_4_1" transform="matrix(18,0,0,-18,21.884003,165.63101)"/>
<path transform="matrix(1,0,0,-1,-171.232,499.431)" d="M199.25 362H229.25V320H199.25Z" fill="#ffffff" fill-rule="evenodd"/>
<use data-text="b" xlink:href="#font_3_2" transform="matrix(18,0,0,-18,29.218003,165.63101)"/>
<use data-text="m" xlink:href="#font_3_3" transform="matrix(12,0,0,-12,38.218004,170.13101)"/>
<use data-text="&#x2013;" xlink:href="#font_5_11" transform="matrix(12,0,0,-12,46.882005,170.13101)"/>
<use data-text="1" xlink:href="#font_5_5" transform="matrix(12,0,0,-12,52.882005,170.13101)"/>
<use data-text="&#x0009;" xlink:href="#font_2_1" transform="matrix(18,0,0,-18,58.884004,165.63101)"/>
<path transform="matrix(1,0,0,-1,-171.232,499.431)" d="M289.25 362H319.25V320H289.25Z" fill="#ffffff" fill-rule="evenodd"/>
<use data-text="b" xlink:href="#font_3_2" transform="matrix(18,0,0,-18,126.21802,165.63101)"/>
<use data-text="2" xlink:href="#font_5_6" transform="matrix(12,0,0,-12,135.21802,170.13101)"/>
<use data-text="&#x0009;" xlink:href="#font_2_1" transform="matrix(18,0,0,-18,141.21802,165.63101)"/>
<path transform="matrix(1,0,0,-1,-171.232,499.431)" d="M319.25 362H349.25V320H319.25Z" fill="#ffffff" fill-rule="evenodd"/>
<use data-text="b" xlink:href="#font_3_2" transform="matrix(18,0,0,-18,156.21802,165.63101)"/>
<use data-text="1" xlink:href="#font_5_5" transform="matrix(12,0,0,-12,165.21802,170.13101)"/>
<use data-text="&#x0009;" xlink:href="#font_2_1" transform="matrix(18,0,0,-18,171.21802,165.63101)"/>
<path transform="matrix(1,0,0,-1,-171.232,499.431)" d="M349.25 362H379.25V320H349.25Z" fill="#ffffff" fill-rule="evenodd"/>
<use data-text="b" xlink:href="#font_3_2" transform="matrix(18,0,0,-18,186.21802,165.63101)"/>
<use data-text="0" xlink:href="#font_5_4" transform="matrix(12,0,0,-12,195.21802,170.13101)"/>
<use data-text="&#x0009;" xlink:href="#font_2_1" transform="matrix(18,0,0,-18,201.21802,165.63101)"/>
<path transform="matrix(1,0,0,-1,-171.232,499.431)" d="M385.25 362H415.25V320H385.25Z" fill="#ffffff" fill-rule="evenodd"/>
<use data-text="b" xlink:href="#font_3_2" transform="matrix(18,0,0,-18,218.21802,165.63101)"/>
<use data-text="&#x2013;" xlink:href="#font_5_11" transform="matrix(12,0,0,-12,227.21802,170.13101)"/>
<use data-text="1" xlink:href="#font_5_5" transform="matrix(12,0,0,-12,233.21802,170.13101)"/>
<use data-text="&#x0009;" xlink:href="#font_4_1" transform="matrix(12,0,0,-12,239.21802,170.13101)"/>
<path transform="matrix(1,0,0,-1,-171.232,499.431)" d="M415.25 362H445.25V320H415.25Z" fill="#ffffff" fill-rule="evenodd"/>
<use data-text="b" xlink:href="#font_3_2" transform="matrix(18,0,0,-18,249.21802,165.63101)"/>
<use data-text="&#x2013;" xlink:href="#font_5_11" transform="matrix(12,0,0,-12,258.21803,170.13101)"/>
<use data-text="2" xlink:href="#font_5_6" transform="matrix(12,0,0,-12,264.21803,170.13101)"/>
<use data-text="&#x0009;" xlink:href="#font_2_1" transform="matrix(12,0,0,-12,270.21803,170.13101)"/>
<path transform="matrix(1,0,0,-1,-171.232,499.431)" d="M445.25 362H475.25V320H445.25Z" fill="#ffffff" fill-rule="evenodd"/>
<use data-text="b" xlink:href="#font_3_2" transform="matrix(18,0,0,-18,279.21803,165.63101)"/>
<use data-text="&#x2013;" xlink:href="#font_5_11" transform="matrix(12,0,0,-12,288.21803,170.13101)"/>
<use data-text="3" xlink:href="#font_5_7" transform="matrix(12,0,0,-12,294.21803,170.13101)"/>
<use data-text="&#x0009;" xlink:href="#font_2_1" transform="matrix(12,0,0,-12,300.21803,170.13101)"/>
<path transform="matrix(1,0,0,-1,-171.232,499.431)" d="M522 362H570V320H522Z" fill="#ffffff" fill-rule="evenodd"/>
<use data-text="b" xlink:href="#font_3_2" transform="matrix(18,0,0,-18,358.96803,165.63101)"/>
<use data-text="&#x2013;" xlink:href="#font_5_11" transform="matrix(12,0,0,-12,367.96803,170.13101)"/>
<use data-text="n" xlink:href="#font_3_4" transform="matrix(12,0,0,-12,373.96803,170.13101)"/>
<use data-text="+" xlink:href="#font_5_2" transform="matrix(12,0,0,-12,379.96803,170.13101)"/>
<use data-text="1" xlink:href="#font_5_5" transform="matrix(12,0,0,-12,386.73603,170.13101)"/>
<use data-text="&#x0009;" xlink:href="#font_2_1" transform="matrix(12,0,0,-12,392.73603,170.13101)"/>
<path transform="matrix(1,0,0,-1,-171.232,499.431)" d="M229.25 362H289.25V320H229.25Z" fill="#ffffff" fill-rule="evenodd"/>
<use data-text="&#xfffd;" xlink:href="#font_1_10" transform="matrix(18,0,0,-18,74.218,165.63101)"/>
<use data-text="&#xfffd;" xlink:href="#font_1_1" transform="matrix(18,0,0,-18,80.518009,165.63101)"/>
<use data-text="&#xfffd;" xlink:href="#font_1_10" transform="matrix(18,0,0,-18,85.018009,165.63101)"/>
<use data-text="&#xfffd;" xlink:href="#font_1_1" transform="matrix(18,0,0,-18,91.31799,165.63101)"/>
<use data-text="&#xfffd;" xlink:href="#font_1_10" transform="matrix(18,0,0,-18,95.81799,165.63101)"/>
<use data-text="&#x0009;" xlink:href="#font_2_1" transform="matrix(18,0,0,-18,102.11798,165.63101)"/>
<path transform="matrix(1,0,0,-1,-171.232,499.431)" d="M379.25 362H385.25V320H379.25Z" fill="#ffffff" fill-rule="evenodd"/>
<use data-text="." xlink:href="#font_6_1" transform="matrix(18,0,0,-18,209.01792,165.63101)"/>
<use data-text="&#x0009;" xlink:href="#font_2_1" transform="matrix(18,0,0,-18,213.51792,165.63101)"/>
<use data-text="1" xlink:href="#font_5_5" transform="matrix(18,0,0,-18,213.96793,137.02902)"/>
<use data-text="&#x0009;" xlink:href="#font_2_1" transform="matrix(18,0,0,-18,222.96793,137.02902)"/>
<use data-text="2" xlink:href="#font_5_6" transform="matrix(18,0,0,-18,213.96793,113.035037)"/>
<use data-text="&#x0009;" xlink:href="#font_2_1" transform="matrix(18,0,0,-18,222.96793,113.035037)"/>
<use data-text="4" xlink:href="#font_5_8" transform="matrix(18,0,0,-18,213.96793,89.041049)"/>
<use data-text="&#x0009;" xlink:href="#font_2_1" transform="matrix(18,0,0,-18,222.96793,89.041049)"/>
<use data-text="2" xlink:href="#font_5_6" transform="matrix(18,0,0,-18,213.96793,43.03305)"/>
<use data-text="m" xlink:href="#font_3_3" transform="matrix(12,0,0,-12,222.96802,37.631013)"/>
<use data-text="&#x2013;" xlink:href="#font_5_11" transform="matrix(12,0,0,-12,231.63202,37.631013)"/>
<use data-text="1" xlink:href="#font_5_5" transform="matrix(12,0,0,-12,237.63202,37.631013)"/>
<use data-text="&#x0009;" xlink:href="#font_2_1" transform="matrix(12,0,0,-12,243.63202,47.531007)"/>
<use data-text="2" xlink:href="#font_5_6" transform="matrix(18,0,0,-18,213.96802,17.031006)"/>
<use data-text="m" xlink:href="#font_3_3" transform="matrix(12,0,0,-12,222.96802,11.631012)"/>
<use data-text="&#x0009;" xlink:href="#font_2_1" transform="matrix(12,0,0,-12,231.63202,21.531006)"/>
<path transform="matrix(1,0,0,-1,208.01792,131.431)" stroke-width="2" stroke-linecap="butt" stroke-linejoin="round" fill="none" stroke="#000000" d="M0 0H-19.25V-14"/>
<path transform="matrix(1,0,0,-1,206.76792,109.431)" stroke-width="2" stroke-linecap="butt" stroke-linejoin="round" fill="none" stroke="#000000" d="M0 0H-48V-36"/>
<path transform="matrix(1,0,0,-1,205.518,87.431)" stroke-width="2" stroke-linecap="butt" stroke-linejoin="round" fill="none" stroke="#000000" d="M0 0H-76.75V-58"/>
<path transform="matrix(1,0,0,-1,206.76792,37.43109)" stroke-width="2" stroke-linecap="butt" stroke-linejoin="round" fill="none" stroke="#000000" d="M0 0H-174V-108"/>
<path transform="matrix(1,0,0,-1,206.76792,13.431091)" stroke-width="2" stroke-linecap="butt" stroke-linejoin="round" fill="none" stroke="#000000" d="M0 0H-198V-132"/>
<path transform="matrix(1,0,0,-1,-171.232,499.431)" d="M229.25 420H289.25V378H229.25Z" fill="#ffffff" fill-rule="evenodd"/>
<use data-text="&#xfffd;" xlink:href="#font_1_10" transform="matrix(18,0,0,-18,74.218,107.63101)"/>
<use data-text="&#xfffd;" xlink:href="#font_1_1" transform="matrix(18,0,0,-18,80.518009,107.63101)"/>
<use data-text="&#xfffd;" xlink:href="#font_1_10" transform="matrix(18,0,0,-18,85.018009,107.63101)"/>
<use data-text="&#xfffd;" xlink:href="#font_1_1" transform="matrix(18,0,0,-18,91.31799,107.63101)"/>
<use data-text="&#xfffd;" xlink:href="#font_1_10" transform="matrix(18,0,0,-18,95.81799,107.63101)"/>
<use data-text="&#x0009;" xlink:href="#font_2_1" transform="matrix(18,0,0,-18,102.11798,107.63101)"/>
<path transform="matrix(1,0,0,-1,206.643,189.30609)" stroke-width="2" stroke-linecap="butt" stroke-linejoin="round" fill="none" stroke="#000000" d="M0 0H19.25V14"/>
<path transform="matrix(1,0,0,-1,207.893,211.30609)" stroke-width="2" stroke-linecap="butt" stroke-linejoin="round" fill="none" stroke="#000000" d="M0 0H48V36"/>
<path transform="matrix(1,0,0,-1,209.143,233.30609)" stroke-width="2" stroke-linecap="butt" stroke-linejoin="round" fill="none" stroke="#000000" d="M0 0H76.75V58"/>
<path transform="matrix(1,0,0,-1,207.89292,283.306)" stroke-width="2" stroke-linecap="butt" stroke-linejoin="round" fill="none" stroke="#000000" d="M0 0H174V108"/>
<path transform="matrix(1,0,0,-1,-171.232,499.431)" d="M527.875 258.125H467.875V300.125H527.875Z" fill="#ffffff" fill-rule="evenodd"/>
<use data-text="&#xfffd;" xlink:href="#font_1_10" transform="matrix(-18,-0,0,18,340.443,213.10599)"/>
<use data-text="&#xfffd;" xlink:href="#font_1_1" transform="matrix(-18,-0,0,18,334.143,213.10599)"/>
<use data-text="&#xfffd;" xlink:href="#font_1_10" transform="matrix(-18,-0,0,18,329.643,213.10599)"/>
<use data-text="&#xfffd;" xlink:href="#font_1_1" transform="matrix(-18,-0,0,18,323.34303,213.10599)"/>
<use data-text="&#xfffd;" xlink:href="#font_1_10" transform="matrix(-18,-0,0,18,318.84303,213.10599)"/>
<use data-text="&#x0009;" xlink:href="#font_2_1" transform="matrix(-18,-0,0,18,312.54304,213.10599)"/>
<use data-text="1" xlink:href="#font_5_5" transform="matrix(18,0,0,-18,175.96802,197.031)"/>
<use data-text="/" xlink:href="#font_5_3" transform="matrix(18,0,0,-18,184.96802,197.031)"/>
<use data-text="2" xlink:href="#font_5_6" transform="matrix(18,0,0,-18,189.97202,197.031)"/>
<use data-text="&#x0009;" xlink:href="#font_2_1" transform="matrix(18,0,0,-18,198.97202,197.031)"/>
<use data-text="1" xlink:href="#font_5_5" transform="matrix(18,0,0,-18,176.47202,221.025)"/>
<use data-text="/" xlink:href="#font_5_3" transform="matrix(18,0,0,-18,185.47202,221.025)"/>
<use data-text="4" xlink:href="#font_5_8" transform="matrix(18,0,0,-18,190.47602,221.025)"/>
<use data-text="&#x0009;" xlink:href="#font_2_1" transform="matrix(18,0,0,-18,199.47602,221.025)"/>
<use data-text="1" xlink:href="#font_5_5" transform="matrix(18,0,0,-18,176.47202,246.153)"/>
<use data-text="/" xlink:href="#font_5_3" transform="matrix(18,0,0,-18,185.47202,246.153)"/>
<use data-text="8" xlink:href="#font_5_9" transform="matrix(18,0,0,-18,190.47602,246.153)"/>
<use data-text="&#x0009;" xlink:href="#font_2_1" transform="matrix(18,0,0,-18,199.47602,246.153)"/>
<use data-text="1" xlink:href="#font_5_5" transform="matrix(18,0,0,-18,157.96802,293.025)"/>
<use data-text="/" xlink:href="#font_5_3" transform="matrix(18,0,0,-18,166.96802,293.025)"/>
<use data-text="2" xlink:href="#font_5_6" transform="matrix(18,0,0,-18,171.97202,293.025)"/>
<use data-text="n" xlink:href="#font_3_4" transform="matrix(12,0,0,-12,180.969,287.63099)"/>
<use data-text="&#x2013;" xlink:href="#font_3_5" transform="matrix(12,0,0,-12,186.969,287.63099)"/>
<use data-text="1" xlink:href="#font_3_1" transform="matrix(12,0,0,-12,192.969,287.63099)"/>
<use data-text="&#x0009;" xlink:href="#font_4_1" transform="matrix(12,0,0,-12,198.969,287.63099)"/>
<path transform="matrix(1,0,0,-1,-171.232,499.431)" d="M564 360H594V318H564Z" fill="#ffffff" fill-rule="evenodd"/>
<use data-text="b" xlink:href="#font_3_2" transform="matrix(18,0,0,-18,397.9679,167.63101)"/>
<use data-text="&#x2013;" xlink:href="#font_5_11" transform="matrix(12,0,0,-12,406.9679,172.13101)"/>
<use data-text="n" xlink:href="#font_3_4" transform="matrix(12,0,0,-12,412.9679,172.13101)"/>
<use data-text="&#x0009;" xlink:href="#font_2_1" transform="matrix(12,0,0,-12,418.9679,172.13101)"/>
<path transform="matrix(1,0,0,-1,206.76792,305.806)" stroke-width="2" stroke-linecap="butt" stroke-linejoin="round" fill="none" stroke="#000000" d="M0 0H198V130.375"/>
<use data-text="1" xlink:href="#font_5_5" transform="matrix(18,0,0,-18,168.46802,318.156)"/>
<use data-text="/" xlink:href="#font_5_3" transform="matrix(18,0,0,-18,177.46802,318.156)"/>
<use data-text="2" xlink:href="#font_5_6" transform="matrix(18,0,0,-18,182.47202,318.156)"/>
<use data-text="n" xlink:href="#font_3_4" transform="matrix(12,0,0,-12,191.469,312.75599)"/>
<use data-text="&#x0009;" xlink:href="#font_4_1" transform="matrix(12,0,0,-12,197.469,312.75599)"/>
</g>
</svg>
