<svg xmlns="http://www.w3.org/2000/svg" xmlns:xlink="http://www.w3.org/1999/xlink" version="1.1" width="399.54203pt" height="179.952pt" viewBox="0 0 399.54203 179.952">
<defs>
<clipPath id="clip_0">
<path transform="matrix(1,0,0,-1,-112.569,470.099)" d="M112.569 290.147H512.111V470.099H112.569Z" fill-rule="evenodd"/>
</clipPath>
<path id="font_1_3" d="M.036132814 .32714845C.036132814 .40266929 .047526044 .46769206 .0703125 .5222168 .09309896 .5767415 .1233724 .6173503 .16113281 .64404299 .19042969 .66520187 .22070313 .67578127 .25195313 .67578127 .30273438 .67578127 .34830729 .64990237 .38867188 .59814456 .4391276 .5340169 .46435548 .44710288 .46435548 .33740235 .46435548 .26057945 .45328776 .1953125 .43115235 .14160156 .40901695 .087890628 .38077799 .048909505 .34643556 .024658204 .3120931 .00040690104 .27897135-.01171875 .24707031-.01171875 .18391927-.01171875 .13134766 .025553385 .08935547 .100097659 .0538737 .16292317 .036132814 .23860677 .036132814 .32714845M.13183594 .3152008C.13183594 .22412618 .1430664 .14980062 .16552735 .09222412 .18408203 .043762208 .2117513 .01953125 .24853516 .01953125 .26611329 .01953125 .28434245 .027420044 .30322267 .04319763 .32210288 .05897522 .33642579 .08540344 .3461914 .1224823 .36116538 .17842102 .36865235 .2572988 .36865235 .3591156 .36865235 .4345754 .36083985 .49751283 .34521485 .54792788 .3334961 .5853322 .31835938 .61184188 .2998047 .62745669 .28645835 .63818868 .27034507 .6435547 .25146485 .6435547 .22932942 .6435547 .20963542 .6336365 .19238281 .61380007 .16894531 .5868022 .1529948 .54435226 .14453125 .4864502 .1360677 .42855836 .13183594 .37147523 .13183594 .3152008Z"/>
<path id="font_1_1" d="M0 0Z"/>
<path id="font_1_5" d="M.4584961 .12890625 .41210938 0H.021484375V.018432618C.13639324 .12313843 .21728516 .20865886 .26416017 .2749939 .31103517 .3413391 .33447267 .40201823 .33447267 .45703126 .33447267 .498881 .3216146 .5332692 .29589845 .5601959 .27018229 .5871226 .23942058 .60058596 .20361328 .60058596 .1710612 .60058596 .1418457 .5911458 .1159668 .5722656 .09008789 .55339559 .07096354 .5257263 .05859375 .4892578H.040527345C.048665365 .5493266 .06958008 .59542849 .103271488 .6275635 .13696289 .6597087 .17903646 .67578127 .22949219 .67578127 .28320313 .67578127 .3280436 .6585286 .36401368 .62402346 .39998374 .58951827 .41796876 .5488281 .41796876 .5019531 .41796876 .46842448 .41015626 .43489585 .39453126 .4013672 .37044273 .3486328 .33138023 .292806 .27734376 .23388672 .19628906 .14552816 .14567058 .09263102 .12548828 .07519531H.29833985C.3334961 .07519531 .3581543 .0764974 .37231446 .07910156 .3864746 .08170573 .3992513 .086995448 .41064454 .0949707 .42203776 .10294596 .43196617 .11425781 .4404297 .12890625H.4584961Z"/>
<path id="font_2_1" d="M.4189453 .4423828 .45263673 .075683597C.50927737 .1421814 .5545247 .20460002 .5883789 .26293946 .60823568 .29717 .61816409 .3219452 .61816409 .337265 .61816409 .34443666 .61653646 .3507894 .61328127 .35632325 .6119792 .3592631 .60685226 .36358134 .5979004 .36927796 .58894857 .37498475 .5826823 .38085429 .57910159 .3868866 .5755208 .3929189 .57373049 .39935813 .57373049 .40620423 .57373049 .41630555 .57747396 .42486064 .58496096 .4318695 .59244796 .4388784 .6020508 .4423828 .61376956 .4423828 .6271159 .4423828 .63842776 .43741355 .6477051 .42747499 .6569824 .4175364 .6616211 .4042562 .6616211 .38763429 .6616211 .37068687 .6591797 .35488383 .6542969 .34022523 .64453127 .31219993 .6254883 .2760264 .59716799 .23170471 .5626628 .17859395 .5270996 .12930806 .49047853 .083847049 .45385743 .03838603 .42659507 .0065307619 .4086914-.01171875H.390625L.35888673 .32617188 .15722656-.01171875H.13574219C.13346355 .12727864 .12646485 .23697917 .114746097 .3173828 .10986328 .35091148 .10172526 .37288413 .09033203 .38330079 .08219401 .39078776 .06982422 .39453126 .053222658 .39453126 .04378255 .39453126 .03173828 .3935547 .017089844 .39160157V.4091797L.15722656 .4423828C.17675781 .3881836 .18945313 .30493165 .1953125 .19262696 .19726563 .15011597 .19889324 .12334188 .20019531 .11230469L.4008789 .4423828H.4189453Z"/>
<path id="font_1_6" d="M.5083008 .22167969H-.0087890629V.2578125H.5083008V.22167969Z"/>
<path id="font_1_4" d="M.1171875 .59765627 .2783203 .67578127H.2944336V.1171875C.2944336 .080078128 .29597984 .056966146 .29907228 .047851564 .3021647 .03873698 .30859376 .03173828 .31835938 .026855469 .328125 .021972657 .34798179 .019205729 .3779297 .018554688V0H.12890625V.018554688C.16015625 .019205729 .18033855 .021891276 .18945313 .026611329 .1985677 .03133138 .20491536 .037679037 .2084961 .045654298 .21207683 .05362956 .21386719 .07747396 .21386719 .1171875V.47460938C.21386719 .5225728 .21223958 .5533549 .20898438 .56695559 .20670574 .57733157 .20255535 .58496096 .1965332 .58984377 .19051107 .59472659 .18326824 .59716799 .17480469 .59716799 .16276042 .59716799 .1459961 .5921224 .12451172 .58203127L.1171875 .59765627Z"/>
<path id="font_3_2" d="M.18164063 .71777346V.27441407C.18164063 .22233074 .19140625 .17903646 .2109375 .14453125 .23990886 .092447917 .28873698 .06640625 .35742188 .06640625 .43977867 .06640625 .49576823 .094563808 .5253906 .1508789 .5413411 .18147786 .5493164 .22265625 .5493164 .27441407V.71777346H.6479492V.3149414C.6479492 .22672527 .6360677 .15885417 .6123047 .111328128 .5686849 .024739584 .48632813-.018554688 .36523438-.018554688 .24414063-.018554688 .16194661 .024739584 .118652347 .111328128 .09488932 .15885417 .08300781 .22672527 .08300781 .3149414V.71777346H.18164063M.36572267 .71777346V.71777346Z"/>
<path id="font_3_10" d="M.064453128 .5234375H.14794922V.44921876C.1726888 .47981773 .19889324 .50179037 .2265625 .5151367 .25423179 .5284831 .2849935 .53515627 .31884767 .53515627 .3930664 .53515627 .44319663 .5092519 .46923829 .45744325 .4835612 .42910258 .49072267 .38853965 .49072267 .3357544V0H.4013672V.3299408C.4013672 .36188255 .39664714 .38762919 .38720704 .4071808 .37158204 .4397634 .34326173 .4560547 .3022461 .4560547 .28141276 .4560547 .2643229 .4539388 .25097657 .44970704 .22688802 .4425354 .20572917 .42819724 .1875 .4066925 .17285156 .38941957 .16333008 .37157694 .15893555 .35316468 .15454102 .3347524 .15234375 .30844117 .15234375 .27423097V0H.064453128V.5234375M.2709961 .5361328V.5361328Z"/>
<path id="font_3_13" d="M.11669922 .1640625C.11930338 .13463338 .12662761 .11207072 .13867188 .09637451 .1608073 .06793213 .19921875 .053710939 .25390626 .053710939 .28645835 .053710939 .31510417 .060806276 .33984376 .07499695 .36458335 .08919779 .37695313 .11115011 .37695313 .14085388 .37695313 .16337586 .36702476 .18051148 .34716798 .19226074 .33447267 .19944255 .30940757 .20775859 .27197267 .21720886L.20214844 .2348175C.15755208 .24590557 .12467448 .25829569 .103515628 .27198792 .06575521 .29579164 .046875 .32873027 .046875 .37080384 .046875 .42036439 .064697269 .46046958 .1003418 .49111939 .13598633 .52177938 .18391927 .5371094 .24414063 .5371094 .32291667 .5371094 .37972007 .5139974 .41455079 .46777345 .4363607 .43847657 .4469401 .40690104 .44628907 .37304688H.36328126C.36165367 .39269004 .35465495 .41055808 .34228517 .426651 .32210288 .44950868 .28710938 .4609375 .23730469 .4609375 .20410156 .4609375 .17895508 .45461528 .16186524 .44197084 .14477539 .42933656 .13623047 .41264854 .13623047 .39190675 .13623047 .36922203 .14746094 .35107423 .16992188 .33746339 .1829427 .32936607 .20214844 .32221986 .22753906 .31602479L.28564454 .3018341C.34879557 .28650413 .39111329 .27166749 .41259767 .25732423 .44677735 .23482259 .4638672 .19944255 .4638672 .15118408 .4638672 .10455322 .44620768 .06428019 .41088868 .03036499 .37556968-.0035502117 .32177735-.020507813 .24951172-.020507813 .17171224-.020507813 .116617839-.002802531 .084228519 .032608034 .05183919 .06801859 .034505208 .111836757 .032226564 .1640625H.11669922M.24658203 .5361328V.5361328Z"/>
<path id="font_3_7" d="M.064453128 .5205078H.1538086V0H.064453128V.5205078M.064453128 .71777346H.1538086V.61816409H.064453128V.71777346Z"/>
<path id="font_3_6" d="M.24902344 .53222659C.29003907 .53222659 .32584635 .5220744 .3564453 .50177 .37304688 .49030558 .38997398 .4736023 .40722657 .45166017V.5185547H.48828126V.04234314C.48828126-.024154664 .47851563-.07663473 .45898438-.115097049 .42252604-.18615215 .35367839-.22167969 .2524414-.22167969 .1961263-.22167969 .14876302-.20906575 .11035156-.18383789 .0719401-.15861003 .05045573-.119140628 .045898439-.06542969H.1352539C.13948567-.08873495 .14794922-.10669454 .16064453-.11930847 .1805013-.13872783 .2117513-.1484375 .25439454-.1484375 .32177735-.1484375 .3658854-.12467448 .38671876-.07714844 .39908854-.04916382 .40478517 .0007985433 .4038086 .07273865 .38623048 .04588318 .36507163 .025904337 .34033204 .012802124 .31559245-.000289917 .2828776-.0068359377 .2421875-.0068359377 .18554688-.0068359377 .13598633 .013280232 .09350586 .053512575 .05102539 .09375509 .029785157 .16030376 .029785157 .25315858 .029785157 .34080506 .051188154 .40922547 .09399414 .4584198 .13680013 .5076243 .18847656 .53222659 .24902344 .53222659M.40722657 .26342774C.40722657 .328125 .39388023 .37607829 .3671875 .4072876 .34049479 .43849693 .30647788 .45410157 .26513673 .45410157 .20328777 .45410157 .16097005 .4251658 .1381836 .3672943 .12613933 .33641053 .12011719 .29593406 .12011719 .24586487 .12011719 .1870168 .13208008 .14223226 .15600586 .11151123 .17993164 .0807902 .21207683 .06542969 .2524414 .06542969 .31559245 .06542969 .36002604 .09387716 .3857422 .1507721 .4000651 .18295796 .40722657 .22050984 .40722657 .26342774M.25927735 .5361328V.5361328Z"/>
<path id="font_3_5" d="M.28222657 .53515627C.31933595 .53515627 .355306 .52644857 .39013673 .5090332 .42496745 .49161784 .4514974 .4690806 .46972657 .4414215 .4873047 .41505433 .49902345 .3842977 .5048828 .3491516 .5100911 .32506309 .5126953 .28647868 .5126953 .23339844H.12939453C.13102214 .18033855 .14355469 .13777669 .16699219 .10571289 .19042969 .073649089 .22672527 .057617189 .2758789 .057617189 .32177735 .057617189 .35839845 .07261658 .3857422 .10261536 .4013672 .12003072 .4124349 .14018758 .4189453 .16308594H.5053711C.50309249 .14398194 .49552409 .122690837 .48266603 .09921265 .46980796 .07574463 .45540367 .05656433 .43945313 .041671754 .4127604 .01576233 .37972007-.0017242432 .34033204-.010787964 .3191732-.01596578 .2952474-.018554688 .2685547-.018554688 .20345052-.018554688 .14827474 .0051472985 .103027347 .05255127 .05777995 .09995524 .03515625 .16634114 .03515625 .25170899 .03515625 .33576457 .057942708 .40401713 .103515628 .45646668 .14908855 .5089264 .20865886 .53515627 .28222657 .53515627M.42236329 .30371095C.41878257 .34191896 .41048179 .37245179 .39746095 .39530946 .3733724 .4377594 .33317057 .45898438 .27685548 .45898438 .23649089 .45898438 .20263672 .44437156 .17529297 .41514588 .14794922 .3859202 .13346355 .34877525 .13183594 .30371095H.42236329M.27392579 .5361328V.5361328Z"/>
<path id="font_3_4" d="M.12011719 .2553711C.12011719 .19923909 .1319987 .15224712 .15576172 .11439514 .17952474 .076543178 .21761067 .057617189 .27001954 .057617189 .31070964 .057617189 .3441569 .075154628 .37036134 .11022949 .39656578 .14531453 .40966798 .19565328 .40966798 .26124574 .40966798 .32748924 .39615885 .37651573 .36914063 .4083252 .3421224 .44014488 .3087565 .4560547 .26904298 .4560547 .22477214 .4560547 .18888347 .4390869 .16137696 .40515138 .13387044 .37121583 .12011719 .32128907 .12011719 .2553711M.2524414 .53222659C.29248048 .53222659 .32600913 .52381899 .35302735 .5070038 .36865235 .4972992 .38639323 .48031617 .40625 .4560547V.71875H.49072267V0H.4116211V.07229614C.39111329 .04023234 .36686198 .017074585 .3388672 .002822876 .3108724-.011428833 .2788086-.018554688 .24267578-.018554688 .18440755-.018554688 .13395183 .0059407555 .091308597 .05493164 .048665365 .10392252 .02734375 .16910808 .02734375 .25048829 .02734375 .32666017 .04679362 .39265953 .08569336 .44848634 .1245931 .5043132 .18017578 .53222659 .2524414 .53222659Z"/>
<path id="font_4_1" d="M0 0Z"/>
<path id="font_3_1" d="M.59814456 .71777346V.63183596H.3564453V0H.2578125V.63183596H.016113282V.71777346H.59814456Z"/>
<path id="font_3_15" d="M.10498047 .5234375 .2055664 .110946658 .3076172 .5234375H.40625L.50878909 .11338806 .61572268 .5234375H.7036133L.5517578 0H.46044923L.3540039 .40516664 .25097657 0H.15966797L.0087890629 .5234375H.10498047Z"/>
<path id="font_3_11" d="M.27197267 .057617189C.33024089 .057617189 .37019859 .07964579 .3918457 .123703 .41349284 .16776021 .4243164 .21677144 .4243164 .2707367 .4243164 .31950379 .4165039 .35917155 .4008789 .38974 .3761393 .43785606 .3334961 .46191407 .27294923 .46191407 .21923828 .46191407 .18017578 .44143168 .15576172 .40046693 .13134766 .35950218 .119140628 .31008403 .119140628 .25221253 .119140628 .1966095 .13134766 .15027364 .15576172 .113204959 .18017578 .076146449 .21891277 .057617189 .27197267 .057617189M.27539063 .53808596C.34277345 .53808596 .3997396 .5156453 .44628907 .47076417 .49283854 .42588298 .5161133 .35985819 .5161133 .27268983 .5161133 .1884613 .49560548 .11886088 .45458985 .06388855 .41357423 .008926392 .3499349-.018554688 .26367188-.018554688 .19173177-.018554688 .13460286 .00575765 .092285159 .054382326 .04996745 .103006999 .028808594 .16829936 .028808594 .2502594 .028808594 .33806864 .05110677 .4079895 .095703128 .46002198 .14029949 .51206466 .20019531 .53808596 .27539063 .53808596M.27246095 .5361328V.5361328Z"/>
<path id="font_5_1" d="M.21875 .80078127V.6796875L.12890625 .5546875H.08203125L.16015625 .6796875H.09765625V.80078127H.21875Z"/>
<path id="font_3_3" d="M.26611329 .53808596C.32503257 .53808596 .37296549 .5237274 .4099121 .49501039 .44685874 .46629334 .46907554 .41684977 .4765625 .3466797H.39111329C.38590495 .37890626 .37402345 .40568034 .35546876 .42700196 .33691407 .44832359 .3071289 .45898438 .26611329 .45898438 .2101237 .45898438 .17008464 .43170677 .1459961 .3771515 .1303711 .34176127 .122558597 .29808555 .122558597 .24612427 .122558597 .19384766 .1336263 .14984639 .15576172 .11412048 .17789714 .07840475 .21272786 .060546876 .2602539 .060546876 .29671226 .060546876 .3256022 .0716095 .34692384 .09373474 .36824546 .115859989 .38297526 .1461385 .39111329 .18457031H.4765625C.46679688 .115234378 .4423828 .06453451 .4033203 .032470704 .3642578 .00040690104 .31429038-.015625 .25341798-.015625 .1850586-.015625 .13053386 .009379069 .08984375 .059387208 .049153646 .10940552 .028808594 .17188008 .028808594 .24681092 .028808594 .33868919 .05110677 .41020204 .095703128 .4613495 .14029949 .51250717 .19710286 .53808596 .26611329 .53808596M.2524414 .5361328V.5361328Z"/>
<path id="font_3_9" d="M.064453128 .5234375H.15136719V.44921876C.17220052 .4749349 .19108074 .49365235 .20800781 .5053711 .23697917 .52522787 .26985679 .53515627 .30664063 .53515627 .34830729 .53515627 .38183595 .52490237 .40722657 .50439456 .42154948 .49267579 .4345703 .4754232 .44628907 .45263673 .4658203 .4806315 .48876954 .5013835 .5151367 .5148926 .5415039 .5284017 .5711263 .53515627 .6040039 .53515627 .6743164 .53515627 .72216799 .5097402 .7475586 .45890809 .76123049 .43154399 .7680664 .3947296 .7680664 .34846498V0H.6767578V.36367799C.6767578 .39853923 .6680501 .42248536 .65063479 .43551637 .6332194 .44855754 .6119792 .45507813 .58691409 .45507813 .5524089 .45507813 .5227051 .44350688 .49780274 .42036439 .4729004 .39723207 .46044923 .35861717 .46044923 .30451966V0H.37109376V.3416748C.37109376 .37719728 .36686198 .4031016 .35839845 .41938783 .3450521 .4438324 .32014976 .4560547 .2836914 .4560547 .25048829 .4560547 .22029622 .44318138 .19311524 .4174347 .16593425 .3916982 .15234375 .34510295 .15234375 .27764894V0H.064453128V.5234375Z"/>
<path id="font_3_12" d="M.28515626 .057617189C.32617188 .057617189 .36027018 .07486979 .38745118 .109375 .41463218 .14389038 .42822267 .1954956 .42822267 .26419068 .42822267 .3060608 .42220054 .34204103 .41015626 .37213136 .38736979 .43003337 .34570313 .45898438 .28515626 .45898438 .22428386 .45898438 .18261719 .42840068 .16015625 .36723329 .14811199 .33451844 .14208985 .29297386 .14208985 .24259949 .14208985 .20204163 .14811199 .16753133 .16015625 .1390686 .1829427 .08476766 .22460938 .057617189 .28515626 .057617189M.057617189 .5205078H.1430664V.45162965C.16064453 .47540284 .17985027 .49379985 .2006836 .5068207 .23030599 .5263621 .26513673 .5361328 .30517579 .5361328 .36442057 .5361328 .41471354 .5133667 .4560547 .46783448 .49739585 .42230226 .5180664 .3572693 .5180664 .2727356 .5180664 .1585083 .48828126 .07691447 .42871095 .027954102 .39095054-.0030517579 .34700523-.018554688 .296875-.018554688 .25748698-.018554688 .22444661-.009984334 .1977539 .007156372 .1821289 .016860962 .16471355 .033518476 .14550781 .057128908V-.20898438H.057617189V.5205078Z"/>
<path id="font_3_8" d="M.06689453 .71777346H.15478516V0H.06689453V.71777346Z"/>
<path id="font_3_14" d="M.08203125 .66796877H.17089844V.5234375H.25439454V.4501953H.17089844V.110183719C.17089844 .09202576 .17708333 .07986959 .18945313 .07371521 .19628906 .07014465 .2076823 .068359378 .22363281 .068359378 .22786458 .068359378 .23242188 .06846619 .23730469 .06867981 .2421875 .0689036 .24788411 .06944784 .25439454 .0703125V0C.24430339-.0031026204 .23380535-.005340576 .22290039-.006713867 .21199544-.008097331 .20019531-.0087890629 .1875-.0087890629 .14648438-.0087890629 .118652347 .0016988119 .104003909 .02267456 .08935547 .04365031 .08203125 .070882167 .08203125 .10437012V.4501953H.011230469V.5234375H.08203125V.66796877Z"/>
<path id="font_1_2" d="M.26123048 .068359378V.3125H.018066407V.35253907H.26123048V.5957031H.30029298V.35253907H.5444336V.3125H.30029298V.068359378H.26123048Z"/>
</defs>
<g clip-path="url(#clip_0)">
<path transform="matrix(1,0,0,-1,-112.569,470.099)" d="M36 36H756V576H36Z" fill="#ffffff"/>
<path transform="matrix(1,0,0,-1,157.431,65.34909)" stroke-width="2" stroke-linecap="butt" stroke-linejoin="round" fill="none" stroke="#000000" d="M0 0V-106"/>
<path transform="matrix(1,0,0,-1,152.431,172.349)" stroke-width="2" stroke-linecap="butt" stroke-linejoin="round" fill="none" stroke="#000000" d="M0 0H10"/>
<path transform="matrix(1,0,0,-1,152.431,118.349)" stroke-width="2" stroke-linecap="butt" stroke-linejoin="round" fill="none" stroke="#000000" d="M0 0H10"/>
<path transform="matrix(1,0,0,-1,152.431,64.349)" stroke-width="2" stroke-linecap="butt" stroke-linejoin="round" fill="none" stroke="#000000" d="M0 0H10"/>
<use data-text="0" xlink:href="#font_1_3" transform="matrix(18,0,0,-18,280.431,125.599)"/>
<use data-text=" " xlink:href="#font_1_1" transform="matrix(18,0,0,-18,289.431,125.599)"/>
<use data-text="2" xlink:href="#font_1_5" transform="matrix(18,0,0,-18,280.431,71.599)"/>
<use data-text="w" xlink:href="#font_2_1" transform="matrix(12,0,0,-12,289.431,66.199008)"/>
<use data-text="&#x2013;" xlink:href="#font_1_6" transform="matrix(12,0,0,-12,297.435,66.199008)"/>
<use data-text="1" xlink:href="#font_1_4" transform="matrix(12,0,0,-12,303.435,66.199008)"/>
<use data-text=" " xlink:href="#font_1_1" transform="matrix(12,0,0,-12,309.435,66.199008)"/>
<use data-text="2" xlink:href="#font_1_5" transform="matrix(18,0,0,-18,280.431,17.59909)"/>
<use data-text="w" xlink:href="#font_2_1" transform="matrix(12,0,0,-12,289.431,12.199097)"/>
<use data-text=" " xlink:href="#font_1_1" transform="matrix(12,0,0,-12,297.435,12.199097)"/>
<use data-text="U" xlink:href="#font_3_2" transform="matrix(16,0,0,-16,326.5559,69.599)"/>
<use data-text="n" xlink:href="#font_3_10" transform="matrix(16,0,0,-16,338.1079,69.599)"/>
<use data-text="s" xlink:href="#font_3_13" transform="matrix(16,0,0,-16,347.0039,69.599)"/>
<use data-text="i" xlink:href="#font_3_7" transform="matrix(16,0,0,-16,355.0039,69.599)"/>
<use data-text="g" xlink:href="#font_3_6" transform="matrix(16,0,0,-16,358.5559,69.599)"/>
<use data-text="n" xlink:href="#font_3_10" transform="matrix(16,0,0,-16,367.4519,69.599)"/>
<use data-text="e" xlink:href="#font_3_5" transform="matrix(16,0,0,-16,376.3479,69.599)"/>
<use data-text="d" xlink:href="#font_3_4" transform="matrix(16,0,0,-16,385.2439,69.599)"/>
<use data-text="&#xfffd;" xlink:href="#font_4_1" transform="matrix(16,0,0,-16,394.1399,69.599)"/>
<use data-text="T" xlink:href="#font_3_1" transform="matrix(16,0,0,-16,48.059907,111.599)"/>
<use data-text="w" xlink:href="#font_3_15" transform="matrix(16,0,0,-16,56.955904,111.599)"/>
<use data-text="o" xlink:href="#font_3_11" transform="matrix(16,0,0,-16,68.507907,111.599)"/>
<use data-text="&#x2019;" xlink:href="#font_5_1" transform="matrix(16,0,0,-16,77.4039,111.599)"/>
<use data-text="s" xlink:href="#font_3_13" transform="matrix(16,0,0,-16,85.4039,111.599)"/>
<use data-text="&#xfffd;" xlink:href="#font_4_1" transform="matrix(16,0,0,-16,93.4039,111.599)"/>
<use data-text="c" xlink:href="#font_3_3" transform="matrix(16,0,0,-16,6.0598986,130.591)"/>
<use data-text="o" xlink:href="#font_3_11" transform="matrix(16,0,0,-16,14.059898,130.591)"/>
<use data-text="m" xlink:href="#font_3_9" transform="matrix(16,0,0,-16,22.955903,130.591)"/>
<use data-text="p" xlink:href="#font_3_12" transform="matrix(16,0,0,-16,36.283906,130.591)"/>
<use data-text="l" xlink:href="#font_3_8" transform="matrix(16,0,0,-16,45.1799,130.591)"/>
<use data-text="e" xlink:href="#font_3_5" transform="matrix(16,0,0,-16,48.731904,130.591)"/>
<use data-text="m" xlink:href="#font_3_9" transform="matrix(16,0,0,-16,57.6279,130.591)"/>
<use data-text="e" xlink:href="#font_3_5" transform="matrix(16,0,0,-16,70.9559,130.591)"/>
<use data-text="n" xlink:href="#font_3_10" transform="matrix(16,0,0,-16,79.8519,130.591)"/>
<use data-text="t" xlink:href="#font_3_14" transform="matrix(16,0,0,-16,88.747898,130.591)"/>
<use data-text="&#xfffd;" xlink:href="#font_4_1" transform="matrix(16,0,0,-16,93.19589,130.591)"/>
<path transform="matrix(1,0,0,-1,260.306,9.098999)" stroke-width="2" stroke-linecap="butt" stroke-linejoin="round" fill="none" stroke="#000000" d="M0 0V-106"/>
<path transform="matrix(1,0,0,-1,255.306,116.099)" stroke-width="2" stroke-linecap="butt" stroke-linejoin="round" fill="none" stroke="#000000" d="M0 0H10"/>
<path transform="matrix(1,0,0,-1,255.306,62.099)" stroke-width="2" stroke-linecap="butt" stroke-linejoin="round" fill="none" stroke="#000000" d="M0 0H10"/>
<path transform="matrix(1,0,0,-1,255.306,8.099091)" stroke-width="2" stroke-linecap="butt" stroke-linejoin="round" fill="none" stroke="#000000" d="M0 0H10"/>
<use data-text="0" xlink:href="#font_1_3" transform="matrix(18,0,0,-18,98.55611,125.599)"/>
<use data-text=" " xlink:href="#font_1_1" transform="matrix(18,0,0,-18,107.55611,125.599)"/>
<use data-text="+" xlink:href="#font_1_2" transform="matrix(18,0,0,-18,98.55611,71.599)"/>
<use data-text="2" xlink:href="#font_1_5" transform="matrix(18,0,0,-18,108.7081,71.599)"/>
<use data-text="w" xlink:href="#font_2_1" transform="matrix(12,0,0,-12,117.707508,66.199008)"/>
<use data-text="&#x2013;" xlink:href="#font_1_6" transform="matrix(12,0,0,-12,125.7115,66.199008)"/>
<use data-text="1" xlink:href="#font_1_4" transform="matrix(12,0,0,-12,131.7115,66.199008)"/>
<use data-text=" " xlink:href="#font_1_1" transform="matrix(12,0,0,-12,137.7115,66.199008)"/>
<use data-text="&#x2013;" xlink:href="#font_1_6" transform="matrix(18,0,0,-18,102.68111,173.599)"/>
<use data-text="2" xlink:href="#font_1_5" transform="matrix(18,0,0,-18,111.68111,173.599)"/>
<use data-text="w" xlink:href="#font_2_1" transform="matrix(12,0,0,-12,120.68111,168.199)"/>
<use data-text="&#x2013;" xlink:href="#font_1_6" transform="matrix(12,0,0,-12,128.6851,168.199)"/>
<use data-text="1" xlink:href="#font_1_4" transform="matrix(12,0,0,-12,134.6851,168.199)"/>
<use data-text=" " xlink:href="#font_1_1" transform="matrix(12,0,0,-12,140.6851,168.199)"/>
<path transform="matrix(1,0,0,-1,169.431,143.849)" stroke-width="18" stroke-linecap="round" stroke-linejoin="round" fill="none" stroke="#5f5f5f" d="M0 0H30L48 105.375 75 105.75"/>
<path transform="matrix(1,0,0,-1,241.431,20.098999)" d="M0 0V-36L18-18Z" fill="#5f5f5f" fill-rule="evenodd"/>
<path transform="matrix(1,0,0,-1,241.431,20.098999)" stroke-width=".75" stroke-linecap="butt" stroke-linejoin="round" fill="none" stroke="#5f5f5f" d="M0 0V-36L18-18 0 0Z"/>
<path transform="matrix(1,0,0,-1,-112.569,470.099)" d="M272 335.5H296V317.5H272Z" fill="#5f5f5f" fill-rule="evenodd"/>
<path transform="matrix(1,0,0,-1,159.431,134.599)" stroke-width=".75" stroke-linecap="butt" stroke-miterlimit="8" stroke-linejoin="miter" fill="none" stroke="#5f5f5f" d="M0 0H24V-18H0Z"/>
<path transform="matrix(1,0,0,-1,241.431,74.099)" d="M0 0V-36L18-18Z" fill="#0048aa" fill-opacity=".501999" fill-rule="evenodd"/>
<path transform="matrix(1,0,0,-1,-112.569,470.099)" d="M272.5 386.5H354V368.5H272.5Z" fill="#0048aa" fill-opacity=".501999" fill-rule="evenodd"/>
</g>
</svg>
