<svg xmlns="http://www.w3.org/2000/svg" xmlns:xlink="http://www.w3.org/1999/xlink" version="1.1" width="242.57901pt" height="196.6pt" viewBox="0 0 242.57901 196.6">
<defs>
<clipPath id="clip_0">
<path transform="matrix(1,0,0,-1,-76.896,460.586)" d="M76.896 263.986H319.475V460.586H76.896Z" fill-rule="evenodd"/>
</clipPath>
<path id="font_1_12" d="M.087890628 .6621094H.29833985V.6376953H.20947266C.1899414 .6376953 .17675781 .63157656 .16992188 .619339 .16601563 .6128998 .1640625 .6040446 .1640625 .59277346V-.08105469C.1640625-.09588623 .16617839-.10685221 .17041016-.11395264 .17757161-.12652588 .19173177-.1328125 .21289063-.1328125H.29833985V-.15820313H.087890628V.6621094Z"/>
<path id="font_1_2" d="M.23925781 .018554688C.28710938 .018554688 .31998698 .04473877 .33789063 .09710693 .35579429 .1494751 .3647461 .22526042 .3647461 .3244629 .3647461 .40350343 .359375 .46660868 .3486328 .5137787 .32845054 .6015981 .2906901 .6455078 .23535156 .6455078 .18001302 .6455078 .14208985 .600296 .12158203 .50987246 .110839847 .46173606 .10546875 .39831034 .10546875 .31959535 .10546875 .24575298 .1110026 .18671672 .12207031 .14248657 .14290364 .059865316 .18196614 .018554688 .23925781 .018554688M.23779297 .671875C.31266276 .671875 .37076823 .6326192 .41210938 .55410769 .44498698 .49059043 .46142579 .4176229 .46142579 .33520509 .46142579 .27038575 .45133464 .20930989 .43115235 .15197754 .3930664 .04414876 .32714845-.009765625 .23339844-.009765625 .16927083-.009765625 .11653646 .019388834 .07519531 .077697757 .030924479 .13991292 .0087890629 .22444661 .0087890629 .33129884 .0087890629 .41534425 .02360026 .48766075 .053222658 .5482483 .09326172 .6306661 .15478516 .671875 .23779297 .671875Z"/>
<path id="font_1_3" d="M.29589845 .67089846C.29720054 .6692708 .29793296 .6680501 .2980957 .6672363 .29825846 .66642257 .29833985 .6645508 .29833985 .6616211V.07421875C.29833985 .048950197 .30501304 .03286743 .31835938 .025970459 .33170573 .019083659 .35660807 .014984131 .3930664 .013671875V0H.11767578V.0146484379C.1570638 .01663208 .18277996 .02207438 .19482422 .030975342 .20686849 .039886476 .21289063 .059183759 .21289063 .08886719V.54003909C.21289063 .55595907 .2109375 .56799319 .20703125 .57614138 .203125 .58429977 .19466146 .5883789 .18164063 .5883789 .17317708 .5883789 .16219075 .58601889 .14868164 .5812988 .13517253 .5765788 .122558597 .57161459 .110839847 .56640627V.5800781L.29003907 .67089846H.29589845Z"/>
<path id="font_1_13" d="M.24414063-.15820313H.033203126V-.13378906H.122558597C.14176433-.13378906 .15494792-.12776692 .16210938-.115722659 .16569011-.10921224 .16748047-.100260417 .16748047-.08886719V.58496096C.16748047 .60091146 .16430664 .6135254 .15795899 .62280276 .15161133 .6320801 .13867188 .63671877 .119140628 .63671877H.033203126V.6621094H.24414063V-.15820313Z"/>
<path id="font_2_1" d="M0 0Z"/>
<path id="font_1_4" d="M.029785157 .011230469C.14892578 .13485718 .2298177 .22561138 .27246095 .28349305 .31510417 .3413849 .33642579 .3978119 .33642579 .45277406 .33642579 .50091049 .32340495 .53757736 .29736329 .56277468 .27132163 .5879822 .24023438 .60058596 .20410156 .60058596 .1595052 .60058596 .1233724 .58432516 .095703128 .5518036 .08040365 .5339203 .06575521 .5064392 .051757814 .46936036L.030761719 .47375489C.04703776 .5487569 .07462565 .6008504 .11352539 .6300354 .15242513 .65923056 .19417317 .6738281 .23876953 .6738281 .29378257 .6738281 .33829753 .65649417 .37231446 .6218262 .4063314 .5871582 .42333985 .5447591 .42333985 .4946289 .42333985 .4412435 .4049479 .3898112 .36816407 .34033204 .33138023 .29085288 .25146485 .20279949 .12841797 .076171878H.35253907C.38378907 .076171878 .40576173 .07991028 .41845704 .087387088 .43115235 .09487406 .44547526 .113087978 .46142579 .14202881L.4741211 .13616944 .41992188 0H.029785157V.011230469Z"/>
<path id="font_1_5" d="M.07763672 .08496094C.09554037 .08496094 .11922201 .075520839 .14868164 .056640626 .17814128 .037760419 .203125 .028320313 .22363281 .028320313 .26920573 .028320313 .3030599 .04377238 .3251953 .07467651 .34733073 .10559082 .35839845 .13920085 .35839845 .17550659 .35839845 .21051026 .34944663 .24125672 .33154298 .26774598 .30126954 .31255595 .25016276 .33496095 .17822266 .33496095 .17399089 .33496095 .16992188 .33487956 .16601563 .3347168 .16210938 .33455406 .15755208 .33414714 .15234375 .3334961L.15136719 .3461914C.20345052 .3650411 .24446614 .38664756 .27441407 .41101075 .30436198 .43538413 .31933595 .46755473 .31933595 .5075226 .31933595 .5429433 .3075358 .5699107 .28393556 .5884247 .2603353 .60694888 .23339844 .61621096 .203125 .61621096 .1673177 .61621096 .13574219 .60302737 .10839844 .57666018 .09342448 .5623372 .077311199 .54020187 .060058595 .5102539L.044921876 .5136719C.057942708 .56315109 .08219401 .60270187 .11767578 .6323242 .15315755 .6619466 .19417317 .6767578 .24072266 .6767578 .29052735 .6767578 .32902018 .66308596 .35620118 .6357422 .38338218 .60839846 .39697267 .57682296 .39697267 .5410156 .39697267 .5094401 .3857422 .48046876 .36328126 .45410157 .35058595 .4391276 .33089195 .42236329 .30419923 .4038086 .33544923 .3904419 .3605143 .37479655 .37939454 .35687257 .4148763 .3226522 .4326172 .27930705 .4326172 .22683716 .4326172 .16491699 .40828453 .11032613 .35961915 .063064578 .31095378 .015813193 .24169922-.0078125 .15185547-.0078125 .111816409-.0078125 .083740238-.0018412272 .06762695 .010101318 .051513673 .022043864 .04345703 .034886678 .04345703 .04862976 .04345703 .057144166 .046142579 .065327968 .051513673 .07318115 .056884767 .08103434 .065592449 .08496094 .07763672 .08496094Z"/>
<path id="font_1_6" d="M.2915039 .5704956 .051757814 .23242188H.2915039V.5704956M.32373048 .67089846H.3701172V.23242188H.47216798V.16699219H.3701172V0H.29248048V.16699219H.011230469V.23242188L.32373048 .67089846Z"/>
<path id="font_1_7" d="M.07470703 .08984375C.09326172 .08984375 .1175944 .07910156 .14770508 .057617189 .17781575 .036132814 .20100911 .025390625 .21728516 .025390625 .25472007 .025390625 .2874349 .041931154 .3154297 .07501221 .34342448 .10809326 .35742188 .14875286 .35742188 .19699097 .35742188 .28141276 .3125 .3421987 .22265625 .37934876 .17285156 .39988709 .12646485 .41015626 .083496097 .41015626 .07633463 .41015626 .07185873 .4103953 .07006836 .4108734 .06827799 .4113617 .06608073 .41305543 .06347656 .4159546 .0641276 .41852824 .064697269 .42070008 .06518555 .4224701 .06567383 .4242401 .06624349 .42592875 .06689453 .427536L.17333985 .6621094H.3828125C.39322917 .6621094 .4012858 .6638997 .40698243 .66748049 .41267906 .6710612 .42008464 .6777344 .42919923 .6875L.43701173 .68066409 .39892579 .58987429C.3976237 .5869344 .39404298 .5850525 .3881836 .5842285 .38232423 .58341476 .37597657 .5830078 .36914063 .5830078H.18017578L.13867188 .4970703C.1920573 .4879659 .2311198 .47934977 .25585938 .47122193 .29654948 .4575602 .3305664 .4373932 .35791017 .41072084 .38134767 .38763938 .39908854 .3617045 .4111328 .33291627 .4231771 .30413819 .42919923 .27365113 .42919923 .24145508 .42919923 .16958618 .40356446 .109583538 .35229493 .061447145 .3010254 .013320923 .23616536-.0107421879 .15771485-.0107421879 .1258138-.0107421879 .100097659-.007634481 .080566409-.0014190674 .048014326 .008722941 .03173828 .026875815 .03173828 .05303955 .03173828 .06285604 .03523763 .07144165 .042236329 .07879639 .049235029 .08616129 .060058595 .08984375 .07470703 .08984375Z"/>
<path id="font_1_8" d="M.46777345 .22242737C.46777345 .16278585 .44864909 .10901388 .4104004 .06111145 .3721517 .013209025 .32242839-.0107421879 .26123048-.0107421879 .2039388-.0107421879 .1517741 .016113282 .10473633 .06982422 .057698568 .123535159 .034179689 .19498699 .034179689 .2841797 .034179689 .39908854 .0797526 .49772135 .17089844 .5800781 .25227867 .64908859 .34375 .68359377 .4453125 .68359377L.4477539 .66748049C.4070638 .65999349 .37198893 .649821 .3425293 .6369629 .31306968 .6241048 .28678385 .6061249 .26367188 .5830231 .23990886 .5595856 .21761067 .5298004 .19677735 .4936676 .17594402 .45754496 .1616211 .42174278 .1538086 .386261 .17399089 .39876304 .19140625 .40797425 .20605469 .41389466 .23209636 .42442323 .25830079 .4296875 .28466798 .4296875 .33642579 .4296875 .3798828 .41176353 .41503907 .37591554 .4501953 .34006755 .46777345 .28890483 .46777345 .22242737M.37841798 .18482971C.37841798 .22807312 .37158204 .26643373 .35791017 .2999115 .3351237 .35582987 .29638673 .38378907 .24169922 .38378907 .19124349 .38378907 .15771485 .36883546 .14111328 .33892823 .13134766 .32137046 .12646485 .29211427 .12646485 .25115968 .12646485 .19817098 .13777669 .14631653 .16040039 .09559631 .1830241 .044886274 .21875 .01953125 .26757813 .01953125 .3063151 .01953125 .33447267 .036026 .35205079 .0690155 .3696289 .102015178 .37841798 .14061992 .37841798 .18482971Z"/>
<path id="font_1_9" d="M.44873048 .6621094V.6458893L.2368164-.009765625H.17236328L.3701172 .5878906H.15722656C.12565105 .5878906 .10294596 .5826772 .08911133 .57225039 .075276698 .56182357 .05777995 .53999838 .036621095 .5067749L.01953125 .5145874C.040690107 .566864 .053792318 .59912618 .05883789 .6113739 .06388346 .6236318 .07047526 .64054366 .07861328 .6621094H.44873048Z"/>
<path id="font_1_10" d="M.25146485 .017578125C.28889976 .017578125 .31722007 .02796936 .33642579 .04875183 .3556315 .0695343 .36523438 .09551493 .36523438 .12669373 .36523438 .16209412 .35506187 .1907552 .3347168 .212677 .31437174 .2345988 .2726237 .267807 .20947266 .31230165 .18147786 .2947642 .16113281 .2720286 .1484375 .24409485 .13574219 .21617127 .12939453 .18921916 .12939453 .16323853 .12939453 .1187439 .14086914 .083343509 .16381836 .057037355 .18676758 .030731202 .21598308 .017578125 .25146485 .017578125M.2578125 .38975526C.28841148 .41118876 .3095703 .42921449 .32128907 .4438324 .34147135 .46883647 .3515625 .4990387 .3515625 .5344391 .3515625 .56529238 .34204103 .59151718 .32299806 .6131134 .30395509 .63470968 .2750651 .6455078 .23632813 .6455078 .2063802 .6455078 .18164063 .6360881 .16210938 .61724856 .14257813 .5984192 .1328125 .57552596 .1328125 .5485687 .1328125 .51804098 .14428711 .4897054 .16723633 .463562 .19018555 .4374186 .22037761 .41281639 .2578125 .38975526M.18261719 .33325196C.13964844 .3677775 .11035156 .39530436 .09472656 .41583253 .07063802 .44710288 .05859375 .4816335 .05859375 .51942446 .05859375 .5624237 .076416019 .5989075 .11206055 .62887576 .14770508 .658844 .19401042 .6738281 .25097657 .6738281 .3033854 .6738281 .3450521 .6596527 .37597657 .6313019 .40690104 .60295107 .42236329 .57003787 .42236329 .53256228 .42236329 .49443565 .40657554 .46021525 .375 .42990113 .35677085 .41262818 .3273112 .39275108 .2866211 .37026979 .34195964 .3292338 .3815918 .29349265 .40551759 .26304627 .42944337 .2325999 .44140626 .19669597 .44140626 .15533448 .44140626 .1084493 .42374674 .06904602 .38842774 .037124635 .35310874 .0052134196 .3058268-.0107421879 .24658203-.0107421879 .19352214-.0107421879 .1480306 .0039978029 .11010742 .033477785 .07218424 .06295776 .053222658 .10180155 .053222658 .15000916 .053222658 .19138082 .06640625 .22786968 .09277344 .2594757 .11002604 .27999369 .13997396 .30458579 .18261719 .33325196Z"/>
<path id="font_3_2" d="M.5083008 .22167969H-.0087890629V.2578125H.5083008V.22167969Z"/>
<path id="font_3_1" d="M0 0Z"/>
<path id="font_1_1" d="M0 0Z"/>
<path id="font_1_11" d="M.53466799 .18554688V.11816406H.029785157V.18554688H.53466799M.53466799 .38867188V.32128907H.029785157V.38867188H.53466799Z"/>
<path id="font_1_14" d="M.49951173 .25V.20117188H-.0024414063V.25H.49951173Z"/>
<path id="font_4_1" d="M-.001953125 .22363281V.29492188H.5541992V.22363281H-.001953125Z"/>
</defs>
<g clip-path="url(#clip_0)">
<path transform="matrix(1,0,0,-1,-76.896,460.586)" d="M36 36H756V576H36Z" fill="#ffffff"/>
<path transform="matrix(1,0,0,-1,79.104,178.586)" d="M0 0H9L12-6 9-12H0Z" fill="#323886" fill-rule="evenodd"/>
<path transform="matrix(1,0,0,-1,79.104,178.586)" stroke-width=".75" stroke-linecap="butt" stroke-miterlimit="8" stroke-linejoin="miter" fill="none" stroke="#323886" d="M0 0H9L12-6 9-12H0Z"/>
<path transform="matrix(1,0,0,-1,-76.896,460.586)" d="M120 282H156V270H120Z" fill="#323886" fill-rule="evenodd"/>
<path transform="matrix(1,0,0,-1,43.103998,178.586)" stroke-width=".75" stroke-linecap="butt" stroke-miterlimit="8" stroke-linejoin="miter" fill="none" stroke="#323886" d="M0 0H36V-12H0Z"/>
<path transform="matrix(1,0,0,-1,103.104,178.586)" d="M0 0H9L12-6 9-12H0Z" fill="#323886" fill-rule="evenodd"/>
<path transform="matrix(1,0,0,-1,103.104,178.586)" stroke-width=".75" stroke-linecap="butt" stroke-miterlimit="8" stroke-linejoin="miter" fill="none" stroke="#323886" d="M0 0H9L12-6 9-12H0Z"/>
<path transform="matrix(1,0,0,-1,-76.896,460.586)" d="M168 282H180V270H168Z" fill="#323886" fill-rule="evenodd"/>
<path transform="matrix(1,0,0,-1,91.104,178.586)" stroke-width=".75" stroke-linecap="butt" stroke-miterlimit="8" stroke-linejoin="miter" fill="none" stroke="#323886" d="M0 0H12V-12H0Z"/>
<path transform="matrix(1,0,0,-1,115.104,178.586)" d="M0 0H9L12-6 9-12H0Z" fill="#323886" fill-rule="evenodd"/>
<path transform="matrix(1,0,0,-1,115.104,178.586)" stroke-width=".75" stroke-linecap="butt" stroke-miterlimit="8" stroke-linejoin="miter" fill="none" stroke="#323886" d="M0 0H9L12-6 9-12H0Z"/>
<path transform="matrix(1,0,0,-1,55.103998,148.586)" d="M0 0H9L12-6 9-12H0Z" fill="#323886" fill-rule="evenodd"/>
<path transform="matrix(1,0,0,-1,55.103998,148.586)" stroke-width=".75" stroke-linecap="butt" stroke-miterlimit="8" stroke-linejoin="miter" fill="none" stroke="#323886" d="M0 0H9L12-6 9-12H0Z"/>
<path transform="matrix(1,0,0,-1,-76.896,460.586)" d="M120 312H132V300H120Z" fill="#323886" fill-rule="evenodd"/>
<path transform="matrix(1,0,0,-1,43.103998,148.586)" stroke-width=".75" stroke-linecap="butt" stroke-miterlimit="8" stroke-linejoin="miter" fill="none" stroke="#323886" d="M0 0H12V-12H0Z"/>
<path transform="matrix(1,0,0,-1,67.104,148.586)" d="M0 0H9L12-6 9-12H0Z" fill="#323886" fill-rule="evenodd"/>
<path transform="matrix(1,0,0,-1,67.104,148.586)" stroke-width=".75" stroke-linecap="butt" stroke-miterlimit="8" stroke-linejoin="miter" fill="none" stroke="#323886" d="M0 0H9L12-6 9-12H0Z"/>
<path transform="matrix(1,0,0,-1,139.104,184.586)" d="M0 0H-93.124L-96 6-93.124 12H0Z" fill="#929292" fill-opacity=".658798" fill-rule="evenodd"/>
<path transform="matrix(1,0,0,-1,139.104,184.586)" stroke-width=".75" stroke-linecap="butt" stroke-miterlimit="8" stroke-linejoin="miter" fill="none" stroke="#000000" d="M0 0H-93.124L-96 6-93.124 12H0Z"/>
<path transform="matrix(1,0,0,-1,139.104,154.586)" d="M0 0H-93.124L-96 6-93.124 12H0Z" fill="#929292" fill-opacity=".658798" fill-rule="evenodd"/>
<path transform="matrix(1,0,0,-1,139.104,154.586)" stroke-width=".75" stroke-linecap="butt" stroke-miterlimit="8" stroke-linejoin="miter" fill="none" stroke="#000000" d="M0 0H-93.124L-96 6-93.124 12H0Z"/>
<path transform="matrix(1,0,0,-1,139.104,100.586)" d="M0 0H9L12-6 9-12H0Z" fill="#323886" fill-rule="evenodd"/>
<path transform="matrix(1,0,0,-1,139.104,100.586)" stroke-width=".75" stroke-linecap="butt" stroke-miterlimit="8" stroke-linejoin="miter" fill="none" stroke="#323886" d="M0 0H9L12-6 9-12H0Z"/>
<use data-text="[" xlink:href="#font_1_12" transform="matrix(12,0,0,-12,2.3039933,112.5611)"/>
<use data-text="0" xlink:href="#font_1_2" transform="matrix(12,0,0,-12,6.2999956,112.5611)"/>
<use data-text="0" xlink:href="#font_1_2" transform="matrix(12,0,0,-12,12.299995,112.5611)"/>
<use data-text="0" xlink:href="#font_1_2" transform="matrix(12,0,0,-12,18.299996,112.5611)"/>
<use data-text="1" xlink:href="#font_1_3" transform="matrix(12,0,0,-12,24.299996,112.5611)"/>
<use data-text="]" xlink:href="#font_1_13" transform="matrix(12,0,0,-12,30.299996,112.5611)"/>
<use data-text="&#x0009;" xlink:href="#font_2_1" transform="matrix(12,0,0,-12,34.295999,112.5611)"/>
<use data-text="[" xlink:href="#font_1_12" transform="matrix(12,0,0,-12,2.3039933,134.18509)"/>
<use data-text="0" xlink:href="#font_1_2" transform="matrix(12,0,0,-12,6.2999956,134.18509)"/>
<use data-text="1" xlink:href="#font_1_3" transform="matrix(12,0,0,-12,12.299995,134.18509)"/>
<use data-text="0" xlink:href="#font_1_2" transform="matrix(12,0,0,-12,18.299996,134.18509)"/>
<use data-text="1" xlink:href="#font_1_3" transform="matrix(12,0,0,-12,24.299996,134.18509)"/>
<use data-text="]" xlink:href="#font_1_13" transform="matrix(12,0,0,-12,30.299996,134.18509)"/>
<use data-text="&#x0009;" xlink:href="#font_2_1" transform="matrix(12,0,0,-12,34.295999,134.18509)"/>
<use data-text="[" xlink:href="#font_1_12" transform="matrix(12,0,0,-12,2.3039933,156.9371)"/>
<use data-text="1" xlink:href="#font_1_3" transform="matrix(12,0,0,-12,6.2999956,156.9371)"/>
<use data-text="0" xlink:href="#font_1_2" transform="matrix(12,0,0,-12,12.299995,156.9371)"/>
<use data-text="1" xlink:href="#font_1_3" transform="matrix(12,0,0,-12,18.299996,156.9371)"/>
<use data-text="1" xlink:href="#font_1_3" transform="matrix(12,0,0,-12,23.855996,156.9371)"/>
<use data-text="]" xlink:href="#font_1_13" transform="matrix(12,0,0,-12,29.855996,156.9371)"/>
<use data-text="&#x0009;" xlink:href="#font_2_1" transform="matrix(12,0,0,-12,33.851999,156.9371)"/>
<use data-text="[" xlink:href="#font_1_12" transform="matrix(12,0,0,-12,3.2999955,184.5611)"/>
<use data-text="1" xlink:href="#font_1_3" transform="matrix(12,0,0,-12,7.2959978,184.5611)"/>
<use data-text="1" xlink:href="#font_1_3" transform="matrix(12,0,0,-12,12.851997,184.5611)"/>
<use data-text="1" xlink:href="#font_1_3" transform="matrix(12,0,0,-12,18.407998,184.5611)"/>
<use data-text="1" xlink:href="#font_1_3" transform="matrix(12,0,0,-12,23.963997,184.5611)"/>
<use data-text="]" xlink:href="#font_1_13" transform="matrix(12,0,0,-12,29.963997,184.5611)"/>
<use data-text="&#x0009;" xlink:href="#font_2_1" transform="matrix(12,0,0,-12,33.971994,184.5611)"/>
<path transform="matrix(1,0,0,-1,-76.896,460.586)" d="M210 378H222V366H210Z" fill="#ffffff" fill-rule="evenodd"/>
<path transform="matrix(1,0,0,-1,139.104,85.586)" stroke-width=".75" stroke-linecap="butt" stroke-linejoin="round" fill="none" stroke="#000000" d="M0 0V-6"/>
<path transform="matrix(1,0,0,-1,-76.896,460.586)" d="M222 378H234V366H222Z" fill="#ffffff" fill-rule="evenodd"/>
<path transform="matrix(1,0,0,-1,151.104,85.586)" stroke-width=".75" stroke-linecap="butt" stroke-linejoin="round" fill="none" stroke="#000000" d="M0 0V-6"/>
<path transform="matrix(1,0,0,-1,-76.896,460.586)" d="M234 378H246V366H234Z" fill="#ffffff" fill-rule="evenodd"/>
<path transform="matrix(1,0,0,-1,163.104,85.586)" stroke-width=".75" stroke-linecap="butt" stroke-linejoin="round" fill="none" stroke="#000000" d="M0 0V-6"/>
<path transform="matrix(1,0,0,-1,-76.896,460.586)" d="M246 378H258V366H246Z" fill="#ffffff" fill-rule="evenodd"/>
<path transform="matrix(1,0,0,-1,175.104,85.586)" stroke-width=".75" stroke-linecap="butt" stroke-linejoin="round" fill="none" stroke="#000000" d="M0 0V-6"/>
<path transform="matrix(1,0,0,-1,-76.896,460.586)" d="M258 378H270V366H258Z" fill="#ffffff" fill-rule="evenodd"/>
<path transform="matrix(1,0,0,-1,187.104,85.586)" stroke-width=".75" stroke-linecap="butt" stroke-linejoin="round" fill="none" stroke="#000000" d="M0 0V-6"/>
<path transform="matrix(1,0,0,-1,-76.896,460.586)" d="M270 378H282V366H270Z" fill="#ffffff" fill-rule="evenodd"/>
<path transform="matrix(1,0,0,-1,199.104,85.586)" stroke-width=".75" stroke-linecap="butt" stroke-linejoin="round" fill="none" stroke="#000000" d="M0 0V-6"/>
<path transform="matrix(1,0,0,-1,-76.896,460.586)" d="M282 378H294V366H282Z" fill="#ffffff" fill-rule="evenodd"/>
<path transform="matrix(1,0,0,-1,211.104,85.586)" stroke-width=".75" stroke-linecap="butt" stroke-linejoin="round" fill="none" stroke="#000000" d="M0 0V-6"/>
<path transform="matrix(1,0,0,-1,-76.896,460.586)" d="M294 378H306V366H294Z" fill="#ffffff" fill-rule="evenodd"/>
<path transform="matrix(1,0,0,-1,223.104,85.586)" stroke-width=".75" stroke-linecap="butt" stroke-linejoin="round" fill="none" stroke="#000000" d="M0 0V-6"/>
<path transform="matrix(1,0,0,-1,-76.896,460.586)" d="M306 378H318V366H306Z" fill="#ffffff" fill-rule="evenodd"/>
<path transform="matrix(1,0,0,-1,235.10391,85.586)" stroke-width=".75" stroke-linecap="butt" stroke-linejoin="round" fill="none" stroke="#000000" d="M0 0V-6"/>
<use data-text="0" xlink:href="#font_1_2" transform="matrix(9,0,0,-9,136.104,80.186008)"/>
<use data-text="&#x0009;" xlink:href="#font_2_1" transform="matrix(9,0,0,-9,140.604,80.186008)"/>
<use data-text="1" xlink:href="#font_1_3" transform="matrix(9,0,0,-9,149.1,80.186008)"/>
<use data-text="&#x0009;" xlink:href="#font_2_1" transform="matrix(9,0,0,-9,153.6,80.186008)"/>
<use data-text="2" xlink:href="#font_1_4" transform="matrix(9,0,0,-9,160.09799,80.186008)"/>
<use data-text="&#x0009;" xlink:href="#font_2_1" transform="matrix(9,0,0,-9,164.59799,80.186008)"/>
<use data-text="3" xlink:href="#font_1_5" transform="matrix(9,0,0,-9,173.094,80.186008)"/>
<use data-text="&#x0009;" xlink:href="#font_2_1" transform="matrix(9,0,0,-9,177.594,80.186008)"/>
<use data-text="4" xlink:href="#font_1_6" transform="matrix(9,0,0,-9,184.09201,80.186008)"/>
<use data-text="&#x0009;" xlink:href="#font_2_1" transform="matrix(9,0,0,-9,188.59201,80.186008)"/>
<use data-text="5" xlink:href="#font_1_7" transform="matrix(9,0,0,-9,196.08902,80.186008)"/>
<use data-text="&#x0009;" xlink:href="#font_2_1" transform="matrix(9,0,0,-9,200.58902,80.186008)"/>
<use data-text="6" xlink:href="#font_1_8" transform="matrix(9,0,0,-9,209.08502,80.186008)"/>
<use data-text="&#x0009;" xlink:href="#font_2_1" transform="matrix(9,0,0,-9,213.58502,80.186008)"/>
<use data-text="7" xlink:href="#font_1_9" transform="matrix(9,0,0,-9,220.08301,80.186008)"/>
<use data-text="&#x0009;" xlink:href="#font_2_1" transform="matrix(9,0,0,-9,224.58301,80.186008)"/>
<use data-text="8" xlink:href="#font_1_10" transform="matrix(9,0,0,-9,233.07901,80.186008)"/>
<use data-text="&#x0009;" xlink:href="#font_2_1" transform="matrix(9,0,0,-9,237.57901,80.186008)"/>
<path transform="matrix(1,0,0,-1,175.104,22.585999)" d="M0 0H9L12-6 9-12H0Z" fill="#323886" fill-rule="evenodd"/>
<path transform="matrix(1,0,0,-1,175.104,22.585999)" stroke-width=".75" stroke-linecap="butt" stroke-miterlimit="8" stroke-linejoin="miter" fill="none" stroke="#323886" d="M0 0H9L12-6 9-12H0Z"/>
<path transform="matrix(1,0,0,-1,151.104,40.586)" d="M0 0H9L12-6 9-12H0Z" fill="#323886" fill-rule="evenodd"/>
<path transform="matrix(1,0,0,-1,151.104,40.586)" stroke-width=".75" stroke-linecap="butt" stroke-miterlimit="8" stroke-linejoin="miter" fill="none" stroke="#323886" d="M0 0H9L12-6 9-12H0Z"/>
<path transform="matrix(1,0,0,-1,139.104,58.586)" d="M0 0H9L12-6 9-12H0Z" fill="#323886" fill-rule="evenodd"/>
<path transform="matrix(1,0,0,-1,139.104,58.586)" stroke-width=".75" stroke-linecap="butt" stroke-miterlimit="8" stroke-linejoin="miter" fill="none" stroke="#323886" d="M0 0H9L12-6 9-12H0Z"/>
<path transform="matrix(1,0,0,-1,-76.896,460.586)" d="M216 438H252V426H216Z" fill="#323886" fill-rule="evenodd"/>
<path transform="matrix(1,0,0,-1,139.104,22.585999)" stroke-width=".75" stroke-linecap="butt" stroke-miterlimit="8" stroke-linejoin="miter" fill="none" stroke="#323886" d="M0 0H36V-12H0Z"/>
<path transform="matrix(1,0,0,-1,-76.896,460.586)" d="M216 420H228V408H216Z" fill="#323886" fill-rule="evenodd"/>
<path transform="matrix(1,0,0,-1,139.104,40.586)" stroke-width=".75" stroke-linecap="butt" stroke-miterlimit="8" stroke-linejoin="miter" fill="none" stroke="#323886" d="M0 0H12V-12H0Z"/>
<use data-text="&#x2013;" xlink:href="#font_3_2" transform="matrix(12,0,0,-12,146.30399,14.186005)"/>
<use data-text=" " xlink:href="#font_3_1" transform="matrix(12,0,0,-12,152.30399,14.186005)"/>
<use data-text="2" xlink:href="#font_1_4" transform="matrix(12,0,0,-12,155.30399,14.186005)"/>
<use data-text="3" xlink:href="#font_1_5" transform="matrix(8,0,0,-8,161.30399,10.585999)"/>
<use data-text=" " xlink:href="#font_1_1" transform="matrix(12,0,0,-12,165.30399,14.186005)"/>
<use data-text="=" xlink:href="#font_1_11" transform="matrix(12,0,0,-12,168.30399,14.186005)"/>
<use data-text=" " xlink:href="#font_1_1" transform="matrix(12,0,0,-12,175.07199,14.186005)"/>
<use data-text="&#x2013;" xlink:href="#font_1_14" transform="matrix(12,0,0,-12,178.07199,14.186005)"/>
<use data-text="8" xlink:href="#font_1_10" transform="matrix(12,0,0,-12,184.07202,14.186005)"/>
<use data-text="&#x0009;" xlink:href="#font_2_1" transform="matrix(12,0,0,-12,190.07202,14.186005)"/>
<use data-text="2" xlink:href="#font_1_4" transform="matrix(12,0,0,-12,104.30799,32.186006)"/>
<use data-text="2" xlink:href="#font_1_4" transform="matrix(8,0,0,-8,110.30399,28.585999)"/>
<use data-text=" " xlink:href="#font_1_1" transform="matrix(12,0,0,-12,114.30399,32.186006)"/>
<use data-text="=" xlink:href="#font_1_11" transform="matrix(12,0,0,-12,117.30399,32.186006)"/>
<use data-text=" " xlink:href="#font_1_1" transform="matrix(12,0,0,-12,124.072,32.186006)"/>
<use data-text="4" xlink:href="#font_1_6" transform="matrix(12,0,0,-12,127.072,32.186006)"/>
<use data-text="&#x0009;" xlink:href="#font_2_1" transform="matrix(12,0,0,-12,133.07199,32.186006)"/>
<use data-text="2" xlink:href="#font_1_4" transform="matrix(12,0,0,-12,104.30799,50.186006)"/>
<use data-text="1" xlink:href="#font_1_3" transform="matrix(8,0,0,-8,110.30399,46.586)"/>
<use data-text=" " xlink:href="#font_1_1" transform="matrix(12,0,0,-12,114.30399,50.186006)"/>
<use data-text="=" xlink:href="#font_1_11" transform="matrix(12,0,0,-12,117.30399,50.186006)"/>
<use data-text=" " xlink:href="#font_1_1" transform="matrix(12,0,0,-12,124.072,50.186006)"/>
<use data-text="2" xlink:href="#font_1_4" transform="matrix(12,0,0,-12,127.072,50.186006)"/>
<use data-text="&#x0009;" xlink:href="#font_2_1" transform="matrix(12,0,0,-12,133.07199,50.186006)"/>
<use data-text="2" xlink:href="#font_1_4" transform="matrix(12,0,0,-12,104.30799,68.186008)"/>
<use data-text="0" xlink:href="#font_1_2" transform="matrix(8,0,0,-8,110.30399,64.586)"/>
<use data-text=" " xlink:href="#font_1_1" transform="matrix(12,0,0,-12,114.30399,68.186008)"/>
<use data-text="=" xlink:href="#font_1_11" transform="matrix(12,0,0,-12,117.30399,68.186008)"/>
<use data-text=" " xlink:href="#font_1_1" transform="matrix(12,0,0,-12,124.072,68.186008)"/>
<use data-text="1" xlink:href="#font_1_3" transform="matrix(12,0,0,-12,127.072,68.186008)"/>
<use data-text="&#x0009;" xlink:href="#font_2_1" transform="matrix(12,0,0,-12,133.07199,68.186008)"/>
<path transform="matrix(1,0,0,-1,175.104,124.586)" d="M0 0H9L12-6 9-12H0Z" fill="#323886" fill-rule="evenodd"/>
<path transform="matrix(1,0,0,-1,175.104,124.586)" stroke-width=".75" stroke-linecap="butt" stroke-miterlimit="8" stroke-linejoin="miter" fill="none" stroke="#323886" d="M0 0H9L12-6 9-12H0Z"/>
<path transform="matrix(1,0,0,-1,-76.896,460.586)" d="M216 336H252V324H216Z" fill="#323886" fill-rule="evenodd"/>
<path transform="matrix(1,0,0,-1,139.104,124.586)" stroke-width=".75" stroke-linecap="butt" stroke-miterlimit="8" stroke-linejoin="miter" fill="none" stroke="#323886" d="M0 0H36V-12H0Z"/>
<path transform="matrix(1,0,0,-1,187.104,124.586)" d="M0 0H9L12-6 9-12H0Z" fill="#323886" fill-rule="evenodd"/>
<path transform="matrix(1,0,0,-1,187.104,124.586)" stroke-width=".75" stroke-linecap="butt" stroke-miterlimit="8" stroke-linejoin="miter" fill="none" stroke="#323886" d="M0 0H9L12-6 9-12H0Z"/>
<path transform="matrix(1,0,0,-1,151.104,88.586)" stroke-width=".5" stroke-linecap="butt" stroke-linejoin="round" fill="none" stroke="#000000" d="M0 0V-18"/>
<path transform="matrix(1,0,0,-1,199.104,88.586)" stroke-width=".5" stroke-linecap="butt" stroke-linejoin="round" fill="none" stroke="#000000" d="M0 0V-42"/>
<path transform="matrix(1,0,0,-1,-76.896,460.586)" d="M114 378H126V366H114Z" fill="#ffffff" fill-rule="evenodd"/>
<path transform="matrix(1,0,0,-1,43.103998,85.586)" stroke-width=".75" stroke-linecap="butt" stroke-linejoin="round" fill="none" stroke="#000000" d="M0 0V-6"/>
<path transform="matrix(1,0,0,-1,-76.896,460.586)" d="M126 378H138V366H126Z" fill="#ffffff" fill-rule="evenodd"/>
<path transform="matrix(1,0,0,-1,55.103998,85.586)" stroke-width=".75" stroke-linecap="butt" stroke-linejoin="round" fill="none" stroke="#000000" d="M0 0V-6"/>
<path transform="matrix(1,0,0,-1,-76.896,460.586)" d="M138 378H150V366H138Z" fill="#ffffff" fill-rule="evenodd"/>
<path transform="matrix(1,0,0,-1,67.104,85.586)" stroke-width=".75" stroke-linecap="butt" stroke-linejoin="round" fill="none" stroke="#000000" d="M0 0V-6"/>
<path transform="matrix(1,0,0,-1,-76.896,460.586)" d="M150 378H162V366H150Z" fill="#ffffff" fill-rule="evenodd"/>
<path transform="matrix(1,0,0,-1,79.104,85.586)" stroke-width=".75" stroke-linecap="butt" stroke-linejoin="round" fill="none" stroke="#000000" d="M0 0V-6"/>
<path transform="matrix(1,0,0,-1,-76.896,460.586)" d="M162 378H174V366H162Z" fill="#ffffff" fill-rule="evenodd"/>
<path transform="matrix(1,0,0,-1,91.104,85.586)" stroke-width=".75" stroke-linecap="butt" stroke-linejoin="round" fill="none" stroke="#000000" d="M0 0V-6"/>
<path transform="matrix(1,0,0,-1,-76.896,460.586)" d="M174 378H186V366H174Z" fill="#ffffff" fill-rule="evenodd"/>
<path transform="matrix(1,0,0,-1,103.104,85.586)" stroke-width=".75" stroke-linecap="butt" stroke-linejoin="round" fill="none" stroke="#000000" d="M0 0V-6"/>
<path transform="matrix(1,0,0,-1,-76.896,460.586)" d="M186 378H198V366H186Z" fill="#ffffff" fill-rule="evenodd"/>
<path transform="matrix(1,0,0,-1,115.104,85.586)" stroke-width=".75" stroke-linecap="butt" stroke-linejoin="round" fill="none" stroke="#000000" d="M0 0V-6"/>
<path transform="matrix(1,0,0,-1,-76.896,460.586)" d="M198 378H210V366H198Z" fill="#ffffff" fill-rule="evenodd"/>
<path transform="matrix(1,0,0,-1,127.104,85.586)" stroke-width=".75" stroke-linecap="butt" stroke-linejoin="round" fill="none" stroke="#000000" d="M0 0V-6"/>
<use data-text="&#x2013;" xlink:href="#font_4_1" transform="matrix(9,0,0,-9,38.103998,80.186008)"/>
<use data-text="8" xlink:href="#font_1_10" transform="matrix(9,0,0,-9,43.107995,80.186008)"/>
<use data-text="&#x0009;" xlink:href="#font_2_1" transform="matrix(9,0,0,-9,47.607995,80.186008)"/>
<use data-text="&#x2013;" xlink:href="#font_4_1" transform="matrix(9,0,0,-9,50.100999,80.186008)"/>
<use data-text="7" xlink:href="#font_1_9" transform="matrix(9,0,0,-9,55.105005,80.186008)"/>
<use data-text="&#x0009;" xlink:href="#font_2_1" transform="matrix(9,0,0,-9,59.605005,80.186008)"/>
<use data-text="&#x2013;" xlink:href="#font_4_1" transform="matrix(9,0,0,-9,62.098,80.186008)"/>
<use data-text="6" xlink:href="#font_1_8" transform="matrix(9,0,0,-9,67.102,80.186008)"/>
<use data-text="&#x0009;" xlink:href="#font_2_1" transform="matrix(9,0,0,-9,71.602,80.186008)"/>
<use data-text="&#x2013;" xlink:href="#font_4_1" transform="matrix(9,0,0,-9,74.09499,80.186008)"/>
<use data-text="5" xlink:href="#font_1_7" transform="matrix(9,0,0,-9,79.09899,80.186008)"/>
<use data-text="&#x0009;" xlink:href="#font_2_1" transform="matrix(9,0,0,-9,83.59899,80.186008)"/>
<use data-text="&#x2013;" xlink:href="#font_4_1" transform="matrix(9,0,0,-9,86.09199,80.186008)"/>
<use data-text="4" xlink:href="#font_1_6" transform="matrix(9,0,0,-9,91.095989,80.186008)"/>
<use data-text="&#x0009;" xlink:href="#font_2_1" transform="matrix(9,0,0,-9,95.595989,80.186008)"/>
<use data-text="&#x2013;" xlink:href="#font_4_1" transform="matrix(9,0,0,-9,98.08898,80.186008)"/>
<use data-text="3" xlink:href="#font_1_5" transform="matrix(9,0,0,-9,103.09298,80.186008)"/>
<use data-text="&#x0009;" xlink:href="#font_2_1" transform="matrix(9,0,0,-9,107.59298,80.186008)"/>
<use data-text="&#x2013;" xlink:href="#font_4_1" transform="matrix(9,0,0,-9,110.085979,80.186008)"/>
<use data-text="2" xlink:href="#font_1_4" transform="matrix(9,0,0,-9,115.08997,80.186008)"/>
<use data-text="&#x0009;" xlink:href="#font_2_1" transform="matrix(9,0,0,-9,119.58997,80.186008)"/>
<use data-text="&#x2013;" xlink:href="#font_4_1" transform="matrix(9,0,0,-9,122.08297,80.186008)"/>
<use data-text="1" xlink:href="#font_1_3" transform="matrix(9,0,0,-9,127.08697,80.186008)"/>
<use data-text="&#x0009;" xlink:href="#font_2_1" transform="matrix(9,0,0,-9,131.58698,80.186008)"/>
<path transform="matrix(1,0,0,-1,43.103998,88.586)" stroke-width=".75" stroke-linecap="butt" stroke-linejoin="round" fill="none" stroke="#000000" d="M0 0H192"/>
<path transform="matrix(1,0,0,-1,79.104,88.586)" stroke-width=".5" stroke-linecap="butt" stroke-linejoin="round" fill="none" stroke="#000000" d="M0 0V-66"/>
<path transform="matrix(1,0,0,-1,127.104,88.586)" stroke-width=".5" stroke-linecap="butt" stroke-linejoin="round" fill="none" stroke="#000000" d="M0 0V-96"/>
<path transform="matrix(1,0,0,-1,139.104,88.586)" stroke-width="1" stroke-linecap="butt" stroke-linejoin="round" fill="none" stroke="#000000" d="M0 0V-102"/>
<path transform="matrix(1,0,0,-1,139.104,16.58609)" d="M0 0H-93.124L-96 6-93.124 12H0Z" fill="#cbcbcb" fill-rule="evenodd"/>
<path transform="matrix(1,0,0,-1,139.104,16.58609)" stroke-width=".75" stroke-linecap="butt" stroke-miterlimit="8" stroke-linejoin="miter" fill="none" stroke="#000000" d="M0 0H-93.124L-96 6-93.124 12H0Z"/>
</g>
</svg>
