<svg xmlns="http://www.w3.org/2000/svg" xmlns:xlink="http://www.w3.org/1999/xlink" version="1.1" width="175.98862pt" height="148.24301pt" viewBox="0 0 175.98862 148.24301">
<defs>
<clipPath id="clip_0">
<path transform="matrix(1,0,0,-1,-84.8234,325.82)" d="M84.8234 177.577H260.812V325.82H84.8234Z" fill-rule="evenodd"/>
</clipPath>
<path id="font_1_3" d="M.036132814 .32714845C.036132814 .40266929 .047526044 .46769206 .0703125 .5222168 .09309896 .5767415 .1233724 .6173503 .16113281 .64404299 .19042969 .66520187 .22070313 .67578127 .25195313 .67578127 .30273438 .67578127 .34830729 .64990237 .38867188 .59814456 .4391276 .5340169 .46435548 .44710288 .46435548 .33740235 .46435548 .26057945 .45328776 .1953125 .43115235 .14160156 .40901695 .087890628 .38077799 .048909505 .34643556 .024658204 .3120931 .00040690104 .27897135-.01171875 .24707031-.01171875 .18391927-.01171875 .13134766 .025553385 .08935547 .100097659 .0538737 .16292317 .036132814 .23860677 .036132814 .32714845M.13183594 .3152008C.13183594 .22412618 .1430664 .14980062 .16552735 .09222412 .18408203 .043762208 .2117513 .01953125 .24853516 .01953125 .26611329 .01953125 .28434245 .027420044 .30322267 .04319763 .32210288 .05897522 .33642579 .08540344 .3461914 .1224823 .36116538 .17842102 .36865235 .2572988 .36865235 .3591156 .36865235 .4345754 .36083985 .49751283 .34521485 .54792788 .3334961 .5853322 .31835938 .61184188 .2998047 .62745669 .28645835 .63818868 .27034507 .6435547 .25146485 .6435547 .22932942 .6435547 .20963542 .6336365 .19238281 .61380007 .16894531 .5868022 .1529948 .54435226 .14453125 .4864502 .1360677 .42855836 .13183594 .37147523 .13183594 .3152008Z"/>
<path id="font_1_1" d="M0 0Z"/>
<path id="font_1_5" d="M.4584961 .12890625 .41210938 0H.021484375V.018432618C.13639324 .12313843 .21728516 .20865886 .26416017 .2749939 .31103517 .3413391 .33447267 .40201823 .33447267 .45703126 .33447267 .498881 .3216146 .5332692 .29589845 .5601959 .27018229 .5871226 .23942058 .60058596 .20361328 .60058596 .1710612 .60058596 .1418457 .5911458 .1159668 .5722656 .09008789 .55339559 .07096354 .5257263 .05859375 .4892578H.040527345C.048665365 .5493266 .06958008 .59542849 .103271488 .6275635 .13696289 .6597087 .17903646 .67578127 .22949219 .67578127 .28320313 .67578127 .3280436 .6585286 .36401368 .62402346 .39998374 .58951827 .41796876 .5488281 .41796876 .5019531 .41796876 .46842448 .41015626 .43489585 .39453126 .4013672 .37044273 .3486328 .33138023 .292806 .27734376 .23388672 .19628906 .14552816 .14567058 .09263102 .12548828 .07519531H.29833985C.3334961 .07519531 .3581543 .0764974 .37231446 .07910156 .3864746 .08170573 .3992513 .086995448 .41064454 .0949707 .42203776 .10294596 .43196617 .11425781 .4404297 .12890625H.4584961Z"/>
<path id="font_2_2" d="M.4189453 .4423828 .45263673 .075683597C.50927737 .1421814 .5545247 .20460002 .5883789 .26293946 .60823568 .29717 .61816409 .3219452 .61816409 .337265 .61816409 .34443666 .61653646 .3507894 .61328127 .35632325 .6119792 .3592631 .60685226 .36358134 .5979004 .36927796 .58894857 .37498475 .5826823 .38085429 .57910159 .3868866 .5755208 .3929189 .57373049 .39935813 .57373049 .40620423 .57373049 .41630555 .57747396 .42486064 .58496096 .4318695 .59244796 .4388784 .6020508 .4423828 .61376956 .4423828 .6271159 .4423828 .63842776 .43741355 .6477051 .42747499 .6569824 .4175364 .6616211 .4042562 .6616211 .38763429 .6616211 .37068687 .6591797 .35488383 .6542969 .34022523 .64453127 .31219993 .6254883 .2760264 .59716799 .23170471 .5626628 .17859395 .5270996 .12930806 .49047853 .083847049 .45385743 .03838603 .42659507 .0065307619 .4086914-.01171875H.390625L.35888673 .32617188 .15722656-.01171875H.13574219C.13346355 .12727864 .12646485 .23697917 .114746097 .3173828 .10986328 .35091148 .10172526 .37288413 .09033203 .38330079 .08219401 .39078776 .06982422 .39453126 .053222658 .39453126 .04378255 .39453126 .03173828 .3935547 .017089844 .39160157V.4091797L.15722656 .4423828C.17675781 .3881836 .18945313 .30493165 .1953125 .19262696 .19726563 .15011597 .19889324 .12334188 .20019531 .11230469L.4008789 .4423828H.4189453Z"/>
<path id="font_2_1" d="M0 0Z"/>
<path id="font_1_2" d="M.26123048 .068359378V.3125H.018066407V.35253907H.26123048V.5957031H.30029298V.35253907H.5444336V.3125H.30029298V.068359378H.26123048Z"/>
<path id="font_1_4" d="M.1171875 .59765627 .2783203 .67578127H.2944336V.1171875C.2944336 .080078128 .29597984 .056966146 .29907228 .047851564 .3021647 .03873698 .30859376 .03173828 .31835938 .026855469 .328125 .021972657 .34798179 .019205729 .3779297 .018554688V0H.12890625V.018554688C.16015625 .019205729 .18033855 .021891276 .18945313 .026611329 .1985677 .03133138 .20491536 .037679037 .2084961 .045654298 .21207683 .05362956 .21386719 .07747396 .21386719 .1171875V.47460938C.21386719 .5225728 .21223958 .5533549 .20898438 .56695559 .20670574 .57733157 .20255535 .58496096 .1965332 .58984377 .19051107 .59472659 .18326824 .59716799 .17480469 .59716799 .16276042 .59716799 .1459961 .5921224 .12451172 .58203127L.1171875 .59765627Z"/>
<path id="font_2_3" d="M.17333985 .4423828C.18929036 .4252828 .20133464 .40818278 .20947266 .39108277 .21533203 .37931315 .22493489 .3484243 .23828125 .29841615L.28125 .36328126C.29264323 .3789978 .30647788 .39398194 .3227539 .40823365 .33902995 .42248536 .35335288 .43223063 .36572267 .43746949 .37353517 .44074504 .38216148 .4423828 .39160157 .4423828 .40559898 .4423828 .41674806 .43858848 .42504884 .43099977 .4333496 .42342124 .4375 .41419474 .4375 .4033203 .4375 .39078776 .4350586 .3822123 .43017579 .377594 .4210612 .36935426 .41064454 .36523438 .39892579 .36523438 .39208985 .36523438 .38476563 .36676026 .37695313 .369812 .36165367 .3752238 .35139976 .3779297 .3461914 .3779297 .3383789 .3779297 .32910157 .3733673 .31835938 .36424256 .2981771 .34729515 .27408854 .31454469 .24609375 .2659912L.2861328 .09803772C.29231773 .07234192 .29752604 .056971235 .3017578 .05192566 .3059896 .04689026 .31022135 .04437256 .31445313 .04437256 .32128907 .04437256 .3292643 .048116048 .3383789 .055603029 .35628257 .07055664 .37158204 .09007263 .38427735 .114151L.4013672 .10536194C.38085938 .066980998 .35481773 .035110475 .3232422 .009750366 .30533854-.004562378 .2902018-.01171875 .27783204-.01171875 .25960288-.01171875 .24511719-.0014648438 .234375 .019042969 .22753906 .031799318 .2133789 .086751308 .19189453 .18389893 .14111328 .095326747 .10042318 .038294477 .06982422 .012802124 .04996745-.0035451253 .030761719-.01171875 .012207031-.01171875-.00081380209-.01171875-.0126953129-.00696818-.0234375 .002532959-.03125 .009735107-.03515625 .01939392-.03515625 .0315094-.03515625 .042312623-.03157552 .051315309-.024414063 .058517457-.017252604 .065729778-.008463542 .06933594 .001953125 .06933594 .012369792 .06933594 .0234375 .06403097 .03515625 .05342102 .043619794 .0458018 .050130208 .041992189 .0546875 .041992189 .05859375 .041992189 .06363932 .04458618 .06982422 .04977417 .085123699 .062082929 .10595703 .088653568 .13232422 .12948609 .1586914 .17032878 .17594402 .19982402 .18408203 .2179718 .16389974 .29740907 .1529948 .3394165 .15136719 .34399415 .1438802 .36524455 .13411458 .38027955 .12207031 .38909913 .11002604 .39792887 .092285159 .40234376 .068847659 .40234376 .061360677 .40234376 .052734376 .40201823 .04296875 .4013672V.4189453L.17333985 .4423828Z"/>
<path id="font_2_4" d="M.15966797 .4423828C.17073567 .4235128 .17838542 .40586344 .18261719 .3894348 .18684896 .3730062 .19108074 .3407135 .1953125 .29255677L.21679688 .052459718C.23632813 .07588705 .26464845 .112976077 .3017578 .1637268 .31966148 .18845622 .34179688 .22212728 .36816407 .26474 .3841146 .29077149 .39388023 .30899049 .39746095 .31939698 .39941407 .32460533 .40039063 .3299764 .40039063 .33551026 .40039063 .33909098 .3992513 .3420156 .39697267 .34428407 .394694 .3465627 .38875328 .34924827 .3791504 .3523407 .36954753 .35543315 .36157228 .36112467 .3552246 .36941529 .34887696 .37771607 .34570313 .38723756 .34570313 .39797975 .34570313 .41131593 .34960938 .42204795 .35742188 .43017579 .36523438 .4383138 .375 .4423828 .38671876 .4423828 .40104167 .4423828 .4132487 .43643189 .42333985 .42453004 .433431 .41263835 .43847657 .39626567 .43847657 .375412 .43847657 .3496653 .4296875 .32025147 .41210938 .2871704 .39453126 .25408937 .3606771 .20332845 .31054688 .1348877 .26041667 .06644694 .19970703-.0081380209 .12841797-.08886719 .07926432-.14453125 .04280599-.17960613 .019042969-.1940918-.0047200524-.20857747-.025065104-.21582031-.041992189-.21582031-.052083333-.21582031-.060953779-.2119751-.068603519-.20428467-.07625326-.19659424-.080078128-.18767293-.080078128-.17752075-.080078128-.16475423-.074788417-.15313213-.064208988-.14265442-.05362956-.13218689-.04215495-.12695313-.029785157-.12695313-.02327474-.12695313-.017903647-.12841797-.013671875-.13134766-.011067708-.13297527-.008219401-.13761394-.005126953-.14526367-.0020345052-.1529134 .00081380209-.15804036 .0034179688-.16064453 .0050455729-.16227214 .0069986979-.16308594 .009277344-.16308594 .011230469-.16308594 .0146484379-.1614685 .01953125-.15823365 .037434896-.14722698 .05826823-.12975057 .08203125-.10580444 .11328125-.07408651 .13639324-.047968549 .15136719-.027450562L.12402344 .2818451C.11946615 .332901 .11263021 .36395774 .103515628 .37501527 .09440104 .38607279 .07910156 .39160157 .057617189 .39160157 .05078125 .39160157 .03857422 .390625 .020996094 .38867188L.016601563 .40722657 .15966797 .4423828Z"/>
<path id="font_1_6" d="M.42333985 .44726563V.17480469C.42333985 .123687747 .42456056 .092422489 .42700196 .08100891 .42944337 .06960551 .4333496 .061635335 .4387207 .05709839 .4440918 .052561445 .45035807 .05029297 .45751954 .05029297 .4676107 .05029297 .4790039 .053059896 .49169923 .05859375L.49853517 .041015626 .3647461-.013671875H.34277345V.08061218C.30436198 .039138795 .2750651 .0130564379 .2548828 .0023651124 .23470052-.008326213 .2133789-.013671875 .19091797-.013671875 .16585286-.013671875 .14412435-.0064290368 .12573242 .008056641 .10734049 .022542319 .094563808 .041178388 .087402347 .063964847 .08024088 .086751308 .076660159 .11897787 .076660159 .16064453V.36035157C.076660159 .381663 .07438151 .39641319 .06982422 .40460206 .06526693 .41280113 .05851237 .41911317 .049560548 .4235382 .040608724 .42796327 .024414063 .43001304 .0009765625 .4296875V.44726563H.15771485V.14758301C.15771485 .10586548 .16495769 .07848612 .17944336 .06544495 .19392903 .05241394 .21142578 .045898439 .2319336 .045898439 .24593099 .045898439 .26180015 .050298055 .27954103 .05909729 .2972819 .06789652 .31835938 .08468119 .34277345 .109451297V.3623047C.34277345 .3882548 .33813478 .4058075 .32885743 .41496278 .31958009 .42411805 .30029298 .42902629 .2709961 .4296875V.44726563H.42333985Z"/>
<path id="font_3_2" d="M.3857422 .7373047C.5123698 .7373047 .6061198 .6965637 .6669922 .6150818 .71451827 .55152389 .73828127 .47019959 .73828127 .371109 .73828127 .2638804 .7111003 .17473857 .6567383 .10368347 .5929362 .020238242 .5019531-.021484375 .38378907-.021484375 .2734375-.021484375 .1866862 .015019734 .123535159 .088027957 .067220058 .158432 .0390625 .24741619 .0390625 .35498048 .0390625 .45210777 .06315104 .53522238 .111328128 .60432437 .17317708 .6929779 .26464845 .7373047 .3857422 .7373047M.3955078 .06542969C.48111979 .06542969 .5430501 .09613546 .5812988 .157547 .61954757 .21895854 .6386719 .2895762 .6386719 .36940003 .6386719 .45378114 .61661788 .5217082 .57250979 .57318118 .5284017 .6246541 .46809898 .6503906 .39160157 .6503906 .3173828 .6503906 .25683595 .62489828 .20996094 .5739136 .16308594 .5229289 .13964844 .4477488 .13964844 .3483734 .13964844 .26888529 .15974935 .20185344 .19995117 .14727783 .240153 .0927124 .30533854 .06542969 .3955078 .06542969M.38867188 .7373047V.7373047Z"/>
<path id="font_3_9" d="M.107421878 .5234375 .24707031 .09725952 .3930664 .5234375H.4892578L.2919922 0H.19824219L.0053710939 .5234375H.107421878Z"/>
<path id="font_3_4" d="M.28222657 .53515627C.31933595 .53515627 .355306 .52644857 .39013673 .5090332 .42496745 .49161784 .4514974 .4690806 .46972657 .4414215 .4873047 .41505433 .49902345 .3842977 .5048828 .3491516 .5100911 .32506309 .5126953 .28647868 .5126953 .23339844H.12939453C.13102214 .18033855 .14355469 .13777669 .16699219 .10571289 .19042969 .073649089 .22672527 .057617189 .2758789 .057617189 .32177735 .057617189 .35839845 .07261658 .3857422 .10261536 .4013672 .12003072 .4124349 .14018758 .4189453 .16308594H.5053711C.50309249 .14398194 .49552409 .122690837 .48266603 .09921265 .46980796 .07574463 .45540367 .05656433 .43945313 .041671754 .4127604 .01576233 .37972007-.0017242432 .34033204-.010787964 .3191732-.01596578 .2952474-.018554688 .2685547-.018554688 .20345052-.018554688 .14827474 .0051472985 .103027347 .05255127 .05777995 .09995524 .03515625 .16634114 .03515625 .25170899 .03515625 .33576457 .057942708 .40401713 .103515628 .45646668 .14908855 .5089264 .20865886 .53515627 .28222657 .53515627M.42236329 .30371095C.41878257 .34191896 .41048179 .37245179 .39746095 .39530946 .3733724 .4377594 .33317057 .45898438 .27685548 .45898438 .23649089 .45898438 .20263672 .44437156 .17529297 .41514588 .14794922 .3859202 .13346355 .34877525 .13183594 .30371095H.42236329M.27392579 .5361328V.5361328Z"/>
<path id="font_3_8" d="M.06689453 .5234375H.15039063V.4326172C.15722656 .4502767 .17399089 .4717814 .2006836 .49713136 .2273763 .52248129 .25813804 .53515627 .29296876 .53515627 .29459635 .53515627 .29736329 .5349579 .30126954 .53456118 .30517579 .5341746 .31184898 .5333964 .32128907 .53222659V.43945313C.31608073 .44062297 .3112793 .44140116 .30688478 .44178773 .30249024 .44218446 .2976888 .4423828 .29248048 .4423828 .24820964 .4423828 .2141927 .4280599 .19042969 .39941407 .16666667 .37076823 .15478516 .33789063 .15478516 .30078126V0H.06689453V.5234375Z"/>
<path id="font_3_11" d="M.43164063 0H.34375V.71777346H.43164063V0M.17333985 0H.08642578V.45117188H.013671875V.5205078H.08642578V.61283877C.08642578 .65139266 .09838867 .6799825 .12231445 .6986084 .14624024 .71724447 .17822266 .7265625 .21826172 .7265625 .22607422 .7265625 .2331543 .7262828 .23950196 .72572329 .24584961 .72516378 .25309245 .7241414 .26123048 .72265627V.6435547C.25211589 .64420577 .2455241 .6446126 .24145508 .6447754 .23738607 .6449382 .2335612 .64501956 .22998047 .64501956 .20524089 .64501956 .18880208 .6380208 .18066406 .62402346 .17578125 .6159973 .17333985 .6028392 .17333985 .58454897V.5205078H.26123048V.45117188H.17333985V0Z"/>
<path id="font_3_7" d="M.27197267 .057617189C.33024089 .057617189 .37019859 .07964579 .3918457 .123703 .41349284 .16776021 .4243164 .21677144 .4243164 .2707367 .4243164 .31950379 .4165039 .35917155 .4008789 .38974 .3761393 .43785606 .3334961 .46191407 .27294923 .46191407 .21923828 .46191407 .18017578 .44143168 .15576172 .40046693 .13134766 .35950218 .119140628 .31008403 .119140628 .25221253 .119140628 .1966095 .13134766 .15027364 .15576172 .113204959 .18017578 .076146449 .21891277 .057617189 .27197267 .057617189M.27539063 .53808596C.34277345 .53808596 .3997396 .5156453 .44628907 .47076417 .49283854 .42588298 .5161133 .35985819 .5161133 .27268983 .5161133 .1884613 .49560548 .11886088 .45458985 .06388855 .41357423 .008926392 .3499349-.018554688 .26367188-.018554688 .19173177-.018554688 .13460286 .00575765 .092285159 .054382326 .04996745 .103006999 .028808594 .16829936 .028808594 .2502594 .028808594 .33806864 .05110677 .4079895 .095703128 .46002198 .14029949 .51206466 .20019531 .53808596 .27539063 .53808596M.27246095 .5361328V.5361328Z"/>
<path id="font_3_10" d="M.10498047 .5234375 .2055664 .110946658 .3076172 .5234375H.40625L.50878909 .11338806 .61572268 .5234375H.7036133L.5517578 0H.46044923L.3540039 .40516664 .25097657 0H.15966797L.0087890629 .5234375H.10498047Z"/>
<path id="font_4_1" d="M0 0Z"/>
<path id="font_3_1" d="M.076171878 .71777346H.19091797L.55322268 .1362915V.71777346H.6455078V0H.5366211L.16894531 .58084109V0H.076171878V.71777346M.3544922 .71777346V.71777346Z"/>
<path id="font_3_6" d="M.064453128 .5234375H.15136719V.44921876C.17220052 .4749349 .19108074 .49365235 .20800781 .5053711 .23697917 .52522787 .26985679 .53515627 .30664063 .53515627 .34830729 .53515627 .38183595 .52490237 .40722657 .50439456 .42154948 .49267579 .4345703 .4754232 .44628907 .45263673 .4658203 .4806315 .48876954 .5013835 .5151367 .5148926 .5415039 .5284017 .5711263 .53515627 .6040039 .53515627 .6743164 .53515627 .72216799 .5097402 .7475586 .45890809 .76123049 .43154399 .7680664 .3947296 .7680664 .34846498V0H.6767578V.36367799C.6767578 .39853923 .6680501 .42248536 .65063479 .43551637 .6332194 .44855754 .6119792 .45507813 .58691409 .45507813 .5524089 .45507813 .5227051 .44350688 .49780274 .42036439 .4729004 .39723207 .46044923 .35861717 .46044923 .30451966V0H.37109376V.3416748C.37109376 .37719728 .36686198 .4031016 .35839845 .41938783 .3450521 .4438324 .32014976 .4560547 .2836914 .4560547 .25048829 .4560547 .22029622 .44318138 .19311524 .4174347 .16593425 .3916982 .15234375 .34510295 .15234375 .27764894V0H.064453128V.5234375Z"/>
<path id="font_3_3" d="M.13183594 .1394043C.13183594 .114095058 .14111328 .09413656 .15966797 .07952881 .17822266 .06492106 .20019531 .057617189 .22558594 .057617189 .2565104 .057617189 .28645835 .06471761 .3154297 .07891846 .3642578 .10247803 .38867188 .14127605 .38867188 .1953125V.26611329C.3779297 .25886027 .36409507 .2528127 .34716798 .24797058 .33024089 .24313863 .3136393 .23983257 .29736329 .23805237L.24414063 .23184204C.21223958 .22799683 .1883138 .22153218 .17236328 .21244812 .14534505 .19718933 .13183594 .17284139 .13183594 .1394043M.34472657 .31689454C.36490885 .3194987 .37841798 .32796226 .3852539 .34228517 .38916017 .35012818 .39111329 .36140443 .39111329 .3761139 .39111329 .40618388 .38045249 .42799888 .35913087 .44155885 .33780924 .455129 .30729167 .46191407 .26757813 .46191407 .22167969 .46191407 .18912761 .44948326 .16992188 .42462159 .15917969 .4108785 .15218099 .39043174 .14892578 .36328126H.06689453C.06852213 .42791749 .08943685 .47288514 .12963867 .4981842 .1698405 .5234833 .21647136 .5361328 .26953126 .5361328 .3310547 .5361328 .38102214 .52441409 .4194336 .50097659 .45751954 .47753907 .4765625 .4410502 .4765625 .39151V.08985901C.4765625 .08073425 .47843424 .073404949 .48217774 .067871097 .48592124 .06233724 .4938151 .059570314 .5058594 .059570314 .5097656 .059570314 .51416018 .059814454 .51904299 .060302736 .5239258 .060791017 .5291341 .061523439 .53466799 .0625V-.0028076173C.5209961-.00676473 .5105794-.009236653 .50341799-.010223389 .4962565-.011220296 .48649089-.01171875 .4741211-.01171875 .44384767-.01171875 .421875-.0009104411 .40820313 .020706177 .40104167 .032170614 .3959961 .048380536 .3930664 .06933594 .37516276 .045633954 .34944663 .025060019 .31591798 .0076141359 .2823893-.009831746 .2454427-.018554688 .20507813-.018554688 .15657552-.018554688 .11694336-.0037790936 .08618164 .025772095 .055419923 .055323285 .040039064 .092300418 .040039064 .13670349 .040039064 .18535869 .05517578 .22307332 .08544922 .24984741 .115722659 .2766215 .1554362 .29311119 .20458985 .2993164L.34472657 .31689454M.27197267 .5361328V.5361328Z"/>
<path id="font_3_5" d="M.06689453 .71777346H.15478516V0H.06689453V.71777346Z"/>
</defs>
<g clip-path="url(#clip_0)">
<path transform="matrix(1,0,0,-1,-84.8234,325.82)" d="M36 36H756V576H36Z" fill="#ffffff"/>
<path transform="matrix(1,0,0,-1,-84.8234,325.82)" d="M138 267H162V285H138Z" fill-rule="evenodd"/>
<path transform="matrix(1,0,0,-1,53.176599,58.820009)" stroke-width=".75" stroke-linecap="butt" stroke-miterlimit="8" stroke-linejoin="miter" fill="none" stroke="#000000" d="M0 0H24V18H0Z"/>
<path transform="matrix(1,0,0,-1,62.176599,49.820009)" stroke-width="18" stroke-linecap="round" stroke-linejoin="round" fill="none" stroke="#000000" d="M0 0H30L48-59.787 75-60"/>
<path transform="matrix(1,0,0,-1,134.6766,127.82001)" d="M0 0V36L18 18Z" fill-rule="evenodd"/>
<path transform="matrix(1,0,0,-1,134.6766,127.82001)" stroke-width=".75" stroke-linecap="butt" stroke-linejoin="round" fill="none" stroke="#000000" d="M0 0V36L18 18 0 0Z"/>
<path transform="matrix(1,0,0,-1,155.1766,80.82001)" stroke-width="2" stroke-linecap="butt" stroke-linejoin="round" fill="none" stroke="#000000" d="M0 0V-52"/>
<path transform="matrix(1,0,0,-1,150.1766,133.82)" stroke-width="2" stroke-linecap="butt" stroke-linejoin="round" fill="none" stroke="#000000" d="M0 0H10"/>
<path transform="matrix(1,0,0,-1,150.1766,79.82001)" stroke-width="2" stroke-linecap="butt" stroke-linejoin="round" fill="none" stroke="#000000" d="M0 0H10"/>
<use data-text="0" xlink:href="#font_1_3" transform="matrix(18,0,0,-18,11.176598,141.57)"/>
<use data-text=" " xlink:href="#font_1_1" transform="matrix(18,0,0,-18,20.176598,141.57)"/>
<use data-text="2" xlink:href="#font_1_5" transform="matrix(18,0,0,-18,11.176598,87.57001)"/>
<use data-text="w" xlink:href="#font_2_2" transform="matrix(12,0,0,-12,20.176598,82.17001)"/>
<use data-text=" " xlink:href="#font_2_1" transform="matrix(12,0,0,-12,28.180596,82.17001)"/>
<use data-text="2" xlink:href="#font_1_5" transform="matrix(18,0,0,-18,11.176598,33.570009)"/>
<use data-text="w" xlink:href="#font_2_2" transform="matrix(12,0,0,-12,20.176598,28.170014)"/>
<use data-text="+" xlink:href="#font_1_2" transform="matrix(12,0,0,-12,28.180596,28.170014)"/>
<use data-text="1" xlink:href="#font_1_4" transform="matrix(12,0,0,-12,34.948595,28.170014)"/>
<use data-text=" " xlink:href="#font_1_1" transform="matrix(12,0,0,-12,40.948595,28.170014)"/>
<use data-text="x" xlink:href="#font_2_3" transform="matrix(16,0,0,-16,36.3015,13.070007)"/>
<use data-text=" " xlink:href="#font_1_1" transform="matrix(16,0,0,-16,43.405496,13.070007)"/>
<use data-text="+" xlink:href="#font_1_2" transform="matrix(16,0,0,-16,47.405496,13.070007)"/>
<use data-text=" " xlink:href="#font_1_1" transform="matrix(16,0,0,-16,56.429498,13.070007)"/>
<use data-text="y" xlink:href="#font_2_4" transform="matrix(16,0,0,-16,60.429498,13.070007)"/>
<use data-text=" " xlink:href="#font_2_1" transform="matrix(16,0,0,-16,67.5335,13.070007)"/>
<use data-text="x" xlink:href="#font_2_3" transform="matrix(16,0,0,-16,132.30152,63.32602)"/>
<use data-text=" " xlink:href="#font_1_1" transform="matrix(16,0,0,-16,139.40552,63.32602)"/>
<use data-text="+" xlink:href="#font_1_2" transform="matrix(16,0,0,-16,143.40552,63.32602)"/>
<use data-text="u" xlink:href="#font_1_6" transform="matrix(10.6667,0,0,-10.6667,152.42649,58.52002)"/>
<use data-text=" " xlink:href="#font_1_1" transform="matrix(16,0,0,-16,157.7598,63.320009)"/>
<use data-text="y" xlink:href="#font_2_4" transform="matrix(16,0,0,-16,161.7598,63.320009)"/>
<use data-text=" " xlink:href="#font_2_1" transform="matrix(16,0,0,-16,168.8638,63.320009)"/>
<use data-text="&#xfffd;" xlink:href="#font_3_2" transform="matrix(14,0,0,-14,66.30149,31.320008)"/>
<use data-text="&#xfffd;" xlink:href="#font_3_9" transform="matrix(14,0,0,-14,77.19349,31.320008)"/>
<use data-text="&#xfffd;" xlink:href="#font_3_4" transform="matrix(14,0,0,-14,84.19349,31.320008)"/>
<use data-text="&#xfffd;" xlink:href="#font_3_8" transform="matrix(14,0,0,-14,91.977489,31.320008)"/>
<use data-text="&#xfffd;" xlink:href="#font_3_11" transform="matrix(14,0,0,-14,96.63949,31.320008)"/>
<use data-text="&#xfffd;" xlink:href="#font_3_7" transform="matrix(14,0,0,-14,103.63949,31.320008)"/>
<use data-text="&#xfffd;" xlink:href="#font_3_10" transform="matrix(14,0,0,-14,111.423488,31.320008)"/>
<use data-text="&#xfffd;" xlink:href="#font_4_1" transform="matrix(14,0,0,-14,121.53149,31.320008)"/>
<path transform="matrix(1,0,0,-1,134.6766,85.82001)" d="M0 0V-36L18-18Z" fill="#0048aa" fill-opacity=".501999" fill-rule="evenodd"/>
<path transform="matrix(1,0,0,-1,-84.8234,325.82)" d="M138 230.5H219.5V212.5H138Z" fill="#0048aa" fill-opacity=".501999" fill-rule="evenodd"/>
<path transform="matrix(1,0,0,-1,53.176599,26.820008)" stroke-width="2" stroke-linecap="butt" stroke-linejoin="round" fill="none" stroke="#000000" d="M0 0V-106"/>
<path transform="matrix(1,0,0,-1,48.176599,133.82)" stroke-width="2" stroke-linecap="butt" stroke-linejoin="round" fill="none" stroke="#000000" d="M0 0H10"/>
<path transform="matrix(1,0,0,-1,48.176599,79.82001)" stroke-width="2" stroke-linecap="butt" stroke-linejoin="round" fill="none" stroke="#000000" d="M0 0H10"/>
<path transform="matrix(1,0,0,-1,48.176599,25.820008)" stroke-width="2" stroke-linecap="butt" stroke-linejoin="round" fill="none" stroke="#000000" d="M0 0H10"/>
<use data-text="&#xfffd;" xlink:href="#font_3_1" transform="matrix(14,0,0,-14,66.30149,133.57)"/>
<use data-text="&#xfffd;" xlink:href="#font_3_7" transform="matrix(14,0,0,-14,76.40949,133.57)"/>
<use data-text="&#xfffd;" xlink:href="#font_3_8" transform="matrix(14,0,0,-14,84.19349,133.57)"/>
<use data-text="&#xfffd;" xlink:href="#font_3_6" transform="matrix(14,0,0,-14,88.85549,133.57)"/>
<use data-text="&#xfffd;" xlink:href="#font_3_3" transform="matrix(14,0,0,-14,100.517498,133.57)"/>
<use data-text="&#xfffd;" xlink:href="#font_3_5" transform="matrix(14,0,0,-14,108.30149,133.57)"/>
<use data-text="&#xfffd;" xlink:href="#font_4_1" transform="matrix(14,0,0,-14,111.40949,133.57)"/>
</g>
</svg>
