<svg xmlns="http://www.w3.org/2000/svg" xmlns:xlink="http://www.w3.org/1999/xlink" version="1.1" width="393.8576pt" height="223.393pt" viewBox="0 0 393.8576 223.393">
<defs>
<clipPath id="clip_0">
<path transform="matrix(1,0,0,-1,-.778381,540)" d="M.778381 316.607H394.636V540H.778381Z" fill-rule="evenodd"/>
</clipPath>
<clipPath id="clip_1">
<path transform="matrix(1,0,0,-1,-.778381,540)" d="M0 .00002324581H719.9999V540H0Z"/>
</clipPath>
<path id="font_2_19" d="M.1328125 .71777346 .3388672 .10652161 .54248049 .71777346H.6513672L.38964845 0H.2866211L.025390625 .71777346H.1328125Z"/>
<path id="font_2_18" d="M.08544922 .71777346H.40820313C.47200523 .71777346 .5234375 .6997884 .5625 .66381838 .6015625 .6278483 .62109377 .5773112 .62109377 .51220706 .62109377 .45621745 .6036784 .4074707 .56884768 .3659668 .5340169 .3244629 .48046876 .30371095 .40820313 .30371095H.18261719V0H.08544922V.71777346M.5229492 .5114746C.5229492 .56410726 .50341799 .5998433 .46435548 .61868289 .4428711 .62875369 .41341148 .63378909 .37597657 .63378909H.18261719V.3857422H.37597657C.41959635 .3857422 .45499674 .39499919 .48217774 .41351319 .5093587 .43203736 .5229492 .46469117 .5229492 .5114746Z"/>
<path id="font_2_17" d="M.076171878 .71777346H.19091797L.55322268 .1362915V.71777346H.6455078V0H.5366211L.16894531 .58084109V0H.076171878V.71777346M.3544922 .71777346V.71777346Z"/>
<path id="font_3_1" d="M0 0Z"/>
<path id="font_2_2" d="M.095703128 .4951172V.5625C.15917969 .5686849 .20345052 .5790202 .22851563 .59350588 .25358073 .6079915 .2722982 .6422526 .28466798 .69628909H.3540039V0H.2602539V.4951172H.095703128Z"/>
<path id="font_2_1" d="M.2705078 .7001953C.3610026 .7001953 .42643229 .66289779 .46679688 .5883026 .49804688 .5306447 .5136719 .45165 .5136719 .35131837 .5136719 .25620524 .49951173 .17754109 .4711914 .11532593 .43017579 .026072184 .3631185-.018554688 .27001954-.018554688 .18603516-.018554688 .123535159 .017929078 .08251953 .09089661 .048339845 .15180969 .03125 .23357137 .03125 .33618165 .03125 .41565959 .041503908 .48390199 .06201172 .5409088 .10042318 .6470998 .16992188 .7001953 .2705078 .7001953M.26953126 .061523439C.31510417 .061523439 .35139976 .08168539 .37841798 .12200928 .4054362 .16234334 .4189453 .23747762 .4189453 .3474121 .4189453 .42676798 .4091797 .49205528 .38964845 .5432739 .3701172 .59450277 .332194 .6201172 .2758789 .6201172 .2241211 .6201172 .1862793 .59580489 .16235352 .5471802 .13842774 .4985555 .12646485 .42692057 .12646485 .3322754 .12646485 .26105754 .13411458 .20381673 .14941406 .16055298 .17285156 .09453329 .21289063 .061523439 .26953126 .061523439Z"/>
<path id="font_2_14" d="M.3515625 .08300781C.3844401 .08300781 .41145835 .08642578 .4326172 .09326172 .4703776 .10595703 .50130209 .1303711 .5253906 .1665039 .5445964 .19547527 .55843099 .23258464 .56689456 .27783204 .57177737 .30485026 .57421877 .32991538 .57421877 .35302735 .57421877 .44189454 .55655929 .51090499 .52124026 .5600586 .48592124 .6092122 .42903648 .63378909 .35058595 .63378909H.17822266V.08300781H.3515625M.080566409 .71777346H.37109376C.46972657 .71777346 .54622396 .6827545 .60058596 .6127167 .64908859 .54952499 .67333987 .46857707 .67333987 .36987306 .67333987 .2936503 .6590169 .22475688 .6303711 .16319275 .57991537 .054397584 .49316407 0 .3701172 0H.080566409V.71777346Z"/>
<path id="font_2_16" d="M.08544922 .71777346H.5830078V.6298828H.18261719V.41210938H.53466799V.32617188H.18261719V0H.08544922V.71777346Z"/>
<path id="font_2_24" d="M-.0024414063 .31347657H.5576172V.24121094H-.0024414063V.31347657Z"/>
<path id="font_2_8" d="M.5229492 .6875V.6104126C.5004883 .5888875 .47062174 .55110678 .4333496 .4970703 .39607749 .44303385 .3631185 .38476563 .33447267 .32226563 .30615235 .26139323 .28466798 .20589192 .27001954 .15576172 .26057945 .123535159 .24837239 .071614589 .23339844 0H.13623047C.15836589 .13335164 .20719402 .26605735 .28271485 .39811708 .3273112 .47553 .3741862 .5423686 .42333985 .5986328H.036621095V.6875H.5229492Z"/>
<path id="font_2_15" d="M.08544922 .71777346H.60839846V.6298828H.18017578V.41210938H.5761719V.32910157H.18017578V.0859375H.61572268V0H.08544922V.71777346M.35058595 .71777346V.71777346Z"/>
<path id="font_2_7" d="M.29248048 .70214846C.37060548 .70214846 .42504884 .6818288 .45581056 .6411896 .48657228 .6005605 .5019531 .5587056 .5019531 .515625H.41503907C.40983073 .5434163 .40152995 .5651601 .39013673 .5808563 .36897788 .61028549 .33691407 .625 .2939453 .625 .24479167 .625 .20572917 .60224917 .17675781 .55674746 .14778646 .5112559 .13167317 .44611613 .12841797 .36132813 .14860027 .39095054 .17399089 .41308595 .20458985 .42773438 .23258464 .44075523 .26383464 .44726563 .29833985 .44726563 .3569336 .44726563 .40804038 .4285482 .45166017 .39111329 .49527995 .35367839 .51708987 .29785157 .51708987 .22363281 .51708987 .16015625 .49641929 .10392252 .45507813 .05493164 .41373698 .0059407555 .35481773-.018554688 .2783203-.018554688 .21289063-.018554688 .15641277 .0062815349 .10888672 .05595398 .061360677 .1056366 .037597658 .18927002 .037597658 .30685426 .037597658 .39382936 .048177083 .4676107 .06933594 .52819827 .11002604 .64416506 .18440755 .70214846 .29248048 .70214846M.2861328 .059570314C.33235679 .059570314 .36694337 .07511393 .38989259 .10620117 .4128418 .1372884 .4243164 .17399089 .4243164 .2163086 .4243164 .25211589 .4140625 .2862142 .3935547 .31860353 .37304688 .35099284 .33577476 .3671875 .28173829 .3671875 .24397786 .3671875 .21085613 .35465495 .18237305 .32958985 .15388997 .30452476 .13964844 .2667643 .13964844 .2163086 .13964844 .17203777 .15258789 .134847 .1784668 .10473633 .2043457 .07462565 .24023438 .059570314 .2861328 .059570314Z"/>
<path id="font_2_3" d="M.03125 0C.034505208 .060221357 .04695638 .11263021 .068603519 .15722656 .09025065 .20182292 .13248699 .24235027 .1953125 .2788086L.2890625 .3330078C.3310547 .35742188 .3605143 .3782908 .3774414 .39561463 .40413413 .4227346 .41748048 .45377604 .41748048 .488739 .41748048 .52959188 .40527345 .562027 .38085938 .5860443 .3564453 .61006167 .32389323 .6220703 .28320313 .6220703 .22298177 .6220703 .18131511 .5991516 .15820313 .5533142 .14583333 .52875778 .13899739 .4947103 .13769531 .45117188H.048339845C.049316408 .5121663 .060546876 .5619049 .08203125 .6003876 .12011719 .66822817 .18733724 .70214846 .2836914 .70214846 .36376954 .70214846 .4222819 .68047079 .45922853 .6371155 .49617515 .5937703 .51464846 .5455373 .51464846 .49241639 .51464846 .4363556 .49495445 .388443 .4555664 .3486786 .43277995 .3255361 .3919271 .29752604 .3330078 .26464845L.26611329 .22753906C.23421224 .20996094 .20914714 .19319661 .19091797 .1772461 .15836589 .14892578 .13785808 .11751302 .12939453 .08300781H.51123049V0H.03125Z"/>
<path id="font_2_6" d="M.123535159 .17773438C.12939453 .12740071 .15266927 .09259033 .19335938 .07330322 .2141927 .06349691 .23828125 .05859375 .265625 .05859375 .31770835 .05859375 .35628257 .07524618 .38134767 .108551029 .40641276 .14185588 .4189453 .17875672 .4189453 .21925354 .4189453 .26823426 .40405274 .30611167 .37426759 .33288575 .34448243 .35965983 .3087565 .37304688 .26708985 .37304688 .2368164 .37304688 .21085613 .36714173 .18920899 .35533143 .16756185 .34352113 .14908855 .32696534 .13378906 .30566407L.057617189 .31054688 .110839847 .6875H.4741211V.60253909H.17675781L.14697266 .40863038C.1632487 .42115275 .17871094 .4305471 .19335938 .43681336 .21940105 .44768778 .24951172 .453125 .2836914 .453125 .347819 .453125 .402181 .43236796 .44677735 .39085389 .4913737 .3493398 .5136719 .29671226 .5136719 .23297119 .5136719 .1666158 .49324546 .10810343 .45239259 .057434083 .4115397 .0067749025 .34635417-.018554688 .25683595-.018554688 .1998698-.018554688 .14949544-.0024820965 .10571289 .029663086 .06193034 .06180827 .037434896 .11116537 .032226564 .17773438H.123535159Z"/>
<path id="font_2_13" d="M.37841798 .7373047C.46923829 .7373047 .53971359 .71332809 .58984377 .66537478 .63997396 .61742147 .66780599 .5629476 .67333987 .5019531H.5786133C.5678711 .54817709 .5464681 .58479818 .5144043 .6118164 .48234049 .63883468 .43733726 .65234377 .37939454 .65234377 .3087565 .65234377 .25170899 .62754318 .20825196 .5779419 .16479492 .52834066 .1430664 .45231629 .1430664 .34986878 .1430664 .26594544 .16267903 .19788106 .2019043 .14567566 .24112956 .09348043 .29964195 .06738281 .3774414 .06738281 .449056 .06738281 .50358077 .094823207 .5410156 .14970398 .5608724 .17860413 .5756836 .21659343 .5854492 .26367188H.6801758C.6717122 .18815105 .64371749 .12483724 .5961914 .07373047 .5392253 .012207031 .46240235-.018554688 .36572267-.018554688 .2823893-.018554688 .21240235 .006688436 .15576172 .057174684 .081217449 .12394714 .043945314 .2270406 .043945314 .36645509 .043945314 .47232057 .0719401 .5591278 .12792969 .62687686 .18847656 .7004954 .27197267 .7373047 .37841798 .7373047M.35888673 .7373047V.7373047Z"/>
<path id="font_2_5" d="M.3305664 .24902344V.5639038L.10644531 .24902344H.3305664M.33203126 0V.17089844H.025390625V.25827027L.34570313 .7011719H.41992188V.24902344H.5229492V.17089844H.41992188V0H.33203126Z"/>
<path id="font_2_12" d="M.34570313 .4140625C.38671876 .4140625 .41861979 .4197693 .44140626 .43118287 .47721354 .4491272 .4951172 .48142497 .4951172 .5280762 .4951172 .57506307 .47607423 .6067098 .43798829 .62301638 .4165039 .6321513 .38460288 .63671877 .34228517 .63671877H.16894531V.4140625H.34570313M.37841798 .08300781C.43798829 .08300781 .48046876 .100224819 .5058594 .13465882 .5218099 .15642803 .52978518 .18274434 .52978518 .21360779 .52978518 .26559959 .50651046 .30101524 .45996095 .31985475 .43522135 .32992555 .4025065 .33496095 .3618164 .33496095H.16894531V.08300781H.37841798M.07373047 .71777346H.38183595C.4658203 .71777346 .5255534 .6926575 .56103518 .64242556 .58186849 .6127421 .59228518 .5784963 .59228518 .5396881 .59228518 .49434916 .57942709 .45716349 .55371096 .4281311 .54036459 .41280113 .5211589 .3987783 .49609376 .38606263 .5328776 .3720754 .5603841 .35629273 .5786133 .3387146 .61083987 .30748496 .6269531 .26437379 .6269531 .2093811 .6269531 .16317749 .61246749 .12136841 .5834961 .08395386 .54020187 .02798462 .47135417 0 .37695313 0H.07373047V.71777346Z"/>
<path id="font_2_4" d="M.25976563-.018554688C.17708333-.018554688 .11710612 .004196167 .079833988 .049697877 .042561849 .095209758 .023925782 .15058391 .023925782 .21582031H.115722659C.119628909 .1704305 .12809246 .13744609 .14111328 .116867069 .16389974 .07997131 .20507813 .061523439 .26464845 .061523439 .3108724 .061523439 .34798179 .07389323 .37597657 .09863281 .40397135 .1233724 .41796876 .15527344 .41796876 .19433594 .41796876 .24251302 .40323893 .27620445 .3737793 .29541017 .34431968 .31461589 .3033854 .32421876 .25097657 .32421876 .24511719 .32421876 .23917644 .32413737 .2331543 .3239746 .22713216 .32381187 .22102864 .32356773 .21484375 .3232422V.4013672C.22395833 .40019737 .23160808 .39941407 .23779297 .39901734 .24397786 .39863078 .25065104 .3984375 .2578125 .3984375 .2906901 .3984375 .31770835 .40363566 .3388672 .41403199 .37597657 .43222047 .39453126 .46470133 .39453126 .5114746 .39453126 .54622396 .38216148 .5730184 .35742188 .5918579 .33268229 .61069747 .3038737 .6201172 .2709961 .6201172 .21240235 .6201172 .171875 .6007131 .14941406 .5619049 .13704427 .5405629 .13004558 .51016238 .12841797 .47070313H.041503908C.041503908 .5225627 .051920576 .5666453 .072753909 .60295107 .108561199 .6677806 .17154949 .7001953 .26171876 .7001953 .3330078 .7001953 .3881836 .6843465 .4272461 .6526489 .4663086 .6209615 .48583985 .5750529 .48583985 .5149231 .48583985 .47201539 .47428385 .4372355 .45117188 .4105835 .43684898 .39401246 .41829429 .38101197 .3955078 .37158204 .43229167 .36149089 .4610189 .34204103 .48168946 .31323243 .50236007 .28442384 .5126953 .2491862 .5126953 .20751953 .5126953 .14078777 .49072267 .08642578 .44677735 .044433595 .40283204 .0024414063 .34049479-.018554688 .25976563-.018554688Z"/>
<path id="font_2_10" d="M.1328125 .16992188C.13541667 .12141927 .15413411 .087890628 .18896485 .06933594 .20686849 .059570314 .22705078 .0546875 .24951172 .0546875 .2915039 .0546875 .3273112 .07218424 .3569336 .107177738 .386556 .14217122 .4075521 .21321106 .41992188 .32029725 .40039063 .28938294 .3762207 .26765953 .3474121 .25512696 .31860353 .2425944 .28759767 .23632813 .25439454 .23632813 .18701172 .23632813 .13370769 .25727845 .09448242 .29917909 .05525716 .34108988 .03564453 .39501444 .03564453 .46095277 .03564453 .52429708 .05501302 .5800069 .09375 .6280823 .13248699 .67615768 .18961589 .7001953 .26513673 .7001953 .36702476 .7001953 .43733726 .6543579 .47607423 .5626831 .4975586 .5122986 .5083008 .449234 .5083008 .37348939 .5083008 .28799949 .49544273 .21225484 .46972657 .1462555 .42708335 .03638204 .35481773-.018554688 .2529297-.018554688 .18457031-.018554688 .13264974-.0006510417 .09716797 .03515625 .0616862 .07096354 .043945314 .115885417 .043945314 .16992188H.1328125M.26611329 .31347657C.300944 .31347657 .33276368 .32491557 .36157228 .34779359 .39038087 .3706716 .40478517 .4106649 .40478517 .46777345 .40478517 .51904299 .3918457 .557251 .3659668 .58239749 .3400879 .60754397 .3071289 .6201172 .26708985 .6201172 .2241211 .6201172 .19002278 .60575869 .16479492 .5770416 .13956706 .5483246 .12695313 .5099538 .12695313 .46192933 .12695313 .4164988 .13802083 .38039653 .16015625 .35362245 .18229167 .32685853 .21761067 .31347657 .26611329 .31347657Z"/>
<path id="font_2_11" d="M.44433595 .2939453 .33544923 .61120608 .21972656 .2939453H.44433595M.28466798 .71777346H.39453126L.65478518 0H.54833987L.47558595 .21484375H.19189453L.11425781 0H.0146484379L.28466798 .71777346M.33496095 .71777346V.71777346Z"/>
<path id="font_2_9" d="M.27197267 .40625C.31070964 .40625 .34098307 .41704814 .36279298 .4386444 .38460288 .4602407 .3955078 .48598228 .3955078 .51586917 .3955078 .5418498 .38509117 .5657196 .3642578 .58747866 .34342448 .6092377 .3116862 .6201172 .26904298 .6201172 .22672527 .6201172 .1961263 .6092377 .1772461 .58747866 .15836589 .5657196 .14892578 .54022219 .14892578 .5109863 .14892578 .4781901 .16113281 .452535 .18554688 .434021 .20996094 .415507 .23876953 .40625 .27197267 .40625M.27734376 .059570314C.31803385 .059570314 .35180665 .07055664 .3786621 .0925293 .40551759 .11450195 .4189453 .14729817 .4189453 .19091797 .4189453 .23616536 .4051107 .2705078 .3774414 .2939453 .34977214 .3173828 .31429038 .32910157 .2709961 .32910157 .2290039 .32910157 .19474285 .31713868 .16821289 .2932129 .14168294 .2692871 .12841797 .23616536 .12841797 .19384766 .12841797 .15738933 .14054363 .12589519 .16479492 .099365238 .18904622 .07283529 .2265625 .059570314 .27734376 .059570314M.15234375 .37234498C.12792969 .3827413 .10888672 .39491783 .095214847 .4088745 .069498699 .43485514 .056640626 .46863304 .056640626 .51020815 .056640626 .5621694 .075520839 .6068217 .11328125 .64416506 .15104167 .68151858 .20458985 .7001953 .27392579 .7001953 .34098307 .7001953 .3935547 .6825765 .43164063 .64733889 .46972657 .61210128 .48876954 .5709381 .48876954 .5238495 .48876954 .48033143 .4777018 .44509379 .4555664 .4181366 .44319663 .4028778 .42399089 .38793946 .39794923 .37332154 .42692057 .359965 .44970704 .34465537 .4663086 .32739259 .49723307 .29482017 .5126953 .25247193 .5126953 .2003479 .5126953 .13878377 .49202476 .08658346 .4506836 .04374695 .40934245 .0009104411 .35091148-.020507813 .27539063-.020507813 .20735677-.020507813 .14982097-.0020243328 .1027832 .034942628 .05574544 .07191976 .032226564 .12559001 .032226564 .19595337 .032226564 .23732503 .042317708 .2730764 .0625 .3032074 .08268229 .3333384 .11263021 .35638429 .15234375 .37234498Z"/>
<path id="font_2_20" d="M.13183594 .1394043C.13183594 .114095058 .14111328 .09413656 .15966797 .07952881 .17822266 .06492106 .20019531 .057617189 .22558594 .057617189 .2565104 .057617189 .28645835 .06471761 .3154297 .07891846 .3642578 .10247803 .38867188 .14127605 .38867188 .1953125V.26611329C.3779297 .25886027 .36409507 .2528127 .34716798 .24797058 .33024089 .24313863 .3136393 .23983257 .29736329 .23805237L.24414063 .23184204C.21223958 .22799683 .1883138 .22153218 .17236328 .21244812 .14534505 .19718933 .13183594 .17284139 .13183594 .1394043M.34472657 .31689454C.36490885 .3194987 .37841798 .32796226 .3852539 .34228517 .38916017 .35012818 .39111329 .36140443 .39111329 .3761139 .39111329 .40618388 .38045249 .42799888 .35913087 .44155885 .33780924 .455129 .30729167 .46191407 .26757813 .46191407 .22167969 .46191407 .18912761 .44948326 .16992188 .42462159 .15917969 .4108785 .15218099 .39043174 .14892578 .36328126H.06689453C.06852213 .42791749 .08943685 .47288514 .12963867 .4981842 .1698405 .5234833 .21647136 .5361328 .26953126 .5361328 .3310547 .5361328 .38102214 .52441409 .4194336 .50097659 .45751954 .47753907 .4765625 .4410502 .4765625 .39151V.08985901C.4765625 .08073425 .47843424 .073404949 .48217774 .067871097 .48592124 .06233724 .4938151 .059570314 .5058594 .059570314 .5097656 .059570314 .51416018 .059814454 .51904299 .060302736 .5239258 .060791017 .5291341 .061523439 .53466799 .0625V-.0028076173C.5209961-.00676473 .5105794-.009236653 .50341799-.010223389 .4962565-.011220296 .48649089-.01171875 .4741211-.01171875 .44384767-.01171875 .421875-.0009104411 .40820313 .020706177 .40104167 .032170614 .3959961 .048380536 .3930664 .06933594 .37516276 .045633954 .34944663 .025060019 .31591798 .0076141359 .2823893-.009831746 .2454427-.018554688 .20507813-.018554688 .15657552-.018554688 .11694336-.0037790936 .08618164 .025772095 .055419923 .055323285 .040039064 .092300418 .040039064 .13670349 .040039064 .18535869 .05517578 .22307332 .08544922 .24984741 .115722659 .2766215 .1554362 .29311119 .20458985 .2993164L.34472657 .31689454M.27197267 .5361328V.5361328Z"/>
<path id="font_2_23" d="M.06689453 .71777346H.15478516V0H.06689453V.71777346Z"/>
<path id="font_2_22" d="M.064453128 .5205078H.1538086V0H.064453128V.5205078M.064453128 .71777346H.1538086V.61816409H.064453128V.71777346Z"/>
<path id="font_2_21" d="M.12011719 .2553711C.12011719 .19923909 .1319987 .15224712 .15576172 .11439514 .17952474 .076543178 .21761067 .057617189 .27001954 .057617189 .31070964 .057617189 .3441569 .075154628 .37036134 .11022949 .39656578 .14531453 .40966798 .19565328 .40966798 .26124574 .40966798 .32748924 .39615885 .37651573 .36914063 .4083252 .3421224 .44014488 .3087565 .4560547 .26904298 .4560547 .22477214 .4560547 .18888347 .4390869 .16137696 .40515138 .13387044 .37121583 .12011719 .32128907 .12011719 .2553711M.2524414 .53222659C.29248048 .53222659 .32600913 .52381899 .35302735 .5070038 .36865235 .4972992 .38639323 .48031617 .40625 .4560547V.71875H.49072267V0H.4116211V.07229614C.39111329 .04023234 .36686198 .017074585 .3388672 .002822876 .3108724-.011428833 .2788086-.018554688 .24267578-.018554688 .18440755-.018554688 .13395183 .0059407555 .091308597 .05493164 .048665365 .10392252 .02734375 .16910808 .02734375 .25048829 .02734375 .32666017 .04679362 .39265953 .08569336 .44848634 .1245931 .5043132 .18017578 .53222659 .2524414 .53222659Z"/>
</defs>
<g clip-path="url(#clip_0)">
<g clip-path="url(#clip_1)">
<path transform="matrix(1,0,0,-1,-.778381,540)" d="M0 539.9999H719.9999V.00003079383H0Z" fill="#ffffff" fill-rule="evenodd"/>
<use data-text="V" xlink:href="#font_2_19" transform="matrix(14,0,0,-14,29.578553,11.47499)"/>
<use data-text="P" xlink:href="#font_2_18" transform="matrix(14,0,0,-14,38.916555,11.47499)"/>
<use data-text="N" xlink:href="#font_2_17" transform="matrix(14,0,0,-14,48.254556,11.47499)"/>
<use data-text="&#xfffd;" xlink:href="#font_3_1" transform="matrix(14,0,0,-14,54.474756,11.47499)"/>
<path transform="matrix(.00007874014,0,0,.00007874014,328.47163,190.37509)" stroke-width="12700" stroke-linecap="butt" stroke-miterlimit="8" stroke-linejoin="miter" fill="none" stroke="#000000" d="M.005493104-.02014142H687388V309562.1H.005493104Z"/>
<use data-text="1" xlink:href="#font_2_2" transform="matrix(14,0,0,-14,351.89097,206.47509)"/>
<use data-text="&#xfffd;" xlink:href="#font_3_1" transform="matrix(14,0,0,-14,355.78715,206.47509)"/>
<path transform="matrix(.00007874014,0,0,.00007874014,274.34663,190.37509)" stroke-width="12700" stroke-linecap="butt" stroke-miterlimit="8" stroke-linejoin="miter" fill="none" stroke="#000000" d="M.03735352-.02014142H687386.9V309562.1H.03735352Z"/>
<use data-text="0" xlink:href="#font_2_1" transform="matrix(14,0,0,-14,292.71086,206.47509)"/>
<use data-text="D" xlink:href="#font_2_14" transform="matrix(14,0,0,-14,300.49766,206.47509)"/>
<use data-text="&#xfffd;" xlink:href="#font_3_1" transform="matrix(14,0,0,-14,306.71647,206.47509)"/>
<use data-text="0" xlink:href="#font_2_1" transform="matrix(14,0,0,-14,239.30268,206.47509)"/>
<use data-text="F" xlink:href="#font_2_16" transform="matrix(14,0,0,-14,247.08948,206.47509)"/>
<use data-text="&#xfffd;" xlink:href="#font_3_1" transform="matrix(14,0,0,-14,251.75428,206.47509)"/>
<path transform="matrix(.00007874014,0,0,.00007874014,124.97162,190.37509)" stroke-width="12700" stroke-linecap="butt" stroke-miterlimit="8" stroke-linejoin="miter" fill="none" stroke="#000000" d="M-.07318118-.02014142H687387.9V309562.1H-.07318118Z"/>
<use data-text="0" xlink:href="#font_2_1" transform="matrix(14,0,0,-14,148.39104,206.47509)"/>
<use data-text="&#xfffd;" xlink:href="#font_3_1" transform="matrix(14,0,0,-14,152.28723,206.47509)"/>
<path transform="matrix(.00007874014,0,0,.00007874014,70.84665,190.37509)" stroke-width="12700" stroke-linecap="butt" stroke-miterlimit="8" stroke-linejoin="miter" fill="none" stroke="#000000" d="M-.03503412-.02014142H687387V309562.1H-.03503412Z"/>
<use data-text="&#x2013;" xlink:href="#font_2_24" transform="matrix(14,0,0,-14,94.26603,206.47509)"/>
<use data-text="&#xfffd;" xlink:href="#font_3_1" transform="matrix(14,0,0,-14,98.16223,206.47509)"/>
<use data-text="0" xlink:href="#font_2_1" transform="matrix(14,0,0,-14,36.18549,206.47509)"/>
<use data-text="7" xlink:href="#font_2_8" transform="matrix(14,0,0,-14,43.97229,206.47509)"/>
<use data-text="&#xfffd;" xlink:href="#font_3_1" transform="matrix(14,0,0,-14,47.86709,206.47509)"/>
<path transform="matrix(.00007874014,0,0,.00007874014,328.47163,166)" stroke-width="12700" stroke-linecap="butt" stroke-miterlimit="8" stroke-linejoin="miter" fill="none" stroke="#000000" d="M.005493104 .1571046H687388V309563.1H.005493104Z"/>
<use data-text="1" xlink:href="#font_2_2" transform="matrix(14,0,0,-14,351.89097,182.09999)"/>
<use data-text="&#xfffd;" xlink:href="#font_3_1" transform="matrix(14,0,0,-14,355.78715,182.09999)"/>
<path transform="matrix(.00007874014,0,0,.00007874014,274.34663,166)" stroke-width="12700" stroke-linecap="butt" stroke-miterlimit="8" stroke-linejoin="miter" fill="none" stroke="#000000" d="M.03735352 .1571046H687386.9V309563.1H.03735352Z"/>
<use data-text="1" xlink:href="#font_2_2" transform="matrix(14,0,0,-14,294.3891,182.09999)"/>
<use data-text="1" xlink:href="#font_2_2" transform="matrix(14,0,0,-14,301.1427,182.09999)"/>
<use data-text="&#xfffd;" xlink:href="#font_3_1" transform="matrix(14,0,0,-14,305.04029,182.09999)"/>
<use data-text="0" xlink:href="#font_2_1" transform="matrix(14,0,0,-14,238.9096,182.09999)"/>
<use data-text="E" xlink:href="#font_2_15" transform="matrix(14,0,0,-14,246.69641,182.09999)"/>
<use data-text="&#xfffd;" xlink:href="#font_3_1" transform="matrix(14,0,0,-14,252.1452,182.09999)"/>
<path transform="matrix(.00007874014,0,0,.00007874014,124.97162,166)" stroke-width="12700" stroke-linecap="butt" stroke-miterlimit="8" stroke-linejoin="miter" fill="none" stroke="#000000" d="M-.07318118 .1571046H687387.9V309563.1H-.07318118Z"/>
<use data-text="0" xlink:href="#font_2_1" transform="matrix(14,0,0,-14,148.39104,182.09999)"/>
<use data-text="&#xfffd;" xlink:href="#font_3_1" transform="matrix(14,0,0,-14,152.28723,182.09999)"/>
<path transform="matrix(.00007874014,0,0,.00007874014,70.84665,166)" stroke-width="12700" stroke-linecap="butt" stroke-miterlimit="8" stroke-linejoin="miter" fill="none" stroke="#000000" d="M-.03503412 .1571046H687387V309563.1H-.03503412Z"/>
<use data-text="&#x2013;" xlink:href="#font_2_24" transform="matrix(14,0,0,-14,94.26603,182.09999)"/>
<use data-text="&#xfffd;" xlink:href="#font_3_1" transform="matrix(14,0,0,-14,98.16223,182.09999)"/>
<use data-text="0" xlink:href="#font_2_1" transform="matrix(14,0,0,-14,36.18549,182.09999)"/>
<use data-text="6" xlink:href="#font_2_7" transform="matrix(14,0,0,-14,43.97229,182.09999)"/>
<use data-text="&#xfffd;" xlink:href="#font_3_1" transform="matrix(14,0,0,-14,47.86709,182.09999)"/>
<path transform="matrix(.00007874014,0,0,.00007874014,328.47163,141.62509)" stroke-width="12700" stroke-linecap="butt" stroke-miterlimit="8" stroke-linejoin="miter" fill="none" stroke="#000000" d="M.005493104-.1153563H687388V309562H.005493104Z"/>
<use data-text="1" xlink:href="#font_2_2" transform="matrix(14,0,0,-14,351.89097,157.72509)"/>
<use data-text="&#xfffd;" xlink:href="#font_3_1" transform="matrix(14,0,0,-14,355.78715,157.72509)"/>
<path transform="matrix(.00007874014,0,0,.00007874014,274.34663,141.62509)" stroke-width="12700" stroke-linecap="butt" stroke-miterlimit="8" stroke-linejoin="miter" fill="none" stroke="#000000" d="M.03735352-.1153563H687386.9V309562H.03735352Z"/>
<use data-text="2" xlink:href="#font_2_3" transform="matrix(14,0,0,-14,292.71086,157.72509)"/>
<use data-text="D" xlink:href="#font_2_14" transform="matrix(14,0,0,-14,300.49766,157.72509)"/>
<use data-text="&#xfffd;" xlink:href="#font_3_1" transform="matrix(14,0,0,-14,306.71647,157.72509)"/>
<use data-text="0" xlink:href="#font_2_1" transform="matrix(14,0,0,-14,238.52338,157.72509)"/>
<use data-text="D" xlink:href="#font_2_14" transform="matrix(14,0,0,-14,246.31018,157.72509)"/>
<use data-text="&#xfffd;" xlink:href="#font_3_1" transform="matrix(14,0,0,-14,252.52898,157.72509)"/>
<path transform="matrix(.00007874014,0,0,.00007874014,124.97162,141.62509)" stroke-width="12700" stroke-linecap="butt" stroke-miterlimit="8" stroke-linejoin="miter" fill="none" stroke="#000000" d="M-.07318118-.1153563H687387.9V309562H-.07318118Z"/>
<use data-text="1" xlink:href="#font_2_2" transform="matrix(14,0,0,-14,148.39104,157.72509)"/>
<use data-text="&#xfffd;" xlink:href="#font_3_1" transform="matrix(14,0,0,-14,152.28723,157.72509)"/>
<path transform="matrix(.00007874014,0,0,.00007874014,70.84665,141.62509)" stroke-width="12700" stroke-linecap="butt" stroke-miterlimit="8" stroke-linejoin="miter" fill="none" stroke="#000000" d="M-.03503412-.1153563H687387V309562H-.03503412Z"/>
<use data-text="1" xlink:href="#font_2_2" transform="matrix(14,0,0,-14,90.37296,157.72509)"/>
<use data-text="6" xlink:href="#font_2_7" transform="matrix(14,0,0,-14,98.15976,157.72509)"/>
<use data-text="&#xfffd;" xlink:href="#font_3_1" transform="matrix(14,0,0,-14,102.054569,157.72509)"/>
<use data-text="0" xlink:href="#font_2_1" transform="matrix(14,0,0,-14,36.18549,157.72509)"/>
<use data-text="5" xlink:href="#font_2_6" transform="matrix(14,0,0,-14,43.97229,157.72509)"/>
<use data-text="&#xfffd;" xlink:href="#font_3_1" transform="matrix(14,0,0,-14,47.86709,157.72509)"/>
<path transform="matrix(.00007874014,0,0,.00007874014,328.47163,117.25)" stroke-width="12700" stroke-linecap="butt" stroke-miterlimit="8" stroke-linejoin="miter" fill="none" stroke="#000000" d="M.005493104 .06188971H687388V309563H.005493104Z"/>
<use data-text="0" xlink:href="#font_2_1" transform="matrix(14,0,0,-14,351.89097,133.35009)"/>
<use data-text="&#xfffd;" xlink:href="#font_3_1" transform="matrix(14,0,0,-14,355.78715,133.35009)"/>
<path transform="matrix(.00007874014,0,0,.00007874014,274.34663,117.25)" stroke-width="12700" stroke-linecap="butt" stroke-miterlimit="8" stroke-linejoin="miter" fill="none" stroke="#000000" d="M.03735352 .06188971H687386.9V309563H.03735352Z"/>
<use data-text="&#x2013;" xlink:href="#font_2_24" transform="matrix(14,0,0,-14,297.76606,133.35009)"/>
<use data-text="&#xfffd;" xlink:href="#font_3_1" transform="matrix(14,0,0,-14,301.66224,133.35009)"/>
<use data-text="0" xlink:href="#font_2_1" transform="matrix(14,0,0,-14,238.52338,133.35009)"/>
<use data-text="C" xlink:href="#font_2_13" transform="matrix(14,0,0,-14,246.31018,133.35009)"/>
<use data-text="&#xfffd;" xlink:href="#font_3_1" transform="matrix(14,0,0,-14,252.52898,133.35009)"/>
<path transform="matrix(.00007874014,0,0,.00007874014,124.97162,117.25)" stroke-width="12700" stroke-linecap="butt" stroke-miterlimit="8" stroke-linejoin="miter" fill="none" stroke="#000000" d="M-.07318118 .06188971H687387.9V309563H-.07318118Z"/>
<use data-text="0" xlink:href="#font_2_1" transform="matrix(14,0,0,-14,148.39104,133.35009)"/>
<use data-text="&#xfffd;" xlink:href="#font_3_1" transform="matrix(14,0,0,-14,152.28723,133.35009)"/>
<path transform="matrix(.00007874014,0,0,.00007874014,70.84665,117.25)" stroke-width="12700" stroke-linecap="butt" stroke-miterlimit="8" stroke-linejoin="miter" fill="none" stroke="#000000" d="M-.03503412 .06188971H687387V309563H-.03503412Z"/>
<use data-text="&#x2013;" xlink:href="#font_2_24" transform="matrix(14,0,0,-14,94.26603,133.35009)"/>
<use data-text="&#xfffd;" xlink:href="#font_3_1" transform="matrix(14,0,0,-14,98.16223,133.35009)"/>
<use data-text="0" xlink:href="#font_2_1" transform="matrix(14,0,0,-14,36.18549,133.35009)"/>
<use data-text="4" xlink:href="#font_2_5" transform="matrix(14,0,0,-14,43.97229,133.35009)"/>
<use data-text="&#xfffd;" xlink:href="#font_3_1" transform="matrix(14,0,0,-14,47.86709,133.35009)"/>
<path transform="matrix(.00007874014,0,0,.00007874014,328.47163,92.87509)" stroke-width="12700" stroke-linecap="butt" stroke-miterlimit="8" stroke-linejoin="miter" fill="none" stroke="#000000" d="M.005493104 .2894289H687388V309562.4H.005493104Z"/>
<use data-text="0" xlink:href="#font_2_1" transform="matrix(14,0,0,-14,351.89097,108.97508)"/>
<use data-text="&#xfffd;" xlink:href="#font_3_1" transform="matrix(14,0,0,-14,355.78715,108.97508)"/>
<path transform="matrix(.00007874014,0,0,.00007874014,274.34663,92.87509)" stroke-width="12700" stroke-linecap="butt" stroke-miterlimit="8" stroke-linejoin="miter" fill="none" stroke="#000000" d="M.03735352 .2894289H687386.9V309562.4H.03735352Z"/>
<use data-text="&#x2013;" xlink:href="#font_2_24" transform="matrix(14,0,0,-14,297.76606,108.97508)"/>
<use data-text="&#xfffd;" xlink:href="#font_3_1" transform="matrix(14,0,0,-14,301.66224,108.97508)"/>
<use data-text="0" xlink:href="#font_2_1" transform="matrix(14,0,0,-14,238.9096,108.97508)"/>
<use data-text="B" xlink:href="#font_2_12" transform="matrix(14,0,0,-14,246.69641,108.97508)"/>
<use data-text="&#xfffd;" xlink:href="#font_3_1" transform="matrix(14,0,0,-14,252.1452,108.97508)"/>
<path transform="matrix(.00007874014,0,0,.00007874014,124.97162,92.87509)" stroke-width="12700" stroke-linecap="butt" stroke-miterlimit="8" stroke-linejoin="miter" fill="none" stroke="#000000" d="M-.07318118 .2894289H687387.9V309562.4H-.07318118Z"/>
<use data-text="1" xlink:href="#font_2_2" transform="matrix(14,0,0,-14,148.39104,108.97508)"/>
<use data-text="&#xfffd;" xlink:href="#font_3_1" transform="matrix(14,0,0,-14,152.28723,108.97508)"/>
<path transform="matrix(.00007874014,0,0,.00007874014,70.84665,92.87509)" stroke-width="12700" stroke-linecap="butt" stroke-miterlimit="8" stroke-linejoin="miter" fill="none" stroke="#000000" d="M-.03503412 .2894289H687387V309562.4H-.03503412Z"/>
<use data-text="0" xlink:href="#font_2_1" transform="matrix(14,0,0,-14,90.37296,108.97508)"/>
<use data-text="2" xlink:href="#font_2_3" transform="matrix(14,0,0,-14,98.15976,108.97508)"/>
<use data-text="&#xfffd;" xlink:href="#font_3_1" transform="matrix(14,0,0,-14,102.054569,108.97508)"/>
<use data-text="0" xlink:href="#font_2_1" transform="matrix(14,0,0,-14,36.18549,108.97508)"/>
<use data-text="3" xlink:href="#font_2_4" transform="matrix(14,0,0,-14,43.97229,108.97508)"/>
<use data-text="&#xfffd;" xlink:href="#font_3_1" transform="matrix(14,0,0,-14,47.86709,108.97508)"/>
<path transform="matrix(.00007874014,0,0,.00007874014,328.47163,68.50009)" stroke-width="12700" stroke-linecap="butt" stroke-miterlimit="8" stroke-linejoin="miter" fill="none" stroke="#000000" d="M.005493104-.1457518H687388V309562.8H.005493104Z"/>
<use data-text="1" xlink:href="#font_2_2" transform="matrix(14,0,0,-14,351.89097,84.60008)"/>
<use data-text="&#xfffd;" xlink:href="#font_3_1" transform="matrix(14,0,0,-14,355.78715,84.60008)"/>
<path transform="matrix(.00007874014,0,0,.00007874014,274.34663,68.50009)" stroke-width="12700" stroke-linecap="butt" stroke-miterlimit="8" stroke-linejoin="miter" fill="none" stroke="#000000" d="M.03735352-.1457518H687386.9V309562.8H.03735352Z"/>
<use data-text="0" xlink:href="#font_2_1" transform="matrix(14,0,0,-14,293.87297,84.60008)"/>
<use data-text="9" xlink:href="#font_2_10" transform="matrix(14,0,0,-14,301.65977,84.60008)"/>
<use data-text="&#xfffd;" xlink:href="#font_3_1" transform="matrix(14,0,0,-14,305.55458,84.60008)"/>
<use data-text="0" xlink:href="#font_2_1" transform="matrix(14,0,0,-14,238.9096,84.60008)"/>
<use data-text="A" xlink:href="#font_2_11" transform="matrix(14,0,0,-14,246.69641,84.60008)"/>
<use data-text="&#xfffd;" xlink:href="#font_3_1" transform="matrix(14,0,0,-14,252.1452,84.60008)"/>
<path transform="matrix(.00007874014,0,0,.00007874014,124.97162,68.50009)" stroke-width="12700" stroke-linecap="butt" stroke-miterlimit="8" stroke-linejoin="miter" fill="none" stroke="#000000" d="M-.07318118-.1457518H687387.9V309562.8H-.07318118Z"/>
<use data-text="1" xlink:href="#font_2_2" transform="matrix(14,0,0,-14,148.39104,84.60008)"/>
<use data-text="&#xfffd;" xlink:href="#font_3_1" transform="matrix(14,0,0,-14,152.28723,84.60008)"/>
<path transform="matrix(.00007874014,0,0,.00007874014,70.84665,68.50009)" stroke-width="12700" stroke-linecap="butt" stroke-miterlimit="8" stroke-linejoin="miter" fill="none" stroke="#000000" d="M-.03503412-.1457518H687387V309562.8H-.03503412Z"/>
<use data-text="3" xlink:href="#font_2_4" transform="matrix(14,0,0,-14,90.37296,84.60008)"/>
<use data-text="3" xlink:href="#font_2_4" transform="matrix(14,0,0,-14,98.15976,84.60008)"/>
<use data-text="&#xfffd;" xlink:href="#font_3_1" transform="matrix(14,0,0,-14,102.054569,84.60008)"/>
<use data-text="0" xlink:href="#font_2_1" transform="matrix(14,0,0,-14,36.18549,84.60008)"/>
<use data-text="2" xlink:href="#font_2_3" transform="matrix(14,0,0,-14,43.97229,84.60008)"/>
<use data-text="&#xfffd;" xlink:href="#font_3_1" transform="matrix(14,0,0,-14,47.86709,84.60008)"/>
<path transform="matrix(.00007874014,0,0,.00007874014,328.47163,44.12509)" stroke-width="12700" stroke-linecap="butt" stroke-miterlimit="8" stroke-linejoin="miter" fill="none" stroke="#000000" d="M.005493104 .194214H687388V309562.3H.005493104Z"/>
<use data-text="1" xlink:href="#font_2_2" transform="matrix(14,0,0,-14,351.89097,60.225084)"/>
<use data-text="&#xfffd;" xlink:href="#font_3_1" transform="matrix(14,0,0,-14,355.78715,60.225084)"/>
<path transform="matrix(.00007874014,0,0,.00007874014,274.34663,44.12509)" stroke-width="12700" stroke-linecap="butt" stroke-miterlimit="8" stroke-linejoin="miter" fill="none" stroke="#000000" d="M.03735352 .194214H687386.9V309562.3H.03735352Z"/>
<use data-text="1" xlink:href="#font_2_2" transform="matrix(14,0,0,-14,293.87297,60.225084)"/>
<use data-text="7" xlink:href="#font_2_8" transform="matrix(14,0,0,-14,301.65977,60.225084)"/>
<use data-text="&#xfffd;" xlink:href="#font_3_1" transform="matrix(14,0,0,-14,305.55458,60.225084)"/>
<use data-text="0" xlink:href="#font_2_1" transform="matrix(14,0,0,-14,239.68549,60.225084)"/>
<use data-text="9" xlink:href="#font_2_10" transform="matrix(14,0,0,-14,247.47229,60.225084)"/>
<use data-text="&#xfffd;" xlink:href="#font_3_1" transform="matrix(14,0,0,-14,251.3671,60.225084)"/>
<path transform="matrix(.00007874014,0,0,.00007874014,124.97162,44.12509)" stroke-width="12700" stroke-linecap="butt" stroke-miterlimit="8" stroke-linejoin="miter" fill="none" stroke="#000000" d="M-.07318118 .194214H687387.9V309562.3H-.07318118Z"/>
<use data-text="0" xlink:href="#font_2_1" transform="matrix(14,0,0,-14,148.39104,60.225084)"/>
<use data-text="&#xfffd;" xlink:href="#font_3_1" transform="matrix(14,0,0,-14,152.28723,60.225084)"/>
<path transform="matrix(.00007874014,0,0,.00007874014,70.84665,44.12509)" stroke-width="12700" stroke-linecap="butt" stroke-miterlimit="8" stroke-linejoin="miter" fill="none" stroke="#000000" d="M-.03503412 .194214H687387V309562.3H-.03503412Z"/>
<use data-text="&#x2013;" xlink:href="#font_2_24" transform="matrix(14,0,0,-14,94.26603,60.225084)"/>
<use data-text="&#xfffd;" xlink:href="#font_3_1" transform="matrix(14,0,0,-14,98.16223,60.225084)"/>
<use data-text="0" xlink:href="#font_2_1" transform="matrix(14,0,0,-14,36.18549,60.225084)"/>
<use data-text="1" xlink:href="#font_2_2" transform="matrix(14,0,0,-14,43.97229,60.225084)"/>
<use data-text="&#xfffd;" xlink:href="#font_3_1" transform="matrix(14,0,0,-14,47.86709,60.225084)"/>
<path transform="matrix(.00007874014,0,0,.00007874014,328.47163,19.750123)" stroke-width="12700" stroke-linecap="butt" stroke-miterlimit="8" stroke-linejoin="miter" fill="none" stroke="#000000" d="M.005493104 .2590333H687388V309563.2H.005493104Z"/>
<use data-text="1" xlink:href="#font_2_2" transform="matrix(14,0,0,-14,351.89097,35.850114)"/>
<use data-text="&#xfffd;" xlink:href="#font_3_1" transform="matrix(14,0,0,-14,355.78715,35.850114)"/>
<path transform="matrix(.00007874014,0,0,.00007874014,274.34663,19.750123)" stroke-width="12700" stroke-linecap="butt" stroke-miterlimit="8" stroke-linejoin="miter" fill="none" stroke="#000000" d="M.03735352 .2590333H687386.9V309563.2H.03735352Z"/>
<use data-text="1" xlink:href="#font_2_2" transform="matrix(14,0,0,-14,293.87297,35.850114)"/>
<use data-text="3" xlink:href="#font_2_4" transform="matrix(14,0,0,-14,301.65977,35.850114)"/>
<use data-text="&#xfffd;" xlink:href="#font_3_1" transform="matrix(14,0,0,-14,305.55458,35.850114)"/>
<use data-text="0" xlink:href="#font_2_1" transform="matrix(14,0,0,-14,239.68549,35.850114)"/>
<use data-text="8" xlink:href="#font_2_9" transform="matrix(14,0,0,-14,247.47229,35.850114)"/>
<use data-text="&#xfffd;" xlink:href="#font_3_1" transform="matrix(14,0,0,-14,251.3671,35.850114)"/>
<path transform="matrix(.00007874014,0,0,.00007874014,124.97162,19.750123)" stroke-width="12700" stroke-linecap="butt" stroke-miterlimit="8" stroke-linejoin="miter" fill="none" stroke="#000000" d="M-.07318118 .2590333H687387.9V309563.2H-.07318118Z"/>
<use data-text="1" xlink:href="#font_2_2" transform="matrix(14,0,0,-14,148.39104,35.850114)"/>
<use data-text="&#xfffd;" xlink:href="#font_3_1" transform="matrix(14,0,0,-14,152.28723,35.850114)"/>
<path transform="matrix(.00007874014,0,0,.00007874014,70.84665,19.750123)" stroke-width="12700" stroke-linecap="butt" stroke-miterlimit="8" stroke-linejoin="miter" fill="none" stroke="#000000" d="M-.03503412 .2590333H687387V309563.2H-.03503412Z"/>
<use data-text="2" xlink:href="#font_2_3" transform="matrix(14,0,0,-14,90.37296,35.850114)"/>
<use data-text="8" xlink:href="#font_2_9" transform="matrix(14,0,0,-14,98.15976,35.850114)"/>
<use data-text="&#xfffd;" xlink:href="#font_3_1" transform="matrix(14,0,0,-14,102.054569,35.850114)"/>
<use data-text="0" xlink:href="#font_2_1" transform="matrix(14,0,0,-14,36.18549,35.850114)"/>
<use data-text="0" xlink:href="#font_2_1" transform="matrix(14,0,0,-14,43.97229,35.850114)"/>
<use data-text="&#xfffd;" xlink:href="#font_3_1" transform="matrix(14,0,0,-14,47.86709,35.850114)"/>
<use data-text="V" xlink:href="#font_2_19" transform="matrix(14,0,0,-14,340.73469,11.47499)"/>
<use data-text="a" xlink:href="#font_2_20" transform="matrix(14,0,0,-14,349.0409,11.47499)"/>
<use data-text="l" xlink:href="#font_2_23" transform="matrix(14,0,0,-14,356.8291,11.47499)"/>
<use data-text="i" xlink:href="#font_2_22" transform="matrix(14,0,0,-14,359.94129,11.47499)"/>
<use data-text="d" xlink:href="#font_2_21" transform="matrix(14,0,0,-14,363.0535,11.47499)"/>
<use data-text="&#xfffd;" xlink:href="#font_3_1" transform="matrix(14,0,0,-14,366.9497,11.47499)"/>
<use data-text="P" xlink:href="#font_2_18" transform="matrix(14,0,0,-14,287.26603,11.47499)"/>
<use data-text="P" xlink:href="#font_2_18" transform="matrix(14,0,0,-14,296.60404,11.47499)"/>
<use data-text="N" xlink:href="#font_2_17" transform="matrix(14,0,0,-14,305.94206,11.47499)"/>
<use data-text="&#xfffd;" xlink:href="#font_3_1" transform="matrix(14,0,0,-14,312.16224,11.47499)"/>
<use data-text="V" xlink:href="#font_2_19" transform="matrix(14,0,0,-14,233.07855,11.47499)"/>
<use data-text="P" xlink:href="#font_2_18" transform="matrix(14,0,0,-14,242.41655,11.47499)"/>
<use data-text="N" xlink:href="#font_2_17" transform="matrix(14,0,0,-14,251.75455,11.47499)"/>
<use data-text="&#xfffd;" xlink:href="#font_3_1" transform="matrix(14,0,0,-14,257.97477,11.47499)"/>
<use data-text="V" xlink:href="#font_2_19" transform="matrix(14,0,0,-14,137.23479,11.47499)"/>
<use data-text="a" xlink:href="#font_2_20" transform="matrix(14,0,0,-14,145.54099,11.47499)"/>
<use data-text="l" xlink:href="#font_2_23" transform="matrix(14,0,0,-14,153.3292,11.47499)"/>
<use data-text="i" xlink:href="#font_2_22" transform="matrix(14,0,0,-14,156.44139,11.47499)"/>
<use data-text="d" xlink:href="#font_2_21" transform="matrix(14,0,0,-14,159.55359,11.47499)"/>
<use data-text="&#xfffd;" xlink:href="#font_3_1" transform="matrix(14,0,0,-14,163.44979,11.47499)"/>
<use data-text="P" xlink:href="#font_2_18" transform="matrix(14,0,0,-14,83.76603,11.47499)"/>
<use data-text="P" xlink:href="#font_2_18" transform="matrix(14,0,0,-14,93.104038,11.47499)"/>
<use data-text="N" xlink:href="#font_2_17" transform="matrix(14,0,0,-14,102.44203,11.47499)"/>
<use data-text="&#xfffd;" xlink:href="#font_3_1" transform="matrix(14,0,0,-14,108.66223,11.47499)"/>
<path transform="matrix(.00007874014,0,0,.00007874014,71.59665,19.500123)" stroke-width="38100" stroke-linecap="butt" stroke-miterlimit="8" stroke-linejoin="miter" fill="none" stroke="#000000" d="M-.03356928 .258545H1365250V2476500H-.03356928Z"/>
<path transform="matrix(.00007874014,0,0,.00007874014,274.59663,19.500123)" stroke-width="38100" stroke-linecap="butt" stroke-miterlimit="8" stroke-linejoin="miter" fill="none" stroke="#000000" d="M.0378418 .258545H1365250V2476500H.0378418Z"/>
</g>
</g>
</svg>
