<svg xmlns="http://www.w3.org/2000/svg" xmlns:xlink="http://www.w3.org/1999/xlink" version="1.1" width="461.576pt" height="91.07001pt" viewBox="0 0 461.576 91.07001">
<defs>
<clipPath id="clip_0">
<path transform="matrix(1,0,0,-1,0,540)" d="M0 448.93H461.576V540H0Z" fill-rule="evenodd"/>
</clipPath>
<clipPath id="clip_1">
<path transform="matrix(1,0,0,-1,0,540)" d="M0 .00002324581H719.9999V540H0Z"/>
</clipPath>
<path id="font_2_7" d="M.13964844 .23144531C.14192708 .19064331 .15152996 .1575063 .16845703 .1320343 .2006836 .084376018 .25748698 .060546876 .3388672 .060546876 .37532554 .060546876 .40852867 .06575521 .43847657 .076171878 .49641929 .096354167 .5253906 .13248189 .5253906 .18455506 .5253906 .22361756 .5131836 .25144959 .48876954 .26805116 .46402995 .2843882 .42529298 .29859925 .3725586 .3106842L.27539063 .3327484C.21191406 .3471222 .16699219 .36294047 .140625 .38020326 .095052089 .41016136 .072265628 .4549408 .072265628 .5145416 .072265628 .57902529 .094563808 .6319478 .13916016 .6733093 .18375652 .71467086 .24690755 .73535159 .32861329 .73535159 .4038086 .73535159 .46769206 .7172038 .5202637 .6809082 .57283529 .6446126 .5991211 .58658859 .5991211 .50683596H.5078125C.5029297 .5452474 .49251304 .57470706 .4765625 .59521487 .4469401 .6326497 .39664714 .6513672 .3256836 .6513672 .26839195 .6513672 .22721355 .63931277 .20214844 .61520388 .17708333 .591095 .16455078 .56307479 .16455078 .5311432 .16455078 .49595643 .17919922 .47021995 .2084961 .45393373 .22770183 .44350688 .27115885 .43047587 .3388672 .4148407L.43945313 .39187623C.48795573 .38079835 .5253906 .36565147 .5517578 .34643556 .59733077 .31288658 .6201172 .26419068 .6201172 .2003479 .6201172 .12085978 .59122726 .06401571 .53344729 .029815674 .47566734-.004384359 .40852867-.021484375 .33203126-.021484375 .24283855-.021484375 .17301433 .0013478597 .122558597 .04701233 .07210287 .0923411 .04736328 .15381877 .048339845 .23144531H.13964844M.3359375 .7373047V.7373047Z"/>
<path id="font_2_16" d="M.064453128 .5205078H.1538086V0H.064453128V.5205078M.064453128 .71777346H.1538086V.61816409H.064453128V.71777346Z"/>
<path id="font_2_24" d="M.025390625 .06976318 .33544923 .44433595H.048339845V.5234375H.45361329V.45121766L.14550781 .07910156H.46289063V0H.025390625V.06976318M.25146485 .5361328V.5361328Z"/>
<path id="font_2_12" d="M.28222657 .53515627C.31933595 .53515627 .355306 .52644857 .39013673 .5090332 .42496745 .49161784 .4514974 .4690806 .46972657 .4414215 .4873047 .41505433 .49902345 .3842977 .5048828 .3491516 .5100911 .32506309 .5126953 .28647868 .5126953 .23339844H.12939453C.13102214 .18033855 .14355469 .13777669 .16699219 .10571289 .19042969 .073649089 .22672527 .057617189 .2758789 .057617189 .32177735 .057617189 .35839845 .07261658 .3857422 .10261536 .4013672 .12003072 .4124349 .14018758 .4189453 .16308594H.5053711C.50309249 .14398194 .49552409 .122690837 .48266603 .09921265 .46980796 .07574463 .45540367 .05656433 .43945313 .041671754 .4127604 .01576233 .37972007-.0017242432 .34033204-.010787964 .3191732-.01596578 .2952474-.018554688 .2685547-.018554688 .20345052-.018554688 .14827474 .0051472985 .103027347 .05255127 .05777995 .09995524 .03515625 .16634114 .03515625 .25170899 .03515625 .33576457 .057942708 .40401713 .103515628 .45646668 .14908855 .5089264 .20865886 .53515627 .28222657 .53515627M.42236329 .30371095C.41878257 .34191896 .41048179 .37245179 .39746095 .39530946 .3733724 .4377594 .33317057 .45898438 .27685548 .45898438 .23649089 .45898438 .20263672 .44437156 .17529297 .41514588 .14794922 .3859202 .13346355 .34877525 .13183594 .30371095H.42236329M.27392579 .5361328V.5361328Z"/>
<path id="font_3_1" d="M0 0Z"/>
<path id="font_2_6" d="M.40966798 .38867188C.45524089 .38867188 .49129234 .39778648 .51782229 .41601563 .54435226 .43424479 .5576172 .4671224 .5576172 .51464846 .5576172 .5657552 .5390625 .60058596 .5019531 .6191406 .48209635 .62890627 .4555664 .63378909 .42236329 .63378909H.1850586V.38867188H.40966798M.087890628 .71777346H.41992188C.47460938 .71777346 .51969406 .709788 .5551758 .69381716 .6225586 .6631775 .65625 .60662338 .65625 .52415469 .65625 .48112489 .6473796 .44591777 .6296387 .41853334 .61189779 .39115907 .58707687 .36916099 .5551758 .35253907 .5831706 .34114585 .60424807 .32617188 .6184082 .3076172 .63256838 .2890625 .6404622 .2589518 .64208987 .21728516L.6455078 .12109375C.6464844 .09388224 .648763 .07363383 .65234377 .06034851 .6582031 .037663778 .6686198 .023081461 .68359377 .016601563V0H.5644531C.56119796 .006184896 .55859377 .014160156 .5566406 .023925782 .5546875 .033691408 .5530599 .052571615 .5517578 .080566409L.54589846 .20019531C.5436198 .24707031 .5262044 .27848307 .49365235 .2944336 .47509767 .30322267 .44596354 .3076172 .40625 .3076172H.1850586V0H.087890628V.71777346Z"/>
<path id="font_2_19" d="M.064453128 .5234375H.15136719V.44921876C.17220052 .4749349 .19108074 .49365235 .20800781 .5053711 .23697917 .52522787 .26985679 .53515627 .30664063 .53515627 .34830729 .53515627 .38183595 .52490237 .40722657 .50439456 .42154948 .49267579 .4345703 .4754232 .44628907 .45263673 .4658203 .4806315 .48876954 .5013835 .5151367 .5148926 .5415039 .5284017 .5711263 .53515627 .6040039 .53515627 .6743164 .53515627 .72216799 .5097402 .7475586 .45890809 .76123049 .43154399 .7680664 .3947296 .7680664 .34846498V0H.6767578V.36367799C.6767578 .39853923 .6680501 .42248536 .65063479 .43551637 .6332194 .44855754 .6119792 .45507813 .58691409 .45507813 .5524089 .45507813 .5227051 .44350688 .49780274 .42036439 .4729004 .39723207 .46044923 .35861717 .46044923 .30451966V0H.37109376V.3416748C.37109376 .37719728 .36686198 .4031016 .35839845 .41938783 .3450521 .4438324 .32014976 .4560547 .2836914 .4560547 .25048829 .4560547 .22029622 .44318138 .19311524 .4174347 .16593425 .3916982 .15234375 .34510295 .15234375 .27764894V0H.064453128V.5234375Z"/>
<path id="font_2_8" d="M.13183594 .1394043C.13183594 .114095058 .14111328 .09413656 .15966797 .07952881 .17822266 .06492106 .20019531 .057617189 .22558594 .057617189 .2565104 .057617189 .28645835 .06471761 .3154297 .07891846 .3642578 .10247803 .38867188 .14127605 .38867188 .1953125V.26611329C.3779297 .25886027 .36409507 .2528127 .34716798 .24797058 .33024089 .24313863 .3136393 .23983257 .29736329 .23805237L.24414063 .23184204C.21223958 .22799683 .1883138 .22153218 .17236328 .21244812 .14534505 .19718933 .13183594 .17284139 .13183594 .1394043M.34472657 .31689454C.36490885 .3194987 .37841798 .32796226 .3852539 .34228517 .38916017 .35012818 .39111329 .36140443 .39111329 .3761139 .39111329 .40618388 .38045249 .42799888 .35913087 .44155885 .33780924 .455129 .30729167 .46191407 .26757813 .46191407 .22167969 .46191407 .18912761 .44948326 .16992188 .42462159 .15917969 .4108785 .15218099 .39043174 .14892578 .36328126H.06689453C.06852213 .42791749 .08943685 .47288514 .12963867 .4981842 .1698405 .5234833 .21647136 .5361328 .26953126 .5361328 .3310547 .5361328 .38102214 .52441409 .4194336 .50097659 .45751954 .47753907 .4765625 .4410502 .4765625 .39151V.08985901C.4765625 .08073425 .47843424 .073404949 .48217774 .067871097 .48592124 .06233724 .4938151 .059570314 .5058594 .059570314 .5097656 .059570314 .51416018 .059814454 .51904299 .060302736 .5239258 .060791017 .5291341 .061523439 .53466799 .0625V-.0028076173C.5209961-.00676473 .5105794-.009236653 .50341799-.010223389 .4962565-.011220296 .48649089-.01171875 .4741211-.01171875 .44384767-.01171875 .421875-.0009104411 .40820313 .020706177 .40104167 .032170614 .3959961 .048380536 .3930664 .06933594 .37516276 .045633954 .34944663 .025060019 .31591798 .0076141359 .2823893-.009831746 .2454427-.018554688 .20507813-.018554688 .15657552-.018554688 .11694336-.0037790936 .08618164 .025772095 .055419923 .055323285 .040039064 .092300418 .040039064 .13670349 .040039064 .18535869 .05517578 .22307332 .08544922 .24984741 .115722659 .2766215 .1554362 .29311119 .20458985 .2993164L.34472657 .31689454M.27197267 .5361328V.5361328Z"/>
<path id="font_2_20" d="M.064453128 .5234375H.14794922V.44921876C.1726888 .47981773 .19889324 .50179037 .2265625 .5151367 .25423179 .5284831 .2849935 .53515627 .31884767 .53515627 .3930664 .53515627 .44319663 .5092519 .46923829 .45744325 .4835612 .42910258 .49072267 .38853965 .49072267 .3357544V0H.4013672V.3299408C.4013672 .36188255 .39664714 .38762919 .38720704 .4071808 .37158204 .4397634 .34326173 .4560547 .3022461 .4560547 .28141276 .4560547 .2643229 .4539388 .25097657 .44970704 .22688802 .4425354 .20572917 .42819724 .1875 .4066925 .17285156 .38941957 .16333008 .37157694 .15893555 .35316468 .15454102 .3347524 .15234375 .30844117 .15234375 .27423097V0H.064453128V.5234375M.2709961 .5361328V.5361328Z"/>
<path id="font_2_11" d="M.12011719 .2553711C.12011719 .19923909 .1319987 .15224712 .15576172 .11439514 .17952474 .076543178 .21761067 .057617189 .27001954 .057617189 .31070964 .057617189 .3441569 .075154628 .37036134 .11022949 .39656578 .14531453 .40966798 .19565328 .40966798 .26124574 .40966798 .32748924 .39615885 .37651573 .36914063 .4083252 .3421224 .44014488 .3087565 .4560547 .26904298 .4560547 .22477214 .4560547 .18888347 .4390869 .16137696 .40515138 .13387044 .37121583 .12011719 .32128907 .12011719 .2553711M.2524414 .53222659C.29248048 .53222659 .32600913 .52381899 .35302735 .5070038 .36865235 .4972992 .38639323 .48031617 .40625 .4560547V.71875H.49072267V0H.4116211V.07229614C.39111329 .04023234 .36686198 .017074585 .3388672 .002822876 .3108724-.011428833 .2788086-.018554688 .24267578-.018554688 .18440755-.018554688 .13395183 .0059407555 .091308597 .05493164 .048665365 .10392252 .02734375 .16910808 .02734375 .25048829 .02734375 .32666017 .04679362 .39265953 .08569336 .44848634 .1245931 .5043132 .18017578 .53222659 .2524414 .53222659Z"/>
<path id="font_2_22" d="M.06689453 .5234375H.15039063V.4326172C.15722656 .4502767 .17399089 .4717814 .2006836 .49713136 .2273763 .52248129 .25813804 .53515627 .29296876 .53515627 .29459635 .53515627 .29736329 .5349579 .30126954 .53456118 .30517579 .5341746 .31184898 .5333964 .32128907 .53222659V.43945313C.31608073 .44062297 .3112793 .44140116 .30688478 .44178773 .30249024 .44218446 .2976888 .4423828 .29248048 .4423828 .24820964 .4423828 .2141927 .4280599 .19042969 .39941407 .16666667 .37076823 .15478516 .33789063 .15478516 .30078126V0H.06689453V.5234375Z"/>
<path id="font_2_1" d="M0 0Z"/>
<path id="font_2_21" d="M.27197267 .057617189C.33024089 .057617189 .37019859 .07964579 .3918457 .123703 .41349284 .16776021 .4243164 .21677144 .4243164 .2707367 .4243164 .31950379 .4165039 .35917155 .4008789 .38974 .3761393 .43785606 .3334961 .46191407 .27294923 .46191407 .21923828 .46191407 .18017578 .44143168 .15576172 .40046693 .13134766 .35950218 .119140628 .31008403 .119140628 .25221253 .119140628 .1966095 .13134766 .15027364 .15576172 .113204959 .18017578 .076146449 .21891277 .057617189 .27197267 .057617189M.27539063 .53808596C.34277345 .53808596 .3997396 .5156453 .44628907 .47076417 .49283854 .42588298 .5161133 .35985819 .5161133 .27268983 .5161133 .1884613 .49560548 .11886088 .45458985 .06388855 .41357423 .008926392 .3499349-.018554688 .26367188-.018554688 .19173177-.018554688 .13460286 .00575765 .092285159 .054382326 .04996745 .103006999 .028808594 .16829936 .028808594 .2502594 .028808594 .33806864 .05110677 .4079895 .095703128 .46002198 .14029949 .51206466 .20019531 .53808596 .27539063 .53808596M.27246095 .5361328V.5361328Z"/>
<path id="font_2_13" d="M.08642578 .6021576C.08772787 .638443 .09407552 .66500857 .10546875 .68185427 .12597656 .7116597 .16552735 .7265625 .2241211 .7265625 .22965496 .7265625 .23535156 .7263997 .24121094 .7260742 .24707031 .7257487 .2537435 .72526046 .26123048 .7246094V.64453127C.25211589 .6449687 .2455241 .6452382 .24145508 .64533999 .23738607 .64545187 .2335612 .6455078 .22998047 .6455078 .20328777 .6455078 .18733724 .6386719 .1821289 .625 .17692058 .6113281 .1743164 .5764974 .1743164 .5205078H.26123048V.45117188H.17333985V0H.08642578V.45117188H.013671875V.5205078H.08642578V.6021576Z"/>
<path id="font_2_9" d="M.057617189 .71875H.1430664V.45948792C.16227214 .4847056 .18522136 .50394698 .21191406 .5172119 .23860677 .53047689 .26757813 .5371094 .29882813 .5371094 .36393229 .5371094 .41674806 .5147095 .4572754 .46990968 .49780274 .42510987 .5180664 .35905458 .5180664 .27174378 .5180664 .1889801 .49804688 .12022909 .4580078 .06549072 .41796876 .010762532 .36246745-.016601563 .2915039-.016601563 .25179038-.016601563 .21826172-.006942749 .19091797 .012374878 .17464192 .023839316 .15722656 .042175294 .13867188 .06738281V0H.057617189V.71875M.2861328 .061523439C.33365885 .061523439 .36922203 .08037821 .39282228 .11808777 .41642253 .1558075 .42822267 .20555115 .42822267 .26731874 .42822267 .32227073 .41642253 .3677877 .39282228 .40386964 .36922203 .43996177 .33447267 .4580078 .28857423 .4580078 .24853516 .4580078 .21346028 .44321189 .18334961 .41362 .15323894 .3840383 .1381836 .3352712 .1381836 .26731874 .1381836 .21822612 .14436849 .17840068 .15673828 .1478424 .17985027 .090296428 .22298177 .061523439 .2861328 .061523439Z"/>
<path id="font_2_18" d="M.06689453 .71777346H.15478516V0H.06689453V.71777346Z"/>
<path id="font_2_10" d="M.26611329 .53808596C.32503257 .53808596 .37296549 .5237274 .4099121 .49501039 .44685874 .46629334 .46907554 .41684977 .4765625 .3466797H.39111329C.38590495 .37890626 .37402345 .40568034 .35546876 .42700196 .33691407 .44832359 .3071289 .45898438 .26611329 .45898438 .2101237 .45898438 .17008464 .43170677 .1459961 .3771515 .1303711 .34176127 .122558597 .29808555 .122558597 .24612427 .122558597 .19384766 .1336263 .14984639 .15576172 .11412048 .17789714 .07840475 .21272786 .060546876 .2602539 .060546876 .29671226 .060546876 .3256022 .0716095 .34692384 .09373474 .36824546 .115859989 .38297526 .1461385 .39111329 .18457031H.4765625C.46679688 .115234378 .4423828 .06453451 .4033203 .032470704 .3642578 .00040690104 .31429038-.015625 .25341798-.015625 .1850586-.015625 .13053386 .009379069 .08984375 .059387208 .049153646 .10940552 .028808594 .17188008 .028808594 .24681092 .028808594 .33868919 .05110677 .41020204 .095703128 .4613495 .14029949 .51250717 .19710286 .53808596 .26611329 .53808596M.2524414 .5361328V.5361328Z"/>
<path id="font_2_17" d="M.0625 .71777346H.14697266V.30101014L.3725586 .5234375H.48486329L.28466798 .32881166 .49609376 0H.38378907L.22070313 .26635743 .14697266 .19647217V0H.0625V.71777346Z"/>
<path id="font_2_5" d="M.076171878 .71777346H.17333985V.0859375H.5366211V0H.076171878V.71777346Z"/>
<path id="font_2_23" d="M.08203125 .66796877H.17089844V.5234375H.25439454V.4501953H.17089844V.110183719C.17089844 .09202576 .17708333 .07986959 .18945313 .07371521 .19628906 .07014465 .2076823 .068359378 .22363281 .068359378 .22786458 .068359378 .23242188 .06846619 .23730469 .06867981 .2421875 .0689036 .24788411 .06944784 .25439454 .0703125V0C.24430339-.0031026204 .23380535-.005340576 .22290039-.006713867 .21199544-.008097331 .20019531-.0087890629 .1875-.0087890629 .14648438-.0087890629 .118652347 .0016988119 .104003909 .02267456 .08935547 .04365031 .08203125 .070882167 .08203125 .10437012V.4501953H.011230469V.5234375H.08203125V.66796877Z"/>
<path id="font_2_14" d="M.24902344 .53222659C.29003907 .53222659 .32584635 .5220744 .3564453 .50177 .37304688 .49030558 .38997398 .4736023 .40722657 .45166017V.5185547H.48828126V.04234314C.48828126-.024154664 .47851563-.07663473 .45898438-.115097049 .42252604-.18615215 .35367839-.22167969 .2524414-.22167969 .1961263-.22167969 .14876302-.20906575 .11035156-.18383789 .0719401-.15861003 .05045573-.119140628 .045898439-.06542969H.1352539C.13948567-.08873495 .14794922-.10669454 .16064453-.11930847 .1805013-.13872783 .2117513-.1484375 .25439454-.1484375 .32177735-.1484375 .3658854-.12467448 .38671876-.07714844 .39908854-.04916382 .40478517 .0007985433 .4038086 .07273865 .38623048 .04588318 .36507163 .025904337 .34033204 .012802124 .31559245-.000289917 .2828776-.0068359377 .2421875-.0068359377 .18554688-.0068359377 .13598633 .013280232 .09350586 .053512575 .05102539 .09375509 .029785157 .16030376 .029785157 .25315858 .029785157 .34080506 .051188154 .40922547 .09399414 .4584198 .13680013 .5076243 .18847656 .53222659 .24902344 .53222659M.40722657 .26342774C.40722657 .328125 .39388023 .37607829 .3671875 .4072876 .34049479 .43849693 .30647788 .45410157 .26513673 .45410157 .20328777 .45410157 .16097005 .4251658 .1381836 .3672943 .12613933 .33641053 .12011719 .29593406 .12011719 .24586487 .12011719 .1870168 .13208008 .14223226 .15600586 .11151123 .17993164 .0807902 .21207683 .06542969 .2524414 .06542969 .31559245 .06542969 .36002604 .09387716 .3857422 .1507721 .4000651 .18295796 .40722657 .22050984 .40722657 .26342774M.25927735 .5361328V.5361328Z"/>
<path id="font_2_15" d="M.064453128 .71875H.15234375V.45214845C.17317708 .4786682 .19189453 .4973297 .2084961 .50813296 .2368164 .5267995 .2721354 .5361328 .31445313 .5361328 .39029948 .5361328 .44173179 .50957748 .46875 .45646668 .48339845 .42747499 .49072267 .38723756 .49072267 .3357544V0H.40039063V.32958985C.40039063 .3680013 .3955078 .39615885 .3857422 .4140625 .36979167 .44270835 .33984376 .45703126 .29589845 .45703126 .2594401 .45703126 .22639974 .4444987 .19677735 .4194336 .16715496 .3943685 .15234375 .34700523 .15234375 .27734376V0H.064453128V.71875Z"/>
<path id="font_2_4" d="M.44433595 .2939453 .33544923 .61120608 .21972656 .2939453H.44433595M.28466798 .71777346H.39453126L.65478518 0H.54833987L.47558595 .21484375H.19189453L.11425781 0H.0146484379L.28466798 .71777346M.33496095 .71777346V.71777346Z"/>
<path id="font_2_2" d="M.013671875 .2959137 .58447268 .51953127V.43147279L.11767578 .2553711 .58447268 .078811649V-.009277344L.013671875 .21481323V.2959137Z"/>
<path id="font_2_3" d="M.58447268 .21383667 .013671875-.009277344V.07876587L.47998048 .2553711 .013671875 .43147279V.51953127L.58447268 .29592896V.21383667Z"/>
</defs>
<g clip-path="url(#clip_0)">
<g clip-path="url(#clip_1)">
<path transform="matrix(1,0,0,-1,0,540)" d="M0 539.9999H719.9999V.00003079383H0Z" fill="#ffffff" fill-rule="evenodd"/>
<path transform="matrix(1,0,0,-1,0,540)" d="M18 520.7499H83.99998V490.7499H18Z" fill="#e1e1e1" fill-rule="evenodd"/>
<path transform="matrix(.00007874014,0,0,.00007874014,18,19.250123)" stroke-width="12700" stroke-linecap="butt" stroke-miterlimit="8" stroke-linejoin="miter" fill="none" stroke="#000000" d="M-.004692081 .2580568H838199.9V381000.3H-.004692081Z"/>
<use data-text="S" xlink:href="#font_2_7" transform="matrix(16,0,0,-16,35.2,40.650087)"/>
<use data-text="i" xlink:href="#font_2_16" transform="matrix(16,0,0,-16,45.872,40.650087)"/>
<use data-text="z" xlink:href="#font_2_24" transform="matrix(16,0,0,-16,49.4272,40.650087)"/>
<use data-text="e" xlink:href="#font_2_12" transform="matrix(16,0,0,-16,57.4272,40.650087)"/>
<use data-text="&#xfffd;" xlink:href="#font_3_1" transform="matrix(16,0,0,-16,66.3264,40.650087)"/>
<path transform="matrix(.00007874014,0,0,.00007874014,216,19.250123)" stroke-width="12700" stroke-linecap="butt" stroke-miterlimit="8" stroke-linejoin="miter" fill="none" stroke="#000000" d="M.0343017 .2580568H2971800V381000.3H.0343017Z"/>
<use data-text="R" xlink:href="#font_2_6" transform="matrix(16,0,0,-16,264.2,40.650087)"/>
<use data-text="e" xlink:href="#font_2_12" transform="matrix(16,0,0,-16,275.75523,40.650087)"/>
<use data-text="m" xlink:href="#font_2_19" transform="matrix(16,0,0,-16,284.65443,40.650087)"/>
<use data-text="a" xlink:href="#font_2_8" transform="matrix(16,0,0,-16,297.98243,40.650087)"/>
<use data-text="i" xlink:href="#font_2_16" transform="matrix(16,0,0,-16,306.88163,40.650087)"/>
<use data-text="n" xlink:href="#font_2_20" transform="matrix(16,0,0,-16,310.43684,40.650087)"/>
<use data-text="d" xlink:href="#font_2_11" transform="matrix(16,0,0,-16,319.33604,40.650087)"/>
<use data-text="e" xlink:href="#font_2_12" transform="matrix(16,0,0,-16,328.23524,40.650087)"/>
<use data-text="r" xlink:href="#font_2_22" transform="matrix(16,0,0,-16,337.1344,40.650087)"/>
<use data-text=" " xlink:href="#font_2_1" transform="matrix(16,0,0,-16,342.4624,40.650087)"/>
<use data-text="o" xlink:href="#font_2_21" transform="matrix(16,0,0,-16,346.90724,40.650087)"/>
<use data-text="f" xlink:href="#font_2_13" transform="matrix(16,0,0,-16,355.80644,40.650087)"/>
<use data-text=" " xlink:href="#font_2_1" transform="matrix(16,0,0,-16,360.25123,40.650087)"/>
<use data-text="b" xlink:href="#font_2_9" transform="matrix(16,0,0,-16,364.696,40.650087)"/>
<use data-text="l" xlink:href="#font_2_18" transform="matrix(16,0,0,-16,373.5952,40.650087)"/>
<use data-text="o" xlink:href="#font_2_21" transform="matrix(16,0,0,-16,377.15043,40.650087)"/>
<use data-text="c" xlink:href="#font_2_10" transform="matrix(16,0,0,-16,386.04963,40.650087)"/>
<use data-text="k" xlink:href="#font_2_17" transform="matrix(16,0,0,-16,394.04963,40.650087)"/>
<use data-text="&#xfffd;" xlink:href="#font_3_1" transform="matrix(16,0,0,-16,402.04963,40.650087)"/>
<path transform="matrix(1,0,0,-1,0,540)" d="M83.99998 520.7499H150V490.7499H83.99998Z" fill="#e1e1e1" fill-rule="evenodd"/>
<path transform="matrix(.00007874014,0,0,.00007874014,83.99998,19.250123)" stroke-width="12700" stroke-linecap="butt" stroke-miterlimit="8" stroke-linejoin="miter" fill="none" stroke="#000000" d="M-.02972415 .2580568H838199.9V381000.3H-.02972415Z"/>
<use data-text="L" xlink:href="#font_2_5" transform="matrix(16,0,0,-16,103.2,40.650087)"/>
<use data-text="e" xlink:href="#font_2_12" transform="matrix(16,0,0,-16,112.0992,40.650087)"/>
<use data-text="f" xlink:href="#font_2_13" transform="matrix(16,0,0,-16,120.9984,40.650087)"/>
<use data-text="t" xlink:href="#font_2_23" transform="matrix(16,0,0,-16,125.4496,40.650087)"/>
<use data-text="&#xfffd;" xlink:href="#font_3_1" transform="matrix(16,0,0,-16,129.9008,40.650087)"/>
<path transform="matrix(1,0,0,-1,0,540)" d="M150 520.7499H216V490.7499H150Z" fill="#e1e1e1" fill-rule="evenodd"/>
<path transform="matrix(.00007874014,0,0,.00007874014,150,19.250123)" stroke-width="12700" stroke-linecap="butt" stroke-miterlimit="8" stroke-linejoin="miter" fill="none" stroke="#000000" d="M-.0258179 .2580568H838199.9V381000.3H-.0258179Z"/>
<use data-text="R" xlink:href="#font_2_6" transform="matrix(16,0,0,-16,164.2,40.650087)"/>
<use data-text="i" xlink:href="#font_2_16" transform="matrix(16,0,0,-16,175.7552,40.650087)"/>
<use data-text="g" xlink:href="#font_2_14" transform="matrix(16,0,0,-16,179.3104,40.650087)"/>
<use data-text="h" xlink:href="#font_2_15" transform="matrix(16,0,0,-16,188.2096,40.650087)"/>
<use data-text="t" xlink:href="#font_2_23" transform="matrix(16,0,0,-16,197.1088,40.650087)"/>
<use data-text="&#xfffd;" xlink:href="#font_3_1" transform="matrix(16,0,0,-16,201.56,40.650087)"/>
<use data-text="A" xlink:href="#font_2_4" transform="matrix(16,0,0,-16,35.94999,13.650085)"/>
<use data-text="l" xlink:href="#font_2_18" transform="matrix(16,0,0,-16,46.62199,13.650085)"/>
<use data-text="l" xlink:href="#font_2_18" transform="matrix(16,0,0,-16,50.17719,13.650085)"/>
<use data-text="o" xlink:href="#font_2_21" transform="matrix(16,0,0,-16,53.73239,13.650085)"/>
<use data-text="c" xlink:href="#font_2_10" transform="matrix(16,0,0,-16,62.63159,13.650085)"/>
<use data-text="a" xlink:href="#font_2_8" transform="matrix(16,0,0,-16,70.63159,13.650085)"/>
<use data-text="t" xlink:href="#font_2_23" transform="matrix(16,0,0,-16,79.53079,13.650085)"/>
<use data-text="e" xlink:href="#font_2_12" transform="matrix(16,0,0,-16,83.97559,13.650085)"/>
<use data-text="d" xlink:href="#font_2_11" transform="matrix(16,0,0,-16,92.874797,13.650085)"/>
<use data-text=" " xlink:href="#font_2_1" transform="matrix(16,0,0,-16,101.773998,13.650085)"/>
<use data-text="b" xlink:href="#font_2_9" transform="matrix(16,0,0,-16,106.218799,13.650085)"/>
<use data-text="l" xlink:href="#font_2_18" transform="matrix(16,0,0,-16,115.118,13.650085)"/>
<use data-text="o" xlink:href="#font_2_21" transform="matrix(16,0,0,-16,118.673198,13.650085)"/>
<use data-text="c" xlink:href="#font_2_10" transform="matrix(16,0,0,-16,127.572399,13.650085)"/>
<use data-text="k" xlink:href="#font_2_17" transform="matrix(16,0,0,-16,135.57239,13.650085)"/>
<use data-text=" " xlink:href="#font_2_1" transform="matrix(16,0,0,-16,143.57239,13.650085)"/>
<use data-text="h" xlink:href="#font_2_15" transform="matrix(16,0,0,-16,148.0172,13.650085)"/>
<use data-text="e" xlink:href="#font_2_12" transform="matrix(16,0,0,-16,156.9164,13.650085)"/>
<use data-text="a" xlink:href="#font_2_8" transform="matrix(16,0,0,-16,165.81562,13.650085)"/>
<use data-text="d" xlink:href="#font_2_11" transform="matrix(16,0,0,-16,174.71482,13.650085)"/>
<use data-text="e" xlink:href="#font_2_12" transform="matrix(16,0,0,-16,183.61402,13.650085)"/>
<use data-text="r" xlink:href="#font_2_22" transform="matrix(16,0,0,-16,192.51322,13.650085)"/>
<use data-text="&#xfffd;" xlink:href="#font_3_1" transform="matrix(16,0,0,-16,197.84122,13.650085)"/>
<path transform="matrix(-.00007874014,-0,0,.00007874014,120,49.25009)" stroke-width="12700" stroke-linecap="butt" stroke-linejoin="round" fill="none" stroke="#000000" d="M.05630498 .3166505 290710.7 436066.4"/>
<path transform="matrix(1,0,0,-1,0,540)" d="M122.4961 489.0858V489.0858C123.4152 490.4644 123.0427 492.327 121.6641 493.2461 120.2855 494.1652 118.4229 493.7926 117.5038 492.414 116.5848 491.0355 116.9573 489.1729 118.3359 488.2538 119.7145 487.3347 121.5771 487.7072 122.4961 489.0858Z" fill-rule="evenodd"/>
<path transform="matrix(1,0,0,-1,0,540)" d="M96.83203 461.4063 95.99998 454.7499 101.8243 458.0781Z" fill-rule="evenodd"/>
<path transform="matrix(.00007874014,0,0,.00007874014,186,49.25009)" stroke-width="12700" stroke-linecap="butt" stroke-linejoin="round" fill="none" stroke="#000000" d="M-.02429205 .3166505 290710.6 436066.4"/>
<path transform="matrix(1,0,0,-1,0,540)" d="M183.5038 489.0858V489.0858C182.5848 490.4644 182.9573 492.327 184.3359 493.2461 185.7145 494.1652 187.5771 493.7926 188.4961 492.414 189.4152 491.0355 189.0426 489.1729 187.6641 488.2538 186.2855 487.3347 184.4229 487.7072 183.5038 489.0858Z" fill-rule="evenodd"/>
<path transform="matrix(1,0,0,-1,0,540)" d="M209.1679 461.4063 210 454.7499 204.1756 458.0781Z" fill-rule="evenodd"/>
<use data-text="&#x003c;" xlink:href="#font_2_2" transform="matrix(16,0,0,-16,79.32503,72.400089)"/>
<use data-text="&#xfffd;" xlink:href="#font_3_1" transform="matrix(16,0,0,-16,88.66903,72.400089)"/>
<use data-text="&#x003e;" xlink:href="#font_2_3" transform="matrix(16,0,0,-16,205.325,71.150089)"/>
<use data-text="&#xfffd;" xlink:href="#font_3_1" transform="matrix(16,0,0,-16,214.66899,71.150089)"/>
</g>
</g>
</svg>
