<svg xmlns="http://www.w3.org/2000/svg" xmlns:xlink="http://www.w3.org/1999/xlink" version="1.1" width="425.77064pt" height="257.642pt" viewBox="0 0 425.77064 257.642">
<defs>
<clipPath id="clip_0">
<path transform="matrix(1,0,0,-1,-.778381,539.222)" d="M.778381 281.58H426.549V539.222H.778381Z" fill-rule="evenodd"/>
</clipPath>
<clipPath id="clip_1">
<path transform="matrix(1,0,0,-1,-.778381,539.222)" d="M0 .00002324581H719.9999V540H0Z"/>
</clipPath>
<path id="font_2_9" d="M.34570313 .4140625C.38671876 .4140625 .41861979 .4197693 .44140626 .43118287 .47721354 .4491272 .4951172 .48142497 .4951172 .5280762 .4951172 .57506307 .47607423 .6067098 .43798829 .62301638 .4165039 .6321513 .38460288 .63671877 .34228517 .63671877H.16894531V.4140625H.34570313M.37841798 .08300781C.43798829 .08300781 .48046876 .100224819 .5058594 .13465882 .5218099 .15642803 .52978518 .18274434 .52978518 .21360779 .52978518 .26559959 .50651046 .30101524 .45996095 .31985475 .43522135 .32992555 .4025065 .33496095 .3618164 .33496095H.16894531V.08300781H.37841798M.07373047 .71777346H.38183595C.4658203 .71777346 .5255534 .6926575 .56103518 .64242556 .58186849 .6127421 .59228518 .5784963 .59228518 .5396881 .59228518 .49434916 .57942709 .45716349 .55371096 .4281311 .54036459 .41280113 .5211589 .3987783 .49609376 .38606263 .5328776 .3720754 .5603841 .35629273 .5786133 .3387146 .61083987 .30748496 .6269531 .26437379 .6269531 .2093811 .6269531 .16317749 .61246749 .12136841 .5834961 .08395386 .54020187 .02798462 .47135417 0 .37695313 0H.07373047V.71777346Z"/>
<path id="font_2_22" d="M.06689453 .71777346H.15478516V0H.06689453V.71777346Z"/>
<path id="font_2_24" d="M.27197267 .057617189C.33024089 .057617189 .37019859 .07964579 .3918457 .123703 .41349284 .16776021 .4243164 .21677144 .4243164 .2707367 .4243164 .31950379 .4165039 .35917155 .4008789 .38974 .3761393 .43785606 .3334961 .46191407 .27294923 .46191407 .21923828 .46191407 .18017578 .44143168 .15576172 .40046693 .13134766 .35950218 .119140628 .31008403 .119140628 .25221253 .119140628 .1966095 .13134766 .15027364 .15576172 .113204959 .18017578 .076146449 .21891277 .057617189 .27197267 .057617189M.27539063 .53808596C.34277345 .53808596 .3997396 .5156453 .44628907 .47076417 .49283854 .42588298 .5161133 .35985819 .5161133 .27268983 .5161133 .1884613 .49560548 .11886088 .45458985 .06388855 .41357423 .008926392 .3499349-.018554688 .26367188-.018554688 .19173177-.018554688 .13460286 .00575765 .092285159 .054382326 .04996745 .103006999 .028808594 .16829936 .028808594 .2502594 .028808594 .33806864 .05110677 .4079895 .095703128 .46002198 .14029949 .51206466 .20019531 .53808596 .27539063 .53808596M.27246095 .5361328V.5361328Z"/>
<path id="font_2_15" d="M.26611329 .53808596C.32503257 .53808596 .37296549 .5237274 .4099121 .49501039 .44685874 .46629334 .46907554 .41684977 .4765625 .3466797H.39111329C.38590495 .37890626 .37402345 .40568034 .35546876 .42700196 .33691407 .44832359 .3071289 .45898438 .26611329 .45898438 .2101237 .45898438 .17008464 .43170677 .1459961 .3771515 .1303711 .34176127 .122558597 .29808555 .122558597 .24612427 .122558597 .19384766 .1336263 .14984639 .15576172 .11412048 .17789714 .07840475 .21272786 .060546876 .2602539 .060546876 .29671226 .060546876 .3256022 .0716095 .34692384 .09373474 .36824546 .115859989 .38297526 .1461385 .39111329 .18457031H.4765625C.46679688 .115234378 .4423828 .06453451 .4033203 .032470704 .3642578 .00040690104 .31429038-.015625 .25341798-.015625 .1850586-.015625 .13053386 .009379069 .08984375 .059387208 .049153646 .10940552 .028808594 .17188008 .028808594 .24681092 .028808594 .33868919 .05110677 .41020204 .095703128 .4613495 .14029949 .51250717 .19710286 .53808596 .26611329 .53808596M.2524414 .5361328V.5361328Z"/>
<path id="font_2_21" d="M.0625 .71777346H.14697266V.30101014L.3725586 .5234375H.48486329L.28466798 .32881166 .49609376 0H.38378907L.22070313 .26635743 .14697266 .19647217V0H.0625V.71777346Z"/>
<path id="font_2_1" d="M0 0Z"/>
<path id="font_2_27" d="M.11669922 .1640625C.11930338 .13463338 .12662761 .11207072 .13867188 .09637451 .1608073 .06793213 .19921875 .053710939 .25390626 .053710939 .28645835 .053710939 .31510417 .060806276 .33984376 .07499695 .36458335 .08919779 .37695313 .11115011 .37695313 .14085388 .37695313 .16337586 .36702476 .18051148 .34716798 .19226074 .33447267 .19944255 .30940757 .20775859 .27197267 .21720886L.20214844 .2348175C.15755208 .24590557 .12467448 .25829569 .103515628 .27198792 .06575521 .29579164 .046875 .32873027 .046875 .37080384 .046875 .42036439 .064697269 .46046958 .1003418 .49111939 .13598633 .52177938 .18391927 .5371094 .24414063 .5371094 .32291667 .5371094 .37972007 .5139974 .41455079 .46777345 .4363607 .43847657 .4469401 .40690104 .44628907 .37304688H.36328126C.36165367 .39269004 .35465495 .41055808 .34228517 .426651 .32210288 .44950868 .28710938 .4609375 .23730469 .4609375 .20410156 .4609375 .17895508 .45461528 .16186524 .44197084 .14477539 .42933656 .13623047 .41264854 .13623047 .39190675 .13623047 .36922203 .14746094 .35107423 .16992188 .33746339 .1829427 .32936607 .20214844 .32221986 .22753906 .31602479L.28564454 .3018341C.34879557 .28650413 .39111329 .27166749 .41259767 .25732423 .44677735 .23482259 .4638672 .19944255 .4638672 .15118408 .4638672 .10455322 .44620768 .06428019 .41088868 .03036499 .37556968-.0035502117 .32177735-.020507813 .24951172-.020507813 .17171224-.020507813 .116617839-.002802531 .084228519 .032608034 .05183919 .06801859 .034505208 .111836757 .032226564 .1640625H.11669922M.24658203 .5361328V.5361328Z"/>
<path id="font_2_20" d="M.064453128 .5205078H.1538086V0H.064453128V.5205078M.064453128 .71777346H.1538086V.61816409H.064453128V.71777346Z"/>
<path id="font_2_30" d="M.025390625 .06976318 .33544923 .44433595H.048339845V.5234375H.45361329V.45121766L.14550781 .07910156H.46289063V0H.025390625V.06976318M.25146485 .5361328V.5361328Z"/>
<path id="font_2_17" d="M.28222657 .53515627C.31933595 .53515627 .355306 .52644857 .39013673 .5090332 .42496745 .49161784 .4514974 .4690806 .46972657 .4414215 .4873047 .41505433 .49902345 .3842977 .5048828 .3491516 .5100911 .32506309 .5126953 .28647868 .5126953 .23339844H.12939453C.13102214 .18033855 .14355469 .13777669 .16699219 .10571289 .19042969 .073649089 .22672527 .057617189 .2758789 .057617189 .32177735 .057617189 .35839845 .07261658 .3857422 .10261536 .4013672 .12003072 .4124349 .14018758 .4189453 .16308594H.5053711C.50309249 .14398194 .49552409 .122690837 .48266603 .09921265 .46980796 .07574463 .45540367 .05656433 .43945313 .041671754 .4127604 .01576233 .37972007-.0017242432 .34033204-.010787964 .3191732-.01596578 .2952474-.018554688 .2685547-.018554688 .20345052-.018554688 .14827474 .0051472985 .103027347 .05255127 .05777995 .09995524 .03515625 .16634114 .03515625 .25170899 .03515625 .33576457 .057942708 .40401713 .103515628 .45646668 .14908855 .5089264 .20865886 .53515627 .28222657 .53515627M.42236329 .30371095C.41878257 .34191896 .41048179 .37245179 .39746095 .39530946 .3733724 .4377594 .33317057 .45898438 .27685548 .45898438 .23649089 .45898438 .20263672 .44437156 .17529297 .41514588 .14794922 .3859202 .13346355 .34877525 .13183594 .30371095H.42236329M.27392579 .5361328V.5361328Z"/>
<path id="font_3_1" d="M0 0Z"/>
<path id="font_2_12" d="M.08544922 .71777346H.40820313C.47200523 .71777346 .5234375 .6997884 .5625 .66381838 .6015625 .6278483 .62109377 .5773112 .62109377 .51220706 .62109377 .45621745 .6036784 .4074707 .56884768 .3659668 .5340169 .3244629 .48046876 .30371095 .40820313 .30371095H.18261719V0H.08544922V.71777346M.5229492 .5114746C.5229492 .56410726 .50341799 .5998433 .46435548 .61868289 .4428711 .62875369 .41341148 .63378909 .37597657 .63378909H.18261719V.3857422H.37597657C.41959635 .3857422 .45499674 .39499919 .48217774 .41351319 .5093587 .43203736 .5229492 .46469117 .5229492 .5114746Z"/>
<path id="font_2_13" d="M.13183594 .1394043C.13183594 .114095058 .14111328 .09413656 .15966797 .07952881 .17822266 .06492106 .20019531 .057617189 .22558594 .057617189 .2565104 .057617189 .28645835 .06471761 .3154297 .07891846 .3642578 .10247803 .38867188 .14127605 .38867188 .1953125V.26611329C.3779297 .25886027 .36409507 .2528127 .34716798 .24797058 .33024089 .24313863 .3136393 .23983257 .29736329 .23805237L.24414063 .23184204C.21223958 .22799683 .1883138 .22153218 .17236328 .21244812 .14534505 .19718933 .13183594 .17284139 .13183594 .1394043M.34472657 .31689454C.36490885 .3194987 .37841798 .32796226 .3852539 .34228517 .38916017 .35012818 .39111329 .36140443 .39111329 .3761139 .39111329 .40618388 .38045249 .42799888 .35913087 .44155885 .33780924 .455129 .30729167 .46191407 .26757813 .46191407 .22167969 .46191407 .18912761 .44948326 .16992188 .42462159 .15917969 .4108785 .15218099 .39043174 .14892578 .36328126H.06689453C.06852213 .42791749 .08943685 .47288514 .12963867 .4981842 .1698405 .5234833 .21647136 .5361328 .26953126 .5361328 .3310547 .5361328 .38102214 .52441409 .4194336 .50097659 .45751954 .47753907 .4765625 .4410502 .4765625 .39151V.08985901C.4765625 .08073425 .47843424 .073404949 .48217774 .067871097 .48592124 .06233724 .4938151 .059570314 .5058594 .059570314 .5097656 .059570314 .51416018 .059814454 .51904299 .060302736 .5239258 .060791017 .5291341 .061523439 .53466799 .0625V-.0028076173C.5209961-.00676473 .5105794-.009236653 .50341799-.010223389 .4962565-.011220296 .48649089-.01171875 .4741211-.01171875 .44384767-.01171875 .421875-.0009104411 .40820313 .020706177 .40104167 .032170614 .3959961 .048380536 .3930664 .06933594 .37516276 .045633954 .34944663 .025060019 .31591798 .0076141359 .2823893-.009831746 .2454427-.018554688 .20507813-.018554688 .15657552-.018554688 .11694336-.0037790936 .08618164 .025772095 .055419923 .055323285 .040039064 .092300418 .040039064 .13670349 .040039064 .18535869 .05517578 .22307332 .08544922 .24984741 .115722659 .2766215 .1554362 .29311119 .20458985 .2993164L.34472657 .31689454M.27197267 .5361328V.5361328Z"/>
<path id="font_2_29" d="M.39111329 .5234375H.48828126C.47591148 .48987834 .44840495 .41330973 .40576173 .2937317 .3738607 .20380657 .34716798 .13049825 .3256836 .07380676 .27490235-.059921266 .23909505-.14145915 .21826172-.17080689 .19742839-.2001648 .1616211-.21484375 .110839847-.21484375 .098470058-.21484375 .08894857-.21435039 .08227539-.21336365 .07560221-.21238709 .06738281-.21058655 .057617189-.20796204V-.1274414C.072916667-.13167317 .083984378-.13427735 .09082031-.1352539 .09765625-.13623047 .10367838-.13671875 .10888672-.13671875 .12516277-.13671875 .13712566-.1340332 .14477539-.12866211 .15242513-.123291019 .15885417-.11669922 .1640625-.10888672 .16569011-.106282558 .17154949-.092936199 .18164063-.068847659 .19173177-.044759115 .19905599-.026855469 .20361328-.015136719L.010253906 .5234375H.10986328L.25 .09727478 .39111329 .5234375M.24951172 .5361328V.5361328Z"/>
<path id="font_2_16" d="M.12011719 .2553711C.12011719 .19923909 .1319987 .15224712 .15576172 .11439514 .17952474 .076543178 .21761067 .057617189 .27001954 .057617189 .31070964 .057617189 .3441569 .075154628 .37036134 .11022949 .39656578 .14531453 .40966798 .19565328 .40966798 .26124574 .40966798 .32748924 .39615885 .37651573 .36914063 .4083252 .3421224 .44014488 .3087565 .4560547 .26904298 .4560547 .22477214 .4560547 .18888347 .4390869 .16137696 .40515138 .13387044 .37121583 .12011719 .32128907 .12011719 .2553711M.2524414 .53222659C.29248048 .53222659 .32600913 .52381899 .35302735 .5070038 .36865235 .4972992 .38639323 .48031617 .40625 .4560547V.71875H.49072267V0H.4116211V.07229614C.39111329 .04023234 .36686198 .017074585 .3388672 .002822876 .3108724-.011428833 .2788086-.018554688 .24267578-.018554688 .18440755-.018554688 .13395183 .0059407555 .091308597 .05493164 .048665365 .10392252 .02734375 .16910808 .02734375 .25048829 .02734375 .32666017 .04679362 .39265953 .08569336 .44848634 .1245931 .5043132 .18017578 .53222659 .2524414 .53222659Z"/>
<path id="font_2_2" d="M.29589845 .7294922C.24479167 .6301575 .21158855 .55703738 .19628906 .51013186 .17317708 .43881227 .1616211 .3564148 .1616211 .26293946 .1616211 .16848755 .17480469 .08217875 .20117188 .0040130617 .21744792-.044184369 .24951172-.11355591 .29736329-.20410156H.23828125C.1907552-.12984212 .16129558-.08245341 .14990235-.061935426 .13850911-.04141744 .12613933-.013570149 .11279297 .021606446 .094563808 .06980387 .08186849 .1212616 .07470703 .17597962 .071126308 .2043101 .06933594 .23134358 .06933594 .25708009 .06933594 .3534851 .084472659 .43930564 .114746097 .5145416 .13395183 .5624135 .17399089 .6340637 .23486328 .7294922H.29589845Z"/>
<path id="font_2_28" d="M.08203125 .66796877H.17089844V.5234375H.25439454V.4501953H.17089844V.110183719C.17089844 .09202576 .17708333 .07986959 .18945313 .07371521 .19628906 .07014465 .2076823 .068359378 .22363281 .068359378 .22786458 .068359378 .23242188 .06846619 .23730469 .06867981 .2421875 .0689036 .24788411 .06944784 .25439454 .0703125V0C.24430339-.0031026204 .23380535-.005340576 .22290039-.006713867 .21199544-.008097331 .20019531-.0087890629 .1875-.0087890629 .14648438-.0087890629 .118652347 .0016988119 .104003909 .02267456 .08935547 .04365031 .08203125 .070882167 .08203125 .10437012V.4501953H.011230469V.5234375H.08203125V.66796877Z"/>
<path id="font_2_14" d="M.057617189 .71875H.1430664V.45948792C.16227214 .4847056 .18522136 .50394698 .21191406 .5172119 .23860677 .53047689 .26757813 .5371094 .29882813 .5371094 .36393229 .5371094 .41674806 .5147095 .4572754 .46990968 .49780274 .42510987 .5180664 .35905458 .5180664 .27174378 .5180664 .1889801 .49804688 .12022909 .4580078 .06549072 .41796876 .010762532 .36246745-.016601563 .2915039-.016601563 .25179038-.016601563 .21826172-.006942749 .19091797 .012374878 .17464192 .023839316 .15722656 .042175294 .13867188 .06738281V0H.057617189V.71875M.2861328 .061523439C.33365885 .061523439 .36922203 .08037821 .39282228 .11808777 .41642253 .1558075 .42822267 .20555115 .42822267 .26731874 .42822267 .32227073 .41642253 .3677877 .39282228 .40386964 .36922203 .43996177 .33447267 .4580078 .28857423 .4580078 .24853516 .4580078 .21346028 .44321189 .18334961 .41362 .15323894 .3840383 .1381836 .3352712 .1381836 .26731874 .1381836 .21822612 .14436849 .17840068 .15673828 .1478424 .17985027 .090296428 .22298177 .061523439 .2861328 .061523439Z"/>
<path id="font_2_23" d="M.064453128 .5234375H.14794922V.44921876C.1726888 .47981773 .19889324 .50179037 .2265625 .5151367 .25423179 .5284831 .2849935 .53515627 .31884767 .53515627 .3930664 .53515627 .44319663 .5092519 .46923829 .45744325 .4835612 .42910258 .49072267 .38853965 .49072267 .3357544V0H.4013672V.3299408C.4013672 .36188255 .39664714 .38762919 .38720704 .4071808 .37158204 .4397634 .34326173 .4560547 .3022461 .4560547 .28141276 .4560547 .2643229 .4539388 .25097657 .44970704 .22688802 .4425354 .20572917 .42819724 .1875 .4066925 .17285156 .38941957 .16333008 .37157694 .15893555 .35316468 .15454102 .3347524 .15234375 .30844117 .15234375 .27423097V0H.064453128V.5234375M.2709961 .5361328V.5361328Z"/>
<path id="font_2_3" d="M.03466797-.20410156C.08642578-.103139247 .119791667-.029530844 .13476563 .016723633 .15755208 .08674113 .16894531 .16881307 .16894531 .26293946 .16894531 .35706584 .15576172 .44321189 .12939453 .52137759 .11311849 .569575 .08105469 .63894656 .033203126 .7294922H.092285159C.14241536 .64937338 .17277019 .59995016 .18334961 .58122256 .19392903 .56249496 .20540364 .5366821 .21777344 .5037842 .23339844 .46307374 .24454753 .42285157 .2512207 .38311769 .2578939 .3433838 .26123048 .30511476 .26123048 .26831056 .26123048 .17190552 .24593099 .08592224 .21533203 .010360718 .1961263-.03816223 .15625-.10964966 .095703128-.20410156H.03466797Z"/>
<path id="font_2_4" d="M.22753906 .71777346H.3017578L.07421875 0H0L.22753906 .71777346Z"/>
<path id="font_2_18" d="M.08642578 .6021576C.08772787 .638443 .09407552 .66500857 .10546875 .68185427 .12597656 .7116597 .16552735 .7265625 .2241211 .7265625 .22965496 .7265625 .23535156 .7263997 .24121094 .7260742 .24707031 .7257487 .2537435 .72526046 .26123048 .7246094V.64453127C.25211589 .6449687 .2455241 .6452382 .24145508 .64533999 .23738607 .64545187 .2335612 .6455078 .22998047 .6455078 .20328777 .6455078 .18733724 .6386719 .1821289 .625 .17692058 .6113281 .1743164 .5764974 .1743164 .5205078H.26123048V.45117188H.17333985V0H.08642578V.45117188H.013671875V.5205078H.08642578V.6021576Z"/>
<path id="font_2_5" d="M.2705078 .7001953C.3610026 .7001953 .42643229 .66289779 .46679688 .5883026 .49804688 .5306447 .5136719 .45165 .5136719 .35131837 .5136719 .25620524 .49951173 .17754109 .4711914 .11532593 .43017579 .026072184 .3631185-.018554688 .27001954-.018554688 .18603516-.018554688 .123535159 .017929078 .08251953 .09089661 .048339845 .15180969 .03125 .23357137 .03125 .33618165 .03125 .41565959 .041503908 .48390199 .06201172 .5409088 .10042318 .6470998 .16992188 .7001953 .2705078 .7001953M.26953126 .061523439C.31510417 .061523439 .35139976 .08168539 .37841798 .12200928 .4054362 .16234334 .4189453 .23747762 .4189453 .3474121 .4189453 .42676798 .4091797 .49205528 .38964845 .5432739 .3701172 .59450277 .332194 .6201172 .2758789 .6201172 .2241211 .6201172 .1862793 .59580489 .16235352 .5471802 .13842774 .4985555 .12646485 .42692057 .12646485 .3322754 .12646485 .26105754 .13411458 .20381673 .14941406 .16055298 .17285156 .09453329 .21289063 .061523439 .26953126 .061523439Z"/>
<path id="font_2_8" d="M.25976563-.018554688C.17708333-.018554688 .11710612 .004196167 .079833988 .049697877 .042561849 .095209758 .023925782 .15058391 .023925782 .21582031H.115722659C.119628909 .1704305 .12809246 .13744609 .14111328 .116867069 .16389974 .07997131 .20507813 .061523439 .26464845 .061523439 .3108724 .061523439 .34798179 .07389323 .37597657 .09863281 .40397135 .1233724 .41796876 .15527344 .41796876 .19433594 .41796876 .24251302 .40323893 .27620445 .3737793 .29541017 .34431968 .31461589 .3033854 .32421876 .25097657 .32421876 .24511719 .32421876 .23917644 .32413737 .2331543 .3239746 .22713216 .32381187 .22102864 .32356773 .21484375 .3232422V.4013672C.22395833 .40019737 .23160808 .39941407 .23779297 .39901734 .24397786 .39863078 .25065104 .3984375 .2578125 .3984375 .2906901 .3984375 .31770835 .40363566 .3388672 .41403199 .37597657 .43222047 .39453126 .46470133 .39453126 .5114746 .39453126 .54622396 .38216148 .5730184 .35742188 .5918579 .33268229 .61069747 .3038737 .6201172 .2709961 .6201172 .21240235 .6201172 .171875 .6007131 .14941406 .5619049 .13704427 .5405629 .13004558 .51016238 .12841797 .47070313H.041503908C.041503908 .5225627 .051920576 .5666453 .072753909 .60295107 .108561199 .6677806 .17154949 .7001953 .26171876 .7001953 .3330078 .7001953 .3881836 .6843465 .4272461 .6526489 .4663086 .6209615 .48583985 .5750529 .48583985 .5149231 .48583985 .47201539 .47428385 .4372355 .45117188 .4105835 .43684898 .39401246 .41829429 .38101197 .3955078 .37158204 .43229167 .36149089 .4610189 .34204103 .48168946 .31323243 .50236007 .28442384 .5126953 .2491862 .5126953 .20751953 .5126953 .14078777 .49072267 .08642578 .44677735 .044433595 .40283204 .0024414063 .34049479-.018554688 .25976563-.018554688Z"/>
<path id="font_2_6" d="M.095703128 .4951172V.5625C.15917969 .5686849 .20345052 .5790202 .22851563 .59350588 .25358073 .6079915 .2722982 .6422526 .28466798 .69628909H.3540039V0H.2602539V.4951172H.095703128Z"/>
<path id="font_2_7" d="M.03125 0C.034505208 .060221357 .04695638 .11263021 .068603519 .15722656 .09025065 .20182292 .13248699 .24235027 .1953125 .2788086L.2890625 .3330078C.3310547 .35742188 .3605143 .3782908 .3774414 .39561463 .40413413 .4227346 .41748048 .45377604 .41748048 .488739 .41748048 .52959188 .40527345 .562027 .38085938 .5860443 .3564453 .61006167 .32389323 .6220703 .28320313 .6220703 .22298177 .6220703 .18131511 .5991516 .15820313 .5533142 .14583333 .52875778 .13899739 .4947103 .13769531 .45117188H.048339845C.049316408 .5121663 .060546876 .5619049 .08203125 .6003876 .12011719 .66822817 .18733724 .70214846 .2836914 .70214846 .36376954 .70214846 .4222819 .68047079 .45922853 .6371155 .49617515 .5937703 .51464846 .5455373 .51464846 .49241639 .51464846 .4363556 .49495445 .388443 .4555664 .3486786 .43277995 .3255361 .3919271 .29752604 .3330078 .26464845L.26611329 .22753906C.23421224 .20996094 .20914714 .19319661 .19091797 .1772461 .15836589 .14892578 .13785808 .11751302 .12939453 .08300781H.51123049V0H.03125Z"/>
<clipPath id="clip_4">
<path transform="matrix(1,0,0,-1,-.778381,539.222)" d="M13.62504 377H204.625V318H13.62504Z" fill-rule="evenodd"/>
</clipPath>
<g id="pattern_tile_5">
<path transform="matrix(1,0,0,-1,54.478719,660.27749)" stroke-width="2.1" stroke-linecap="butt" stroke-miterlimit="10" stroke-linejoin="miter" fill="none" stroke="#cbcbcb" d="M-1 7 1 9M-1-1 9 9M7-1 9 1"/>
</g>
<pattern id="pattern_5" patternUnits="userSpaceOnUse" patternContentUnits="userSpaceOnUse" x="0" y="0" width="8" height="8">
<g transform="matrix(1,0,0,-1,-54.478719,660.27749)">
<use x="0" y="0" xlink:href="#pattern_tile_5"/>
</g>
</pattern>
<path id="font_2_19" d="M.24902344 .53222659C.29003907 .53222659 .32584635 .5220744 .3564453 .50177 .37304688 .49030558 .38997398 .4736023 .40722657 .45166017V.5185547H.48828126V.04234314C.48828126-.024154664 .47851563-.07663473 .45898438-.115097049 .42252604-.18615215 .35367839-.22167969 .2524414-.22167969 .1961263-.22167969 .14876302-.20906575 .11035156-.18383789 .0719401-.15861003 .05045573-.119140628 .045898439-.06542969H.1352539C.13948567-.08873495 .14794922-.10669454 .16064453-.11930847 .1805013-.13872783 .2117513-.1484375 .25439454-.1484375 .32177735-.1484375 .3658854-.12467448 .38671876-.07714844 .39908854-.04916382 .40478517 .0007985433 .4038086 .07273865 .38623048 .04588318 .36507163 .025904337 .34033204 .012802124 .31559245-.000289917 .2828776-.0068359377 .2421875-.0068359377 .18554688-.0068359377 .13598633 .013280232 .09350586 .053512575 .05102539 .09375509 .029785157 .16030376 .029785157 .25315858 .029785157 .34080506 .051188154 .40922547 .09399414 .4584198 .13680013 .5076243 .18847656 .53222659 .24902344 .53222659M.40722657 .26342774C.40722657 .328125 .39388023 .37607829 .3671875 .4072876 .34049479 .43849693 .30647788 .45410157 .26513673 .45410157 .20328777 .45410157 .16097005 .4251658 .1381836 .3672943 .12613933 .33641053 .12011719 .29593406 .12011719 .24586487 .12011719 .1870168 .13208008 .14223226 .15600586 .11151123 .17993164 .0807902 .21207683 .06542969 .2524414 .06542969 .31559245 .06542969 .36002604 .09387716 .3857422 .1507721 .4000651 .18295796 .40722657 .22050984 .40722657 .26342774M.25927735 .5361328V.5361328Z"/>
<path id="font_2_25" d="M.28515626 .057617189C.32617188 .057617189 .36027018 .07486979 .38745118 .109375 .41463218 .14389038 .42822267 .1954956 .42822267 .26419068 .42822267 .3060608 .42220054 .34204103 .41015626 .37213136 .38736979 .43003337 .34570313 .45898438 .28515626 .45898438 .22428386 .45898438 .18261719 .42840068 .16015625 .36723329 .14811199 .33451844 .14208985 .29297386 .14208985 .24259949 .14208985 .20204163 .14811199 .16753133 .16015625 .1390686 .1829427 .08476766 .22460938 .057617189 .28515626 .057617189M.057617189 .5205078H.1430664V.45162965C.16064453 .47540284 .17985027 .49379985 .2006836 .5068207 .23030599 .5263621 .26513673 .5361328 .30517579 .5361328 .36442057 .5361328 .41471354 .5133667 .4560547 .46783448 .49739585 .42230226 .5180664 .3572693 .5180664 .2727356 .5180664 .1585083 .48828126 .07691447 .42871095 .027954102 .39095054-.0030517579 .34700523-.018554688 .296875-.018554688 .25748698-.018554688 .22444661-.009984334 .1977539 .007156372 .1821289 .016860962 .16471355 .033518476 .14550781 .057128908V-.20898438H.057617189V.5205078Z"/>
<path id="font_2_11" d="M.07861328 .71777346H.17675781V.42089845H.5498047V.71777346H.6479492V0H.5498047V.33496095H.17675781V0H.07861328V.71777346Z"/>
<path id="font_2_26" d="M.06689453 .5234375H.15039063V.4326172C.15722656 .4502767 .17399089 .4717814 .2006836 .49713136 .2273763 .52248129 .25813804 .53515627 .29296876 .53515627 .29459635 .53515627 .29736329 .5349579 .30126954 .53456118 .30517579 .5341746 .31184898 .5333964 .32128907 .53222659V.43945313C.31608073 .44062297 .3112793 .44140116 .30688478 .44178773 .30249024 .44218446 .2976888 .4423828 .29248048 .4423828 .24820964 .4423828 .2141927 .4280599 .19042969 .39941407 .16666667 .37076823 .15478516 .33789063 .15478516 .30078126V0H.06689453V.5234375Z"/>
<path id="font_2_10" d="M.08544922 .71777346H.5830078V.6298828H.18261719V.41210938H.53466799V.32617188H.18261719V0H.08544922V.71777346Z"/>
<path id="font_6_8" d="M.23730469 .057617189C.26822917 .057617189 .2998047 .06476847 .33203126 .079071048 .3857422 .10281372 .41845704 .14166768 .43017579 .19563294L.44482423 .26635743C.43277995 .25953166 .417806 .25384013 .39990235 .24928284 .3819987 .24473572 .3647461 .2414856 .34814454 .23953247L.29345704 .23271179C.26057945 .22848003 .2351888 .22181194 .21728516 .21270752 .18701172 .19742839 .16829427 .17304485 .16113281 .13955689 .15559896 .11419678 .16056316 .09419759 .17602539 .079559329 .19148763 .064931239 .21191406 .057617189 .23730469 .057617189M.4116211 .31723023C.43245445 .31984458 .44791667 .32831828 .4580078 .34265138 .46354167 .35047404 .46777345 .3617147 .47070313 .3763733 .47721354 .40635173 .4711914 .4281006 .45263673 .44161988 .43408204 .45514933 .4049479 .46191407 .36523438 .46191407 .31933595 .46191407 .2841797 .44954429 .25976563 .4248047 .24609375 .4111328 .23486328 .39078776 .22607422 .36376954H.14404297C.15934246 .42822267 .18977864 .47306315 .23535156 .49829103 .28092448 .52351889 .33024089 .5361328 .38330079 .5361328 .44482423 .5361328 .4921875 .52441409 .5253906 .50097659 .55859377 .47753907 .569987 .44108073 .5595703 .39160157L.49560548 .09033203C.49365235 .081217449 .49389649 .07389323 .4963379 .068359378 .4987793 .06282552 .50602218 .060058595 .5180664 .060058595 .52197268 .060058595 .52644857 .060343427 .53149417 .060913087 .53653976 .061482748 .5419922 .06233724 .54785159 .06347656L.5336914-.0027618409C.51936849-.0067392985 .5085449-.009226481 .5012207-.010223389 .49389649-.011220296 .48404948-.01171875 .4716797-.01171875 .44140626-.01171875 .42171226-.00090026858 .41259767 .020736695 .40771485 .032211305 .40608726 .04843648 .40771485 .06941223 .38460288 .045954389 .3544922 .02558899 .3173828 .00831604 .28027345-.008946736 .24153646-.017578125 .20117188-.017578125 .15266927-.017578125 .116129558-.0028330486 .091552738 .026657105 .066975917 .05614726 .05940755 .093048099 .068847659 .13735962 .07926432 .18591309 .10245768 .22355144 .13842774 .25027467 .17439778 .2769979 .21761067 .29345194 .2680664 .29963685L.4116211 .31723023Z"/>
<path id="font_6_1" d="M0 0Z"/>
<path id="font_6_5" d="M.63916018 .4013672 .6220703 .31933595H.11279297L.12988281 .4013672H.63916018M.59472659 .19238281 .57714846 .10839844H.067871097L.08544922 .19238281H.59472659Z"/>
<path id="font_6_2" d="M.5913086 .58732607C.61051437 .52966818 .609375 .45067344 .5878906 .3503418 .5677083 .25522868 .5367839 .17656453 .4951172 .114349368 .43522135 .025095622 .35872398-.01953125 .265625-.01953125 .18164063-.01953125 .12695313 .016952515 .1015625 .089920047 .08040365 .15083313 .080729167 .2325948 .10253906 .33520509 .119140628 .414683 .1438802 .48292542 .17675781 .53993228 .2376302 .64612326 .31835938 .69921877 .4189453 .69921877 .5094401 .69921877 .56689456 .6619212 .5913086 .58732607M.49267579 .34692384C.50927737 .42642213 .51326498 .4918264 .5046387 .5431366 .49601237 .594457 .46354167 .6201172 .40722657 .6201172 .35546876 .6201172 .3125 .59576418 .2783203 .5470581 .24414063 .49835206 .21695964 .42659507 .19677735 .3317871 .18147786 .26042686 .17692058 .2030843 .18310547 .15975952 .19254558 .09361776 .22558594 .060546876 .28222657 .060546876 .32779948 .060546876 .3684082 .08074442 .40405274 .12113953 .43969728 .1615448 .46923829 .23680623 .49267579 .34692384Z"/>
<path id="font_6_3" d="M.2006836 .4951172 .21484375 .5625C.2796224 .5686849 .32609049 .5790202 .35424806 .59350588 .3824056 .6079915 .40852867 .6422526 .4326172 .69628909H.5019531L.3540039 0H.2602539L.36523438 .4951172H.2006836Z"/>
<path id="font_6_4" d="M.22021485 .51660159H.32226563L.2998047 .41015626H.1977539L.22021485 .51660159M.13330078 .10644531H.23535156L.21289063 0H.110839847L.13330078 .10644531Z"/>
<path id="font_6_6" d="M.50634768 .2939453 .46484376 .61083987 .28173829 .2939453H.50634768M.43701173 .71777346H.546875L.65478518 0H.54833987L.5209961 .21484375H.23730469L.11425781 0H.0146484379L.43701173 .71777346Z"/>
<path id="font_6_13" d="M.21923828 .71777346H.3071289L.15478516 0H.06689453L.21923828 .71777346Z"/>
<path id="font_6_14" d="M.4814453 .26976014C.49186198 .31852723 .49251304 .35819499 .48339845 .38876344 .46875 .4368795 .43115235 .4609375 .37060548 .4609375 .31689454 .4609375 .2735189 .4404551 .24047852 .39949037 .20743816 .3585256 .18473308 .30910746 .17236328 .25123597 .16064453 .19563294 .16300456 .14929708 .17944336 .11222839 .19588216 .07516988 .23063152 .056640626 .2836914 .056640626 .34195964 .056640626 .38663737 .07866923 .4177246 .12272644 .44881187 .16678365 .4700521 .21579488 .4814453 .26976014M.57373049 .27223207C.55582687 .18784078 .5205078 .1181132 .46777345 .06304932 .41503907 .0079956059 .34554038-.01953125 .25927735-.01953125 .18733724-.01953125 .13541667 .0048217775 .103515628 .053527833 .071614589 .10223389 .06429037 .16763814 .08154297 .2497406 .10042318 .33771263 .13769531 .40776063 .19335938 .45988465 .24902344 .51201888 .31445313 .53808596 .38964845 .53808596 .45703126 .53808596 .509196 .5156047 .5461426 .4706421 .5830892 .42567954 .59228518 .35954286 .57373049 .27223207Z"/>
<path id="font_6_9" d="M.55029299 .3466797H.46484376C.46647135 .37890626 .46028648 .40568034 .44628907 .42700196 .43229167 .44832359 .40478517 .45898438 .36376954 .45898438 .30777995 .45898438 .2618815 .43164063 .22607422 .37695313 .20296224 .34147135 .18587239 .2976888 .17480469 .24560547 .16341146 .19319661 .16503906 .14908855 .1796875 .11328125 .19433594 .07747396 .22542317 .059570314 .27294923 .059570314 .30940757 .059570314 .34065757 .0707194 .36669923 .09301758 .39274089 .11531576 .41389976 .14583333 .43017579 .18457031H.515625C.49121095 .115234378 .4560547 .06453451 .41015626 .032470704 .3642578 .00040690104 .3108724-.015625 .25-.015625 .18164063-.015625 .1324056 .009379069 .10229492 .059387208 .07218424 .10940552 .065104167 .17188008 .08105469 .24681092 .10058594 .33868919 .13810222 .41020204 .19360352 .4613495 .24910482 .51250717 .3113607 .53808596 .3803711 .53808596 .43929038 .53808596 .48413087 .5237274 .5148926 .49501039 .5456543 .46629334 .5574544 .41684977 .55029299 .3466797Z"/>
<path id="font_6_16" d="M.2241211 .6689453H.31298829L.28173829 .5234375H.36523438L.35009767 .45117188H.26660157L.19384766 .10948181C.1899414 .0912323 .19352214 .07901001 .20458985 .07281494 .21077474 .069234218 .22184246 .06744385 .23779297 .06744385 .24202474 .06744385 .24658203 .06752523 .25146485 .06768799 .25634767 .067850749 .26220704 .06825765 .26904298 .06890869L.25439454-.00048828127C.24365235-.0034179688 .23266602-.005533854 .22143555-.0068359377 .21020508-.0081380209 .19824219-.0087890629 .18554688-.0087890629 .14453125-.0087890629 .118896488 .0017191569 .10864258 .022735596 .09838867 .043752035 .096842449 .07104492 .104003909 .10461426L.17773438 .45117188H.106933597L.12207031 .5234375H.1928711L.2241211 .6689453Z"/>
<path id="font_6_11" d="M.5629883 .44125367C.57503256 .4148458 .5802409 .3840332 .5786133 .34881593 .5789388 .32468669 .57340499 .2862142 .5620117 .23339844H.17871094C.16894531 .18033855 .17244466 .13777669 .18920899 .10571289 .20597331 .073649089 .2389323 .057617189 .28808595 .057617189 .33398438 .057617189 .3736979 .072779338 .40722657 .10310364 .4267578 .12070211 .44222007 .14107768 .45361329 .16423035H.54003909C.5335286 .14500427 .521403 .12358093 .5036621 .09996033 .48592124 .07633972 .4674479 .057037355 .4482422 .042053224 .41601563 .015981039 .37923179-.0016174316 .33789063-.0107421879 .3154297-.015950522 .29085288-.018554688 .26416017-.018554688 .19905599-.018554688 .14892578 .0051472985 .11376953 .05255127 .07861328 .09995524 .07014974 .16634114 .088378909 .25170899 .106282558 .33576457 .14355469 .40401713 .20019531 .45646668 .25683595 .5089264 .3219401 .53515627 .3955078 .53515627 .4326172 .53515627 .46679688 .5264333 .49804688 .5089874 .5292969 .49154154 .55094406 .46896363 .5629883 .44125367M.48632813 .30371095C.4908854 .3416748 .48909507 .37201438 .48095704 .3947296 .46598307 .43691508 .43033854 .4580078 .37402345 .4580078 .33365885 .4580078 .29671226 .44348655 .2631836 .41444398 .22965496 .3854014 .20719402 .3484904 .19580078 .30371095H.48632813Z"/>
<path id="font_6_10" d="M.28222657 .05859375C.32291667 .05859375 .36002604 .076044719 .3935547 .110946658 .42708335 .14585877 .45084635 .19594829 .46484376 .2612152 .47884117 .32713319 .4757487 .37592063 .4555664 .4075775 .43538413 .4392446 .4054362 .45507813 .36572267 .45507813 .3214518 .45507813 .28198243 .43819175 .24731446 .40441896 .21264649 .37064616 .1883138 .32096354 .1743164 .2553711 .16227214 .19952393 .16414388 .15276592 .17993164 .115097049 .1957194 .077428188 .2298177 .05859375 .28222657 .05859375M.46044923 .50683596C.4741211 .4970703 .48828126 .47998048 .5029297 .4555664L.55908206 .71972659H.6435547L.49072267 0H.4116211L.4267578 .072753909C.39941407 .040527345 .37019859 .017252604 .33911134 .0029296876 .30802409-.0113932299 .27441407-.018554688 .23828125-.018554688 .18001302-.018554688 .13476563 .0059407555 .10253906 .05493164 .0703125 .10392252 .06298828 .16910808 .080566409 .25048829 .09651693 .32666017 .12988281 .39265953 .18066406 .44848634 .23144531 .5043132 .29296876 .53222659 .36523438 .53222659 .40527345 .53222659 .43701173 .523763 .46044923 .50683596Z"/>
<path id="font_7_1" d="M0 0Z"/>
<path id="font_6_12" d="M.25048829 .6826172C.277181 .7125651 .31982423 .72753909 .37841798 .72753909 .3839518 .72753909 .38964845 .7273763 .3955078 .7270508 .4013672 .7267253 .4078776 .726237 .41503907 .72558596L.39794923 .6455078C.38916017 .6461589 .3827311 .64656576 .3786621 .6467285 .3745931 .6468913 .37076823 .64697268 .3671875 .64697268 .34049479 .64697268 .32307945 .64005538 .3149414 .6262207 .30680339 .61238607 .29671226 .57714846 .28466798 .5205078H.37158204L.3569336 .45117188H.26904298L.17333985 0H.08642578L.1821289 .45117188H.109375L.12402344 .5205078H.19677735L.21435547 .60253909C.22347005 .6389974 .23551433 .6656901 .25048829 .6826172Z"/>
<path id="font_6_7" d="M.23779297 .71777346H.73535159L.7163086 .6298828H.31591798L.27001954 .41210938H.6220703L.6035156 .32617188H.25146485L.18261719 0H.08544922L.23779297 .71777346Z"/>
<path id="font_6_15" d="M.17773438 .5234375H.26123048L.2421875 .43301393C.25260417 .4506124 .2738444 .47203575 .3059082 .49728395 .33797203 .52253219 .37141929 .53515627 .40625 .53515627 .4078776 .53515627 .41064454 .5349579 .41455079 .53456118 .41845704 .5341746 .42496745 .5333964 .43408204 .53222659L.41455079 .4399414C.40934245 .44091798 .4046224 .441569 .40039063 .44189454 .39615885 .44222007 .3914388 .4423828 .38623048 .4423828 .34195964 .4423828 .30493165 .428126 .27514649 .39961244 .24536133 .37109886 .22639974 .338267 .21826172 .30111695L.15478516 0H.06689453L.17773438 .5234375Z"/>
</defs>
<g clip-path="url(#clip_0)">
<g clip-path="url(#clip_1)">
<path transform="matrix(1,0,0,-1,-.778381,539.222)" d="M0 539.9999H719.9999V.00003079383H0Z" fill="#ffffff" fill-rule="evenodd"/>
<path transform="matrix(1,0,0,-1,-.778381,539.222)" d="M14 527.2499H163V497.2499H14Z" fill="#ffffff" fill-rule="evenodd"/>
<path transform="matrix(.00007874014,0,0,.00007874014,13.221619,11.972107)" stroke-width="12700" stroke-linecap="butt" stroke-miterlimit="8" stroke-linejoin="miter" fill="none" stroke="#000000" d="M.003120419 .2453614H1892300V381000.3H.003120419Z"/>
<use data-text="B" xlink:href="#font_2_9" transform="matrix(16,0,0,-16,51.421609,33.37207)"/>
<use data-text="l" xlink:href="#font_2_22" transform="matrix(16,0,0,-16,62.09361,33.37207)"/>
<use data-text="o" xlink:href="#font_2_24" transform="matrix(16,0,0,-16,65.64881,33.37207)"/>
<use data-text="c" xlink:href="#font_2_15" transform="matrix(16,0,0,-16,74.54801,33.37207)"/>
<use data-text="k" xlink:href="#font_2_21" transform="matrix(16,0,0,-16,82.54801,33.37207)"/>
<use data-text=" " xlink:href="#font_2_1" transform="matrix(16,0,0,-16,90.54801,33.37207)"/>
<use data-text="s" xlink:href="#font_2_27" transform="matrix(16,0,0,-16,94.99281,33.37207)"/>
<use data-text="i" xlink:href="#font_2_20" transform="matrix(16,0,0,-16,102.99281,33.37207)"/>
<use data-text="z" xlink:href="#font_2_30" transform="matrix(16,0,0,-16,106.54802,33.37207)"/>
<use data-text="e" xlink:href="#font_2_17" transform="matrix(16,0,0,-16,114.54802,33.37207)"/>
<use data-text="&#xfffd;" xlink:href="#font_3_1" transform="matrix(16,0,0,-16,123.44721,33.37207)"/>
<path transform="matrix(1,0,0,-1,-.778381,539.222)" d="M14 497.2499H204.625V377H14Z" fill="#ffffff" fill-rule="evenodd"/>
<path transform="matrix(.00007874014,0,0,.00007874014,13.221619,41.972078)" stroke-width="12700" stroke-linecap="butt" stroke-miterlimit="8" stroke-linejoin="miter" fill="none" stroke="#000000" d="M.003120419 .3039552H2420938V1527175H.003120419Z"/>
<use data-text="P" xlink:href="#font_2_12" transform="matrix(16,0,0,-16,79.4216,98.89697)"/>
<use data-text="a" xlink:href="#font_2_13" transform="matrix(16,0,0,-16,90.0936,98.89697)"/>
<use data-text="y" xlink:href="#font_2_29" transform="matrix(16,0,0,-16,98.9928,98.89697)"/>
<use data-text="l" xlink:href="#font_2_22" transform="matrix(16,0,0,-16,106.9928,98.89697)"/>
<use data-text="o" xlink:href="#font_2_24" transform="matrix(16,0,0,-16,110.548007,98.89697)"/>
<use data-text="a" xlink:href="#font_2_13" transform="matrix(16,0,0,-16,119.447208,98.89697)"/>
<use data-text="d" xlink:href="#font_2_16" transform="matrix(16,0,0,-16,128.3464,98.89697)"/>
<use data-text="&#xfffd;" xlink:href="#font_3_1" transform="matrix(16,0,0,-16,137.2456,98.89697)"/>
<use data-text="(" xlink:href="#font_2_2" transform="matrix(16,0,0,-16,33.42162,117.89697)"/>
<use data-text="a" xlink:href="#font_2_13" transform="matrix(16,0,0,-16,38.74962,117.89697)"/>
<use data-text="l" xlink:href="#font_2_22" transform="matrix(16,0,0,-16,47.64882,117.89697)"/>
<use data-text="l" xlink:href="#font_2_22" transform="matrix(16,0,0,-16,51.20402,117.89697)"/>
<use data-text="o" xlink:href="#font_2_24" transform="matrix(16,0,0,-16,54.759225,117.89697)"/>
<use data-text="c" xlink:href="#font_2_15" transform="matrix(16,0,0,-16,63.658426,117.89697)"/>
<use data-text="a" xlink:href="#font_2_13" transform="matrix(16,0,0,-16,71.658428,117.89697)"/>
<use data-text="t" xlink:href="#font_2_28" transform="matrix(16,0,0,-16,80.557628,117.89697)"/>
<use data-text="e" xlink:href="#font_2_17" transform="matrix(16,0,0,-16,85.002429,117.89697)"/>
<use data-text="d" xlink:href="#font_2_16" transform="matrix(16,0,0,-16,93.90163,117.89697)"/>
<use data-text=" " xlink:href="#font_2_1" transform="matrix(16,0,0,-16,102.80083,117.89697)"/>
<use data-text="b" xlink:href="#font_2_14" transform="matrix(16,0,0,-16,107.24562,117.89697)"/>
<use data-text="l" xlink:href="#font_2_22" transform="matrix(16,0,0,-16,116.14482,117.89697)"/>
<use data-text="o" xlink:href="#font_2_24" transform="matrix(16,0,0,-16,119.70003,117.89697)"/>
<use data-text="c" xlink:href="#font_2_15" transform="matrix(16,0,0,-16,128.59923,117.89697)"/>
<use data-text="k" xlink:href="#font_2_21" transform="matrix(16,0,0,-16,136.59923,117.89697)"/>
<use data-text=" " xlink:href="#font_2_1" transform="matrix(16,0,0,-16,144.59923,117.89697)"/>
<use data-text="o" xlink:href="#font_2_24" transform="matrix(16,0,0,-16,149.04402,117.89697)"/>
<use data-text="n" xlink:href="#font_2_23" transform="matrix(16,0,0,-16,157.94322,117.89697)"/>
<use data-text="l" xlink:href="#font_2_22" transform="matrix(16,0,0,-16,166.84243,117.89697)"/>
<use data-text="y" xlink:href="#font_2_29" transform="matrix(16,0,0,-16,170.39763,117.89697)"/>
<use data-text=")" xlink:href="#font_2_3" transform="matrix(16,0,0,-16,178.39763,117.89697)"/>
<use data-text="&#xfffd;" xlink:href="#font_3_1" transform="matrix(16,0,0,-16,183.72563,117.89697)"/>
<path transform="matrix(1,0,0,-1,-.778381,539.222)" d="M163 527.2499H204.625V497.2499H163Z" fill="#ffffff" fill-rule="evenodd"/>
<path transform="matrix(.00007874014,0,0,.00007874014,162.22162,11.972107)" stroke-width="12700" stroke-linecap="butt" stroke-miterlimit="8" stroke-linejoin="miter" fill="none" stroke="#000000" d="M-.06921393 .2453614H528637.9V381000.3H-.06921393Z"/>
<use data-text="a" xlink:href="#font_2_13" transform="matrix(16,0,0,-16,174.42162,33.37207)"/>
<use data-text="/" xlink:href="#font_2_4" transform="matrix(16,0,0,-16,183.32082,33.37207)"/>
<use data-text="f" xlink:href="#font_2_18" transform="matrix(16,0,0,-16,187.77202,33.37207)"/>
<use data-text="&#xfffd;" xlink:href="#font_3_1" transform="matrix(16,0,0,-16,192.22322,33.37207)"/>
<use data-text="0" xlink:href="#font_2_5" transform="matrix(10,0,0,-10,197.42162,7.722107)"/>
<use data-text="&#xfffd;" xlink:href="#font_3_1" transform="matrix(10,0,0,-10,202.98361,7.722107)"/>
<use data-text="3" xlink:href="#font_2_8" transform="matrix(10,0,0,-10,12.421618,7.722107)"/>
<use data-text="1" xlink:href="#font_2_6" transform="matrix(10,0,0,-10,17.98362,7.722107)"/>
<use data-text="&#xfffd;" xlink:href="#font_3_1" transform="matrix(10,0,0,-10,23.54562,7.722107)"/>
<use data-text="1" xlink:href="#font_2_6" transform="matrix(10,0,0,-10,179.42162,7.722107)"/>
<use data-text="&#xfffd;" xlink:href="#font_3_1" transform="matrix(10,0,0,-10,184.98361,7.722107)"/>
<use data-text="2" xlink:href="#font_2_7" transform="matrix(10,0,0,-10,167.42162,7.722107)"/>
<use data-text="&#xfffd;" xlink:href="#font_3_1" transform="matrix(10,0,0,-10,172.98361,7.722107)"/>
<use data-text="3" xlink:href="#font_2_8" transform="matrix(10,0,0,-10,151.42162,7.722107)"/>
<use data-text="&#xfffd;" xlink:href="#font_3_1" transform="matrix(10,0,0,-10,156.98361,7.722107)"/>
<path transform="matrix(1,0,0,-1,-.778381,539.222)" d="M13.62504 377H204.625V318H13.62504Z" fill="#ffffff" fill-rule="evenodd"/>
<g clip-path="url(#clip_4)">
<rect transform="matrix(1,0,0,-1,54.478719,660.27749)" fill="url(#pattern_5)" x="-41.632059" y="439.05549" width="190.99997" height="59"/>
</g>
<path transform="matrix(.00007874014,0,0,.00007874014,12.846659,162.22199)" stroke-width="12700" stroke-linecap="butt" stroke-miterlimit="8" stroke-linejoin="miter" fill="none" stroke="#000000" d="M-.00103371 .1512452H2425700V749300.2H-.00103371Z"/>
<use data-text="P" xlink:href="#font_2_12" transform="matrix(16,0,0,-16,43.046659,198.12198)"/>
<use data-text="a" xlink:href="#font_2_13" transform="matrix(16,0,0,-16,53.71866,198.12198)"/>
<use data-text="d" xlink:href="#font_2_16" transform="matrix(16,0,0,-16,62.61786,198.12198)"/>
<use data-text="d" xlink:href="#font_2_16" transform="matrix(16,0,0,-16,71.51706,198.12198)"/>
<use data-text="i" xlink:href="#font_2_20" transform="matrix(16,0,0,-16,80.41626,198.12198)"/>
<use data-text="n" xlink:href="#font_2_23" transform="matrix(16,0,0,-16,83.971469,198.12198)"/>
<use data-text="g" xlink:href="#font_2_19" transform="matrix(16,0,0,-16,92.87067,198.12198)"/>
<use data-text=" " xlink:href="#font_2_1" transform="matrix(16,0,0,-16,101.76987,198.12198)"/>
<use data-text="(" xlink:href="#font_2_2" transform="matrix(16,0,0,-16,106.21466,198.12198)"/>
<use data-text="o" xlink:href="#font_2_24" transform="matrix(16,0,0,-16,111.54266,198.12198)"/>
<use data-text="p" xlink:href="#font_2_25" transform="matrix(16,0,0,-16,120.441867,198.12198)"/>
<use data-text="t" xlink:href="#font_2_28" transform="matrix(16,0,0,-16,129.34107,198.12198)"/>
<use data-text="i" xlink:href="#font_2_20" transform="matrix(16,0,0,-16,133.78588,198.12198)"/>
<use data-text="o" xlink:href="#font_2_24" transform="matrix(16,0,0,-16,137.34107,198.12198)"/>
<use data-text="n" xlink:href="#font_2_23" transform="matrix(16,0,0,-16,146.24027,198.12198)"/>
<use data-text="a" xlink:href="#font_2_13" transform="matrix(16,0,0,-16,155.13947,198.12198)"/>
<use data-text="l" xlink:href="#font_2_22" transform="matrix(16,0,0,-16,164.03867,198.12198)"/>
<use data-text=")" xlink:href="#font_2_3" transform="matrix(16,0,0,-16,167.59387,198.12198)"/>
<use data-text="&#xfffd;" xlink:href="#font_3_1" transform="matrix(16,0,0,-16,172.92188,198.12198)"/>
<path transform="matrix(1,0,0,-1,-.778381,539.222)" d="M13.62504 318H162.625V288H13.62504Z" fill="#ffffff" fill-rule="evenodd"/>
<path transform="matrix(.00007874014,0,0,.00007874014,12.846659,221.22199)" stroke-width="12700" stroke-linecap="butt" stroke-miterlimit="8" stroke-linejoin="miter" fill="none" stroke="#000000" d="M-.00103371 .01647955H1892300V381000.1H-.00103371Z"/>
<use data-text="B" xlink:href="#font_2_9" transform="matrix(16,0,0,-16,51.046659,242.62198)"/>
<use data-text="l" xlink:href="#font_2_22" transform="matrix(16,0,0,-16,61.71866,242.62198)"/>
<use data-text="o" xlink:href="#font_2_24" transform="matrix(16,0,0,-16,65.27386,242.62198)"/>
<use data-text="c" xlink:href="#font_2_15" transform="matrix(16,0,0,-16,74.17306,242.62198)"/>
<use data-text="k" xlink:href="#font_2_21" transform="matrix(16,0,0,-16,82.17306,242.62198)"/>
<use data-text=" " xlink:href="#font_2_1" transform="matrix(16,0,0,-16,90.173069,242.62198)"/>
<use data-text="s" xlink:href="#font_2_27" transform="matrix(16,0,0,-16,94.61786,242.62198)"/>
<use data-text="i" xlink:href="#font_2_20" transform="matrix(16,0,0,-16,102.61786,242.62198)"/>
<use data-text="z" xlink:href="#font_2_30" transform="matrix(16,0,0,-16,106.173069,242.62198)"/>
<use data-text="e" xlink:href="#font_2_17" transform="matrix(16,0,0,-16,114.173069,242.62198)"/>
<use data-text="&#xfffd;" xlink:href="#font_3_1" transform="matrix(16,0,0,-16,123.072269,242.62198)"/>
<path transform="matrix(1,0,0,-1,-.778381,539.222)" d="M162.625 318H204.625V288H162.625Z" fill="#ffffff" fill-rule="evenodd"/>
<path transform="matrix(.00007874014,0,0,.00007874014,161.84662,221.22199)" stroke-width="12700" stroke-linecap="butt" stroke-miterlimit="8" stroke-linejoin="miter" fill="none" stroke="#000000" d="M.0114136 .01647955H533400.1V381000.1H.0114136Z"/>
<use data-text="a" xlink:href="#font_2_13" transform="matrix(16,0,0,-16,174.04662,242.62198)"/>
<use data-text="/" xlink:href="#font_2_4" transform="matrix(16,0,0,-16,182.94582,242.62198)"/>
<use data-text="f" xlink:href="#font_2_18" transform="matrix(16,0,0,-16,187.39702,242.62198)"/>
<use data-text="&#xfffd;" xlink:href="#font_3_1" transform="matrix(16,0,0,-16,191.84822,242.62198)"/>
<use data-text="H" xlink:href="#font_2_11" transform="matrix(16,0,0,-16,214.79662,32.37207)"/>
<use data-text="e" xlink:href="#font_2_17" transform="matrix(16,0,0,-16,226.35182,32.37207)"/>
<use data-text="a" xlink:href="#font_2_13" transform="matrix(16,0,0,-16,235.25102,32.37207)"/>
<use data-text="d" xlink:href="#font_2_16" transform="matrix(16,0,0,-16,244.15023,32.37207)"/>
<use data-text="e" xlink:href="#font_2_17" transform="matrix(16,0,0,-16,253.04943,32.37207)"/>
<use data-text="r" xlink:href="#font_2_26" transform="matrix(16,0,0,-16,261.9486,32.37207)"/>
<use data-text="&#xfffd;" xlink:href="#font_3_1" transform="matrix(16,0,0,-16,267.2766,32.37207)"/>
<use data-text="F" xlink:href="#font_2_10" transform="matrix(16,0,0,-16,213.42162,240.87198)"/>
<use data-text="o" xlink:href="#font_2_24" transform="matrix(16,0,0,-16,223.19441,240.87198)"/>
<use data-text="o" xlink:href="#font_2_24" transform="matrix(16,0,0,-16,232.09362,240.87198)"/>
<use data-text="t" xlink:href="#font_2_28" transform="matrix(16,0,0,-16,240.99282,240.87198)"/>
<use data-text="e" xlink:href="#font_2_17" transform="matrix(16,0,0,-16,245.43762,240.87198)"/>
<use data-text="r" xlink:href="#font_2_26" transform="matrix(16,0,0,-16,254.33683,240.87198)"/>
<use data-text="&#xfffd;" xlink:href="#font_3_1" transform="matrix(16,0,0,-16,259.66484,240.87198)"/>
<use data-text="a" xlink:href="#font_6_8" transform="matrix(16,0,0,-16,290.92164,21.07196)"/>
<use data-text=" " xlink:href="#font_6_1" transform="matrix(16,0,0,-16,299.82084,21.07196)"/>
<use data-text="=" xlink:href="#font_6_5" transform="matrix(16,0,0,-16,304.26564,21.07196)"/>
<use data-text=" " xlink:href="#font_6_1" transform="matrix(16,0,0,-16,313.60963,21.07196)"/>
<use data-text="0" xlink:href="#font_6_2" transform="matrix(16,0,0,-16,318.05445,21.07196)"/>
<use data-text="0" xlink:href="#font_6_2" transform="matrix(16,0,0,-16,326.95365,21.07196)"/>
<use data-text="1" xlink:href="#font_6_3" transform="matrix(16,0,0,-16,335.85285,21.07196)"/>
<use data-text=":" xlink:href="#font_6_4" transform="matrix(16,0,0,-16,344.75205,21.07196)"/>
<use data-text=" " xlink:href="#font_6_1" transform="matrix(16,0,0,-16,349.19685,21.07196)"/>
<use data-text="A" xlink:href="#font_6_6" transform="matrix(16,0,0,-16,352.76646,21.07196)"/>
<use data-text="l" xlink:href="#font_6_13" transform="matrix(16,0,0,-16,363.43846,21.07196)"/>
<use data-text="l" xlink:href="#font_6_13" transform="matrix(16,0,0,-16,366.99366,21.07196)"/>
<use data-text="o" xlink:href="#font_6_14" transform="matrix(16,0,0,-16,370.54884,21.07196)"/>
<use data-text="c" xlink:href="#font_6_9" transform="matrix(16,0,0,-16,379.44804,21.07196)"/>
<use data-text="a" xlink:href="#font_6_8" transform="matrix(16,0,0,-16,387.44804,21.07196)"/>
<use data-text="t" xlink:href="#font_6_16" transform="matrix(16,0,0,-16,396.34724,21.07196)"/>
<use data-text="e" xlink:href="#font_6_11" transform="matrix(16,0,0,-16,400.79206,21.07196)"/>
<use data-text="d" xlink:href="#font_6_10" transform="matrix(16,0,0,-16,409.69123,21.07196)"/>
<use data-text=" " xlink:href="#font_6_1" transform="matrix(16,0,0,-16,418.59046,21.07196)"/>
<use data-text="&#xfffd;" xlink:href="#font_7_1" transform="matrix(16,0,0,-16,423.03523,21.07196)"/>
<use data-text="f" xlink:href="#font_6_12" transform="matrix(16,0,0,-16,290.92164,40.07196)"/>
<use data-text=" " xlink:href="#font_6_1" transform="matrix(16,0,0,-16,295.36643,40.07196)"/>
<use data-text="=" xlink:href="#font_6_5" transform="matrix(16,0,0,-16,299.81123,40.07196)"/>
<use data-text=" " xlink:href="#font_6_1" transform="matrix(16,0,0,-16,309.15525,40.07196)"/>
<use data-text="0" xlink:href="#font_6_2" transform="matrix(16,0,0,-16,313.60005,40.07196)"/>
<use data-text="0" xlink:href="#font_6_2" transform="matrix(16,0,0,-16,322.49925,40.07196)"/>
<use data-text="0" xlink:href="#font_6_2" transform="matrix(16,0,0,-16,331.39845,40.07196)"/>
<use data-text=":" xlink:href="#font_6_4" transform="matrix(16,0,0,-16,340.29765,40.07196)"/>
<use data-text=" " xlink:href="#font_6_1" transform="matrix(16,0,0,-16,344.74244,40.07196)"/>
<use data-text="F" xlink:href="#font_6_7" transform="matrix(16,0,0,-16,349.18724,40.07196)"/>
<use data-text="r" xlink:href="#font_6_15" transform="matrix(16,0,0,-16,358.96003,40.07196)"/>
<use data-text="e" xlink:href="#font_6_11" transform="matrix(16,0,0,-16,364.28804,40.07196)"/>
<use data-text="e" xlink:href="#font_6_11" transform="matrix(16,0,0,-16,373.18727,40.07196)"/>
<use data-text="&#xfffd;" xlink:href="#font_7_1" transform="matrix(16,0,0,-16,382.08644,40.07196)"/>
</g>
</g>
</svg>
