<svg xmlns="http://www.w3.org/2000/svg" xmlns:xlink="http://www.w3.org/1999/xlink" version="1.1" width="379.847pt" height="242.074pt" viewBox="0 0 379.847 242.074">
<defs>
<clipPath id="clip_0">
<path transform="matrix(1,0,0,-1,0,540)" d="M0 297.926H379.847V540H0Z" fill-rule="evenodd"/>
</clipPath>
<clipPath id="clip_1">
<path transform="matrix(1,0,0,-1,0,540)" d="M0 .00002324581H719.9999V540H0Z"/>
</clipPath>
<path id="font_2_6" d="M.064453128 .5234375H.15136719V.44921876C.17220052 .4749349 .19108074 .49365235 .20800781 .5053711 .23697917 .52522787 .26985679 .53515627 .30664063 .53515627 .34830729 .53515627 .38183595 .52490237 .40722657 .50439456 .42154948 .49267579 .4345703 .4754232 .44628907 .45263673 .4658203 .4806315 .48876954 .5013835 .5151367 .5148926 .5415039 .5284017 .5711263 .53515627 .6040039 .53515627 .6743164 .53515627 .72216799 .5097402 .7475586 .45890809 .76123049 .43154399 .7680664 .3947296 .7680664 .34846498V0H.6767578V.36367799C.6767578 .39853923 .6680501 .42248536 .65063479 .43551637 .6332194 .44855754 .6119792 .45507813 .58691409 .45507813 .5524089 .45507813 .5227051 .44350688 .49780274 .42036439 .4729004 .39723207 .46044923 .35861717 .46044923 .30451966V0H.37109376V.3416748C.37109376 .37719728 .36686198 .4031016 .35839845 .41938783 .3450521 .4438324 .32014976 .4560547 .2836914 .4560547 .25048829 .4560547 .22029622 .44318138 .19311524 .4174347 .16593425 .3916982 .15234375 .34510295 .15234375 .27764894V0H.064453128V.5234375Z"/>
<path id="font_2_2" d="M.095703128 .4951172V.5625C.15917969 .5686849 .20345052 .5790202 .22851563 .59350588 .25358073 .6079915 .2722982 .6422526 .28466798 .69628909H.3540039V0H.2602539V.4951172H.095703128Z"/>
<path id="font_3_1" d="M0 0Z"/>
<path id="font_2_4" d="M.13183594 .1394043C.13183594 .114095058 .14111328 .09413656 .15966797 .07952881 .17822266 .06492106 .20019531 .057617189 .22558594 .057617189 .2565104 .057617189 .28645835 .06471761 .3154297 .07891846 .3642578 .10247803 .38867188 .14127605 .38867188 .1953125V.26611329C.3779297 .25886027 .36409507 .2528127 .34716798 .24797058 .33024089 .24313863 .3136393 .23983257 .29736329 .23805237L.24414063 .23184204C.21223958 .22799683 .1883138 .22153218 .17236328 .21244812 .14534505 .19718933 .13183594 .17284139 .13183594 .1394043M.34472657 .31689454C.36490885 .3194987 .37841798 .32796226 .3852539 .34228517 .38916017 .35012818 .39111329 .36140443 .39111329 .3761139 .39111329 .40618388 .38045249 .42799888 .35913087 .44155885 .33780924 .455129 .30729167 .46191407 .26757813 .46191407 .22167969 .46191407 .18912761 .44948326 .16992188 .42462159 .15917969 .4108785 .15218099 .39043174 .14892578 .36328126H.06689453C.06852213 .42791749 .08943685 .47288514 .12963867 .4981842 .1698405 .5234833 .21647136 .5361328 .26953126 .5361328 .3310547 .5361328 .38102214 .52441409 .4194336 .50097659 .45751954 .47753907 .4765625 .4410502 .4765625 .39151V.08985901C.4765625 .08073425 .47843424 .073404949 .48217774 .067871097 .48592124 .06233724 .4938151 .059570314 .5058594 .059570314 .5097656 .059570314 .51416018 .059814454 .51904299 .060302736 .5239258 .060791017 .5291341 .061523439 .53466799 .0625V-.0028076173C.5209961-.00676473 .5105794-.009236653 .50341799-.010223389 .4962565-.011220296 .48649089-.01171875 .4741211-.01171875 .44384767-.01171875 .421875-.0009104411 .40820313 .020706177 .40104167 .032170614 .3959961 .048380536 .3930664 .06933594 .37516276 .045633954 .34944663 .025060019 .31591798 .0076141359 .2823893-.009831746 .2454427-.018554688 .20507813-.018554688 .15657552-.018554688 .11694336-.0037790936 .08618164 .025772095 .055419923 .055323285 .040039064 .092300418 .040039064 .13670349 .040039064 .18535869 .05517578 .22307332 .08544922 .24984741 .115722659 .2766215 .1554362 .29311119 .20458985 .2993164L.34472657 .31689454M.27197267 .5361328V.5361328Z"/>
<path id="font_2_7" d="M.064453128 .5234375H.14794922V.44921876C.1726888 .47981773 .19889324 .50179037 .2265625 .5151367 .25423179 .5284831 .2849935 .53515627 .31884767 .53515627 .3930664 .53515627 .44319663 .5092519 .46923829 .45744325 .4835612 .42910258 .49072267 .38853965 .49072267 .3357544V0H.4013672V.3299408C.4013672 .36188255 .39664714 .38762919 .38720704 .4071808 .37158204 .4397634 .34326173 .4560547 .3022461 .4560547 .28141276 .4560547 .2643229 .4539388 .25097657 .44970704 .22688802 .4425354 .20572917 .42819724 .1875 .4066925 .17285156 .38941957 .16333008 .37157694 .15893555 .35316468 .15454102 .3347524 .15234375 .30844117 .15234375 .27423097V0H.064453128V.5234375M.2709961 .5361328V.5361328Z"/>
<path id="font_2_1" d="M.044921876 .21289063V.29492188H.2578125V.5097656H.3413086V.29492188H.5541992V.21289063H.3413086V0H.2578125V.21289063H.044921876Z"/>
<path id="font_2_3" d="M.03125 0C.034505208 .060221357 .04695638 .11263021 .068603519 .15722656 .09025065 .20182292 .13248699 .24235027 .1953125 .2788086L.2890625 .3330078C.3310547 .35742188 .3605143 .3782908 .3774414 .39561463 .40413413 .4227346 .41748048 .45377604 .41748048 .488739 .41748048 .52959188 .40527345 .562027 .38085938 .5860443 .3564453 .61006167 .32389323 .6220703 .28320313 .6220703 .22298177 .6220703 .18131511 .5991516 .15820313 .5533142 .14583333 .52875778 .13899739 .4947103 .13769531 .45117188H.048339845C.049316408 .5121663 .060546876 .5619049 .08203125 .6003876 .12011719 .66822817 .18733724 .70214846 .2836914 .70214846 .36376954 .70214846 .4222819 .68047079 .45922853 .6371155 .49617515 .5937703 .51464846 .5455373 .51464846 .49241639 .51464846 .4363556 .49495445 .388443 .4555664 .3486786 .43277995 .3255361 .3919271 .29752604 .3330078 .26464845L.26611329 .22753906C.23421224 .20996094 .20914714 .19319661 .19091797 .1772461 .15836589 .14892578 .13785808 .11751302 .12939453 .08300781H.51123049V0H.03125Z"/>
<path id="font_2_5" d="M.08642578 .6021576C.08772787 .638443 .09407552 .66500857 .10546875 .68185427 .12597656 .7116597 .16552735 .7265625 .2241211 .7265625 .22965496 .7265625 .23535156 .7263997 .24121094 .7260742 .24707031 .7257487 .2537435 .72526046 .26123048 .7246094V.64453127C.25211589 .6449687 .2455241 .6452382 .24145508 .64533999 .23738607 .64545187 .2335612 .6455078 .22998047 .6455078 .20328777 .6455078 .18733724 .6386719 .1821289 .625 .17692058 .6113281 .1743164 .5764974 .1743164 .5205078H.26123048V.45117188H.17333985V0H.08642578V.45117188H.013671875V.5205078H.08642578V.6021576Z"/>
</defs>
<g clip-path="url(#clip_0)">
<g clip-path="url(#clip_1)">
<path transform="matrix(1,0,0,-1,0,540)" d="M0 539.9999H719.9999V.00003079383H0Z" fill="#ffffff" fill-rule="evenodd"/>
<path transform="matrix(1,0,0,-1,0,540)" d="M228 533.9999H329.9999V509.9999H228Z" fill="#ffffff" fill-rule="evenodd"/>
<path transform="matrix(.00007874014,0,0,.00007874014,228,6.000122)" stroke-width="12700" stroke-linecap="butt" stroke-miterlimit="8" stroke-linejoin="miter" fill="none" stroke="#000000" d="M.0577392 .2321779H1295400V304800.3H.0577392Z"/>
<use data-text="m" xlink:href="#font_2_6" transform="matrix(16,0,0,-16,268.2,24.400086)"/>
<use data-text="1" xlink:href="#font_2_2" transform="matrix(16,0,0,-16,281.528,24.400086)"/>
<use data-text="&#xfffd;" xlink:href="#font_3_1" transform="matrix(16,0,0,-16,290.42723,24.400086)"/>
<path transform="matrix(1,0,0,-1,0,540)" d="M329.9999 533.9999H359.9999V509.9999H329.9999Z" fill="#ffffff" fill-rule="evenodd"/>
<path transform="matrix(.00007874014,0,0,.00007874014,329.9999,6.000122)" stroke-width="12700" stroke-linecap="butt" stroke-miterlimit="8" stroke-linejoin="miter" fill="none" stroke="#000000" d="M-.1306154 .2321779H380999.9V304800.3H-.1306154Z"/>
<use data-text="a" xlink:href="#font_2_4" transform="matrix(16,0,0,-16,340.2,24.400086)"/>
<use data-text="&#xfffd;" xlink:href="#font_3_1" transform="matrix(16,0,0,-16,349.0992,24.400086)"/>
<path transform="matrix(1,0,0,-1,0,540)" d="M228 509.9999H359.9999V485.9999H228Z" fill="#ffffff" fill-rule="evenodd"/>
<path transform="matrix(.00007874014,0,0,.00007874014,228,30.000092)" stroke-width="12700" stroke-linecap="butt" stroke-miterlimit="8" stroke-linejoin="miter" fill="none" stroke="#000000" d="M.0577392 .2790529H1676400V304800.3H.0577392Z"/>
<path transform="matrix(1,0,0,-1,0,540)" d="M228 485.9999H359.9999V461.9999H228Z" fill="#ffffff" fill-rule="evenodd"/>
<path transform="matrix(.00007874014,0,0,.00007874014,228,54.00009)" stroke-width="12700" stroke-linecap="butt" stroke-miterlimit="8" stroke-linejoin="miter" fill="none" stroke="#000000" d="M.0577392 .3259279H1676400V304800.4H.0577392Z"/>
<path transform="matrix(1,0,0,-1,0,540)" d="M228 485.9999H329.9999V461.9999H228Z" fill="#ffffff" fill-rule="evenodd"/>
<path transform="matrix(.00007874014,0,0,.00007874014,228,54.00009)" stroke-width="12700" stroke-linecap="butt" stroke-miterlimit="8" stroke-linejoin="miter" fill="none" stroke="#000000" d="M.0577392 .3259279H1295400V304800.4H.0577392Z"/>
<use data-text="m" xlink:href="#font_2_6" transform="matrix(16,0,0,-16,268.2,72.400089)"/>
<use data-text="1" xlink:href="#font_2_2" transform="matrix(16,0,0,-16,281.528,72.400089)"/>
<use data-text="&#xfffd;" xlink:href="#font_3_1" transform="matrix(16,0,0,-16,290.42723,72.400089)"/>
<path transform="matrix(1,0,0,-1,0,540)" d="M329.9999 485.9999H359.9999V461.9999H329.9999Z" fill="#ffffff" fill-rule="evenodd"/>
<path transform="matrix(.00007874014,0,0,.00007874014,329.9999,54.00009)" stroke-width="12700" stroke-linecap="butt" stroke-miterlimit="8" stroke-linejoin="miter" fill="none" stroke="#000000" d="M-.1306154 .3259279H380999.9V304800.4H-.1306154Z"/>
<use data-text="a" xlink:href="#font_2_4" transform="matrix(16,0,0,-16,340.2,72.400089)"/>
<use data-text="&#xfffd;" xlink:href="#font_3_1" transform="matrix(16,0,0,-16,349.0992,72.400089)"/>
<path transform="matrix(.00007874014,0,0,.00007874014,228,6.000122)" stroke-width="38100" stroke-linecap="butt" stroke-miterlimit="8" stroke-linejoin="miter" fill="none" stroke="#000000" d="M.0577392 .2321779H1676400V914400.4H.0577392Z"/>
<path transform="matrix(1,0,0,-1,0,540)" d="M228 461.9999H329.9999V437.9999H228Z" fill="#ffffff" fill-rule="evenodd"/>
<path transform="matrix(.00007874014,0,0,.00007874014,228,78.00009)" stroke-width="12700" stroke-linecap="butt" stroke-miterlimit="8" stroke-linejoin="miter" fill="none" stroke="#000000" d="M.0577392-.1271971H1295400V304799.9H.0577392Z"/>
<use data-text="n" xlink:href="#font_2_7" transform="matrix(16,0,0,-16,258.2,96.400089)"/>
<use data-text="+" xlink:href="#font_2_1" transform="matrix(16,0,0,-16,267.0992,96.400089)"/>
<use data-text="m" xlink:href="#font_2_6" transform="matrix(16,0,0,-16,276.4432,96.400089)"/>
<use data-text="2" xlink:href="#font_2_3" transform="matrix(16,0,0,-16,289.7712,96.400089)"/>
<use data-text="&#xfffd;" xlink:href="#font_3_1" transform="matrix(16,0,0,-16,298.6704,96.400089)"/>
<path transform="matrix(1,0,0,-1,0,540)" d="M329.9999 461.9999H359.9999V437.9999H329.9999Z" fill="#ffffff" fill-rule="evenodd"/>
<path transform="matrix(.00007874014,0,0,.00007874014,329.9999,78.00009)" stroke-width="12700" stroke-linecap="butt" stroke-miterlimit="8" stroke-linejoin="miter" fill="none" stroke="#000000" d="M-.1306154-.1271971H380999.9V304799.9H-.1306154Z"/>
<use data-text="f" xlink:href="#font_2_5" transform="matrix(16,0,0,-16,343.2,96.400089)"/>
<use data-text="&#xfffd;" xlink:href="#font_3_1" transform="matrix(16,0,0,-16,347.6448,96.400089)"/>
<path transform="matrix(1,0,0,-1,0,540)" d="M228 342H359.9999V318H228Z" fill="#ffffff" fill-rule="evenodd"/>
<path transform="matrix(.00007874014,0,0,.00007874014,228,198)" stroke-width="12700" stroke-linecap="butt" stroke-miterlimit="8" stroke-linejoin="miter" fill="none" stroke="#000000" d="M.0577392 .2196046H1676400V304800.3H.0577392Z"/>
<path transform="matrix(1,0,0,-1,0,540)" d="M228 342H329.9999V318H228Z" fill="#ffffff" fill-rule="evenodd"/>
<path transform="matrix(.00007874014,0,0,.00007874014,228,198)" stroke-width="12700" stroke-linecap="butt" stroke-miterlimit="8" stroke-linejoin="miter" fill="none" stroke="#000000" d="M.0577392 .2196046H1295400V304800.3H.0577392Z"/>
<use data-text="n" xlink:href="#font_2_7" transform="matrix(16,0,0,-16,258.2,216.4)"/>
<use data-text="+" xlink:href="#font_2_1" transform="matrix(16,0,0,-16,267.0992,216.4)"/>
<use data-text="m" xlink:href="#font_2_6" transform="matrix(16,0,0,-16,276.4432,216.4)"/>
<use data-text="2" xlink:href="#font_2_3" transform="matrix(16,0,0,-16,289.7712,216.4)"/>
<use data-text="&#xfffd;" xlink:href="#font_3_1" transform="matrix(16,0,0,-16,298.6704,216.4)"/>
<path transform="matrix(1,0,0,-1,0,540)" d="M329.9999 342H359.9999V318H329.9999Z" fill="#ffffff" fill-rule="evenodd"/>
<path transform="matrix(.00007874014,0,0,.00007874014,329.9999,198)" stroke-width="12700" stroke-linecap="butt" stroke-miterlimit="8" stroke-linejoin="miter" fill="none" stroke="#000000" d="M-.1306154 .2196046H380999.9V304800.3H-.1306154Z"/>
<use data-text="f" xlink:href="#font_2_5" transform="matrix(16,0,0,-16,343.2,216.4)"/>
<use data-text="&#xfffd;" xlink:href="#font_3_1" transform="matrix(16,0,0,-16,347.6448,216.4)"/>
<path transform="matrix(1,0,0,-1,0,540)" d="M6 533.9999H108V509.9999H6Z" fill="#ffffff" fill-rule="evenodd"/>
<path transform="matrix(.00007874014,0,0,.00007874014,6,6.000122)" stroke-width="12700" stroke-linecap="butt" stroke-miterlimit="8" stroke-linejoin="miter" fill="none" stroke="#000000" d="M-.002149583 .2321779H1295400V304800.3H-.002149583Z"/>
<use data-text="m" xlink:href="#font_2_6" transform="matrix(16,0,0,-16,46.2,24.400086)"/>
<use data-text="1" xlink:href="#font_2_2" transform="matrix(16,0,0,-16,59.528,24.400086)"/>
<use data-text="&#xfffd;" xlink:href="#font_3_1" transform="matrix(16,0,0,-16,68.4272,24.400086)"/>
<path transform="matrix(1,0,0,-1,0,540)" d="M108 533.9999H138V509.9999H108Z" fill="#ffffff" fill-rule="evenodd"/>
<path transform="matrix(.00007874014,0,0,.00007874014,108,6.000122)" stroke-width="12700" stroke-linecap="butt" stroke-miterlimit="8" stroke-linejoin="miter" fill="none" stroke="#000000" d="M.01715085 .2321779H381000.1V304800.3H.01715085Z"/>
<use data-text="a" xlink:href="#font_2_4" transform="matrix(16,0,0,-16,118.2,24.400086)"/>
<use data-text="&#xfffd;" xlink:href="#font_3_1" transform="matrix(16,0,0,-16,127.0992,24.400086)"/>
<path transform="matrix(1,0,0,-1,0,540)" d="M6 509.9999H138V485.9999H6Z" fill="#ffffff" fill-rule="evenodd"/>
<path transform="matrix(.00007874014,0,0,.00007874014,6,30.000092)" stroke-width="12700" stroke-linecap="butt" stroke-miterlimit="8" stroke-linejoin="miter" fill="none" stroke="#000000" d="M-.002149583 .2790529H1676400V304800.3H-.002149583Z"/>
<path transform="matrix(1,0,0,-1,0,540)" d="M6 485.9999H138V461.9999H6Z" fill="#ffffff" fill-rule="evenodd"/>
<path transform="matrix(.00007874014,0,0,.00007874014,6,54.00009)" stroke-width="12700" stroke-linecap="butt" stroke-miterlimit="8" stroke-linejoin="miter" fill="none" stroke="#000000" d="M-.002149583 .3259279H1676400V304800.4H-.002149583Z"/>
<path transform="matrix(1,0,0,-1,0,540)" d="M6 485.9999H108V461.9999H6Z" fill="#ffffff" fill-rule="evenodd"/>
<path transform="matrix(.00007874014,0,0,.00007874014,6,54.00009)" stroke-width="12700" stroke-linecap="butt" stroke-miterlimit="8" stroke-linejoin="miter" fill="none" stroke="#000000" d="M-.002149583 .3259279H1295400V304800.4H-.002149583Z"/>
<use data-text="m" xlink:href="#font_2_6" transform="matrix(16,0,0,-16,46.2,72.400089)"/>
<use data-text="1" xlink:href="#font_2_2" transform="matrix(16,0,0,-16,59.528,72.400089)"/>
<use data-text="&#xfffd;" xlink:href="#font_3_1" transform="matrix(16,0,0,-16,68.4272,72.400089)"/>
<path transform="matrix(1,0,0,-1,0,540)" d="M108 485.9999H138V461.9999H108Z" fill="#ffffff" fill-rule="evenodd"/>
<path transform="matrix(.00007874014,0,0,.00007874014,108,54.00009)" stroke-width="12700" stroke-linecap="butt" stroke-miterlimit="8" stroke-linejoin="miter" fill="none" stroke="#000000" d="M.01715085 .3259279H381000.1V304800.4H.01715085Z"/>
<use data-text="a" xlink:href="#font_2_4" transform="matrix(16,0,0,-16,118.2,72.400089)"/>
<use data-text="&#xfffd;" xlink:href="#font_3_1" transform="matrix(16,0,0,-16,127.0992,72.400089)"/>
<path transform="matrix(.00007874014,0,0,.00007874014,6,6.000122)" stroke-width="38100" stroke-linecap="butt" stroke-miterlimit="8" stroke-linejoin="miter" fill="none" stroke="#000000" d="M-.002149583 .2321779H1676400V914400.4H-.002149583Z"/>
<path transform="matrix(.00007874014,0,0,.00007874014,71.99999,186)" stroke-width="12700" stroke-linecap="butt" stroke-linejoin="round" fill="none" stroke="#000000" d="M-.01876833 .1961671V431800.2"/>
<path transform="matrix(1,0,0,-1,0,540)" d="M74.99999 324 71.99999 318 68.99999 324Z" fill-rule="evenodd"/>
<path transform="matrix(1,0,0,-1,0,540)" d="M6 461.9999H108V437.9999H6Z" fill="#ffffff" fill-rule="evenodd"/>
<path transform="matrix(.00007874014,0,0,.00007874014,6,78.00009)" stroke-width="12700" stroke-linecap="butt" stroke-miterlimit="8" stroke-linejoin="miter" fill="none" stroke="#000000" d="M-.002149583-.1271971H1295400V304799.9H-.002149583Z"/>
<use data-text="n" xlink:href="#font_2_7" transform="matrix(16,0,0,-16,52.19999,96.400089)"/>
<use data-text="&#xfffd;" xlink:href="#font_3_1" transform="matrix(16,0,0,-16,61.09919,96.400089)"/>
<path transform="matrix(1,0,0,-1,0,540)" d="M108 461.9999H138V437.9999H108Z" fill="#ffffff" fill-rule="evenodd"/>
<path transform="matrix(.00007874014,0,0,.00007874014,108,78.00009)" stroke-width="12700" stroke-linecap="butt" stroke-miterlimit="8" stroke-linejoin="miter" fill="none" stroke="#000000" d="M.01715085-.1271971H381000.1V304799.9H.01715085Z"/>
<use data-text="a" xlink:href="#font_2_4" transform="matrix(16,0,0,-16,118.2,96.400089)"/>
<use data-text="&#xfffd;" xlink:href="#font_3_1" transform="matrix(16,0,0,-16,127.0992,96.400089)"/>
<path transform="matrix(1,0,0,-1,0,540)" d="M6 438H138V414H6Z" fill="#cbcbcb" fill-rule="evenodd"/>
<path transform="matrix(.00007874014,0,0,.00007874014,6,102)" stroke-width="12700" stroke-linecap="butt" stroke-miterlimit="8" stroke-linejoin="miter" fill="none" stroke="#000000" d="M-.002149583 .03210455H1676400V304800.1H-.002149583Z"/>
<path transform="matrix(1,0,0,-1,0,540)" d="M6 414H138V390H6Z" fill="#ffffff" fill-rule="evenodd"/>
<path transform="matrix(.00007874014,0,0,.00007874014,6,126)" stroke-width="12700" stroke-linecap="butt" stroke-miterlimit="8" stroke-linejoin="miter" fill="none" stroke="#000000" d="M-.002149583 .07897955H1676400V304800.1H-.002149583Z"/>
<path transform="matrix(1,0,0,-1,0,540)" d="M6 414H108V390H6Z" fill="#ffffff" fill-rule="evenodd"/>
<path transform="matrix(.00007874014,0,0,.00007874014,6,126)" stroke-width="12700" stroke-linecap="butt" stroke-miterlimit="8" stroke-linejoin="miter" fill="none" stroke="#000000" d="M-.002149583 .07897955H1295400V304800.1H-.002149583Z"/>
<use data-text="n" xlink:href="#font_2_7" transform="matrix(16,0,0,-16,52.19999,144.40009)"/>
<use data-text="&#xfffd;" xlink:href="#font_3_1" transform="matrix(16,0,0,-16,61.09919,144.40009)"/>
<path transform="matrix(1,0,0,-1,0,540)" d="M108 414H138V390H108Z" fill="#ffffff" fill-rule="evenodd"/>
<path transform="matrix(.00007874014,0,0,.00007874014,108,126)" stroke-width="12700" stroke-linecap="butt" stroke-miterlimit="8" stroke-linejoin="miter" fill="none" stroke="#000000" d="M.01715085 .07897955H381000.1V304800.1H.01715085Z"/>
<use data-text="a" xlink:href="#font_2_4" transform="matrix(16,0,0,-16,118.2,144.40009)"/>
<use data-text="&#xfffd;" xlink:href="#font_3_1" transform="matrix(16,0,0,-16,127.0992,144.40009)"/>
<path transform="matrix(.00007874014,0,0,.00007874014,6,78.00009)" stroke-width="38100" stroke-linecap="butt" stroke-miterlimit="8" stroke-linejoin="miter" fill="none" stroke="#000000" d="M-.002149583-.1271971H1676400V914400H-.002149583Z"/>
<path transform="matrix(1,0,0,-1,0,540)" d="M6 390H108V366H6Z" fill="#ffffff" fill-rule="evenodd"/>
<path transform="matrix(.00007874014,0,0,.00007874014,6,150)" stroke-width="12700" stroke-linecap="butt" stroke-miterlimit="8" stroke-linejoin="miter" fill="none" stroke="#000000" d="M-.002149583 .1258546H1295400V304800.2H-.002149583Z"/>
<use data-text="m" xlink:href="#font_2_6" transform="matrix(16,0,0,-16,46.2,168.4)"/>
<use data-text="2" xlink:href="#font_2_3" transform="matrix(16,0,0,-16,59.528,168.4)"/>
<use data-text="&#xfffd;" xlink:href="#font_3_1" transform="matrix(16,0,0,-16,68.4272,168.4)"/>
<path transform="matrix(1,0,0,-1,0,540)" d="M108 390H138V366H108Z" fill="#ffffff" fill-rule="evenodd"/>
<path transform="matrix(.00007874014,0,0,.00007874014,108,150)" stroke-width="12700" stroke-linecap="butt" stroke-miterlimit="8" stroke-linejoin="miter" fill="none" stroke="#000000" d="M.01715085 .1258546H381000.1V304800.2H.01715085Z"/>
<use data-text="f" xlink:href="#font_2_5" transform="matrix(16,0,0,-16,121.2,168.4)"/>
<use data-text="&#xfffd;" xlink:href="#font_3_1" transform="matrix(16,0,0,-16,125.6448,168.4)"/>
<path transform="matrix(1,0,0,-1,0,540)" d="M6 366H138V342H6Z" fill="#ffffff" fill-rule="evenodd"/>
<path transform="matrix(.00007874014,0,0,.00007874014,6,174)" stroke-width="12700" stroke-linecap="butt" stroke-miterlimit="8" stroke-linejoin="miter" fill="none" stroke="#000000" d="M-.002149583 .1727296H1676400V304800.2H-.002149583Z"/>
<path transform="matrix(1,0,0,-1,0,540)" d="M6 342H138V318H6Z" fill="#ffffff" fill-rule="evenodd"/>
<path transform="matrix(.00007874014,0,0,.00007874014,6,198)" stroke-width="12700" stroke-linecap="butt" stroke-miterlimit="8" stroke-linejoin="miter" fill="none" stroke="#000000" d="M-.002149583 .2196046H1676400V304800.3H-.002149583Z"/>
<path transform="matrix(1,0,0,-1,0,540)" d="M6 342H108V318H6Z" fill="#ffffff" fill-rule="evenodd"/>
<path transform="matrix(.00007874014,0,0,.00007874014,6,198)" stroke-width="12700" stroke-linecap="butt" stroke-miterlimit="8" stroke-linejoin="miter" fill="none" stroke="#000000" d="M-.002149583 .2196046H1295400V304800.3H-.002149583Z"/>
<use data-text="m" xlink:href="#font_2_6" transform="matrix(16,0,0,-16,46.2,216.4)"/>
<use data-text="2" xlink:href="#font_2_3" transform="matrix(16,0,0,-16,59.528,216.4)"/>
<use data-text="&#xfffd;" xlink:href="#font_3_1" transform="matrix(16,0,0,-16,68.4272,216.4)"/>
<path transform="matrix(1,0,0,-1,0,540)" d="M108 342H138V318H108Z" fill="#ffffff" fill-rule="evenodd"/>
<path transform="matrix(.00007874014,0,0,.00007874014,108,198)" stroke-width="12700" stroke-linecap="butt" stroke-miterlimit="8" stroke-linejoin="miter" fill="none" stroke="#000000" d="M.01715085 .2196046H381000.1V304800.3H.01715085Z"/>
<use data-text="f" xlink:href="#font_2_5" transform="matrix(16,0,0,-16,121.2,216.4)"/>
<use data-text="&#xfffd;" xlink:href="#font_3_1" transform="matrix(16,0,0,-16,125.6448,216.4)"/>
<path transform="matrix(.00007874014,0,0,.00007874014,6,150)" stroke-width="38100" stroke-linecap="butt" stroke-miterlimit="8" stroke-linejoin="miter" fill="none" stroke="#000000" d="M-.002149583 .1258546H1676400V914400.2H-.002149583Z"/>
<path transform="matrix(.00007874014,0,0,.00007874014,162,114.00009)" stroke-width="12700" stroke-linecap="butt" stroke-linejoin="round" fill="none" stroke="#000000" d="M-.002380401-.05688465H584200.1"/>
<path transform="matrix(1,0,0,-1,0,540)" d="M204 428.9999 210 425.9999 204 422.9999Z" fill-rule="evenodd"/>
<path transform="matrix(1,0,0,-1,0,540)" d="M228 438H359.9999V342H228Z" fill="#cbcbcb" fill-rule="evenodd"/>
<path transform="matrix(.00007874014,0,0,.00007874014,228,102)" stroke-width="12700" stroke-linecap="butt" stroke-miterlimit="8" stroke-linejoin="miter" fill="none" stroke="#000000" d="M.0577392 .03210455H1676400V1219200H.0577392Z"/>
<path transform="matrix(.00007874014,0,0,.00007874014,228,78.00009)" stroke-width="38100" stroke-linecap="butt" stroke-miterlimit="8" stroke-linejoin="miter" fill="none" stroke="#000000" d="M.0577392-.1271971H1676400V1828800H.0577392Z"/>
</g>
</g>
</svg>
