<svg xmlns="http://www.w3.org/2000/svg" xmlns:xlink="http://www.w3.org/1999/xlink" version="1.1" width="709.1028pt" height="119.09097pt" viewBox="0 0 709.1028 119.09097">
<defs>
<clipPath id="clip_0">
<path transform="matrix(1,0,0,-1,-10.8972,537.665)" d="M10.8972 418.574H720V537.665H10.8972Z" fill-rule="evenodd"/>
</clipPath>
<clipPath id="clip_1">
<path transform="matrix(1,0,0,-1,-10.8972,537.665)" d="M0 .00002324581H719.9999V540H0Z"/>
</clipPath>
<path id="font_2_20" d="M.08544922 .71777346H.40820313C.47200523 .71777346 .5234375 .6997884 .5625 .66381838 .6015625 .6278483 .62109377 .5773112 .62109377 .51220706 .62109377 .45621745 .6036784 .4074707 .56884768 .3659668 .5340169 .3244629 .48046876 .30371095 .40820313 .30371095H.18261719V0H.08544922V.71777346M.5229492 .5114746C.5229492 .56410726 .50341799 .5998433 .46435548 .61868289 .4428711 .62875369 .41341148 .63378909 .37597657 .63378909H.18261719V.3857422H.37597657C.41959635 .3857422 .45499674 .39499919 .48217774 .41351319 .5093587 .43203736 .5229492 .46469117 .5229492 .5114746Z"/>
<path id="font_2_27" d="M.13183594 .1394043C.13183594 .114095058 .14111328 .09413656 .15966797 .07952881 .17822266 .06492106 .20019531 .057617189 .22558594 .057617189 .2565104 .057617189 .28645835 .06471761 .3154297 .07891846 .3642578 .10247803 .38867188 .14127605 .38867188 .1953125V.26611329C.3779297 .25886027 .36409507 .2528127 .34716798 .24797058 .33024089 .24313863 .3136393 .23983257 .29736329 .23805237L.24414063 .23184204C.21223958 .22799683 .1883138 .22153218 .17236328 .21244812 .14534505 .19718933 .13183594 .17284139 .13183594 .1394043M.34472657 .31689454C.36490885 .3194987 .37841798 .32796226 .3852539 .34228517 .38916017 .35012818 .39111329 .36140443 .39111329 .3761139 .39111329 .40618388 .38045249 .42799888 .35913087 .44155885 .33780924 .455129 .30729167 .46191407 .26757813 .46191407 .22167969 .46191407 .18912761 .44948326 .16992188 .42462159 .15917969 .4108785 .15218099 .39043174 .14892578 .36328126H.06689453C.06852213 .42791749 .08943685 .47288514 .12963867 .4981842 .1698405 .5234833 .21647136 .5361328 .26953126 .5361328 .3310547 .5361328 .38102214 .52441409 .4194336 .50097659 .45751954 .47753907 .4765625 .4410502 .4765625 .39151V.08985901C.4765625 .08073425 .47843424 .073404949 .48217774 .067871097 .48592124 .06233724 .4938151 .059570314 .5058594 .059570314 .5097656 .059570314 .51416018 .059814454 .51904299 .060302736 .5239258 .060791017 .5291341 .061523439 .53466799 .0625V-.0028076173C.5209961-.00676473 .5105794-.009236653 .50341799-.010223389 .4962565-.011220296 .48649089-.01171875 .4741211-.01171875 .44384767-.01171875 .421875-.0009104411 .40820313 .020706177 .40104167 .032170614 .3959961 .048380536 .3930664 .06933594 .37516276 .045633954 .34944663 .025060019 .31591798 .0076141359 .2823893-.009831746 .2454427-.018554688 .20507813-.018554688 .15657552-.018554688 .11694336-.0037790936 .08618164 .025772095 .055419923 .055323285 .040039064 .092300418 .040039064 .13670349 .040039064 .18535869 .05517578 .22307332 .08544922 .24984741 .115722659 .2766215 .1554362 .29311119 .20458985 .2993164L.34472657 .31689454M.27197267 .5361328V.5361328Z"/>
<path id="font_2_33" d="M.24902344 .53222659C.29003907 .53222659 .32584635 .5220744 .3564453 .50177 .37304688 .49030558 .38997398 .4736023 .40722657 .45166017V.5185547H.48828126V.04234314C.48828126-.024154664 .47851563-.07663473 .45898438-.115097049 .42252604-.18615215 .35367839-.22167969 .2524414-.22167969 .1961263-.22167969 .14876302-.20906575 .11035156-.18383789 .0719401-.15861003 .05045573-.119140628 .045898439-.06542969H.1352539C.13948567-.08873495 .14794922-.10669454 .16064453-.11930847 .1805013-.13872783 .2117513-.1484375 .25439454-.1484375 .32177735-.1484375 .3658854-.12467448 .38671876-.07714844 .39908854-.04916382 .40478517 .0007985433 .4038086 .07273865 .38623048 .04588318 .36507163 .025904337 .34033204 .012802124 .31559245-.000289917 .2828776-.0068359377 .2421875-.0068359377 .18554688-.0068359377 .13598633 .013280232 .09350586 .053512575 .05102539 .09375509 .029785157 .16030376 .029785157 .25315858 .029785157 .34080506 .051188154 .40922547 .09399414 .4584198 .13680013 .5076243 .18847656 .53222659 .24902344 .53222659M.40722657 .26342774C.40722657 .328125 .39388023 .37607829 .3671875 .4072876 .34049479 .43849693 .30647788 .45410157 .26513673 .45410157 .20328777 .45410157 .16097005 .4251658 .1381836 .3672943 .12613933 .33641053 .12011719 .29593406 .12011719 .24586487 .12011719 .1870168 .13208008 .14223226 .15600586 .11151123 .17993164 .0807902 .21207683 .06542969 .2524414 .06542969 .31559245 .06542969 .36002604 .09387716 .3857422 .1507721 .4000651 .18295796 .40722657 .22050984 .40722657 .26342774M.25927735 .5361328V.5361328Z"/>
<path id="font_2_31" d="M.28222657 .53515627C.31933595 .53515627 .355306 .52644857 .39013673 .5090332 .42496745 .49161784 .4514974 .4690806 .46972657 .4414215 .4873047 .41505433 .49902345 .3842977 .5048828 .3491516 .5100911 .32506309 .5126953 .28647868 .5126953 .23339844H.12939453C.13102214 .18033855 .14355469 .13777669 .16699219 .10571289 .19042969 .073649089 .22672527 .057617189 .2758789 .057617189 .32177735 .057617189 .35839845 .07261658 .3857422 .10261536 .4013672 .12003072 .4124349 .14018758 .4189453 .16308594H.5053711C.50309249 .14398194 .49552409 .122690837 .48266603 .09921265 .46980796 .07574463 .45540367 .05656433 .43945313 .041671754 .4127604 .01576233 .37972007-.0017242432 .34033204-.010787964 .3191732-.01596578 .2952474-.018554688 .2685547-.018554688 .20345052-.018554688 .14827474 .0051472985 .103027347 .05255127 .05777995 .09995524 .03515625 .16634114 .03515625 .25170899 .03515625 .33576457 .057942708 .40401713 .103515628 .45646668 .14908855 .5089264 .20865886 .53515627 .28222657 .53515627M.42236329 .30371095C.41878257 .34191896 .41048179 .37245179 .39746095 .39530946 .3733724 .4377594 .33317057 .45898438 .27685548 .45898438 .23649089 .45898438 .20263672 .44437156 .17529297 .41514588 .14794922 .3859202 .13346355 .34877525 .13183594 .30371095H.42236329M.27392579 .5361328V.5361328Z"/>
<path id="font_2_1" d="M0 0Z"/>
<path id="font_2_40" d="M.28515626 .057617189C.32617188 .057617189 .36027018 .07486979 .38745118 .109375 .41463218 .14389038 .42822267 .1954956 .42822267 .26419068 .42822267 .3060608 .42220054 .34204103 .41015626 .37213136 .38736979 .43003337 .34570313 .45898438 .28515626 .45898438 .22428386 .45898438 .18261719 .42840068 .16015625 .36723329 .14811199 .33451844 .14208985 .29297386 .14208985 .24259949 .14208985 .20204163 .14811199 .16753133 .16015625 .1390686 .1829427 .08476766 .22460938 .057617189 .28515626 .057617189M.057617189 .5205078H.1430664V.45162965C.16064453 .47540284 .17985027 .49379985 .2006836 .5068207 .23030599 .5263621 .26513673 .5361328 .30517579 .5361328 .36442057 .5361328 .41471354 .5133667 .4560547 .46783448 .49739585 .42230226 .5180664 .3572693 .5180664 .2727356 .5180664 .1585083 .48828126 .07691447 .42871095 .027954102 .39095054-.0030517579 .34700523-.018554688 .296875-.018554688 .25748698-.018554688 .22444661-.009984334 .1977539 .007156372 .1821289 .016860962 .16471355 .033518476 .14550781 .057128908V-.20898438H.057617189V.5205078Z"/>
<path id="font_2_34" d="M.064453128 .71875H.15234375V.45214845C.17317708 .4786682 .19189453 .4973297 .2084961 .50813296 .2368164 .5267995 .2721354 .5361328 .31445313 .5361328 .39029948 .5361328 .44173179 .50957748 .46875 .45646668 .48339845 .42747499 .49072267 .38723756 .49072267 .3357544V0H.40039063V.32958985C.40039063 .3680013 .3955078 .39615885 .3857422 .4140625 .36979167 .44270835 .33984376 .45703126 .29589845 .45703126 .2594401 .45703126 .22639974 .4444987 .19677735 .4194336 .16715496 .3943685 .15234375 .34700523 .15234375 .27734376V0H.064453128V.71875Z"/>
<path id="font_2_46" d="M.39111329 .5234375H.48828126C.47591148 .48987834 .44840495 .41330973 .40576173 .2937317 .3738607 .20380657 .34716798 .13049825 .3256836 .07380676 .27490235-.059921266 .23909505-.14145915 .21826172-.17080689 .19742839-.2001648 .1616211-.21484375 .110839847-.21484375 .098470058-.21484375 .08894857-.21435039 .08227539-.21336365 .07560221-.21238709 .06738281-.21058655 .057617189-.20796204V-.1274414C.072916667-.13167317 .083984378-.13427735 .09082031-.1352539 .09765625-.13623047 .10367838-.13671875 .10888672-.13671875 .12516277-.13671875 .13712566-.1340332 .14477539-.12866211 .15242513-.123291019 .15885417-.11669922 .1640625-.10888672 .16569011-.106282558 .17154949-.092936199 .18164063-.068847659 .19173177-.044759115 .19905599-.026855469 .20361328-.015136719L.010253906 .5234375H.10986328L.25 .09727478 .39111329 .5234375M.24951172 .5361328V.5361328Z"/>
<path id="font_2_42" d="M.11669922 .1640625C.11930338 .13463338 .12662761 .11207072 .13867188 .09637451 .1608073 .06793213 .19921875 .053710939 .25390626 .053710939 .28645835 .053710939 .31510417 .060806276 .33984376 .07499695 .36458335 .08919779 .37695313 .11115011 .37695313 .14085388 .37695313 .16337586 .36702476 .18051148 .34716798 .19226074 .33447267 .19944255 .30940757 .20775859 .27197267 .21720886L.20214844 .2348175C.15755208 .24590557 .12467448 .25829569 .103515628 .27198792 .06575521 .29579164 .046875 .32873027 .046875 .37080384 .046875 .42036439 .064697269 .46046958 .1003418 .49111939 .13598633 .52177938 .18391927 .5371094 .24414063 .5371094 .32291667 .5371094 .37972007 .5139974 .41455079 .46777345 .4363607 .43847657 .4469401 .40690104 .44628907 .37304688H.36328126C.36165367 .39269004 .35465495 .41055808 .34228517 .426651 .32210288 .44950868 .28710938 .4609375 .23730469 .4609375 .20410156 .4609375 .17895508 .45461528 .16186524 .44197084 .14477539 .42933656 .13623047 .41264854 .13623047 .39190675 .13623047 .36922203 .14746094 .35107423 .16992188 .33746339 .1829427 .32936607 .20214844 .32221986 .22753906 .31602479L.28564454 .3018341C.34879557 .28650413 .39111329 .27166749 .41259767 .25732423 .44677735 .23482259 .4638672 .19944255 .4638672 .15118408 .4638672 .10455322 .44620768 .06428019 .41088868 .03036499 .37556968-.0035502117 .32177735-.020507813 .24951172-.020507813 .17171224-.020507813 .116617839-.002802531 .084228519 .032608034 .05183919 .06801859 .034505208 .111836757 .032226564 .1640625H.11669922M.24658203 .5361328V.5361328Z"/>
<path id="font_2_35" d="M.064453128 .5205078H.1538086V0H.064453128V.5205078M.064453128 .71777346H.1538086V.61816409H.064453128V.71777346Z"/>
<path id="font_2_29" d="M.26611329 .53808596C.32503257 .53808596 .37296549 .5237274 .4099121 .49501039 .44685874 .46629334 .46907554 .41684977 .4765625 .3466797H.39111329C.38590495 .37890626 .37402345 .40568034 .35546876 .42700196 .33691407 .44832359 .3071289 .45898438 .26611329 .45898438 .2101237 .45898438 .17008464 .43170677 .1459961 .3771515 .1303711 .34176127 .122558597 .29808555 .122558597 .24612427 .122558597 .19384766 .1336263 .14984639 .15576172 .11412048 .17789714 .07840475 .21272786 .060546876 .2602539 .060546876 .29671226 .060546876 .3256022 .0716095 .34692384 .09373474 .36824546 .115859989 .38297526 .1461385 .39111329 .18457031H.4765625C.46679688 .115234378 .4423828 .06453451 .4033203 .032470704 .3642578 .00040690104 .31429038-.015625 .25341798-.015625 .1850586-.015625 .13053386 .009379069 .08984375 .059387208 .049153646 .10940552 .028808594 .17188008 .028808594 .24681092 .028808594 .33868919 .05110677 .41020204 .095703128 .4613495 .14029949 .51250717 .19710286 .53808596 .26611329 .53808596M.2524414 .5361328V.5361328Z"/>
<path id="font_2_37" d="M.06689453 .71777346H.15478516V0H.06689453V.71777346Z"/>
<path id="font_2_28" d="M.057617189 .71875H.1430664V.45948792C.16227214 .4847056 .18522136 .50394698 .21191406 .5172119 .23860677 .53047689 .26757813 .5371094 .29882813 .5371094 .36393229 .5371094 .41674806 .5147095 .4572754 .46990968 .49780274 .42510987 .5180664 .35905458 .5180664 .27174378 .5180664 .1889801 .49804688 .12022909 .4580078 .06549072 .41796876 .010762532 .36246745-.016601563 .2915039-.016601563 .25179038-.016601563 .21826172-.006942749 .19091797 .012374878 .17464192 .023839316 .15722656 .042175294 .13867188 .06738281V0H.057617189V.71875M.2861328 .061523439C.33365885 .061523439 .36922203 .08037821 .39282228 .11808777 .41642253 .1558075 .42822267 .20555115 .42822267 .26731874 .42822267 .32227073 .41642253 .3677877 .39282228 .40386964 .36922203 .43996177 .33447267 .4580078 .28857423 .4580078 .24853516 .4580078 .21346028 .44321189 .18334961 .41362 .15323894 .3840383 .1381836 .3352712 .1381836 .26731874 .1381836 .21822612 .14436849 .17840068 .15673828 .1478424 .17985027 .090296428 .22298177 .061523439 .2861328 .061523439Z"/>
<path id="font_2_30" d="M.12011719 .2553711C.12011719 .19923909 .1319987 .15224712 .15576172 .11439514 .17952474 .076543178 .21761067 .057617189 .27001954 .057617189 .31070964 .057617189 .3441569 .075154628 .37036134 .11022949 .39656578 .14531453 .40966798 .19565328 .40966798 .26124574 .40966798 .32748924 .39615885 .37651573 .36914063 .4083252 .3421224 .44014488 .3087565 .4560547 .26904298 .4560547 .22477214 .4560547 .18888347 .4390869 .16137696 .40515138 .13387044 .37121583 .12011719 .32128907 .12011719 .2553711M.2524414 .53222659C.29248048 .53222659 .32600913 .52381899 .35302735 .5070038 .36865235 .4972992 .38639323 .48031617 .40625 .4560547V.71875H.49072267V0H.4116211V.07229614C.39111329 .04023234 .36686198 .017074585 .3388672 .002822876 .3108724-.011428833 .2788086-.018554688 .24267578-.018554688 .18440755-.018554688 .13395183 .0059407555 .091308597 .05493164 .048665365 .10392252 .02734375 .16910808 .02734375 .25048829 .02734375 .32666017 .04679362 .39265953 .08569336 .44848634 .1245931 .5043132 .18017578 .53222659 .2524414 .53222659Z"/>
<path id="font_2_41" d="M.06689453 .5234375H.15039063V.4326172C.15722656 .4502767 .17399089 .4717814 .2006836 .49713136 .2273763 .52248129 .25813804 .53515627 .29296876 .53515627 .29459635 .53515627 .29736329 .5349579 .30126954 .53456118 .30517579 .5341746 .31184898 .5333964 .32128907 .53222659V.43945313C.31608073 .44062297 .3112793 .44140116 .30688478 .44178773 .30249024 .44218446 .2976888 .4423828 .29248048 .4423828 .24820964 .4423828 .2141927 .4280599 .19042969 .39941407 .16666667 .37076823 .15478516 .33789063 .15478516 .30078126V0H.06689453V.5234375Z"/>
<path id="font_3_1" d="M0 0Z"/>
<path id="font_2_24" d="M.18164063 .71777346V.27441407C.18164063 .22233074 .19140625 .17903646 .2109375 .14453125 .23990886 .092447917 .28873698 .06640625 .35742188 .06640625 .43977867 .06640625 .49576823 .094563808 .5253906 .1508789 .5413411 .18147786 .5493164 .22265625 .5493164 .27441407V.71777346H.6479492V.3149414C.6479492 .22672527 .6360677 .15885417 .6123047 .111328128 .5686849 .024739584 .48632813-.018554688 .36523438-.018554688 .24414063-.018554688 .16194661 .024739584 .118652347 .111328128 .09488932 .15885417 .08300781 .22672527 .08300781 .3149414V.71777346H.18164063M.36572267 .71777346V.71777346Z"/>
<path id="font_2_38" d="M.064453128 .5234375H.14794922V.44921876C.1726888 .47981773 .19889324 .50179037 .2265625 .5151367 .25423179 .5284831 .2849935 .53515627 .31884767 .53515627 .3930664 .53515627 .44319663 .5092519 .46923829 .45744325 .4835612 .42910258 .49072267 .38853965 .49072267 .3357544V0H.4013672V.3299408C.4013672 .36188255 .39664714 .38762919 .38720704 .4071808 .37158204 .4397634 .34326173 .4560547 .3022461 .4560547 .28141276 .4560547 .2643229 .4539388 .25097657 .44970704 .22688802 .4425354 .20572917 .42819724 .1875 .4066925 .17285156 .38941957 .16333008 .37157694 .15893555 .35316468 .15454102 .3347524 .15234375 .30844117 .15234375 .27423097V0H.064453128V.5234375M.2709961 .5361328V.5361328Z"/>
<path id="font_2_44" d="M.15234375 .5234375V.17590332C.15234375 .1491801 .15657552 .12734477 .16503906 .11039734 .18066406 .07911682 .20979817 .06347656 .2524414 .06347656 .3136393 .06347656 .355306 .09085083 .3774414 .14559937 .3894857 .17492676 .3955078 .21516927 .3955078 .2663269V.5234375H.48339845V0H.40039063L.4013672 .0771637C.38997398 .057195028 .3758138 .040339155 .35888673 .02659607 .32535807-.00090026858 .28466798-.0146484379 .2368164-.0146484379 .16227214-.0146484379 .11149088 .010299683 .084472659 .060195924 .06982422 .08693949 .0625 .12265015 .0625 .16732788V.5234375H.15234375M.27294923 .5361328V.5361328Z"/>
<path id="font_2_18" d="M.38623048 .7363281C.45361329 .7363281 .51188156 .7233327 .56103518 .6973419 .6323242 .6599884 .67594406 .59453329 .69189456 .50097659H.5957031C.5839844 .55304977 .5597331 .59096786 .5229492 .61473086 .48616538 .638504 .43977867 .6503906 .38378907 .6503906 .3173828 .6503906 .2614746 .625529 .21606446 .57580569 .1706543 .52608236 .14794922 .4519857 .14794922 .35351563 .14794922 .26837159 .16666667 .19907125 .20410156 .14561463 .24153646 .092158 .30257163 .06542969 .38720704 .06542969 .4519857 .06542969 .50561526 .084111537 .5480957 .12147522 .5905762 .15884908 .6123047 .2192688 .61328127 .30273438H.38867188V.38378907H.7036133V0H.6411133L.6176758 .09309387C.58479818 .056859334 .55566409 .031723024 .53027346 .017684937 .48763023-.006474813 .433431-.018554688 .36767579-.018554688 .28271485-.018554688 .20963542 .008951823 .1484375 .063964847 .08170573 .13297527 .048339845 .22770183 .048339845 .34814454 .048339845 .46826173 .08089193 .56380209 .1459961 .6347656 .20784505 .70247396 .2879232 .7363281 .38623048 .7363281M.3701172 .7373047V.7373047Z"/>
<path id="font_2_5" d="M.2705078 .7001953C.3610026 .7001953 .42643229 .66289779 .46679688 .5883026 .49804688 .5306447 .5136719 .45165 .5136719 .35131837 .5136719 .25620524 .49951173 .17754109 .4711914 .11532593 .43017579 .026072184 .3631185-.018554688 .27001954-.018554688 .18603516-.018554688 .123535159 .017929078 .08251953 .09089661 .048339845 .15180969 .03125 .23357137 .03125 .33618165 .03125 .41565959 .041503908 .48390199 .06201172 .5409088 .10042318 .6470998 .16992188 .7001953 .2705078 .7001953M.26953126 .061523439C.31510417 .061523439 .35139976 .08168539 .37841798 .12200928 .4054362 .16234334 .4189453 .23747762 .4189453 .3474121 .4189453 .42676798 .4091797 .49205528 .38964845 .5432739 .3701172 .59450277 .332194 .6201172 .2758789 .6201172 .2241211 .6201172 .1862793 .59580489 .16235352 .5471802 .13842774 .4985555 .12646485 .42692057 .12646485 .3322754 .12646485 .26105754 .13411458 .20381673 .14941406 .16055298 .17285156 .09453329 .21289063 .061523439 .26953126 .061523439Z"/>
<path id="font_2_17" d="M.3515625 .08300781C.3844401 .08300781 .41145835 .08642578 .4326172 .09326172 .4703776 .10595703 .50130209 .1303711 .5253906 .1665039 .5445964 .19547527 .55843099 .23258464 .56689456 .27783204 .57177737 .30485026 .57421877 .32991538 .57421877 .35302735 .57421877 .44189454 .55655929 .51090499 .52124026 .5600586 .48592124 .6092122 .42903648 .63378909 .35058595 .63378909H.17822266V.08300781H.3515625M.080566409 .71777346H.37109376C.46972657 .71777346 .54622396 .6827545 .60058596 .6127167 .64908859 .54952499 .67333987 .46857707 .67333987 .36987306 .67333987 .2936503 .6590169 .22475688 .6303711 .16319275 .57991537 .054397584 .49316407 0 .3701172 0H.080566409V.71777346Z"/>
<path id="font_2_15" d="M.44433595 .2939453 .33544923 .61120608 .21972656 .2939453H.44433595M.28466798 .71777346H.39453126L.65478518 0H.54833987L.47558595 .21484375H.19189453L.11425781 0H.0146484379L.28466798 .71777346M.33496095 .71777346V.71777346Z"/>
<path id="font_2_16" d="M.37841798 .7373047C.46923829 .7373047 .53971359 .71332809 .58984377 .66537478 .63997396 .61742147 .66780599 .5629476 .67333987 .5019531H.5786133C.5678711 .54817709 .5464681 .58479818 .5144043 .6118164 .48234049 .63883468 .43733726 .65234377 .37939454 .65234377 .3087565 .65234377 .25170899 .62754318 .20825196 .5779419 .16479492 .52834066 .1430664 .45231629 .1430664 .34986878 .1430664 .26594544 .16267903 .19788106 .2019043 .14567566 .24112956 .09348043 .29964195 .06738281 .3774414 .06738281 .449056 .06738281 .50358077 .094823207 .5410156 .14970398 .5608724 .17860413 .5756836 .21659343 .5854492 .26367188H.6801758C.6717122 .18815105 .64371749 .12483724 .5961914 .07373047 .5392253 .012207031 .46240235-.018554688 .36572267-.018554688 .2823893-.018554688 .21240235 .006688436 .15576172 .057174684 .081217449 .12394714 .043945314 .2270406 .043945314 .36645509 .043945314 .47232057 .0719401 .5591278 .12792969 .62687686 .18847656 .7004954 .27197267 .7373047 .37841798 .7373047M.35888673 .7373047V.7373047Z"/>
<path id="font_2_25" d="M.123535159 .71777346 .25878907 .1343689 .42089845 .71777346H.5263672L.68847659 .13233948 .82373049 .71777346H.9301758L.7416992 0H.63964846L.4741211 .59513857 .3076172 0H.2055664L.018066407 .71777346H.123535159Z"/>
<path id="font_2_23" d="M.59814456 .71777346V.63183596H.3564453V0H.2578125V.63183596H.016113282V.71777346H.59814456Z"/>
<path id="font_2_4" d="M.22753906 .71777346H.3017578L.07421875 0H0L.22753906 .71777346Z"/>
<path id="font_2_22" d="M.13964844 .23144531C.14192708 .19064331 .15152996 .1575063 .16845703 .1320343 .2006836 .084376018 .25748698 .060546876 .3388672 .060546876 .37532554 .060546876 .40852867 .06575521 .43847657 .076171878 .49641929 .096354167 .5253906 .13248189 .5253906 .18455506 .5253906 .22361756 .5131836 .25144959 .48876954 .26805116 .46402995 .2843882 .42529298 .29859925 .3725586 .3106842L.27539063 .3327484C.21191406 .3471222 .16699219 .36294047 .140625 .38020326 .095052089 .41016136 .072265628 .4549408 .072265628 .5145416 .072265628 .57902529 .094563808 .6319478 .13916016 .6733093 .18375652 .71467086 .24690755 .73535159 .32861329 .73535159 .4038086 .73535159 .46769206 .7172038 .5202637 .6809082 .57283529 .6446126 .5991211 .58658859 .5991211 .50683596H.5078125C.5029297 .5452474 .49251304 .57470706 .4765625 .59521487 .4469401 .6326497 .39664714 .6513672 .3256836 .6513672 .26839195 .6513672 .22721355 .63931277 .20214844 .61520388 .17708333 .591095 .16455078 .56307479 .16455078 .5311432 .16455078 .49595643 .17919922 .47021995 .2084961 .45393373 .22770183 .44350688 .27115885 .43047587 .3388672 .4148407L.43945313 .39187623C.48795573 .38079835 .5253906 .36565147 .5517578 .34643556 .59733077 .31288658 .6201172 .26419068 .6201172 .2003479 .6201172 .12085978 .59122726 .06401571 .53344729 .029815674 .47566734-.004384359 .40852867-.021484375 .33203126-.021484375 .24283855-.021484375 .17301433 .0013478597 .122558597 .04701233 .07210287 .0923411 .04736328 .15381877 .048339845 .23144531H.13964844M.3359375 .7373047V.7373047Z"/>
<path id="font_2_21" d="M.40966798 .38867188C.45524089 .38867188 .49129234 .39778648 .51782229 .41601563 .54435226 .43424479 .5576172 .4671224 .5576172 .51464846 .5576172 .5657552 .5390625 .60058596 .5019531 .6191406 .48209635 .62890627 .4555664 .63378909 .42236329 .63378909H.1850586V.38867188H.40966798M.087890628 .71777346H.41992188C.47460938 .71777346 .51969406 .709788 .5551758 .69381716 .6225586 .6631775 .65625 .60662338 .65625 .52415469 .65625 .48112489 .6473796 .44591777 .6296387 .41853334 .61189779 .39115907 .58707687 .36916099 .5551758 .35253907 .5831706 .34114585 .60424807 .32617188 .6184082 .3076172 .63256838 .2890625 .6404622 .2589518 .64208987 .21728516L.6455078 .12109375C.6464844 .09388224 .648763 .07363383 .65234377 .06034851 .6582031 .037663778 .6686198 .023081461 .68359377 .016601563V0H.5644531C.56119796 .006184896 .55859377 .014160156 .5566406 .023925782 .5546875 .033691408 .5530599 .052571615 .5517578 .080566409L.54589846 .20019531C.5436198 .24707031 .5262044 .27848307 .49365235 .2944336 .47509767 .30322267 .44596354 .3076172 .40625 .3076172H.1850586V0H.087890628V.71777346Z"/>
<path id="font_4_4" d="M.4814453 .49072267C.4814453 .52815756 .4715983 .5548503 .4519043 .5708008 .4322103 .5867513 .4046224 .59472659 .36914063 .59472659H.2290039V.3828125H.36914063C.4046224 .3828125 .4322103 .3914388 .4519043 .4086914 .4715983 .425944 .4814453 .45328776 .4814453 .49072267M.6303711 .49121095C.6303711 .40607707 .6088867 .34589134 .56591799 .3106537 .5229492 .27542625 .46158854 .2578125 .38183595 .2578125H.2290039V0H.079589847V.71972659H.3930664C.46533204 .71972659 .5229492 .70113119 .56591799 .6639404 .6088867 .6267598 .6303711 .56918337 .6303711 .49121095Z"/>
<path id="font_4_3" d="M.5644531 .44433595V.3154297H.03564453V.44433595H.5644531M.5644531 .21582031V.08691406H.03564453V.21582031H.5644531Z"/>
<path id="font_4_2" d="M.06933594 .48828126V.5830078C.11328125 .58496096 .14404297 .5878906 .1616211 .5917969 .18961589 .59798178 .21240235 .61035159 .22998047 .62890627 .24202474 .64160159 .2511393 .6585286 .25732423 .6796875 .26090495 .6923828 .2626953 .70182296 .2626953 .7080078H.37841798V0H.23583985V.48828126H.06933594Z"/>
<path id="font_5_1" d="M0 0Z"/>
<path id="font_2_10" d="M.123535159 .17773438C.12939453 .12740071 .15266927 .09259033 .19335938 .07330322 .2141927 .06349691 .23828125 .05859375 .265625 .05859375 .31770835 .05859375 .35628257 .07524618 .38134767 .108551029 .40641276 .14185588 .4189453 .17875672 .4189453 .21925354 .4189453 .26823426 .40405274 .30611167 .37426759 .33288575 .34448243 .35965983 .3087565 .37304688 .26708985 .37304688 .2368164 .37304688 .21085613 .36714173 .18920899 .35533143 .16756185 .34352113 .14908855 .32696534 .13378906 .30566407L.057617189 .31054688 .110839847 .6875H.4741211V.60253909H.17675781L.14697266 .40863038C.1632487 .42115275 .17871094 .4305471 .19335938 .43681336 .21940105 .44768778 .24951172 .453125 .2836914 .453125 .347819 .453125 .402181 .43236796 .44677735 .39085389 .4913737 .3493398 .5136719 .29671226 .5136719 .23297119 .5136719 .1666158 .49324546 .10810343 .45239259 .057434083 .4115397 .0067749025 .34635417-.018554688 .25683595-.018554688 .1998698-.018554688 .14949544-.0024820965 .10571289 .029663086 .06193034 .06180827 .037434896 .11116537 .032226564 .17773438H.123535159Z"/>
<path id="font_2_6" d="M.095703128 .4951172V.5625C.15917969 .5686849 .20345052 .5790202 .22851563 .59350588 .25358073 .6079915 .2722982 .6422526 .28466798 .69628909H.3540039V0H.2602539V.4951172H.095703128Z"/>
<path id="font_2_7" d="M.03125 0C.034505208 .060221357 .04695638 .11263021 .068603519 .15722656 .09025065 .20182292 .13248699 .24235027 .1953125 .2788086L.2890625 .3330078C.3310547 .35742188 .3605143 .3782908 .3774414 .39561463 .40413413 .4227346 .41748048 .45377604 .41748048 .488739 .41748048 .52959188 .40527345 .562027 .38085938 .5860443 .3564453 .61006167 .32389323 .6220703 .28320313 .6220703 .22298177 .6220703 .18131511 .5991516 .15820313 .5533142 .14583333 .52875778 .13899739 .4947103 .13769531 .45117188H.048339845C.049316408 .5121663 .060546876 .5619049 .08203125 .6003876 .12011719 .66822817 .18733724 .70214846 .2836914 .70214846 .36376954 .70214846 .4222819 .68047079 .45922853 .6371155 .49617515 .5937703 .51464846 .5455373 .51464846 .49241639 .51464846 .4363556 .49495445 .388443 .4555664 .3486786 .43277995 .3255361 .3919271 .29752604 .3330078 .26464845L.26611329 .22753906C.23421224 .20996094 .20914714 .19319661 .19091797 .1772461 .15836589 .14892578 .13785808 .11751302 .12939453 .08300781H.51123049V0H.03125Z"/>
<path id="font_2_14" d="M.1328125 .16992188C.13541667 .12141927 .15413411 .087890628 .18896485 .06933594 .20686849 .059570314 .22705078 .0546875 .24951172 .0546875 .2915039 .0546875 .3273112 .07218424 .3569336 .107177738 .386556 .14217122 .4075521 .21321106 .41992188 .32029725 .40039063 .28938294 .3762207 .26765953 .3474121 .25512696 .31860353 .2425944 .28759767 .23632813 .25439454 .23632813 .18701172 .23632813 .13370769 .25727845 .09448242 .29917909 .05525716 .34108988 .03564453 .39501444 .03564453 .46095277 .03564453 .52429708 .05501302 .5800069 .09375 .6280823 .13248699 .67615768 .18961589 .7001953 .26513673 .7001953 .36702476 .7001953 .43733726 .6543579 .47607423 .5626831 .4975586 .5122986 .5083008 .449234 .5083008 .37348939 .5083008 .28799949 .49544273 .21225484 .46972657 .1462555 .42708335 .03638204 .35481773-.018554688 .2529297-.018554688 .18457031-.018554688 .13264974-.0006510417 .09716797 .03515625 .0616862 .07096354 .043945314 .115885417 .043945314 .16992188H.1328125M.26611329 .31347657C.300944 .31347657 .33276368 .32491557 .36157228 .34779359 .39038087 .3706716 .40478517 .4106649 .40478517 .46777345 .40478517 .51904299 .3918457 .557251 .3659668 .58239749 .3400879 .60754397 .3071289 .6201172 .26708985 .6201172 .2241211 .6201172 .19002278 .60575869 .16479492 .5770416 .13956706 .5483246 .12695313 .5099538 .12695313 .46192933 .12695313 .4164988 .13802083 .38039653 .16015625 .35362245 .18229167 .32685853 .21761067 .31347657 .26611329 .31347657Z"/>
<path id="font_2_13" d="M.27197267 .40625C.31070964 .40625 .34098307 .41704814 .36279298 .4386444 .38460288 .4602407 .3955078 .48598228 .3955078 .51586917 .3955078 .5418498 .38509117 .5657196 .3642578 .58747866 .34342448 .6092377 .3116862 .6201172 .26904298 .6201172 .22672527 .6201172 .1961263 .6092377 .1772461 .58747866 .15836589 .5657196 .14892578 .54022219 .14892578 .5109863 .14892578 .4781901 .16113281 .452535 .18554688 .434021 .20996094 .415507 .23876953 .40625 .27197267 .40625M.27734376 .059570314C.31803385 .059570314 .35180665 .07055664 .3786621 .0925293 .40551759 .11450195 .4189453 .14729817 .4189453 .19091797 .4189453 .23616536 .4051107 .2705078 .3774414 .2939453 .34977214 .3173828 .31429038 .32910157 .2709961 .32910157 .2290039 .32910157 .19474285 .31713868 .16821289 .2932129 .14168294 .2692871 .12841797 .23616536 .12841797 .19384766 .12841797 .15738933 .14054363 .12589519 .16479492 .099365238 .18904622 .07283529 .2265625 .059570314 .27734376 .059570314M.15234375 .37234498C.12792969 .3827413 .10888672 .39491783 .095214847 .4088745 .069498699 .43485514 .056640626 .46863304 .056640626 .51020815 .056640626 .5621694 .075520839 .6068217 .11328125 .64416506 .15104167 .68151858 .20458985 .7001953 .27392579 .7001953 .34098307 .7001953 .3935547 .6825765 .43164063 .64733889 .46972657 .61210128 .48876954 .5709381 .48876954 .5238495 .48876954 .48033143 .4777018 .44509379 .4555664 .4181366 .44319663 .4028778 .42399089 .38793946 .39794923 .37332154 .42692057 .359965 .44970704 .34465537 .4663086 .32739259 .49723307 .29482017 .5126953 .25247193 .5126953 .2003479 .5126953 .13878377 .49202476 .08658346 .4506836 .04374695 .40934245 .0009104411 .35091148-.020507813 .27539063-.020507813 .20735677-.020507813 .14982097-.0020243328 .1027832 .034942628 .05574544 .07191976 .032226564 .12559001 .032226564 .19595337 .032226564 .23732503 .042317708 .2730764 .0625 .3032074 .08268229 .3333384 .11263021 .35638429 .15234375 .37234498Z"/>
<path id="font_2_12" d="M.5229492 .6875V.6104126C.5004883 .5888875 .47062174 .55110678 .4333496 .4970703 .39607749 .44303385 .3631185 .38476563 .33447267 .32226563 .30615235 .26139323 .28466798 .20589192 .27001954 .15576172 .26057945 .123535159 .24837239 .071614589 .23339844 0H.13623047C.15836589 .13335164 .20719402 .26605735 .28271485 .39811708 .3273112 .47553 .3741862 .5423686 .42333985 .5986328H.036621095V.6875H.5229492Z"/>
<path id="font_2_11" d="M.29248048 .70214846C.37060548 .70214846 .42504884 .6818288 .45581056 .6411896 .48657228 .6005605 .5019531 .5587056 .5019531 .515625H.41503907C.40983073 .5434163 .40152995 .5651601 .39013673 .5808563 .36897788 .61028549 .33691407 .625 .2939453 .625 .24479167 .625 .20572917 .60224917 .17675781 .55674746 .14778646 .5112559 .13167317 .44611613 .12841797 .36132813 .14860027 .39095054 .17399089 .41308595 .20458985 .42773438 .23258464 .44075523 .26383464 .44726563 .29833985 .44726563 .3569336 .44726563 .40804038 .4285482 .45166017 .39111329 .49527995 .35367839 .51708987 .29785157 .51708987 .22363281 .51708987 .16015625 .49641929 .10392252 .45507813 .05493164 .41373698 .0059407555 .35481773-.018554688 .2783203-.018554688 .21289063-.018554688 .15641277 .0062815349 .10888672 .05595398 .061360677 .1056366 .037597658 .18927002 .037597658 .30685426 .037597658 .39382936 .048177083 .4676107 .06933594 .52819827 .11002604 .64416506 .18440755 .70214846 .29248048 .70214846M.2861328 .059570314C.33235679 .059570314 .36694337 .07511393 .38989259 .10620117 .4128418 .1372884 .4243164 .17399089 .4243164 .2163086 .4243164 .25211589 .4140625 .2862142 .3935547 .31860353 .37304688 .35099284 .33577476 .3671875 .28173829 .3671875 .24397786 .3671875 .21085613 .35465495 .18237305 .32958985 .15388997 .30452476 .13964844 .2667643 .13964844 .2163086 .13964844 .17203777 .15258789 .134847 .1784668 .10473633 .2043457 .07462565 .24023438 .059570314 .2861328 .059570314Z"/>
<path id="font_2_9" d="M.3305664 .24902344V.5639038L.10644531 .24902344H.3305664M.33203126 0V.17089844H.025390625V.25827027L.34570313 .7011719H.41992188V.24902344H.5229492V.17089844H.41992188V0H.33203126Z"/>
<path id="font_2_8" d="M.25976563-.018554688C.17708333-.018554688 .11710612 .004196167 .079833988 .049697877 .042561849 .095209758 .023925782 .15058391 .023925782 .21582031H.115722659C.119628909 .1704305 .12809246 .13744609 .14111328 .116867069 .16389974 .07997131 .20507813 .061523439 .26464845 .061523439 .3108724 .061523439 .34798179 .07389323 .37597657 .09863281 .40397135 .1233724 .41796876 .15527344 .41796876 .19433594 .41796876 .24251302 .40323893 .27620445 .3737793 .29541017 .34431968 .31461589 .3033854 .32421876 .25097657 .32421876 .24511719 .32421876 .23917644 .32413737 .2331543 .3239746 .22713216 .32381187 .22102864 .32356773 .21484375 .3232422V.4013672C.22395833 .40019737 .23160808 .39941407 .23779297 .39901734 .24397786 .39863078 .25065104 .3984375 .2578125 .3984375 .2906901 .3984375 .31770835 .40363566 .3388672 .41403199 .37597657 .43222047 .39453126 .46470133 .39453126 .5114746 .39453126 .54622396 .38216148 .5730184 .35742188 .5918579 .33268229 .61069747 .3038737 .6201172 .2709961 .6201172 .21240235 .6201172 .171875 .6007131 .14941406 .5619049 .13704427 .5405629 .13004558 .51016238 .12841797 .47070313H.041503908C.041503908 .5225627 .051920576 .5666453 .072753909 .60295107 .108561199 .6677806 .17154949 .7001953 .26171876 .7001953 .3330078 .7001953 .3881836 .6843465 .4272461 .6526489 .4663086 .6209615 .48583985 .5750529 .48583985 .5149231 .48583985 .47201539 .47428385 .4372355 .45117188 .4105835 .43684898 .39401246 .41829429 .38101197 .3955078 .37158204 .43229167 .36149089 .4610189 .34204103 .48168946 .31323243 .50236007 .28442384 .5126953 .2491862 .5126953 .20751953 .5126953 .14078777 .49072267 .08642578 .44677735 .044433595 .40283204 .0024414063 .34049479-.018554688 .25976563-.018554688Z"/>
<path id="font_2_45" d="M.107421878 .5234375 .24707031 .09725952 .3930664 .5234375H.4892578L.2919922 0H.19824219L.0053710939 .5234375H.107421878Z"/>
<path id="font_2_32" d="M.08642578 .6021576C.08772787 .638443 .09407552 .66500857 .10546875 .68185427 .12597656 .7116597 .16552735 .7265625 .2241211 .7265625 .22965496 .7265625 .23535156 .7263997 .24121094 .7260742 .24707031 .7257487 .2537435 .72526046 .26123048 .7246094V.64453127C.25211589 .6449687 .2455241 .6452382 .24145508 .64533999 .23738607 .64545187 .2335612 .6455078 .22998047 .6455078 .20328777 .6455078 .18733724 .6386719 .1821289 .625 .17692058 .6113281 .1743164 .5764974 .1743164 .5205078H.26123048V.45117188H.17333985V0H.08642578V.45117188H.013671875V.5205078H.08642578V.6021576Z"/>
<path id="font_2_39" d="M.27197267 .057617189C.33024089 .057617189 .37019859 .07964579 .3918457 .123703 .41349284 .16776021 .4243164 .21677144 .4243164 .2707367 .4243164 .31950379 .4165039 .35917155 .4008789 .38974 .3761393 .43785606 .3334961 .46191407 .27294923 .46191407 .21923828 .46191407 .18017578 .44143168 .15576172 .40046693 .13134766 .35950218 .119140628 .31008403 .119140628 .25221253 .119140628 .1966095 .13134766 .15027364 .15576172 .113204959 .18017578 .076146449 .21891277 .057617189 .27197267 .057617189M.27539063 .53808596C.34277345 .53808596 .3997396 .5156453 .44628907 .47076417 .49283854 .42588298 .5161133 .35985819 .5161133 .27268983 .5161133 .1884613 .49560548 .11886088 .45458985 .06388855 .41357423 .008926392 .3499349-.018554688 .26367188-.018554688 .19173177-.018554688 .13460286 .00575765 .092285159 .054382326 .04996745 .103006999 .028808594 .16829936 .028808594 .2502594 .028808594 .33806864 .05110677 .4079895 .095703128 .46002198 .14029949 .51206466 .20019531 .53808596 .27539063 .53808596M.27246095 .5361328V.5361328Z"/>
<path id="font_2_19" d="M.3857422 .7373047C.5123698 .7373047 .6061198 .6965637 .6669922 .6150818 .71451827 .55152389 .73828127 .47019959 .73828127 .371109 .73828127 .2638804 .7111003 .17473857 .6567383 .10368347 .5929362 .020238242 .5019531-.021484375 .38378907-.021484375 .2734375-.021484375 .1866862 .015019734 .123535159 .088027957 .067220058 .158432 .0390625 .24741619 .0390625 .35498048 .0390625 .45210777 .06315104 .53522238 .111328128 .60432437 .17317708 .6929779 .26464845 .7373047 .3857422 .7373047M.3955078 .06542969C.48111979 .06542969 .5430501 .09613546 .5812988 .157547 .61954757 .21895854 .6386719 .2895762 .6386719 .36940003 .6386719 .45378114 .61661788 .5217082 .57250979 .57318118 .5284017 .6246541 .46809898 .6503906 .39160157 .6503906 .3173828 .6503906 .25683595 .62489828 .20996094 .5739136 .16308594 .5229289 .13964844 .4477488 .13964844 .3483734 .13964844 .26888529 .15974935 .20185344 .19995117 .14727783 .240153 .0927124 .30533854 .06542969 .3955078 .06542969M.38867188 .7373047V.7373047Z"/>
<path id="font_2_2" d="M.29589845 .7294922C.24479167 .6301575 .21158855 .55703738 .19628906 .51013186 .17317708 .43881227 .1616211 .3564148 .1616211 .26293946 .1616211 .16848755 .17480469 .08217875 .20117188 .0040130617 .21744792-.044184369 .24951172-.11355591 .29736329-.20410156H.23828125C.1907552-.12984212 .16129558-.08245341 .14990235-.061935426 .13850911-.04141744 .12613933-.013570149 .11279297 .021606446 .094563808 .06980387 .08186849 .1212616 .07470703 .17597962 .071126308 .2043101 .06933594 .23134358 .06933594 .25708009 .06933594 .3534851 .084472659 .43930564 .114746097 .5145416 .13395183 .5624135 .17399089 .6340637 .23486328 .7294922H.29589845Z"/>
<path id="font_2_43" d="M.08203125 .66796877H.17089844V.5234375H.25439454V.4501953H.17089844V.110183719C.17089844 .09202576 .17708333 .07986959 .18945313 .07371521 .19628906 .07014465 .2076823 .068359378 .22363281 .068359378 .22786458 .068359378 .23242188 .06846619 .23730469 .06867981 .2421875 .0689036 .24788411 .06944784 .25439454 .0703125V0C.24430339-.0031026204 .23380535-.005340576 .22290039-.006713867 .21199544-.008097331 .20019531-.0087890629 .1875-.0087890629 .14648438-.0087890629 .118652347 .0016988119 .104003909 .02267456 .08935547 .04365031 .08203125 .070882167 .08203125 .10437012V.4501953H.011230469V.5234375H.08203125V.66796877Z"/>
<path id="font_2_36" d="M.0625 .71777346H.14697266V.30101014L.3725586 .5234375H.48486329L.28466798 .32881166 .49609376 0H.38378907L.22070313 .26635743 .14697266 .19647217V0H.0625V.71777346Z"/>
<path id="font_2_3" d="M.03466797-.20410156C.08642578-.103139247 .119791667-.029530844 .13476563 .016723633 .15755208 .08674113 .16894531 .16881307 .16894531 .26293946 .16894531 .35706584 .15576172 .44321189 .12939453 .52137759 .11311849 .569575 .08105469 .63894656 .033203126 .7294922H.092285159C.14241536 .64937338 .17277019 .59995016 .18334961 .58122256 .19392903 .56249496 .20540364 .5366821 .21777344 .5037842 .23339844 .46307374 .24454753 .42285157 .2512207 .38311769 .2578939 .3433838 .26123048 .30511476 .26123048 .26831056 .26123048 .17190552 .24593099 .08592224 .21533203 .010360718 .1961263-.03816223 .15625-.10964966 .095703128-.20410156H.03466797Z"/>
<path id="font_4_1" d="M.17333985 .34643556C.17333985 .26497398 .18001302 .20265706 .19335938 .15948487 .20670574 .11631266 .23404949 .09472656 .27539063 .09472656 .31673179 .09472656 .3438314 .11631266 .35668946 .15948487 .36954753 .20265706 .37597657 .26497398 .37597657 .34643556 .37597657 .43180339 .36954753 .49501548 .35668946 .5360718 .3438314 .5771281 .31673179 .59765627 .27539063 .59765627 .23404949 .59765627 .20670574 .5771281 .19335938 .5360718 .18001302 .49501548 .17333985 .43180339 .17333985 .34643556M.27539063 .7128906C.3655599 .7128906 .42879234 .68110659 .4650879 .61753848 .5013835 .5539805 .51953127 .46369425 .51953127 .3466797 .51953127 .22966512 .5013835 .13953655 .4650879 .076293949 .42879234 .013061523 .3655599-.018554688 .27539063-.018554688 .18522136-.018554688 .12198893 .013061523 .08569336 .076293949 .049397787 .13953655 .03125 .22966512 .03125 .3466797 .03125 .46369425 .049397787 .5539805 .08569336 .61753848 .12198893 .68110659 .18522136 .7128906 .27539063 .7128906Z"/>
<path id="font_2_26" d="M.13769531 0H.020507813L.27734376 .3681488 .036621095 .71777346H.15820313L.3413086 .44317628 .5229492 .71777346H.6386719L.39794923 .3680725 .6503906 0H.52978518L.33642579 .29512025 .13769531 0Z"/>
</defs>
<g clip-path="url(#clip_0)">
<g clip-path="url(#clip_1)">
<path transform="matrix(1,0,0,-1,-10.8972,537.665)" d="M0 539.9999H719.9999V.00003079383H0Z" fill="#ffffff" fill-rule="evenodd"/>
<path transform="matrix(1,0,0,-1,-10.8972,537.665)" d="M157.125 525.6249H367.125V495.6249H157.125Z" fill="#ffffff" fill-rule="evenodd"/>
<path transform="matrix(.00007874014,0,0,.00007874014,146.2278,12.0401)" stroke-width="9525" stroke-linecap="butt" stroke-miterlimit="8" stroke-linejoin="miter" fill="none" stroke="#000000" d="M.0006714165 .02368188H2667000V381000.1H.0006714165Z"/>
<use data-text="P" xlink:href="#font_2_20" transform="matrix(14,0,0,-14,163.3528,31.940079)"/>
<use data-text="a" xlink:href="#font_2_27" transform="matrix(14,0,0,-14,172.6908,31.940079)"/>
<use data-text="g" xlink:href="#font_2_33" transform="matrix(14,0,0,-14,180.4776,31.940079)"/>
<use data-text="e" xlink:href="#font_2_31" transform="matrix(14,0,0,-14,188.2644,31.940079)"/>
<use data-text=" " xlink:href="#font_2_1" transform="matrix(14,0,0,-14,196.05121,31.940079)"/>
<use data-text="p" xlink:href="#font_2_40" transform="matrix(14,0,0,-14,199.9404,31.940079)"/>
<use data-text="h" xlink:href="#font_2_34" transform="matrix(14,0,0,-14,207.7272,31.940079)"/>
<use data-text="y" xlink:href="#font_2_46" transform="matrix(14,0,0,-14,215.514,31.940079)"/>
<use data-text="s" xlink:href="#font_2_42" transform="matrix(14,0,0,-14,222.514,31.940079)"/>
<use data-text="i" xlink:href="#font_2_35" transform="matrix(14,0,0,-14,229.514,31.940079)"/>
<use data-text="c" xlink:href="#font_2_29" transform="matrix(14,0,0,-14,232.62482,31.940079)"/>
<use data-text="a" xlink:href="#font_2_27" transform="matrix(14,0,0,-14,239.62482,31.940079)"/>
<use data-text="l" xlink:href="#font_2_37" transform="matrix(14,0,0,-14,247.41162,31.940079)"/>
<use data-text=" " xlink:href="#font_2_1" transform="matrix(14,0,0,-14,250.52242,31.940079)"/>
<use data-text="b" xlink:href="#font_2_28" transform="matrix(14,0,0,-14,254.41162,31.940079)"/>
<use data-text="a" xlink:href="#font_2_27" transform="matrix(14,0,0,-14,262.19844,31.940079)"/>
<use data-text="s" xlink:href="#font_2_42" transform="matrix(14,0,0,-14,269.98524,31.940079)"/>
<use data-text="e" xlink:href="#font_2_31" transform="matrix(14,0,0,-14,276.98524,31.940079)"/>
<use data-text=" " xlink:href="#font_2_1" transform="matrix(14,0,0,-14,284.77204,31.940079)"/>
<use data-text="a" xlink:href="#font_2_27" transform="matrix(14,0,0,-14,288.66123,31.940079)"/>
<use data-text="d" xlink:href="#font_2_30" transform="matrix(14,0,0,-14,296.44804,31.940079)"/>
<use data-text="d" xlink:href="#font_2_30" transform="matrix(14,0,0,-14,304.23484,31.940079)"/>
<use data-text="r" xlink:href="#font_2_41" transform="matrix(14,0,0,-14,312.02165,31.940079)"/>
<use data-text="e" xlink:href="#font_2_31" transform="matrix(14,0,0,-14,316.68367,31.940079)"/>
<use data-text="s" xlink:href="#font_2_42" transform="matrix(14,0,0,-14,324.47047,31.940079)"/>
<use data-text="s" xlink:href="#font_2_42" transform="matrix(14,0,0,-14,331.47047,31.940079)"/>
<use data-text=" " xlink:href="#font_2_1" transform="matrix(14,0,0,-14,338.47047,31.940079)"/>
<use data-text="&#xfffd;" xlink:href="#font_3_1" transform="matrix(14,0,0,-14,342.35963,31.940079)"/>
<path transform="matrix(1,0,0,-1,-10.8972,537.665)" d="M367.125 525.6249H445.125V495.6249H367.125Z" fill="#ffffff" fill-rule="evenodd"/>
<path transform="matrix(.00007874014,0,0,.00007874014,356.2278,12.0401)" stroke-width="9525" stroke-linecap="butt" stroke-miterlimit="8" stroke-linejoin="miter" fill="none" stroke="#000000" d="M-.282959 .02368188H990599.9V381000.1H-.282959Z"/>
<use data-text="U" xlink:href="#font_2_24" transform="matrix(14,0,0,-14,371.35273,31.940079)"/>
<use data-text="n" xlink:href="#font_2_38" transform="matrix(14,0,0,-14,381.46354,31.940079)"/>
<use data-text="u" xlink:href="#font_2_44" transform="matrix(14,0,0,-14,389.25035,31.940079)"/>
<use data-text="s" xlink:href="#font_2_42" transform="matrix(14,0,0,-14,397.0371,31.940079)"/>
<use data-text="e" xlink:href="#font_2_31" transform="matrix(14,0,0,-14,404.0371,31.940079)"/>
<use data-text="d" xlink:href="#font_2_30" transform="matrix(14,0,0,-14,411.8239,31.940079)"/>
<use data-text="&#xfffd;" xlink:href="#font_3_1" transform="matrix(14,0,0,-14,419.61073,31.940079)"/>
<path transform="matrix(1,0,0,-1,-10.8972,537.665)" d="M445.125 525.6249H475.125V495.6249H445.125Z" fill="#ffffff" fill-rule="evenodd"/>
<path transform="matrix(.00007874014,0,0,.00007874014,434.2278,12.0401)" stroke-width="9525" stroke-linecap="butt" stroke-miterlimit="8" stroke-linejoin="miter" fill="none" stroke="#000000" d="M-.01818854 .02368188H381000V381000.1H-.01818854Z"/>
<use data-text="G" xlink:href="#font_2_18" transform="matrix(14,0,0,-14,443.35273,31.940079)"/>
<use data-text="&#xfffd;" xlink:href="#font_3_1" transform="matrix(14,0,0,-14,454.2419,31.940079)"/>
<path transform="matrix(1,0,0,-1,-10.8972,537.665)" d="M475.125 525.6249H505.125V495.6249H475.125Z" fill="#ffffff" fill-rule="evenodd"/>
<path transform="matrix(.00007874014,0,0,.00007874014,464.2278,12.0401)" stroke-width="9525" stroke-linecap="butt" stroke-miterlimit="8" stroke-linejoin="miter" fill="none" stroke="#000000" d="M-.07202148 .02368188H381000V381000.1H-.07202148Z"/>
<use data-text="0" xlink:href="#font_2_5" transform="matrix(14,0,0,-14,475.35273,31.940079)"/>
<use data-text="&#xfffd;" xlink:href="#font_3_1" transform="matrix(14,0,0,-14,483.13954,31.940079)"/>
<path transform="matrix(1,0,0,-1,-10.8972,537.665)" d="M505.125 525.6249H535.1249V495.6249H505.125Z" fill="#ffffff" fill-rule="evenodd"/>
<path transform="matrix(.00007874014,0,0,.00007874014,494.2278,12.0401)" stroke-width="9525" stroke-linecap="butt" stroke-miterlimit="8" stroke-linejoin="miter" fill="none" stroke="#000000" d="M.09899896 .02368188H380999.8V381000.1H.09899896Z"/>
<use data-text="D" xlink:href="#font_2_17" transform="matrix(14,0,0,-14,504.3527,31.940079)"/>
<use data-text="&#xfffd;" xlink:href="#font_3_1" transform="matrix(14,0,0,-14,514.4635,31.940079)"/>
<path transform="matrix(1,0,0,-1,-10.8972,537.665)" d="M535.1249 525.6249H565.1249V495.6249H535.1249Z" fill="#ffffff" fill-rule="evenodd"/>
<path transform="matrix(.00007874014,0,0,.00007874014,524.22769,12.0401)" stroke-width="9525" stroke-linecap="butt" stroke-miterlimit="8" stroke-linejoin="miter" fill="none" stroke="#000000" d="M-.2299806 .02368188H380999.8V381000.1H-.2299806Z"/>
<use data-text="A" xlink:href="#font_2_15" transform="matrix(14,0,0,-14,534.35269,31.940079)"/>
<use data-text="&#xfffd;" xlink:href="#font_3_1" transform="matrix(14,0,0,-14,543.6907,31.940079)"/>
<path transform="matrix(1,0,0,-1,-10.8972,537.665)" d="M565.125 525.6249H595.125V495.6249H565.125Z" fill="#ffffff" fill-rule="evenodd"/>
<path transform="matrix(.00007874014,0,0,.00007874014,554.2278,12.0401)" stroke-width="9525" stroke-linecap="butt" stroke-miterlimit="8" stroke-linejoin="miter" fill="none" stroke="#000000" d="M.1037598 .02368188H381000.2V381000.1H.1037598Z"/>
<use data-text="C" xlink:href="#font_2_16" transform="matrix(14,0,0,-14,559.35269,31.940079)"/>
<use data-text="D" xlink:href="#font_2_17" transform="matrix(14,0,0,-14,569.46347,31.940079)"/>
<use data-text="&#xfffd;" xlink:href="#font_3_1" transform="matrix(14,0,0,-14,579.5743,31.940079)"/>
<path transform="matrix(1,0,0,-1,-10.8972,537.665)" d="M595.1249 525.6249H625.1249V495.6249H595.1249Z" fill="#ffffff" fill-rule="evenodd"/>
<path transform="matrix(.00007874014,0,0,.00007874014,584.22769,12.0401)" stroke-width="9525" stroke-linecap="butt" stroke-miterlimit="8" stroke-linejoin="miter" fill="none" stroke="#000000" d="M-.1127931 .02368188H380999.9V381000.1H-.1127931Z"/>
<use data-text="W" xlink:href="#font_2_25" transform="matrix(14,0,0,-14,588.35269,31.940079)"/>
<use data-text="T" xlink:href="#font_2_23" transform="matrix(14,0,0,-14,601.56588,31.940079)"/>
<use data-text="&#xfffd;" xlink:href="#font_3_1" transform="matrix(14,0,0,-14,610.11709,31.940079)"/>
<path transform="matrix(1,0,0,-1,-10.8972,537.665)" d="M625.1249 525.6249H655.1249V495.6249H625.1249Z" fill="#ffffff" fill-rule="evenodd"/>
<path transform="matrix(.00007874014,0,0,.00007874014,614.22769,12.0401)" stroke-width="9525" stroke-linecap="butt" stroke-miterlimit="8" stroke-linejoin="miter" fill="none" stroke="#000000" d="M-.05419934 .02368188H381000V381000.1H-.05419934Z"/>
<use data-text="U" xlink:href="#font_2_24" transform="matrix(14,0,0,-14,617.35269,31.940079)"/>
<use data-text="/" xlink:href="#font_2_4" transform="matrix(14,0,0,-14,627.46347,31.940079)"/>
<use data-text="S" xlink:href="#font_2_22" transform="matrix(14,0,0,-14,631.35269,31.940079)"/>
<use data-text="&#xfffd;" xlink:href="#font_3_1" transform="matrix(14,0,0,-14,640.6907,31.940079)"/>
<path transform="matrix(1,0,0,-1,-10.8972,537.665)" d="M655.1249 525.6249H685.1249V495.6249H655.1249Z" fill="#ffffff" fill-rule="evenodd"/>
<path transform="matrix(.00007874014,0,0,.00007874014,644.22769,12.0401)" stroke-width="9525" stroke-linecap="butt" stroke-miterlimit="8" stroke-linejoin="miter" fill="none" stroke="#000000" d="M.004394412 .02368188H381000.1V381000.1H.004394412Z"/>
<use data-text="R" xlink:href="#font_2_21" transform="matrix(14,0,0,-14,645.35269,31.940079)"/>
<use data-text="/" xlink:href="#font_2_4" transform="matrix(14,0,0,-14,655.46347,31.940079)"/>
<use data-text="W" xlink:href="#font_2_25" transform="matrix(14,0,0,-14,659.3583,31.940079)"/>
<use data-text="&#xfffd;" xlink:href="#font_3_1" transform="matrix(14,0,0,-14,672.5771,31.940079)"/>
<path transform="matrix(1,0,0,-1,-10.8972,537.665)" d="M685.1249 525.6249H715.1249V495.6249H685.1249Z" fill="#ffffff" fill-rule="evenodd"/>
<path transform="matrix(.00007874014,0,0,.00007874014,674.22769,12.0401)" stroke-width="9525" stroke-linecap="butt" stroke-miterlimit="8" stroke-linejoin="miter" fill="none" stroke="#000000" d="M.2878416 .02368188H381000.3V381000.1H.2878416Z"/>
<use data-text="P" xlink:href="#font_4_4" transform="matrix(14,0,0,-14,676.35269,31.940079)"/>
<use data-text="=" xlink:href="#font_4_3" transform="matrix(14,0,0,-14,685.6907,31.940079)"/>
<use data-text="1" xlink:href="#font_4_2" transform="matrix(14,0,0,-14,693.86666,31.940079)"/>
<use data-text="&#xfffd;" xlink:href="#font_5_1" transform="matrix(14,0,0,-14,701.65347,31.940079)"/>
<use data-text="5" xlink:href="#font_2_10" transform="matrix(10,0,0,-10,150.97769,10.1651)"/>
<use data-text="1" xlink:href="#font_2_6" transform="matrix(10,0,0,-10,156.53969,10.1651)"/>
<use data-text="&#xfffd;" xlink:href="#font_3_1" transform="matrix(10,0,0,-10,162.10169,10.1651)"/>
<use data-text="1" xlink:href="#font_2_6" transform="matrix(10,0,0,-10,339.3528,10.1651)"/>
<use data-text="2" xlink:href="#font_2_7" transform="matrix(10,0,0,-10,344.91484,10.1651)"/>
<use data-text="&#xfffd;" xlink:href="#font_3_1" transform="matrix(10,0,0,-10,350.4768,10.1651)"/>
<use data-text="1" xlink:href="#font_2_6" transform="matrix(10,0,0,-10,357.60273,10.1651)"/>
<use data-text="1" xlink:href="#font_2_6" transform="matrix(10,0,0,-10,362.42674,10.1651)"/>
<use data-text="&#xfffd;" xlink:href="#font_3_1" transform="matrix(10,0,0,-10,367.99073,10.1651)"/>
<use data-text="9" xlink:href="#font_2_14" transform="matrix(10,0,0,-10,423.35273,10.1651)"/>
<use data-text="&#xfffd;" xlink:href="#font_3_1" transform="matrix(10,0,0,-10,428.91474,10.1651)"/>
<use data-text="8" xlink:href="#font_2_13" transform="matrix(10,0,0,-10,447.35273,10.1651)"/>
<use data-text="&#xfffd;" xlink:href="#font_3_1" transform="matrix(10,0,0,-10,452.91474,10.1651)"/>
<use data-text="7" xlink:href="#font_2_12" transform="matrix(10,0,0,-10,477.35273,10.1651)"/>
<use data-text="&#xfffd;" xlink:href="#font_3_1" transform="matrix(10,0,0,-10,482.91474,10.1651)"/>
<use data-text="6" xlink:href="#font_2_11" transform="matrix(10,0,0,-10,503.3527,10.1651)"/>
<use data-text="&#xfffd;" xlink:href="#font_3_1" transform="matrix(10,0,0,-10,508.9147,10.1651)"/>
<use data-text="5" xlink:href="#font_2_10" transform="matrix(10,0,0,-10,536.35269,10.1651)"/>
<use data-text="&#xfffd;" xlink:href="#font_3_1" transform="matrix(10,0,0,-10,541.9147,10.1651)"/>
<use data-text="4" xlink:href="#font_2_9" transform="matrix(10,0,0,-10,567.35269,10.1651)"/>
<use data-text="&#xfffd;" xlink:href="#font_3_1" transform="matrix(10,0,0,-10,572.9147,10.1651)"/>
<use data-text="3" xlink:href="#font_2_8" transform="matrix(10,0,0,-10,597.35269,10.1651)"/>
<use data-text="&#xfffd;" xlink:href="#font_3_1" transform="matrix(10,0,0,-10,602.9147,10.1651)"/>
<use data-text="2" xlink:href="#font_2_7" transform="matrix(10,0,0,-10,627.35269,10.1651)"/>
<use data-text="&#xfffd;" xlink:href="#font_3_1" transform="matrix(10,0,0,-10,632.9147,10.1651)"/>
<use data-text="1" xlink:href="#font_2_6" transform="matrix(10,0,0,-10,657.35269,10.1651)"/>
<use data-text="&#xfffd;" xlink:href="#font_3_1" transform="matrix(10,0,0,-10,662.9147,10.1651)"/>
<use data-text="0" xlink:href="#font_2_5" transform="matrix(10,0,0,-10,687.35269,10.1651)"/>
<use data-text="&#xfffd;" xlink:href="#font_3_1" transform="matrix(10,0,0,-10,692.9147,10.1651)"/>
<path transform="matrix(1,0,0,-1,-10.8972,537.665)" d="M15 469.2499H685.1249V439.2499H15Z" fill="#ffffff" fill-rule="evenodd"/>
<path transform="matrix(.00007874014,0,0,.00007874014,4.1028006,68.41507)" stroke-width="9525" stroke-linecap="butt" stroke-miterlimit="8" stroke-linejoin="miter" fill="none" stroke="#000000" d="M-.007038122-.1413573H8510588V380999.9H-.007038122Z"/>
<use data-text="A" xlink:href="#font_2_15" transform="matrix(14,0,0,-14,216.22769,88.31496)"/>
<use data-text="v" xlink:href="#font_2_45" transform="matrix(14,0,0,-14,225.31929,88.31496)"/>
<use data-text="a" xlink:href="#font_2_27" transform="matrix(14,0,0,-14,232.31929,88.31496)"/>
<use data-text="i" xlink:href="#font_2_35" transform="matrix(14,0,0,-14,240.1061,88.31496)"/>
<use data-text="l" xlink:href="#font_2_37" transform="matrix(14,0,0,-14,243.21689,88.31496)"/>
<use data-text="a" xlink:href="#font_2_27" transform="matrix(14,0,0,-14,246.3277,88.31496)"/>
<use data-text="b" xlink:href="#font_2_28" transform="matrix(14,0,0,-14,254.1145,88.31496)"/>
<use data-text="l" xlink:href="#font_2_37" transform="matrix(14,0,0,-14,261.9013,88.31496)"/>
<use data-text="e" xlink:href="#font_2_31" transform="matrix(14,0,0,-14,265.0121,88.31496)"/>
<use data-text=" " xlink:href="#font_2_1" transform="matrix(14,0,0,-14,272.7989,88.31496)"/>
<use data-text="f" xlink:href="#font_2_32" transform="matrix(14,0,0,-14,276.6881,88.31496)"/>
<use data-text="o" xlink:href="#font_2_39" transform="matrix(14,0,0,-14,280.5773,88.31496)"/>
<use data-text="r" xlink:href="#font_2_41" transform="matrix(14,0,0,-14,288.3641,88.31496)"/>
<use data-text=" " xlink:href="#font_2_1" transform="matrix(14,0,0,-14,293.02613,88.31496)"/>
<use data-text="O" xlink:href="#font_2_19" transform="matrix(14,0,0,-14,296.9153,88.31496)"/>
<use data-text="S" xlink:href="#font_2_22" transform="matrix(14,0,0,-14,307.8045,88.31496)"/>
<use data-text=" " xlink:href="#font_2_1" transform="matrix(14,0,0,-14,317.14253,88.31496)"/>
<use data-text="(" xlink:href="#font_2_2" transform="matrix(14,0,0,-14,321.0317,88.31496)"/>
<use data-text="p" xlink:href="#font_2_40" transform="matrix(14,0,0,-14,325.6937,88.31496)"/>
<use data-text="a" xlink:href="#font_2_27" transform="matrix(14,0,0,-14,333.4805,88.31496)"/>
<use data-text="g" xlink:href="#font_2_33" transform="matrix(14,0,0,-14,341.2673,88.31496)"/>
<use data-text="e" xlink:href="#font_2_31" transform="matrix(14,0,0,-14,349.05415,88.31496)"/>
<use data-text=" " xlink:href="#font_2_1" transform="matrix(14,0,0,-14,356.84095,88.31496)"/>
<use data-text="l" xlink:href="#font_2_37" transform="matrix(14,0,0,-14,360.7301,88.31496)"/>
<use data-text="o" xlink:href="#font_2_39" transform="matrix(14,0,0,-14,363.84095,88.31496)"/>
<use data-text="c" xlink:href="#font_2_29" transform="matrix(14,0,0,-14,371.62776,88.31496)"/>
<use data-text="a" xlink:href="#font_2_27" transform="matrix(14,0,0,-14,378.62776,88.31496)"/>
<use data-text="t" xlink:href="#font_2_43" transform="matrix(14,0,0,-14,386.41456,88.31496)"/>
<use data-text="i" xlink:href="#font_2_35" transform="matrix(14,0,0,-14,390.3037,88.31496)"/>
<use data-text="o" xlink:href="#font_2_39" transform="matrix(14,0,0,-14,393.41456,88.31496)"/>
<use data-text="n" xlink:href="#font_2_38" transform="matrix(14,0,0,-14,401.20137,88.31496)"/>
<use data-text=" " xlink:href="#font_2_1" transform="matrix(14,0,0,-14,408.98817,88.31496)"/>
<use data-text="o" xlink:href="#font_2_39" transform="matrix(14,0,0,-14,412.87733,88.31496)"/>
<use data-text="n" xlink:href="#font_2_38" transform="matrix(14,0,0,-14,420.66413,88.31496)"/>
<use data-text=" " xlink:href="#font_2_1" transform="matrix(14,0,0,-14,428.45094,88.31496)"/>
<use data-text="d" xlink:href="#font_2_30" transform="matrix(14,0,0,-14,432.34016,88.31496)"/>
<use data-text="i" xlink:href="#font_2_35" transform="matrix(14,0,0,-14,440.12696,88.31496)"/>
<use data-text="s" xlink:href="#font_2_42" transform="matrix(14,0,0,-14,443.23774,88.31496)"/>
<use data-text="k" xlink:href="#font_2_36" transform="matrix(14,0,0,-14,450.23774,88.31496)"/>
<use data-text=")" xlink:href="#font_2_3" transform="matrix(14,0,0,-14,457.23774,88.31496)"/>
<use data-text="&#xfffd;" xlink:href="#font_3_1" transform="matrix(14,0,0,-14,461.89976,88.31496)"/>
<path transform="matrix(1,0,0,-1,-10.8972,537.665)" d="M685.1249 469.2499H715.1249V439.2499H685.1249Z" fill="#ffffff" fill-rule="evenodd"/>
<path transform="matrix(.00007874014,0,0,.00007874014,674.22769,68.41507)" stroke-width="9525" stroke-linecap="butt" stroke-miterlimit="8" stroke-linejoin="miter" fill="none" stroke="#000000" d="M.2878416-.1413573H381000.3V380999.9H.2878416Z"/>
<use data-text="P" xlink:href="#font_4_4" transform="matrix(14,0,0,-14,676.35269,88.31496)"/>
<use data-text="=" xlink:href="#font_4_3" transform="matrix(14,0,0,-14,685.6907,88.31496)"/>
<use data-text="0" xlink:href="#font_4_1" transform="matrix(14,0,0,-14,693.86666,88.31496)"/>
<use data-text="&#xfffd;" xlink:href="#font_5_1" transform="matrix(14,0,0,-14,701.65347,88.31496)"/>
<path transform="matrix(1,0,0,-1,-10.8972,537.665)" d="M44.62503 525.2499H157.375V495.2499H44.62503Z" fill="#ffffff" fill-rule="evenodd"/>
<path transform="matrix(.00007874014,0,0,.00007874014,33.72783,12.4151)" stroke-width="9525" stroke-linecap="butt" stroke-miterlimit="8" stroke-linejoin="miter" fill="none" stroke="#000000" d="M-.03932183 .2492677H1431925V381000.3H-.03932183Z"/>
<use data-text="U" xlink:href="#font_2_24" transform="matrix(14,0,0,-14,65.85279,32.314958)"/>
<use data-text="n" xlink:href="#font_2_38" transform="matrix(14,0,0,-14,75.96359,32.314958)"/>
<use data-text="u" xlink:href="#font_2_44" transform="matrix(14,0,0,-14,83.7504,32.314958)"/>
<use data-text="s" xlink:href="#font_2_42" transform="matrix(14,0,0,-14,91.53719,32.314958)"/>
<use data-text="e" xlink:href="#font_2_31" transform="matrix(14,0,0,-14,98.53719,32.314958)"/>
<use data-text="d" xlink:href="#font_2_30" transform="matrix(14,0,0,-14,106.32399,32.314958)"/>
<use data-text="&#xfffd;" xlink:href="#font_3_1" transform="matrix(14,0,0,-14,114.110797,32.314958)"/>
<use data-text="5" xlink:href="#font_2_10" transform="matrix(10,0,0,-10,133.72769,10.1651)"/>
<use data-text="2" xlink:href="#font_2_7" transform="matrix(10,0,0,-10,139.28969,10.1651)"/>
<use data-text="&#xfffd;" xlink:href="#font_3_1" transform="matrix(10,0,0,-10,144.85169,10.1651)"/>
<path transform="matrix(1,0,0,-1,-10.8972,537.665)" d="M14.87504 525.6249H44.87503V495.6249H14.87504Z" fill="#ffffff" fill-rule="evenodd"/>
<path transform="matrix(.00007874014,0,0,.00007874014,3.9778405,12.0401)" stroke-width="9525" stroke-linecap="butt" stroke-miterlimit="8" stroke-linejoin="miter" fill="none" stroke="#000000" d="M.001407696 .02368188H381000V381000.1H.001407696Z"/>
<use data-text="X" xlink:href="#font_2_26" transform="matrix(14,0,0,-14,9.1028,31.940079)"/>
<use data-text="D" xlink:href="#font_2_17" transform="matrix(14,0,0,-14,18.440802,31.940079)"/>
<use data-text="&#xfffd;" xlink:href="#font_3_1" transform="matrix(14,0,0,-14,28.551604,31.940079)"/>
<use data-text="6" xlink:href="#font_2_11" transform="matrix(10,0,0,-10,16.3528,10.1651)"/>
<use data-text="3" xlink:href="#font_2_8" transform="matrix(10,0,0,-10,21.9148,10.1651)"/>
<use data-text="&#xfffd;" xlink:href="#font_3_1" transform="matrix(10,0,0,-10,27.4768,10.1651)"/>
<use data-text="6" xlink:href="#font_2_11" transform="matrix(10,0,0,-10,37.727754,10.1651)"/>
<use data-text="2" xlink:href="#font_2_7" transform="matrix(10,0,0,-10,43.289754,10.1651)"/>
<use data-text="&#xfffd;" xlink:href="#font_3_1" transform="matrix(10,0,0,-10,48.851755,10.1651)"/>
</g>
</g>
</svg>
