<svg xmlns="http://www.w3.org/2000/svg" xmlns:xlink="http://www.w3.org/1999/xlink" version="1.1" width="456.906pt" height="380.625pt" viewBox="0 0 456.906 380.625">
<defs>
<clipPath id="clip_0">
<path transform="matrix(1,0,0,-1,0,540)" d="M0 159.375H456.906V540H0Z" fill-rule="evenodd"/>
</clipPath>
<clipPath id="clip_1">
<path transform="matrix(1,0,0,-1,0,540)" d="M0 .00002324581H719.9999V540H0Z"/>
</clipPath>
<path id="font_2_8" d="M.07373047 .71777346H.21289063L.4189453 .11091614 .62353518 .71777346H.76123049V0H.6689453V.42362977C.6689453 .43828837 .6692708 .46255494 .6699219 .49642945 .67057296 .53030398 .67089846 .56662496 .67089846 .60539248L.4663086 0H.3701172L.1640625 .60539248V.58340457C.1640625 .5658162 .1644694 .5390218 .1652832 .50302127 .166097 .46703086 .1665039 .44056703 .1665039 .42362977V0H.07373047V.71777346Z"/>
<path id="font_2_15" d="M.28222657 .53515627C.31933595 .53515627 .355306 .52644857 .39013673 .5090332 .42496745 .49161784 .4514974 .4690806 .46972657 .4414215 .4873047 .41505433 .49902345 .3842977 .5048828 .3491516 .5100911 .32506309 .5126953 .28647868 .5126953 .23339844H.12939453C.13102214 .18033855 .14355469 .13777669 .16699219 .10571289 .19042969 .073649089 .22672527 .057617189 .2758789 .057617189 .32177735 .057617189 .35839845 .07261658 .3857422 .10261536 .4013672 .12003072 .4124349 .14018758 .4189453 .16308594H.5053711C.50309249 .14398194 .49552409 .122690837 .48266603 .09921265 .46980796 .07574463 .45540367 .05656433 .43945313 .041671754 .4127604 .01576233 .37972007-.0017242432 .34033204-.010787964 .3191732-.01596578 .2952474-.018554688 .2685547-.018554688 .20345052-.018554688 .14827474 .0051472985 .103027347 .05255127 .05777995 .09995524 .03515625 .16634114 .03515625 .25170899 .03515625 .33576457 .057942708 .40401713 .103515628 .45646668 .14908855 .5089264 .20865886 .53515627 .28222657 .53515627M.42236329 .30371095C.41878257 .34191896 .41048179 .37245179 .39746095 .39530946 .3733724 .4377594 .33317057 .45898438 .27685548 .45898438 .23649089 .45898438 .20263672 .44437156 .17529297 .41514588 .14794922 .3859202 .13346355 .34877525 .13183594 .30371095H.42236329M.27392579 .5361328V.5361328Z"/>
<path id="font_2_22" d="M.064453128 .5234375H.15136719V.44921876C.17220052 .4749349 .19108074 .49365235 .20800781 .5053711 .23697917 .52522787 .26985679 .53515627 .30664063 .53515627 .34830729 .53515627 .38183595 .52490237 .40722657 .50439456 .42154948 .49267579 .4345703 .4754232 .44628907 .45263673 .4658203 .4806315 .48876954 .5013835 .5151367 .5148926 .5415039 .5284017 .5711263 .53515627 .6040039 .53515627 .6743164 .53515627 .72216799 .5097402 .7475586 .45890809 .76123049 .43154399 .7680664 .3947296 .7680664 .34846498V0H.6767578V.36367799C.6767578 .39853923 .6680501 .42248536 .65063479 .43551637 .6332194 .44855754 .6119792 .45507813 .58691409 .45507813 .5524089 .45507813 .5227051 .44350688 .49780274 .42036439 .4729004 .39723207 .46044923 .35861717 .46044923 .30451966V0H.37109376V.3416748C.37109376 .37719728 .36686198 .4031016 .35839845 .41938783 .3450521 .4438324 .32014976 .4560547 .2836914 .4560547 .25048829 .4560547 .22029622 .44318138 .19311524 .4174347 .16593425 .3916982 .15234375 .34510295 .15234375 .27764894V0H.064453128V.5234375Z"/>
<path id="font_2_24" d="M.27197267 .057617189C.33024089 .057617189 .37019859 .07964579 .3918457 .123703 .41349284 .16776021 .4243164 .21677144 .4243164 .2707367 .4243164 .31950379 .4165039 .35917155 .4008789 .38974 .3761393 .43785606 .3334961 .46191407 .27294923 .46191407 .21923828 .46191407 .18017578 .44143168 .15576172 .40046693 .13134766 .35950218 .119140628 .31008403 .119140628 .25221253 .119140628 .1966095 .13134766 .15027364 .15576172 .113204959 .18017578 .076146449 .21891277 .057617189 .27197267 .057617189M.27539063 .53808596C.34277345 .53808596 .3997396 .5156453 .44628907 .47076417 .49283854 .42588298 .5161133 .35985819 .5161133 .27268983 .5161133 .1884613 .49560548 .11886088 .45458985 .06388855 .41357423 .008926392 .3499349-.018554688 .26367188-.018554688 .19173177-.018554688 .13460286 .00575765 .092285159 .054382326 .04996745 .103006999 .028808594 .16829936 .028808594 .2502594 .028808594 .33806864 .05110677 .4079895 .095703128 .46002198 .14029949 .51206466 .20019531 .53808596 .27539063 .53808596M.27246095 .5361328V.5361328Z"/>
<path id="font_2_26" d="M.06689453 .5234375H.15039063V.4326172C.15722656 .4502767 .17399089 .4717814 .2006836 .49713136 .2273763 .52248129 .25813804 .53515627 .29296876 .53515627 .29459635 .53515627 .29736329 .5349579 .30126954 .53456118 .30517579 .5341746 .31184898 .5333964 .32128907 .53222659V.43945313C.31608073 .44062297 .3112793 .44140116 .30688478 .44178773 .30249024 .44218446 .2976888 .4423828 .29248048 .4423828 .24820964 .4423828 .2141927 .4280599 .19042969 .39941407 .16666667 .37076823 .15478516 .33789063 .15478516 .30078126V0H.06689453V.5234375Z"/>
<path id="font_2_32" d="M.39111329 .5234375H.48828126C.47591148 .48987834 .44840495 .41330973 .40576173 .2937317 .3738607 .20380657 .34716798 .13049825 .3256836 .07380676 .27490235-.059921266 .23909505-.14145915 .21826172-.17080689 .19742839-.2001648 .1616211-.21484375 .110839847-.21484375 .098470058-.21484375 .08894857-.21435039 .08227539-.21336365 .07560221-.21238709 .06738281-.21058655 .057617189-.20796204V-.1274414C.072916667-.13167317 .083984378-.13427735 .09082031-.1352539 .09765625-.13623047 .10367838-.13671875 .10888672-.13671875 .12516277-.13671875 .13712566-.1340332 .14477539-.12866211 .15242513-.123291019 .15885417-.11669922 .1640625-.10888672 .16569011-.106282558 .17154949-.092936199 .18164063-.068847659 .19173177-.044759115 .19905599-.026855469 .20361328-.015136719L.010253906 .5234375H.10986328L.25 .09727478 .39111329 .5234375M.24951172 .5361328V.5361328Z"/>
<path id="font_2_1" d="M0 0Z"/>
<path id="font_2_11" d="M.13183594 .1394043C.13183594 .114095058 .14111328 .09413656 .15966797 .07952881 .17822266 .06492106 .20019531 .057617189 .22558594 .057617189 .2565104 .057617189 .28645835 .06471761 .3154297 .07891846 .3642578 .10247803 .38867188 .14127605 .38867188 .1953125V.26611329C.3779297 .25886027 .36409507 .2528127 .34716798 .24797058 .33024089 .24313863 .3136393 .23983257 .29736329 .23805237L.24414063 .23184204C.21223958 .22799683 .1883138 .22153218 .17236328 .21244812 .14534505 .19718933 .13183594 .17284139 .13183594 .1394043M.34472657 .31689454C.36490885 .3194987 .37841798 .32796226 .3852539 .34228517 .38916017 .35012818 .39111329 .36140443 .39111329 .3761139 .39111329 .40618388 .38045249 .42799888 .35913087 .44155885 .33780924 .455129 .30729167 .46191407 .26757813 .46191407 .22167969 .46191407 .18912761 .44948326 .16992188 .42462159 .15917969 .4108785 .15218099 .39043174 .14892578 .36328126H.06689453C.06852213 .42791749 .08943685 .47288514 .12963867 .4981842 .1698405 .5234833 .21647136 .5361328 .26953126 .5361328 .3310547 .5361328 .38102214 .52441409 .4194336 .50097659 .45751954 .47753907 .4765625 .4410502 .4765625 .39151V.08985901C.4765625 .08073425 .47843424 .073404949 .48217774 .067871097 .48592124 .06233724 .4938151 .059570314 .5058594 .059570314 .5097656 .059570314 .51416018 .059814454 .51904299 .060302736 .5239258 .060791017 .5291341 .061523439 .53466799 .0625V-.0028076173C.5209961-.00676473 .5105794-.009236653 .50341799-.010223389 .4962565-.011220296 .48649089-.01171875 .4741211-.01171875 .44384767-.01171875 .421875-.0009104411 .40820313 .020706177 .40104167 .032170614 .3959961 .048380536 .3930664 .06933594 .37516276 .045633954 .34944663 .025060019 .31591798 .0076141359 .2823893-.009831746 .2454427-.018554688 .20507813-.018554688 .15657552-.018554688 .11694336-.0037790936 .08618164 .025772095 .055419923 .055323285 .040039064 .092300418 .040039064 .13670349 .040039064 .18535869 .05517578 .22307332 .08544922 .24984741 .115722659 .2766215 .1554362 .29311119 .20458985 .2993164L.34472657 .31689454M.27197267 .5361328V.5361328Z"/>
<path id="font_2_25" d="M.28515626 .057617189C.32617188 .057617189 .36027018 .07486979 .38745118 .109375 .41463218 .14389038 .42822267 .1954956 .42822267 .26419068 .42822267 .3060608 .42220054 .34204103 .41015626 .37213136 .38736979 .43003337 .34570313 .45898438 .28515626 .45898438 .22428386 .45898438 .18261719 .42840068 .16015625 .36723329 .14811199 .33451844 .14208985 .29297386 .14208985 .24259949 .14208985 .20204163 .14811199 .16753133 .16015625 .1390686 .1829427 .08476766 .22460938 .057617189 .28515626 .057617189M.057617189 .5205078H.1430664V.45162965C.16064453 .47540284 .17985027 .49379985 .2006836 .5068207 .23030599 .5263621 .26513673 .5361328 .30517579 .5361328 .36442057 .5361328 .41471354 .5133667 .4560547 .46783448 .49739585 .42230226 .5180664 .3572693 .5180664 .2727356 .5180664 .1585083 .48828126 .07691447 .42871095 .027954102 .39095054-.0030517579 .34700523-.018554688 .296875-.018554688 .25748698-.018554688 .22444661-.009984334 .1977539 .007156372 .1821289 .016860962 .16471355 .033518476 .14550781 .057128908V-.20898438H.057617189V.5205078Z"/>
<path id="font_2_14" d="M.12011719 .2553711C.12011719 .19923909 .1319987 .15224712 .15576172 .11439514 .17952474 .076543178 .21761067 .057617189 .27001954 .057617189 .31070964 .057617189 .3441569 .075154628 .37036134 .11022949 .39656578 .14531453 .40966798 .19565328 .40966798 .26124574 .40966798 .32748924 .39615885 .37651573 .36914063 .4083252 .3421224 .44014488 .3087565 .4560547 .26904298 .4560547 .22477214 .4560547 .18888347 .4390869 .16137696 .40515138 .13387044 .37121583 .12011719 .32128907 .12011719 .2553711M.2524414 .53222659C.29248048 .53222659 .32600913 .52381899 .35302735 .5070038 .36865235 .4972992 .38639323 .48031617 .40625 .4560547V.71875H.49072267V0H.4116211V.07229614C.39111329 .04023234 .36686198 .017074585 .3388672 .002822876 .3108724-.011428833 .2788086-.018554688 .24267578-.018554688 .18440755-.018554688 .13395183 .0059407555 .091308597 .05493164 .048665365 .10392252 .02734375 .16910808 .02734375 .25048829 .02734375 .32666017 .04679362 .39265953 .08569336 .44848634 .1245931 .5043132 .18017578 .53222659 .2524414 .53222659Z"/>
<path id="font_2_17" d="M.24902344 .53222659C.29003907 .53222659 .32584635 .5220744 .3564453 .50177 .37304688 .49030558 .38997398 .4736023 .40722657 .45166017V.5185547H.48828126V.04234314C.48828126-.024154664 .47851563-.07663473 .45898438-.115097049 .42252604-.18615215 .35367839-.22167969 .2524414-.22167969 .1961263-.22167969 .14876302-.20906575 .11035156-.18383789 .0719401-.15861003 .05045573-.119140628 .045898439-.06542969H.1352539C.13948567-.08873495 .14794922-.10669454 .16064453-.11930847 .1805013-.13872783 .2117513-.1484375 .25439454-.1484375 .32177735-.1484375 .3658854-.12467448 .38671876-.07714844 .39908854-.04916382 .40478517 .0007985433 .4038086 .07273865 .38623048 .04588318 .36507163 .025904337 .34033204 .012802124 .31559245-.000289917 .2828776-.0068359377 .2421875-.0068359377 .18554688-.0068359377 .13598633 .013280232 .09350586 .053512575 .05102539 .09375509 .029785157 .16030376 .029785157 .25315858 .029785157 .34080506 .051188154 .40922547 .09399414 .4584198 .13680013 .5076243 .18847656 .53222659 .24902344 .53222659M.40722657 .26342774C.40722657 .328125 .39388023 .37607829 .3671875 .4072876 .34049479 .43849693 .30647788 .45410157 .26513673 .45410157 .20328777 .45410157 .16097005 .4251658 .1381836 .3672943 .12613933 .33641053 .12011719 .29593406 .12011719 .24586487 .12011719 .1870168 .13208008 .14223226 .15600586 .11151123 .17993164 .0807902 .21207683 .06542969 .2524414 .06542969 .31559245 .06542969 .36002604 .09387716 .3857422 .1507721 .4000651 .18295796 .40722657 .22050984 .40722657 .26342774M.25927735 .5361328V.5361328Z"/>
<path id="font_2_19" d="M.064453128 .5205078H.1538086V0H.064453128V.5205078M.064453128 .71777346H.1538086V.61816409H.064453128V.71777346Z"/>
<path id="font_2_23" d="M.064453128 .5234375H.14794922V.44921876C.1726888 .47981773 .19889324 .50179037 .2265625 .5151367 .25423179 .5284831 .2849935 .53515627 .31884767 .53515627 .3930664 .53515627 .44319663 .5092519 .46923829 .45744325 .4835612 .42910258 .49072267 .38853965 .49072267 .3357544V0H.4013672V.3299408C.4013672 .36188255 .39664714 .38762919 .38720704 .4071808 .37158204 .4397634 .34326173 .4560547 .3022461 .4560547 .28141276 .4560547 .2643229 .4539388 .25097657 .44970704 .22688802 .4425354 .20572917 .42819724 .1875 .4066925 .17285156 .38941957 .16333008 .37157694 .15893555 .35316468 .15454102 .3347524 .15234375 .30844117 .15234375 .27423097V0H.064453128V.5234375M.2709961 .5361328V.5361328Z"/>
<path id="font_3_1" d="M0 0Z"/>
<path id="font_2_16" d="M.08642578 .6021576C.08772787 .638443 .09407552 .66500857 .10546875 .68185427 .12597656 .7116597 .16552735 .7265625 .2241211 .7265625 .22965496 .7265625 .23535156 .7263997 .24121094 .7260742 .24707031 .7257487 .2537435 .72526046 .26123048 .7246094V.64453127C.25211589 .6449687 .2455241 .6452382 .24145508 .64533999 .23738607 .64545187 .2335612 .6455078 .22998047 .6455078 .20328777 .6455078 .18733724 .6386719 .1821289 .625 .17692058 .6113281 .1743164 .5764974 .1743164 .5205078H.26123048V.45117188H.17333985V0H.08642578V.45117188H.013671875V.5205078H.08642578V.6021576Z"/>
<path id="font_2_27" d="M.11669922 .1640625C.11930338 .13463338 .12662761 .11207072 .13867188 .09637451 .1608073 .06793213 .19921875 .053710939 .25390626 .053710939 .28645835 .053710939 .31510417 .060806276 .33984376 .07499695 .36458335 .08919779 .37695313 .11115011 .37695313 .14085388 .37695313 .16337586 .36702476 .18051148 .34716798 .19226074 .33447267 .19944255 .30940757 .20775859 .27197267 .21720886L.20214844 .2348175C.15755208 .24590557 .12467448 .25829569 .103515628 .27198792 .06575521 .29579164 .046875 .32873027 .046875 .37080384 .046875 .42036439 .064697269 .46046958 .1003418 .49111939 .13598633 .52177938 .18391927 .5371094 .24414063 .5371094 .32291667 .5371094 .37972007 .5139974 .41455079 .46777345 .4363607 .43847657 .4469401 .40690104 .44628907 .37304688H.36328126C.36165367 .39269004 .35465495 .41055808 .34228517 .426651 .32210288 .44950868 .28710938 .4609375 .23730469 .4609375 .20410156 .4609375 .17895508 .45461528 .16186524 .44197084 .14477539 .42933656 .13623047 .41264854 .13623047 .39190675 .13623047 .36922203 .14746094 .35107423 .16992188 .33746339 .1829427 .32936607 .20214844 .32221986 .22753906 .31602479L.28564454 .3018341C.34879557 .28650413 .39111329 .27166749 .41259767 .25732423 .44677735 .23482259 .4638672 .19944255 .4638672 .15118408 .4638672 .10455322 .44620768 .06428019 .41088868 .03036499 .37556968-.0035502117 .32177735-.020507813 .24951172-.020507813 .17171224-.020507813 .116617839-.002802531 .084228519 .032608034 .05183919 .06801859 .034505208 .111836757 .032226564 .1640625H.11669922M.24658203 .5361328V.5361328Z"/>
<path id="font_2_18" d="M.064453128 .71875H.15234375V.45214845C.17317708 .4786682 .19189453 .4973297 .2084961 .50813296 .2368164 .5267995 .2721354 .5361328 .31445313 .5361328 .39029948 .5361328 .44173179 .50957748 .46875 .45646668 .48339845 .42747499 .49072267 .38723756 .49072267 .3357544V0H.40039063V.32958985C.40039063 .3680013 .3955078 .39615885 .3857422 .4140625 .36979167 .44270835 .33984376 .45703126 .29589845 .45703126 .2594401 .45703126 .22639974 .4444987 .19677735 .4194336 .16715496 .3943685 .15234375 .34700523 .15234375 .27734376V0H.064453128V.71875Z"/>
<path id="font_2_21" d="M.06689453 .71777346H.15478516V0H.06689453V.71777346Z"/>
<path id="font_2_12" d="M.057617189 .71875H.1430664V.45948792C.16227214 .4847056 .18522136 .50394698 .21191406 .5172119 .23860677 .53047689 .26757813 .5371094 .29882813 .5371094 .36393229 .5371094 .41674806 .5147095 .4572754 .46990968 .49780274 .42510987 .5180664 .35905458 .5180664 .27174378 .5180664 .1889801 .49804688 .12022909 .4580078 .06549072 .41796876 .010762532 .36246745-.016601563 .2915039-.016601563 .25179038-.016601563 .21826172-.006942749 .19091797 .012374878 .17464192 .023839316 .15722656 .042175294 .13867188 .06738281V0H.057617189V.71875M.2861328 .061523439C.33365885 .061523439 .36922203 .08037821 .39282228 .11808777 .41642253 .1558075 .42822267 .20555115 .42822267 .26731874 .42822267 .32227073 .41642253 .3677877 .39282228 .40386964 .36922203 .43996177 .33447267 .4580078 .28857423 .4580078 .24853516 .4580078 .21346028 .44321189 .18334961 .41362 .15323894 .3840383 .1381836 .3352712 .1381836 .26731874 .1381836 .21822612 .14436849 .17840068 .15673828 .1478424 .17985027 .090296428 .22298177 .061523439 .2861328 .061523439Z"/>
<path id="font_2_9" d="M.40966798 .38867188C.45524089 .38867188 .49129234 .39778648 .51782229 .41601563 .54435226 .43424479 .5576172 .4671224 .5576172 .51464846 .5576172 .5657552 .5390625 .60058596 .5019531 .6191406 .48209635 .62890627 .4555664 .63378909 .42236329 .63378909H.1850586V.38867188H.40966798M.087890628 .71777346H.41992188C.47460938 .71777346 .51969406 .709788 .5551758 .69381716 .6225586 .6631775 .65625 .60662338 .65625 .52415469 .65625 .48112489 .6473796 .44591777 .6296387 .41853334 .61189779 .39115907 .58707687 .36916099 .5551758 .35253907 .5831706 .34114585 .60424807 .32617188 .6184082 .3076172 .63256838 .2890625 .6404622 .2589518 .64208987 .21728516L.6455078 .12109375C.6464844 .09388224 .648763 .07363383 .65234377 .06034851 .6582031 .037663778 .6686198 .023081461 .68359377 .016601563V0H.5644531C.56119796 .006184896 .55859377 .014160156 .5566406 .023925782 .5546875 .033691408 .5530599 .052571615 .5517578 .080566409L.54589846 .20019531C.5436198 .24707031 .5262044 .27848307 .49365235 .2944336 .47509767 .30322267 .44596354 .3076172 .40625 .3076172H.1850586V0H.087890628V.71777346Z"/>
<path id="font_2_29" d="M.15234375 .5234375V.17590332C.15234375 .1491801 .15657552 .12734477 .16503906 .11039734 .18066406 .07911682 .20979817 .06347656 .2524414 .06347656 .3136393 .06347656 .355306 .09085083 .3774414 .14559937 .3894857 .17492676 .3955078 .21516927 .3955078 .2663269V.5234375H.48339845V0H.40039063L.4013672 .0771637C.38997398 .057195028 .3758138 .040339155 .35888673 .02659607 .32535807-.00090026858 .28466798-.0146484379 .2368164-.0146484379 .16227214-.0146484379 .11149088 .010299683 .084472659 .060195924 .06982422 .08693949 .0625 .12265015 .0625 .16732788V.5234375H.15234375M.27294923 .5361328V.5361328Z"/>
<path id="font_2_28" d="M.08203125 .66796877H.17089844V.5234375H.25439454V.4501953H.17089844V.110183719C.17089844 .09202576 .17708333 .07986959 .18945313 .07371521 .19628906 .07014465 .2076823 .068359378 .22363281 .068359378 .22786458 .068359378 .23242188 .06846619 .23730469 .06867981 .2421875 .0689036 .24788411 .06944784 .25439454 .0703125V0C.24430339-.0031026204 .23380535-.005340576 .22290039-.006713867 .21199544-.008097331 .20019531-.0087890629 .1875-.0087890629 .14648438-.0087890629 .118652347 .0016988119 .104003909 .02267456 .08935547 .04365031 .08203125 .070882167 .08203125 .10437012V.4501953H.011230469V.5234375H.08203125V.66796877Z"/>
<path id="font_2_2" d="M.29589845 .7294922C.24479167 .6301575 .21158855 .55703738 .19628906 .51013186 .17317708 .43881227 .1616211 .3564148 .1616211 .26293946 .1616211 .16848755 .17480469 .08217875 .20117188 .0040130617 .21744792-.044184369 .24951172-.11355591 .29736329-.20410156H.23828125C.1907552-.12984212 .16129558-.08245341 .14990235-.061935426 .13850911-.04141744 .12613933-.013570149 .11279297 .021606446 .094563808 .06980387 .08186849 .1212616 .07470703 .17597962 .071126308 .2043101 .06933594 .23134358 .06933594 .25708009 .06933594 .3534851 .084472659 .43930564 .114746097 .5145416 .13395183 .5624135 .17399089 .6340637 .23486328 .7294922H.29589845Z"/>
<path id="font_2_30" d="M.107421878 .5234375 .24707031 .09725952 .3930664 .5234375H.4892578L.2919922 0H.19824219L.0053710939 .5234375H.107421878Z"/>
<path id="font_2_13" d="M.26611329 .53808596C.32503257 .53808596 .37296549 .5237274 .4099121 .49501039 .44685874 .46629334 .46907554 .41684977 .4765625 .3466797H.39111329C.38590495 .37890626 .37402345 .40568034 .35546876 .42700196 .33691407 .44832359 .3071289 .45898438 .26611329 .45898438 .2101237 .45898438 .17008464 .43170677 .1459961 .3771515 .1303711 .34176127 .122558597 .29808555 .122558597 .24612427 .122558597 .19384766 .1336263 .14984639 .15576172 .11412048 .17789714 .07840475 .21272786 .060546876 .2602539 .060546876 .29671226 .060546876 .3256022 .0716095 .34692384 .09373474 .36824546 .115859989 .38297526 .1461385 .39111329 .18457031H.4765625C.46679688 .115234378 .4423828 .06453451 .4033203 .032470704 .3642578 .00040690104 .31429038-.015625 .25341798-.015625 .1850586-.015625 .13053386 .009379069 .08984375 .059387208 .049153646 .10940552 .028808594 .17188008 .028808594 .24681092 .028808594 .33868919 .05110677 .41020204 .095703128 .4613495 .14029949 .51250717 .19710286 .53808596 .26611329 .53808596M.2524414 .5361328V.5361328Z"/>
<path id="font_2_3" d="M.03466797-.20410156C.08642578-.103139247 .119791667-.029530844 .13476563 .016723633 .15755208 .08674113 .16894531 .16881307 .16894531 .26293946 .16894531 .35706584 .15576172 .44321189 .12939453 .52137759 .11311849 .569575 .08105469 .63894656 .033203126 .7294922H.092285159C.14241536 .64937338 .17277019 .59995016 .18334961 .58122256 .19392903 .56249496 .20540364 .5366821 .21777344 .5037842 .23339844 .46307374 .24454753 .42285157 .2512207 .38311769 .2578939 .3433838 .26123048 .30511476 .26123048 .26831056 .26123048 .17190552 .24593099 .08592224 .21533203 .010360718 .1961263-.03816223 .15625-.10964966 .095703128-.20410156H.03466797Z"/>
<path id="font_2_6" d="M.37841798 .7373047C.46923829 .7373047 .53971359 .71332809 .58984377 .66537478 .63997396 .61742147 .66780599 .5629476 .67333987 .5019531H.5786133C.5678711 .54817709 .5464681 .58479818 .5144043 .6118164 .48234049 .63883468 .43733726 .65234377 .37939454 .65234377 .3087565 .65234377 .25170899 .62754318 .20825196 .5779419 .16479492 .52834066 .1430664 .45231629 .1430664 .34986878 .1430664 .26594544 .16267903 .19788106 .2019043 .14567566 .24112956 .09348043 .29964195 .06738281 .3774414 .06738281 .449056 .06738281 .50358077 .094823207 .5410156 .14970398 .5608724 .17860413 .5756836 .21659343 .5854492 .26367188H.6801758C.6717122 .18815105 .64371749 .12483724 .5961914 .07373047 .5392253 .012207031 .46240235-.018554688 .36572267-.018554688 .2823893-.018554688 .21240235 .006688436 .15576172 .057174684 .081217449 .12394714 .043945314 .2270406 .043945314 .36645509 .043945314 .47232057 .0719401 .5591278 .12792969 .62687686 .18847656 .7004954 .27197267 .7373047 .37841798 .7373047M.35888673 .7373047V.7373047Z"/>
<path id="font_2_4" d="M.08544922 .10644531H.1875V0H.08544922V.10644531Z"/>
<path id="font_2_31" d="M.0146484379 .5234375H.12841797L.24853516 .33918763 .3701172 .5234375 .47705079 .5209961 .30078126 .26831056 .48486329 0H.3725586L.24267578 .19647217 .11669922 0H.0053710939L.18945313 .26831056 .0146484379 .5234375Z"/>
<path id="font_2_7" d="M.09814453 .71777346H.19628906V0H.09814453V.71777346Z"/>
<path id="font_2_33" d="M.025390625 .06976318 .33544923 .44433595H.048339845V.5234375H.45361329V.45121766L.14550781 .07910156H.46289063V0H.025390625V.06976318M.25146485 .5361328V.5361328Z"/>
<path id="font_2_10" d="M.18164063 .71777346V.27441407C.18164063 .22233074 .19140625 .17903646 .2109375 .14453125 .23990886 .092447917 .28873698 .06640625 .35742188 .06640625 .43977867 .06640625 .49576823 .094563808 .5253906 .1508789 .5413411 .18147786 .5493164 .22265625 .5493164 .27441407V.71777346H.6479492V.3149414C.6479492 .22672527 .6360677 .15885417 .6123047 .111328128 .5686849 .024739584 .48632813-.018554688 .36523438-.018554688 .24414063-.018554688 .16194661 .024739584 .118652347 .111328128 .09488932 .15885417 .08300781 .22672527 .08300781 .3149414V.71777346H.18164063M.36572267 .71777346V.71777346Z"/>
<path id="font_2_20" d="M.0625 .71777346H.14697266V.30101014L.3725586 .5234375H.48486329L.28466798 .32881166 .49609376 0H.38378907L.22070313 .26635743 .14697266 .19647217V0H.0625V.71777346Z"/>
<path id="font_2_5" d="M.2705078 .7001953C.3610026 .7001953 .42643229 .66289779 .46679688 .5883026 .49804688 .5306447 .5136719 .45165 .5136719 .35131837 .5136719 .25620524 .49951173 .17754109 .4711914 .11532593 .43017579 .026072184 .3631185-.018554688 .27001954-.018554688 .18603516-.018554688 .123535159 .017929078 .08251953 .09089661 .048339845 .15180969 .03125 .23357137 .03125 .33618165 .03125 .41565959 .041503908 .48390199 .06201172 .5409088 .10042318 .6470998 .16992188 .7001953 .2705078 .7001953M.26953126 .061523439C.31510417 .061523439 .35139976 .08168539 .37841798 .12200928 .4054362 .16234334 .4189453 .23747762 .4189453 .3474121 .4189453 .42676798 .4091797 .49205528 .38964845 .5432739 .3701172 .59450277 .332194 .6201172 .2758789 .6201172 .2241211 .6201172 .1862793 .59580489 .16235352 .5471802 .13842774 .4985555 .12646485 .42692057 .12646485 .3322754 .12646485 .26105754 .13411458 .20381673 .14941406 .16055298 .17285156 .09453329 .21289063 .061523439 .26953126 .061523439Z"/>
<path id="font_4_4" d="M.23779297 .71777346H.5605469C.62434896 .71777346 .67195639 .6997884 .70336917 .66381838 .7347819 .6278483 .74348959 .5773112 .7294922 .51220706 .71777346 .45621745 .69002279 .4074707 .64624026 .3659668 .6024577 .3244629 .5444336 .30371095 .47216798 .30371095H.24658203L.18261719 0H.08544922L.23779297 .71777346M.5957031 .61868289C.5761719 .62875369 .5476888 .63378909 .5102539 .63378909H.31689454L.26416017 .3857422H.45751954C.50113937 .3857422 .53849288 .39499919 .5695801 .41351319 .6006673 .43203736 .62125656 .46469117 .63134768 .5114746 .64241537 .56410726 .6305339 .5998433 .5957031 .61868289Z"/>
<path id="font_4_18" d="M.17773438 .5234375H.26123048L.2421875 .43301393C.25260417 .4506124 .2738444 .47203575 .3059082 .49728395 .33797203 .52253219 .37141929 .53515627 .40625 .53515627 .4078776 .53515627 .41064454 .5349579 .41455079 .53456118 .41845704 .5341746 .42496745 .5333964 .43408204 .53222659L.41455079 .4399414C.40934245 .44091798 .4046224 .441569 .40039063 .44189454 .39615885 .44222007 .3914388 .4423828 .38623048 .4423828 .34195964 .4423828 .30493165 .428126 .27514649 .39961244 .24536133 .37109886 .22639974 .338267 .21826172 .30111695L.15478516 0H.06689453L.17773438 .5234375Z"/>
<path id="font_4_12" d="M.17480469 .5205078H.26416017L.1538086 0H.064453128L.17480469 .5205078M.21679688 .71777346H.30615235L.28466798 .61816409H.1953125L.21679688 .71777346Z"/>
<path id="font_4_20" d="M.21826172 .5234375 .26757813 .09725952 .50390627 .5234375H.60009768L.2919922 0H.19824219L.11621094 .5234375H.21826172Z"/>
<path id="font_4_6" d="M.23730469 .057617189C.26822917 .057617189 .2998047 .06476847 .33203126 .079071048 .3857422 .10281372 .41845704 .14166768 .43017579 .19563294L.44482423 .26635743C.43277995 .25953166 .417806 .25384013 .39990235 .24928284 .3819987 .24473572 .3647461 .2414856 .34814454 .23953247L.29345704 .23271179C.26057945 .22848003 .2351888 .22181194 .21728516 .21270752 .18701172 .19742839 .16829427 .17304485 .16113281 .13955689 .15559896 .11419678 .16056316 .09419759 .17602539 .079559329 .19148763 .064931239 .21191406 .057617189 .23730469 .057617189M.4116211 .31723023C.43245445 .31984458 .44791667 .32831828 .4580078 .34265138 .46354167 .35047404 .46777345 .3617147 .47070313 .3763733 .47721354 .40635173 .4711914 .4281006 .45263673 .44161988 .43408204 .45514933 .4049479 .46191407 .36523438 .46191407 .31933595 .46191407 .2841797 .44954429 .25976563 .4248047 .24609375 .4111328 .23486328 .39078776 .22607422 .36376954H.14404297C.15934246 .42822267 .18977864 .47306315 .23535156 .49829103 .28092448 .52351889 .33024089 .5361328 .38330079 .5361328 .44482423 .5361328 .4921875 .52441409 .5253906 .50097659 .55859377 .47753907 .569987 .44108073 .5595703 .39160157L.49560548 .09033203C.49365235 .081217449 .49389649 .07389323 .4963379 .068359378 .4987793 .06282552 .50602218 .060058595 .5180664 .060058595 .52197268 .060058595 .52644857 .060343427 .53149417 .060913087 .53653976 .061482748 .5419922 .06233724 .54785159 .06347656L.5336914-.0027618409C.51936849-.0067392985 .5085449-.009226481 .5012207-.010223389 .49389649-.011220296 .48404948-.01171875 .4716797-.01171875 .44140626-.01171875 .42171226-.00090026858 .41259767 .020736695 .40771485 .032211305 .40608726 .04843648 .40771485 .06941223 .38460288 .045954389 .3544922 .02558899 .3173828 .00831604 .28027345-.008946736 .24153646-.017578125 .20117188-.017578125 .15266927-.017578125 .116129558-.0028330486 .091552738 .026657105 .066975917 .05614726 .05940755 .093048099 .068847659 .13735962 .07926432 .18591309 .10245768 .22355144 .13842774 .25027467 .17439778 .2769979 .21761067 .29345194 .2680664 .29963685L.4116211 .31723023Z"/>
<path id="font_4_19" d="M.2241211 .6689453H.31298829L.28173829 .5234375H.36523438L.35009767 .45117188H.26660157L.19384766 .10948181C.1899414 .0912323 .19352214 .07901001 .20458985 .07281494 .21077474 .069234218 .22184246 .06744385 .23779297 .06744385 .24202474 .06744385 .24658203 .06752523 .25146485 .06768799 .25634767 .067850749 .26220704 .06825765 .26904298 .06890869L.25439454-.00048828127C.24365235-.0034179688 .23266602-.005533854 .22143555-.0068359377 .21020508-.0081380209 .19824219-.0087890629 .18554688-.0087890629 .14453125-.0087890629 .118896488 .0017191569 .10864258 .022735596 .09838867 .043752035 .096842449 .07104492 .104003909 .10461426L.17773438 .45117188H.106933597L.12207031 .5234375H.1928711L.2241211 .6689453Z"/>
<path id="font_4_10" d="M.5629883 .44125367C.57503256 .4148458 .5802409 .3840332 .5786133 .34881593 .5789388 .32468669 .57340499 .2862142 .5620117 .23339844H.17871094C.16894531 .18033855 .17244466 .13777669 .18920899 .10571289 .20597331 .073649089 .2389323 .057617189 .28808595 .057617189 .33398438 .057617189 .3736979 .072779338 .40722657 .10310364 .4267578 .12070211 .44222007 .14107768 .45361329 .16423035H.54003909C.5335286 .14500427 .521403 .12358093 .5036621 .09996033 .48592124 .07633972 .4674479 .057037355 .4482422 .042053224 .41601563 .015981039 .37923179-.0016174316 .33789063-.0107421879 .3154297-.015950522 .29085288-.018554688 .26416017-.018554688 .19905599-.018554688 .14892578 .0051472985 .11376953 .05255127 .07861328 .09995524 .07014974 .16634114 .088378909 .25170899 .106282558 .33576457 .14355469 .40401713 .20019531 .45646668 .25683595 .5089264 .3219401 .53515627 .3955078 .53515627 .4326172 .53515627 .46679688 .5264333 .49804688 .5089874 .5292969 .49154154 .55094406 .46896363 .5629883 .44125367M.48632813 .30371095C.4908854 .3416748 .48909507 .37201438 .48095704 .3947296 .46598307 .43691508 .43033854 .4580078 .37402345 .4580078 .33365885 .4580078 .29671226 .44348655 .2631836 .41444398 .22965496 .3854014 .20719402 .3484904 .19580078 .30371095H.48632813Z"/>
<path id="font_4_2" d="M.061035158-.10205078C.084472659-.09814453 .10367838-.08235677 .118652347-.0546875 .12646485-.040039064 .13183594-.025878907 .13476563-.012207031 .13541667-.009928386 .13582357-.00789388 .13598633-.0061035158 .1361491-.004313151 .13623047-.0022786458 .13623047 0H.08300781L.10546875 .10644531H.20996094L.18896485 .0078125C.18082683-.030924479 .16577149-.064941409 .14379883-.09423828 .12182617-.123535159 .09098307-.14160156 .05126953-.1484375L.061035158-.10205078Z"/>
<path id="font_4_1" d="M0 0Z"/>
<path id="font_4_9" d="M.28222657 .05859375C.32291667 .05859375 .36002604 .076044719 .3935547 .110946658 .42708335 .14585877 .45084635 .19594829 .46484376 .2612152 .47884117 .32713319 .4757487 .37592063 .4555664 .4075775 .43538413 .4392446 .4054362 .45507813 .36572267 .45507813 .3214518 .45507813 .28198243 .43819175 .24731446 .40441896 .21264649 .37064616 .1883138 .32096354 .1743164 .2553711 .16227214 .19952393 .16414388 .15276592 .17993164 .115097049 .1957194 .077428188 .2298177 .05859375 .28222657 .05859375M.46044923 .50683596C.4741211 .4970703 .48828126 .47998048 .5029297 .4555664L.55908206 .71972659H.6435547L.49072267 0H.4116211L.4267578 .072753909C.39941407 .040527345 .37019859 .017252604 .33911134 .0029296876 .30802409-.0113932299 .27441407-.018554688 .23828125-.018554688 .18001302-.018554688 .13476563 .0059407555 .10253906 .05493164 .0703125 .10392252 .06298828 .16910808 .080566409 .25048829 .09651693 .32666017 .12988281 .39265953 .18066406 .44848634 .23144531 .5043132 .29296876 .53222659 .36523438 .53222659 .40527345 .53222659 .43701173 .523763 .46044923 .50683596Z"/>
<path id="font_4_15" d="M.17529297 .5234375H.26220704L.24658203 .44914247C.27294923 .47487895 .2957357 .49361167 .3149414 .5053406 .34814454 .5252177 .38313804 .53515627 .41992188 .53515627 .46158854 .53515627 .4930013 .52489218 .51416018 .504364 .5258789 .4926351 .53515627 .47536723 .5419922 .45256043 .5677083 .48058573 .5951335 .50135806 .6242676 .5148773 .6534017 .5283966 .68440756 .53515627 .71728518 .53515627 .78759768 .53515627 .8300781 .5097402 .84472659 .45890809 .85253909 .43154399 .8515625 .3947296 .8417969 .34846498L.7680664 0H.6767578L.75390627 .36367799C.7610677 .39853923 .7573242 .42248536 .7426758 .43551637 .72802737 .44855754 .7081706 .45507813 .68310549 .45507813 .6486003 .45507813 .6164551 .44350688 .5866699 .42036439 .55688479 .39723207 .5362956 .35861717 .52490237 .30451966L.46044923 0H.37109376L.44335938 .3416748C.45084635 .37719728 .45214845 .4031016 .44726563 .41938783 .4391276 .4438324 .41682945 .4560547 .3803711 .4560547 .34716798 .4560547 .31420899 .44318138 .28149415 .4174347 .2487793 .3916982 .22526042 .34509788 .2109375 .27763368L.15234375 0H.064453128L.17529297 .5234375Z"/>
<path id="font_4_16" d="M.17529297 .5234375H.25878907L.24316406 .44914247C.27441407 .47977195 .30525718 .50176498 .33569337 .51512148 .36612956 .52847799 .39827476 .53515627 .4321289 .53515627 .50634768 .53515627 .55094406 .5092519 .56591799 .45744325 .57438156 .42910258 .5730794 .38853965 .5620117 .3357544L.49072267 0H.4013672L.4711914 .3299408C.47802735 .36188255 .47884117 .38762919 .4736328 .4071808 .46484376 .4397634 .4399414 .4560547 .39892579 .4560547 .37809245 .4560547 .3605143 .4539388 .3461914 .44970704 .32047526 .4425354 .29622398 .42819724 .2734375 .4066925 .25520835 .38941957 .24194336 .37157694 .23364258 .35316468 .2253418 .3347524 .21761067 .30843608 .21044922 .2742157L.15234375 0H.064453128L.17529297 .5234375Z"/>
<path id="font_4_3" d="M.10986328 .32421876H.35498048L.3359375 .23339844H.09082031L.10986328 .32421876Z"/>
<path id="font_4_21" d="M.040039064 .06933594 .4296875 .44433595H.14257813L.15917969 .5234375H.5644531L.5493164 .45166017 .16210938 .07910156H.4794922L.46289063 0H.025390625L.040039064 .06933594Z"/>
<path id="font_4_17" d="M.4814453 .26976014C.49186198 .31852723 .49251304 .35819499 .48339845 .38876344 .46875 .4368795 .43115235 .4609375 .37060548 .4609375 .31689454 .4609375 .2735189 .4404551 .24047852 .39949037 .20743816 .3585256 .18473308 .30910746 .17236328 .25123597 .16064453 .19563294 .16300456 .14929708 .17944336 .11222839 .19588216 .07516988 .23063152 .056640626 .2836914 .056640626 .34195964 .056640626 .38663737 .07866923 .4177246 .12272644 .44881187 .16678365 .4700521 .21579488 .4814453 .26976014M.57373049 .27223207C.55582687 .18784078 .5205078 .1181132 .46777345 .06304932 .41503907 .0079956059 .34554038-.01953125 .25927735-.01953125 .18733724-.01953125 .13541667 .0048217775 .103515628 .053527833 .071614589 .10223389 .06429037 .16763814 .08154297 .2497406 .10042318 .33771263 .13769531 .40776063 .19335938 .45988465 .24902344 .51201888 .31445313 .53808596 .38964845 .53808596 .45703126 .53808596 .509196 .5156047 .5461426 .4706421 .5830892 .42567954 .59228518 .35954286 .57373049 .27223207Z"/>
<path id="font_5_1" d="M0 0Z"/>
<path id="font_6_6" d="M.20703125 0H.067871097V.71875H.20703125V0Z"/>
<path id="font_6_5" d="M.20800781 .5957031H.06689453V.7246094H.20800781V.5957031M.06689453 .53222659H.20800781V0H.06689453V.53222659Z"/>
<path id="font_6_3" d="M.35253907 .5439453C.42252604 .5439453 .47729493 .518692 .5168457 .46818543 .5563965 .417689 .5761719 .3525289 .5761719 .27270509 .5761719 .18995159 .5566406 .12136841 .5175781 .06695557 .47851563 .012552897 .42399089-.0146484379 .3540039-.0146484379 .3100586-.0146484379 .2747396-.0057373049 .24804688 .012084961 .23209636 .022654215 .21484375 .04114278 .19628906 .06755066V0H.060058595V.71875H.19873047V.4625702C.2163086 .4874115 .23567708 .506368 .25683595 .5194397 .28190104 .5357768 .3138021 .5439453 .35253907 .5439453M.31689454 .1015625C.3527018 .1015625 .38053385 .115982059 .40039063 .14482117 .4202474 .17366028 .43017579 .21157329 .43017579 .25856019 .43017579 .29614768 .42529298 .32725526 .41552735 .35188294 .39697267 .3985443 .36279298 .421875 .31298829 .421875 .26253257 .421875 .22786458 .3990326 .20898438 .35334779 .19921875 .32903544 .19433594 .29760234 .19433594 .25904847 .19433594 .213679 .20442708 .17608643 .22460938 .14627075 .24479167 .11646525 .27555339 .1015625 .31689454 .1015625Z"/>
<path id="font_6_4" d="M.3828125 .34179688C.38020835 .36165367 .37353517 .37955729 .36279298 .3955078 .34716798 .4169922 .32291667 .42773438 .29003907 .42773438 .24316406 .42773438 .21110027 .40445964 .19384766 .35791017 .18473308 .33326213 .18017578 .3005015 .18017578 .2596283 .18017578 .2207082 .18473308 .18940735 .19384766 .16572571 .21044922 .12099711 .24169922 .09863281 .28759767 .09863281 .32014976 .09863281 .34326173 .10751343 .3569336 .12527466 .37060548 .14303589 .37890626 .16605632 .38183595 .19433594H.5239258C.5206706 .1519165 .5053711 .11178589 .47802735 .07394409 .43440757 .01292928 .36979167-.017578125 .2841797-.017578125 .1985677-.017578125 .13557942 .007792155 .095214847 .058532716 .05485026 .10927328 .03466797 .17511495 .03466797 .25605775 .03466797 .34739686 .056966146 .41853843 .1015625 .46948243 .14615886 .52042648 .2076823 .54589846 .2861328 .54589846 .3528646 .54589846 .4074707 .53088888 .44995118 .50086978 .49243165 .47085063 .5175781 .41782633 .5253906 .34179688H.3828125M.28857423 .54589846V.54589846Z"/>
<path id="font_6_1" d="M.0625 .14648438H.21044922V0H.0625V.14648438Z"/>
<path id="font_6_8" d="M.17333985 .17089844C.17626953 .14600627 .18261719 .12832134 .19238281 .11784363 .20963542 .09917704 .24153646 .08984375 .28808595 .08984375 .3154297 .08984375 .3371582 .09392802 .35327149 .10209656 .36938478 .11027527 .3774414 .122538249 .3774414 .1388855 .3774414 .15457154 .370931 .1665039 .35791017 .17468262 .3448893 .18285115 .29654948 .19681295 .21289063 .216568 .15266927 .23147075 .110188808 .2501475 .08544922 .27259828 .060709638 .2947235 .048339845 .32660929 .048339845 .36825563 .048339845 .41737876 .06762695 .45958964 .10620117 .4948883 .14477539 .53019717 .19905599 .54785159 .26904298 .54785159 .33544923 .54785159 .38956706 .53455099 .43139649 .5079498 .47322593 .48134867 .49723307 .43540446 .50341799 .3701172H.3642578C.3623047 .3881429 .35725913 .4023997 .3491211 .41288758 .33382163 .43190003 .30777995 .44140626 .2709961 .44140626 .24072266 .44140626 .2191569 .43666587 .20629883 .42718507 .19344075 .41770426 .18701172 .4065908 .18701172 .3938446 .18701172 .37783305 .19384766 .3662313 .20751953 .3590393 .2211914 .35152183 .26953126 .33869425 .35253907 .32055665 .4078776 .30759684 .4493815 .28793846 .47705079 .26158143 .50439456 .23489888 .5180664 .20154827 .5180664 .16152954 .5180664 .10882568 .49845378 .0657959 .45922853 .032440187 .42000328-.0009053548 .359375-.017578125 .27734376-.017578125 .19368489-.017578125 .13191732 .00012715657 .092041019 .03553772 .052164716 .07094828 .032226564 .11606852 .032226564 .17089844H.17333985M.27978517 .54785159V.54785159Z"/>
<path id="font_6_7" d="M.30371095 .09863281C.34440104 .09863281 .37565104 .113098148 .39746095 .14202881 .41927085 .17095948 .43017579 .21207683 .43017579 .26538087 .43017579 .3186849 .41927085 .35972087 .39746095 .38848878 .37565104 .41725669 .34440104 .43164063 .30371095 .43164063 .26302085 .43164063 .23168946 .41725669 .2097168 .38848878 .18774414 .35972087 .17675781 .3186849 .17675781 .26538087 .17675781 .21207683 .18774414 .17095948 .2097168 .14202881 .23168946 .113098148 .26302085 .09863281 .30371095 .09863281M.5761719 .26586915C.5761719 .18781536 .55371096 .12105814 .50878909 .065597537 .4638672 .010147095 .39567057-.017578125 .30419923-.017578125 .21272786-.017578125 .14453125 .010147095 .099609378 .065597537 .0546875 .12105814 .032226564 .18781536 .032226564 .26586915 .032226564 .342631 .0546875 .40914408 .099609378 .46540834 .14453125 .52167257 .21272786 .5498047 .30419923 .5498047 .39567057 .5498047 .4638672 .52167257 .50878909 .46540834 .55371096 .40914408 .5761719 .342631 .5761719 .26586915M.30419923 .5498047V.5498047Z"/>
<path id="font_7_1" d="M0 0Z"/>
<path id="font_4_5" d="M.18847656 .23095703C.18229167 .19026692 .18489583 .15722656 .19628906 .13183594 .21842449 .0843099 .27018229 .060546876 .3515625 .060546876 .38802085 .060546876 .42236329 .06576029 .45458985 .076187137 .51676437 .0963796 .55338546 .13253784 .5644531 .18466187 .5729167 .22375489 .56656906 .25160728 .54541018 .268219 .5242513 .28450523 .48860679 .29867555 .43847657 .31072999L.34570313 .3327179C.28548179 .347051 .24397786 .3628489 .2211914 .3801117 .1821289 .41007997 .16894531 .45487467 .18164063 .51449587 .1953125 .5789897 .22884114 .6319224 .28222657 .67329409 .33561198 .7146657 .40315757 .73535159 .48486329 .73535159 .5600586 .73535159 .6200358 .7172038 .6647949 .6809082 .709554 .6446126 .72347006 .58658859 .70654299 .50683596H.6152344C.61848959 .5452474 .6144206 .57470706 .60302737 .59521487 .58121749 .6326497 .53483077 .6513672 .4638672 .6513672 .40657554 .6513672 .36287437 .63931277 .33276368 .61520388 .30265299 .59110519 .2841797 .56309 .27734376 .53115847 .26985679 .49598185 .27897135 .47025047 .3046875 .45396424 .3216146 .44353739 .3623047 .43050639 .4267578 .41487123L.52246096 .39190675C.5686849 .38082887 .60286459 .36567689 .625 .3464508 .663737 .31290183 .67626956 .26420594 .66259768 .20036316 .6456706 .12087504 .60465499 .06402588 .5395508 .029815674 .47444663-.004384359 .40364585-.021484375 .32714845-.021484375 .23795574-.021484375 .17301433 .0013020834 .13232422 .046875 .09163412 .0921224 .07991537 .15348308 .09716797 .23095703H.18847656Z"/>
<path id="font_4_11" d="M.21728516 .71972659H.30517579L.24804688 .45214845C.2747396 .4786682 .29752604 .4973297 .31640626 .50813296 .3486328 .5267995 .38590495 .5361328 .42822267 .5361328 .50406906 .5361328 .5498047 .50957748 .5654297 .45646668 .57389327 .42747499 .5727539 .38723756 .5620117 .3357544L.49072267 0H.40039063L.47021485 .32958985C.47835288 .3680013 .4794922 .39615885 .4736328 .4140625 .46354167 .44270835 .43652345 .45703126 .39257813 .45703126 .35611979 .45703126 .32047526 .4444987 .28564454 .4194336 .2508138 .3943685 .22591146 .34700523 .2109375 .27734376L.15234375 0H.064453128L.21728516 .71972659Z"/>
<path id="font_4_22" d="M.25048829 .6826172C.277181 .7125651 .31982423 .72753909 .37841798 .72753909 .3839518 .72753909 .38964845 .7273763 .3955078 .7270508 .4013672 .7267253 .4078776 .726237 .41503907 .72558596L.39794923 .6455078C.38916017 .6461589 .3827311 .64656576 .3786621 .6467285 .3745931 .6468913 .37076823 .64697268 .3671875 .64697268 .34049479 .64697268 .32307945 .64005538 .3149414 .6262207 .30680339 .61238607 .29671226 .57714846 .28466798 .5205078H.37158204L.3569336 .45117188H.26904298L.17333985 0H.08642578L.1821289 .45117188H.109375L.12402344 .5205078H.19677735L.21435547 .60253909C.22347005 .6389974 .23551433 .6656901 .25048829 .6826172M.4765625 .6171875 .49804688 .7167969H.5859375L.5644531 .6171875H.4765625M.4560547 .5205078H.5439453L.43359376 0H.34570313L.4560547 .5205078Z"/>
<path id="font_4_14" d="M.21923828 .71777346H.3071289L.15478516 0H.06689453L.21923828 .71777346Z"/>
<path id="font_4_7" d="M.21044922 .71972659H.29589845L.24072266 .45948792C.26513673 .4847056 .29207359 .50394698 .3215332 .5172119 .35099284 .53047689 .38134767 .5371094 .41259767 .5371094 .4777018 .5371094 .52579757 .5147095 .55688479 .46990968 .587972 .42510987 .5942383 .35905458 .5756836 .27174378 .55810549 .1889801 .5234375 .12022909 .4716797 .06549072 .41992188 .010762532 .3585612-.016601563 .28759767-.016601563 .24788411-.016601563 .21647136-.0069986979 .19335938 .012207031 .17936199 .02360026 .16585286 .041829427 .15283203 .06689453L.13867188 0H.057617189L.21044922 .71972659M.48486329 .26731874C.49658204 .32227073 .49446617 .3677877 .47851563 .40386964 .4625651 .43996177 .43164063 .4580078 .3857422 .4580078 .34570313 .4580078 .30745445 .44321189 .2709961 .41362 .23453777 .3840383 .20914714 .3352712 .19482422 .26731874 .18440755 .21822612 .1821289 .17840068 .18798828 .1478424 .19873047 .090296428 .23567708 .061523439 .29882813 .061523439 .34635417 .061523439 .38590495 .08037821 .41748048 .11808777 .449056 .1558075 .47151695 .20555115 .48486329 .26731874Z"/>
<path id="font_4_8" d="M.55029299 .3466797H.46484376C.46647135 .37890626 .46028648 .40568034 .44628907 .42700196 .43229167 .44832359 .40478517 .45898438 .36376954 .45898438 .30777995 .45898438 .2618815 .43164063 .22607422 .37695313 .20296224 .34147135 .18587239 .2976888 .17480469 .24560547 .16341146 .19319661 .16503906 .14908855 .1796875 .11328125 .19433594 .07747396 .22542317 .059570314 .27294923 .059570314 .30940757 .059570314 .34065757 .0707194 .36669923 .09301758 .39274089 .11531576 .41389976 .14583333 .43017579 .18457031H.515625C.49121095 .115234378 .4560547 .06453451 .41015626 .032470704 .3642578 .00040690104 .3108724-.015625 .25-.015625 .18164063-.015625 .1324056 .009379069 .10229492 .059387208 .07218424 .10940552 .065104167 .17188008 .08105469 .24681092 .10058594 .33868919 .13810222 .41020204 .19360352 .4613495 .24910482 .51250717 .3113607 .53808596 .3803711 .53808596 .43929038 .53808596 .48413087 .5237274 .5148926 .49501039 .5456543 .46629334 .5574544 .41684977 .55029299 .3466797Z"/>
<path id="font_4_13" d="M.21484375 .71777346H.2993164L.21044922 .3009796 .48339845 .5234375 .5957031 .5233002 .3540039 .32736207 .49609376 0H.38378907L.2763672 .26385499 .18847656 .19642639 .14697266 0H.0625L.21484375 .71777346Z"/>
<path id="font_6_2" d="M.35839845 .2589264C.34960938 .2533722 .34073893 .24887593 .3317871 .24543762 .3228353 .24200948 .31054688 .23882549 .29492188 .23588562L.26367188 .23001099C.234375 .2247823 .2133789 .21840923 .2006836 .21089173 .17919922 .19815572 .16845703 .17839559 .16845703 .15161133 .16845703 .12775676 .17504883 .11051941 .18823242 .09989929 .20141602 .089289348 .21744792 .083984378 .23632813 .083984378 .26627604 .083984378 .29386393 .092803958 .3190918 .110443118 .34431968 .12808228 .35742188 .16026306 .35839845 .20698548V.2589264M.27392579 .3238678C.29964195 .32713319 .31803385 .33121238 .32910157 .33610536 .34895835 .3445994 .35888673 .35782878 .35888673 .37579347 .35888673 .39767457 .35131837 .41277568 .33618165 .4210968 .32104493 .4294281 .29882813 .43359376 .26953126 .43359376 .23665364 .43359376 .2133789 .42545573 .19970703 .4091797 .1899414 .3971354 .18343099 .38085938 .18017578 .36035157H.045898439C.048828126 .4070231 .061848958 .44537355 .08496094 .47540284 .12174479 .5223999 .18489583 .54589846 .27441407 .54589846 .33268229 .54589846 .3844401 .53426107 .4296875 .5109863 .4749349 .48771159 .4975586 .4440104 .4975586 .3798828V.13574219C.4975586 .1188151 .49788413 .09830729 .49853517 .07421875 .49951173 .055826826 .5022786 .043345136 .50683596 .03677368 .51139327 .03020223 .5182292 .024780274 .52734377 .020507813V0H.37597657C.37174479 .010681152 .3688151 .020711264 .3671875 .030090332 .3655599 .039479574 .3642578 .050160726 .36328126 .06213379 .34407554 .041137697 .3219401 .023259482 .296875 .0084991459 .2669271-.008885701 .23307292-.017578125 .1953125-.017578125 .14713542-.017578125 .10734049-.0037790936 .075927738 .02381897 .044514974 .051417035 .028808594 .09052531 .028808594 .1411438 .028808594 .20678711 .054036458 .25430299 .10449219 .2836914 .13216146 .29969279 .17285156 .3111216 .2265625 .3179779L.27392579 .3238678M.28125 .54589846V.54589846Z"/>
<path id="font_6_10" d="M.20361328 .53222659V.21142578C.20361328 .18115235 .20719402 .15836589 .21435547 .1430664 .22705078 .11604818 .25195313 .10253906 .2890625 .10253906 .33658854 .10253906 .36914063 .12174479 .38671876 .16015625 .39583335 .18098958 .40039063 .2084961 .40039063 .24267578V.53222659H.5415039V0H.40625V.07519531C.4049479 .07356771 .40169273 .0686849 .39648438 .060546876 .39127604 .052408857 .38509117 .045247396 .3779297 .0390625 .35611979 .01953125 .33504234 .006184896 .31469728-.0009765625 .2943522-.0081380209 .2705078-.01171875 .24316406-.01171875 .16438802-.01171875 .111328128 .016601563 .083984378 .07324219 .0686849 .10449219 .061035158 .15055339 .061035158 .21142578V.53222659H.20361328M.30126954 .54589846V.54589846Z"/>
<path id="font_6_9" d="M.010253906 .42871095V.52734377H.084472659V.6767578H.22216797V.52734377H.30859376V.42871095H.22216797V.1466217C.22216797 .12475077 .22493489 .11111959 .23046875 .10572815 .23600261 .100346889 .2529297 .09765625 .28125 .09765625 .28548179 .09765625 .28995768 .09781901 .29467774 .09814453 .2993978 .098470058 .30403648 .098958339 .30859376 .099609378V-.0048828127L.24267578-.0078125C.17692058-.0100911459 .1319987 .0013275147 .107910159 .026443482 .092285159 .042434694 .084472659 .06706747 .084472659 .1003418V.42871095H.010253906Z"/>
</defs>
<g clip-path="url(#clip_0)">
<g clip-path="url(#clip_1)">
<path transform="matrix(1,0,0,-1,0,540)" d="M0 539.9999H719.9999V.00003079383H0Z" fill="#ffffff" fill-rule="evenodd"/>
<path transform="matrix(1,0,0,-1,0,540)" d="M119.25 442.5H290.5V392.25H119.25Z" fill="#ffffff" fill-rule="evenodd"/>
<path transform="matrix(.00007874014,0,0,.00007874014,119.25,97.5)" stroke-width="12700" stroke-linecap="butt" stroke-miterlimit="8" stroke-linejoin="miter" fill="none" stroke="#000000" d="M-.08587649 .02331549H2174875V638175.1H-.08587649Z"/>
<use data-text="M" xlink:href="#font_2_8" transform="matrix(14,0,0,-14,130.45,119.82501)"/>
<use data-text="e" xlink:href="#font_2_15" transform="matrix(14,0,0,-14,142.112,119.82501)"/>
<use data-text="m" xlink:href="#font_2_22" transform="matrix(14,0,0,-14,149.8988,119.82501)"/>
<use data-text="o" xlink:href="#font_2_24" transform="matrix(14,0,0,-14,161.56079,119.82501)"/>
<use data-text="r" xlink:href="#font_2_26" transform="matrix(14,0,0,-14,169.3476,119.82501)"/>
<use data-text="y" xlink:href="#font_2_32" transform="matrix(14,0,0,-14,174.0096,119.82501)"/>
<use data-text=" " xlink:href="#font_2_1" transform="matrix(14,0,0,-14,181.0096,119.82501)"/>
<use data-text="m" xlink:href="#font_2_22" transform="matrix(14,0,0,-14,184.8988,119.82501)"/>
<use data-text="a" xlink:href="#font_2_11" transform="matrix(14,0,0,-14,196.56079,119.82501)"/>
<use data-text="p" xlink:href="#font_2_25" transform="matrix(14,0,0,-14,204.3476,119.82501)"/>
<use data-text="p" xlink:href="#font_2_25" transform="matrix(14,0,0,-14,212.1344,119.82501)"/>
<use data-text="e" xlink:href="#font_2_15" transform="matrix(14,0,0,-14,219.9212,119.82501)"/>
<use data-text="d" xlink:href="#font_2_14" transform="matrix(14,0,0,-14,227.70801,119.82501)"/>
<use data-text=" " xlink:href="#font_2_1" transform="matrix(14,0,0,-14,235.49481,119.82501)"/>
<use data-text="r" xlink:href="#font_2_26" transform="matrix(14,0,0,-14,239.38402,119.82501)"/>
<use data-text="e" xlink:href="#font_2_15" transform="matrix(14,0,0,-14,244.04602,119.82501)"/>
<use data-text="g" xlink:href="#font_2_17" transform="matrix(14,0,0,-14,251.83283,119.82501)"/>
<use data-text="i" xlink:href="#font_2_19" transform="matrix(14,0,0,-14,259.61964,119.82501)"/>
<use data-text="o" xlink:href="#font_2_24" transform="matrix(14,0,0,-14,262.73045,119.82501)"/>
<use data-text="n" xlink:href="#font_2_23" transform="matrix(14,0,0,-14,270.51725,119.82501)"/>
<use data-text=" " xlink:href="#font_2_1" transform="matrix(14,0,0,-14,278.30406,119.82501)"/>
<use data-text="&#xfffd;" xlink:href="#font_3_1" transform="matrix(14,0,0,-14,282.19325,119.82501)"/>
<use data-text="f" xlink:href="#font_2_16" transform="matrix(14,0,0,-14,146.45,135.82501)"/>
<use data-text="o" xlink:href="#font_2_24" transform="matrix(14,0,0,-14,150.3392,135.82501)"/>
<use data-text="r" xlink:href="#font_2_26" transform="matrix(14,0,0,-14,158.12599,135.82501)"/>
<use data-text=" " xlink:href="#font_2_1" transform="matrix(14,0,0,-14,162.788,135.82501)"/>
<use data-text="s" xlink:href="#font_2_27" transform="matrix(14,0,0,-14,166.6772,135.82501)"/>
<use data-text="h" xlink:href="#font_2_18" transform="matrix(14,0,0,-14,173.6772,135.82501)"/>
<use data-text="a" xlink:href="#font_2_11" transform="matrix(14,0,0,-14,181.464,135.82501)"/>
<use data-text="r" xlink:href="#font_2_26" transform="matrix(14,0,0,-14,189.2508,135.82501)"/>
<use data-text="e" xlink:href="#font_2_15" transform="matrix(14,0,0,-14,193.9128,135.82501)"/>
<use data-text="d" xlink:href="#font_2_14" transform="matrix(14,0,0,-14,201.6996,135.82501)"/>
<use data-text=" " xlink:href="#font_2_1" transform="matrix(14,0,0,-14,209.4864,135.82501)"/>
<use data-text="l" xlink:href="#font_2_21" transform="matrix(14,0,0,-14,213.37561,135.82501)"/>
<use data-text="i" xlink:href="#font_2_19" transform="matrix(14,0,0,-14,216.4864,135.82501)"/>
<use data-text="b" xlink:href="#font_2_12" transform="matrix(14,0,0,-14,219.5972,135.82501)"/>
<use data-text="r" xlink:href="#font_2_26" transform="matrix(14,0,0,-14,227.384,135.82501)"/>
<use data-text="a" xlink:href="#font_2_11" transform="matrix(14,0,0,-14,232.04602,135.82501)"/>
<use data-text="r" xlink:href="#font_2_26" transform="matrix(14,0,0,-14,239.83283,135.82501)"/>
<use data-text="i" xlink:href="#font_2_19" transform="matrix(14,0,0,-14,244.49481,135.82501)"/>
<use data-text="e" xlink:href="#font_2_15" transform="matrix(14,0,0,-14,247.60562,135.82501)"/>
<use data-text="s" xlink:href="#font_2_27" transform="matrix(14,0,0,-14,255.39243,135.82501)"/>
<use data-text="&#xfffd;" xlink:href="#font_3_1" transform="matrix(14,0,0,-14,262.39244,135.82501)"/>
<path transform="matrix(1,0,0,-1,0,540)" d="M119.25 392.5H290.5V338.25H119.25Z" fill="#cbcbcb" fill-rule="evenodd"/>
<path transform="matrix(.00007874014,0,0,.00007874014,119.25,147.5)" stroke-width="12700" stroke-linecap="butt" stroke-miterlimit="8" stroke-linejoin="miter" fill="none" stroke="#000000" d="M-.08587649 .1209717H2174875V688975.2H-.08587649Z"/>
<path transform="matrix(1,0,0,-1,0,540)" d="M119.25 337.8749H290.5V287.75H119.25Z" fill="#ffffff" fill-rule="evenodd"/>
<path transform="matrix(.00007874014,0,0,.00007874014,119.25,202.12509)" stroke-width="12700" stroke-linecap="butt" stroke-miterlimit="8" stroke-linejoin="miter" fill="none" stroke="#000000" d="M-.08587649 .002807796H2174875V636586.8H-.08587649Z"/>
<use data-text="R" xlink:href="#font_2_9" transform="matrix(14,0,0,-14,123.45,232.7875)"/>
<use data-text="u" xlink:href="#font_2_29" transform="matrix(14,0,0,-14,133.56079,232.7875)"/>
<use data-text="n" xlink:href="#font_2_23" transform="matrix(14,0,0,-14,141.3476,232.7875)"/>
<use data-text="t" xlink:href="#font_2_28" transform="matrix(14,0,0,-14,149.1344,232.7875)"/>
<use data-text="i" xlink:href="#font_2_19" transform="matrix(14,0,0,-14,153.0236,232.7875)"/>
<use data-text="m" xlink:href="#font_2_22" transform="matrix(14,0,0,-14,156.1344,232.7875)"/>
<use data-text="e" xlink:href="#font_2_15" transform="matrix(14,0,0,-14,167.7964,232.7875)"/>
<use data-text=" " xlink:href="#font_2_1" transform="matrix(14,0,0,-14,175.5832,232.7875)"/>
<use data-text="h" xlink:href="#font_2_18" transform="matrix(14,0,0,-14,179.47241,232.7875)"/>
<use data-text="e" xlink:href="#font_2_15" transform="matrix(14,0,0,-14,187.2592,232.7875)"/>
<use data-text="a" xlink:href="#font_2_11" transform="matrix(14,0,0,-14,195.046,232.7875)"/>
<use data-text="p" xlink:href="#font_2_25" transform="matrix(14,0,0,-14,202.83281,232.7875)"/>
<use data-text=" " xlink:href="#font_2_1" transform="matrix(14,0,0,-14,210.61962,232.7875)"/>
<use data-text="(" xlink:href="#font_2_2" transform="matrix(14,0,0,-14,214.50882,232.7875)"/>
<use data-text="v" xlink:href="#font_2_30" transform="matrix(14,0,0,-14,219.1708,232.7875)"/>
<use data-text="i" xlink:href="#font_2_19" transform="matrix(14,0,0,-14,226.1708,232.7875)"/>
<use data-text="a" xlink:href="#font_2_11" transform="matrix(14,0,0,-14,229.28162,232.7875)"/>
<use data-text=" " xlink:href="#font_2_1" transform="matrix(14,0,0,-14,237.06842,232.7875)"/>
<use data-text="m" xlink:href="#font_2_22" transform="matrix(14,0,0,-14,240.95761,232.7875)"/>
<use data-text="a" xlink:href="#font_2_11" transform="matrix(14,0,0,-14,252.61962,232.7875)"/>
<use data-text="l" xlink:href="#font_2_21" transform="matrix(14,0,0,-14,260.40644,232.7875)"/>
<use data-text="l" xlink:href="#font_2_21" transform="matrix(14,0,0,-14,263.5172,232.7875)"/>
<use data-text="o" xlink:href="#font_2_24" transform="matrix(14,0,0,-14,266.62806,232.7875)"/>
<use data-text="c" xlink:href="#font_2_13" transform="matrix(14,0,0,-14,274.41487,232.7875)"/>
<use data-text=")" xlink:href="#font_2_3" transform="matrix(14,0,0,-14,281.41487,232.7875)"/>
<use data-text="&#xfffd;" xlink:href="#font_3_1" transform="matrix(14,0,0,-14,286.07685,232.7875)"/>
<path transform="matrix(1,0,0,-1,0,540)" d="M119.25 509.9999H290.5V441.9999H119.25Z" fill="#cbcbcb" fill-rule="evenodd"/>
<path transform="matrix(.00007874014,0,0,.00007874014,119.25,30.000092)" stroke-width="12700" stroke-linecap="butt" stroke-miterlimit="8" stroke-linejoin="miter" fill="none" stroke="#000000" d="M-.08587649 .2790529H2174875V863600.4H-.08587649Z"/>
<path transform="matrix(1,0,0,-1,0,540)" d="M119.25 231.6249H290.5V201.75H119.25Z" fill="#ffffff" fill-rule="evenodd"/>
<path transform="matrix(.00007874014,0,0,.00007874014,119.25,308.37513)" stroke-width="12700" stroke-linecap="butt" stroke-miterlimit="8" stroke-linejoin="miter" fill="none" stroke="#000000" d="M-.08587649 .07275403H2174875V379412.1H-.08587649Z"/>
<use data-text="C" xlink:href="#font_2_6" transform="matrix(14,0,0,-14,168.45,328.9126)"/>
<use data-text="o" xlink:href="#font_2_24" transform="matrix(14,0,0,-14,178.56079,328.9126)"/>
<use data-text="d" xlink:href="#font_2_14" transform="matrix(14,0,0,-14,186.3476,328.9126)"/>
<use data-text="e" xlink:href="#font_2_15" transform="matrix(14,0,0,-14,194.1344,328.9126)"/>
<use data-text=" " xlink:href="#font_2_1" transform="matrix(14,0,0,-14,201.9212,328.9126)"/>
<use data-text="(" xlink:href="#font_2_2" transform="matrix(14,0,0,-14,205.8104,328.9126)"/>
<use data-text="." xlink:href="#font_2_4" transform="matrix(14,0,0,-14,210.4724,328.9126)"/>
<use data-text="t" xlink:href="#font_2_28" transform="matrix(14,0,0,-14,214.3616,328.9126)"/>
<use data-text="e" xlink:href="#font_2_15" transform="matrix(14,0,0,-14,218.25081,328.9126)"/>
<use data-text="x" xlink:href="#font_2_31" transform="matrix(14,0,0,-14,226.0376,328.9126)"/>
<use data-text="t" xlink:href="#font_2_28" transform="matrix(14,0,0,-14,233.0376,328.9126)"/>
<use data-text=")" xlink:href="#font_2_3" transform="matrix(14,0,0,-14,236.9268,328.9126)"/>
<use data-text="&#xfffd;" xlink:href="#font_3_1" transform="matrix(14,0,0,-14,241.5888,328.9126)"/>
<path transform="matrix(1,0,0,-1,0,540)" d="M119.25 260.1249H290.5V230.3749H119.25Z" fill="#ffffff" fill-rule="evenodd"/>
<path transform="matrix(.00007874014,0,0,.00007874014,119.25,279.8751)" stroke-width="12700" stroke-linecap="butt" stroke-miterlimit="8" stroke-linejoin="miter" fill="none" stroke="#000000" d="M-.08587649 .01708996H2174875V377825.1H-.08587649Z"/>
<use data-text="I" xlink:href="#font_2_7" transform="matrix(14,0,0,-14,137.45,300.3501)"/>
<use data-text="n" xlink:href="#font_2_23" transform="matrix(14,0,0,-14,141.3392,300.3501)"/>
<use data-text="i" xlink:href="#font_2_19" transform="matrix(14,0,0,-14,149.12599,300.3501)"/>
<use data-text="t" xlink:href="#font_2_28" transform="matrix(14,0,0,-14,152.2368,300.3501)"/>
<use data-text="i" xlink:href="#font_2_19" transform="matrix(14,0,0,-14,156.126,300.3501)"/>
<use data-text="a" xlink:href="#font_2_11" transform="matrix(14,0,0,-14,159.2368,300.3501)"/>
<use data-text="l" xlink:href="#font_2_21" transform="matrix(14,0,0,-14,167.0236,300.3501)"/>
<use data-text="i" xlink:href="#font_2_19" transform="matrix(14,0,0,-14,170.1344,300.3501)"/>
<use data-text="z" xlink:href="#font_2_33" transform="matrix(14,0,0,-14,173.24521,300.3501)"/>
<use data-text="e" xlink:href="#font_2_15" transform="matrix(14,0,0,-14,180.24521,300.3501)"/>
<use data-text="d" xlink:href="#font_2_14" transform="matrix(14,0,0,-14,188.032,300.3501)"/>
<use data-text=" " xlink:href="#font_2_1" transform="matrix(14,0,0,-14,195.8188,300.3501)"/>
<use data-text="d" xlink:href="#font_2_14" transform="matrix(14,0,0,-14,199.70801,300.3501)"/>
<use data-text="a" xlink:href="#font_2_11" transform="matrix(14,0,0,-14,207.49481,300.3501)"/>
<use data-text="t" xlink:href="#font_2_28" transform="matrix(14,0,0,-14,215.28162,300.3501)"/>
<use data-text="a" xlink:href="#font_2_11" transform="matrix(14,0,0,-14,219.1708,300.3501)"/>
<use data-text=" " xlink:href="#font_2_1" transform="matrix(14,0,0,-14,226.95761,300.3501)"/>
<use data-text="(" xlink:href="#font_2_2" transform="matrix(14,0,0,-14,230.8468,300.3501)"/>
<use data-text="." xlink:href="#font_2_4" transform="matrix(14,0,0,-14,235.50882,300.3501)"/>
<use data-text="d" xlink:href="#font_2_14" transform="matrix(14,0,0,-14,239.39801,300.3501)"/>
<use data-text="a" xlink:href="#font_2_11" transform="matrix(14,0,0,-14,247.18482,300.3501)"/>
<use data-text="t" xlink:href="#font_2_28" transform="matrix(14,0,0,-14,254.97162,300.3501)"/>
<use data-text="a" xlink:href="#font_2_11" transform="matrix(14,0,0,-14,258.8608,300.3501)"/>
<use data-text=")" xlink:href="#font_2_3" transform="matrix(14,0,0,-14,266.64765,300.3501)"/>
<use data-text="&#xfffd;" xlink:href="#font_3_1" transform="matrix(14,0,0,-14,271.30964,300.3501)"/>
<path transform="matrix(1,0,0,-1,0,540)" d="M119.25 288.75H290.5V259.1249H119.25Z" fill="#ffffff" fill-rule="evenodd"/>
<path transform="matrix(.00007874014,0,0,.00007874014,119.25,251.25)" stroke-width="12700" stroke-linecap="butt" stroke-miterlimit="8" stroke-linejoin="miter" fill="none" stroke="#000000" d="M-.08587649 .07360846H2174875V376238H-.08587649Z"/>
<use data-text="U" xlink:href="#font_2_10" transform="matrix(14,0,0,-14,132.45,271.6625)"/>
<use data-text="n" xlink:href="#font_2_23" transform="matrix(14,0,0,-14,142.56079,271.6625)"/>
<use data-text="i" xlink:href="#font_2_19" transform="matrix(14,0,0,-14,150.3476,271.6625)"/>
<use data-text="n" xlink:href="#font_2_23" transform="matrix(14,0,0,-14,153.4584,271.6625)"/>
<use data-text="i" xlink:href="#font_2_19" transform="matrix(14,0,0,-14,161.2452,271.6625)"/>
<use data-text="t" xlink:href="#font_2_28" transform="matrix(14,0,0,-14,164.356,271.6625)"/>
<use data-text="i" xlink:href="#font_2_19" transform="matrix(14,0,0,-14,168.24521,271.6625)"/>
<use data-text="a" xlink:href="#font_2_11" transform="matrix(14,0,0,-14,171.356,271.6625)"/>
<use data-text="l" xlink:href="#font_2_21" transform="matrix(14,0,0,-14,179.1428,271.6625)"/>
<use data-text="i" xlink:href="#font_2_19" transform="matrix(14,0,0,-14,182.2536,271.6625)"/>
<use data-text="z" xlink:href="#font_2_33" transform="matrix(14,0,0,-14,185.36441,271.6625)"/>
<use data-text="e" xlink:href="#font_2_15" transform="matrix(14,0,0,-14,192.36441,271.6625)"/>
<use data-text="d" xlink:href="#font_2_14" transform="matrix(14,0,0,-14,200.15122,271.6625)"/>
<use data-text=" " xlink:href="#font_2_1" transform="matrix(14,0,0,-14,207.93802,271.6625)"/>
<use data-text="d" xlink:href="#font_2_14" transform="matrix(14,0,0,-14,211.82721,271.6625)"/>
<use data-text="a" xlink:href="#font_2_11" transform="matrix(14,0,0,-14,219.61402,271.6625)"/>
<use data-text="t" xlink:href="#font_2_28" transform="matrix(14,0,0,-14,227.40082,271.6625)"/>
<use data-text="a" xlink:href="#font_2_11" transform="matrix(14,0,0,-14,231.29001,271.6625)"/>
<use data-text=" " xlink:href="#font_2_1" transform="matrix(14,0,0,-14,239.07682,271.6625)"/>
<use data-text="(" xlink:href="#font_2_2" transform="matrix(14,0,0,-14,242.96602,271.6625)"/>
<use data-text="." xlink:href="#font_2_4" transform="matrix(14,0,0,-14,247.62802,271.6625)"/>
<use data-text="b" xlink:href="#font_2_12" transform="matrix(14,0,0,-14,251.51721,271.6625)"/>
<use data-text="s" xlink:href="#font_2_27" transform="matrix(14,0,0,-14,259.30403,271.6625)"/>
<use data-text="s" xlink:href="#font_2_27" transform="matrix(14,0,0,-14,266.30403,271.6625)"/>
<use data-text=")" xlink:href="#font_2_3" transform="matrix(14,0,0,-14,273.30403,271.6625)"/>
<use data-text="&#xfffd;" xlink:href="#font_3_1" transform="matrix(14,0,0,-14,277.96604,271.6625)"/>
<path transform="matrix(.00007874014,0,0,-.00007874014,200,203.25)" stroke-width="38100" stroke-linecap="butt" stroke-linejoin="round" fill="none" stroke="#000000" d="M.003051698-.2298585V298449.8"/>
<path transform="matrix(1,0,0,-1,0,540)" d="M204.5 354.25 200 363.25 195.5 354.25Z" fill-rule="evenodd"/>
<path transform="matrix(1,0,0,-1,0,540)" d="M119.25 534.9999H290.5V509.7499H119.25Z" fill="#ffffff" fill-rule="evenodd"/>
<path transform="matrix(.00007874014,0,0,.00007874014,119.25,5.000122)" stroke-width="12700" stroke-linecap="butt" stroke-miterlimit="8" stroke-linejoin="miter" fill="none" stroke="#000000" d="M-.08587649 .2302247H2174875V320675.3H-.08587649Z"/>
<use data-text="U" xlink:href="#font_2_10" transform="matrix(14,0,0,-14,171.45,23.224976)"/>
<use data-text="s" xlink:href="#font_2_27" transform="matrix(14,0,0,-14,181.56079,23.224976)"/>
<use data-text="e" xlink:href="#font_2_15" transform="matrix(14,0,0,-14,188.56079,23.224976)"/>
<use data-text="r" xlink:href="#font_2_26" transform="matrix(14,0,0,-14,196.3476,23.224976)"/>
<use data-text=" " xlink:href="#font_2_1" transform="matrix(14,0,0,-14,201.0096,23.224976)"/>
<use data-text="s" xlink:href="#font_2_27" transform="matrix(14,0,0,-14,204.8988,23.224976)"/>
<use data-text="t" xlink:href="#font_2_28" transform="matrix(14,0,0,-14,211.8988,23.224976)"/>
<use data-text="a" xlink:href="#font_2_11" transform="matrix(14,0,0,-14,215.788,23.224976)"/>
<use data-text="c" xlink:href="#font_2_13" transform="matrix(14,0,0,-14,223.5748,23.224976)"/>
<use data-text="k" xlink:href="#font_2_20" transform="matrix(14,0,0,-14,230.5748,23.224976)"/>
<use data-text="&#xfffd;" xlink:href="#font_3_1" transform="matrix(14,0,0,-14,237.5748,23.224976)"/>
<path transform="matrix(.00007874014,0,0,-.00007874014,200.875,97.87509)" stroke-width="38100" stroke-linecap="butt" stroke-linejoin="round" fill="none" stroke="#000000" d="M-.1638794-.2991945V296862.2"/>
<path transform="matrix(1,0,0,-1,0,540)" d="M205.375 459.4999 200.875 468.4999 196.375 459.4999Z" fill-rule="evenodd"/>
<path transform="matrix(.00007874014,0,0,.00007874014,201.625,30.250092)" stroke-width="38100" stroke-linecap="butt" stroke-linejoin="round" fill="none" stroke="#000000" d="M-.1624145 .2795411V298450.3"/>
<path transform="matrix(1,0,0,-1,0,540)" d="M206.125 492.2499 201.625 483.2499 197.125 492.2499Z" fill-rule="evenodd"/>
<path transform="matrix(1,0,0,-1,0,540)" d="M119.25 203H290.5V173.25H119.25Z" fill="#cbcbcb" fill-rule="evenodd"/>
<path transform="matrix(.00007874014,0,0,.00007874014,119.25,337)" stroke-width="12700" stroke-linecap="butt" stroke-miterlimit="8" stroke-linejoin="miter" fill="none" stroke="#000000" d="M-.08587649 .1035156H2174875V377825.2H-.08587649Z"/>
<use data-text="0" xlink:href="#font_2_5" transform="matrix(14,0,0,-14,110.2,370.2251)"/>
<use data-text="&#xfffd;" xlink:href="#font_3_1" transform="matrix(14,0,0,-14,117.9868,370.2251)"/>
<path transform="matrix(.00007874014,0,0,.00007874014,295,4.000122)" stroke-width="12700" stroke-linecap="butt" stroke-linejoin="round" fill="none" stroke="#000000" d="M-.06140143 .2282716C21042.07 .2282716 38099.95 11372.4 38099.95 25400.23V127000.2C38099.95 141028.1 55157.82 152400.2 76199.95 152400.2 55157.82 152400.2 38099.95 163772.4 38099.95 177800.2V279400.3C38099.95 293428.1 21042.07 304800.3-.06140143 304800.3"/>
<path transform="matrix(.00007874014,0,0,.00007874014,295,100)" stroke-width="12700" stroke-linecap="butt" stroke-linejoin="round" fill="none" stroke="#000000" d="M-.06140143 .0281983C21042.07 .0281983 38099.95 22743.99 38099.95 50800.04V254000.1C38099.95 282056.1 55157.82 304800.1 76199.95 304800.1 55157.82 304800.1 38099.95 327544 38099.95 355600.1V558800.1C38099.95 586856.2 21042.07 609600.1-.06140143 609600.1"/>
<path transform="matrix(.00007874014,0,0,.00007874014,295,203)" stroke-width="12700" stroke-linecap="butt" stroke-linejoin="round" fill="none" stroke="#000000" d="M-.06140143 .2293702C20604.11 .2293702 37306.97 21796.19 37306.97 48683.31V243417.2C37306.97 270303.9 54009.83 292100.3 74614 292100.3 54009.83 292100.3 37306.97 313896.2 37306.97 340783.3V535517.2C37306.97 562404 20604.11 584200.3-.06140143 584200.3"/>
<path transform="matrix(.00007874014,0,0,.00007874014,295,251)" stroke-width="12700" stroke-linecap="butt" stroke-linejoin="round" fill="none" stroke="#000000" d="M-.06140143 .07312018C21042.07 .07312018 38099.95 13267.09 38099.95 29633.15V148167C38099.95 164533.1 55157.82 177800.1 76199.95 177800.1 55157.82 177800.1 38099.95 191067.1 38099.95 207433.2V325967.1C38099.95 342332.7 21042.07 355600.1-.06140143 355600.1"/>
<path transform="matrix(.00007874014,0,0,.00007874014,295,283)" stroke-width="12700" stroke-linecap="butt" stroke-linejoin="round" fill="none" stroke="#000000" d="M-.06140143 .1356202C21042.07 .1356202 38099.95 24165.53 38099.95 53975.14V269875.2C38099.95 299684.6 55157.82 323850.2 76199.95 323850.2 55157.82 323850.2 38099.95 348015.6 38099.95 377825.2V593725.1C38099.95 623534.6 21042.07 647700.1-.06140143 647700.1"/>
<use data-text="P" xlink:href="#font_4_4" transform="matrix(14,0,0,-14,308.2,21.599976)"/>
<use data-text="r" xlink:href="#font_4_18" transform="matrix(14,0,0,-14,317.53804,21.599976)"/>
<use data-text="i" xlink:href="#font_4_12" transform="matrix(14,0,0,-14,322.2,21.599976)"/>
<use data-text="v" xlink:href="#font_4_20" transform="matrix(14,0,0,-14,325.31083,21.599976)"/>
<use data-text="a" xlink:href="#font_4_6" transform="matrix(14,0,0,-14,332.31083,21.599976)"/>
<use data-text="t" xlink:href="#font_4_19" transform="matrix(14,0,0,-14,340.09764,21.599976)"/>
<use data-text="e" xlink:href="#font_4_10" transform="matrix(14,0,0,-14,343.98683,21.599976)"/>
<use data-text="," xlink:href="#font_4_2" transform="matrix(14,0,0,-14,351.77363,21.599976)"/>
<use data-text=" " xlink:href="#font_4_1" transform="matrix(14,0,0,-14,355.6628,21.599976)"/>
<use data-text="d" xlink:href="#font_4_9" transform="matrix(14,0,0,-14,359.55204,21.599976)"/>
<use data-text="e" xlink:href="#font_4_10" transform="matrix(14,0,0,-14,367.3388,21.599976)"/>
<use data-text="m" xlink:href="#font_4_15" transform="matrix(14,0,0,-14,375.1256,21.599976)"/>
<use data-text="a" xlink:href="#font_4_6" transform="matrix(14,0,0,-14,386.78764,21.599976)"/>
<use data-text="n" xlink:href="#font_4_16" transform="matrix(14,0,0,-14,394.57444,21.599976)"/>
<use data-text="d" xlink:href="#font_4_9" transform="matrix(14,0,0,-14,402.36125,21.599976)"/>
<use data-text="-" xlink:href="#font_4_3" transform="matrix(14,0,0,-14,410.14805,21.599976)"/>
<use data-text="z" xlink:href="#font_4_21" transform="matrix(14,0,0,-14,414.81007,21.599976)"/>
<use data-text="e" xlink:href="#font_4_10" transform="matrix(14,0,0,-14,421.81007,21.599976)"/>
<use data-text="r" xlink:href="#font_4_18" transform="matrix(14,0,0,-14,429.59687,21.599976)"/>
<use data-text="o" xlink:href="#font_4_17" transform="matrix(14,0,0,-14,434.25886,21.599976)"/>
<use data-text="&#xfffd;" xlink:href="#font_5_1" transform="matrix(14,0,0,-14,442.04566,21.599976)"/>
<use data-text="l" xlink:href="#font_6_6" transform="matrix(14,0,0,-14,20.12496,98.10008)"/>
<use data-text="i" xlink:href="#font_6_5" transform="matrix(14,0,0,-14,24.01416,98.10008)"/>
<use data-text="b" xlink:href="#font_6_3" transform="matrix(14,0,0,-14,27.90336,98.10008)"/>
<use data-text="c" xlink:href="#font_6_4" transform="matrix(14,0,0,-14,36.45456,98.10008)"/>
<use data-text="." xlink:href="#font_6_1" transform="matrix(14,0,0,-14,44.235765,98.10008)"/>
<use data-text="s" xlink:href="#font_6_8" transform="matrix(14,0,0,-14,48.12496,98.10008)"/>
<use data-text="o" xlink:href="#font_6_7" transform="matrix(14,0,0,-14,55.906167,98.10008)"/>
<use data-text="&#xfffd;" xlink:href="#font_7_1" transform="matrix(14,0,0,-14,64.45737,98.10008)"/>
<path transform="matrix(1,0,0,-1,0,540)" d="M7 434H78.99998V416H7Z" fill="#ffffff" fill-rule="evenodd"/>
<path transform="matrix(.00007874014,0,0,.00007874014,7,106)" stroke-width="9525" stroke-linecap="butt" stroke-miterlimit="8" stroke-linejoin="miter" fill="none" stroke="#000000" d="M.001560209 .03991705H914399.9V228600.1H.001560209Z"/>
<use data-text="." xlink:href="#font_2_4" transform="matrix(14,0,0,-14,27.12496,119.89998)"/>
<use data-text="d" xlink:href="#font_2_14" transform="matrix(14,0,0,-14,31.01416,119.89998)"/>
<use data-text="a" xlink:href="#font_2_11" transform="matrix(14,0,0,-14,38.79536,119.89998)"/>
<use data-text="t" xlink:href="#font_2_28" transform="matrix(14,0,0,-14,46.57656,119.89998)"/>
<use data-text="a" xlink:href="#font_2_11" transform="matrix(14,0,0,-14,50.465764,119.89998)"/>
<use data-text="&#xfffd;" xlink:href="#font_3_1" transform="matrix(14,0,0,-14,58.246965,119.89998)"/>
<path transform="matrix(1,0,0,-1,0,540)" d="M7 416H78.99998V398H7Z" fill="#ffffff" fill-rule="evenodd"/>
<path transform="matrix(.00007874014,0,0,.00007874014,7,124)" stroke-width="9525" stroke-linecap="butt" stroke-miterlimit="8" stroke-linejoin="miter" fill="none" stroke="#000000" d="M.001560209 .0750733H914399.9V228600.1H.001560209Z"/>
<use data-text="." xlink:href="#font_2_4" transform="matrix(14,0,0,-14,30.12496,137.89998)"/>
<use data-text="t" xlink:href="#font_2_28" transform="matrix(14,0,0,-14,34.01416,137.89998)"/>
<use data-text="e" xlink:href="#font_2_15" transform="matrix(14,0,0,-14,37.903364,137.89998)"/>
<use data-text="x" xlink:href="#font_2_31" transform="matrix(14,0,0,-14,45.690164,137.89998)"/>
<use data-text="t" xlink:href="#font_2_28" transform="matrix(14,0,0,-14,52.690164,137.89998)"/>
<use data-text="&#xfffd;" xlink:href="#font_3_1" transform="matrix(14,0,0,-14,56.57936,137.89998)"/>
<path transform="matrix(.00007874014,0,0,.00007874014,78.99998,112.00009)" stroke-width="12700" stroke-linecap="butt" stroke-linejoin="round" fill="none" stroke="#000000" d="M-.03948978-.0607909H508000"/>
<path transform="matrix(1,0,0,-1,0,540)" d="M115 430.9999 121 427.9999 115 424.9999Z" fill-rule="evenodd"/>
<path transform="matrix(.00007874014,0,0,.00007874014,78.99998,136)" stroke-width="12700" stroke-linecap="butt" stroke-linejoin="round" fill="none" stroke="#000000" d="M-.03948978 .0985108H508000"/>
<path transform="matrix(1,0,0,-1,0,540)" d="M115 407 121 404 115 401Z" fill-rule="evenodd"/>
<use data-text="S" xlink:href="#font_4_5" transform="matrix(14,0,0,-14,308.2,129.6)"/>
<use data-text="h" xlink:href="#font_4_11" transform="matrix(14,0,0,-14,317.53804,129.6)"/>
<use data-text="a" xlink:href="#font_4_6" transform="matrix(14,0,0,-14,325.32484,129.6)"/>
<use data-text="r" xlink:href="#font_4_18" transform="matrix(14,0,0,-14,333.1116,129.6)"/>
<use data-text="e" xlink:href="#font_4_10" transform="matrix(14,0,0,-14,337.77363,129.6)"/>
<use data-text="d" xlink:href="#font_4_9" transform="matrix(14,0,0,-14,345.56044,129.6)"/>
<use data-text="," xlink:href="#font_4_2" transform="matrix(14,0,0,-14,353.34724,129.6)"/>
<use data-text=" " xlink:href="#font_4_1" transform="matrix(14,0,0,-14,357.23643,129.6)"/>
<use data-text="&#xfb01;" xlink:href="#font_4_22" transform="matrix(14,0,0,-14,361.1256,129.6)"/>
<use data-text="l" xlink:href="#font_4_14" transform="matrix(14,0,0,-14,368.1256,129.6)"/>
<use data-text="e" xlink:href="#font_4_10" transform="matrix(14,0,0,-14,371.23643,129.6)"/>
<use data-text="-" xlink:href="#font_4_3" transform="matrix(14,0,0,-14,379.02323,129.6)"/>
<use data-text="b" xlink:href="#font_4_7" transform="matrix(14,0,0,-14,383.68525,129.6)"/>
<use data-text="a" xlink:href="#font_4_6" transform="matrix(14,0,0,-14,391.47206,129.6)"/>
<use data-text="c" xlink:href="#font_4_8" transform="matrix(14,0,0,-14,399.25886,129.6)"/>
<use data-text="k" xlink:href="#font_4_13" transform="matrix(14,0,0,-14,406.25886,129.6)"/>
<use data-text="e" xlink:href="#font_4_10" transform="matrix(14,0,0,-14,413.25886,129.6)"/>
<use data-text="d" xlink:href="#font_4_9" transform="matrix(14,0,0,-14,421.04566,129.6)"/>
<use data-text="&#xfffd;" xlink:href="#font_5_1" transform="matrix(14,0,0,-14,428.83247,129.6)"/>
<use data-text="P" xlink:href="#font_4_4" transform="matrix(14,0,0,-14,308.2,231.6)"/>
<use data-text="r" xlink:href="#font_4_18" transform="matrix(14,0,0,-14,317.53804,231.6)"/>
<use data-text="i" xlink:href="#font_4_12" transform="matrix(14,0,0,-14,322.2,231.6)"/>
<use data-text="v" xlink:href="#font_4_20" transform="matrix(14,0,0,-14,325.31083,231.6)"/>
<use data-text="a" xlink:href="#font_4_6" transform="matrix(14,0,0,-14,332.31083,231.6)"/>
<use data-text="t" xlink:href="#font_4_19" transform="matrix(14,0,0,-14,340.09764,231.6)"/>
<use data-text="e" xlink:href="#font_4_10" transform="matrix(14,0,0,-14,343.98683,231.6)"/>
<use data-text="," xlink:href="#font_4_2" transform="matrix(14,0,0,-14,351.77363,231.6)"/>
<use data-text=" " xlink:href="#font_4_1" transform="matrix(14,0,0,-14,355.6628,231.6)"/>
<use data-text="d" xlink:href="#font_4_9" transform="matrix(14,0,0,-14,359.55204,231.6)"/>
<use data-text="e" xlink:href="#font_4_10" transform="matrix(14,0,0,-14,367.3388,231.6)"/>
<use data-text="m" xlink:href="#font_4_15" transform="matrix(14,0,0,-14,375.1256,231.6)"/>
<use data-text="a" xlink:href="#font_4_6" transform="matrix(14,0,0,-14,386.78764,231.6)"/>
<use data-text="n" xlink:href="#font_4_16" transform="matrix(14,0,0,-14,394.57444,231.6)"/>
<use data-text="d" xlink:href="#font_4_9" transform="matrix(14,0,0,-14,402.36125,231.6)"/>
<use data-text="-" xlink:href="#font_4_3" transform="matrix(14,0,0,-14,410.14805,231.6)"/>
<use data-text="z" xlink:href="#font_4_21" transform="matrix(14,0,0,-14,414.81007,231.6)"/>
<use data-text="e" xlink:href="#font_4_10" transform="matrix(14,0,0,-14,421.81007,231.6)"/>
<use data-text="r" xlink:href="#font_4_18" transform="matrix(14,0,0,-14,429.59687,231.6)"/>
<use data-text="o" xlink:href="#font_4_17" transform="matrix(14,0,0,-14,434.25886,231.6)"/>
<use data-text="&#xfffd;" xlink:href="#font_5_1" transform="matrix(14,0,0,-14,442.04566,231.6)"/>
<use data-text="P" xlink:href="#font_4_4" transform="matrix(14,0,0,-14,308.2,267.6)"/>
<use data-text="r" xlink:href="#font_4_18" transform="matrix(14,0,0,-14,317.53804,267.6)"/>
<use data-text="i" xlink:href="#font_4_12" transform="matrix(14,0,0,-14,322.2,267.6)"/>
<use data-text="v" xlink:href="#font_4_20" transform="matrix(14,0,0,-14,325.31083,267.6)"/>
<use data-text="a" xlink:href="#font_4_6" transform="matrix(14,0,0,-14,332.31083,267.6)"/>
<use data-text="t" xlink:href="#font_4_19" transform="matrix(14,0,0,-14,340.09764,267.6)"/>
<use data-text="e" xlink:href="#font_4_10" transform="matrix(14,0,0,-14,343.98683,267.6)"/>
<use data-text="," xlink:href="#font_4_2" transform="matrix(14,0,0,-14,351.77363,267.6)"/>
<use data-text=" " xlink:href="#font_4_1" transform="matrix(14,0,0,-14,355.6628,267.6)"/>
<use data-text="d" xlink:href="#font_4_9" transform="matrix(14,0,0,-14,359.55204,267.6)"/>
<use data-text="e" xlink:href="#font_4_10" transform="matrix(14,0,0,-14,367.3388,267.6)"/>
<use data-text="m" xlink:href="#font_4_15" transform="matrix(14,0,0,-14,375.1256,267.6)"/>
<use data-text="a" xlink:href="#font_4_6" transform="matrix(14,0,0,-14,386.78764,267.6)"/>
<use data-text="n" xlink:href="#font_4_16" transform="matrix(14,0,0,-14,394.57444,267.6)"/>
<use data-text="d" xlink:href="#font_4_9" transform="matrix(14,0,0,-14,402.36125,267.6)"/>
<use data-text="-" xlink:href="#font_4_3" transform="matrix(14,0,0,-14,410.14805,267.6)"/>
<use data-text="z" xlink:href="#font_4_21" transform="matrix(14,0,0,-14,414.81007,267.6)"/>
<use data-text="e" xlink:href="#font_4_10" transform="matrix(14,0,0,-14,421.81007,267.6)"/>
<use data-text="r" xlink:href="#font_4_18" transform="matrix(14,0,0,-14,429.59687,267.6)"/>
<use data-text="o" xlink:href="#font_4_17" transform="matrix(14,0,0,-14,434.25886,267.6)"/>
<use data-text="&#xfffd;" xlink:href="#font_5_1" transform="matrix(14,0,0,-14,442.04566,267.6)"/>
<use data-text="P" xlink:href="#font_4_4" transform="matrix(14,0,0,-14,308.2,315.6)"/>
<use data-text="r" xlink:href="#font_4_18" transform="matrix(14,0,0,-14,317.53804,315.6)"/>
<use data-text="i" xlink:href="#font_4_12" transform="matrix(14,0,0,-14,322.2,315.6)"/>
<use data-text="v" xlink:href="#font_4_20" transform="matrix(14,0,0,-14,325.31083,315.6)"/>
<use data-text="a" xlink:href="#font_4_6" transform="matrix(14,0,0,-14,332.31083,315.6)"/>
<use data-text="t" xlink:href="#font_4_19" transform="matrix(14,0,0,-14,340.09764,315.6)"/>
<use data-text="e" xlink:href="#font_4_10" transform="matrix(14,0,0,-14,343.98683,315.6)"/>
<use data-text="," xlink:href="#font_4_2" transform="matrix(14,0,0,-14,351.77363,315.6)"/>
<use data-text=" " xlink:href="#font_4_1" transform="matrix(14,0,0,-14,355.6628,315.6)"/>
<use data-text="&#xfb01;" xlink:href="#font_4_22" transform="matrix(14,0,0,-14,359.55204,315.6)"/>
<use data-text="l" xlink:href="#font_4_14" transform="matrix(14,0,0,-14,366.55204,315.6)"/>
<use data-text="e" xlink:href="#font_4_10" transform="matrix(14,0,0,-14,369.6628,315.6)"/>
<use data-text="-" xlink:href="#font_4_3" transform="matrix(14,0,0,-14,377.44963,315.6)"/>
<use data-text="b" xlink:href="#font_4_7" transform="matrix(14,0,0,-14,382.11164,315.6)"/>
<use data-text="a" xlink:href="#font_4_6" transform="matrix(14,0,0,-14,389.89845,315.6)"/>
<use data-text="c" xlink:href="#font_4_8" transform="matrix(14,0,0,-14,397.68525,315.6)"/>
<use data-text="k" xlink:href="#font_4_13" transform="matrix(14,0,0,-14,404.68525,315.6)"/>
<use data-text="e" xlink:href="#font_4_10" transform="matrix(14,0,0,-14,411.68525,315.6)"/>
<use data-text="d" xlink:href="#font_4_9" transform="matrix(14,0,0,-14,419.47206,315.6)"/>
<use data-text="&#xfffd;" xlink:href="#font_5_1" transform="matrix(14,0,0,-14,427.25886,315.6)"/>
<use data-text="a" xlink:href="#font_6_2" transform="matrix(14,0,0,-14,26.12496,284.09999)"/>
<use data-text="." xlink:href="#font_6_1" transform="matrix(14,0,0,-14,33.911764,284.09999)"/>
<use data-text="o" xlink:href="#font_6_7" transform="matrix(14,0,0,-14,37.80096,284.09999)"/>
<use data-text="u" xlink:href="#font_6_10" transform="matrix(14,0,0,-14,46.35216,284.09999)"/>
<use data-text="t" xlink:href="#font_6_9" transform="matrix(14,0,0,-14,54.90336,284.09999)"/>
<use data-text="&#xfffd;" xlink:href="#font_7_1" transform="matrix(14,0,0,-14,59.56536,284.09999)"/>
<path transform="matrix(1,0,0,-1,0,540)" d="M7 248H78.99998V230H7Z" fill="#ffffff" fill-rule="evenodd"/>
<path transform="matrix(.00007874014,0,0,.00007874014,7,292)" stroke-width="9525" stroke-linecap="butt" stroke-miterlimit="8" stroke-linejoin="miter" fill="none" stroke="#000000" d="M.001560209 .1531983H914399.9V228600.2H.001560209Z"/>
<use data-text="." xlink:href="#font_2_4" transform="matrix(14,0,0,-14,27.12496,305.89997)"/>
<use data-text="d" xlink:href="#font_2_14" transform="matrix(14,0,0,-14,31.01416,305.89997)"/>
<use data-text="a" xlink:href="#font_2_11" transform="matrix(14,0,0,-14,38.79536,305.89997)"/>
<use data-text="t" xlink:href="#font_2_28" transform="matrix(14,0,0,-14,46.57656,305.89997)"/>
<use data-text="a" xlink:href="#font_2_11" transform="matrix(14,0,0,-14,50.465764,305.89997)"/>
<use data-text="&#xfffd;" xlink:href="#font_3_1" transform="matrix(14,0,0,-14,58.246965,305.89997)"/>
<path transform="matrix(1,0,0,-1,0,540)" d="M7 230H78.99998V212H7Z" fill="#ffffff" fill-rule="evenodd"/>
<path transform="matrix(.00007874014,0,0,.00007874014,7,310)" stroke-width="9525" stroke-linecap="butt" stroke-miterlimit="8" stroke-linejoin="miter" fill="none" stroke="#000000" d="M.001560209-.005432099H914399.9V228600H.001560209Z"/>
<use data-text="." xlink:href="#font_2_4" transform="matrix(14,0,0,-14,30.12496,323.89997)"/>
<use data-text="t" xlink:href="#font_2_28" transform="matrix(14,0,0,-14,34.01416,323.89997)"/>
<use data-text="e" xlink:href="#font_2_15" transform="matrix(14,0,0,-14,37.903364,323.89997)"/>
<use data-text="x" xlink:href="#font_2_31" transform="matrix(14,0,0,-14,45.690164,323.89997)"/>
<use data-text="t" xlink:href="#font_2_28" transform="matrix(14,0,0,-14,52.690164,323.89997)"/>
<use data-text="&#xfffd;" xlink:href="#font_3_1" transform="matrix(14,0,0,-14,56.57936,323.89997)"/>
<path transform="matrix(.00007874014,0,0,.00007874014,78.99998,298)" stroke-width="12700" stroke-linecap="butt" stroke-linejoin="round" fill="none" stroke="#000000" d="M-.03948978-.0288696H508000"/>
<path transform="matrix(1,0,0,-1,0,540)" d="M115 245 121 242 115 239Z" fill-rule="evenodd"/>
<path transform="matrix(.00007874014,0,0,.00007874014,78.99998,322)" stroke-width="12700" stroke-linecap="butt" stroke-linejoin="round" fill="none" stroke="#000000" d="M-.03948978-.03820795H508000"/>
<path transform="matrix(1,0,0,-1,0,540)" d="M115 221 121 218 115 215Z" fill-rule="evenodd"/>
</g>
</g>
</svg>
