<svg xmlns="http://www.w3.org/2000/svg" xmlns:xlink="http://www.w3.org/1999/xlink" version="1.1" width="643.716pt" height="236.626pt" viewBox="0 0 643.716 236.626">
<defs>
<clipPath id="clip_0">
<path transform="matrix(1,0,0,-1,0,540)" d="M0 303.374H643.716V540H0Z" fill-rule="evenodd"/>
</clipPath>
<clipPath id="clip_1">
<path transform="matrix(1,0,0,-1,0,540)" d="M0 .00002324581H719.9999V540H0Z"/>
</clipPath>
<path id="font_2_7" d="M.40966798 .38867188C.45524089 .38867188 .49129234 .39778648 .51782229 .41601563 .54435226 .43424479 .5576172 .4671224 .5576172 .51464846 .5576172 .5657552 .5390625 .60058596 .5019531 .6191406 .48209635 .62890627 .4555664 .63378909 .42236329 .63378909H.1850586V.38867188H.40966798M.087890628 .71777346H.41992188C.47460938 .71777346 .51969406 .709788 .5551758 .69381716 .6225586 .6631775 .65625 .60662338 .65625 .52415469 .65625 .48112489 .6473796 .44591777 .6296387 .41853334 .61189779 .39115907 .58707687 .36916099 .5551758 .35253907 .5831706 .34114585 .60424807 .32617188 .6184082 .3076172 .63256838 .2890625 .6404622 .2589518 .64208987 .21728516L.6455078 .12109375C.6464844 .09388224 .648763 .07363383 .65234377 .06034851 .6582031 .037663778 .6686198 .023081461 .68359377 .016601563V0H.5644531C.56119796 .006184896 .55859377 .014160156 .5566406 .023925782 .5546875 .033691408 .5530599 .052571615 .5517578 .080566409L.54589846 .20019531C.5436198 .24707031 .5262044 .27848307 .49365235 .2944336 .47509767 .30322267 .44596354 .3076172 .40625 .3076172H.1850586V0H.087890628V.71777346Z"/>
<path id="font_2_17" d="M.27197267 .057617189C.33024089 .057617189 .37019859 .07964579 .3918457 .123703 .41349284 .16776021 .4243164 .21677144 .4243164 .2707367 .4243164 .31950379 .4165039 .35917155 .4008789 .38974 .3761393 .43785606 .3334961 .46191407 .27294923 .46191407 .21923828 .46191407 .18017578 .44143168 .15576172 .40046693 .13134766 .35950218 .119140628 .31008403 .119140628 .25221253 .119140628 .1966095 .13134766 .15027364 .15576172 .113204959 .18017578 .076146449 .21891277 .057617189 .27197267 .057617189M.27539063 .53808596C.34277345 .53808596 .3997396 .5156453 .44628907 .47076417 .49283854 .42588298 .5161133 .35985819 .5161133 .27268983 .5161133 .1884613 .49560548 .11886088 .45458985 .06388855 .41357423 .008926392 .3499349-.018554688 .26367188-.018554688 .19173177-.018554688 .13460286 .00575765 .092285159 .054382326 .04996745 .103006999 .028808594 .16829936 .028808594 .2502594 .028808594 .33806864 .05110677 .4079895 .095703128 .46002198 .14029949 .51206466 .20019531 .53808596 .27539063 .53808596M.27246095 .5361328V.5361328Z"/>
<path id="font_2_21" d="M.08203125 .66796877H.17089844V.5234375H.25439454V.4501953H.17089844V.110183719C.17089844 .09202576 .17708333 .07986959 .18945313 .07371521 .19628906 .07014465 .2076823 .068359378 .22363281 .068359378 .22786458 .068359378 .23242188 .06846619 .23730469 .06867981 .2421875 .0689036 .24788411 .06944784 .25439454 .0703125V0C.24430339-.0031026204 .23380535-.005340576 .22290039-.006713867 .21199544-.008097331 .20019531-.0087890629 .1875-.0087890629 .14648438-.0087890629 .118652347 .0016988119 .104003909 .02267456 .08935547 .04365031 .08203125 .070882167 .08203125 .10437012V.4501953H.011230469V.5234375H.08203125V.66796877Z"/>
<path id="font_2_1" d="M0 0Z"/>
<path id="font_2_16" d="M.064453128 .5234375H.14794922V.44921876C.1726888 .47981773 .19889324 .50179037 .2265625 .5151367 .25423179 .5284831 .2849935 .53515627 .31884767 .53515627 .3930664 .53515627 .44319663 .5092519 .46923829 .45744325 .4835612 .42910258 .49072267 .38853965 .49072267 .3357544V0H.4013672V.3299408C.4013672 .36188255 .39664714 .38762919 .38720704 .4071808 .37158204 .4397634 .34326173 .4560547 .3022461 .4560547 .28141276 .4560547 .2643229 .4539388 .25097657 .44970704 .22688802 .4425354 .20572917 .42819724 .1875 .4066925 .17285156 .38941957 .16333008 .37157694 .15893555 .35316468 .15454102 .3347524 .15234375 .30844117 .15234375 .27423097V0H.064453128V.5234375M.2709961 .5361328V.5361328Z"/>
<path id="font_2_11" d="M.12011719 .2553711C.12011719 .19923909 .1319987 .15224712 .15576172 .11439514 .17952474 .076543178 .21761067 .057617189 .27001954 .057617189 .31070964 .057617189 .3441569 .075154628 .37036134 .11022949 .39656578 .14531453 .40966798 .19565328 .40966798 .26124574 .40966798 .32748924 .39615885 .37651573 .36914063 .4083252 .3421224 .44014488 .3087565 .4560547 .26904298 .4560547 .22477214 .4560547 .18888347 .4390869 .16137696 .40515138 .13387044 .37121583 .12011719 .32128907 .12011719 .2553711M.2524414 .53222659C.29248048 .53222659 .32600913 .52381899 .35302735 .5070038 .36865235 .4972992 .38639323 .48031617 .40625 .4560547V.71875H.49072267V0H.4116211V.07229614C.39111329 .04023234 .36686198 .017074585 .3388672 .002822876 .3108724-.011428833 .2788086-.018554688 .24267578-.018554688 .18440755-.018554688 .13395183 .0059407555 .091308597 .05493164 .048665365 .10392252 .02734375 .16910808 .02734375 .25048829 .02734375 .32666017 .04679362 .39265953 .08569336 .44848634 .1245931 .5043132 .18017578 .53222659 .2524414 .53222659Z"/>
<path id="font_2_12" d="M.28222657 .53515627C.31933595 .53515627 .355306 .52644857 .39013673 .5090332 .42496745 .49161784 .4514974 .4690806 .46972657 .4414215 .4873047 .41505433 .49902345 .3842977 .5048828 .3491516 .5100911 .32506309 .5126953 .28647868 .5126953 .23339844H.12939453C.13102214 .18033855 .14355469 .13777669 .16699219 .10571289 .19042969 .073649089 .22672527 .057617189 .2758789 .057617189 .32177735 .057617189 .35839845 .07261658 .3857422 .10261536 .4013672 .12003072 .4124349 .14018758 .4189453 .16308594H.5053711C.50309249 .14398194 .49552409 .122690837 .48266603 .09921265 .46980796 .07574463 .45540367 .05656433 .43945313 .041671754 .4127604 .01576233 .37972007-.0017242432 .34033204-.010787964 .3191732-.01596578 .2952474-.018554688 .2685547-.018554688 .20345052-.018554688 .14827474 .0051472985 .103027347 .05255127 .05777995 .09995524 .03515625 .16634114 .03515625 .25170899 .03515625 .33576457 .057942708 .40401713 .103515628 .45646668 .14908855 .5089264 .20865886 .53515627 .28222657 .53515627M.42236329 .30371095C.41878257 .34191896 .41048179 .37245179 .39746095 .39530946 .3733724 .4377594 .33317057 .45898438 .27685548 .45898438 .23649089 .45898438 .20263672 .44437156 .17529297 .41514588 .14794922 .3859202 .13346355 .34877525 .13183594 .30371095H.42236329M.27392579 .5361328V.5361328Z"/>
<path id="font_2_20" d="M.11669922 .1640625C.11930338 .13463338 .12662761 .11207072 .13867188 .09637451 .1608073 .06793213 .19921875 .053710939 .25390626 .053710939 .28645835 .053710939 .31510417 .060806276 .33984376 .07499695 .36458335 .08919779 .37695313 .11115011 .37695313 .14085388 .37695313 .16337586 .36702476 .18051148 .34716798 .19226074 .33447267 .19944255 .30940757 .20775859 .27197267 .21720886L.20214844 .2348175C.15755208 .24590557 .12467448 .25829569 .103515628 .27198792 .06575521 .29579164 .046875 .32873027 .046875 .37080384 .046875 .42036439 .064697269 .46046958 .1003418 .49111939 .13598633 .52177938 .18391927 .5371094 .24414063 .5371094 .32291667 .5371094 .37972007 .5139974 .41455079 .46777345 .4363607 .43847657 .4469401 .40690104 .44628907 .37304688H.36328126C.36165367 .39269004 .35465495 .41055808 .34228517 .426651 .32210288 .44950868 .28710938 .4609375 .23730469 .4609375 .20410156 .4609375 .17895508 .45461528 .16186524 .44197084 .14477539 .42933656 .13623047 .41264854 .13623047 .39190675 .13623047 .36922203 .14746094 .35107423 .16992188 .33746339 .1829427 .32936607 .20214844 .32221986 .22753906 .31602479L.28564454 .3018341C.34879557 .28650413 .39111329 .27166749 .41259767 .25732423 .44677735 .23482259 .4638672 .19944255 .4638672 .15118408 .4638672 .10455322 .44620768 .06428019 .41088868 .03036499 .37556968-.0035502117 .32177735-.020507813 .24951172-.020507813 .17171224-.020507813 .116617839-.002802531 .084228519 .032608034 .05183919 .06801859 .034505208 .111836757 .032226564 .1640625H.11669922M.24658203 .5361328V.5361328Z"/>
<path id="font_3_1" d="M0 0Z"/>
<path id="font_2_5" d="M.07861328 .71777346H.17675781V.42089845H.5498047V.71777346H.6479492V0H.5498047V.33496095H.17675781V0H.07861328V.71777346Z"/>
<path id="font_2_8" d="M.13183594 .1394043C.13183594 .114095058 .14111328 .09413656 .15966797 .07952881 .17822266 .06492106 .20019531 .057617189 .22558594 .057617189 .2565104 .057617189 .28645835 .06471761 .3154297 .07891846 .3642578 .10247803 .38867188 .14127605 .38867188 .1953125V.26611329C.3779297 .25886027 .36409507 .2528127 .34716798 .24797058 .33024089 .24313863 .3136393 .23983257 .29736329 .23805237L.24414063 .23184204C.21223958 .22799683 .1883138 .22153218 .17236328 .21244812 .14534505 .19718933 .13183594 .17284139 .13183594 .1394043M.34472657 .31689454C.36490885 .3194987 .37841798 .32796226 .3852539 .34228517 .38916017 .35012818 .39111329 .36140443 .39111329 .3761139 .39111329 .40618388 .38045249 .42799888 .35913087 .44155885 .33780924 .455129 .30729167 .46191407 .26757813 .46191407 .22167969 .46191407 .18912761 .44948326 .16992188 .42462159 .15917969 .4108785 .15218099 .39043174 .14892578 .36328126H.06689453C.06852213 .42791749 .08943685 .47288514 .12963867 .4981842 .1698405 .5234833 .21647136 .5361328 .26953126 .5361328 .3310547 .5361328 .38102214 .52441409 .4194336 .50097659 .45751954 .47753907 .4765625 .4410502 .4765625 .39151V.08985901C.4765625 .08073425 .47843424 .073404949 .48217774 .067871097 .48592124 .06233724 .4938151 .059570314 .5058594 .059570314 .5097656 .059570314 .51416018 .059814454 .51904299 .060302736 .5239258 .060791017 .5291341 .061523439 .53466799 .0625V-.0028076173C.5209961-.00676473 .5105794-.009236653 .50341799-.010223389 .4962565-.011220296 .48649089-.01171875 .4741211-.01171875 .44384767-.01171875 .421875-.0009104411 .40820313 .020706177 .40104167 .032170614 .3959961 .048380536 .3930664 .06933594 .37516276 .045633954 .34944663 .025060019 .31591798 .0076141359 .2823893-.009831746 .2454427-.018554688 .20507813-.018554688 .15657552-.018554688 .11694336-.0037790936 .08618164 .025772095 .055419923 .055323285 .040039064 .092300418 .040039064 .13670349 .040039064 .18535869 .05517578 .22307332 .08544922 .24984741 .115722659 .2766215 .1554362 .29311119 .20458985 .2993164L.34472657 .31689454M.27197267 .5361328V.5361328Z"/>
<path id="font_2_18" d="M.28515626 .057617189C.32617188 .057617189 .36027018 .07486979 .38745118 .109375 .41463218 .14389038 .42822267 .1954956 .42822267 .26419068 .42822267 .3060608 .42220054 .34204103 .41015626 .37213136 .38736979 .43003337 .34570313 .45898438 .28515626 .45898438 .22428386 .45898438 .18261719 .42840068 .16015625 .36723329 .14811199 .33451844 .14208985 .29297386 .14208985 .24259949 .14208985 .20204163 .14811199 .16753133 .16015625 .1390686 .1829427 .08476766 .22460938 .057617189 .28515626 .057617189M.057617189 .5205078H.1430664V.45162965C.16064453 .47540284 .17985027 .49379985 .2006836 .5068207 .23030599 .5263621 .26513673 .5361328 .30517579 .5361328 .36442057 .5361328 .41471354 .5133667 .4560547 .46783448 .49739585 .42230226 .5180664 .3572693 .5180664 .2727356 .5180664 .1585083 .48828126 .07691447 .42871095 .027954102 .39095054-.0030517579 .34700523-.018554688 .296875-.018554688 .25748698-.018554688 .22444661-.009984334 .1977539 .007156372 .1821289 .016860962 .16471355 .033518476 .14550781 .057128908V-.20898438H.057617189V.5205078Z"/>
<path id="font_2_6" d="M.076171878 .71777346H.19091797L.55322268 .1362915V.71777346H.6455078V0H.5366211L.16894531 .58084109V0H.076171878V.71777346M.3544922 .71777346V.71777346Z"/>
<path id="font_2_4" d="M.041503908 .32421876H.2866211V.23339844H.041503908V.32421876Z"/>
<path id="font_2_19" d="M.06689453 .5234375H.15039063V.4326172C.15722656 .4502767 .17399089 .4717814 .2006836 .49713136 .2273763 .52248129 .25813804 .53515627 .29296876 .53515627 .29459635 .53515627 .29736329 .5349579 .30126954 .53456118 .30517579 .5341746 .31184898 .5333964 .32128907 .53222659V.43945313C.31608073 .44062297 .3112793 .44140116 .30688478 .44178773 .30249024 .44218446 .2976888 .4423828 .29248048 .4423828 .24820964 .4423828 .2141927 .4280599 .19042969 .39941407 .16666667 .37076823 .15478516 .33789063 .15478516 .30078126V0H.06689453V.5234375Z"/>
<path id="font_2_10" d="M.26611329 .53808596C.32503257 .53808596 .37296549 .5237274 .4099121 .49501039 .44685874 .46629334 .46907554 .41684977 .4765625 .3466797H.39111329C.38590495 .37890626 .37402345 .40568034 .35546876 .42700196 .33691407 .44832359 .3071289 .45898438 .26611329 .45898438 .2101237 .45898438 .17008464 .43170677 .1459961 .3771515 .1303711 .34176127 .122558597 .29808555 .122558597 .24612427 .122558597 .19384766 .1336263 .14984639 .15576172 .11412048 .17789714 .07840475 .21272786 .060546876 .2602539 .060546876 .29671226 .060546876 .3256022 .0716095 .34692384 .09373474 .36824546 .115859989 .38297526 .1461385 .39111329 .18457031H.4765625C.46679688 .115234378 .4423828 .06453451 .4033203 .032470704 .3642578 .00040690104 .31429038-.015625 .25341798-.015625 .1850586-.015625 .13053386 .009379069 .08984375 .059387208 .049153646 .10940552 .028808594 .17188008 .028808594 .24681092 .028808594 .33868919 .05110677 .41020204 .095703128 .4613495 .14029949 .51250717 .19710286 .53808596 .26611329 .53808596M.2524414 .5361328V.5361328Z"/>
<path id="font_2_14" d="M.064453128 .71875H.15234375V.45214845C.17317708 .4786682 .19189453 .4973297 .2084961 .50813296 .2368164 .5267995 .2721354 .5361328 .31445313 .5361328 .39029948 .5361328 .44173179 .50957748 .46875 .45646668 .48339845 .42747499 .49072267 .38723756 .49072267 .3357544V0H.40039063V.32958985C.40039063 .3680013 .3955078 .39615885 .3857422 .4140625 .36979167 .44270835 .33984376 .45703126 .29589845 .45703126 .2594401 .45703126 .22639974 .4444987 .19677735 .4194336 .16715496 .3943685 .15234375 .34700523 .15234375 .27734376V0H.064453128V.71875Z"/>
<path id="font_2_9" d="M.057617189 .71875H.1430664V.45948792C.16227214 .4847056 .18522136 .50394698 .21191406 .5172119 .23860677 .53047689 .26757813 .5371094 .29882813 .5371094 .36393229 .5371094 .41674806 .5147095 .4572754 .46990968 .49780274 .42510987 .5180664 .35905458 .5180664 .27174378 .5180664 .1889801 .49804688 .12022909 .4580078 .06549072 .41796876 .010762532 .36246745-.016601563 .2915039-.016601563 .25179038-.016601563 .21826172-.006942749 .19091797 .012374878 .17464192 .023839316 .15722656 .042175294 .13867188 .06738281V0H.057617189V.71875M.2861328 .061523439C.33365885 .061523439 .36922203 .08037821 .39282228 .11808777 .41642253 .1558075 .42822267 .20555115 .42822267 .26731874 .42822267 .32227073 .41642253 .3677877 .39282228 .40386964 .36922203 .43996177 .33447267 .4580078 .28857423 .4580078 .24853516 .4580078 .21346028 .44321189 .18334961 .41362 .15323894 .3840383 .1381836 .3352712 .1381836 .26731874 .1381836 .21822612 .14436849 .17840068 .15673828 .1478424 .17985027 .090296428 .22298177 .061523439 .2861328 .061523439Z"/>
<path id="font_2_15" d="M.06689453 .71777346H.15478516V0H.06689453V.71777346Z"/>
<path id="font_3_2" d="M0 0Z"/>
<path id="font_2_2" d="M.29589845 .7294922C.24479167 .6301575 .21158855 .55703738 .19628906 .51013186 .17317708 .43881227 .1616211 .3564148 .1616211 .26293946 .1616211 .16848755 .17480469 .08217875 .20117188 .0040130617 .21744792-.044184369 .24951172-.11355591 .29736329-.20410156H.23828125C.1907552-.12984212 .16129558-.08245341 .14990235-.061935426 .13850911-.04141744 .12613933-.013570149 .11279297 .021606446 .094563808 .06980387 .08186849 .1212616 .07470703 .17597962 .071126308 .2043101 .06933594 .23134358 .06933594 .25708009 .06933594 .3534851 .084472659 .43930564 .114746097 .5145416 .13395183 .5624135 .17399089 .6340637 .23486328 .7294922H.29589845Z"/>
<path id="font_2_13" d="M.24902344 .53222659C.29003907 .53222659 .32584635 .5220744 .3564453 .50177 .37304688 .49030558 .38997398 .4736023 .40722657 .45166017V.5185547H.48828126V.04234314C.48828126-.024154664 .47851563-.07663473 .45898438-.115097049 .42252604-.18615215 .35367839-.22167969 .2524414-.22167969 .1961263-.22167969 .14876302-.20906575 .11035156-.18383789 .0719401-.15861003 .05045573-.119140628 .045898439-.06542969H.1352539C.13948567-.08873495 .14794922-.10669454 .16064453-.11930847 .1805013-.13872783 .2117513-.1484375 .25439454-.1484375 .32177735-.1484375 .3658854-.12467448 .38671876-.07714844 .39908854-.04916382 .40478517 .0007985433 .4038086 .07273865 .38623048 .04588318 .36507163 .025904337 .34033204 .012802124 .31559245-.000289917 .2828776-.0068359377 .2421875-.0068359377 .18554688-.0068359377 .13598633 .013280232 .09350586 .053512575 .05102539 .09375509 .029785157 .16030376 .029785157 .25315858 .029785157 .34080506 .051188154 .40922547 .09399414 .4584198 .13680013 .5076243 .18847656 .53222659 .24902344 .53222659M.40722657 .26342774C.40722657 .328125 .39388023 .37607829 .3671875 .4072876 .34049479 .43849693 .30647788 .45410157 .26513673 .45410157 .20328777 .45410157 .16097005 .4251658 .1381836 .3672943 .12613933 .33641053 .12011719 .29593406 .12011719 .24586487 .12011719 .1870168 .13208008 .14223226 .15600586 .11151123 .17993164 .0807902 .21207683 .06542969 .2524414 .06542969 .31559245 .06542969 .36002604 .09387716 .3857422 .1507721 .4000651 .18295796 .40722657 .22050984 .40722657 .26342774M.25927735 .5361328V.5361328Z"/>
<path id="font_2_3" d="M.03466797-.20410156C.08642578-.103139247 .119791667-.029530844 .13476563 .016723633 .15755208 .08674113 .16894531 .16881307 .16894531 .26293946 .16894531 .35706584 .15576172 .44321189 .12939453 .52137759 .11311849 .569575 .08105469 .63894656 .033203126 .7294922H.092285159C.14241536 .64937338 .17277019 .59995016 .18334961 .58122256 .19392903 .56249496 .20540364 .5366821 .21777344 .5037842 .23339844 .46307374 .24454753 .42285157 .2512207 .38311769 .2578939 .3433838 .26123048 .30511476 .26123048 .26831056 .26123048 .17190552 .24593099 .08592224 .21533203 .010360718 .1961263-.03816223 .15625-.10964966 .095703128-.20410156H.03466797Z"/>
</defs>
<g clip-path="url(#clip_0)">
<g clip-path="url(#clip_1)">
<path transform="matrix(1,0,0,-1,0,540)" d="M0 539.9999H719.9999V.00003079383H0Z" fill="#ffffff" fill-rule="evenodd"/>
<path transform="matrix(1,0,0,-1,0,540)" d="M138 521.9999C138 528.6274 143.3726 533.9999 150 533.9999 156.6274 533.9999 162 528.6274 162 521.9999 162 515.3725 156.6274 509.9999 150 509.9999 143.3726 509.9999 138 515.3725 138 521.9999Z" fill="#ffffff" fill-rule="evenodd"/>
<path transform="matrix(.00007874014,0,0,.00007874014,138,6.000122)" stroke-width="12700" stroke-linecap="butt" stroke-linejoin="round" fill="none" stroke="#000000" d="M-.0492554 152400.2C-.0492554 68231.73 68231.84 .2321779 152400 .2321779 236568.1 .2321779 304800 68231.73 304800 152400.2 304800 236568.8 236568.1 304800.3 152400 304800.3 68231.84 304800.3-.0492554 236568.8-.0492554 152400.2Z"/>
<path transform="matrix(1,0,0,-1,0,540)" d="M222 521.9999C222 528.6274 227.3726 533.9999 234 533.9999 240.6274 533.9999 246 528.6274 246 521.9999 246 515.3725 240.6274 509.9999 234 509.9999 227.3726 509.9999 222 515.3725 222 521.9999Z" fill="#ffffff" fill-rule="evenodd"/>
<path transform="matrix(.00007874014,0,0,.00007874014,222,6.000122)" stroke-width="12700" stroke-linecap="butt" stroke-linejoin="round" fill="none" stroke="#000000" d="M.04602045 152400.2C.04602045 68231.73 68231.94 .2321779 152400.1 .2321779 236568.2 .2321779 304800.1 68231.73 304800.1 152400.2 304800.1 236568.8 236568.2 304800.3 152400.1 304800.3 68231.94 304800.3 .04602045 236568.8 .04602045 152400.2Z"/>
<path transform="matrix(1,0,0,-1,0,540)" d="M311.9999 521.9999C311.9999 528.6274 317.3725 533.9999 323.9999 533.9999 330.6273 533.9999 335.9999 528.6274 335.9999 521.9999 335.9999 515.3725 330.6273 509.9999 323.9999 509.9999 317.3725 509.9999 311.9999 515.3725 311.9999 521.9999Z" fill="#ffffff" fill-rule="evenodd"/>
<path transform="matrix(.00007874014,0,0,.00007874014,311.9999,6.000122)" stroke-width="12700" stroke-linecap="butt" stroke-linejoin="round" fill="none" stroke="#000000" d="M-.1657716 152400.2C-.1657716 68231.73 68231.73 .2321779 152399.9 .2321779 236568 .2321779 304799.9 68231.73 304799.9 152400.2 304799.9 236568.8 236568 304800.3 152399.9 304800.3 68231.73 304800.3-.1657716 236568.8-.1657716 152400.2Z"/>
<path transform="matrix(-.00007874014,-0,0,.00007874014,144,30.000092)" stroke-width="12700" stroke-linecap="butt" stroke-linejoin="round" fill="none" stroke="#000000" d="M.03753665 .2790529 371230.8 890954.2"/>
<path transform="matrix(1,0,0,-1,0,540)" d="M113.5385 444.6923 114 437.9999 119.0769 442.3846Z" fill-rule="evenodd"/>
<path transform="matrix(.00007874014,0,0,.00007874014,6,60.00009)" stroke-width="38100" stroke-linecap="butt" stroke-miterlimit="8" stroke-linejoin="miter" fill="none" stroke="#000000" d="M-.002149583 .3376466H5984875V2057400H-.002149583Z"/>
<use data-text="R" xlink:href="#font_2_7" transform="matrix(16,0,0,-16,34.44999,25.725098)"/>
<use data-text="o" xlink:href="#font_2_17" transform="matrix(16,0,0,-16,46.005189,25.725098)"/>
<use data-text="o" xlink:href="#font_2_17" transform="matrix(16,0,0,-16,54.904394,25.725098)"/>
<use data-text="t" xlink:href="#font_2_21" transform="matrix(16,0,0,-16,63.803594,25.725098)"/>
<use data-text=" " xlink:href="#font_2_1" transform="matrix(16,0,0,-16,68.2484,25.725098)"/>
<use data-text="n" xlink:href="#font_2_16" transform="matrix(16,0,0,-16,72.69319,25.725098)"/>
<use data-text="o" xlink:href="#font_2_17" transform="matrix(16,0,0,-16,81.59239,25.725098)"/>
<use data-text="d" xlink:href="#font_2_11" transform="matrix(16,0,0,-16,90.49159,25.725098)"/>
<use data-text="e" xlink:href="#font_2_12" transform="matrix(16,0,0,-16,99.39079,25.725098)"/>
<use data-text="s" xlink:href="#font_2_20" transform="matrix(16,0,0,-16,108.28999,25.725098)"/>
<use data-text="&#xfffd;" xlink:href="#font_3_1" transform="matrix(16,0,0,-16,116.28999,25.725098)"/>
<use data-text="H" xlink:href="#font_2_5" transform="matrix(16,0,0,-16,16.95,85.7251)"/>
<use data-text="e" xlink:href="#font_2_12" transform="matrix(16,0,0,-16,28.505202,85.7251)"/>
<use data-text="a" xlink:href="#font_2_8" transform="matrix(16,0,0,-16,37.404405,85.7251)"/>
<use data-text="p" xlink:href="#font_2_18" transform="matrix(16,0,0,-16,46.303606,85.7251)"/>
<use data-text=" " xlink:href="#font_2_1" transform="matrix(16,0,0,-16,55.202806,85.7251)"/>
<use data-text="n" xlink:href="#font_2_16" transform="matrix(16,0,0,-16,59.647607,85.7251)"/>
<use data-text="o" xlink:href="#font_2_17" transform="matrix(16,0,0,-16,68.54681,85.7251)"/>
<use data-text="d" xlink:href="#font_2_11" transform="matrix(16,0,0,-16,77.44601,85.7251)"/>
<use data-text="e" xlink:href="#font_2_12" transform="matrix(16,0,0,-16,86.3452,85.7251)"/>
<use data-text="s" xlink:href="#font_2_20" transform="matrix(16,0,0,-16,95.2444,85.7251)"/>
<use data-text="&#xfffd;" xlink:href="#font_3_1" transform="matrix(16,0,0,-16,103.2444,85.7251)"/>
<path transform="matrix(.00007874014,0,0,.00007874014,234,30.000092)" stroke-width="12700" stroke-linecap="butt" stroke-linejoin="round" fill="none" stroke="#000000" d="M.06945795 .2790529V889000.4"/>
<path transform="matrix(1,0,0,-1,0,540)" d="M237 443.9999 234 437.9999 231 443.9999Z" fill-rule="evenodd"/>
<path transform="matrix(.00007874014,0,0,.00007874014,329.9999,30.000092)" stroke-width="12700" stroke-linecap="butt" stroke-linejoin="round" fill="none" stroke="#000000" d="M-.1306154 .2790529 520601.5 892460.3"/>
<path transform="matrix(1,0,0,-1,0,540)" d="M371.5681 444.6942 371.9999 437.9999 366.3854 441.671Z" fill-rule="evenodd"/>
<path transform="matrix(1,0,0,-1,0,540)" d="M102 426C102 432.6274 107.3726 438 114 438 120.6274 438 126 432.6274 126 426 126 419.3726 120.6274 414 114 414 107.3726 414 102 419.3726 102 426Z" fill="#ffffff" fill-rule="evenodd"/>
<path transform="matrix(.00007874014,0,0,.00007874014,102,102)" stroke-width="12700" stroke-linecap="butt" stroke-linejoin="round" fill="none" stroke="#000000" d="M.005432099 152400.1C.005432099 68231.92 68231.8 .03210455 152400 .03210455 236568.2 .03210455 304800 68231.92 304800 152400.1 304800 236568.2 236568.2 304800.1 152400 304800.1 68231.8 304800.1 .005432099 236568.2 .005432099 152400.1Z"/>
<path transform="matrix(1,0,0,-1,0,540)" d="M222 426C222 432.6274 227.3726 438 234 438 240.6274 438 246 432.6274 246 426 246 419.3726 240.6274 414 234 414 227.3726 414 222 419.3726 222 426Z" fill="#ffffff" fill-rule="evenodd"/>
<path transform="matrix(.00007874014,0,0,.00007874014,222,102)" stroke-width="12700" stroke-linecap="butt" stroke-linejoin="round" fill="none" stroke="#000000" d="M.04602045 152400.1C.04602045 68231.92 68231.94 .03210455 152400.1 .03210455 236568.2 .03210455 304800.1 68231.92 304800.1 152400.1 304800.1 236568.2 236568.2 304800.1 152400.1 304800.1 68231.94 304800.1 .04602045 236568.2 .04602045 152400.1Z"/>
<path transform="matrix(1,0,0,-1,0,540)" d="M366 426C366 432.6274 371.3726 438 378 438 384.6274 438 390 432.6274 390 426 390 419.3726 384.6274 414 378 414 371.3726 414 366 419.3726 366 426Z" fill="#ffffff" fill-rule="evenodd"/>
<path transform="matrix(.00007874014,0,0,.00007874014,366,102)" stroke-width="12700" stroke-linecap="butt" stroke-linejoin="round" fill="none" stroke="#000000" d="M-.1727296 152400.1C-.1727296 68231.92 68231.72 .03210455 152399.8 .03210455 236568 .03210455 304799.9 68231.92 304799.9 152400.1 304799.9 236568.2 236568 304800.1 152399.8 304800.1 68231.72 304800.1-.1727296 236568.2-.1727296 152400.1Z"/>
<path transform="matrix(-.00007874014,-0,0,.00007874014,102,120)" stroke-width="12700" stroke-linecap="butt" stroke-linejoin="round" fill="none" stroke="#000000" d="M-.005432099 .0672608 517805.9 665750.6"/>
<path transform="matrix(1,0,0,-1,0,540)" d="M61.31558 372.5779 59.99999 366 66.0517 368.8943Z" fill-rule="evenodd"/>
<path transform="matrix(1,0,0,-1,0,540)" d="M48 354C48 360.6274 53.37258 366 59.99999 366 66.62741 366 71.99999 360.6274 71.99999 354 71.99999 347.3726 66.62741 342 59.99999 342 53.37258 342 48 347.3726 48 354Z" fill="#ffffff" fill-rule="evenodd"/>
<path transform="matrix(.00007874014,0,0,.00007874014,48,174)" stroke-width="12700" stroke-linecap="butt" stroke-linejoin="round" fill="none" stroke="#000000" d="M-.01719666 152400.2C-.01719666 68232.06 68231.78 .1727296 152400 .1727296 236568.2 .1727296 304800 68232.06 304800 152400.2 304800 236568.3 236568.2 304800.2 152400 304800.2 68231.78 304800.2-.01719666 236568.3-.01719666 152400.2Z"/>
<path transform="matrix(.00007874014,0,0,.00007874014,126,120)" stroke-width="12700" stroke-linecap="butt" stroke-linejoin="round" fill="none" stroke="#000000" d="M-.0726929 .0672608 517805.8 665750.6"/>
<path transform="matrix(1,0,0,-1,0,540)" d="M166.6844 372.5779 168 366 161.9483 368.8943Z" fill-rule="evenodd"/>
<path transform="matrix(1,0,0,-1,0,540)" d="M156 354C156 360.6274 161.3726 366 168 366 174.6274 366 180 360.6274 180 354 180 347.3726 174.6274 342 168 342 161.3726 342 156 347.3726 156 354Z" fill="#ffffff" fill-rule="evenodd"/>
<path transform="matrix(.00007874014,0,0,.00007874014,156,174)" stroke-width="12700" stroke-linecap="butt" stroke-linejoin="round" fill="none" stroke="#000000" d="M-.0828858 152400.2C-.0828858 68232.06 68231.81 .1727296 152399.9 .1727296 236568.1 .1727296 304800 68232.06 304800 152400.2 304800 236568.3 236568.1 304800.2 152399.9 304800.2 68231.81 304800.2-.0828858 236568.3-.0828858 152400.2Z"/>
<path transform="matrix(.00007874014,0,0,.00007874014,377.9999,126)" stroke-width="12700" stroke-linecap="butt" stroke-linejoin="round" fill="none" stroke="#000000" d="M-.03686535 .07897955V584200.2"/>
<path transform="matrix(1,0,0,-1,0,540)" d="M380.9999 372 377.9999 366 374.9999 372Z" fill-rule="evenodd"/>
<path transform="matrix(1,0,0,-1,0,540)" d="M366 354C366 360.6274 371.3726 366 378 366 384.6274 366 390 360.6274 390 354 390 347.3726 384.6274 342 378 342 371.3726 342 366 347.3726 366 354Z" fill="#ffffff" fill-rule="evenodd"/>
<path transform="matrix(.00007874014,0,0,.00007874014,366,174)" stroke-width="12700" stroke-linecap="butt" stroke-linejoin="round" fill="none" stroke="#000000" d="M-.1727296 152400.2C-.1727296 68232.06 68231.72 .1727296 152399.8 .1727296 236568 .1727296 304799.9 68232.06 304799.9 152400.2 304799.9 236568.3 236568 304800.2 152399.8 304800.2 68231.72 304800.2-.1727296 236568.3-.1727296 152400.2Z"/>
<path transform="matrix(1,0,0,-1,0,540)" d="M291.25 402C291.25 408.6274 296.6226 414 303.25 414 309.8774 414 315.25 408.6274 315.25 402 315.25 395.3726 309.8774 390 303.25 390 296.6226 390 291.25 395.3726 291.25 402Z" fill="#bfbfbf" fill-rule="evenodd"/>
<path transform="matrix(.00007874014,0,0,.00007874014,291.25,126)" stroke-width="12700" stroke-linecap="butt" stroke-linejoin="round" fill="none" stroke="#000000" d="M-.06872565 152400.1C-.06872565 68231.97 68231.82 .07897955 152400 .07897955 236568.1 .07897955 304800 68231.97 304800 152400.1 304800 236568.2 236568.1 304800.1 152400 304800.1 68231.82 304800.1-.06872565 236568.2-.06872565 152400.1Z"/>
<path transform="matrix(1,0,0,-1,0,540)" d="M291.25 342C291.25 348.6274 296.6226 354 303.25 354 309.8774 354 315.25 348.6274 315.25 342 315.25 335.3726 309.8774 330 303.25 330 296.6226 330 291.25 335.3726 291.25 342Z" fill="#bfbfbf" fill-rule="evenodd"/>
<path transform="matrix(.00007874014,0,0,.00007874014,291.25,186)" stroke-width="12700" stroke-linecap="butt" stroke-linejoin="round" fill="none" stroke="#000000" d="M-.06872565 152400.2C-.06872565 68232.09 68231.82 .1961671 152400 .1961671 236568.1 .1961671 304800 68232.09 304800 152400.2 304800 236568.3 236568.1 304800.2 152400 304800.2 68231.82 304800.2-.06872565 236568.3-.06872565 152400.2Z"/>
<path transform="matrix(.00007874014,0,0,.00007874014,303.25,150)" stroke-width="12700" stroke-linecap="butt" stroke-linejoin="round" fill="none" stroke="#000000" d="M-.04528815 .1258546V431800.2"/>
<path transform="matrix(1,0,0,-1,0,540)" d="M306.25 360 303.25 354 300.25 360Z" fill-rule="evenodd"/>
<path transform="matrix(1,0,0,-1,0,540)" d="M231.25 366C231.25 372.6274 236.6226 378 243.25 378 249.8774 378 255.25 372.6274 255.25 366 255.25 359.3726 249.8774 354 243.25 354 236.6226 354 231.25 359.3726 231.25 366Z" fill="#bfbfbf" fill-rule="evenodd"/>
<path transform="matrix(.00007874014,0,0,.00007874014,231.25,162)" stroke-width="12700" stroke-linecap="butt" stroke-linejoin="round" fill="none" stroke="#000000" d="M.06408685 152400.2C.06408685 68232.04 68231.95 .1492921 152400.1 .1492921 236568.2 .1492921 304800.1 68232.04 304800.1 152400.2 304800.1 236568.3 236568.2 304800.2 152400.1 304800.2 68231.95 304800.2 .06408685 236568.3 .06408685 152400.2Z"/>
<path transform="matrix(-.00007874014,-0,0,-.00007874014,291.25,192)" stroke-width="12700" stroke-linecap="butt" stroke-linejoin="round" fill="none" stroke="#000000" d="M.06872565-.2078858 433103.5 144367.8"/>
<path transform="matrix(1,0,0,-1,0,540)" d="M259.9934 355.2566 255.25 360 261.8907 360.9487Z" fill-rule="evenodd"/>
<path transform="matrix(.00007874014,0,0,-.00007874014,255.25,162)" stroke-width="12700" stroke-linecap="butt" stroke-linejoin="round" fill="none" stroke="#000000" d="M-.0828248-.1492921 434481.4 217240.5"/>
<path transform="matrix(1,0,0,-1,0,540)" d="M287.225 390.6334 291.2499 396H284.5417Z" fill-rule="evenodd"/>
<path transform="matrix(1,0,0,-1,0,540)" d="M423.2499 390C423.2499 396.6274 428.6225 402 435.2499 402 441.8773 402 447.2499 396.6274 447.2499 390 447.2499 383.3726 441.8773 378 435.2499 378 428.6225 378 423.2499 383.3726 423.2499 390Z" fill="#bfbfbf" fill-rule="evenodd"/>
<path transform="matrix(.00007874014,0,0,.00007874014,423.2499,138)" stroke-width="12700" stroke-linecap="butt" stroke-linejoin="round" fill="none" stroke="#000000" d="M.05151355 152400.1C.05151355 68231.99 68231.95 .1024171 152400.1 .1024171 236568.2 .1024171 304800.1 68231.99 304800.1 152400.1 304800.1 236568.2 236568.2 304800.2 152400.1 304800.2 68231.95 304800.2 .05151355 236568.2 .05151355 152400.1Z"/>
<path transform="matrix(1,0,0,-1,0,540)" d="M494.375 457.9999C494.375 464.6273 499.7476 469.9999 506.375 469.9999 513.0024 469.9999 518.375 464.6273 518.375 457.9999 518.375 451.3725 513.0024 445.9999 506.375 445.9999 499.7476 445.9999 494.375 451.3725 494.375 457.9999Z" fill="#ffffff" fill-rule="evenodd"/>
<path transform="matrix(.00007874014,0,0,.00007874014,494.375,70.00009)" stroke-width="12700" stroke-linecap="butt" stroke-linejoin="round" fill="none" stroke="#000000" d="M-.03442383 152399.9C-.03442383 68231.75 68231.86-.1428221 152400-.1428221 236568.5-.1428221 304800 68231.75 304800 152399.9 304800 236568 236568.5 304799.9 152400 304799.9 68231.86 304799.9-.03442383 236568-.03442383 152399.9Z"/>
<path transform="matrix(1,0,0,-1,0,540)" d="M494.375 422C494.375 428.6274 499.7476 434 506.375 434 513.0024 434 518.375 428.6274 518.375 422 518.375 415.3726 513.0024 410 506.375 410 499.7476 410 494.375 415.3726 494.375 422Z" fill="#bfbfbf" fill-rule="evenodd"/>
<path transform="matrix(.00007874014,0,0,.00007874014,494.375,106)" stroke-width="12700" stroke-linecap="butt" stroke-linejoin="round" fill="none" stroke="#000000" d="M-.03442383 152400.1C-.03442383 68231.93 68231.86 .03991705 152400 .03991705 236568.5 .03991705 304800 68231.93 304800 152400.1 304800 236568.2 236568.5 304800.1 152400 304800.1 68231.86 304800.1-.03442383 236568.2-.03442383 152400.1Z"/>
<use data-text="N" xlink:href="#font_2_6" transform="matrix(16,0,0,-16,531.575,121.7251)"/>
<use data-text="o" xlink:href="#font_2_17" transform="matrix(16,0,0,-16,543.1302,121.7251)"/>
<use data-text="t" xlink:href="#font_2_21" transform="matrix(16,0,0,-16,552.0294,121.7251)"/>
<use data-text="-" xlink:href="#font_2_4" transform="matrix(16,0,0,-16,556.47427,121.7251)"/>
<use data-text="r" xlink:href="#font_2_19" transform="matrix(16,0,0,-16,561.80227,121.7251)"/>
<use data-text="e" xlink:href="#font_2_12" transform="matrix(16,0,0,-16,567.1302,121.7251)"/>
<use data-text="a" xlink:href="#font_2_8" transform="matrix(16,0,0,-16,576.0294,121.7251)"/>
<use data-text="c" xlink:href="#font_2_10" transform="matrix(16,0,0,-16,584.9286,121.7251)"/>
<use data-text="h" xlink:href="#font_2_14" transform="matrix(16,0,0,-16,592.9286,121.7251)"/>
<use data-text="a" xlink:href="#font_2_8" transform="matrix(16,0,0,-16,601.8278,121.7251)"/>
<use data-text="b" xlink:href="#font_2_9" transform="matrix(16,0,0,-16,610.727,121.7251)"/>
<use data-text="l" xlink:href="#font_2_15" transform="matrix(16,0,0,-16,619.6262,121.7251)"/>
<use data-text="e" xlink:href="#font_2_12" transform="matrix(16,0,0,-16,623.1814,121.7251)"/>
<use data-text="&#x2028;" xlink:href="#font_3_2" transform="matrix(16,0,0,-16,632.0806,121.7251)"/>
<use data-text="(" xlink:href="#font_2_2" transform="matrix(16,0,0,-16,531.575,140.7251)"/>
<use data-text="g" xlink:href="#font_2_13" transform="matrix(16,0,0,-16,536.903,140.7251)"/>
<use data-text="a" xlink:href="#font_2_8" transform="matrix(16,0,0,-16,545.8022,140.7251)"/>
<use data-text="r" xlink:href="#font_2_19" transform="matrix(16,0,0,-16,554.7014,140.7251)"/>
<use data-text="b" xlink:href="#font_2_9" transform="matrix(16,0,0,-16,560.0294,140.7251)"/>
<use data-text="a" xlink:href="#font_2_8" transform="matrix(16,0,0,-16,568.9286,140.7251)"/>
<use data-text="g" xlink:href="#font_2_13" transform="matrix(16,0,0,-16,577.8278,140.7251)"/>
<use data-text="e" xlink:href="#font_2_12" transform="matrix(16,0,0,-16,586.727,140.7251)"/>
<use data-text=")" xlink:href="#font_2_3" transform="matrix(16,0,0,-16,595.6262,140.7251)"/>
<use data-text="&#xfffd;" xlink:href="#font_3_1" transform="matrix(16,0,0,-16,600.9542,140.7251)"/>
<use data-text="R" xlink:href="#font_2_7" transform="matrix(16,0,0,-16,532.45,85.7251)"/>
<use data-text="e" xlink:href="#font_2_12" transform="matrix(16,0,0,-16,544.0052,85.7251)"/>
<use data-text="a" xlink:href="#font_2_8" transform="matrix(16,0,0,-16,552.9044,85.7251)"/>
<use data-text="c" xlink:href="#font_2_10" transform="matrix(16,0,0,-16,561.8036,85.7251)"/>
<use data-text="h" xlink:href="#font_2_14" transform="matrix(16,0,0,-16,569.8036,85.7251)"/>
<use data-text="a" xlink:href="#font_2_8" transform="matrix(16,0,0,-16,578.7028,85.7251)"/>
<use data-text="b" xlink:href="#font_2_9" transform="matrix(16,0,0,-16,587.602,85.7251)"/>
<use data-text="l" xlink:href="#font_2_15" transform="matrix(16,0,0,-16,596.5012,85.7251)"/>
<use data-text="e" xlink:href="#font_2_12" transform="matrix(16,0,0,-16,600.0564,85.7251)"/>
<use data-text="&#xfffd;" xlink:href="#font_3_1" transform="matrix(16,0,0,-16,608.9556,85.7251)"/>
</g>
</g>
</svg>
