<svg xmlns="http://www.w3.org/2000/svg" xmlns:xlink="http://www.w3.org/1999/xlink" version="1.1" width="629.705pt" height="98.854007pt" viewBox="0 0 629.705 98.854007">
<defs>
<clipPath id="clip_0">
<path transform="matrix(1,0,0,-1,0,540)" d="M0 441.146H629.705V540H0Z" fill-rule="evenodd"/>
</clipPath>
<clipPath id="clip_1">
<path transform="matrix(1,0,0,-1,0,540)" d="M0 .00002324581H719.9999V540H0Z"/>
</clipPath>
<path id="font_2_5" d="M.38427735 .3181305C.41845704 .30150859 .44425456 .27959696 .46166993 .25239564 .4790853 .22519429 .48779298 .19595845 .48779298 .16468811 .48779298 .11614481 .4695638 .07411703 .43310548 .038604738 .39664714 .0031026204 .3523763-.0146484379 .30029298-.0146484379 .24820964-.0146484379 .2039388 .0031026204 .16748047 .038604738 .13102214 .07411703 .11279297 .11614481 .11279297 .16468811 .11279297 .19563294 .12150065 .22470601 .13891602 .25190736 .15633138 .27910868 .18229167 .30118308 .21679688 .3181305 .18684896 .33539329 .16503906 .3533071 .15136719 .37187196 .13248699 .3982595 .123046878 .42741905 .123046878 .4593506 .123046878 .504303 .14038086 .5436351 .17504883 .5773468 .2097168 .6110687 .25146485 .6279297 .30029298 .6279297 .34944663 .6279297 .39127604 .6110687 .42578126 .5773468 .46028648 .5436351 .47753907 .504303 .47753907 .4593506 .47753907 .42741905 .46809898 .39842225 .44921876 .37236024 .4358724 .35346986 .41422526 .33539329 .38427735 .3181305M.43554688 .4582367C.43554688 .49346415 .42244468 .5237172 .39624024 .548996 .3700358 .5742747 .33789063 .58691409 .2998047 .58691409 .26204429 .58691409 .23006185 .5741933 .20385742 .54875186 .177653 .52331039 .16455078 .4933014 .16455078 .45872499 .16455078 .4267629 .17749024 .39879356 .20336914 .3748169 .22924805 .35085044 .26139323 .3388672 .2998047 .3388672 .33854167 .3388672 .3708496 .35085044 .39672853 .3748169 .42260743 .39879356 .43554688 .42660014 .43554688 .4582367M.44677735 .16357422C.44677735 .19970703 .43277995 .2311198 .40478517 .2578125 .37679038 .28450523 .34195964 .29785157 .30029298 .29785157 .2586263 .29785157 .22379558 .28450523 .19580078 .2578125 .16780599 .2311198 .1538086 .1998698 .1538086 .1640625 .1538086 .12695313 .16788738 .09472656 .19604492 .06738281 .22420247 .040039064 .2589518 .026367188 .30029298 .026367188 .34163413 .026367188 .37638346 .040039064 .40454103 .06738281 .43269859 .09472656 .44677735 .12679036 .44677735 .16357422Z"/>
<path id="font_2_2" d="M.484375 .64208987 .15429688-.064941409C.14876302-.07698568 .14160156-.08300781 .1328125-.08300781 .12727864-.08300781 .12247721-.080973308 .1184082-.0769043 .114339198-.07283529 .11230469-.068359378 .11230469-.06347656 .11230469-.059570314 .11393229-.05419922 .1171875-.04736328L.44677735 .65966799C.45035807 .66715499 .45377604 .6720378 .45703126 .6743164 .46028648 .67659506 .46419273 .6777344 .46875 .6777344 .47428385 .6777344 .4790853 .6756999 .4831543 .67163088 .4872233 .6675618 .4892578 .66308596 .4892578 .6582031 .4892578 .6546224 .48763023 .6492513 .484375 .64208987Z"/>
<path id="font_2_3" d="M.48828126 .3572235V.25556947C.48828126 .16729228 .46728517 .0974172 .42529298 .045944215 .39241538 .005549113 .35091148-.0146484379 .30078126-.0146484379 .27669273-.0146484379 .25398765-.009841919 .23266602-.00022888184 .2113444 .009373982 .19319661 .02281189 .17822266 .04008484 .16878255 .0508372 .15844727 .068099979 .1472168 .09187317 .13598633 .11565653 .12792969 .13748677 .123046878 .15736389 .1155599 .18537903 .111816409 .21811421 .111816409 .25556947V.3572235C.111816409 .4458262 .1328125 .5158641 .17480469 .56733706 .2076823 .6077321 .2491862 .6279297 .2993164 .6279297 .32373048 .6279297 .34651695 .62312319 .36767579 .61351016 .38883464 .6039073 .40690104 .59046939 .421875 .5731964 .43164063 .56211856 .44205729 .5446879 .453125 .52090457 .46419273 .49713136 .47233073 .47546897 .47753907 .45591737 .48470054 .42790223 .48828126 .39500428 .48828126 .3572235M.44726563 .3517151C.44726563 .39048258 .44181315 .42655946 .4309082 .45994569 .42000328 .49334208 .40771485 .519989 .39404298 .5398865 .38590495 .55130007 .37532554 .5611623 .3623047 .56947329 .34375 .58110049 .32291667 .58691409 .2998047 .58691409 .25390626 .58653768 .2179362 .5628662 .19189453 .51589968 .16585286 .46894328 .15283203 .41419984 .15283203 .3516693V.26130677C.15283203 .22254944 .1582845 .18639629 .16918946 .15284729 .1800944 .11930847 .19254558 .09261068 .20654297 .072753909 .21435547 .0616862 .22477214 .052083333 .23779297 .043945314 .25634767 .032226564 .27734376 .026367188 .30078126 .026367188 .34635417 .026367188 .38216148 .049886068 .40820313 .09692383 .43424479 .1439616 .44726563 .1987559 .44726563 .26130677V.3517151Z"/>
<path id="font_2_1" d="M0 0Z"/>
<path id="font_3_5" d="M.095703128 .4951172V.5625C.15917969 .5686849 .20345052 .5790202 .22851563 .59350588 .25358073 .6079915 .2722982 .6422526 .28466798 .69628909H.3540039V0H.2602539V.4951172H.095703128Z"/>
<path id="font_3_8" d="M.29248048 .70214846C.37060548 .70214846 .42504884 .6818288 .45581056 .6411896 .48657228 .6005605 .5019531 .5587056 .5019531 .515625H.41503907C.40983073 .5434163 .40152995 .5651601 .39013673 .5808563 .36897788 .61028549 .33691407 .625 .2939453 .625 .24479167 .625 .20572917 .60224917 .17675781 .55674746 .14778646 .5112559 .13167317 .44611613 .12841797 .36132813 .14860027 .39095054 .17399089 .41308595 .20458985 .42773438 .23258464 .44075523 .26383464 .44726563 .29833985 .44726563 .3569336 .44726563 .40804038 .4285482 .45166017 .39111329 .49527995 .35367839 .51708987 .29785157 .51708987 .22363281 .51708987 .16015625 .49641929 .10392252 .45507813 .05493164 .41373698 .0059407555 .35481773-.018554688 .2783203-.018554688 .21289063-.018554688 .15641277 .0062815349 .10888672 .05595398 .061360677 .1056366 .037597658 .18927002 .037597658 .30685426 .037597658 .39382936 .048177083 .4676107 .06933594 .52819827 .11002604 .64416506 .18440755 .70214846 .29248048 .70214846M.2861328 .059570314C.33235679 .059570314 .36694337 .07511393 .38989259 .10620117 .4128418 .1372884 .4243164 .17399089 .4243164 .2163086 .4243164 .25211589 .4140625 .2862142 .3935547 .31860353 .37304688 .35099284 .33577476 .3671875 .28173829 .3671875 .24397786 .3671875 .21085613 .35465495 .18237305 .32958985 .15388997 .30452476 .13964844 .2667643 .13964844 .2163086 .13964844 .17203777 .15258789 .134847 .1784668 .10473633 .2043457 .07462565 .24023438 .059570314 .2861328 .059570314Z"/>
<path id="font_3_3" d="M.22753906 .71777346H.3017578L.07421875 0H0L.22753906 .71777346Z"/>
<path id="font_4_1" d="M0 0Z"/>
<clipPath id="clip_5">
<path transform="matrix(1,0,0,-1,0,540)" d="M195.9397 508.9377H221.9659V482.9042H195.9397Z" fill-rule="evenodd"/>
</clipPath>
<g id="pattern_tile_6">
<path transform="matrix(1,0,0,-1,794.6441,125.97449)" stroke-width="2.1" stroke-linecap="butt" stroke-miterlimit="10" stroke-linejoin="miter" fill="none" stroke="#cbcbcb" d="M-1 7 1 9M-1-1 9 9M7-1 9 1"/>
</g>
<pattern id="pattern_6" patternUnits="userSpaceOnUse" patternContentUnits="userSpaceOnUse" x="0" y="0" width="8" height="8">
<g transform="matrix(1,0,0,-1,-794.6441,125.97449)">
<use x="0" y="0" xlink:href="#pattern_tile_6"/>
</g>
</pattern>
<path id="font_3_7" d="M.25976563-.018554688C.17708333-.018554688 .11710612 .004196167 .079833988 .049697877 .042561849 .095209758 .023925782 .15058391 .023925782 .21582031H.115722659C.119628909 .1704305 .12809246 .13744609 .14111328 .116867069 .16389974 .07997131 .20507813 .061523439 .26464845 .061523439 .3108724 .061523439 .34798179 .07389323 .37597657 .09863281 .40397135 .1233724 .41796876 .15527344 .41796876 .19433594 .41796876 .24251302 .40323893 .27620445 .3737793 .29541017 .34431968 .31461589 .3033854 .32421876 .25097657 .32421876 .24511719 .32421876 .23917644 .32413737 .2331543 .3239746 .22713216 .32381187 .22102864 .32356773 .21484375 .3232422V.4013672C.22395833 .40019737 .23160808 .39941407 .23779297 .39901734 .24397786 .39863078 .25065104 .3984375 .2578125 .3984375 .2906901 .3984375 .31770835 .40363566 .3388672 .41403199 .37597657 .43222047 .39453126 .46470133 .39453126 .5114746 .39453126 .54622396 .38216148 .5730184 .35742188 .5918579 .33268229 .61069747 .3038737 .6201172 .2709961 .6201172 .21240235 .6201172 .171875 .6007131 .14941406 .5619049 .13704427 .5405629 .13004558 .51016238 .12841797 .47070313H.041503908C.041503908 .5225627 .051920576 .5666453 .072753909 .60295107 .108561199 .6677806 .17154949 .7001953 .26171876 .7001953 .3330078 .7001953 .3881836 .6843465 .4272461 .6526489 .4663086 .6209615 .48583985 .5750529 .48583985 .5149231 .48583985 .47201539 .47428385 .4372355 .45117188 .4105835 .43684898 .39401246 .41829429 .38101197 .3955078 .37158204 .43229167 .36149089 .4610189 .34204103 .48168946 .31323243 .50236007 .28442384 .5126953 .2491862 .5126953 .20751953 .5126953 .14078777 .49072267 .08642578 .44677735 .044433595 .40283204 .0024414063 .34049479-.018554688 .25976563-.018554688Z"/>
<path id="font_3_6" d="M.03125 0C.034505208 .060221357 .04695638 .11263021 .068603519 .15722656 .09025065 .20182292 .13248699 .24235027 .1953125 .2788086L.2890625 .3330078C.3310547 .35742188 .3605143 .3782908 .3774414 .39561463 .40413413 .4227346 .41748048 .45377604 .41748048 .488739 .41748048 .52959188 .40527345 .562027 .38085938 .5860443 .3564453 .61006167 .32389323 .6220703 .28320313 .6220703 .22298177 .6220703 .18131511 .5991516 .15820313 .5533142 .14583333 .52875778 .13899739 .4947103 .13769531 .45117188H.048339845C.049316408 .5121663 .060546876 .5619049 .08203125 .6003876 .12011719 .66822817 .18733724 .70214846 .2836914 .70214846 .36376954 .70214846 .4222819 .68047079 .45922853 .6371155 .49617515 .5937703 .51464846 .5455373 .51464846 .49241639 .51464846 .4363556 .49495445 .388443 .4555664 .3486786 .43277995 .3255361 .3919271 .29752604 .3330078 .26464845L.26611329 .22753906C.23421224 .20996094 .20914714 .19319661 .19091797 .1772461 .15836589 .14892578 .13785808 .11751302 .12939453 .08300781H.51123049V0H.03125Z"/>
<path id="font_3_4" d="M.2705078 .7001953C.3610026 .7001953 .42643229 .66289779 .46679688 .5883026 .49804688 .5306447 .5136719 .45165 .5136719 .35131837 .5136719 .25620524 .49951173 .17754109 .4711914 .11532593 .43017579 .026072184 .3631185-.018554688 .27001954-.018554688 .18603516-.018554688 .123535159 .017929078 .08251953 .09089661 .048339845 .15180969 .03125 .23357137 .03125 .33618165 .03125 .41565959 .041503908 .48390199 .06201172 .5409088 .10042318 .6470998 .16992188 .7001953 .2705078 .7001953M.26953126 .061523439C.31510417 .061523439 .35139976 .08168539 .37841798 .12200928 .4054362 .16234334 .4189453 .23747762 .4189453 .3474121 .4189453 .42676798 .4091797 .49205528 .38964845 .5432739 .3701172 .59450277 .332194 .6201172 .2758789 .6201172 .2241211 .6201172 .1862793 .59580489 .16235352 .5471802 .13842774 .4985555 .12646485 .42692057 .12646485 .3322754 .12646485 .26105754 .13411458 .20381673 .14941406 .16055298 .17285156 .09453329 .21289063 .061523439 .26953126 .061523439Z"/>
<clipPath id="clip_7">
<path transform="matrix(1,0,0,-1,0,540)" d="M40.23251 508.9377H66.37148V482.9042H40.23251Z" fill-rule="evenodd"/>
</clipPath>
<g id="pattern_tile_8">
<path transform="matrix(1,0,0,-1,163.1652,125.97449)" stroke-width="2.1" stroke-linecap="butt" stroke-miterlimit="10" stroke-linejoin="miter" fill="none" stroke="#cbcbcb" d="M-1 7 1 9M-1-1 9 9M7-1 9 1"/>
</g>
<pattern id="pattern_8" patternUnits="userSpaceOnUse" patternContentUnits="userSpaceOnUse" x="0" y="0" width="8" height="8">
<g transform="matrix(1,0,0,-1,-163.1652,125.97449)">
<use x="0" y="0" xlink:href="#pattern_tile_8"/>
</g>
</pattern>
<path id="font_3_10" d="M.13964844 .23144531C.14192708 .19064331 .15152996 .1575063 .16845703 .1320343 .2006836 .084376018 .25748698 .060546876 .3388672 .060546876 .37532554 .060546876 .40852867 .06575521 .43847657 .076171878 .49641929 .096354167 .5253906 .13248189 .5253906 .18455506 .5253906 .22361756 .5131836 .25144959 .48876954 .26805116 .46402995 .2843882 .42529298 .29859925 .3725586 .3106842L.27539063 .3327484C.21191406 .3471222 .16699219 .36294047 .140625 .38020326 .095052089 .41016136 .072265628 .4549408 .072265628 .5145416 .072265628 .57902529 .094563808 .6319478 .13916016 .6733093 .18375652 .71467086 .24690755 .73535159 .32861329 .73535159 .4038086 .73535159 .46769206 .7172038 .5202637 .6809082 .57283529 .6446126 .5991211 .58658859 .5991211 .50683596H.5078125C.5029297 .5452474 .49251304 .57470706 .4765625 .59521487 .4469401 .6326497 .39664714 .6513672 .3256836 .6513672 .26839195 .6513672 .22721355 .63931277 .20214844 .61520388 .17708333 .591095 .16455078 .56307479 .16455078 .5311432 .16455078 .49595643 .17919922 .47021995 .2084961 .45393373 .22770183 .44350688 .27115885 .43047587 .3388672 .4148407L.43945313 .39187623C.48795573 .38079835 .5253906 .36565147 .5517578 .34643556 .59733077 .31288658 .6201172 .26419068 .6201172 .2003479 .6201172 .12085978 .59122726 .06401571 .53344729 .029815674 .47566734-.004384359 .40852867-.021484375 .33203126-.021484375 .24283855-.021484375 .17301433 .0013478597 .122558597 .04701233 .07210287 .0923411 .04736328 .15381877 .048339845 .23144531H.13964844M.3359375 .7373047V.7373047Z"/>
<path id="font_3_26" d="M.08203125 .66796877H.17089844V.5234375H.25439454V.4501953H.17089844V.110183719C.17089844 .09202576 .17708333 .07986959 .18945313 .07371521 .19628906 .07014465 .2076823 .068359378 .22363281 .068359378 .22786458 .068359378 .23242188 .06846619 .23730469 .06867981 .2421875 .0689036 .24788411 .06944784 .25439454 .0703125V0C.24430339-.0031026204 .23380535-.005340576 .22290039-.006713867 .21199544-.008097331 .20019531-.0087890629 .1875-.0087890629 .14648438-.0087890629 .118652347 .0016988119 .104003909 .02267456 .08935547 .04365031 .08203125 .070882167 .08203125 .10437012V.4501953H.011230469V.5234375H.08203125V.66796877Z"/>
<path id="font_3_12" d="M.13183594 .1394043C.13183594 .114095058 .14111328 .09413656 .15966797 .07952881 .17822266 .06492106 .20019531 .057617189 .22558594 .057617189 .2565104 .057617189 .28645835 .06471761 .3154297 .07891846 .3642578 .10247803 .38867188 .14127605 .38867188 .1953125V.26611329C.3779297 .25886027 .36409507 .2528127 .34716798 .24797058 .33024089 .24313863 .3136393 .23983257 .29736329 .23805237L.24414063 .23184204C.21223958 .22799683 .1883138 .22153218 .17236328 .21244812 .14534505 .19718933 .13183594 .17284139 .13183594 .1394043M.34472657 .31689454C.36490885 .3194987 .37841798 .32796226 .3852539 .34228517 .38916017 .35012818 .39111329 .36140443 .39111329 .3761139 .39111329 .40618388 .38045249 .42799888 .35913087 .44155885 .33780924 .455129 .30729167 .46191407 .26757813 .46191407 .22167969 .46191407 .18912761 .44948326 .16992188 .42462159 .15917969 .4108785 .15218099 .39043174 .14892578 .36328126H.06689453C.06852213 .42791749 .08943685 .47288514 .12963867 .4981842 .1698405 .5234833 .21647136 .5361328 .26953126 .5361328 .3310547 .5361328 .38102214 .52441409 .4194336 .50097659 .45751954 .47753907 .4765625 .4410502 .4765625 .39151V.08985901C.4765625 .08073425 .47843424 .073404949 .48217774 .067871097 .48592124 .06233724 .4938151 .059570314 .5058594 .059570314 .5097656 .059570314 .51416018 .059814454 .51904299 .060302736 .5239258 .060791017 .5291341 .061523439 .53466799 .0625V-.0028076173C.5209961-.00676473 .5105794-.009236653 .50341799-.010223389 .4962565-.011220296 .48649089-.01171875 .4741211-.01171875 .44384767-.01171875 .421875-.0009104411 .40820313 .020706177 .40104167 .032170614 .3959961 .048380536 .3930664 .06933594 .37516276 .045633954 .34944663 .025060019 .31591798 .0076141359 .2823893-.009831746 .2454427-.018554688 .20507813-.018554688 .15657552-.018554688 .11694336-.0037790936 .08618164 .025772095 .055419923 .055323285 .040039064 .092300418 .040039064 .13670349 .040039064 .18535869 .05517578 .22307332 .08544922 .24984741 .115722659 .2766215 .1554362 .29311119 .20458985 .2993164L.34472657 .31689454M.27197267 .5361328V.5361328Z"/>
<path id="font_3_24" d="M.06689453 .5234375H.15039063V.4326172C.15722656 .4502767 .17399089 .4717814 .2006836 .49713136 .2273763 .52248129 .25813804 .53515627 .29296876 .53515627 .29459635 .53515627 .29736329 .5349579 .30126954 .53456118 .30517579 .5341746 .31184898 .5333964 .32128907 .53222659V.43945313C.31608073 .44062297 .3112793 .44140116 .30688478 .44178773 .30249024 .44218446 .2976888 .4423828 .29248048 .4423828 .24820964 .4423828 .2141927 .4280599 .19042969 .39941407 .16666667 .37076823 .15478516 .33789063 .15478516 .30078126V0H.06689453V.5234375Z"/>
<path id="font_3_1" d="M0 0Z"/>
<path id="font_3_22" d="M.27197267 .057617189C.33024089 .057617189 .37019859 .07964579 .3918457 .123703 .41349284 .16776021 .4243164 .21677144 .4243164 .2707367 .4243164 .31950379 .4165039 .35917155 .4008789 .38974 .3761393 .43785606 .3334961 .46191407 .27294923 .46191407 .21923828 .46191407 .18017578 .44143168 .15576172 .40046693 .13134766 .35950218 .119140628 .31008403 .119140628 .25221253 .119140628 .1966095 .13134766 .15027364 .15576172 .113204959 .18017578 .076146449 .21891277 .057617189 .27197267 .057617189M.27539063 .53808596C.34277345 .53808596 .3997396 .5156453 .44628907 .47076417 .49283854 .42588298 .5161133 .35985819 .5161133 .27268983 .5161133 .1884613 .49560548 .11886088 .45458985 .06388855 .41357423 .008926392 .3499349-.018554688 .26367188-.018554688 .19173177-.018554688 .13460286 .00575765 .092285159 .054382326 .04996745 .103006999 .028808594 .16829936 .028808594 .2502594 .028808594 .33806864 .05110677 .4079895 .095703128 .46002198 .14029949 .51206466 .20019531 .53808596 .27539063 .53808596M.27246095 .5361328V.5361328Z"/>
<path id="font_3_16" d="M.08642578 .6021576C.08772787 .638443 .09407552 .66500857 .10546875 .68185427 .12597656 .7116597 .16552735 .7265625 .2241211 .7265625 .22965496 .7265625 .23535156 .7263997 .24121094 .7260742 .24707031 .7257487 .2537435 .72526046 .26123048 .7246094V.64453127C.25211589 .6449687 .2455241 .6452382 .24145508 .64533999 .23738607 .64545187 .2335612 .6455078 .22998047 .6455078 .20328777 .6455078 .18733724 .6386719 .1821289 .625 .17692058 .6113281 .1743164 .5764974 .1743164 .5205078H.26123048V.45117188H.17333985V0H.08642578V.45117188H.013671875V.5205078H.08642578V.6021576Z"/>
<path id="font_3_18" d="M.064453128 .71875H.15234375V.45214845C.17317708 .4786682 .19189453 .4973297 .2084961 .50813296 .2368164 .5267995 .2721354 .5361328 .31445313 .5361328 .39029948 .5361328 .44173179 .50957748 .46875 .45646668 .48339845 .42747499 .49072267 .38723756 .49072267 .3357544V0H.40039063V.32958985C.40039063 .3680013 .3955078 .39615885 .3857422 .4140625 .36979167 .44270835 .33984376 .45703126 .29589845 .45703126 .2594401 .45703126 .22639974 .4444987 .19677735 .4194336 .16715496 .3943685 .15234375 .34700523 .15234375 .27734376V0H.064453128V.71875Z"/>
<path id="font_3_15" d="M.28222657 .53515627C.31933595 .53515627 .355306 .52644857 .39013673 .5090332 .42496745 .49161784 .4514974 .4690806 .46972657 .4414215 .4873047 .41505433 .49902345 .3842977 .5048828 .3491516 .5100911 .32506309 .5126953 .28647868 .5126953 .23339844H.12939453C.13102214 .18033855 .14355469 .13777669 .16699219 .10571289 .19042969 .073649089 .22672527 .057617189 .2758789 .057617189 .32177735 .057617189 .35839845 .07261658 .3857422 .10261536 .4013672 .12003072 .4124349 .14018758 .4189453 .16308594H.5053711C.50309249 .14398194 .49552409 .122690837 .48266603 .09921265 .46980796 .07574463 .45540367 .05656433 .43945313 .041671754 .4127604 .01576233 .37972007-.0017242432 .34033204-.010787964 .3191732-.01596578 .2952474-.018554688 .2685547-.018554688 .20345052-.018554688 .14827474 .0051472985 .103027347 .05255127 .05777995 .09995524 .03515625 .16634114 .03515625 .25170899 .03515625 .33576457 .057942708 .40401713 .103515628 .45646668 .14908855 .5089264 .20865886 .53515627 .28222657 .53515627M.42236329 .30371095C.41878257 .34191896 .41048179 .37245179 .39746095 .39530946 .3733724 .4377594 .33317057 .45898438 .27685548 .45898438 .23649089 .45898438 .20263672 .44437156 .17529297 .41514588 .14794922 .3859202 .13346355 .34877525 .13183594 .30371095H.42236329M.27392579 .5361328V.5361328Z"/>
<path id="font_3_23" d="M.28515626 .057617189C.32617188 .057617189 .36027018 .07486979 .38745118 .109375 .41463218 .14389038 .42822267 .1954956 .42822267 .26419068 .42822267 .3060608 .42220054 .34204103 .41015626 .37213136 .38736979 .43003337 .34570313 .45898438 .28515626 .45898438 .22428386 .45898438 .18261719 .42840068 .16015625 .36723329 .14811199 .33451844 .14208985 .29297386 .14208985 .24259949 .14208985 .20204163 .14811199 .16753133 .16015625 .1390686 .1829427 .08476766 .22460938 .057617189 .28515626 .057617189M.057617189 .5205078H.1430664V.45162965C.16064453 .47540284 .17985027 .49379985 .2006836 .5068207 .23030599 .5263621 .26513673 .5361328 .30517579 .5361328 .36442057 .5361328 .41471354 .5133667 .4560547 .46783448 .49739585 .42230226 .5180664 .3572693 .5180664 .2727356 .5180664 .1585083 .48828126 .07691447 .42871095 .027954102 .39095054-.0030517579 .34700523-.018554688 .296875-.018554688 .25748698-.018554688 .22444661-.009984334 .1977539 .007156372 .1821289 .016860962 .16471355 .033518476 .14550781 .057128908V-.20898438H.057617189V.5205078Z"/>
<path id="font_3_11" d="M.18164063 .71777346V.27441407C.18164063 .22233074 .19140625 .17903646 .2109375 .14453125 .23990886 .092447917 .28873698 .06640625 .35742188 .06640625 .43977867 .06640625 .49576823 .094563808 .5253906 .1508789 .5413411 .18147786 .5493164 .22265625 .5493164 .27441407V.71777346H.6479492V.3149414C.6479492 .22672527 .6360677 .15885417 .6123047 .111328128 .5686849 .024739584 .48632813-.018554688 .36523438-.018554688 .24414063-.018554688 .16194661 .024739584 .118652347 .111328128 .09488932 .15885417 .08300781 .22672527 .08300781 .3149414V.71777346H.18164063M.36572267 .71777346V.71777346Z"/>
<path id="font_3_21" d="M.064453128 .5234375H.14794922V.44921876C.1726888 .47981773 .19889324 .50179037 .2265625 .5151367 .25423179 .5284831 .2849935 .53515627 .31884767 .53515627 .3930664 .53515627 .44319663 .5092519 .46923829 .45744325 .4835612 .42910258 .49072267 .38853965 .49072267 .3357544V0H.4013672V.3299408C.4013672 .36188255 .39664714 .38762919 .38720704 .4071808 .37158204 .4397634 .34326173 .4560547 .3022461 .4560547 .28141276 .4560547 .2643229 .4539388 .25097657 .44970704 .22688802 .4425354 .20572917 .42819724 .1875 .4066925 .17285156 .38941957 .16333008 .37157694 .15893555 .35316468 .15454102 .3347524 .15234375 .30844117 .15234375 .27423097V0H.064453128V.5234375M.2709961 .5361328V.5361328Z"/>
<path id="font_3_27" d="M.15234375 .5234375V.17590332C.15234375 .1491801 .15657552 .12734477 .16503906 .11039734 .18066406 .07911682 .20979817 .06347656 .2524414 .06347656 .3136393 .06347656 .355306 .09085083 .3774414 .14559937 .3894857 .17492676 .3955078 .21516927 .3955078 .2663269V.5234375H.48339845V0H.40039063L.4013672 .0771637C.38997398 .057195028 .3758138 .040339155 .35888673 .02659607 .32535807-.00090026858 .28466798-.0146484379 .2368164-.0146484379 .16227214-.0146484379 .11149088 .010299683 .084472659 .060195924 .06982422 .08693949 .0625 .12265015 .0625 .16732788V.5234375H.15234375M.27294923 .5361328V.5361328Z"/>
<path id="font_3_25" d="M.11669922 .1640625C.11930338 .13463338 .12662761 .11207072 .13867188 .09637451 .1608073 .06793213 .19921875 .053710939 .25390626 .053710939 .28645835 .053710939 .31510417 .060806276 .33984376 .07499695 .36458335 .08919779 .37695313 .11115011 .37695313 .14085388 .37695313 .16337586 .36702476 .18051148 .34716798 .19226074 .33447267 .19944255 .30940757 .20775859 .27197267 .21720886L.20214844 .2348175C.15755208 .24590557 .12467448 .25829569 .103515628 .27198792 .06575521 .29579164 .046875 .32873027 .046875 .37080384 .046875 .42036439 .064697269 .46046958 .1003418 .49111939 .13598633 .52177938 .18391927 .5371094 .24414063 .5371094 .32291667 .5371094 .37972007 .5139974 .41455079 .46777345 .4363607 .43847657 .4469401 .40690104 .44628907 .37304688H.36328126C.36165367 .39269004 .35465495 .41055808 .34228517 .426651 .32210288 .44950868 .28710938 .4609375 .23730469 .4609375 .20410156 .4609375 .17895508 .45461528 .16186524 .44197084 .14477539 .42933656 .13623047 .41264854 .13623047 .39190675 .13623047 .36922203 .14746094 .35107423 .16992188 .33746339 .1829427 .32936607 .20214844 .32221986 .22753906 .31602479L.28564454 .3018341C.34879557 .28650413 .39111329 .27166749 .41259767 .25732423 .44677735 .23482259 .4638672 .19944255 .4638672 .15118408 .4638672 .10455322 .44620768 .06428019 .41088868 .03036499 .37556968-.0035502117 .32177735-.020507813 .24951172-.020507813 .17171224-.020507813 .116617839-.002802531 .084228519 .032608034 .05183919 .06801859 .034505208 .111836757 .032226564 .1640625H.11669922M.24658203 .5361328V.5361328Z"/>
<path id="font_3_14" d="M.12011719 .2553711C.12011719 .19923909 .1319987 .15224712 .15576172 .11439514 .17952474 .076543178 .21761067 .057617189 .27001954 .057617189 .31070964 .057617189 .3441569 .075154628 .37036134 .11022949 .39656578 .14531453 .40966798 .19565328 .40966798 .26124574 .40966798 .32748924 .39615885 .37651573 .36914063 .4083252 .3421224 .44014488 .3087565 .4560547 .26904298 .4560547 .22477214 .4560547 .18888347 .4390869 .16137696 .40515138 .13387044 .37121583 .12011719 .32128907 .12011719 .2553711M.2524414 .53222659C.29248048 .53222659 .32600913 .52381899 .35302735 .5070038 .36865235 .4972992 .38639323 .48031617 .40625 .4560547V.71875H.49072267V0H.4116211V.07229614C.39111329 .04023234 .36686198 .017074585 .3388672 .002822876 .3108724-.011428833 .2788086-.018554688 .24267578-.018554688 .18440755-.018554688 .13395183 .0059407555 .091308597 .05493164 .048665365 .10392252 .02734375 .16910808 .02734375 .25048829 .02734375 .32666017 .04679362 .39265953 .08569336 .44848634 .1245931 .5043132 .18017578 .53222659 .2524414 .53222659Z"/>
<clipPath id="clip_9">
<path transform="matrix(1,0,0,-1,0,540)" d="M534.1688 508.9377H560.3078V482.9042H534.1688Z" fill-rule="evenodd"/>
</clipPath>
<g id="pattern_tile_10">
<path transform="matrix(1,0,0,-1,2166.351,125.97449)" stroke-width="2.1" stroke-linecap="butt" stroke-miterlimit="10" stroke-linejoin="miter" fill="none" stroke="#cbcbcb" d="M-1 7 1 9M-1-1 9 9M7-1 9 1"/>
</g>
<pattern id="pattern_10" patternUnits="userSpaceOnUse" patternContentUnits="userSpaceOnUse" x="0" y="0" width="8" height="8">
<g transform="matrix(1,0,0,-1,-2166.351,125.97449)">
<use x="0" y="0" xlink:href="#pattern_tile_10"/>
</g>
</pattern>
<path id="font_2_4" d="M.3203125 .62109377V.041015626H.4609375C.47070313 .041015626 .4777018 .03914388 .4819336 .03540039 .48616538 .031656904 .48828126 .026692709 .48828126 .020507813 .48828126 .0146484379 .48616538 .009765625 .4819336 .005859375 .4777018 .001953125 .47070313 0 .4609375 0H.13867188C.12890625 0 .121907558 .001953125 .11767578 .005859375 .11344401 .009765625 .111328128 .0146484379 .111328128 .020507813 .111328128 .026692709 .11344401 .031656904 .11767578 .03540039 .121907558 .03914388 .12890625 .041015626 .13867188 .041015626H.27929688V.5644531L.14550781 .52246096C.13899739 .5205078 .13427735 .51953127 .13134766 .51953127 .12646485 .51953127 .12198893 .52156576 .11791992 .52563479 .113850917 .5297038 .111816409 .5345052 .111816409 .54003909 .111816409 .5449219 .11344401 .5494792 .11669922 .55371096 .11930338 .5563151 .12467448 .55908206 .1328125 .5620117L.3203125 .62109377Z"/>
<path id="font_3_9" d="M.3515625 .08300781C.3844401 .08300781 .41145835 .08642578 .4326172 .09326172 .4703776 .10595703 .50130209 .1303711 .5253906 .1665039 .5445964 .19547527 .55843099 .23258464 .56689456 .27783204 .57177737 .30485026 .57421877 .32991538 .57421877 .35302735 .57421877 .44189454 .55655929 .51090499 .52124026 .5600586 .48592124 .6092122 .42903648 .63378909 .35058595 .63378909H.17822266V.08300781H.3515625M.080566409 .71777346H.37109376C.46972657 .71777346 .54622396 .6827545 .60058596 .6127167 .64908859 .54952499 .67333987 .46857707 .67333987 .36987306 .67333987 .2936503 .6590169 .22475688 .6303711 .16319275 .57991537 .054397584 .49316407 0 .3701172 0H.080566409V.71777346Z"/>
<path id="font_3_13" d="M.057617189 .71875H.1430664V.45948792C.16227214 .4847056 .18522136 .50394698 .21191406 .5172119 .23860677 .53047689 .26757813 .5371094 .29882813 .5371094 .36393229 .5371094 .41674806 .5147095 .4572754 .46990968 .49780274 .42510987 .5180664 .35905458 .5180664 .27174378 .5180664 .1889801 .49804688 .12022909 .4580078 .06549072 .41796876 .010762532 .36246745-.016601563 .2915039-.016601563 .25179038-.016601563 .21826172-.006942749 .19091797 .012374878 .17464192 .023839316 .15722656 .042175294 .13867188 .06738281V0H.057617189V.71875M.2861328 .061523439C.33365885 .061523439 .36922203 .08037821 .39282228 .11808777 .41642253 .1558075 .42822267 .20555115 .42822267 .26731874 .42822267 .32227073 .41642253 .3677877 .39282228 .40386964 .36922203 .43996177 .33447267 .4580078 .28857423 .4580078 .24853516 .4580078 .21346028 .44321189 .18334961 .41362 .15323894 .3840383 .1381836 .3352712 .1381836 .26731874 .1381836 .21822612 .14436849 .17840068 .15673828 .1478424 .17985027 .090296428 .22298177 .061523439 .2861328 .061523439Z"/>
<path id="font_3_20" d="M.06689453 .71777346H.15478516V0H.06689453V.71777346Z"/>
<path id="font_3_2" d="M.041503908 .32421876H.2866211V.23339844H.041503908V.32421876Z"/>
<path id="font_3_28" d="M.10498047 .5234375 .2055664 .110946658 .3076172 .5234375H.40625L.50878909 .11338806 .61572268 .5234375H.7036133L.5517578 0H.46044923L.3540039 .40516664 .25097657 0H.15966797L.0087890629 .5234375H.10498047Z"/>
<path id="font_3_19" d="M.064453128 .5205078H.1538086V0H.064453128V.5205078M.064453128 .71777346H.1538086V.61816409H.064453128V.71777346Z"/>
<path id="font_3_17" d="M.24902344 .53222659C.29003907 .53222659 .32584635 .5220744 .3564453 .50177 .37304688 .49030558 .38997398 .4736023 .40722657 .45166017V.5185547H.48828126V.04234314C.48828126-.024154664 .47851563-.07663473 .45898438-.115097049 .42252604-.18615215 .35367839-.22167969 .2524414-.22167969 .1961263-.22167969 .14876302-.20906575 .11035156-.18383789 .0719401-.15861003 .05045573-.119140628 .045898439-.06542969H.1352539C.13948567-.08873495 .14794922-.10669454 .16064453-.11930847 .1805013-.13872783 .2117513-.1484375 .25439454-.1484375 .32177735-.1484375 .3658854-.12467448 .38671876-.07714844 .39908854-.04916382 .40478517 .0007985433 .4038086 .07273865 .38623048 .04588318 .36507163 .025904337 .34033204 .012802124 .31559245-.000289917 .2828776-.0068359377 .2421875-.0068359377 .18554688-.0068359377 .13598633 .013280232 .09350586 .053512575 .05102539 .09375509 .029785157 .16030376 .029785157 .25315858 .029785157 .34080506 .051188154 .40922547 .09399414 .4584198 .13680013 .5076243 .18847656 .53222659 .24902344 .53222659M.40722657 .26342774C.40722657 .328125 .39388023 .37607829 .3671875 .4072876 .34049479 .43849693 .30647788 .45410157 .26513673 .45410157 .20328777 .45410157 .16097005 .4251658 .1381836 .3672943 .12613933 .33641053 .12011719 .29593406 .12011719 .24586487 .12011719 .1870168 .13208008 .14223226 .15600586 .11151123 .17993164 .0807902 .21207683 .06542969 .2524414 .06542969 .31559245 .06542969 .36002604 .09387716 .3857422 .1507721 .4000651 .18295796 .40722657 .22050984 .40722657 .26342774M.25927735 .5361328V.5361328Z"/>
</defs>
<g clip-path="url(#clip_0)">
<g clip-path="url(#clip_1)">
<path transform="matrix(1,0,0,-1,0,540)" d="M0 539.9999H719.9999V.00003079383H0Z" fill="#ffffff" fill-rule="evenodd"/>
<path transform="matrix(1,0,0,-1,0,540)" d="M379.4757 508.9377H405.6147V482.9042H379.4757Z" fill="#ffffff" fill-rule="evenodd"/>
<path transform="matrix(.00007874014,0,0,.00007874014,379.4757,31.062287)" stroke-width="12700" stroke-linecap="butt" stroke-miterlimit="8" stroke-linejoin="miter" fill="none" stroke="#000000" d="M-.2671373 .155395H331964.8V330626.2H-.2671373Z"/>
<path transform="matrix(1,0,0,-1,0,540)" d="M66.37148 508.9377H92.51045V482.9042H66.37148Z" fill="#ffffff" fill-rule="evenodd"/>
<path transform="matrix(.00007874014,0,0,.00007874014,66.37148,31.062287)" stroke-width="12700" stroke-linecap="butt" stroke-miterlimit="8" stroke-linejoin="miter" fill="none" stroke="#000000" d="M-.03818436 .155395H331964.9V330626.2H-.03818436Z"/>
<use data-text="8" xlink:href="#font_2_5" transform="matrix(12,0,0,-12,68.57149,48.878999)"/>
<use data-text="/" xlink:href="#font_2_2" transform="matrix(12,0,0,-12,75.77269,48.878999)"/>
<use data-text="0" xlink:href="#font_2_3" transform="matrix(12,0,0,-12,82.97389,48.878999)"/>
<use data-text=" " xlink:href="#font_2_1" transform="matrix(12,0,0,-12,90.17509,48.878999)"/>
<path transform="matrix(1,0,0,-1,0,540)" d="M92.51046 508.9377H118.5368V482.9042H92.51046Z" fill="#ffffff" fill-rule="evenodd"/>
<path transform="matrix(.00007874014,0,0,.00007874014,92.51046,31.062287)" stroke-width="12700" stroke-linecap="butt" stroke-miterlimit="8" stroke-linejoin="miter" fill="none" stroke="#000000" d="M.02141325 .155395H330534.1V330626.2H.02141325Z"/>
<path transform="matrix(1,0,0,-1,0,540)" d="M117.6354 508.9377H143.6617V482.9042H117.6354Z" fill="#cbcbcb" fill-rule="evenodd"/>
<path transform="matrix(.00007874014,0,0,.00007874014,117.6354,31.062287)" stroke-width="12700" stroke-linecap="butt" stroke-miterlimit="8" stroke-linejoin="miter" fill="none" stroke="#000000" d="M-.01087444 .155395H330534V330626.2H-.01087444Z"/>
<use data-text="1" xlink:href="#font_3_5" transform="matrix(12,0,0,-12,118.8354,48.878999)"/>
<use data-text="6" xlink:href="#font_3_8" transform="matrix(12,0,0,-12,125.5098,48.878999)"/>
<use data-text="/" xlink:href="#font_3_3" transform="matrix(12,0,0,-12,132.1842,48.878999)"/>
<use data-text="1" xlink:href="#font_3_5" transform="matrix(12,0,0,-12,135.5226,48.878999)"/>
<use data-text="&#xfffd;" xlink:href="#font_4_1" transform="matrix(12,0,0,-12,142.197,48.878999)"/>
<path transform="matrix(1,0,0,-1,0,540)" d="M143.6617 508.9377H169.8007V482.9042H143.6617Z" fill="#cbcbcb" fill-rule="evenodd"/>
<path transform="matrix(.00007874014,0,0,.00007874014,143.6617,31.062287)" stroke-width="12700" stroke-linecap="butt" stroke-miterlimit="8" stroke-linejoin="miter" fill="none" stroke="#000000" d="M.03119963 .155395H331965.1V330626.2H.03119963Z"/>
<path transform="matrix(1,0,0,-1,0,540)" d="M169.8007 508.9377H195.9397V482.9042H169.8007Z" fill="#cbcbcb" fill-rule="evenodd"/>
<path transform="matrix(.00007874014,0,0,.00007874014,169.8007,31.062287)" stroke-width="12700" stroke-linecap="butt" stroke-miterlimit="8" stroke-linejoin="miter" fill="none" stroke="#000000" d="M-.1592028 .155395H331964.9V330626.2H-.1592028Z"/>
<path transform="matrix(1,0,0,-1,0,540)" d="M195.9397 508.9377H221.9659V482.9042H195.9397Z" fill="#ffffff" fill-rule="evenodd"/>
<g clip-path="url(#clip_5)">
<rect transform="matrix(1,0,0,-1,794.6441,125.97449)" fill="url(#pattern_6)" x="-598.7044" y="68.87869" width="26.026185" height="26.033509"/>
</g>
<path transform="matrix(.00007874014,0,0,.00007874014,195.9397,31.062287)" stroke-width="12700" stroke-linecap="butt" stroke-miterlimit="8" stroke-linejoin="miter" fill="none" stroke="#000000" d="M-.04339179 .155395H330533.9V330626.2H-.04339179Z"/>
<path transform="matrix(1,0,0,-1,0,540)" d="M249.9076 508.9377H275.9339V482.9042H249.9076Z" fill="#ffffff" fill-rule="evenodd"/>
<path transform="matrix(.00007874014,0,0,.00007874014,249.9076,31.062287)" stroke-width="12700" stroke-linecap="butt" stroke-miterlimit="8" stroke-linejoin="miter" fill="none" stroke="#000000" d="M-.1398899 .155395H330533.8V330626.2H-.1398899Z"/>
<path transform="matrix(1,0,0,-1,0,540)" d="M275.9339 508.9377H302.0729V482.9042H275.9339Z" fill="#ffffff" fill-rule="evenodd"/>
<path transform="matrix(.00007874014,0,0,.00007874014,275.9339,31.062287)" stroke-width="12700" stroke-linecap="butt" stroke-miterlimit="8" stroke-linejoin="miter" fill="none" stroke="#000000" d="M.05529082 .155395H331965.1V330626.2H.05529082Z"/>
<path transform="matrix(1,0,0,-1,0,540)" d="M302.0729 508.9377H328.0992V482.9042H302.0729Z" fill="#ffffff" fill-rule="evenodd"/>
<path transform="matrix(.00007874014,0,0,.00007874014,302.0729,31.062287)" stroke-width="12700" stroke-linecap="butt" stroke-miterlimit="8" stroke-linejoin="miter" fill="none" stroke="#000000" d="M-.1351116 .155395H330534V330626.2H-.1351116Z"/>
<path transform="matrix(1,0,0,-1,0,540)" d="M328.0992 508.9377H354.2382V482.9042H328.0992Z" fill="#ffffff" fill-rule="evenodd"/>
<path transform="matrix(.00007874014,0,0,.00007874014,328.0992,31.062287)" stroke-width="12700" stroke-linecap="butt" stroke-miterlimit="8" stroke-linejoin="miter" fill="none" stroke="#000000" d="M.003855824 .155395H331965.1V330626.2H.003855824Z"/>
<path transform="matrix(1,0,0,-1,0,540)" d="M354.2381 508.9377H380.3771V482.9042H354.2381Z" fill="#ffffff" fill-rule="evenodd"/>
<path transform="matrix(.00007874014,0,0,.00007874014,354.2381,31.062287)" stroke-width="12700" stroke-linecap="butt" stroke-miterlimit="8" stroke-linejoin="miter" fill="none" stroke="#000000" d="M-.07411987 .155395H331965V330626.2H-.07411987Z"/>
<path transform="matrix(1,0,0,-1,0,540)" d="M429.6129 508.9377H455.7519V482.9042H429.6129Z" fill="#cbcbcb" fill-rule="evenodd"/>
<path transform="matrix(.00007874014,0,0,.00007874014,429.6129,31.062287)" stroke-width="12700" stroke-linecap="butt" stroke-miterlimit="8" stroke-linejoin="miter" fill="none" stroke="#000000" d="M-.2523429 .155395H331964.8V330626.2H-.2523429Z"/>
<use data-text="1" xlink:href="#font_3_5" transform="matrix(12,0,0,-12,430.8129,48.878999)"/>
<use data-text="6" xlink:href="#font_3_8" transform="matrix(12,0,0,-12,437.4873,48.878999)"/>
<use data-text="/" xlink:href="#font_3_3" transform="matrix(12,0,0,-12,444.16169,48.878999)"/>
<use data-text="1" xlink:href="#font_3_5" transform="matrix(12,0,0,-12,447.5001,48.878999)"/>
<use data-text="&#xfffd;" xlink:href="#font_4_1" transform="matrix(12,0,0,-12,454.1745,48.878999)"/>
<path transform="matrix(1,0,0,-1,0,540)" d="M455.7519 508.9377H481.7782V482.9042H455.7519Z" fill="#cbcbcb" fill-rule="evenodd"/>
<path transform="matrix(.00007874014,0,0,.00007874014,455.7519,31.062287)" stroke-width="12700" stroke-linecap="butt" stroke-miterlimit="8" stroke-linejoin="miter" fill="none" stroke="#000000" d="M-.08031857 .155395H330534.1V330626.2H-.08031857Z"/>
<path transform="matrix(1,0,0,-1,0,540)" d="M223.7686 508.9377H249.9076V482.9042H223.7686Z" fill="#ffffff" fill-rule="evenodd"/>
<path transform="matrix(.00007874014,0,0,.00007874014,223.7686,31.062287)" stroke-width="12700" stroke-linecap="butt" stroke-miterlimit="8" stroke-linejoin="miter" fill="none" stroke="#000000" d="M-.1432742 .155395H331964.9V330626.2H-.1432742Z"/>
<use data-text="3" xlink:href="#font_3_7" transform="matrix(12,0,0,-12,224.9686,48.878999)"/>
<use data-text="2" xlink:href="#font_3_6" transform="matrix(12,0,0,-12,231.643,48.878999)"/>
<use data-text="/" xlink:href="#font_3_3" transform="matrix(12,0,0,-12,238.3174,48.878999)"/>
<use data-text="0" xlink:href="#font_3_4" transform="matrix(12,0,0,-12,241.65579,48.878999)"/>
<use data-text="&#xfffd;" xlink:href="#font_4_1" transform="matrix(12,0,0,-12,248.3302,48.878999)"/>
<path transform="matrix(.00007874014,0,0,.00007874014,71.77959,4.239685)" stroke-width="12700" stroke-linecap="butt" stroke-linejoin="round" fill="none" stroke="#000000" d="M-.01065387 317500.3 96837.51 200819 145256.3 147637.8 192087.5 99218.99 238918.8 58737.74 284956.3 26987.73 329406.3 7143.98 372268.8 .2289839 413543.8 7143.98 454025.1 26987.73 492918.8 58737.74 531018.8 99218.99 568325.1 147637.8 604837.6 200819 663699.4 295903.9"/>
<path transform="matrix(1,0,0,-1,0,540)" d="M124.4848 517.4409 125.0921 510.7602 119.3832 514.2828Z" fill-rule="evenodd"/>
<path transform="matrix(.00007874014,0,0,.00007874014,129.8035,4.239685)" stroke-width="12700" stroke-linecap="butt" stroke-linejoin="round" fill="none" stroke="#000000" d="M-.06801069 317500.3 156368.7 200819 234950 147637.8 313531.2 99218.99 391318.8 58737.74 469900 26987.73 548481.2 7143.98 627062.5 .2289839 705643.8 7143.98 783431.3 26987.73 862012.6 58737.74 940593.8 99218.99 1018381 147637.8 1096963 200819 1232974 302310.1"/>
<path transform="matrix(1,0,0,-1,0,540)" d="M225.4764 516.7529 228.491 510.7603 221.8881 511.9441Z" fill-rule="evenodd"/>
<path transform="matrix(.00007874014,0,0,.00007874014,230.5287,3.3381959)" stroke-width="12700" stroke-linecap="butt" stroke-linejoin="round" fill="none" stroke="#000000" d="M-.03711435 317500.1 325437.7 200818.8 488156.1 147637.6 650875.2 99218.8 813593.6 58737.55 976312.4 26987.54 1139031 7143.79 1301750 .03850234 1464469 7143.79 1627188 26987.54 1789906 58737.55 1952625 99218.8 2114550 147637.6 2277269 200818.8 2578797 308927.8"/>
<path transform="matrix(1,0,0,-1,0,540)" d="M430.8307 516.5107 435.4662 511.6618 428.8058 510.8628Z" fill-rule="evenodd"/>
<path transform="matrix(1,0,0,-1,0,540)" d="M481.7782 508.9377H507.9172V482.9042H481.7782Z" fill="#cbcbcb" fill-rule="evenodd"/>
<path transform="matrix(.00007874014,0,0,.00007874014,481.7782,31.062287)" stroke-width="12700" stroke-linecap="butt" stroke-miterlimit="8" stroke-linejoin="miter" fill="none" stroke="#000000" d="M.05864882 .155395H331965.1V330626.2H.05864882Z"/>
<path transform="matrix(1,0,0,-1,0,540)" d="M40.23251 508.9377H66.37148V482.9042H40.23251Z" fill="#ffffff" fill-rule="evenodd"/>
<g clip-path="url(#clip_7)">
<rect transform="matrix(1,0,0,-1,163.1652,125.97449)" fill="url(#pattern_8)" x="-122.93269" y="68.87869" width="26.13897" height="26.033509"/>
</g>
<path transform="matrix(.00007874014,0,0,.00007874014,40.23251,31.062287)" stroke-width="12700" stroke-linecap="butt" stroke-miterlimit="8" stroke-linejoin="miter" fill="none" stroke="#000000" d="M-.0008886456 .155395H331965V330626.2H-.0008886456Z"/>
<use data-text="S" xlink:href="#font_3_10" transform="matrix(12,0,0,-12,2.45,34.70453)"/>
<use data-text="t" xlink:href="#font_3_26" transform="matrix(12,0,0,-12,10.454,34.70453)"/>
<use data-text="a" xlink:href="#font_3_12" transform="matrix(12,0,0,-12,13.7876009,34.70453)"/>
<use data-text="r" xlink:href="#font_3_24" transform="matrix(12,0,0,-12,20.462002,34.70453)"/>
<use data-text="t" xlink:href="#font_3_26" transform="matrix(12,0,0,-12,24.458003,34.70453)"/>
<use data-text=" " xlink:href="#font_3_1" transform="matrix(12,0,0,-12,27.791604,34.70453)"/>
<use data-text="&#xfffd;" xlink:href="#font_4_1" transform="matrix(12,0,0,-12,31.125205,34.70453)"/>
<use data-text="o" xlink:href="#font_3_22" transform="matrix(12,0,0,-12,9.45,48.7045)"/>
<use data-text="f" xlink:href="#font_3_16" transform="matrix(12,0,0,-12,16.124402,48.7045)"/>
<use data-text=" " xlink:href="#font_3_1" transform="matrix(12,0,0,-12,19.4628,48.7045)"/>
<use data-text="&#xfffd;" xlink:href="#font_4_1" transform="matrix(12,0,0,-12,22.8012,48.7045)"/>
<use data-text="h" xlink:href="#font_3_18" transform="matrix(12,0,0,-12,1.45,62.7045)"/>
<use data-text="e" xlink:href="#font_3_15" transform="matrix(12,0,0,-12,8.1244,62.7045)"/>
<use data-text="a" xlink:href="#font_3_12" transform="matrix(12,0,0,-12,14.7988,62.7045)"/>
<use data-text="p" xlink:href="#font_3_23" transform="matrix(12,0,0,-12,21.473202,62.7045)"/>
<use data-text="&#xfffd;" xlink:href="#font_4_1" transform="matrix(12,0,0,-12,28.147603,62.7045)"/>
<path transform="matrix(.00007874014,0,0,.00007874014,66.37148,30.949494)" stroke-width="38100" stroke-linecap="butt" stroke-miterlimit="8" stroke-linejoin="miter" fill="none" stroke="#000000" d="M-.03818436 .07204491H652482.9V330626.1H-.03818436Z"/>
<path transform="matrix(.00007874014,0,0,.00007874014,117.7481,30.949494)" stroke-width="38100" stroke-linecap="butt" stroke-miterlimit="8" stroke-linejoin="miter" fill="none" stroke="#000000" d="M.006649107 .07204491H1339307V330626.1H.006649107Z"/>
<use data-text="U" xlink:href="#font_3_11" transform="matrix(12,0,0,-12,31.54637,26.846314)"/>
<use data-text="n" xlink:href="#font_3_21" transform="matrix(12,0,0,-12,40.21277,26.846314)"/>
<use data-text="u" xlink:href="#font_3_27" transform="matrix(12,0,0,-12,46.887174,26.846314)"/>
<use data-text="s" xlink:href="#font_3_25" transform="matrix(12,0,0,-12,53.56157,26.846314)"/>
<use data-text="e" xlink:href="#font_3_15" transform="matrix(12,0,0,-12,59.56157,26.846314)"/>
<use data-text="d" xlink:href="#font_3_14" transform="matrix(12,0,0,-12,66.23597,26.846314)"/>
<use data-text="&#xfffd;" xlink:href="#font_4_1" transform="matrix(12,0,0,-12,72.91037,26.846314)"/>
<path transform="matrix(.00007874014,0,0,-.00007874014,92.51046,87.75009)" stroke-width="12700" stroke-linecap="butt" stroke-dasharray="50800,38100" stroke-linejoin="round" fill="none" stroke="#000000" d="M.02141325 .1081542 .9903465 354958"/>
<path transform="matrix(.00007874014,0,0,-.00007874014,143.8871,87.75009)" stroke-width="12700" stroke-linecap="butt" stroke-dasharray="50800,38100" stroke-linejoin="round" fill="none" stroke="#000000" d="M-.05875328 .1081542 .91018 354958"/>
<path transform="matrix(.00007874014,0,0,-.00007874014,196.165,87.75009)" stroke-width="12700" stroke-linecap="butt" stroke-dasharray="50800,38100" stroke-linejoin="round" fill="none" stroke="#000000" d="M-.06455806 .1081542 .9043752 354958"/>
<path transform="matrix(.00007874014,0,0,-.00007874014,250.2455,87.75009)" stroke-width="12700" stroke-linecap="butt" stroke-dasharray="50800,38100" stroke-linejoin="round" fill="none" stroke="#000000" d="M-.09693253 .1081542 .8720007 354958"/>
<path transform="matrix(.00007874014,0,0,-.00007874014,302.5235,87.75009)" stroke-width="12700" stroke-linecap="butt" stroke-dasharray="50800,38100" stroke-linejoin="round" fill="none" stroke="#000000" d="M.02226269 .1081542 1.184983 354958"/>
<path transform="matrix(.00007874014,0,0,-.00007874014,353.9001,87.75009)" stroke-width="12700" stroke-linecap="butt" stroke-dasharray="50800,38100" stroke-linejoin="round" fill="none" stroke="#000000" d="M.1639895 .1081542 1.326709 354958"/>
<path transform="matrix(.00007874014,0,0,-.00007874014,456.6533,87.75009)" stroke-width="12700" stroke-linecap="butt" stroke-dasharray="50800,38100" stroke-linejoin="round" fill="none" stroke="#000000" d="M-.2152768 .1081542 .9474431 354958"/>
<path transform="matrix(.00007874014,0,0,-.00007874014,41.13385,86.84839)" stroke-width="12700" stroke-linecap="butt" stroke-dasharray="50800,38100" stroke-linejoin="round" fill="none" stroke="#000000" d="M-.006223552-.1510711 1.011156 354957.7"/>
<path transform="matrix(.00007874014,0,0,-.00007874014,508.9312,87.75009)" stroke-width="12700" stroke-linecap="butt" stroke-dasharray="50800,38100" stroke-linejoin="round" fill="none" stroke="#000000" d="M.01634508 .1081542 1.179065 354958"/>
<path transform="matrix(1,0,0,-1,0,540)" d="M507.9172 508.9377H534.0562V482.9042H507.9172Z" fill="#cbcbcb" fill-rule="evenodd"/>
<path transform="matrix(.00007874014,0,0,.00007874014,507.9172,31.062287)" stroke-width="12700" stroke-linecap="butt" stroke-miterlimit="8" stroke-linejoin="miter" fill="none" stroke="#000000" d="M.1182464 .155395H331965.2V330626.2H.1182464Z"/>
<path transform="matrix(.00007874014,0,0,.00007874014,430.289,30.949494)" stroke-width="38100" stroke-linecap="butt" stroke-miterlimit="8" stroke-linejoin="miter" fill="none" stroke="#000000" d="M.1590117 .07204491H1327860V330626.1H.1590117Z"/>
<path transform="matrix(.00007874014,0,0,.00007874014,438.9644,3.000122)" stroke-width="12700" stroke-linecap="butt" stroke-linejoin="round" fill="none" stroke="#000000" d="M-.1654747 317500.3 156368.6 200819 234949.9 147637.8 313531.1 99218.99 391318.7 58737.73 469899.9 26987.73 548481.2 7143.978 627062.4 .2263185 705643.7 7143.978 783431.2 26987.73 862012.4 58737.73 940593.3 99218.99 1018382 147637.8 1096962 200819 1232974 302309.7"/>
<path transform="matrix(1,0,0,-1,0,540)" d="M534.6373 517.9926 537.6519 512 531.049 513.1838Z" fill-rule="evenodd"/>
<path transform="matrix(1,0,0,-1,0,540)" d="M534.1688 508.9377H560.3078V482.9042H534.1688Z" fill="#ffffff" fill-rule="evenodd"/>
<g clip-path="url(#clip_9)">
<rect transform="matrix(1,0,0,-1,2166.351,125.97449)" fill="url(#pattern_10)" x="-1632.1823" y="68.87869" width="26.139039" height="26.033509"/>
</g>
<path transform="matrix(.00007874014,0,0,.00007874014,534.1688,31.062287)" stroke-width="12700" stroke-linecap="butt" stroke-miterlimit="8" stroke-linejoin="miter" fill="none" stroke="#000000" d="M.09847426 .155395H331965.2V330626.2H.09847426Z"/>
<use data-text="0" xlink:href="#font_2_3" transform="matrix(12,0,0,-12,536.3688,48.878999)"/>
<use data-text="/" xlink:href="#font_2_2" transform="matrix(12,0,0,-12,543.56997,48.878999)"/>
<use data-text="1" xlink:href="#font_2_4" transform="matrix(12,0,0,-12,550.7712,48.878999)"/>
<use data-text=" " xlink:href="#font_2_1" transform="matrix(12,0,0,-12,557.97238,48.878999)"/>
<path transform="matrix(.00007874014,0,0,.00007874014,534.1688,30.949494)" stroke-width="38100" stroke-linecap="butt" stroke-miterlimit="8" stroke-linejoin="miter" fill="none" stroke="#000000" d="M.09847426 .07204491H309071.2V330626.1H.09847426Z"/>
<path transform="matrix(.00007874014,0,0,-.00007874014,577.4333,54.39099)" stroke-width="12700" stroke-linecap="butt" stroke-dasharray="50800,38100" stroke-linejoin="round" fill="none" stroke="#000000" d="M-.107308-.1399238 .6678386 354958.1"/>
<use data-text="D" xlink:href="#font_3_9" transform="matrix(12,0,0,-12,581.4786,33.23938)"/>
<use data-text="o" xlink:href="#font_3_22" transform="matrix(12,0,0,-12,590.14498,33.23938)"/>
<use data-text="u" xlink:href="#font_3_27" transform="matrix(12,0,0,-12,596.8194,33.23938)"/>
<use data-text="b" xlink:href="#font_3_13" transform="matrix(12,0,0,-12,603.4938,33.23938)"/>
<use data-text="l" xlink:href="#font_3_20" transform="matrix(12,0,0,-12,610.16818,33.23938)"/>
<use data-text="e" xlink:href="#font_3_15" transform="matrix(12,0,0,-12,612.8346,33.23938)"/>
<use data-text="-" xlink:href="#font_3_2" transform="matrix(12,0,0,-12,619.509,33.23938)"/>
<use data-text="&#xfffd;" xlink:href="#font_4_1" transform="matrix(12,0,0,-12,623.505,33.23938)"/>
<use data-text="w" xlink:href="#font_3_28" transform="matrix(12,0,0,-12,589.4786,47.23929)"/>
<use data-text="o" xlink:href="#font_3_22" transform="matrix(12,0,0,-12,598.14498,47.23929)"/>
<use data-text="r" xlink:href="#font_3_24" transform="matrix(12,0,0,-12,604.8194,47.23929)"/>
<use data-text="d" xlink:href="#font_3_14" transform="matrix(12,0,0,-12,608.81539,47.23929)"/>
<use data-text="&#xfffd;" xlink:href="#font_4_1" transform="matrix(12,0,0,-12,615.4898,47.23929)"/>
<use data-text="a" xlink:href="#font_3_12" transform="matrix(12,0,0,-12,583.4786,61.23929)"/>
<use data-text="l" xlink:href="#font_3_20" transform="matrix(12,0,0,-12,590.15298,61.23929)"/>
<use data-text="i" xlink:href="#font_3_19" transform="matrix(12,0,0,-12,592.8194,61.23929)"/>
<use data-text="g" xlink:href="#font_3_17" transform="matrix(12,0,0,-12,595.4858,61.23929)"/>
<use data-text="n" xlink:href="#font_3_21" transform="matrix(12,0,0,-12,602.16018,61.23929)"/>
<use data-text="e" xlink:href="#font_3_15" transform="matrix(12,0,0,-12,608.8346,61.23929)"/>
<use data-text="d" xlink:href="#font_3_14" transform="matrix(12,0,0,-12,615.509,61.23929)"/>
<use data-text="&#xfffd;" xlink:href="#font_4_1" transform="matrix(12,0,0,-12,622.18338,61.23929)"/>
<path transform="matrix(1,0,0,-1,0,540)" d="M404.7133 509.8394H430.8523V483.8058H404.7133Z" fill="#ffffff" fill-rule="evenodd"/>
<path transform="matrix(.00007874014,0,0,.00007874014,404.7133,30.160614)" stroke-width="12700" stroke-linecap="butt" stroke-miterlimit="8" stroke-linejoin="miter" fill="none" stroke="#000000" d="M-.1850081 .3021936H331964.9V330626.3H-.1850081Z"/>
<path transform="matrix(.00007874014,0,0,.00007874014,223.2052,30.949494)" stroke-width="38100" stroke-linecap="butt" stroke-miterlimit="8" stroke-linejoin="miter" fill="none" stroke="#000000" d="M.05978808 .07204491H2632825V330626.1H.05978808Z"/>
<path transform="matrix(.00007874014,0,0,-.00007874014,404.3754,87.75009)" stroke-width="12700" stroke-linecap="butt" stroke-dasharray="50800,38100" stroke-linejoin="round" fill="none" stroke="#000000" d="M-.05932546 .1081542 1.103395 354958"/>
</g>
</g>
</svg>
