<svg xmlns="http://www.w3.org/2000/svg" xmlns:xlink="http://www.w3.org/1999/xlink" version="1.1" width="616.472pt" height="419.544pt" viewBox="0 0 616.472 419.544">
<defs>
<clipPath id="clip_0">
<path transform="matrix(1,0,0,-1,0,540)" d="M0 120.456H616.472V540H0Z" fill-rule="evenodd"/>
</clipPath>
<clipPath id="clip_1">
<path transform="matrix(1,0,0,-1,0,540)" d="M0 .00002324581H719.9999V540H0Z"/>
</clipPath>
<path id="font_2_19" d="M.3359375 0H.26660157L.09814453 .3828125H.056152345C.04638672 .3828125 .03938802 .38476563 .03515625 .38867188 .030924479 .39257813 .028808594 .3976237 .028808594 .4038086 .028808594 .40952555 .030924479 .41429139 .03515625 .41810609 .03938802 .42192079 .04638672 .42382813 .056152345 .42382813H.20996094C.21972656 .42382813 .22672527 .42192079 .23095703 .41810609 .2351888 .41429139 .23730469 .4093628 .23730469 .4033203 .23730469 .39746095 .2351888 .39257813 .23095703 .38867188 .22672527 .38476563 .21972656 .3828125 .20996094 .3828125H.14208985L.29248048 .041015626H.31054688L.4580078 .3828125H.38964845C.3798828 .3828125 .37288413 .38476563 .36865235 .38867188 .36442057 .39257813 .3623047 .3976237 .3623047 .4038086 .3623047 .40952555 .36442057 .41429139 .36865235 .41810609 .37288413 .42192079 .3798828 .42382813 .38964845 .42382813H.5439453C.55403646 .42382813 .5611165 .42192079 .56518557 .41810609 .5692546 .41429139 .57128909 .4093628 .57128909 .4033203 .57128909 .39746095 .5692546 .39257813 .56518557 .38867188 .5611165 .38476563 .55403646 .3828125 .5439453 .3828125H.5024414L.3359375 0Z"/>
<path id="font_2_11" d="M.11328125 .42382813V.38275147C.14811199 .41990153 .18310547 .43847657 .21826172 .43847657 .23942058 .43847657 .25797526 .43289186 .27392579 .4217224 .2898763 .41056315 .30322267 .3936564 .31396485 .3710022 .332194 .3936564 .35066734 .41056315 .36938478 .4217224 .3881022 .43289186 .40690104 .43847657 .42578126 .43847657 .45540367 .43847657 .4790039 .42884828 .49658204 .40959168 .51969406 .38479106 .53125 .3577067 .53125 .32833863V.041015626H.56591799C.5756836 .041015626 .5826823 .03914388 .58691409 .03540039 .5911458 .031656904 .5932617 .026692709 .5932617 .020507813 .5932617 .0146484379 .5911458 .009765625 .58691409 .005859375 .5826823 .001953125 .5756836 0 .56591799 0H.49023438V.32492066C.49023438 .34583537 .48388673 .36315409 .4711914 .37687684 .4584961 .39059959 .44384767 .39746095 .4272461 .39746095 .41227214 .39746095 .39648438 .39182536 .3798828 .3805542 .36328126 .36928306 .34440104 .3471476 .3232422 .31414796V.041015626H.35742188C.3671875 .041015626 .3741862 .03914388 .37841798 .03540039 .38264976 .031656904 .38476563 .026692709 .38476563 .020507813 .38476563 .0146484379 .38264976 .009765625 .37841798 .005859375 .3741862 .001953125 .3671875 0 .35742188 0H.28173829V.32199098C.28173829 .34388224 .27530924 .36193339 .26245118 .3761444 .2495931 .39035545 .2351888 .39746095 .21923828 .39746095 .20458985 .39746095 .19010417 .39272563 .17578125 .383255 .15592449 .3698578 .13509114 .3468221 .11328125 .31414796V.041015626H.14794922C.15771485 .041015626 .16471355 .03914388 .16894531 .03540039 .17317708 .031656904 .17529297 .026692709 .17529297 .020507813 .17529297 .0146484379 .17317708 .009765625 .16894531 .005859375 .16471355 .001953125 .15771485 0 .14794922 0H.037597658C.027832032 0 .020833334 .001953125 .016601563 .005859375 .012369792 .009765625 .010253906 .0146484379 .010253906 .020507813 .010253906 .026692709 .012369792 .031656904 .016601563 .03540039 .020833334 .03914388 .027832032 .041015626 .037597658 .041015626H.072265628V.3828125H.037597658C.027832032 .3828125 .020833334 .38476563 .016601563 .38867188 .012369792 .39257813 .010253906 .3976237 .010253906 .4038086 .010253906 .40952555 .012369792 .41429139 .016601563 .41810609 .020833334 .42192079 .027832032 .42382813 .037597658 .42382813H.11328125Z"/>
<path id="font_2_2" d="M.5727539-.27441407H.02734375C.017578125-.27441407 .010579427-.27254234 .0063476564-.26879884 .0021158856-.26505534 0-.26009117 0-.25390626 0-.24772136 .0021158856-.24275716 .0063476564-.23901367 .010579427-.23527019 .017578125-.23339844 .02734375-.23339844H.5727539C.58284506-.23339844 .5899251-.23527019 .59399417-.23901367 .5980632-.24275716 .60009768-.24772136 .60009768-.25390626 .60009768-.26009117 .5980632-.26505534 .59399417-.26879884 .5899251-.27254234 .58284506-.27441407 .5727539-.27441407Z"/>
<path id="font_2_12" d="M.16748047 .42382813V.3623047C.1961263 .39109294 .2220052 .41098533 .24511719 .4219818 .26822917 .4329783 .29427085 .43847657 .3232422 .43847657 .3544922 .43847657 .38297526 .43178813 .4086914 .41841126 .42692057 .4086151 .44344078 .39237467 .45825196 .36968995 .47306315 .34701539 .48046876 .32377116 .48046876 .29995729V.041015626H.5151367C.52490237 .041015626 .53190109 .03914388 .5361328 .03540039 .54036459 .031656904 .54248049 .026692709 .54248049 .020507813 .54248049 .0146484379 .54036459 .009765625 .5361328 .005859375 .53190109 .001953125 .52490237 0 .5151367 0H.40527345C.39518229 0 .38802085 .001953125 .38378907 .005859375 .37955729 .009765625 .3774414 .0146484379 .3774414 .020507813 .3774414 .026692709 .37955729 .031656904 .38378907 .03540039 .38802085 .03914388 .39518229 .041015626 .40527345 .041015626H.43945313V.29351808C.43945313 .32261149 .4288737 .34720866 .40771485 .36730958 .386556 .3874105 .3582357 .39746095 .3227539 .39746095 .2957357 .39746095 .2722982 .39200846 .2524414 .38110353 .23258464 .37019859 .20426433 .34309898 .16748047 .2998047V.041015626H.21386719C.22363281 .041015626 .23063152 .03914388 .23486328 .03540039 .23909505 .031656904 .24121094 .026692709 .24121094 .020507813 .24121094 .0146484379 .23909505 .009765625 .23486328 .005859375 .23063152 .001953125 .22363281 0 .21386719 0H.080078128C.0703125 0 .063313808 .001953125 .05908203 .005859375 .05485026 .009765625 .052734376 .0146484379 .052734376 .020507813 .052734376 .026692709 .05485026 .031656904 .05908203 .03540039 .063313808 .03914388 .0703125 .041015626 .080078128 .041015626H.12646485V.3828125H.091796878C.08203125 .3828125 .075032558 .38476563 .07080078 .38867188 .06656901 .39257813 .064453128 .3976237 .064453128 .4038086 .064453128 .40952555 .06656901 .41429139 .07080078 .41810609 .075032558 .42192079 .08203125 .42382813 .091796878 .42382813H.16748047Z"/>
<path id="font_2_6" d="M.52197268 .20214844H.104003909C.11116537 .14908855 .13338216 .10636393 .1706543 .07397461 .20792644 .041585287 .254069 .025390625 .30908204 .025390625 .339681 .025390625 .37174479 .030436198 .40527345 .040527345 .4388021 .05061849 .46614585 .063964847 .4873047 .080566409 .4934896 .08544922 .4988607 .087890628 .50341799 .087890628 .5086263 .087890628 .5131836 .08585612 .51708987 .08178711 .5209961 .0777181 .5229492 .072916667 .5229492 .06738281 .5229492 .061848958 .52034506 .056477865 .5151367 .05126953 .49951173 .03499349 .47176109 .01977539 .43188478 .0056152346 .39200846-.008544922 .35107423-.015625 .30908204-.015625 .23876953-.015625 .1800944 .0074310305 .13305664 .05354309 .08601888 .09965515 .0625 .15546163 .0625 .22096253 .0625 .28059388 .08455404 .3317515 .12866211 .37443543 .17277019 .41712953 .2273763 .43847657 .29248048 .43847657 .35953776 .43847657 .41471354 .41653953 .4580078 .3726654 .50130209 .3287913 .5226237 .2719523 .52197268 .20214844M.48046876 .24316406C.47233073 .28884889 .45092774 .32598368 .41625978 .35456849 .3815918 .38316346 .34033204 .39746095 .29248048 .39746095 .2446289 .39746095 .20345052 .3833262 .16894531 .35505677 .13444011 .3267975 .11295573 .2894999 .10449219 .24316406H.48046876Z"/>
<path id="font_2_20" d="M.32885743 .22181702 .5161133 .041015626C.5284831 .041015626 .5362956 .040445966 .5395508 .03930664 .54280599 .038167318 .5456543 .035807294 .5480957 .032226564 .5505371 .028645834 .5517578 .024739584 .5517578 .020507813 .5517578 .0146484379 .5496419 .009765625 .54541018 .005859375 .5411784 .001953125 .5340169 0 .5239258 0H.39208985C.3819987 0 .37483726 .001953125 .37060548 .005859375 .3663737 .009765625 .3642578 .0146484379 .3642578 .020507813 .3642578 .026692709 .3663737 .031656904 .37060548 .03540039 .37483726 .03914388 .3819987 .041015626 .39208985 .041015626H.45996095L.30067445 .19459534 .14160156 .041015626H.20996094C.21972656 .041015626 .22672527 .03914388 .23095703 .03540039 .2351888 .031656904 .23730469 .026692709 .23730469 .020507813 .23730469 .0146484379 .2351888 .009765625 .23095703 .005859375 .22672527 .001953125 .21972656 0 .20996094 0H.076660159C.06689453 0 .059895833 .001953125 .055664064 .005859375 .051432294 .009765625 .049316408 .0146484379 .049316408 .020507813 .049316408 .024739584 .05053711 .028645834 .052978517 .032226564 .055419923 .035807294 .058186849 .038167318 .061279298 .03930664 .06437174 .040445966 .07210287 .041015626 .084472659 .041015626L.27233888 .22190857 .10546875 .3828125C.09375 .3828125 .0863444 .38345338 .08325195 .3847351 .08015951 .386027 .07739258 .388443 .07495117 .39198304 .072509769 .39552308 .07128906 .39938355 .07128906 .40356446 .07128906 .40935264 .073404949 .4141744 .07763672 .4180298 .08186849 .42189536 .089029949 .42382813 .099121097 .42382813H.2109375C.22102864 .42382813 .22810872 .42189536 .23217774 .4180298 .23624675 .4141744 .23828125 .40918986 .23828125 .40307618 .23828125 .397288 .23624675 .39246116 .23217774 .38859559 .22810872 .3847402 .22102864 .3828125 .2109375 .3828125H.16210938L.3005829 .24909973 .43945313 .3828125H.390625C.38085938 .3828125 .3737793 .3847402 .36938478 .38859559 .36499024 .39246116 .36279298 .39745078 .36279298 .40356446 .36279298 .40935264 .36490885 .4141744 .36914063 .4180298 .3733724 .42189536 .38053385 .42382813 .390625 .42382813H.5024414C.51220706 .42382813 .51920577 .42189536 .5234375 .4180298 .52766928 .4141744 .52978518 .40918986 .52978518 .40307618 .52978518 .3992208 .52856448 .39552308 .52612307 .39198304 .52368167 .388443 .52091476 .386027 .51782229 .3847351 .5147298 .38345338 .5073242 .3828125 .49560548 .3828125L.32885743 .22181702Z"/>
<path id="font_2_17" d="M.21582031 .42382813H.43847657C.4482422 .42382813 .45524089 .42192079 .45947267 .41810609 .46370445 .41429139 .4658203 .4093628 .4658203 .4033203 .4658203 .39746095 .46370445 .39257813 .45947267 .38867188 .45524089 .38476563 .4482422 .3828125 .43847657 .3828125H.21582031V.1091156C.21582031 .08529154 .2253418 .06537882 .24438477 .04937744 .26342774 .03338623 .29134117 .025390625 .328125 .025390625 .35579429 .025390625 .3857422 .029541016 .41796876 .037841798 .4501953 .046142579 .4752604 .0555013 .49316407 .06591797 .49967448 .07014974 .5050456 .072265628 .50927737 .072265628 .51448568 .072265628 .51904299 .07023112 .5229492 .06616211 .52685549 .062093099 .5288086 .057291669 .5288086 .051757814 .5288086 .046875 .5266927 .042317708 .52246096 .038085939 .51204428 .02734375 .48673503 .01570638 .4465332 .0031738282 .4063314-.009358724 .36783854-.015625 .3310547-.015625 .28320313-.015625 .24511719-.0043691 .21679688 .0181427 .18847656 .040664674 .1743164 .071014408 .1743164 .109191898V.3828125H.09863281C.08886719 .3828125 .08186849 .3847402 .07763672 .38859559 .073404949 .39246116 .07128906 .39745078 .07128906 .40356446 .07128906 .40935264 .073404949 .4141744 .07763672 .4180298 .08186849 .42189536 .08886719 .42382813 .09863281 .42382813H.1743164V.54571536C.1743164 .5555522 .17626953 .5625966 .18017578 .56684878 .18408203 .571111 .18896485 .5732422 .19482422 .5732422 .20100911 .5732422 .20605469 .571111 .20996094 .56684878 .21386719 .5625966 .21582031 .5555522 .21582031 .54571536V.42382813Z"/>
<path id="font_2_1" d="M0 0Z"/>
<path id="font_2_3" d="M.41796876 0V.059570314C.35839845 .0094401049 .29475913-.015625 .22705078-.015625 .17789714-.015625 .13948567-.0031738282 .111816409 .021728516 .08414713 .04663086 .0703125 .07714844 .0703125 .11328125 .0703125 .1529948 .088541667 .18766277 .125 .21728516 .16145833 .24690755 .21468099 .26171876 .28466798 .26171876 .3035482 .26171876 .324056 .26049806 .3461914 .25805665 .3683268 .25561524 .3922526 .25179038 .41796876 .24658203V.31341554C.41796876 .33602906 .4075521 .35568748 .38671876 .37239076 .3658854 .38910423 .3346354 .39746095 .29296876 .39746095 .26106773 .39746095 .2163086 .38804627 .1586914 .36921693 .14827474 .36591087 .14160156 .3642578 .13867188 .3642578 .13346355 .3642578 .12898763 .36621095 .12524414 .3701172 .12150065 .37402345 .119628909 .37890626 .119628909 .38476563 .119628909 .39029948 .12125651 .394694 .12451172 .39794923 .12906902 .40283204 .14746094 .40950523 .1796875 .41796876 .23046875 .43164063 .26888023 .43847657 .29492188 .43847657 .3466797 .43847657 .38704429 .42566935 .41601563 .40005494 .44498698 .37444053 .45947267 .34547935 .45947267 .3131714V.041015626H.51416018C.5242513 .041015626 .5314128 .03914388 .53564456 .03540039 .5398763 .031656904 .5419922 .026692709 .5419922 .020507813 .5419922 .0146484379 .5398763 .009765625 .53564456 .005859375 .5314128 .001953125 .5242513 0 .51416018 0H.41796876M.41796876 .20458985C.39876304 .2101237 .37841798 .2141927 .3569336 .21679688 .33544923 .21940105 .31282554 .22070313 .2890625 .22070313 .22949219 .22070313 .1829427 .20784505 .14941406 .1821289 .12402344 .16292317 .111328128 .13997396 .111328128 .11328125 .111328128 .088541667 .12101237 .067708339 .14038086 .05078125 .15974935 .033854169 .18798828 .025390625 .22509766 .025390625 .26057945 .025390625 .29353843 .032470704 .3239746 .04663086 .3544108 .060791017 .3857422 .083333339 .41796876 .11425781V.20458985Z"/>
<path id="font_2_16" d="M.43554688 .39746095C.43554688 .40672813 .4375 .4134369 .44140626 .41758729 .4453125 .42174784 .4501953 .42382813 .4560547 .42382813 .4622396 .42382813 .46728517 .42170207 .4711914 .41744996 .47509767 .413208 .47705079 .40602113 .47705079 .39588929V.32530213C.47705079 .31549583 .47509767 .30846659 .4711914 .30421449 .46728517 .29997254 .4622396 .29785157 .4560547 .29785157 .45052085 .29785157 .44588218 .2996572 .44213868 .30326844 .43839518 .30688987 .4361979 .31281028 .43554688 .32102967 .43359376 .34075419 .4235026 .35702516 .40527345 .36984254 .37858073 .3882548 .34326173 .39746095 .2993164 .39746095 .25341798 .39746095 .21777344 .3881836 .19238281 .3696289 .17317708 .3556315 .16357422 .3400065 .16357422 .3227539 .16357422 .30322267 .17496746 .28694663 .1977539 .27392579 .2133789 .2648112 .2430013 .2578125 .2866211 .2529297 .34358726 .24672444 .38313804 .23970032 .40527345 .2318573 .43684898 .22042339 .46036784 .20457459 .47583009 .18431092 .49129234 .16405742 .49902345 .14217122 .49902345 .118652347 .49902345 .08369955 .48225913 .052581788 .44873048 .025299073 .4152018-.0019836426 .3660482-.015625 .30126954-.015625 .23649089-.015625 .18343099 .00081380209 .14208985 .033691408 .14208985 .022460938 .1414388 .015192668 .14013672 .011886597 .13883464 .008590698 .13647461 .005783081 .13305664 .0034637452 .12963867 .0011545817 .1258138 0 .12158203 0 .115722659 0 .110839847 .0021209717 .106933597 .006362915 .103027347 .010615031 .10107422 .01763916 .10107422 .027435303V.112213138C.10107422 .12200928 .10294596 .12902832 .10668945 .13327027 .110432948 .13752239 .11539713 .13964844 .12158203 .13964844 .1274414 .13964844 .1324056 .13761394 .13647461 .13354492 .14054363 .1294759 .14257813 .12402344 .14257813 .1171875 .14257813 .10221354 .14632161 .08968099 .1538086 .079589847 .16520183 .063964847 .18334961 .05102539 .20825196 .040771486 .2331543 .030517579 .26367188 .025390625 .2998047 .025390625 .3531901 .025390625 .39290367 .035369874 .4189453 .05532837 .44498698 .075286868 .4580078 .09638977 .4580078 .118637088 .4580078 .14415996 .44482423 .16460674 .41845704 .17997742 .3917643 .19535828 .35294596 .20566304 .30200196 .21089173 .25105796 .21613057 .21451824 .2229716 .19238281 .2314148 .17024739 .23985799 .1529948 .2525228 .140625 .26940919 .1282552 .28630577 .12207031 .3044993 .12207031 .32398988 .12207031 .35906474 .13932292 .38691203 .17382813 .40753175 .20833333 .42816163 .24951172 .43847657 .29736329 .43847657 .3540039 .43847657 .4000651 .4248047 .43554688 .39746095Z"/>
<path id="font_2_9" d="M.21679688 .18261719V0H.12060547C.110839847 0 .10384115 .001953125 .099609378 .005859375 .0953776 .009765625 .09326172 .0146484379 .09326172 .020507813 .09326172 .026692709 .0953776 .031656904 .099609378 .03540039 .10384115 .03914388 .110839847 .041015626 .12060547 .041015626H.17578125V.5722656H.12060547C.110839847 .5722656 .10384115 .57421877 .099609378 .578125 .0953776 .58203127 .09326172 .58707687 .09326172 .5932617 .09326172 .5989787 .0953776 .6037445 .099609378 .6075592 .10384115 .6113739 .110839847 .61328127 .12060547 .61328127H.21679688V.23582459L.39111329 .3828125H.3701172C.36035157 .3828125 .35335288 .38476563 .3491211 .38867188 .3448893 .39257813 .34277345 .39746095 .34277345 .4033203 .34277345 .4093628 .3448893 .41429139 .3491211 .41810609 .35335288 .42192079 .36035157 .42382813 .3701172 .42382813H.50146487C.51155599 .42382813 .51871749 .42192079 .5229492 .41810609 .52718099 .41429139 .5292969 .4093628 .5292969 .4033203 .5292969 .39746095 .52718099 .39257813 .5229492 .38867188 .51871749 .38476563 .51155599 .3828125 .50146487 .3828125H.45410157L.2939453 .24765015 .49658204 .041015626H.5439453C.55403646 .041015626 .56119796 .03914388 .5654297 .03540039 .56966146 .031656904 .57177737 .026692709 .57177737 .020507813 .57177737 .0146484379 .56966146 .009765625 .5654297 .005859375 .56119796 .001953125 .55403646 0 .5439453 0H.4111328C.4013672 0 .3943685 .001953125 .39013673 .005859375 .38590495 .009765625 .38378907 .0146484379 .38378907 .020507813 .38378907 .026692709 .38590495 .031656904 .39013673 .03540039 .3943685 .03914388 .4013672 .041015626 .4111328 .041015626H.4399414L.26367188 .22216797 .21679688 .18261719Z"/>
<path id="font_2_15" d="M.25097657 .42382813V.3200531C.30436198 .36812846 .34431968 .3990682 .3708496 .4128723 .39737956 .4266866 .421875 .43359376 .44433595 .43359376 .46875 .43359376 .49145509 .4253184 .5124512 .4087677 .53344729 .392217 .5439453 .37967936 .5439453 .3711548 .5439453 .3649292 .5419108 .3597819 .5378418 .3557129 .53377279 .3516439 .5286458 .34960938 .52246096 .34960938 .51920577 .34960938 .5164388 .35017906 .51416018 .35131837 .51188156 .35245768 .5076497 .3561605 .50146487 .36242677 .49007163 .3739624 .48014323 .38187156 .4716797 .38615418 .46321617 .3904368 .45491538 .39257813 .44677735 .39257813 .4288737 .39257813 .40730796 .38542176 .38208009 .371109 .3568522 .35679627 .31315104 .32182823 .25097657 .26620484V.041015626H.4326172C.44270835 .041015626 .44986979 .03914388 .45410157 .03540039 .45833335 .031656904 .46044923 .026692709 .46044923 .020507813 .46044923 .0146484379 .45833335 .009765625 .45410157 .005859375 .44986979 .001953125 .44270835 0 .4326172 0H.110839847C.10107422 0 .09407552 .0019175211 .08984375 .0057525637 .08561198 .0095876059 .083496097 .014506022 .083496097 .020507813 .083496097 .026041666 .0855306 .030680338 .08959961 .034423829 .09366862 .038167318 .100748699 .040039064 .110839847 .040039064H.20996094V.3828125H.13427735C.12451172 .3828125 .11751302 .38476563 .11328125 .38867188 .10904948 .39257813 .106933597 .3976237 .106933597 .4038086 .106933597 .40952555 .1089681 .41429139 .11303711 .41810609 .11710612 .42192079 .124186199 .42382813 .13427735 .42382813H.25097657Z"/>
<path id="font_2_18" d="M.4404297 0V.06059265C.3844401 .009780884 .32389323-.015625 .25878907-.015625 .21875-.015625 .1883138-.0046946208 .16748047 .017166138 .14046224 .04588318 .12695313 .079330448 .12695313 .117507938V.3828125H.071777347C.06201172 .3828125 .05501302 .38476563 .05078125 .38867188 .04654948 .39257813 .044433595 .3976237 .044433595 .4038086 .044433595 .40952555 .04654948 .41429139 .05078125 .41810609 .05501302 .42192079 .06201172 .42382813 .071777347 .42382813H.16796875V.11729431C.16796875 .09057108 .1764323 .068573 .19335938 .05130005 .21028646 .0340271 .23144531 .025390625 .25683595 .025390625 .32356773 .025390625 .38476563 .05602519 .4404297 .11729431V.3828125H.3647461C.35498048 .3828125 .34798179 .38476563 .34375 .38867188 .33951823 .39257813 .33740235 .3976237 .33740235 .4038086 .33740235 .40952555 .33951823 .41429139 .34375 .41810609 .34798179 .42192079 .35498048 .42382813 .3647461 .42382813H.4814453V.041015626H.5161133C.5258789 .041015626 .5328776 .03914388 .5371094 .03540039 .5413411 .031656904 .54345706 .026692709 .54345706 .020507813 .54345706 .0146484379 .5413411 .009765625 .5371094 .005859375 .5328776 .001953125 .5258789 0 .5161133 0H.4404297Z"/>
<path id="font_2_4" d="M.4711914 .38275147V.396286C.4711914 .40627543 .47314454 .4133606 .47705079 .4175415 .48095704 .42173258 .48583985 .42382813 .49169923 .42382813 .49788413 .42382813 .5029297 .42171226 .50683596 .41748048 .5107422 .4132487 .5126953 .40608726 .5126953 .3959961V.30322267C.5123698 .2931315 .51033529 .28597007 .5065918 .28173829 .5028483 .2775065 .49788413 .27539063 .49169923 .27539063 .48616538 .27539063 .4815267 .27726747 .4777832 .28102113 .4740397 .28478495 .47184245 .29108177 .4711914 .2999115 .46923829 .32311503 .45402018 .34517417 .4255371 .36608888 .39705406 .38700358 .35872398 .39746095 .31054688 .39746095 .24967449 .39746095 .20345052 .3783671 .171875 .34017945 .14029949 .3019918 .12451172 .2582601 .12451172 .20898438 .12451172 .15578206 .14192708 .11188253 .17675781 .07728577 .21158855 .042689008 .2566732 .025390625 .31201173 .025390625 .34391276 .025390625 .37638346 .03131612 .40942384 .043167116 .4424642 .05502828 .47233073 .074132289 .49902345 .100479129 .5058594 .10706075 .51188156 .11035156 .51708987 .11035156 .5226237 .11035156 .5272624 .10846456 .53100588 .10469055 .5347493 .10091654 .5366211 .09624227 .5366211 .090667728 .5366211 .07655843 .5201823 .058680219 .4873047 .03703308 .43424479 .0019276937 .37516276-.015625 .3100586-.015625 .24397786-.015625 .18969727 .005472819 .1472168 .047668458 .10473633 .08987427 .083496097 .1434021 .083496097 .20825196 .083496097 .2744039 .10522461 .3293101 .14868164 .37297059 .19213867 .41664125 .24690755 .43847657 .31298829 .43847657 .3758138 .43847657 .4285482 .41990153 .4711914 .38275147Z"/>
<path id="font_2_14" d="M.14550781 .42382813V.349411C.16992188 .37894187 .1961263 .40116883 .2241211 .41609193 .25211589 .431015 .28515626 .43847657 .3232422 .43847657 .36360679 .43847657 .4008789 .42902629 .4350586 .41012574 .46923829 .3912252 .49568687 .36490885 .5144043 .33117677 .53312179 .29744468 .54248049 .26200358 .54248049 .22485352 .54248049 .16586304 .521403 .11542765 .47924806 .07354736 .4370931 .031677247 .3852539 .0107421879 .32373048 .0107421879 .25048829 .0107421879 .19108074 .040430707 .14550781 .09980774V-.14746094H.24511719C.2548828-.14746094 .2618815-.14933269 .26611329-.15307617 .27034507-.15681966 .27246095-.16178386 .27246095-.16796875 .27246095-.17382813 .27034507-.17871094 .26611329-.18261719 .2618815-.18652344 .2548828-.18847656 .24511719-.18847656H.049316408C.03955078-.18847656 .032552083-.18660482 .028320313-.18286133 .024088541-.17911785 .021972657-.17415364 .021972657-.16796875 .021972657-.16178386 .024088541-.15681966 .028320313-.15307617 .032552083-.14933269 .03955078-.14746094 .049316408-.14746094H.10449219V.3828125H.049316408C.03955078 .3828125 .032552083 .38476563 .028320313 .38867188 .024088541 .39257813 .021972657 .3976237 .021972657 .4038086 .021972657 .40952555 .024088541 .41429139 .028320313 .41810609 .032552083 .42192079 .03955078 .42382813 .049316408 .42382813H.14550781M.50097659 .22485352C.50097659 .27225749 .48380534 .31287638 .4494629 .3467102 .41512046 .38054405 .37320964 .39746095 .32373048 .39746095 .27392579 .39746095 .23177083 .38046266 .19726563 .34646607 .16276042 .31246949 .14550781 .27193199 .14550781 .22485352 .14550781 .17744954 .16276042 .13674927 .19726563 .102752689 .23177083 .0687561 .27392579 .051757814 .32373048 .051757814 .37288413 .051757814 .41471354 .06867472 .44921876 .102508548 .48372398 .13634236 .50097659 .17712403 .50097659 .22485352Z"/>
<path id="font_2_8" d="M.43798829 .34892274V.42382813H.5341797C.5439453 .42382813 .55094406 .42192079 .5551758 .41810609 .55940756 .41429139 .56152346 .4093628 .56152346 .4033203 .56152346 .39746095 .55940756 .39257813 .5551758 .38867188 .55094406 .38476563 .5439453 .3828125 .5341797 .3828125H.4790039V-.027908326C.4790039-.055323285 .47314454-.07979838 .46142579-.10133362 .45361329-.11569723 .44059245-.13054912 .42236329-.14588928 .40413413-.16122945 .38753257-.17215984 .3725586-.17868042 .35758464-.18521118 .3375651-.18847656 .3125-.18847656H.19628906C.18652344-.18847656 .17952474-.18662517 .17529297-.18292237 .1710612-.17922974 .16894531-.17432659 .16894531-.16821289 .16894531-.1620992 .1710612-.15710958 .17529297-.15324402 .17952474-.14938863 .18652344-.14746094 .19628906-.14746094H.31396485C.33805339-.14746094 .3597819-.14127095 .3791504-.12889099 .3985189-.116511028 .41455079-.09842936 .4272461-.074645999 .43440757-.060963949 .43798829-.043533327 .43798829-.022354126V.10079956C.39404298 .04076131 .33740235 .0107421879 .2680664 .0107421879 .2117513 .0107421879 .16316732 .031677247 .12231445 .07354736 .081461589 .11542765 .061035158 .16586304 .061035158 .22485352 .061035158 .283844 .081461589 .3341929 .12231445 .37590028 .16316732 .4176178 .2117513 .43847657 .2680664 .43847657 .33740235 .43847657 .39404298 .40862528 .43798829 .34892274M.43798829 .22485352C.43798829 .27323405 .4214681 .31409709 .38842774 .34744264 .35538737 .38078819 .31591798 .39746095 .27001954 .39746095 .2241211 .39746095 .18473308 .3807068 .15185547 .3471985 .11897787 .3136902 .10253906 .27290855 .10253906 .22485352 .10253906 .17647298 .11897787 .13552857 .15185547 .10202026 .18473308 .06851196 .2241211 .051757814 .27001954 .051757814 .31591798 .051757814 .35538737 .06851196 .38842774 .10202026 .4214681 .13552857 .43798829 .17647298 .43798829 .22485352Z"/>
<path id="font_2_5" d="M.50097659 .61328127V.041015626H.55566409C.5657552 .041015626 .5729167 .03914388 .57714846 .03540039 .5813802 .031656904 .5834961 .026692709 .5834961 .020507813 .5834961 .014923096 .5813802 .010269165 .57714846 .0065460207 .5729167 .0028330486 .5657552 .0009765625 .55566409 .0009765625H.45947267V.08218384C.41194663 .016977946 .3515625-.015625 .2783203-.015625 .24121094-.015625 .20564778-.0057678224 .17163086 .013946533 .13761394 .03366089 .11075846 .061767579 .09106445 .0982666 .071370448 .13476563 .061523439 .17240398 .061523439 .21118164 .061523439 .25028483 .071370448 .28800456 .09106445 .32434083 .11075846 .3606771 .13761394 .38878379 .17163086 .4086609 .20564778 .428538 .2413737 .43847657 .2788086 .43847657 .3504232 .43847657 .41064454 .40603639 .45947267 .341156V.5722656H.40478517C.394694 .5722656 .38753257 .574173 .38330079 .5779877 .379069 .58180239 .37695313 .58673098 .37695313 .59277346 .37695313 .5986328 .379069 .6035156 .38330079 .6074219 .38753257 .6113281 .394694 .61328127 .40478517 .61328127H.50097659M.45947267 .21142578C.45947267 .26364137 .44189454 .30769859 .40673829 .3435974 .37158204 .37950645 .3297526 .39746095 .28125 .39746095 .23242188 .39746095 .19042969 .37950645 .15527344 .3435974 .12011719 .30769859 .10253906 .26364137 .10253906 .21142578 .10253906 .15953572 .12011719 .11555481 .15527344 .07948303 .19042969 .04342143 .23242188 .025390625 .28125 .025390625 .3297526 .025390625 .37158204 .04342143 .40673829 .07948303 .44189454 .11555481 .45947267 .15953572 .45947267 .21142578Z"/>
<path id="font_2_13" d="M.5292969 .21118164C.5292969 .14861043 .5069173 .09516398 .4621582 .050842287 .41739909 .0065307619 .363444-.015625 .30029298-.015625 .23649089-.015625 .18229167 .006612142 .13769531 .051086427 .09309896 .095570888 .07080078 .14893596 .07080078 .21118164 .07080078 .27375285 .09309896 .3272756 .13769531 .37174989 .18229167 .41623435 .23649089 .43847657 .30029298 .43847657 .363444 .43847657 .41739909 .4163157 .4621582 .37199403 .5069173 .3276825 .5292969 .27407838 .5292969 .21118164M.48779298 .21142578C.48779298 .26299034 .46948243 .30688478 .43286134 .34310914 .39624024 .37934367 .35188804 .39746095 .2998047 .39746095 .24772136 .39746095 .20336914 .3792623 .16674805 .342865 .13012696 .30647788 .111816409 .2626648 .111816409 .21142578 .111816409 .16051229 .13012696 .11677551 .16674805 .080215457 .20336914 .04366557 .24772136 .025390625 .2998047 .025390625 .35188804 .025390625 .39624024 .043584188 .43286134 .07997131 .46948243 .116368617 .48779298 .16018677 .48779298 .21142578Z"/>
<path id="font_3_3" d="M.37841798 .7373047C.46923829 .7373047 .53971359 .71332809 .58984377 .66537478 .63997396 .61742147 .66780599 .5629476 .67333987 .5019531H.5786133C.5678711 .54817709 .5464681 .58479818 .5144043 .6118164 .48234049 .63883468 .43733726 .65234377 .37939454 .65234377 .3087565 .65234377 .25170899 .62754318 .20825196 .5779419 .16479492 .52834066 .1430664 .45231629 .1430664 .34986878 .1430664 .26594544 .16267903 .19788106 .2019043 .14567566 .24112956 .09348043 .29964195 .06738281 .3774414 .06738281 .449056 .06738281 .50358077 .094823207 .5410156 .14970398 .5608724 .17860413 .5756836 .21659343 .5854492 .26367188H.6801758C.6717122 .18815105 .64371749 .12483724 .5961914 .07373047 .5392253 .012207031 .46240235-.018554688 .36572267-.018554688 .2823893-.018554688 .21240235 .006688436 .15576172 .057174684 .081217449 .12394714 .043945314 .2270406 .043945314 .36645509 .043945314 .47232057 .0719401 .5591278 .12792969 .62687686 .18847656 .7004954 .27197267 .7373047 .37841798 .7373047M.35888673 .7373047V.7373047Z"/>
<path id="font_3_16" d="M.27197267 .057617189C.33024089 .057617189 .37019859 .07964579 .3918457 .123703 .41349284 .16776021 .4243164 .21677144 .4243164 .2707367 .4243164 .31950379 .4165039 .35917155 .4008789 .38974 .3761393 .43785606 .3334961 .46191407 .27294923 .46191407 .21923828 .46191407 .18017578 .44143168 .15576172 .40046693 .13134766 .35950218 .119140628 .31008403 .119140628 .25221253 .119140628 .1966095 .13134766 .15027364 .15576172 .113204959 .18017578 .076146449 .21891277 .057617189 .27197267 .057617189M.27539063 .53808596C.34277345 .53808596 .3997396 .5156453 .44628907 .47076417 .49283854 .42588298 .5161133 .35985819 .5161133 .27268983 .5161133 .1884613 .49560548 .11886088 .45458985 .06388855 .41357423 .008926392 .3499349-.018554688 .26367188-.018554688 .19173177-.018554688 .13460286 .00575765 .092285159 .054382326 .04996745 .103006999 .028808594 .16829936 .028808594 .2502594 .028808594 .33806864 .05110677 .4079895 .095703128 .46002198 .14029949 .51206466 .20019531 .53808596 .27539063 .53808596M.27246095 .5361328V.5361328Z"/>
<path id="font_3_10" d="M.12011719 .2553711C.12011719 .19923909 .1319987 .15224712 .15576172 .11439514 .17952474 .076543178 .21761067 .057617189 .27001954 .057617189 .31070964 .057617189 .3441569 .075154628 .37036134 .11022949 .39656578 .14531453 .40966798 .19565328 .40966798 .26124574 .40966798 .32748924 .39615885 .37651573 .36914063 .4083252 .3421224 .44014488 .3087565 .4560547 .26904298 .4560547 .22477214 .4560547 .18888347 .4390869 .16137696 .40515138 .13387044 .37121583 .12011719 .32128907 .12011719 .2553711M.2524414 .53222659C.29248048 .53222659 .32600913 .52381899 .35302735 .5070038 .36865235 .4972992 .38639323 .48031617 .40625 .4560547V.71875H.49072267V0H.4116211V.07229614C.39111329 .04023234 .36686198 .017074585 .3388672 .002822876 .3108724-.011428833 .2788086-.018554688 .24267578-.018554688 .18440755-.018554688 .13395183 .0059407555 .091308597 .05493164 .048665365 .10392252 .02734375 .16910808 .02734375 .25048829 .02734375 .32666017 .04679362 .39265953 .08569336 .44848634 .1245931 .5043132 .18017578 .53222659 .2524414 .53222659Z"/>
<path id="font_3_11" d="M.28222657 .53515627C.31933595 .53515627 .355306 .52644857 .39013673 .5090332 .42496745 .49161784 .4514974 .4690806 .46972657 .4414215 .4873047 .41505433 .49902345 .3842977 .5048828 .3491516 .5100911 .32506309 .5126953 .28647868 .5126953 .23339844H.12939453C.13102214 .18033855 .14355469 .13777669 .16699219 .10571289 .19042969 .073649089 .22672527 .057617189 .2758789 .057617189 .32177735 .057617189 .35839845 .07261658 .3857422 .10261536 .4013672 .12003072 .4124349 .14018758 .4189453 .16308594H.5053711C.50309249 .14398194 .49552409 .122690837 .48266603 .09921265 .46980796 .07574463 .45540367 .05656433 .43945313 .041671754 .4127604 .01576233 .37972007-.0017242432 .34033204-.010787964 .3191732-.01596578 .2952474-.018554688 .2685547-.018554688 .20345052-.018554688 .14827474 .0051472985 .103027347 .05255127 .05777995 .09995524 .03515625 .16634114 .03515625 .25170899 .03515625 .33576457 .057942708 .40401713 .103515628 .45646668 .14908855 .5089264 .20865886 .53515627 .28222657 .53515627M.42236329 .30371095C.41878257 .34191896 .41048179 .37245179 .39746095 .39530946 .3733724 .4377594 .33317057 .45898438 .27685548 .45898438 .23649089 .45898438 .20263672 .44437156 .17529297 .41514588 .14794922 .3859202 .13346355 .34877525 .13183594 .30371095H.42236329M.27392579 .5361328V.5361328Z"/>
<path id="font_4_1" d="M0 0Z"/>
<path id="font_3_4" d="M.3515625 .08300781C.3844401 .08300781 .41145835 .08642578 .4326172 .09326172 .4703776 .10595703 .50130209 .1303711 .5253906 .1665039 .5445964 .19547527 .55843099 .23258464 .56689456 .27783204 .57177737 .30485026 .57421877 .32991538 .57421877 .35302735 .57421877 .44189454 .55655929 .51090499 .52124026 .5600586 .48592124 .6092122 .42903648 .63378909 .35058595 .63378909H.17822266V.08300781H.3515625M.080566409 .71777346H.37109376C.46972657 .71777346 .54622396 .6827545 .60058596 .6127167 .64908859 .54952499 .67333987 .46857707 .67333987 .36987306 .67333987 .2936503 .6590169 .22475688 .6303711 .16319275 .57991537 .054397584 .49316407 0 .3701172 0H.080566409V.71777346Z"/>
<path id="font_3_7" d="M.13183594 .1394043C.13183594 .114095058 .14111328 .09413656 .15966797 .07952881 .17822266 .06492106 .20019531 .057617189 .22558594 .057617189 .2565104 .057617189 .28645835 .06471761 .3154297 .07891846 .3642578 .10247803 .38867188 .14127605 .38867188 .1953125V.26611329C.3779297 .25886027 .36409507 .2528127 .34716798 .24797058 .33024089 .24313863 .3136393 .23983257 .29736329 .23805237L.24414063 .23184204C.21223958 .22799683 .1883138 .22153218 .17236328 .21244812 .14534505 .19718933 .13183594 .17284139 .13183594 .1394043M.34472657 .31689454C.36490885 .3194987 .37841798 .32796226 .3852539 .34228517 .38916017 .35012818 .39111329 .36140443 .39111329 .3761139 .39111329 .40618388 .38045249 .42799888 .35913087 .44155885 .33780924 .455129 .30729167 .46191407 .26757813 .46191407 .22167969 .46191407 .18912761 .44948326 .16992188 .42462159 .15917969 .4108785 .15218099 .39043174 .14892578 .36328126H.06689453C.06852213 .42791749 .08943685 .47288514 .12963867 .4981842 .1698405 .5234833 .21647136 .5361328 .26953126 .5361328 .3310547 .5361328 .38102214 .52441409 .4194336 .50097659 .45751954 .47753907 .4765625 .4410502 .4765625 .39151V.08985901C.4765625 .08073425 .47843424 .073404949 .48217774 .067871097 .48592124 .06233724 .4938151 .059570314 .5058594 .059570314 .5097656 .059570314 .51416018 .059814454 .51904299 .060302736 .5239258 .060791017 .5291341 .061523439 .53466799 .0625V-.0028076173C.5209961-.00676473 .5105794-.009236653 .50341799-.010223389 .4962565-.011220296 .48649089-.01171875 .4741211-.01171875 .44384767-.01171875 .421875-.0009104411 .40820313 .020706177 .40104167 .032170614 .3959961 .048380536 .3930664 .06933594 .37516276 .045633954 .34944663 .025060019 .31591798 .0076141359 .2823893-.009831746 .2454427-.018554688 .20507813-.018554688 .15657552-.018554688 .11694336-.0037790936 .08618164 .025772095 .055419923 .055323285 .040039064 .092300418 .040039064 .13670349 .040039064 .18535869 .05517578 .22307332 .08544922 .24984741 .115722659 .2766215 .1554362 .29311119 .20458985 .2993164L.34472657 .31689454M.27197267 .5361328V.5361328Z"/>
<path id="font_3_19" d="M.08203125 .66796877H.17089844V.5234375H.25439454V.4501953H.17089844V.110183719C.17089844 .09202576 .17708333 .07986959 .18945313 .07371521 .19628906 .07014465 .2076823 .068359378 .22363281 .068359378 .22786458 .068359378 .23242188 .06846619 .23730469 .06867981 .2421875 .0689036 .24788411 .06944784 .25439454 .0703125V0C.24430339-.0031026204 .23380535-.005340576 .22290039-.006713867 .21199544-.008097331 .20019531-.0087890629 .1875-.0087890629 .14648438-.0087890629 .118652347 .0016988119 .104003909 .02267456 .08935547 .04365031 .08203125 .070882167 .08203125 .10437012V.4501953H.011230469V.5234375H.08203125V.66796877Z"/>
<path id="font_3_6" d="M.13964844 .23144531C.14192708 .19064331 .15152996 .1575063 .16845703 .1320343 .2006836 .084376018 .25748698 .060546876 .3388672 .060546876 .37532554 .060546876 .40852867 .06575521 .43847657 .076171878 .49641929 .096354167 .5253906 .13248189 .5253906 .18455506 .5253906 .22361756 .5131836 .25144959 .48876954 .26805116 .46402995 .2843882 .42529298 .29859925 .3725586 .3106842L.27539063 .3327484C.21191406 .3471222 .16699219 .36294047 .140625 .38020326 .095052089 .41016136 .072265628 .4549408 .072265628 .5145416 .072265628 .57902529 .094563808 .6319478 .13916016 .6733093 .18375652 .71467086 .24690755 .73535159 .32861329 .73535159 .4038086 .73535159 .46769206 .7172038 .5202637 .6809082 .57283529 .6446126 .5991211 .58658859 .5991211 .50683596H.5078125C.5029297 .5452474 .49251304 .57470706 .4765625 .59521487 .4469401 .6326497 .39664714 .6513672 .3256836 .6513672 .26839195 .6513672 .22721355 .63931277 .20214844 .61520388 .17708333 .591095 .16455078 .56307479 .16455078 .5311432 .16455078 .49595643 .17919922 .47021995 .2084961 .45393373 .22770183 .44350688 .27115885 .43047587 .3388672 .4148407L.43945313 .39187623C.48795573 .38079835 .5253906 .36565147 .5517578 .34643556 .59733077 .31288658 .6201172 .26419068 .6201172 .2003479 .6201172 .12085978 .59122726 .06401571 .53344729 .029815674 .47566734-.004384359 .40852867-.021484375 .33203126-.021484375 .24283855-.021484375 .17301433 .0013478597 .122558597 .04701233 .07210287 .0923411 .04736328 .15381877 .048339845 .23144531H.13964844M.3359375 .7373047V.7373047Z"/>
<path id="font_3_12" d="M.064453128 .71875H.15234375V.45214845C.17317708 .4786682 .19189453 .4973297 .2084961 .50813296 .2368164 .5267995 .2721354 .5361328 .31445313 .5361328 .39029948 .5361328 .44173179 .50957748 .46875 .45646668 .48339845 .42747499 .49072267 .38723756 .49072267 .3357544V0H.40039063V.32958985C.40039063 .3680013 .3955078 .39615885 .3857422 .4140625 .36979167 .44270835 .33984376 .45703126 .29589845 .45703126 .2594401 .45703126 .22639974 .4444987 .19677735 .4194336 .16715496 .3943685 .15234375 .34700523 .15234375 .27734376V0H.064453128V.71875Z"/>
<path id="font_3_17" d="M.06689453 .5234375H.15039063V.4326172C.15722656 .4502767 .17399089 .4717814 .2006836 .49713136 .2273763 .52248129 .25813804 .53515627 .29296876 .53515627 .29459635 .53515627 .29736329 .5349579 .30126954 .53456118 .30517579 .5341746 .31184898 .5333964 .32128907 .53222659V.43945313C.31608073 .44062297 .3112793 .44140116 .30688478 .44178773 .30249024 .44218446 .2976888 .4423828 .29248048 .4423828 .24820964 .4423828 .2141927 .4280599 .19042969 .39941407 .16666667 .37076823 .15478516 .33789063 .15478516 .30078126V0H.06689453V.5234375Z"/>
<path id="font_3_1" d="M0 0Z"/>
<path id="font_3_14" d="M.06689453 .71777346H.15478516V0H.06689453V.71777346Z"/>
<path id="font_3_13" d="M.064453128 .5205078H.1538086V0H.064453128V.5205078M.064453128 .71777346H.1538086V.61816409H.064453128V.71777346Z"/>
<path id="font_3_8" d="M.057617189 .71875H.1430664V.45948792C.16227214 .4847056 .18522136 .50394698 .21191406 .5172119 .23860677 .53047689 .26757813 .5371094 .29882813 .5371094 .36393229 .5371094 .41674806 .5147095 .4572754 .46990968 .49780274 .42510987 .5180664 .35905458 .5180664 .27174378 .5180664 .1889801 .49804688 .12022909 .4580078 .06549072 .41796876 .010762532 .36246745-.016601563 .2915039-.016601563 .25179038-.016601563 .21826172-.006942749 .19091797 .012374878 .17464192 .023839316 .15722656 .042175294 .13867188 .06738281V0H.057617189V.71875M.2861328 .061523439C.33365885 .061523439 .36922203 .08037821 .39282228 .11808777 .41642253 .1558075 .42822267 .20555115 .42822267 .26731874 .42822267 .32227073 .41642253 .3677877 .39282228 .40386964 .36922203 .43996177 .33447267 .4580078 .28857423 .4580078 .24853516 .4580078 .21346028 .44321189 .18334961 .41362 .15323894 .3840383 .1381836 .3352712 .1381836 .26731874 .1381836 .21822612 .14436849 .17840068 .15673828 .1478424 .17985027 .090296428 .22298177 .061523439 .2861328 .061523439Z"/>
<path id="font_3_18" d="M.11669922 .1640625C.11930338 .13463338 .12662761 .11207072 .13867188 .09637451 .1608073 .06793213 .19921875 .053710939 .25390626 .053710939 .28645835 .053710939 .31510417 .060806276 .33984376 .07499695 .36458335 .08919779 .37695313 .11115011 .37695313 .14085388 .37695313 .16337586 .36702476 .18051148 .34716798 .19226074 .33447267 .19944255 .30940757 .20775859 .27197267 .21720886L.20214844 .2348175C.15755208 .24590557 .12467448 .25829569 .103515628 .27198792 .06575521 .29579164 .046875 .32873027 .046875 .37080384 .046875 .42036439 .064697269 .46046958 .1003418 .49111939 .13598633 .52177938 .18391927 .5371094 .24414063 .5371094 .32291667 .5371094 .37972007 .5139974 .41455079 .46777345 .4363607 .43847657 .4469401 .40690104 .44628907 .37304688H.36328126C.36165367 .39269004 .35465495 .41055808 .34228517 .426651 .32210288 .44950868 .28710938 .4609375 .23730469 .4609375 .20410156 .4609375 .17895508 .45461528 .16186524 .44197084 .14477539 .42933656 .13623047 .41264854 .13623047 .39190675 .13623047 .36922203 .14746094 .35107423 .16992188 .33746339 .1829427 .32936607 .20214844 .32221986 .22753906 .31602479L.28564454 .3018341C.34879557 .28650413 .39111329 .27166749 .41259767 .25732423 .44677735 .23482259 .4638672 .19944255 .4638672 .15118408 .4638672 .10455322 .44620768 .06428019 .41088868 .03036499 .37556968-.0035502117 .32177735-.020507813 .24951172-.020507813 .17171224-.020507813 .116617839-.002802531 .084228519 .032608034 .05183919 .06801859 .034505208 .111836757 .032226564 .1640625H.11669922M.24658203 .5361328V.5361328Z"/>
<path id="font_3_2" d="M.2705078 .7001953C.3610026 .7001953 .42643229 .66289779 .46679688 .5883026 .49804688 .5306447 .5136719 .45165 .5136719 .35131837 .5136719 .25620524 .49951173 .17754109 .4711914 .11532593 .43017579 .026072184 .3631185-.018554688 .27001954-.018554688 .18603516-.018554688 .123535159 .017929078 .08251953 .09089661 .048339845 .15180969 .03125 .23357137 .03125 .33618165 .03125 .41565959 .041503908 .48390199 .06201172 .5409088 .10042318 .6470998 .16992188 .7001953 .2705078 .7001953M.26953126 .061523439C.31510417 .061523439 .35139976 .08168539 .37841798 .12200928 .4054362 .16234334 .4189453 .23747762 .4189453 .3474121 .4189453 .42676798 .4091797 .49205528 .38964845 .5432739 .3701172 .59450277 .332194 .6201172 .2758789 .6201172 .2241211 .6201172 .1862793 .59580489 .16235352 .5471802 .13842774 .4985555 .12646485 .42692057 .12646485 .3322754 .12646485 .26105754 .13411458 .20381673 .14941406 .16055298 .17285156 .09453329 .21289063 .061523439 .26953126 .061523439Z"/>
<path id="font_2_7" d="M.27294923 .3828125V.041015626H.453125C.46289063 .041015626 .4698893 .03914388 .4741211 .03540039 .47835288 .031656904 .48046876 .026692709 .48046876 .020507813 .48046876 .0146484379 .47835288 .009765625 .4741211 .005859375 .4698893 .001953125 .46289063 0 .453125 0H.13232422C.122558597 0 .1155599 .001953125 .111328128 .005859375 .10709635 .009765625 .10498047 .0146484379 .10498047 .020507813 .10498047 .026692709 .10709635 .031656904 .111328128 .03540039 .1155599 .03914388 .122558597 .041015626 .13232422 .041015626H.23144531V.3828125H.14257813C.1328125 .3828125 .1258138 .3847402 .12158203 .38859559 .11735026 .39246116 .115234378 .39745078 .115234378 .40356446 .115234378 .40935264 .11735026 .4141744 .12158203 .4180298 .1258138 .42189536 .1328125 .42382813 .14257813 .42382813H.23144531V.48568727C.23144531 .5201009 .2454427 .54996749 .2734375 .57528689 .30143229 .60061648 .33854167 .61328127 .38476563 .61328127 .4235026 .61328127 .46484376 .609731 .50878909 .6026306 .5253906 .60005697 .5354004 .59699508 .53881838 .5934448 .5422363 .5898946 .5439453 .5852153 .5439453 .57940676 .5439453 .5735982 .5419922 .56883749 .53808596 .5651245 .5341797 .5614217 .5289714 .5595703 .52246096 .5595703 .51985678 .5595703 .5154622 .5600586 .50927737 .56103518 .4601237 .56852218 .41861979 .5722656 .38476563 .5722656 .34895835 .5722656 .32137046 .56347659 .30200196 .54589846 .28263346 .5283203 .27294923 .5083008 .27294923 .48583985V.42382813H.46484376C.47460938 .42382813 .48160807 .42189536 .48583985 .4180298 .49007163 .4141744 .4921875 .40918986 .4921875 .40307618 .4921875 .397288 .49007163 .39246116 .48583985 .38859559 .48160807 .3847402 .47460938 .3828125 .46484376 .3828125H.27294923Z"/>
<path id="font_2_10" d="M.32080079 .61328127V.041015626H.4819336C.49202476 .041015626 .4991862 .03914388 .50341799 .03540039 .5076497 .031656904 .5097656 .026692709 .5097656 .020507813 .5097656 .0146484379 .5076497 .009765625 .50341799 .005859375 .4991862 .001953125 .49202476 0 .4819336 0H.118652347C.10888672 0 .10188802 .001953125 .09765625 .005859375 .09342448 .009765625 .091308597 .0146484379 .091308597 .020507813 .091308597 .026692709 .09342448 .031656904 .09765625 .03540039 .10188802 .03914388 .10888672 .041015626 .118652347 .041015626H.27978517V.5722656H.1616211C.15185547 .5722656 .14477539 .5741933 .14038086 .5780487 .13598633 .58191427 .13378906 .58690389 .13378906 .5930176 .13378906 .5988057 .13590496 .6036275 .14013672 .6074829 .14436849 .61134847 .15152996 .61328127 .1616211 .61328127H.32080079Z"/>
<path id="font_3_5" d="M.08544922 .71777346H.40820313C.47200523 .71777346 .5234375 .6997884 .5625 .66381838 .6015625 .6278483 .62109377 .5773112 .62109377 .51220706 .62109377 .45621745 .6036784 .4074707 .56884768 .3659668 .5340169 .3244629 .48046876 .30371095 .40820313 .30371095H.18261719V0H.08544922V.71777346M.5229492 .5114746C.5229492 .56410726 .50341799 .5998433 .46435548 .61868289 .4428711 .62875369 .41341148 .63378909 .37597657 .63378909H.18261719V.3857422H.37597657C.41959635 .3857422 .45499674 .39499919 .48217774 .41351319 .5093587 .43203736 .5229492 .46469117 .5229492 .5114746Z"/>
<path id="font_3_9" d="M.26611329 .53808596C.32503257 .53808596 .37296549 .5237274 .4099121 .49501039 .44685874 .46629334 .46907554 .41684977 .4765625 .3466797H.39111329C.38590495 .37890626 .37402345 .40568034 .35546876 .42700196 .33691407 .44832359 .3071289 .45898438 .26611329 .45898438 .2101237 .45898438 .17008464 .43170677 .1459961 .3771515 .1303711 .34176127 .122558597 .29808555 .122558597 .24612427 .122558597 .19384766 .1336263 .14984639 .15576172 .11412048 .17789714 .07840475 .21272786 .060546876 .2602539 .060546876 .29671226 .060546876 .3256022 .0716095 .34692384 .09373474 .36824546 .115859989 .38297526 .1461385 .39111329 .18457031H.4765625C.46679688 .115234378 .4423828 .06453451 .4033203 .032470704 .3642578 .00040690104 .31429038-.015625 .25341798-.015625 .1850586-.015625 .13053386 .009379069 .08984375 .059387208 .049153646 .10940552 .028808594 .17188008 .028808594 .24681092 .028808594 .33868919 .05110677 .41020204 .095703128 .4613495 .14029949 .51250717 .19710286 .53808596 .26611329 .53808596M.2524414 .5361328V.5361328Z"/>
<path id="font_3_21" d="M.107421878 .5234375 .24707031 .09725952 .3930664 .5234375H.4892578L.2919922 0H.19824219L.0053710939 .5234375H.107421878Z"/>
<path id="font_3_20" d="M.15234375 .5234375V.17590332C.15234375 .1491801 .15657552 .12734477 .16503906 .11039734 .18066406 .07911682 .20979817 .06347656 .2524414 .06347656 .3136393 .06347656 .355306 .09085083 .3774414 .14559937 .3894857 .17492676 .3955078 .21516927 .3955078 .2663269V.5234375H.48339845V0H.40039063L.4013672 .0771637C.38997398 .057195028 .3758138 .040339155 .35888673 .02659607 .32535807-.00090026858 .28466798-.0146484379 .2368164-.0146484379 .16227214-.0146484379 .11149088 .010299683 .084472659 .060195924 .06982422 .08693949 .0625 .12265015 .0625 .16732788V.5234375H.15234375M.27294923 .5361328V.5361328Z"/>
<path id="font_3_15" d="M.064453128 .5234375H.15136719V.44921876C.17220052 .4749349 .19108074 .49365235 .20800781 .5053711 .23697917 .52522787 .26985679 .53515627 .30664063 .53515627 .34830729 .53515627 .38183595 .52490237 .40722657 .50439456 .42154948 .49267579 .4345703 .4754232 .44628907 .45263673 .4658203 .4806315 .48876954 .5013835 .5151367 .5148926 .5415039 .5284017 .5711263 .53515627 .6040039 .53515627 .6743164 .53515627 .72216799 .5097402 .7475586 .45890809 .76123049 .43154399 .7680664 .3947296 .7680664 .34846498V0H.6767578V.36367799C.6767578 .39853923 .6680501 .42248536 .65063479 .43551637 .6332194 .44855754 .6119792 .45507813 .58691409 .45507813 .5524089 .45507813 .5227051 .44350688 .49780274 .42036439 .4729004 .39723207 .46044923 .35861717 .46044923 .30451966V0H.37109376V.3416748C.37109376 .37719728 .36686198 .4031016 .35839845 .41938783 .3450521 .4438324 .32014976 .4560547 .2836914 .4560547 .25048829 .4560547 .22029622 .44318138 .19311524 .4174347 .16593425 .3916982 .15234375 .34510295 .15234375 .27764894V0H.064453128V.5234375Z"/>
<path id="font_3_22" d="M.39111329 .5234375H.48828126C.47591148 .48987834 .44840495 .41330973 .40576173 .2937317 .3738607 .20380657 .34716798 .13049825 .3256836 .07380676 .27490235-.059921266 .23909505-.14145915 .21826172-.17080689 .19742839-.2001648 .1616211-.21484375 .110839847-.21484375 .098470058-.21484375 .08894857-.21435039 .08227539-.21336365 .07560221-.21238709 .06738281-.21058655 .057617189-.20796204V-.1274414C.072916667-.13167317 .083984378-.13427735 .09082031-.1352539 .09765625-.13623047 .10367838-.13671875 .10888672-.13671875 .12516277-.13671875 .13712566-.1340332 .14477539-.12866211 .15242513-.123291019 .15885417-.11669922 .1640625-.10888672 .16569011-.106282558 .17154949-.092936199 .18164063-.068847659 .19173177-.044759115 .19905599-.026855469 .20361328-.015136719L.010253906 .5234375H.10986328L.25 .09727478 .39111329 .5234375M.24951172 .5361328V.5361328Z"/>
</defs>
<g clip-path="url(#clip_0)">
<g clip-path="url(#clip_1)">
<path transform="matrix(1,0,0,-1,0,540)" d="M0 539.9999H719.9999V.00003079383H0Z" fill="#ffffff" fill-rule="evenodd"/>
<path transform="matrix(1,0,0,-1,0,540)" d="M288 270H372V252H288Z" fill="#cbcbcb" fill-rule="evenodd"/>
<path transform="matrix(.00007874014,0,0,.00007874014,288,270)" stroke-width="9525" stroke-linecap="butt" stroke-miterlimit="8" stroke-linejoin="miter" fill="none" stroke="#000000" d="M-.0750733 .1102296H1066800V228600.1H-.0750733Z"/>
<use data-text="v" xlink:href="#font_2_19" transform="matrix(14,0,0,-14,300.1249,283.89997)"/>
<use data-text="m" xlink:href="#font_2_11" transform="matrix(14,0,0,-14,308.5263,283.89997)"/>
<use data-text="_" xlink:href="#font_2_2" transform="matrix(14,0,0,-14,316.9277,283.89997)"/>
<use data-text="n" xlink:href="#font_2_12" transform="matrix(14,0,0,-14,325.3291,283.89997)"/>
<use data-text="e" xlink:href="#font_2_6" transform="matrix(14,0,0,-14,333.7305,283.89997)"/>
<use data-text="x" xlink:href="#font_2_20" transform="matrix(14,0,0,-14,342.1319,283.89997)"/>
<use data-text="t" xlink:href="#font_2_17" transform="matrix(14,0,0,-14,350.53334,283.89997)"/>
<use data-text=" " xlink:href="#font_2_1" transform="matrix(14,0,0,-14,358.93473,283.89997)"/>
<path transform="matrix(1,0,0,-1,0,540)" d="M288 414H372V396H288Z" fill="#cbcbcb" fill-rule="evenodd"/>
<path transform="matrix(.00007874014,0,0,.00007874014,288,126)" stroke-width="9525" stroke-linecap="butt" stroke-miterlimit="8" stroke-linejoin="miter" fill="none" stroke="#000000" d="M-.0750733 .07897955H1066800V228600.1H-.0750733Z"/>
<use data-text="v" xlink:href="#font_2_19" transform="matrix(14,0,0,-14,300.1249,139.89998)"/>
<use data-text="m" xlink:href="#font_2_11" transform="matrix(14,0,0,-14,308.5263,139.89998)"/>
<use data-text="_" xlink:href="#font_2_2" transform="matrix(14,0,0,-14,316.9277,139.89998)"/>
<use data-text="n" xlink:href="#font_2_12" transform="matrix(14,0,0,-14,325.3291,139.89998)"/>
<use data-text="e" xlink:href="#font_2_6" transform="matrix(14,0,0,-14,333.7305,139.89998)"/>
<use data-text="x" xlink:href="#font_2_20" transform="matrix(14,0,0,-14,342.1319,139.89998)"/>
<use data-text="t" xlink:href="#font_2_17" transform="matrix(14,0,0,-14,350.53334,139.89998)"/>
<use data-text=" " xlink:href="#font_2_1" transform="matrix(14,0,0,-14,358.93473,139.89998)"/>
<path transform="matrix(.00007874014,0,0,.00007874014,77.99998,66.00009)" stroke-width="9525" stroke-linecap="butt" stroke-linejoin="round" fill="none" stroke="#000000" d="M-.0414429-.1506346H736600.1"/>
<path transform="matrix(1,0,0,-1,0,540)" d="M132 476.9999 138 473.9999 132 470.9999Z" fill-rule="evenodd"/>
<use data-text="t" xlink:href="#font_2_17" transform="matrix(16,0,0,-16,1.12496,36.650114)"/>
<use data-text="a" xlink:href="#font_2_3" transform="matrix(16,0,0,-16,10.726561,36.650114)"/>
<use data-text="s" xlink:href="#font_2_16" transform="matrix(16,0,0,-16,20.328162,36.650114)"/>
<use data-text="k" xlink:href="#font_2_9" transform="matrix(16,0,0,-16,29.929762,36.650114)"/>
<use data-text="_" xlink:href="#font_2_2" transform="matrix(16,0,0,-16,39.531366,36.650114)"/>
<use data-text="s" xlink:href="#font_2_16" transform="matrix(16,0,0,-16,49.132966,36.650114)"/>
<use data-text="t" xlink:href="#font_2_17" transform="matrix(16,0,0,-16,58.734567,36.650114)"/>
<use data-text="r" xlink:href="#font_2_15" transform="matrix(16,0,0,-16,68.33617,36.650114)"/>
<use data-text="u" xlink:href="#font_2_18" transform="matrix(16,0,0,-16,77.93777,36.650114)"/>
<use data-text="c" xlink:href="#font_2_4" transform="matrix(16,0,0,-16,87.53937,36.650114)"/>
<use data-text="t" xlink:href="#font_2_17" transform="matrix(16,0,0,-16,97.14097,36.650114)"/>
<use data-text=" " xlink:href="#font_2_1" transform="matrix(16,0,0,-16,106.74257,36.650114)"/>
<use data-text="m" xlink:href="#font_2_11" transform="matrix(16,0,0,-16,140.25,47.90008)"/>
<use data-text="m" xlink:href="#font_2_11" transform="matrix(16,0,0,-16,149.8516,47.90008)"/>
<use data-text="_" xlink:href="#font_2_2" transform="matrix(16,0,0,-16,159.4532,47.90008)"/>
<use data-text="s" xlink:href="#font_2_16" transform="matrix(16,0,0,-16,169.05481,47.90008)"/>
<use data-text="t" xlink:href="#font_2_17" transform="matrix(16,0,0,-16,178.6564,47.90008)"/>
<use data-text="r" xlink:href="#font_2_15" transform="matrix(16,0,0,-16,188.258,47.90008)"/>
<use data-text="u" xlink:href="#font_2_18" transform="matrix(16,0,0,-16,197.8596,47.90008)"/>
<use data-text="c" xlink:href="#font_2_4" transform="matrix(16,0,0,-16,207.46121,47.90008)"/>
<use data-text="t" xlink:href="#font_2_17" transform="matrix(16,0,0,-16,217.0628,47.90008)"/>
<use data-text=" " xlink:href="#font_2_1" transform="matrix(16,0,0,-16,226.6644,47.90008)"/>
<path transform="matrix(1,0,0,-1,0,540)" d="M144 477.9999H228V354H144Z" fill="#ffffff" fill-rule="evenodd"/>
<path transform="matrix(.00007874014,0,0,.00007874014,144,62.00009)" stroke-width="9525" stroke-linecap="butt" stroke-miterlimit="8" stroke-linejoin="miter" fill="none" stroke="#000000" d="M-.03753665 .3415529H1066800V1574800H-.03753665Z"/>
<path transform="matrix(1,0,0,-1,0,540)" d="M144 479.9999H228V461.9999H144Z" fill="#cbcbcb" fill-rule="evenodd"/>
<path transform="matrix(.00007874014,0,0,.00007874014,144,60.00009)" stroke-width="9525" stroke-linecap="butt" stroke-miterlimit="8" stroke-linejoin="miter" fill="none" stroke="#000000" d="M-.03753665 .3376466H1066800V228600.4H-.03753665Z"/>
<use data-text="p" xlink:href="#font_2_14" transform="matrix(14,0,0,-14,173.1249,73.89998)"/>
<use data-text="g" xlink:href="#font_2_8" transform="matrix(14,0,0,-14,181.52629,73.89998)"/>
<use data-text="d" xlink:href="#font_2_5" transform="matrix(14,0,0,-14,189.92769,73.89998)"/>
<use data-text=" " xlink:href="#font_2_1" transform="matrix(14,0,0,-14,198.3291,73.89998)"/>
<path transform="matrix(1,0,0,-1,0,540)" d="M24 495.9999H83.99998V354H24Z" fill="#ffffff" fill-rule="evenodd"/>
<path transform="matrix(.00007874014,0,0,.00007874014,24,44.00009)" stroke-width="9525" stroke-linecap="butt" stroke-miterlimit="8" stroke-linejoin="miter" fill="none" stroke="#000000" d="M-.008598331 .3063966H761999.9V1803400H-.008598331Z"/>
<path transform="matrix(1,0,0,-1,0,540)" d="M24 479.9999H83.99998V461.9999H24Z" fill="#cbcbcb" fill-rule="evenodd"/>
<path transform="matrix(.00007874014,0,0,.00007874014,24,60.00009)" stroke-width="9525" stroke-linecap="butt" stroke-miterlimit="8" stroke-linejoin="miter" fill="none" stroke="#000000" d="M-.008598331 .3376466H761999.9V228600.4H-.008598331Z"/>
<use data-text="m" xlink:href="#font_2_11" transform="matrix(14,0,0,-14,45.12495,73.89998)"/>
<use data-text="m" xlink:href="#font_2_11" transform="matrix(14,0,0,-14,53.526353,73.89998)"/>
<use data-text=" " xlink:href="#font_2_1" transform="matrix(14,0,0,-14,61.92775,73.89998)"/>
<path transform="matrix(1,0,0,-1,0,540)" d="M144 443.9999H228V425.9999H144Z" fill="#cbcbcb" fill-rule="evenodd"/>
<path transform="matrix(.00007874014,0,0,.00007874014,144,96.00009)" stroke-width="9525" stroke-linecap="butt" stroke-miterlimit="8" stroke-linejoin="miter" fill="none" stroke="#000000" d="M-.03753665-.0920409H1066800V228599.9H-.03753665Z"/>
<use data-text="m" xlink:href="#font_2_11" transform="matrix(14,0,0,-14,169.1249,109.89998)"/>
<use data-text="m" xlink:href="#font_2_11" transform="matrix(14,0,0,-14,177.52629,109.89998)"/>
<use data-text="a" xlink:href="#font_2_3" transform="matrix(14,0,0,-14,185.92769,109.89998)"/>
<use data-text="p" xlink:href="#font_2_14" transform="matrix(14,0,0,-14,194.3291,109.89998)"/>
<use data-text=" " xlink:href="#font_2_1" transform="matrix(14,0,0,-14,202.7305,109.89998)"/>
<use data-text="v" xlink:href="#font_2_19" transform="matrix(16,0,0,-16,260.1249,23.900113)"/>
<use data-text="m" xlink:href="#font_2_11" transform="matrix(16,0,0,-16,269.7265,23.900113)"/>
<use data-text="_" xlink:href="#font_2_2" transform="matrix(16,0,0,-16,279.32814,23.900113)"/>
<use data-text="a" xlink:href="#font_2_3" transform="matrix(16,0,0,-16,288.92973,23.900113)"/>
<use data-text="r" xlink:href="#font_2_15" transform="matrix(16,0,0,-16,298.5313,23.900113)"/>
<use data-text="e" xlink:href="#font_2_6" transform="matrix(16,0,0,-16,308.1329,23.900113)"/>
<use data-text="a" xlink:href="#font_2_3" transform="matrix(16,0,0,-16,317.7345,23.900113)"/>
<use data-text="_" xlink:href="#font_2_2" transform="matrix(16,0,0,-16,327.33613,23.900113)"/>
<use data-text="s" xlink:href="#font_2_16" transform="matrix(16,0,0,-16,336.9377,23.900113)"/>
<use data-text="t" xlink:href="#font_2_17" transform="matrix(16,0,0,-16,346.5393,23.900113)"/>
<use data-text="r" xlink:href="#font_2_15" transform="matrix(16,0,0,-16,356.14094,23.900113)"/>
<use data-text="u" xlink:href="#font_2_18" transform="matrix(16,0,0,-16,365.74253,23.900113)"/>
<use data-text="c" xlink:href="#font_2_4" transform="matrix(16,0,0,-16,375.34413,23.900113)"/>
<use data-text="t" xlink:href="#font_2_17" transform="matrix(16,0,0,-16,384.9457,23.900113)"/>
<use data-text=" " xlink:href="#font_2_1" transform="matrix(16,0,0,-16,394.5473,23.900113)"/>
<path transform="matrix(.00007874014,0,0,.00007874014,288,38.00009)" stroke-width="9525" stroke-linecap="butt" stroke-miterlimit="8" stroke-linejoin="miter" fill="none" stroke="#000000" d="M-.0750733 .2946779H1066800V1346200H-.0750733Z"/>
<path transform="matrix(1,0,0,-1,0,540)" d="M288 503.9999H372V485.9999H288Z" fill="#cbcbcb" fill-rule="evenodd"/>
<path transform="matrix(.00007874014,0,0,.00007874014,288,36.00009)" stroke-width="9525" stroke-linecap="butt" stroke-miterlimit="8" stroke-linejoin="miter" fill="none" stroke="#000000" d="M-.0750733 .2907716H1066800V228600.3H-.0750733Z"/>
<use data-text="v" xlink:href="#font_2_19" transform="matrix(14,0,0,-14,305.1249,49.89998)"/>
<use data-text="m" xlink:href="#font_2_11" transform="matrix(14,0,0,-14,313.5263,49.89998)"/>
<use data-text="_" xlink:href="#font_2_2" transform="matrix(14,0,0,-14,321.9277,49.89998)"/>
<use data-text="e" xlink:href="#font_2_6" transform="matrix(14,0,0,-14,330.3291,49.89998)"/>
<use data-text="n" xlink:href="#font_2_12" transform="matrix(14,0,0,-14,338.7305,49.89998)"/>
<use data-text="d" xlink:href="#font_2_5" transform="matrix(14,0,0,-14,347.1319,49.89998)"/>
<use data-text=" " xlink:href="#font_2_1" transform="matrix(14,0,0,-14,355.53334,49.89998)"/>
<path transform="matrix(1,0,0,-1,0,540)" d="M288 467.9999H372V449.9999H288Z" fill="#cbcbcb" fill-rule="evenodd"/>
<path transform="matrix(.00007874014,0,0,.00007874014,288,72.00009)" stroke-width="9525" stroke-linecap="butt" stroke-miterlimit="8" stroke-linejoin="miter" fill="none" stroke="#000000" d="M-.0750733-.1389159H1066800V228599.9H-.0750733Z"/>
<use data-text="v" xlink:href="#font_2_19" transform="matrix(14,0,0,-14,300.1249,85.89998)"/>
<use data-text="m" xlink:href="#font_2_11" transform="matrix(14,0,0,-14,308.5263,85.89998)"/>
<use data-text="_" xlink:href="#font_2_2" transform="matrix(14,0,0,-14,316.9277,85.89998)"/>
<use data-text="p" xlink:href="#font_2_14" transform="matrix(14,0,0,-14,325.3291,85.89998)"/>
<use data-text="r" xlink:href="#font_2_15" transform="matrix(14,0,0,-14,333.7305,85.89998)"/>
<use data-text="o" xlink:href="#font_2_13" transform="matrix(14,0,0,-14,342.1319,85.89998)"/>
<use data-text="t" xlink:href="#font_2_17" transform="matrix(14,0,0,-14,350.53334,85.89998)"/>
<use data-text=" " xlink:href="#font_2_1" transform="matrix(14,0,0,-14,358.93473,85.89998)"/>
<path transform="matrix(1,0,0,-1,0,540)" d="M288 485.9999H372V467.9999H288Z" fill="#cbcbcb" fill-rule="evenodd"/>
<path transform="matrix(.00007874014,0,0,.00007874014,288,54.00009)" stroke-width="9525" stroke-linecap="butt" stroke-miterlimit="8" stroke-linejoin="miter" fill="none" stroke="#000000" d="M-.0750733 .3259279H1066800V228600.4H-.0750733Z"/>
<use data-text="v" xlink:href="#font_2_19" transform="matrix(14,0,0,-14,296.1249,67.89998)"/>
<use data-text="m" xlink:href="#font_2_11" transform="matrix(14,0,0,-14,304.5263,67.89998)"/>
<use data-text="_" xlink:href="#font_2_2" transform="matrix(14,0,0,-14,312.9277,67.89998)"/>
<use data-text="s" xlink:href="#font_2_16" transform="matrix(14,0,0,-14,321.3291,67.89998)"/>
<use data-text="t" xlink:href="#font_2_17" transform="matrix(14,0,0,-14,329.7305,67.89998)"/>
<use data-text="a" xlink:href="#font_2_3" transform="matrix(14,0,0,-14,338.1319,67.89998)"/>
<use data-text="r" xlink:href="#font_2_15" transform="matrix(14,0,0,-14,346.53334,67.89998)"/>
<use data-text="t" xlink:href="#font_2_17" transform="matrix(14,0,0,-14,354.93473,67.89998)"/>
<use data-text=" " xlink:href="#font_2_1" transform="matrix(14,0,0,-14,363.33613,67.89998)"/>
<path transform="matrix(.00007874014,0,0,.00007874014,228,102)" stroke-width="9525" stroke-linecap="butt" stroke-linejoin="round" fill="none" stroke="#000000" d="M.0577392 .03210455 381000.1 1.194824"/>
<path transform="matrix(.00007874014,0,0,-.00007874014,258,102)" stroke-width="9525" stroke-linecap="butt" stroke-linejoin="round" fill="none" stroke="#000000" d="M-.1336671-.03210455 1.029053 762000.1"/>
<path transform="matrix(.00007874014,0,0,.00007874014,258,42.00009)" stroke-width="9525" stroke-linecap="butt" stroke-linejoin="round" fill="none" stroke="#000000" d="M-.1336671 .3024904H279399.9"/>
<path transform="matrix(1,0,0,-1,0,540)" d="M276 500.9999 282 497.9999 276 494.9999Z" fill-rule="evenodd"/>
<path transform="matrix(.00007874014,0,0,.00007874014,288,182)" stroke-width="9525" stroke-linecap="butt" stroke-miterlimit="8" stroke-linejoin="miter" fill="none" stroke="#000000" d="M-.0750733 .1883546H1066800V1346200H-.0750733Z"/>
<path transform="matrix(1,0,0,-1,0,540)" d="M288 360H372V342H288Z" fill="#cbcbcb" fill-rule="evenodd"/>
<path transform="matrix(.00007874014,0,0,.00007874014,288,180)" stroke-width="9525" stroke-linecap="butt" stroke-miterlimit="8" stroke-linejoin="miter" fill="none" stroke="#000000" d="M-.0750733 .1844483H1066800V228600.2H-.0750733Z"/>
<use data-text="v" xlink:href="#font_2_19" transform="matrix(14,0,0,-14,305.1249,193.89998)"/>
<use data-text="m" xlink:href="#font_2_11" transform="matrix(14,0,0,-14,313.5263,193.89998)"/>
<use data-text="_" xlink:href="#font_2_2" transform="matrix(14,0,0,-14,321.9277,193.89998)"/>
<use data-text="e" xlink:href="#font_2_6" transform="matrix(14,0,0,-14,330.3291,193.89998)"/>
<use data-text="n" xlink:href="#font_2_12" transform="matrix(14,0,0,-14,338.7305,193.89998)"/>
<use data-text="d" xlink:href="#font_2_5" transform="matrix(14,0,0,-14,347.1319,193.89998)"/>
<use data-text=" " xlink:href="#font_2_1" transform="matrix(14,0,0,-14,355.53334,193.89998)"/>
<path transform="matrix(1,0,0,-1,0,540)" d="M288 324H372V306H288Z" fill="#cbcbcb" fill-rule="evenodd"/>
<path transform="matrix(.00007874014,0,0,.00007874014,288,216)" stroke-width="9525" stroke-linecap="butt" stroke-miterlimit="8" stroke-linejoin="miter" fill="none" stroke="#000000" d="M-.0750733 .004760802H1066800V228600H-.0750733Z"/>
<use data-text="v" xlink:href="#font_2_19" transform="matrix(14,0,0,-14,300.1249,229.89998)"/>
<use data-text="m" xlink:href="#font_2_11" transform="matrix(14,0,0,-14,308.5263,229.89998)"/>
<use data-text="_" xlink:href="#font_2_2" transform="matrix(14,0,0,-14,316.9277,229.89998)"/>
<use data-text="p" xlink:href="#font_2_14" transform="matrix(14,0,0,-14,325.3291,229.89998)"/>
<use data-text="r" xlink:href="#font_2_15" transform="matrix(14,0,0,-14,333.7305,229.89998)"/>
<use data-text="o" xlink:href="#font_2_13" transform="matrix(14,0,0,-14,342.1319,229.89998)"/>
<use data-text="t" xlink:href="#font_2_17" transform="matrix(14,0,0,-14,350.53334,229.89998)"/>
<use data-text=" " xlink:href="#font_2_1" transform="matrix(14,0,0,-14,358.93473,229.89998)"/>
<path transform="matrix(1,0,0,-1,0,540)" d="M288 342H372V324H288Z" fill="#cbcbcb" fill-rule="evenodd"/>
<path transform="matrix(.00007874014,0,0,.00007874014,288,198)" stroke-width="9525" stroke-linecap="butt" stroke-miterlimit="8" stroke-linejoin="miter" fill="none" stroke="#000000" d="M-.0750733 .2196046H1066800V228600.2H-.0750733Z"/>
<use data-text="v" xlink:href="#font_2_19" transform="matrix(14,0,0,-14,296.1249,211.89998)"/>
<use data-text="m" xlink:href="#font_2_11" transform="matrix(14,0,0,-14,304.5263,211.89998)"/>
<use data-text="_" xlink:href="#font_2_2" transform="matrix(14,0,0,-14,312.9277,211.89998)"/>
<use data-text="s" xlink:href="#font_2_16" transform="matrix(14,0,0,-14,321.3291,211.89998)"/>
<use data-text="t" xlink:href="#font_2_17" transform="matrix(14,0,0,-14,329.7305,211.89998)"/>
<use data-text="a" xlink:href="#font_2_3" transform="matrix(14,0,0,-14,338.1319,211.89998)"/>
<use data-text="r" xlink:href="#font_2_15" transform="matrix(14,0,0,-14,346.53334,211.89998)"/>
<use data-text="t" xlink:href="#font_2_17" transform="matrix(14,0,0,-14,354.93473,211.89998)"/>
<use data-text=" " xlink:href="#font_2_1" transform="matrix(14,0,0,-14,363.33613,211.89998)"/>
<path transform="matrix(.00007874014,0,0,.00007874014,288,326)" stroke-width="9525" stroke-linecap="butt" stroke-miterlimit="8" stroke-linejoin="miter" fill="none" stroke="#000000" d="M-.0750733 .0258179H1066800V1117600H-.0750733Z"/>
<path transform="matrix(1,0,0,-1,0,540)" d="M288 216H372V198H288Z" fill="#cbcbcb" fill-rule="evenodd"/>
<path transform="matrix(.00007874014,0,0,.00007874014,288,324)" stroke-width="9525" stroke-linecap="butt" stroke-miterlimit="8" stroke-linejoin="miter" fill="none" stroke="#000000" d="M-.0750733 .02191165H1066800V228600.1H-.0750733Z"/>
<use data-text="v" xlink:href="#font_2_19" transform="matrix(14,0,0,-14,305.1249,337.89997)"/>
<use data-text="m" xlink:href="#font_2_11" transform="matrix(14,0,0,-14,313.5263,337.89997)"/>
<use data-text="_" xlink:href="#font_2_2" transform="matrix(14,0,0,-14,321.9277,337.89997)"/>
<use data-text="e" xlink:href="#font_2_6" transform="matrix(14,0,0,-14,330.3291,337.89997)"/>
<use data-text="n" xlink:href="#font_2_12" transform="matrix(14,0,0,-14,338.7305,337.89997)"/>
<use data-text="d" xlink:href="#font_2_5" transform="matrix(14,0,0,-14,347.1319,337.89997)"/>
<use data-text=" " xlink:href="#font_2_1" transform="matrix(14,0,0,-14,355.53334,337.89997)"/>
<path transform="matrix(1,0,0,-1,0,540)" d="M288 180H372V162H288Z" fill="#cbcbcb" fill-rule="evenodd"/>
<path transform="matrix(.00007874014,0,0,.00007874014,288,360)" stroke-width="9525" stroke-linecap="butt" stroke-miterlimit="8" stroke-linejoin="miter" fill="none" stroke="#000000" d="M-.0750733 .09222415H1066800V228600.1H-.0750733Z"/>
<use data-text="v" xlink:href="#font_2_19" transform="matrix(14,0,0,-14,300.1249,373.89997)"/>
<use data-text="m" xlink:href="#font_2_11" transform="matrix(14,0,0,-14,308.5263,373.89997)"/>
<use data-text="_" xlink:href="#font_2_2" transform="matrix(14,0,0,-14,316.9277,373.89997)"/>
<use data-text="p" xlink:href="#font_2_14" transform="matrix(14,0,0,-14,325.3291,373.89997)"/>
<use data-text="r" xlink:href="#font_2_15" transform="matrix(14,0,0,-14,333.7305,373.89997)"/>
<use data-text="o" xlink:href="#font_2_13" transform="matrix(14,0,0,-14,342.1319,373.89997)"/>
<use data-text="t" xlink:href="#font_2_17" transform="matrix(14,0,0,-14,350.53334,373.89997)"/>
<use data-text=" " xlink:href="#font_2_1" transform="matrix(14,0,0,-14,358.93473,373.89997)"/>
<path transform="matrix(1,0,0,-1,0,540)" d="M288 144H372V126H288Z" fill="#cbcbcb" fill-rule="evenodd"/>
<path transform="matrix(.00007874014,0,0,.00007874014,288,396)" stroke-width="9525" stroke-linecap="butt" stroke-miterlimit="8" stroke-linejoin="miter" fill="none" stroke="#000000" d="M-.0750733 .03753665H1066800V228600.1H-.0750733Z"/>
<use data-text="v" xlink:href="#font_2_19" transform="matrix(14,0,0,-14,300.1249,409.89997)"/>
<use data-text="m" xlink:href="#font_2_11" transform="matrix(14,0,0,-14,308.5263,409.89997)"/>
<use data-text="_" xlink:href="#font_2_2" transform="matrix(14,0,0,-14,316.9277,409.89997)"/>
<use data-text="n" xlink:href="#font_2_12" transform="matrix(14,0,0,-14,325.3291,409.89997)"/>
<use data-text="e" xlink:href="#font_2_6" transform="matrix(14,0,0,-14,333.7305,409.89997)"/>
<use data-text="x" xlink:href="#font_2_20" transform="matrix(14,0,0,-14,342.1319,409.89997)"/>
<use data-text="t" xlink:href="#font_2_17" transform="matrix(14,0,0,-14,350.53334,409.89997)"/>
<use data-text=" " xlink:href="#font_2_1" transform="matrix(14,0,0,-14,358.93473,409.89997)"/>
<path transform="matrix(1,0,0,-1,0,540)" d="M288 198H372V180H288Z" fill="#cbcbcb" fill-rule="evenodd"/>
<path transform="matrix(.00007874014,0,0,.00007874014,288,342)" stroke-width="9525" stroke-linecap="butt" stroke-miterlimit="8" stroke-linejoin="miter" fill="none" stroke="#000000" d="M-.0750733 .0570679H1066800V228600.1H-.0750733Z"/>
<use data-text="v" xlink:href="#font_2_19" transform="matrix(14,0,0,-14,296.1249,355.89997)"/>
<use data-text="m" xlink:href="#font_2_11" transform="matrix(14,0,0,-14,304.5263,355.89997)"/>
<use data-text="_" xlink:href="#font_2_2" transform="matrix(14,0,0,-14,312.9277,355.89997)"/>
<use data-text="s" xlink:href="#font_2_16" transform="matrix(14,0,0,-14,321.3291,355.89997)"/>
<use data-text="t" xlink:href="#font_2_17" transform="matrix(14,0,0,-14,329.7305,355.89997)"/>
<use data-text="a" xlink:href="#font_2_3" transform="matrix(14,0,0,-14,338.1319,355.89997)"/>
<use data-text="r" xlink:href="#font_2_15" transform="matrix(14,0,0,-14,346.53334,355.89997)"/>
<use data-text="t" xlink:href="#font_2_17" transform="matrix(14,0,0,-14,354.93473,355.89997)"/>
<use data-text=" " xlink:href="#font_2_1" transform="matrix(14,0,0,-14,363.33613,355.89997)"/>
<path transform="matrix(1,0,0,-1,0,540)" d="M438 515.9999H593.9999V138H438Z" fill="#ffffff" fill-rule="evenodd"/>
<path transform="matrix(.00007874014,0,0,.00007874014,438,24.000123)" stroke-width="9525" stroke-linecap="butt" stroke-miterlimit="8" stroke-linejoin="miter" fill="none" stroke="#000000" d="M-.03210455 .2673341H1981200V4800600H-.03210455Z"/>
<path transform="matrix(1,0,0,-1,0,540)" d="M438 276H593.9999V186H438Z" fill="#cbcbcb" fill-rule="evenodd"/>
<path transform="matrix(.00007874014,0,0,.00007874014,438,264)" stroke-width="9525" stroke-linecap="butt" stroke-miterlimit="8" stroke-linejoin="miter" fill="none" stroke="#000000" d="M-.03210455 .0985108H1981200V1143000H-.03210455Z"/>
<use data-text="C" xlink:href="#font_3_3" transform="matrix(14,0,0,-14,499.1249,313.89997)"/>
<use data-text="o" xlink:href="#font_3_16" transform="matrix(14,0,0,-14,509.23573,313.89997)"/>
<use data-text="d" xlink:href="#font_3_10" transform="matrix(14,0,0,-14,517.0225,313.89997)"/>
<use data-text="e" xlink:href="#font_3_11" transform="matrix(14,0,0,-14,524.8093,313.89997)"/>
<use data-text="&#xfffd;" xlink:href="#font_4_1" transform="matrix(14,0,0,-14,532.5961,313.89997)"/>
<path transform="matrix(1,0,0,-1,0,540)" d="M438 336H593.9999V276H438Z" fill="#cbcbcb" fill-rule="evenodd"/>
<path transform="matrix(.00007874014,0,0,.00007874014,438,204)" stroke-width="9525" stroke-linecap="butt" stroke-miterlimit="8" stroke-linejoin="miter" fill="none" stroke="#000000" d="M-.03210455 .2313233H1981200V762000.4H-.03210455Z"/>
<use data-text="D" xlink:href="#font_3_4" transform="matrix(14,0,0,-14,501.1249,238.89998)"/>
<use data-text="a" xlink:href="#font_3_7" transform="matrix(14,0,0,-14,511.23573,238.89998)"/>
<use data-text="t" xlink:href="#font_3_19" transform="matrix(14,0,0,-14,519.0225,238.89998)"/>
<use data-text="a" xlink:href="#font_3_7" transform="matrix(14,0,0,-14,522.9173,238.89998)"/>
<use data-text="&#xfffd;" xlink:href="#font_4_1" transform="matrix(14,0,0,-14,530.7041,238.89998)"/>
<path transform="matrix(1,0,0,-1,0,540)" d="M438 438H593.9999V396H438Z" fill="#cbcbcb" fill-rule="evenodd"/>
<path transform="matrix(.00007874014,0,0,.00007874014,438,102)" stroke-width="9525" stroke-linecap="butt" stroke-miterlimit="8" stroke-linejoin="miter" fill="none" stroke="#000000" d="M-.03210455 .03210455H1981200V533400.1H-.03210455Z"/>
<use data-text="S" xlink:href="#font_3_6" transform="matrix(14,0,0,-14,467.1249,127.89998)"/>
<use data-text="h" xlink:href="#font_3_12" transform="matrix(14,0,0,-14,476.46293,127.89998)"/>
<use data-text="a" xlink:href="#font_3_7" transform="matrix(14,0,0,-14,484.2497,127.89998)"/>
<use data-text="r" xlink:href="#font_3_17" transform="matrix(14,0,0,-14,492.0365,127.89998)"/>
<use data-text="e" xlink:href="#font_3_11" transform="matrix(14,0,0,-14,496.69853,127.89998)"/>
<use data-text="d" xlink:href="#font_3_10" transform="matrix(14,0,0,-14,504.48533,127.89998)"/>
<use data-text=" " xlink:href="#font_3_1" transform="matrix(14,0,0,-14,512.2721,127.89998)"/>
<use data-text="l" xlink:href="#font_3_14" transform="matrix(14,0,0,-14,516.1613,127.89998)"/>
<use data-text="i" xlink:href="#font_3_13" transform="matrix(14,0,0,-14,519.2721,127.89998)"/>
<use data-text="b" xlink:href="#font_3_8" transform="matrix(14,0,0,-14,522.38296,127.89998)"/>
<use data-text="r" xlink:href="#font_3_17" transform="matrix(14,0,0,-14,530.16976,127.89998)"/>
<use data-text="a" xlink:href="#font_3_7" transform="matrix(14,0,0,-14,534.8317,127.89998)"/>
<use data-text="r" xlink:href="#font_3_17" transform="matrix(14,0,0,-14,542.6185,127.89998)"/>
<use data-text="i" xlink:href="#font_3_13" transform="matrix(14,0,0,-14,547.2805,127.89998)"/>
<use data-text="e" xlink:href="#font_3_11" transform="matrix(14,0,0,-14,550.39138,127.89998)"/>
<use data-text="s" xlink:href="#font_3_18" transform="matrix(14,0,0,-14,558.1781,127.89998)"/>
<use data-text="&#xfffd;" xlink:href="#font_4_1" transform="matrix(14,0,0,-14,565.1781,127.89998)"/>
<path transform="matrix(.00007874014,0,0,.00007874014,371.9999,48.00009)" stroke-width="9525" stroke-linecap="butt" stroke-linejoin="round" fill="none" stroke="#000000" d="M-.0485841 .3142091 818541.6 669716.1"/>
<path transform="matrix(1,0,0,-1,0,540)" d="M435.2559 444.1212 437.9999 437.9999 431.4565 439.4775Z" fill-rule="evenodd"/>
<path transform="matrix(.00007874014,0,0,.00007874014,371.9999,66.00009)" stroke-width="9525" stroke-linecap="butt" stroke-linejoin="round" fill="none" stroke="#000000" d="M-.0485841-.1506346 821792.9 971210.1"/>
<path transform="matrix(1,0,0,-1,0,540)" d="M436.4144 402.5181 437.9999 395.9999 431.8341 398.6424Z" fill-rule="evenodd"/>
<path transform="matrix(.00007874014,0,0,.00007874014,371.9999,192)" stroke-width="9525" stroke-linecap="butt" stroke-linejoin="round" fill="none" stroke="#000000" d="M-.0485841 .2078858 813209.8 147856.7"/>
<path transform="matrix(1,0,0,-1,0,540)" d="M432.6334 340.0249 437.9999 336 431.5601 334.1217Z" fill-rule="evenodd"/>
<path transform="matrix(.00007874014,0,0,.00007874014,371.9999,210)" stroke-width="9525" stroke-linecap="butt" stroke-linejoin="round" fill="none" stroke="#000000" d="M-.0485841-.006957948 818541.6 669715.8"/>
<path transform="matrix(1,0,0,-1,0,540)" d="M435.2559 282.1213 437.9999 276 431.4565 277.4775Z" fill-rule="evenodd"/>
<path transform="matrix(.00007874014,0,0,-.00007874014,371.9999,330)" stroke-width="9525" stroke-linecap="butt" stroke-linejoin="round" fill="none" stroke="#000000" d="M-.0485841-.0336304 820239.6 820239.8"/>
<path transform="matrix(1,0,0,-1,0,540)" d="M435.8786 269.636 437.9999 276 431.636 273.8787Z" fill-rule="evenodd"/>
<path transform="matrix(.00007874014,0,0,.00007874014,371.9999,354)" stroke-width="9525" stroke-linecap="butt" stroke-linejoin="round" fill="none" stroke="#000000" d="M-.0485841 .1367188H812800.1"/>
<path transform="matrix(1,0,0,-1,0,540)" d="M431.9999 189 437.9999 186 431.9999 183Z" fill-rule="evenodd"/>
<path transform="matrix(-.00007874014,-0,0,.00007874014,288,138)" stroke-width="9525" stroke-linecap="butt" stroke-linejoin="round" fill="none" stroke="#000000" d="M.0750733 .1024171 228600.1 1.265137"/>
<path transform="matrix(.00007874014,0,0,.00007874014,270,138)" stroke-width="9525" stroke-linecap="butt" stroke-linejoin="round" fill="none" stroke="#000000" d="M-.1102296 .1024171 1.05249 533400.2"/>
<path transform="matrix(.00007874014,0,0,.00007874014,270,180)" stroke-width="9525" stroke-linecap="butt" stroke-linejoin="round" fill="none" stroke="#000000" d="M-.1102296 .1844483H203199.9"/>
<path transform="matrix(1,0,0,-1,0,540)" d="M282 363 288 360 282 357Z" fill-rule="evenodd"/>
<path transform="matrix(-.00007874014,-0,0,.00007874014,288,276)" stroke-width="9525" stroke-linecap="butt" stroke-linejoin="round" fill="none" stroke="#000000" d="M.0750733 .1219483 228600.1 1.284668"/>
<path transform="matrix(.00007874014,0,0,.00007874014,270,276)" stroke-width="9525" stroke-linecap="butt" stroke-linejoin="round" fill="none" stroke="#000000" d="M-.1102296 .1219483 1.05249 609600"/>
<path transform="matrix(.00007874014,0,0,.00007874014,270,324)" stroke-width="9525" stroke-linecap="butt" stroke-linejoin="round" fill="none" stroke="#000000" d="M-.1102296 .02191165H203199.9"/>
<path transform="matrix(1,0,0,-1,0,540)" d="M282 219 288 216 282 213Z" fill-rule="evenodd"/>
<use data-text="0" xlink:href="#font_3_2" transform="matrix(14,0,0,-14,601.1249,401.97499)"/>
<use data-text="&#xfffd;" xlink:href="#font_4_1" transform="matrix(14,0,0,-14,608.9117,401.97499)"/>
<path transform="matrix(1,0,0,-1,0,540)" d="M288 449.9999H372V431.9999H288Z" fill="#cbcbcb" fill-rule="evenodd"/>
<path transform="matrix(.00007874014,0,0,.00007874014,288,90.00009)" stroke-width="9525" stroke-linecap="butt" stroke-miterlimit="8" stroke-linejoin="miter" fill="none" stroke="#000000" d="M-.0750733-.1037596H1066800V228599.9H-.0750733Z"/>
<use data-text="v" xlink:href="#font_2_19" transform="matrix(14,0,0,-14,296.1249,103.89998)"/>
<use data-text="m" xlink:href="#font_2_11" transform="matrix(14,0,0,-14,304.5263,103.89998)"/>
<use data-text="_" xlink:href="#font_2_2" transform="matrix(14,0,0,-14,312.9277,103.89998)"/>
<use data-text="f" xlink:href="#font_2_7" transform="matrix(14,0,0,-14,321.3291,103.89998)"/>
<use data-text="l" xlink:href="#font_2_10" transform="matrix(14,0,0,-14,329.7305,103.89998)"/>
<use data-text="a" xlink:href="#font_2_3" transform="matrix(14,0,0,-14,338.1319,103.89998)"/>
<use data-text="g" xlink:href="#font_2_8" transform="matrix(14,0,0,-14,346.53334,103.89998)"/>
<use data-text="s" xlink:href="#font_2_16" transform="matrix(14,0,0,-14,354.93473,103.89998)"/>
<use data-text=" " xlink:href="#font_2_1" transform="matrix(14,0,0,-14,363.33613,103.89998)"/>
<path transform="matrix(1,0,0,-1,0,540)" d="M288 306H372V288H288Z" fill="#cbcbcb" fill-rule="evenodd"/>
<path transform="matrix(.00007874014,0,0,.00007874014,288,234)" stroke-width="9525" stroke-linecap="butt" stroke-miterlimit="8" stroke-linejoin="miter" fill="none" stroke="#000000" d="M-.0750733 .03991705H1066800V228600.1H-.0750733Z"/>
<use data-text="v" xlink:href="#font_2_19" transform="matrix(14,0,0,-14,296.1249,247.89998)"/>
<use data-text="m" xlink:href="#font_2_11" transform="matrix(14,0,0,-14,304.5263,247.89998)"/>
<use data-text="_" xlink:href="#font_2_2" transform="matrix(14,0,0,-14,312.9277,247.89998)"/>
<use data-text="f" xlink:href="#font_2_7" transform="matrix(14,0,0,-14,321.3291,247.89998)"/>
<use data-text="l" xlink:href="#font_2_10" transform="matrix(14,0,0,-14,329.7305,247.89998)"/>
<use data-text="a" xlink:href="#font_2_3" transform="matrix(14,0,0,-14,338.1319,247.89998)"/>
<use data-text="g" xlink:href="#font_2_8" transform="matrix(14,0,0,-14,346.53334,247.89998)"/>
<use data-text="s" xlink:href="#font_2_16" transform="matrix(14,0,0,-14,354.93473,247.89998)"/>
<use data-text=" " xlink:href="#font_2_1" transform="matrix(14,0,0,-14,363.33613,247.89998)"/>
<path transform="matrix(1,0,0,-1,0,540)" d="M288 162H372V144H288Z" fill="#cbcbcb" fill-rule="evenodd"/>
<path transform="matrix(.00007874014,0,0,.00007874014,288,378)" stroke-width="9525" stroke-linecap="butt" stroke-miterlimit="8" stroke-linejoin="miter" fill="none" stroke="#000000" d="M-.0750733 .002380401H1066800V228600H-.0750733Z"/>
<use data-text="v" xlink:href="#font_2_19" transform="matrix(14,0,0,-14,296.1249,391.89997)"/>
<use data-text="m" xlink:href="#font_2_11" transform="matrix(14,0,0,-14,304.5263,391.89997)"/>
<use data-text="_" xlink:href="#font_2_2" transform="matrix(14,0,0,-14,312.9277,391.89997)"/>
<use data-text="f" xlink:href="#font_2_7" transform="matrix(14,0,0,-14,321.3291,391.89997)"/>
<use data-text="l" xlink:href="#font_2_10" transform="matrix(14,0,0,-14,329.7305,391.89997)"/>
<use data-text="a" xlink:href="#font_2_3" transform="matrix(14,0,0,-14,338.1319,391.89997)"/>
<use data-text="g" xlink:href="#font_2_8" transform="matrix(14,0,0,-14,346.53334,391.89997)"/>
<use data-text="s" xlink:href="#font_2_16" transform="matrix(14,0,0,-14,354.93473,391.89997)"/>
<use data-text=" " xlink:href="#font_2_1" transform="matrix(14,0,0,-14,363.33613,391.89997)"/>
<use data-text="P" xlink:href="#font_3_5" transform="matrix(16,0,0,-16,433.3749,11.900112)"/>
<use data-text="r" xlink:href="#font_3_17" transform="matrix(16,0,0,-16,444.0469,11.900112)"/>
<use data-text="o" xlink:href="#font_3_16" transform="matrix(16,0,0,-16,449.3749,11.900112)"/>
<use data-text="c" xlink:href="#font_3_9" transform="matrix(16,0,0,-16,458.2741,11.900112)"/>
<use data-text="e" xlink:href="#font_3_11" transform="matrix(16,0,0,-16,466.2741,11.900112)"/>
<use data-text="s" xlink:href="#font_3_18" transform="matrix(16,0,0,-16,475.1733,11.900112)"/>
<use data-text="s" xlink:href="#font_3_18" transform="matrix(16,0,0,-16,483.1733,11.900112)"/>
<use data-text=" " xlink:href="#font_3_1" transform="matrix(16,0,0,-16,491.1733,11.900112)"/>
<use data-text="v" xlink:href="#font_3_21" transform="matrix(16,0,0,-16,495.6181,11.900112)"/>
<use data-text="i" xlink:href="#font_3_13" transform="matrix(16,0,0,-16,503.6181,11.900112)"/>
<use data-text="r" xlink:href="#font_3_17" transform="matrix(16,0,0,-16,507.1733,11.900112)"/>
<use data-text="t" xlink:href="#font_3_19" transform="matrix(16,0,0,-16,512.50137,11.900112)"/>
<use data-text="u" xlink:href="#font_3_20" transform="matrix(16,0,0,-16,516.9461,11.900112)"/>
<use data-text="a" xlink:href="#font_3_7" transform="matrix(16,0,0,-16,525.84536,11.900112)"/>
<use data-text="l" xlink:href="#font_3_14" transform="matrix(16,0,0,-16,534.7445,11.900112)"/>
<use data-text=" " xlink:href="#font_3_1" transform="matrix(16,0,0,-16,538.2997,11.900112)"/>
<use data-text="m" xlink:href="#font_3_15" transform="matrix(16,0,0,-16,542.7445,11.900112)"/>
<use data-text="e" xlink:href="#font_3_11" transform="matrix(16,0,0,-16,556.0725,11.900112)"/>
<use data-text="m" xlink:href="#font_3_15" transform="matrix(16,0,0,-16,564.97177,11.900112)"/>
<use data-text="o" xlink:href="#font_3_16" transform="matrix(16,0,0,-16,578.29977,11.900112)"/>
<use data-text="r" xlink:href="#font_3_17" transform="matrix(16,0,0,-16,587.1989,11.900112)"/>
<use data-text="y" xlink:href="#font_3_22" transform="matrix(16,0,0,-16,592.5269,11.900112)"/>
<use data-text="&#xfffd;" xlink:href="#font_4_1" transform="matrix(16,0,0,-16,600.5269,11.900112)"/>
</g>
</g>
</svg>
