<svg xmlns="http://www.w3.org/2000/svg" xmlns:xlink="http://www.w3.org/1999/xlink" version="1.1" width="590.78567pt" height="410.982pt" viewBox="0 0 590.78567 410.982">
<defs>
<clipPath id="clip_0">
<path transform="matrix(1,0,0,-1,-.778381,540)" d="M.778381 129.018H591.564V540H.778381Z" fill-rule="evenodd"/>
</clipPath>
<clipPath id="clip_1">
<path transform="matrix(1,0,0,-1,-.778381,540)" d="M0 .00002324581H719.9999V540H0Z"/>
</clipPath>
<path id="font_2_15" d="M.3359375 0H.26660157L.09814453 .3828125H.056152345C.04638672 .3828125 .03938802 .38476563 .03515625 .38867188 .030924479 .39257813 .028808594 .3976237 .028808594 .4038086 .028808594 .40952555 .030924479 .41429139 .03515625 .41810609 .03938802 .42192079 .04638672 .42382813 .056152345 .42382813H.20996094C.21972656 .42382813 .22672527 .42192079 .23095703 .41810609 .2351888 .41429139 .23730469 .4093628 .23730469 .4033203 .23730469 .39746095 .2351888 .39257813 .23095703 .38867188 .22672527 .38476563 .21972656 .3828125 .20996094 .3828125H.14208985L.29248048 .041015626H.31054688L.4580078 .3828125H.38964845C.3798828 .3828125 .37288413 .38476563 .36865235 .38867188 .36442057 .39257813 .3623047 .3976237 .3623047 .4038086 .3623047 .40952555 .36442057 .41429139 .36865235 .41810609 .37288413 .42192079 .3798828 .42382813 .38964845 .42382813H.5439453C.55403646 .42382813 .5611165 .42192079 .56518557 .41810609 .5692546 .41429139 .57128909 .4093628 .57128909 .4033203 .57128909 .39746095 .5692546 .39257813 .56518557 .38867188 .5611165 .38476563 .55403646 .3828125 .5439453 .3828125H.5024414L.3359375 0Z"/>
<path id="font_2_8" d="M.11328125 .42382813V.38275147C.14811199 .41990153 .18310547 .43847657 .21826172 .43847657 .23942058 .43847657 .25797526 .43289186 .27392579 .4217224 .2898763 .41056315 .30322267 .3936564 .31396485 .3710022 .332194 .3936564 .35066734 .41056315 .36938478 .4217224 .3881022 .43289186 .40690104 .43847657 .42578126 .43847657 .45540367 .43847657 .4790039 .42884828 .49658204 .40959168 .51969406 .38479106 .53125 .3577067 .53125 .32833863V.041015626H.56591799C.5756836 .041015626 .5826823 .03914388 .58691409 .03540039 .5911458 .031656904 .5932617 .026692709 .5932617 .020507813 .5932617 .0146484379 .5911458 .009765625 .58691409 .005859375 .5826823 .001953125 .5756836 0 .56591799 0H.49023438V.32492066C.49023438 .34583537 .48388673 .36315409 .4711914 .37687684 .4584961 .39059959 .44384767 .39746095 .4272461 .39746095 .41227214 .39746095 .39648438 .39182536 .3798828 .3805542 .36328126 .36928306 .34440104 .3471476 .3232422 .31414796V.041015626H.35742188C.3671875 .041015626 .3741862 .03914388 .37841798 .03540039 .38264976 .031656904 .38476563 .026692709 .38476563 .020507813 .38476563 .0146484379 .38264976 .009765625 .37841798 .005859375 .3741862 .001953125 .3671875 0 .35742188 0H.28173829V.32199098C.28173829 .34388224 .27530924 .36193339 .26245118 .3761444 .2495931 .39035545 .2351888 .39746095 .21923828 .39746095 .20458985 .39746095 .19010417 .39272563 .17578125 .383255 .15592449 .3698578 .13509114 .3468221 .11328125 .31414796V.041015626H.14794922C.15771485 .041015626 .16471355 .03914388 .16894531 .03540039 .17317708 .031656904 .17529297 .026692709 .17529297 .020507813 .17529297 .0146484379 .17317708 .009765625 .16894531 .005859375 .16471355 .001953125 .15771485 0 .14794922 0H.037597658C.027832032 0 .020833334 .001953125 .016601563 .005859375 .012369792 .009765625 .010253906 .0146484379 .010253906 .020507813 .010253906 .026692709 .012369792 .031656904 .016601563 .03540039 .020833334 .03914388 .027832032 .041015626 .037597658 .041015626H.072265628V.3828125H.037597658C.027832032 .3828125 .020833334 .38476563 .016601563 .38867188 .012369792 .39257813 .010253906 .3976237 .010253906 .4038086 .010253906 .40952555 .012369792 .41429139 .016601563 .41810609 .020833334 .42192079 .027832032 .42382813 .037597658 .42382813H.11328125Z"/>
<path id="font_2_3" d="M.5727539-.27441407H.02734375C.017578125-.27441407 .010579427-.27254234 .0063476564-.26879884 .0021158856-.26505534 0-.26009117 0-.25390626 0-.24772136 .0021158856-.24275716 .0063476564-.23901367 .010579427-.23527019 .017578125-.23339844 .02734375-.23339844H.5727539C.58284506-.23339844 .5899251-.23527019 .59399417-.23901367 .5980632-.24275716 .60009768-.24772136 .60009768-.25390626 .60009768-.26009117 .5980632-.26505534 .59399417-.26879884 .5899251-.27254234 .58284506-.27441407 .5727539-.27441407Z"/>
<path id="font_2_4" d="M.41796876 0V.059570314C.35839845 .0094401049 .29475913-.015625 .22705078-.015625 .17789714-.015625 .13948567-.0031738282 .111816409 .021728516 .08414713 .04663086 .0703125 .07714844 .0703125 .11328125 .0703125 .1529948 .088541667 .18766277 .125 .21728516 .16145833 .24690755 .21468099 .26171876 .28466798 .26171876 .3035482 .26171876 .324056 .26049806 .3461914 .25805665 .3683268 .25561524 .3922526 .25179038 .41796876 .24658203V.31341554C.41796876 .33602906 .4075521 .35568748 .38671876 .37239076 .3658854 .38910423 .3346354 .39746095 .29296876 .39746095 .26106773 .39746095 .2163086 .38804627 .1586914 .36921693 .14827474 .36591087 .14160156 .3642578 .13867188 .3642578 .13346355 .3642578 .12898763 .36621095 .12524414 .3701172 .12150065 .37402345 .119628909 .37890626 .119628909 .38476563 .119628909 .39029948 .12125651 .394694 .12451172 .39794923 .12906902 .40283204 .14746094 .40950523 .1796875 .41796876 .23046875 .43164063 .26888023 .43847657 .29492188 .43847657 .3466797 .43847657 .38704429 .42566935 .41601563 .40005494 .44498698 .37444053 .45947267 .34547935 .45947267 .3131714V.041015626H.51416018C.5242513 .041015626 .5314128 .03914388 .53564456 .03540039 .5398763 .031656904 .5419922 .026692709 .5419922 .020507813 .5419922 .0146484379 .5398763 .009765625 .53564456 .005859375 .5314128 .001953125 .5242513 0 .51416018 0H.41796876M.41796876 .20458985C.39876304 .2101237 .37841798 .2141927 .3569336 .21679688 .33544923 .21940105 .31282554 .22070313 .2890625 .22070313 .22949219 .22070313 .1829427 .20784505 .14941406 .1821289 .12402344 .16292317 .111328128 .13997396 .111328128 .11328125 .111328128 .088541667 .12101237 .067708339 .14038086 .05078125 .15974935 .033854169 .18798828 .025390625 .22509766 .025390625 .26057945 .025390625 .29353843 .032470704 .3239746 .04663086 .3544108 .060791017 .3857422 .083333339 .41796876 .11425781V.20458985Z"/>
<path id="font_2_11" d="M.25097657 .42382813V.3200531C.30436198 .36812846 .34431968 .3990682 .3708496 .4128723 .39737956 .4266866 .421875 .43359376 .44433595 .43359376 .46875 .43359376 .49145509 .4253184 .5124512 .4087677 .53344729 .392217 .5439453 .37967936 .5439453 .3711548 .5439453 .3649292 .5419108 .3597819 .5378418 .3557129 .53377279 .3516439 .5286458 .34960938 .52246096 .34960938 .51920577 .34960938 .5164388 .35017906 .51416018 .35131837 .51188156 .35245768 .5076497 .3561605 .50146487 .36242677 .49007163 .3739624 .48014323 .38187156 .4716797 .38615418 .46321617 .3904368 .45491538 .39257813 .44677735 .39257813 .4288737 .39257813 .40730796 .38542176 .38208009 .371109 .3568522 .35679627 .31315104 .32182823 .25097657 .26620484V.041015626H.4326172C.44270835 .041015626 .44986979 .03914388 .45410157 .03540039 .45833335 .031656904 .46044923 .026692709 .46044923 .020507813 .46044923 .0146484379 .45833335 .009765625 .45410157 .005859375 .44986979 .001953125 .44270835 0 .4326172 0H.110839847C.10107422 0 .09407552 .0019175211 .08984375 .0057525637 .08561198 .0095876059 .083496097 .014506022 .083496097 .020507813 .083496097 .026041666 .0855306 .030680338 .08959961 .034423829 .09366862 .038167318 .100748699 .040039064 .110839847 .040039064H.20996094V.3828125H.13427735C.12451172 .3828125 .11751302 .38476563 .11328125 .38867188 .10904948 .39257813 .106933597 .3976237 .106933597 .4038086 .106933597 .40952555 .1089681 .41429139 .11303711 .41810609 .11710612 .42192079 .124186199 .42382813 .13427735 .42382813H.25097657Z"/>
<path id="font_2_7" d="M.52197268 .20214844H.104003909C.11116537 .14908855 .13338216 .10636393 .1706543 .07397461 .20792644 .041585287 .254069 .025390625 .30908204 .025390625 .339681 .025390625 .37174479 .030436198 .40527345 .040527345 .4388021 .05061849 .46614585 .063964847 .4873047 .080566409 .4934896 .08544922 .4988607 .087890628 .50341799 .087890628 .5086263 .087890628 .5131836 .08585612 .51708987 .08178711 .5209961 .0777181 .5229492 .072916667 .5229492 .06738281 .5229492 .061848958 .52034506 .056477865 .5151367 .05126953 .49951173 .03499349 .47176109 .01977539 .43188478 .0056152346 .39200846-.008544922 .35107423-.015625 .30908204-.015625 .23876953-.015625 .1800944 .0074310305 .13305664 .05354309 .08601888 .09965515 .0625 .15546163 .0625 .22096253 .0625 .28059388 .08455404 .3317515 .12866211 .37443543 .17277019 .41712953 .2273763 .43847657 .29248048 .43847657 .35953776 .43847657 .41471354 .41653953 .4580078 .3726654 .50130209 .3287913 .5226237 .2719523 .52197268 .20214844M.48046876 .24316406C.47233073 .28884889 .45092774 .32598368 .41625978 .35456849 .3815918 .38316346 .34033204 .39746095 .29248048 .39746095 .2446289 .39746095 .20345052 .3833262 .16894531 .35505677 .13444011 .3267975 .11295573 .2894999 .10449219 .24316406H.48046876Z"/>
<path id="font_2_12" d="M.43554688 .39746095C.43554688 .40672813 .4375 .4134369 .44140626 .41758729 .4453125 .42174784 .4501953 .42382813 .4560547 .42382813 .4622396 .42382813 .46728517 .42170207 .4711914 .41744996 .47509767 .413208 .47705079 .40602113 .47705079 .39588929V.32530213C.47705079 .31549583 .47509767 .30846659 .4711914 .30421449 .46728517 .29997254 .4622396 .29785157 .4560547 .29785157 .45052085 .29785157 .44588218 .2996572 .44213868 .30326844 .43839518 .30688987 .4361979 .31281028 .43554688 .32102967 .43359376 .34075419 .4235026 .35702516 .40527345 .36984254 .37858073 .3882548 .34326173 .39746095 .2993164 .39746095 .25341798 .39746095 .21777344 .3881836 .19238281 .3696289 .17317708 .3556315 .16357422 .3400065 .16357422 .3227539 .16357422 .30322267 .17496746 .28694663 .1977539 .27392579 .2133789 .2648112 .2430013 .2578125 .2866211 .2529297 .34358726 .24672444 .38313804 .23970032 .40527345 .2318573 .43684898 .22042339 .46036784 .20457459 .47583009 .18431092 .49129234 .16405742 .49902345 .14217122 .49902345 .118652347 .49902345 .08369955 .48225913 .052581788 .44873048 .025299073 .4152018-.0019836426 .3660482-.015625 .30126954-.015625 .23649089-.015625 .18343099 .00081380209 .14208985 .033691408 .14208985 .022460938 .1414388 .015192668 .14013672 .011886597 .13883464 .008590698 .13647461 .005783081 .13305664 .0034637452 .12963867 .0011545817 .1258138 0 .12158203 0 .115722659 0 .110839847 .0021209717 .106933597 .006362915 .103027347 .010615031 .10107422 .01763916 .10107422 .027435303V.112213138C.10107422 .12200928 .10294596 .12902832 .10668945 .13327027 .110432948 .13752239 .11539713 .13964844 .12158203 .13964844 .1274414 .13964844 .1324056 .13761394 .13647461 .13354492 .14054363 .1294759 .14257813 .12402344 .14257813 .1171875 .14257813 .10221354 .14632161 .08968099 .1538086 .079589847 .16520183 .063964847 .18334961 .05102539 .20825196 .040771486 .2331543 .030517579 .26367188 .025390625 .2998047 .025390625 .3531901 .025390625 .39290367 .035369874 .4189453 .05532837 .44498698 .075286868 .4580078 .09638977 .4580078 .118637088 .4580078 .14415996 .44482423 .16460674 .41845704 .17997742 .3917643 .19535828 .35294596 .20566304 .30200196 .21089173 .25105796 .21613057 .21451824 .2229716 .19238281 .2314148 .17024739 .23985799 .1529948 .2525228 .140625 .26940919 .1282552 .28630577 .12207031 .3044993 .12207031 .32398988 .12207031 .35906474 .13932292 .38691203 .17382813 .40753175 .20833333 .42816163 .24951172 .43847657 .29736329 .43847657 .3540039 .43847657 .4000651 .4248047 .43554688 .39746095Z"/>
<path id="font_2_13" d="M.21582031 .42382813H.43847657C.4482422 .42382813 .45524089 .42192079 .45947267 .41810609 .46370445 .41429139 .4658203 .4093628 .4658203 .4033203 .4658203 .39746095 .46370445 .39257813 .45947267 .38867188 .45524089 .38476563 .4482422 .3828125 .43847657 .3828125H.21582031V.1091156C.21582031 .08529154 .2253418 .06537882 .24438477 .04937744 .26342774 .03338623 .29134117 .025390625 .328125 .025390625 .35579429 .025390625 .3857422 .029541016 .41796876 .037841798 .4501953 .046142579 .4752604 .0555013 .49316407 .06591797 .49967448 .07014974 .5050456 .072265628 .50927737 .072265628 .51448568 .072265628 .51904299 .07023112 .5229492 .06616211 .52685549 .062093099 .5288086 .057291669 .5288086 .051757814 .5288086 .046875 .5266927 .042317708 .52246096 .038085939 .51204428 .02734375 .48673503 .01570638 .4465332 .0031738282 .4063314-.009358724 .36783854-.015625 .3310547-.015625 .28320313-.015625 .24511719-.0043691 .21679688 .0181427 .18847656 .040664674 .1743164 .071014408 .1743164 .109191898V.3828125H.09863281C.08886719 .3828125 .08186849 .3847402 .07763672 .38859559 .073404949 .39246116 .07128906 .39745078 .07128906 .40356446 .07128906 .40935264 .073404949 .4141744 .07763672 .4180298 .08186849 .42189536 .08886719 .42382813 .09863281 .42382813H.1743164V.54571536C.1743164 .5555522 .17626953 .5625966 .18017578 .56684878 .18408203 .571111 .18896485 .5732422 .19482422 .5732422 .20100911 .5732422 .20605469 .571111 .20996094 .56684878 .21386719 .5625966 .21582031 .5555522 .21582031 .54571536V.42382813Z"/>
<path id="font_2_14" d="M.4404297 0V.06059265C.3844401 .009780884 .32389323-.015625 .25878907-.015625 .21875-.015625 .1883138-.0046946208 .16748047 .017166138 .14046224 .04588318 .12695313 .079330448 .12695313 .117507938V.3828125H.071777347C.06201172 .3828125 .05501302 .38476563 .05078125 .38867188 .04654948 .39257813 .044433595 .3976237 .044433595 .4038086 .044433595 .40952555 .04654948 .41429139 .05078125 .41810609 .05501302 .42192079 .06201172 .42382813 .071777347 .42382813H.16796875V.11729431C.16796875 .09057108 .1764323 .068573 .19335938 .05130005 .21028646 .0340271 .23144531 .025390625 .25683595 .025390625 .32356773 .025390625 .38476563 .05602519 .4404297 .11729431V.3828125H.3647461C.35498048 .3828125 .34798179 .38476563 .34375 .38867188 .33951823 .39257813 .33740235 .3976237 .33740235 .4038086 .33740235 .40952555 .33951823 .41429139 .34375 .41810609 .34798179 .42192079 .35498048 .42382813 .3647461 .42382813H.4814453V.041015626H.5161133C.5258789 .041015626 .5328776 .03914388 .5371094 .03540039 .5413411 .031656904 .54345706 .026692709 .54345706 .020507813 .54345706 .0146484379 .5413411 .009765625 .5371094 .005859375 .5328776 .001953125 .5258789 0 .5161133 0H.4404297Z"/>
<path id="font_2_5" d="M.4711914 .38275147V.396286C.4711914 .40627543 .47314454 .4133606 .47705079 .4175415 .48095704 .42173258 .48583985 .42382813 .49169923 .42382813 .49788413 .42382813 .5029297 .42171226 .50683596 .41748048 .5107422 .4132487 .5126953 .40608726 .5126953 .3959961V.30322267C.5123698 .2931315 .51033529 .28597007 .5065918 .28173829 .5028483 .2775065 .49788413 .27539063 .49169923 .27539063 .48616538 .27539063 .4815267 .27726747 .4777832 .28102113 .4740397 .28478495 .47184245 .29108177 .4711914 .2999115 .46923829 .32311503 .45402018 .34517417 .4255371 .36608888 .39705406 .38700358 .35872398 .39746095 .31054688 .39746095 .24967449 .39746095 .20345052 .3783671 .171875 .34017945 .14029949 .3019918 .12451172 .2582601 .12451172 .20898438 .12451172 .15578206 .14192708 .11188253 .17675781 .07728577 .21158855 .042689008 .2566732 .025390625 .31201173 .025390625 .34391276 .025390625 .37638346 .03131612 .40942384 .043167116 .4424642 .05502828 .47233073 .074132289 .49902345 .100479129 .5058594 .10706075 .51188156 .11035156 .51708987 .11035156 .5226237 .11035156 .5272624 .10846456 .53100588 .10469055 .5347493 .10091654 .5366211 .09624227 .5366211 .090667728 .5366211 .07655843 .5201823 .058680219 .4873047 .03703308 .43424479 .0019276937 .37516276-.015625 .3100586-.015625 .24397786-.015625 .18969727 .005472819 .1472168 .047668458 .10473633 .08987427 .083496097 .1434021 .083496097 .20825196 .083496097 .2744039 .10522461 .3293101 .14868164 .37297059 .19213867 .41664125 .24690755 .43847657 .31298829 .43847657 .3758138 .43847657 .4285482 .41990153 .4711914 .38275147Z"/>
<path id="font_2_1" d="M0 0Z"/>
<path id="font_2_9" d="M.16748047 .42382813V.3623047C.1961263 .39109294 .2220052 .41098533 .24511719 .4219818 .26822917 .4329783 .29427085 .43847657 .3232422 .43847657 .3544922 .43847657 .38297526 .43178813 .4086914 .41841126 .42692057 .4086151 .44344078 .39237467 .45825196 .36968995 .47306315 .34701539 .48046876 .32377116 .48046876 .29995729V.041015626H.5151367C.52490237 .041015626 .53190109 .03914388 .5361328 .03540039 .54036459 .031656904 .54248049 .026692709 .54248049 .020507813 .54248049 .0146484379 .54036459 .009765625 .5361328 .005859375 .53190109 .001953125 .52490237 0 .5151367 0H.40527345C.39518229 0 .38802085 .001953125 .38378907 .005859375 .37955729 .009765625 .3774414 .0146484379 .3774414 .020507813 .3774414 .026692709 .37955729 .031656904 .38378907 .03540039 .38802085 .03914388 .39518229 .041015626 .40527345 .041015626H.43945313V.29351808C.43945313 .32261149 .4288737 .34720866 .40771485 .36730958 .386556 .3874105 .3582357 .39746095 .3227539 .39746095 .2957357 .39746095 .2722982 .39200846 .2524414 .38110353 .23258464 .37019859 .20426433 .34309898 .16748047 .2998047V.041015626H.21386719C.22363281 .041015626 .23063152 .03914388 .23486328 .03540039 .23909505 .031656904 .24121094 .026692709 .24121094 .020507813 .24121094 .0146484379 .23909505 .009765625 .23486328 .005859375 .23063152 .001953125 .22363281 0 .21386719 0H.080078128C.0703125 0 .063313808 .001953125 .05908203 .005859375 .05485026 .009765625 .052734376 .0146484379 .052734376 .020507813 .052734376 .026692709 .05485026 .031656904 .05908203 .03540039 .063313808 .03914388 .0703125 .041015626 .080078128 .041015626H.12646485V.3828125H.091796878C.08203125 .3828125 .075032558 .38476563 .07080078 .38867188 .06656901 .39257813 .064453128 .3976237 .064453128 .4038086 .064453128 .40952555 .06656901 .41429139 .07080078 .41810609 .075032558 .42192079 .08203125 .42382813 .091796878 .42382813H.16748047Z"/>
<path id="font_2_6" d="M.50097659 .61328127V.041015626H.55566409C.5657552 .041015626 .5729167 .03914388 .57714846 .03540039 .5813802 .031656904 .5834961 .026692709 .5834961 .020507813 .5834961 .014923096 .5813802 .010269165 .57714846 .0065460207 .5729167 .0028330486 .5657552 .0009765625 .55566409 .0009765625H.45947267V.08218384C.41194663 .016977946 .3515625-.015625 .2783203-.015625 .24121094-.015625 .20564778-.0057678224 .17163086 .013946533 .13761394 .03366089 .11075846 .061767579 .09106445 .0982666 .071370448 .13476563 .061523439 .17240398 .061523439 .21118164 .061523439 .25028483 .071370448 .28800456 .09106445 .32434083 .11075846 .3606771 .13761394 .38878379 .17163086 .4086609 .20564778 .428538 .2413737 .43847657 .2788086 .43847657 .3504232 .43847657 .41064454 .40603639 .45947267 .341156V.5722656H.40478517C.394694 .5722656 .38753257 .574173 .38330079 .5779877 .379069 .58180239 .37695313 .58673098 .37695313 .59277346 .37695313 .5986328 .379069 .6035156 .38330079 .6074219 .38753257 .6113281 .394694 .61328127 .40478517 .61328127H.50097659M.45947267 .21142578C.45947267 .26364137 .44189454 .30769859 .40673829 .3435974 .37158204 .37950645 .3297526 .39746095 .28125 .39746095 .23242188 .39746095 .19042969 .37950645 .15527344 .3435974 .12011719 .30769859 .10253906 .26364137 .10253906 .21142578 .10253906 .15953572 .12011719 .11555481 .15527344 .07948303 .19042969 .04342143 .23242188 .025390625 .28125 .025390625 .3297526 .025390625 .37158204 .04342143 .40673829 .07948303 .44189454 .11555481 .45947267 .15953572 .45947267 .21142578Z"/>
<path id="font_2_2" d="M.484375 .64208987 .15429688-.064941409C.14876302-.07698568 .14160156-.08300781 .1328125-.08300781 .12727864-.08300781 .12247721-.080973308 .1184082-.0769043 .114339198-.07283529 .11230469-.068359378 .11230469-.06347656 .11230469-.059570314 .11393229-.05419922 .1171875-.04736328L.44677735 .65966799C.45035807 .66715499 .45377604 .6720378 .45703126 .6743164 .46028648 .67659506 .46419273 .6777344 .46875 .6777344 .47428385 .6777344 .4790853 .6756999 .4831543 .67163088 .4872233 .6675618 .4892578 .66308596 .4892578 .6582031 .4892578 .6546224 .48763023 .6492513 .484375 .64208987Z"/>
<path id="font_2_10" d="M.5292969 .21118164C.5292969 .14861043 .5069173 .09516398 .4621582 .050842287 .41739909 .0065307619 .363444-.015625 .30029298-.015625 .23649089-.015625 .18229167 .006612142 .13769531 .051086427 .09309896 .095570888 .07080078 .14893596 .07080078 .21118164 .07080078 .27375285 .09309896 .3272756 .13769531 .37174989 .18229167 .41623435 .23649089 .43847657 .30029298 .43847657 .363444 .43847657 .41739909 .4163157 .4621582 .37199403 .5069173 .3276825 .5292969 .27407838 .5292969 .21118164M.48779298 .21142578C.48779298 .26299034 .46948243 .30688478 .43286134 .34310914 .39624024 .37934367 .35188804 .39746095 .2998047 .39746095 .24772136 .39746095 .20336914 .3792623 .16674805 .342865 .13012696 .30647788 .111816409 .2626648 .111816409 .21142578 .111816409 .16051229 .13012696 .11677551 .16674805 .080215457 .20336914 .04366557 .24772136 .025390625 .2998047 .025390625 .35188804 .025390625 .39624024 .043584188 .43286134 .07997131 .46948243 .116368617 .48779298 .16018677 .48779298 .21142578Z"/>
<path id="font_2_17" d="M.32885743 .22181702 .5161133 .041015626C.5284831 .041015626 .5362956 .040445966 .5395508 .03930664 .54280599 .038167318 .5456543 .035807294 .5480957 .032226564 .5505371 .028645834 .5517578 .024739584 .5517578 .020507813 .5517578 .0146484379 .5496419 .009765625 .54541018 .005859375 .5411784 .001953125 .5340169 0 .5239258 0H.39208985C.3819987 0 .37483726 .001953125 .37060548 .005859375 .3663737 .009765625 .3642578 .0146484379 .3642578 .020507813 .3642578 .026692709 .3663737 .031656904 .37060548 .03540039 .37483726 .03914388 .3819987 .041015626 .39208985 .041015626H.45996095L.30067445 .19459534 .14160156 .041015626H.20996094C.21972656 .041015626 .22672527 .03914388 .23095703 .03540039 .2351888 .031656904 .23730469 .026692709 .23730469 .020507813 .23730469 .0146484379 .2351888 .009765625 .23095703 .005859375 .22672527 .001953125 .21972656 0 .20996094 0H.076660159C.06689453 0 .059895833 .001953125 .055664064 .005859375 .051432294 .009765625 .049316408 .0146484379 .049316408 .020507813 .049316408 .024739584 .05053711 .028645834 .052978517 .032226564 .055419923 .035807294 .058186849 .038167318 .061279298 .03930664 .06437174 .040445966 .07210287 .041015626 .084472659 .041015626L.27233888 .22190857 .10546875 .3828125C.09375 .3828125 .0863444 .38345338 .08325195 .3847351 .08015951 .386027 .07739258 .388443 .07495117 .39198304 .072509769 .39552308 .07128906 .39938355 .07128906 .40356446 .07128906 .40935264 .073404949 .4141744 .07763672 .4180298 .08186849 .42189536 .089029949 .42382813 .099121097 .42382813H.2109375C.22102864 .42382813 .22810872 .42189536 .23217774 .4180298 .23624675 .4141744 .23828125 .40918986 .23828125 .40307618 .23828125 .397288 .23624675 .39246116 .23217774 .38859559 .22810872 .3847402 .22102864 .3828125 .2109375 .3828125H.16210938L.3005829 .24909973 .43945313 .3828125H.390625C.38085938 .3828125 .3737793 .3847402 .36938478 .38859559 .36499024 .39246116 .36279298 .39745078 .36279298 .40356446 .36279298 .40935264 .36490885 .4141744 .36914063 .4180298 .3733724 .42189536 .38053385 .42382813 .390625 .42382813H.5024414C.51220706 .42382813 .51920577 .42189536 .5234375 .4180298 .52766928 .4141744 .52978518 .40918986 .52978518 .40307618 .52978518 .3992208 .52856448 .39552308 .52612307 .39198304 .52368167 .388443 .52091476 .386027 .51782229 .3847351 .5147298 .38345338 .5073242 .3828125 .49560548 .3828125L.32885743 .22181702Z"/>
<path id="font_2_16" d="M.44140626 0 .390625-.0009765625 .30029298 .26290895 .21044922-.0009765625 .15966797 0 .07470703 .3828125H.0546875C.044921876 .3828125 .037923177 .38476563 .033691408 .38867188 .029459635 .39257813 .02734375 .3976237 .02734375 .4038086 .02734375 .40952555 .029459635 .41429139 .033691408 .41810609 .037923177 .42192079 .044921876 .42382813 .0546875 .42382813H.16748047C.1772461 .42382813 .1842448 .42192079 .18847656 .41810609 .19270833 .41429139 .19482422 .4093628 .19482422 .4033203 .19482422 .39746095 .19270833 .39257813 .18847656 .38867188 .1842448 .38476563 .1772461 .3828125 .16748047 .3828125H.115234378L.18798828 .056640626 .27539063 .3154297H.32421876L.4140625 .055664064 .48388673 .3828125H.4321289C.42236329 .3828125 .4152832 .38476563 .41088868 .38867188 .40649415 .39257813 .40429688 .3976237 .40429688 .4038086 .40429688 .40952555 .40641276 .41429139 .41064454 .41810609 .4148763 .42192079 .42203776 .42382813 .4321289 .42382813H.5444336C.5545247 .42382813 .5616862 .42192079 .56591799 .41810609 .5701497 .41429139 .5722656 .4093628 .5722656 .4033203 .5722656 .39746095 .5701497 .39257813 .56591799 .38867188 .5616862 .38476563 .5545247 .3828125 .5444336 .3828125H.52490237L.44140626 0Z"/>
<path id="font_3_10" d="M.08544922 .71777346H.40820313C.47200523 .71777346 .5234375 .6997884 .5625 .66381838 .6015625 .6278483 .62109377 .5773112 .62109377 .51220706 .62109377 .45621745 .6036784 .4074707 .56884768 .3659668 .5340169 .3244629 .48046876 .30371095 .40820313 .30371095H.18261719V0H.08544922V.71777346M.5229492 .5114746C.5229492 .56410726 .50341799 .5998433 .46435548 .61868289 .4428711 .62875369 .41341148 .63378909 .37597657 .63378909H.18261719V.3857422H.37597657C.41959635 .3857422 .45499674 .39499919 .48217774 .41351319 .5093587 .43203736 .5229492 .46469117 .5229492 .5114746Z"/>
<path id="font_3_26" d="M.06689453 .5234375H.15039063V.4326172C.15722656 .4502767 .17399089 .4717814 .2006836 .49713136 .2273763 .52248129 .25813804 .53515627 .29296876 .53515627 .29459635 .53515627 .29736329 .5349579 .30126954 .53456118 .30517579 .5341746 .31184898 .5333964 .32128907 .53222659V.43945313C.31608073 .44062297 .3112793 .44140116 .30688478 .44178773 .30249024 .44218446 .2976888 .4423828 .29248048 .4423828 .24820964 .4423828 .2141927 .4280599 .19042969 .39941407 .16666667 .37076823 .15478516 .33789063 .15478516 .30078126V0H.06689453V.5234375Z"/>
<path id="font_3_24" d="M.27197267 .057617189C.33024089 .057617189 .37019859 .07964579 .3918457 .123703 .41349284 .16776021 .4243164 .21677144 .4243164 .2707367 .4243164 .31950379 .4165039 .35917155 .4008789 .38974 .3761393 .43785606 .3334961 .46191407 .27294923 .46191407 .21923828 .46191407 .18017578 .44143168 .15576172 .40046693 .13134766 .35950218 .119140628 .31008403 .119140628 .25221253 .119140628 .1966095 .13134766 .15027364 .15576172 .113204959 .18017578 .076146449 .21891277 .057617189 .27197267 .057617189M.27539063 .53808596C.34277345 .53808596 .3997396 .5156453 .44628907 .47076417 .49283854 .42588298 .5161133 .35985819 .5161133 .27268983 .5161133 .1884613 .49560548 .11886088 .45458985 .06388855 .41357423 .008926392 .3499349-.018554688 .26367188-.018554688 .19173177-.018554688 .13460286 .00575765 .092285159 .054382326 .04996745 .103006999 .028808594 .16829936 .028808594 .2502594 .028808594 .33806864 .05110677 .4079895 .095703128 .46002198 .14029949 .51206466 .20019531 .53808596 .27539063 .53808596M.27246095 .5361328V.5361328Z"/>
<path id="font_3_14" d="M.26611329 .53808596C.32503257 .53808596 .37296549 .5237274 .4099121 .49501039 .44685874 .46629334 .46907554 .41684977 .4765625 .3466797H.39111329C.38590495 .37890626 .37402345 .40568034 .35546876 .42700196 .33691407 .44832359 .3071289 .45898438 .26611329 .45898438 .2101237 .45898438 .17008464 .43170677 .1459961 .3771515 .1303711 .34176127 .122558597 .29808555 .122558597 .24612427 .122558597 .19384766 .1336263 .14984639 .15576172 .11412048 .17789714 .07840475 .21272786 .060546876 .2602539 .060546876 .29671226 .060546876 .3256022 .0716095 .34692384 .09373474 .36824546 .115859989 .38297526 .1461385 .39111329 .18457031H.4765625C.46679688 .115234378 .4423828 .06453451 .4033203 .032470704 .3642578 .00040690104 .31429038-.015625 .25341798-.015625 .1850586-.015625 .13053386 .009379069 .08984375 .059387208 .049153646 .10940552 .028808594 .17188008 .028808594 .24681092 .028808594 .33868919 .05110677 .41020204 .095703128 .4613495 .14029949 .51250717 .19710286 .53808596 .26611329 .53808596M.2524414 .5361328V.5361328Z"/>
<path id="font_3_16" d="M.28222657 .53515627C.31933595 .53515627 .355306 .52644857 .39013673 .5090332 .42496745 .49161784 .4514974 .4690806 .46972657 .4414215 .4873047 .41505433 .49902345 .3842977 .5048828 .3491516 .5100911 .32506309 .5126953 .28647868 .5126953 .23339844H.12939453C.13102214 .18033855 .14355469 .13777669 .16699219 .10571289 .19042969 .073649089 .22672527 .057617189 .2758789 .057617189 .32177735 .057617189 .35839845 .07261658 .3857422 .10261536 .4013672 .12003072 .4124349 .14018758 .4189453 .16308594H.5053711C.50309249 .14398194 .49552409 .122690837 .48266603 .09921265 .46980796 .07574463 .45540367 .05656433 .43945313 .041671754 .4127604 .01576233 .37972007-.0017242432 .34033204-.010787964 .3191732-.01596578 .2952474-.018554688 .2685547-.018554688 .20345052-.018554688 .14827474 .0051472985 .103027347 .05255127 .05777995 .09995524 .03515625 .16634114 .03515625 .25170899 .03515625 .33576457 .057942708 .40401713 .103515628 .45646668 .14908855 .5089264 .20865886 .53515627 .28222657 .53515627M.42236329 .30371095C.41878257 .34191896 .41048179 .37245179 .39746095 .39530946 .3733724 .4377594 .33317057 .45898438 .27685548 .45898438 .23649089 .45898438 .20263672 .44437156 .17529297 .41514588 .14794922 .3859202 .13346355 .34877525 .13183594 .30371095H.42236329M.27392579 .5361328V.5361328Z"/>
<path id="font_3_27" d="M.11669922 .1640625C.11930338 .13463338 .12662761 .11207072 .13867188 .09637451 .1608073 .06793213 .19921875 .053710939 .25390626 .053710939 .28645835 .053710939 .31510417 .060806276 .33984376 .07499695 .36458335 .08919779 .37695313 .11115011 .37695313 .14085388 .37695313 .16337586 .36702476 .18051148 .34716798 .19226074 .33447267 .19944255 .30940757 .20775859 .27197267 .21720886L.20214844 .2348175C.15755208 .24590557 .12467448 .25829569 .103515628 .27198792 .06575521 .29579164 .046875 .32873027 .046875 .37080384 .046875 .42036439 .064697269 .46046958 .1003418 .49111939 .13598633 .52177938 .18391927 .5371094 .24414063 .5371094 .32291667 .5371094 .37972007 .5139974 .41455079 .46777345 .4363607 .43847657 .4469401 .40690104 .44628907 .37304688H.36328126C.36165367 .39269004 .35465495 .41055808 .34228517 .426651 .32210288 .44950868 .28710938 .4609375 .23730469 .4609375 .20410156 .4609375 .17895508 .45461528 .16186524 .44197084 .14477539 .42933656 .13623047 .41264854 .13623047 .39190675 .13623047 .36922203 .14746094 .35107423 .16992188 .33746339 .1829427 .32936607 .20214844 .32221986 .22753906 .31602479L.28564454 .3018341C.34879557 .28650413 .39111329 .27166749 .41259767 .25732423 .44677735 .23482259 .4638672 .19944255 .4638672 .15118408 .4638672 .10455322 .44620768 .06428019 .41088868 .03036499 .37556968-.0035502117 .32177735-.020507813 .24951172-.020507813 .17171224-.020507813 .116617839-.002802531 .084228519 .032608034 .05183919 .06801859 .034505208 .111836757 .032226564 .1640625H.11669922M.24658203 .5361328V.5361328Z"/>
<path id="font_3_1" d="M0 0Z"/>
<path id="font_3_30" d="M.107421878 .5234375 .24707031 .09725952 .3930664 .5234375H.4892578L.2919922 0H.19824219L.0053710939 .5234375H.107421878Z"/>
<path id="font_3_20" d="M.064453128 .5205078H.1538086V0H.064453128V.5205078M.064453128 .71777346H.1538086V.61816409H.064453128V.71777346Z"/>
<path id="font_3_28" d="M.08203125 .66796877H.17089844V.5234375H.25439454V.4501953H.17089844V.110183719C.17089844 .09202576 .17708333 .07986959 .18945313 .07371521 .19628906 .07014465 .2076823 .068359378 .22363281 .068359378 .22786458 .068359378 .23242188 .06846619 .23730469 .06867981 .2421875 .0689036 .24788411 .06944784 .25439454 .0703125V0C.24430339-.0031026204 .23380535-.005340576 .22290039-.006713867 .21199544-.008097331 .20019531-.0087890629 .1875-.0087890629 .14648438-.0087890629 .118652347 .0016988119 .104003909 .02267456 .08935547 .04365031 .08203125 .070882167 .08203125 .10437012V.4501953H.011230469V.5234375H.08203125V.66796877Z"/>
<path id="font_3_29" d="M.15234375 .5234375V.17590332C.15234375 .1491801 .15657552 .12734477 .16503906 .11039734 .18066406 .07911682 .20979817 .06347656 .2524414 .06347656 .3136393 .06347656 .355306 .09085083 .3774414 .14559937 .3894857 .17492676 .3955078 .21516927 .3955078 .2663269V.5234375H.48339845V0H.40039063L.4013672 .0771637C.38997398 .057195028 .3758138 .040339155 .35888673 .02659607 .32535807-.00090026858 .28466798-.0146484379 .2368164-.0146484379 .16227214-.0146484379 .11149088 .010299683 .084472659 .060195924 .06982422 .08693949 .0625 .12265015 .0625 .16732788V.5234375H.15234375M.27294923 .5361328V.5361328Z"/>
<path id="font_3_12" d="M.13183594 .1394043C.13183594 .114095058 .14111328 .09413656 .15966797 .07952881 .17822266 .06492106 .20019531 .057617189 .22558594 .057617189 .2565104 .057617189 .28645835 .06471761 .3154297 .07891846 .3642578 .10247803 .38867188 .14127605 .38867188 .1953125V.26611329C.3779297 .25886027 .36409507 .2528127 .34716798 .24797058 .33024089 .24313863 .3136393 .23983257 .29736329 .23805237L.24414063 .23184204C.21223958 .22799683 .1883138 .22153218 .17236328 .21244812 .14534505 .19718933 .13183594 .17284139 .13183594 .1394043M.34472657 .31689454C.36490885 .3194987 .37841798 .32796226 .3852539 .34228517 .38916017 .35012818 .39111329 .36140443 .39111329 .3761139 .39111329 .40618388 .38045249 .42799888 .35913087 .44155885 .33780924 .455129 .30729167 .46191407 .26757813 .46191407 .22167969 .46191407 .18912761 .44948326 .16992188 .42462159 .15917969 .4108785 .15218099 .39043174 .14892578 .36328126H.06689453C.06852213 .42791749 .08943685 .47288514 .12963867 .4981842 .1698405 .5234833 .21647136 .5361328 .26953126 .5361328 .3310547 .5361328 .38102214 .52441409 .4194336 .50097659 .45751954 .47753907 .4765625 .4410502 .4765625 .39151V.08985901C.4765625 .08073425 .47843424 .073404949 .48217774 .067871097 .48592124 .06233724 .4938151 .059570314 .5058594 .059570314 .5097656 .059570314 .51416018 .059814454 .51904299 .060302736 .5239258 .060791017 .5291341 .061523439 .53466799 .0625V-.0028076173C.5209961-.00676473 .5105794-.009236653 .50341799-.010223389 .4962565-.011220296 .48649089-.01171875 .4741211-.01171875 .44384767-.01171875 .421875-.0009104411 .40820313 .020706177 .40104167 .032170614 .3959961 .048380536 .3930664 .06933594 .37516276 .045633954 .34944663 .025060019 .31591798 .0076141359 .2823893-.009831746 .2454427-.018554688 .20507813-.018554688 .15657552-.018554688 .11694336-.0037790936 .08618164 .025772095 .055419923 .055323285 .040039064 .092300418 .040039064 .13670349 .040039064 .18535869 .05517578 .22307332 .08544922 .24984741 .115722659 .2766215 .1554362 .29311119 .20458985 .2993164L.34472657 .31689454M.27197267 .5361328V.5361328Z"/>
<path id="font_3_21" d="M.06689453 .71777346H.15478516V0H.06689453V.71777346Z"/>
<path id="font_3_22" d="M.064453128 .5234375H.15136719V.44921876C.17220052 .4749349 .19108074 .49365235 .20800781 .5053711 .23697917 .52522787 .26985679 .53515627 .30664063 .53515627 .34830729 .53515627 .38183595 .52490237 .40722657 .50439456 .42154948 .49267579 .4345703 .4754232 .44628907 .45263673 .4658203 .4806315 .48876954 .5013835 .5151367 .5148926 .5415039 .5284017 .5711263 .53515627 .6040039 .53515627 .6743164 .53515627 .72216799 .5097402 .7475586 .45890809 .76123049 .43154399 .7680664 .3947296 .7680664 .34846498V0H.6767578V.36367799C.6767578 .39853923 .6680501 .42248536 .65063479 .43551637 .6332194 .44855754 .6119792 .45507813 .58691409 .45507813 .5524089 .45507813 .5227051 .44350688 .49780274 .42036439 .4729004 .39723207 .46044923 .35861717 .46044923 .30451966V0H.37109376V.3416748C.37109376 .37719728 .36686198 .4031016 .35839845 .41938783 .3450521 .4438324 .32014976 .4560547 .2836914 .4560547 .25048829 .4560547 .22029622 .44318138 .19311524 .4174347 .16593425 .3916982 .15234375 .34510295 .15234375 .27764894V0H.064453128V.5234375Z"/>
<path id="font_3_33" d="M.39111329 .5234375H.48828126C.47591148 .48987834 .44840495 .41330973 .40576173 .2937317 .3738607 .20380657 .34716798 .13049825 .3256836 .07380676 .27490235-.059921266 .23909505-.14145915 .21826172-.17080689 .19742839-.2001648 .1616211-.21484375 .110839847-.21484375 .098470058-.21484375 .08894857-.21435039 .08227539-.21336365 .07560221-.21238709 .06738281-.21058655 .057617189-.20796204V-.1274414C.072916667-.13167317 .083984378-.13427735 .09082031-.1352539 .09765625-.13623047 .10367838-.13671875 .10888672-.13671875 .12516277-.13671875 .13712566-.1340332 .14477539-.12866211 .15242513-.123291019 .15885417-.11669922 .1640625-.10888672 .16569011-.106282558 .17154949-.092936199 .18164063-.068847659 .19173177-.044759115 .19905599-.026855469 .20361328-.015136719L.010253906 .5234375H.10986328L.25 .09727478 .39111329 .5234375M.24951172 .5361328V.5361328Z"/>
<path id="font_4_1" d="M0 0Z"/>
<path id="font_3_7" d="M.37841798 .7373047C.46923829 .7373047 .53971359 .71332809 .58984377 .66537478 .63997396 .61742147 .66780599 .5629476 .67333987 .5019531H.5786133C.5678711 .54817709 .5464681 .58479818 .5144043 .6118164 .48234049 .63883468 .43733726 .65234377 .37939454 .65234377 .3087565 .65234377 .25170899 .62754318 .20825196 .5779419 .16479492 .52834066 .1430664 .45231629 .1430664 .34986878 .1430664 .26594544 .16267903 .19788106 .2019043 .14567566 .24112956 .09348043 .29964195 .06738281 .3774414 .06738281 .449056 .06738281 .50358077 .094823207 .5410156 .14970398 .5608724 .17860413 .5756836 .21659343 .5854492 .26367188H.6801758C.6717122 .18815105 .64371749 .12483724 .5961914 .07373047 .5392253 .012207031 .46240235-.018554688 .36572267-.018554688 .2823893-.018554688 .21240235 .006688436 .15576172 .057174684 .081217449 .12394714 .043945314 .2270406 .043945314 .36645509 .043945314 .47232057 .0719401 .5591278 .12792969 .62687686 .18847656 .7004954 .27197267 .7373047 .37841798 .7373047M.35888673 .7373047V.7373047Z"/>
<path id="font_3_15" d="M.12011719 .2553711C.12011719 .19923909 .1319987 .15224712 .15576172 .11439514 .17952474 .076543178 .21761067 .057617189 .27001954 .057617189 .31070964 .057617189 .3441569 .075154628 .37036134 .11022949 .39656578 .14531453 .40966798 .19565328 .40966798 .26124574 .40966798 .32748924 .39615885 .37651573 .36914063 .4083252 .3421224 .44014488 .3087565 .4560547 .26904298 .4560547 .22477214 .4560547 .18888347 .4390869 .16137696 .40515138 .13387044 .37121583 .12011719 .32128907 .12011719 .2553711M.2524414 .53222659C.29248048 .53222659 .32600913 .52381899 .35302735 .5070038 .36865235 .4972992 .38639323 .48031617 .40625 .4560547V.71875H.49072267V0H.4116211V.07229614C.39111329 .04023234 .36686198 .017074585 .3388672 .002822876 .3108724-.011428833 .2788086-.018554688 .24267578-.018554688 .18440755-.018554688 .13395183 .0059407555 .091308597 .05493164 .048665365 .10392252 .02734375 .16910808 .02734375 .25048829 .02734375 .32666017 .04679362 .39265953 .08569336 .44848634 .1245931 .5043132 .18017578 .53222659 .2524414 .53222659Z"/>
<path id="font_3_8" d="M.3515625 .08300781C.3844401 .08300781 .41145835 .08642578 .4326172 .09326172 .4703776 .10595703 .50130209 .1303711 .5253906 .1665039 .5445964 .19547527 .55843099 .23258464 .56689456 .27783204 .57177737 .30485026 .57421877 .32991538 .57421877 .35302735 .57421877 .44189454 .55655929 .51090499 .52124026 .5600586 .48592124 .6092122 .42903648 .63378909 .35058595 .63378909H.17822266V.08300781H.3515625M.080566409 .71777346H.37109376C.46972657 .71777346 .54622396 .6827545 .60058596 .6127167 .64908859 .54952499 .67333987 .46857707 .67333987 .36987306 .67333987 .2936503 .6590169 .22475688 .6303711 .16319275 .57991537 .054397584 .49316407 0 .3701172 0H.080566409V.71777346Z"/>
<path id="font_3_11" d="M.13964844 .23144531C.14192708 .19064331 .15152996 .1575063 .16845703 .1320343 .2006836 .084376018 .25748698 .060546876 .3388672 .060546876 .37532554 .060546876 .40852867 .06575521 .43847657 .076171878 .49641929 .096354167 .5253906 .13248189 .5253906 .18455506 .5253906 .22361756 .5131836 .25144959 .48876954 .26805116 .46402995 .2843882 .42529298 .29859925 .3725586 .3106842L.27539063 .3327484C.21191406 .3471222 .16699219 .36294047 .140625 .38020326 .095052089 .41016136 .072265628 .4549408 .072265628 .5145416 .072265628 .57902529 .094563808 .6319478 .13916016 .6733093 .18375652 .71467086 .24690755 .73535159 .32861329 .73535159 .4038086 .73535159 .46769206 .7172038 .5202637 .6809082 .57283529 .6446126 .5991211 .58658859 .5991211 .50683596H.5078125C.5029297 .5452474 .49251304 .57470706 .4765625 .59521487 .4469401 .6326497 .39664714 .6513672 .3256836 .6513672 .26839195 .6513672 .22721355 .63931277 .20214844 .61520388 .17708333 .591095 .16455078 .56307479 .16455078 .5311432 .16455078 .49595643 .17919922 .47021995 .2084961 .45393373 .22770183 .44350688 .27115885 .43047587 .3388672 .4148407L.43945313 .39187623C.48795573 .38079835 .5253906 .36565147 .5517578 .34643556 .59733077 .31288658 .6201172 .26419068 .6201172 .2003479 .6201172 .12085978 .59122726 .06401571 .53344729 .029815674 .47566734-.004384359 .40852867-.021484375 .33203126-.021484375 .24283855-.021484375 .17301433 .0013478597 .122558597 .04701233 .07210287 .0923411 .04736328 .15381877 .048339845 .23144531H.13964844M.3359375 .7373047V.7373047Z"/>
<path id="font_3_19" d="M.064453128 .71875H.15234375V.45214845C.17317708 .4786682 .19189453 .4973297 .2084961 .50813296 .2368164 .5267995 .2721354 .5361328 .31445313 .5361328 .39029948 .5361328 .44173179 .50957748 .46875 .45646668 .48339845 .42747499 .49072267 .38723756 .49072267 .3357544V0H.40039063V.32958985C.40039063 .3680013 .3955078 .39615885 .3857422 .4140625 .36979167 .44270835 .33984376 .45703126 .29589845 .45703126 .2594401 .45703126 .22639974 .4444987 .19677735 .4194336 .16715496 .3943685 .15234375 .34700523 .15234375 .27734376V0H.064453128V.71875Z"/>
<path id="font_3_13" d="M.057617189 .71875H.1430664V.45948792C.16227214 .4847056 .18522136 .50394698 .21191406 .5172119 .23860677 .53047689 .26757813 .5371094 .29882813 .5371094 .36393229 .5371094 .41674806 .5147095 .4572754 .46990968 .49780274 .42510987 .5180664 .35905458 .5180664 .27174378 .5180664 .1889801 .49804688 .12022909 .4580078 .06549072 .41796876 .010762532 .36246745-.016601563 .2915039-.016601563 .25179038-.016601563 .21826172-.006942749 .19091797 .012374878 .17464192 .023839316 .15722656 .042175294 .13867188 .06738281V0H.057617189V.71875M.2861328 .061523439C.33365885 .061523439 .36922203 .08037821 .39282228 .11808777 .41642253 .1558075 .42822267 .20555115 .42822267 .26731874 .42822267 .32227073 .41642253 .3677877 .39282228 .40386964 .36922203 .43996177 .33447267 .4580078 .28857423 .4580078 .24853516 .4580078 .21346028 .44321189 .18334961 .41362 .15323894 .3840383 .1381836 .3352712 .1381836 .26731874 .1381836 .21822612 .14436849 .17840068 .15673828 .1478424 .17985027 .090296428 .22298177 .061523439 .2861328 .061523439Z"/>
<path id="font_3_5" d="M.2705078 .7001953C.3610026 .7001953 .42643229 .66289779 .46679688 .5883026 .49804688 .5306447 .5136719 .45165 .5136719 .35131837 .5136719 .25620524 .49951173 .17754109 .4711914 .11532593 .43017579 .026072184 .3631185-.018554688 .27001954-.018554688 .18603516-.018554688 .123535159 .017929078 .08251953 .09089661 .048339845 .15180969 .03125 .23357137 .03125 .33618165 .03125 .41565959 .041503908 .48390199 .06201172 .5409088 .10042318 .6470998 .16992188 .7001953 .2705078 .7001953M.26953126 .061523439C.31510417 .061523439 .35139976 .08168539 .37841798 .12200928 .4054362 .16234334 .4189453 .23747762 .4189453 .3474121 .4189453 .42676798 .4091797 .49205528 .38964845 .5432739 .3701172 .59450277 .332194 .6201172 .2758789 .6201172 .2241211 .6201172 .1862793 .59580489 .16235352 .5471802 .13842774 .4985555 .12646485 .42692057 .12646485 .3322754 .12646485 .26105754 .13411458 .20381673 .14941406 .16055298 .17285156 .09453329 .21289063 .061523439 .26953126 .061523439Z"/>
<path id="font_3_9" d="M.076171878 .71777346H.19091797L.55322268 .1362915V.71777346H.6455078V0H.5366211L.16894531 .58084109V0H.076171878V.71777346M.3544922 .71777346V.71777346Z"/>
<path id="font_3_25" d="M.28515626 .057617189C.32617188 .057617189 .36027018 .07486979 .38745118 .109375 .41463218 .14389038 .42822267 .1954956 .42822267 .26419068 .42822267 .3060608 .42220054 .34204103 .41015626 .37213136 .38736979 .43003337 .34570313 .45898438 .28515626 .45898438 .22428386 .45898438 .18261719 .42840068 .16015625 .36723329 .14811199 .33451844 .14208985 .29297386 .14208985 .24259949 .14208985 .20204163 .14811199 .16753133 .16015625 .1390686 .1829427 .08476766 .22460938 .057617189 .28515626 .057617189M.057617189 .5205078H.1430664V.45162965C.16064453 .47540284 .17985027 .49379985 .2006836 .5068207 .23030599 .5263621 .26513673 .5361328 .30517579 .5361328 .36442057 .5361328 .41471354 .5133667 .4560547 .46783448 .49739585 .42230226 .5180664 .3572693 .5180664 .2727356 .5180664 .1585083 .48828126 .07691447 .42871095 .027954102 .39095054-.0030517579 .34700523-.018554688 .296875-.018554688 .25748698-.018554688 .22444661-.009984334 .1977539 .007156372 .1821289 .016860962 .16471355 .033518476 .14550781 .057128908V-.20898438H.057617189V.5205078Z"/>
<path id="font_3_18" d="M.24902344 .53222659C.29003907 .53222659 .32584635 .5220744 .3564453 .50177 .37304688 .49030558 .38997398 .4736023 .40722657 .45166017V.5185547H.48828126V.04234314C.48828126-.024154664 .47851563-.07663473 .45898438-.115097049 .42252604-.18615215 .35367839-.22167969 .2524414-.22167969 .1961263-.22167969 .14876302-.20906575 .11035156-.18383789 .0719401-.15861003 .05045573-.119140628 .045898439-.06542969H.1352539C.13948567-.08873495 .14794922-.10669454 .16064453-.11930847 .1805013-.13872783 .2117513-.1484375 .25439454-.1484375 .32177735-.1484375 .3658854-.12467448 .38671876-.07714844 .39908854-.04916382 .40478517 .0007985433 .4038086 .07273865 .38623048 .04588318 .36507163 .025904337 .34033204 .012802124 .31559245-.000289917 .2828776-.0068359377 .2421875-.0068359377 .18554688-.0068359377 .13598633 .013280232 .09350586 .053512575 .05102539 .09375509 .029785157 .16030376 .029785157 .25315858 .029785157 .34080506 .051188154 .40922547 .09399414 .4584198 .13680013 .5076243 .18847656 .53222659 .24902344 .53222659M.40722657 .26342774C.40722657 .328125 .39388023 .37607829 .3671875 .4072876 .34049479 .43849693 .30647788 .45410157 .26513673 .45410157 .20328777 .45410157 .16097005 .4251658 .1381836 .3672943 .12613933 .33641053 .12011719 .29593406 .12011719 .24586487 .12011719 .1870168 .13208008 .14223226 .15600586 .11151123 .17993164 .0807902 .21207683 .06542969 .2524414 .06542969 .31559245 .06542969 .36002604 .09387716 .3857422 .1507721 .4000651 .18295796 .40722657 .22050984 .40722657 .26342774M.25927735 .5361328V.5361328Z"/>
<path id="font_3_17" d="M.08642578 .6021576C.08772787 .638443 .09407552 .66500857 .10546875 .68185427 .12597656 .7116597 .16552735 .7265625 .2241211 .7265625 .22965496 .7265625 .23535156 .7263997 .24121094 .7260742 .24707031 .7257487 .2537435 .72526046 .26123048 .7246094V.64453127C.25211589 .6449687 .2455241 .6452382 .24145508 .64533999 .23738607 .64545187 .2335612 .6455078 .22998047 .6455078 .20328777 .6455078 .18733724 .6386719 .1821289 .625 .17692058 .6113281 .1743164 .5764974 .1743164 .5205078H.26123048V.45117188H.17333985V0H.08642578V.45117188H.013671875V.5205078H.08642578V.6021576Z"/>
<path id="font_3_23" d="M.064453128 .5234375H.14794922V.44921876C.1726888 .47981773 .19889324 .50179037 .2265625 .5151367 .25423179 .5284831 .2849935 .53515627 .31884767 .53515627 .3930664 .53515627 .44319663 .5092519 .46923829 .45744325 .4835612 .42910258 .49072267 .38853965 .49072267 .3357544V0H.4013672V.3299408C.4013672 .36188255 .39664714 .38762919 .38720704 .4071808 .37158204 .4397634 .34326173 .4560547 .3022461 .4560547 .28141276 .4560547 .2643229 .4539388 .25097657 .44970704 .22688802 .4425354 .20572917 .42819724 .1875 .4066925 .17285156 .38941957 .16333008 .37157694 .15893555 .35316468 .15454102 .3347524 .15234375 .30844117 .15234375 .27423097V0H.064453128V.5234375M.2709961 .5361328V.5361328Z"/>
<path id="font_3_6" d="M.110839847 .51660159H.21289063V.41015626H.110839847V.51660159M.110839847 .10644531H.21289063V0H.110839847V.10644531Z"/>
<path id="font_3_3" d="M.041503908 .32421876H.2866211V.23339844H.041503908V.32421876Z"/>
<path id="font_3_32" d="M.0146484379 .5234375H.12841797L.24853516 .33918763 .3701172 .5234375 .47705079 .5209961 .30078126 .26831056 .48486329 0H.3725586L.24267578 .19647217 .11669922 0H.0053710939L.18945313 .26831056 .0146484379 .5234375Z"/>
<path id="font_5_1" d="M.06933594 .48828126V.5830078C.11328125 .58496096 .14404297 .5878906 .1616211 .5917969 .18961589 .59798178 .21240235 .61035159 .22998047 .62890627 .24202474 .64160159 .2511393 .6585286 .25732423 .6796875 .26090495 .6923828 .2626953 .70182296 .2626953 .7080078H.37841798V0H.23583985V.48828126H.06933594Z"/>
<path id="font_6_1" d="M0 0Z"/>
<path id="font_5_2" d="M.03125 0C.032552083 .05090332 .04345703 .09739685 .063964847 .13948059 .08382162 .18679302 .13069661 .2368164 .20458985 .28955079 .26871745 .33544923 .31022135 .3683065 .32910157 .38812257 .3580729 .418986 .3725586 .45276896 .3725586 .48947145 .3725586 .51935836 .3642578 .5442098 .34765626 .5640259 .3310547 .583842 .30729167 .59375 .2763672 .59375 .23404949 .59375 .20524089 .5780182 .1899414 .54655459 .18115235 .5283966 .17594402 .49953208 .1743164 .45996095H.0390625C.041341146 .5201823 .052246095 .56884768 .071777347 .60595706 .10888672 .67659506 .17480469 .71191409 .26953126 .71191409 .34440104 .71191409 .40397135 .6911621 .4482422 .6496582 .49251304 .6081543 .51464846 .55322268 .51464846 .48486329 .51464846 .43245445 .49902345 .38590495 .46777345 .34521485 .44726563 .31819663 .41357423 .28808595 .36669923 .2548828L.31103517 .21533203C.27620445 .19059246 .25236003 .1726888 .23950196 .1616211 .22664388 .15055339 .21582031 .13769531 .20703125 .123046878H.5161133V0H.03125Z"/>
<path id="font_5_3" d="M.16308594 .21679688C.16308594 .18836467 .16764324 .16483052 .17675781 .14619446 .19368489 .11188253 .22444661 .09472656 .26904298 .09472656 .29638673 .09472656 .3202311 .10410563 .34057618 .12286377 .36092124 .1416219 .37109376 .1686198 .37109376 .20385742 .37109376 .2505188 .35221354 .28167726 .31445313 .29733277 .29296876 .30614219 .2591146 .31054688 .21289063 .31054688V.41015626C.25813804 .41080729 .28971354 .41522727 .3076172 .42341615 .33854167 .4371592 .3540039 .46497093 .3540039 .5068512 .3540039 .53401187 .34611003 .5560964 .33032228 .57310488 .31453453 .5901235 .29231773 .5986328 .26367188 .5986328 .23079427 .5986328 .20662435 .58817037 .19116211 .5672455 .17569988 .54633077 .16829427 .5183818 .16894531 .48339845H.0390625C.040364583 .5186259 .04638672 .552063 .057128908 .5837097 .06852213 .61144 .08642578 .6370494 .110839847 .6605377 .12906902 .6771698 .15071614 .68989059 .17578125 .69869998 .20084636 .70750936 .23160808 .71191409 .2680664 .71191409 .33577476 .71191409 .39038087 .69436648 .43188478 .65927127 .47338868 .624176 .49414063 .57708236 .49414063 .5179901 .49414063 .4762014 .48177085 .4409434 .45703126 .4122162 .44140626 .3942617 .42513023 .38201905 .40820313 .37548829 .42089845 .37548829 .4391276 .36456809 .46289063 .34272767 .4983724 .30980937 .5161133 .26483155 .5161133 .20779419 .5161133 .14782715 .49536134 .09510803 .45385743 .04963684 .41235353 .004175822 .35091148-.018554688 .26953126-.018554688 .16927083-.018554688 .099609378 .014226277 .060546876 .07978821 .040039064 .11469015 .028645834 .1603597 .026367188 .21679688H.16308594Z"/>
<path id="font_3_4" d="M.08544922 .10644531H.1875V0H.08544922V.10644531Z"/>
<path id="font_3_2" d="M.08300781-.10253906C.10546875-.098612468 .12125651-.08274841 .1303711-.0549469 .1352539-.040227254 .13769531-.026000977 .13769531-.012268066 .13769531-.009979248 .13761394-.00793457 .13745117-.006134033 .1372884-.004333496 .13688152-.0022888184 .13623047 0H.08300781V.10644531H.1875V.0078125C.1875-.030924479 .1796875-.064941409 .1640625-.09423828 .1484375-.123535159 .12141927-.14160156 .08300781-.1484375V-.10253906Z"/>
<path id="font_3_31" d="M.10498047 .5234375 .2055664 .110946658 .3076172 .5234375H.40625L.50878909 .11338806 .61572268 .5234375H.7036133L.5517578 0H.46044923L.3540039 .40516664 .25097657 0H.15966797L.0087890629 .5234375H.10498047Z"/>
</defs>
<g clip-path="url(#clip_0)">
<g clip-path="url(#clip_1)">
<path transform="matrix(1,0,0,-1,-.778381,540)" d="M0 539.9999H719.9999V.00003079383H0Z" fill="#ffffff" fill-rule="evenodd"/>
<use data-text="v" xlink:href="#font_2_15" transform="matrix(16,0,0,-16,.34657897,43.90008)"/>
<use data-text="m" xlink:href="#font_2_8" transform="matrix(16,0,0,-16,9.948179,43.90008)"/>
<use data-text="_" xlink:href="#font_2_3" transform="matrix(16,0,0,-16,19.54978,43.90008)"/>
<use data-text="a" xlink:href="#font_2_4" transform="matrix(16,0,0,-16,29.15138,43.90008)"/>
<use data-text="r" xlink:href="#font_2_11" transform="matrix(16,0,0,-16,38.752985,43.90008)"/>
<use data-text="e" xlink:href="#font_2_7" transform="matrix(16,0,0,-16,48.354585,43.90008)"/>
<use data-text="a" xlink:href="#font_2_4" transform="matrix(16,0,0,-16,57.956186,43.90008)"/>
<use data-text="_" xlink:href="#font_2_3" transform="matrix(16,0,0,-16,67.557788,43.90008)"/>
<use data-text="s" xlink:href="#font_2_12" transform="matrix(16,0,0,-16,77.159389,43.90008)"/>
<use data-text="t" xlink:href="#font_2_13" transform="matrix(16,0,0,-16,86.76099,43.90008)"/>
<use data-text="r" xlink:href="#font_2_11" transform="matrix(16,0,0,-16,96.36259,43.90008)"/>
<use data-text="u" xlink:href="#font_2_14" transform="matrix(16,0,0,-16,105.96419,43.90008)"/>
<use data-text="c" xlink:href="#font_2_5" transform="matrix(16,0,0,-16,115.56579,43.90008)"/>
<use data-text="t" xlink:href="#font_2_13" transform="matrix(16,0,0,-16,125.16739,43.90008)"/>
<use data-text=" " xlink:href="#font_2_1" transform="matrix(16,0,0,-16,134.76898,43.90008)"/>
<path transform="matrix(.00007874014,0,0,.00007874014,29.22161,58.00009)" stroke-width="9525" stroke-linecap="butt" stroke-miterlimit="8" stroke-linejoin="miter" fill="none" stroke="#000000" d="M-.01407624 .3337404H1066800V1117600H-.01407624Z"/>
<path transform="matrix(1,0,0,-1,-.778381,540)" d="M29.99999 483.9999H114V465.9999H29.99999Z" fill="#cbcbcb" fill-rule="evenodd"/>
<path transform="matrix(.00007874014,0,0,.00007874014,29.22161,56.00009)" stroke-width="9525" stroke-linecap="butt" stroke-miterlimit="8" stroke-linejoin="miter" fill="none" stroke="#000000" d="M-.01407624 .3298341H1066800V228600.4H-.01407624Z"/>
<use data-text="v" xlink:href="#font_2_15" transform="matrix(14,0,0,-14,46.34657,69.89998)"/>
<use data-text="m" xlink:href="#font_2_8" transform="matrix(14,0,0,-14,54.74797,69.89998)"/>
<use data-text="_" xlink:href="#font_2_3" transform="matrix(14,0,0,-14,63.14937,69.89998)"/>
<use data-text="e" xlink:href="#font_2_7" transform="matrix(14,0,0,-14,71.550769,69.89998)"/>
<use data-text="n" xlink:href="#font_2_9" transform="matrix(14,0,0,-14,79.95217,69.89998)"/>
<use data-text="d" xlink:href="#font_2_6" transform="matrix(14,0,0,-14,88.35358,69.89998)"/>
<use data-text=" " xlink:href="#font_2_1" transform="matrix(14,0,0,-14,96.754978,69.89998)"/>
<path transform="matrix(1,0,0,-1,-.778381,540)" d="M29.99999 447.9999H114V429.9999H29.99999Z" fill="#cbcbcb" fill-rule="evenodd"/>
<path transform="matrix(.00007874014,0,0,.00007874014,29.22161,92.00009)" stroke-width="9525" stroke-linecap="butt" stroke-miterlimit="8" stroke-linejoin="miter" fill="none" stroke="#000000" d="M-.01407624-.0998534H1066800V228599.9H-.01407624Z"/>
<use data-text="r" xlink:href="#font_2_11" transform="matrix(14,0,0,-14,58.34657,105.89998)"/>
<use data-text="/" xlink:href="#font_2_2" transform="matrix(14,0,0,-14,66.74797,105.89998)"/>
<use data-text="o" xlink:href="#font_2_10" transform="matrix(14,0,0,-14,75.14937,105.89998)"/>
<use data-text=" " xlink:href="#font_2_1" transform="matrix(14,0,0,-14,83.550769,105.89998)"/>
<path transform="matrix(1,0,0,-1,-.778381,540)" d="M29.99999 412H114V394H29.99999Z" fill="#cbcbcb" fill-rule="evenodd"/>
<path transform="matrix(.00007874014,0,0,.00007874014,29.22161,128)" stroke-width="9525" stroke-linecap="butt" stroke-miterlimit="8" stroke-linejoin="miter" fill="none" stroke="#000000" d="M-.01407624 .0828858H1066800V228600.1H-.01407624Z"/>
<use data-text="v" xlink:href="#font_2_15" transform="matrix(14,0,0,-14,41.34658,141.89998)"/>
<use data-text="m" xlink:href="#font_2_8" transform="matrix(14,0,0,-14,49.747983,141.89998)"/>
<use data-text="_" xlink:href="#font_2_3" transform="matrix(14,0,0,-14,58.149385,141.89998)"/>
<use data-text="n" xlink:href="#font_2_9" transform="matrix(14,0,0,-14,66.55078,141.89998)"/>
<use data-text="e" xlink:href="#font_2_7" transform="matrix(14,0,0,-14,74.95218,141.89998)"/>
<use data-text="x" xlink:href="#font_2_17" transform="matrix(14,0,0,-14,83.353588,141.89998)"/>
<use data-text="t" xlink:href="#font_2_13" transform="matrix(14,0,0,-14,91.75499,141.89998)"/>
<use data-text=" " xlink:href="#font_2_1" transform="matrix(14,0,0,-14,100.15639,141.89998)"/>
<path transform="matrix(1,0,0,-1,-.778381,540)" d="M29.99999 465.9999H114V447.9999H29.99999Z" fill="#cbcbcb" fill-rule="evenodd"/>
<path transform="matrix(.00007874014,0,0,.00007874014,29.22161,74.00009)" stroke-width="9525" stroke-linecap="butt" stroke-miterlimit="8" stroke-linejoin="miter" fill="none" stroke="#000000" d="M-.01407624-.1350096H1066800V228599.9H-.01407624Z"/>
<use data-text="v" xlink:href="#font_2_15" transform="matrix(14,0,0,-14,37.34657,87.89998)"/>
<use data-text="m" xlink:href="#font_2_8" transform="matrix(14,0,0,-14,45.74797,87.89998)"/>
<use data-text="_" xlink:href="#font_2_3" transform="matrix(14,0,0,-14,54.14937,87.89998)"/>
<use data-text="s" xlink:href="#font_2_12" transform="matrix(14,0,0,-14,62.55077,87.89998)"/>
<use data-text="t" xlink:href="#font_2_13" transform="matrix(14,0,0,-14,70.95217,87.89998)"/>
<use data-text="a" xlink:href="#font_2_4" transform="matrix(14,0,0,-14,79.35358,87.89998)"/>
<use data-text="r" xlink:href="#font_2_11" transform="matrix(14,0,0,-14,87.754978,87.89998)"/>
<use data-text="t" xlink:href="#font_2_13" transform="matrix(14,0,0,-14,96.15637,87.89998)"/>
<use data-text=" " xlink:href="#font_2_1" transform="matrix(14,0,0,-14,104.55777,87.89998)"/>
<path transform="matrix(.00007874014,0,0,.00007874014,29.22161,178.00009)" stroke-width="9525" stroke-linecap="butt" stroke-miterlimit="8" stroke-linejoin="miter" fill="none" stroke="#000000" d="M-.01407624 .06811535H1066800V1117600H-.01407624Z"/>
<path transform="matrix(1,0,0,-1,-.778381,540)" d="M29.99999 364H114V346H29.99999Z" fill="#cbcbcb" fill-rule="evenodd"/>
<path transform="matrix(.00007874014,0,0,.00007874014,29.22161,176)" stroke-width="9525" stroke-linecap="butt" stroke-miterlimit="8" stroke-linejoin="miter" fill="none" stroke="#000000" d="M-.01407624 .1766358H1066800V228600.2H-.01407624Z"/>
<use data-text="v" xlink:href="#font_2_15" transform="matrix(14,0,0,-14,46.34657,189.89998)"/>
<use data-text="m" xlink:href="#font_2_8" transform="matrix(14,0,0,-14,54.74797,189.89998)"/>
<use data-text="_" xlink:href="#font_2_3" transform="matrix(14,0,0,-14,63.14937,189.89998)"/>
<use data-text="e" xlink:href="#font_2_7" transform="matrix(14,0,0,-14,71.550769,189.89998)"/>
<use data-text="n" xlink:href="#font_2_9" transform="matrix(14,0,0,-14,79.95217,189.89998)"/>
<use data-text="d" xlink:href="#font_2_6" transform="matrix(14,0,0,-14,88.35358,189.89998)"/>
<use data-text=" " xlink:href="#font_2_1" transform="matrix(14,0,0,-14,96.754978,189.89998)"/>
<path transform="matrix(1,0,0,-1,-.778381,540)" d="M29.99999 328H114V310H29.99999Z" fill="#cbcbcb" fill-rule="evenodd"/>
<path transform="matrix(.00007874014,0,0,.00007874014,29.22161,212)" stroke-width="9525" stroke-linecap="butt" stroke-miterlimit="8" stroke-linejoin="miter" fill="none" stroke="#000000" d="M-.01407624-.003051698H1066800V228600H-.01407624Z"/>
<use data-text="r" xlink:href="#font_2_11" transform="matrix(14,0,0,-14,58.34657,225.89998)"/>
<use data-text="/" xlink:href="#font_2_2" transform="matrix(14,0,0,-14,66.74797,225.89998)"/>
<use data-text="w" xlink:href="#font_2_16" transform="matrix(14,0,0,-14,75.14937,225.89998)"/>
<use data-text=" " xlink:href="#font_2_1" transform="matrix(14,0,0,-14,83.550769,225.89998)"/>
<path transform="matrix(1,0,0,-1,-.778381,540)" d="M29.99999 292H114V274H29.99999Z" fill="#cbcbcb" fill-rule="evenodd"/>
<path transform="matrix(.00007874014,0,0,.00007874014,29.22161,248)" stroke-width="9525" stroke-linecap="butt" stroke-miterlimit="8" stroke-linejoin="miter" fill="none" stroke="#000000" d="M-.01407624 .0672608H1066800V228600.1H-.01407624Z"/>
<use data-text="v" xlink:href="#font_2_15" transform="matrix(14,0,0,-14,41.34658,261.89997)"/>
<use data-text="m" xlink:href="#font_2_8" transform="matrix(14,0,0,-14,49.747983,261.89997)"/>
<use data-text="_" xlink:href="#font_2_3" transform="matrix(14,0,0,-14,58.149385,261.89997)"/>
<use data-text="n" xlink:href="#font_2_9" transform="matrix(14,0,0,-14,66.55078,261.89997)"/>
<use data-text="e" xlink:href="#font_2_7" transform="matrix(14,0,0,-14,74.95218,261.89997)"/>
<use data-text="x" xlink:href="#font_2_17" transform="matrix(14,0,0,-14,83.353588,261.89997)"/>
<use data-text="t" xlink:href="#font_2_13" transform="matrix(14,0,0,-14,91.75499,261.89997)"/>
<use data-text=" " xlink:href="#font_2_1" transform="matrix(14,0,0,-14,100.15639,261.89997)"/>
<path transform="matrix(1,0,0,-1,-.778381,540)" d="M29.99999 346H114V328H29.99999Z" fill="#cbcbcb" fill-rule="evenodd"/>
<path transform="matrix(.00007874014,0,0,.00007874014,29.22161,194)" stroke-width="9525" stroke-linecap="butt" stroke-miterlimit="8" stroke-linejoin="miter" fill="none" stroke="#000000" d="M-.01407624 .2117921H1066800V228600.2H-.01407624Z"/>
<use data-text="v" xlink:href="#font_2_15" transform="matrix(14,0,0,-14,37.34657,207.89998)"/>
<use data-text="m" xlink:href="#font_2_8" transform="matrix(14,0,0,-14,45.74797,207.89998)"/>
<use data-text="_" xlink:href="#font_2_3" transform="matrix(14,0,0,-14,54.14937,207.89998)"/>
<use data-text="s" xlink:href="#font_2_12" transform="matrix(14,0,0,-14,62.55077,207.89998)"/>
<use data-text="t" xlink:href="#font_2_13" transform="matrix(14,0,0,-14,70.95217,207.89998)"/>
<use data-text="a" xlink:href="#font_2_4" transform="matrix(14,0,0,-14,79.35358,207.89998)"/>
<use data-text="r" xlink:href="#font_2_11" transform="matrix(14,0,0,-14,87.754978,207.89998)"/>
<use data-text="t" xlink:href="#font_2_13" transform="matrix(14,0,0,-14,96.15637,207.89998)"/>
<use data-text=" " xlink:href="#font_2_1" transform="matrix(14,0,0,-14,104.55777,207.89998)"/>
<path transform="matrix(.00007874014,0,0,.00007874014,29.22161,298)" stroke-width="9525" stroke-linecap="butt" stroke-miterlimit="8" stroke-linejoin="miter" fill="none" stroke="#000000" d="M-.01407624-.0288696H1066800V1117600H-.01407624Z"/>
<path transform="matrix(1,0,0,-1,-.778381,540)" d="M29.99999 244H114V226H29.99999Z" fill="#cbcbcb" fill-rule="evenodd"/>
<path transform="matrix(.00007874014,0,0,.00007874014,29.22161,296)" stroke-width="9525" stroke-linecap="butt" stroke-miterlimit="8" stroke-linejoin="miter" fill="none" stroke="#000000" d="M-.01407624 .1610108H1066800V228600.2H-.01407624Z"/>
<use data-text="v" xlink:href="#font_2_15" transform="matrix(14,0,0,-14,46.34657,309.89997)"/>
<use data-text="m" xlink:href="#font_2_8" transform="matrix(14,0,0,-14,54.74797,309.89997)"/>
<use data-text="_" xlink:href="#font_2_3" transform="matrix(14,0,0,-14,63.14937,309.89997)"/>
<use data-text="e" xlink:href="#font_2_7" transform="matrix(14,0,0,-14,71.550769,309.89997)"/>
<use data-text="n" xlink:href="#font_2_9" transform="matrix(14,0,0,-14,79.95217,309.89997)"/>
<use data-text="d" xlink:href="#font_2_6" transform="matrix(14,0,0,-14,88.35358,309.89997)"/>
<use data-text=" " xlink:href="#font_2_1" transform="matrix(14,0,0,-14,96.754978,309.89997)"/>
<path transform="matrix(1,0,0,-1,-.778381,540)" d="M29.99999 208H114V190H29.99999Z" fill="#cbcbcb" fill-rule="evenodd"/>
<path transform="matrix(.00007874014,0,0,.00007874014,29.22161,332)" stroke-width="9525" stroke-linecap="butt" stroke-miterlimit="8" stroke-linejoin="miter" fill="none" stroke="#000000" d="M-.01407624 .03753665H1066800V228600.1H-.01407624Z"/>
<use data-text="r" xlink:href="#font_2_11" transform="matrix(14,0,0,-14,58.34657,345.89997)"/>
<use data-text="/" xlink:href="#font_2_2" transform="matrix(14,0,0,-14,66.74797,345.89997)"/>
<use data-text="o" xlink:href="#font_2_10" transform="matrix(14,0,0,-14,75.14937,345.89997)"/>
<use data-text=" " xlink:href="#font_2_1" transform="matrix(14,0,0,-14,83.550769,345.89997)"/>
<path transform="matrix(1,0,0,-1,-.778381,540)" d="M29.99999 172H114V154H29.99999Z" fill="#cbcbcb" fill-rule="evenodd"/>
<path transform="matrix(.00007874014,0,0,.00007874014,29.22161,368)" stroke-width="9525" stroke-linecap="butt" stroke-miterlimit="8" stroke-linejoin="miter" fill="none" stroke="#000000" d="M-.01407624 .1078492H1066800V228600.1H-.01407624Z"/>
<use data-text="v" xlink:href="#font_2_15" transform="matrix(14,0,0,-14,41.34658,381.89997)"/>
<use data-text="m" xlink:href="#font_2_8" transform="matrix(14,0,0,-14,49.747983,381.89997)"/>
<use data-text="_" xlink:href="#font_2_3" transform="matrix(14,0,0,-14,58.149385,381.89997)"/>
<use data-text="n" xlink:href="#font_2_9" transform="matrix(14,0,0,-14,66.55078,381.89997)"/>
<use data-text="e" xlink:href="#font_2_7" transform="matrix(14,0,0,-14,74.95218,381.89997)"/>
<use data-text="x" xlink:href="#font_2_17" transform="matrix(14,0,0,-14,83.353588,381.89997)"/>
<use data-text="t" xlink:href="#font_2_13" transform="matrix(14,0,0,-14,91.75499,381.89997)"/>
<use data-text=" " xlink:href="#font_2_1" transform="matrix(14,0,0,-14,100.15639,381.89997)"/>
<path transform="matrix(1,0,0,-1,-.778381,540)" d="M29.99999 226H114V208H29.99999Z" fill="#cbcbcb" fill-rule="evenodd"/>
<path transform="matrix(.00007874014,0,0,.00007874014,29.22161,314)" stroke-width="9525" stroke-linecap="butt" stroke-miterlimit="8" stroke-linejoin="miter" fill="none" stroke="#000000" d="M-.01407624-.05383295H1066800V228600H-.01407624Z"/>
<use data-text="v" xlink:href="#font_2_15" transform="matrix(14,0,0,-14,37.34657,327.89997)"/>
<use data-text="m" xlink:href="#font_2_8" transform="matrix(14,0,0,-14,45.74797,327.89997)"/>
<use data-text="_" xlink:href="#font_2_3" transform="matrix(14,0,0,-14,54.14937,327.89997)"/>
<use data-text="s" xlink:href="#font_2_12" transform="matrix(14,0,0,-14,62.55077,327.89997)"/>
<use data-text="t" xlink:href="#font_2_13" transform="matrix(14,0,0,-14,70.95217,327.89997)"/>
<use data-text="a" xlink:href="#font_2_4" transform="matrix(14,0,0,-14,79.35358,327.89997)"/>
<use data-text="r" xlink:href="#font_2_11" transform="matrix(14,0,0,-14,87.754978,327.89997)"/>
<use data-text="t" xlink:href="#font_2_13" transform="matrix(14,0,0,-14,96.15637,327.89997)"/>
<use data-text=" " xlink:href="#font_2_1" transform="matrix(14,0,0,-14,104.55777,327.89997)"/>
<path transform="matrix(1,0,0,-1,-.778381,540)" d="M180 519.9999H335.9999V142H180Z" fill="#ffffff" fill-rule="evenodd"/>
<path transform="matrix(.00007874014,0,0,.00007874014,179.22162,20.000123)" stroke-width="9525" stroke-linecap="butt" stroke-miterlimit="8" stroke-linejoin="miter" fill="none" stroke="#000000" d="M-.0360108 .2595216H1981200V4800600H-.0360108Z"/>
<use data-text="P" xlink:href="#font_3_10" transform="matrix(16,0,0,-16,174.59651,13.900112)"/>
<use data-text="r" xlink:href="#font_3_26" transform="matrix(16,0,0,-16,185.26851,13.900112)"/>
<use data-text="o" xlink:href="#font_3_24" transform="matrix(16,0,0,-16,190.59651,13.900112)"/>
<use data-text="c" xlink:href="#font_3_14" transform="matrix(16,0,0,-16,199.49571,13.900112)"/>
<use data-text="e" xlink:href="#font_3_16" transform="matrix(16,0,0,-16,207.49571,13.900112)"/>
<use data-text="s" xlink:href="#font_3_27" transform="matrix(16,0,0,-16,216.39492,13.900112)"/>
<use data-text="s" xlink:href="#font_3_27" transform="matrix(16,0,0,-16,224.39492,13.900112)"/>
<use data-text=" " xlink:href="#font_3_1" transform="matrix(16,0,0,-16,232.39492,13.900112)"/>
<use data-text="v" xlink:href="#font_3_30" transform="matrix(16,0,0,-16,236.83972,13.900112)"/>
<use data-text="i" xlink:href="#font_3_20" transform="matrix(16,0,0,-16,244.83972,13.900112)"/>
<use data-text="r" xlink:href="#font_3_26" transform="matrix(16,0,0,-16,248.39492,13.900112)"/>
<use data-text="t" xlink:href="#font_3_28" transform="matrix(16,0,0,-16,253.72292,13.900112)"/>
<use data-text="u" xlink:href="#font_3_29" transform="matrix(16,0,0,-16,258.16773,13.900112)"/>
<use data-text="a" xlink:href="#font_3_12" transform="matrix(16,0,0,-16,267.06694,13.900112)"/>
<use data-text="l" xlink:href="#font_3_21" transform="matrix(16,0,0,-16,275.96614,13.900112)"/>
<use data-text=" " xlink:href="#font_3_1" transform="matrix(16,0,0,-16,279.5213,13.900112)"/>
<use data-text="m" xlink:href="#font_3_22" transform="matrix(16,0,0,-16,283.96614,13.900112)"/>
<use data-text="e" xlink:href="#font_3_16" transform="matrix(16,0,0,-16,297.29414,13.900112)"/>
<use data-text="m" xlink:href="#font_3_22" transform="matrix(16,0,0,-16,306.19334,13.900112)"/>
<use data-text="o" xlink:href="#font_3_24" transform="matrix(16,0,0,-16,319.52134,13.900112)"/>
<use data-text="r" xlink:href="#font_3_26" transform="matrix(16,0,0,-16,328.42054,13.900112)"/>
<use data-text="y" xlink:href="#font_3_33" transform="matrix(16,0,0,-16,333.74855,13.900112)"/>
<use data-text="&#xfffd;" xlink:href="#font_4_1" transform="matrix(16,0,0,-16,341.74855,13.900112)"/>
<path transform="matrix(1,0,0,-1,-.778381,540)" d="M180 280H335.9999V190H180Z" fill="#cbcbcb" fill-rule="evenodd"/>
<path transform="matrix(.00007874014,0,0,.00007874014,179.22162,260)" stroke-width="9525" stroke-linecap="butt" stroke-miterlimit="8" stroke-linejoin="miter" fill="none" stroke="#000000" d="M-.0360108 .0906983H1981200V1143000H-.0360108Z"/>
<use data-text="C" xlink:href="#font_3_7" transform="matrix(14,0,0,-14,240.34651,309.89997)"/>
<use data-text="o" xlink:href="#font_3_24" transform="matrix(14,0,0,-14,250.4573,309.89997)"/>
<use data-text="d" xlink:href="#font_3_15" transform="matrix(14,0,0,-14,258.2441,309.89997)"/>
<use data-text="e" xlink:href="#font_3_16" transform="matrix(14,0,0,-14,266.0309,309.89997)"/>
<use data-text="&#xfffd;" xlink:href="#font_4_1" transform="matrix(14,0,0,-14,273.81773,309.89997)"/>
<path transform="matrix(1,0,0,-1,-.778381,540)" d="M180 340H335.9999V280H180Z" fill="#cbcbcb" fill-rule="evenodd"/>
<path transform="matrix(.00007874014,0,0,.00007874014,179.22162,200)" stroke-width="9525" stroke-linecap="butt" stroke-miterlimit="8" stroke-linejoin="miter" fill="none" stroke="#000000" d="M-.0360108 .2235108H1981200V762000.3H-.0360108Z"/>
<use data-text="D" xlink:href="#font_3_8" transform="matrix(14,0,0,-14,242.34651,234.89998)"/>
<use data-text="a" xlink:href="#font_3_12" transform="matrix(14,0,0,-14,252.4573,234.89998)"/>
<use data-text="t" xlink:href="#font_3_28" transform="matrix(14,0,0,-14,260.2441,234.89998)"/>
<use data-text="a" xlink:href="#font_3_12" transform="matrix(14,0,0,-14,264.13893,234.89998)"/>
<use data-text="&#xfffd;" xlink:href="#font_4_1" transform="matrix(14,0,0,-14,271.92573,234.89998)"/>
<path transform="matrix(1,0,0,-1,-.778381,540)" d="M180 441.9999H335.9999V399.9999H180Z" fill="#cbcbcb" fill-rule="evenodd"/>
<path transform="matrix(.00007874014,0,0,.00007874014,179.22162,98.00009)" stroke-width="9525" stroke-linecap="butt" stroke-miterlimit="8" stroke-linejoin="miter" fill="none" stroke="#000000" d="M-.0360108-.08813465H1981200V533400H-.0360108Z"/>
<use data-text="S" xlink:href="#font_3_11" transform="matrix(14,0,0,-14,208.34651,123.89998)"/>
<use data-text="h" xlink:href="#font_3_19" transform="matrix(14,0,0,-14,217.68451,123.89998)"/>
<use data-text="a" xlink:href="#font_3_12" transform="matrix(14,0,0,-14,225.47132,123.89998)"/>
<use data-text="r" xlink:href="#font_3_26" transform="matrix(14,0,0,-14,233.25812,123.89998)"/>
<use data-text="e" xlink:href="#font_3_16" transform="matrix(14,0,0,-14,237.92012,123.89998)"/>
<use data-text="d" xlink:href="#font_3_15" transform="matrix(14,0,0,-14,245.70691,123.89998)"/>
<use data-text=" " xlink:href="#font_3_1" transform="matrix(14,0,0,-14,253.49372,123.89998)"/>
<use data-text="l" xlink:href="#font_3_21" transform="matrix(14,0,0,-14,257.38294,123.89998)"/>
<use data-text="i" xlink:href="#font_3_20" transform="matrix(14,0,0,-14,260.4937,123.89998)"/>
<use data-text="b" xlink:href="#font_3_13" transform="matrix(14,0,0,-14,263.60453,123.89998)"/>
<use data-text="r" xlink:href="#font_3_26" transform="matrix(14,0,0,-14,271.39134,123.89998)"/>
<use data-text="a" xlink:href="#font_3_12" transform="matrix(14,0,0,-14,276.0533,123.89998)"/>
<use data-text="r" xlink:href="#font_3_26" transform="matrix(14,0,0,-14,283.84013,123.89998)"/>
<use data-text="i" xlink:href="#font_3_20" transform="matrix(14,0,0,-14,288.50215,123.89998)"/>
<use data-text="e" xlink:href="#font_3_16" transform="matrix(14,0,0,-14,291.6129,123.89998)"/>
<use data-text="s" xlink:href="#font_3_27" transform="matrix(14,0,0,-14,299.39973,123.89998)"/>
<use data-text="&#xfffd;" xlink:href="#font_4_1" transform="matrix(14,0,0,-14,306.39973,123.89998)"/>
<path transform="matrix(.00007874014,0,0,.00007874014,113.22162,62.00009)" stroke-width="9525" stroke-linecap="butt" stroke-linejoin="round" fill="none" stroke="#000000" d="M.0288696 .3415529 815901.5 445037.6"/>
<path transform="matrix(1,0,0,-1,-.778381,540)" d="M176.1692 447.5067 180 441.9999 173.2961 442.2393Z" fill-rule="evenodd"/>
<path transform="matrix(.00007874014,0,0,.00007874014,113.22162,80.00009)" stroke-width="9525" stroke-linecap="butt" stroke-linejoin="round" fill="none" stroke="#000000" d="M.0288696-.1232909 819405.6 744914.2"/>
<path transform="matrix(1,0,0,-1,-.778381,540)" d="M177.5784 406.2558 180 399.9999 173.5423 401.8161Z" fill-rule="evenodd"/>
<path transform="matrix(.00007874014,0,0,.00007874014,113.22162,188)" stroke-width="9525" stroke-linecap="butt" stroke-linejoin="round" fill="none" stroke="#000000" d="M.0288696 .2000733 737093.3 147418.8"/>
<path transform="matrix(1,0,0,-1,-.778381,540)" d="M168.7048 344.1184 174 340 167.5282 338.2349Z" fill-rule="evenodd"/>
<path transform="matrix(.00007874014,0,0,.00007874014,113.22162,206)" stroke-width="9525" stroke-linecap="butt" stroke-linejoin="round" fill="none" stroke="#000000" d="M.0288696 .2352296 817658.2 594660.9"/>
<path transform="matrix(1,0,0,-1,-.778381,540)" d="M176.9121 291.9552 180 286 173.383 287.1028Z" fill-rule="evenodd"/>
<path transform="matrix(.00007874014,0,0,-.00007874014,113.22162,308)" stroke-width="9525" stroke-linecap="butt" stroke-linejoin="round" fill="none" stroke="#000000" d="M.0288696 .009338349 816771.2 519763.5"/>
<path transform="matrix(1,0,0,-1,-.778381,540)" d="M176.5486 268.2477 180 274 173.3274 273.3097Z" fill-rule="evenodd"/>
<path transform="matrix(.00007874014,0,0,.00007874014,113.22162,326)" stroke-width="9525" stroke-linecap="butt" stroke-linejoin="round" fill="none" stroke="#000000" d="M.0288696 .0258179 814329.3 296119.8"/>
<path transform="matrix(1,0,0,-1,-.778381,540)" d="M175.3864 194.8698 180 190 173.336 189.2311Z" fill-rule="evenodd"/>
<path transform="matrix(-.00007874014,-0,0,.00007874014,29.22161,140)" stroke-width="9525" stroke-linecap="butt" stroke-linejoin="round" fill="none" stroke="#000000" d="M.01407624 .1063233 228600 1.269043"/>
<path transform="matrix(.00007874014,0,0,.00007874014,11.221619,140)" stroke-width="9525" stroke-linecap="butt" stroke-linejoin="round" fill="none" stroke="#000000" d="M-.004299166 .1063233 1.000969 457200.2"/>
<path transform="matrix(.00007874014,0,0,.00007874014,11.221619,176)" stroke-width="9525" stroke-linecap="butt" stroke-linejoin="round" fill="none" stroke="#000000" d="M-.004299166 .1766358H203200"/>
<path transform="matrix(1,0,0,-1,-.778381,540)" d="M24 367 30 364 24 361Z" fill-rule="evenodd"/>
<path transform="matrix(-.00007874014,-0,0,.00007874014,29.22161,260)" stroke-width="9525" stroke-linecap="butt" stroke-linejoin="round" fill="none" stroke="#000000" d="M.01407624 .0906983 228600 1.253418"/>
<path transform="matrix(.00007874014,0,0,.00007874014,11.221619,260)" stroke-width="9525" stroke-linecap="butt" stroke-linejoin="round" fill="none" stroke="#000000" d="M-.004299166 .0906983 1.000969 457200.2"/>
<path transform="matrix(.00007874014,0,0,.00007874014,11.221619,296)" stroke-width="9525" stroke-linecap="butt" stroke-linejoin="round" fill="none" stroke="#000000" d="M-.004299166 .1610108H203200"/>
<path transform="matrix(1,0,0,-1,-.778381,540)" d="M24 247 30 244 24 241Z" fill-rule="evenodd"/>
<use data-text="0" xlink:href="#font_3_5" transform="matrix(14,0,0,-14,344.72163,401.97499)"/>
<use data-text="&#xfffd;" xlink:href="#font_4_1" transform="matrix(14,0,0,-14,352.50843,401.97499)"/>
<path transform="matrix(.00007874014,0,0,.00007874014,335.22154,324)" stroke-width="9525" stroke-linecap="butt" stroke-linejoin="round" fill="none" stroke="#000000" d="M25399.88 .02191165H838200"/>
<path transform="matrix(1,0,0,-1,-.778381,540)" d="M341.9999 213 335.9999 216 341.9999 219Z" fill-rule="evenodd"/>
<path transform="matrix(.00007874014,0,0,.00007874014,335.22154,242)" stroke-width="9525" stroke-linecap="butt" stroke-linejoin="round" fill="none" stroke="#000000" d="M25399.88 .05554205H838200"/>
<path transform="matrix(1,0,0,-1,-.778381,540)" d="M341.9999 295 335.9999 298 341.9999 301Z" fill-rule="evenodd"/>
<use data-text="N" xlink:href="#font_3_9" transform="matrix(14,0,0,-14,390.34654,227.97509)"/>
<use data-text="o" xlink:href="#font_3_24" transform="matrix(14,0,0,-14,400.45735,227.97509)"/>
<use data-text="r" xlink:href="#font_3_26" transform="matrix(14,0,0,-14,408.24415,227.97509)"/>
<use data-text="m" xlink:href="#font_3_22" transform="matrix(14,0,0,-14,412.90614,227.97509)"/>
<use data-text="a" xlink:href="#font_3_12" transform="matrix(14,0,0,-14,424.5681,227.97509)"/>
<use data-text="l" xlink:href="#font_3_21" transform="matrix(14,0,0,-14,432.35493,227.97509)"/>
<use data-text=" " xlink:href="#font_3_1" transform="matrix(14,0,0,-14,435.46574,227.97509)"/>
<use data-text="p" xlink:href="#font_3_25" transform="matrix(14,0,0,-14,439.35493,227.97509)"/>
<use data-text="a" xlink:href="#font_3_12" transform="matrix(14,0,0,-14,447.14173,227.97509)"/>
<use data-text="g" xlink:href="#font_3_18" transform="matrix(14,0,0,-14,454.92854,227.97509)"/>
<use data-text="e" xlink:href="#font_3_16" transform="matrix(14,0,0,-14,462.71534,227.97509)"/>
<use data-text=" " xlink:href="#font_3_1" transform="matrix(14,0,0,-14,470.50215,227.97509)"/>
<use data-text="f" xlink:href="#font_3_17" transform="matrix(14,0,0,-14,474.39137,227.97509)"/>
<use data-text="a" xlink:href="#font_3_12" transform="matrix(14,0,0,-14,478.28056,227.97509)"/>
<use data-text="u" xlink:href="#font_3_29" transform="matrix(14,0,0,-14,486.06736,227.97509)"/>
<use data-text="l" xlink:href="#font_3_21" transform="matrix(14,0,0,-14,493.85417,227.97509)"/>
<use data-text="t" xlink:href="#font_3_28" transform="matrix(14,0,0,-14,496.96498,227.97509)"/>
<use data-text="&#xfffd;" xlink:href="#font_4_1" transform="matrix(14,0,0,-14,500.85417,227.97509)"/>
<path transform="matrix(.00007874014,0,0,.00007874014,335.22154,170.75)" stroke-width="9525" stroke-linecap="butt" stroke-linejoin="round" fill="none" stroke="#000000" d="M25399.88 .1663819H838200"/>
<path transform="matrix(1,0,0,-1,-.778381,540)" d="M341.9999 366.25 335.9999 369.25 341.9999 372.25Z" fill-rule="evenodd"/>
<use data-text="S" xlink:href="#font_3_11" transform="matrix(14,0,0,-14,389.97163,142.10009)"/>
<use data-text="e" xlink:href="#font_3_16" transform="matrix(14,0,0,-14,399.30964,142.10009)"/>
<use data-text="g" xlink:href="#font_3_18" transform="matrix(14,0,0,-14,407.09645,142.10009)"/>
<use data-text="m" xlink:href="#font_3_22" transform="matrix(14,0,0,-14,414.8832,142.10009)"/>
<use data-text="e" xlink:href="#font_3_16" transform="matrix(14,0,0,-14,426.54524,142.10009)"/>
<use data-text="n" xlink:href="#font_3_23" transform="matrix(14,0,0,-14,434.33204,142.10009)"/>
<use data-text="t" xlink:href="#font_3_28" transform="matrix(14,0,0,-14,442.11885,142.10009)"/>
<use data-text="a" xlink:href="#font_3_12" transform="matrix(14,0,0,-14,446.00804,142.10009)"/>
<use data-text="t" xlink:href="#font_3_28" transform="matrix(14,0,0,-14,453.79484,142.10009)"/>
<use data-text="i" xlink:href="#font_3_20" transform="matrix(14,0,0,-14,457.68403,142.10009)"/>
<use data-text="o" xlink:href="#font_3_24" transform="matrix(14,0,0,-14,460.79484,142.10009)"/>
<use data-text="n" xlink:href="#font_3_23" transform="matrix(14,0,0,-14,468.58164,142.10009)"/>
<use data-text=" " xlink:href="#font_3_1" transform="matrix(14,0,0,-14,476.36845,142.10009)"/>
<use data-text="f" xlink:href="#font_3_17" transform="matrix(14,0,0,-14,480.25764,142.10009)"/>
<use data-text="a" xlink:href="#font_3_12" transform="matrix(14,0,0,-14,484.14683,142.10009)"/>
<use data-text="u" xlink:href="#font_3_29" transform="matrix(14,0,0,-14,491.93363,142.10009)"/>
<use data-text="l" xlink:href="#font_3_21" transform="matrix(14,0,0,-14,499.72044,142.10009)"/>
<use data-text="t" xlink:href="#font_3_28" transform="matrix(14,0,0,-14,502.83125,142.10009)"/>
<use data-text=":" xlink:href="#font_3_6" transform="matrix(14,0,0,-14,506.72044,142.10009)"/>
<use data-text="&#xfffd;" xlink:href="#font_4_1" transform="matrix(14,0,0,-14,510.60963,142.10009)"/>
<use data-text="a" xlink:href="#font_3_12" transform="matrix(14,0,0,-14,389.97163,162.14)"/>
<use data-text="c" xlink:href="#font_3_14" transform="matrix(14,0,0,-14,397.75843,162.14)"/>
<use data-text="c" xlink:href="#font_3_14" transform="matrix(14,0,0,-14,404.75843,162.14)"/>
<use data-text="e" xlink:href="#font_3_16" transform="matrix(14,0,0,-14,411.75843,162.14)"/>
<use data-text="s" xlink:href="#font_3_27" transform="matrix(14,0,0,-14,419.54524,162.14)"/>
<use data-text="s" xlink:href="#font_3_27" transform="matrix(14,0,0,-14,426.54524,162.14)"/>
<use data-text="i" xlink:href="#font_3_20" transform="matrix(14,0,0,-14,433.54524,162.14)"/>
<use data-text="n" xlink:href="#font_3_23" transform="matrix(14,0,0,-14,436.656,162.14)"/>
<use data-text="g" xlink:href="#font_3_18" transform="matrix(14,0,0,-14,444.4428,162.14)"/>
<use data-text=" " xlink:href="#font_3_1" transform="matrix(14,0,0,-14,452.2296,162.14)"/>
<use data-text="a" xlink:href="#font_3_12" transform="matrix(14,0,0,-14,456.11885,162.14)"/>
<use data-text=" " xlink:href="#font_3_1" transform="matrix(14,0,0,-14,463.90565,162.14)"/>
<use data-text="n" xlink:href="#font_3_23" transform="matrix(14,0,0,-14,467.79484,162.14)"/>
<use data-text="o" xlink:href="#font_3_24" transform="matrix(14,0,0,-14,475.58164,162.14)"/>
<use data-text="n" xlink:href="#font_3_23" transform="matrix(14,0,0,-14,483.36845,162.14)"/>
<use data-text="-" xlink:href="#font_3_3" transform="matrix(14,0,0,-14,491.15525,162.14)"/>
<use data-text="e" xlink:href="#font_3_16" transform="matrix(14,0,0,-14,495.81724,162.14)"/>
<use data-text="x" xlink:href="#font_3_32" transform="matrix(14,0,0,-14,503.60404,162.14)"/>
<use data-text="i" xlink:href="#font_3_20" transform="matrix(14,0,0,-14,510.60404,162.14)"/>
<use data-text="s" xlink:href="#font_3_27" transform="matrix(14,0,0,-14,513.71487,162.14)"/>
<use data-text="t" xlink:href="#font_3_28" transform="matrix(14,0,0,-14,520.71487,162.14)"/>
<use data-text="i" xlink:href="#font_3_20" transform="matrix(14,0,0,-14,524.604,162.14)"/>
<use data-text="n" xlink:href="#font_3_23" transform="matrix(14,0,0,-14,527.71487,162.14)"/>
<use data-text="g" xlink:href="#font_3_18" transform="matrix(14,0,0,-14,535.50167,162.14)"/>
<use data-text=" " xlink:href="#font_3_1" transform="matrix(14,0,0,-14,543.28848,162.14)"/>
<use data-text="p" xlink:href="#font_3_25" transform="matrix(14,0,0,-14,547.1776,162.14)"/>
<use data-text="a" xlink:href="#font_3_12" transform="matrix(14,0,0,-14,554.9645,162.14)"/>
<use data-text="g" xlink:href="#font_3_18" transform="matrix(14,0,0,-14,562.7512,162.14)"/>
<use data-text="e" xlink:href="#font_3_16" transform="matrix(14,0,0,-14,570.5381,162.14)"/>
<use data-text="&#xfffd;" xlink:href="#font_4_1" transform="matrix(14,0,0,-14,578.3248,162.14)"/>
<path transform="matrix(1,0,0,-1,-.778381,540)" d="M353.9999 388C353.9999 394.6274 359.3725 400 365.9999 400 372.6273 400 377.9999 394.6274 377.9999 388 377.9999 381.3726 372.6273 376 365.9999 376 359.3725 376 353.9999 381.3726 353.9999 388Z" fill="#ffffff" fill-rule="evenodd"/>
<path transform="matrix(.00007874014,0,0,.00007874014,353.22154,140)" stroke-width="9525" stroke-linecap="butt" stroke-linejoin="round" fill="none" stroke="#000000" d="M-.08374035 152400.1C-.08374035 68232 68231.8 .1063233 152399.9 .1063233 236568.1 .1063233 304800 68232 304800 152400.1 304800 236568.3 236568.1 304800.2 152399.9 304800.2 68231.8 304800.2-.08374035 236568.3-.08374035 152400.1Z"/>
<use data-text="1" xlink:href="#font_5_1" transform="matrix(14,0,0,-14,360.8612,156.89998)"/>
<use data-text="&#xfffd;" xlink:href="#font_6_1" transform="matrix(14,0,0,-14,368.648,156.89998)"/>
<path transform="matrix(1,0,0,-1,-.778381,540)" d="M353.9999 234C353.9999 240.6274 359.3725 246 365.9999 246 372.6273 246 377.9999 240.6274 377.9999 234 377.9999 227.3726 372.6273 222 365.9999 222 359.3725 222 353.9999 227.3726 353.9999 234Z" fill="#ffffff" fill-rule="evenodd"/>
<path transform="matrix(.00007874014,0,0,.00007874014,353.22154,294)" stroke-width="9525" stroke-linecap="butt" stroke-linejoin="round" fill="none" stroke="#000000" d="M-.08374035 152400C-.08374035 68231.86 68231.8-.0366821 152399.9-.0366821 236568.1-.0366821 304800 68231.86 304800 152400 304800 236568.1 236568.1 304800 152399.9 304800 68231.8 304800-.08374035 236568.1-.08374035 152400Z"/>
<use data-text="2" xlink:href="#font_5_2" transform="matrix(14,0,0,-14,360.8612,310.89997)"/>
<use data-text="&#xfffd;" xlink:href="#font_6_1" transform="matrix(14,0,0,-14,368.648,310.89997)"/>
<path transform="matrix(1,0,0,-1,-.778381,540)" d="M353.9999 316C353.9999 322.6274 359.3725 328 365.9999 328 372.6273 328 377.9999 322.6274 377.9999 316 377.9999 309.3726 372.6273 304 365.9999 304 359.3725 304 353.9999 309.3726 353.9999 316Z" fill="#ffffff" fill-rule="evenodd"/>
<path transform="matrix(.00007874014,0,0,.00007874014,353.22154,212)" stroke-width="9525" stroke-linecap="butt" stroke-linejoin="round" fill="none" stroke="#000000" d="M-.08374035 152400C-.08374035 68231.89 68231.8-.003051698 152399.9-.003051698 236568.1-.003051698 304800 68231.89 304800 152400 304800 236568.2 236568.1 304800 152399.9 304800 68231.8 304800-.08374035 236568.2-.08374035 152400Z"/>
<use data-text="3" xlink:href="#font_5_3" transform="matrix(14,0,0,-14,360.8612,228.89998)"/>
<use data-text="&#xfffd;" xlink:href="#font_6_1" transform="matrix(14,0,0,-14,368.648,228.89998)"/>
<use data-text="P" xlink:href="#font_3_10" transform="matrix(14,0,0,-14,390.34654,280.09999)"/>
<use data-text="r" xlink:href="#font_3_26" transform="matrix(14,0,0,-14,399.68455,280.09999)"/>
<use data-text="o" xlink:href="#font_3_24" transform="matrix(14,0,0,-14,404.34654,280.09999)"/>
<use data-text="t" xlink:href="#font_3_28" transform="matrix(14,0,0,-14,412.13334,280.09999)"/>
<use data-text="e" xlink:href="#font_3_16" transform="matrix(14,0,0,-14,416.02253,280.09999)"/>
<use data-text="c" xlink:href="#font_3_14" transform="matrix(14,0,0,-14,423.80934,280.09999)"/>
<use data-text="t" xlink:href="#font_3_28" transform="matrix(14,0,0,-14,430.80934,280.09999)"/>
<use data-text="i" xlink:href="#font_3_20" transform="matrix(14,0,0,-14,434.69856,280.09999)"/>
<use data-text="o" xlink:href="#font_3_24" transform="matrix(14,0,0,-14,437.80934,280.09999)"/>
<use data-text="n" xlink:href="#font_3_23" transform="matrix(14,0,0,-14,445.59614,280.09999)"/>
<use data-text=" " xlink:href="#font_3_1" transform="matrix(14,0,0,-14,453.38294,280.09999)"/>
<use data-text="e" xlink:href="#font_3_16" transform="matrix(14,0,0,-14,457.27214,280.09999)"/>
<use data-text="x" xlink:href="#font_3_32" transform="matrix(14,0,0,-14,465.05894,280.09999)"/>
<use data-text="c" xlink:href="#font_3_14" transform="matrix(14,0,0,-14,472.05894,280.09999)"/>
<use data-text="e" xlink:href="#font_3_16" transform="matrix(14,0,0,-14,479.05894,280.09999)"/>
<use data-text="p" xlink:href="#font_3_25" transform="matrix(14,0,0,-14,486.84574,280.09999)"/>
<use data-text="t" xlink:href="#font_3_28" transform="matrix(14,0,0,-14,494.63255,280.09999)"/>
<use data-text="i" xlink:href="#font_3_20" transform="matrix(14,0,0,-14,498.52174,280.09999)"/>
<use data-text="o" xlink:href="#font_3_24" transform="matrix(14,0,0,-14,501.63255,280.09999)"/>
<use data-text="n" xlink:href="#font_3_23" transform="matrix(14,0,0,-14,509.41935,280.09999)"/>
<use data-text=":" xlink:href="#font_3_6" transform="matrix(14,0,0,-14,517.2062,280.09999)"/>
<use data-text="&#xfffd;" xlink:href="#font_4_1" transform="matrix(14,0,0,-14,521.09536,280.09999)"/>
<use data-text="e" xlink:href="#font_3_16" transform="matrix(14,0,0,-14,390.34654,300.14)"/>
<use data-text="." xlink:href="#font_3_4" transform="matrix(14,0,0,-14,398.13334,300.14)"/>
<use data-text="g" xlink:href="#font_3_18" transform="matrix(14,0,0,-14,402.02253,300.14)"/>
<use data-text="." xlink:href="#font_3_4" transform="matrix(14,0,0,-14,409.80934,300.14)"/>
<use data-text="," xlink:href="#font_3_2" transform="matrix(14,0,0,-14,413.69853,300.14)"/>
<use data-text=" " xlink:href="#font_3_1" transform="matrix(14,0,0,-14,417.58775,300.14)"/>
<use data-text="v" xlink:href="#font_3_30" transform="matrix(14,0,0,-14,421.47694,300.14)"/>
<use data-text="i" xlink:href="#font_3_20" transform="matrix(14,0,0,-14,428.47694,300.14)"/>
<use data-text="o" xlink:href="#font_3_24" transform="matrix(14,0,0,-14,431.58775,300.14)"/>
<use data-text="l" xlink:href="#font_3_21" transform="matrix(14,0,0,-14,439.37455,300.14)"/>
<use data-text="a" xlink:href="#font_3_12" transform="matrix(14,0,0,-14,442.48533,300.14)"/>
<use data-text="t" xlink:href="#font_3_28" transform="matrix(14,0,0,-14,450.27214,300.14)"/>
<use data-text="i" xlink:href="#font_3_20" transform="matrix(14,0,0,-14,454.16136,300.14)"/>
<use data-text="n" xlink:href="#font_3_23" transform="matrix(14,0,0,-14,457.27214,300.14)"/>
<use data-text="g" xlink:href="#font_3_18" transform="matrix(14,0,0,-14,465.05894,300.14)"/>
<use data-text=" " xlink:href="#font_3_1" transform="matrix(14,0,0,-14,472.84574,300.14)"/>
<use data-text="p" xlink:href="#font_3_25" transform="matrix(14,0,0,-14,476.73493,300.14)"/>
<use data-text="e" xlink:href="#font_3_16" transform="matrix(14,0,0,-14,484.52174,300.14)"/>
<use data-text="r" xlink:href="#font_3_26" transform="matrix(14,0,0,-14,492.30854,300.14)"/>
<use data-text="m" xlink:href="#font_3_22" transform="matrix(14,0,0,-14,496.97056,300.14)"/>
<use data-text="i" xlink:href="#font_3_20" transform="matrix(14,0,0,-14,508.63258,300.14)"/>
<use data-text="s" xlink:href="#font_3_27" transform="matrix(14,0,0,-14,511.74336,300.14)"/>
<use data-text="s" xlink:href="#font_3_27" transform="matrix(14,0,0,-14,518.74337,300.14)"/>
<use data-text="i" xlink:href="#font_3_20" transform="matrix(14,0,0,-14,525.74337,300.14)"/>
<use data-text="o" xlink:href="#font_3_24" transform="matrix(14,0,0,-14,528.8541,300.14)"/>
<use data-text="n" xlink:href="#font_3_23" transform="matrix(14,0,0,-14,536.641,300.14)"/>
<use data-text="s" xlink:href="#font_3_27" transform="matrix(14,0,0,-14,544.42776,300.14)"/>
<use data-text=" " xlink:href="#font_3_1" transform="matrix(14,0,0,-14,551.42776,300.14)"/>
<use data-text="b" xlink:href="#font_3_13" transform="matrix(14,0,0,-14,555.31698,300.14)"/>
<use data-text="y" xlink:href="#font_3_33" transform="matrix(14,0,0,-14,563.10379,300.14)"/>
<use data-text="&#xfffd;" xlink:href="#font_4_1" transform="matrix(14,0,0,-14,570.10379,300.14)"/>
<use data-text="w" xlink:href="#font_3_31" transform="matrix(14,0,0,-14,390.34654,320.14)"/>
<use data-text="r" xlink:href="#font_3_26" transform="matrix(14,0,0,-14,400.45735,320.14)"/>
<use data-text="i" xlink:href="#font_3_20" transform="matrix(14,0,0,-14,405.11933,320.14)"/>
<use data-text="t" xlink:href="#font_3_28" transform="matrix(14,0,0,-14,408.23014,320.14)"/>
<use data-text="i" xlink:href="#font_3_20" transform="matrix(14,0,0,-14,412.11933,320.14)"/>
<use data-text="n" xlink:href="#font_3_23" transform="matrix(14,0,0,-14,415.23014,320.14)"/>
<use data-text="g" xlink:href="#font_3_18" transform="matrix(14,0,0,-14,423.01695,320.14)"/>
<use data-text=" " xlink:href="#font_3_1" transform="matrix(14,0,0,-14,430.80375,320.14)"/>
<use data-text="t" xlink:href="#font_3_28" transform="matrix(14,0,0,-14,434.69294,320.14)"/>
<use data-text="o" xlink:href="#font_3_24" transform="matrix(14,0,0,-14,438.58213,320.14)"/>
<use data-text=" " xlink:href="#font_3_1" transform="matrix(14,0,0,-14,446.36894,320.14)"/>
<use data-text="a" xlink:href="#font_3_12" transform="matrix(14,0,0,-14,450.25816,320.14)"/>
<use data-text=" " xlink:href="#font_3_1" transform="matrix(14,0,0,-14,458.04493,320.14)"/>
<use data-text="r" xlink:href="#font_3_26" transform="matrix(14,0,0,-14,461.93415,320.14)"/>
<use data-text="e" xlink:href="#font_3_16" transform="matrix(14,0,0,-14,466.59614,320.14)"/>
<use data-text="a" xlink:href="#font_3_12" transform="matrix(14,0,0,-14,474.38294,320.14)"/>
<use data-text="d" xlink:href="#font_3_15" transform="matrix(14,0,0,-14,482.16975,320.14)"/>
<use data-text="-" xlink:href="#font_3_3" transform="matrix(14,0,0,-14,489.95655,320.14)"/>
<use data-text="o" xlink:href="#font_3_24" transform="matrix(14,0,0,-14,494.61857,320.14)"/>
<use data-text="n" xlink:href="#font_3_23" transform="matrix(14,0,0,-14,502.40538,320.14)"/>
<use data-text="l" xlink:href="#font_3_21" transform="matrix(14,0,0,-14,510.19218,320.14)"/>
<use data-text="y" xlink:href="#font_3_33" transform="matrix(14,0,0,-14,513.303,320.14)"/>
<use data-text=" " xlink:href="#font_3_1" transform="matrix(14,0,0,-14,520.303,320.14)"/>
<use data-text="p" xlink:href="#font_3_25" transform="matrix(14,0,0,-14,524.19216,320.14)"/>
<use data-text="a" xlink:href="#font_3_12" transform="matrix(14,0,0,-14,531.97897,320.14)"/>
<use data-text="g" xlink:href="#font_3_18" transform="matrix(14,0,0,-14,539.76577,320.14)"/>
<use data-text="e" xlink:href="#font_3_16" transform="matrix(14,0,0,-14,547.55258,320.14)"/>
<use data-text="&#xfffd;" xlink:href="#font_4_1" transform="matrix(14,0,0,-14,555.33938,320.14)"/>
</g>
</g>
</svg>
