<svg xmlns="http://www.w3.org/2000/svg" xmlns:xlink="http://www.w3.org/1999/xlink" version="1.1" width="447.565pt" height="75.502017pt" viewBox="0 0 447.565 75.502017">
<defs>
<clipPath id="clip_0">
<path transform="matrix(1,0,0,-1,0,540)" d="M0 464.498H447.565V540H0Z" fill-rule="evenodd"/>
</clipPath>
<clipPath id="clip_1">
<path transform="matrix(1,0,0,-1,0,540)" d="M0 .00002324581H719.9999V540H0Z"/>
</clipPath>
<clipPath id="clip_2">
<path transform="matrix(1,0,0,-1,0,540)" d="M223.125 498.2499H247.125V474.2499H223.125Z" fill-rule="evenodd"/>
</clipPath>
<g id="pattern_tile_3">
<path transform="matrix(1,0,0,-1,904.8958,169.31949)" stroke-width="2.1" stroke-linecap="butt" stroke-miterlimit="10" stroke-linejoin="miter" fill="none" stroke="#cbcbcb" d="M-1 7 1 9M-1-1 9 9M7-1 9 1"/>
</g>
<pattern id="pattern_3" patternUnits="userSpaceOnUse" patternContentUnits="userSpaceOnUse" x="0" y="0" width="8" height="8">
<g transform="matrix(1,0,0,-1,-904.8958,169.31949)">
<use x="0" y="0" xlink:href="#pattern_tile_3"/>
</g>
</pattern>
<path id="font_4_3" d="M.28515626 .057617189C.32617188 .057617189 .36027018 .07486979 .38745118 .109375 .41463218 .14389038 .42822267 .1954956 .42822267 .26419068 .42822267 .3060608 .42220054 .34204103 .41015626 .37213136 .38736979 .43003337 .34570313 .45898438 .28515626 .45898438 .22428386 .45898438 .18261719 .42840068 .16015625 .36723329 .14811199 .33451844 .14208985 .29297386 .14208985 .24259949 .14208985 .20204163 .14811199 .16753133 .16015625 .1390686 .1829427 .08476766 .22460938 .057617189 .28515626 .057617189M.057617189 .5205078H.1430664V.45162965C.16064453 .47540284 .17985027 .49379985 .2006836 .5068207 .23030599 .5263621 .26513673 .5361328 .30517579 .5361328 .36442057 .5361328 .41471354 .5133667 .4560547 .46783448 .49739585 .42230226 .5180664 .3572693 .5180664 .2727356 .5180664 .1585083 .48828126 .07691447 .42871095 .027954102 .39095054-.0030517579 .34700523-.018554688 .296875-.018554688 .25748698-.018554688 .22444661-.009984334 .1977539 .007156372 .1821289 .016860962 .16471355 .033518476 .14550781 .057128908V-.20898438H.057617189V.5205078Z"/>
<path id="font_4_1" d="M.095703128 .4951172V.5625C.15917969 .5686849 .20345052 .5790202 .22851563 .59350588 .25358073 .6079915 .2722982 .6422526 .28466798 .69628909H.3540039V0H.2602539V.4951172H.095703128Z"/>
<path id="font_5_1" d="M0 0Z"/>
<path id="font_4_2" d="M.03125 0C.034505208 .060221357 .04695638 .11263021 .068603519 .15722656 .09025065 .20182292 .13248699 .24235027 .1953125 .2788086L.2890625 .3330078C.3310547 .35742188 .3605143 .3782908 .3774414 .39561463 .40413413 .4227346 .41748048 .45377604 .41748048 .488739 .41748048 .52959188 .40527345 .562027 .38085938 .5860443 .3564453 .61006167 .32389323 .6220703 .28320313 .6220703 .22298177 .6220703 .18131511 .5991516 .15820313 .5533142 .14583333 .52875778 .13899739 .4947103 .13769531 .45117188H.048339845C.049316408 .5121663 .060546876 .5619049 .08203125 .6003876 .12011719 .66822817 .18733724 .70214846 .2836914 .70214846 .36376954 .70214846 .4222819 .68047079 .45922853 .6371155 .49617515 .5937703 .51464846 .5455373 .51464846 .49241639 .51464846 .4363556 .49495445 .388443 .4555664 .3486786 .43277995 .3255361 .3919271 .29752604 .3330078 .26464845L.26611329 .22753906C.23421224 .20996094 .20914714 .19319661 .19091797 .1772461 .15836589 .14892578 .13785808 .11751302 .12939453 .08300781H.51123049V0H.03125Z"/>
</defs>
<g clip-path="url(#clip_0)">
<g clip-path="url(#clip_1)">
<path transform="matrix(1,0,0,-1,0,540)" d="M0 539.9999H719.9999V.00003079383H0Z" fill="#ffffff" fill-rule="evenodd"/>
<path transform="matrix(1,0,0,-1,0,540)" d="M7.125039 498.2499H31.12503V474.2499H7.125039Z" fill="#cbcbcb" fill-rule="evenodd"/>
<path transform="matrix(.00007874014,0,0,.00007874014,7.125039,41.75009)" stroke-width="4156.364" stroke-linecap="butt" stroke-miterlimit="8" stroke-linejoin="miter" fill="none" stroke="#000000" d="M-.003374024 .3020021H304800V304800.3H-.003374024Z"/>
<path transform="matrix(1,0,0,-1,0,540)" d="M31.12503 498.2499H55.12503V474.2499H31.12503Z" fill="#cbcbcb" fill-rule="evenodd"/>
<path transform="matrix(.00007874014,0,0,.00007874014,31.12503,41.75009)" stroke-width="4156.364" stroke-linecap="butt" stroke-miterlimit="8" stroke-linejoin="miter" fill="none" stroke="#000000" d="M-.00318902 .3020021H304800V304800.3H-.00318902Z"/>
<path transform="matrix(1,0,0,-1,0,540)" d="M55.12503 498.2499H79.12503V474.2499H55.12503Z" fill="#cbcbcb" fill-rule="evenodd"/>
<path transform="matrix(.00007874014,0,0,.00007874014,55.12503,41.75009)" stroke-width="4156.364" stroke-linecap="butt" stroke-miterlimit="8" stroke-linejoin="miter" fill="none" stroke="#000000" d="M-.01881402 .3020021H304800V304800.3H-.01881402Z"/>
<path transform="matrix(1,0,0,-1,0,540)" d="M79.12503 498.2499H103.125V474.2499H79.12503Z" fill="#cbcbcb" fill-rule="evenodd"/>
<path transform="matrix(.00007874014,0,0,.00007874014,79.12503,41.75009)" stroke-width="4156.364" stroke-linecap="butt" stroke-miterlimit="8" stroke-linejoin="miter" fill="none" stroke="#000000" d="M-.02038568 .3020021H304799.9V304800.3H-.02038568Z"/>
<path transform="matrix(1,0,0,-1,0,540)" d="M103.125 498.2499H127.125V474.2499H103.125Z" fill="#cbcbcb" fill-rule="evenodd"/>
<path transform="matrix(.00007874014,0,0,.00007874014,103.125,41.75009)" stroke-width="4156.364" stroke-linecap="butt" stroke-miterlimit="8" stroke-linejoin="miter" fill="none" stroke="#000000" d="M-.007904008 .3020021H304799.9V304800.3H-.007904008Z"/>
<path transform="matrix(1,0,0,-1,0,540)" d="M127.125 498.2499H151.125V474.2499H127.125Z" fill="#cbcbcb" fill-rule="evenodd"/>
<path transform="matrix(.00007874014,0,0,.00007874014,127.125,41.75009)" stroke-width="4156.364" stroke-linecap="butt" stroke-miterlimit="8" stroke-linejoin="miter" fill="none" stroke="#000000" d="M-.08602901 .3020021H304799.9V304800.3H-.08602901Z"/>
<path transform="matrix(1,0,0,-1,0,540)" d="M151.125 498.2499H175.125V474.2499H151.125Z" fill="#cbcbcb" fill-rule="evenodd"/>
<path transform="matrix(.00007874014,0,0,.00007874014,151.125,41.75009)" stroke-width="4156.364" stroke-linecap="butt" stroke-miterlimit="8" stroke-linejoin="miter" fill="none" stroke="#000000" d="M-.06726068 .3020021H304800V304800.3H-.06726068Z"/>
<path transform="matrix(1,0,0,-1,0,540)" d="M175.125 498.2499H199.125V474.2499H175.125Z" fill="#cbcbcb" fill-rule="evenodd"/>
<path transform="matrix(.00007874014,0,0,.00007874014,175.125,41.75009)" stroke-width="4156.364" stroke-linecap="butt" stroke-miterlimit="8" stroke-linejoin="miter" fill="none" stroke="#000000" d="M-.02038568 .3020021H304800V304800.3H-.02038568Z"/>
<path transform="matrix(1,0,0,-1,0,540)" d="M199.125 498.2499H223.125V474.2499H199.125Z" fill="#cbcbcb" fill-rule="evenodd"/>
<path transform="matrix(.00007874014,0,0,.00007874014,199.125,41.75009)" stroke-width="4156.364" stroke-linecap="butt" stroke-miterlimit="8" stroke-linejoin="miter" fill="none" stroke="#000000" d="M.08270267 .3020021H304800.1V304800.3H.08270267Z"/>
<path transform="matrix(1,0,0,-1,0,540)" d="M223.125 498.2499H247.125V474.2499H223.125Z" fill="#ffffff" fill-rule="evenodd"/>
<g clip-path="url(#clip_2)">
<rect transform="matrix(1,0,0,-1,904.8958,169.31949)" fill="url(#pattern_3)" x="-681.7708" y="103.5694" width="24" height="24"/>
</g>
<path transform="matrix(.00007874014,0,0,.00007874014,223.125,41.75009)" stroke-width="4156.364" stroke-linecap="butt" stroke-miterlimit="8" stroke-linejoin="miter" fill="none" stroke="#000000" d="M-.06420898 .3020021H304800V304800.3H-.06420898Z"/>
<path transform="matrix(1,0,0,-1,0,540)" d="M247.125 498.2499H271.125V474.2499H247.125Z" fill="#ffffff" fill-rule="evenodd"/>
<path transform="matrix(.00007874014,0,0,.00007874014,247.125,41.75009)" stroke-width="4156.364" stroke-linecap="butt" stroke-miterlimit="8" stroke-linejoin="miter" fill="none" stroke="#000000" d="M-.07354733 .3020021H304799.8V304800.3H-.07354733Z"/>
<path transform="matrix(1,0,0,-1,0,540)" d="M271.125 498.2499H295.125V474.2499H271.125Z" fill="#ffffff" fill-rule="evenodd"/>
<path transform="matrix(.00007874014,0,0,.00007874014,271.125,41.75009)" stroke-width="4156.364" stroke-linecap="butt" stroke-miterlimit="8" stroke-linejoin="miter" fill="none" stroke="#000000" d="M.02954102 .3020021H304800.1V304800.3H.02954102Z"/>
<path transform="matrix(1,0,0,-1,0,540)" d="M295.125 498.2499H319.125V474.2499H295.125Z" fill="#ffffff" fill-rule="evenodd"/>
<path transform="matrix(.00007874014,0,0,.00007874014,295.125,41.75009)" stroke-width="4156.364" stroke-linecap="butt" stroke-miterlimit="8" stroke-linejoin="miter" fill="none" stroke="#000000" d="M-.173584 .3020021H304799.9V304800.3H-.173584Z"/>
<path transform="matrix(1,0,0,-1,0,540)" d="M319.125 498.2499H343.125V474.2499H319.125Z" fill="#ffffff" fill-rule="evenodd"/>
<path transform="matrix(.00007874014,0,0,.00007874014,319.125,41.75009)" stroke-width="4156.364" stroke-linecap="butt" stroke-miterlimit="8" stroke-linejoin="miter" fill="none" stroke="#000000" d="M-.126709 .3020021H304799.9V304800.3H-.126709Z"/>
<path transform="matrix(1,0,0,-1,0,540)" d="M343.125 498.2499H367.125V474.2499H343.125Z" fill="#ffffff" fill-rule="evenodd"/>
<path transform="matrix(.00007874014,0,0,.00007874014,343.125,41.75009)" stroke-width="4156.364" stroke-linecap="butt" stroke-miterlimit="8" stroke-linejoin="miter" fill="none" stroke="#000000" d="M.170166 .3020021H304800.2V304800.3H.170166Z"/>
<path transform="matrix(1,0,0,-1,0,540)" d="M367.125 498.2499H391.125V474.2499H367.125Z" fill="#ffffff" fill-rule="evenodd"/>
<path transform="matrix(.00007874014,0,0,.00007874014,367.125,41.75009)" stroke-width="4156.364" stroke-linecap="butt" stroke-miterlimit="8" stroke-linejoin="miter" fill="none" stroke="#000000" d="M-.282959 .3020021H304799.8V304800.3H-.282959Z"/>
<use data-text="p" xlink:href="#font_4_3" transform="matrix(16,0,0,-16,1.2,14.650085)"/>
<use data-text="1" xlink:href="#font_4_1" transform="matrix(16,0,0,-16,10.0992,14.650085)"/>
<use data-text="&#xfffd;" xlink:href="#font_5_1" transform="matrix(16,0,0,-16,18.998402,14.650085)"/>
<path transform="matrix(.00007874014,0,0,.00007874014,12,20.250123)" stroke-width="12700" stroke-linecap="butt" stroke-linejoin="round" fill="none" stroke="#000000" d="M-.004299166 .2600099V203200.3"/>
<path transform="matrix(1,0,0,-1,0,540)" d="M15 507.7499 12 501.7499 9 507.7499Z" fill-rule="evenodd"/>
<use data-text="p" xlink:href="#font_4_3" transform="matrix(16,0,0,-16,96.07503,15.900085)"/>
<use data-text="2" xlink:href="#font_4_2" transform="matrix(16,0,0,-16,104.97423,15.900085)"/>
<use data-text="&#xfffd;" xlink:href="#font_5_1" transform="matrix(16,0,0,-16,113.87343,15.900085)"/>
<path transform="matrix(.00007874014,0,0,.00007874014,106.875,21.500123)" stroke-width="12700" stroke-linecap="butt" stroke-linejoin="round" fill="none" stroke="#000000" d="M-.0005797893 .2624513V203200.3"/>
<path transform="matrix(1,0,0,-1,0,540)" d="M109.875 506.4999 106.875 500.4999 103.875 506.4999Z" fill-rule="evenodd"/>
<path transform="matrix(.00007874014,0,0,.00007874014,7.125039,42.00009)" stroke-width="38100" stroke-linecap="butt" stroke-miterlimit="8" stroke-linejoin="miter" fill="none" stroke="#000000" d="M-.003374024 .3024904H1219200V304800.3H-.003374024Z"/>
<path transform="matrix(.00007874014,0,0,.00007874014,103.125,42.00009)" stroke-width="38100" stroke-linecap="butt" stroke-miterlimit="8" stroke-linejoin="miter" fill="none" stroke="#000000" d="M-.007904008 .3024904H1828800V304800.3H-.007904008Z"/>
<path transform="matrix(1,0,0,-1,0,540)" d="M391.125 497.9999H415.125V473.9999H391.125Z" fill="#ffffff" fill-rule="evenodd"/>
<path transform="matrix(.00007874014,0,0,.00007874014,391.125,42.00009)" stroke-width="4156.364" stroke-linecap="butt" stroke-miterlimit="8" stroke-linejoin="miter" fill="none" stroke="#000000" d="M-.1236573 .3024904H304799.9V304800.3H-.1236573Z"/>
<path transform="matrix(1,0,0,-1,0,540)" d="M415.125 497.9999H439.125V473.9999H415.125Z" fill="#ffffff" fill-rule="evenodd"/>
<path transform="matrix(.00007874014,0,0,.00007874014,415.125,42.00009)" stroke-width="4156.364" stroke-linecap="butt" stroke-miterlimit="8" stroke-linejoin="miter" fill="none" stroke="#000000" d="M-.07678229 .3024904H304800V304800.3H-.07678229Z"/>
<path transform="matrix(.00007874014,0,0,.00007874014,246.125,42.00009)" stroke-width="38100" stroke-linecap="butt" stroke-miterlimit="8" stroke-linejoin="miter" fill="none" stroke="#000000" d="M-.01928711 .3024904H2438400V304800.3H-.01928711Z"/>
</g>
</g>
</svg>
