<svg xmlns="http://www.w3.org/2000/svg" xmlns:xlink="http://www.w3.org/1999/xlink" version="1.1" width="653.0556pt" height="158.788pt" viewBox="0 0 653.0556 158.788">
<defs>
<clipPath id="clip_0">
<path transform="matrix(1,0,0,-1,-.778381,540)" d="M.778381 381.212H653.834V540H.778381Z" fill-rule="evenodd"/>
</clipPath>
<clipPath id="clip_1">
<path transform="matrix(1,0,0,-1,-.778381,540)" d="M0 .00002324581H719.9999V540H0Z"/>
</clipPath>
<path id="font_2_13" d="M.08642578 .6021576C.08772787 .638443 .09407552 .66500857 .10546875 .68185427 .12597656 .7116597 .16552735 .7265625 .2241211 .7265625 .22965496 .7265625 .23535156 .7263997 .24121094 .7260742 .24707031 .7257487 .2537435 .72526046 .26123048 .7246094V.64453127C.25211589 .6449687 .2455241 .6452382 .24145508 .64533999 .23738607 .64545187 .2335612 .6455078 .22998047 .6455078 .20328777 .6455078 .18733724 .6386719 .1821289 .625 .17692058 .6113281 .1743164 .5764974 .1743164 .5205078H.26123048V.45117188H.17333985V0H.08642578V.45117188H.013671875V.5205078H.08642578V.6021576Z"/>
<path id="font_2_23" d="M.08203125 .66796877H.17089844V.5234375H.25439454V.4501953H.17089844V.110183719C.17089844 .09202576 .17708333 .07986959 .18945313 .07371521 .19628906 .07014465 .2076823 .068359378 .22363281 .068359378 .22786458 .068359378 .23242188 .06846619 .23730469 .06867981 .2421875 .0689036 .24788411 .06944784 .25439454 .0703125V0C.24430339-.0031026204 .23380535-.005340576 .22290039-.006713867 .21199544-.008097331 .20019531-.0087890629 .1875-.0087890629 .14648438-.0087890629 .118652347 .0016988119 .104003909 .02267456 .08935547 .04365031 .08203125 .070882167 .08203125 .10437012V.4501953H.011230469V.5234375H.08203125V.66796877Z"/>
<path id="font_2_22" d="M.06689453 .5234375H.15039063V.4326172C.15722656 .4502767 .17399089 .4717814 .2006836 .49713136 .2273763 .52248129 .25813804 .53515627 .29296876 .53515627 .29459635 .53515627 .29736329 .5349579 .30126954 .53456118 .30517579 .5341746 .31184898 .5333964 .32128907 .53222659V.43945313C.31608073 .44062297 .3112793 .44140116 .30688478 .44178773 .30249024 .44218446 .2976888 .4423828 .29248048 .4423828 .24820964 .4423828 .2141927 .4280599 .19042969 .39941407 .16666667 .37076823 .15478516 .33789063 .15478516 .30078126V0H.06689453V.5234375Z"/>
<path id="font_3_1" d="M0 0Z"/>
<clipPath id="clip_4">
<path transform="matrix(1,0,0,-1,-.778381,540)" d="M65.37503 482.7499H116.75V456.7499H65.37503Z" fill-rule="evenodd"/>
</clipPath>
<g id="pattern_tile_5">
<path transform="matrix(1,0,0,-1,264.3536,232.1806)" stroke-width="2.1" stroke-linecap="butt" stroke-miterlimit="10" stroke-linejoin="miter" fill="none" stroke="#cbcbcb" d="M-1 7 1 9M-1-1 9 9M7-1 9 1"/>
</g>
<pattern id="pattern_5" patternUnits="userSpaceOnUse" patternContentUnits="userSpaceOnUse" x="0" y="0" width="8" height="8">
<g transform="matrix(1,0,0,-1,-264.3536,232.1806)">
<use x="0" y="0" xlink:href="#pattern_tile_5"/>
</g>
</pattern>
<path id="font_2_15" d="M.064453128 .71875H.15234375V.45214845C.17317708 .4786682 .19189453 .4973297 .2084961 .50813296 .2368164 .5267995 .2721354 .5361328 .31445313 .5361328 .39029948 .5361328 .44173179 .50957748 .46875 .45646668 .48339845 .42747499 .49072267 .38723756 .49072267 .3357544V0H.40039063V.32958985C.40039063 .3680013 .3955078 .39615885 .3857422 .4140625 .36979167 .44270835 .33984376 .45703126 .29589845 .45703126 .2594401 .45703126 .22639974 .4444987 .19677735 .4194336 .16715496 .3943685 .15234375 .34700523 .15234375 .27734376V0H.064453128V.71875Z"/>
<path id="font_2_11" d="M.12011719 .2553711C.12011719 .19923909 .1319987 .15224712 .15576172 .11439514 .17952474 .076543178 .21761067 .057617189 .27001954 .057617189 .31070964 .057617189 .3441569 .075154628 .37036134 .11022949 .39656578 .14531453 .40966798 .19565328 .40966798 .26124574 .40966798 .32748924 .39615885 .37651573 .36914063 .4083252 .3421224 .44014488 .3087565 .4560547 .26904298 .4560547 .22477214 .4560547 .18888347 .4390869 .16137696 .40515138 .13387044 .37121583 .12011719 .32128907 .12011719 .2553711M.2524414 .53222659C.29248048 .53222659 .32600913 .52381899 .35302735 .5070038 .36865235 .4972992 .38639323 .48031617 .40625 .4560547V.71875H.49072267V0H.4116211V.07229614C.39111329 .04023234 .36686198 .017074585 .3388672 .002822876 .3108724-.011428833 .2788086-.018554688 .24267578-.018554688 .18440755-.018554688 .13395183 .0059407555 .091308597 .05493164 .048665365 .10392252 .02734375 .16910808 .02734375 .25048829 .02734375 .32666017 .04679362 .39265953 .08569336 .44848634 .1245931 .5043132 .18017578 .53222659 .2524414 .53222659Z"/>
<path id="font_6_6" d="M.17089844 .20532227C.17089844 .17025757 .17993164 .14305623 .19799805 .12371826 .21606446 .104390468 .24104817 .09472656 .27294923 .09472656 .30485026 .09472656 .32983399 .104390468 .3479004 .12371826 .3659668 .14305623 .375 .17025757 .375 .20532227 .375 .24169922 .36580406 .26930747 .3474121 .28814698 .32902018 .30698649 .30419923 .31640626 .27294923 .31640626 .24169922 .31640626 .21687825 .30698649 .19848633 .28814698 .1800944 .26930747 .17089844 .24169922 .17089844 .20532227M.026367188 .19654846C.026367188 .23631287 .03540039 .2723287 .053466798 .30459596 .0715332 .3368632 .09798177 .36114503 .1328125 .3774414 .09863281 .40022788 .076416019 .42488609 .06616211 .45141603 .055908204 .47794596 .05078125 .5027669 .05078125 .5258789 .05078125 .5773112 .07014974 .6211751 .10888672 .6574707 .1476237 .6937663 .2023112 .71191409 .27294923 .71191409 .34358726 .71191409 .39827476 .6937663 .43701173 .6574707 .4757487 .6211751 .4951172 .5773112 .4951172 .5258789 .4951172 .5027669 .48999024 .47794596 .47973634 .45141603 .46948243 .42488609 .44726563 .40185548 .41308595 .38232423 .44791667 .3627726 .4741211 .3368632 .49169923 .30459596 .50927737 .2723287 .5180664 .23631287 .5180664 .19654846 .5180664 .13690694 .49601237 .086146038 .4519043 .044265748 .40779624 .0023854573 .3461914-.018554688 .26708985-.018554688 .18798828-.018554688 .12809246 .0023854573 .087402347 .044265748 .04671224 .086146038 .026367188 .13690694 .026367188 .19654846M.18359375 .5097656C.18359375 .4841919 .19148763 .46331278 .20727539 .4471283 .22306316 .43094383 .24495442 .42285157 .27294923 .42285157 .30126954 .42285157 .3231608 .43094383 .33862306 .4471283 .3540853 .46331278 .3618164 .4841919 .3618164 .5097656 .3618164 .53760787 .3540853 .559377 .33862306 .57507327 .3231608 .5907796 .30126954 .5986328 .27294923 .5986328 .24495442 .5986328 .22306316 .5907796 .20727539 .57507327 .19148763 .559377 .18359375 .53760787 .18359375 .5097656Z"/>
<path id="font_6_3" d="M.2241211 .74121096H.33984376L.060058595 0H-.0546875L.2241211 .74121096Z"/>
<path id="font_6_5" d="M.06933594 .48828126V.5830078C.11328125 .58496096 .14404297 .5878906 .1616211 .5917969 .18961589 .59798178 .21240235 .61035159 .22998047 .62890627 .24202474 .64160159 .2511393 .6585286 .25732423 .6796875 .26090495 .6923828 .2626953 .70182296 .2626953 .7080078H.37841798V0H.23583985V.48828126H.06933594Z"/>
<path id="font_7_1" d="M0 0Z"/>
<clipPath id="clip_8">
<path transform="matrix(1,0,0,-1,-.778381,540)" d="M39.25 482.7499H65.37503V456.6249H39.25Z" fill-rule="evenodd"/>
</clipPath>
<g id="pattern_tile_9">
<path transform="matrix(1,0,0,-1,158.40212,232.1806)" stroke-width="2.1" stroke-linecap="butt" stroke-miterlimit="10" stroke-linejoin="miter" fill="none" stroke="#cbcbcb" d="M-1 7 1 9M-1-1 9 9M7-1 9 1"/>
</g>
<pattern id="pattern_9" patternUnits="userSpaceOnUse" patternContentUnits="userSpaceOnUse" x="0" y="0" width="8" height="8">
<g transform="matrix(1,0,0,-1,-158.40212,232.1806)">
<use x="0" y="0" xlink:href="#pattern_tile_9"/>
</g>
</pattern>
<path id="font_2_7" d="M.13964844 .23144531C.14192708 .19064331 .15152996 .1575063 .16845703 .1320343 .2006836 .084376018 .25748698 .060546876 .3388672 .060546876 .37532554 .060546876 .40852867 .06575521 .43847657 .076171878 .49641929 .096354167 .5253906 .13248189 .5253906 .18455506 .5253906 .22361756 .5131836 .25144959 .48876954 .26805116 .46402995 .2843882 .42529298 .29859925 .3725586 .3106842L.27539063 .3327484C.21191406 .3471222 .16699219 .36294047 .140625 .38020326 .095052089 .41016136 .072265628 .4549408 .072265628 .5145416 .072265628 .57902529 .094563808 .6319478 .13916016 .6733093 .18375652 .71467086 .24690755 .73535159 .32861329 .73535159 .4038086 .73535159 .46769206 .7172038 .5202637 .6809082 .57283529 .6446126 .5991211 .58658859 .5991211 .50683596H.5078125C.5029297 .5452474 .49251304 .57470706 .4765625 .59521487 .4469401 .6326497 .39664714 .6513672 .3256836 .6513672 .26839195 .6513672 .22721355 .63931277 .20214844 .61520388 .17708333 .591095 .16455078 .56307479 .16455078 .5311432 .16455078 .49595643 .17919922 .47021995 .2084961 .45393373 .22770183 .44350688 .27115885 .43047587 .3388672 .4148407L.43945313 .39187623C.48795573 .38079835 .5253906 .36565147 .5517578 .34643556 .59733077 .31288658 .6201172 .26419068 .6201172 .2003479 .6201172 .12085978 .59122726 .06401571 .53344729 .029815674 .47566734-.004384359 .40852867-.021484375 .33203126-.021484375 .24283855-.021484375 .17301433 .0013478597 .122558597 .04701233 .07210287 .0923411 .04736328 .15381877 .048339845 .23144531H.13964844M.3359375 .7373047V.7373047Z"/>
<path id="font_2_8" d="M.13183594 .1394043C.13183594 .114095058 .14111328 .09413656 .15966797 .07952881 .17822266 .06492106 .20019531 .057617189 .22558594 .057617189 .2565104 .057617189 .28645835 .06471761 .3154297 .07891846 .3642578 .10247803 .38867188 .14127605 .38867188 .1953125V.26611329C.3779297 .25886027 .36409507 .2528127 .34716798 .24797058 .33024089 .24313863 .3136393 .23983257 .29736329 .23805237L.24414063 .23184204C.21223958 .22799683 .1883138 .22153218 .17236328 .21244812 .14534505 .19718933 .13183594 .17284139 .13183594 .1394043M.34472657 .31689454C.36490885 .3194987 .37841798 .32796226 .3852539 .34228517 .38916017 .35012818 .39111329 .36140443 .39111329 .3761139 .39111329 .40618388 .38045249 .42799888 .35913087 .44155885 .33780924 .455129 .30729167 .46191407 .26757813 .46191407 .22167969 .46191407 .18912761 .44948326 .16992188 .42462159 .15917969 .4108785 .15218099 .39043174 .14892578 .36328126H.06689453C.06852213 .42791749 .08943685 .47288514 .12963867 .4981842 .1698405 .5234833 .21647136 .5361328 .26953126 .5361328 .3310547 .5361328 .38102214 .52441409 .4194336 .50097659 .45751954 .47753907 .4765625 .4410502 .4765625 .39151V.08985901C.4765625 .08073425 .47843424 .073404949 .48217774 .067871097 .48592124 .06233724 .4938151 .059570314 .5058594 .059570314 .5097656 .059570314 .51416018 .059814454 .51904299 .060302736 .5239258 .060791017 .5291341 .061523439 .53466799 .0625V-.0028076173C.5209961-.00676473 .5105794-.009236653 .50341799-.010223389 .4962565-.011220296 .48649089-.01171875 .4741211-.01171875 .44384767-.01171875 .421875-.0009104411 .40820313 .020706177 .40104167 .032170614 .3959961 .048380536 .3930664 .06933594 .37516276 .045633954 .34944663 .025060019 .31591798 .0076141359 .2823893-.009831746 .2454427-.018554688 .20507813-.018554688 .15657552-.018554688 .11694336-.0037790936 .08618164 .025772095 .055419923 .055323285 .040039064 .092300418 .040039064 .13670349 .040039064 .18535869 .05517578 .22307332 .08544922 .24984741 .115722659 .2766215 .1554362 .29311119 .20458985 .2993164L.34472657 .31689454M.27197267 .5361328V.5361328Z"/>
<path id="font_2_1" d="M0 0Z"/>
<path id="font_2_20" d="M.27197267 .057617189C.33024089 .057617189 .37019859 .07964579 .3918457 .123703 .41349284 .16776021 .4243164 .21677144 .4243164 .2707367 .4243164 .31950379 .4165039 .35917155 .4008789 .38974 .3761393 .43785606 .3334961 .46191407 .27294923 .46191407 .21923828 .46191407 .18017578 .44143168 .15576172 .40046693 .13134766 .35950218 .119140628 .31008403 .119140628 .25221253 .119140628 .1966095 .13134766 .15027364 .15576172 .113204959 .18017578 .076146449 .21891277 .057617189 .27197267 .057617189M.27539063 .53808596C.34277345 .53808596 .3997396 .5156453 .44628907 .47076417 .49283854 .42588298 .5161133 .35985819 .5161133 .27268983 .5161133 .1884613 .49560548 .11886088 .45458985 .06388855 .41357423 .008926392 .3499349-.018554688 .26367188-.018554688 .19173177-.018554688 .13460286 .00575765 .092285159 .054382326 .04996745 .103006999 .028808594 .16829936 .028808594 .2502594 .028808594 .33806864 .05110677 .4079895 .095703128 .46002198 .14029949 .51206466 .20019531 .53808596 .27539063 .53808596M.27246095 .5361328V.5361328Z"/>
<path id="font_2_12" d="M.28222657 .53515627C.31933595 .53515627 .355306 .52644857 .39013673 .5090332 .42496745 .49161784 .4514974 .4690806 .46972657 .4414215 .4873047 .41505433 .49902345 .3842977 .5048828 .3491516 .5100911 .32506309 .5126953 .28647868 .5126953 .23339844H.12939453C.13102214 .18033855 .14355469 .13777669 .16699219 .10571289 .19042969 .073649089 .22672527 .057617189 .2758789 .057617189 .32177735 .057617189 .35839845 .07261658 .3857422 .10261536 .4013672 .12003072 .4124349 .14018758 .4189453 .16308594H.5053711C.50309249 .14398194 .49552409 .122690837 .48266603 .09921265 .46980796 .07574463 .45540367 .05656433 .43945313 .041671754 .4127604 .01576233 .37972007-.0017242432 .34033204-.010787964 .3191732-.01596578 .2952474-.018554688 .2685547-.018554688 .20345052-.018554688 .14827474 .0051472985 .103027347 .05255127 .05777995 .09995524 .03515625 .16634114 .03515625 .25170899 .03515625 .33576457 .057942708 .40401713 .103515628 .45646668 .14908855 .5089264 .20865886 .53515627 .28222657 .53515627M.42236329 .30371095C.41878257 .34191896 .41048179 .37245179 .39746095 .39530946 .3733724 .4377594 .33317057 .45898438 .27685548 .45898438 .23649089 .45898438 .20263672 .44437156 .17529297 .41514588 .14794922 .3859202 .13346355 .34877525 .13183594 .30371095H.42236329M.27392579 .5361328V.5361328Z"/>
<path id="font_2_21" d="M.28515626 .057617189C.32617188 .057617189 .36027018 .07486979 .38745118 .109375 .41463218 .14389038 .42822267 .1954956 .42822267 .26419068 .42822267 .3060608 .42220054 .34204103 .41015626 .37213136 .38736979 .43003337 .34570313 .45898438 .28515626 .45898438 .22428386 .45898438 .18261719 .42840068 .16015625 .36723329 .14811199 .33451844 .14208985 .29297386 .14208985 .24259949 .14208985 .20204163 .14811199 .16753133 .16015625 .1390686 .1829427 .08476766 .22460938 .057617189 .28515626 .057617189M.057617189 .5205078H.1430664V.45162965C.16064453 .47540284 .17985027 .49379985 .2006836 .5068207 .23030599 .5263621 .26513673 .5361328 .30517579 .5361328 .36442057 .5361328 .41471354 .5133667 .4560547 .46783448 .49739585 .42230226 .5180664 .3572693 .5180664 .2727356 .5180664 .1585083 .48828126 .07691447 .42871095 .027954102 .39095054-.0030517579 .34700523-.018554688 .296875-.018554688 .25748698-.018554688 .22444661-.009984334 .1977539 .007156372 .1821289 .016860962 .16471355 .033518476 .14550781 .057128908V-.20898438H.057617189V.5205078Z"/>
<path id="font_6_8" d="M.4814453 .49072267C.4814453 .52815756 .4715983 .5548503 .4519043 .5708008 .4322103 .5867513 .4046224 .59472659 .36914063 .59472659H.2290039V.3828125H.36914063C.4046224 .3828125 .4322103 .3914388 .4519043 .4086914 .4715983 .425944 .4814453 .45328776 .4814453 .49072267M.6303711 .49121095C.6303711 .40607707 .6088867 .34589134 .56591799 .3106537 .5229492 .27542625 .46158854 .2578125 .38183595 .2578125H.2290039V0H.079589847V.71972659H.3930664C.46533204 .71972659 .5229492 .70113119 .56591799 .6639404 .6088867 .6267598 .6303711 .56918337 .6303711 .49121095Z"/>
<path id="font_6_20" d="M.3540039 .54589846C.35660807 .54589846 .35880534 .5458171 .3605957 .5456543 .36238609 .5454915 .3663737 .5452474 .3725586 .5449219V.40234376C.36376954 .40312705 .35595704 .40364585 .3491211 .40390016 .34228517 .40416465 .3367513 .40429688 .33251954 .40429688 .27652995 .40429688 .2389323 .38604737 .21972656 .34954835 .20898438 .32901 .20361328 .2973938 .20361328 .2546997V0H.06347656V.53222659H.19628906V.43980409C.21777344 .47549949 .23649089 .4998932 .2524414 .5129852 .27848307 .53492739 .31233726 .54589846 .3540039 .54589846Z"/>
<path id="font_6_18" d="M.30371095 .09863281C.34440104 .09863281 .37565104 .113098148 .39746095 .14202881 .41927085 .17095948 .43017579 .21207683 .43017579 .26538087 .43017579 .3186849 .41927085 .35972087 .39746095 .38848878 .37565104 .41725669 .34440104 .43164063 .30371095 .43164063 .26302085 .43164063 .23168946 .41725669 .2097168 .38848878 .18774414 .35972087 .17675781 .3186849 .17675781 .26538087 .17675781 .21207683 .18774414 .17095948 .2097168 .14202881 .23168946 .113098148 .26302085 .09863281 .30371095 .09863281M.5761719 .26586915C.5761719 .18781536 .55371096 .12105814 .50878909 .065597537 .4638672 .010147095 .39567057-.017578125 .30419923-.017578125 .21272786-.017578125 .14453125 .010147095 .099609378 .065597537 .0546875 .12105814 .032226564 .18781536 .032226564 .26586915 .032226564 .342631 .0546875 .40914408 .099609378 .46540834 .14453125 .52167257 .21272786 .5498047 .30419923 .5498047 .39567057 .5498047 .4638672 .52167257 .50878909 .46540834 .55371096 .40914408 .5761719 .342631 .5761719 .26586915M.30419923 .5498047V.5498047Z"/>
<path id="font_6_17" d="M.20703125 0H.067871097V.71875H.20703125V0Z"/>
<path id="font_6_13" d="M.29345704 .11328125C.32600913 .11328125 .35351563 .12562561 .37597657 .15031433 .3984375 .17501323 .40966798 .21434529 .40966798 .26831056 .40966798 .31900025 .39900718 .35758973 .37768556 .38407899 .35636393 .4105784 .32779948 .42382813 .2919922 .42382813 .24316406 .42382813 .20947266 .4007721 .19091797 .35466004 .18115235 .3301239 .17626953 .29987083 .17626953 .26390077 .17626953 .23282369 .18147786 .20518494 .19189453 .1809845 .21077474 .135849 .2446289 .11328125 .29345704 .11328125M.25878907 .54589846C.28548179 .54589846 .3087565 .5417989 .32861329 .53359988 .36246745 .5195109 .3898112 .49361674 .41064454 .45591737V.53222659H.54589846V.02734375C.54589846-.041341146 .53434249-.09309896 .51123049-.12792969 .47151695-.18782552 .39534507-.21777344 .28271485-.21777344 .21468099-.21777344 .15917969-.2043864 .11621094-.1776123 .07324219-.15083821 .049479169-.110839847 .044921876-.057617189H.19628906C.20019531-.074035648 .20654297-.085861209 .21533203-.09309387 .23030599-.105901088 .25553385-.11230469 .29101563-.11230469 .34114585-.11230469 .37467448-.09561157 .39160157-.06222534 .40266929-.040842695 .40820313-.0048675539 .40820313 .045700075V.07972717C.39485679 .05703227 .38053385 .04001363 .36523438 .028671265 .3375651 .0076039636 .30159507-.0029296876 .25732423-.0029296876 .18896485-.0029296876 .13435872 .02113851 .09350586 .0692749 .052652997 .11742147 .032226564 .18262227 .032226564 .26487733 .032226564 .3441925 .051920576 .41085816 .091308597 .46487428 .13069661 .5188904 .18652344 .54589846 .25878907 .54589846M.30322267 .54589846V.54589846Z"/>
<path id="font_6_21" d="M.20361328 .53222659V.21142578C.20361328 .18115235 .20719402 .15836589 .21435547 .1430664 .22705078 .11604818 .25195313 .10253906 .2890625 .10253906 .33658854 .10253906 .36914063 .12174479 .38671876 .16015625 .39583335 .18098958 .40039063 .2084961 .40039063 .24267578V.53222659H.5415039V0H.40625V.07519531C.4049479 .07356771 .40169273 .0686849 .39648438 .060546876 .39127604 .052408857 .38509117 .045247396 .3779297 .0390625 .35611979 .01953125 .33504234 .006184896 .31469728-.0009765625 .2943522-.0081380209 .2705078-.01171875 .24316406-.01171875 .16438802-.01171875 .111328128 .016601563 .083984378 .07324219 .0686849 .10449219 .061035158 .15055339 .061035158 .21142578V.53222659H.20361328M.30126954 .54589846V.54589846Z"/>
<path id="font_6_12" d="M.27490235 .4296875C.24267578 .4296875 .21769206 .41986085 .19995117 .40020753 .18221028 .3805542 .1710612 .35392253 .1665039 .3203125H.3828125C.38053385 .35614015 .36938478 .3833262 .34936524 .40187074 .3293457 .42041526 .30452476 .4296875 .27490235 .4296875M.27490235 .54589846C.3191732 .54589846 .35904948 .53760787 .39453126 .5210266 .43001304 .50445559 .4593099 .47829185 .48242188 .4425354 .5032552 .41101075 .51676437 .3744456 .5229492 .33283998 .52652999 .30846659 .5279948 .2733663 .52734377 .22753906H.16308594C.16503906 .17434693 .18180339 .13704936 .2133789 .11564636 .23258464 .10235087 .25569663 .095703128 .28271485 .095703128 .3113607 .095703128 .3346354 .103775028 .35253907 .11991882 .3623047 .12863668 .370931 .14074707 .37841798 .15625H.5205078C.51692709 .12467448 .5004883 .09261068 .4711914 .060058595 .4256185 .008300781 .3618164-.017578125 .27978517-.017578125 .21207683-.017578125 .15234375 .004211426 .10058594 .047790529 .048828126 .0913798 .022949219 .1622823 .022949219 .26049806 .022949219 .35253907 .04630534 .42311607 .09301758 .472229 .13972982 .521342 .20035808 .54589846 .27490235 .54589846M.28466798 .54589846V.54589846Z"/>
<path id="font_6_9" d="M.35253907 .5439453C.42252604 .5439453 .47729493 .518692 .5168457 .46818543 .5563965 .417689 .5761719 .3525289 .5761719 .27270509 .5761719 .18995159 .5566406 .12136841 .5175781 .06695557 .47851563 .012552897 .42399089-.0146484379 .3540039-.0146484379 .3100586-.0146484379 .2747396-.0057373049 .24804688 .012084961 .23209636 .022654215 .21484375 .04114278 .19628906 .06755066V0H.060058595V.71875H.19873047V.4625702C.2163086 .4874115 .23567708 .506368 .25683595 .5194397 .28190104 .5357768 .3138021 .5439453 .35253907 .5439453M.31689454 .1015625C.3527018 .1015625 .38053385 .115982059 .40039063 .14482117 .4202474 .17366028 .43017579 .21157329 .43017579 .25856019 .43017579 .29614768 .42529298 .32725526 .41552735 .35188294 .39697267 .3985443 .36279298 .421875 .31298829 .421875 .26253257 .421875 .22786458 .3990326 .20898438 .35334779 .19921875 .32903544 .19433594 .29760234 .19433594 .25904847 .19433594 .213679 .20442708 .17608643 .22460938 .14627075 .24479167 .11646525 .27555339 .1015625 .31689454 .1015625Z"/>
<path id="font_6_10" d="M.3828125 .34179688C.38020835 .36165367 .37353517 .37955729 .36279298 .3955078 .34716798 .4169922 .32291667 .42773438 .29003907 .42773438 .24316406 .42773438 .21110027 .40445964 .19384766 .35791017 .18473308 .33326213 .18017578 .3005015 .18017578 .2596283 .18017578 .2207082 .18473308 .18940735 .19384766 .16572571 .21044922 .12099711 .24169922 .09863281 .28759767 .09863281 .32014976 .09863281 .34326173 .10751343 .3569336 .12527466 .37060548 .14303589 .37890626 .16605632 .38183595 .19433594H.5239258C.5206706 .1519165 .5053711 .11178589 .47802735 .07394409 .43440757 .01292928 .36979167-.017578125 .2841797-.017578125 .1985677-.017578125 .13557942 .007792155 .095214847 .058532716 .05485026 .10927328 .03466797 .17511495 .03466797 .25605775 .03466797 .34739686 .056966146 .41853843 .1015625 .46948243 .14615886 .52042648 .2076823 .54589846 .2861328 .54589846 .3528646 .54589846 .4074707 .53088888 .44995118 .50086978 .49243165 .47085063 .5175781 .41782633 .5253906 .34179688H.3828125M.28857423 .54589846V.54589846Z"/>
<path id="font_6_16" d="M.06347656 .71777346H.20019531V.3300476L.37353517 .53027346H.54589846L.35986329 .33164979 .55322268 0H.3852539L.25753785 .2277832 .20019531 .16763306V0H.06347656V.71777346Z"/>
<clipPath id="clip_10">
<path transform="matrix(1,0,0,-1,-.778381,540)" d="M533.1249 482.7499H559.3749V456.6249H533.1249Z" fill-rule="evenodd"/>
</clipPath>
<g id="pattern_tile_11">
<path transform="matrix(1,0,0,-1,2161.3397,232.1806)" stroke-width="2.1" stroke-linecap="butt" stroke-miterlimit="10" stroke-linejoin="miter" fill="none" stroke="#cbcbcb" d="M-1 7 1 9M-1-1 9 9M7-1 9 1"/>
</g>
<pattern id="pattern_11" patternUnits="userSpaceOnUse" patternContentUnits="userSpaceOnUse" x="0" y="0" width="8" height="8">
<g transform="matrix(1,0,0,-1,-2161.3397,232.1806)">
<use x="0" y="0" xlink:href="#pattern_tile_11"/>
</g>
</pattern>
<path id="font_6_4" d="M.17333985 .34643556C.17333985 .26497398 .18001302 .20265706 .19335938 .15948487 .20670574 .11631266 .23404949 .09472656 .27539063 .09472656 .31673179 .09472656 .3438314 .11631266 .35668946 .15948487 .36954753 .20265706 .37597657 .26497398 .37597657 .34643556 .37597657 .43180339 .36954753 .49501548 .35668946 .5360718 .3438314 .5771281 .31673179 .59765627 .27539063 .59765627 .23404949 .59765627 .20670574 .5771281 .19335938 .5360718 .18001302 .49501548 .17333985 .43180339 .17333985 .34643556M.27539063 .7128906C.3655599 .7128906 .42879234 .68110659 .4650879 .61753848 .5013835 .5539805 .51953127 .46369425 .51953127 .3466797 .51953127 .22966512 .5013835 .13953655 .4650879 .076293949 .42879234 .013061523 .3655599-.018554688 .27539063-.018554688 .18522136-.018554688 .12198893 .013061523 .08569336 .076293949 .049397787 .13953655 .03125 .22966512 .03125 .3466797 .03125 .46369425 .049397787 .5539805 .08569336 .61753848 .12198893 .68110659 .18522136 .7128906 .27539063 .7128906Z"/>
<path id="font_2_5" d="M.3515625 .08300781C.3844401 .08300781 .41145835 .08642578 .4326172 .09326172 .4703776 .10595703 .50130209 .1303711 .5253906 .1665039 .5445964 .19547527 .55843099 .23258464 .56689456 .27783204 .57177737 .30485026 .57421877 .32991538 .57421877 .35302735 .57421877 .44189454 .55655929 .51090499 .52124026 .5600586 .48592124 .6092122 .42903648 .63378909 .35058595 .63378909H.17822266V.08300781H.3515625M.080566409 .71777346H.37109376C.46972657 .71777346 .54622396 .6827545 .60058596 .6127167 .64908859 .54952499 .67333987 .46857707 .67333987 .36987306 .67333987 .2936503 .6590169 .22475688 .6303711 .16319275 .57991537 .054397584 .49316407 0 .3701172 0H.080566409V.71777346Z"/>
<path id="font_2_24" d="M.15234375 .5234375V.17590332C.15234375 .1491801 .15657552 .12734477 .16503906 .11039734 .18066406 .07911682 .20979817 .06347656 .2524414 .06347656 .3136393 .06347656 .355306 .09085083 .3774414 .14559937 .3894857 .17492676 .3955078 .21516927 .3955078 .2663269V.5234375H.48339845V0H.40039063L.4013672 .0771637C.38997398 .057195028 .3758138 .040339155 .35888673 .02659607 .32535807-.00090026858 .28466798-.0146484379 .2368164-.0146484379 .16227214-.0146484379 .11149088 .010299683 .084472659 .060195924 .06982422 .08693949 .0625 .12265015 .0625 .16732788V.5234375H.15234375M.27294923 .5361328V.5361328Z"/>
<path id="font_2_9" d="M.057617189 .71875H.1430664V.45948792C.16227214 .4847056 .18522136 .50394698 .21191406 .5172119 .23860677 .53047689 .26757813 .5371094 .29882813 .5371094 .36393229 .5371094 .41674806 .5147095 .4572754 .46990968 .49780274 .42510987 .5180664 .35905458 .5180664 .27174378 .5180664 .1889801 .49804688 .12022909 .4580078 .06549072 .41796876 .010762532 .36246745-.016601563 .2915039-.016601563 .25179038-.016601563 .21826172-.006942749 .19091797 .012374878 .17464192 .023839316 .15722656 .042175294 .13867188 .06738281V0H.057617189V.71875M.2861328 .061523439C.33365885 .061523439 .36922203 .08037821 .39282228 .11808777 .41642253 .1558075 .42822267 .20555115 .42822267 .26731874 .42822267 .32227073 .41642253 .3677877 .39282228 .40386964 .36922203 .43996177 .33447267 .4580078 .28857423 .4580078 .24853516 .4580078 .21346028 .44321189 .18334961 .41362 .15323894 .3840383 .1381836 .3352712 .1381836 .26731874 .1381836 .21822612 .14436849 .17840068 .15673828 .1478424 .17985027 .090296428 .22298177 .061523439 .2861328 .061523439Z"/>
<path id="font_2_18" d="M.06689453 .71777346H.15478516V0H.06689453V.71777346Z"/>
<path id="font_2_2" d="M.041503908 .32421876H.2866211V.23339844H.041503908V.32421876Z"/>
<path id="font_2_25" d="M.10498047 .5234375 .2055664 .110946658 .3076172 .5234375H.40625L.50878909 .11338806 .61572268 .5234375H.7036133L.5517578 0H.46044923L.3540039 .40516664 .25097657 0H.15966797L.0087890629 .5234375H.10498047Z"/>
<path id="font_2_16" d="M.064453128 .5205078H.1538086V0H.064453128V.5205078M.064453128 .71777346H.1538086V.61816409H.064453128V.71777346Z"/>
<path id="font_2_14" d="M.24902344 .53222659C.29003907 .53222659 .32584635 .5220744 .3564453 .50177 .37304688 .49030558 .38997398 .4736023 .40722657 .45166017V.5185547H.48828126V.04234314C.48828126-.024154664 .47851563-.07663473 .45898438-.115097049 .42252604-.18615215 .35367839-.22167969 .2524414-.22167969 .1961263-.22167969 .14876302-.20906575 .11035156-.18383789 .0719401-.15861003 .05045573-.119140628 .045898439-.06542969H.1352539C.13948567-.08873495 .14794922-.10669454 .16064453-.11930847 .1805013-.13872783 .2117513-.1484375 .25439454-.1484375 .32177735-.1484375 .3658854-.12467448 .38671876-.07714844 .39908854-.04916382 .40478517 .0007985433 .4038086 .07273865 .38623048 .04588318 .36507163 .025904337 .34033204 .012802124 .31559245-.000289917 .2828776-.0068359377 .2421875-.0068359377 .18554688-.0068359377 .13598633 .013280232 .09350586 .053512575 .05102539 .09375509 .029785157 .16030376 .029785157 .25315858 .029785157 .34080506 .051188154 .40922547 .09399414 .4584198 .13680013 .5076243 .18847656 .53222659 .24902344 .53222659M.40722657 .26342774C.40722657 .328125 .39388023 .37607829 .3671875 .4072876 .34049479 .43849693 .30647788 .45410157 .26513673 .45410157 .20328777 .45410157 .16097005 .4251658 .1381836 .3672943 .12613933 .33641053 .12011719 .29593406 .12011719 .24586487 .12011719 .1870168 .13208008 .14223226 .15600586 .11151123 .17993164 .0807902 .21207683 .06542969 .2524414 .06542969 .31559245 .06542969 .36002604 .09387716 .3857422 .1507721 .4000651 .18295796 .40722657 .22050984 .40722657 .26342774M.25927735 .5361328V.5361328Z"/>
<path id="font_2_19" d="M.064453128 .5234375H.14794922V.44921876C.1726888 .47981773 .19889324 .50179037 .2265625 .5151367 .25423179 .5284831 .2849935 .53515627 .31884767 .53515627 .3930664 .53515627 .44319663 .5092519 .46923829 .45744325 .4835612 .42910258 .49072267 .38853965 .49072267 .3357544V0H.4013672V.3299408C.4013672 .36188255 .39664714 .38762919 .38720704 .4071808 .37158204 .4397634 .34326173 .4560547 .3022461 .4560547 .28141276 .4560547 .2643229 .4539388 .25097657 .44970704 .22688802 .4425354 .20572917 .42819724 .1875 .4066925 .17285156 .38941957 .16333008 .37157694 .15893555 .35316468 .15454102 .3347524 .15234375 .30844117 .15234375 .27423097V0H.064453128V.5234375M.2709961 .5361328V.5361328Z"/>
<path id="font_6_2" d="M.0625 .14648438H.21044922V0H.0625V.14648438Z"/>
<path id="font_2_6" d="M.40966798 .38867188C.45524089 .38867188 .49129234 .39778648 .51782229 .41601563 .54435226 .43424479 .5576172 .4671224 .5576172 .51464846 .5576172 .5657552 .5390625 .60058596 .5019531 .6191406 .48209635 .62890627 .4555664 .63378909 .42236329 .63378909H.1850586V.38867188H.40966798M.087890628 .71777346H.41992188C.47460938 .71777346 .51969406 .709788 .5551758 .69381716 .6225586 .6631775 .65625 .60662338 .65625 .52415469 .65625 .48112489 .6473796 .44591777 .6296387 .41853334 .61189779 .39115907 .58707687 .36916099 .5551758 .35253907 .5831706 .34114585 .60424807 .32617188 .6184082 .3076172 .63256838 .2890625 .6404622 .2589518 .64208987 .21728516L.6455078 .12109375C.6464844 .09388224 .648763 .07363383 .65234377 .06034851 .6582031 .037663778 .6686198 .023081461 .68359377 .016601563V0H.5644531C.56119796 .006184896 .55859377 .014160156 .5566406 .023925782 .5546875 .033691408 .5530599 .052571615 .5517578 .080566409L.54589846 .20019531C.5436198 .24707031 .5262044 .27848307 .49365235 .2944336 .47509767 .30322267 .44596354 .3076172 .40625 .3076172H.1850586V0H.087890628V.71777346Z"/>
<path id="font_2_10" d="M.26611329 .53808596C.32503257 .53808596 .37296549 .5237274 .4099121 .49501039 .44685874 .46629334 .46907554 .41684977 .4765625 .3466797H.39111329C.38590495 .37890626 .37402345 .40568034 .35546876 .42700196 .33691407 .44832359 .3071289 .45898438 .26611329 .45898438 .2101237 .45898438 .17008464 .43170677 .1459961 .3771515 .1303711 .34176127 .122558597 .29808555 .122558597 .24612427 .122558597 .19384766 .1336263 .14984639 .15576172 .11412048 .17789714 .07840475 .21272786 .060546876 .2602539 .060546876 .29671226 .060546876 .3256022 .0716095 .34692384 .09373474 .36824546 .115859989 .38297526 .1461385 .39111329 .18457031H.4765625C.46679688 .115234378 .4423828 .06453451 .4033203 .032470704 .3642578 .00040690104 .31429038-.015625 .25341798-.015625 .1850586-.015625 .13053386 .009379069 .08984375 .059387208 .049153646 .10940552 .028808594 .17188008 .028808594 .24681092 .028808594 .33868919 .05110677 .41020204 .095703128 .4613495 .14029949 .51250717 .19710286 .53808596 .26611329 .53808596M.2524414 .5361328V.5361328Z"/>
<path id="font_2_17" d="M.0625 .71777346H.14697266V.30101014L.3725586 .5234375H.48486329L.28466798 .32881166 .49609376 0H.38378907L.22070313 .26635743 .14697266 .19647217V0H.0625V.71777346Z"/>
<path id="font_2_3" d="M.095703128 .4951172V.5625C.15917969 .5686849 .20345052 .5790202 .22851563 .59350588 .25358073 .6079915 .2722982 .6422526 .28466798 .69628909H.3540039V0H.2602539V.4951172H.095703128Z"/>
<path id="font_2_4" d="M.03125 0C.034505208 .060221357 .04695638 .11263021 .068603519 .15722656 .09025065 .20182292 .13248699 .24235027 .1953125 .2788086L.2890625 .3330078C.3310547 .35742188 .3605143 .3782908 .3774414 .39561463 .40413413 .4227346 .41748048 .45377604 .41748048 .488739 .41748048 .52959188 .40527345 .562027 .38085938 .5860443 .3564453 .61006167 .32389323 .6220703 .28320313 .6220703 .22298177 .6220703 .18131511 .5991516 .15820313 .5533142 .14583333 .52875778 .13899739 .4947103 .13769531 .45117188H.048339845C.049316408 .5121663 .060546876 .5619049 .08203125 .6003876 .12011719 .66822817 .18733724 .70214846 .2836914 .70214846 .36376954 .70214846 .4222819 .68047079 .45922853 .6371155 .49617515 .5937703 .51464846 .5455373 .51464846 .49241639 .51464846 .4363556 .49495445 .388443 .4555664 .3486786 .43277995 .3255361 .3919271 .29752604 .3330078 .26464845L.26611329 .22753906C.23421224 .20996094 .20914714 .19319661 .19091797 .1772461 .15836589 .14892578 .13785808 .11751302 .12939453 .08300781H.51123049V0H.03125Z"/>
<path id="font_6_7" d="M.60839846 .5917969H.22753906V.43945313H.57714846V.31445313H.22753906V.12988281H.62597659V0H.080566409V.71972659H.60839846V.5917969Z"/>
<path id="font_6_19" d="M.43164063 .26538087C.43164063 .30646769 .4222819 .3428192 .40356446 .37443543 .38484703 .4060618 .3544922 .421875 .3125 .421875 .26204429 .421875 .2273763 .3979136 .2084961 .34999085 .19873047 .32455955 .19384766 .2922821 .19384766 .25315858 .19384766 .19121807 .21028646 .1476949 .24316406 .12258911 .2626953 .10792033 .28580729 .10058594 .3125 .10058594 .35123698 .10058594 .38077799 .11558024 .40112306 .14556885 .4214681 .17556763 .43164063 .21550496 .43164063 .26538087M.35253907 .5439453C.41471354 .5439453 .46736656 .52097579 .51049807 .47503663 .5536296 .4290975 .5751953 .36165367 .5751953 .27270509 .5751953 .1788737 .55411788 .10736084 .5119629 .058166505 .46980796 .008972168 .41552735-.015625 .3491211-.015625 .30680339-.015625 .27164714-.005091349 .24365235 .015975953 .22835286 .027643839 .2133789 .044662477 .19873047 .06703186V-.20996094H.061035158V.53222659H.19433594V.45326234C.20930989 .47646586 .22526042 .49476625 .2421875 .50816348 .27311198 .532018 .30989585 .5439453 .35253907 .5439453Z"/>
<path id="font_6_15" d="M.20800781 .5957031H.06689453V.7246094H.20800781V.5957031M.06689453 .53222659H.20800781V0H.06689453V.53222659Z"/>
<path id="font_6_1" d="M0 0Z"/>
<path id="font_6_14" d="M.35839845 .54589846C.39127604 .54589846 .42114259 .54020187 .44799806 .5288086 .47485353 .51741537 .49690757 .5 .51416018 .4765625 .5288086 .45670573 .53776046 .4362793 .5410156 .4152832 .5442708 .3942871 .54589846 .36002604 .54589846 .3125V0H.4038086V.32336427C.4038086 .35197959 .39892579 .37506614 .38916017 .3926239 .37646485 .41733299 .3523763 .4296875 .31689454 .4296875 .2801107 .4296875 .25219728 .41740928 .2331543 .39285279 .21411133 .3683065 .20458985 .33327738 .20458985 .2877655V0H.06591797V.71777346H.20458985V.46253968C.22477214 .4935964 .24812825 .5152537 .2746582 .5275116 .30118815 .5397695 .32910157 .54589846 .35839845 .54589846Z"/>
<path id="font_6_11" d="M.26123048 .54589846C.29345704 .54589846 .32210288 .53878787 .34716798 .52456668 .37223307 .51035568 .39257813 .49066673 .40820313 .46549989V.71875H.5493164V0H.4140625V.073013309C.39420573 .041346235 .37158204 .018330893 .3461914 .003967285 .32080079-.010396321 .28922526-.017578125 .25146485-.017578125 .18929036-.017578125 .13696289 .0076548259 .09448242 .058120729 .052001954 .10858663 .030761719 .17334493 .030761719 .25239564 .030761719 .34353129 .051676435 .41523234 .09350586 .46749879 .13533528 .5197652 .19124349 .54589846 .26123048 .54589846M.2915039 .099609378C.33089195 .099609378 .36083985 .11432394 .38134767 .14375305 .40185548 .17318218 .41210938 .21127828 .41210938 .25804139 .41210938 .32344056 .39567057 .37019859 .36279298 .39831544 .3426107 .41532389 .3191732 .42382813 .29248048 .42382813 .25179038 .42382813 .22192383 .40837608 .20288086 .37747193 .18383789 .34657798 .1743164 .3082377 .1743164 .26245118 .1743164 .21307373 .18400066 .17358907 .20336914 .14399719 .22273763 .11440531 .25211589 .099609378 .2915039 .099609378Z"/>
<path id="font_12_12" d="M.40820313 .32617188C.3919271 .33626304 .37483726 .3438314 .3569336 .34887696 .33902995 .35392253 .3203125 .3564453 .30078126 .3564453 .26204429 .3564453 .23128255 .35012309 .2084961 .33747865 .19840496 .33196513 .19335938 .32596336 .19335938 .31947328 .19335938 .31201682 .20019531 .30471803 .21386719 .2975769 .22428386 .29238893 .2475586 .28736369 .2836914 .28250123 .35009767 .27341715 .39632163 .2643229 .42236329 .2552185 .45654298 .24317424 .48291017 .22527568 .50146487 .20152283 .52001956 .17778015 .5292969 .1527354 .5292969 .12638855 .5292969 .0906016 .5135091 .060668947 .4819336 .036590578 .4366862 .001780192 .3779297-.015625 .30566407-.015625 .27669273-.015625 .24991863-.013142903 .2253418-.008178711 .20076497-.0032145184 .17822266 .0040690104 .15771485 .013671875 .15283203 .009287517 .1476237 .005910238 .14208985 .003540039 .13655599 .0011800131 .13085938 0 .125 0 .109375 0 .09692383 .005142212 .087646488 .015426636 .07836914 .02571106 .07373047 .042933149 .07373047 .067092899V.100875858C.07373047 .1250356 .07836914 .14225769 .087646488 .15254212 .09692383 .16282654 .10904948 .16796875 .12402344 .16796875 .1360677 .16796875 .14615886 .16466777 .15429688 .1580658 .16243489 .151474 .16878255 .14013672 .17333985 .124053958 .18863933 .11118571 .20703125 .1014506 .22851563 .09484863 .25 .088256839 .2747396 .08496094 .30273438 .08496094 .3486328 .08496094 .38427735 .09209696 .40966798 .10636902 .42171226 .11349996 .42773438 .12096151 .42773438 .12875366 .42773438 .14172364 .41910807 .15242513 .40185548 .16085816 .38460288 .16929119 .34895835 .1764272 .29492188 .18226624 .21451824 .19069927 .1608073 .20695496 .13378906 .23103333 .106770839 .25478617 .09326172 .28407289 .09326172 .31889344 .09326172 .35469056 .10839844 .38446556 .13867188 .40821839 .1796875 .44076029 .23339844 .45703126 .2998047 .45703126 .32291667 .45703126 .34513346 .4547933 .36645509 .45031739 .3877767 .44584147 .40820313 .43896485 .42773438 .4296875 .43391929 .43424479 .43969728 .43766276 .44506837 .4399414 .45043946 .44222007 .45540367 .44335938 .45996095 .44335938 .4736328 .44335938 .48502604 .43823243 .49414063 .42797853 .5032552 .4177246 .5078125 .40055339 .5078125 .37646485V.35205079C.5078125 .33024089 .5052083 .3154297 .5 .3076172 .48958335 .29264323 .4754232 .28515626 .45751954 .28515626 .44547526 .28515626 .43489585 .28889976 .42578126 .29638673 .41666667 .3038737 .41080729 .3138021 .40820313 .32617188Z"/>
<path id="font_12_13" d="M.27539063 .34277345V.143219C.27539063 .12185669 .27978517 .107777919 .28857423 .100982669 .3022461 .09030151 .32666017 .08496094 .3618164 .08496094 .4129232 .08496094 .4601237 .09598287 .50341799 .11802673 .52001956 .12658184 .53304037 .13085938 .54248049 .13085938 .5555013 .13085938 .5668132 .12594097 .576416 .116104129 .58601889 .106277469 .5908203 .094319667 .5908203 .08023071 .5908203 .067118328 .585612 .055811567 .5751953 .046310426 .5592448 .03090922 .5277507 .016733805 .4807129 .0037841798 .43367515-.009155273 .39404298-.015625 .3618164-.015625 .29964195-.015625 .25301109-.0022328695 .22192383 .024551392 .1908366 .05133565 .17529297 .08420309 .17529297 .12315369V.34277345H.13916016C.11507162 .34277345 .09790039 .34743247 .087646488 .3567505 .07739258 .3660787 .072265628 .37826539 .072265628 .39331056 .072265628 .40803019 .07739258 .42004905 .087646488 .42936708 .09790039 .43869529 .11507162 .44335938 .13916016 .44335938H.17529297V.5336914C.17529297 .55777999 .17993164 .5749512 .18920899 .5852051 .19848633 .595459 .21061199 .60058596 .22558594 .60058596 .24023438 .60058596 .25219728 .595459 .2614746 .5852051 .27075196 .5749512 .27539063 .55777999 .27539063 .5336914V.44335938H.46044923C.48453776 .44335938 .501709 .43869529 .5119629 .42936708 .5222168 .42004905 .52734377 .40786744 .52734377 .39282228 .52734377 .37810264 .5222168 .3660787 .5119629 .3567505 .501709 .34743247 .48453776 .34277345 .46044923 .34277345H.27539063Z"/>
<path id="font_12_4" d="M.39013673 0V.0234375C.36507163 .010416667 .33740235 .0006510417 .3071289-.005859375 .27685548-.012369792 .24934896-.015625 .22460938-.015625 .17089844-.015625 .12727864-.0014088949 .09375 .027023316 .060221357 .0554657 .04345703 .08691406 .04345703 .12136841 .04345703 .16328939 .06486002 .20220439 .107666019 .2381134 .150472 .2740326 .20963542 .2919922 .28515626 .2919922 .3154297 .2919922 .3504232 .28873698 .39013673 .28222657V.30599977C.39013673 .32087199 .38370768 .33299766 .3708496 .3423767 .35799156 .35175578 .3334961 .3564453 .29736329 .3564453 .26774089 .3564453 .22932942 .350708 .1821289 .3392334 .16455078 .335083 .1508789 .3330078 .14111328 .3330078 .12776692 .3330078 .11645508 .33780924 .107177738 .3474121 .09790039 .35701499 .09326172 .36930339 .09326172 .38427735 .09326172 .39274089 .09488932 .4000651 .09814453 .40625 .10139974 .4124349 .10595703 .41739909 .111816409 .42114259 .11767578 .42488609 .12988281 .42936198 .1484375 .4345703 .17317708 .44140626 .19840496 .44685874 .2241211 .45092774 .24983724 .45499674 .27311198 .45703126 .2939453 .45703126 .35611979 .45703126 .40437828 .44360353 .4387207 .41674806 .47306315 .38989259 .49023438 .3531901 .49023438 .30664063V.10058594H.5073242C.5314128 .10058594 .548584 .095947269 .5588379 .08666992 .5690918 .07739258 .57421877 .06526693 .57421877 .05029297 .57421877 .03531901 .5690918 .02319336 .5588379 .013916016 .548584 .004638672 .5314128 0 .5073242 0H.39013673M.39013673 .17979431C.35009767 .1875356 .31315104 .19140625 .27929688 .19140625 .23860677 .19140625 .20361328 .18156941 .1743164 .16189575 .15608724 .14931233 .14697266 .13657125 .14697266 .123672489 .14697266 .11431376 .15136719 .10673014 .16015625 .10092163 .1764323 .090281169 .19873047 .08496094 .22705078 .08496094 .2511393 .08496094 .2784017 .089635219 .3088379 .098983768 .33927409 .10834249 .3663737 .12108866 .39013673 .13722229V.17979431Z"/>
<path id="font_12_8" d="M.3359375 .63378909V.52734377H.21679688V.63378909H.3359375M.34960938 .44335938V.10058594H.46972657C.4938151 .10058594 .5109863 .095947269 .52124026 .08666992 .53149417 .07739258 .5366211 .06526693 .5366211 .05029297 .5366211 .03531901 .53149417 .02319336 .52124026 .013916016 .5109863 .004638672 .4938151 0 .46972657 0H.12939453C.10530599 0 .088134769 .0047200524 .07788086 .014160156 .06762695 .02360026 .0625 .035807294 .0625 .05078125 .0625 .06575521 .06762695 .07779948 .07788086 .08691406 .088134769 .09602865 .10530599 .10058594 .12939453 .10058594H.24951172V.34277345H.16894531C.1451823 .34277345 .12809246 .3474935 .11767578 .3569336 .10725912 .3663737 .10205078 .37858073 .10205078 .3935547 .10205078 .40852867 .107177738 .4205729 .11743164 .4296875 .12768555 .4388021 .14485677 .44335938 .16894531 .44335938H.34960938Z"/>
<path id="font_12_5" d="M.4560547 .42578126C.46809898 .43684898 .48046876 .4423828 .49316407 .4423828 .507487 .4423828 .5192871 .43725587 .52856448 .42700196 .5378418 .41674806 .54248049 .3997396 .54248049 .37597657V.31152345C.54248049 .2874349 .5378418 .27034507 .52856448 .2602539 .5192871 .25016276 .50716146 .24511719 .4921875 .24511719 .47851563 .24511719 .46695964 .24902344 .45751954 .25683595 .4506836 .2626953 .4453125 .2746582 .44140626 .2927246 .4375 .31079103 .4280599 .32421876 .41308595 .3330078 .38671876 .3486328 .35302735 .3564453 .31201173 .3564453 .2648112 .3564453 .2269694 .34268189 .19848633 .31515504 .17000325 .28763835 .15576172 .25283814 .15576172 .2107544 .15576172 .17189534 .1694336 .14121501 .19677735 .11871338 .2241211 .096211757 .26953126 .08496094 .3330078 .08496094 .37467448 .08496094 .4086914 .089157108 .4350586 .09754944 .4506836 .10271708 .46549479 .11151123 .4794922 .123931888 .4934896 .13636272 .5061849 .14257813 .5175781 .14257813 .53125 .14257813 .5430501 .13753255 .5529785 .1274414 .5629069 .11735026 .5678711 .10546875 .5678711 .091796878 .5678711 .06966146 .5527344 .048665365 .52246096 .028808594 .47753907-.00081380209 .41178385-.015625 .3251953-.015625 .24739583-.015625 .18684896 .00047302247 .14355469 .032669069 .08496094 .075912479 .055664064 .13509624 .055664064 .21022034 .055664064 .281428 .079427089 .34036256 .12695313 .38702394 .17447917 .43369548 .23649089 .45703126 .31298829 .45703126 .34065757 .45703126 .3663737 .4544271 .39013673 .44921876 .41389976 .4440104 .4358724 .4361979 .4560547 .42578126Z"/>
<path id="font_12_1" d="M0 0Z"/>
<path id="font_12_7" d="M.19677735 .63378909V.41992188C.21761067 .43245445 .23868816 .44177247 .26000978 .44787599 .2813314 .4539795 .30289714 .45703126 .32470704 .45703126 .35921226 .45703126 .38997398 .45117188 .4169922 .43945313 .4440104 .42773438 .46638999 .40926109 .48413087 .3840332 .50187179 .35880534 .5107422 .3269857 .5107422 .28857423V.10058594C.5361328 .10058594 .5527344 .09755961 .5605469 .09150696 .5761719 .07900492 .5839844 .06526693 .5839844 .05029297 .5839844 .03531901 .5789388 .02319336 .56884768 .013916016 .55875656 .004638672 .5416667 0 .5175781 0H.4033203C.37955729 0 .36254884 .0047200524 .35229493 .014160156 .34204103 .02360026 .33691407 .035807294 .33691407 .05078125 .33691407 .06575521 .34472657 .07925415 .36035157 .091278079 .3684896 .097483318 .38509117 .10058594 .41015626 .10058594V.28138734C.41015626 .30706278 .40429688 .32509867 .39257813 .335495 .37727867 .34946189 .35465495 .3564453 .32470704 .3564453 .30257163 .3564453 .28295899 .35210166 .26586915 .3434143 .2487793 .33472697 .2257487 .31595866 .19677735 .28710938V.10058594C.22249349 .10058594 .23909505 .09755961 .24658203 .09150696 .26253257 .07900492 .2705078 .06526693 .2705078 .05029297 .2705078 .03531901 .26538087 .02319336 .25512696 .013916016 .24487305 .004638672 .22770183 0 .20361328 0H.08984375C.06575521 0 .048583986 .0047200524 .038330079 .014160156 .028076172 .02360026 .022949219 .035807294 .022949219 .05078125 .022949219 .06575521 .030924479 .07925415 .046875 .091278079 .0546875 .097483318 .07128906 .10058594 .09667969 .10058594V.5332031H.079589847C.0555013 .5332031 .038330079 .53792318 .028076172 .5473633 .017822266 .5568034 .0126953129 .56901046 .0126953129 .5839844 .0126953129 .5989583 .017822266 .6110026 .028076172 .6201172 .038330079 .62923178 .0555013 .63378909 .079589847 .63378909H.19677735Z"/>
<path id="font_12_11" d="M.27929688 .44335938V.38085938C.32128907 .41132609 .3544108 .43163554 .3786621 .44178773 .40291343 .45195008 .4256185 .45703126 .44677735 .45703126 .47932945 .45703126 .51090499 .4449463 .5415039 .42077638 .5623372 .4044393 .5727539 .3877767 .5727539 .37078858 .5727539 .3564148 .56778976 .34424339 .5578613 .3342743 .5479329 .3243154 .53597006 .31933595 .52197268 .31933595 .50960287 .31933595 .49658204 .32552085 .48291017 .33789063 .46923829 .3502604 .45703126 .3564453 .44628907 .3564453 .43229167 .3564453 .41137696 .34765626 .38354493 .33007813 .3557129 .3125 .32096354 .2861328 .27929688 .25097657V.10058594H.421875C.44596354 .10058594 .46313478 .095947269 .47338868 .08666992 .48364259 .07739258 .48876954 .06526693 .48876954 .05029297 .48876954 .03531901 .48364259 .02319336 .47338868 .013916016 .46313478 .004638672 .44596354 0 .421875 0H.119628909C.09554037 0 .07836914 .0047200524 .068115238 .014160156 .057861329 .02360026 .052734376 .035807294 .052734376 .05078125 .052734376 .06575521 .057861329 .07779948 .068115238 .08691406 .07836914 .09602865 .09554037 .10058594 .119628909 .10058594H.17919922V.34277345H.1430664C.11897787 .34277345 .10180664 .3474935 .091552738 .3569336 .08129883 .3663737 .076171878 .37858073 .076171878 .3935547 .076171878 .40852867 .08129883 .4205729 .091552738 .4296875 .10180664 .4388021 .11897787 .44335938 .1430664 .44335938H.27929688Z"/>
<path id="font_12_2" d="M.21826172 .37869264 .13183594 .40657044C.111328128 .41309104 .09830729 .42009989 .09277344 .42759706 .08496094 .4370575 .08105469 .44765727 .08105469 .45939637 .08105469 .4730886 .08585612 .48490397 .095458988 .49484254 .10506185 .50479128 .115885417 .5097656 .12792969 .5097656 .13574219 .5097656 .14729817 .5071564 .16259766 .50193789L.24902344 .47406007V.5649109C.24902344 .5890096 .2536621 .6061859 .26293946 .6164398 .2722168 .6267039 .28434245 .63183596 .2993164 .63183596 .31429038 .63183596 .32633464 .6267039 .33544923 .6164398 .3445638 .6061859 .3491211 .5890096 .3491211 .5649109V.47406007L.43554688 .50193789C.45117188 .5071564 .4625651 .5097656 .46972657 .5097656 .48209635 .5097656 .49308268 .5048726 .50268557 .49508668 .5122884 .48531089 .51708987 .47357688 .51708987 .45988465 .51708987 .44782005 .51375326 .43762718 .5070801 .42930604 .5004069 .4209951 .48697917 .41341654 .46679688 .40657044L.3803711 .37869264 .43359376 .3048401C.4466146 .2869059 .453125 .27272035 .453125 .26228334 .453125 .24826558 .4482422 .23636373 .43847657 .22657776 .42871095 .21680196 .4169922 .21191406 .4033203 .21191406 .39322917 .21191406 .38484703 .21402996 .37817384 .21826172 .37150065 .22250366 .36295573 .23180135 .35253907 .24615479L.2993164 .31951905 .24560547 .24516297C.23551433 .23061626 .22705078 .22111003 .22021485 .21664429 .2133789 .21218872 .20507813 .20996094 .1953125 .20996094 .18164063 .20996094 .1698405 .214976 .15991211 .2250061 .14998372 .23503621 .14501953 .24728902 .14501953 .26176454 .14501953 .2719574 .15152996 .2861023 .16455078 .30419923L.21826172 .37869264Z"/>
<path id="font_12_6" d="M.55126956 .171875H.140625C.15104167 .14583333 .16951497 .12483724 .19604492 .10888672 .22257488 .092936199 .25846354 .08496094 .30371095 .08496094 .3408203 .08496094 .39013673 .092819217 .45166017 .10853577 .47705079 .11495463 .4946289 .11816406 .50439456 .11816406 .5177409 .11816406 .5289714 .11344401 .53808596 .104003909 .5472005 .094563808 .5517578 .08268229 .5517578 .068359378 .5517578 .055338544 .546875 .044270833 .5371094 .03515625 .52408859 .023111979 .49235026 .01163737 .44189454 .0007324219 .3914388-.010172526 .3429362-.015625 .29638673-.015625 .2163086-.015625 .15226238 .0069986979 .10424805 .052246095 .056233724 .09749349 .032226564 .15315755 .032226564 .21923828 .032226564 .28955079 .058186849 .34676109 .11010742 .39086915 .162028 .4349772 .22184246 .45703126 .28955079 .45703126 .33024089 .45703126 .3675944 .44987998 .40161134 .4355774 .43562828 .421285 .4609375 .40585328 .47753907 .38928224 .50097659 .36523438 .52034506 .3355001 .53564456 .30007936 .5460612 .27538047 .55126956 .2467804 .55126956 .21427918V.171875M.4404297 .27246095C.42513023 .3006185 .4051107 .32165528 .3803711 .3355713 .3556315 .3494873 .32617188 .3564453 .2919922 .3564453 .25813804 .3564453 .22884114 .3494873 .20410156 .3355713 .17936199 .32165528 .15917969 .3006185 .14355469 .27246095H.4404297Z"/>
<path id="font_12_10" d="M.17578125 .055664064V-.10839844H.23583985C.25992839-.10839844 .2770996-.11311849 .28735353-.122558597 .29760743-.1319987 .30273438-.14420574 .30273438-.15917969 .30273438-.17415364 .29760743-.18619792 .28735353-.1953125 .2770996-.20442708 .25992839-.20898438 .23583985-.20898438H.05859375C.034505208-.20898438 .017333985-.20442708 .007080078-.1953125-.0031738282-.18619792-.008300781-.17415364-.008300781-.15917969-.008300781-.14420574-.003092448-.1319987 .0073242189-.122558597 .017740885-.11311849 .03483073-.10839844 .05859375-.10839844H.075683597V.34277345H.05859375C.034505208 .34277345 .017333985 .3474935 .007080078 .3569336-.0031738282 .3663737-.008300781 .37858073-.008300781 .3935547-.008300781 .40852867-.0031738282 .4205729 .007080078 .4296875 .017333985 .4388021 .034505208 .44335938 .05859375 .44335938H.17578125V.4091797C.19921875 .42529298 .22347005 .43729655 .24853516 .44519044 .27360026 .45308433 .2993164 .45703126 .3256836 .45703126 .39404298 .45703126 .4523112 .4338379 .5004883 .38745118 .54866537 .34106446 .5727539 .2879232 .5727539 .22802735 .5727539 .16194661 .5442708 .107421878 .4873047 .064453128 .43977867 .028645834 .38623048 .0107421879 .32666017 .0107421879 .300944 .0107421879 .27555339 .014485677 .25048829 .021972657 .22542317 .029459635 .20052083 .040690107 .17578125 .055664064M.47265626 .22756958C.47265626 .24150594 .4671224 .25925193 .4560547 .2808075 .44498698 .30237327 .42797853 .32036845 .4050293 .3347931 .38208009 .3492279 .35514323 .3564453 .32421876 .3564453 .27441407 .3564453 .23486328 .33780418 .2055664 .30052186 .18570964 .27490745 .17578125 .2502645 .17578125 .22659302 .17578125 .20000203 .19002278 .17414348 .21850586 .14901734 .24698894 .1238912 .28222657 .111328128 .32421876 .111328128 .36653648 .111328128 .40185548 .123809818 .43017579 .1487732 .4584961 .17373657 .47265626 .20000203 .47265626 .22756958Z"/>
<path id="font_12_3" d="M.57714846-.30078126H.02734375C.0032552083-.30078126-.013916016-.29619853-.024169922-.28703309-.034423829-.2778778-.03955078-.2657776-.03955078-.25073243-.03955078-.23568726-.034423829-.22350057-.024169922-.21417237-.013916016-.20485433 .0032552083-.20019531 .02734375-.20019531H.57714846C.60091146-.20019531 .6179199-.20485433 .6281738-.21417237 .63842776-.22350057 .6435547-.23568726 .6435547-.25073243 .6435547-.26545207 .6385091-.27747093 .62841799-.28678895 .61832687-.29611717 .601237-.30078126 .57714846-.30078126Z"/>
<path id="font_12_9" d="M.35009767 .63378909V.10058594H.47021485C.49430339 .10058594 .5114746 .095947269 .5217285 .08666992 .5319824 .07739258 .5371094 .06526693 .5371094 .05029297 .5371094 .03531901 .5319824 .02319336 .5217285 .013916016 .5114746 .004638672 .49430339 0 .47021485 0H.12988281C.10579427 0 .08862305 .0047200524 .07836914 .014160156 .068115238 .02360026 .06298828 .035807294 .06298828 .05078125 .06298828 .06575521 .068115238 .07779948 .07836914 .08691406 .08862305 .09602865 .10579427 .10058594 .12988281 .10058594H.25V.5332031H.1694336C.14567058 .5332031 .12858074 .53792318 .11816406 .5473633 .1077474 .5568034 .10253906 .56901046 .10253906 .5839844 .10253906 .5989583 .107666019 .6110026 .11791992 .6201172 .12817383 .62923178 .14534505 .63378909 .1694336 .63378909H.35009767Z"/>
</defs>
<g clip-path="url(#clip_0)">
<g clip-path="url(#clip_1)">
<path transform="matrix(1,0,0,-1,-.778381,540)" d="M0 539.9999H719.9999V.00003079383H0Z" fill="#ffffff" fill-rule="evenodd"/>
<path transform="matrix(1,0,0,-1,-.778381,540)" d="M300.7499 481.7499H326.875V455.6249H300.7499Z" fill="#ffffff" fill-rule="evenodd"/>
<path transform="matrix(.00007874014,0,0,.00007874014,299.97154,58.25009)" stroke-width="12700" stroke-linecap="butt" stroke-miterlimit="8" stroke-linejoin="miter" fill="none" stroke="#000000" d="M.06225574 .3342286H331788V331788.3H.06225574Z"/>
<use data-text="f" xlink:href="#font_2_13" transform="matrix(12,0,0,-12,307.17164,76.11261)"/>
<use data-text="t" xlink:href="#font_2_23" transform="matrix(12,0,0,-12,310.50523,76.11261)"/>
<use data-text="r" xlink:href="#font_2_22" transform="matrix(12,0,0,-12,313.83885,76.11261)"/>
<use data-text="&#xfffd;" xlink:href="#font_3_1" transform="matrix(12,0,0,-12,317.83485,76.11261)"/>
<path transform="matrix(.00007874014,0,0,.00007874014,195.84662,58.25009)" stroke-width="12700" stroke-linecap="butt" stroke-miterlimit="8" stroke-linejoin="miter" fill="none" stroke="#000000" d="M-.1159668 .3342286H330199.9V331788.3H-.1159668Z"/>
<use data-text="f" xlink:href="#font_2_13" transform="matrix(12,0,0,-12,203.04662,76.11261)"/>
<use data-text="t" xlink:href="#font_2_23" transform="matrix(12,0,0,-12,206.38022,76.11261)"/>
<use data-text="r" xlink:href="#font_2_22" transform="matrix(12,0,0,-12,209.71382,76.11261)"/>
<use data-text="&#xfffd;" xlink:href="#font_3_1" transform="matrix(12,0,0,-12,213.70983,76.11261)"/>
<path transform="matrix(1,0,0,-1,-.778381,540)" d="M65.37503 482.7499H116.75V456.7499H65.37503Z" fill="#ffffff" fill-rule="evenodd"/>
<g clip-path="url(#clip_4)">
<rect transform="matrix(1,0,0,-1,264.3536,232.1806)" fill="url(#pattern_5)" x="-199.75696" y="148.93051" width="51.37497" height="26"/>
</g>
<path transform="matrix(.00007874014,0,0,.00007874014,64.59665,57.25009)" stroke-width="38100" stroke-linecap="butt" stroke-miterlimit="8" stroke-linejoin="miter" fill="none" stroke="#000000" d="M.01525885 .3322755H652462.1V330200.4H.01525885Z"/>
<path transform="matrix(.00007874014,0,0,.00007874014,377.72163,57.25009)" stroke-width="12700" stroke-linecap="butt" stroke-miterlimit="8" stroke-linejoin="miter" fill="none" stroke="#000000" d="M-.1483155 .3322755H331787.8V331788.3H-.1483155Z"/>
<use data-text="h" xlink:href="#font_2_15" transform="matrix(12,0,0,-12,381.92164,75.11261)"/>
<use data-text="d" xlink:href="#font_2_11" transform="matrix(12,0,0,-12,388.59605,75.11261)"/>
<use data-text="r" xlink:href="#font_2_22" transform="matrix(12,0,0,-12,395.27046,75.11261)"/>
<use data-text="&#xfffd;" xlink:href="#font_3_1" transform="matrix(12,0,0,-12,399.26643,75.11261)"/>
<path transform="matrix(.00007874014,0,0,.00007874014,64.59665,57.25009)" stroke-width="12700" stroke-linecap="butt" stroke-miterlimit="8" stroke-linejoin="miter" fill="none" stroke="#000000" d="M.01525885 .3322755H331787V331788.3H.01525885Z"/>
<use data-text="8" xlink:href="#font_6_6" transform="matrix(12,0,0,-12,68.796649,75.11261)"/>
<use data-text="/" xlink:href="#font_6_3" transform="matrix(12,0,0,-12,75.47105,75.11261)"/>
<use data-text="1" xlink:href="#font_6_5" transform="matrix(12,0,0,-12,78.80945,75.11261)"/>
<use data-text="&#xfffd;" xlink:href="#font_7_1" transform="matrix(12,0,0,-12,85.48385,75.11261)"/>
<path transform="matrix(.00007874014,0,0,.00007874014,90.72161,57.25009)" stroke-width="12700" stroke-linecap="butt" stroke-miterlimit="8" stroke-linejoin="miter" fill="none" stroke="#000000" d="M-.04318239 .3322755H330199.9V331788.3H-.04318239Z"/>
<use data-text="8" xlink:href="#font_6_6" transform="matrix(12,0,0,-12,94.9216,75.11261)"/>
<use data-text="/" xlink:href="#font_6_3" transform="matrix(12,0,0,-12,101.596,75.11261)"/>
<use data-text="1" xlink:href="#font_6_5" transform="matrix(12,0,0,-12,104.9344,75.11261)"/>
<use data-text="&#xfffd;" xlink:href="#font_7_1" transform="matrix(12,0,0,-12,111.6088,75.11261)"/>
<path transform="matrix(.00007874014,0,0,.00007874014,115.84662,57.25009)" stroke-width="12700" stroke-linecap="butt" stroke-miterlimit="8" stroke-linejoin="miter" fill="none" stroke="#000000" d="M.01846318 .3322755H330200V331788.3H.01846318Z"/>
<use data-text="h" xlink:href="#font_2_15" transform="matrix(12,0,0,-12,120.046619,75.11261)"/>
<use data-text="d" xlink:href="#font_2_11" transform="matrix(12,0,0,-12,126.721019,75.11261)"/>
<use data-text="r" xlink:href="#font_2_22" transform="matrix(12,0,0,-12,133.39542,75.11261)"/>
<use data-text="&#xfffd;" xlink:href="#font_3_1" transform="matrix(12,0,0,-12,137.39142,75.11261)"/>
<path transform="matrix(1,0,0,-1,-.778381,540)" d="M222.75 482.7499H248.875V456.6249H222.75Z" fill="#ffffff" fill-rule="evenodd"/>
<path transform="matrix(.00007874014,0,0,.00007874014,221.97162,57.25009)" stroke-width="12700" stroke-linecap="butt" stroke-miterlimit="8" stroke-linejoin="miter" fill="none" stroke="#000000" d="M.04748529 .3322755H331788V331788.3H.04748529Z"/>
<use data-text="h" xlink:href="#font_2_15" transform="matrix(12,0,0,-12,226.17162,75.11261)"/>
<use data-text="d" xlink:href="#font_2_11" transform="matrix(12,0,0,-12,232.84603,75.11261)"/>
<use data-text="r" xlink:href="#font_2_22" transform="matrix(12,0,0,-12,239.52042,75.11261)"/>
<use data-text="&#xfffd;" xlink:href="#font_3_1" transform="matrix(12,0,0,-12,243.51642,75.11261)"/>
<path transform="matrix(1,0,0,-1,-.778381,540)" d="M39.25 482.7499H65.37503V456.6249H39.25Z" fill="#ffffff" fill-rule="evenodd"/>
<g clip-path="url(#clip_8)">
<rect transform="matrix(1,0,0,-1,158.40212,232.1806)" fill="url(#pattern_9)" x="-119.9305" y="148.80551" width="26.12503" height="26.125"/>
</g>
<path transform="matrix(.00007874014,0,0,.00007874014,38.47162,57.25009)" stroke-width="12700" stroke-linecap="butt" stroke-miterlimit="8" stroke-linejoin="miter" fill="none" stroke="#000000" d="M-.003036506 .3322755H331788V331788.3H-.003036506Z"/>
<use data-text="S" xlink:href="#font_2_7" transform="matrix(12,0,0,-12,.67161908,60.962587)"/>
<use data-text="t" xlink:href="#font_2_23" transform="matrix(12,0,0,-12,8.67562,60.962587)"/>
<use data-text="a" xlink:href="#font_2_8" transform="matrix(12,0,0,-12,12.00922,60.962587)"/>
<use data-text="r" xlink:href="#font_2_22" transform="matrix(12,0,0,-12,18.68362,60.962587)"/>
<use data-text="t" xlink:href="#font_2_23" transform="matrix(12,0,0,-12,22.67962,60.962587)"/>
<use data-text=" " xlink:href="#font_2_1" transform="matrix(12,0,0,-12,26.013222,60.962587)"/>
<use data-text="&#xfffd;" xlink:href="#font_3_1" transform="matrix(12,0,0,-12,29.346823,60.962587)"/>
<use data-text="o" xlink:href="#font_2_20" transform="matrix(12,0,0,-12,7.671619,74.962589)"/>
<use data-text="f" xlink:href="#font_2_13" transform="matrix(12,0,0,-12,14.34602,74.962589)"/>
<use data-text=" " xlink:href="#font_2_1" transform="matrix(12,0,0,-12,17.68442,74.962589)"/>
<use data-text="&#xfffd;" xlink:href="#font_3_1" transform="matrix(12,0,0,-12,21.02282,74.962589)"/>
<use data-text="h" xlink:href="#font_2_15" transform="matrix(12,0,0,-12,-.3283813,88.962589)"/>
<use data-text="e" xlink:href="#font_2_12" transform="matrix(12,0,0,-12,6.346019,88.962589)"/>
<use data-text="a" xlink:href="#font_2_8" transform="matrix(12,0,0,-12,13.020419,88.962589)"/>
<use data-text="p" xlink:href="#font_2_21" transform="matrix(12,0,0,-12,19.69482,88.962589)"/>
<use data-text="&#xfffd;" xlink:href="#font_3_1" transform="matrix(12,0,0,-12,26.36922,88.962589)"/>
<path transform="matrix(.00007874014,0,0,.00007874014,115.97162,57.25009)" stroke-width="38100" stroke-linecap="butt" stroke-miterlimit="8" stroke-linejoin="miter" fill="none" stroke="#000000" d="M.03424069 .3322755H1339850V330200.4H.03424069Z"/>
<use data-text="P" xlink:href="#font_6_8" transform="matrix(12,0,0,-12,67.796649,15.599976)"/>
<use data-text="r" xlink:href="#font_6_20" transform="matrix(12,0,0,-12,75.800647,15.599976)"/>
<use data-text="o" xlink:href="#font_6_18" transform="matrix(12,0,0,-12,80.47105,15.599976)"/>
<use data-text="l" xlink:href="#font_6_17" transform="matrix(12,0,0,-12,87.800647,15.599976)"/>
<use data-text="o" xlink:href="#font_6_18" transform="matrix(12,0,0,-12,91.13425,15.599976)"/>
<use data-text="g" xlink:href="#font_6_13" transform="matrix(12,0,0,-12,98.46385,15.599976)"/>
<use data-text="u" xlink:href="#font_6_21" transform="matrix(12,0,0,-12,105.79345,15.599976)"/>
<use data-text="e" xlink:href="#font_6_12" transform="matrix(12,0,0,-12,113.12305,15.599976)"/>
<use data-text="&#xfffd;" xlink:href="#font_7_1" transform="matrix(12,0,0,-12,119.797458,15.599976)"/>
<use data-text="b" xlink:href="#font_6_9" transform="matrix(12,0,0,-12,77.796649,29.599976)"/>
<use data-text="l" xlink:href="#font_6_17" transform="matrix(12,0,0,-12,85.12624,29.599976)"/>
<use data-text="o" xlink:href="#font_6_18" transform="matrix(12,0,0,-12,88.45985,29.599976)"/>
<use data-text="c" xlink:href="#font_6_10" transform="matrix(12,0,0,-12,95.789447,29.599976)"/>
<use data-text="k" xlink:href="#font_6_16" transform="matrix(12,0,0,-12,102.459049,29.599976)"/>
<use data-text="&#xfffd;" xlink:href="#font_7_1" transform="matrix(12,0,0,-12,109.12865,29.599976)"/>
<path transform="matrix(.00007874014,0,0,-.00007874014,142.09662,114.00009)" stroke-width="12700" stroke-linecap="butt" stroke-dasharray="50800,38100" stroke-linejoin="round" fill="none" stroke="#000000" d="M-.02716061 .05688465 .9417726 355600.1"/>
<path transform="matrix(.00007874014,0,0,-.00007874014,194.34662,114.00009)" stroke-width="12700" stroke-linecap="butt" stroke-dasharray="50800,38100" stroke-linejoin="round" fill="none" stroke="#000000" d="M.07489017 .05688465 1.043823 355600.1"/>
<path transform="matrix(.00007874014,0,0,-.00007874014,248.47162,114.00009)" stroke-width="12700" stroke-linecap="butt" stroke-dasharray="50800,38100" stroke-linejoin="round" fill="none" stroke="#000000" d="M-.1507569 .05688465 .8181764 355600.1"/>
<path transform="matrix(.00007874014,0,0,-.00007874014,300.72163,114.00009)" stroke-width="12700" stroke-linecap="butt" stroke-dasharray="50800,38100" stroke-linejoin="round" fill="none" stroke="#000000" d="M-.04870611 .05688465 1.114014 355600.1"/>
<path transform="matrix(.00007874014,0,0,-.00007874014,454.84663,114.00009)" stroke-width="12700" stroke-linecap="butt" stroke-dasharray="50800,38100" stroke-linejoin="round" fill="none" stroke="#000000" d="M.002319276 .05688465 1.165039 355600.1"/>
<path transform="matrix(.00007874014,0,0,-.00007874014,39.34665,113.12509)" stroke-width="12700" stroke-linecap="butt" stroke-dasharray="50800,38100" stroke-linejoin="round" fill="none" stroke="#000000" d="M-.01686089-.3289797 1.000519 355599.7"/>
<path transform="matrix(.00007874014,0,0,-.00007874014,507.22154,114.00009)" stroke-width="12700" stroke-linecap="butt" stroke-dasharray="50800,38100" stroke-linejoin="round" fill="none" stroke="#000000" d="M-.1705324 .05688465 .9921875 355600.1"/>
<path transform="matrix(.00007874014,0,0,.00007874014,506.09654,57.25009)" stroke-width="12700" stroke-linecap="butt" stroke-miterlimit="8" stroke-linejoin="miter" fill="none" stroke="#000000" d="M-.2851564 .3322755H333374.8V331788.3H-.2851564Z"/>
<use data-text="f" xlink:href="#font_2_13" transform="matrix(12,0,0,-12,514.29666,75.11261)"/>
<use data-text="t" xlink:href="#font_2_23" transform="matrix(12,0,0,-12,517.63027,75.11261)"/>
<use data-text="r" xlink:href="#font_2_22" transform="matrix(12,0,0,-12,520.9638,75.11261)"/>
<use data-text="&#xfffd;" xlink:href="#font_3_1" transform="matrix(12,0,0,-12,524.95986,75.11261)"/>
<path transform="matrix(1,0,0,-1,-.778381,540)" d="M533.1249 482.7499H559.3749V456.6249H533.1249Z" fill="#ffffff" fill-rule="evenodd"/>
<g clip-path="url(#clip_10)">
<rect transform="matrix(1,0,0,-1,2161.3397,232.1806)" fill="url(#pattern_11)" x="-1628.9932" y="148.80551" width="26.25" height="26.125"/>
</g>
<path transform="matrix(.00007874014,0,0,.00007874014,532.3465,57.25009)" stroke-width="12700" stroke-linecap="butt" stroke-miterlimit="8" stroke-linejoin="miter" fill="none" stroke="#000000" d="M-.2338868 .3322755H333374.8V331788.3H-.2338868Z"/>
<use data-text="0" xlink:href="#font_6_4" transform="matrix(12,0,0,-12,537.54666,75.11261)"/>
<use data-text="/" xlink:href="#font_6_3" transform="matrix(12,0,0,-12,544.221,75.11261)"/>
<use data-text="1" xlink:href="#font_6_5" transform="matrix(12,0,0,-12,547.55947,75.11261)"/>
<use data-text="&#xfffd;" xlink:href="#font_7_1" transform="matrix(12,0,0,-12,554.2338,75.11261)"/>
<path transform="matrix(.00007874014,0,0,.00007874014,532.3465,57.25009)" stroke-width="38100" stroke-linecap="butt" stroke-miterlimit="8" stroke-linejoin="miter" fill="none" stroke="#000000" d="M-.2338868 .3322755H309561.5V330200.4H-.2338868Z"/>
<path transform="matrix(.00007874014,0,0,-.00007874014,586.7215,80.62509)" stroke-width="12700" stroke-linecap="butt" stroke-dasharray="50800,38100" stroke-linejoin="round" fill="none" stroke="#000000" d="M-.1276857-.2655031 .6474609 354012.7"/>
<use data-text="D" xlink:href="#font_2_5" transform="matrix(12,0,0,-12,594.6715,59.462587)"/>
<use data-text="o" xlink:href="#font_2_20" transform="matrix(12,0,0,-12,603.3379,59.462587)"/>
<use data-text="u" xlink:href="#font_2_24" transform="matrix(12,0,0,-12,610.0123,59.462587)"/>
<use data-text="b" xlink:href="#font_2_9" transform="matrix(12,0,0,-12,616.6867,59.462587)"/>
<use data-text="l" xlink:href="#font_2_18" transform="matrix(12,0,0,-12,623.3611,59.462587)"/>
<use data-text="e" xlink:href="#font_2_12" transform="matrix(12,0,0,-12,626.0275,59.462587)"/>
<use data-text="-" xlink:href="#font_2_2" transform="matrix(12,0,0,-12,632.7019,59.462587)"/>
<use data-text="&#xfffd;" xlink:href="#font_3_1" transform="matrix(12,0,0,-12,636.6979,59.462587)"/>
<use data-text="w" xlink:href="#font_2_25" transform="matrix(12,0,0,-12,602.6715,73.462589)"/>
<use data-text="o" xlink:href="#font_2_20" transform="matrix(12,0,0,-12,611.3379,73.462589)"/>
<use data-text="r" xlink:href="#font_2_22" transform="matrix(12,0,0,-12,618.0123,73.462589)"/>
<use data-text="d" xlink:href="#font_2_11" transform="matrix(12,0,0,-12,622.0083,73.462589)"/>
<use data-text="&#xfffd;" xlink:href="#font_3_1" transform="matrix(12,0,0,-12,628.68276,73.462589)"/>
<use data-text="a" xlink:href="#font_2_8" transform="matrix(12,0,0,-12,596.6715,87.462589)"/>
<use data-text="l" xlink:href="#font_2_18" transform="matrix(12,0,0,-12,603.3459,87.462589)"/>
<use data-text="i" xlink:href="#font_2_16" transform="matrix(12,0,0,-12,606.0123,87.462589)"/>
<use data-text="g" xlink:href="#font_2_14" transform="matrix(12,0,0,-12,608.6787,87.462589)"/>
<use data-text="n" xlink:href="#font_2_19" transform="matrix(12,0,0,-12,615.3531,87.462589)"/>
<use data-text="e" xlink:href="#font_2_12" transform="matrix(12,0,0,-12,622.0275,87.462589)"/>
<use data-text="d" xlink:href="#font_2_11" transform="matrix(12,0,0,-12,628.7019,87.462589)"/>
<use data-text="&#xfffd;" xlink:href="#font_3_1" transform="matrix(12,0,0,-12,635.37637,87.462589)"/>
<path transform="matrix(.00007874014,0,0,.00007874014,221.47162,57.25009)" stroke-width="38100" stroke-linecap="butt" stroke-miterlimit="8" stroke-linejoin="miter" fill="none" stroke="#000000" d="M.04650873 .3322755H1323975V330200.4H.04650873Z"/>
<path transform="matrix(.00007874014,0,0,-.00007874014,402.59663,114.00009)" stroke-width="12700" stroke-linecap="butt" stroke-dasharray="50800,38100" stroke-linejoin="round" fill="none" stroke="#000000" d="M-.0997315 .05688465 1.062988 355600.1"/>
<use data-text="." xlink:href="#font_6_2" transform="matrix(16,0,0,-16,343.67164,72.775089)"/>
<use data-text="." xlink:href="#font_6_2" transform="matrix(16,0,0,-16,348.11643,72.775089)"/>
<use data-text="." xlink:href="#font_6_2" transform="matrix(16,0,0,-16,352.56123,72.775089)"/>
<use data-text="&#xfffd;" xlink:href="#font_7_1" transform="matrix(16,0,0,-16,357.00605,72.775089)"/>
<path transform="matrix(.00007874014,0,0,.00007874014,376.47163,57.25009)" stroke-width="38100" stroke-linecap="butt" stroke-miterlimit="8" stroke-linejoin="miter" fill="none" stroke="#000000" d="M-.1507569 .3322755H1976438V330200.4H-.1507569Z"/>
<path transform="matrix(0,-.00007874014,.00007874014,0,69.221569,49.25009)" stroke-width="12700" stroke-linecap="butt" stroke-linejoin="round" fill="none" stroke="#000000" d="M-.2042238-.04153453C25425.77-.04153453 46037.69 21796.5 46037.69 48683.91V243416C46037.69 270303.4 66649.62 292099.9 92075.97 292099.9 66649.62 292099.9 46037.69 313896.5 46037.69 340784V535516C46037.69 562403.4 25425.77 584199.9-.2042238 584199.9"/>
<use data-text="R" xlink:href="#font_2_6" transform="matrix(12,0,0,-12,147.04662,15.599976)"/>
<use data-text="e" xlink:href="#font_2_12" transform="matrix(12,0,0,-12,155.71302,15.599976)"/>
<use data-text="g" xlink:href="#font_2_14" transform="matrix(12,0,0,-12,162.38742,15.599976)"/>
<use data-text="u" xlink:href="#font_2_24" transform="matrix(12,0,0,-12,169.06182,15.599976)"/>
<use data-text="l" xlink:href="#font_2_18" transform="matrix(12,0,0,-12,175.73622,15.599976)"/>
<use data-text="a" xlink:href="#font_2_8" transform="matrix(12,0,0,-12,178.40262,15.599976)"/>
<use data-text="r" xlink:href="#font_2_22" transform="matrix(12,0,0,-12,185.07701,15.599976)"/>
<use data-text="&#xfffd;" xlink:href="#font_3_1" transform="matrix(12,0,0,-12,189.07302,15.599976)"/>
<use data-text="b" xlink:href="#font_2_9" transform="matrix(12,0,0,-12,149.04662,29.599976)"/>
<use data-text="l" xlink:href="#font_2_18" transform="matrix(12,0,0,-12,155.72103,29.599976)"/>
<use data-text="o" xlink:href="#font_2_20" transform="matrix(12,0,0,-12,158.38742,29.599976)"/>
<use data-text="c" xlink:href="#font_2_10" transform="matrix(12,0,0,-12,165.06182,29.599976)"/>
<use data-text="k" xlink:href="#font_2_17" transform="matrix(12,0,0,-12,171.06182,29.599976)"/>
<use data-text=" " xlink:href="#font_2_1" transform="matrix(12,0,0,-12,177.06182,29.599976)"/>
<use data-text="1" xlink:href="#font_2_3" transform="matrix(12,0,0,-12,180.39542,29.599976)"/>
<use data-text="&#xfffd;" xlink:href="#font_3_1" transform="matrix(12,0,0,-12,187.06983,29.599976)"/>
<path transform="matrix(0,-.00007874014,.00007874014,0,119.22162,49.25009)" stroke-width="12700" stroke-linecap="butt" stroke-linejoin="round" fill="none" stroke="#000000" d="M-.3166505-.05630498C22356.85-.05630498 40480.55 48330.82 40480.55 107949.9V539749.9C40480.55 599369 58604.64 647699.9 80961.8 647699.9 58604.64 647699.9 40480.55 696030.8 40480.55 755649.9V1187450C40480.55 1247069 22356.85 1295400-.3166505 1295400"/>
<use data-text="R" xlink:href="#font_2_6" transform="matrix(12,0,0,-12,255.04662,15.599976)"/>
<use data-text="e" xlink:href="#font_2_12" transform="matrix(12,0,0,-12,263.713,15.599976)"/>
<use data-text="g" xlink:href="#font_2_14" transform="matrix(12,0,0,-12,270.38743,15.599976)"/>
<use data-text="u" xlink:href="#font_2_24" transform="matrix(12,0,0,-12,277.06184,15.599976)"/>
<use data-text="l" xlink:href="#font_2_18" transform="matrix(12,0,0,-12,283.7362,15.599976)"/>
<use data-text="a" xlink:href="#font_2_8" transform="matrix(12,0,0,-12,286.40263,15.599976)"/>
<use data-text="r" xlink:href="#font_2_22" transform="matrix(12,0,0,-12,293.07704,15.599976)"/>
<use data-text="&#xfffd;" xlink:href="#font_3_1" transform="matrix(12,0,0,-12,297.073,15.599976)"/>
<use data-text="b" xlink:href="#font_2_9" transform="matrix(12,0,0,-12,257.04664,29.599976)"/>
<use data-text="l" xlink:href="#font_2_18" transform="matrix(12,0,0,-12,263.72105,29.599976)"/>
<use data-text="o" xlink:href="#font_2_20" transform="matrix(12,0,0,-12,266.38743,29.599976)"/>
<use data-text="c" xlink:href="#font_2_10" transform="matrix(12,0,0,-12,273.06184,29.599976)"/>
<use data-text="k" xlink:href="#font_2_17" transform="matrix(12,0,0,-12,279.06184,29.599976)"/>
<use data-text=" " xlink:href="#font_2_1" transform="matrix(12,0,0,-12,285.06184,29.599976)"/>
<use data-text="2" xlink:href="#font_2_4" transform="matrix(12,0,0,-12,288.39546,29.599976)"/>
<use data-text="&#xfffd;" xlink:href="#font_3_1" transform="matrix(12,0,0,-12,295.06983,29.599976)"/>
<path transform="matrix(0,-.00007874014,.00007874014,0,227.22162,49.25009)" stroke-width="12700" stroke-linecap="butt" stroke-linejoin="round" fill="none" stroke="#000000" d="M-.3166505 .0577392C21041.81 .0577392 38099.69 48330.84 38099.69 107950.1V539750.1C38099.69 599369 55157.57 647700.2 76199.7 647700.2 55157.57 647700.2 38099.69 696030.9 38099.69 755650.2V1187450C38099.69 1247069 21041.81 1295400-.3166505 1295400"/>
<use data-text="R" xlink:href="#font_2_6" transform="matrix(12,0,0,-12,432.17164,15.599976)"/>
<use data-text="e" xlink:href="#font_2_12" transform="matrix(12,0,0,-12,440.83805,15.599976)"/>
<use data-text="g" xlink:href="#font_2_14" transform="matrix(12,0,0,-12,447.51243,15.599976)"/>
<use data-text="u" xlink:href="#font_2_24" transform="matrix(12,0,0,-12,454.18684,15.599976)"/>
<use data-text="l" xlink:href="#font_2_18" transform="matrix(12,0,0,-12,460.86125,15.599976)"/>
<use data-text="a" xlink:href="#font_2_8" transform="matrix(12,0,0,-12,463.52763,15.599976)"/>
<use data-text="r" xlink:href="#font_2_22" transform="matrix(12,0,0,-12,470.20204,15.599976)"/>
<use data-text="&#xfffd;" xlink:href="#font_3_1" transform="matrix(12,0,0,-12,474.19804,15.599976)"/>
<use data-text="b" xlink:href="#font_2_9" transform="matrix(12,0,0,-12,434.17164,29.599976)"/>
<use data-text="l" xlink:href="#font_2_18" transform="matrix(12,0,0,-12,440.84605,29.599976)"/>
<use data-text="o" xlink:href="#font_2_20" transform="matrix(12,0,0,-12,443.51243,29.599976)"/>
<use data-text="c" xlink:href="#font_2_10" transform="matrix(12,0,0,-12,450.18684,29.599976)"/>
<use data-text="k" xlink:href="#font_2_17" transform="matrix(12,0,0,-12,456.18684,29.599976)"/>
<use data-text=" " xlink:href="#font_2_1" transform="matrix(12,0,0,-12,462.18684,29.599976)"/>
<use data-text="n" xlink:href="#font_2_19" transform="matrix(12,0,0,-12,465.52046,29.599976)"/>
<use data-text="&#xfffd;" xlink:href="#font_3_1" transform="matrix(12,0,0,-12,472.19483,29.599976)"/>
<path transform="matrix(0,-.00007874014,.00007874014,0,377.22154,49.25009)" stroke-width="12700" stroke-linecap="butt" stroke-linejoin="round" fill="none" stroke="#000000" d="M-.3166505-.03686535C21041.81-.03686535 38099.69 71074.7 38099.69 158750V793750.1C38099.69 881425 55157.57 952500.1 76199.7 952500.1 55157.57 952500.1 38099.69 1023575 38099.69 1111250V1746250C38099.69 1833926 21041.81 1905000-.3166505 1905000"/>
<use data-text="E" xlink:href="#font_6_7" transform="matrix(12,0,0,-12,519.92166,15.599976)"/>
<use data-text="p" xlink:href="#font_6_19" transform="matrix(12,0,0,-12,527.92568,15.599976)"/>
<use data-text="i" xlink:href="#font_6_15" transform="matrix(12,0,0,-12,535.25527,15.599976)"/>
<use data-text="l" xlink:href="#font_6_17" transform="matrix(12,0,0,-12,538.5888,15.599976)"/>
<use data-text="o" xlink:href="#font_6_18" transform="matrix(12,0,0,-12,541.9224,15.599976)"/>
<use data-text="g" xlink:href="#font_6_13" transform="matrix(12,0,0,-12,549.252,15.599976)"/>
<use data-text="u" xlink:href="#font_6_21" transform="matrix(12,0,0,-12,556.58169,15.599976)"/>
<use data-text="e" xlink:href="#font_6_12" transform="matrix(12,0,0,-12,563.91128,15.599976)"/>
<use data-text="&#xfffd;" xlink:href="#font_7_1" transform="matrix(12,0,0,-12,570.58566,15.599976)"/>
<use data-text="b" xlink:href="#font_6_9" transform="matrix(12,0,0,-12,517.9215,29.599976)"/>
<use data-text="l" xlink:href="#font_6_17" transform="matrix(12,0,0,-12,525.2511,29.599976)"/>
<use data-text="o" xlink:href="#font_6_18" transform="matrix(12,0,0,-12,528.5847,29.599976)"/>
<use data-text="c" xlink:href="#font_6_10" transform="matrix(12,0,0,-12,535.9143,29.599976)"/>
<use data-text="k" xlink:href="#font_6_16" transform="matrix(12,0,0,-12,542.5839,29.599976)"/>
<use data-text=" " xlink:href="#font_6_1" transform="matrix(12,0,0,-12,549.25357,29.599976)"/>
<use data-text="h" xlink:href="#font_6_14" transform="matrix(12,0,0,-12,552.5871,29.599976)"/>
<use data-text="d" xlink:href="#font_6_11" transform="matrix(12,0,0,-12,559.9167,29.599976)"/>
<use data-text="r" xlink:href="#font_6_20" transform="matrix(12,0,0,-12,567.24636,29.599976)"/>
<use data-text="&#xfffd;" xlink:href="#font_7_1" transform="matrix(12,0,0,-12,571.9119,29.599976)"/>
<path transform="matrix(0,-.00007874014,.00007874014,0,535.2215,48.00009)" stroke-width="12700" stroke-linecap="butt" stroke-linejoin="round" fill="none" stroke="#000000" d="M-.2017824-.003418207C25425.77-.003418207 46037.69 10424.17 46037.69 23283.07V116416.9C46037.69 129275.8 66649.62 139700 92075.98 139700 66649.62 139700 46037.69 150124.2 46037.69 162983.1V256117C46037.69 268975.9 25425.77 279400-.2017824 279400"/>
<path transform="matrix(.00007874014,0,0,-.00007874014,95.22161,132.00009)" stroke-width="12700" stroke-linecap="butt" stroke-linejoin="round" fill="none" stroke="#000000" d="M-.03439333 .0217284V584200.1"/>
<path transform="matrix(1,0,0,-1,-.778381,540)" d="M98.99999 449.9999 95.99999 455.9999 92.99999 449.9999Z" fill-rule="evenodd"/>
<use data-text="s" xlink:href="#font_12_12" transform="matrix(12,0,0,-12,13.671618,149.98761)"/>
<use data-text="t" xlink:href="#font_12_13" transform="matrix(12,0,0,-12,20.872818,149.98761)"/>
<use data-text="a" xlink:href="#font_12_4" transform="matrix(12,0,0,-12,28.07402,149.98761)"/>
<use data-text="t" xlink:href="#font_12_13" transform="matrix(12,0,0,-12,35.27522,149.98761)"/>
<use data-text="i" xlink:href="#font_12_8" transform="matrix(12,0,0,-12,42.47642,149.98761)"/>
<use data-text="c" xlink:href="#font_12_5" transform="matrix(12,0,0,-12,49.677625,149.98761)"/>
<use data-text=" " xlink:href="#font_12_1" transform="matrix(12,0,0,-12,56.878828,149.98761)"/>
<use data-text="c" xlink:href="#font_12_5" transform="matrix(12,0,0,-12,64.080028,149.98761)"/>
<use data-text="h" xlink:href="#font_12_7" transform="matrix(12,0,0,-12,71.28123,149.98761)"/>
<use data-text="a" xlink:href="#font_12_4" transform="matrix(12,0,0,-12,78.48243,149.98761)"/>
<use data-text="r" xlink:href="#font_12_11" transform="matrix(12,0,0,-12,85.68363,149.98761)"/>
<use data-text=" " xlink:href="#font_12_1" transform="matrix(12,0,0,-12,92.884838,149.98761)"/>
<use data-text="*" xlink:href="#font_12_2" transform="matrix(12,0,0,-12,100.08604,149.98761)"/>
<use data-text="h" xlink:href="#font_12_7" transform="matrix(12,0,0,-12,107.28724,149.98761)"/>
<use data-text="e" xlink:href="#font_12_6" transform="matrix(12,0,0,-12,114.48844,149.98761)"/>
<use data-text="a" xlink:href="#font_12_4" transform="matrix(12,0,0,-12,121.689647,149.98761)"/>
<use data-text="p" xlink:href="#font_12_10" transform="matrix(12,0,0,-12,128.89086,149.98761)"/>
<use data-text="_" xlink:href="#font_12_3" transform="matrix(12,0,0,-12,136.09206,149.98761)"/>
<use data-text="l" xlink:href="#font_12_9" transform="matrix(12,0,0,-12,143.29325,149.98761)"/>
<use data-text="i" xlink:href="#font_12_8" transform="matrix(12,0,0,-12,150.49445,149.98761)"/>
<use data-text="s" xlink:href="#font_12_12" transform="matrix(12,0,0,-12,157.69565,149.98761)"/>
<use data-text="t" xlink:href="#font_12_13" transform="matrix(12,0,0,-12,164.89685,149.98761)"/>
<use data-text="p" xlink:href="#font_12_10" transform="matrix(12,0,0,-12,172.09806,149.98761)"/>
<use data-text=" " xlink:href="#font_12_1" transform="matrix(12,0,0,-12,179.29926,149.98761)"/>
</g>
</g>
</svg>
