<svg xmlns="http://www.w3.org/2000/svg" xmlns:xlink="http://www.w3.org/1999/xlink" version="1.1" width="362.722pt" height="79.39401pt" viewBox="0 0 362.722 79.39401">
<defs>
<clipPath id="clip_0">
<path transform="matrix(1,0,0,-1,0,540)" d="M0 460.606H362.722V540H0Z" fill-rule="evenodd"/>
</clipPath>
<clipPath id="clip_1">
<path transform="matrix(1,0,0,-1,0,540)" d="M0 .00002324581H719.9999V540H0Z"/>
</clipPath>
<path id="font_2_14" d="M.59814456 .71777346V.63183596H.3564453V0H.2578125V.63183596H.016113282V.71777346H.59814456Z"/>
<path id="font_2_10" d="M.076171878 .71777346H.17333985V.0859375H.5366211V0H.076171878V.71777346Z"/>
<path id="font_2_8" d="M.34570313 .4140625C.38671876 .4140625 .41861979 .4197693 .44140626 .43118287 .47721354 .4491272 .4951172 .48142497 .4951172 .5280762 .4951172 .57506307 .47607423 .6067098 .43798829 .62301638 .4165039 .6321513 .38460288 .63671877 .34228517 .63671877H.16894531V.4140625H.34570313M.37841798 .08300781C.43798829 .08300781 .48046876 .100224819 .5058594 .13465882 .5218099 .15642803 .52978518 .18274434 .52978518 .21360779 .52978518 .26559959 .50651046 .30101524 .45996095 .31985475 .43522135 .32992555 .4025065 .33496095 .3618164 .33496095H.16894531V.08300781H.37841798M.07373047 .71777346H.38183595C.4658203 .71777346 .5255534 .6926575 .56103518 .64242556 .58186849 .6127421 .59228518 .5784963 .59228518 .5396881 .59228518 .49434916 .57942709 .45716349 .55371096 .4281311 .54036459 .41280113 .5211589 .3987783 .49609376 .38606263 .5328776 .3720754 .5603841 .35629273 .5786133 .3387146 .61083987 .30748496 .6269531 .26437379 .6269531 .2093811 .6269531 .16317749 .61246749 .12136841 .5834961 .08395386 .54020187 .02798462 .47135417 0 .37695313 0H.07373047V.71777346Z"/>
<path id="font_2_1" d="M0 0Z"/>
<path id="font_2_23" d="M.08203125 .66796877H.17089844V.5234375H.25439454V.4501953H.17089844V.110183719C.17089844 .09202576 .17708333 .07986959 .18945313 .07371521 .19628906 .07014465 .2076823 .068359378 .22363281 .068359378 .22786458 .068359378 .23242188 .06846619 .23730469 .06867981 .2421875 .0689036 .24788411 .06944784 .25439454 .0703125V0C.24430339-.0031026204 .23380535-.005340576 .22290039-.006713867 .21199544-.008097331 .20019531-.0087890629 .1875-.0087890629 .14648438-.0087890629 .118652347 .0016988119 .104003909 .02267456 .08935547 .04365031 .08203125 .070882167 .08203125 .10437012V.4501953H.011230469V.5234375H.08203125V.66796877Z"/>
<path id="font_2_16" d="M.13183594 .1394043C.13183594 .114095058 .14111328 .09413656 .15966797 .07952881 .17822266 .06492106 .20019531 .057617189 .22558594 .057617189 .2565104 .057617189 .28645835 .06471761 .3154297 .07891846 .3642578 .10247803 .38867188 .14127605 .38867188 .1953125V.26611329C.3779297 .25886027 .36409507 .2528127 .34716798 .24797058 .33024089 .24313863 .3136393 .23983257 .29736329 .23805237L.24414063 .23184204C.21223958 .22799683 .1883138 .22153218 .17236328 .21244812 .14534505 .19718933 .13183594 .17284139 .13183594 .1394043M.34472657 .31689454C.36490885 .3194987 .37841798 .32796226 .3852539 .34228517 .38916017 .35012818 .39111329 .36140443 .39111329 .3761139 .39111329 .40618388 .38045249 .42799888 .35913087 .44155885 .33780924 .455129 .30729167 .46191407 .26757813 .46191407 .22167969 .46191407 .18912761 .44948326 .16992188 .42462159 .15917969 .4108785 .15218099 .39043174 .14892578 .36328126H.06689453C.06852213 .42791749 .08943685 .47288514 .12963867 .4981842 .1698405 .5234833 .21647136 .5361328 .26953126 .5361328 .3310547 .5361328 .38102214 .52441409 .4194336 .50097659 .45751954 .47753907 .4765625 .4410502 .4765625 .39151V.08985901C.4765625 .08073425 .47843424 .073404949 .48217774 .067871097 .48592124 .06233724 .4938151 .059570314 .5058594 .059570314 .5097656 .059570314 .51416018 .059814454 .51904299 .060302736 .5239258 .060791017 .5291341 .061523439 .53466799 .0625V-.0028076173C.5209961-.00676473 .5105794-.009236653 .50341799-.010223389 .4962565-.011220296 .48649089-.01171875 .4741211-.01171875 .44384767-.01171875 .421875-.0009104411 .40820313 .020706177 .40104167 .032170614 .3959961 .048380536 .3930664 .06933594 .37516276 .045633954 .34944663 .025060019 .31591798 .0076141359 .2823893-.009831746 .2454427-.018554688 .20507813-.018554688 .15657552-.018554688 .11694336-.0037790936 .08618164 .025772095 .055419923 .055323285 .040039064 .092300418 .040039064 .13670349 .040039064 .18535869 .05517578 .22307332 .08544922 .24984741 .115722659 .2766215 .1554362 .29311119 .20458985 .2993164L.34472657 .31689454M.27197267 .5361328V.5361328Z"/>
<path id="font_2_19" d="M.24902344 .53222659C.29003907 .53222659 .32584635 .5220744 .3564453 .50177 .37304688 .49030558 .38997398 .4736023 .40722657 .45166017V.5185547H.48828126V.04234314C.48828126-.024154664 .47851563-.07663473 .45898438-.115097049 .42252604-.18615215 .35367839-.22167969 .2524414-.22167969 .1961263-.22167969 .14876302-.20906575 .11035156-.18383789 .0719401-.15861003 .05045573-.119140628 .045898439-.06542969H.1352539C.13948567-.08873495 .14794922-.10669454 .16064453-.11930847 .1805013-.13872783 .2117513-.1484375 .25439454-.1484375 .32177735-.1484375 .3658854-.12467448 .38671876-.07714844 .39908854-.04916382 .40478517 .0007985433 .4038086 .07273865 .38623048 .04588318 .36507163 .025904337 .34033204 .012802124 .31559245-.000289917 .2828776-.0068359377 .2421875-.0068359377 .18554688-.0068359377 .13598633 .013280232 .09350586 .053512575 .05102539 .09375509 .029785157 .16030376 .029785157 .25315858 .029785157 .34080506 .051188154 .40922547 .09399414 .4584198 .13680013 .5076243 .18847656 .53222659 .24902344 .53222659M.40722657 .26342774C.40722657 .328125 .39388023 .37607829 .3671875 .4072876 .34049479 .43849693 .30647788 .45410157 .26513673 .45410157 .20328777 .45410157 .16097005 .4251658 .1381836 .3672943 .12613933 .33641053 .12011719 .29593406 .12011719 .24586487 .12011719 .1870168 .13208008 .14223226 .15600586 .11151123 .17993164 .0807902 .21207683 .06542969 .2524414 .06542969 .31559245 .06542969 .36002604 .09387716 .3857422 .1507721 .4000651 .18295796 .40722657 .22050984 .40722657 .26342774M.25927735 .5361328V.5361328Z"/>
<path id="font_2_2" d="M.29589845 .7294922C.24479167 .6301575 .21158855 .55703738 .19628906 .51013186 .17317708 .43881227 .1616211 .3564148 .1616211 .26293946 .1616211 .16848755 .17480469 .08217875 .20117188 .0040130617 .21744792-.044184369 .24951172-.11355591 .29736329-.20410156H.23828125C.1907552-.12984212 .16129558-.08245341 .14990235-.061935426 .13850911-.04141744 .12613933-.013570149 .11279297 .021606446 .094563808 .06980387 .08186849 .1212616 .07470703 .17597962 .071126308 .2043101 .06933594 .23134358 .06933594 .25708009 .06933594 .3534851 .084472659 .43930564 .114746097 .5145416 .13395183 .5624135 .17399089 .6340637 .23486328 .7294922H.29589845Z"/>
<path id="font_2_3" d="M.03466797-.20410156C.08642578-.103139247 .119791667-.029530844 .13476563 .016723633 .15755208 .08674113 .16894531 .16881307 .16894531 .26293946 .16894531 .35706584 .15576172 .44321189 .12939453 .52137759 .11311849 .569575 .08105469 .63894656 .033203126 .7294922H.092285159C.14241536 .64937338 .17277019 .59995016 .18334961 .58122256 .19392903 .56249496 .20540364 .5366821 .21777344 .5037842 .23339844 .46307374 .24454753 .42285157 .2512207 .38311769 .2578939 .3433838 .26123048 .30511476 .26123048 .26831056 .26123048 .17190552 .24593099 .08592224 .21533203 .010360718 .1961263-.03816223 .15625-.10964966 .095703128-.20410156H.03466797Z"/>
<path id="font_3_1" d="M0 0Z"/>
<path id="font_2_20" d="M.064453128 .5205078H.1538086V0H.064453128V.5205078M.064453128 .71777346H.1538086V.61816409H.064453128V.71777346Z"/>
<path id="font_2_21" d="M.064453128 .5234375H.14794922V.44921876C.1726888 .47981773 .19889324 .50179037 .2265625 .5151367 .25423179 .5284831 .2849935 .53515627 .31884767 .53515627 .3930664 .53515627 .44319663 .5092519 .46923829 .45744325 .4835612 .42910258 .49072267 .38853965 .49072267 .3357544V0H.4013672V.3299408C.4013672 .36188255 .39664714 .38762919 .38720704 .4071808 .37158204 .4397634 .34326173 .4560547 .3022461 .4560547 .28141276 .4560547 .2643229 .4539388 .25097657 .44970704 .22688802 .4425354 .20572917 .42819724 .1875 .4066925 .17285156 .38941957 .16333008 .37157694 .15893555 .35316468 .15454102 .3347524 .15234375 .30844117 .15234375 .27423097V0H.064453128V.5234375M.2709961 .5361328V.5361328Z"/>
<path id="font_2_17" d="M.12011719 .2553711C.12011719 .19923909 .1319987 .15224712 .15576172 .11439514 .17952474 .076543178 .21761067 .057617189 .27001954 .057617189 .31070964 .057617189 .3441569 .075154628 .37036134 .11022949 .39656578 .14531453 .40966798 .19565328 .40966798 .26124574 .40966798 .32748924 .39615885 .37651573 .36914063 .4083252 .3421224 .44014488 .3087565 .4560547 .26904298 .4560547 .22477214 .4560547 .18888347 .4390869 .16137696 .40515138 .13387044 .37121583 .12011719 .32128907 .12011719 .2553711M.2524414 .53222659C.29248048 .53222659 .32600913 .52381899 .35302735 .5070038 .36865235 .4972992 .38639323 .48031617 .40625 .4560547V.71875H.49072267V0H.4116211V.07229614C.39111329 .04023234 .36686198 .017074585 .3388672 .002822876 .3108724-.011428833 .2788086-.018554688 .24267578-.018554688 .18440755-.018554688 .13395183 .0059407555 .091308597 .05493164 .048665365 .10392252 .02734375 .16910808 .02734375 .25048829 .02734375 .32666017 .04679362 .39265953 .08569336 .44848634 .1245931 .5043132 .18017578 .53222659 .2524414 .53222659Z"/>
<path id="font_2_18" d="M.28222657 .53515627C.31933595 .53515627 .355306 .52644857 .39013673 .5090332 .42496745 .49161784 .4514974 .4690806 .46972657 .4414215 .4873047 .41505433 .49902345 .3842977 .5048828 .3491516 .5100911 .32506309 .5126953 .28647868 .5126953 .23339844H.12939453C.13102214 .18033855 .14355469 .13777669 .16699219 .10571289 .19042969 .073649089 .22672527 .057617189 .2758789 .057617189 .32177735 .057617189 .35839845 .07261658 .3857422 .10261536 .4013672 .12003072 .4124349 .14018758 .4189453 .16308594H.5053711C.50309249 .14398194 .49552409 .122690837 .48266603 .09921265 .46980796 .07574463 .45540367 .05656433 .43945313 .041671754 .4127604 .01576233 .37972007-.0017242432 .34033204-.010787964 .3191732-.01596578 .2952474-.018554688 .2685547-.018554688 .20345052-.018554688 .14827474 .0051472985 .103027347 .05255127 .05777995 .09995524 .03515625 .16634114 .03515625 .25170899 .03515625 .33576457 .057942708 .40401713 .103515628 .45646668 .14908855 .5089264 .20865886 .53515627 .28222657 .53515627M.42236329 .30371095C.41878257 .34191896 .41048179 .37245179 .39746095 .39530946 .3733724 .4377594 .33317057 .45898438 .27685548 .45898438 .23649089 .45898438 .20263672 .44437156 .17529297 .41514588 .14794922 .3859202 .13346355 .34877525 .13183594 .30371095H.42236329M.27392579 .5361328V.5361328Z"/>
<path id="font_2_24" d="M.0146484379 .5234375H.12841797L.24853516 .33918763 .3701172 .5234375 .47705079 .5209961 .30078126 .26831056 .48486329 0H.3725586L.24267578 .19647217 .11669922 0H.0053710939L.18945313 .26831056 .0146484379 .5234375Z"/>
<path id="font_2_9" d="M.09814453 .71777346H.19628906V0H.09814453V.71777346Z"/>
<path id="font_2_6" d="M.2705078 .7001953C.3610026 .7001953 .42643229 .66289779 .46679688 .5883026 .49804688 .5306447 .5136719 .45165 .5136719 .35131837 .5136719 .25620524 .49951173 .17754109 .4711914 .11532593 .43017579 .026072184 .3631185-.018554688 .27001954-.018554688 .18603516-.018554688 .123535159 .017929078 .08251953 .09089661 .048339845 .15180969 .03125 .23357137 .03125 .33618165 .03125 .41565959 .041503908 .48390199 .06201172 .5409088 .10042318 .6470998 .16992188 .7001953 .2705078 .7001953M.26953126 .061523439C.31510417 .061523439 .35139976 .08168539 .37841798 .12200928 .4054362 .16234334 .4189453 .23747762 .4189453 .3474121 .4189453 .42676798 .4091797 .49205528 .38964845 .5432739 .3701172 .59450277 .332194 .6201172 .2758789 .6201172 .2241211 .6201172 .1862793 .59580489 .16235352 .5471802 .13842774 .4985555 .12646485 .42692057 .12646485 .3322754 .12646485 .26105754 .13411458 .20381673 .14941406 .16055298 .17285156 .09453329 .21289063 .061523439 .26953126 .061523439Z"/>
<path id="font_2_22" d="M.28515626 .057617189C.32617188 .057617189 .36027018 .07486979 .38745118 .109375 .41463218 .14389038 .42822267 .1954956 .42822267 .26419068 .42822267 .3060608 .42220054 .34204103 .41015626 .37213136 .38736979 .43003337 .34570313 .45898438 .28515626 .45898438 .22428386 .45898438 .18261719 .42840068 .16015625 .36723329 .14811199 .33451844 .14208985 .29297386 .14208985 .24259949 .14208985 .20204163 .14811199 .16753133 .16015625 .1390686 .1829427 .08476766 .22460938 .057617189 .28515626 .057617189M.057617189 .5205078H.1430664V.45162965C.16064453 .47540284 .17985027 .49379985 .2006836 .5068207 .23030599 .5263621 .26513673 .5361328 .30517579 .5361328 .36442057 .5361328 .41471354 .5133667 .4560547 .46783448 .49739585 .42230226 .5180664 .3572693 .5180664 .2727356 .5180664 .1585083 .48828126 .07691447 .42871095 .027954102 .39095054-.0030517579 .34700523-.018554688 .296875-.018554688 .25748698-.018554688 .22444661-.009984334 .1977539 .007156372 .1821289 .016860962 .16471355 .033518476 .14550781 .057128908V-.20898438H.057617189V.5205078Z"/>
<path id="font_2_5" d="M.041503908 .32421876H.2866211V.23339844H.041503908V.32421876Z"/>
<path id="font_2_7" d="M.095703128 .4951172V.5625C.15917969 .5686849 .20345052 .5790202 .22851563 .59350588 .25358073 .6079915 .2722982 .6422526 .28466798 .69628909H.3540039V0H.2602539V.4951172H.095703128Z"/>
<path id="font_2_15" d="M.1328125 .71777346 .3388672 .10652161 .54248049 .71777346H.6513672L.38964845 0H.2866211L.025390625 .71777346H.1328125Z"/>
<path id="font_2_13" d="M.08544922 .71777346H.40820313C.47200523 .71777346 .5234375 .6997884 .5625 .66381838 .6015625 .6278483 .62109377 .5773112 .62109377 .51220706 .62109377 .45621745 .6036784 .4074707 .56884768 .3659668 .5340169 .3244629 .48046876 .30371095 .40820313 .30371095H.18261719V0H.08544922V.71777346M.5229492 .5114746C.5229492 .56410726 .50341799 .5998433 .46435548 .61868289 .4428711 .62875369 .41341148 .63378909 .37597657 .63378909H.18261719V.3857422H.37597657C.41959635 .3857422 .45499674 .39499919 .48217774 .41351319 .5093587 .43203736 .5229492 .46469117 .5229492 .5114746Z"/>
<path id="font_2_12" d="M.3857422 .7373047C.5123698 .7373047 .6061198 .6965637 .6669922 .6150818 .71451827 .55152389 .73828127 .47019959 .73828127 .371109 .73828127 .2638804 .7111003 .17473857 .6567383 .10368347 .5929362 .020238242 .5019531-.021484375 .38378907-.021484375 .2734375-.021484375 .1866862 .015019734 .123535159 .088027957 .067220058 .158432 .0390625 .24741619 .0390625 .35498048 .0390625 .45210777 .06315104 .53522238 .111328128 .60432437 .17317708 .6929779 .26464845 .7373047 .3857422 .7373047M.3955078 .06542969C.48111979 .06542969 .5430501 .09613546 .5812988 .157547 .61954757 .21895854 .6386719 .2895762 .6386719 .36940003 .6386719 .45378114 .61661788 .5217082 .57250979 .57318118 .5284017 .6246541 .46809898 .6503906 .39160157 .6503906 .3173828 .6503906 .25683595 .62489828 .20996094 .5739136 .16308594 .5229289 .13964844 .4477488 .13964844 .3483734 .13964844 .26888529 .15974935 .20185344 .19995117 .14727783 .240153 .0927124 .30533854 .06542969 .3955078 .06542969M.38867188 .7373047V.7373047Z"/>
<path id="font_2_11" d="M.076171878 .71777346H.19091797L.55322268 .1362915V.71777346H.6455078V0H.5366211L.16894531 .58084109V0H.076171878V.71777346M.3544922 .71777346V.71777346Z"/>
<path id="font_2_4" d="M.044921876 .21289063V.29492188H.2578125V.5097656H.3413086V.29492188H.5541992V.21289063H.3413086V0H.2578125V.21289063H.044921876Z"/>
</defs>
<g clip-path="url(#clip_0)">
<g clip-path="url(#clip_1)">
<path transform="matrix(1,0,0,-1,0,540)" d="M0 539.9999H719.9999V.00003079383H0Z" fill="#ffffff" fill-rule="evenodd"/>
<path transform="matrix(.00007874014,0,0,.00007874014,7.375039,14.000122)" stroke-width="12700" stroke-linecap="butt" stroke-miterlimit="8" stroke-linejoin="miter" fill="none" stroke="#000000" d="M-.002885743 .2478029H1658937V304800.3H-.002885743Z"/>
<use data-text="T" xlink:href="#font_2_14" transform="matrix(16,0,0,-16,17.57504,32.400087)"/>
<use data-text="L" xlink:href="#font_2_10" transform="matrix(16,0,0,-16,27.347842,32.400087)"/>
<use data-text="B" xlink:href="#font_2_8" transform="matrix(16,0,0,-16,36.24704,32.400087)"/>
<use data-text=" " xlink:href="#font_2_1" transform="matrix(16,0,0,-16,46.919046,32.400087)"/>
<use data-text="t" xlink:href="#font_2_23" transform="matrix(16,0,0,-16,51.363847,32.400087)"/>
<use data-text="a" xlink:href="#font_2_16" transform="matrix(16,0,0,-16,55.808649,32.400087)"/>
<use data-text="g" xlink:href="#font_2_19" transform="matrix(16,0,0,-16,64.70785,32.400087)"/>
<use data-text=" " xlink:href="#font_2_1" transform="matrix(16,0,0,-16,73.60705,32.400087)"/>
<use data-text="(" xlink:href="#font_2_2" transform="matrix(16,0,0,-16,78.05185,32.400087)"/>
<use data-text="T" xlink:href="#font_2_14" transform="matrix(16,0,0,-16,83.37985,32.400087)"/>
<use data-text="L" xlink:href="#font_2_10" transform="matrix(16,0,0,-16,93.15266,32.400087)"/>
<use data-text="B" xlink:href="#font_2_8" transform="matrix(16,0,0,-16,102.05186,32.400087)"/>
<use data-text="T" xlink:href="#font_2_14" transform="matrix(16,0,0,-16,112.72386,32.400087)"/>
<use data-text=")" xlink:href="#font_2_3" transform="matrix(16,0,0,-16,122.496669,32.400087)"/>
<use data-text="&#xfffd;" xlink:href="#font_3_1" transform="matrix(16,0,0,-16,127.82467,32.400087)"/>
<path transform="matrix(.00007874014,0,0,.00007874014,137.625,14.000122)" stroke-width="12700" stroke-linecap="butt" stroke-miterlimit="8" stroke-linejoin="miter" fill="none" stroke="#000000" d="M.03137213 .2478029H1770062V304800.3H.03137213Z"/>
<use data-text="T" xlink:href="#font_2_14" transform="matrix(16,0,0,-16,146.825,32.400087)"/>
<use data-text="L" xlink:href="#font_2_10" transform="matrix(16,0,0,-16,156.5978,32.400087)"/>
<use data-text="B" xlink:href="#font_2_8" transform="matrix(16,0,0,-16,165.497,32.400087)"/>
<use data-text=" " xlink:href="#font_2_1" transform="matrix(16,0,0,-16,176.169,32.400087)"/>
<use data-text="i" xlink:href="#font_2_20" transform="matrix(16,0,0,-16,180.6138,32.400087)"/>
<use data-text="n" xlink:href="#font_2_21" transform="matrix(16,0,0,-16,184.169,32.400087)"/>
<use data-text="d" xlink:href="#font_2_17" transform="matrix(16,0,0,-16,193.0682,32.400087)"/>
<use data-text="e" xlink:href="#font_2_18" transform="matrix(16,0,0,-16,201.9674,32.400087)"/>
<use data-text="x" xlink:href="#font_2_24" transform="matrix(16,0,0,-16,210.86661,32.400087)"/>
<use data-text=" " xlink:href="#font_2_1" transform="matrix(16,0,0,-16,218.86661,32.400087)"/>
<use data-text="(" xlink:href="#font_2_2" transform="matrix(16,0,0,-16,223.3114,32.400087)"/>
<use data-text="T" xlink:href="#font_2_14" transform="matrix(16,0,0,-16,228.6394,32.400087)"/>
<use data-text="L" xlink:href="#font_2_10" transform="matrix(16,0,0,-16,238.4122,32.400087)"/>
<use data-text="B" xlink:href="#font_2_8" transform="matrix(16,0,0,-16,247.3114,32.400087)"/>
<use data-text="I" xlink:href="#font_2_9" transform="matrix(16,0,0,-16,257.9834,32.400087)"/>
<use data-text=")" xlink:href="#font_2_3" transform="matrix(16,0,0,-16,262.42823,32.400087)"/>
<use data-text="&#xfffd;" xlink:href="#font_3_1" transform="matrix(16,0,0,-16,267.75624,32.400087)"/>
<use data-text="0" xlink:href="#font_2_6" transform="matrix(10,0,0,-10,346.575,9.625122)"/>
<use data-text="&#xfffd;" xlink:href="#font_3_1" transform="matrix(10,0,0,-10,352.13703,9.625122)"/>
<use data-text="p" xlink:href="#font_2_22" transform="matrix(10,0,0,-10,281.325,9.625122)"/>
<use data-text="-" xlink:href="#font_2_5" transform="matrix(10,0,0,-10,286.88703,9.625122)"/>
<use data-text="1" xlink:href="#font_2_7" transform="matrix(10,0,0,-10,290.217,9.625122)"/>
<use data-text="&#xfffd;" xlink:href="#font_3_1" transform="matrix(10,0,0,-10,295.77903,9.625122)"/>
<use data-text="p" xlink:href="#font_2_22" transform="matrix(10,0,0,-10,270.2,9.625122)"/>
<use data-text="&#xfffd;" xlink:href="#font_3_1" transform="matrix(10,0,0,-10,275.76203,9.625122)"/>
<use data-text="n" xlink:href="#font_2_21" transform="matrix(10,0,0,-10,5.82496,9.625122)"/>
<use data-text="-" xlink:href="#font_2_5" transform="matrix(10,0,0,-10,11.386961,9.625122)"/>
<use data-text="1" xlink:href="#font_2_7" transform="matrix(10,0,0,-10,14.716961,9.625122)"/>
<use data-text="&#xfffd;" xlink:href="#font_3_1" transform="matrix(10,0,0,-10,20.278962,9.625122)"/>
<path transform="matrix(.00007874014,0,0,.00007874014,277.125,14.000122)" stroke-width="12700" stroke-linecap="butt" stroke-miterlimit="8" stroke-linejoin="miter" fill="none" stroke="#000000" d="M.04125977 .2478029H919161.9V304800.3H.04125977Z"/>
<use data-text="V" xlink:href="#font_2_15" transform="matrix(16,0,0,-16,296.325,32.400087)"/>
<use data-text="P" xlink:href="#font_2_13" transform="matrix(16,0,0,-16,306.997,32.400087)"/>
<use data-text="O" xlink:href="#font_2_12" transform="matrix(16,0,0,-16,317.669,32.400087)"/>
<use data-text="&#xfffd;" xlink:href="#font_3_1" transform="matrix(16,0,0,-16,330.11384,32.400087)"/>
<path transform="matrix(0,-.00007874014,.00007874014,0,6.499999,57.50009)" stroke-width="12700" stroke-linecap="butt" stroke-linejoin="round" fill="none" stroke="#000000" d="M177799.7 3403600C128701.5 3403600 88899.68 3276612 88899.68 3119966V1983698C88899.68 1827051 49097.84 1700064-.3327638 1700064 49097.84 1700064 88899.68 1573077 88899.68 1416430V283634C88899.68 126987.3 128701.5 .0005836465 177799.7 .0005836464"/>
<use data-text="V" xlink:href="#font_2_15" transform="matrix(16,0,0,-16,122.7,76.400089)"/>
<use data-text="P" xlink:href="#font_2_13" transform="matrix(16,0,0,-16,133.372,76.400089)"/>
<use data-text="N" xlink:href="#font_2_11" transform="matrix(16,0,0,-16,144.044,76.400089)"/>
<use data-text="&#xfffd;" xlink:href="#font_3_1" transform="matrix(16,0,0,-16,155.5992,76.400089)"/>
<use data-text="p" xlink:href="#font_2_22" transform="matrix(10,0,0,-10,144.7,9.625122)"/>
<use data-text="+" xlink:href="#font_2_4" transform="matrix(10,0,0,-10,150.262,9.625122)"/>
<use data-text="t" xlink:href="#font_2_23" transform="matrix(10,0,0,-10,156.10199,9.625122)"/>
<use data-text="-" xlink:href="#font_2_5" transform="matrix(10,0,0,-10,158.88,9.625122)"/>
<use data-text="1" xlink:href="#font_2_7" transform="matrix(10,0,0,-10,162.20999,9.625122)"/>
<use data-text="&#xfffd;" xlink:href="#font_3_1" transform="matrix(10,0,0,-10,167.772,9.625122)"/>
<use data-text="p" xlink:href="#font_2_22" transform="matrix(10,0,0,-10,123.575,9.625122)"/>
<use data-text="+" xlink:href="#font_2_4" transform="matrix(10,0,0,-10,129.137,9.625122)"/>
<use data-text="t" xlink:href="#font_2_23" transform="matrix(10,0,0,-10,134.97699,9.625122)"/>
<use data-text="&#xfffd;" xlink:href="#font_3_1" transform="matrix(10,0,0,-10,137.755,9.625122)"/>
</g>
</g>
</svg>
