<svg xmlns="http://www.w3.org/2000/svg" xmlns:xlink="http://www.w3.org/1999/xlink" version="1.1" width="455.34925pt" height="245.966pt" viewBox="0 0 455.34925 245.966">
<defs>
<clipPath id="clip_0">
<path transform="matrix(1,0,0,-1,-1.55675,540)" d="M1.55675 294.034H456.906V540H1.55675Z" fill-rule="evenodd"/>
</clipPath>
<clipPath id="clip_1">
<path transform="matrix(1,0,0,-1,-1.55675,540)" d="M0 .00002324581H719.9999V540H0Z"/>
</clipPath>
<path id="font_2_15" d="M.08544922 .71777346H.40820313C.47200523 .71777346 .5234375 .6997884 .5625 .66381838 .6015625 .6278483 .62109377 .5773112 .62109377 .51220706 .62109377 .45621745 .6036784 .4074707 .56884768 .3659668 .5340169 .3244629 .48046876 .30371095 .40820313 .30371095H.18261719V0H.08544922V.71777346M.5229492 .5114746C.5229492 .56410726 .50341799 .5998433 .46435548 .61868289 .4428711 .62875369 .41341148 .63378909 .37597657 .63378909H.18261719V.3857422H.37597657C.41959635 .3857422 .45499674 .39499919 .48217774 .41351319 .5093587 .43203736 .5229492 .46469117 .5229492 .5114746Z"/>
<path id="font_2_1" d="M0 0Z"/>
<path id="font_2_8" d="M.03125 0C.034505208 .060221357 .04695638 .11263021 .068603519 .15722656 .09025065 .20182292 .13248699 .24235027 .1953125 .2788086L.2890625 .3330078C.3310547 .35742188 .3605143 .3782908 .3774414 .39561463 .40413413 .4227346 .41748048 .45377604 .41748048 .488739 .41748048 .52959188 .40527345 .562027 .38085938 .5860443 .3564453 .61006167 .32389323 .6220703 .28320313 .6220703 .22298177 .6220703 .18131511 .5991516 .15820313 .5533142 .14583333 .52875778 .13899739 .4947103 .13769531 .45117188H.048339845C.049316408 .5121663 .060546876 .5619049 .08203125 .6003876 .12011719 .66822817 .18733724 .70214846 .2836914 .70214846 .36376954 .70214846 .4222819 .68047079 .45922853 .6371155 .49617515 .5937703 .51464846 .5455373 .51464846 .49241639 .51464846 .4363556 .49495445 .388443 .4555664 .3486786 .43277995 .3255361 .3919271 .29752604 .3330078 .26464845L.26611329 .22753906C.23421224 .20996094 .20914714 .19319661 .19091797 .1772461 .15836589 .14892578 .13785808 .11751302 .12939453 .08300781H.51123049V0H.03125Z"/>
<path id="font_2_28" d="M.064453128 .5234375H.15136719V.44921876C.17220052 .4749349 .19108074 .49365235 .20800781 .5053711 .23697917 .52522787 .26985679 .53515627 .30664063 .53515627 .34830729 .53515627 .38183595 .52490237 .40722657 .50439456 .42154948 .49267579 .4345703 .4754232 .44628907 .45263673 .4658203 .4806315 .48876954 .5013835 .5151367 .5148926 .5415039 .5284017 .5711263 .53515627 .6040039 .53515627 .6743164 .53515627 .72216799 .5097402 .7475586 .45890809 .76123049 .43154399 .7680664 .3947296 .7680664 .34846498V0H.6767578V.36367799C.6767578 .39853923 .6680501 .42248536 .65063479 .43551637 .6332194 .44855754 .6119792 .45507813 .58691409 .45507813 .5524089 .45507813 .5227051 .44350688 .49780274 .42036439 .4729004 .39723207 .46044923 .35861717 .46044923 .30451966V0H.37109376V.3416748C.37109376 .37719728 .36686198 .4031016 .35839845 .41938783 .3450521 .4438324 .32014976 .4560547 .2836914 .4560547 .25048829 .4560547 .22029622 .44318138 .19311524 .4174347 .16593425 .3916982 .15234375 .34510295 .15234375 .27764894V0H.064453128V.5234375Z"/>
<path id="font_2_5" d="M.041503908 .32421876H.2866211V.23339844H.041503908V.32421876Z"/>
<path id="font_2_31" d="M.28515626 .057617189C.32617188 .057617189 .36027018 .07486979 .38745118 .109375 .41463218 .14389038 .42822267 .1954956 .42822267 .26419068 .42822267 .3060608 .42220054 .34204103 .41015626 .37213136 .38736979 .43003337 .34570313 .45898438 .28515626 .45898438 .22428386 .45898438 .18261719 .42840068 .16015625 .36723329 .14811199 .33451844 .14208985 .29297386 .14208985 .24259949 .14208985 .20204163 .14811199 .16753133 .16015625 .1390686 .1829427 .08476766 .22460938 .057617189 .28515626 .057617189M.057617189 .5205078H.1430664V.45162965C.16064453 .47540284 .17985027 .49379985 .2006836 .5068207 .23030599 .5263621 .26513673 .5361328 .30517579 .5361328 .36442057 .5361328 .41471354 .5133667 .4560547 .46783448 .49739585 .42230226 .5180664 .3572693 .5180664 .2727356 .5180664 .1585083 .48828126 .07691447 .42871095 .027954102 .39095054-.0030517579 .34700523-.018554688 .296875-.018554688 .25748698-.018554688 .22444661-.009984334 .1977539 .007156372 .1821289 .016860962 .16471355 .033518476 .14550781 .057128908V-.20898438H.057617189V.5205078Z"/>
<path id="font_2_7" d="M.095703128 .4951172V.5625C.15917969 .5686849 .20345052 .5790202 .22851563 .59350588 .25358073 .6079915 .2722982 .6422526 .28466798 .69628909H.3540039V0H.2602539V.4951172H.095703128Z"/>
<path id="font_3_1" d="M0 0Z"/>
<path id="font_2_24" d="M.064453128 .71875H.15234375V.45214845C.17317708 .4786682 .19189453 .4973297 .2084961 .50813296 .2368164 .5267995 .2721354 .5361328 .31445313 .5361328 .39029948 .5361328 .44173179 .50957748 .46875 .45646668 .48339845 .42747499 .49072267 .38723756 .49072267 .3357544V0H.40039063V.32958985C.40039063 .3680013 .3955078 .39615885 .3857422 .4140625 .36979167 .44270835 .33984376 .45703126 .29589845 .45703126 .2594401 .45703126 .22639974 .4444987 .19677735 .4194336 .16715496 .3943685 .15234375 .34700523 .15234375 .27734376V0H.064453128V.71875Z"/>
<path id="font_2_36" d="M.39111329 .5234375H.48828126C.47591148 .48987834 .44840495 .41330973 .40576173 .2937317 .3738607 .20380657 .34716798 .13049825 .3256836 .07380676 .27490235-.059921266 .23909505-.14145915 .21826172-.17080689 .19742839-.2001648 .1616211-.21484375 .110839847-.21484375 .098470058-.21484375 .08894857-.21435039 .08227539-.21336365 .07560221-.21238709 .06738281-.21058655 .057617189-.20796204V-.1274414C.072916667-.13167317 .083984378-.13427735 .09082031-.1352539 .09765625-.13623047 .10367838-.13671875 .10888672-.13671875 .12516277-.13671875 .13712566-.1340332 .14477539-.12866211 .15242513-.123291019 .15885417-.11669922 .1640625-.10888672 .16569011-.106282558 .17154949-.092936199 .18164063-.068847659 .19173177-.044759115 .19905599-.026855469 .20361328-.015136719L.010253906 .5234375H.10986328L.25 .09727478 .39111329 .5234375M.24951172 .5361328V.5361328Z"/>
<path id="font_2_33" d="M.11669922 .1640625C.11930338 .13463338 .12662761 .11207072 .13867188 .09637451 .1608073 .06793213 .19921875 .053710939 .25390626 .053710939 .28645835 .053710939 .31510417 .060806276 .33984376 .07499695 .36458335 .08919779 .37695313 .11115011 .37695313 .14085388 .37695313 .16337586 .36702476 .18051148 .34716798 .19226074 .33447267 .19944255 .30940757 .20775859 .27197267 .21720886L.20214844 .2348175C.15755208 .24590557 .12467448 .25829569 .103515628 .27198792 .06575521 .29579164 .046875 .32873027 .046875 .37080384 .046875 .42036439 .064697269 .46046958 .1003418 .49111939 .13598633 .52177938 .18391927 .5371094 .24414063 .5371094 .32291667 .5371094 .37972007 .5139974 .41455079 .46777345 .4363607 .43847657 .4469401 .40690104 .44628907 .37304688H.36328126C.36165367 .39269004 .35465495 .41055808 .34228517 .426651 .32210288 .44950868 .28710938 .4609375 .23730469 .4609375 .20410156 .4609375 .17895508 .45461528 .16186524 .44197084 .14477539 .42933656 .13623047 .41264854 .13623047 .39190675 .13623047 .36922203 .14746094 .35107423 .16992188 .33746339 .1829427 .32936607 .20214844 .32221986 .22753906 .31602479L.28564454 .3018341C.34879557 .28650413 .39111329 .27166749 .41259767 .25732423 .44677735 .23482259 .4638672 .19944255 .4638672 .15118408 .4638672 .10455322 .44620768 .06428019 .41088868 .03036499 .37556968-.0035502117 .32177735-.020507813 .24951172-.020507813 .17171224-.020507813 .116617839-.002802531 .084228519 .032608034 .05183919 .06801859 .034505208 .111836757 .032226564 .1640625H.11669922M.24658203 .5361328V.5361328Z"/>
<path id="font_2_25" d="M.064453128 .5205078H.1538086V0H.064453128V.5205078M.064453128 .71777346H.1538086V.61816409H.064453128V.71777346Z"/>
<path id="font_2_20" d="M.26611329 .53808596C.32503257 .53808596 .37296549 .5237274 .4099121 .49501039 .44685874 .46629334 .46907554 .41684977 .4765625 .3466797H.39111329C.38590495 .37890626 .37402345 .40568034 .35546876 .42700196 .33691407 .44832359 .3071289 .45898438 .26611329 .45898438 .2101237 .45898438 .17008464 .43170677 .1459961 .3771515 .1303711 .34176127 .122558597 .29808555 .122558597 .24612427 .122558597 .19384766 .1336263 .14984639 .15576172 .11412048 .17789714 .07840475 .21272786 .060546876 .2602539 .060546876 .29671226 .060546876 .3256022 .0716095 .34692384 .09373474 .36824546 .115859989 .38297526 .1461385 .39111329 .18457031H.4765625C.46679688 .115234378 .4423828 .06453451 .4033203 .032470704 .3642578 .00040690104 .31429038-.015625 .25341798-.015625 .1850586-.015625 .13053386 .009379069 .08984375 .059387208 .049153646 .10940552 .028808594 .17188008 .028808594 .24681092 .028808594 .33868919 .05110677 .41020204 .095703128 .4613495 .14029949 .51250717 .19710286 .53808596 .26611329 .53808596M.2524414 .5361328V.5361328Z"/>
<path id="font_2_19" d="M.13183594 .1394043C.13183594 .114095058 .14111328 .09413656 .15966797 .07952881 .17822266 .06492106 .20019531 .057617189 .22558594 .057617189 .2565104 .057617189 .28645835 .06471761 .3154297 .07891846 .3642578 .10247803 .38867188 .14127605 .38867188 .1953125V.26611329C.3779297 .25886027 .36409507 .2528127 .34716798 .24797058 .33024089 .24313863 .3136393 .23983257 .29736329 .23805237L.24414063 .23184204C.21223958 .22799683 .1883138 .22153218 .17236328 .21244812 .14534505 .19718933 .13183594 .17284139 .13183594 .1394043M.34472657 .31689454C.36490885 .3194987 .37841798 .32796226 .3852539 .34228517 .38916017 .35012818 .39111329 .36140443 .39111329 .3761139 .39111329 .40618388 .38045249 .42799888 .35913087 .44155885 .33780924 .455129 .30729167 .46191407 .26757813 .46191407 .22167969 .46191407 .18912761 .44948326 .16992188 .42462159 .15917969 .4108785 .15218099 .39043174 .14892578 .36328126H.06689453C.06852213 .42791749 .08943685 .47288514 .12963867 .4981842 .1698405 .5234833 .21647136 .5361328 .26953126 .5361328 .3310547 .5361328 .38102214 .52441409 .4194336 .50097659 .45751954 .47753907 .4765625 .4410502 .4765625 .39151V.08985901C.4765625 .08073425 .47843424 .073404949 .48217774 .067871097 .48592124 .06233724 .4938151 .059570314 .5058594 .059570314 .5097656 .059570314 .51416018 .059814454 .51904299 .060302736 .5239258 .060791017 .5291341 .061523439 .53466799 .0625V-.0028076173C.5209961-.00676473 .5105794-.009236653 .50341799-.010223389 .4962565-.011220296 .48649089-.01171875 .4741211-.01171875 .44384767-.01171875 .421875-.0009104411 .40820313 .020706177 .40104167 .032170614 .3959961 .048380536 .3930664 .06933594 .37516276 .045633954 .34944663 .025060019 .31591798 .0076141359 .2823893-.009831746 .2454427-.018554688 .20507813-.018554688 .15657552-.018554688 .11694336-.0037790936 .08618164 .025772095 .055419923 .055323285 .040039064 .092300418 .040039064 .13670349 .040039064 .18535869 .05517578 .22307332 .08544922 .24984741 .115722659 .2766215 .1554362 .29311119 .20458985 .2993164L.34472657 .31689454M.27197267 .5361328V.5361328Z"/>
<path id="font_2_27" d="M.06689453 .71777346H.15478516V0H.06689453V.71777346Z"/>
<path id="font_2_22" d="M.28222657 .53515627C.31933595 .53515627 .355306 .52644857 .39013673 .5090332 .42496745 .49161784 .4514974 .4690806 .46972657 .4414215 .4873047 .41505433 .49902345 .3842977 .5048828 .3491516 .5100911 .32506309 .5126953 .28647868 .5126953 .23339844H.12939453C.13102214 .18033855 .14355469 .13777669 .16699219 .10571289 .19042969 .073649089 .22672527 .057617189 .2758789 .057617189 .32177735 .057617189 .35839845 .07261658 .3857422 .10261536 .4013672 .12003072 .4124349 .14018758 .4189453 .16308594H.5053711C.50309249 .14398194 .49552409 .122690837 .48266603 .09921265 .46980796 .07574463 .45540367 .05656433 .43945313 .041671754 .4127604 .01576233 .37972007-.0017242432 .34033204-.010787964 .3191732-.01596578 .2952474-.018554688 .2685547-.018554688 .20345052-.018554688 .14827474 .0051472985 .103027347 .05255127 .05777995 .09995524 .03515625 .16634114 .03515625 .25170899 .03515625 .33576457 .057942708 .40401713 .103515628 .45646668 .14908855 .5089264 .20865886 .53515627 .28222657 .53515627M.42236329 .30371095C.41878257 .34191896 .41048179 .37245179 .39746095 .39530946 .3733724 .4377594 .33317057 .45898438 .27685548 .45898438 .23649089 .45898438 .20263672 .44437156 .17529297 .41514588 .14794922 .3859202 .13346355 .34877525 .13183594 .30371095H.42236329M.27392579 .5361328V.5361328Z"/>
<path id="font_2_30" d="M.27197267 .057617189C.33024089 .057617189 .37019859 .07964579 .3918457 .123703 .41349284 .16776021 .4243164 .21677144 .4243164 .2707367 .4243164 .31950379 .4165039 .35917155 .4008789 .38974 .3761393 .43785606 .3334961 .46191407 .27294923 .46191407 .21923828 .46191407 .18017578 .44143168 .15576172 .40046693 .13134766 .35950218 .119140628 .31008403 .119140628 .25221253 .119140628 .1966095 .13134766 .15027364 .15576172 .113204959 .18017578 .076146449 .21891277 .057617189 .27197267 .057617189M.27539063 .53808596C.34277345 .53808596 .3997396 .5156453 .44628907 .47076417 .49283854 .42588298 .5161133 .35985819 .5161133 .27268983 .5161133 .1884613 .49560548 .11886088 .45458985 .06388855 .41357423 .008926392 .3499349-.018554688 .26367188-.018554688 .19173177-.018554688 .13460286 .00575765 .092285159 .054382326 .04996745 .103006999 .028808594 .16829936 .028808594 .2502594 .028808594 .33806864 .05110677 .4079895 .095703128 .46002198 .14029949 .51206466 .20019531 .53808596 .27539063 .53808596M.27246095 .5361328V.5361328Z"/>
<path id="font_2_32" d="M.06689453 .5234375H.15039063V.4326172C.15722656 .4502767 .17399089 .4717814 .2006836 .49713136 .2273763 .52248129 .25813804 .53515627 .29296876 .53515627 .29459635 .53515627 .29736329 .5349579 .30126954 .53456118 .30517579 .5341746 .31184898 .5333964 .32128907 .53222659V.43945313C.31608073 .44062297 .3112793 .44140116 .30688478 .44178773 .30249024 .44218446 .2976888 .4423828 .29248048 .4423828 .24820964 .4423828 .2141927 .4280599 .19042969 .39941407 .16666667 .37076823 .15478516 .33789063 .15478516 .30078126V0H.06689453V.5234375Z"/>
<path id="font_4_1" d="M0 0Z"/>
<path id="font_2_12" d="M.08544922 .71777346H.60839846V.6298828H.18017578V.41210938H.5761719V.32910157H.18017578V.0859375H.61572268V0H.08544922V.71777346M.35058595 .71777346V.71777346Z"/>
<path id="font_2_34" d="M.08203125 .66796877H.17089844V.5234375H.25439454V.4501953H.17089844V.110183719C.17089844 .09202576 .17708333 .07986959 .18945313 .07371521 .19628906 .07014465 .2076823 .068359378 .22363281 .068359378 .22786458 .068359378 .23242188 .06846619 .23730469 .06867981 .2421875 .0689036 .24788411 .06944784 .25439454 .0703125V0C.24430339-.0031026204 .23380535-.005340576 .22290039-.006713867 .21199544-.008097331 .20019531-.0087890629 .1875-.0087890629 .14648438-.0087890629 .118652347 .0016988119 .104003909 .02267456 .08935547 .04365031 .08203125 .070882167 .08203125 .10437012V.4501953H.011230469V.5234375H.08203125V.66796877Z"/>
<path id="font_2_17" d="M.18164063 .71777346V.27441407C.18164063 .22233074 .19140625 .17903646 .2109375 .14453125 .23990886 .092447917 .28873698 .06640625 .35742188 .06640625 .43977867 .06640625 .49576823 .094563808 .5253906 .1508789 .5413411 .18147786 .5493164 .22265625 .5493164 .27441407V.71777346H.6479492V.3149414C.6479492 .22672527 .6360677 .15885417 .6123047 .111328128 .5686849 .024739584 .48632813-.018554688 .36523438-.018554688 .24414063-.018554688 .16194661 .024739584 .118652347 .111328128 .09488932 .15885417 .08300781 .22672527 .08300781 .3149414V.71777346H.18164063M.36572267 .71777346V.71777346Z"/>
<path id="font_2_29" d="M.064453128 .5234375H.14794922V.44921876C.1726888 .47981773 .19889324 .50179037 .2265625 .5151367 .25423179 .5284831 .2849935 .53515627 .31884767 .53515627 .3930664 .53515627 .44319663 .5092519 .46923829 .45744325 .4835612 .42910258 .49072267 .38853965 .49072267 .3357544V0H.4013672V.3299408C.4013672 .36188255 .39664714 .38762919 .38720704 .4071808 .37158204 .4397634 .34326173 .4560547 .3022461 .4560547 .28141276 .4560547 .2643229 .4539388 .25097657 .44970704 .22688802 .4425354 .20572917 .42819724 .1875 .4066925 .17285156 .38941957 .16333008 .37157694 .15893555 .35316468 .15454102 .3347524 .15234375 .30844117 .15234375 .27423097V0H.064453128V.5234375M.2709961 .5361328V.5361328Z"/>
<path id="font_2_21" d="M.12011719 .2553711C.12011719 .19923909 .1319987 .15224712 .15576172 .11439514 .17952474 .076543178 .21761067 .057617189 .27001954 .057617189 .31070964 .057617189 .3441569 .075154628 .37036134 .11022949 .39656578 .14531453 .40966798 .19565328 .40966798 .26124574 .40966798 .32748924 .39615885 .37651573 .36914063 .4083252 .3421224 .44014488 .3087565 .4560547 .26904298 .4560547 .22477214 .4560547 .18888347 .4390869 .16137696 .40515138 .13387044 .37121583 .12011719 .32128907 .12011719 .2553711M.2524414 .53222659C.29248048 .53222659 .32600913 .52381899 .35302735 .5070038 .36865235 .4972992 .38639323 .48031617 .40625 .4560547V.71875H.49072267V0H.4116211V.07229614C.39111329 .04023234 .36686198 .017074585 .3388672 .002822876 .3108724-.011428833 .2788086-.018554688 .24267578-.018554688 .18440755-.018554688 .13395183 .0059407555 .091308597 .05493164 .048665365 .10392252 .02734375 .16910808 .02734375 .25048829 .02734375 .32666017 .04679362 .39265953 .08569336 .44848634 .1245931 .5043132 .18017578 .53222659 .2524414 .53222659Z"/>
<path id="font_2_18" d="M.1328125 .71777346 .3388672 .10652161 .54248049 .71777346H.6513672L.38964845 0H.2866211L.025390625 .71777346H.1328125Z"/>
<path id="font_2_6" d="M.2705078 .7001953C.3610026 .7001953 .42643229 .66289779 .46679688 .5883026 .49804688 .5306447 .5136719 .45165 .5136719 .35131837 .5136719 .25620524 .49951173 .17754109 .4711914 .11532593 .43017579 .026072184 .3631185-.018554688 .27001954-.018554688 .18603516-.018554688 .123535159 .017929078 .08251953 .09089661 .048339845 .15180969 .03125 .23357137 .03125 .33618165 .03125 .41565959 .041503908 .48390199 .06201172 .5409088 .10042318 .6470998 .16992188 .7001953 .2705078 .7001953M.26953126 .061523439C.31510417 .061523439 .35139976 .08168539 .37841798 .12200928 .4054362 .16234334 .4189453 .23747762 .4189453 .3474121 .4189453 .42676798 .4091797 .49205528 .38964845 .5432739 .3701172 .59450277 .332194 .6201172 .2758789 .6201172 .2241211 .6201172 .1862793 .59580489 .16235352 .5471802 .13842774 .4985555 .12646485 .42692057 .12646485 .3322754 .12646485 .26105754 .13411458 .20381673 .14941406 .16055298 .17285156 .09453329 .21289063 .061523439 .26953126 .061523439Z"/>
<path id="font_2_35" d="M.15234375 .5234375V.17590332C.15234375 .1491801 .15657552 .12734477 .16503906 .11039734 .18066406 .07911682 .20979817 .06347656 .2524414 .06347656 .3136393 .06347656 .355306 .09085083 .3774414 .14559937 .3894857 .17492676 .3955078 .21516927 .3955078 .2663269V.5234375H.48339845V0H.40039063L.4013672 .0771637C.38997398 .057195028 .3758138 .040339155 .35888673 .02659607 .32535807-.00090026858 .28466798-.0146484379 .2368164-.0146484379 .16227214-.0146484379 .11149088 .010299683 .084472659 .060195924 .06982422 .08693949 .0625 .12265015 .0625 .16732788V.5234375H.15234375M.27294923 .5361328V.5361328Z"/>
<path id="font_2_10" d="M.37841798 .7373047C.46923829 .7373047 .53971359 .71332809 .58984377 .66537478 .63997396 .61742147 .66780599 .5629476 .67333987 .5019531H.5786133C.5678711 .54817709 .5464681 .58479818 .5144043 .6118164 .48234049 .63883468 .43733726 .65234377 .37939454 .65234377 .3087565 .65234377 .25170899 .62754318 .20825196 .5779419 .16479492 .52834066 .1430664 .45231629 .1430664 .34986878 .1430664 .26594544 .16267903 .19788106 .2019043 .14567566 .24112956 .09348043 .29964195 .06738281 .3774414 .06738281 .449056 .06738281 .50358077 .094823207 .5410156 .14970398 .5608724 .17860413 .5756836 .21659343 .5854492 .26367188H.6801758C.6717122 .18815105 .64371749 .12483724 .5961914 .07373047 .5392253 .012207031 .46240235-.018554688 .36572267-.018554688 .2823893-.018554688 .21240235 .006688436 .15576172 .057174684 .081217449 .12394714 .043945314 .2270406 .043945314 .36645509 .043945314 .47232057 .0719401 .5591278 .12792969 .62687686 .18847656 .7004954 .27197267 .7373047 .37841798 .7373047M.35888673 .7373047V.7373047Z"/>
<path id="font_2_14" d="M.076171878 .71777346H.19091797L.55322268 .1362915V.71777346H.6455078V0H.5366211L.16894531 .58084109V0H.076171878V.71777346M.3544922 .71777346V.71777346Z"/>
<path id="font_2_13" d="M.07373047 .71777346H.21289063L.4189453 .11091614 .62353518 .71777346H.76123049V0H.6689453V.42362977C.6689453 .43828837 .6692708 .46255494 .6699219 .49642945 .67057296 .53030398 .67089846 .56662496 .67089846 .60539248L.4663086 0H.3701172L.1640625 .60539248V.58340457C.1640625 .5658162 .1644694 .5390218 .1652832 .50302127 .166097 .46703086 .1665039 .44056703 .1665039 .42362977V0H.07373047V.71777346Z"/>
<path id="font_2_23" d="M.24902344 .53222659C.29003907 .53222659 .32584635 .5220744 .3564453 .50177 .37304688 .49030558 .38997398 .4736023 .40722657 .45166017V.5185547H.48828126V.04234314C.48828126-.024154664 .47851563-.07663473 .45898438-.115097049 .42252604-.18615215 .35367839-.22167969 .2524414-.22167969 .1961263-.22167969 .14876302-.20906575 .11035156-.18383789 .0719401-.15861003 .05045573-.119140628 .045898439-.06542969H.1352539C.13948567-.08873495 .14794922-.10669454 .16064453-.11930847 .1805013-.13872783 .2117513-.1484375 .25439454-.1484375 .32177735-.1484375 .3658854-.12467448 .38671876-.07714844 .39908854-.04916382 .40478517 .0007985433 .4038086 .07273865 .38623048 .04588318 .36507163 .025904337 .34033204 .012802124 .31559245-.000289917 .2828776-.0068359377 .2421875-.0068359377 .18554688-.0068359377 .13598633 .013280232 .09350586 .053512575 .05102539 .09375509 .029785157 .16030376 .029785157 .25315858 .029785157 .34080506 .051188154 .40922547 .09399414 .4584198 .13680013 .5076243 .18847656 .53222659 .24902344 .53222659M.40722657 .26342774C.40722657 .328125 .39388023 .37607829 .3671875 .4072876 .34049479 .43849693 .30647788 .45410157 .26513673 .45410157 .20328777 .45410157 .16097005 .4251658 .1381836 .3672943 .12613933 .33641053 .12011719 .29593406 .12011719 .24586487 .12011719 .1870168 .13208008 .14223226 .15600586 .11151123 .17993164 .0807902 .21207683 .06542969 .2524414 .06542969 .31559245 .06542969 .36002604 .09387716 .3857422 .1507721 .4000651 .18295796 .40722657 .22050984 .40722657 .26342774M.25927735 .5361328V.5361328Z"/>
<path id="font_2_3" d="M.29589845 .7294922C.24479167 .6301575 .21158855 .55703738 .19628906 .51013186 .17317708 .43881227 .1616211 .3564148 .1616211 .26293946 .1616211 .16848755 .17480469 .08217875 .20117188 .0040130617 .21744792-.044184369 .24951172-.11355591 .29736329-.20410156H.23828125C.1907552-.12984212 .16129558-.08245341 .14990235-.061935426 .13850911-.04141744 .12613933-.013570149 .11279297 .021606446 .094563808 .06980387 .08186849 .1212616 .07470703 .17597962 .071126308 .2043101 .06933594 .23134358 .06933594 .25708009 .06933594 .3534851 .084472659 .43930564 .114746097 .5145416 .13395183 .5624135 .17399089 .6340637 .23486328 .7294922H.29589845Z"/>
<path id="font_2_2" d="M.16503906 .71777346 .14892578 .43066407H.092285159L.076171878 .71777346H.16503906Z"/>
<path id="font_2_4" d="M.03466797-.20410156C.08642578-.103139247 .119791667-.029530844 .13476563 .016723633 .15755208 .08674113 .16894531 .16881307 .16894531 .26293946 .16894531 .35706584 .15576172 .44321189 .12939453 .52137759 .11311849 .569575 .08105469 .63894656 .033203126 .7294922H.092285159C.14241536 .64937338 .17277019 .59995016 .18334961 .58122256 .19392903 .56249496 .20540364 .5366821 .21777344 .5037842 .23339844 .46307374 .24454753 .42285157 .2512207 .38311769 .2578939 .3433838 .26123048 .30511476 .26123048 .26831056 .26123048 .17190552 .24593099 .08592224 .21533203 .010360718 .1961263-.03816223 .15625-.10964966 .095703128-.20410156H.03466797Z"/>
<path id="font_2_26" d="M.0625 .71777346H.14697266V.30101014L.3725586 .5234375H.48486329L.28466798 .32881166 .49609376 0H.38378907L.22070313 .26635743 .14697266 .19647217V0H.0625V.71777346Z"/>
<path id="font_2_11" d="M.3515625 .08300781C.3844401 .08300781 .41145835 .08642578 .4326172 .09326172 .4703776 .10595703 .50130209 .1303711 .5253906 .1665039 .5445964 .19547527 .55843099 .23258464 .56689456 .27783204 .57177737 .30485026 .57421877 .32991538 .57421877 .35302735 .57421877 .44189454 .55655929 .51090499 .52124026 .5600586 .48592124 .6092122 .42903648 .63378909 .35058595 .63378909H.17822266V.08300781H.3515625M.080566409 .71777346H.37109376C.46972657 .71777346 .54622396 .6827545 .60058596 .6127167 .64908859 .54952499 .67333987 .46857707 .67333987 .36987306 .67333987 .2936503 .6590169 .22475688 .6303711 .16319275 .57991537 .054397584 .49316407 0 .3701172 0H.080566409V.71777346Z"/>
<path id="font_2_16" d="M.40966798 .38867188C.45524089 .38867188 .49129234 .39778648 .51782229 .41601563 .54435226 .43424479 .5576172 .4671224 .5576172 .51464846 .5576172 .5657552 .5390625 .60058596 .5019531 .6191406 .48209635 .62890627 .4555664 .63378909 .42236329 .63378909H.1850586V.38867188H.40966798M.087890628 .71777346H.41992188C.47460938 .71777346 .51969406 .709788 .5551758 .69381716 .6225586 .6631775 .65625 .60662338 .65625 .52415469 .65625 .48112489 .6473796 .44591777 .6296387 .41853334 .61189779 .39115907 .58707687 .36916099 .5551758 .35253907 .5831706 .34114585 .60424807 .32617188 .6184082 .3076172 .63256838 .2890625 .6404622 .2589518 .64208987 .21728516L.6455078 .12109375C.6464844 .09388224 .648763 .07363383 .65234377 .06034851 .6582031 .037663778 .6686198 .023081461 .68359377 .016601563V0H.5644531C.56119796 .006184896 .55859377 .014160156 .5566406 .023925782 .5546875 .033691408 .5530599 .052571615 .5517578 .080566409L.54589846 .20019531C.5436198 .24707031 .5262044 .27848307 .49365235 .2944336 .47509767 .30322267 .44596354 .3076172 .40625 .3076172H.1850586V0H.087890628V.71777346Z"/>
<path id="font_2_9" d="M.44433595 .2939453 .33544923 .61120608 .21972656 .2939453H.44433595M.28466798 .71777346H.39453126L.65478518 0H.54833987L.47558595 .21484375H.19189453L.11425781 0H.0146484379L.28466798 .71777346M.33496095 .71777346V.71777346Z"/>
</defs>
<g clip-path="url(#clip_0)">
<g clip-path="url(#clip_1)">
<path transform="matrix(1,0,0,-1,-1.55675,540)" d="M0 539.9999H719.9999V.00003079383H0Z" fill="#ffffff" fill-rule="evenodd"/>
<path transform="matrix(1,0,0,-1,-1.55675,540)" d="M299.75 392.5H371.75V374.5H299.75Z" fill="#cbcbcb" fill-rule="evenodd"/>
<path transform="matrix(.00007874014,0,0,.00007874014,298.19325,147.5)" stroke-width="19050" stroke-linecap="butt" stroke-miterlimit="8" stroke-linejoin="miter" fill="none" stroke="#000000" d="M-.05212408 .1209717H914400.1V228600.2H-.05212408Z"/>
<use data-text="P" xlink:href="#font_2_15" transform="matrix(16,0,0,-16,377.31816,163.77509)"/>
<use data-text="P" xlink:href="#font_2_15" transform="matrix(16,0,0,-16,387.99015,163.77509)"/>
<use data-text=" " xlink:href="#font_2_1" transform="matrix(16,0,0,-16,398.38056,163.77509)"/>
<use data-text="2" xlink:href="#font_2_8" transform="matrix(16,0,0,-16,402.82536,163.77509)"/>
<use data-text="m" xlink:href="#font_2_28" transform="matrix(10.66666,0,0,-10.66666,411.7244,158.9751)"/>
<use data-text="-" xlink:href="#font_2_5" transform="matrix(10.66666,0,0,-10.66666,420.60975,158.9751)"/>
<use data-text="p" xlink:href="#font_2_31" transform="matrix(10.66666,0,0,-10.66666,424.1617,158.9751)"/>
<use data-text="-" xlink:href="#font_2_5" transform="matrix(16,0,0,-16,430.09419,163.77509)"/>
<use data-text="1" xlink:href="#font_2_7" transform="matrix(16,0,0,-16,435.42219,163.77509)"/>
<use data-text="&#xfffd;" xlink:href="#font_3_1" transform="matrix(16,0,0,-16,444.32136,163.77509)"/>
<use data-text="P" xlink:href="#font_2_15" transform="matrix(16,0,0,-16,273.94325,13.77499)"/>
<use data-text="h" xlink:href="#font_2_24" transform="matrix(16,0,0,-16,284.61524,13.77499)"/>
<use data-text="y" xlink:href="#font_2_36" transform="matrix(16,0,0,-16,293.51445,13.77499)"/>
<use data-text="s" xlink:href="#font_2_33" transform="matrix(16,0,0,-16,301.51445,13.77499)"/>
<use data-text="i" xlink:href="#font_2_25" transform="matrix(16,0,0,-16,309.51445,13.77499)"/>
<use data-text="c" xlink:href="#font_2_20" transform="matrix(16,0,0,-16,313.06965,13.77499)"/>
<use data-text="a" xlink:href="#font_2_19" transform="matrix(16,0,0,-16,321.06965,13.77499)"/>
<use data-text="l" xlink:href="#font_2_27" transform="matrix(16,0,0,-16,329.96885,13.77499)"/>
<use data-text=" " xlink:href="#font_2_1" transform="matrix(16,0,0,-16,333.52406,13.77499)"/>
<use data-text="m" xlink:href="#font_2_28" transform="matrix(16,0,0,-16,337.96885,13.77499)"/>
<use data-text="e" xlink:href="#font_2_22" transform="matrix(16,0,0,-16,351.29685,13.77499)"/>
<use data-text="m" xlink:href="#font_2_28" transform="matrix(16,0,0,-16,360.19606,13.77499)"/>
<use data-text="o" xlink:href="#font_2_30" transform="matrix(16,0,0,-16,373.52406,13.77499)"/>
<use data-text="r" xlink:href="#font_2_32" transform="matrix(16,0,0,-16,382.42326,13.77499)"/>
<use data-text="y" xlink:href="#font_2_36" transform="matrix(16,0,0,-16,387.75126,13.77499)"/>
<use data-text="&#xfffd;" xlink:href="#font_4_1" transform="matrix(16,0,0,-16,395.74794,13.77499)"/>
<path transform="matrix(1,0,0,-1,-1.55675,540)" d="M299.75 481.4999H371.75V463.4999H299.75Z" fill="#ffffff" fill-rule="evenodd"/>
<path transform="matrix(.00007874014,0,0,.00007874014,298.19325,58.50009)" stroke-width="19050" stroke-linecap="butt" stroke-miterlimit="8" stroke-linejoin="miter" fill="none" stroke="#000000" d="M-.05212408 .3347169H914400.1V228600.4H-.05212408Z"/>
<use data-text="E" xlink:href="#font_2_12" transform="matrix(12,0,0,-12,316.31816,72.29999)"/>
<use data-text="m" xlink:href="#font_2_28" transform="matrix(12,0,0,-12,324.32215,72.29999)"/>
<use data-text="p" xlink:href="#font_2_31" transform="matrix(12,0,0,-12,334.31816,72.29999)"/>
<use data-text="t" xlink:href="#font_2_34" transform="matrix(12,0,0,-12,340.99256,72.29999)"/>
<use data-text="y" xlink:href="#font_2_36" transform="matrix(12,0,0,-12,344.32615,72.29999)"/>
<use data-text="&#xfffd;" xlink:href="#font_3_1" transform="matrix(12,0,0,-12,350.32615,72.29999)"/>
<path transform="matrix(1,0,0,-1,-1.55675,540)" d="M299.75 463.4999H371.75V445.4999H299.75Z" fill="#cbcbcb" fill-rule="evenodd"/>
<path transform="matrix(.00007874014,0,0,.00007874014,298.19325,76.50009)" stroke-width="19050" stroke-linecap="butt" stroke-miterlimit="8" stroke-linejoin="miter" fill="none" stroke="#000000" d="M-.05212408-.1301268H914400.1V228599.9H-.05212408Z"/>
<path transform="matrix(1,0,0,-1,-1.55675,540)" d="M299.75 445.4999H371.75V427.4999H299.75Z" fill="#ffffff" fill-rule="evenodd"/>
<path transform="matrix(.00007874014,0,0,.00007874014,298.19325,94.50009)" stroke-width="19050" stroke-linecap="butt" stroke-miterlimit="8" stroke-linejoin="miter" fill="none" stroke="#000000" d="M-.05212408-.09497058H914400.1V228599.9H-.05212408Z"/>
<use data-text="E" xlink:href="#font_2_12" transform="matrix(12,0,0,-12,316.31816,108.29999)"/>
<use data-text="m" xlink:href="#font_2_28" transform="matrix(12,0,0,-12,324.32215,108.29999)"/>
<use data-text="p" xlink:href="#font_2_31" transform="matrix(12,0,0,-12,334.31816,108.29999)"/>
<use data-text="t" xlink:href="#font_2_34" transform="matrix(12,0,0,-12,340.99256,108.29999)"/>
<use data-text="y" xlink:href="#font_2_36" transform="matrix(12,0,0,-12,344.32615,108.29999)"/>
<use data-text="&#xfffd;" xlink:href="#font_3_1" transform="matrix(12,0,0,-12,350.32615,108.29999)"/>
<path transform="matrix(1,0,0,-1,-1.55675,540)" d="M77.99998 376.25H150V358.25H77.99998Z" fill="#ffffff" fill-rule="evenodd"/>
<path transform="matrix(.00007874014,0,0,.00007874014,76.44323,163.75)" stroke-width="19050" stroke-linecap="butt" stroke-miterlimit="8" stroke-linejoin="miter" fill="none" stroke="#000000" d="M-.0414429 .15271H914399.9V228600.2H-.0414429Z"/>
<use data-text="U" xlink:href="#font_2_17" transform="matrix(12,0,0,-12,85.5682,177.54999)"/>
<use data-text="n" xlink:href="#font_2_29" transform="matrix(12,0,0,-12,94.234607,177.54999)"/>
<use data-text="c" xlink:href="#font_2_20" transform="matrix(12,0,0,-12,100.909008,177.54999)"/>
<use data-text="a" xlink:href="#font_2_19" transform="matrix(12,0,0,-12,106.909,177.54999)"/>
<use data-text="c" xlink:href="#font_2_20" transform="matrix(12,0,0,-12,113.583408,177.54999)"/>
<use data-text="h" xlink:href="#font_2_24" transform="matrix(12,0,0,-12,119.583408,177.54999)"/>
<use data-text="e" xlink:href="#font_2_22" transform="matrix(12,0,0,-12,126.2578,177.54999)"/>
<use data-text="d" xlink:href="#font_2_21" transform="matrix(12,0,0,-12,132.9322,177.54999)"/>
<use data-text="&#xfffd;" xlink:href="#font_3_1" transform="matrix(12,0,0,-12,139.6066,177.54999)"/>
<use data-text="V" xlink:href="#font_2_18" transform="matrix(16,0,0,-16,35.5682,56.27508)"/>
<use data-text="P" xlink:href="#font_2_15" transform="matrix(16,0,0,-16,46.2402,56.27508)"/>
<use data-text=" " xlink:href="#font_2_1" transform="matrix(16,0,0,-16,56.6306,56.27508)"/>
<use data-text="0" xlink:href="#font_2_6" transform="matrix(16,0,0,-16,61.0754,56.27508)"/>
<use data-text="&#xfffd;" xlink:href="#font_3_1" transform="matrix(16,0,0,-16,69.9746,56.27508)"/>
<use data-text="V" xlink:href="#font_2_18" transform="matrix(16,0,0,-16,35.5682,74.275089)"/>
<use data-text="P" xlink:href="#font_2_15" transform="matrix(16,0,0,-16,46.2402,74.275089)"/>
<use data-text=" " xlink:href="#font_2_1" transform="matrix(16,0,0,-16,56.6306,74.275089)"/>
<use data-text="1" xlink:href="#font_2_7" transform="matrix(16,0,0,-16,61.0754,74.275089)"/>
<use data-text="&#xfffd;" xlink:href="#font_3_1" transform="matrix(16,0,0,-16,69.9746,74.275089)"/>
<use data-text="V" xlink:href="#font_2_18" transform="matrix(16,0,0,-16,5.5682089,181.4)"/>
<use data-text="P" xlink:href="#font_2_15" transform="matrix(16,0,0,-16,16.24021,181.4)"/>
<use data-text=" " xlink:href="#font_2_1" transform="matrix(16,0,0,-16,26.63061,181.4)"/>
<use data-text="2" xlink:href="#font_2_8" transform="matrix(16,0,0,-16,31.075409,181.4)"/>
<use data-text="n" xlink:href="#font_2_29" transform="matrix(10.66666,0,0,-10.66666,39.974458,176.6)"/>
<use data-text="-" xlink:href="#font_2_5" transform="matrix(10.66666,0,0,-10.66666,45.907258,176.6)"/>
<use data-text="p" xlink:href="#font_2_31" transform="matrix(10.66666,0,0,-10.66666,49.45925,176.6)"/>
<use data-text="-" xlink:href="#font_2_5" transform="matrix(16,0,0,-16,55.391099,181.4)"/>
<use data-text="1" xlink:href="#font_2_7" transform="matrix(16,0,0,-16,60.7191,181.4)"/>
<use data-text="&#xfffd;" xlink:href="#font_3_1" transform="matrix(16,0,0,-16,69.61829,181.4)"/>
<use data-text="V" xlink:href="#font_2_18" transform="matrix(16,0,0,-16,59.0682,13.77499)"/>
<use data-text="i" xlink:href="#font_2_25" transform="matrix(16,0,0,-16,69.4586,13.77499)"/>
<use data-text="r" xlink:href="#font_2_32" transform="matrix(16,0,0,-16,73.0138,13.77499)"/>
<use data-text="t" xlink:href="#font_2_34" transform="matrix(16,0,0,-16,78.3418,13.77499)"/>
<use data-text="u" xlink:href="#font_2_35" transform="matrix(16,0,0,-16,82.7866,13.77499)"/>
<use data-text="a" xlink:href="#font_2_19" transform="matrix(16,0,0,-16,91.68581,13.77499)"/>
<use data-text="l" xlink:href="#font_2_27" transform="matrix(16,0,0,-16,100.58501,13.77499)"/>
<use data-text=" " xlink:href="#font_2_1" transform="matrix(16,0,0,-16,104.140209,13.77499)"/>
<use data-text="m" xlink:href="#font_2_28" transform="matrix(16,0,0,-16,108.58501,13.77499)"/>
<use data-text="e" xlink:href="#font_2_22" transform="matrix(16,0,0,-16,121.91301,13.77499)"/>
<use data-text="m" xlink:href="#font_2_28" transform="matrix(16,0,0,-16,130.81221,13.77499)"/>
<use data-text="o" xlink:href="#font_2_30" transform="matrix(16,0,0,-16,144.14022,13.77499)"/>
<use data-text="r" xlink:href="#font_2_32" transform="matrix(16,0,0,-16,153.03942,13.77499)"/>
<use data-text="y" xlink:href="#font_2_36" transform="matrix(16,0,0,-16,158.36742,13.77499)"/>
<use data-text="&#xfffd;" xlink:href="#font_3_1" transform="matrix(16,0,0,-16,166.36742,13.77499)"/>
<path transform="matrix(1,0,0,-1,-1.55675,540)" d="M77.99998 501.2499H150V483.2499H77.99998Z" fill="#ffffff" fill-rule="evenodd"/>
<path transform="matrix(.00007874014,0,0,.00007874014,76.44323,38.75009)" stroke-width="19050" stroke-linecap="butt" stroke-miterlimit="8" stroke-linejoin="miter" fill="none" stroke="#000000" d="M-.0414429 .2961427H914399.9V228600.3H-.0414429Z"/>
<use data-text="U" xlink:href="#font_2_17" transform="matrix(12,0,0,-12,80.5682,52.549989)"/>
<use data-text="n" xlink:href="#font_2_29" transform="matrix(12,0,0,-12,89.234607,52.549989)"/>
<use data-text="a" xlink:href="#font_2_19" transform="matrix(12,0,0,-12,95.909008,52.549989)"/>
<use data-text="l" xlink:href="#font_2_27" transform="matrix(12,0,0,-12,102.583408,52.549989)"/>
<use data-text="l" xlink:href="#font_2_27" transform="matrix(12,0,0,-12,105.2498,52.549989)"/>
<use data-text="o" xlink:href="#font_2_30" transform="matrix(12,0,0,-12,107.9162,52.549989)"/>
<use data-text="c" xlink:href="#font_2_20" transform="matrix(12,0,0,-12,114.5906,52.549989)"/>
<use data-text="a" xlink:href="#font_2_19" transform="matrix(12,0,0,-12,120.5906,52.549989)"/>
<use data-text="t" xlink:href="#font_2_34" transform="matrix(12,0,0,-12,127.265,52.549989)"/>
<use data-text="e" xlink:href="#font_2_22" transform="matrix(12,0,0,-12,130.5986,52.549989)"/>
<use data-text="d" xlink:href="#font_2_21" transform="matrix(12,0,0,-12,137.273,52.549989)"/>
<use data-text="&#xfffd;" xlink:href="#font_3_1" transform="matrix(12,0,0,-12,143.9474,52.549989)"/>
<path transform="matrix(1,0,0,-1,-1.55675,540)" d="M77.99998 483.2499H150V465.2499H77.99998Z" fill="#cbcbcb" fill-rule="evenodd"/>
<path transform="matrix(.00007874014,0,0,.00007874014,76.44323,56.75009)" stroke-width="19050" stroke-linecap="butt" stroke-miterlimit="8" stroke-linejoin="miter" fill="none" stroke="#000000" d="M-.0414429 .3312989H914399.9V228600.4H-.0414429Z"/>
<use data-text=" " xlink:href="#font_2_1" transform="matrix(12,0,0,-12,90.5682,70.54999)"/>
<use data-text="C" xlink:href="#font_2_10" transform="matrix(12,0,0,-12,93.9018,70.54999)"/>
<use data-text="a" xlink:href="#font_2_19" transform="matrix(12,0,0,-12,102.5682,70.54999)"/>
<use data-text="c" xlink:href="#font_2_20" transform="matrix(12,0,0,-12,109.2426,70.54999)"/>
<use data-text="h" xlink:href="#font_2_24" transform="matrix(12,0,0,-12,115.2426,70.54999)"/>
<use data-text="e" xlink:href="#font_2_22" transform="matrix(12,0,0,-12,121.917,70.54999)"/>
<use data-text="d" xlink:href="#font_2_21" transform="matrix(12,0,0,-12,128.5914,70.54999)"/>
<use data-text="&#xfffd;" xlink:href="#font_3_1" transform="matrix(12,0,0,-12,135.26581,70.54999)"/>
<path transform="matrix(1,0,0,-1,-1.55675,540)" d="M77.99998 465.2499H150V447.2499H77.99998Z" fill="#ffffff" fill-rule="evenodd"/>
<path transform="matrix(.00007874014,0,0,.00007874014,76.44323,74.75009)" stroke-width="19050" stroke-linecap="butt" stroke-miterlimit="8" stroke-linejoin="miter" fill="none" stroke="#000000" d="M-.0414429-.1335448H914399.9V228599.9H-.0414429Z"/>
<use data-text="U" xlink:href="#font_2_17" transform="matrix(12,0,0,-12,85.5682,88.54999)"/>
<use data-text="n" xlink:href="#font_2_29" transform="matrix(12,0,0,-12,94.234607,88.54999)"/>
<use data-text="c" xlink:href="#font_2_20" transform="matrix(12,0,0,-12,100.909008,88.54999)"/>
<use data-text="a" xlink:href="#font_2_19" transform="matrix(12,0,0,-12,106.909,88.54999)"/>
<use data-text="c" xlink:href="#font_2_20" transform="matrix(12,0,0,-12,113.583408,88.54999)"/>
<use data-text="h" xlink:href="#font_2_24" transform="matrix(12,0,0,-12,119.583408,88.54999)"/>
<use data-text="e" xlink:href="#font_2_22" transform="matrix(12,0,0,-12,126.2578,88.54999)"/>
<use data-text="d" xlink:href="#font_2_21" transform="matrix(12,0,0,-12,132.9322,88.54999)"/>
<use data-text="&#xfffd;" xlink:href="#font_3_1" transform="matrix(12,0,0,-12,139.6066,88.54999)"/>
<path transform="matrix(1,0,0,-1,-1.55675,540)" d="M77.99998 447H150V429H77.99998Z" fill="#ffffff" fill-rule="evenodd"/>
<path transform="matrix(.00007874014,0,0,.00007874014,76.44323,93)" stroke-width="19050" stroke-linecap="butt" stroke-miterlimit="8" stroke-linejoin="miter" fill="none" stroke="#000000" d="M-.0414429 .01452643H914399.9V228600H-.0414429Z"/>
<use data-text="U" xlink:href="#font_2_17" transform="matrix(12,0,0,-12,80.5682,106.79999)"/>
<use data-text="n" xlink:href="#font_2_29" transform="matrix(12,0,0,-12,89.234607,106.79999)"/>
<use data-text="a" xlink:href="#font_2_19" transform="matrix(12,0,0,-12,95.909008,106.79999)"/>
<use data-text="l" xlink:href="#font_2_27" transform="matrix(12,0,0,-12,102.583408,106.79999)"/>
<use data-text="l" xlink:href="#font_2_27" transform="matrix(12,0,0,-12,105.2498,106.79999)"/>
<use data-text="o" xlink:href="#font_2_30" transform="matrix(12,0,0,-12,107.9162,106.79999)"/>
<use data-text="c" xlink:href="#font_2_20" transform="matrix(12,0,0,-12,114.5906,106.79999)"/>
<use data-text="a" xlink:href="#font_2_19" transform="matrix(12,0,0,-12,120.5906,106.79999)"/>
<use data-text="t" xlink:href="#font_2_34" transform="matrix(12,0,0,-12,127.265,106.79999)"/>
<use data-text="e" xlink:href="#font_2_22" transform="matrix(12,0,0,-12,130.5986,106.79999)"/>
<use data-text="d" xlink:href="#font_2_21" transform="matrix(12,0,0,-12,137.273,106.79999)"/>
<use data-text="&#xfffd;" xlink:href="#font_3_1" transform="matrix(12,0,0,-12,143.9474,106.79999)"/>
<path transform="matrix(1,0,0,-1,-1.55675,540)" d="M77.99998 429.25H150V411.25H77.99998Z" fill="#cbcbcb" fill-rule="evenodd"/>
<path transform="matrix(.00007874014,0,0,.00007874014,76.44323,110.75)" stroke-width="19050" stroke-linecap="butt" stroke-miterlimit="8" stroke-linejoin="miter" fill="none" stroke="#000000" d="M-.0414429 .0491944H914399.9V228600.1H-.0414429Z"/>
<use data-text=" " xlink:href="#font_2_1" transform="matrix(12,0,0,-12,90.5682,124.54999)"/>
<use data-text="C" xlink:href="#font_2_10" transform="matrix(12,0,0,-12,93.9018,124.54999)"/>
<use data-text="a" xlink:href="#font_2_19" transform="matrix(12,0,0,-12,102.5682,124.54999)"/>
<use data-text="c" xlink:href="#font_2_20" transform="matrix(12,0,0,-12,109.2426,124.54999)"/>
<use data-text="h" xlink:href="#font_2_24" transform="matrix(12,0,0,-12,115.2426,124.54999)"/>
<use data-text="e" xlink:href="#font_2_22" transform="matrix(12,0,0,-12,121.917,124.54999)"/>
<use data-text="d" xlink:href="#font_2_21" transform="matrix(12,0,0,-12,128.5914,124.54999)"/>
<use data-text="&#xfffd;" xlink:href="#font_3_1" transform="matrix(12,0,0,-12,135.26581,124.54999)"/>
<path transform="matrix(1,0,0,-1,-1.55675,540)" d="M77.99998 411.25H150V393.25H77.99998Z" fill="#ffffff" fill-rule="evenodd"/>
<path transform="matrix(.00007874014,0,0,.00007874014,76.44323,128.75)" stroke-width="19050" stroke-linecap="butt" stroke-miterlimit="8" stroke-linejoin="miter" fill="none" stroke="#000000" d="M-.0414429 .08435065H914399.9V228600.1H-.0414429Z"/>
<use data-text="U" xlink:href="#font_2_17" transform="matrix(12,0,0,-12,85.5682,142.54999)"/>
<use data-text="n" xlink:href="#font_2_29" transform="matrix(12,0,0,-12,94.234607,142.54999)"/>
<use data-text="c" xlink:href="#font_2_20" transform="matrix(12,0,0,-12,100.909008,142.54999)"/>
<use data-text="a" xlink:href="#font_2_19" transform="matrix(12,0,0,-12,106.909,142.54999)"/>
<use data-text="c" xlink:href="#font_2_20" transform="matrix(12,0,0,-12,113.583408,142.54999)"/>
<use data-text="h" xlink:href="#font_2_24" transform="matrix(12,0,0,-12,119.583408,142.54999)"/>
<use data-text="e" xlink:href="#font_2_22" transform="matrix(12,0,0,-12,126.2578,142.54999)"/>
<use data-text="d" xlink:href="#font_2_21" transform="matrix(12,0,0,-12,132.9322,142.54999)"/>
<use data-text="&#xfffd;" xlink:href="#font_3_1" transform="matrix(12,0,0,-12,139.6066,142.54999)"/>
<use data-text="P" xlink:href="#font_2_15" transform="matrix(16,0,0,-16,376.26826,75.650089)"/>
<use data-text="P" xlink:href="#font_2_15" transform="matrix(16,0,0,-16,386.94026,75.650089)"/>
<use data-text=" " xlink:href="#font_2_1" transform="matrix(16,0,0,-16,397.33067,75.650089)"/>
<use data-text="0" xlink:href="#font_2_6" transform="matrix(16,0,0,-16,401.77546,75.650089)"/>
<use data-text="&#xfffd;" xlink:href="#font_3_1" transform="matrix(16,0,0,-16,410.67466,75.650089)"/>
<use data-text="P" xlink:href="#font_2_15" transform="matrix(16,0,0,-16,376.26826,93.650089)"/>
<use data-text="P" xlink:href="#font_2_15" transform="matrix(16,0,0,-16,386.94026,93.650089)"/>
<use data-text=" " xlink:href="#font_2_1" transform="matrix(16,0,0,-16,397.33067,93.650089)"/>
<use data-text="1" xlink:href="#font_2_7" transform="matrix(16,0,0,-16,401.77546,93.650089)"/>
<use data-text="&#xfffd;" xlink:href="#font_3_1" transform="matrix(16,0,0,-16,410.67466,93.650089)"/>
<path transform="matrix(.00007874014,0,0,.00007874014,148.44326,65.75009)" stroke-width="12700" stroke-linecap="butt" stroke-linejoin="round" fill="none" stroke="#000000" d="M-.0258179-.1511229 1879834 256910.6"/>
<path transform="matrix(1,0,0,-1,-1.55675,540)" d="M294.4615 457.5348 300 453.7499 293.649 451.59Z" fill-rule="evenodd"/>
<path transform="matrix(1,0,0,-1,-1.55675,540)" d="M299.75 410.4999H371.75V392.4999H299.75Z" fill="#ffffff" fill-rule="evenodd"/>
<path transform="matrix(.00007874014,0,0,.00007874014,298.19325,129.50009)" stroke-width="19050" stroke-linecap="butt" stroke-miterlimit="8" stroke-linejoin="miter" fill="none" stroke="#000000" d="M-.05212408-.02661121H914400.1V228600H-.05212408Z"/>
<use data-text="E" xlink:href="#font_2_12" transform="matrix(12,0,0,-12,316.31816,143.29999)"/>
<use data-text="m" xlink:href="#font_2_28" transform="matrix(12,0,0,-12,324.32215,143.29999)"/>
<use data-text="p" xlink:href="#font_2_31" transform="matrix(12,0,0,-12,334.31816,143.29999)"/>
<use data-text="t" xlink:href="#font_2_34" transform="matrix(12,0,0,-12,340.99256,143.29999)"/>
<use data-text="y" xlink:href="#font_2_36" transform="matrix(12,0,0,-12,344.32615,143.29999)"/>
<use data-text="&#xfffd;" xlink:href="#font_3_1" transform="matrix(12,0,0,-12,350.32615,143.29999)"/>
<path transform="matrix(.00007874014,0,0,.00007874014,148.44326,122.25)" stroke-width="12700" stroke-linecap="butt" stroke-linejoin="round" fill="none" stroke="#000000" d="M-.0258179 .07165533 1880302 451272.6"/>
<path transform="matrix(1,0,0,-1,-1.55675,540)" d="M294.8658 386.0674 300 381.75 293.4655 380.233Z" fill-rule="evenodd"/>
<path transform="matrix(1,0,0,-1,-1.55675,540)" d="M77.99998 393.75H150V375.75H77.99998Z" fill="#cbcbcb" fill-rule="evenodd"/>
<path transform="matrix(.00007874014,0,0,.00007874014,76.44323,146.25)" stroke-width="19050" stroke-linecap="butt" stroke-miterlimit="8" stroke-linejoin="miter" fill="none" stroke="#000000" d="M-.0414429 .1185303H914399.9V228600.2H-.0414429Z"/>
<use data-text="C" xlink:href="#font_2_10" transform="matrix(12,0,0,-12,91.5682,160.04999)"/>
<use data-text="a" xlink:href="#font_2_19" transform="matrix(12,0,0,-12,100.234607,160.04999)"/>
<use data-text="c" xlink:href="#font_2_20" transform="matrix(12,0,0,-12,106.909008,160.04999)"/>
<use data-text="h" xlink:href="#font_2_24" transform="matrix(12,0,0,-12,112.909,160.04999)"/>
<use data-text="e" xlink:href="#font_2_22" transform="matrix(12,0,0,-12,119.583408,160.04999)"/>
<use data-text="d" xlink:href="#font_2_21" transform="matrix(12,0,0,-12,126.2578,160.04999)"/>
<use data-text="&#xfffd;" xlink:href="#font_3_1" transform="matrix(12,0,0,-12,132.9322,160.04999)"/>
<path transform="matrix(1,0,0,-1,-1.55675,540)" d="M299.75 427.4999H371.75V409.4999H299.75Z" fill="#cbcbcb" fill-rule="evenodd"/>
<path transform="matrix(.00007874014,0,0,.00007874014,298.19325,112.50009)" stroke-width="19050" stroke-linecap="butt" stroke-miterlimit="8" stroke-linejoin="miter" fill="none" stroke="#000000" d="M-.05212408-.05981433H914400.1V228600H-.05212408Z"/>
<path transform="matrix(.00007874014,0,0,-.00007874014,148.44326,152.25)" stroke-width="12700" stroke-linecap="butt" stroke-linejoin="round" fill="none" stroke="#000000" d="M-.0258179-.1302491 1880094 376018.4"/>
<path transform="matrix(1,0,0,-1,-1.55675,540)" d="M294.7048 413.6315 300 417.75 293.5281 419.515Z" fill-rule="evenodd"/>
<use data-text="0" xlink:href="#font_2_6" transform="matrix(10,0,0,-10,151.39325,39.87509)"/>
<use data-text="&#xfffd;" xlink:href="#font_3_1" transform="matrix(10,0,0,-10,156.95525,39.87509)"/>
<use data-text="N" xlink:href="#font_2_14" transform="matrix(10,0,0,-10,155.01825,185.125)"/>
<use data-text="-" xlink:href="#font_2_5" transform="matrix(10,0,0,-10,162.24025,185.125)"/>
<use data-text="1" xlink:href="#font_2_7" transform="matrix(10,0,0,-10,165.57025,185.125)"/>
<use data-text="&#xfffd;" xlink:href="#font_3_1" transform="matrix(10,0,0,-10,171.13225,185.125)"/>
<use data-text="M" xlink:href="#font_2_13" transform="matrix(10,0,0,-10,275.64326,171.875)"/>
<use data-text="-" xlink:href="#font_2_5" transform="matrix(10,0,0,-10,283.97325,171.875)"/>
<use data-text="1" xlink:href="#font_2_7" transform="matrix(10,0,0,-10,287.30326,171.875)"/>
<use data-text="&#xfffd;" xlink:href="#font_3_1" transform="matrix(10,0,0,-10,292.86528,171.875)"/>
<use data-text="0" xlink:href="#font_2_6" transform="matrix(10,0,0,-10,291.39326,63.87509)"/>
<use data-text="&#xfffd;" xlink:href="#font_3_1" transform="matrix(10,0,0,-10,296.95527,63.87509)"/>
<use data-text="V" xlink:href="#font_2_18" transform="matrix(16,0,0,-16,39.893239,213.92499)"/>
<use data-text="i" xlink:href="#font_2_25" transform="matrix(16,0,0,-16,50.283639,213.92499)"/>
<use data-text="r" xlink:href="#font_2_32" transform="matrix(16,0,0,-16,53.838838,213.92499)"/>
<use data-text="t" xlink:href="#font_2_34" transform="matrix(16,0,0,-16,59.16684,213.92499)"/>
<use data-text="u" xlink:href="#font_2_35" transform="matrix(16,0,0,-16,63.61164,213.92499)"/>
<use data-text="a" xlink:href="#font_2_19" transform="matrix(16,0,0,-16,72.51084,213.92499)"/>
<use data-text="l" xlink:href="#font_2_27" transform="matrix(16,0,0,-16,81.41004,213.92499)"/>
<use data-text=" " xlink:href="#font_2_1" transform="matrix(16,0,0,-16,84.96524,213.92499)"/>
<use data-text="p" xlink:href="#font_2_31" transform="matrix(16,0,0,-16,89.41005,213.92499)"/>
<use data-text="a" xlink:href="#font_2_19" transform="matrix(16,0,0,-16,98.30925,213.92499)"/>
<use data-text="g" xlink:href="#font_2_23" transform="matrix(16,0,0,-16,107.20845,213.92499)"/>
<use data-text="e" xlink:href="#font_2_22" transform="matrix(16,0,0,-16,116.10765,213.92499)"/>
<use data-text="s" xlink:href="#font_2_33" transform="matrix(16,0,0,-16,125.00685,213.92499)"/>
<use data-text=" " xlink:href="#font_2_1" transform="matrix(16,0,0,-16,133.00685,213.92499)"/>
<use data-text="(" xlink:href="#font_2_3" transform="matrix(16,0,0,-16,137.45165,213.92499)"/>
<use data-text="V" xlink:href="#font_2_18" transform="matrix(16,0,0,-16,142.77965,213.92499)"/>
<use data-text="P" xlink:href="#font_2_15" transform="matrix(16,0,0,-16,153.45165,213.92499)"/>
<use data-text="'" xlink:href="#font_2_2" transform="matrix(16,0,0,-16,164.12364,213.92499)"/>
<use data-text="s" xlink:href="#font_2_33" transform="matrix(16,0,0,-16,167.17804,213.92499)"/>
<use data-text=")" xlink:href="#font_2_4" transform="matrix(16,0,0,-16,175.17804,213.92499)"/>
<use data-text=" " xlink:href="#font_2_1" transform="matrix(16,0,0,-16,180.50605,213.92499)"/>
<use data-text="&#xfffd;" xlink:href="#font_3_1" transform="matrix(16,0,0,-16,184.95084,213.92499)"/>
<use data-text="s" xlink:href="#font_2_33" transform="matrix(16,0,0,-16,60.893239,232.92499)"/>
<use data-text="t" xlink:href="#font_2_34" transform="matrix(16,0,0,-16,68.893238,232.92499)"/>
<use data-text="o" xlink:href="#font_2_30" transform="matrix(16,0,0,-16,73.338039,232.92499)"/>
<use data-text="r" xlink:href="#font_2_32" transform="matrix(16,0,0,-16,82.23724,232.92499)"/>
<use data-text="e" xlink:href="#font_2_22" transform="matrix(16,0,0,-16,87.56524,232.92499)"/>
<use data-text="d" xlink:href="#font_2_21" transform="matrix(16,0,0,-16,96.46444,232.92499)"/>
<use data-text=" " xlink:href="#font_2_1" transform="matrix(16,0,0,-16,105.36364,232.92499)"/>
<use data-text="o" xlink:href="#font_2_30" transform="matrix(16,0,0,-16,109.80844,232.92499)"/>
<use data-text="n" xlink:href="#font_2_29" transform="matrix(16,0,0,-16,118.70764,232.92499)"/>
<use data-text=" " xlink:href="#font_2_1" transform="matrix(16,0,0,-16,127.60684,232.92499)"/>
<use data-text="d" xlink:href="#font_2_21" transform="matrix(16,0,0,-16,132.05164,232.92499)"/>
<use data-text="i" xlink:href="#font_2_25" transform="matrix(16,0,0,-16,140.95084,232.92499)"/>
<use data-text="s" xlink:href="#font_2_33" transform="matrix(16,0,0,-16,144.50605,232.92499)"/>
<use data-text="k" xlink:href="#font_2_26" transform="matrix(16,0,0,-16,152.50605,232.92499)"/>
<use data-text="&#xfffd;" xlink:href="#font_3_1" transform="matrix(16,0,0,-16,160.50605,232.92499)"/>
<use data-text="P" xlink:href="#font_2_15" transform="matrix(16,0,0,-16,259.64326,213.92499)"/>
<use data-text="h" xlink:href="#font_2_24" transform="matrix(16,0,0,-16,270.31526,213.92499)"/>
<use data-text="y" xlink:href="#font_2_36" transform="matrix(16,0,0,-16,279.21446,213.92499)"/>
<use data-text="s" xlink:href="#font_2_33" transform="matrix(16,0,0,-16,287.21446,213.92499)"/>
<use data-text="i" xlink:href="#font_2_25" transform="matrix(16,0,0,-16,295.21446,213.92499)"/>
<use data-text="c" xlink:href="#font_2_20" transform="matrix(16,0,0,-16,298.76966,213.92499)"/>
<use data-text="a" xlink:href="#font_2_19" transform="matrix(16,0,0,-16,306.76966,213.92499)"/>
<use data-text="l" xlink:href="#font_2_27" transform="matrix(16,0,0,-16,315.66886,213.92499)"/>
<use data-text=" " xlink:href="#font_2_1" transform="matrix(16,0,0,-16,319.22407,213.92499)"/>
<use data-text="p" xlink:href="#font_2_31" transform="matrix(16,0,0,-16,323.66886,213.92499)"/>
<use data-text="a" xlink:href="#font_2_19" transform="matrix(16,0,0,-16,332.56806,213.92499)"/>
<use data-text="g" xlink:href="#font_2_23" transform="matrix(16,0,0,-16,341.46726,213.92499)"/>
<use data-text="e" xlink:href="#font_2_22" transform="matrix(16,0,0,-16,350.36647,213.92499)"/>
<use data-text="s" xlink:href="#font_2_33" transform="matrix(16,0,0,-16,359.26567,213.92499)"/>
<use data-text=" " xlink:href="#font_2_1" transform="matrix(16,0,0,-16,367.26567,213.92499)"/>
<use data-text="(" xlink:href="#font_2_3" transform="matrix(16,0,0,-16,371.71046,213.92499)"/>
<use data-text="P" xlink:href="#font_2_15" transform="matrix(16,0,0,-16,377.03846,213.92499)"/>
<use data-text="P" xlink:href="#font_2_15" transform="matrix(16,0,0,-16,387.71046,213.92499)"/>
<use data-text="'" xlink:href="#font_2_2" transform="matrix(16,0,0,-16,398.38246,213.92499)"/>
<use data-text="s" xlink:href="#font_2_33" transform="matrix(16,0,0,-16,401.43687,213.92499)"/>
<use data-text=")" xlink:href="#font_2_4" transform="matrix(16,0,0,-16,409.43687,213.92499)"/>
<use data-text=" " xlink:href="#font_2_1" transform="matrix(16,0,0,-16,414.76487,213.92499)"/>
<use data-text="&#xfffd;" xlink:href="#font_3_1" transform="matrix(16,0,0,-16,419.20967,213.92499)"/>
<use data-text="c" xlink:href="#font_2_20" transform="matrix(16,0,0,-16,277.64326,232.92499)"/>
<use data-text="a" xlink:href="#font_2_19" transform="matrix(16,0,0,-16,285.64326,232.92499)"/>
<use data-text="c" xlink:href="#font_2_20" transform="matrix(16,0,0,-16,294.54246,232.92499)"/>
<use data-text="h" xlink:href="#font_2_24" transform="matrix(16,0,0,-16,302.54246,232.92499)"/>
<use data-text="e" xlink:href="#font_2_22" transform="matrix(16,0,0,-16,311.44166,232.92499)"/>
<use data-text="d" xlink:href="#font_2_21" transform="matrix(16,0,0,-16,320.34086,232.92499)"/>
<use data-text=" " xlink:href="#font_2_1" transform="matrix(16,0,0,-16,329.24006,232.92499)"/>
<use data-text="i" xlink:href="#font_2_25" transform="matrix(16,0,0,-16,333.68486,232.92499)"/>
<use data-text="n" xlink:href="#font_2_29" transform="matrix(16,0,0,-16,337.24006,232.92499)"/>
<use data-text=" " xlink:href="#font_2_1" transform="matrix(16,0,0,-16,346.13926,232.92499)"/>
<use data-text="D" xlink:href="#font_2_11" transform="matrix(16,0,0,-16,350.58406,232.92499)"/>
<use data-text="R" xlink:href="#font_2_16" transform="matrix(16,0,0,-16,362.13926,232.92499)"/>
<use data-text="A" xlink:href="#font_2_9" transform="matrix(16,0,0,-16,373.69447,232.92499)"/>
<use data-text="M" xlink:href="#font_2_13" transform="matrix(16,0,0,-16,384.36647,232.92499)"/>
<use data-text="&#xfffd;" xlink:href="#font_3_1" transform="matrix(16,0,0,-16,397.69447,232.92499)"/>
</g>
</g>
</svg>
