<svg xmlns="http://www.w3.org/2000/svg" xmlns:xlink="http://www.w3.org/1999/xlink" version="1.1" width="600.127pt" height="278.658pt" viewBox="0 0 600.127 278.658">
<defs>
<clipPath id="clip_0">
<path transform="matrix(1,0,0,-1,0,540)" d="M0 261.342H600.127V540H0Z" fill-rule="evenodd"/>
</clipPath>
<clipPath id="clip_1">
<path transform="matrix(1,0,0,-1,0,540)" d="M0 .00002324581H719.9999V540H0Z"/>
</clipPath>
<path id="font_2_18" d="M.07373047 .71777346H.21289063L.4189453 .11091614 .62353518 .71777346H.76123049V0H.6689453V.42362977C.6689453 .43828837 .6692708 .46255494 .6699219 .49642945 .67057296 .53030398 .67089846 .56662496 .67089846 .60539248L.4663086 0H.3701172L.1640625 .60539248V.58340457C.1640625 .5658162 .1644694 .5390218 .1652832 .50302127 .166097 .46703086 .1665039 .44056703 .1665039 .42362977V0H.07373047V.71777346Z"/>
<path id="font_2_20" d="M.18164063 .71777346V.27441407C.18164063 .22233074 .19140625 .17903646 .2109375 .14453125 .23990886 .092447917 .28873698 .06640625 .35742188 .06640625 .43977867 .06640625 .49576823 .094563808 .5253906 .1508789 .5413411 .18147786 .5493164 .22265625 .5493164 .27441407V.71777346H.6479492V.3149414C.6479492 .22672527 .6360677 .15885417 .6123047 .111328128 .5686849 .024739584 .48632813-.018554688 .36523438-.018554688 .24414063-.018554688 .16194661 .024739584 .118652347 .111328128 .09488932 .15885417 .08300781 .22672527 .08300781 .3149414V.71777346H.18164063M.36572267 .71777346V.71777346Z"/>
<path id="font_3_1" d="M0 0Z"/>
<path id="font_2_19" d="M.08544922 .71777346H.40820313C.47200523 .71777346 .5234375 .6997884 .5625 .66381838 .6015625 .6278483 .62109377 .5773112 .62109377 .51220706 .62109377 .45621745 .6036784 .4074707 .56884768 .3659668 .5340169 .3244629 .48046876 .30371095 .40820313 .30371095H.18261719V0H.08544922V.71777346M.5229492 .5114746C.5229492 .56410726 .50341799 .5998433 .46435548 .61868289 .4428711 .62875369 .41341148 .63378909 .37597657 .63378909H.18261719V.3857422H.37597657C.41959635 .3857422 .45499674 .39499919 .48217774 .41351319 .5093587 .43203736 .5229492 .46469117 .5229492 .5114746Z"/>
<path id="font_2_26" d="M.064453128 .71875H.15234375V.45214845C.17317708 .4786682 .19189453 .4973297 .2084961 .50813296 .2368164 .5267995 .2721354 .5361328 .31445313 .5361328 .39029948 .5361328 .44173179 .50957748 .46875 .45646668 .48339845 .42747499 .49072267 .38723756 .49072267 .3357544V0H.40039063V.32958985C.40039063 .3680013 .3955078 .39615885 .3857422 .4140625 .36979167 .44270835 .33984376 .45703126 .29589845 .45703126 .2594401 .45703126 .22639974 .4444987 .19677735 .4194336 .16715496 .3943685 .15234375 .34700523 .15234375 .27734376V0H.064453128V.71875Z"/>
<path id="font_2_38" d="M.39111329 .5234375H.48828126C.47591148 .48987834 .44840495 .41330973 .40576173 .2937317 .3738607 .20380657 .34716798 .13049825 .3256836 .07380676 .27490235-.059921266 .23909505-.14145915 .21826172-.17080689 .19742839-.2001648 .1616211-.21484375 .110839847-.21484375 .098470058-.21484375 .08894857-.21435039 .08227539-.21336365 .07560221-.21238709 .06738281-.21058655 .057617189-.20796204V-.1274414C.072916667-.13167317 .083984378-.13427735 .09082031-.1352539 .09765625-.13623047 .10367838-.13671875 .10888672-.13671875 .12516277-.13671875 .13712566-.1340332 .14477539-.12866211 .15242513-.123291019 .15885417-.11669922 .1640625-.10888672 .16569011-.106282558 .17154949-.092936199 .18164063-.068847659 .19173177-.044759115 .19905599-.026855469 .20361328-.015136719L.010253906 .5234375H.10986328L.25 .09727478 .39111329 .5234375M.24951172 .5361328V.5361328Z"/>
<path id="font_2_34" d="M.11669922 .1640625C.11930338 .13463338 .12662761 .11207072 .13867188 .09637451 .1608073 .06793213 .19921875 .053710939 .25390626 .053710939 .28645835 .053710939 .31510417 .060806276 .33984376 .07499695 .36458335 .08919779 .37695313 .11115011 .37695313 .14085388 .37695313 .16337586 .36702476 .18051148 .34716798 .19226074 .33447267 .19944255 .30940757 .20775859 .27197267 .21720886L.20214844 .2348175C.15755208 .24590557 .12467448 .25829569 .103515628 .27198792 .06575521 .29579164 .046875 .32873027 .046875 .37080384 .046875 .42036439 .064697269 .46046958 .1003418 .49111939 .13598633 .52177938 .18391927 .5371094 .24414063 .5371094 .32291667 .5371094 .37972007 .5139974 .41455079 .46777345 .4363607 .43847657 .4469401 .40690104 .44628907 .37304688H.36328126C.36165367 .39269004 .35465495 .41055808 .34228517 .426651 .32210288 .44950868 .28710938 .4609375 .23730469 .4609375 .20410156 .4609375 .17895508 .45461528 .16186524 .44197084 .14477539 .42933656 .13623047 .41264854 .13623047 .39190675 .13623047 .36922203 .14746094 .35107423 .16992188 .33746339 .1829427 .32936607 .20214844 .32221986 .22753906 .31602479L.28564454 .3018341C.34879557 .28650413 .39111329 .27166749 .41259767 .25732423 .44677735 .23482259 .4638672 .19944255 .4638672 .15118408 .4638672 .10455322 .44620768 .06428019 .41088868 .03036499 .37556968-.0035502117 .32177735-.020507813 .24951172-.020507813 .17171224-.020507813 .116617839-.002802531 .084228519 .032608034 .05183919 .06801859 .034505208 .111836757 .032226564 .1640625H.11669922M.24658203 .5361328V.5361328Z"/>
<path id="font_2_27" d="M.064453128 .5205078H.1538086V0H.064453128V.5205078M.064453128 .71777346H.1538086V.61816409H.064453128V.71777346Z"/>
<path id="font_2_23" d="M.26611329 .53808596C.32503257 .53808596 .37296549 .5237274 .4099121 .49501039 .44685874 .46629334 .46907554 .41684977 .4765625 .3466797H.39111329C.38590495 .37890626 .37402345 .40568034 .35546876 .42700196 .33691407 .44832359 .3071289 .45898438 .26611329 .45898438 .2101237 .45898438 .17008464 .43170677 .1459961 .3771515 .1303711 .34176127 .122558597 .29808555 .122558597 .24612427 .122558597 .19384766 .1336263 .14984639 .15576172 .11412048 .17789714 .07840475 .21272786 .060546876 .2602539 .060546876 .29671226 .060546876 .3256022 .0716095 .34692384 .09373474 .36824546 .115859989 .38297526 .1461385 .39111329 .18457031H.4765625C.46679688 .115234378 .4423828 .06453451 .4033203 .032470704 .3642578 .00040690104 .31429038-.015625 .25341798-.015625 .1850586-.015625 .13053386 .009379069 .08984375 .059387208 .049153646 .10940552 .028808594 .17188008 .028808594 .24681092 .028808594 .33868919 .05110677 .41020204 .095703128 .4613495 .14029949 .51250717 .19710286 .53808596 .26611329 .53808596M.2524414 .5361328V.5361328Z"/>
<path id="font_2_22" d="M.13183594 .1394043C.13183594 .114095058 .14111328 .09413656 .15966797 .07952881 .17822266 .06492106 .20019531 .057617189 .22558594 .057617189 .2565104 .057617189 .28645835 .06471761 .3154297 .07891846 .3642578 .10247803 .38867188 .14127605 .38867188 .1953125V.26611329C.3779297 .25886027 .36409507 .2528127 .34716798 .24797058 .33024089 .24313863 .3136393 .23983257 .29736329 .23805237L.24414063 .23184204C.21223958 .22799683 .1883138 .22153218 .17236328 .21244812 .14534505 .19718933 .13183594 .17284139 .13183594 .1394043M.34472657 .31689454C.36490885 .3194987 .37841798 .32796226 .3852539 .34228517 .38916017 .35012818 .39111329 .36140443 .39111329 .3761139 .39111329 .40618388 .38045249 .42799888 .35913087 .44155885 .33780924 .455129 .30729167 .46191407 .26757813 .46191407 .22167969 .46191407 .18912761 .44948326 .16992188 .42462159 .15917969 .4108785 .15218099 .39043174 .14892578 .36328126H.06689453C.06852213 .42791749 .08943685 .47288514 .12963867 .4981842 .1698405 .5234833 .21647136 .5361328 .26953126 .5361328 .3310547 .5361328 .38102214 .52441409 .4194336 .50097659 .45751954 .47753907 .4765625 .4410502 .4765625 .39151V.08985901C.4765625 .08073425 .47843424 .073404949 .48217774 .067871097 .48592124 .06233724 .4938151 .059570314 .5058594 .059570314 .5097656 .059570314 .51416018 .059814454 .51904299 .060302736 .5239258 .060791017 .5291341 .061523439 .53466799 .0625V-.0028076173C.5209961-.00676473 .5105794-.009236653 .50341799-.010223389 .4962565-.011220296 .48649089-.01171875 .4741211-.01171875 .44384767-.01171875 .421875-.0009104411 .40820313 .020706177 .40104167 .032170614 .3959961 .048380536 .3930664 .06933594 .37516276 .045633954 .34944663 .025060019 .31591798 .0076141359 .2823893-.009831746 .2454427-.018554688 .20507813-.018554688 .15657552-.018554688 .11694336-.0037790936 .08618164 .025772095 .055419923 .055323285 .040039064 .092300418 .040039064 .13670349 .040039064 .18535869 .05517578 .22307332 .08544922 .24984741 .115722659 .2766215 .1554362 .29311119 .20458985 .2993164L.34472657 .31689454M.27197267 .5361328V.5361328Z"/>
<path id="font_2_28" d="M.06689453 .71777346H.15478516V0H.06689453V.71777346Z"/>
<path id="font_2_24" d="M.12011719 .2553711C.12011719 .19923909 .1319987 .15224712 .15576172 .11439514 .17952474 .076543178 .21761067 .057617189 .27001954 .057617189 .31070964 .057617189 .3441569 .075154628 .37036134 .11022949 .39656578 .14531453 .40966798 .19565328 .40966798 .26124574 .40966798 .32748924 .39615885 .37651573 .36914063 .4083252 .3421224 .44014488 .3087565 .4560547 .26904298 .4560547 .22477214 .4560547 .18888347 .4390869 .16137696 .40515138 .13387044 .37121583 .12011719 .32128907 .12011719 .2553711M.2524414 .53222659C.29248048 .53222659 .32600913 .52381899 .35302735 .5070038 .36865235 .4972992 .38639323 .48031617 .40625 .4560547V.71875H.49072267V0H.4116211V.07229614C.39111329 .04023234 .36686198 .017074585 .3388672 .002822876 .3108724-.011428833 .2788086-.018554688 .24267578-.018554688 .18440755-.018554688 .13395183 .0059407555 .091308597 .05493164 .048665365 .10392252 .02734375 .16910808 .02734375 .25048829 .02734375 .32666017 .04679362 .39265953 .08569336 .44848634 .1245931 .5043132 .18017578 .53222659 .2524414 .53222659Z"/>
<path id="font_2_33" d="M.06689453 .5234375H.15039063V.4326172C.15722656 .4502767 .17399089 .4717814 .2006836 .49713136 .2273763 .52248129 .25813804 .53515627 .29296876 .53515627 .29459635 .53515627 .29736329 .5349579 .30126954 .53456118 .30517579 .5341746 .31184898 .5333964 .32128907 .53222659V.43945313C.31608073 .44062297 .3112793 .44140116 .30688478 .44178773 .30249024 .44218446 .2976888 .4423828 .29248048 .4423828 .24820964 .4423828 .2141927 .4280599 .19042969 .39941407 .16666667 .37076823 .15478516 .33789063 .15478516 .30078126V0H.06689453V.5234375Z"/>
<path id="font_2_25" d="M.28222657 .53515627C.31933595 .53515627 .355306 .52644857 .39013673 .5090332 .42496745 .49161784 .4514974 .4690806 .46972657 .4414215 .4873047 .41505433 .49902345 .3842977 .5048828 .3491516 .5100911 .32506309 .5126953 .28647868 .5126953 .23339844H.12939453C.13102214 .18033855 .14355469 .13777669 .16699219 .10571289 .19042969 .073649089 .22672527 .057617189 .2758789 .057617189 .32177735 .057617189 .35839845 .07261658 .3857422 .10261536 .4013672 .12003072 .4124349 .14018758 .4189453 .16308594H.5053711C.50309249 .14398194 .49552409 .122690837 .48266603 .09921265 .46980796 .07574463 .45540367 .05656433 .43945313 .041671754 .4127604 .01576233 .37972007-.0017242432 .34033204-.010787964 .3191732-.01596578 .2952474-.018554688 .2685547-.018554688 .20345052-.018554688 .14827474 .0051472985 .103027347 .05255127 .05777995 .09995524 .03515625 .16634114 .03515625 .25170899 .03515625 .33576457 .057942708 .40401713 .103515628 .45646668 .14908855 .5089264 .20865886 .53515627 .28222657 .53515627M.42236329 .30371095C.41878257 .34191896 .41048179 .37245179 .39746095 .39530946 .3733724 .4377594 .33317057 .45898438 .27685548 .45898438 .23649089 .45898438 .20263672 .44437156 .17529297 .41514588 .14794922 .3859202 .13346355 .34877525 .13183594 .30371095H.42236329M.27392579 .5361328V.5361328Z"/>
<path id="font_2_2" d="M.29589845 .7294922C.24479167 .6301575 .21158855 .55703738 .19628906 .51013186 .17317708 .43881227 .1616211 .3564148 .1616211 .26293946 .1616211 .16848755 .17480469 .08217875 .20117188 .0040130617 .21744792-.044184369 .24951172-.11355591 .29736329-.20410156H.23828125C.1907552-.12984212 .16129558-.08245341 .14990235-.061935426 .13850911-.04141744 .12613933-.013570149 .11279297 .021606446 .094563808 .06980387 .08186849 .1212616 .07470703 .17597962 .071126308 .2043101 .06933594 .23134358 .06933594 .25708009 .06933594 .3534851 .084472659 .43930564 .114746097 .5145416 .13395183 .5624135 .17399089 .6340637 .23486328 .7294922H.29589845Z"/>
<path id="font_2_15" d="M.44433595 .2939453 .33544923 .61120608 .21972656 .2939453H.44433595M.28466798 .71777346H.39453126L.65478518 0H.54833987L.47558595 .21484375H.19189453L.11425781 0H.0146484379L.28466798 .71777346M.33496095 .71777346V.71777346Z"/>
<path id="font_2_3" d="M.03466797-.20410156C.08642578-.103139247 .119791667-.029530844 .13476563 .016723633 .15755208 .08674113 .16894531 .16881307 .16894531 .26293946 .16894531 .35706584 .15576172 .44321189 .12939453 .52137759 .11311849 .569575 .08105469 .63894656 .033203126 .7294922H.092285159C.14241536 .64937338 .17277019 .59995016 .18334961 .58122256 .19392903 .56249496 .20540364 .5366821 .21777344 .5037842 .23339844 .46307374 .24454753 .42285157 .2512207 .38311769 .2578939 .3433838 .26123048 .30511476 .26123048 .26831056 .26123048 .17190552 .24593099 .08592224 .21533203 .010360718 .1961263-.03816223 .15625-.10964966 .095703128-.20410156H.03466797Z"/>
<path id="font_2_5" d="M.08544922 .10644531H.1875V0H.08544922V.10644531Z"/>
<path id="font_2_6" d="M.2705078 .7001953C.3610026 .7001953 .42643229 .66289779 .46679688 .5883026 .49804688 .5306447 .5136719 .45165 .5136719 .35131837 .5136719 .25620524 .49951173 .17754109 .4711914 .11532593 .43017579 .026072184 .3631185-.018554688 .27001954-.018554688 .18603516-.018554688 .123535159 .017929078 .08251953 .09089661 .048339845 .15180969 .03125 .23357137 .03125 .33618165 .03125 .41565959 .041503908 .48390199 .06201172 .5409088 .10042318 .6470998 .16992188 .7001953 .2705078 .7001953M.26953126 .061523439C.31510417 .061523439 .35139976 .08168539 .37841798 .12200928 .4054362 .16234334 .4189453 .23747762 .4189453 .3474121 .4189453 .42676798 .4091797 .49205528 .38964845 .5432739 .3701172 .59450277 .332194 .6201172 .2758789 .6201172 .2241211 .6201172 .1862793 .59580489 .16235352 .5471802 .13842774 .4985555 .12646485 .42692057 .12646485 .3322754 .12646485 .26105754 .13411458 .20381673 .14941406 .16055298 .17285156 .09453329 .21289063 .061523439 .26953126 .061523439Z"/>
<path id="font_2_14" d="M.110839847 .51660159H.21289063V.41015626H.110839847V.51660159M.110839847 .10644531H.21289063V0H.110839847V.10644531Z"/>
<path id="font_2_7" d="M.095703128 .4951172V.5625C.15917969 .5686849 .20345052 .5790202 .22851563 .59350588 .25358073 .6079915 .2722982 .6422526 .28466798 .69628909H.3540039V0H.2602539V.4951172H.095703128Z"/>
<path id="font_2_4" d="M.041503908 .32421876H.2866211V.23339844H.041503908V.32421876Z"/>
<path id="font_2_30" d="M.064453128 .5234375H.14794922V.44921876C.1726888 .47981773 .19889324 .50179037 .2265625 .5151367 .25423179 .5284831 .2849935 .53515627 .31884767 .53515627 .3930664 .53515627 .44319663 .5092519 .46923829 .45744325 .4835612 .42910258 .49072267 .38853965 .49072267 .3357544V0H.4013672V.3299408C.4013672 .36188255 .39664714 .38762919 .38720704 .4071808 .37158204 .4397634 .34326173 .4560547 .3022461 .4560547 .28141276 .4560547 .2643229 .4539388 .25097657 .44970704 .22688802 .4425354 .20572917 .42819724 .1875 .4066925 .17285156 .38941957 .16333008 .37157694 .15893555 .35316468 .15454102 .3347524 .15234375 .30844117 .15234375 .27423097V0H.064453128V.5234375M.2709961 .5361328V.5361328Z"/>
<path id="font_2_1" d="M0 0Z"/>
<path id="font_2_29" d="M.064453128 .5234375H.15136719V.44921876C.17220052 .4749349 .19108074 .49365235 .20800781 .5053711 .23697917 .52522787 .26985679 .53515627 .30664063 .53515627 .34830729 .53515627 .38183595 .52490237 .40722657 .50439456 .42154948 .49267579 .4345703 .4754232 .44628907 .45263673 .4658203 .4806315 .48876954 .5013835 .5151367 .5148926 .5415039 .5284017 .5711263 .53515627 .6040039 .53515627 .6743164 .53515627 .72216799 .5097402 .7475586 .45890809 .76123049 .43154399 .7680664 .3947296 .7680664 .34846498V0H.6767578V.36367799C.6767578 .39853923 .6680501 .42248536 .65063479 .43551637 .6332194 .44855754 .6119792 .45507813 .58691409 .45507813 .5524089 .45507813 .5227051 .44350688 .49780274 .42036439 .4729004 .39723207 .46044923 .35861717 .46044923 .30451966V0H.37109376V.3416748C.37109376 .37719728 .36686198 .4031016 .35839845 .41938783 .3450521 .4438324 .32014976 .4560547 .2836914 .4560547 .25048829 .4560547 .22029622 .44318138 .19311524 .4174347 .16593425 .3916982 .15234375 .34510295 .15234375 .27764894V0H.064453128V.5234375Z"/>
<path id="font_2_31" d="M.27197267 .057617189C.33024089 .057617189 .37019859 .07964579 .3918457 .123703 .41349284 .16776021 .4243164 .21677144 .4243164 .2707367 .4243164 .31950379 .4165039 .35917155 .4008789 .38974 .3761393 .43785606 .3334961 .46191407 .27294923 .46191407 .21923828 .46191407 .18017578 .44143168 .15576172 .40046693 .13134766 .35950218 .119140628 .31008403 .119140628 .25221253 .119140628 .1966095 .13134766 .15027364 .15576172 .113204959 .18017578 .076146449 .21891277 .057617189 .27197267 .057617189M.27539063 .53808596C.34277345 .53808596 .3997396 .5156453 .44628907 .47076417 .49283854 .42588298 .5161133 .35985819 .5161133 .27268983 .5161133 .1884613 .49560548 .11886088 .45458985 .06388855 .41357423 .008926392 .3499349-.018554688 .26367188-.018554688 .19173177-.018554688 .13460286 .00575765 .092285159 .054382326 .04996745 .103006999 .028808594 .16829936 .028808594 .2502594 .028808594 .33806864 .05110677 .4079895 .095703128 .46002198 .14029949 .51206466 .20019531 .53808596 .27539063 .53808596M.27246095 .5361328V.5361328Z"/>
<path id="font_2_21" d="M.1328125 .71777346 .3388672 .10652161 .54248049 .71777346H.6513672L.38964845 0H.2866211L.025390625 .71777346H.1328125Z"/>
<path id="font_2_35" d="M.08203125 .66796877H.17089844V.5234375H.25439454V.4501953H.17089844V.110183719C.17089844 .09202576 .17708333 .07986959 .18945313 .07371521 .19628906 .07014465 .2076823 .068359378 .22363281 .068359378 .22786458 .068359378 .23242188 .06846619 .23730469 .06867981 .2421875 .0689036 .24788411 .06944784 .25439454 .0703125V0C.24430339-.0031026204 .23380535-.005340576 .22290039-.006713867 .21199544-.008097331 .20019531-.0087890629 .1875-.0087890629 .14648438-.0087890629 .118652347 .0016988119 .104003909 .02267456 .08935547 .04365031 .08203125 .070882167 .08203125 .10437012V.4501953H.011230469V.5234375H.08203125V.66796877Z"/>
<path id="font_2_36" d="M.15234375 .5234375V.17590332C.15234375 .1491801 .15657552 .12734477 .16503906 .11039734 .18066406 .07911682 .20979817 .06347656 .2524414 .06347656 .3136393 .06347656 .355306 .09085083 .3774414 .14559937 .3894857 .17492676 .3955078 .21516927 .3955078 .2663269V.5234375H.48339845V0H.40039063L.4013672 .0771637C.38997398 .057195028 .3758138 .040339155 .35888673 .02659607 .32535807-.00090026858 .28466798-.0146484379 .2368164-.0146484379 .16227214-.0146484379 .11149088 .010299683 .084472659 .060195924 .06982422 .08693949 .0625 .12265015 .0625 .16732788V.5234375H.15234375M.27294923 .5361328V.5361328Z"/>
<path id="font_2_16" d="M.37841798 .7373047C.46923829 .7373047 .53971359 .71332809 .58984377 .66537478 .63997396 .61742147 .66780599 .5629476 .67333987 .5019531H.5786133C.5678711 .54817709 .5464681 .58479818 .5144043 .6118164 .48234049 .63883468 .43733726 .65234377 .37939454 .65234377 .3087565 .65234377 .25170899 .62754318 .20825196 .5779419 .16479492 .52834066 .1430664 .45231629 .1430664 .34986878 .1430664 .26594544 .16267903 .19788106 .2019043 .14567566 .24112956 .09348043 .29964195 .06738281 .3774414 .06738281 .449056 .06738281 .50358077 .094823207 .5410156 .14970398 .5608724 .17860413 .5756836 .21659343 .5854492 .26367188H.6801758C.6717122 .18815105 .64371749 .12483724 .5961914 .07373047 .5392253 .012207031 .46240235-.018554688 .36572267-.018554688 .2823893-.018554688 .21240235 .006688436 .15576172 .057174684 .081217449 .12394714 .043945314 .2270406 .043945314 .36645509 .043945314 .47232057 .0719401 .5591278 .12792969 .62687686 .18847656 .7004954 .27197267 .7373047 .37841798 .7373047M.35888673 .7373047V.7373047Z"/>
<path id="font_2_8" d="M.03125 0C.034505208 .060221357 .04695638 .11263021 .068603519 .15722656 .09025065 .20182292 .13248699 .24235027 .1953125 .2788086L.2890625 .3330078C.3310547 .35742188 .3605143 .3782908 .3774414 .39561463 .40413413 .4227346 .41748048 .45377604 .41748048 .488739 .41748048 .52959188 .40527345 .562027 .38085938 .5860443 .3564453 .61006167 .32389323 .6220703 .28320313 .6220703 .22298177 .6220703 .18131511 .5991516 .15820313 .5533142 .14583333 .52875778 .13899739 .4947103 .13769531 .45117188H.048339845C.049316408 .5121663 .060546876 .5619049 .08203125 .6003876 .12011719 .66822817 .18733724 .70214846 .2836914 .70214846 .36376954 .70214846 .4222819 .68047079 .45922853 .6371155 .49617515 .5937703 .51464846 .5455373 .51464846 .49241639 .51464846 .4363556 .49495445 .388443 .4555664 .3486786 .43277995 .3255361 .3919271 .29752604 .3330078 .26464845L.26611329 .22753906C.23421224 .20996094 .20914714 .19319661 .19091797 .1772461 .15836589 .14892578 .13785808 .11751302 .12939453 .08300781H.51123049V0H.03125Z"/>
<path id="font_2_9" d="M.25976563-.018554688C.17708333-.018554688 .11710612 .004196167 .079833988 .049697877 .042561849 .095209758 .023925782 .15058391 .023925782 .21582031H.115722659C.119628909 .1704305 .12809246 .13744609 .14111328 .116867069 .16389974 .07997131 .20507813 .061523439 .26464845 .061523439 .3108724 .061523439 .34798179 .07389323 .37597657 .09863281 .40397135 .1233724 .41796876 .15527344 .41796876 .19433594 .41796876 .24251302 .40323893 .27620445 .3737793 .29541017 .34431968 .31461589 .3033854 .32421876 .25097657 .32421876 .24511719 .32421876 .23917644 .32413737 .2331543 .3239746 .22713216 .32381187 .22102864 .32356773 .21484375 .3232422V.4013672C.22395833 .40019737 .23160808 .39941407 .23779297 .39901734 .24397786 .39863078 .25065104 .3984375 .2578125 .3984375 .2906901 .3984375 .31770835 .40363566 .3388672 .41403199 .37597657 .43222047 .39453126 .46470133 .39453126 .5114746 .39453126 .54622396 .38216148 .5730184 .35742188 .5918579 .33268229 .61069747 .3038737 .6201172 .2709961 .6201172 .21240235 .6201172 .171875 .6007131 .14941406 .5619049 .13704427 .5405629 .13004558 .51016238 .12841797 .47070313H.041503908C.041503908 .5225627 .051920576 .5666453 .072753909 .60295107 .108561199 .6677806 .17154949 .7001953 .26171876 .7001953 .3330078 .7001953 .3881836 .6843465 .4272461 .6526489 .4663086 .6209615 .48583985 .5750529 .48583985 .5149231 .48583985 .47201539 .47428385 .4372355 .45117188 .4105835 .43684898 .39401246 .41829429 .38101197 .3955078 .37158204 .43229167 .36149089 .4610189 .34204103 .48168946 .31323243 .50236007 .28442384 .5126953 .2491862 .5126953 .20751953 .5126953 .14078777 .49072267 .08642578 .44677735 .044433595 .40283204 .0024414063 .34049479-.018554688 .25976563-.018554688Z"/>
<path id="font_2_10" d="M.3305664 .24902344V.5639038L.10644531 .24902344H.3305664M.33203126 0V.17089844H.025390625V.25827027L.34570313 .7011719H.41992188V.24902344H.5229492V.17089844H.41992188V0H.33203126Z"/>
<path id="font_2_11" d="M.123535159 .17773438C.12939453 .12740071 .15266927 .09259033 .19335938 .07330322 .2141927 .06349691 .23828125 .05859375 .265625 .05859375 .31770835 .05859375 .35628257 .07524618 .38134767 .108551029 .40641276 .14185588 .4189453 .17875672 .4189453 .21925354 .4189453 .26823426 .40405274 .30611167 .37426759 .33288575 .34448243 .35965983 .3087565 .37304688 .26708985 .37304688 .2368164 .37304688 .21085613 .36714173 .18920899 .35533143 .16756185 .34352113 .14908855 .32696534 .13378906 .30566407L.057617189 .31054688 .110839847 .6875H.4741211V.60253909H.17675781L.14697266 .40863038C.1632487 .42115275 .17871094 .4305471 .19335938 .43681336 .21940105 .44768778 .24951172 .453125 .2836914 .453125 .347819 .453125 .402181 .43236796 .44677735 .39085389 .4913737 .3493398 .5136719 .29671226 .5136719 .23297119 .5136719 .1666158 .49324546 .10810343 .45239259 .057434083 .4115397 .0067749025 .34635417-.018554688 .25683595-.018554688 .1998698-.018554688 .14949544-.0024820965 .10571289 .029663086 .06193034 .06180827 .037434896 .11116537 .032226564 .17773438H.123535159Z"/>
<path id="font_2_12" d="M.29248048 .70214846C.37060548 .70214846 .42504884 .6818288 .45581056 .6411896 .48657228 .6005605 .5019531 .5587056 .5019531 .515625H.41503907C.40983073 .5434163 .40152995 .5651601 .39013673 .5808563 .36897788 .61028549 .33691407 .625 .2939453 .625 .24479167 .625 .20572917 .60224917 .17675781 .55674746 .14778646 .5112559 .13167317 .44611613 .12841797 .36132813 .14860027 .39095054 .17399089 .41308595 .20458985 .42773438 .23258464 .44075523 .26383464 .44726563 .29833985 .44726563 .3569336 .44726563 .40804038 .4285482 .45166017 .39111329 .49527995 .35367839 .51708987 .29785157 .51708987 .22363281 .51708987 .16015625 .49641929 .10392252 .45507813 .05493164 .41373698 .0059407555 .35481773-.018554688 .2783203-.018554688 .21289063-.018554688 .15641277 .0062815349 .10888672 .05595398 .061360677 .1056366 .037597658 .18927002 .037597658 .30685426 .037597658 .39382936 .048177083 .4676107 .06933594 .52819827 .11002604 .64416506 .18440755 .70214846 .29248048 .70214846M.2861328 .059570314C.33235679 .059570314 .36694337 .07511393 .38989259 .10620117 .4128418 .1372884 .4243164 .17399089 .4243164 .2163086 .4243164 .25211589 .4140625 .2862142 .3935547 .31860353 .37304688 .35099284 .33577476 .3671875 .28173829 .3671875 .24397786 .3671875 .21085613 .35465495 .18237305 .32958985 .15388997 .30452476 .13964844 .2667643 .13964844 .2163086 .13964844 .17203777 .15258789 .134847 .1784668 .10473633 .2043457 .07462565 .24023438 .059570314 .2861328 .059570314Z"/>
<path id="font_2_13" d="M.5229492 .6875V.6104126C.5004883 .5888875 .47062174 .55110678 .4333496 .4970703 .39607749 .44303385 .3631185 .38476563 .33447267 .32226563 .30615235 .26139323 .28466798 .20589192 .27001954 .15576172 .26057945 .123535159 .24837239 .071614589 .23339844 0H.13623047C.15836589 .13335164 .20719402 .26605735 .28271485 .39811708 .3273112 .47553 .3741862 .5423686 .42333985 .5986328H.036621095V.6875H.5229492Z"/>
<path id="font_4_4" d="M.37646485 .171875H.10449219V.21925354L.33251954 .61328127H.41796876V.21289063H.45214845C.4622396 .21289063 .46940104 .21101888 .4736328 .20727539 .4778646 .2035319 .47998048 .1985677 .47998048 .19238281 .47998048 .18652344 .4778646 .18164063 .4736328 .17773438 .46940104 .17382813 .4622396 .171875 .45214845 .171875H.41796876V.041015626H.45214845C.4622396 .041015626 .46940104 .03914388 .4736328 .03540039 .4778646 .031656904 .47998048 .026692709 .47998048 .020507813 .47998048 .0146484379 .4778646 .009765625 .4736328 .005859375 .46940104 .001953125 .4622396 0 .45214845 0H.2998047C.28971354 0 .2825521 .001953125 .2783203 .005859375 .27408854 .009765625 .27197267 .0146484379 .27197267 .020507813 .27197267 .026692709 .27408854 .031656904 .2783203 .03540039 .2825521 .03914388 .28971354 .041015626 .2998047 .041015626H.37646485V.171875M.37646485 .21289063V.5722656H.35498048L.14746094 .21289063H.37646485Z"/>
<path id="font_4_3" d="M.3203125 .62109377V.041015626H.4609375C.47070313 .041015626 .4777018 .03914388 .4819336 .03540039 .48616538 .031656904 .48828126 .026692709 .48828126 .020507813 .48828126 .0146484379 .48616538 .009765625 .4819336 .005859375 .4777018 .001953125 .47070313 0 .4609375 0H.13867188C.12890625 0 .121907558 .001953125 .11767578 .005859375 .11344401 .009765625 .111328128 .0146484379 .111328128 .020507813 .111328128 .026692709 .11344401 .031656904 .11767578 .03540039 .121907558 .03914388 .12890625 .041015626 .13867188 .041015626H.27929688V.5644531L.14550781 .52246096C.13899739 .5205078 .13427735 .51953127 .13134766 .51953127 .12646485 .51953127 .12198893 .52156576 .11791992 .52563479 .113850917 .5297038 .111816409 .5345052 .111816409 .54003909 .111816409 .5449219 .11344401 .5494792 .11669922 .55371096 .11930338 .5563151 .12467448 .55908206 .1328125 .5620117L.3203125 .62109377Z"/>
<path id="font_4_2" d="M.48828126 .3572235V.25556947C.48828126 .16729228 .46728517 .0974172 .42529298 .045944215 .39241538 .005549113 .35091148-.0146484379 .30078126-.0146484379 .27669273-.0146484379 .25398765-.009841919 .23266602-.00022888184 .2113444 .009373982 .19319661 .02281189 .17822266 .04008484 .16878255 .0508372 .15844727 .068099979 .1472168 .09187317 .13598633 .11565653 .12792969 .13748677 .123046878 .15736389 .1155599 .18537903 .111816409 .21811421 .111816409 .25556947V.3572235C.111816409 .4458262 .1328125 .5158641 .17480469 .56733706 .2076823 .6077321 .2491862 .6279297 .2993164 .6279297 .32373048 .6279297 .34651695 .62312319 .36767579 .61351016 .38883464 .6039073 .40690104 .59046939 .421875 .5731964 .43164063 .56211856 .44205729 .5446879 .453125 .52090457 .46419273 .49713136 .47233073 .47546897 .47753907 .45591737 .48470054 .42790223 .48828126 .39500428 .48828126 .3572235M.44726563 .3517151C.44726563 .39048258 .44181315 .42655946 .4309082 .45994569 .42000328 .49334208 .40771485 .519989 .39404298 .5398865 .38590495 .55130007 .37532554 .5611623 .3623047 .56947329 .34375 .58110049 .32291667 .58691409 .2998047 .58691409 .25390626 .58653768 .2179362 .5628662 .19189453 .51589968 .16585286 .46894328 .15283203 .41419984 .15283203 .3516693V.26130677C.15283203 .22254944 .1582845 .18639629 .16918946 .15284729 .1800944 .11930847 .19254558 .09261068 .20654297 .072753909 .21435547 .0616862 .22477214 .052083333 .23779297 .043945314 .25634767 .032226564 .27734376 .026367188 .30078126 .026367188 .34635417 .026367188 .38216148 .049886068 .40820313 .09692383 .43424479 .1439616 .44726563 .1987559 .44726563 .26130677V.3517151Z"/>
<path id="font_4_1" d="M0 0Z"/>
<path id="font_2_17" d="M.3515625 .08300781C.3844401 .08300781 .41145835 .08642578 .4326172 .09326172 .4703776 .10595703 .50130209 .1303711 .5253906 .1665039 .5445964 .19547527 .55843099 .23258464 .56689456 .27783204 .57177737 .30485026 .57421877 .32991538 .57421877 .35302735 .57421877 .44189454 .55655929 .51090499 .52124026 .5600586 .48592124 .6092122 .42903648 .63378909 .35058595 .63378909H.17822266V.08300781H.3515625M.080566409 .71777346H.37109376C.46972657 .71777346 .54622396 .6827545 .60058596 .6127167 .64908859 .54952499 .67333987 .46857707 .67333987 .36987306 .67333987 .2936503 .6590169 .22475688 .6303711 .16319275 .57991537 .054397584 .49316407 0 .3701172 0H.080566409V.71777346Z"/>
<path id="font_2_37" d="M.10498047 .5234375 .2055664 .110946658 .3076172 .5234375H.40625L.50878909 .11338806 .61572268 .5234375H.7036133L.5517578 0H.46044923L.3540039 .40516664 .25097657 0H.15966797L.0087890629 .5234375H.10498047Z"/>
<path id="font_2_32" d="M.28515626 .057617189C.32617188 .057617189 .36027018 .07486979 .38745118 .109375 .41463218 .14389038 .42822267 .1954956 .42822267 .26419068 .42822267 .3060608 .42220054 .34204103 .41015626 .37213136 .38736979 .43003337 .34570313 .45898438 .28515626 .45898438 .22428386 .45898438 .18261719 .42840068 .16015625 .36723329 .14811199 .33451844 .14208985 .29297386 .14208985 .24259949 .14208985 .20204163 .14811199 .16753133 .16015625 .1390686 .1829427 .08476766 .22460938 .057617189 .28515626 .057617189M.057617189 .5205078H.1430664V.45162965C.16064453 .47540284 .17985027 .49379985 .2006836 .5068207 .23030599 .5263621 .26513673 .5361328 .30517579 .5361328 .36442057 .5361328 .41471354 .5133667 .4560547 .46783448 .49739585 .42230226 .5180664 .3572693 .5180664 .2727356 .5180664 .1585083 .48828126 .07691447 .42871095 .027954102 .39095054-.0030517579 .34700523-.018554688 .296875-.018554688 .25748698-.018554688 .22444661-.009984334 .1977539 .007156372 .1821289 .016860962 .16471355 .033518476 .14550781 .057128908V-.20898438H.057617189V.5205078Z"/>
<path id="font_5_1" d="M.50634768 .2939453 .46484376 .61083987 .28173829 .2939453H.50634768M.43701173 .71777346H.546875L.65478518 0H.54833987L.5209961 .21484375H.23730469L.11425781 0H.0146484379L.43701173 .71777346Z"/>
<path id="font_5_3" d="M.28222657 .05859375C.32291667 .05859375 .36002604 .076044719 .3935547 .110946658 .42708335 .14585877 .45084635 .19594829 .46484376 .2612152 .47884117 .32713319 .4757487 .37592063 .4555664 .4075775 .43538413 .4392446 .4054362 .45507813 .36572267 .45507813 .3214518 .45507813 .28198243 .43819175 .24731446 .40441896 .21264649 .37064616 .1883138 .32096354 .1743164 .2553711 .16227214 .19952393 .16414388 .15276592 .17993164 .115097049 .1957194 .077428188 .2298177 .05859375 .28222657 .05859375M.46044923 .50683596C.4741211 .4970703 .48828126 .47998048 .5029297 .4555664L.55908206 .71972659H.6435547L.49072267 0H.4116211L.4267578 .072753909C.39941407 .040527345 .37019859 .017252604 .33911134 .0029296876 .30802409-.0113932299 .27441407-.018554688 .23828125-.018554688 .18001302-.018554688 .13476563 .0059407555 .10253906 .05493164 .0703125 .10392252 .06298828 .16910808 .080566409 .25048829 .09651693 .32666017 .12988281 .39265953 .18066406 .44848634 .23144531 .5043132 .29296876 .53222659 .36523438 .53222659 .40527345 .53222659 .43701173 .523763 .46044923 .50683596Z"/>
<path id="font_5_9" d="M.17773438 .5234375H.26123048L.2421875 .43301393C.25260417 .4506124 .2738444 .47203575 .3059082 .49728395 .33797203 .52253219 .37141929 .53515627 .40625 .53515627 .4078776 .53515627 .41064454 .5349579 .41455079 .53456118 .41845704 .5341746 .42496745 .5333964 .43408204 .53222659L.41455079 .4399414C.40934245 .44091798 .4046224 .441569 .40039063 .44189454 .39615885 .44222007 .3914388 .4423828 .38623048 .4423828 .34195964 .4423828 .30493165 .428126 .27514649 .39961244 .24536133 .37109886 .22639974 .338267 .21826172 .30111695L.15478516 0H.06689453L.17773438 .5234375Z"/>
<path id="font_5_4" d="M.5629883 .44125367C.57503256 .4148458 .5802409 .3840332 .5786133 .34881593 .5789388 .32468669 .57340499 .2862142 .5620117 .23339844H.17871094C.16894531 .18033855 .17244466 .13777669 .18920899 .10571289 .20597331 .073649089 .2389323 .057617189 .28808595 .057617189 .33398438 .057617189 .3736979 .072779338 .40722657 .10310364 .4267578 .12070211 .44222007 .14107768 .45361329 .16423035H.54003909C.5335286 .14500427 .521403 .12358093 .5036621 .09996033 .48592124 .07633972 .4674479 .057037355 .4482422 .042053224 .41601563 .015981039 .37923179-.0016174316 .33789063-.0107421879 .3154297-.015950522 .29085288-.018554688 .26416017-.018554688 .19905599-.018554688 .14892578 .0051472985 .11376953 .05255127 .07861328 .09995524 .07014974 .16634114 .088378909 .25170899 .106282558 .33576457 .14355469 .40401713 .20019531 .45646668 .25683595 .5089264 .3219401 .53515627 .3955078 .53515627 .4326172 .53515627 .46679688 .5264333 .49804688 .5089874 .5292969 .49154154 .55094406 .46896363 .5629883 .44125367M.48632813 .30371095C.4908854 .3416748 .48909507 .37201438 .48095704 .3947296 .46598307 .43691508 .43033854 .4580078 .37402345 .4580078 .33365885 .4580078 .29671226 .44348655 .2631836 .41444398 .22965496 .3854014 .20719402 .3484904 .19580078 .30371095H.48632813Z"/>
<path id="font_5_10" d="M.15136719 .1640625C.14778646 .13463338 .15039063 .11207072 .15917969 .09637451 .1751302 .06793213 .21044922 .053710939 .26513673 .053710939 .2976888 .053710939 .32788087 .060806276 .3557129 .07499695 .38354493 .08918762 .40055339 .11112467 .40673829 .1408081 .4116211 .16330974 .40527345 .1804301 .3876953 .19216919 .3766276 .199351 .35335288 .20767212 .3178711 .21713257L.25195313 .23474121C.20963542 .24582927 .17936199 .2582245 .16113281 .27192689 .1282552 .29574076 .116373699 .32868449 .12548828 .37075807 .13590496 .42033897 .16219075 .46045939 .2043457 .49111939 .24650066 .52177938 .2976888 .5371094 .35791017 .5371094 .4366862 .5371094 .48860679 .5139974 .5136719 .46777345 .5292969 .43847657 .5332031 .40690104 .5253906 .37304688H.4423828C.44498698 .39290367 .44173179 .41097007 .4326172 .4272461 .41731773 .45035807 .38476563 .46191407 .33496095 .46191407 .3017578 .46191407 .27530924 .45555116 .25561524 .44282533 .23592122 .43010966 .22379558 .41331483 .21923828 .3924408 .21435547 .36960349 .22167969 .3513387 .24121094 .33764649 .25260417 .32948814 .27034507 .3223114 .2944336 .31611634L.34960938 .30192567C.40950523 .28659568 .44873048 .27175395 .46728517 .2574005 .49658204 .23488872 .50602218 .19949849 .49560548 .15122986 .48583985 .10458883 .4597168 .064305629 .41723634 .030380249 .37475587-.0035451253 .3173828-.020507813 .24511719-.020507813 .1673177-.020507813 .1159668-.002802531 .09106445 .032608034 .06616211 .06801859 .05810547 .111836757 .06689453 .1640625H.15136719Z"/>
<path id="font_6_1" d="M0 0Z"/>
<path id="font_5_11" d="M.2241211 .6689453H.31298829L.28173829 .5234375H.36523438L.35009767 .45117188H.26660157L.19384766 .10948181C.1899414 .0912323 .19352214 .07901001 .20458985 .07281494 .21077474 .069234218 .22184246 .06744385 .23779297 .06744385 .24202474 .06744385 .24658203 .06752523 .25146485 .06768799 .25634767 .067850749 .26220704 .06825765 .26904298 .06890869L.25439454-.00048828127C.24365235-.0034179688 .23266602-.005533854 .22143555-.0068359377 .21020508-.0081380209 .19824219-.0087890629 .18554688-.0087890629 .14453125-.0087890629 .118896488 .0017191569 .10864258 .022735596 .09838867 .043752035 .096842449 .07104492 .104003909 .10461426L.17773438 .45117188H.106933597L.12207031 .5234375H.1928711L.2241211 .6689453Z"/>
<path id="font_5_2" d="M.23730469 .057617189C.26822917 .057617189 .2998047 .06476847 .33203126 .079071048 .3857422 .10281372 .41845704 .14166768 .43017579 .19563294L.44482423 .26635743C.43277995 .25953166 .417806 .25384013 .39990235 .24928284 .3819987 .24473572 .3647461 .2414856 .34814454 .23953247L.29345704 .23271179C.26057945 .22848003 .2351888 .22181194 .21728516 .21270752 .18701172 .19742839 .16829427 .17304485 .16113281 .13955689 .15559896 .11419678 .16056316 .09419759 .17602539 .079559329 .19148763 .064931239 .21191406 .057617189 .23730469 .057617189M.4116211 .31723023C.43245445 .31984458 .44791667 .32831828 .4580078 .34265138 .46354167 .35047404 .46777345 .3617147 .47070313 .3763733 .47721354 .40635173 .4711914 .4281006 .45263673 .44161988 .43408204 .45514933 .4049479 .46191407 .36523438 .46191407 .31933595 .46191407 .2841797 .44954429 .25976563 .4248047 .24609375 .4111328 .23486328 .39078776 .22607422 .36376954H.14404297C.15934246 .42822267 .18977864 .47306315 .23535156 .49829103 .28092448 .52351889 .33024089 .5361328 .38330079 .5361328 .44482423 .5361328 .4921875 .52441409 .5253906 .50097659 .55859377 .47753907 .569987 .44108073 .5595703 .39160157L.49560548 .09033203C.49365235 .081217449 .49389649 .07389323 .4963379 .068359378 .4987793 .06282552 .50602218 .060058595 .5180664 .060058595 .52197268 .060058595 .52644857 .060343427 .53149417 .060913087 .53653976 .061482748 .5419922 .06233724 .54785159 .06347656L.5336914-.0027618409C.51936849-.0067392985 .5085449-.009226481 .5012207-.010223389 .49389649-.011220296 .48404948-.01171875 .4716797-.01171875 .44140626-.01171875 .42171226-.00090026858 .41259767 .020736695 .40771485 .032211305 .40608726 .04843648 .40771485 .06941223 .38460288 .045954389 .3544922 .02558899 .3173828 .00831604 .28027345-.008946736 .24153646-.017578125 .20117188-.017578125 .15266927-.017578125 .116129558-.0028330486 .091552738 .026657105 .066975917 .05614726 .05940755 .093048099 .068847659 .13735962 .07926432 .18591309 .10245768 .22355144 .13842774 .25027467 .17439778 .2769979 .21761067 .29345194 .2680664 .29963685L.4116211 .31723023Z"/>
<path id="font_5_7" d="M.17529297 .5234375H.25878907L.24316406 .44914247C.27441407 .47977195 .30525718 .50176498 .33569337 .51512148 .36612956 .52847799 .39827476 .53515627 .4321289 .53515627 .50634768 .53515627 .55094406 .5092519 .56591799 .45744325 .57438156 .42910258 .5730794 .38853965 .5620117 .3357544L.49072267 0H.4013672L.4711914 .3299408C.47802735 .36188255 .47884117 .38762919 .4736328 .4071808 .46484376 .4397634 .4399414 .4560547 .39892579 .4560547 .37809245 .4560547 .3605143 .4539388 .3461914 .44970704 .32047526 .4425354 .29622398 .42819724 .2734375 .4066925 .25520835 .38941957 .24194336 .37157694 .23364258 .35316468 .2253418 .3347524 .21761067 .30843608 .21044922 .2742157L.15234375 0H.064453128L.17529297 .5234375Z"/>
<path id="font_5_6" d="M.21923828 .71777346H.3071289L.15478516 0H.06689453L.21923828 .71777346Z"/>
<path id="font_5_5" d="M.17480469 .5205078H.26416017L.1538086 0H.064453128L.17480469 .5205078M.21679688 .71777346H.30615235L.28466798 .61816409H.1953125L.21679688 .71777346Z"/>
<path id="font_5_8" d="M.4814453 .26976014C.49186198 .31852723 .49251304 .35819499 .48339845 .38876344 .46875 .4368795 .43115235 .4609375 .37060548 .4609375 .31689454 .4609375 .2735189 .4404551 .24047852 .39949037 .20743816 .3585256 .18473308 .30910746 .17236328 .25123597 .16064453 .19563294 .16300456 .14929708 .17944336 .11222839 .19588216 .07516988 .23063152 .056640626 .2836914 .056640626 .34195964 .056640626 .38663737 .07866923 .4177246 .12272644 .44881187 .16678365 .4700521 .21579488 .4814453 .26976014M.57373049 .27223207C.55582687 .18784078 .5205078 .1181132 .46777345 .06304932 .41503907 .0079956059 .34554038-.01953125 .25927735-.01953125 .18733724-.01953125 .13541667 .0048217775 .103515628 .053527833 .071614589 .10223389 .06429037 .16763814 .08154297 .2497406 .10042318 .33771263 .13769531 .40776063 .19335938 .45988465 .24902344 .51201888 .31445313 .53808596 .38964845 .53808596 .45703126 .53808596 .509196 .5156047 .5461426 .4706421 .5830892 .42567954 .59228518 .35954286 .57373049 .27223207Z"/>
</defs>
<g clip-path="url(#clip_0)">
<g clip-path="url(#clip_1)">
<path transform="matrix(1,0,0,-1,0,540)" d="M0 539.9999H719.9999V.00003079383H0Z" fill="#ffffff" fill-rule="evenodd"/>
<path transform="matrix(.00007874014,0,0,.00007874014,213.875,71.75009)" stroke-width="12700" stroke-linecap="butt" stroke-miterlimit="8" stroke-linejoin="miter" fill="none" stroke="#000000" d="M-.1384887-.1394042H1066800V533399.9H-.1384887Z"/>
<use data-text="M" xlink:href="#font_2_18" transform="matrix(16,0,0,-16,237.075,99.150089)"/>
<use data-text="M" xlink:href="#font_2_18" transform="matrix(16,0,0,-16,250.403,99.150089)"/>
<use data-text="U" xlink:href="#font_2_20" transform="matrix(16,0,0,-16,263.731,99.150089)"/>
<use data-text="&#xfffd;" xlink:href="#font_3_1" transform="matrix(16,0,0,-16,275.2862,99.150089)"/>
<path transform="matrix(.00007874014,0,0,-.00007874014,297.875,98.00009)" stroke-width="38100" stroke-linecap="butt" stroke-linejoin="round" fill="none" stroke="#000000" d="M-.1682129 .08813465H1714500"/>
<path transform="matrix(1,0,0,-1,0,540)" d="M426.875 437.4999 435.875 441.9999 426.875 446.4999Z" fill-rule="evenodd"/>
<use data-text="P" xlink:href="#font_2_19" transform="matrix(16,0,0,-16,332.45,51.700014)"/>
<use data-text="h" xlink:href="#font_2_26" transform="matrix(16,0,0,-16,343.122,51.700014)"/>
<use data-text="y" xlink:href="#font_2_38" transform="matrix(16,0,0,-16,352.0212,51.700014)"/>
<use data-text="s" xlink:href="#font_2_34" transform="matrix(16,0,0,-16,360.0212,51.700014)"/>
<use data-text="i" xlink:href="#font_2_27" transform="matrix(16,0,0,-16,368.0212,51.700014)"/>
<use data-text="c" xlink:href="#font_2_23" transform="matrix(16,0,0,-16,371.57643,51.700014)"/>
<use data-text="a" xlink:href="#font_2_22" transform="matrix(16,0,0,-16,379.57643,51.700014)"/>
<use data-text="l" xlink:href="#font_2_28" transform="matrix(16,0,0,-16,388.47563,51.700014)"/>
<use data-text="&#xfffd;" xlink:href="#font_3_1" transform="matrix(16,0,0,-16,392.03083,51.700014)"/>
<use data-text="a" xlink:href="#font_2_22" transform="matrix(16,0,0,-16,333.45,70.70001)"/>
<use data-text="d" xlink:href="#font_2_24" transform="matrix(16,0,0,-16,342.3492,70.70001)"/>
<use data-text="d" xlink:href="#font_2_24" transform="matrix(16,0,0,-16,351.2484,70.70001)"/>
<use data-text="r" xlink:href="#font_2_33" transform="matrix(16,0,0,-16,360.1476,70.70001)"/>
<use data-text="e" xlink:href="#font_2_25" transform="matrix(16,0,0,-16,365.47563,70.70001)"/>
<use data-text="s" xlink:href="#font_2_34" transform="matrix(16,0,0,-16,374.37483,70.70001)"/>
<use data-text="s" xlink:href="#font_2_34" transform="matrix(16,0,0,-16,382.37483,70.70001)"/>
<use data-text="&#xfffd;" xlink:href="#font_3_1" transform="matrix(16,0,0,-16,390.37483,70.70001)"/>
<use data-text="(" xlink:href="#font_2_2" transform="matrix(16,0,0,-16,346.4499,89.70001)"/>
<use data-text="P" xlink:href="#font_2_19" transform="matrix(16,0,0,-16,351.7779,89.70001)"/>
<use data-text="A" xlink:href="#font_2_15" transform="matrix(16,0,0,-16,361.2707,89.70001)"/>
<use data-text=")" xlink:href="#font_2_3" transform="matrix(16,0,0,-16,371.9427,89.70001)"/>
<use data-text="&#xfffd;" xlink:href="#font_3_1" transform="matrix(16,0,0,-16,377.2707,89.70001)"/>
<path transform="matrix(1,0,0,-1,0,540)" d="M466.875 355H538.8749V337H466.875Z" fill="#ffffff" fill-rule="evenodd"/>
<use data-text="." xlink:href="#font_2_5" transform="matrix(0,20,20,0,497.87489,185.5)"/>
<use data-text="." xlink:href="#font_2_5" transform="matrix(0,20,20,0,497.87489,191.056)"/>
<use data-text="." xlink:href="#font_2_5" transform="matrix(0,20,20,0,497.87489,196.612)"/>
<use data-text="&#xfffd;" xlink:href="#font_3_1" transform="matrix(0,20,20,0,497.87489,202.168)"/>
<path transform="matrix(1,0,0,-1,0,540)" d="M459.875 317.75H531.8749V299.75H459.875Z" fill="#ffffff" fill-rule="evenodd"/>
<path transform="matrix(.00007874014,0,0,.00007874014,459.875,222.25)" stroke-width="19050" stroke-linecap="butt" stroke-miterlimit="8" stroke-linejoin="miter" fill="none" stroke="#000000" d="M.01062006 .01696783H914399.8V228600H.01062006Z"/>
<use data-text="0" xlink:href="#font_2_6" transform="matrix(16,0,0,-16,442.9999,37.900114)"/>
<use data-text=":" xlink:href="#font_2_14" transform="matrix(16,0,0,-16,451.8991,37.900114)"/>
<use data-text="&#xfffd;" xlink:href="#font_3_1" transform="matrix(16,0,0,-16,456.3503,37.900114)"/>
<use data-text="1" xlink:href="#font_2_7" transform="matrix(16,0,0,-16,442.9999,55.90008)"/>
<use data-text=":" xlink:href="#font_2_14" transform="matrix(16,0,0,-16,451.8991,55.90008)"/>
<use data-text="&#xfffd;" xlink:href="#font_3_1" transform="matrix(16,0,0,-16,456.3503,55.90008)"/>
<use data-text="M" xlink:href="#font_2_18" transform="matrix(16,0,0,-16,424.5,241.52509)"/>
<use data-text="-" xlink:href="#font_2_4" transform="matrix(16,0,0,-16,437.828,241.52509)"/>
<use data-text="1" xlink:href="#font_2_7" transform="matrix(16,0,0,-16,443.156,241.52509)"/>
<use data-text=":" xlink:href="#font_2_14" transform="matrix(16,0,0,-16,452.0552,241.52509)"/>
<use data-text="&#xfffd;" xlink:href="#font_3_1" transform="matrix(16,0,0,-16,456.5,241.52509)"/>
<use data-text="M" xlink:href="#font_2_18" transform="matrix(16,0,0,-16,448.9999,13.52499)"/>
<use data-text="a" xlink:href="#font_2_22" transform="matrix(16,0,0,-16,462.3279,13.52499)"/>
<use data-text="i" xlink:href="#font_2_27" transform="matrix(16,0,0,-16,471.2271,13.52499)"/>
<use data-text="n" xlink:href="#font_2_30" transform="matrix(16,0,0,-16,474.78233,13.52499)"/>
<use data-text=" " xlink:href="#font_2_1" transform="matrix(16,0,0,-16,483.68153,13.52499)"/>
<use data-text="m" xlink:href="#font_2_29" transform="matrix(16,0,0,-16,488.1263,13.52499)"/>
<use data-text="e" xlink:href="#font_2_25" transform="matrix(16,0,0,-16,501.4543,13.52499)"/>
<use data-text="m" xlink:href="#font_2_29" transform="matrix(16,0,0,-16,510.35353,13.52499)"/>
<use data-text="o" xlink:href="#font_2_31" transform="matrix(16,0,0,-16,523.6815,13.52499)"/>
<use data-text="r" xlink:href="#font_2_33" transform="matrix(16,0,0,-16,532.5807,13.52499)"/>
<use data-text="y" xlink:href="#font_2_38" transform="matrix(16,0,0,-16,537.9087,13.52499)"/>
<use data-text="&#xfffd;" xlink:href="#font_3_1" transform="matrix(16,0,0,-16,545.9087,13.52499)"/>
<path transform="matrix(.00007874014,0,0,-.00007874014,99.87503,97.5)" stroke-width="38100" stroke-linecap="butt" stroke-linejoin="round" fill="none" stroke="#000000" d="M-.04235834-.02331549H1333500"/>
<path transform="matrix(1,0,0,-1,0,540)" d="M198.875 438 207.875 442.5 198.875 447Z" fill-rule="evenodd"/>
<use data-text="V" xlink:href="#font_2_21" transform="matrix(16,0,0,-16,130.7,51.700014)"/>
<use data-text="i" xlink:href="#font_2_27" transform="matrix(16,0,0,-16,141.0904,51.700014)"/>
<use data-text="r" xlink:href="#font_2_33" transform="matrix(16,0,0,-16,144.6456,51.700014)"/>
<use data-text="t" xlink:href="#font_2_35" transform="matrix(16,0,0,-16,149.9736,51.700014)"/>
<use data-text="u" xlink:href="#font_2_36" transform="matrix(16,0,0,-16,154.4184,51.700014)"/>
<use data-text="a" xlink:href="#font_2_22" transform="matrix(16,0,0,-16,163.3176,51.700014)"/>
<use data-text="l" xlink:href="#font_2_28" transform="matrix(16,0,0,-16,172.2168,51.700014)"/>
<use data-text="&#xfffd;" xlink:href="#font_3_1" transform="matrix(16,0,0,-16,175.772,51.700014)"/>
<use data-text="a" xlink:href="#font_2_22" transform="matrix(16,0,0,-16,124.7,70.70001)"/>
<use data-text="d" xlink:href="#font_2_24" transform="matrix(16,0,0,-16,133.5992,70.70001)"/>
<use data-text="d" xlink:href="#font_2_24" transform="matrix(16,0,0,-16,142.4984,70.70001)"/>
<use data-text="r" xlink:href="#font_2_33" transform="matrix(16,0,0,-16,151.3976,70.70001)"/>
<use data-text="e" xlink:href="#font_2_25" transform="matrix(16,0,0,-16,156.7256,70.70001)"/>
<use data-text="s" xlink:href="#font_2_34" transform="matrix(16,0,0,-16,165.6248,70.70001)"/>
<use data-text="s" xlink:href="#font_2_34" transform="matrix(16,0,0,-16,173.6248,70.70001)"/>
<use data-text="&#xfffd;" xlink:href="#font_3_1" transform="matrix(16,0,0,-16,181.6248,70.70001)"/>
<use data-text="(" xlink:href="#font_2_2" transform="matrix(16,0,0,-16,137.7,89.70001)"/>
<use data-text="V" xlink:href="#font_2_21" transform="matrix(16,0,0,-16,143.028,89.70001)"/>
<use data-text="A" xlink:href="#font_2_15" transform="matrix(16,0,0,-16,152.5208,89.70001)"/>
<use data-text=")" xlink:href="#font_2_3" transform="matrix(16,0,0,-16,163.1928,89.70001)"/>
<use data-text="&#xfffd;" xlink:href="#font_3_1" transform="matrix(16,0,0,-16,168.5208,89.70001)"/>
<path transform="matrix(.00007874014,0,0,.00007874014,15.87504,73.50009)" stroke-width="12700" stroke-linecap="butt" stroke-miterlimit="8" stroke-linejoin="miter" fill="none" stroke="#000000" d="M.003360821-.1359862H1066800V533399.9H.003360821Z"/>
<use data-text="C" xlink:href="#font_2_16" transform="matrix(16,0,0,-16,41.07504,100.900089)"/>
<use data-text="P" xlink:href="#font_2_19" transform="matrix(16,0,0,-16,52.63024,100.900089)"/>
<use data-text="U" xlink:href="#font_2_20" transform="matrix(16,0,0,-16,63.30224,100.900089)"/>
<use data-text="&#xfffd;" xlink:href="#font_3_1" transform="matrix(16,0,0,-16,74.85744,100.900089)"/>
<path transform="matrix(.00007874014,0,0,-.00007874014,549.8749,128.37509)" stroke-width="38100" stroke-linecap="butt" stroke-linejoin="round" fill="none" stroke="#000000" d="M-.201172 .1412352 457199.9 1.303955"/>
<path transform="matrix(-.00007874014,-0,0,.00007874014,585.8749,128)" stroke-width="38100" stroke-linecap="butt" stroke-linejoin="round" fill="none" stroke="#000000" d="M.1308595 .0828858 .9060061 1638300"/>
<path transform="matrix(-.00007874014,-0,0,.00007874014,585.8749,256)" stroke-width="38100" stroke-linecap="butt" stroke-linejoin="round" fill="none" stroke="#000000" d="M.1308595 .0828858 6705600 6350.084"/>
<path transform="matrix(.00007874014,0,0,-.00007874014,57.87503,258)" stroke-width="38100" stroke-linecap="butt" stroke-linejoin="round" fill="none" stroke="#000000" d="M.0006104112-.08679205V1765300"/>
<path transform="matrix(1,0,0,-1,0,540)" d="M62.37503 415 57.87503 424 53.37503 415Z" fill-rule="evenodd"/>
<use data-text="2" xlink:href="#font_2_8" transform="matrix(16,0,0,-16,442.9999,73.900089)"/>
<use data-text=":" xlink:href="#font_2_14" transform="matrix(16,0,0,-16,451.8991,73.900089)"/>
<use data-text="&#xfffd;" xlink:href="#font_3_1" transform="matrix(16,0,0,-16,456.3503,73.900089)"/>
<use data-text="3" xlink:href="#font_2_9" transform="matrix(16,0,0,-16,442.9999,91.900089)"/>
<use data-text=":" xlink:href="#font_2_14" transform="matrix(16,0,0,-16,451.8991,91.900089)"/>
<use data-text="&#xfffd;" xlink:href="#font_3_1" transform="matrix(16,0,0,-16,456.3503,91.900089)"/>
<path transform="matrix(1,0,0,-1,0,540)" d="M459.875 519.6249H531.8749V501.6249H459.875Z" fill="#ffffff" fill-rule="evenodd"/>
<path transform="matrix(.00007874014,0,0,.00007874014,459.875,20.375123)" stroke-width="19050" stroke-linecap="butt" stroke-miterlimit="8" stroke-linejoin="miter" fill="none" stroke="#000000" d="M.01062006 .03540063H914399.8V228600.1H.01062006Z"/>
<path transform="matrix(1,0,0,-1,0,540)" d="M459.875 501.6249H531.8749V483.6249H459.875Z" fill="#ffffff" fill-rule="evenodd"/>
<path transform="matrix(.00007874014,0,0,.00007874014,459.875,38.37509)" stroke-width="19050" stroke-linecap="butt" stroke-miterlimit="8" stroke-linejoin="miter" fill="none" stroke="#000000" d="M.01062006 .1829836H914399.8V228600.2H.01062006Z"/>
<path transform="matrix(1,0,0,-1,0,540)" d="M459.875 483.6249H531.8749V465.6249H459.875Z" fill="#ffffff" fill-rule="evenodd"/>
<path transform="matrix(.00007874014,0,0,.00007874014,459.875,56.37509)" stroke-width="19050" stroke-linecap="butt" stroke-miterlimit="8" stroke-linejoin="miter" fill="none" stroke="#000000" d="M.01062006 .2181398H914399.8V228600.2H.01062006Z"/>
<path transform="matrix(1,0,0,-1,0,540)" d="M459.875 465.6249H531.8749V447.6249H459.875Z" fill="#ffffff" fill-rule="evenodd"/>
<path transform="matrix(.00007874014,0,0,.00007874014,459.875,74.37509)" stroke-width="19050" stroke-linecap="butt" stroke-miterlimit="8" stroke-linejoin="miter" fill="none" stroke="#000000" d="M.01062006 .2532961H914399.8V228600.3H.01062006Z"/>
<path transform="matrix(1,0,0,-1,0,540)" d="M459.875 447.6249H531.8749V429.6249H459.875Z" fill="#cbcbcb" fill-rule="evenodd"/>
<path transform="matrix(.00007874014,0,0,.00007874014,459.875,92.37509)" stroke-width="19050" stroke-linecap="butt" stroke-miterlimit="8" stroke-linejoin="miter" fill="none" stroke="#000000" d="M.01062006 .2884523H914399.8V228600.3H.01062006Z"/>
<path transform="matrix(1,0,0,-1,0,540)" d="M459.875 429.6249H531.8749V411.6249H459.875Z" fill="#cbcbcb" fill-rule="evenodd"/>
<path transform="matrix(.00007874014,0,0,.00007874014,459.875,110.37509)" stroke-width="19050" stroke-linecap="butt" stroke-miterlimit="8" stroke-linejoin="miter" fill="none" stroke="#000000" d="M.01062006 .3236086H914399.8V228600.4H.01062006Z"/>
<use data-text="4" xlink:href="#font_2_10" transform="matrix(16,0,0,-16,442.9999,109.899997)"/>
<use data-text=":" xlink:href="#font_2_14" transform="matrix(16,0,0,-16,451.8991,109.899997)"/>
<use data-text="&#xfffd;" xlink:href="#font_3_1" transform="matrix(16,0,0,-16,456.3503,109.899997)"/>
<use data-text="5" xlink:href="#font_2_11" transform="matrix(16,0,0,-16,442.9999,127.899997)"/>
<use data-text=":" xlink:href="#font_2_14" transform="matrix(16,0,0,-16,451.8991,127.899997)"/>
<use data-text="&#xfffd;" xlink:href="#font_3_1" transform="matrix(16,0,0,-16,456.3503,127.899997)"/>
<path transform="matrix(1,0,0,-1,0,540)" d="M459.875 411.6249H531.8749V393.6249H459.875Z" fill="#cbcbcb" fill-rule="evenodd"/>
<path transform="matrix(.00007874014,0,0,.00007874014,459.875,128.37509)" stroke-width="19050" stroke-linecap="butt" stroke-miterlimit="8" stroke-linejoin="miter" fill="none" stroke="#000000" d="M.01062006-.1412352H914399.8V228599.9H.01062006Z"/>
<path transform="matrix(1,0,0,-1,0,540)" d="M459.875 393.6249H531.8749V375.6249H459.875Z" fill="#cbcbcb" fill-rule="evenodd"/>
<path transform="matrix(.00007874014,0,0,.00007874014,459.875,146.37509)" stroke-width="19050" stroke-linecap="butt" stroke-miterlimit="8" stroke-linejoin="miter" fill="none" stroke="#000000" d="M.01062006 .006347775H914399.8V228600H.01062006Z"/>
<use data-text="6" xlink:href="#font_2_12" transform="matrix(16,0,0,-16,442.9999,145.9)"/>
<use data-text=":" xlink:href="#font_2_14" transform="matrix(16,0,0,-16,451.8991,145.9)"/>
<use data-text="&#xfffd;" xlink:href="#font_3_1" transform="matrix(16,0,0,-16,456.3503,145.9)"/>
<use data-text="7" xlink:href="#font_2_13" transform="matrix(16,0,0,-16,442.9999,163.9)"/>
<use data-text=":" xlink:href="#font_2_14" transform="matrix(16,0,0,-16,451.8991,163.9)"/>
<use data-text="&#xfffd;" xlink:href="#font_3_1" transform="matrix(16,0,0,-16,456.3503,163.9)"/>
<path transform="matrix(1,0,0,-1,0,540)" d="M459.875 335.3749H531.8749V317.3749H459.875Z" fill="#ffffff" fill-rule="evenodd"/>
<path transform="matrix(.00007874014,0,0,.00007874014,459.875,204.62509)" stroke-width="19050" stroke-linecap="butt" stroke-miterlimit="8" stroke-linejoin="miter" fill="none" stroke="#000000" d="M.01062006 .1201173H914399.8V228600.2H.01062006Z"/>
<use data-text="4" xlink:href="#font_4_4" transform="matrix(16,0,0,-16,135.2,120.650089)"/>
<use data-text="1" xlink:href="#font_4_3" transform="matrix(16,0,0,-16,144.8016,120.650089)"/>
<use data-text="0" xlink:href="#font_4_2" transform="matrix(16,0,0,-16,154.4032,120.650089)"/>
<use data-text="0" xlink:href="#font_4_2" transform="matrix(16,0,0,-16,164.00479,120.650089)"/>
<use data-text=" " xlink:href="#font_4_1" transform="matrix(16,0,0,-16,173.6064,120.650089)"/>
<path transform="matrix(.00007874014,0,0,.00007874014,537.875,92.37509)" stroke-width="12700" stroke-linecap="butt" stroke-linejoin="round" fill="none" stroke="#000000" d="M.05053711 .2884523C21042.18 .2884523 38100.05 34116.04 38100.05 76200.3V381000.3C38100.05 423084.2 55157.93 457200.3 76200.06 457200.3 55157.93 457200.3 38100.05 491316.1 38100.05 533400.4V838200.4C38100.05 880284.3 21042.18 914400.4 .05053711 914400.4"/>
<use data-text="D" xlink:href="#font_2_17" transform="matrix(16,0,0,-16,263.075,276.65)"/>
<use data-text="a" xlink:href="#font_2_22" transform="matrix(16,0,0,-16,274.63023,276.65)"/>
<use data-text="t" xlink:href="#font_2_35" transform="matrix(16,0,0,-16,283.52943,276.65)"/>
<use data-text="a" xlink:href="#font_2_22" transform="matrix(16,0,0,-16,287.9742,276.65)"/>
<use data-text=" " xlink:href="#font_2_1" transform="matrix(16,0,0,-16,296.8734,276.65)"/>
<use data-text="w" xlink:href="#font_2_37" transform="matrix(16,0,0,-16,301.3182,276.65)"/>
<use data-text="o" xlink:href="#font_2_31" transform="matrix(16,0,0,-16,312.8734,276.65)"/>
<use data-text="r" xlink:href="#font_2_33" transform="matrix(16,0,0,-16,321.7726,276.65)"/>
<use data-text="d" xlink:href="#font_2_24" transform="matrix(16,0,0,-16,327.10063,276.65)"/>
<use data-text="&#xfffd;" xlink:href="#font_3_1" transform="matrix(16,0,0,-16,335.99983,276.65)"/>
<use data-text="4" xlink:href="#font_4_4" transform="matrix(16,0,0,-16,358.95,121.150089)"/>
<use data-text=" " xlink:href="#font_4_1" transform="matrix(16,0,0,-16,368.5516,121.150089)"/>
<path transform="matrix(.00007874014,0,0,.00007874014,3.875039,26.000123)" stroke-width="12700" stroke-linecap="butt" stroke-dasharray="50800,38100" stroke-miterlimit="8" stroke-linejoin="miter" fill="none" stroke="#000000" d="M.001118736 .2712404H3886200V1447800H.001118736Z"/>
<use data-text="C" xlink:href="#font_2_16" transform="matrix(16,0,0,-16,1.2,21.650086)"/>
<use data-text="P" xlink:href="#font_2_19" transform="matrix(16,0,0,-16,12.7552,21.650086)"/>
<use data-text="U" xlink:href="#font_2_20" transform="matrix(16,0,0,-16,23.427203,21.650086)"/>
<use data-text=" " xlink:href="#font_2_1" transform="matrix(16,0,0,-16,34.982404,21.650086)"/>
<use data-text="c" xlink:href="#font_2_23" transform="matrix(16,0,0,-16,39.427206,21.650086)"/>
<use data-text="h" xlink:href="#font_2_26" transform="matrix(16,0,0,-16,47.427206,21.650086)"/>
<use data-text="i" xlink:href="#font_2_27" transform="matrix(16,0,0,-16,56.326406,21.650086)"/>
<use data-text="p" xlink:href="#font_2_32" transform="matrix(16,0,0,-16,59.881608,21.650086)"/>
<use data-text="&#xfffd;" xlink:href="#font_3_1" transform="matrix(16,0,0,-16,68.7808,21.650086)"/>
<path transform="matrix(.00007874014,0,0,.00007874014,459.9999,164.5)" stroke-width="19050" stroke-linecap="butt" stroke-miterlimit="8" stroke-linejoin="miter" fill="none" stroke="#000000" d="M.1232909 .1541749H914400.2V228600.2H.1232909Z"/>
<use data-text="A" xlink:href="#font_5_1" transform="matrix(16,0,0,-16,226.45,49.80011)"/>
<use data-text="d" xlink:href="#font_5_3" transform="matrix(16,0,0,-16,237.122,49.80011)"/>
<use data-text="d" xlink:href="#font_5_3" transform="matrix(16,0,0,-16,246.0212,49.80011)"/>
<use data-text="r" xlink:href="#font_5_9" transform="matrix(16,0,0,-16,254.9204,49.80011)"/>
<use data-text="e" xlink:href="#font_5_4" transform="matrix(16,0,0,-16,260.2484,49.80011)"/>
<use data-text="s" xlink:href="#font_5_10" transform="matrix(16,0,0,-16,269.14759,49.80011)"/>
<use data-text="s" xlink:href="#font_5_10" transform="matrix(16,0,0,-16,277.14759,49.80011)"/>
<use data-text="&#xfffd;" xlink:href="#font_6_1" transform="matrix(16,0,0,-16,285.14759,49.80011)"/>
<use data-text="t" xlink:href="#font_5_11" transform="matrix(16,0,0,-16,218.45,68.80011)"/>
<use data-text="r" xlink:href="#font_5_9" transform="matrix(16,0,0,-16,222.89479,68.80011)"/>
<use data-text="a" xlink:href="#font_5_2" transform="matrix(16,0,0,-16,228.2228,68.80011)"/>
<use data-text="n" xlink:href="#font_5_7" transform="matrix(16,0,0,-16,237.122,68.80011)"/>
<use data-text="s" xlink:href="#font_5_10" transform="matrix(16,0,0,-16,246.0212,68.80011)"/>
<use data-text="l" xlink:href="#font_5_6" transform="matrix(16,0,0,-16,254.0212,68.80011)"/>
<use data-text="a" xlink:href="#font_5_2" transform="matrix(16,0,0,-16,257.57643,68.80011)"/>
<use data-text="t" xlink:href="#font_5_11" transform="matrix(16,0,0,-16,266.4756,68.80011)"/>
<use data-text="i" xlink:href="#font_5_5" transform="matrix(16,0,0,-16,270.9204,68.80011)"/>
<use data-text="o" xlink:href="#font_5_8" transform="matrix(16,0,0,-16,274.47563,68.80011)"/>
<use data-text="n" xlink:href="#font_5_7" transform="matrix(16,0,0,-16,283.37483,68.80011)"/>
<use data-text="&#xfffd;" xlink:href="#font_6_1" transform="matrix(16,0,0,-16,292.274,68.80011)"/>
</g>
</g>
</svg>
