<svg xmlns="http://www.w3.org/2000/svg" xmlns:xlink="http://www.w3.org/1999/xlink" version="1.1" width="618.029pt" height="264.647pt" viewBox="0 0 618.029 264.647">
<defs>
<clipPath id="clip_0">
<path transform="matrix(1,0,0,-1,0,540)" d="M0 275.353H618.029V540H0Z" fill-rule="evenodd"/>
</clipPath>
<clipPath id="clip_1">
<path transform="matrix(1,0,0,-1,0,540)" d="M0 .00002324581H719.9999V540H0Z"/>
</clipPath>
<path id="font_2_12" d="M.1328125 .71777346 .3388672 .10652161 .54248049 .71777346H.6513672L.38964845 0H.2866211L.025390625 .71777346H.1328125Z"/>
<path id="font_2_3" d="M.44433595 .2939453 .33544923 .61120608 .21972656 .2939453H.44433595M.28466798 .71777346H.39453126L.65478518 0H.54833987L.47558595 .21484375H.19189453L.11425781 0H.0146484379L.28466798 .71777346M.33496095 .71777346V.71777346Z"/>
<path id="font_3_1" d="M0 0Z"/>
<path id="font_2_9" d="M.08544922 .71777346H.40820313C.47200523 .71777346 .5234375 .6997884 .5625 .66381838 .6015625 .6278483 .62109377 .5773112 .62109377 .51220706 .62109377 .45621745 .6036784 .4074707 .56884768 .3659668 .5340169 .3244629 .48046876 .30371095 .40820313 .30371095H.18261719V0H.08544922V.71777346M.5229492 .5114746C.5229492 .56410726 .50341799 .5998433 .46435548 .61868289 .4428711 .62875369 .41341148 .63378909 .37597657 .63378909H.18261719V.3857422H.37597657C.41959635 .3857422 .45499674 .39499919 .48217774 .41351319 .5093587 .43203736 .5229492 .46469117 .5229492 .5114746Z"/>
<path id="font_2_21" d="M.06689453 .5234375H.15039063V.4326172C.15722656 .4502767 .17399089 .4717814 .2006836 .49713136 .2273763 .52248129 .25813804 .53515627 .29296876 .53515627 .29459635 .53515627 .29736329 .5349579 .30126954 .53456118 .30517579 .5341746 .31184898 .5333964 .32128907 .53222659V.43945313C.31608073 .44062297 .3112793 .44140116 .30688478 .44178773 .30249024 .44218446 .2976888 .4423828 .29248048 .4423828 .24820964 .4423828 .2141927 .4280599 .19042969 .39941407 .16666667 .37076823 .15478516 .33789063 .15478516 .30078126V0H.06689453V.5234375Z"/>
<path id="font_2_19" d="M.27197267 .057617189C.33024089 .057617189 .37019859 .07964579 .3918457 .123703 .41349284 .16776021 .4243164 .21677144 .4243164 .2707367 .4243164 .31950379 .4165039 .35917155 .4008789 .38974 .3761393 .43785606 .3334961 .46191407 .27294923 .46191407 .21923828 .46191407 .18017578 .44143168 .15576172 .40046693 .13134766 .35950218 .119140628 .31008403 .119140628 .25221253 .119140628 .1966095 .13134766 .15027364 .15576172 .113204959 .18017578 .076146449 .21891277 .057617189 .27197267 .057617189M.27539063 .53808596C.34277345 .53808596 .3997396 .5156453 .44628907 .47076417 .49283854 .42588298 .5161133 .35985819 .5161133 .27268983 .5161133 .1884613 .49560548 .11886088 .45458985 .06388855 .41357423 .008926392 .3499349-.018554688 .26367188-.018554688 .19173177-.018554688 .13460286 .00575765 .092285159 .054382326 .04996745 .103006999 .028808594 .16829936 .028808594 .2502594 .028808594 .33806864 .05110677 .4079895 .095703128 .46002198 .14029949 .51206466 .20019531 .53808596 .27539063 .53808596M.27246095 .5361328V.5361328Z"/>
<path id="font_2_14" d="M.26611329 .53808596C.32503257 .53808596 .37296549 .5237274 .4099121 .49501039 .44685874 .46629334 .46907554 .41684977 .4765625 .3466797H.39111329C.38590495 .37890626 .37402345 .40568034 .35546876 .42700196 .33691407 .44832359 .3071289 .45898438 .26611329 .45898438 .2101237 .45898438 .17008464 .43170677 .1459961 .3771515 .1303711 .34176127 .122558597 .29808555 .122558597 .24612427 .122558597 .19384766 .1336263 .14984639 .15576172 .11412048 .17789714 .07840475 .21272786 .060546876 .2602539 .060546876 .29671226 .060546876 .3256022 .0716095 .34692384 .09373474 .36824546 .115859989 .38297526 .1461385 .39111329 .18457031H.4765625C.46679688 .115234378 .4423828 .06453451 .4033203 .032470704 .3642578 .00040690104 .31429038-.015625 .25341798-.015625 .1850586-.015625 .13053386 .009379069 .08984375 .059387208 .049153646 .10940552 .028808594 .17188008 .028808594 .24681092 .028808594 .33868919 .05110677 .41020204 .095703128 .4613495 .14029949 .51250717 .19710286 .53808596 .26611329 .53808596M.2524414 .5361328V.5361328Z"/>
<path id="font_2_15" d="M.28222657 .53515627C.31933595 .53515627 .355306 .52644857 .39013673 .5090332 .42496745 .49161784 .4514974 .4690806 .46972657 .4414215 .4873047 .41505433 .49902345 .3842977 .5048828 .3491516 .5100911 .32506309 .5126953 .28647868 .5126953 .23339844H.12939453C.13102214 .18033855 .14355469 .13777669 .16699219 .10571289 .19042969 .073649089 .22672527 .057617189 .2758789 .057617189 .32177735 .057617189 .35839845 .07261658 .3857422 .10261536 .4013672 .12003072 .4124349 .14018758 .4189453 .16308594H.5053711C.50309249 .14398194 .49552409 .122690837 .48266603 .09921265 .46980796 .07574463 .45540367 .05656433 .43945313 .041671754 .4127604 .01576233 .37972007-.0017242432 .34033204-.010787964 .3191732-.01596578 .2952474-.018554688 .2685547-.018554688 .20345052-.018554688 .14827474 .0051472985 .103027347 .05255127 .05777995 .09995524 .03515625 .16634114 .03515625 .25170899 .03515625 .33576457 .057942708 .40401713 .103515628 .45646668 .14908855 .5089264 .20865886 .53515627 .28222657 .53515627M.42236329 .30371095C.41878257 .34191896 .41048179 .37245179 .39746095 .39530946 .3733724 .4377594 .33317057 .45898438 .27685548 .45898438 .23649089 .45898438 .20263672 .44437156 .17529297 .41514588 .14794922 .3859202 .13346355 .34877525 .13183594 .30371095H.42236329M.27392579 .5361328V.5361328Z"/>
<path id="font_2_22" d="M.11669922 .1640625C.11930338 .13463338 .12662761 .11207072 .13867188 .09637451 .1608073 .06793213 .19921875 .053710939 .25390626 .053710939 .28645835 .053710939 .31510417 .060806276 .33984376 .07499695 .36458335 .08919779 .37695313 .11115011 .37695313 .14085388 .37695313 .16337586 .36702476 .18051148 .34716798 .19226074 .33447267 .19944255 .30940757 .20775859 .27197267 .21720886L.20214844 .2348175C.15755208 .24590557 .12467448 .25829569 .103515628 .27198792 .06575521 .29579164 .046875 .32873027 .046875 .37080384 .046875 .42036439 .064697269 .46046958 .1003418 .49111939 .13598633 .52177938 .18391927 .5371094 .24414063 .5371094 .32291667 .5371094 .37972007 .5139974 .41455079 .46777345 .4363607 .43847657 .4469401 .40690104 .44628907 .37304688H.36328126C.36165367 .39269004 .35465495 .41055808 .34228517 .426651 .32210288 .44950868 .28710938 .4609375 .23730469 .4609375 .20410156 .4609375 .17895508 .45461528 .16186524 .44197084 .14477539 .42933656 .13623047 .41264854 .13623047 .39190675 .13623047 .36922203 .14746094 .35107423 .16992188 .33746339 .1829427 .32936607 .20214844 .32221986 .22753906 .31602479L.28564454 .3018341C.34879557 .28650413 .39111329 .27166749 .41259767 .25732423 .44677735 .23482259 .4638672 .19944255 .4638672 .15118408 .4638672 .10455322 .44620768 .06428019 .41088868 .03036499 .37556968-.0035502117 .32177735-.020507813 .24951172-.020507813 .17171224-.020507813 .116617839-.002802531 .084228519 .032608034 .05183919 .06801859 .034505208 .111836757 .032226564 .1640625H.11669922M.24658203 .5361328V.5361328Z"/>
<path id="font_2_8" d="M.07373047 .71777346H.21289063L.4189453 .11091614 .62353518 .71777346H.76123049V0H.6689453V.42362977C.6689453 .43828837 .6692708 .46255494 .6699219 .49642945 .67057296 .53030398 .67089846 .56662496 .67089846 .60539248L.4663086 0H.3701172L.1640625 .60539248V.58340457C.1640625 .5658162 .1644694 .5390218 .1652832 .50302127 .166097 .46703086 .1665039 .44056703 .1665039 .42362977V0H.07373047V.71777346Z"/>
<path id="font_2_11" d="M.18164063 .71777346V.27441407C.18164063 .22233074 .19140625 .17903646 .2109375 .14453125 .23990886 .092447917 .28873698 .06640625 .35742188 .06640625 .43977867 .06640625 .49576823 .094563808 .5253906 .1508789 .5413411 .18147786 .5493164 .22265625 .5493164 .27441407V.71777346H.6479492V.3149414C.6479492 .22672527 .6360677 .15885417 .6123047 .111328128 .5686849 .024739584 .48632813-.018554688 .36523438-.018554688 .24414063-.018554688 .16194661 .024739584 .118652347 .111328128 .09488932 .15885417 .08300781 .22672527 .08300781 .3149414V.71777346H.18164063M.36572267 .71777346V.71777346Z"/>
<path id="font_2_10" d="M.59814456 .71777346V.63183596H.3564453V0H.2578125V.63183596H.016113282V.71777346H.59814456Z"/>
<path id="font_2_6" d="M.08544922 .71777346H.60839846V.6298828H.18017578V.41210938H.5761719V.32910157H.18017578V.0859375H.61572268V0H.08544922V.71777346M.35058595 .71777346V.71777346Z"/>
<path id="font_2_5" d="M.3515625 .08300781C.3844401 .08300781 .41145835 .08642578 .4326172 .09326172 .4703776 .10595703 .50130209 .1303711 .5253906 .1665039 .5445964 .19547527 .55843099 .23258464 .56689456 .27783204 .57177737 .30485026 .57421877 .32991538 .57421877 .35302735 .57421877 .44189454 .55655929 .51090499 .52124026 .5600586 .48592124 .6092122 .42903648 .63378909 .35058595 .63378909H.17822266V.08300781H.3515625M.080566409 .71777346H.37109376C.46972657 .71777346 .54622396 .6827545 .60058596 .6127167 .64908859 .54952499 .67333987 .46857707 .67333987 .36987306 .67333987 .2936503 .6590169 .22475688 .6303711 .16319275 .57991537 .054397584 .49316407 0 .3701172 0H.080566409V.71777346Z"/>
<path id="font_2_13" d="M.13183594 .1394043C.13183594 .114095058 .14111328 .09413656 .15966797 .07952881 .17822266 .06492106 .20019531 .057617189 .22558594 .057617189 .2565104 .057617189 .28645835 .06471761 .3154297 .07891846 .3642578 .10247803 .38867188 .14127605 .38867188 .1953125V.26611329C.3779297 .25886027 .36409507 .2528127 .34716798 .24797058 .33024089 .24313863 .3136393 .23983257 .29736329 .23805237L.24414063 .23184204C.21223958 .22799683 .1883138 .22153218 .17236328 .21244812 .14534505 .19718933 .13183594 .17284139 .13183594 .1394043M.34472657 .31689454C.36490885 .3194987 .37841798 .32796226 .3852539 .34228517 .38916017 .35012818 .39111329 .36140443 .39111329 .3761139 .39111329 .40618388 .38045249 .42799888 .35913087 .44155885 .33780924 .455129 .30729167 .46191407 .26757813 .46191407 .22167969 .46191407 .18912761 .44948326 .16992188 .42462159 .15917969 .4108785 .15218099 .39043174 .14892578 .36328126H.06689453C.06852213 .42791749 .08943685 .47288514 .12963867 .4981842 .1698405 .5234833 .21647136 .5361328 .26953126 .5361328 .3310547 .5361328 .38102214 .52441409 .4194336 .50097659 .45751954 .47753907 .4765625 .4410502 .4765625 .39151V.08985901C.4765625 .08073425 .47843424 .073404949 .48217774 .067871097 .48592124 .06233724 .4938151 .059570314 .5058594 .059570314 .5097656 .059570314 .51416018 .059814454 .51904299 .060302736 .5239258 .060791017 .5291341 .061523439 .53466799 .0625V-.0028076173C.5209961-.00676473 .5105794-.009236653 .50341799-.010223389 .4962565-.011220296 .48649089-.01171875 .4741211-.01171875 .44384767-.01171875 .421875-.0009104411 .40820313 .020706177 .40104167 .032170614 .3959961 .048380536 .3930664 .06933594 .37516276 .045633954 .34944663 .025060019 .31591798 .0076141359 .2823893-.009831746 .2454427-.018554688 .20507813-.018554688 .15657552-.018554688 .11694336-.0037790936 .08618164 .025772095 .055419923 .055323285 .040039064 .092300418 .040039064 .13670349 .040039064 .18535869 .05517578 .22307332 .08544922 .24984741 .115722659 .2766215 .1554362 .29311119 .20458985 .2993164L.34472657 .31689454M.27197267 .5361328V.5361328Z"/>
<path id="font_2_23" d="M.08203125 .66796877H.17089844V.5234375H.25439454V.4501953H.17089844V.110183719C.17089844 .09202576 .17708333 .07986959 .18945313 .07371521 .19628906 .07014465 .2076823 .068359378 .22363281 .068359378 .22786458 .068359378 .23242188 .06846619 .23730469 .06867981 .2421875 .0689036 .24788411 .06944784 .25439454 .0703125V0C.24430339-.0031026204 .23380535-.005340576 .22290039-.006713867 .21199544-.008097331 .20019531-.0087890629 .1875-.0087890629 .14648438-.0087890629 .118652347 .0016988119 .104003909 .02267456 .08935547 .04365031 .08203125 .070882167 .08203125 .10437012V.4501953H.011230469V.5234375H.08203125V.66796877Z"/>
<path id="font_2_4" d="M.37841798 .7373047C.46923829 .7373047 .53971359 .71332809 .58984377 .66537478 .63997396 .61742147 .66780599 .5629476 .67333987 .5019531H.5786133C.5678711 .54817709 .5464681 .58479818 .5144043 .6118164 .48234049 .63883468 .43733726 .65234377 .37939454 .65234377 .3087565 .65234377 .25170899 .62754318 .20825196 .5779419 .16479492 .52834066 .1430664 .45231629 .1430664 .34986878 .1430664 .26594544 .16267903 .19788106 .2019043 .14567566 .24112956 .09348043 .29964195 .06738281 .3774414 .06738281 .449056 .06738281 .50358077 .094823207 .5410156 .14970398 .5608724 .17860413 .5756836 .21659343 .5854492 .26367188H.6801758C.6717122 .18815105 .64371749 .12483724 .5961914 .07373047 .5392253 .012207031 .46240235-.018554688 .36572267-.018554688 .2823893-.018554688 .21240235 .006688436 .15576172 .057174684 .081217449 .12394714 .043945314 .2270406 .043945314 .36645509 .043945314 .47232057 .0719401 .5591278 .12792969 .62687686 .18847656 .7004954 .27197267 .7373047 .37841798 .7373047M.35888673 .7373047V.7373047Z"/>
<path id="font_2_1" d="M0 0Z"/>
<path id="font_2_16" d="M.064453128 .71875H.15234375V.45214845C.17317708 .4786682 .19189453 .4973297 .2084961 .50813296 .2368164 .5267995 .2721354 .5361328 .31445313 .5361328 .39029948 .5361328 .44173179 .50957748 .46875 .45646668 .48339845 .42747499 .49072267 .38723756 .49072267 .3357544V0H.40039063V.32958985C.40039063 .3680013 .3955078 .39615885 .3857422 .4140625 .36979167 .44270835 .33984376 .45703126 .29589845 .45703126 .2594401 .45703126 .22639974 .4444987 .19677735 .4194336 .16715496 .3943685 .15234375 .34700523 .15234375 .27734376V0H.064453128V.71875Z"/>
<path id="font_2_17" d="M.064453128 .5205078H.1538086V0H.064453128V.5205078M.064453128 .71777346H.1538086V.61816409H.064453128V.71777346Z"/>
<path id="font_2_20" d="M.28515626 .057617189C.32617188 .057617189 .36027018 .07486979 .38745118 .109375 .41463218 .14389038 .42822267 .1954956 .42822267 .26419068 .42822267 .3060608 .42220054 .34204103 .41015626 .37213136 .38736979 .43003337 .34570313 .45898438 .28515626 .45898438 .22428386 .45898438 .18261719 .42840068 .16015625 .36723329 .14811199 .33451844 .14208985 .29297386 .14208985 .24259949 .14208985 .20204163 .14811199 .16753133 .16015625 .1390686 .1829427 .08476766 .22460938 .057617189 .28515626 .057617189M.057617189 .5205078H.1430664V.45162965C.16064453 .47540284 .17985027 .49379985 .2006836 .5068207 .23030599 .5263621 .26513673 .5361328 .30517579 .5361328 .36442057 .5361328 .41471354 .5133667 .4560547 .46783448 .49739585 .42230226 .5180664 .3572693 .5180664 .2727356 .5180664 .1585083 .48828126 .07691447 .42871095 .027954102 .39095054-.0030517579 .34700523-.018554688 .296875-.018554688 .25748698-.018554688 .22444661-.009984334 .1977539 .007156372 .1821289 .016860962 .16471355 .033518476 .14550781 .057128908V-.20898438H.057617189V.5205078Z"/>
<path id="font_2_18" d="M.064453128 .5234375H.15136719V.44921876C.17220052 .4749349 .19108074 .49365235 .20800781 .5053711 .23697917 .52522787 .26985679 .53515627 .30664063 .53515627 .34830729 .53515627 .38183595 .52490237 .40722657 .50439456 .42154948 .49267579 .4345703 .4754232 .44628907 .45263673 .4658203 .4806315 .48876954 .5013835 .5151367 .5148926 .5415039 .5284017 .5711263 .53515627 .6040039 .53515627 .6743164 .53515627 .72216799 .5097402 .7475586 .45890809 .76123049 .43154399 .7680664 .3947296 .7680664 .34846498V0H.6767578V.36367799C.6767578 .39853923 .6680501 .42248536 .65063479 .43551637 .6332194 .44855754 .6119792 .45507813 .58691409 .45507813 .5524089 .45507813 .5227051 .44350688 .49780274 .42036439 .4729004 .39723207 .46044923 .35861717 .46044923 .30451966V0H.37109376V.3416748C.37109376 .37719728 .36686198 .4031016 .35839845 .41938783 .3450521 .4438324 .32014976 .4560547 .2836914 .4560547 .25048829 .4560547 .22029622 .44318138 .19311524 .4174347 .16593425 .3916982 .15234375 .34510295 .15234375 .27764894V0H.064453128V.5234375Z"/>
<path id="font_2_24" d="M.39111329 .5234375H.48828126C.47591148 .48987834 .44840495 .41330973 .40576173 .2937317 .3738607 .20380657 .34716798 .13049825 .3256836 .07380676 .27490235-.059921266 .23909505-.14145915 .21826172-.17080689 .19742839-.2001648 .1616211-.21484375 .110839847-.21484375 .098470058-.21484375 .08894857-.21435039 .08227539-.21336365 .07560221-.21238709 .06738281-.21058655 .057617189-.20796204V-.1274414C.072916667-.13167317 .083984378-.13427735 .09082031-.1352539 .09765625-.13623047 .10367838-.13671875 .10888672-.13671875 .12516277-.13671875 .13712566-.1340332 .14477539-.12866211 .15242513-.123291019 .15885417-.11669922 .1640625-.10888672 .16569011-.106282558 .17154949-.092936199 .18164063-.068847659 .19173177-.044759115 .19905599-.026855469 .20361328-.015136719L.010253906 .5234375H.10986328L.25 .09727478 .39111329 .5234375M.24951172 .5361328V.5361328Z"/>
<path id="font_2_7" d="M.076171878 .71777346H.17333985V.0859375H.5366211V0H.076171878V.71777346Z"/>
<path id="font_2_2" d="M.095703128 .4951172V.5625C.15917969 .5686849 .20345052 .5790202 .22851563 .59350588 .25358073 .6079915 .2722982 .6422526 .28466798 .69628909H.3540039V0H.2602539V.4951172H.095703128Z"/>
</defs>
<g clip-path="url(#clip_0)">
<g clip-path="url(#clip_1)">
<path transform="matrix(1,0,0,-1,0,540)" d="M0 539.9999H719.9999V.00003079383H0Z" fill="#ffffff" fill-rule="evenodd"/>
<use data-text="V" xlink:href="#font_2_12" transform="matrix(16,0,0,-16,146.875,139.22509)"/>
<use data-text="A" xlink:href="#font_2_3" transform="matrix(16,0,0,-16,156.3678,139.22509)"/>
<use data-text="&#xfffd;" xlink:href="#font_3_1" transform="matrix(16,0,0,-16,167.0398,139.22509)"/>
<path transform="matrix(.00007874014,0,0,.00007874014,21.87504,105.62509)" stroke-width="12700" stroke-linecap="butt" stroke-miterlimit="8" stroke-linejoin="miter" fill="none" stroke="#000000" d="M-.004058763 .3143312H1230312V457200.4H-.004058763Z"/>
<use data-text="P" xlink:href="#font_2_9" transform="matrix(16,0,0,-16,34.07504,130.02509)"/>
<use data-text="r" xlink:href="#font_2_21" transform="matrix(16,0,0,-16,44.74704,130.02509)"/>
<use data-text="o" xlink:href="#font_2_19" transform="matrix(16,0,0,-16,50.07504,130.02509)"/>
<use data-text="c" xlink:href="#font_2_14" transform="matrix(16,0,0,-16,58.97424,130.02509)"/>
<use data-text="e" xlink:href="#font_2_15" transform="matrix(16,0,0,-16,66.97424,130.02509)"/>
<use data-text="s" xlink:href="#font_2_22" transform="matrix(16,0,0,-16,75.87344,130.02509)"/>
<use data-text="s" xlink:href="#font_2_22" transform="matrix(16,0,0,-16,83.87344,130.02509)"/>
<use data-text="o" xlink:href="#font_2_19" transform="matrix(16,0,0,-16,91.87344,130.02509)"/>
<use data-text="r" xlink:href="#font_2_21" transform="matrix(16,0,0,-16,100.772647,130.02509)"/>
<use data-text="&#xfffd;" xlink:href="#font_3_1" transform="matrix(16,0,0,-16,106.10065,130.02509)"/>
<path transform="matrix(.00007874014,0,0,.00007874014,198.125,45.62509)" stroke-width="12700" stroke-linecap="butt" stroke-miterlimit="8" stroke-linejoin="miter" fill="none" stroke="#000000" d="M.08074954 .1971437H1022350V2119312H.08074954Z"/>
<use data-text="M" xlink:href="#font_2_8" transform="matrix(16,0,0,-16,219.325,135.46259)"/>
<use data-text="M" xlink:href="#font_2_8" transform="matrix(16,0,0,-16,232.653,135.46259)"/>
<use data-text="U" xlink:href="#font_2_11" transform="matrix(16,0,0,-16,245.981,135.46259)"/>
<use data-text="&#xfffd;" xlink:href="#font_3_1" transform="matrix(16,0,0,-16,257.5362,135.46259)"/>
<path transform="matrix(.00007874014,0,0,.00007874014,369.875,45.62509)" stroke-width="12700" stroke-linecap="butt" stroke-miterlimit="8" stroke-linejoin="miter" fill="none" stroke="#000000" d="M-.1651612 .1971437H925511.7V2119312H-.1651612Z"/>
<path transform="matrix(.00007874014,0,0,-.00007874014,118.75,123.62509)" stroke-width="12700" stroke-linecap="butt" stroke-linejoin="round" fill="none" stroke="#000000" d="M-.08685306 .1505125H976312.6"/>
<path transform="matrix(1,0,0,-1,0,540)" d="M191.625 413.3749 197.625 416.3749 191.625 419.3749Z" fill-rule="evenodd"/>
<path transform="matrix(.00007874014,0,0,-.00007874014,69.87503,240)" stroke-width="12700" stroke-linecap="butt" stroke-linejoin="round" fill="none" stroke="#000000" d="M-.03845209-.0516358V1223963"/>
<path transform="matrix(1,0,0,-1,0,540)" d="M72.87503 392.375 69.87503 398.375 66.87503 392.375Z" fill-rule="evenodd"/>
<use data-text="P" xlink:href="#font_2_9" transform="matrix(16,0,0,-16,305.2499,100.72508)"/>
<use data-text="T" xlink:href="#font_2_10" transform="matrix(16,0,0,-16,315.9219,100.72508)"/>
<use data-text="E" xlink:href="#font_2_6" transform="matrix(16,0,0,-16,325.6947,100.72508)"/>
<use data-text="A" xlink:href="#font_2_3" transform="matrix(16,0,0,-16,336.3667,100.72508)"/>
<use data-text="&#xfffd;" xlink:href="#font_3_1" transform="matrix(16,0,0,-16,347.0387,100.72508)"/>
<use data-text="P" xlink:href="#font_2_9" transform="matrix(16,0,0,-16,285.575,13.650085)"/>
<use data-text="T" xlink:href="#font_2_10" transform="matrix(16,0,0,-16,296.247,13.650085)"/>
<use data-text="E" xlink:href="#font_2_6" transform="matrix(16,0,0,-16,306.0198,13.650085)"/>
<use data-text="&#xfffd;" xlink:href="#font_3_1" transform="matrix(16,0,0,-16,316.6918,13.650085)"/>
<path transform="matrix(.00007874014,0,0,.00007874014,278.375,105.50009)" stroke-width="12700" stroke-linecap="butt" stroke-linejoin="round" fill="none" stroke="#000000" d="M.04370117-.07348621 1136650 1552.545"/>
<path transform="matrix(1,0,0,-1,0,540)" d="M363.8791 437.3831 369.875 434.3749 363.8709 431.3831Z" fill-rule="evenodd"/>
<use data-text="P" xlink:href="#font_2_9" transform="matrix(16,0,0,-16,315.375,151.22509)"/>
<use data-text="A" xlink:href="#font_2_3" transform="matrix(16,0,0,-16,324.8678,151.22509)"/>
<use data-text="&#xfffd;" xlink:href="#font_3_1" transform="matrix(16,0,0,-16,335.5398,151.22509)"/>
<path transform="matrix(-.00007874014,-0,0,.00007874014,350.875,240)" stroke-width="12700" stroke-linecap="butt" stroke-linejoin="round" fill="none" stroke="#000000" d="M.3146973 .0516358 3568700 1.214356"/>
<use data-text="D" xlink:href="#font_2_5" transform="matrix(16,0,0,-16,203.575,239.15)"/>
<use data-text="a" xlink:href="#font_2_13" transform="matrix(16,0,0,-16,215.1302,239.15)"/>
<use data-text="t" xlink:href="#font_2_23" transform="matrix(16,0,0,-16,224.0294,239.15)"/>
<use data-text="a" xlink:href="#font_2_13" transform="matrix(16,0,0,-16,228.48059,239.15)"/>
<use data-text="&#xfffd;" xlink:href="#font_3_1" transform="matrix(16,0,0,-16,237.37979,239.15)"/>
<path transform="matrix(.00007874014,0,0,-.00007874014,279.875,156)" stroke-width="12700" stroke-linecap="butt" stroke-linejoin="round" fill="none" stroke="#000000" d="M.04663086-.1375733H1136650"/>
<path transform="matrix(1,0,0,-1,0,540)" d="M365.375 381 371.375 384 365.375 387Z" fill-rule="evenodd"/>
<path transform="matrix(.00007874014,0,0,.00007874014,6,30.000092)" stroke-width="12700" stroke-linecap="butt" stroke-dasharray="50800,38100" stroke-miterlimit="8" stroke-linejoin="miter" fill="none" stroke="#000000" d="M-.002149583 .2790529H3646488V2438400H-.002149583Z"/>
<use data-text="C" xlink:href="#font_2_4" transform="matrix(16,0,0,-16,13.2,23.150086)"/>
<use data-text="P" xlink:href="#font_2_9" transform="matrix(16,0,0,-16,24.7552,23.150086)"/>
<use data-text="U" xlink:href="#font_2_11" transform="matrix(16,0,0,-16,35.4272,23.150086)"/>
<use data-text=" " xlink:href="#font_2_1" transform="matrix(16,0,0,-16,46.982404,23.150086)"/>
<use data-text="c" xlink:href="#font_2_14" transform="matrix(16,0,0,-16,51.427206,23.150086)"/>
<use data-text="h" xlink:href="#font_2_16" transform="matrix(16,0,0,-16,59.427206,23.150086)"/>
<use data-text="i" xlink:href="#font_2_17" transform="matrix(16,0,0,-16,68.3264,23.150086)"/>
<use data-text="p" xlink:href="#font_2_20" transform="matrix(16,0,0,-16,71.88161,23.150086)"/>
<use data-text="&#xfffd;" xlink:href="#font_3_1" transform="matrix(16,0,0,-16,80.7808,23.150086)"/>
<path transform="matrix(.00007874014,0,0,.00007874014,533.9999,45.62509)" stroke-width="12700" stroke-linecap="butt" stroke-miterlimit="8" stroke-linejoin="miter" fill="none" stroke="#000000" d="M-.2321779 .1971437H925512.4V2119312H-.2321779Z"/>
<use data-text="M" xlink:href="#font_2_8" transform="matrix(16,0,0,-16,541.1999,135.46259)"/>
<use data-text="e" xlink:href="#font_2_15" transform="matrix(16,0,0,-16,554.5279,135.46259)"/>
<use data-text="m" xlink:href="#font_2_18" transform="matrix(16,0,0,-16,563.4271,135.46259)"/>
<use data-text="o" xlink:href="#font_2_19" transform="matrix(16,0,0,-16,576.7551,135.46259)"/>
<use data-text="r" xlink:href="#font_2_21" transform="matrix(16,0,0,-16,585.6543,135.46259)"/>
<use data-text="y" xlink:href="#font_2_24" transform="matrix(16,0,0,-16,590.9823,135.46259)"/>
<use data-text="&#xfffd;" xlink:href="#font_3_1" transform="matrix(16,0,0,-16,598.9823,135.46259)"/>
<path transform="matrix(.00007874014,0,0,.00007874014,442.7499,156)" stroke-width="12700" stroke-linecap="butt" stroke-linejoin="round" fill="none" stroke="#000000" d="M-.2979738 .1375733H1152524"/>
<path transform="matrix(1,0,0,-1,0,540)" d="M529.4999 387 535.4999 384 529.4999 381Z" fill-rule="evenodd"/>
<use data-text="P" xlink:href="#font_2_9" transform="matrix(16,0,0,-16,480.575,151.65009)"/>
<use data-text="A" xlink:href="#font_2_3" transform="matrix(16,0,0,-16,490.0678,151.65009)"/>
<use data-text="&#xfffd;" xlink:href="#font_3_1" transform="matrix(16,0,0,-16,500.7398,151.65009)"/>
<use data-text="P" xlink:href="#font_2_9" transform="matrix(12,0,0,-12,426.7,152.35)"/>
<use data-text="A" xlink:href="#font_2_3" transform="matrix(12,0,0,-12,433.8196,152.35)"/>
<use data-text="&#xfffd;" xlink:href="#font_3_1" transform="matrix(12,0,0,-12,441.8236,152.35)"/>
<use data-text="m" xlink:href="#font_2_18" transform="matrix(12,0,0,-12,417.7,166.35)"/>
<use data-text="i" xlink:href="#font_2_17" transform="matrix(12,0,0,-12,427.696,166.35)"/>
<use data-text="s" xlink:href="#font_2_22" transform="matrix(12,0,0,-12,430.36244,166.35)"/>
<use data-text="s" xlink:href="#font_2_22" transform="matrix(12,0,0,-12,436.36244,166.35)"/>
<use data-text="&#xfffd;" xlink:href="#font_3_1" transform="matrix(12,0,0,-12,442.36244,166.35)"/>
<use data-text="P" xlink:href="#font_2_9" transform="matrix(16,0,0,-16,469.375,95.97508)"/>
<use data-text="T" xlink:href="#font_2_10" transform="matrix(16,0,0,-16,480.047,95.97508)"/>
<use data-text="E" xlink:href="#font_2_6" transform="matrix(16,0,0,-16,489.8198,95.97508)"/>
<use data-text="A" xlink:href="#font_2_3" transform="matrix(16,0,0,-16,500.4918,95.97508)"/>
<use data-text="&#xfffd;" xlink:href="#font_3_1" transform="matrix(16,0,0,-16,511.16383,95.97508)"/>
<use data-text="P" xlink:href="#font_2_9" transform="matrix(12,0,0,-12,408.2,99.600009)"/>
<use data-text="T" xlink:href="#font_2_10" transform="matrix(12,0,0,-12,416.204,99.600009)"/>
<use data-text="E" xlink:href="#font_2_6" transform="matrix(12,0,0,-12,423.5336,99.600009)"/>
<use data-text="A" xlink:href="#font_2_3" transform="matrix(12,0,0,-12,431.5376,99.600009)"/>
<use data-text="&#xfffd;" xlink:href="#font_3_1" transform="matrix(12,0,0,-12,439.54164,99.600009)"/>
<use data-text="m" xlink:href="#font_2_18" transform="matrix(12,0,0,-12,416.1999,113.600009)"/>
<use data-text="i" xlink:href="#font_2_17" transform="matrix(12,0,0,-12,426.1959,113.600009)"/>
<use data-text="s" xlink:href="#font_2_22" transform="matrix(12,0,0,-12,428.8623,113.600009)"/>
<use data-text="s" xlink:href="#font_2_22" transform="matrix(12,0,0,-12,434.8623,113.600009)"/>
<use data-text="&#xfffd;" xlink:href="#font_3_1" transform="matrix(12,0,0,-12,440.8623,113.600009)"/>
<path transform="matrix(-.00007874014,-0,0,.00007874014,350.875,18.125123)" stroke-width="12700" stroke-linecap="butt" stroke-linejoin="round" fill="none" stroke="#000000" d="M.3146973 .0310061 1443038 .8061527"/>
<path transform="matrix(.00007874014,0,0,-.00007874014,237.25,45.62509)" stroke-width="12700" stroke-linecap="butt" stroke-linejoin="round" fill="none" stroke="#000000" d="M.0758056 25399.81V349250.2"/>
<path transform="matrix(1,0,0,-1,0,540)" d="M234.25 500.3749 237.25 494.3749 240.25 500.3749Z" fill-rule="evenodd"/>
<path transform="matrix(-.00007874014,-0,0,.00007874014,369.875,60.00009)" stroke-width="12700" stroke-linecap="butt" stroke-linejoin="round" fill="none" stroke="#000000" d="M.1651612 .3376466 241300.2 1.500366"/>
<path transform="matrix(.00007874014,0,0,-.00007874014,350.875,60.00009)" stroke-width="12700" stroke-linecap="butt" stroke-linejoin="round" fill="none" stroke="#000000" d="M-.3146973-.3376466 .8480226 531811.5"/>
<use data-text="P" xlink:href="#font_2_9" transform="matrix(12,0,0,-12,373.2,59.975099)"/>
<use data-text="T" xlink:href="#font_2_10" transform="matrix(12,0,0,-12,381.204,59.975099)"/>
<use data-text="E" xlink:href="#font_2_6" transform="matrix(12,0,0,-12,388.5336,59.975099)"/>
<use data-text="A" xlink:href="#font_2_3" transform="matrix(12,0,0,-12,396.5376,59.975099)"/>
<use data-text=" " xlink:href="#font_2_1" transform="matrix(12,0,0,-12,403.88523,59.975099)"/>
<use data-text="&#xfffd;" xlink:href="#font_3_1" transform="matrix(12,0,0,-12,407.2188,59.975099)"/>
<use data-text="h" xlink:href="#font_2_16" transform="matrix(12,0,0,-12,373.2,73.9751)"/>
<use data-text="i" xlink:href="#font_2_17" transform="matrix(12,0,0,-12,379.87443,73.9751)"/>
<use data-text="t" xlink:href="#font_2_23" transform="matrix(12,0,0,-12,382.5408,73.9751)"/>
<use data-text="&#xfffd;" xlink:href="#font_3_1" transform="matrix(12,0,0,-12,385.8792,73.9751)"/>
<path transform="matrix(-.00007874014,-0,0,.00007874014,369.875,198)" stroke-width="12700" stroke-linecap="butt" stroke-linejoin="round" fill="none" stroke="#000000" d="M.1651612 .2196046 241300.2 1.382324"/>
<path transform="matrix(-.00007874014,-0,0,-.00007874014,350.875,240)" stroke-width="12700" stroke-linecap="butt" stroke-linejoin="round" fill="none" stroke="#000000" d="M.3146973-.0516358 1.477417 533400"/>
<use data-text="P" xlink:href="#font_2_9" transform="matrix(12,0,0,-12,373.2,197.9751)"/>
<use data-text="A" xlink:href="#font_2_3" transform="matrix(12,0,0,-12,380.3196,197.9751)"/>
<use data-text=" " xlink:href="#font_2_1" transform="matrix(12,0,0,-12,387.6672,197.9751)"/>
<use data-text="&#xfffd;" xlink:href="#font_3_1" transform="matrix(12,0,0,-12,391.0068,197.9751)"/>
<use data-text="h" xlink:href="#font_2_16" transform="matrix(12,0,0,-12,373.2,211.9751)"/>
<use data-text="i" xlink:href="#font_2_17" transform="matrix(12,0,0,-12,379.87443,211.9751)"/>
<use data-text="t" xlink:href="#font_2_23" transform="matrix(12,0,0,-12,382.5408,211.9751)"/>
<use data-text="&#xfffd;" xlink:href="#font_3_1" transform="matrix(12,0,0,-12,385.8792,211.9751)"/>
<path transform="matrix(.00007874014,0,0,.00007874014,443.9999,105.62509)" stroke-width="12700" stroke-linecap="butt" stroke-linejoin="round" fill="none" stroke="#000000" d="M.0920409 .3143312 1136650 1552.933"/>
<path transform="matrix(1,0,0,-1,0,540)" d="M529.504 437.2581 535.4999 434.2499 529.4958 431.2581Z" fill-rule="evenodd"/>
<path transform="matrix(-.00007874014,-0,0,.00007874014,534.9999,198)" stroke-width="12700" stroke-linecap="butt" stroke-linejoin="round" fill="none" stroke="#000000" d="M.2302247 .2196046 1146175 1.382324"/>
<path transform="matrix(1,0,0,-1,0,540)" d="M448.75 344.9999 442.75 341.9999 448.75 338.9999Z" fill-rule="evenodd"/>
<use data-text="D" xlink:href="#font_2_5" transform="matrix(16,0,0,-16,473.45,193.65009)"/>
<use data-text="a" xlink:href="#font_2_13" transform="matrix(16,0,0,-16,485.00523,193.65009)"/>
<use data-text="t" xlink:href="#font_2_23" transform="matrix(16,0,0,-16,493.90443,193.65009)"/>
<use data-text="a" xlink:href="#font_2_13" transform="matrix(16,0,0,-16,498.35563,193.65009)"/>
<use data-text="&#xfffd;" xlink:href="#font_3_1" transform="matrix(16,0,0,-16,507.25483,193.65009)"/>
<path transform="matrix(-.00007874014,-0,0,.00007874014,533.9999,60.00009)" stroke-width="12700" stroke-linecap="butt" stroke-linejoin="round" fill="none" stroke="#000000" d="M.2321779 .3376466 1146175 1.500366"/>
<path transform="matrix(1,0,0,-1,0,540)" d="M447.75 482.9998 441.75 479.9998 447.75 476.9998Z" fill-rule="evenodd"/>
<use data-text="P" xlink:href="#font_2_9" transform="matrix(16,0,0,-16,474.825,53.150087)"/>
<use data-text="T" xlink:href="#font_2_10" transform="matrix(16,0,0,-16,485.497,53.150087)"/>
<use data-text="E" xlink:href="#font_2_6" transform="matrix(16,0,0,-16,495.2698,53.150087)"/>
<use data-text="&#xfffd;" xlink:href="#font_3_1" transform="matrix(16,0,0,-16,505.9418,53.150087)"/>
<use data-text="L" xlink:href="#font_2_7" transform="matrix(16,0,0,-16,398.95,236.80011)"/>
<use data-text="1" xlink:href="#font_2_2" transform="matrix(16,0,0,-16,407.8492,236.80011)"/>
<use data-text="&#xfffd;" xlink:href="#font_3_1" transform="matrix(16,0,0,-16,416.7484,236.80011)"/>
<use data-text="c" xlink:href="#font_2_14" transform="matrix(16,0,0,-16,386.9499,255.80011)"/>
<use data-text="a" xlink:href="#font_2_13" transform="matrix(16,0,0,-16,394.9499,255.80011)"/>
<use data-text="c" xlink:href="#font_2_14" transform="matrix(16,0,0,-16,403.8491,255.80011)"/>
<use data-text="h" xlink:href="#font_2_16" transform="matrix(16,0,0,-16,411.8491,255.80011)"/>
<use data-text="e" xlink:href="#font_2_15" transform="matrix(16,0,0,-16,420.7483,255.80011)"/>
<use data-text="&#xfffd;" xlink:href="#font_3_1" transform="matrix(16,0,0,-16,429.6475,255.80011)"/>
</g>
</g>
</svg>
