<svg xmlns="http://www.w3.org/2000/svg" xmlns:xlink="http://www.w3.org/1999/xlink" version="1.1" width="699.758pt" height="361.16603pt" viewBox="0 0 699.758 361.16603">
<defs>
<clipPath id="clip_0">
<path transform="matrix(1,0,0,-1,0,540)" d="M0 178.834H699.758V540H0Z" fill-rule="evenodd"/>
</clipPath>
<clipPath id="clip_1">
<path transform="matrix(1,0,0,-1,0,540)" d="M0 .00002324581H719.9999V540H0Z"/>
</clipPath>
<path id="font_2_14" d="M.08544922 .71777346H.40820313C.47200523 .71777346 .5234375 .6997884 .5625 .66381838 .6015625 .6278483 .62109377 .5773112 .62109377 .51220706 .62109377 .45621745 .6036784 .4074707 .56884768 .3659668 .5340169 .3244629 .48046876 .30371095 .40820313 .30371095H.18261719V0H.08544922V.71777346M.5229492 .5114746C.5229492 .56410726 .50341799 .5998433 .46435548 .61868289 .4428711 .62875369 .41341148 .63378909 .37597657 .63378909H.18261719V.3857422H.37597657C.41959635 .3857422 .45499674 .39499919 .48217774 .41351319 .5093587 .43203736 .5229492 .46469117 .5229492 .5114746Z"/>
<path id="font_2_22" d="M.13183594 .1394043C.13183594 .114095058 .14111328 .09413656 .15966797 .07952881 .17822266 .06492106 .20019531 .057617189 .22558594 .057617189 .2565104 .057617189 .28645835 .06471761 .3154297 .07891846 .3642578 .10247803 .38867188 .14127605 .38867188 .1953125V.26611329C.3779297 .25886027 .36409507 .2528127 .34716798 .24797058 .33024089 .24313863 .3136393 .23983257 .29736329 .23805237L.24414063 .23184204C.21223958 .22799683 .1883138 .22153218 .17236328 .21244812 .14534505 .19718933 .13183594 .17284139 .13183594 .1394043M.34472657 .31689454C.36490885 .3194987 .37841798 .32796226 .3852539 .34228517 .38916017 .35012818 .39111329 .36140443 .39111329 .3761139 .39111329 .40618388 .38045249 .42799888 .35913087 .44155885 .33780924 .455129 .30729167 .46191407 .26757813 .46191407 .22167969 .46191407 .18912761 .44948326 .16992188 .42462159 .15917969 .4108785 .15218099 .39043174 .14892578 .36328126H.06689453C.06852213 .42791749 .08943685 .47288514 .12963867 .4981842 .1698405 .5234833 .21647136 .5361328 .26953126 .5361328 .3310547 .5361328 .38102214 .52441409 .4194336 .50097659 .45751954 .47753907 .4765625 .4410502 .4765625 .39151V.08985901C.4765625 .08073425 .47843424 .073404949 .48217774 .067871097 .48592124 .06233724 .4938151 .059570314 .5058594 .059570314 .5097656 .059570314 .51416018 .059814454 .51904299 .060302736 .5239258 .060791017 .5291341 .061523439 .53466799 .0625V-.0028076173C.5209961-.00676473 .5105794-.009236653 .50341799-.010223389 .4962565-.011220296 .48649089-.01171875 .4741211-.01171875 .44384767-.01171875 .421875-.0009104411 .40820313 .020706177 .40104167 .032170614 .3959961 .048380536 .3930664 .06933594 .37516276 .045633954 .34944663 .025060019 .31591798 .0076141359 .2823893-.009831746 .2454427-.018554688 .20507813-.018554688 .15657552-.018554688 .11694336-.0037790936 .08618164 .025772095 .055419923 .055323285 .040039064 .092300418 .040039064 .13670349 .040039064 .18535869 .05517578 .22307332 .08544922 .24984741 .115722659 .2766215 .1554362 .29311119 .20458985 .2993164L.34472657 .31689454M.27197267 .5361328V.5361328Z"/>
<path id="font_2_27" d="M.24902344 .53222659C.29003907 .53222659 .32584635 .5220744 .3564453 .50177 .37304688 .49030558 .38997398 .4736023 .40722657 .45166017V.5185547H.48828126V.04234314C.48828126-.024154664 .47851563-.07663473 .45898438-.115097049 .42252604-.18615215 .35367839-.22167969 .2524414-.22167969 .1961263-.22167969 .14876302-.20906575 .11035156-.18383789 .0719401-.15861003 .05045573-.119140628 .045898439-.06542969H.1352539C.13948567-.08873495 .14794922-.10669454 .16064453-.11930847 .1805013-.13872783 .2117513-.1484375 .25439454-.1484375 .32177735-.1484375 .3658854-.12467448 .38671876-.07714844 .39908854-.04916382 .40478517 .0007985433 .4038086 .07273865 .38623048 .04588318 .36507163 .025904337 .34033204 .012802124 .31559245-.000289917 .2828776-.0068359377 .2421875-.0068359377 .18554688-.0068359377 .13598633 .013280232 .09350586 .053512575 .05102539 .09375509 .029785157 .16030376 .029785157 .25315858 .029785157 .34080506 .051188154 .40922547 .09399414 .4584198 .13680013 .5076243 .18847656 .53222659 .24902344 .53222659M.40722657 .26342774C.40722657 .328125 .39388023 .37607829 .3671875 .4072876 .34049479 .43849693 .30647788 .45410157 .26513673 .45410157 .20328777 .45410157 .16097005 .4251658 .1381836 .3672943 .12613933 .33641053 .12011719 .29593406 .12011719 .24586487 .12011719 .1870168 .13208008 .14223226 .15600586 .11151123 .17993164 .0807902 .21207683 .06542969 .2524414 .06542969 .31559245 .06542969 .36002604 .09387716 .3857422 .1507721 .4000651 .18295796 .40722657 .22050984 .40722657 .26342774M.25927735 .5361328V.5361328Z"/>
<path id="font_2_26" d="M.28222657 .53515627C.31933595 .53515627 .355306 .52644857 .39013673 .5090332 .42496745 .49161784 .4514974 .4690806 .46972657 .4414215 .4873047 .41505433 .49902345 .3842977 .5048828 .3491516 .5100911 .32506309 .5126953 .28647868 .5126953 .23339844H.12939453C.13102214 .18033855 .14355469 .13777669 .16699219 .10571289 .19042969 .073649089 .22672527 .057617189 .2758789 .057617189 .32177735 .057617189 .35839845 .07261658 .3857422 .10261536 .4013672 .12003072 .4124349 .14018758 .4189453 .16308594H.5053711C.50309249 .14398194 .49552409 .122690837 .48266603 .09921265 .46980796 .07574463 .45540367 .05656433 .43945313 .041671754 .4127604 .01576233 .37972007-.0017242432 .34033204-.010787964 .3191732-.01596578 .2952474-.018554688 .2685547-.018554688 .20345052-.018554688 .14827474 .0051472985 .103027347 .05255127 .05777995 .09995524 .03515625 .16634114 .03515625 .25170899 .03515625 .33576457 .057942708 .40401713 .103515628 .45646668 .14908855 .5089264 .20865886 .53515627 .28222657 .53515627M.42236329 .30371095C.41878257 .34191896 .41048179 .37245179 .39746095 .39530946 .3733724 .4377594 .33317057 .45898438 .27685548 .45898438 .23649089 .45898438 .20263672 .44437156 .17529297 .41514588 .14794922 .3859202 .13346355 .34877525 .13183594 .30371095H.42236329M.27392579 .5361328V.5361328Z"/>
<path id="font_2_1" d="M0 0Z"/>
<path id="font_2_38" d="M.08203125 .66796877H.17089844V.5234375H.25439454V.4501953H.17089844V.110183719C.17089844 .09202576 .17708333 .07986959 .18945313 .07371521 .19628906 .07014465 .2076823 .068359378 .22363281 .068359378 .22786458 .068359378 .23242188 .06846619 .23730469 .06867981 .2421875 .0689036 .24788411 .06944784 .25439454 .0703125V0C.24430339-.0031026204 .23380535-.005340576 .22290039-.006713867 .21199544-.008097331 .20019531-.0087890629 .1875-.0087890629 .14648438-.0087890629 .118652347 .0016988119 .104003909 .02267456 .08935547 .04365031 .08203125 .070882167 .08203125 .10437012V.4501953H.011230469V.5234375H.08203125V.66796877Z"/>
<path id="font_2_23" d="M.057617189 .71875H.1430664V.45948792C.16227214 .4847056 .18522136 .50394698 .21191406 .5172119 .23860677 .53047689 .26757813 .5371094 .29882813 .5371094 .36393229 .5371094 .41674806 .5147095 .4572754 .46990968 .49780274 .42510987 .5180664 .35905458 .5180664 .27174378 .5180664 .1889801 .49804688 .12022909 .4580078 .06549072 .41796876 .010762532 .36246745-.016601563 .2915039-.016601563 .25179038-.016601563 .21826172-.006942749 .19091797 .012374878 .17464192 .023839316 .15722656 .042175294 .13867188 .06738281V0H.057617189V.71875M.2861328 .061523439C.33365885 .061523439 .36922203 .08037821 .39282228 .11808777 .41642253 .1558075 .42822267 .20555115 .42822267 .26731874 .42822267 .32227073 .41642253 .3677877 .39282228 .40386964 .36922203 .43996177 .33447267 .4580078 .28857423 .4580078 .24853516 .4580078 .21346028 .44321189 .18334961 .41362 .15323894 .3840383 .1381836 .3352712 .1381836 .26731874 .1381836 .21822612 .14436849 .17840068 .15673828 .1478424 .17985027 .090296428 .22298177 .061523439 .2861328 .061523439Z"/>
<path id="font_2_31" d="M.06689453 .71777346H.15478516V0H.06689453V.71777346Z"/>
<path id="font_2_37" d="M.11669922 .1640625C.11930338 .13463338 .12662761 .11207072 .13867188 .09637451 .1608073 .06793213 .19921875 .053710939 .25390626 .053710939 .28645835 .053710939 .31510417 .060806276 .33984376 .07499695 .36458335 .08919779 .37695313 .11115011 .37695313 .14085388 .37695313 .16337586 .36702476 .18051148 .34716798 .19226074 .33447267 .19944255 .30940757 .20775859 .27197267 .21720886L.20214844 .2348175C.15755208 .24590557 .12467448 .25829569 .103515628 .27198792 .06575521 .29579164 .046875 .32873027 .046875 .37080384 .046875 .42036439 .064697269 .46046958 .1003418 .49111939 .13598633 .52177938 .18391927 .5371094 .24414063 .5371094 .32291667 .5371094 .37972007 .5139974 .41455079 .46777345 .4363607 .43847657 .4469401 .40690104 .44628907 .37304688H.36328126C.36165367 .39269004 .35465495 .41055808 .34228517 .426651 .32210288 .44950868 .28710938 .4609375 .23730469 .4609375 .20410156 .4609375 .17895508 .45461528 .16186524 .44197084 .14477539 .42933656 .13623047 .41264854 .13623047 .39190675 .13623047 .36922203 .14746094 .35107423 .16992188 .33746339 .1829427 .32936607 .20214844 .32221986 .22753906 .31602479L.28564454 .3018341C.34879557 .28650413 .39111329 .27166749 .41259767 .25732423 .44677735 .23482259 .4638672 .19944255 .4638672 .15118408 .4638672 .10455322 .44620768 .06428019 .41088868 .03036499 .37556968-.0035502117 .32177735-.020507813 .24951172-.020507813 .17171224-.020507813 .116617839-.002802531 .084228519 .032608034 .05183919 .06801859 .034505208 .111836757 .032226564 .1640625H.11669922M.24658203 .5361328V.5361328Z"/>
<path id="font_2_39" d="M.10498047 .5234375 .2055664 .110946658 .3076172 .5234375H.40625L.50878909 .11338806 .61572268 .5234375H.7036133L.5517578 0H.46044923L.3540039 .40516664 .25097657 0H.15966797L.0087890629 .5234375H.10498047Z"/>
<path id="font_2_29" d="M.064453128 .5205078H.1538086V0H.064453128V.5205078M.064453128 .71777346H.1538086V.61816409H.064453128V.71777346Z"/>
<path id="font_2_28" d="M.064453128 .71875H.15234375V.45214845C.17317708 .4786682 .19189453 .4973297 .2084961 .50813296 .2368164 .5267995 .2721354 .5361328 .31445313 .5361328 .39029948 .5361328 .44173179 .50957748 .46875 .45646668 .48339845 .42747499 .49072267 .38723756 .49072267 .3357544V0H.40039063V.32958985C.40039063 .3680013 .3955078 .39615885 .3857422 .4140625 .36979167 .44270835 .33984376 .45703126 .29589845 .45703126 .2594401 .45703126 .22639974 .4444987 .19677735 .4194336 .16715496 .3943685 .15234375 .34700523 .15234375 .27734376V0H.064453128V.71875Z"/>
<path id="font_2_35" d="M.28515626 .057617189C.32617188 .057617189 .36027018 .07486979 .38745118 .109375 .41463218 .14389038 .42822267 .1954956 .42822267 .26419068 .42822267 .3060608 .42220054 .34204103 .41015626 .37213136 .38736979 .43003337 .34570313 .45898438 .28515626 .45898438 .22428386 .45898438 .18261719 .42840068 .16015625 .36723329 .14811199 .33451844 .14208985 .29297386 .14208985 .24259949 .14208985 .20204163 .14811199 .16753133 .16015625 .1390686 .1829427 .08476766 .22460938 .057617189 .28515626 .057617189M.057617189 .5205078H.1430664V.45162965C.16064453 .47540284 .17985027 .49379985 .2006836 .5068207 .23030599 .5263621 .26513673 .5361328 .30517579 .5361328 .36442057 .5361328 .41471354 .5133667 .4560547 .46783448 .49739585 .42230226 .5180664 .3572693 .5180664 .2727356 .5180664 .1585083 .48828126 .07691447 .42871095 .027954102 .39095054-.0030517579 .34700523-.018554688 .296875-.018554688 .25748698-.018554688 .22444661-.009984334 .1977539 .007156372 .1821289 .016860962 .16471355 .033518476 .14550781 .057128908V-.20898438H.057617189V.5205078Z"/>
<path id="font_2_36" d="M.06689453 .5234375H.15039063V.4326172C.15722656 .4502767 .17399089 .4717814 .2006836 .49713136 .2273763 .52248129 .25813804 .53515627 .29296876 .53515627 .29459635 .53515627 .29736329 .5349579 .30126954 .53456118 .30517579 .5341746 .31184898 .5333964 .32128907 .53222659V.43945313C.31608073 .44062297 .3112793 .44140116 .30688478 .44178773 .30249024 .44218446 .2976888 .4423828 .29248048 .4423828 .24820964 .4423828 .2141927 .4280599 .19042969 .39941407 .16666667 .37076823 .15478516 .33789063 .15478516 .30078126V0H.06689453V.5234375Z"/>
<path id="font_2_32" d="M.064453128 .5234375H.15136719V.44921876C.17220052 .4749349 .19108074 .49365235 .20800781 .5053711 .23697917 .52522787 .26985679 .53515627 .30664063 .53515627 .34830729 .53515627 .38183595 .52490237 .40722657 .50439456 .42154948 .49267579 .4345703 .4754232 .44628907 .45263673 .4658203 .4806315 .48876954 .5013835 .5151367 .5148926 .5415039 .5284017 .5711263 .53515627 .6040039 .53515627 .6743164 .53515627 .72216799 .5097402 .7475586 .45890809 .76123049 .43154399 .7680664 .3947296 .7680664 .34846498V0H.6767578V.36367799C.6767578 .39853923 .6680501 .42248536 .65063479 .43551637 .6332194 .44855754 .6119792 .45507813 .58691409 .45507813 .5524089 .45507813 .5227051 .44350688 .49780274 .42036439 .4729004 .39723207 .46044923 .35861717 .46044923 .30451966V0H.37109376V.3416748C.37109376 .37719728 .36686198 .4031016 .35839845 .41938783 .3450521 .4438324 .32014976 .4560547 .2836914 .4560547 .25048829 .4560547 .22029622 .44318138 .19311524 .4174347 .16593425 .3916982 .15234375 .34510295 .15234375 .27764894V0H.064453128V.5234375Z"/>
<path id="font_2_34" d="M.27197267 .057617189C.33024089 .057617189 .37019859 .07964579 .3918457 .123703 .41349284 .16776021 .4243164 .21677144 .4243164 .2707367 .4243164 .31950379 .4165039 .35917155 .4008789 .38974 .3761393 .43785606 .3334961 .46191407 .27294923 .46191407 .21923828 .46191407 .18017578 .44143168 .15576172 .40046693 .13134766 .35950218 .119140628 .31008403 .119140628 .25221253 .119140628 .1966095 .13134766 .15027364 .15576172 .113204959 .18017578 .076146449 .21891277 .057617189 .27197267 .057617189M.27539063 .53808596C.34277345 .53808596 .3997396 .5156453 .44628907 .47076417 .49283854 .42588298 .5161133 .35985819 .5161133 .27268983 .5161133 .1884613 .49560548 .11886088 .45458985 .06388855 .41357423 .008926392 .3499349-.018554688 .26367188-.018554688 .19173177-.018554688 .13460286 .00575765 .092285159 .054382326 .04996745 .103006999 .028808594 .16829936 .028808594 .2502594 .028808594 .33806864 .05110677 .4079895 .095703128 .46002198 .14029949 .51206466 .20019531 .53808596 .27539063 .53808596M.27246095 .5361328V.5361328Z"/>
<path id="font_2_33" d="M.064453128 .5234375H.14794922V.44921876C.1726888 .47981773 .19889324 .50179037 .2265625 .5151367 .25423179 .5284831 .2849935 .53515627 .31884767 .53515627 .3930664 .53515627 .44319663 .5092519 .46923829 .45744325 .4835612 .42910258 .49072267 .38853965 .49072267 .3357544V0H.4013672V.3299408C.4013672 .36188255 .39664714 .38762919 .38720704 .4071808 .37158204 .4397634 .34326173 .4560547 .3022461 .4560547 .28141276 .4560547 .2643229 .4539388 .25097657 .44970704 .22688802 .4425354 .20572917 .42819724 .1875 .4066925 .17285156 .38941957 .16333008 .37157694 .15893555 .35316468 .15454102 .3347524 .15234375 .30844117 .15234375 .27423097V0H.064453128V.5234375M.2709961 .5361328V.5361328Z"/>
<path id="font_3_1" d="M0 0Z"/>
<path id="font_2_24" d="M.26611329 .53808596C.32503257 .53808596 .37296549 .5237274 .4099121 .49501039 .44685874 .46629334 .46907554 .41684977 .4765625 .3466797H.39111329C.38590495 .37890626 .37402345 .40568034 .35546876 .42700196 .33691407 .44832359 .3071289 .45898438 .26611329 .45898438 .2101237 .45898438 .17008464 .43170677 .1459961 .3771515 .1303711 .34176127 .122558597 .29808555 .122558597 .24612427 .122558597 .19384766 .1336263 .14984639 .15576172 .11412048 .17789714 .07840475 .21272786 .060546876 .2602539 .060546876 .29671226 .060546876 .3256022 .0716095 .34692384 .09373474 .36824546 .115859989 .38297526 .1461385 .39111329 .18457031H.4765625C.46679688 .115234378 .4423828 .06453451 .4033203 .032470704 .3642578 .00040690104 .31429038-.015625 .25341798-.015625 .1850586-.015625 .13053386 .009379069 .08984375 .059387208 .049153646 .10940552 .028808594 .17188008 .028808594 .24681092 .028808594 .33868919 .05110677 .41020204 .095703128 .4613495 .14029949 .51250717 .19710286 .53808596 .26611329 .53808596M.2524414 .5361328V.5361328Z"/>
<path id="font_2_8" d="M.110839847 .51660159H.21289063V.41015626H.110839847V.51660159M.110839847 .10644531H.21289063V0H.110839847V.10644531Z"/>
<path id="font_2_9" d="M.44433595 .2939453 .33544923 .61120608 .21972656 .2939453H.44433595M.28466798 .71777346H.39453126L.65478518 0H.54833987L.47558595 .21484375H.19189453L.11425781 0H.0146484379L.28466798 .71777346M.33496095 .71777346V.71777346Z"/>
<path id="font_2_25" d="M.12011719 .2553711C.12011719 .19923909 .1319987 .15224712 .15576172 .11439514 .17952474 .076543178 .21761067 .057617189 .27001954 .057617189 .31070964 .057617189 .3441569 .075154628 .37036134 .11022949 .39656578 .14531453 .40966798 .19565328 .40966798 .26124574 .40966798 .32748924 .39615885 .37651573 .36914063 .4083252 .3421224 .44014488 .3087565 .4560547 .26904298 .4560547 .22477214 .4560547 .18888347 .4390869 .16137696 .40515138 .13387044 .37121583 .12011719 .32128907 .12011719 .2553711M.2524414 .53222659C.29248048 .53222659 .32600913 .52381899 .35302735 .5070038 .36865235 .4972992 .38639323 .48031617 .40625 .4560547V.71875H.49072267V0H.4116211V.07229614C.39111329 .04023234 .36686198 .017074585 .3388672 .002822876 .3108724-.011428833 .2788086-.018554688 .24267578-.018554688 .18440755-.018554688 .13395183 .0059407555 .091308597 .05493164 .048665365 .10392252 .02734375 .16910808 .02734375 .25048829 .02734375 .32666017 .04679362 .39265953 .08569336 .44848634 .1245931 .5043132 .18017578 .53222659 .2524414 .53222659Z"/>
<path id="font_2_15" d="M.40966798 .38867188C.45524089 .38867188 .49129234 .39778648 .51782229 .41601563 .54435226 .43424479 .5576172 .4671224 .5576172 .51464846 .5576172 .5657552 .5390625 .60058596 .5019531 .6191406 .48209635 .62890627 .4555664 .63378909 .42236329 .63378909H.1850586V.38867188H.40966798M.087890628 .71777346H.41992188C.47460938 .71777346 .51969406 .709788 .5551758 .69381716 .6225586 .6631775 .65625 .60662338 .65625 .52415469 .65625 .48112489 .6473796 .44591777 .6296387 .41853334 .61189779 .39115907 .58707687 .36916099 .5551758 .35253907 .5831706 .34114585 .60424807 .32617188 .6184082 .3076172 .63256838 .2890625 .6404622 .2589518 .64208987 .21728516L.6455078 .12109375C.6464844 .09388224 .648763 .07363383 .65234377 .06034851 .6582031 .037663778 .6686198 .023081461 .68359377 .016601563V0H.5644531C.56119796 .006184896 .55859377 .014160156 .5566406 .023925782 .5546875 .033691408 .5530599 .052571615 .5517578 .080566409L.54589846 .20019531C.5436198 .24707031 .5262044 .27848307 .49365235 .2944336 .47509767 .30322267 .44596354 .3076172 .40625 .3076172H.1850586V0H.087890628V.71777346Z"/>
<path id="font_2_11" d="M.08544922 .71777346H.60839846V.6298828H.18017578V.41210938H.5761719V.32910157H.18017578V.0859375H.61572268V0H.08544922V.71777346M.35058595 .71777346V.71777346Z"/>
<path id="font_2_10" d="M.3515625 .08300781C.3844401 .08300781 .41145835 .08642578 .4326172 .09326172 .4703776 .10595703 .50130209 .1303711 .5253906 .1665039 .5445964 .19547527 .55843099 .23258464 .56689456 .27783204 .57177737 .30485026 .57421877 .32991538 .57421877 .35302735 .57421877 .44189454 .55655929 .51090499 .52124026 .5600586 .48592124 .6092122 .42903648 .63378909 .35058595 .63378909H.17822266V.08300781H.3515625M.080566409 .71777346H.37109376C.46972657 .71777346 .54622396 .6827545 .60058596 .6127167 .64908859 .54952499 .67333987 .46857707 .67333987 .36987306 .67333987 .2936503 .6590169 .22475688 .6303711 .16319275 .57991537 .054397584 .49316407 0 .3701172 0H.080566409V.71777346Z"/>
<path id="font_2_20" d="M.123535159 .71777346 .25878907 .1343689 .42089845 .71777346H.5263672L.68847659 .13233948 .82373049 .71777346H.9301758L.7416992 0H.63964846L.4741211 .59513857 .3076172 0H.2055664L.018066407 .71777346H.123535159Z"/>
<path id="font_2_12" d="M.09814453 .71777346H.19628906V0H.09814453V.71777346Z"/>
<path id="font_2_17" d="M.59814456 .71777346V.63183596H.3564453V0H.2578125V.63183596H.016113282V.71777346H.59814456Z"/>
<path id="font_2_6" d="M.29248048 .70214846C.37060548 .70214846 .42504884 .6818288 .45581056 .6411896 .48657228 .6005605 .5019531 .5587056 .5019531 .515625H.41503907C.40983073 .5434163 .40152995 .5651601 .39013673 .5808563 .36897788 .61028549 .33691407 .625 .2939453 .625 .24479167 .625 .20572917 .60224917 .17675781 .55674746 .14778646 .5112559 .13167317 .44611613 .12841797 .36132813 .14860027 .39095054 .17399089 .41308595 .20458985 .42773438 .23258464 .44075523 .26383464 .44726563 .29833985 .44726563 .3569336 .44726563 .40804038 .4285482 .45166017 .39111329 .49527995 .35367839 .51708987 .29785157 .51708987 .22363281 .51708987 .16015625 .49641929 .10392252 .45507813 .05493164 .41373698 .0059407555 .35481773-.018554688 .2783203-.018554688 .21289063-.018554688 .15641277 .0062815349 .10888672 .05595398 .061360677 .1056366 .037597658 .18927002 .037597658 .30685426 .037597658 .39382936 .048177083 .4676107 .06933594 .52819827 .11002604 .64416506 .18440755 .70214846 .29248048 .70214846M.2861328 .059570314C.33235679 .059570314 .36694337 .07511393 .38989259 .10620117 .4128418 .1372884 .4243164 .17399089 .4243164 .2163086 .4243164 .25211589 .4140625 .2862142 .3935547 .31860353 .37304688 .35099284 .33577476 .3671875 .28173829 .3671875 .24397786 .3671875 .21085613 .35465495 .18237305 .32958985 .15388997 .30452476 .13964844 .2667643 .13964844 .2163086 .13964844 .17203777 .15258789 .134847 .1784668 .10473633 .2043457 .07462565 .24023438 .059570314 .2861328 .059570314Z"/>
<path id="font_2_21" d="M.020507813 .71777346H.13378906L.33984376 .372818 .54589846 .71777346H.65966799L.38867188 .28926087V0H.2915039V.28926087L.020507813 .71777346M.3413086 .71777346V.71777346Z"/>
<path id="font_2_13" d="M.076171878 .71777346H.19091797L.55322268 .1362915V.71777346H.6455078V0H.5366211L.16894531 .58084109V0H.076171878V.71777346M.3544922 .71777346V.71777346Z"/>
<path id="font_2_5" d="M.3305664 .24902344V.5639038L.10644531 .24902344H.3305664M.33203126 0V.17089844H.025390625V.25827027L.34570313 .7011719H.41992188V.24902344H.5229492V.17089844H.41992188V0H.33203126Z"/>
<path id="font_2_4" d="M.03125 0C.034505208 .060221357 .04695638 .11263021 .068603519 .15722656 .09025065 .20182292 .13248699 .24235027 .1953125 .2788086L.2890625 .3330078C.3310547 .35742188 .3605143 .3782908 .3774414 .39561463 .40413413 .4227346 .41748048 .45377604 .41748048 .488739 .41748048 .52959188 .40527345 .562027 .38085938 .5860443 .3564453 .61006167 .32389323 .6220703 .28320313 .6220703 .22298177 .6220703 .18131511 .5991516 .15820313 .5533142 .14583333 .52875778 .13899739 .4947103 .13769531 .45117188H.048339845C.049316408 .5121663 .060546876 .5619049 .08203125 .6003876 .12011719 .66822817 .18733724 .70214846 .2836914 .70214846 .36376954 .70214846 .4222819 .68047079 .45922853 .6371155 .49617515 .5937703 .51464846 .5455373 .51464846 .49241639 .51464846 .4363556 .49495445 .388443 .4555664 .3486786 .43277995 .3255361 .3919271 .29752604 .3330078 .26464845L.26611329 .22753906C.23421224 .20996094 .20914714 .19319661 .19091797 .1772461 .15836589 .14892578 .13785808 .11751302 .12939453 .08300781H.51123049V0H.03125Z"/>
<path id="font_2_19" d="M.1328125 .71777346 .3388672 .10652161 .54248049 .71777346H.6513672L.38964845 0H.2866211L.025390625 .71777346H.1328125Z"/>
<path id="font_2_2" d="M.2705078 .7001953C.3610026 .7001953 .42643229 .66289779 .46679688 .5883026 .49804688 .5306447 .5136719 .45165 .5136719 .35131837 .5136719 .25620524 .49951173 .17754109 .4711914 .11532593 .43017579 .026072184 .3631185-.018554688 .27001954-.018554688 .18603516-.018554688 .123535159 .017929078 .08251953 .09089661 .048339845 .15180969 .03125 .23357137 .03125 .33618165 .03125 .41565959 .041503908 .48390199 .06201172 .5409088 .10042318 .6470998 .16992188 .7001953 .2705078 .7001953M.26953126 .061523439C.31510417 .061523439 .35139976 .08168539 .37841798 .12200928 .4054362 .16234334 .4189453 .23747762 .4189453 .3474121 .4189453 .42676798 .4091797 .49205528 .38964845 .5432739 .3701172 .59450277 .332194 .6201172 .2758789 .6201172 .2241211 .6201172 .1862793 .59580489 .16235352 .5471802 .13842774 .4985555 .12646485 .42692057 .12646485 .3322754 .12646485 .26105754 .13411458 .20381673 .14941406 .16055298 .17285156 .09453329 .21289063 .061523439 .26953126 .061523439Z"/>
<path id="font_2_3" d="M.095703128 .4951172V.5625C.15917969 .5686849 .20345052 .5790202 .22851563 .59350588 .25358073 .6079915 .2722982 .6422526 .28466798 .69628909H.3540039V0H.2602539V.4951172H.095703128Z"/>
<path id="font_2_41" d="M.28857423 .35839845C.28857423 .32714845 .2784017 .30126954 .25805665 .28076173 .2377116 .2602539 .21191406 .25 .18066406 .25 .14941406 .25 .12361654 .2602539 .103271488 .28076173 .08292643 .30126954 .072753909 .32714845 .072753909 .35839845 .072753909 .38964845 .08292643 .4153646 .103271488 .43554688 .12361654 .45572917 .14941406 .4658203 .18066406 .4658203 .21191406 .4658203 .2377116 .45572917 .25805665 .43554688 .2784017 .4153646 .28857423 .38964845 .28857423 .35839845Z"/>
<path id="font_2_30" d="M.15234375 .61621096H.064453128V.71777346H.15234375V.61621096M-.018554688-.1328125C.020833334-.13151042 .044514974-.12801107 .052490236-.12231445 .060465497-.116617839 .064453128-.09879557 .064453128-.068847659V.52001956H.15234375V-.078125C.15234375-.11621094 .14615886-.14469402 .13378906-.16357422 .11328125-.19514974 .07438151-.2109375 .017089844-.2109375 .012858073-.2109375 .008382161-.21080525 .0036621094-.21054077-.0010579428-.21028646-.008463542-.20976766-.018554688-.20898438V-.1328125Z"/>
<path id="font_2_40" d="M.39111329 .5234375H.48828126C.47591148 .48987834 .44840495 .41330973 .40576173 .2937317 .3738607 .20380657 .34716798 .13049825 .3256836 .07380676 .27490235-.059921266 .23909505-.14145915 .21826172-.17080689 .19742839-.2001648 .1616211-.21484375 .110839847-.21484375 .098470058-.21484375 .08894857-.21435039 .08227539-.21336365 .07560221-.21238709 .06738281-.21058655 .057617189-.20796204V-.1274414C.072916667-.13167317 .083984378-.13427735 .09082031-.1352539 .09765625-.13623047 .10367838-.13671875 .10888672-.13671875 .12516277-.13671875 .13712566-.1340332 .14477539-.12866211 .15242513-.123291019 .15885417-.11669922 .1640625-.10888672 .16569011-.106282558 .17154949-.092936199 .18164063-.068847659 .19173177-.044759115 .19905599-.026855469 .20361328-.015136719L.010253906 .5234375H.10986328L.25 .09727478 .39111329 .5234375M.24951172 .5361328V.5361328Z"/>
<path id="font_2_7" d="M.1328125 .16992188C.13541667 .12141927 .15413411 .087890628 .18896485 .06933594 .20686849 .059570314 .22705078 .0546875 .24951172 .0546875 .2915039 .0546875 .3273112 .07218424 .3569336 .107177738 .386556 .14217122 .4075521 .21321106 .41992188 .32029725 .40039063 .28938294 .3762207 .26765953 .3474121 .25512696 .31860353 .2425944 .28759767 .23632813 .25439454 .23632813 .18701172 .23632813 .13370769 .25727845 .09448242 .29917909 .05525716 .34108988 .03564453 .39501444 .03564453 .46095277 .03564453 .52429708 .05501302 .5800069 .09375 .6280823 .13248699 .67615768 .18961589 .7001953 .26513673 .7001953 .36702476 .7001953 .43733726 .6543579 .47607423 .5626831 .4975586 .5122986 .5083008 .449234 .5083008 .37348939 .5083008 .28799949 .49544273 .21225484 .46972657 .1462555 .42708335 .03638204 .35481773-.018554688 .2529297-.018554688 .18457031-.018554688 .13264974-.0006510417 .09716797 .03515625 .0616862 .07096354 .043945314 .115885417 .043945314 .16992188H.1328125M.26611329 .31347657C.300944 .31347657 .33276368 .32491557 .36157228 .34779359 .39038087 .3706716 .40478517 .4106649 .40478517 .46777345 .40478517 .51904299 .3918457 .557251 .3659668 .58239749 .3400879 .60754397 .3071289 .6201172 .26708985 .6201172 .2241211 .6201172 .19002278 .60575869 .16479492 .5770416 .13956706 .5483246 .12695313 .5099538 .12695313 .46192933 .12695313 .4164988 .13802083 .38039653 .16015625 .35362245 .18229167 .32685853 .21761067 .31347657 .26611329 .31347657Z"/>
<path id="font_2_16" d="M.13964844 .23144531C.14192708 .19064331 .15152996 .1575063 .16845703 .1320343 .2006836 .084376018 .25748698 .060546876 .3388672 .060546876 .37532554 .060546876 .40852867 .06575521 .43847657 .076171878 .49641929 .096354167 .5253906 .13248189 .5253906 .18455506 .5253906 .22361756 .5131836 .25144959 .48876954 .26805116 .46402995 .2843882 .42529298 .29859925 .3725586 .3106842L.27539063 .3327484C.21191406 .3471222 .16699219 .36294047 .140625 .38020326 .095052089 .41016136 .072265628 .4549408 .072265628 .5145416 .072265628 .57902529 .094563808 .6319478 .13916016 .6733093 .18375652 .71467086 .24690755 .73535159 .32861329 .73535159 .4038086 .73535159 .46769206 .7172038 .5202637 .6809082 .57283529 .6446126 .5991211 .58658859 .5991211 .50683596H.5078125C.5029297 .5452474 .49251304 .57470706 .4765625 .59521487 .4469401 .6326497 .39664714 .6513672 .3256836 .6513672 .26839195 .6513672 .22721355 .63931277 .20214844 .61520388 .17708333 .591095 .16455078 .56307479 .16455078 .5311432 .16455078 .49595643 .17919922 .47021995 .2084961 .45393373 .22770183 .44350688 .27115885 .43047587 .3388672 .4148407L.43945313 .39187623C.48795573 .38079835 .5253906 .36565147 .5517578 .34643556 .59733077 .31288658 .6201172 .26419068 .6201172 .2003479 .6201172 .12085978 .59122726 .06401571 .53344729 .029815674 .47566734-.004384359 .40852867-.021484375 .33203126-.021484375 .24283855-.021484375 .17301433 .0013478597 .122558597 .04701233 .07210287 .0923411 .04736328 .15381877 .048339845 .23144531H.13964844M.3359375 .7373047V.7373047Z"/>
<path id="font_2_18" d="M.18164063 .71777346V.27441407C.18164063 .22233074 .19140625 .17903646 .2109375 .14453125 .23990886 .092447917 .28873698 .06640625 .35742188 .06640625 .43977867 .06640625 .49576823 .094563808 .5253906 .1508789 .5413411 .18147786 .5493164 .22265625 .5493164 .27441407V.71777346H.6479492V.3149414C.6479492 .22672527 .6360677 .15885417 .6123047 .111328128 .5686849 .024739584 .48632813-.018554688 .36523438-.018554688 .24414063-.018554688 .16194661 .024739584 .118652347 .111328128 .09488932 .15885417 .08300781 .22672527 .08300781 .3149414V.71777346H.18164063M.36572267 .71777346V.71777346Z"/>
</defs>
<g clip-path="url(#clip_0)">
<g clip-path="url(#clip_1)">
<path transform="matrix(1,0,0,-1,0,540)" d="M0 539.9999H719.9999V.00003079383H0Z" fill="#ffffff" fill-rule="evenodd"/>
<use data-text="P" xlink:href="#font_2_14" transform="matrix(16,0,0,-16,168.1249,14.77499)"/>
<use data-text="a" xlink:href="#font_2_22" transform="matrix(16,0,0,-16,178.79689,14.77499)"/>
<use data-text="g" xlink:href="#font_2_27" transform="matrix(16,0,0,-16,187.69609,14.77499)"/>
<use data-text="e" xlink:href="#font_2_26" transform="matrix(16,0,0,-16,196.59529,14.77499)"/>
<use data-text=" " xlink:href="#font_2_1" transform="matrix(16,0,0,-16,205.49449,14.77499)"/>
<use data-text="t" xlink:href="#font_2_38" transform="matrix(16,0,0,-16,209.9393,14.77499)"/>
<use data-text="a" xlink:href="#font_2_22" transform="matrix(16,0,0,-16,214.3841,14.77499)"/>
<use data-text="b" xlink:href="#font_2_23" transform="matrix(16,0,0,-16,223.2833,14.77499)"/>
<use data-text="l" xlink:href="#font_2_31" transform="matrix(16,0,0,-16,232.1825,14.77499)"/>
<use data-text="e" xlink:href="#font_2_26" transform="matrix(16,0,0,-16,235.7377,14.77499)"/>
<use data-text="s" xlink:href="#font_2_37" transform="matrix(16,0,0,-16,244.6369,14.77499)"/>
<use data-text=" " xlink:href="#font_2_1" transform="matrix(16,0,0,-16,252.6369,14.77499)"/>
<use data-text="w" xlink:href="#font_2_39" transform="matrix(16,0,0,-16,257.0817,14.77499)"/>
<use data-text="i" xlink:href="#font_2_29" transform="matrix(16,0,0,-16,268.6369,14.77499)"/>
<use data-text="t" xlink:href="#font_2_38" transform="matrix(16,0,0,-16,272.19209,14.77499)"/>
<use data-text="h" xlink:href="#font_2_28" transform="matrix(16,0,0,-16,276.6369,14.77499)"/>
<use data-text=" " xlink:href="#font_2_1" transform="matrix(16,0,0,-16,285.5361,14.77499)"/>
<use data-text="p" xlink:href="#font_2_35" transform="matrix(16,0,0,-16,289.9809,14.77499)"/>
<use data-text="e" xlink:href="#font_2_26" transform="matrix(16,0,0,-16,298.8801,14.77499)"/>
<use data-text="r" xlink:href="#font_2_36" transform="matrix(16,0,0,-16,307.7793,14.77499)"/>
<use data-text="m" xlink:href="#font_2_32" transform="matrix(16,0,0,-16,313.1073,14.77499)"/>
<use data-text="i" xlink:href="#font_2_29" transform="matrix(16,0,0,-16,326.4353,14.77499)"/>
<use data-text="s" xlink:href="#font_2_37" transform="matrix(16,0,0,-16,329.9905,14.77499)"/>
<use data-text="s" xlink:href="#font_2_37" transform="matrix(16,0,0,-16,337.9905,14.77499)"/>
<use data-text="i" xlink:href="#font_2_29" transform="matrix(16,0,0,-16,345.9905,14.77499)"/>
<use data-text="o" xlink:href="#font_2_34" transform="matrix(16,0,0,-16,349.54573,14.77499)"/>
<use data-text="n" xlink:href="#font_2_33" transform="matrix(16,0,0,-16,358.44493,14.77499)"/>
<use data-text=" " xlink:href="#font_2_1" transform="matrix(16,0,0,-16,367.34413,14.77499)"/>
<use data-text=" " xlink:href="#font_2_1" transform="matrix(16,0,0,-16,371.7889,14.77499)"/>
<use data-text="b" xlink:href="#font_2_23" transform="matrix(16,0,0,-16,376.2337,14.77499)"/>
<use data-text="i" xlink:href="#font_2_29" transform="matrix(16,0,0,-16,385.1329,14.77499)"/>
<use data-text="t" xlink:href="#font_2_38" transform="matrix(16,0,0,-16,388.6881,14.77499)"/>
<use data-text="s" xlink:href="#font_2_37" transform="matrix(16,0,0,-16,393.1329,14.77499)"/>
<use data-text="&#xfffd;" xlink:href="#font_3_1" transform="matrix(16,0,0,-16,401.1329,14.77499)"/>
<use data-text="P" xlink:href="#font_2_14" transform="matrix(16,0,0,-16,2.12496,94.400089)"/>
<use data-text="r" xlink:href="#font_2_36" transform="matrix(16,0,0,-16,12.796961,94.400089)"/>
<use data-text="o" xlink:href="#font_2_34" transform="matrix(16,0,0,-16,18.12496,94.400089)"/>
<use data-text="c" xlink:href="#font_2_24" transform="matrix(16,0,0,-16,27.02416,94.400089)"/>
<use data-text="e" xlink:href="#font_2_26" transform="matrix(16,0,0,-16,35.024164,94.400089)"/>
<use data-text="s" xlink:href="#font_2_37" transform="matrix(16,0,0,-16,43.923364,94.400089)"/>
<use data-text="s" xlink:href="#font_2_37" transform="matrix(16,0,0,-16,51.923364,94.400089)"/>
<use data-text=" " xlink:href="#font_2_1" transform="matrix(16,0,0,-16,59.923364,94.400089)"/>
<use data-text="i" xlink:href="#font_2_29" transform="matrix(16,0,0,-16,64.368167,94.400089)"/>
<use data-text=":" xlink:href="#font_2_8" transform="matrix(16,0,0,-16,67.92336,94.400089)"/>
<use data-text="&#xfffd;" xlink:href="#font_3_1" transform="matrix(16,0,0,-16,72.368167,94.400089)"/>
<use data-text="A" xlink:href="#font_2_9" transform="matrix(16,0,0,-16,334.25,48.90008)"/>
<use data-text="d" xlink:href="#font_2_25" transform="matrix(16,0,0,-16,344.922,48.90008)"/>
<use data-text="d" xlink:href="#font_2_25" transform="matrix(16,0,0,-16,353.8212,48.90008)"/>
<use data-text="r" xlink:href="#font_2_36" transform="matrix(16,0,0,-16,362.7204,48.90008)"/>
<use data-text="e" xlink:href="#font_2_26" transform="matrix(16,0,0,-16,368.0484,48.90008)"/>
<use data-text="s" xlink:href="#font_2_37" transform="matrix(16,0,0,-16,376.9476,48.90008)"/>
<use data-text="s" xlink:href="#font_2_37" transform="matrix(16,0,0,-16,384.9476,48.90008)"/>
<use data-text="&#xfffd;" xlink:href="#font_3_1" transform="matrix(16,0,0,-16,392.9476,48.90008)"/>
<use data-text="R" xlink:href="#font_2_15" transform="matrix(16,0,0,-16,197.1249,48.90008)"/>
<use data-text="E" xlink:href="#font_2_11" transform="matrix(16,0,0,-16,208.6801,48.90008)"/>
<use data-text="A" xlink:href="#font_2_9" transform="matrix(16,0,0,-16,219.3521,48.90008)"/>
<use data-text="D" xlink:href="#font_2_10" transform="matrix(16,0,0,-16,230.0241,48.90008)"/>
<use data-text="&#xfffd;" xlink:href="#font_3_1" transform="matrix(16,0,0,-16,241.5793,48.90008)"/>
<use data-text="W" xlink:href="#font_2_20" transform="matrix(16,0,0,-16,257.1249,48.90008)"/>
<use data-text="R" xlink:href="#font_2_15" transform="matrix(16,0,0,-16,272.2257,48.90008)"/>
<use data-text="I" xlink:href="#font_2_12" transform="matrix(16,0,0,-16,283.7809,48.90008)"/>
<use data-text="T" xlink:href="#font_2_17" transform="matrix(16,0,0,-16,288.2257,48.90008)"/>
<use data-text="E" xlink:href="#font_2_11" transform="matrix(16,0,0,-16,297.9985,48.90008)"/>
<use data-text="&#xfffd;" xlink:href="#font_3_1" transform="matrix(16,0,0,-16,308.6705,48.90008)"/>
<path transform="matrix(1,0,0,-1,0,540)" d="M304 484.9999H423.9999V460.9999H304Z" fill="#ffffff" fill-rule="evenodd"/>
<path transform="matrix(.00007874014,0,0,.00007874014,304,55.00009)" stroke-width="12700" stroke-linecap="butt" stroke-miterlimit="8" stroke-linejoin="miter" fill="none" stroke="#000000" d="M-.0438233 .327881H1524000V304800.4H-.0438233Z"/>
<use data-text="P" xlink:href="#font_2_14" transform="matrix(16,0,0,-16,346.1249,73.400089)"/>
<use data-text="P" xlink:href="#font_2_14" transform="matrix(16,0,0,-16,356.7969,73.400089)"/>
<use data-text=" " xlink:href="#font_2_1" transform="matrix(16,0,0,-16,367.18733,73.400089)"/>
<use data-text="6" xlink:href="#font_2_6" transform="matrix(16,0,0,-16,371.6321,73.400089)"/>
<use data-text="&#xfffd;" xlink:href="#font_3_1" transform="matrix(16,0,0,-16,380.5313,73.400089)"/>
<path transform="matrix(1,0,0,-1,0,540)" d="M196 484.9999H250V460.9999H196Z" fill="#ffffff" fill-rule="evenodd"/>
<path transform="matrix(.00007874014,0,0,.00007874014,196,55.00009)" stroke-width="12700" stroke-linecap="butt" stroke-miterlimit="8" stroke-linejoin="miter" fill="none" stroke="#000000" d="M-.06097415 .327881H685799.9V304800.4H-.06097415Z"/>
<use data-text="Y" xlink:href="#font_2_21" transform="matrix(16,0,0,-16,210.1249,73.400089)"/>
<use data-text="e" xlink:href="#font_2_26" transform="matrix(16,0,0,-16,219.3281,73.400089)"/>
<use data-text="s" xlink:href="#font_2_37" transform="matrix(16,0,0,-16,228.2273,73.400089)"/>
<use data-text="&#xfffd;" xlink:href="#font_3_1" transform="matrix(16,0,0,-16,236.2273,73.400089)"/>
<path transform="matrix(1,0,0,-1,0,540)" d="M250 484.9999H304V460.9999H250Z" fill="#ffffff" fill-rule="evenodd"/>
<path transform="matrix(.00007874014,0,0,.00007874014,250,55.00009)" stroke-width="12700" stroke-linecap="butt" stroke-miterlimit="8" stroke-linejoin="miter" fill="none" stroke="#000000" d="M-.1492921 .327881H685799.9V304800.4H-.1492921Z"/>
<use data-text="N" xlink:href="#font_2_13" transform="matrix(16,0,0,-16,266.1249,73.400089)"/>
<use data-text="o" xlink:href="#font_2_34" transform="matrix(16,0,0,-16,277.6801,73.400089)"/>
<use data-text="&#xfffd;" xlink:href="#font_3_1" transform="matrix(16,0,0,-16,286.5793,73.400089)"/>
<path transform="matrix(1,0,0,-1,0,540)" d="M304 460.9999H423.9999V436.9999H304Z" fill="#ffffff" fill-rule="evenodd"/>
<path transform="matrix(.00007874014,0,0,.00007874014,304,79.00009)" stroke-width="12700" stroke-linecap="butt" stroke-miterlimit="8" stroke-linejoin="miter" fill="none" stroke="#000000" d="M-.0438233-.125244H1524000V304799.9H-.0438233Z"/>
<use data-text="P" xlink:href="#font_2_14" transform="matrix(16,0,0,-16,347.1249,97.400089)"/>
<use data-text="P" xlink:href="#font_2_14" transform="matrix(16,0,0,-16,357.7969,97.400089)"/>
<use data-text=" " xlink:href="#font_2_1" transform="matrix(16,0,0,-16,368.18733,97.400089)"/>
<use data-text="4" xlink:href="#font_2_5" transform="matrix(16,0,0,-16,372.6321,97.400089)"/>
<use data-text="&#xfffd;" xlink:href="#font_3_1" transform="matrix(16,0,0,-16,381.5313,97.400089)"/>
<path transform="matrix(1,0,0,-1,0,540)" d="M196 460.9999H250V436.9999H196Z" fill="#ffffff" fill-rule="evenodd"/>
<path transform="matrix(.00007874014,0,0,.00007874014,196,79.00009)" stroke-width="12700" stroke-linecap="butt" stroke-miterlimit="8" stroke-linejoin="miter" fill="none" stroke="#000000" d="M-.06097415-.125244H685799.9V304799.9H-.06097415Z"/>
<use data-text="Y" xlink:href="#font_2_21" transform="matrix(16,0,0,-16,210.1249,97.400089)"/>
<use data-text="e" xlink:href="#font_2_26" transform="matrix(16,0,0,-16,219.3281,97.400089)"/>
<use data-text="s" xlink:href="#font_2_37" transform="matrix(16,0,0,-16,228.2273,97.400089)"/>
<use data-text="&#xfffd;" xlink:href="#font_3_1" transform="matrix(16,0,0,-16,236.2273,97.400089)"/>
<path transform="matrix(1,0,0,-1,0,540)" d="M250 460.9999H304V436.9999H250Z" fill="#ffffff" fill-rule="evenodd"/>
<path transform="matrix(.00007874014,0,0,.00007874014,250,79.00009)" stroke-width="12700" stroke-linecap="butt" stroke-miterlimit="8" stroke-linejoin="miter" fill="none" stroke="#000000" d="M-.1492921-.125244H685799.9V304799.9H-.1492921Z"/>
<use data-text="Y" xlink:href="#font_2_21" transform="matrix(16,0,0,-16,264.1249,97.400089)"/>
<use data-text="e" xlink:href="#font_2_26" transform="matrix(16,0,0,-16,273.32814,97.400089)"/>
<use data-text="s" xlink:href="#font_2_37" transform="matrix(16,0,0,-16,282.2273,97.400089)"/>
<use data-text="&#xfffd;" xlink:href="#font_3_1" transform="matrix(16,0,0,-16,290.2273,97.400089)"/>
<path transform="matrix(1,0,0,-1,0,540)" d="M304 436.9999H423.9999V412.9999H304Z" fill="#ffffff" fill-rule="evenodd"/>
<path transform="matrix(.00007874014,0,0,.00007874014,304,103.00009)" stroke-width="12700" stroke-linecap="butt" stroke-miterlimit="8" stroke-linejoin="miter" fill="none" stroke="#000000" d="M-.0438233-.07836902H1524000V304800H-.0438233Z"/>
<use data-text="P" xlink:href="#font_2_14" transform="matrix(16,0,0,-16,346.1249,121.400089)"/>
<use data-text="P" xlink:href="#font_2_14" transform="matrix(16,0,0,-16,356.7969,121.400089)"/>
<use data-text=" " xlink:href="#font_2_1" transform="matrix(16,0,0,-16,367.18733,121.400089)"/>
<use data-text="2" xlink:href="#font_2_4" transform="matrix(16,0,0,-16,371.6321,121.400089)"/>
<use data-text="&#xfffd;" xlink:href="#font_3_1" transform="matrix(16,0,0,-16,380.5313,121.400089)"/>
<path transform="matrix(1,0,0,-1,0,540)" d="M196 436.9999H250V412.9999H196Z" fill="#ffffff" fill-rule="evenodd"/>
<path transform="matrix(.00007874014,0,0,.00007874014,196,103.00009)" stroke-width="12700" stroke-linecap="butt" stroke-miterlimit="8" stroke-linejoin="miter" fill="none" stroke="#000000" d="M-.06097415-.07836902H685799.9V304800H-.06097415Z"/>
<use data-text="Y" xlink:href="#font_2_21" transform="matrix(16,0,0,-16,210.1249,121.400089)"/>
<use data-text="e" xlink:href="#font_2_26" transform="matrix(16,0,0,-16,219.3281,121.400089)"/>
<use data-text="s" xlink:href="#font_2_37" transform="matrix(16,0,0,-16,228.2273,121.400089)"/>
<use data-text="&#xfffd;" xlink:href="#font_3_1" transform="matrix(16,0,0,-16,236.2273,121.400089)"/>
<use data-text="V" xlink:href="#font_2_19" transform="matrix(16,0,0,-16,101.1249,72.525089)"/>
<use data-text="P" xlink:href="#font_2_14" transform="matrix(16,0,0,-16,111.796909,72.525089)"/>
<use data-text=" " xlink:href="#font_2_1" transform="matrix(16,0,0,-16,122.1873,72.525089)"/>
<use data-text="0" xlink:href="#font_2_2" transform="matrix(16,0,0,-16,126.6321,72.525089)"/>
<use data-text=":" xlink:href="#font_2_8" transform="matrix(16,0,0,-16,135.53131,72.525089)"/>
<use data-text="&#xfffd;" xlink:href="#font_3_1" transform="matrix(16,0,0,-16,139.9761,72.525089)"/>
<use data-text="V" xlink:href="#font_2_19" transform="matrix(16,0,0,-16,101.1249,96.525089)"/>
<use data-text="P" xlink:href="#font_2_14" transform="matrix(16,0,0,-16,111.796909,96.525089)"/>
<use data-text=" " xlink:href="#font_2_1" transform="matrix(16,0,0,-16,122.1873,96.525089)"/>
<use data-text="1" xlink:href="#font_2_3" transform="matrix(16,0,0,-16,126.6321,96.525089)"/>
<use data-text=":" xlink:href="#font_2_8" transform="matrix(16,0,0,-16,135.53131,96.525089)"/>
<use data-text="&#xfffd;" xlink:href="#font_3_1" transform="matrix(16,0,0,-16,139.9761,96.525089)"/>
<use data-text="V" xlink:href="#font_2_19" transform="matrix(16,0,0,-16,101.1249,120.525089)"/>
<use data-text="P" xlink:href="#font_2_14" transform="matrix(16,0,0,-16,111.796909,120.525089)"/>
<use data-text=" " xlink:href="#font_2_1" transform="matrix(16,0,0,-16,122.1873,120.525089)"/>
<use data-text="2" xlink:href="#font_2_4" transform="matrix(16,0,0,-16,126.6321,120.525089)"/>
<use data-text=":" xlink:href="#font_2_8" transform="matrix(16,0,0,-16,135.53131,120.525089)"/>
<use data-text="&#xfffd;" xlink:href="#font_3_1" transform="matrix(16,0,0,-16,139.9761,120.525089)"/>
<use data-text="&#x2022;" xlink:href="#font_2_41" transform="matrix(16,0,0,-16,279.825,144.6)"/>
<use data-text="&#xfffd;" xlink:href="#font_3_1" transform="matrix(16,0,0,-16,278.06718,153.6)"/>
<use data-text="&#x2022;" xlink:href="#font_2_41" transform="matrix(16,0,0,-16,279.825,163.6)"/>
<use data-text="&#xfffd;" xlink:href="#font_3_1" transform="matrix(16,0,0,-16,278.06718,172.6)"/>
<use data-text="&#x2022;" xlink:href="#font_2_41" transform="matrix(16,0,0,-16,279.825,182.6)"/>
<use data-text="P" xlink:href="#font_2_14" transform="matrix(16,0,0,-16,2.12496,268.4)"/>
<use data-text="r" xlink:href="#font_2_36" transform="matrix(16,0,0,-16,12.796961,268.4)"/>
<use data-text="o" xlink:href="#font_2_34" transform="matrix(16,0,0,-16,18.12496,268.4)"/>
<use data-text="c" xlink:href="#font_2_24" transform="matrix(16,0,0,-16,27.02416,268.4)"/>
<use data-text="e" xlink:href="#font_2_26" transform="matrix(16,0,0,-16,35.024164,268.4)"/>
<use data-text="s" xlink:href="#font_2_37" transform="matrix(16,0,0,-16,43.923364,268.4)"/>
<use data-text="s" xlink:href="#font_2_37" transform="matrix(16,0,0,-16,51.923364,268.4)"/>
<use data-text=" " xlink:href="#font_2_1" transform="matrix(16,0,0,-16,59.923364,268.4)"/>
<use data-text="j" xlink:href="#font_2_30" transform="matrix(16,0,0,-16,64.368167,268.4)"/>
<use data-text=":" xlink:href="#font_2_8" transform="matrix(16,0,0,-16,67.92336,268.4)"/>
<use data-text="&#xfffd;" xlink:href="#font_3_1" transform="matrix(16,0,0,-16,72.368167,268.4)"/>
<path transform="matrix(1,0,0,-1,0,540)" d="M572.1249 467.1249H644.1249V449.1249H572.1249Z" fill="#ffffff" fill-rule="evenodd"/>
<path transform="matrix(.00007874014,0,0,.00007874014,572.1249,72.87509)" stroke-width="19050" stroke-linecap="butt" stroke-miterlimit="8" stroke-linejoin="miter" fill="none" stroke="#000000" d="M-.157715 .2503664H914400V228600.3H-.157715Z"/>
<path transform="matrix(1,0,0,-1,0,540)" d="M572.1249 449.1249H644.1249V431.1249H572.1249Z" fill="#ffffff" fill-rule="evenodd"/>
<path transform="matrix(.00007874014,0,0,.00007874014,572.1249,90.87509)" stroke-width="19050" stroke-linecap="butt" stroke-miterlimit="8" stroke-linejoin="miter" fill="none" stroke="#000000" d="M-.157715 .2855226H914400V228600.3H-.157715Z"/>
<path transform="matrix(1,0,0,-1,0,540)" d="M572.1249 431.1249H644.1249V413.1249H572.1249Z" fill="#cbcbcb" fill-rule="evenodd"/>
<path transform="matrix(.00007874014,0,0,.00007874014,572.1249,108.87509)" stroke-width="19050" stroke-linecap="butt" stroke-miterlimit="8" stroke-linejoin="miter" fill="none" stroke="#000000" d="M-.157715 .3206789H914400V228600.4H-.157715Z"/>
<path transform="matrix(1,0,0,-1,0,540)" d="M572.1249 413.1249H644.1249V395.1249H572.1249Z" fill="#ffffff" fill-rule="evenodd"/>
<path transform="matrix(.00007874014,0,0,.00007874014,572.1249,126.87509)" stroke-width="19050" stroke-linecap="butt" stroke-miterlimit="8" stroke-linejoin="miter" fill="none" stroke="#000000" d="M-.157715-.1441649H914400V228599.9H-.157715Z"/>
<path transform="matrix(1,0,0,-1,0,540)" d="M572.1249 395.1249H644.1249V377.1249H572.1249Z" fill="#cbcbcb" fill-rule="evenodd"/>
<path transform="matrix(.00007874014,0,0,.00007874014,572.1249,144.87509)" stroke-width="19050" stroke-linecap="butt" stroke-miterlimit="8" stroke-linejoin="miter" fill="none" stroke="#000000" d="M-.157715-.1090086H914400V228599.9H-.157715Z"/>
<path transform="matrix(1,0,0,-1,0,540)" d="M572.1249 359.1249H644.1249V341.1249H572.1249Z" fill="#cbcbcb" fill-rule="evenodd"/>
<path transform="matrix(.00007874014,0,0,.00007874014,572.1249,180.87509)" stroke-width="19050" stroke-linecap="butt" stroke-miterlimit="8" stroke-linejoin="miter" fill="none" stroke="#000000" d="M-.157715 .07373059H914400V228600.1H-.157715Z"/>
<path transform="matrix(1,0,0,-1,0,540)" d="M572.1249 377.1249H644.1249V359.1249H572.1249Z" fill="#ffffff" fill-rule="evenodd"/>
<path transform="matrix(.00007874014,0,0,.00007874014,572.1249,162.87509)" stroke-width="19050" stroke-linecap="butt" stroke-miterlimit="8" stroke-linejoin="miter" fill="none" stroke="#000000" d="M-.157715-.07385236H914400V228600H-.157715Z"/>
<path transform="matrix(1,0,0,-1,0,540)" d="M572.1249 341.1249H644.1249V323.1249H572.1249Z" fill="#ffffff" fill-rule="evenodd"/>
<path transform="matrix(.00007874014,0,0,.00007874014,572.1249,198.87509)" stroke-width="19050" stroke-linecap="butt" stroke-miterlimit="8" stroke-linejoin="miter" fill="none" stroke="#000000" d="M-.157715 .1088868H914400V228600.1H-.157715Z"/>
<path transform="matrix(1,0,0,-1,0,540)" d="M572.1249 323.1249H644.1249V305.1249H572.1249Z" fill="#ffffff" fill-rule="evenodd"/>
<path transform="matrix(.00007874014,0,0,.00007874014,572.1249,216.87509)" stroke-width="19050" stroke-linecap="butt" stroke-miterlimit="8" stroke-linejoin="miter" fill="none" stroke="#000000" d="M-.157715 .1440431H914400V228600.2H-.157715Z"/>
<path transform="matrix(1,0,0,-1,0,540)" d="M572.1249 305.1249H644.1249V287.1249H572.1249Z" fill="#cbcbcb" fill-rule="evenodd"/>
<path transform="matrix(.00007874014,0,0,.00007874014,572.1249,234.87509)" stroke-width="19050" stroke-linecap="butt" stroke-miterlimit="8" stroke-linejoin="miter" fill="none" stroke="#000000" d="M-.157715 .1791993H914400V228600.2H-.157715Z"/>
<path transform="matrix(1,0,0,-1,0,540)" d="M572.1249 287.1249H644.1249V269.1249H572.1249Z" fill="#ffffff" fill-rule="evenodd"/>
<path transform="matrix(.00007874014,0,0,.00007874014,572.1249,252.87509)" stroke-width="19050" stroke-linecap="butt" stroke-miterlimit="8" stroke-linejoin="miter" fill="none" stroke="#000000" d="M-.157715-.03564441H914400V228600H-.157715Z"/>
<path transform="matrix(1,0,0,-1,0,540)" d="M572.1249 269.1249H644.1249V251.1249H572.1249Z" fill="#cbcbcb" fill-rule="evenodd"/>
<path transform="matrix(.00007874014,0,0,.00007874014,572.1249,270.8751)" stroke-width="19050" stroke-linecap="butt" stroke-miterlimit="8" stroke-linejoin="miter" fill="none" stroke="#000000" d="M-.157715-.000488162H914400V228600H-.157715Z"/>
<use data-text="P" xlink:href="#font_2_14" transform="matrix(16,0,0,-16,651.2499,90.400089)"/>
<use data-text="P" xlink:href="#font_2_14" transform="matrix(16,0,0,-16,661.9219,90.400089)"/>
<use data-text=" " xlink:href="#font_2_1" transform="matrix(16,0,0,-16,672.31228,90.400089)"/>
<use data-text="0" xlink:href="#font_2_2" transform="matrix(16,0,0,-16,676.7571,90.400089)"/>
<use data-text="&#xfffd;" xlink:href="#font_3_1" transform="matrix(16,0,0,-16,685.65628,90.400089)"/>
<use data-text="P" xlink:href="#font_2_14" transform="matrix(16,0,0,-16,545.2499,48.77508)"/>
<use data-text="h" xlink:href="#font_2_28" transform="matrix(16,0,0,-16,555.9219,48.77508)"/>
<use data-text="y" xlink:href="#font_2_40" transform="matrix(16,0,0,-16,564.8211,48.77508)"/>
<use data-text="s" xlink:href="#font_2_37" transform="matrix(16,0,0,-16,572.8211,48.77508)"/>
<use data-text="i" xlink:href="#font_2_29" transform="matrix(16,0,0,-16,580.8211,48.77508)"/>
<use data-text="c" xlink:href="#font_2_24" transform="matrix(16,0,0,-16,584.3763,48.77508)"/>
<use data-text="a" xlink:href="#font_2_22" transform="matrix(16,0,0,-16,592.3763,48.77508)"/>
<use data-text="l" xlink:href="#font_2_31" transform="matrix(16,0,0,-16,601.2755,48.77508)"/>
<use data-text=" " xlink:href="#font_2_1" transform="matrix(16,0,0,-16,604.8307,48.77508)"/>
<use data-text="m" xlink:href="#font_2_32" transform="matrix(16,0,0,-16,609.2755,48.77508)"/>
<use data-text="e" xlink:href="#font_2_26" transform="matrix(16,0,0,-16,622.6035,48.77508)"/>
<use data-text="m" xlink:href="#font_2_32" transform="matrix(16,0,0,-16,631.5027,48.77508)"/>
<use data-text="o" xlink:href="#font_2_34" transform="matrix(16,0,0,-16,644.8307,48.77508)"/>
<use data-text="r" xlink:href="#font_2_36" transform="matrix(16,0,0,-16,653.7299,48.77508)"/>
<use data-text="y" xlink:href="#font_2_40" transform="matrix(16,0,0,-16,659.0579,48.77508)"/>
<use data-text="&#xfffd;" xlink:href="#font_3_1" transform="matrix(16,0,0,-16,667.0579,48.77508)"/>
<path transform="matrix(1,0,0,-1,0,540)" d="M250 436.9999H304V412.9999H250Z" fill="#ffffff" fill-rule="evenodd"/>
<path transform="matrix(.00007874014,0,0,.00007874014,250,103.00009)" stroke-width="12700" stroke-linecap="butt" stroke-miterlimit="8" stroke-linejoin="miter" fill="none" stroke="#000000" d="M-.1492921-.07836902H685799.9V304800H-.1492921Z"/>
<use data-text="Y" xlink:href="#font_2_21" transform="matrix(16,0,0,-16,264.1249,121.400089)"/>
<use data-text="e" xlink:href="#font_2_26" transform="matrix(16,0,0,-16,273.32814,121.400089)"/>
<use data-text="s" xlink:href="#font_2_37" transform="matrix(16,0,0,-16,282.2273,121.400089)"/>
<use data-text="&#xfffd;" xlink:href="#font_3_1" transform="matrix(16,0,0,-16,290.2273,121.400089)"/>
<use data-text="&#x2022;" xlink:href="#font_2_41" transform="matrix(16,0,0,-16,607.325,306.4751)"/>
<use data-text="&#xfffd;" xlink:href="#font_3_1" transform="matrix(16,0,0,-16,605.5672,315.4751)"/>
<use data-text="&#x2022;" xlink:href="#font_2_41" transform="matrix(16,0,0,-16,607.325,325.4751)"/>
<use data-text="&#xfffd;" xlink:href="#font_3_1" transform="matrix(16,0,0,-16,605.5672,334.4751)"/>
<use data-text="&#x2022;" xlink:href="#font_2_41" transform="matrix(16,0,0,-16,607.325,344.4751)"/>
<path transform="matrix(.00007874014,0,0,.00007874014,401,66.00009)" stroke-width="12700" stroke-linecap="butt" stroke-linejoin="round" fill="none" stroke="#000000" d="M-.1043702-.1506346 2125532 1496676"/>
<path transform="matrix(1,0,0,-1,0,540)" d="M566.8214 360.9073 569.9999 354.9999 563.3669 356.0014Z" fill-rule="evenodd"/>
<path transform="matrix(1,0,0,-1,0,540)" d="M398.9999 473.9999C398.9999 475.6568 400.3431 476.9999 401.9999 476.9999 403.6568 476.9999 404.9999 475.6568 404.9999 473.9999 404.9999 472.3431 403.6568 470.9999 401.9999 470.9999 400.3431 470.9999 398.9999 472.3431 398.9999 473.9999Z" fill-rule="evenodd"/>
<path transform="matrix(.00007874014,0,0,.00007874014,398.9999,63.00009)" stroke-width="12700" stroke-linecap="butt" stroke-linejoin="round" fill="none" stroke="#000000" d="M.004150271 38100.35C.004150271 17058.22 17057.88 .343506 38100.01 .343506 59142.14 .343506 76200.02 17058.22 76200.02 38100.35 76200.02 59142.48 59142.14 76200.35 38100.01 76200.35 17057.88 76200.35 .004150271 59142.48 .004150271 38100.35Z"/>
<use data-text="P" xlink:href="#font_2_14" transform="matrix(16,0,0,-16,651.2499,162.4)"/>
<use data-text="P" xlink:href="#font_2_14" transform="matrix(16,0,0,-16,661.9219,162.4)"/>
<use data-text=" " xlink:href="#font_2_1" transform="matrix(16,0,0,-16,672.31228,162.4)"/>
<use data-text="4" xlink:href="#font_2_5" transform="matrix(16,0,0,-16,676.7571,162.4)"/>
<use data-text="&#xfffd;" xlink:href="#font_3_1" transform="matrix(16,0,0,-16,685.65628,162.4)"/>
<use data-text="P" xlink:href="#font_2_14" transform="matrix(16,0,0,-16,651.2499,198.77509)"/>
<use data-text="P" xlink:href="#font_2_14" transform="matrix(16,0,0,-16,661.9219,198.77509)"/>
<use data-text=" " xlink:href="#font_2_1" transform="matrix(16,0,0,-16,672.31228,198.77509)"/>
<use data-text="6" xlink:href="#font_2_6" transform="matrix(16,0,0,-16,676.7571,198.77509)"/>
<use data-text="&#xfffd;" xlink:href="#font_3_1" transform="matrix(16,0,0,-16,685.65628,198.77509)"/>
<use data-text="P" xlink:href="#font_2_14" transform="matrix(16,0,0,-16,651.2499,252.4)"/>
<use data-text="P" xlink:href="#font_2_14" transform="matrix(16,0,0,-16,661.9219,252.4)"/>
<use data-text=" " xlink:href="#font_2_1" transform="matrix(16,0,0,-16,672.31228,252.4)"/>
<use data-text="9" xlink:href="#font_2_7" transform="matrix(16,0,0,-16,676.7571,252.4)"/>
<use data-text="&#xfffd;" xlink:href="#font_3_1" transform="matrix(16,0,0,-16,685.65628,252.4)"/>
<use data-text="S" xlink:href="#font_2_16" transform="matrix(16,0,0,-16,151.6249,48.90008)"/>
<use data-text="U" xlink:href="#font_2_18" transform="matrix(16,0,0,-16,162.29689,48.90008)"/>
<use data-text="P" xlink:href="#font_2_14" transform="matrix(16,0,0,-16,173.8521,48.90008)"/>
<use data-text="&#xfffd;" xlink:href="#font_3_1" transform="matrix(16,0,0,-16,184.5241,48.90008)"/>
<path transform="matrix(1,0,0,-1,0,540)" d="M141.75 484.9999H195.75V460.9999H141.75Z" fill="#ffffff" fill-rule="evenodd"/>
<path transform="matrix(.00007874014,0,0,.00007874014,141.75,55.00009)" stroke-width="12700" stroke-linecap="butt" stroke-miterlimit="8" stroke-linejoin="miter" fill="none" stroke="#000000" d="M-.04193118 .327881H685799.9V304800.4H-.04193118Z"/>
<use data-text="N" xlink:href="#font_2_13" transform="matrix(16,0,0,-16,157.8749,73.400089)"/>
<use data-text="o" xlink:href="#font_2_34" transform="matrix(16,0,0,-16,169.4301,73.400089)"/>
<use data-text="&#xfffd;" xlink:href="#font_3_1" transform="matrix(16,0,0,-16,178.3293,73.400089)"/>
<path transform="matrix(1,0,0,-1,0,540)" d="M141.75 460.9999H195.75V436.9999H141.75Z" fill="#ffffff" fill-rule="evenodd"/>
<path transform="matrix(.00007874014,0,0,.00007874014,141.75,79.00009)" stroke-width="12700" stroke-linecap="butt" stroke-miterlimit="8" stroke-linejoin="miter" fill="none" stroke="#000000" d="M-.04193118-.125244H685799.9V304799.9H-.04193118Z"/>
<use data-text="N" xlink:href="#font_2_13" transform="matrix(16,0,0,-16,157.8749,97.400089)"/>
<use data-text="o" xlink:href="#font_2_34" transform="matrix(16,0,0,-16,169.4301,97.400089)"/>
<use data-text="&#xfffd;" xlink:href="#font_3_1" transform="matrix(16,0,0,-16,178.3293,97.400089)"/>
<path transform="matrix(1,0,0,-1,0,540)" d="M141.75 436.9999H195.75V412.9999H141.75Z" fill="#ffffff" fill-rule="evenodd"/>
<path transform="matrix(.00007874014,0,0,.00007874014,141.75,103.00009)" stroke-width="12700" stroke-linecap="butt" stroke-miterlimit="8" stroke-linejoin="miter" fill="none" stroke="#000000" d="M-.04193118-.07836902H685799.9V304800H-.04193118Z"/>
<use data-text="Y" xlink:href="#font_2_21" transform="matrix(16,0,0,-16,155.8749,121.400089)"/>
<use data-text="e" xlink:href="#font_2_26" transform="matrix(16,0,0,-16,165.0781,121.400089)"/>
<use data-text="s" xlink:href="#font_2_37" transform="matrix(16,0,0,-16,173.9773,121.400089)"/>
<use data-text="&#xfffd;" xlink:href="#font_3_1" transform="matrix(16,0,0,-16,181.9773,121.400089)"/>
<use data-text="A" xlink:href="#font_2_9" transform="matrix(16,0,0,-16,334.4999,222.77509)"/>
<use data-text="d" xlink:href="#font_2_25" transform="matrix(16,0,0,-16,345.1719,222.77509)"/>
<use data-text="d" xlink:href="#font_2_25" transform="matrix(16,0,0,-16,354.0711,222.77509)"/>
<use data-text="r" xlink:href="#font_2_36" transform="matrix(16,0,0,-16,362.9703,222.77509)"/>
<use data-text="e" xlink:href="#font_2_26" transform="matrix(16,0,0,-16,368.2983,222.77509)"/>
<use data-text="s" xlink:href="#font_2_37" transform="matrix(16,0,0,-16,377.1975,222.77509)"/>
<use data-text="s" xlink:href="#font_2_37" transform="matrix(16,0,0,-16,385.1975,222.77509)"/>
<use data-text="&#xfffd;" xlink:href="#font_3_1" transform="matrix(16,0,0,-16,393.1975,222.77509)"/>
<use data-text="R" xlink:href="#font_2_15" transform="matrix(16,0,0,-16,197.3749,222.77509)"/>
<use data-text="E" xlink:href="#font_2_11" transform="matrix(16,0,0,-16,208.9301,222.77509)"/>
<use data-text="A" xlink:href="#font_2_9" transform="matrix(16,0,0,-16,219.6021,222.77509)"/>
<use data-text="D" xlink:href="#font_2_10" transform="matrix(16,0,0,-16,230.2741,222.77509)"/>
<use data-text="&#xfffd;" xlink:href="#font_3_1" transform="matrix(16,0,0,-16,241.8293,222.77509)"/>
<use data-text="W" xlink:href="#font_2_20" transform="matrix(16,0,0,-16,257.3749,222.77509)"/>
<use data-text="R" xlink:href="#font_2_15" transform="matrix(16,0,0,-16,272.4757,222.77509)"/>
<use data-text="I" xlink:href="#font_2_12" transform="matrix(16,0,0,-16,284.0309,222.77509)"/>
<use data-text="T" xlink:href="#font_2_17" transform="matrix(16,0,0,-16,288.4757,222.77509)"/>
<use data-text="E" xlink:href="#font_2_11" transform="matrix(16,0,0,-16,298.2485,222.77509)"/>
<use data-text="&#xfffd;" xlink:href="#font_3_1" transform="matrix(16,0,0,-16,308.9205,222.77509)"/>
<path transform="matrix(1,0,0,-1,0,540)" d="M304.25 311.1249H424.2499V287.1249H304.25Z" fill="#ffffff" fill-rule="evenodd"/>
<path transform="matrix(.00007874014,0,0,.00007874014,304.25,228.87509)" stroke-width="12700" stroke-linecap="butt" stroke-miterlimit="8" stroke-linejoin="miter" fill="none" stroke="#000000" d="M-.04333502 .1674806H1524000V304800.2H-.04333502Z"/>
<use data-text="P" xlink:href="#font_2_14" transform="matrix(16,0,0,-16,346.3749,247.27509)"/>
<use data-text="P" xlink:href="#font_2_14" transform="matrix(16,0,0,-16,357.0469,247.27509)"/>
<use data-text=" " xlink:href="#font_2_1" transform="matrix(16,0,0,-16,367.43733,247.27509)"/>
<use data-text="9" xlink:href="#font_2_7" transform="matrix(16,0,0,-16,371.8821,247.27509)"/>
<use data-text="&#xfffd;" xlink:href="#font_3_1" transform="matrix(16,0,0,-16,380.7813,247.27509)"/>
<path transform="matrix(1,0,0,-1,0,540)" d="M196.25 311.1249H250.25V287.1249H196.25Z" fill="#ffffff" fill-rule="evenodd"/>
<path transform="matrix(.00007874014,0,0,.00007874014,196.25,228.87509)" stroke-width="12700" stroke-linecap="butt" stroke-miterlimit="8" stroke-linejoin="miter" fill="none" stroke="#000000" d="M-.004272521 .1674806H685799.9V304800.2H-.004272521Z"/>
<use data-text="Y" xlink:href="#font_2_21" transform="matrix(16,0,0,-16,210.3749,247.27509)"/>
<use data-text="e" xlink:href="#font_2_26" transform="matrix(16,0,0,-16,219.5781,247.27509)"/>
<use data-text="s" xlink:href="#font_2_37" transform="matrix(16,0,0,-16,228.4773,247.27509)"/>
<use data-text="&#xfffd;" xlink:href="#font_3_1" transform="matrix(16,0,0,-16,236.4773,247.27509)"/>
<path transform="matrix(1,0,0,-1,0,540)" d="M250.25 311.1249H304.25V287.1249H250.25Z" fill="#ffffff" fill-rule="evenodd"/>
<path transform="matrix(.00007874014,0,0,.00007874014,250.25,228.87509)" stroke-width="12700" stroke-linecap="butt" stroke-miterlimit="8" stroke-linejoin="miter" fill="none" stroke="#000000" d="M-.1488038 .1674806H685799.9V304800.2H-.1488038Z"/>
<use data-text="N" xlink:href="#font_2_13" transform="matrix(16,0,0,-16,266.3749,247.27509)"/>
<use data-text="o" xlink:href="#font_2_34" transform="matrix(16,0,0,-16,277.9301,247.27509)"/>
<use data-text="&#xfffd;" xlink:href="#font_3_1" transform="matrix(16,0,0,-16,286.8293,247.27509)"/>
<path transform="matrix(1,0,0,-1,0,540)" d="M304.25 287.1249H424.2499V263.1249H304.25Z" fill="#ffffff" fill-rule="evenodd"/>
<path transform="matrix(.00007874014,0,0,.00007874014,304.25,252.87509)" stroke-width="12700" stroke-linecap="butt" stroke-miterlimit="8" stroke-linejoin="miter" fill="none" stroke="#000000" d="M-.04333502-.03564441H1524000V304800H-.04333502Z"/>
<use data-text="P" xlink:href="#font_2_14" transform="matrix(16,0,0,-16,346.3749,271.2751)"/>
<use data-text="P" xlink:href="#font_2_14" transform="matrix(16,0,0,-16,357.0469,271.2751)"/>
<use data-text=" " xlink:href="#font_2_1" transform="matrix(16,0,0,-16,367.43733,271.2751)"/>
<use data-text="6" xlink:href="#font_2_6" transform="matrix(16,0,0,-16,371.8821,271.2751)"/>
<use data-text="&#xfffd;" xlink:href="#font_3_1" transform="matrix(16,0,0,-16,380.7813,271.2751)"/>
<path transform="matrix(1,0,0,-1,0,540)" d="M196.25 287.1249H250.25V263.1249H196.25Z" fill="#ffffff" fill-rule="evenodd"/>
<path transform="matrix(.00007874014,0,0,.00007874014,196.25,252.87509)" stroke-width="12700" stroke-linecap="butt" stroke-miterlimit="8" stroke-linejoin="miter" fill="none" stroke="#000000" d="M-.004272521-.03564441H685799.9V304800H-.004272521Z"/>
<use data-text="Y" xlink:href="#font_2_21" transform="matrix(16,0,0,-16,210.3749,271.2751)"/>
<use data-text="e" xlink:href="#font_2_26" transform="matrix(16,0,0,-16,219.5781,271.2751)"/>
<use data-text="s" xlink:href="#font_2_37" transform="matrix(16,0,0,-16,228.4773,271.2751)"/>
<use data-text="&#xfffd;" xlink:href="#font_3_1" transform="matrix(16,0,0,-16,236.4773,271.2751)"/>
<path transform="matrix(1,0,0,-1,0,540)" d="M250.25 287.1249H304.25V263.1249H250.25Z" fill="#ffffff" fill-rule="evenodd"/>
<path transform="matrix(.00007874014,0,0,.00007874014,250.25,252.87509)" stroke-width="12700" stroke-linecap="butt" stroke-miterlimit="8" stroke-linejoin="miter" fill="none" stroke="#000000" d="M-.1488038-.03564441H685799.9V304800H-.1488038Z"/>
<use data-text="Y" xlink:href="#font_2_21" transform="matrix(16,0,0,-16,264.3749,271.2751)"/>
<use data-text="e" xlink:href="#font_2_26" transform="matrix(16,0,0,-16,273.57814,271.2751)"/>
<use data-text="s" xlink:href="#font_2_37" transform="matrix(16,0,0,-16,282.4773,271.2751)"/>
<use data-text="&#xfffd;" xlink:href="#font_3_1" transform="matrix(16,0,0,-16,290.4773,271.2751)"/>
<path transform="matrix(1,0,0,-1,0,540)" d="M304.25 263.1249H424.2499V239.1249H304.25Z" fill="#ffffff" fill-rule="evenodd"/>
<path transform="matrix(.00007874014,0,0,.00007874014,304.25,276.8751)" stroke-width="12700" stroke-linecap="butt" stroke-miterlimit="8" stroke-linejoin="miter" fill="none" stroke="#000000" d="M-.04333502 .01123059H1524000V304800.1H-.04333502Z"/>
<use data-text="P" xlink:href="#font_2_14" transform="matrix(16,0,0,-16,343.3749,295.2751)"/>
<use data-text="P" xlink:href="#font_2_14" transform="matrix(16,0,0,-16,354.0469,295.2751)"/>
<use data-text=" " xlink:href="#font_2_1" transform="matrix(16,0,0,-16,364.43733,295.2751)"/>
<use data-text="1" xlink:href="#font_2_3" transform="matrix(16,0,0,-16,368.8821,295.2751)"/>
<use data-text="1" xlink:href="#font_2_3" transform="matrix(16,0,0,-16,376.60054,295.2751)"/>
<use data-text="&#xfffd;" xlink:href="#font_3_1" transform="matrix(16,0,0,-16,385.4997,295.2751)"/>
<path transform="matrix(1,0,0,-1,0,540)" d="M196.25 263.1249H250.25V239.1249H196.25Z" fill="#ffffff" fill-rule="evenodd"/>
<path transform="matrix(.00007874014,0,0,.00007874014,196.25,276.8751)" stroke-width="12700" stroke-linecap="butt" stroke-miterlimit="8" stroke-linejoin="miter" fill="none" stroke="#000000" d="M-.004272521 .01123059H685799.9V304800.1H-.004272521Z"/>
<use data-text="Y" xlink:href="#font_2_21" transform="matrix(16,0,0,-16,210.3749,295.2751)"/>
<use data-text="e" xlink:href="#font_2_26" transform="matrix(16,0,0,-16,219.5781,295.2751)"/>
<use data-text="s" xlink:href="#font_2_37" transform="matrix(16,0,0,-16,228.4773,295.2751)"/>
<use data-text="&#xfffd;" xlink:href="#font_3_1" transform="matrix(16,0,0,-16,236.4773,295.2751)"/>
<use data-text="&#x2022;" xlink:href="#font_2_41" transform="matrix(16,0,0,-16,280.075,318.4751)"/>
<use data-text="&#xfffd;" xlink:href="#font_3_1" transform="matrix(16,0,0,-16,278.31718,327.4751)"/>
<use data-text="&#x2022;" xlink:href="#font_2_41" transform="matrix(16,0,0,-16,280.075,337.4751)"/>
<use data-text="&#xfffd;" xlink:href="#font_3_1" transform="matrix(16,0,0,-16,278.31718,346.475)"/>
<use data-text="&#x2022;" xlink:href="#font_2_41" transform="matrix(16,0,0,-16,280.075,356.475)"/>
<path transform="matrix(1,0,0,-1,0,540)" d="M250.25 263.1249H304.25V239.1249H250.25Z" fill="#ffffff" fill-rule="evenodd"/>
<path transform="matrix(.00007874014,0,0,.00007874014,250.25,276.8751)" stroke-width="12700" stroke-linecap="butt" stroke-miterlimit="8" stroke-linejoin="miter" fill="none" stroke="#000000" d="M-.1488038 .01123059H685799.9V304800.1H-.1488038Z"/>
<use data-text="Y" xlink:href="#font_2_21" transform="matrix(16,0,0,-16,264.3749,295.2751)"/>
<use data-text="e" xlink:href="#font_2_26" transform="matrix(16,0,0,-16,273.57814,295.2751)"/>
<use data-text="s" xlink:href="#font_2_37" transform="matrix(16,0,0,-16,282.4773,295.2751)"/>
<use data-text="&#xfffd;" xlink:href="#font_3_1" transform="matrix(16,0,0,-16,290.4773,295.2751)"/>
<use data-text="S" xlink:href="#font_2_16" transform="matrix(16,0,0,-16,151.8749,222.77509)"/>
<use data-text="U" xlink:href="#font_2_18" transform="matrix(16,0,0,-16,162.54689,222.77509)"/>
<use data-text="P" xlink:href="#font_2_14" transform="matrix(16,0,0,-16,174.1021,222.77509)"/>
<use data-text="&#xfffd;" xlink:href="#font_3_1" transform="matrix(16,0,0,-16,184.7741,222.77509)"/>
<path transform="matrix(1,0,0,-1,0,540)" d="M142 311.1249H196V287.1249H142Z" fill="#ffffff" fill-rule="evenodd"/>
<path transform="matrix(.00007874014,0,0,.00007874014,142,228.87509)" stroke-width="12700" stroke-linecap="butt" stroke-miterlimit="8" stroke-linejoin="miter" fill="none" stroke="#000000" d="M-.0414429 .1674806H685799.9V304800.2H-.0414429Z"/>
<use data-text="N" xlink:href="#font_2_13" transform="matrix(16,0,0,-16,158.1249,247.27509)"/>
<use data-text="o" xlink:href="#font_2_34" transform="matrix(16,0,0,-16,169.6801,247.27509)"/>
<use data-text="&#xfffd;" xlink:href="#font_3_1" transform="matrix(16,0,0,-16,178.5793,247.27509)"/>
<path transform="matrix(1,0,0,-1,0,540)" d="M142 287.1249H196V263.1249H142Z" fill="#ffffff" fill-rule="evenodd"/>
<path transform="matrix(.00007874014,0,0,.00007874014,142,252.87509)" stroke-width="12700" stroke-linecap="butt" stroke-miterlimit="8" stroke-linejoin="miter" fill="none" stroke="#000000" d="M-.0414429-.03564441H685799.9V304800H-.0414429Z"/>
<use data-text="Y" xlink:href="#font_2_21" transform="matrix(16,0,0,-16,156.1249,271.2751)"/>
<use data-text="e" xlink:href="#font_2_26" transform="matrix(16,0,0,-16,165.3281,271.2751)"/>
<use data-text="s" xlink:href="#font_2_37" transform="matrix(16,0,0,-16,174.2273,271.2751)"/>
<use data-text="&#xfffd;" xlink:href="#font_3_1" transform="matrix(16,0,0,-16,182.2273,271.2751)"/>
<path transform="matrix(1,0,0,-1,0,540)" d="M142 263.1249H196V239.1249H142Z" fill="#ffffff" fill-rule="evenodd"/>
<path transform="matrix(.00007874014,0,0,.00007874014,142,276.8751)" stroke-width="12700" stroke-linecap="butt" stroke-miterlimit="8" stroke-linejoin="miter" fill="none" stroke="#000000" d="M-.0414429 .01123059H685799.9V304800.1H-.0414429Z"/>
<use data-text="N" xlink:href="#font_2_13" transform="matrix(16,0,0,-16,158.1249,295.2751)"/>
<use data-text="o" xlink:href="#font_2_34" transform="matrix(16,0,0,-16,169.6801,295.2751)"/>
<use data-text="&#xfffd;" xlink:href="#font_3_1" transform="matrix(16,0,0,-16,178.5793,295.2751)"/>
<use data-text="V" xlink:href="#font_2_19" transform="matrix(16,0,0,-16,101.1249,246.9)"/>
<use data-text="P" xlink:href="#font_2_14" transform="matrix(16,0,0,-16,111.796909,246.9)"/>
<use data-text=" " xlink:href="#font_2_1" transform="matrix(16,0,0,-16,122.1873,246.9)"/>
<use data-text="0" xlink:href="#font_2_2" transform="matrix(16,0,0,-16,126.6321,246.9)"/>
<use data-text=":" xlink:href="#font_2_8" transform="matrix(16,0,0,-16,135.53131,246.9)"/>
<use data-text="&#xfffd;" xlink:href="#font_3_1" transform="matrix(16,0,0,-16,139.9761,246.9)"/>
<use data-text="V" xlink:href="#font_2_19" transform="matrix(16,0,0,-16,101.1249,270.9)"/>
<use data-text="P" xlink:href="#font_2_14" transform="matrix(16,0,0,-16,111.796909,270.9)"/>
<use data-text=" " xlink:href="#font_2_1" transform="matrix(16,0,0,-16,122.1873,270.9)"/>
<use data-text="1" xlink:href="#font_2_3" transform="matrix(16,0,0,-16,126.6321,270.9)"/>
<use data-text=":" xlink:href="#font_2_8" transform="matrix(16,0,0,-16,135.53131,270.9)"/>
<use data-text="&#xfffd;" xlink:href="#font_3_1" transform="matrix(16,0,0,-16,139.9761,270.9)"/>
<use data-text="V" xlink:href="#font_2_19" transform="matrix(16,0,0,-16,101.1249,294.9)"/>
<use data-text="P" xlink:href="#font_2_14" transform="matrix(16,0,0,-16,111.796909,294.9)"/>
<use data-text=" " xlink:href="#font_2_1" transform="matrix(16,0,0,-16,122.1873,294.9)"/>
<use data-text="2" xlink:href="#font_2_4" transform="matrix(16,0,0,-16,126.6321,294.9)"/>
<use data-text=":" xlink:href="#font_2_8" transform="matrix(16,0,0,-16,135.53131,294.9)"/>
<use data-text="&#xfffd;" xlink:href="#font_3_1" transform="matrix(16,0,0,-16,139.9761,294.9)"/>
<path transform="matrix(.00007874014,0,0,.00007874014,401.4999,90.00009)" stroke-width="12700" stroke-linecap="butt" stroke-linejoin="round" fill="none" stroke="#000000" d="M.009033084-.1037596 2090747 778536.2"/>
<path transform="matrix(1,0,0,-1,0,540)" d="M563.424 392.9052 567.9999 387.9999 561.3303 387.2823Z" fill-rule="evenodd"/>
<path transform="matrix(1,0,0,-1,0,540)" d="M398.9999 449.9999C398.9999 451.6568 400.3431 452.9999 401.9999 452.9999 403.6568 452.9999 404.9999 451.6568 404.9999 449.9999 404.9999 448.3431 403.6568 446.9999 401.9999 446.9999 400.3431 446.9999 398.9999 448.3431 398.9999 449.9999Z" fill-rule="evenodd"/>
<path transform="matrix(.00007874014,0,0,.00007874014,398.9999,87.00009)" stroke-width="12700" stroke-linecap="butt" stroke-linejoin="round" fill="none" stroke="#000000" d="M.004150271 38099.89C.004150271 17057.77 17057.88-.109619 38100.01-.109619 59142.14-.109619 76200.02 17057.77 76200.02 38099.89 76200.02 59142.03 59142.14 76199.9 38100.01 76199.9 17057.88 76199.9 .004150271 59142.03 .004150271 38099.89Z"/>
<path transform="matrix(.00007874014,0,0,-.00007874014,400.4999,118.50009)" stroke-width="12700" stroke-linecap="butt" stroke-linejoin="round" fill="none" stroke="#000000" d="M.007079959 .04809558 2165351 18829.13"/>
<path transform="matrix(1,0,0,-1,0,540)" d="M567.0262 419.9479 572.9999 422.9999 566.9741 425.9477Z" fill-rule="evenodd"/>
<path transform="matrix(1,0,0,-1,0,540)" d="M398.9999 422C398.9999 423.6568 400.3431 425 401.9999 425 403.6568 425 404.9999 423.6568 404.9999 422 404.9999 420.3431 403.6568 419 401.9999 419 400.3431 419 398.9999 420.3431 398.9999 422Z" fill-rule="evenodd"/>
<path transform="matrix(.00007874014,0,0,.00007874014,398.9999,115)" stroke-width="12700" stroke-linecap="butt" stroke-linejoin="round" fill="none" stroke="#000000" d="M.004150271 38100.06C.004150271 17057.93 17057.88 .05749518 38100.01 .05749518 59142.14 .05749518 76200.02 17057.93 76200.02 38100.06 76200.02 59142.19 59142.14 76200.07 38100.01 76200.07 17057.88 76200.07 .004150271 59142.19 .004150271 38100.06Z"/>
<path transform="matrix(.00007874014,0,0,.00007874014,401.4999,244.5)" stroke-width="12700" stroke-linecap="butt" stroke-linejoin="round" fill="none" stroke="#000000" d="M.009033084 .06042486 2165350 6276.422"/>
<path transform="matrix(1,0,0,-1,0,540)" d="M568.0087 298.0173 573.9999 295 567.9913 292.0174Z" fill-rule="evenodd"/>
<path transform="matrix(1,0,0,-1,0,540)" d="M398.9999 296C398.9999 297.6568 400.3431 299 401.9999 299 403.6568 299 404.9999 297.6568 404.9999 296 404.9999 294.3431 403.6568 293 401.9999 293 400.3431 293 398.9999 294.3431 398.9999 296Z" fill-rule="evenodd"/>
<path transform="matrix(.00007874014,0,0,.00007874014,398.9999,241)" stroke-width="12700" stroke-linecap="butt" stroke-linejoin="round" fill="none" stroke="#000000" d="M.004150271 38100.06C.004150271 17057.93 17057.88 .05358893 38100.01 .05358893 59142.14 .05358893 76200.02 17057.93 76200.02 38100.06 76200.02 59142.19 59142.14 76200.06 38100.01 76200.06 17057.88 76200.06 .004150271 59142.19 .004150271 38100.06Z"/>
<path transform="matrix(.00007874014,0,0,-.00007874014,403,266.5)" stroke-width="12700" stroke-linecap="butt" stroke-linejoin="round" fill="none" stroke="#000000" d="M-.1004639-.1033936 2123058 935904.1"/>
<path transform="matrix(1,0,0,-1,0,540)" d="M567.7198 342.8346 571.9999 347.9999 565.2996 348.3248Z" fill-rule="evenodd"/>
<path transform="matrix(1,0,0,-1,0,540)" d="M398.9999 272C398.9999 273.6568 400.3431 275 401.9999 275 403.6568 275 404.9999 273.6568 404.9999 272 404.9999 270.3431 403.6568 269 401.9999 269 400.3431 269 398.9999 270.3431 398.9999 272Z" fill-rule="evenodd"/>
<path transform="matrix(.00007874014,0,0,.00007874014,398.9999,265)" stroke-width="12700" stroke-linecap="butt" stroke-linejoin="round" fill="none" stroke="#000000" d="M.004150271 38100.11C.004150271 17057.98 17057.88 .1004639 38100.01 .1004639 59142.14 .1004639 76200.02 17057.98 76200.02 38100.11 76200.02 59142.23 59142.14 76200.11 38100.01 76200.11 17057.88 76200.11 .004150271 59142.23 .004150271 38100.11Z"/>
<path transform="matrix(.00007874014,0,0,-.00007874014,403,291.5)" stroke-width="12700" stroke-linecap="butt" stroke-linejoin="round" fill="none" stroke="#000000" d="M-.1004639-.1522217 2082851 131746.5"/>
<path transform="matrix(1,0,0,-1,0,540)" d="M563.2014 255.6272 569 259 562.8226 261.6152Z" fill-rule="evenodd"/>
<path transform="matrix(1,0,0,-1,0,540)" d="M398.9999 248C398.9999 249.6568 400.3431 251 401.9999 251 403.6568 251 404.9999 249.6568 404.9999 248 404.9999 246.3431 403.6568 245 401.9999 245 400.3431 245 398.9999 246.3431 398.9999 248Z" fill-rule="evenodd"/>
<path transform="matrix(.00007874014,0,0,.00007874014,398.9999,289)" stroke-width="12700" stroke-linecap="butt" stroke-linejoin="round" fill="none" stroke="#000000" d="M.004150271 38099.96C.004150271 17057.83 17057.88-.04644772 38100.01-.04644772 59142.14-.04644772 76200.02 17057.83 76200.02 38099.96 76200.02 59142.09 59142.14 76199.97 38100.01 76199.97 17057.88 76199.97 .004150271 59142.09 .004150271 38099.96Z"/>
<use data-text="P" xlink:href="#font_2_14" transform="matrix(16,0,0,-16,651.2499,126.775089)"/>
<use data-text="P" xlink:href="#font_2_14" transform="matrix(16,0,0,-16,661.9219,126.775089)"/>
<use data-text=" " xlink:href="#font_2_1" transform="matrix(16,0,0,-16,672.31228,126.775089)"/>
<use data-text="2" xlink:href="#font_2_4" transform="matrix(16,0,0,-16,676.7571,126.775089)"/>
<use data-text="&#xfffd;" xlink:href="#font_3_1" transform="matrix(16,0,0,-16,685.65628,126.775089)"/>
<use data-text="P" xlink:href="#font_2_14" transform="matrix(16,0,0,-16,652.1249,288.4)"/>
<use data-text="P" xlink:href="#font_2_14" transform="matrix(16,0,0,-16,662.7969,288.4)"/>
<use data-text=" " xlink:href="#font_2_1" transform="matrix(16,0,0,-16,673.18728,288.4)"/>
<use data-text="1" xlink:href="#font_2_3" transform="matrix(16,0,0,-16,677.6321,288.4)"/>
<use data-text="1" xlink:href="#font_2_3" transform="matrix(16,0,0,-16,685.35049,288.4)"/>
<use data-text="&#xfffd;" xlink:href="#font_3_1" transform="matrix(16,0,0,-16,694.2497,288.4)"/>
</g>
</g>
</svg>
