<?xml version="1.0" encoding="UTF-8" standalone="no"?><svg xmlns="http://www.w3.org/2000/svg" xmlns:xlink="http://www.w3.org/1999/xlink" contentScriptType="application/ecmascript" contentStyleType="text/css" height="283px" preserveAspectRatio="none" style="width:483px;height:283px;" version="1.1" viewBox="0 0 483 283" width="483px" zoomAndPan="magnify"><defs><filter height="300%" id="f4zc84vstwsfw" width="300%" x="-1" y="-1"><feGaussianBlur result="blurOut" stdDeviation="2.0"/><feColorMatrix in="blurOut" result="blurOut2" type="matrix" values="0 0 0 0 0 0 0 0 0 0 0 0 0 0 0 0 0 0 .4 0"/><feOffset dx="4.0" dy="4.0" in="blurOut2" result="blurOut3"/><feBlend in="SourceGraphic" in2="blurOut3" mode="normal"/></filter></defs><g><!--class Client--><rect fill="#FEFECE" filter="url(#f4zc84vstwsfw)" height="32" id="Client" style="stroke: #A80036; stroke-width: 1.5;" width="64" x="6" y="38"/><ellipse cx="21" cy="54" fill="#ADD1B2" rx="11" ry="11" style="stroke: #A80036; stroke-width: 1.0;"/><path d="M23.4731,60.1431 Q22.8921,60.4419 22.2529,60.5913 Q21.6138,60.7407 20.9082,60.7407 Q18.4014,60.7407 17.0815,59.0889 Q15.7617,57.437 15.7617,54.3159 Q15.7617,51.1865 17.0815,49.5347 Q18.4014,47.8828 20.9082,47.8828 Q21.6138,47.8828 22.2612,48.0322 Q22.9087,48.1816 23.4731,48.4805 L23.4731,51.2031 Q22.8423,50.6221 22.2488,50.3523 Q21.6553,50.0825 21.0244,50.0825 Q19.6797,50.0825 18.9949,51.1492 Q18.3101,52.2158 18.3101,54.3159 Q18.3101,56.4077 18.9949,57.4744 Q19.6797,58.541 21.0244,58.541 Q21.6553,58.541 22.2488,58.2712 Q22.8423,58.0015 23.4731,57.4204 Z "/><text fill="#000000" font-family="sans-serif" font-size="12" lengthAdjust="spacingAndGlyphs" textLength="32" x="35" y="58.5352">Client</text><!--class Component--><rect fill="#FEFECE" filter="url(#f4zc84vstwsfw)" height="91.8203" id="Component" style="stroke: #A80036; stroke-width: 1.5;" width="137" x="105.5" y="8"/><ellipse cx="138.05" cy="24" fill="#B4A7E5" rx="11" ry="11" style="stroke: #A80036; stroke-width: 1.0;"/><path d="M134.4777,20.2651 L134.4777,18.1069 L141.8571,18.1069 L141.8571,20.2651 L139.3918,20.2651 L139.3918,28.3418 L141.8571,28.3418 L141.8571,30.5 L134.4777,30.5 L134.4777,28.3418 L136.9431,28.3418 L136.9431,20.2651 Z "/><text fill="#000000" font-family="sans-serif" font-size="12" font-style="italic" lengthAdjust="spacingAndGlyphs" textLength="66" x="155.95" y="28.5352">Component</text><line style="stroke: #A80036; stroke-width: 1.5;" x1="106.5" x2="241.5" y1="40" y2="40"/><ellipse cx="116.5" cy="51.9775" fill="#84BE84" rx="3" ry="3" style="stroke: #038048; stroke-width: 1.0;"/><text fill="#000000" font-family="sans-serif" font-size="11" font-style="italic" lengthAdjust="spacingAndGlyphs" textLength="60" x="125.5" y="54.6348">operation()</text><ellipse cx="116.5" cy="64.9326" fill="#84BE84" rx="3" ry="3" style="stroke: #038048; stroke-width: 1.0;"/><text fill="#000000" font-family="sans-serif" font-size="11" font-style="italic" lengthAdjust="spacingAndGlyphs" textLength="91" x="125.5" y="67.5898">add(Component)</text><ellipse cx="116.5" cy="77.8877" fill="#84BE84" rx="3" ry="3" style="stroke: #038048; stroke-width: 1.0;"/><text fill="#000000" font-family="sans-serif" font-size="11" font-style="italic" lengthAdjust="spacingAndGlyphs" textLength="111" x="125.5" y="80.5449">remove(Component)</text><ellipse cx="116.5" cy="90.8428" fill="#84BE84" rx="3" ry="3" style="stroke: #038048; stroke-width: 1.0;"/><text fill="#000000" font-family="sans-serif" font-size="11" font-style="italic" lengthAdjust="spacingAndGlyphs" textLength="67" x="125.5" y="93.5">getChild(int)</text><!--class Leaf--><rect fill="#FEFECE" filter="url(#f4zc84vstwsfw)" height="52.9551" id="Leaf" style="stroke: #A80036; stroke-width: 1.5;" width="86" x="278" y="27.5"/><ellipse cx="306.5" cy="43.5" fill="#ADD1B2" rx="11" ry="11" style="stroke: #A80036; stroke-width: 1.0;"/><path d="M308.9731,49.6431 Q308.3921,49.9419 307.7529,50.0913 Q307.1138,50.2407 306.4082,50.2407 Q303.9014,50.2407 302.5815,48.5889 Q301.2617,46.937 301.2617,43.8159 Q301.2617,40.6865 302.5815,39.0347 Q303.9014,37.3828 306.4082,37.3828 Q307.1138,37.3828 307.7612,37.5322 Q308.4087,37.6816 308.9731,37.9805 L308.9731,40.7031 Q308.3423,40.1221 307.7488,39.8523 Q307.1553,39.5825 306.5244,39.5825 Q305.1797,39.5825 304.4949,40.6492 Q303.8101,41.7158 303.8101,43.8159 Q303.8101,45.9077 304.4949,46.9744 Q305.1797,48.041 306.5244,48.041 Q307.1553,48.041 307.7488,47.7712 Q308.3423,47.5015 308.9731,46.9204 Z "/><text fill="#000000" font-family="sans-serif" font-size="12" lengthAdjust="spacingAndGlyphs" textLength="24" x="323.5" y="48.0352">Leaf</text><line style="stroke: #A80036; stroke-width: 1.5;" x1="279" x2="363" y1="59.5" y2="59.5"/><ellipse cx="289" cy="71.4775" fill="#84BE84" rx="3" ry="3" style="stroke: #038048; stroke-width: 1.0;"/><text fill="#000000" font-family="sans-serif" font-size="11" lengthAdjust="spacingAndGlyphs" textLength="60" x="298" y="74.1348">operation()</text><!--class Composite--><rect fill="#FEFECE" filter="url(#f4zc84vstwsfw)" height="112.7754" id="Composite" style="stroke: #A80036; stroke-width: 1.5;" width="179" x="84.5" y="160"/><ellipse cx="139.25" cy="176" fill="#ADD1B2" rx="11" ry="11" style="stroke: #A80036; stroke-width: 1.0;"/><path d="M141.7231,182.1431 Q141.1421,182.4419 140.5029,182.5913 Q139.8638,182.7407 139.1582,182.7407 Q136.6514,182.7407 135.3315,181.0889 Q134.0117,179.437 134.0117,176.3159 Q134.0117,173.1865 135.3315,171.5347 Q136.6514,169.8828 139.1582,169.8828 Q139.8638,169.8828 140.5112,170.0322 Q141.1587,170.1816 141.7231,170.4805 L141.7231,173.2031 Q141.0923,172.6221 140.4988,172.3523 Q139.9053,172.0825 139.2744,172.0825 Q137.9297,172.0825 137.2449,173.1492 Q136.5601,174.2158 136.5601,176.3159 Q136.5601,178.4077 137.2449,179.4744 Q137.9297,180.541 139.2744,180.541 Q139.9053,180.541 140.4988,180.2712 Q141.0923,180.0015 141.7231,179.4204 Z "/><text fill="#000000" font-family="sans-serif" font-size="12" lengthAdjust="spacingAndGlyphs" textLength="61" x="159.75" y="180.5352">Composite</text><line style="stroke: #A80036; stroke-width: 1.5;" x1="85.5" x2="262.5" y1="192" y2="192"/><rect fill="none" height="6" style="stroke: #C82930; stroke-width: 1.0;" width="6" x="92.5" y="200.9775"/><text fill="#000000" font-family="sans-serif" font-size="11" lengthAdjust="spacingAndGlyphs" textLength="153" x="104.5" y="206.6348">children : List&lt;Component&gt;</text><line style="stroke: #A80036; stroke-width: 1.5;" x1="85.5" x2="262.5" y1="212.9551" y2="212.9551"/><ellipse cx="95.5" cy="224.9326" fill="#84BE84" rx="3" ry="3" style="stroke: #038048; stroke-width: 1.0;"/><text fill="#000000" font-family="sans-serif" font-size="11" lengthAdjust="spacingAndGlyphs" textLength="60" x="104.5" y="227.5898">operation()</text><ellipse cx="95.5" cy="237.8877" fill="#84BE84" rx="3" ry="3" style="stroke: #038048; stroke-width: 1.0;"/><text fill="#000000" font-family="sans-serif" font-size="11" lengthAdjust="spacingAndGlyphs" textLength="91" x="104.5" y="240.5449">add(Component)</text><ellipse cx="95.5" cy="250.8428" fill="#84BE84" rx="3" ry="3" style="stroke: #038048; stroke-width: 1.0;"/><text fill="#000000" font-family="sans-serif" font-size="11" lengthAdjust="spacingAndGlyphs" textLength="111" x="104.5" y="253.5">remove(Component)</text><ellipse cx="95.5" cy="263.7979" fill="#84BE84" rx="3" ry="3" style="stroke: #038048; stroke-width: 1.0;"/><text fill="#000000" font-family="sans-serif" font-size="11" lengthAdjust="spacingAndGlyphs" textLength="67" x="104.5" y="266.4551">getChild(int)</text><path d="M298.5,181 L298.5,212.5 L263.8398,216.5 L298.5,220.5 L298.5,252.2422 A0,0 0 0 0 298.5,252.2422 L471.5,252.2422 A0,0 0 0 0 471.5,252.2422 L471.5,191 L461.5,181 L298.5,181 A0,0 0 0 0 298.5,181 " fill="#FBFB77" filter="url(#f4zc84vstwsfw)" style="stroke: #A80036; stroke-width: 1.0;"/><path d="M461.5,181 L461.5,191 L471.5,191 L461.5,181 " fill="#FBFB77" style="stroke: #A80036; stroke-width: 1.0;"/><text fill="#000000" font-family="sans-serif" font-size="13" lengthAdjust="spacingAndGlyphs" textLength="152" x="304.5" y="198.5684">Composite::operation() {</text><text fill="#000000" font-family="sans-serif" font-size="13" lengthAdjust="spacingAndGlyphs" textLength="141" x="312.5" y="213.8789">for (auto&amp; c : children)</text><text fill="#000000" font-family="sans-serif" font-size="13" lengthAdjust="spacingAndGlyphs" textLength="83" x="320.5" y="229.1895">c.operation();</text><text fill="#000000" font-family="sans-serif" font-size="13" lengthAdjust="spacingAndGlyphs" textLength="4" x="304.5" y="244.5">}</text><!--link Client to Component--><path d="M70.1406,54 C80.1595,54 90.1784,54 100.1973,54 " fill="none" id="Client-Component" style="stroke: #A80036; stroke-width: 1.0;"/><polygon fill="#A80036" points="105.4366,54,96.4366,50,100.4366,54,96.4366,58,105.4366,54" style="stroke: #A80036; stroke-width: 1.0;"/><!--link Component to Leaf--><path d="M262.6999,54 C267.7431,54 272.7862,54 277.8293,54 " fill="none" id="Component-Leaf" style="stroke: #A80036; stroke-width: 1.0;"/><polygon fill="none" points="262.6192,60.9999,242.6191,54,262.6191,46.9999,262.6192,60.9999" style="stroke: #A80036; stroke-width: 1.0;"/><!--link Component to Composite--><path d="M161.4476,120.1579 C161.0993,133.3215 161.2115,147.0329 161.784,159.8436 " fill="none" id="Component-Composite" style="stroke: #A80036; stroke-width: 1.0;"/><polygon fill="none" points="154.4571,119.7865,162.3737,100.1313,168.4422,120.4334,154.4571,119.7865" style="stroke: #A80036; stroke-width: 1.0;"/><!--link Component to Composite--><path d="M187.0467,113.1666 C187.5015,123.9937 187.6141,135.3868 187.3844,146.4942 " fill="none" id="Component-Composite-1" style="stroke: #A80036; stroke-width: 1.0;"/><polygon fill="#FFFFFF" points="186.9346,159.8436,191.1345,153.9818,187.3389,147.8504,183.139,153.7122,186.9346,159.8436" style="stroke: #A80036; stroke-width: 1.0;"/><polygon fill="#A80036" points="186.3102,100.1313,182.8243,109.3426,186.5923,105.1233,190.8116,108.8913,186.3102,100.1313" style="stroke: #A80036; stroke-width: 1.0;"/><line style="stroke: #A80036; stroke-width: 1.0;" x1="186.5923" x2="187.0436" y1="105.1233" y2="113.1106"/><!--
@startuml
Client -> Component
Component <|- Leaf
Component <|- - Composite
Component <- -o Composite

interface Component {
  {abstract} +operation()
  {abstract} +add(Component)
  {abstract} +remove(Component)
  {abstract} +getChild(int)
}
class Leaf {
  +operation()
}
class Composite {
  -children : List<Component>
  +operation()
  +add(Component)
  +remove(Component)
  +getChild(int)
}

note right of Composite
  Composite::operation() {
    for (auto& c : children)
      c.operation();
  }
end note

hide empty attributes
hide empty methods
@enduml

PlantUML version 1.2019.04(Fri Mar 29 23:44:36 CST 2019)
(GPL source distribution)
Java Runtime: Java(TM) SE Runtime Environment
JVM: Java HotSpot(TM) 64-Bit Server VM
Java Version: 1.8.0_152-b16
Operating System: Mac OS X
OS Version: 10.14
Default Encoding: UTF-8
Language: zh
Country: CN
--></g></svg>