<?xml version="1.0" encoding="UTF-8" standalone="no"?><svg xmlns="http://www.w3.org/2000/svg" xmlns:xlink="http://www.w3.org/1999/xlink" contentScriptType="application/ecmascript" contentStyleType="text/css" height="222px" preserveAspectRatio="none" style="width:470px;height:222px;" version="1.1" viewBox="0 0 470 222" width="470px" zoomAndPan="magnify"><defs><filter height="300%" id="ffkvpzbwhclw" width="300%" x="-1" y="-1"><feGaussianBlur result="blurOut" stdDeviation="2.0"/><feColorMatrix in="blurOut" result="blurOut2" type="matrix" values="0 0 0 0 0 0 0 0 0 0 0 0 0 0 0 0 0 0 .4 0"/><feOffset dx="4.0" dy="4.0" in="blurOut2" result="blurOut3"/><feBlend in="SourceGraphic" in2="blurOut3" mode="normal"/></filter></defs><g><!--class Context--><rect fill="#FEFECE" filter="url(#ffkvpzbwhclw)" height="86.8652" id="Context" style="stroke: #A80036; stroke-width: 1.5;" width="101" x="51" y="8"/><ellipse cx="77.25" cy="24" fill="#ADD1B2" rx="11" ry="11" style="stroke: #A80036; stroke-width: 1.0;"/><path d="M79.7231,30.1431 Q79.1421,30.4419 78.5029,30.5913 Q77.8638,30.7407 77.1582,30.7407 Q74.6514,30.7407 73.3315,29.0889 Q72.0117,27.437 72.0117,24.3159 Q72.0117,21.1865 73.3315,19.5347 Q74.6514,17.8828 77.1582,17.8828 Q77.8638,17.8828 78.5112,18.0322 Q79.1587,18.1816 79.7231,18.4805 L79.7231,21.2031 Q79.0923,20.6221 78.4988,20.3523 Q77.9053,20.0825 77.2744,20.0825 Q75.9297,20.0825 75.2449,21.1492 Q74.5601,22.2158 74.5601,24.3159 Q74.5601,26.4077 75.2449,27.4744 Q75.9297,28.541 77.2744,28.541 Q77.9053,28.541 78.4988,28.2712 Q79.0923,28.0015 79.7231,27.4204 Z "/><text fill="#000000" font-family="sans-serif" font-size="12" lengthAdjust="spacingAndGlyphs" textLength="44" x="93.75" y="28.5352">Context</text><line style="stroke: #A80036; stroke-width: 1.5;" x1="52" x2="151" y1="40" y2="40"/><rect fill="none" height="6" style="stroke: #C82930; stroke-width: 1.0;" width="6" x="59" y="48.9775"/><text fill="#000000" font-family="sans-serif" font-size="11" lengthAdjust="spacingAndGlyphs" textLength="66" x="71" y="54.6348">state : State*</text><line style="stroke: #A80036; stroke-width: 1.5;" x1="52" x2="151" y1="60.9551" y2="60.9551"/><ellipse cx="62" cy="72.9326" fill="#84BE84" rx="3" ry="3" style="stroke: #038048; stroke-width: 1.0;"/><text fill="#000000" font-family="sans-serif" font-size="11" lengthAdjust="spacingAndGlyphs" textLength="51" x="71" y="75.5898">Request()</text><ellipse cx="62" cy="85.8877" fill="#84BE84" rx="3" ry="3" style="stroke: #038048; stroke-width: 1.0;"/><text fill="#000000" font-family="sans-serif" font-size="11" lengthAdjust="spacingAndGlyphs" textLength="75" x="71" y="88.5449">ChangeState()</text><!--class State--><rect fill="#FEFECE" filter="url(#ffkvpzbwhclw)" height="52.9551" id="State" style="stroke: #A80036; stroke-width: 1.5;" width="71" x="210" y="25"/><ellipse cx="229.95" cy="41" fill="#B4A7E5" rx="11" ry="11" style="stroke: #A80036; stroke-width: 1.0;"/><path d="M226.3777,37.2651 L226.3777,35.1069 L233.7571,35.1069 L233.7571,37.2651 L231.2918,37.2651 L231.2918,45.3418 L233.7571,45.3418 L233.7571,47.5 L226.3777,47.5 L226.3777,45.3418 L228.8431,45.3418 L228.8431,37.2651 Z "/><text fill="#000000" font-family="sans-serif" font-size="12" font-style="italic" lengthAdjust="spacingAndGlyphs" textLength="28" x="245.05" y="45.5352">State</text><line style="stroke: #A80036; stroke-width: 1.5;" x1="211" x2="280" y1="57" y2="57"/><ellipse cx="221" cy="68.9775" fill="#84BE84" rx="3" ry="3" style="stroke: #038048; stroke-width: 1.0;"/><text fill="#000000" font-family="sans-serif" font-size="11" font-style="italic" lengthAdjust="spacingAndGlyphs" textLength="45" x="230" y="71.6348">Handle()</text><!--class ConcreteState1--><rect fill="#FEFECE" filter="url(#ffkvpzbwhclw)" height="52.9551" id="ConcreteState1" style="stroke: #A80036; stroke-width: 1.5;" width="119" x="186" y="156.5"/><ellipse cx="201" cy="172.5" fill="#ADD1B2" rx="11" ry="11" style="stroke: #A80036; stroke-width: 1.0;"/><path d="M203.4731,178.6431 Q202.8921,178.9419 202.2529,179.0913 Q201.6138,179.2407 200.9082,179.2407 Q198.4014,179.2407 197.0815,177.5889 Q195.7617,175.937 195.7617,172.8159 Q195.7617,169.6865 197.0815,168.0347 Q198.4014,166.3828 200.9082,166.3828 Q201.6138,166.3828 202.2612,166.5322 Q202.9087,166.6816 203.4731,166.9805 L203.4731,169.7031 Q202.8423,169.1221 202.2488,168.8523 Q201.6553,168.5825 201.0244,168.5825 Q199.6797,168.5825 198.9949,169.6492 Q198.3101,170.7158 198.3101,172.8159 Q198.3101,174.9077 198.9949,175.9744 Q199.6797,177.041 201.0244,177.041 Q201.6553,177.041 202.2488,176.7712 Q202.8423,176.5015 203.4731,175.9204 Z "/><text fill="#000000" font-family="sans-serif" font-size="12" lengthAdjust="spacingAndGlyphs" textLength="87" x="215" y="177.0352">ConcreteState1</text><line style="stroke: #A80036; stroke-width: 1.5;" x1="187" x2="304" y1="188.5" y2="188.5"/><ellipse cx="197" cy="200.4775" fill="#84BE84" rx="3" ry="3" style="stroke: #038048; stroke-width: 1.0;"/><text fill="#000000" font-family="sans-serif" font-size="11" lengthAdjust="spacingAndGlyphs" textLength="45" x="206" y="203.1348">Handle()</text><!--class ConcreteState2--><rect fill="#FEFECE" filter="url(#ffkvpzbwhclw)" height="52.9551" id="ConcreteState2" style="stroke: #A80036; stroke-width: 1.5;" width="119" x="340" y="156.5"/><ellipse cx="355" cy="172.5" fill="#ADD1B2" rx="11" ry="11" style="stroke: #A80036; stroke-width: 1.0;"/><path d="M357.4731,178.6431 Q356.8921,178.9419 356.2529,179.0913 Q355.6138,179.2407 354.9082,179.2407 Q352.4014,179.2407 351.0815,177.5889 Q349.7617,175.937 349.7617,172.8159 Q349.7617,169.6865 351.0815,168.0347 Q352.4014,166.3828 354.9082,166.3828 Q355.6138,166.3828 356.2612,166.5322 Q356.9087,166.6816 357.4731,166.9805 L357.4731,169.7031 Q356.8423,169.1221 356.2488,168.8523 Q355.6553,168.5825 355.0244,168.5825 Q353.6797,168.5825 352.9949,169.6492 Q352.3101,170.7158 352.3101,172.8159 Q352.3101,174.9077 352.9949,175.9744 Q353.6797,177.041 355.0244,177.041 Q355.6553,177.041 356.2488,176.7712 Q356.8423,176.5015 357.4731,175.9204 Z "/><text fill="#000000" font-family="sans-serif" font-size="12" lengthAdjust="spacingAndGlyphs" textLength="87" x="369" y="177.0352">ConcreteState2</text><line style="stroke: #A80036; stroke-width: 1.5;" x1="341" x2="458" y1="188.5" y2="188.5"/><ellipse cx="351" cy="200.4775" fill="#84BE84" rx="3" ry="3" style="stroke: #038048; stroke-width: 1.0;"/><text fill="#000000" font-family="sans-serif" font-size="11" lengthAdjust="spacingAndGlyphs" textLength="45" x="360" y="203.1348">Handle()</text><path d="M6,155 L6,210.9316 A0,0 0 0 0 6,210.9316 L151,210.9316 A0,0 0 0 0 151,210.9316 L151,165 L141,155 L87.4522,155 L93.8413,95.2876 L79.4522,155 L6,155 A0,0 0 0 0 6,155 " fill="#FBFB77" filter="url(#ffkvpzbwhclw)" style="stroke: #A80036; stroke-width: 1.0;"/><path d="M141,155 L141,165 L151,165 L141,155 " fill="#FBFB77" style="stroke: #A80036; stroke-width: 1.0;"/><text fill="#000000" font-family="sans-serif" font-size="13" lengthAdjust="spacingAndGlyphs" textLength="124" x="12" y="172.5684">Context::Request() {</text><text fill="#000000" font-family="sans-serif" font-size="13" lengthAdjust="spacingAndGlyphs" textLength="105" x="20" y="187.8789">state-&gt;Handle();</text><text fill="#000000" font-family="sans-serif" font-size="13" lengthAdjust="spacingAndGlyphs" textLength="4" x="12" y="203.1895">}</text><!--link Context to State--><path d="M165.1818,51.5 C175.6286,51.5 186.0754,51.5 196.5222,51.5 " fill="none" id="Context-State" style="stroke: #A80036; stroke-width: 1.0;"/><polygon fill="#A80036" points="209.7549,51.5,200.7549,47.5,204.7549,51.5,200.7549,55.5,209.7549,51.5" style="stroke: #A80036; stroke-width: 1.0;"/><line style="stroke: #A80036; stroke-width: 1.0;" x1="204.7549" x2="196.7548" y1="51.5" y2="51.4999"/><polygon fill="#A80036" points="152.125,51.5,158.125,55.5,164.125,51.5,158.125,47.5,152.125,51.5" style="stroke: #A80036; stroke-width: 1.0;"/><!--link State to ConcreteState1--><path d="M245.5,98.3258 C245.5,117.8339 245.5,139.7716 245.5,156.4286 " fill="none" id="State-ConcreteState1" style="stroke: #A80036; stroke-width: 1.0;"/><polygon fill="none" points="238.5001,98.111,245.5,78.111,252.5001,98.111,238.5001,98.111" style="stroke: #A80036; stroke-width: 1.0;"/><!--link State to ConcreteState2--><path d="M292.054,91.2522 C316.7705,112.3576 346.4758,137.7228 368.3821,156.4286 " fill="none" id="State-ConcreteState2" style="stroke: #A80036; stroke-width: 1.0;"/><polygon fill="none" points="287.3281,96.4217,276.6642,78.111,296.4193,85.775,287.3281,96.4217" style="stroke: #A80036; stroke-width: 1.0;"/><!--
@startuml
Context *-> State 
State <|- - ConcreteState1
State <|- - ConcreteState2

class Context {
  -state : State*
  +Request()
  +ChangeState()
}
interface State {
  {abstract} +Handle()
}
class ConcreteState1 {
  +Handle()
}
class ConcreteState2 {
  +Handle()
}

note bottom of Context
  Context::Request() {
    state->Handle();
  }
end note

hide empty attributes
hide empty methods
@enduml

PlantUML version 1.2019.04(Fri Mar 29 23:44:36 CST 2019)
(GPL source distribution)
Java Runtime: Java(TM) SE Runtime Environment
JVM: Java HotSpot(TM) 64-Bit Server VM
Java Version: 1.8.0_152-b16
Operating System: Mac OS X
OS Version: 10.14
Default Encoding: UTF-8
Language: zh
Country: CN
--></g></svg>