<?xml version="1.0" encoding="UTF-8" standalone="no"?><svg xmlns="http://www.w3.org/2000/svg" xmlns:xlink="http://www.w3.org/1999/xlink" contentScriptType="application/ecmascript" contentStyleType="text/css" height="268px" preserveAspectRatio="none" style="width:561px;height:268px;" version="1.1" viewBox="0 0 561 268" width="561px" zoomAndPan="magnify"><defs><filter height="300%" id="fxpomm06pqu7p" width="300%" x="-1" y="-1"><feGaussianBlur result="blurOut" stdDeviation="2.0"/><feColorMatrix in="blurOut" result="blurOut2" type="matrix" values="0 0 0 0 0 0 0 0 0 0 0 0 0 0 0 0 0 0 .4 0"/><feOffset dx="4.0" dy="4.0" in="blurOut2" result="blurOut3"/><feBlend in="SourceGraphic" in2="blurOut3" mode="normal"/></filter></defs><g><!--class Invoker--><rect fill="#FEFECE" filter="url(#fxpomm06pqu7p)" height="52.9551" id="Invoker" style="stroke: #A80036; stroke-width: 1.5;" width="122" x="6" y="25"/><ellipse cx="42.6" cy="41" fill="#B4A7E5" rx="11" ry="11" style="stroke: #A80036; stroke-width: 1.0;"/><path d="M39.0277,37.2651 L39.0277,35.1069 L46.4071,35.1069 L46.4071,37.2651 L43.9418,37.2651 L43.9418,45.3418 L46.4071,45.3418 L46.4071,47.5 L39.0277,47.5 L39.0277,45.3418 L41.4931,45.3418 L41.4931,37.2651 Z "/><text fill="#000000" font-family="sans-serif" font-size="12" font-style="italic" lengthAdjust="spacingAndGlyphs" textLength="42" x="61.4" y="45.5352">Invoker</text><line style="stroke: #A80036; stroke-width: 1.5;" x1="7" x2="127" y1="57" y2="57"/><ellipse cx="17" cy="68.9775" fill="#84BE84" rx="3" ry="3" style="stroke: #038048; stroke-width: 1.0;"/><text fill="#000000" font-family="sans-serif" font-size="11" font-style="italic" lengthAdjust="spacingAndGlyphs" textLength="96" x="26" y="71.6348">Store(Command*)</text><!--class Command--><rect fill="#FEFECE" filter="url(#fxpomm06pqu7p)" height="52.9551" id="Command" style="stroke: #A80036; stroke-width: 1.5;" width="91" x="163.5" y="25"/><ellipse cx="178.5" cy="41" fill="#B4A7E5" rx="11" ry="11" style="stroke: #A80036; stroke-width: 1.0;"/><path d="M174.9277,37.2651 L174.9277,35.1069 L182.3071,35.1069 L182.3071,37.2651 L179.8418,37.2651 L179.8418,45.3418 L182.3071,45.3418 L182.3071,47.5 L174.9277,47.5 L174.9277,45.3418 L177.3931,45.3418 L177.3931,37.2651 Z "/><text fill="#000000" font-family="sans-serif" font-size="12" font-style="italic" lengthAdjust="spacingAndGlyphs" textLength="59" x="192.5" y="45.5352">Command</text><line style="stroke: #A80036; stroke-width: 1.5;" x1="164.5" x2="253.5" y1="57" y2="57"/><ellipse cx="174.5" cy="68.9775" fill="#84BE84" rx="3" ry="3" style="stroke: #038048; stroke-width: 1.0;"/><text fill="#000000" font-family="sans-serif" font-size="11" font-style="italic" lengthAdjust="spacingAndGlyphs" textLength="50" x="183.5" y="71.6348">Execute()</text><!--class ConcreteCommand--><rect fill="#FEFECE" filter="url(#fxpomm06pqu7p)" height="86.8652" id="ConcreteCommand" style="stroke: #A80036; stroke-width: 1.5;" width="145" x="289.5" y="8"/><ellipse cx="305.85" cy="24" fill="#ADD1B2" rx="11" ry="11" style="stroke: #A80036; stroke-width: 1.0;"/><path d="M308.3231,30.1431 Q307.7421,30.4419 307.1029,30.5913 Q306.4638,30.7407 305.7582,30.7407 Q303.2514,30.7407 301.9315,29.0889 Q300.6117,27.437 300.6117,24.3159 Q300.6117,21.1865 301.9315,19.5347 Q303.2514,17.8828 305.7582,17.8828 Q306.4638,17.8828 307.1112,18.0322 Q307.7587,18.1816 308.3231,18.4805 L308.3231,21.2031 Q307.6923,20.6221 307.0988,20.3523 Q306.5053,20.0825 305.8744,20.0825 Q304.5297,20.0825 303.8449,21.1492 Q303.1601,22.2158 303.1601,24.3159 Q303.1601,26.4077 303.8449,27.4744 Q304.5297,28.541 305.8744,28.541 Q306.5053,28.541 307.0988,28.2712 Q307.6923,28.0015 308.3231,27.4204 Z "/><text fill="#000000" font-family="sans-serif" font-size="12" lengthAdjust="spacingAndGlyphs" textLength="110" x="320.15" y="28.5352">ConcreteCommand</text><line style="stroke: #A80036; stroke-width: 1.5;" x1="290.5" x2="433.5" y1="40" y2="40"/><rect fill="none" height="6" style="stroke: #C82930; stroke-width: 1.0;" width="6" x="297.5" y="48.9775"/><text fill="#000000" font-family="sans-serif" font-size="11" lengthAdjust="spacingAndGlyphs" textLength="102" x="309.5" y="54.6348">receiver : Receiver*</text><line style="stroke: #A80036; stroke-width: 1.5;" x1="290.5" x2="433.5" y1="60.9551" y2="60.9551"/><ellipse cx="300.5" cy="72.9326" fill="#84BE84" rx="3" ry="3" style="stroke: #038048; stroke-width: 1.0;"/><text fill="#000000" font-family="sans-serif" font-size="11" lengthAdjust="spacingAndGlyphs" textLength="119" x="309.5" y="75.5898">SetReceiver(Receiver*)</text><ellipse cx="300.5" cy="85.8877" fill="#84BE84" rx="3" ry="3" style="stroke: #038048; stroke-width: 1.0;"/><text fill="#000000" font-family="sans-serif" font-size="11" lengthAdjust="spacingAndGlyphs" textLength="50" x="309.5" y="88.5449">Execute()</text><!--class Receiver--><rect fill="#FEFECE" filter="url(#fxpomm06pqu7p)" height="52.9551" id="Receiver" style="stroke: #A80036; stroke-width: 1.5;" width="81" x="469.5" y="25"/><ellipse cx="484.5" cy="41" fill="#ADD1B2" rx="11" ry="11" style="stroke: #A80036; stroke-width: 1.0;"/><path d="M486.9731,47.1431 Q486.3921,47.4419 485.7529,47.5913 Q485.1138,47.7407 484.4082,47.7407 Q481.9014,47.7407 480.5815,46.0889 Q479.2617,44.437 479.2617,41.3159 Q479.2617,38.1865 480.5815,36.5347 Q481.9014,34.8828 484.4082,34.8828 Q485.1138,34.8828 485.7612,35.0322 Q486.4087,35.1816 486.9731,35.4805 L486.9731,38.2031 Q486.3423,37.6221 485.7488,37.3523 Q485.1553,37.0825 484.5244,37.0825 Q483.1797,37.0825 482.4949,38.1492 Q481.8101,39.2158 481.8101,41.3159 Q481.8101,43.4077 482.4949,44.4744 Q483.1797,45.541 484.5244,45.541 Q485.1553,45.541 485.7488,45.2712 Q486.3423,45.0015 486.9731,44.4204 Z "/><text fill="#000000" font-family="sans-serif" font-size="12" lengthAdjust="spacingAndGlyphs" textLength="49" x="498.5" y="45.5352">Receiver</text><line style="stroke: #A80036; stroke-width: 1.5;" x1="470.5" x2="549.5" y1="57" y2="57"/><ellipse cx="480.5" cy="68.9775" fill="#84BE84" rx="3" ry="3" style="stroke: #038048; stroke-width: 1.0;"/><text fill="#000000" font-family="sans-serif" font-size="11" lengthAdjust="spacingAndGlyphs" textLength="43" x="489.5" y="71.6348">Action()</text><!--class Client--><rect fill="#FEFECE" filter="url(#fxpomm06pqu7p)" height="32" id="Client" style="stroke: #A80036; stroke-width: 1.5;" width="64" x="478" y="190"/><ellipse cx="493" cy="206" fill="#ADD1B2" rx="11" ry="11" style="stroke: #A80036; stroke-width: 1.0;"/><path d="M495.4731,212.1431 Q494.8921,212.4419 494.2529,212.5913 Q493.6138,212.7407 492.9082,212.7407 Q490.4014,212.7407 489.0815,211.0889 Q487.7617,209.437 487.7617,206.3159 Q487.7617,203.1865 489.0815,201.5347 Q490.4014,199.8828 492.9082,199.8828 Q493.6138,199.8828 494.2612,200.0322 Q494.9087,200.1816 495.4731,200.4805 L495.4731,203.2031 Q494.8423,202.6221 494.2488,202.3523 Q493.6553,202.0825 493.0244,202.0825 Q491.6797,202.0825 490.9949,203.1492 Q490.3101,204.2158 490.3101,206.3159 Q490.3101,208.4077 490.9949,209.4744 Q491.6797,210.541 493.0244,210.541 Q493.6553,210.541 494.2488,210.2712 Q494.8423,210.0015 495.4731,209.4204 Z "/><text fill="#000000" font-family="sans-serif" font-size="12" lengthAdjust="spacingAndGlyphs" textLength="32" x="507" y="210.5352">Client</text><path d="M139.5,155 L139.5,256.8633 A0,0 0 0 0 139.5,256.8633 L442.5,256.8633 A0,0 0 0 0 442.5,256.8633 L442.5,165 L432.5,155 L318.4694,155 L341.8442,95.3602 L310.4694,155 L139.5,155 A0,0 0 0 0 139.5,155 " fill="#FBFB77" filter="url(#fxpomm06pqu7p)" style="stroke: #A80036; stroke-width: 1.0;"/><path d="M432.5,155 L432.5,165 L442.5,165 L432.5,155 " fill="#FBFB77" style="stroke: #A80036; stroke-width: 1.0;"/><text fill="#000000" font-family="sans-serif" font-size="13" lengthAdjust="spacingAndGlyphs" textLength="282" x="145.5" y="172.5684">ConcreteCommand::SetReceiver(Receiver* r) {</text><text fill="#000000" font-family="sans-serif" font-size="13" lengthAdjust="spacingAndGlyphs" textLength="76" x="153.5" y="187.8789">receiver = r;</text><text fill="#000000" font-family="sans-serif" font-size="13" lengthAdjust="spacingAndGlyphs" textLength="4" x="145.5" y="203.1895">}</text><text fill="#000000" font-family="sans-serif" font-size="13" lengthAdjust="spacingAndGlyphs" textLength="193" x="145.5" y="218.5">ConcreteCommand::Execute() {</text><text fill="#000000" font-family="sans-serif" font-size="13" lengthAdjust="spacingAndGlyphs" textLength="120" x="153.5" y="233.8105">receiver-&gt;Action();</text><text fill="#000000" font-family="sans-serif" font-size="13" lengthAdjust="spacingAndGlyphs" textLength="4" x="145.5" y="249.1211">}</text><!--link Invoker to Command--><path d="M141.0253,51.5 C144.0615,51.5 147.0977,51.5 150.1338,51.5 " fill="none" id="Invoker-Command" style="stroke: #A80036; stroke-width: 1.0;"/><polygon fill="#A80036" points="163.4463,51.5,154.4463,47.5,158.4463,51.5,154.4463,55.5,163.4463,51.5" style="stroke: #A80036; stroke-width: 1.0;"/><line style="stroke: #A80036; stroke-width: 1.0;" x1="158.4463" x2="150.4463" y1="51.5" y2="51.4999"/><polygon fill="#FFFFFF" points="128.0156,51.5,134.0156,55.5,140.0156,51.5,134.0156,47.5,128.0156,51.5" style="stroke: #A80036; stroke-width: 1.0;"/><!--link Command to ConcreteCommand--><path d="M274.8552,51.5 C279.598,51.5 284.3408,51.5 289.0836,51.5 " fill="none" id="Command-ConcreteCommand" style="stroke: #A80036; stroke-width: 1.0;"/><polygon fill="none" points="274.7207,58.4999,254.7207,51.5,274.7207,44.4999,274.7207,58.4999" style="stroke: #A80036; stroke-width: 1.0;"/><!--link ConcreteCommand to Receiver--><path d="M434.5547,51.5 C444.4259,51.5 454.2971,51.5 464.1683,51.5 " fill="none" id="ConcreteCommand-Receiver" style="stroke: #A80036; stroke-width: 1.0;"/><polygon fill="#A80036" points="469.3303,51.5,460.3303,47.5,464.3303,51.5,460.3303,55.5,469.3303,51.5" style="stroke: #A80036; stroke-width: 1.0;"/><!--link Receiver to Client--><path d="M510,83.1045 C510,115.4688 510,164.5003 510,189.7328 " fill="none" id="Receiver-Client" style="stroke: #A80036; stroke-width: 1.0;"/><polygon fill="#A80036" points="510,78.0595,506,87.0595,510,83.0595,514,87.0595,510,78.0595" style="stroke: #A80036; stroke-width: 1.0;"/><!--link ConcreteCommand to Client--><path d="M407.5991,99.1017 C437.2939,130.1007 474.1816,168.6085 494.5933,189.9166 " fill="none" id="ConcreteCommand-Client" style="stroke: #A80036; stroke-width: 1.0; stroke-dasharray: 7.0,7.0;"/><polygon fill="#A80036" points="404.015,95.3602,407.3521,104.6265,407.4737,98.9709,413.1293,99.0925,404.015,95.3602" style="stroke: #A80036; stroke-width: 1.0;"/><!--
@startuml
Invoker o-> Command
Command <|- ConcreteCommand
ConcreteCommand -> Receiver
Receiver <- - Client
ConcreteCommand <..Client

interface Invoker {
  {abstract} +Store(Command*)
}
interface Command {
  {abstract} +Execute()
}
class ConcreteCommand {
  -receiver : Receiver*
  +SetReceiver(Receiver*)
  +Execute()
}
class Receiver {
  +Action()
}

note bottom of ConcreteCommand
  ConcreteCommand::SetReceiver(Receiver* r) {
    receiver = r;
  }
  ConcreteCommand::Execute() {
    receiver->Action();
  }
end note

hide empty attributes
hide empty methods
@enduml

PlantUML version 1.2019.04(Fri Mar 29 23:44:36 CST 2019)
(GPL source distribution)
Java Runtime: Java(TM) SE Runtime Environment
JVM: Java HotSpot(TM) 64-Bit Server VM
Java Version: 1.8.0_152-b16
Operating System: Mac OS X
OS Version: 10.14
Default Encoding: UTF-8
Language: zh
Country: CN
--></g></svg>