<svg xmlns="http://www.w3.org/2000/svg" xmlns:xlink="http://www.w3.org/1999/xlink" version="1.1" width="551.0894pt" height="382.182pt" viewBox="0 0 551.0894 382.182">
<defs>
<clipPath id="clip_0">
<path transform="matrix(1,0,0,-1,-24.1296,518.984)" d="M24.1296 136.802H575.219V518.984H24.1296Z" fill-rule="evenodd"/>
</clipPath>
<clipPath id="clip_1">
<path transform="matrix(1,0,0,-1,-24.1296,518.984)" d="M0 .00002324581H719.9999V540H0Z"/>
</clipPath>
<path id="font_2_6" d="M.41796876 0V.059570314C.35839845 .0094401049 .29475913-.015625 .22705078-.015625 .17789714-.015625 .13948567-.0031738282 .111816409 .021728516 .08414713 .04663086 .0703125 .07714844 .0703125 .11328125 .0703125 .1529948 .088541667 .18766277 .125 .21728516 .16145833 .24690755 .21468099 .26171876 .28466798 .26171876 .3035482 .26171876 .324056 .26049806 .3461914 .25805665 .3683268 .25561524 .3922526 .25179038 .41796876 .24658203V.31341554C.41796876 .33602906 .4075521 .35568748 .38671876 .37239076 .3658854 .38910423 .3346354 .39746095 .29296876 .39746095 .26106773 .39746095 .2163086 .38804627 .1586914 .36921693 .14827474 .36591087 .14160156 .3642578 .13867188 .3642578 .13346355 .3642578 .12898763 .36621095 .12524414 .3701172 .12150065 .37402345 .119628909 .37890626 .119628909 .38476563 .119628909 .39029948 .12125651 .394694 .12451172 .39794923 .12906902 .40283204 .14746094 .40950523 .1796875 .41796876 .23046875 .43164063 .26888023 .43847657 .29492188 .43847657 .3466797 .43847657 .38704429 .42566935 .41601563 .40005494 .44498698 .37444053 .45947267 .34547935 .45947267 .3131714V.041015626H.51416018C.5242513 .041015626 .5314128 .03914388 .53564456 .03540039 .5398763 .031656904 .5419922 .026692709 .5419922 .020507813 .5419922 .0146484379 .5398763 .009765625 .53564456 .005859375 .5314128 .001953125 .5242513 0 .51416018 0H.41796876M.41796876 .20458985C.39876304 .2101237 .37841798 .2141927 .3569336 .21679688 .33544923 .21940105 .31282554 .22070313 .2890625 .22070313 .22949219 .22070313 .1829427 .20784505 .14941406 .1821289 .12402344 .16292317 .111328128 .13997396 .111328128 .11328125 .111328128 .088541667 .12101237 .067708339 .14038086 .05078125 .15974935 .033854169 .18798828 .025390625 .22509766 .025390625 .26057945 .025390625 .29353843 .032470704 .3239746 .04663086 .3544108 .060791017 .3857422 .083333339 .41796876 .11425781V.20458985Z"/>
<path id="font_2_11" d="M.3203125 .63378909V.5283203H.25976563V.63378909H.3203125M.32177735 .42382813V.041015626H.48291017C.4930013 .041015626 .5001628 .03914388 .50439456 .03540039 .5086263 .031656904 .5107422 .026692709 .5107422 .020507813 .5107422 .0146484379 .5086263 .009765625 .50439456 .005859375 .5001628 .001953125 .4930013 0 .48291017 0H.119628909C.10986328 0 .102864589 .001953125 .09863281 .005859375 .09440104 .009765625 .092285159 .0146484379 .092285159 .020507813 .092285159 .026692709 .09440104 .031656904 .09863281 .03540039 .102864589 .03914388 .10986328 .041015626 .119628909 .041015626H.28076173V.3828125H.16113281C.15136719 .3828125 .14428711 .3847402 .13989258 .38859559 .13549805 .39246116 .13330078 .397288 .13330078 .40307618 .13330078 .40918986 .13541667 .4141744 .13964844 .4180298 .1438802 .42189536 .15104167 .42382813 .16113281 .42382813H.32177735Z"/>
<path id="font_2_5" d="M.5727539-.27441407H.02734375C.017578125-.27441407 .010579427-.27254234 .0063476564-.26879884 .0021158856-.26505534 0-.26009117 0-.25390626 0-.24772136 .0021158856-.24275716 .0063476564-.23901367 .010579427-.23527019 .017578125-.23339844 .02734375-.23339844H.5727539C.58284506-.23339844 .5899251-.23527019 .59399417-.23901367 .5980632-.24275716 .60009768-.24772136 .60009768-.25390626 .60009768-.26009117 .5980632-.26505534 .59399417-.26879884 .5899251-.27254234 .58284506-.27441407 .5727539-.27441407Z"/>
<path id="font_2_7" d="M.4711914 .38275147V.396286C.4711914 .40627543 .47314454 .4133606 .47705079 .4175415 .48095704 .42173258 .48583985 .42382813 .49169923 .42382813 .49788413 .42382813 .5029297 .42171226 .50683596 .41748048 .5107422 .4132487 .5126953 .40608726 .5126953 .3959961V.30322267C.5123698 .2931315 .51033529 .28597007 .5065918 .28173829 .5028483 .2775065 .49788413 .27539063 .49169923 .27539063 .48616538 .27539063 .4815267 .27726747 .4777832 .28102113 .4740397 .28478495 .47184245 .29108177 .4711914 .2999115 .46923829 .32311503 .45402018 .34517417 .4255371 .36608888 .39705406 .38700358 .35872398 .39746095 .31054688 .39746095 .24967449 .39746095 .20345052 .3783671 .171875 .34017945 .14029949 .3019918 .12451172 .2582601 .12451172 .20898438 .12451172 .15578206 .14192708 .11188253 .17675781 .07728577 .21158855 .042689008 .2566732 .025390625 .31201173 .025390625 .34391276 .025390625 .37638346 .03131612 .40942384 .043167116 .4424642 .05502828 .47233073 .074132289 .49902345 .100479129 .5058594 .10706075 .51188156 .11035156 .51708987 .11035156 .5226237 .11035156 .5272624 .10846456 .53100588 .10469055 .5347493 .10091654 .5366211 .09624227 .5366211 .090667728 .5366211 .07655843 .5201823 .058680219 .4873047 .03703308 .43424479 .0019276937 .37516276-.015625 .3100586-.015625 .24397786-.015625 .18969727 .005472819 .1472168 .047668458 .10473633 .08987427 .083496097 .1434021 .083496097 .20825196 .083496097 .2744039 .10522461 .3293101 .14868164 .37297059 .19213867 .41664125 .24690755 .43847657 .31298829 .43847657 .3758138 .43847657 .4285482 .41990153 .4711914 .38275147Z"/>
<path id="font_2_14" d="M.16748047 .42382813V.3623047C.1961263 .39109294 .2220052 .41098533 .24511719 .4219818 .26822917 .4329783 .29427085 .43847657 .3232422 .43847657 .3544922 .43847657 .38297526 .43178813 .4086914 .41841126 .42692057 .4086151 .44344078 .39237467 .45825196 .36968995 .47306315 .34701539 .48046876 .32377116 .48046876 .29995729V.041015626H.5151367C.52490237 .041015626 .53190109 .03914388 .5361328 .03540039 .54036459 .031656904 .54248049 .026692709 .54248049 .020507813 .54248049 .0146484379 .54036459 .009765625 .5361328 .005859375 .53190109 .001953125 .52490237 0 .5151367 0H.40527345C.39518229 0 .38802085 .001953125 .38378907 .005859375 .37955729 .009765625 .3774414 .0146484379 .3774414 .020507813 .3774414 .026692709 .37955729 .031656904 .38378907 .03540039 .38802085 .03914388 .39518229 .041015626 .40527345 .041015626H.43945313V.29351808C.43945313 .32261149 .4288737 .34720866 .40771485 .36730958 .386556 .3874105 .3582357 .39746095 .3227539 .39746095 .2957357 .39746095 .2722982 .39200846 .2524414 .38110353 .23258464 .37019859 .20426433 .34309898 .16748047 .2998047V.041015626H.21386719C.22363281 .041015626 .23063152 .03914388 .23486328 .03540039 .23909505 .031656904 .24121094 .026692709 .24121094 .020507813 .24121094 .0146484379 .23909505 .009765625 .23486328 .005859375 .23063152 .001953125 .22363281 0 .21386719 0H.080078128C.0703125 0 .063313808 .001953125 .05908203 .005859375 .05485026 .009765625 .052734376 .0146484379 .052734376 .020507813 .052734376 .026692709 .05485026 .031656904 .05908203 .03540039 .063313808 .03914388 .0703125 .041015626 .080078128 .041015626H.12646485V.3828125H.091796878C.08203125 .3828125 .075032558 .38476563 .07080078 .38867188 .06656901 .39257813 .064453128 .3976237 .064453128 .4038086 .064453128 .40952555 .06656901 .41429139 .07080078 .41810609 .075032558 .42192079 .08203125 .42382813 .091796878 .42382813H.16748047Z"/>
<path id="font_2_15" d="M.5292969 .21118164C.5292969 .14861043 .5069173 .09516398 .4621582 .050842287 .41739909 .0065307619 .363444-.015625 .30029298-.015625 .23649089-.015625 .18229167 .006612142 .13769531 .051086427 .09309896 .095570888 .07080078 .14893596 .07080078 .21118164 .07080078 .27375285 .09309896 .3272756 .13769531 .37174989 .18229167 .41623435 .23649089 .43847657 .30029298 .43847657 .363444 .43847657 .41739909 .4163157 .4621582 .37199403 .5069173 .3276825 .5292969 .27407838 .5292969 .21118164M.48779298 .21142578C.48779298 .26299034 .46948243 .30688478 .43286134 .34310914 .39624024 .37934367 .35188804 .39746095 .2998047 .39746095 .24772136 .39746095 .20336914 .3792623 .16674805 .342865 .13012696 .30647788 .111816409 .2626648 .111816409 .21142578 .111816409 .16051229 .13012696 .11677551 .16674805 .080215457 .20336914 .04366557 .24772136 .025390625 .2998047 .025390625 .35188804 .025390625 .39624024 .043584188 .43286134 .07997131 .46948243 .116368617 .48779298 .16018677 .48779298 .21142578Z"/>
<path id="font_2_13" d="M.11328125 .42382813V.38275147C.14811199 .41990153 .18310547 .43847657 .21826172 .43847657 .23942058 .43847657 .25797526 .43289186 .27392579 .4217224 .2898763 .41056315 .30322267 .3936564 .31396485 .3710022 .332194 .3936564 .35066734 .41056315 .36938478 .4217224 .3881022 .43289186 .40690104 .43847657 .42578126 .43847657 .45540367 .43847657 .4790039 .42884828 .49658204 .40959168 .51969406 .38479106 .53125 .3577067 .53125 .32833863V.041015626H.56591799C.5756836 .041015626 .5826823 .03914388 .58691409 .03540039 .5911458 .031656904 .5932617 .026692709 .5932617 .020507813 .5932617 .0146484379 .5911458 .009765625 .58691409 .005859375 .5826823 .001953125 .5756836 0 .56591799 0H.49023438V.32492066C.49023438 .34583537 .48388673 .36315409 .4711914 .37687684 .4584961 .39059959 .44384767 .39746095 .4272461 .39746095 .41227214 .39746095 .39648438 .39182536 .3798828 .3805542 .36328126 .36928306 .34440104 .3471476 .3232422 .31414796V.041015626H.35742188C.3671875 .041015626 .3741862 .03914388 .37841798 .03540039 .38264976 .031656904 .38476563 .026692709 .38476563 .020507813 .38476563 .0146484379 .38264976 .009765625 .37841798 .005859375 .3741862 .001953125 .3671875 0 .35742188 0H.28173829V.32199098C.28173829 .34388224 .27530924 .36193339 .26245118 .3761444 .2495931 .39035545 .2351888 .39746095 .21923828 .39746095 .20458985 .39746095 .19010417 .39272563 .17578125 .383255 .15592449 .3698578 .13509114 .3468221 .11328125 .31414796V.041015626H.14794922C.15771485 .041015626 .16471355 .03914388 .16894531 .03540039 .17317708 .031656904 .17529297 .026692709 .17529297 .020507813 .17529297 .0146484379 .17317708 .009765625 .16894531 .005859375 .16471355 .001953125 .15771485 0 .14794922 0H.037597658C.027832032 0 .020833334 .001953125 .016601563 .005859375 .012369792 .009765625 .010253906 .0146484379 .010253906 .020507813 .010253906 .026692709 .012369792 .031656904 .016601563 .03540039 .020833334 .03914388 .027832032 .041015626 .037597658 .041015626H.072265628V.3828125H.037597658C.027832032 .3828125 .020833334 .38476563 .016601563 .38867188 .012369792 .39257813 .010253906 .3976237 .010253906 .4038086 .010253906 .40952555 .012369792 .41429139 .016601563 .41810609 .020833334 .42192079 .027832032 .42382813 .037597658 .42382813H.11328125Z"/>
<path id="font_2_9" d="M.52197268 .20214844H.104003909C.11116537 .14908855 .13338216 .10636393 .1706543 .07397461 .20792644 .041585287 .254069 .025390625 .30908204 .025390625 .339681 .025390625 .37174479 .030436198 .40527345 .040527345 .4388021 .05061849 .46614585 .063964847 .4873047 .080566409 .4934896 .08544922 .4988607 .087890628 .50341799 .087890628 .5086263 .087890628 .5131836 .08585612 .51708987 .08178711 .5209961 .0777181 .5229492 .072916667 .5229492 .06738281 .5229492 .061848958 .52034506 .056477865 .5151367 .05126953 .49951173 .03499349 .47176109 .01977539 .43188478 .0056152346 .39200846-.008544922 .35107423-.015625 .30908204-.015625 .23876953-.015625 .1800944 .0074310305 .13305664 .05354309 .08601888 .09965515 .0625 .15546163 .0625 .22096253 .0625 .28059388 .08455404 .3317515 .12866211 .37443543 .17277019 .41712953 .2273763 .43847657 .29248048 .43847657 .35953776 .43847657 .41471354 .41653953 .4580078 .3726654 .50130209 .3287913 .5226237 .2719523 .52197268 .20214844M.48046876 .24316406C.47233073 .28884889 .45092774 .32598368 .41625978 .35456849 .3815918 .38316346 .34033204 .39746095 .29248048 .39746095 .2446289 .39746095 .20345052 .3833262 .16894531 .35505677 .13444011 .3267975 .11295573 .2894999 .10449219 .24316406H.48046876Z"/>
<path id="font_2_1" d="M0 0Z"/>
<path id="font_2_16" d="M.25097657 .42382813V.3200531C.30436198 .36812846 .34431968 .3990682 .3708496 .4128723 .39737956 .4266866 .421875 .43359376 .44433595 .43359376 .46875 .43359376 .49145509 .4253184 .5124512 .4087677 .53344729 .392217 .5439453 .37967936 .5439453 .3711548 .5439453 .3649292 .5419108 .3597819 .5378418 .3557129 .53377279 .3516439 .5286458 .34960938 .52246096 .34960938 .51920577 .34960938 .5164388 .35017906 .51416018 .35131837 .51188156 .35245768 .5076497 .3561605 .50146487 .36242677 .49007163 .3739624 .48014323 .38187156 .4716797 .38615418 .46321617 .3904368 .45491538 .39257813 .44677735 .39257813 .4288737 .39257813 .40730796 .38542176 .38208009 .371109 .3568522 .35679627 .31315104 .32182823 .25097657 .26620484V.041015626H.4326172C.44270835 .041015626 .44986979 .03914388 .45410157 .03540039 .45833335 .031656904 .46044923 .026692709 .46044923 .020507813 .46044923 .0146484379 .45833335 .009765625 .45410157 .005859375 .44986979 .001953125 .44270835 0 .4326172 0H.110839847C.10107422 0 .09407552 .0019175211 .08984375 .0057525637 .08561198 .0095876059 .083496097 .014506022 .083496097 .020507813 .083496097 .026041666 .0855306 .030680338 .08959961 .034423829 .09366862 .038167318 .100748699 .040039064 .110839847 .040039064H.20996094V.3828125H.13427735C.12451172 .3828125 .11751302 .38476563 .11328125 .38867188 .10904948 .39257813 .106933597 .3976237 .106933597 .4038086 .106933597 .40952555 .1089681 .41429139 .11303711 .41810609 .11710612 .42192079 .124186199 .42382813 .13427735 .42382813H.25097657Z"/>
<path id="font_2_17" d="M.43554688 .39746095C.43554688 .40672813 .4375 .4134369 .44140626 .41758729 .4453125 .42174784 .4501953 .42382813 .4560547 .42382813 .4622396 .42382813 .46728517 .42170207 .4711914 .41744996 .47509767 .413208 .47705079 .40602113 .47705079 .39588929V.32530213C.47705079 .31549583 .47509767 .30846659 .4711914 .30421449 .46728517 .29997254 .4622396 .29785157 .4560547 .29785157 .45052085 .29785157 .44588218 .2996572 .44213868 .30326844 .43839518 .30688987 .4361979 .31281028 .43554688 .32102967 .43359376 .34075419 .4235026 .35702516 .40527345 .36984254 .37858073 .3882548 .34326173 .39746095 .2993164 .39746095 .25341798 .39746095 .21777344 .3881836 .19238281 .3696289 .17317708 .3556315 .16357422 .3400065 .16357422 .3227539 .16357422 .30322267 .17496746 .28694663 .1977539 .27392579 .2133789 .2648112 .2430013 .2578125 .2866211 .2529297 .34358726 .24672444 .38313804 .23970032 .40527345 .2318573 .43684898 .22042339 .46036784 .20457459 .47583009 .18431092 .49129234 .16405742 .49902345 .14217122 .49902345 .118652347 .49902345 .08369955 .48225913 .052581788 .44873048 .025299073 .4152018-.0019836426 .3660482-.015625 .30126954-.015625 .23649089-.015625 .18343099 .00081380209 .14208985 .033691408 .14208985 .022460938 .1414388 .015192668 .14013672 .011886597 .13883464 .008590698 .13647461 .005783081 .13305664 .0034637452 .12963867 .0011545817 .1258138 0 .12158203 0 .115722659 0 .110839847 .0021209717 .106933597 .006362915 .103027347 .010615031 .10107422 .01763916 .10107422 .027435303V.112213138C.10107422 .12200928 .10294596 .12902832 .10668945 .13327027 .110432948 .13752239 .11539713 .13964844 .12158203 .13964844 .1274414 .13964844 .1324056 .13761394 .13647461 .13354492 .14054363 .1294759 .14257813 .12402344 .14257813 .1171875 .14257813 .10221354 .14632161 .08968099 .1538086 .079589847 .16520183 .063964847 .18334961 .05102539 .20825196 .040771486 .2331543 .030517579 .26367188 .025390625 .2998047 .025390625 .3531901 .025390625 .39290367 .035369874 .4189453 .05532837 .44498698 .075286868 .4580078 .09638977 .4580078 .118637088 .4580078 .14415996 .44482423 .16460674 .41845704 .17997742 .3917643 .19535828 .35294596 .20566304 .30200196 .21089173 .25105796 .21613057 .21451824 .2229716 .19238281 .2314148 .17024739 .23985799 .1529948 .2525228 .140625 .26940919 .1282552 .28630577 .12207031 .3044993 .12207031 .32398988 .12207031 .35906474 .13932292 .38691203 .17382813 .40753175 .20833333 .42816163 .24951172 .43847657 .29736329 .43847657 .3540039 .43847657 .4000651 .4248047 .43554688 .39746095Z"/>
<path id="font_2_19" d="M.4404297 0V.06059265C.3844401 .009780884 .32389323-.015625 .25878907-.015625 .21875-.015625 .1883138-.0046946208 .16748047 .017166138 .14046224 .04588318 .12695313 .079330448 .12695313 .117507938V.3828125H.071777347C.06201172 .3828125 .05501302 .38476563 .05078125 .38867188 .04654948 .39257813 .044433595 .3976237 .044433595 .4038086 .044433595 .40952555 .04654948 .41429139 .05078125 .41810609 .05501302 .42192079 .06201172 .42382813 .071777347 .42382813H.16796875V.11729431C.16796875 .09057108 .1764323 .068573 .19335938 .05130005 .21028646 .0340271 .23144531 .025390625 .25683595 .025390625 .32356773 .025390625 .38476563 .05602519 .4404297 .11729431V.3828125H.3647461C.35498048 .3828125 .34798179 .38476563 .34375 .38867188 .33951823 .39257813 .33740235 .3976237 .33740235 .4038086 .33740235 .40952555 .33951823 .41429139 .34375 .41810609 .34798179 .42192079 .35498048 .42382813 .3647461 .42382813H.4814453V.041015626H.5161133C.5258789 .041015626 .5328776 .03914388 .5371094 .03540039 .5413411 .031656904 .54345706 .026692709 .54345706 .020507813 .54345706 .0146484379 .5413411 .009765625 .5371094 .005859375 .5328776 .001953125 .5258789 0 .5161133 0H.4404297Z"/>
<path id="font_2_12" d="M.32080079 .61328127V.041015626H.4819336C.49202476 .041015626 .4991862 .03914388 .50341799 .03540039 .5076497 .031656904 .5097656 .026692709 .5097656 .020507813 .5097656 .0146484379 .5076497 .009765625 .50341799 .005859375 .4991862 .001953125 .49202476 0 .4819336 0H.118652347C.10888672 0 .10188802 .001953125 .09765625 .005859375 .09342448 .009765625 .091308597 .0146484379 .091308597 .020507813 .091308597 .026692709 .09342448 .031656904 .09765625 .03540039 .10188802 .03914388 .10888672 .041015626 .118652347 .041015626H.27978517V.5722656H.1616211C.15185547 .5722656 .14477539 .5741933 .14038086 .5780487 .13598633 .58191427 .13378906 .58690389 .13378906 .5930176 .13378906 .5988057 .13590496 .6036275 .14013672 .6074829 .14436849 .61134847 .15152996 .61328127 .1616211 .61328127H.32080079Z"/>
<path id="font_2_18" d="M.21582031 .42382813H.43847657C.4482422 .42382813 .45524089 .42192079 .45947267 .41810609 .46370445 .41429139 .4658203 .4093628 .4658203 .4033203 .4658203 .39746095 .46370445 .39257813 .45947267 .38867188 .45524089 .38476563 .4482422 .3828125 .43847657 .3828125H.21582031V.1091156C.21582031 .08529154 .2253418 .06537882 .24438477 .04937744 .26342774 .03338623 .29134117 .025390625 .328125 .025390625 .35579429 .025390625 .3857422 .029541016 .41796876 .037841798 .4501953 .046142579 .4752604 .0555013 .49316407 .06591797 .49967448 .07014974 .5050456 .072265628 .50927737 .072265628 .51448568 .072265628 .51904299 .07023112 .5229492 .06616211 .52685549 .062093099 .5288086 .057291669 .5288086 .051757814 .5288086 .046875 .5266927 .042317708 .52246096 .038085939 .51204428 .02734375 .48673503 .01570638 .4465332 .0031738282 .4063314-.009358724 .36783854-.015625 .3310547-.015625 .28320313-.015625 .24511719-.0043691 .21679688 .0181427 .18847656 .040664674 .1743164 .071014408 .1743164 .109191898V.3828125H.09863281C.08886719 .3828125 .08186849 .3847402 .07763672 .38859559 .073404949 .39246116 .07128906 .39745078 .07128906 .40356446 .07128906 .40935264 .073404949 .4141744 .07763672 .4180298 .08186849 .42189536 .08886719 .42382813 .09863281 .42382813H.1743164V.54571536C.1743164 .5555522 .17626953 .5625966 .18017578 .56684878 .18408203 .571111 .18896485 .5732422 .19482422 .5732422 .20100911 .5732422 .20605469 .571111 .20996094 .56684878 .21386719 .5625966 .21582031 .5555522 .21582031 .54571536V.42382813Z"/>
<path id="font_2_8" d="M.50097659 .61328127V.041015626H.55566409C.5657552 .041015626 .5729167 .03914388 .57714846 .03540039 .5813802 .031656904 .5834961 .026692709 .5834961 .020507813 .5834961 .014923096 .5813802 .010269165 .57714846 .0065460207 .5729167 .0028330486 .5657552 .0009765625 .55566409 .0009765625H.45947267V.08218384C.41194663 .016977946 .3515625-.015625 .2783203-.015625 .24121094-.015625 .20564778-.0057678224 .17163086 .013946533 .13761394 .03366089 .11075846 .061767579 .09106445 .0982666 .071370448 .13476563 .061523439 .17240398 .061523439 .21118164 .061523439 .25028483 .071370448 .28800456 .09106445 .32434083 .11075846 .3606771 .13761394 .38878379 .17163086 .4086609 .20564778 .428538 .2413737 .43847657 .2788086 .43847657 .3504232 .43847657 .41064454 .40603639 .45947267 .341156V.5722656H.40478517C.394694 .5722656 .38753257 .574173 .38330079 .5779877 .379069 .58180239 .37695313 .58673098 .37695313 .59277346 .37695313 .5986328 .379069 .6035156 .38330079 .6074219 .38753257 .6113281 .394694 .61328127 .40478517 .61328127H.50097659M.45947267 .21142578C.45947267 .26364137 .44189454 .30769859 .40673829 .3435974 .37158204 .37950645 .3297526 .39746095 .28125 .39746095 .23242188 .39746095 .19042969 .37950645 .15527344 .3435974 .12011719 .30769859 .10253906 .26364137 .10253906 .21142578 .10253906 .15953572 .12011719 .11555481 .15527344 .07948303 .19042969 .04342143 .23242188 .025390625 .28125 .025390625 .3297526 .025390625 .37158204 .04342143 .40673829 .07948303 .44189454 .11555481 .45947267 .15953572 .45947267 .21142578Z"/>
<path id="font_2_20" d="M.32885743 .22181702 .5161133 .041015626C.5284831 .041015626 .5362956 .040445966 .5395508 .03930664 .54280599 .038167318 .5456543 .035807294 .5480957 .032226564 .5505371 .028645834 .5517578 .024739584 .5517578 .020507813 .5517578 .0146484379 .5496419 .009765625 .54541018 .005859375 .5411784 .001953125 .5340169 0 .5239258 0H.39208985C.3819987 0 .37483726 .001953125 .37060548 .005859375 .3663737 .009765625 .3642578 .0146484379 .3642578 .020507813 .3642578 .026692709 .3663737 .031656904 .37060548 .03540039 .37483726 .03914388 .3819987 .041015626 .39208985 .041015626H.45996095L.30067445 .19459534 .14160156 .041015626H.20996094C.21972656 .041015626 .22672527 .03914388 .23095703 .03540039 .2351888 .031656904 .23730469 .026692709 .23730469 .020507813 .23730469 .0146484379 .2351888 .009765625 .23095703 .005859375 .22672527 .001953125 .21972656 0 .20996094 0H.076660159C.06689453 0 .059895833 .001953125 .055664064 .005859375 .051432294 .009765625 .049316408 .0146484379 .049316408 .020507813 .049316408 .024739584 .05053711 .028645834 .052978517 .032226564 .055419923 .035807294 .058186849 .038167318 .061279298 .03930664 .06437174 .040445966 .07210287 .041015626 .084472659 .041015626L.27233888 .22190857 .10546875 .3828125C.09375 .3828125 .0863444 .38345338 .08325195 .3847351 .08015951 .386027 .07739258 .388443 .07495117 .39198304 .072509769 .39552308 .07128906 .39938355 .07128906 .40356446 .07128906 .40935264 .073404949 .4141744 .07763672 .4180298 .08186849 .42189536 .089029949 .42382813 .099121097 .42382813H.2109375C.22102864 .42382813 .22810872 .42189536 .23217774 .4180298 .23624675 .4141744 .23828125 .40918986 .23828125 .40307618 .23828125 .397288 .23624675 .39246116 .23217774 .38859559 .22810872 .3847402 .22102864 .3828125 .2109375 .3828125H.16210938L.3005829 .24909973 .43945313 .3828125H.390625C.38085938 .3828125 .3737793 .3847402 .36938478 .38859559 .36499024 .39246116 .36279298 .39745078 .36279298 .40356446 .36279298 .40935264 .36490885 .4141744 .36914063 .4180298 .3733724 .42189536 .38053385 .42382813 .390625 .42382813H.5024414C.51220706 .42382813 .51920577 .42189536 .5234375 .4180298 .52766928 .4141744 .52978518 .40918986 .52978518 .40307618 .52978518 .3992208 .52856448 .39552308 .52612307 .39198304 .52368167 .388443 .52091476 .386027 .51782229 .3847351 .5147298 .38345338 .5073242 .3828125 .49560548 .3828125L.32885743 .22181702Z"/>
<path id="font_2_10" d="M.27294923 .3828125V.041015626H.453125C.46289063 .041015626 .4698893 .03914388 .4741211 .03540039 .47835288 .031656904 .48046876 .026692709 .48046876 .020507813 .48046876 .0146484379 .47835288 .009765625 .4741211 .005859375 .4698893 .001953125 .46289063 0 .453125 0H.13232422C.122558597 0 .1155599 .001953125 .111328128 .005859375 .10709635 .009765625 .10498047 .0146484379 .10498047 .020507813 .10498047 .026692709 .10709635 .031656904 .111328128 .03540039 .1155599 .03914388 .122558597 .041015626 .13232422 .041015626H.23144531V.3828125H.14257813C.1328125 .3828125 .1258138 .3847402 .12158203 .38859559 .11735026 .39246116 .115234378 .39745078 .115234378 .40356446 .115234378 .40935264 .11735026 .4141744 .12158203 .4180298 .1258138 .42189536 .1328125 .42382813 .14257813 .42382813H.23144531V.48568727C.23144531 .5201009 .2454427 .54996749 .2734375 .57528689 .30143229 .60061648 .33854167 .61328127 .38476563 .61328127 .4235026 .61328127 .46484376 .609731 .50878909 .6026306 .5253906 .60005697 .5354004 .59699508 .53881838 .5934448 .5422363 .5898946 .5439453 .5852153 .5439453 .57940676 .5439453 .5735982 .5419922 .56883749 .53808596 .5651245 .5341797 .5614217 .5289714 .5595703 .52246096 .5595703 .51985678 .5595703 .5154622 .5600586 .50927737 .56103518 .4601237 .56852218 .41861979 .5722656 .38476563 .5722656 .34895835 .5722656 .32137046 .56347659 .30200196 .54589846 .28263346 .5283203 .27294923 .5083008 .27294923 .48583985V.42382813H.46484376C.47460938 .42382813 .48160807 .42189536 .48583985 .4180298 .49007163 .4141744 .4921875 .40918986 .4921875 .40307618 .4921875 .397288 .49007163 .39246116 .48583985 .38859559 .48160807 .3847402 .47460938 .3828125 .46484376 .3828125H.27294923Z"/>
<path id="font_3_1" d="M0 0Z"/>
<path id="font_3_10" d="M.11669922 .1640625C.11930338 .13463338 .12662761 .11207072 .13867188 .09637451 .1608073 .06793213 .19921875 .053710939 .25390626 .053710939 .28645835 .053710939 .31510417 .060806276 .33984376 .07499695 .36458335 .08919779 .37695313 .11115011 .37695313 .14085388 .37695313 .16337586 .36702476 .18051148 .34716798 .19226074 .33447267 .19944255 .30940757 .20775859 .27197267 .21720886L.20214844 .2348175C.15755208 .24590557 .12467448 .25829569 .103515628 .27198792 .06575521 .29579164 .046875 .32873027 .046875 .37080384 .046875 .42036439 .064697269 .46046958 .1003418 .49111939 .13598633 .52177938 .18391927 .5371094 .24414063 .5371094 .32291667 .5371094 .37972007 .5139974 .41455079 .46777345 .4363607 .43847657 .4469401 .40690104 .44628907 .37304688H.36328126C.36165367 .39269004 .35465495 .41055808 .34228517 .426651 .32210288 .44950868 .28710938 .4609375 .23730469 .4609375 .20410156 .4609375 .17895508 .45461528 .16186524 .44197084 .14477539 .42933656 .13623047 .41264854 .13623047 .39190675 .13623047 .36922203 .14746094 .35107423 .16992188 .33746339 .1829427 .32936607 .20214844 .32221986 .22753906 .31602479L.28564454 .3018341C.34879557 .28650413 .39111329 .27166749 .41259767 .25732423 .44677735 .23482259 .4638672 .19944255 .4638672 .15118408 .4638672 .10455322 .44620768 .06428019 .41088868 .03036499 .37556968-.0035502117 .32177735-.020507813 .24951172-.020507813 .17171224-.020507813 .116617839-.002802531 .084228519 .032608034 .05183919 .06801859 .034505208 .111836757 .032226564 .1640625H.11669922M.24658203 .5361328V.5361328Z"/>
<path id="font_3_11" d="M.08203125 .66796877H.17089844V.5234375H.25439454V.4501953H.17089844V.110183719C.17089844 .09202576 .17708333 .07986959 .18945313 .07371521 .19628906 .07014465 .2076823 .068359378 .22363281 .068359378 .22786458 .068359378 .23242188 .06846619 .23730469 .06867981 .2421875 .0689036 .24788411 .06944784 .25439454 .0703125V0C.24430339-.0031026204 .23380535-.005340576 .22290039-.006713867 .21199544-.008097331 .20019531-.0087890629 .1875-.0087890629 .14648438-.0087890629 .118652347 .0016988119 .104003909 .02267456 .08935547 .04365031 .08203125 .070882167 .08203125 .10437012V.4501953H.011230469V.5234375H.08203125V.66796877Z"/>
<path id="font_3_9" d="M.06689453 .5234375H.15039063V.4326172C.15722656 .4502767 .17399089 .4717814 .2006836 .49713136 .2273763 .52248129 .25813804 .53515627 .29296876 .53515627 .29459635 .53515627 .29736329 .5349579 .30126954 .53456118 .30517579 .5341746 .31184898 .5333964 .32128907 .53222659V.43945313C.31608073 .44062297 .3112793 .44140116 .30688478 .44178773 .30249024 .44218446 .2976888 .4423828 .29248048 .4423828 .24820964 .4423828 .2141927 .4280599 .19042969 .39941407 .16666667 .37076823 .15478516 .33789063 .15478516 .30078126V0H.06689453V.5234375Z"/>
<path id="font_3_12" d="M.15234375 .5234375V.17590332C.15234375 .1491801 .15657552 .12734477 .16503906 .11039734 .18066406 .07911682 .20979817 .06347656 .2524414 .06347656 .3136393 .06347656 .355306 .09085083 .3774414 .14559937 .3894857 .17492676 .3955078 .21516927 .3955078 .2663269V.5234375H.48339845V0H.40039063L.4013672 .0771637C.38997398 .057195028 .3758138 .040339155 .35888673 .02659607 .32535807-.00090026858 .28466798-.0146484379 .2368164-.0146484379 .16227214-.0146484379 .11149088 .010299683 .084472659 .060195924 .06982422 .08693949 .0625 .12265015 .0625 .16732788V.5234375H.15234375M.27294923 .5361328V.5361328Z"/>
<path id="font_3_4" d="M.26611329 .53808596C.32503257 .53808596 .37296549 .5237274 .4099121 .49501039 .44685874 .46629334 .46907554 .41684977 .4765625 .3466797H.39111329C.38590495 .37890626 .37402345 .40568034 .35546876 .42700196 .33691407 .44832359 .3071289 .45898438 .26611329 .45898438 .2101237 .45898438 .17008464 .43170677 .1459961 .3771515 .1303711 .34176127 .122558597 .29808555 .122558597 .24612427 .122558597 .19384766 .1336263 .14984639 .15576172 .11412048 .17789714 .07840475 .21272786 .060546876 .2602539 .060546876 .29671226 .060546876 .3256022 .0716095 .34692384 .09373474 .36824546 .115859989 .38297526 .1461385 .39111329 .18457031H.4765625C.46679688 .115234378 .4423828 .06453451 .4033203 .032470704 .3642578 .00040690104 .31429038-.015625 .25341798-.015625 .1850586-.015625 .13053386 .009379069 .08984375 .059387208 .049153646 .10940552 .028808594 .17188008 .028808594 .24681092 .028808594 .33868919 .05110677 .41020204 .095703128 .4613495 .14029949 .51250717 .19710286 .53808596 .26611329 .53808596M.2524414 .5361328V.5361328Z"/>
<path id="font_4_1" d="M0 0Z"/>
<path id="font_3_2" d="M.13964844 .23144531C.14192708 .19064331 .15152996 .1575063 .16845703 .1320343 .2006836 .084376018 .25748698 .060546876 .3388672 .060546876 .37532554 .060546876 .40852867 .06575521 .43847657 .076171878 .49641929 .096354167 .5253906 .13248189 .5253906 .18455506 .5253906 .22361756 .5131836 .25144959 .48876954 .26805116 .46402995 .2843882 .42529298 .29859925 .3725586 .3106842L.27539063 .3327484C.21191406 .3471222 .16699219 .36294047 .140625 .38020326 .095052089 .41016136 .072265628 .4549408 .072265628 .5145416 .072265628 .57902529 .094563808 .6319478 .13916016 .6733093 .18375652 .71467086 .24690755 .73535159 .32861329 .73535159 .4038086 .73535159 .46769206 .7172038 .5202637 .6809082 .57283529 .6446126 .5991211 .58658859 .5991211 .50683596H.5078125C.5029297 .5452474 .49251304 .57470706 .4765625 .59521487 .4469401 .6326497 .39664714 .6513672 .3256836 .6513672 .26839195 .6513672 .22721355 .63931277 .20214844 .61520388 .17708333 .591095 .16455078 .56307479 .16455078 .5311432 .16455078 .49595643 .17919922 .47021995 .2084961 .45393373 .22770183 .44350688 .27115885 .43047587 .3388672 .4148407L.43945313 .39187623C.48795573 .38079835 .5253906 .36565147 .5517578 .34643556 .59733077 .31288658 .6201172 .26419068 .6201172 .2003479 .6201172 .12085978 .59122726 .06401571 .53344729 .029815674 .47566734-.004384359 .40852867-.021484375 .33203126-.021484375 .24283855-.021484375 .17301433 .0013478597 .122558597 .04701233 .07210287 .0923411 .04736328 .15381877 .048339845 .23144531H.13964844M.3359375 .7373047V.7373047Z"/>
<path id="font_3_8" d="M.27197267 .057617189C.33024089 .057617189 .37019859 .07964579 .3918457 .123703 .41349284 .16776021 .4243164 .21677144 .4243164 .2707367 .4243164 .31950379 .4165039 .35917155 .4008789 .38974 .3761393 .43785606 .3334961 .46191407 .27294923 .46191407 .21923828 .46191407 .18017578 .44143168 .15576172 .40046693 .13134766 .35950218 .119140628 .31008403 .119140628 .25221253 .119140628 .1966095 .13134766 .15027364 .15576172 .113204959 .18017578 .076146449 .21891277 .057617189 .27197267 .057617189M.27539063 .53808596C.34277345 .53808596 .3997396 .5156453 .44628907 .47076417 .49283854 .42588298 .5161133 .35985819 .5161133 .27268983 .5161133 .1884613 .49560548 .11886088 .45458985 .06388855 .41357423 .008926392 .3499349-.018554688 .26367188-.018554688 .19173177-.018554688 .13460286 .00575765 .092285159 .054382326 .04996745 .103006999 .028808594 .16829936 .028808594 .2502594 .028808594 .33806864 .05110677 .4079895 .095703128 .46002198 .14029949 .51206466 .20019531 .53808596 .27539063 .53808596M.27246095 .5361328V.5361328Z"/>
<path id="font_3_7" d="M.0625 .71777346H.14697266V.30101014L.3725586 .5234375H.48486329L.28466798 .32881166 .49609376 0H.38378907L.22070313 .26635743 .14697266 .19647217V0H.0625V.71777346Z"/>
<path id="font_3_6" d="M.28222657 .53515627C.31933595 .53515627 .355306 .52644857 .39013673 .5090332 .42496745 .49161784 .4514974 .4690806 .46972657 .4414215 .4873047 .41505433 .49902345 .3842977 .5048828 .3491516 .5100911 .32506309 .5126953 .28647868 .5126953 .23339844H.12939453C.13102214 .18033855 .14355469 .13777669 .16699219 .10571289 .19042969 .073649089 .22672527 .057617189 .2758789 .057617189 .32177735 .057617189 .35839845 .07261658 .3857422 .10261536 .4013672 .12003072 .4124349 .14018758 .4189453 .16308594H.5053711C.50309249 .14398194 .49552409 .122690837 .48266603 .09921265 .46980796 .07574463 .45540367 .05656433 .43945313 .041671754 .4127604 .01576233 .37972007-.0017242432 .34033204-.010787964 .3191732-.01596578 .2952474-.018554688 .2685547-.018554688 .20345052-.018554688 .14827474 .0051472985 .103027347 .05255127 .05777995 .09995524 .03515625 .16634114 .03515625 .25170899 .03515625 .33576457 .057942708 .40401713 .103515628 .45646668 .14908855 .5089264 .20865886 .53515627 .28222657 .53515627M.42236329 .30371095C.41878257 .34191896 .41048179 .37245179 .39746095 .39530946 .3733724 .4377594 .33317057 .45898438 .27685548 .45898438 .23649089 .45898438 .20263672 .44437156 .17529297 .41514588 .14794922 .3859202 .13346355 .34877525 .13183594 .30371095H.42236329M.27392579 .5361328V.5361328Z"/>
<path id="font_3_3" d="M.13183594 .1394043C.13183594 .114095058 .14111328 .09413656 .15966797 .07952881 .17822266 .06492106 .20019531 .057617189 .22558594 .057617189 .2565104 .057617189 .28645835 .06471761 .3154297 .07891846 .3642578 .10247803 .38867188 .14127605 .38867188 .1953125V.26611329C.3779297 .25886027 .36409507 .2528127 .34716798 .24797058 .33024089 .24313863 .3136393 .23983257 .29736329 .23805237L.24414063 .23184204C.21223958 .22799683 .1883138 .22153218 .17236328 .21244812 .14534505 .19718933 .13183594 .17284139 .13183594 .1394043M.34472657 .31689454C.36490885 .3194987 .37841798 .32796226 .3852539 .34228517 .38916017 .35012818 .39111329 .36140443 .39111329 .3761139 .39111329 .40618388 .38045249 .42799888 .35913087 .44155885 .33780924 .455129 .30729167 .46191407 .26757813 .46191407 .22167969 .46191407 .18912761 .44948326 .16992188 .42462159 .15917969 .4108785 .15218099 .39043174 .14892578 .36328126H.06689453C.06852213 .42791749 .08943685 .47288514 .12963867 .4981842 .1698405 .5234833 .21647136 .5361328 .26953126 .5361328 .3310547 .5361328 .38102214 .52441409 .4194336 .50097659 .45751954 .47753907 .4765625 .4410502 .4765625 .39151V.08985901C.4765625 .08073425 .47843424 .073404949 .48217774 .067871097 .48592124 .06233724 .4938151 .059570314 .5058594 .059570314 .5097656 .059570314 .51416018 .059814454 .51904299 .060302736 .5239258 .060791017 .5291341 .061523439 .53466799 .0625V-.0028076173C.5209961-.00676473 .5105794-.009236653 .50341799-.010223389 .4962565-.011220296 .48649089-.01171875 .4741211-.01171875 .44384767-.01171875 .421875-.0009104411 .40820313 .020706177 .40104167 .032170614 .3959961 .048380536 .3930664 .06933594 .37516276 .045633954 .34944663 .025060019 .31591798 .0076141359 .2823893-.009831746 .2454427-.018554688 .20507813-.018554688 .15657552-.018554688 .11694336-.0037790936 .08618164 .025772095 .055419923 .055323285 .040039064 .092300418 .040039064 .13670349 .040039064 .18535869 .05517578 .22307332 .08544922 .24984741 .115722659 .2766215 .1554362 .29311119 .20458985 .2993164L.34472657 .31689454M.27197267 .5361328V.5361328Z"/>
<path id="font_3_5" d="M.12011719 .2553711C.12011719 .19923909 .1319987 .15224712 .15576172 .11439514 .17952474 .076543178 .21761067 .057617189 .27001954 .057617189 .31070964 .057617189 .3441569 .075154628 .37036134 .11022949 .39656578 .14531453 .40966798 .19565328 .40966798 .26124574 .40966798 .32748924 .39615885 .37651573 .36914063 .4083252 .3421224 .44014488 .3087565 .4560547 .26904298 .4560547 .22477214 .4560547 .18888347 .4390869 .16137696 .40515138 .13387044 .37121583 .12011719 .32128907 .12011719 .2553711M.2524414 .53222659C.29248048 .53222659 .32600913 .52381899 .35302735 .5070038 .36865235 .4972992 .38639323 .48031617 .40625 .4560547V.71875H.49072267V0H.4116211V.07229614C.39111329 .04023234 .36686198 .017074585 .3388672 .002822876 .3108724-.011428833 .2788086-.018554688 .24267578-.018554688 .18440755-.018554688 .13395183 .0059407555 .091308597 .05493164 .048665365 .10392252 .02734375 .16910808 .02734375 .25048829 .02734375 .32666017 .04679362 .39265953 .08569336 .44848634 .1245931 .5043132 .18017578 .53222659 .2524414 .53222659Z"/>
<path id="font_2_3" d="M.50097659 0H.4482422L.1459961 .5107422V.041015626H.22167969C.23177083 .041015626 .2389323 .03914388 .24316406 .03540039 .24739583 .031656904 .24951172 .026692709 .24951172 .020507813 .24951172 .0146484379 .24739583 .009765625 .24316406 .005859375 .2389323 .001953125 .23177083 0 .22167969 0H.07080078C.060709638 0 .053548177 .001953125 .049316408 .005859375 .045084638 .009765625 .04296875 .0146484379 .04296875 .020507813 .04296875 .026692709 .045084638 .031656904 .049316408 .03540039 .053548177 .03914388 .060709638 .041015626 .07080078 .041015626H.10498047V.53027346H.049804689C.040039064 .53027346 .033040365 .5321452 .028808594 .5358887 .024576823 .53963217 .022460938 .5445964 .022460938 .55078127 .022460938 .5569661 .024576823 .56193038 .028808594 .5656738 .033040365 .5694173 .040039064 .57128909 .049804689 .57128909H.15722656L.45996095 .059570314V.53027346H.38427735C.37451173 .53027346 .36751304 .5321452 .36328126 .5358887 .35904948 .53963217 .3569336 .5445964 .3569336 .55078127 .3569336 .5569661 .3589681 .56193038 .3630371 .5656738 .3671061 .5694173 .3741862 .57128909 .38427735 .57128909H.53564456C.54541018 .57128909 .5524089 .5694173 .5566406 .5656738 .5608724 .56193038 .5629883 .5569661 .5629883 .55078127 .5629883 .5445964 .5608724 .53963217 .5566406 .5358887 .5524089 .5321452 .54541018 .53027346 .53564456 .53027346H.50097659V0Z"/>
<path id="font_2_4" d="M.49853517 .53027346V.18780518C.49853517 .13023885 .47932945 .0819397 .44091798 .042907716 .4025065 .003885905 .35611979-.015625 .3017578-.015625 .26529948-.015625 .23291016-.007659912 .20458985 .008270264 .17626953 .024210612 .15218099 .048360189 .13232422 .080718997 .112467449 .113087978 .10253906 .14878337 .10253906 .18780518V.53027346H.067871097C.05810547 .53027346 .05110677 .5321452 .046875 .5358887 .04264323 .53963217 .040527345 .5445964 .040527345 .55078127 .040527345 .5569661 .04280599 .5621745 .04736328 .56640627 .05126953 .56966146 .05810547 .57128909 .067871097 .57128909H.21923828C.2290039 .57128909 .23600261 .5694173 .24023438 .5656738 .24446614 .56193038 .24658203 .5569661 .24658203 .55078127 .24658203 .5445964 .24446614 .53963217 .24023438 .5358887 .23600261 .5321452 .2290039 .53027346 .21923828 .53027346H.14355469V.1878357C.14355469 .14262899 .15901692 .104253139 .1899414 .07270813 .22086589 .041163129 .25748698 .025390625 .2998047 .025390625 .3268229 .025390625 .3514811 .031570436 .3737793 .043930055 .39607749 .056289674 .41560874 .075312297 .43237306 .100997928 .44913737 .12669373 .45751954 .15563965 .45751954 .1878357V.53027346H.38183595C.3720703 .53027346 .36507163 .5321452 .36083985 .5358887 .35660807 .53963217 .3544922 .5445964 .3544922 .55078127 .3544922 .5569661 .35660807 .56193038 .36083985 .5656738 .36507163 .5694173 .3720703 .57128909 .38183595 .57128909H.5332031C.54296877 .57128909 .54996749 .5694173 .5541992 .5656738 .55843099 .56193038 .5605469 .5569661 .5605469 .55078127 .5605469 .5445964 .55843099 .53963217 .5541992 .5358887 .54996749 .5321452 .54296877 .53027346 .5332031 .53027346H.49853517Z"/>
<path id="font_2_2" d="M.2290039 .53027346V.041015626H.50146487V.20410156C.50146487 .21386719 .50341799 .22086589 .5073242 .22509766 .51123049 .22932942 .51627609 .23144531 .52246096 .23144531 .5283203 .23144531 .5332031 .22941081 .5371094 .2253418 .5410156 .22127278 .54296877 .2141927 .54296877 .20410156V0H.08984375C.080078128 0 .07307943 .001953125 .068847659 .005859375 .06461588 .009765625 .0625 .0146484379 .0625 .020507813 .0625 .026692709 .06461588 .031656904 .068847659 .03540039 .07307943 .03914388 .080078128 .041015626 .08984375 .041015626H.1875V.53027346H.08984375C.080078128 .53027346 .07307943 .5321452 .068847659 .5358887 .06461588 .53963217 .0625 .5445964 .0625 .55078127 .0625 .5569661 .06461588 .56193038 .068847659 .5656738 .07307943 .5694173 .080078128 .57128909 .08984375 .57128909H.32666017C.33642579 .57128909 .34342448 .5694173 .34765626 .5656738 .35188804 .56193038 .3540039 .5569661 .3540039 .55078127 .3540039 .5445964 .35188804 .53963217 .34765626 .5358887 .34342448 .5321452 .33642579 .53027346 .32666017 .53027346H.2290039Z"/>
</defs>
<g clip-path="url(#clip_0)">
<g clip-path="url(#clip_1)">
<path transform="matrix(1,0,0,-1,-24.1296,518.984)" d="M0 539.9999H719.9999V.00003079383H0Z" fill="#ffffff" fill-rule="evenodd"/>
<path transform="matrix(1,0,0,-1,-24.1296,518.984)" d="M228 455.9999H353.9999V431.9999H228Z" fill="#ffffff" fill-rule="evenodd"/>
<path transform="matrix(.00007874014,0,0,.00007874014,203.87039,62.9841)" stroke-width="12700" stroke-linecap="butt" stroke-miterlimit="8" stroke-linejoin="miter" fill="none" stroke="#000000" d="M.0577392-.1154784H1600200V304799.9H.0577392Z"/>
<use data-text="a" xlink:href="#font_2_6" transform="matrix(16,0,0,-16,209.0704,81.384098)"/>
<use data-text="i" xlink:href="#font_2_11" transform="matrix(16,0,0,-16,218.672,81.384098)"/>
<use data-text="_" xlink:href="#font_2_5" transform="matrix(16,0,0,-16,228.2736,81.384098)"/>
<use data-text="c" xlink:href="#font_2_7" transform="matrix(16,0,0,-16,237.87522,81.384098)"/>
<use data-text="a" xlink:href="#font_2_6" transform="matrix(16,0,0,-16,247.4768,81.384098)"/>
<use data-text="n" xlink:href="#font_2_14" transform="matrix(16,0,0,-16,257.0784,81.384098)"/>
<use data-text="o" xlink:href="#font_2_15" transform="matrix(16,0,0,-16,266.68,81.384098)"/>
<use data-text="n" xlink:href="#font_2_14" transform="matrix(16,0,0,-16,276.28163,81.384098)"/>
<use data-text="n" xlink:href="#font_2_14" transform="matrix(16,0,0,-16,285.8832,81.384098)"/>
<use data-text="a" xlink:href="#font_2_6" transform="matrix(16,0,0,-16,295.4848,81.384098)"/>
<use data-text="m" xlink:href="#font_2_13" transform="matrix(16,0,0,-16,305.08644,81.384098)"/>
<use data-text="e" xlink:href="#font_2_9" transform="matrix(16,0,0,-16,314.68803,81.384098)"/>
<use data-text=" " xlink:href="#font_2_1" transform="matrix(16,0,0,-16,324.2892,81.384098)"/>
<path transform="matrix(1,0,0,-1,-24.1296,518.984)" d="M29.99999 503.9999H156V479.9999H29.99999Z" fill="#ffffff" fill-rule="evenodd"/>
<path transform="matrix(.00007874014,0,0,.00007874014,5.87039,14.9841)" stroke-width="12700" stroke-linecap="butt" stroke-miterlimit="8" stroke-linejoin="miter" fill="none" stroke="#000000" d="M-.01407624 .2907716H1600200V304800.3H-.01407624Z"/>
<use data-text="r" xlink:href="#font_2_16" transform="matrix(16,0,0,-16,40.07039,33.384096)"/>
<use data-text="e" xlink:href="#font_2_9" transform="matrix(16,0,0,-16,49.67199,33.384096)"/>
<use data-text="s" xlink:href="#font_2_17" transform="matrix(16,0,0,-16,59.27359,33.384096)"/>
<use data-text="u" xlink:href="#font_2_19" transform="matrix(16,0,0,-16,68.87519,33.384096)"/>
<use data-text="l" xlink:href="#font_2_12" transform="matrix(16,0,0,-16,78.47679,33.384096)"/>
<use data-text="t" xlink:href="#font_2_18" transform="matrix(16,0,0,-16,88.07839,33.384096)"/>
<use data-text=" " xlink:href="#font_2_1" transform="matrix(16,0,0,-16,97.67999,33.384096)"/>
<path transform="matrix(1,0,0,-1,-24.1296,518.984)" d="M228 431.9999H353.9999V407.9999H228Z" fill="#ffffff" fill-rule="evenodd"/>
<path transform="matrix(.00007874014,0,0,.00007874014,203.87039,86.9841)" stroke-width="12700" stroke-linecap="butt" stroke-miterlimit="8" stroke-linejoin="miter" fill="none" stroke="#000000" d="M.0577392-.0686034H1600200V304800H.0577392Z"/>
<use data-text="a" xlink:href="#font_2_6" transform="matrix(16,0,0,-16,233.0704,105.384098)"/>
<use data-text="i" xlink:href="#font_2_11" transform="matrix(16,0,0,-16,242.672,105.384098)"/>
<use data-text="_" xlink:href="#font_2_5" transform="matrix(16,0,0,-16,252.2736,105.384098)"/>
<use data-text="a" xlink:href="#font_2_6" transform="matrix(16,0,0,-16,261.8752,105.384098)"/>
<use data-text="d" xlink:href="#font_2_8" transform="matrix(16,0,0,-16,271.4768,105.384098)"/>
<use data-text="d" xlink:href="#font_2_8" transform="matrix(16,0,0,-16,281.0784,105.384098)"/>
<use data-text="r" xlink:href="#font_2_16" transform="matrix(16,0,0,-16,290.68,105.384098)"/>
<use data-text=" " xlink:href="#font_2_1" transform="matrix(16,0,0,-16,300.28135,105.384098)"/>
<path transform="matrix(1,0,0,-1,-24.1296,518.984)" d="M228 407.9999H353.9999V383.9999H228Z" fill="#ffffff" fill-rule="evenodd"/>
<path transform="matrix(.00007874014,0,0,.00007874014,203.87039,110.9841)" stroke-width="12700" stroke-linecap="butt" stroke-miterlimit="8" stroke-linejoin="miter" fill="none" stroke="#000000" d="M.0577392-.0217284H1600200V304800H.0577392Z"/>
<use data-text="a" xlink:href="#font_2_6" transform="matrix(16,0,0,-16,233.0704,129.3841)"/>
<use data-text="i" xlink:href="#font_2_11" transform="matrix(16,0,0,-16,242.672,129.3841)"/>
<use data-text="_" xlink:href="#font_2_5" transform="matrix(16,0,0,-16,252.2736,129.3841)"/>
<use data-text="n" xlink:href="#font_2_14" transform="matrix(16,0,0,-16,261.8752,129.3841)"/>
<use data-text="e" xlink:href="#font_2_9" transform="matrix(16,0,0,-16,271.4768,129.3841)"/>
<use data-text="x" xlink:href="#font_2_20" transform="matrix(16,0,0,-16,281.0784,129.3841)"/>
<use data-text="t" xlink:href="#font_2_18" transform="matrix(16,0,0,-16,290.68,129.3841)"/>
<use data-text=" " xlink:href="#font_2_1" transform="matrix(16,0,0,-16,300.28135,129.3841)"/>
<path transform="matrix(1,0,0,-1,-24.1296,518.984)" d="M228 491.9999H353.9999V455.9999H228Z" fill="#e0e0e0" fill-rule="evenodd"/>
<path transform="matrix(.00007874014,0,0,.00007874014,203.87039,26.9841)" stroke-width="12700" stroke-linecap="butt" stroke-miterlimit="8" stroke-linejoin="miter" fill="none" stroke="#000000" d="M.0577392 .3142091H1600200V457200.4H.0577392Z"/>
<path transform="matrix(.00007874014,0,0,.00007874014,329.8703,98.98401)" stroke-width="12700" stroke-linecap="butt" stroke-linejoin="round" fill="none" stroke="#000000" d="M-.08374035 .0672608H889195"/>
<path transform="matrix(1,0,0,-1,-24.1296,518.984)" d="M425.9999 420 418.5192 415.6362C418.0421 415.3579 417.4298 415.519 417.1515 415.9961 416.8732 416.4731 417.0344 417.0855 417.5114 417.3637L422.0306 420 417.5114 422.6362C417.0344 422.9145 416.8732 423.5268 417.1515 424.0038 417.4298 424.4809 418.0421 424.642 418.5192 424.3637Z" fill-rule="evenodd"/>
<path transform="matrix(1,0,0,-1,-24.1296,518.984)" d="M425.9999 443.9999H551.9999V401.9999H425.9999Z" fill="#e0e0e0" fill-rule="evenodd"/>
<path transform="matrix(.00007874014,0,0,.00007874014,401.8703,74.9841)" stroke-width="12700" stroke-linecap="butt" stroke-miterlimit="8" stroke-linejoin="miter" fill="none" stroke="#000000" d="M.05688465-.0920409H1600200V533400H.05688465Z"/>
<path transform="matrix(.00007874014,0,0,.00007874014,131.87039,26.9841)" stroke-width="12700" stroke-linecap="butt" stroke-linejoin="round" fill="none" stroke="#000000" d="M-.0828858 .3142091H889195.2"/>
<path transform="matrix(1,0,0,-1,-24.1296,518.984)" d="M228 491.9999 220.5192 487.6362C220.0422 487.3579 219.4298 487.519 219.1516 487.9961 218.8733 488.4731 219.0344 489.0854 219.5115 489.3637L224.0307 491.9999 219.5115 494.6362C219.0344 494.9144 218.8733 495.5268 219.1516 496.0038 219.4298 496.4809 220.0422 496.642 220.5192 496.3637Z" fill-rule="evenodd"/>
<use data-text="a" xlink:href="#font_2_6" transform="matrix(16,0,0,-16,199.9011,13.926331)"/>
<use data-text="d" xlink:href="#font_2_8" transform="matrix(16,0,0,-16,209.50269,13.926331)"/>
<use data-text="d" xlink:href="#font_2_8" transform="matrix(16,0,0,-16,219.1043,13.926331)"/>
<use data-text="r" xlink:href="#font_2_16" transform="matrix(16,0,0,-16,228.7059,13.926331)"/>
<use data-text="i" xlink:href="#font_2_11" transform="matrix(16,0,0,-16,238.3075,13.926331)"/>
<use data-text="n" xlink:href="#font_2_14" transform="matrix(16,0,0,-16,247.90909,13.926331)"/>
<use data-text="f" xlink:href="#font_2_10" transform="matrix(16,0,0,-16,257.51069,13.926331)"/>
<use data-text="o" xlink:href="#font_2_15" transform="matrix(16,0,0,-16,267.1123,13.926331)"/>
<use data-text=" " xlink:href="#font_3_1" transform="matrix(16,0,0,-16,276.7136,13.926331)"/>
<use data-text="s" xlink:href="#font_3_10" transform="matrix(16,0,0,-16,281.1589,13.926331)"/>
<use data-text="t" xlink:href="#font_3_11" transform="matrix(16,0,0,-16,289.1589,13.926331)"/>
<use data-text="r" xlink:href="#font_3_9" transform="matrix(16,0,0,-16,293.6037,13.926331)"/>
<use data-text="u" xlink:href="#font_3_12" transform="matrix(16,0,0,-16,298.9317,13.926331)"/>
<use data-text="c" xlink:href="#font_3_4" transform="matrix(16,0,0,-16,307.8309,13.926331)"/>
<use data-text="t" xlink:href="#font_3_11" transform="matrix(16,0,0,-16,315.8309,13.926331)"/>
<use data-text="s" xlink:href="#font_3_10" transform="matrix(16,0,0,-16,320.2757,13.926331)"/>
<use data-text="&#xfffd;" xlink:href="#font_4_1" transform="matrix(16,0,0,-16,328.2761,13.926331)"/>
<use data-text="S" xlink:href="#font_3_2" transform="matrix(16,0,0,-16,380.0704,64.58411)"/>
<use data-text="o" xlink:href="#font_3_8" transform="matrix(16,0,0,-16,390.7424,64.58411)"/>
<use data-text="c" xlink:href="#font_3_4" transform="matrix(16,0,0,-16,399.6416,64.58411)"/>
<use data-text="k" xlink:href="#font_3_7" transform="matrix(16,0,0,-16,407.6416,64.58411)"/>
<use data-text="e" xlink:href="#font_3_6" transform="matrix(16,0,0,-16,415.6416,64.58411)"/>
<use data-text="t" xlink:href="#font_3_11" transform="matrix(16,0,0,-16,424.5408,64.58411)"/>
<use data-text=" " xlink:href="#font_3_1" transform="matrix(16,0,0,-16,428.9856,64.58411)"/>
<use data-text="a" xlink:href="#font_3_3" transform="matrix(16,0,0,-16,433.43043,64.58411)"/>
<use data-text="d" xlink:href="#font_3_5" transform="matrix(16,0,0,-16,442.32963,64.58411)"/>
<use data-text="d" xlink:href="#font_3_5" transform="matrix(16,0,0,-16,451.22883,64.58411)"/>
<use data-text="r" xlink:href="#font_3_9" transform="matrix(16,0,0,-16,460.128,64.58411)"/>
<use data-text="e" xlink:href="#font_3_6" transform="matrix(16,0,0,-16,465.456,64.58411)"/>
<use data-text="s" xlink:href="#font_3_10" transform="matrix(16,0,0,-16,474.35523,64.58411)"/>
<use data-text="s" xlink:href="#font_3_10" transform="matrix(16,0,0,-16,482.35523,64.58411)"/>
<use data-text=" " xlink:href="#font_3_1" transform="matrix(16,0,0,-16,490.35523,64.58411)"/>
<use data-text="s" xlink:href="#font_3_10" transform="matrix(16,0,0,-16,494.797,64.58411)"/>
<use data-text="t" xlink:href="#font_3_11" transform="matrix(16,0,0,-16,502.797,64.58411)"/>
<use data-text="r" xlink:href="#font_3_9" transform="matrix(16,0,0,-16,507.24183,64.58411)"/>
<use data-text="u" xlink:href="#font_3_12" transform="matrix(16,0,0,-16,512.5698,64.58411)"/>
<use data-text="c" xlink:href="#font_3_4" transform="matrix(16,0,0,-16,521.469,64.58411)"/>
<use data-text="t" xlink:href="#font_3_11" transform="matrix(16,0,0,-16,529.469,64.58411)"/>
<use data-text="s" xlink:href="#font_3_10" transform="matrix(16,0,0,-16,533.9138,64.58411)"/>
<use data-text="&#xfffd;" xlink:href="#font_4_1" transform="matrix(16,0,0,-16,541.9142,64.58411)"/>
<path transform="matrix(-.00007874014,-0,0,.00007874014,203.87039,74.9841)" stroke-width="12700" stroke-linecap="butt" stroke-linejoin="round" fill="none" stroke="#000000" d="M-.0577392-.0920409 889195 1.070679"/>
<path transform="matrix(1,0,0,-1,-24.1296,518.984)" d="M156 443.9998 163.4808 439.6361C163.9578 439.3578 164.5701 439.5189 164.8484 439.996 165.1267 440.473 164.9655 441.0854 164.4885 441.3636L159.9693 443.9998 164.4885 446.6361C164.9655 446.9144 165.1267 447.5267 164.8484 448.0037 164.5701 448.4808 163.9578 448.6419 163.4807 448.3636Z" fill-rule="evenodd"/>
<path transform="matrix(1,0,0,-1,-24.1296,518.984)" d="M29.99999 455.9999H156V431.9999H29.99999Z" fill="#e0e0e0" fill-rule="evenodd"/>
<path transform="matrix(.00007874014,0,0,.00007874014,5.87039,62.9841)" stroke-width="12700" stroke-linecap="butt" stroke-miterlimit="8" stroke-linejoin="miter" fill="none" stroke="#000000" d="M-.01407624-.1154784H1600200V304799.9H-.01407624Z"/>
<path transform="matrix(-.00007874014,-0,0,.00007874014,203.87039,122.98401)" stroke-width="12700" stroke-linecap="butt" stroke-linejoin="round" fill="none" stroke="#000000" d="M-.0577392 .1141358 457200 1.276856"/>
<path transform="matrix(.00007874014,0,0,.00007874014,167.87039,122.98401)" stroke-width="12700" stroke-linecap="butt" stroke-linejoin="round" fill="none" stroke="#000000" d="M-.06878665 .1141358 .9001466 304800.2"/>
<path transform="matrix(1,0,0,-1,-24.1296,518.984)" d="M228 336H353.9999V312H228Z" fill="#ffffff" fill-rule="evenodd"/>
<path transform="matrix(.00007874014,0,0,.00007874014,203.87039,182.98401)" stroke-width="12700" stroke-linecap="butt" stroke-miterlimit="8" stroke-linejoin="miter" fill="none" stroke="#000000" d="M.0577392 .2313233H1600200V304800.3H.0577392Z"/>
<use data-text="N" xlink:href="#font_2_3" transform="matrix(16,0,0,-16,248.0704,201.3841)"/>
<use data-text="U" xlink:href="#font_2_4" transform="matrix(16,0,0,-16,257.672,201.3841)"/>
<use data-text="L" xlink:href="#font_2_2" transform="matrix(16,0,0,-16,267.27363,201.3841)"/>
<use data-text="L" xlink:href="#font_2_2" transform="matrix(16,0,0,-16,276.8752,201.3841)"/>
<use data-text=" " xlink:href="#font_2_1" transform="matrix(16,0,0,-16,286.4768,201.3841)"/>
<path transform="matrix(1,0,0,-1,-24.1296,518.984)" d="M228 312H353.9999V288H228Z" fill="#ffffff" fill-rule="evenodd"/>
<path transform="matrix(.00007874014,0,0,.00007874014,203.87039,206.98401)" stroke-width="12700" stroke-linecap="butt" stroke-miterlimit="8" stroke-linejoin="miter" fill="none" stroke="#000000" d="M.0577392 .0281983H1600200V304800.1H.0577392Z"/>
<use data-text="a" xlink:href="#font_2_6" transform="matrix(16,0,0,-16,233.0704,225.384)"/>
<use data-text="i" xlink:href="#font_2_11" transform="matrix(16,0,0,-16,242.672,225.384)"/>
<use data-text="_" xlink:href="#font_2_5" transform="matrix(16,0,0,-16,252.2736,225.384)"/>
<use data-text="a" xlink:href="#font_2_6" transform="matrix(16,0,0,-16,261.8752,225.384)"/>
<use data-text="d" xlink:href="#font_2_8" transform="matrix(16,0,0,-16,271.4768,225.384)"/>
<use data-text="d" xlink:href="#font_2_8" transform="matrix(16,0,0,-16,281.0784,225.384)"/>
<use data-text="r" xlink:href="#font_2_16" transform="matrix(16,0,0,-16,290.68,225.384)"/>
<use data-text=" " xlink:href="#font_2_1" transform="matrix(16,0,0,-16,300.28135,225.384)"/>
<path transform="matrix(1,0,0,-1,-24.1296,518.984)" d="M228 288H353.9999V264H228Z" fill="#ffffff" fill-rule="evenodd"/>
<path transform="matrix(.00007874014,0,0,.00007874014,203.87039,230.98401)" stroke-width="12700" stroke-linecap="butt" stroke-miterlimit="8" stroke-linejoin="miter" fill="none" stroke="#000000" d="M.0577392 .0750733H1600200V304800.1H.0577392Z"/>
<use data-text="a" xlink:href="#font_2_6" transform="matrix(16,0,0,-16,233.0704,249.384)"/>
<use data-text="i" xlink:href="#font_2_11" transform="matrix(16,0,0,-16,242.672,249.384)"/>
<use data-text="_" xlink:href="#font_2_5" transform="matrix(16,0,0,-16,252.2736,249.384)"/>
<use data-text="n" xlink:href="#font_2_14" transform="matrix(16,0,0,-16,261.8752,249.384)"/>
<use data-text="e" xlink:href="#font_2_9" transform="matrix(16,0,0,-16,271.4768,249.384)"/>
<use data-text="x" xlink:href="#font_2_20" transform="matrix(16,0,0,-16,281.0784,249.384)"/>
<use data-text="t" xlink:href="#font_2_18" transform="matrix(16,0,0,-16,290.68,249.384)"/>
<use data-text=" " xlink:href="#font_2_1" transform="matrix(16,0,0,-16,300.28135,249.384)"/>
<path transform="matrix(1,0,0,-1,-24.1296,518.984)" d="M228 372H353.9999V336H228Z" fill="#e0e0e0" fill-rule="evenodd"/>
<path transform="matrix(.00007874014,0,0,.00007874014,203.87039,146.98401)" stroke-width="12700" stroke-linecap="butt" stroke-miterlimit="8" stroke-linejoin="miter" fill="none" stroke="#000000" d="M.0577392 .1610108H1600200V457200.2H.0577392Z"/>
<path transform="matrix(.00007874014,0,0,.00007874014,329.8703,218.98401)" stroke-width="12700" stroke-linecap="butt" stroke-linejoin="round" fill="none" stroke="#000000" d="M-.08374035 .0516358H889195"/>
<path transform="matrix(1,0,0,-1,-24.1296,518.984)" d="M425.9999 300 418.5192 295.6362C418.0421 295.3579 417.4298 295.519 417.1515 295.9961 416.8732 296.4731 417.0344 297.0855 417.5114 297.3637L422.0306 300 417.5114 302.6362C417.0344 302.9145 416.8732 303.5268 417.1515 304.0038 417.4298 304.4809 418.0421 304.642 418.5192 304.3637Z" fill-rule="evenodd"/>
<path transform="matrix(1,0,0,-1,-24.1296,518.984)" d="M425.9999 324H551.9999V282H425.9999Z" fill="#e0e0e0" fill-rule="evenodd"/>
<path transform="matrix(.00007874014,0,0,.00007874014,401.8703,194.98401)" stroke-width="12700" stroke-linecap="butt" stroke-miterlimit="8" stroke-linejoin="miter" fill="none" stroke="#000000" d="M.05688465 .004760802H1600200V533400.1H.05688465Z"/>
<path transform="matrix(.00007874014,0,0,.00007874014,167.87039,146.98401)" stroke-width="12700" stroke-linecap="butt" stroke-linejoin="round" fill="none" stroke="#000000" d="M-.06878665 .1610108H431995.2"/>
<path transform="matrix(1,0,0,-1,-24.1296,518.984)" d="M228 372 220.5192 367.6362C220.0422 367.3579 219.4299 367.519 219.1516 367.9961 218.8733 368.4731 219.0344 369.0855 219.5115 369.3637L224.0307 372 219.5115 374.6362C219.0344 374.9145 218.8733 375.5268 219.1516 376.0038 219.4299 376.4809 220.0422 376.642 220.5192 376.3637Z" fill-rule="evenodd"/>
<path transform="matrix(-.00007874014,-0,0,.00007874014,203.87039,242.98401)" stroke-width="12700" stroke-linecap="butt" stroke-linejoin="round" fill="none" stroke="#000000" d="M-.0577392 .0985108 457200 1.261231"/>
<path transform="matrix(.00007874014,0,0,.00007874014,167.87039,242.98401)" stroke-width="12700" stroke-linecap="butt" stroke-linejoin="round" fill="none" stroke="#000000" d="M-.06878665 .0985108 .9001466 304800.2"/>
<path transform="matrix(.00007874014,0,0,.00007874014,167.87039,266.984)" stroke-width="12700" stroke-linecap="butt" stroke-linejoin="round" fill="none" stroke="#000000" d="M-.06878665-.04840085H431995.2"/>
<path transform="matrix(1,0,0,-1,-24.1296,518.984)" d="M228 252 220.5192 247.6362C220.0422 247.3579 219.4299 247.5191 219.1516 247.9961 218.8733 248.4732 219.0344 249.0855 219.5115 249.3638L224.0307 252 219.5115 254.6362C219.0344 254.9145 218.8733 255.5268 219.1516 256.0038 219.4299 256.4809 220.0422 256.642 220.5192 256.3638Z" fill-rule="evenodd"/>
<path transform="matrix(1,0,0,-1,-24.1296,518.984)" d="M228 216H353.9999V192H228Z" fill="#ffffff" fill-rule="evenodd"/>
<path transform="matrix(.00007874014,0,0,.00007874014,203.87039,302.984)" stroke-width="12700" stroke-linecap="butt" stroke-miterlimit="8" stroke-linejoin="miter" fill="none" stroke="#000000" d="M.0577392 .02191165H1600200V304800.1H.0577392Z"/>
<use data-text="N" xlink:href="#font_2_3" transform="matrix(16,0,0,-16,248.0704,321.384)"/>
<use data-text="U" xlink:href="#font_2_4" transform="matrix(16,0,0,-16,257.672,321.384)"/>
<use data-text="L" xlink:href="#font_2_2" transform="matrix(16,0,0,-16,267.27363,321.384)"/>
<use data-text="L" xlink:href="#font_2_2" transform="matrix(16,0,0,-16,276.8752,321.384)"/>
<use data-text=" " xlink:href="#font_2_1" transform="matrix(16,0,0,-16,286.4768,321.384)"/>
<path transform="matrix(1,0,0,-1,-24.1296,518.984)" d="M228 192H353.9999V168H228Z" fill="#ffffff" fill-rule="evenodd"/>
<path transform="matrix(.00007874014,0,0,.00007874014,203.87039,326.984)" stroke-width="12700" stroke-linecap="butt" stroke-miterlimit="8" stroke-linejoin="miter" fill="none" stroke="#000000" d="M.0577392 .0125733H1600200V304800.1H.0577392Z"/>
<use data-text="a" xlink:href="#font_2_6" transform="matrix(16,0,0,-16,233.0704,345.384)"/>
<use data-text="i" xlink:href="#font_2_11" transform="matrix(16,0,0,-16,242.672,345.384)"/>
<use data-text="_" xlink:href="#font_2_5" transform="matrix(16,0,0,-16,252.2736,345.384)"/>
<use data-text="a" xlink:href="#font_2_6" transform="matrix(16,0,0,-16,261.8752,345.384)"/>
<use data-text="d" xlink:href="#font_2_8" transform="matrix(16,0,0,-16,271.4768,345.384)"/>
<use data-text="d" xlink:href="#font_2_8" transform="matrix(16,0,0,-16,281.0784,345.384)"/>
<use data-text="r" xlink:href="#font_2_16" transform="matrix(16,0,0,-16,290.68,345.384)"/>
<use data-text=" " xlink:href="#font_2_1" transform="matrix(16,0,0,-16,300.28135,345.384)"/>
<path transform="matrix(1,0,0,-1,-24.1296,518.984)" d="M228 168H353.9999V144H228Z" fill="#ffffff" fill-rule="evenodd"/>
<path transform="matrix(.00007874014,0,0,.00007874014,203.87039,350.984)" stroke-width="12700" stroke-linecap="butt" stroke-miterlimit="8" stroke-linejoin="miter" fill="none" stroke="#000000" d="M.0577392-.078125H1600200V304800H.0577392Z"/>
<use data-text="N" xlink:href="#font_2_3" transform="matrix(16,0,0,-16,248.0704,369.384)"/>
<use data-text="U" xlink:href="#font_2_4" transform="matrix(16,0,0,-16,257.672,369.384)"/>
<use data-text="L" xlink:href="#font_2_2" transform="matrix(16,0,0,-16,267.27363,369.384)"/>
<use data-text="L" xlink:href="#font_2_2" transform="matrix(16,0,0,-16,276.8752,369.384)"/>
<use data-text=" " xlink:href="#font_2_1" transform="matrix(16,0,0,-16,286.4768,369.384)"/>
<path transform="matrix(1,0,0,-1,-24.1296,518.984)" d="M228 252H353.9999V216H228Z" fill="#e0e0e0" fill-rule="evenodd"/>
<path transform="matrix(.00007874014,0,0,.00007874014,203.87039,266.984)" stroke-width="12700" stroke-linecap="butt" stroke-miterlimit="8" stroke-linejoin="miter" fill="none" stroke="#000000" d="M.0577392-.04840085H1600200V457200H.0577392Z"/>
<path transform="matrix(.00007874014,0,0,.00007874014,329.8703,338.984)" stroke-width="12700" stroke-linecap="butt" stroke-linejoin="round" fill="none" stroke="#000000" d="M-.08374035 .09222415H889195"/>
<path transform="matrix(1,0,0,-1,-24.1296,518.984)" d="M425.9999 180 418.5192 175.6362C418.0421 175.3579 417.4298 175.5191 417.1515 175.9961 416.8732 176.4732 417.0344 177.0855 417.5114 177.3638L422.0306 180 417.5114 182.6362C417.0344 182.9145 416.8732 183.5268 417.1515 184.0039 417.4298 184.4809 418.0421 184.642 418.5192 184.3638Z" fill-rule="evenodd"/>
<path transform="matrix(1,0,0,-1,-24.1296,518.984)" d="M425.9999 204H551.9999V162H425.9999Z" fill="#e0e0e0" fill-rule="evenodd"/>
<path transform="matrix(.00007874014,0,0,.00007874014,401.8703,314.984)" stroke-width="12700" stroke-linecap="butt" stroke-miterlimit="8" stroke-linejoin="miter" fill="none" stroke="#000000" d="M.05688465 .1015625H1600200V533400.2H.05688465Z"/>
</g>
</g>
</svg>
