<svg xmlns="http://www.w3.org/2000/svg" xmlns:xlink="http://www.w3.org/1999/xlink" version="1.1" width="604.79666pt" height="125.31799pt" viewBox="0 0 604.79666 125.31799">
<defs>
<clipPath id="clip_0">
<path transform="matrix(1,0,0,-1,-.778381,540)" d="M.778381 414.682H605.575V540H.778381Z" fill-rule="evenodd"/>
</clipPath>
<clipPath id="clip_1">
<path transform="matrix(1,0,0,-1,-.778381,540)" d="M0 .00002324581H719.9999V540H0Z"/>
</clipPath>
<path id="font_2_1" d="M.37841798 .7373047C.46923829 .7373047 .53971359 .71332809 .58984377 .66537478 .63997396 .61742147 .66780599 .5629476 .67333987 .5019531H.5786133C.5678711 .54817709 .5464681 .58479818 .5144043 .6118164 .48234049 .63883468 .43733726 .65234377 .37939454 .65234377 .3087565 .65234377 .25170899 .62754318 .20825196 .5779419 .16479492 .52834066 .1430664 .45231629 .1430664 .34986878 .1430664 .26594544 .16267903 .19788106 .2019043 .14567566 .24112956 .09348043 .29964195 .06738281 .3774414 .06738281 .449056 .06738281 .50358077 .094823207 .5410156 .14970398 .5608724 .17860413 .5756836 .21659343 .5854492 .26367188H.6801758C.6717122 .18815105 .64371749 .12483724 .5961914 .07373047 .5392253 .012207031 .46240235-.018554688 .36572267-.018554688 .2823893-.018554688 .21240235 .006688436 .15576172 .057174684 .081217449 .12394714 .043945314 .2270406 .043945314 .36645509 .043945314 .47232057 .0719401 .5591278 .12792969 .62687686 .18847656 .7004954 .27197267 .7373047 .37841798 .7373047M.35888673 .7373047V.7373047Z"/>
<path id="font_2_7" d="M.06689453 .71777346H.15478516V0H.06689453V.71777346Z"/>
<path id="font_2_6" d="M.064453128 .5205078H.1538086V0H.064453128V.5205078M.064453128 .71777346H.1538086V.61816409H.064453128V.71777346Z"/>
<path id="font_2_5" d="M.28222657 .53515627C.31933595 .53515627 .355306 .52644857 .39013673 .5090332 .42496745 .49161784 .4514974 .4690806 .46972657 .4414215 .4873047 .41505433 .49902345 .3842977 .5048828 .3491516 .5100911 .32506309 .5126953 .28647868 .5126953 .23339844H.12939453C.13102214 .18033855 .14355469 .13777669 .16699219 .10571289 .19042969 .073649089 .22672527 .057617189 .2758789 .057617189 .32177735 .057617189 .35839845 .07261658 .3857422 .10261536 .4013672 .12003072 .4124349 .14018758 .4189453 .16308594H.5053711C.50309249 .14398194 .49552409 .122690837 .48266603 .09921265 .46980796 .07574463 .45540367 .05656433 .43945313 .041671754 .4127604 .01576233 .37972007-.0017242432 .34033204-.010787964 .3191732-.01596578 .2952474-.018554688 .2685547-.018554688 .20345052-.018554688 .14827474 .0051472985 .103027347 .05255127 .05777995 .09995524 .03515625 .16634114 .03515625 .25170899 .03515625 .33576457 .057942708 .40401713 .103515628 .45646668 .14908855 .5089264 .20865886 .53515627 .28222657 .53515627M.42236329 .30371095C.41878257 .34191896 .41048179 .37245179 .39746095 .39530946 .3733724 .4377594 .33317057 .45898438 .27685548 .45898438 .23649089 .45898438 .20263672 .44437156 .17529297 .41514588 .14794922 .3859202 .13346355 .34877525 .13183594 .30371095H.42236329M.27392579 .5361328V.5361328Z"/>
<path id="font_2_8" d="M.064453128 .5234375H.14794922V.44921876C.1726888 .47981773 .19889324 .50179037 .2265625 .5151367 .25423179 .5284831 .2849935 .53515627 .31884767 .53515627 .3930664 .53515627 .44319663 .5092519 .46923829 .45744325 .4835612 .42910258 .49072267 .38853965 .49072267 .3357544V0H.4013672V.3299408C.4013672 .36188255 .39664714 .38762919 .38720704 .4071808 .37158204 .4397634 .34326173 .4560547 .3022461 .4560547 .28141276 .4560547 .2643229 .4539388 .25097657 .44970704 .22688802 .4425354 .20572917 .42819724 .1875 .4066925 .17285156 .38941957 .16333008 .37157694 .15893555 .35316468 .15454102 .3347524 .15234375 .30844117 .15234375 .27423097V0H.064453128V.5234375M.2709961 .5361328V.5361328Z"/>
<path id="font_2_13" d="M.08203125 .66796877H.17089844V.5234375H.25439454V.4501953H.17089844V.110183719C.17089844 .09202576 .17708333 .07986959 .18945313 .07371521 .19628906 .07014465 .2076823 .068359378 .22363281 .068359378 .22786458 .068359378 .23242188 .06846619 .23730469 .06867981 .2421875 .0689036 .24788411 .06944784 .25439454 .0703125V0C.24430339-.0031026204 .23380535-.005340576 .22290039-.006713867 .21199544-.008097331 .20019531-.0087890629 .1875-.0087890629 .14648438-.0087890629 .118652347 .0016988119 .104003909 .02267456 .08935547 .04365031 .08203125 .070882167 .08203125 .10437012V.4501953H.011230469V.5234375H.08203125V.66796877Z"/>
<path id="font_3_1" d="M0 0Z"/>
<path id="font_2_10" d="M.28515626 .057617189C.32617188 .057617189 .36027018 .07486979 .38745118 .109375 .41463218 .14389038 .42822267 .1954956 .42822267 .26419068 .42822267 .3060608 .42220054 .34204103 .41015626 .37213136 .38736979 .43003337 .34570313 .45898438 .28515626 .45898438 .22428386 .45898438 .18261719 .42840068 .16015625 .36723329 .14811199 .33451844 .14208985 .29297386 .14208985 .24259949 .14208985 .20204163 .14811199 .16753133 .16015625 .1390686 .1829427 .08476766 .22460938 .057617189 .28515626 .057617189M.057617189 .5205078H.1430664V.45162965C.16064453 .47540284 .17985027 .49379985 .2006836 .5068207 .23030599 .5263621 .26513673 .5361328 .30517579 .5361328 .36442057 .5361328 .41471354 .5133667 .4560547 .46783448 .49739585 .42230226 .5180664 .3572693 .5180664 .2727356 .5180664 .1585083 .48828126 .07691447 .42871095 .027954102 .39095054-.0030517579 .34700523-.018554688 .296875-.018554688 .25748698-.018554688 .22444661-.009984334 .1977539 .007156372 .1821289 .016860962 .16471355 .033518476 .14550781 .057128908V-.20898438H.057617189V.5205078Z"/>
<path id="font_2_11" d="M.06689453 .5234375H.15039063V.4326172C.15722656 .4502767 .17399089 .4717814 .2006836 .49713136 .2273763 .52248129 .25813804 .53515627 .29296876 .53515627 .29459635 .53515627 .29736329 .5349579 .30126954 .53456118 .30517579 .5341746 .31184898 .5333964 .32128907 .53222659V.43945313C.31608073 .44062297 .3112793 .44140116 .30688478 .44178773 .30249024 .44218446 .2976888 .4423828 .29248048 .4423828 .24820964 .4423828 .2141927 .4280599 .19042969 .39941407 .16666667 .37076823 .15478516 .33789063 .15478516 .30078126V0H.06689453V.5234375Z"/>
<path id="font_2_9" d="M.27197267 .057617189C.33024089 .057617189 .37019859 .07964579 .3918457 .123703 .41349284 .16776021 .4243164 .21677144 .4243164 .2707367 .4243164 .31950379 .4165039 .35917155 .4008789 .38974 .3761393 .43785606 .3334961 .46191407 .27294923 .46191407 .21923828 .46191407 .18017578 .44143168 .15576172 .40046693 .13134766 .35950218 .119140628 .31008403 .119140628 .25221253 .119140628 .1966095 .13134766 .15027364 .15576172 .113204959 .18017578 .076146449 .21891277 .057617189 .27197267 .057617189M.27539063 .53808596C.34277345 .53808596 .3997396 .5156453 .44628907 .47076417 .49283854 .42588298 .5161133 .35985819 .5161133 .27268983 .5161133 .1884613 .49560548 .11886088 .45458985 .06388855 .41357423 .008926392 .3499349-.018554688 .26367188-.018554688 .19173177-.018554688 .13460286 .00575765 .092285159 .054382326 .04996745 .103006999 .028808594 .16829936 .028808594 .2502594 .028808594 .33806864 .05110677 .4079895 .095703128 .46002198 .14029949 .51206466 .20019531 .53808596 .27539063 .53808596M.27246095 .5361328V.5361328Z"/>
<path id="font_2_4" d="M.26611329 .53808596C.32503257 .53808596 .37296549 .5237274 .4099121 .49501039 .44685874 .46629334 .46907554 .41684977 .4765625 .3466797H.39111329C.38590495 .37890626 .37402345 .40568034 .35546876 .42700196 .33691407 .44832359 .3071289 .45898438 .26611329 .45898438 .2101237 .45898438 .17008464 .43170677 .1459961 .3771515 .1303711 .34176127 .122558597 .29808555 .122558597 .24612427 .122558597 .19384766 .1336263 .14984639 .15576172 .11412048 .17789714 .07840475 .21272786 .060546876 .2602539 .060546876 .29671226 .060546876 .3256022 .0716095 .34692384 .09373474 .36824546 .115859989 .38297526 .1461385 .39111329 .18457031H.4765625C.46679688 .115234378 .4423828 .06453451 .4033203 .032470704 .3642578 .00040690104 .31429038-.015625 .25341798-.015625 .1850586-.015625 .13053386 .009379069 .08984375 .059387208 .049153646 .10940552 .028808594 .17188008 .028808594 .24681092 .028808594 .33868919 .05110677 .41020204 .095703128 .4613495 .14029949 .51250717 .19710286 .53808596 .26611329 .53808596M.2524414 .5361328V.5361328Z"/>
<path id="font_2_12" d="M.11669922 .1640625C.11930338 .13463338 .12662761 .11207072 .13867188 .09637451 .1608073 .06793213 .19921875 .053710939 .25390626 .053710939 .28645835 .053710939 .31510417 .060806276 .33984376 .07499695 .36458335 .08919779 .37695313 .11115011 .37695313 .14085388 .37695313 .16337586 .36702476 .18051148 .34716798 .19226074 .33447267 .19944255 .30940757 .20775859 .27197267 .21720886L.20214844 .2348175C.15755208 .24590557 .12467448 .25829569 .103515628 .27198792 .06575521 .29579164 .046875 .32873027 .046875 .37080384 .046875 .42036439 .064697269 .46046958 .1003418 .49111939 .13598633 .52177938 .18391927 .5371094 .24414063 .5371094 .32291667 .5371094 .37972007 .5139974 .41455079 .46777345 .4363607 .43847657 .4469401 .40690104 .44628907 .37304688H.36328126C.36165367 .39269004 .35465495 .41055808 .34228517 .426651 .32210288 .44950868 .28710938 .4609375 .23730469 .4609375 .20410156 .4609375 .17895508 .45461528 .16186524 .44197084 .14477539 .42933656 .13623047 .41264854 .13623047 .39190675 .13623047 .36922203 .14746094 .35107423 .16992188 .33746339 .1829427 .32936607 .20214844 .32221986 .22753906 .31602479L.28564454 .3018341C.34879557 .28650413 .39111329 .27166749 .41259767 .25732423 .44677735 .23482259 .4638672 .19944255 .4638672 .15118408 .4638672 .10455322 .44620768 .06428019 .41088868 .03036499 .37556968-.0035502117 .32177735-.020507813 .24951172-.020507813 .17171224-.020507813 .116617839-.002802531 .084228519 .032608034 .05183919 .06801859 .034505208 .111836757 .032226564 .1640625H.11669922M.24658203 .5361328V.5361328Z"/>
<path id="font_2_3" d="M.13964844 .23144531C.14192708 .19064331 .15152996 .1575063 .16845703 .1320343 .2006836 .084376018 .25748698 .060546876 .3388672 .060546876 .37532554 .060546876 .40852867 .06575521 .43847657 .076171878 .49641929 .096354167 .5253906 .13248189 .5253906 .18455506 .5253906 .22361756 .5131836 .25144959 .48876954 .26805116 .46402995 .2843882 .42529298 .29859925 .3725586 .3106842L.27539063 .3327484C.21191406 .3471222 .16699219 .36294047 .140625 .38020326 .095052089 .41016136 .072265628 .4549408 .072265628 .5145416 .072265628 .57902529 .094563808 .6319478 .13916016 .6733093 .18375652 .71467086 .24690755 .73535159 .32861329 .73535159 .4038086 .73535159 .46769206 .7172038 .5202637 .6809082 .57283529 .6446126 .5991211 .58658859 .5991211 .50683596H.5078125C.5029297 .5452474 .49251304 .57470706 .4765625 .59521487 .4469401 .6326497 .39664714 .6513672 .3256836 .6513672 .26839195 .6513672 .22721355 .63931277 .20214844 .61520388 .17708333 .591095 .16455078 .56307479 .16455078 .5311432 .16455078 .49595643 .17919922 .47021995 .2084961 .45393373 .22770183 .44350688 .27115885 .43047587 .3388672 .4148407L.43945313 .39187623C.48795573 .38079835 .5253906 .36565147 .5517578 .34643556 .59733077 .31288658 .6201172 .26419068 .6201172 .2003479 .6201172 .12085978 .59122726 .06401571 .53344729 .029815674 .47566734-.004384359 .40852867-.021484375 .33203126-.021484375 .24283855-.021484375 .17301433 .0013478597 .122558597 .04701233 .07210287 .0923411 .04736328 .15381877 .048339845 .23144531H.13964844M.3359375 .7373047V.7373047Z"/>
<path id="font_2_15" d="M.107421878 .5234375 .24707031 .09725952 .3930664 .5234375H.4892578L.2919922 0H.19824219L.0053710939 .5234375H.107421878Z"/>
<path id="font_4_3" d="M.2006836 .4951172 .21484375 .5625C.2796224 .5686849 .32609049 .5790202 .35424806 .59350588 .3824056 .6079915 .40852867 .6422526 .4326172 .69628909H.5019531L.3540039 0H.2602539L.36523438 .4951172H.2006836Z"/>
<path id="font_4_2" d="M.107910159 .10644531H.20996094L.1875 0H.08544922L.107910159 .10644531Z"/>
<path id="font_4_1" d="M0 0Z"/>
<path id="font_4_7" d="M.77978518 .5019531H.6850586C.68408206 .54848226 .67041018 .5853424 .64404299 .61253359 .6176758 .63972476 .5755208 .6533203 .5175781 .6533203 .4469401 .6533203 .38468424 .628479 .33081056 .5787964 .27693687 .52911379 .23909505 .45295716 .21728516 .35032655 .19938152 .26628114 .20450847 .19810994 .23266602 .14581299 .26082359 .09352621 .3138021 .06738281 .39160157 .06738281 .46321617 .06738281 .5236003 .09484863 .5727539 .14978028 .59847006 .17870076 .62125656 .21672566 .6411133 .26385499H.73583987C.7114258 .18828328 .67008468 .124928798 .6118164 .073791507 .5415039 .012227376 .4580078-.018554688 .36132813-.018554688 .27799479-.018554688 .2133789 .006688436 .16748047 .057174684 .10725912 .12394714 .09195963 .2270406 .12158203 .36645509 .14404297 .47232057 .19042969 .5591278 .2607422 .62687686 .33691407 .7004954 .42822267 .7373047 .53466799 .7373047 .6254883 .7373047 .69091799 .71332809 .73095706 .66537478 .7709961 .61742147 .78727218 .5629476 .77978518 .5019531Z"/>
<path id="font_4_13" d="M.21923828 .71777346H.3071289L.15478516 0H.06689453L.21923828 .71777346Z"/>
<path id="font_4_12" d="M.17480469 .5205078H.26416017L.1538086 0H.064453128L.17480469 .5205078M.21679688 .71777346H.30615235L.28466798 .61816409H.1953125L.21679688 .71777346Z"/>
<path id="font_4_11" d="M.5629883 .44125367C.57503256 .4148458 .5802409 .3840332 .5786133 .34881593 .5789388 .32468669 .57340499 .2862142 .5620117 .23339844H.17871094C.16894531 .18033855 .17244466 .13777669 .18920899 .10571289 .20597331 .073649089 .2389323 .057617189 .28808595 .057617189 .33398438 .057617189 .3736979 .072779338 .40722657 .10310364 .4267578 .12070211 .44222007 .14107768 .45361329 .16423035H.54003909C.5335286 .14500427 .521403 .12358093 .5036621 .09996033 .48592124 .07633972 .4674479 .057037355 .4482422 .042053224 .41601563 .015981039 .37923179-.0016174316 .33789063-.0107421879 .3154297-.015950522 .29085288-.018554688 .26416017-.018554688 .19905599-.018554688 .14892578 .0051472985 .11376953 .05255127 .07861328 .09995524 .07014974 .16634114 .088378909 .25170899 .106282558 .33576457 .14355469 .40401713 .20019531 .45646668 .25683595 .5089264 .3219401 .53515627 .3955078 .53515627 .4326172 .53515627 .46679688 .5264333 .49804688 .5089874 .5292969 .49154154 .55094406 .46896363 .5629883 .44125367M.48632813 .30371095C.4908854 .3416748 .48909507 .37201438 .48095704 .3947296 .46598307 .43691508 .43033854 .4580078 .37402345 .4580078 .33365885 .4580078 .29671226 .44348655 .2631836 .41444398 .22965496 .3854014 .20719402 .3484904 .19580078 .30371095H.48632813Z"/>
<path id="font_4_14" d="M.17529297 .5234375H.25878907L.24316406 .44914247C.27441407 .47977195 .30525718 .50176498 .33569337 .51512148 .36612956 .52847799 .39827476 .53515627 .4321289 .53515627 .50634768 .53515627 .55094406 .5092519 .56591799 .45744325 .57438156 .42910258 .5730794 .38853965 .5620117 .3357544L.49072267 0H.4013672L.4711914 .3299408C.47802735 .36188255 .47884117 .38762919 .4736328 .4071808 .46484376 .4397634 .4399414 .4560547 .39892579 .4560547 .37809245 .4560547 .3605143 .4539388 .3461914 .44970704 .32047526 .4425354 .29622398 .42819724 .2734375 .4066925 .25520835 .38941957 .24194336 .37157694 .23364258 .35316468 .2253418 .3347524 .21761067 .30843608 .21044922 .2742157L.15234375 0H.064453128L.17529297 .5234375Z"/>
<path id="font_4_20" d="M.2241211 .6689453H.31298829L.28173829 .5234375H.36523438L.35009767 .45117188H.26660157L.19384766 .10948181C.1899414 .0912323 .19352214 .07901001 .20458985 .07281494 .21077474 .069234218 .22184246 .06744385 .23779297 .06744385 .24202474 .06744385 .24658203 .06752523 .25146485 .06768799 .25634767 .067850749 .26220704 .06825765 .26904298 .06890869L.25439454-.00048828127C.24365235-.0034179688 .23266602-.005533854 .22143555-.0068359377 .21020508-.0081380209 .19824219-.0087890629 .18554688-.0087890629 .14453125-.0087890629 .118896488 .0017191569 .10864258 .022735596 .09838867 .043752035 .096842449 .07104492 .104003909 .10461426L.17773438 .45117188H.106933597L.12207031 .5234375H.1928711L.2241211 .6689453Z"/>
<path id="font_4_19" d="M.15136719 .1640625C.14778646 .13463338 .15039063 .11207072 .15917969 .09637451 .1751302 .06793213 .21044922 .053710939 .26513673 .053710939 .2976888 .053710939 .32788087 .060806276 .3557129 .07499695 .38354493 .08918762 .40055339 .11112467 .40673829 .1408081 .4116211 .16330974 .40527345 .1804301 .3876953 .19216919 .3766276 .199351 .35335288 .20767212 .3178711 .21713257L.25195313 .23474121C.20963542 .24582927 .17936199 .2582245 .16113281 .27192689 .1282552 .29574076 .116373699 .32868449 .12548828 .37075807 .13590496 .42033897 .16219075 .46045939 .2043457 .49111939 .24650066 .52177938 .2976888 .5371094 .35791017 .5371094 .4366862 .5371094 .48860679 .5139974 .5136719 .46777345 .5292969 .43847657 .5332031 .40690104 .5253906 .37304688H.4423828C.44498698 .39290367 .44173179 .41097007 .4326172 .4272461 .41731773 .45035807 .38476563 .46191407 .33496095 .46191407 .3017578 .46191407 .27530924 .45555116 .25561524 .44282533 .23592122 .43010966 .22379558 .41331483 .21923828 .3924408 .21435547 .36960349 .22167969 .3513387 .24121094 .33764649 .25260417 .32948814 .27034507 .3223114 .2944336 .31611634L.34960938 .30192567C.40950523 .28659568 .44873048 .27175395 .46728517 .2574005 .49658204 .23488872 .50602218 .19949849 .49560548 .15122986 .48583985 .10458883 .4597168 .064305629 .41723634 .030380249 .37475587-.0035451253 .3173828-.020507813 .24511719-.020507813 .1673177-.020507813 .1159668-.002802531 .09106445 .032608034 .06616211 .06801859 .05810547 .111836757 .06689453 .1640625H.15136719Z"/>
<path id="font_4_10" d="M.28222657 .05859375C.32291667 .05859375 .36002604 .076044719 .3935547 .110946658 .42708335 .14585877 .45084635 .19594829 .46484376 .2612152 .47884117 .32713319 .4757487 .37592063 .4555664 .4075775 .43538413 .4392446 .4054362 .45507813 .36572267 .45507813 .3214518 .45507813 .28198243 .43819175 .24731446 .40441896 .21264649 .37064616 .1883138 .32096354 .1743164 .2553711 .16227214 .19952393 .16414388 .15276592 .17993164 .115097049 .1957194 .077428188 .2298177 .05859375 .28222657 .05859375M.46044923 .50683596C.4741211 .4970703 .48828126 .47998048 .5029297 .4555664L.55908206 .71972659H.6435547L.49072267 0H.4116211L.4267578 .072753909C.39941407 .040527345 .37019859 .017252604 .33911134 .0029296876 .30802409-.0113932299 .27441407-.018554688 .23828125-.018554688 .18001302-.018554688 .13476563 .0059407555 .10253906 .05493164 .0703125 .10392252 .06298828 .16910808 .080566409 .25048829 .09651693 .32666017 .12988281 .39265953 .18066406 .44848634 .23144531 .5043132 .29296876 .53222659 .36523438 .53222659 .40527345 .53222659 .43701173 .523763 .46044923 .50683596Z"/>
<path id="font_4_18" d="M.17773438 .5234375H.26123048L.2421875 .43301393C.25260417 .4506124 .2738444 .47203575 .3059082 .49728395 .33797203 .52253219 .37141929 .53515627 .40625 .53515627 .4078776 .53515627 .41064454 .5349579 .41455079 .53456118 .41845704 .5341746 .42496745 .5333964 .43408204 .53222659L.41455079 .4399414C.40934245 .44091798 .4046224 .441569 .40039063 .44189454 .39615885 .44222007 .3914388 .4423828 .38623048 .4423828 .34195964 .4423828 .30493165 .428126 .27514649 .39961244 .24536133 .37109886 .22639974 .338267 .21826172 .30111695L.15478516 0H.06689453L.17773438 .5234375Z"/>
<path id="font_4_17" d="M.16992188 .14100647C.18066406 .0867157 .21500652 .059570314 .27294923 .059570314 .33414714 .059570314 .38248698 .08818054 .41796876 .145401 .43717448 .17693584 .4519857 .21724956 .46240235 .26634217 .47216798 .3115387 .47330729 .34925334 .4658203 .37948609 .45279948 .43118287 .41634117 .45703126 .3564453 .45703126 .31835938 .45703126 .28222657 .4405314 .24804688 .40753175 .21386719 .37453208 .18945313 .32356773 .17480469 .25463868 .16536458 .20945232 .16373699 .1715749 .16992188 .14100647M.46679688 .50239565C.48046876 .49066673 .49235026 .47339378 .5024414 .45057679L.5180664 .5234375H.6015625L.44628907-.20898438H.35791017L.41503907 .059921266C.39518229 .036524457 .3708496 .017918906 .34204103 .0041046144 .31323243-.009699504 .27945964-.016601563 .24072266-.016601563 .1850586-.016601563 .13989258 .005228678 .10522461 .04888916 .07055664 .092549648 .06266276 .15901184 .08154297 .24827576 .09944662 .332016 .13468425 .40076194 .18725586 .45451356 .23982747 .50827535 .29882813 .53515627 .3642578 .53515627 .4075521 .53515627 .44173179 .524236 .46679688 .50239565Z"/>
<path id="font_4_21" d="M.2631836 .5234375 .18945313 .17590332C.18391927 .1491801 .18359375 .12734477 .18847656 .11039734 .19726563 .07911682 .22298177 .06347656 .265625 .06347656 .3268229 .06347656 .37434898 .09085083 .40820313 .14559937 .42643229 .17492676 .44091798 .21516927 .45166017 .2663269L.50634768 .5234375H.5942383L.48339845 0H.40039063L.41748048 .076828C.40185548 .056930543 .3841146 .0401357 .3642578 .026443482 .32486979-.00095113119 .28125-.0146484379 .23339844-.0146484379 .15885417-.0146484379 .11344401 .010299683 .09716797 .060195924 .08805338 .08693949 .08821615 .12265015 .09765625 .16732788L.17333985 .5234375H.2631836Z"/>
<path id="font_5_1" d="M0 0Z"/>
<path id="font_4_4" d="M.25439454 .2788086 .359375 .3330078C.40657554 .35742188 .44059245 .37825523 .46142579 .3955078 .49365235 .42252604 .5135091 .45345054 .5209961 .48828126 .52978518 .5289714 .5244954 .5612793 .50512698 .5852051 .48575846 .60913088 .45572917 .62109377 .41503907 .62109377 .35481773 .62109377 .30826823 .5983073 .27539063 .5527344 .2578125 .5283203 .24381511 .49446617 .23339844 .45117188H.14404297C.15804036 .51204428 .17985027 .5616862 .20947266 .60009768 .2618815 .66813156 .33626304 .70214846 .4326172 .70214846 .5126953 .70214846 .56656906 .68051657 .5942383 .6372528 .62190756 .5939992 .6302083 .54586288 .6191406 .49284364 .6070964 .43689475 .57714846 .38907878 .5292969 .34939576 .5016276 .3263041 .45491538 .29833476 .38916017 .26548768L.31445313 .22840882C.27864585 .21084087 .25 .19408672 .22851563 .17814636 .18977864 .14984639 .16259766 .11845907 .14697266 .083984378H.5288086L.51123049 0H.03125C.04720052 .060221357 .0707194 .11263021 .10180664 .15722656 .13289388 .20182292 .18375652 .24235027 .25439454 .2788086Z"/>
<path id="font_4_8" d="M.18847656 .23095703C.18229167 .19026692 .18489583 .15722656 .19628906 .13183594 .21842449 .0843099 .27018229 .060546876 .3515625 .060546876 .38802085 .060546876 .42236329 .06576029 .45458985 .076187137 .51676437 .0963796 .55338546 .13253784 .5644531 .18466187 .5729167 .22375489 .56656906 .25160728 .54541018 .268219 .5242513 .28450523 .48860679 .29867555 .43847657 .31072999L.34570313 .3327179C.28548179 .347051 .24397786 .3628489 .2211914 .3801117 .1821289 .41007997 .16894531 .45487467 .18164063 .51449587 .1953125 .5789897 .22884114 .6319224 .28222657 .67329409 .33561198 .7146657 .40315757 .73535159 .48486329 .73535159 .5600586 .73535159 .6200358 .7172038 .6647949 .6809082 .709554 .6446126 .72347006 .58658859 .70654299 .50683596H.6152344C.61848959 .5452474 .6144206 .57470706 .60302737 .59521487 .58121749 .6326497 .53483077 .6513672 .4638672 .6513672 .40657554 .6513672 .36287437 .63931277 .33276368 .61520388 .30265299 .59110519 .2841797 .56309 .27734376 .53115847 .26985679 .49598185 .27897135 .47025047 .3046875 .45396424 .3216146 .44353739 .3623047 .43050639 .4267578 .41487123L.52246096 .39190675C.5686849 .38082887 .60286459 .36567689 .625 .3464508 .663737 .31290183 .67626956 .26420594 .66259768 .20036316 .6456706 .12087504 .60465499 .06402588 .5395508 .029815674 .47444663-.004384359 .40364585-.021484375 .32714845-.021484375 .23795574-.021484375 .17301433 .0013020834 .13232422 .046875 .09163412 .0921224 .07991537 .15348308 .09716797 .23095703H.18847656Z"/>
<path id="font_4_22" d="M.21826172 .5234375 .26757813 .09725952 .50390627 .5234375H.60009768L.2919922 0H.19824219L.11621094 .5234375H.21826172Z"/>
<path id="font_4_16" d="M.484375 .26513673C.49316407 .30680339 .4946289 .3426107 .48876954 .3725586 .47835288 .43017579 .4428711 .45898438 .38232423 .45898438 .3214518 .45898438 .27327476 .4285482 .23779297 .36767579 .21891277 .3351237 .20410156 .29378257 .19335938 .24365235 .18489583 .20328777 .18375652 .16894531 .1899414 .140625 .20100911 .08658854 .2368164 .059570314 .29736329 .059570314 .3383789 .059570314 .3761393 .07674154 .41064454 .111083988 .44514976 .14542644 .46972657 .19677735 .484375 .26513673M.16796875 .5214844H.25341798L.23876953 .45214845C.26123048 .47591148 .28434245 .49430339 .30810548 .5073242 .34195964 .52652999 .37890626 .5361328 .4189453 .5361328 .4781901 .5361328 .5236003 .5134074 .5551758 .46795655 .5867513 .4225057 .5935872 .35758973 .5756836 .27320863 .55159506 .1591746 .5045573 .07772318 .4345703 .02885437 .39029948-.0021006268 .34309898-.017578125 .29296876-.017578125 .25358073-.017578125 .22233074-.008895874 .19921875 .008468628 .18554688 .018295289 .17171224 .035166425 .15771485 .05908203L.10107422-.20898438H.013183594L.16796875 .5214844Z"/>
<path id="font_4_15" d="M.4814453 .26976014C.49186198 .31852723 .49251304 .35819499 .48339845 .38876344 .46875 .4368795 .43115235 .4609375 .37060548 .4609375 .31689454 .4609375 .2735189 .4404551 .24047852 .39949037 .20743816 .3585256 .18473308 .30910746 .17236328 .25123597 .16064453 .19563294 .16300456 .14929708 .17944336 .11222839 .19588216 .07516988 .23063152 .056640626 .2836914 .056640626 .34195964 .056640626 .38663737 .07866923 .4177246 .12272644 .44881187 .16678365 .4700521 .21579488 .4814453 .26976014M.57373049 .27223207C.55582687 .18784078 .5205078 .1181132 .46777345 .06304932 .41503907 .0079956059 .34554038-.01953125 .25927735-.01953125 .18733724-.01953125 .13541667 .0048217775 .103515628 .053527833 .071614589 .10223389 .06429037 .16763814 .08154297 .2497406 .10042318 .33771263 .13769531 .40776063 .19335938 .45988465 .24902344 .51201888 .31445313 .53808596 .38964845 .53808596 .45703126 .53808596 .509196 .5156047 .5461426 .4706421 .5830892 .42567954 .59228518 .35954286 .57373049 .27223207Z"/>
<path id="font_4_9" d="M.55029299 .3466797H.46484376C.46647135 .37890626 .46028648 .40568034 .44628907 .42700196 .43229167 .44832359 .40478517 .45898438 .36376954 .45898438 .30777995 .45898438 .2618815 .43164063 .22607422 .37695313 .20296224 .34147135 .18587239 .2976888 .17480469 .24560547 .16341146 .19319661 .16503906 .14908855 .1796875 .11328125 .19433594 .07747396 .22542317 .059570314 .27294923 .059570314 .30940757 .059570314 .34065757 .0707194 .36669923 .09301758 .39274089 .11531576 .41389976 .14583333 .43017579 .18457031H.515625C.49121095 .115234378 .4560547 .06453451 .41015626 .032470704 .3642578 .00040690104 .3108724-.015625 .25-.015625 .18164063-.015625 .1324056 .009379069 .10229492 .059387208 .07218424 .10940552 .065104167 .17188008 .08105469 .24681092 .10058594 .33868919 .13810222 .41020204 .19360352 .4613495 .24910482 .51250717 .3113607 .53808596 .3803711 .53808596 .43929038 .53808596 .48413087 .5237274 .5148926 .49501039 .5456543 .46629334 .5574544 .41684977 .55029299 .3466797Z"/>
<path id="font_4_5" d="M.06933594 .21484375H.16113281C.15527344 .16945394 .15673828 .13646953 .16552735 .1158905 .1805013 .07899475 .21777344 .060546876 .27734376 .060546876 .32356773 .060546876 .36328126 .07296244 .39648438 .09779358 .4296875 .12262472 .45052085 .15464275 .45898438 .19384766 .46907554 .24220784 .46142579 .2760264 .43603517 .29530335 .41064454 .3145803 .37174479 .32421876 .31933595 .32421876 .31347657 .32421876 .3075358 .32413737 .30151368 .3239746 .29549156 .32381187 .28938804 .32356773 .28320313 .3232422L.2998047 .4013672C.30859376 .40019737 .31608073 .39941407 .32226563 .39901734 .32845054 .39863078 .3351237 .3984375 .34228517 .3984375 .37516276 .3984375 .4033203 .40363566 .4267578 .41403199 .4674479 .43222047 .49283854 .46470133 .5029297 .5114746 .5104167 .54622396 .50374349 .5730184 .48291017 .5918579 .4620768 .61069747 .43522135 .6201172 .40234376 .6201172 .34375 .6201172 .29915367 .60058596 .2685547 .56152346 .2516276 .54003909 .23811849 .5094401 .22802735 .46972657H.14111328C.15218099 .5218099 .17203777 .56608077 .2006836 .60253909 .25016276 .66764327 .31998698 .7001953 .41015626 .7001953 .4814453 .7001953 .5332845 .6843465 .5656738 .6526489 .5980632 .6209615 .60791018 .5750529 .59521487 .5149231 .5857747 .47201539 .56673178 .4372355 .53808596 .4105835 .5201823 .39401246 .4988607 .38101197 .4741211 .37158204 .5086263 .36147056 .5332031 .34196983 .54785159 .31307984 .5625 .28420005 .5654297 .24887593 .5566406 .20710755 .5423177 .14021302 .5087077 .08571371 .45581056 .04360962 .40291343 .0015157064 .33610026-.01953125 .2553711-.01953125 .1726888-.01953125 .1175944 .0032196046 .09008789 .048721315 .06258138 .09423319 .055664064 .14960735 .06933594 .21484375Z"/>
<path id="font_4_6" d="M.3828125 .24804688 .4501953 .5649414 .1586914 .24804688H.3828125M.33203126 0 .36816407 .17089844H.061523439L.079589847 .25683595 .4946289 .7011719H.56884768L.47216798 .24804688H.5751953L.55908206 .17089844H.4560547L.41992188 0H.33203126Z"/>
<path id="font_2_2" d="M.40966798 .38867188C.45524089 .38867188 .49129234 .39778648 .51782229 .41601563 .54435226 .43424479 .5576172 .4671224 .5576172 .51464846 .5576172 .5657552 .5390625 .60058596 .5019531 .6191406 .48209635 .62890627 .4555664 .63378909 .42236329 .63378909H.1850586V.38867188H.40966798M.087890628 .71777346H.41992188C.47460938 .71777346 .51969406 .709788 .5551758 .69381716 .6225586 .6631775 .65625 .60662338 .65625 .52415469 .65625 .48112489 .6473796 .44591777 .6296387 .41853334 .61189779 .39115907 .58707687 .36916099 .5551758 .35253907 .5831706 .34114585 .60424807 .32617188 .6184082 .3076172 .63256838 .2890625 .6404622 .2589518 .64208987 .21728516L.6455078 .12109375C.6464844 .09388224 .648763 .07363383 .65234377 .06034851 .6582031 .037663778 .6686198 .023081461 .68359377 .016601563V0H.5644531C.56119796 .006184896 .55859377 .014160156 .5566406 .023925782 .5546875 .033691408 .5530599 .052571615 .5517578 .080566409L.54589846 .20019531C.5436198 .24707031 .5262044 .27848307 .49365235 .2944336 .47509767 .30322267 .44596354 .3076172 .40625 .3076172H.1850586V0H.087890628V.71777346Z"/>
<path id="font_2_14" d="M.15234375 .5234375V.17590332C.15234375 .1491801 .15657552 .12734477 .16503906 .11039734 .18066406 .07911682 .20979817 .06347656 .2524414 .06347656 .3136393 .06347656 .355306 .09085083 .3774414 .14559937 .3894857 .17492676 .3955078 .21516927 .3955078 .2663269V.5234375H.48339845V0H.40039063L.4013672 .0771637C.38997398 .057195028 .3758138 .040339155 .35888673 .02659607 .32535807-.00090026858 .28466798-.0146484379 .2368164-.0146484379 .16227214-.0146484379 .11149088 .010299683 .084472659 .060195924 .06982422 .08693949 .0625 .12265015 .0625 .16732788V.5234375H.15234375M.27294923 .5361328V.5361328Z"/>
</defs>
<g clip-path="url(#clip_0)">
<g clip-path="url(#clip_1)">
<path transform="matrix(1,0,0,-1,-.778381,540)" d="M0 539.9999H719.9999V.00003079383H0Z" fill="#ffffff" fill-rule="evenodd"/>
<path transform="matrix(1,0,0,-1,-.778381,540)" d="M67.37503 500.4998C67.37503 517.8278 88.58556 531.8749 114.7501 531.8749 140.9146 531.8749 162.1251 517.8278 162.1251 500.4998 162.1251 483.1719 140.9146 469.1248 114.7501 469.1248 88.58556 469.1248 67.37503 483.1719 67.37503 500.4998Z" fill="#ffffff" fill-rule="evenodd"/>
<path transform="matrix(.00007874014,0,0,.00007874014,66.59665,8.125122)" stroke-width="12700" stroke-linecap="butt" stroke-linejoin="round" fill="none" stroke="#000000" d="M-.0433349 398463C-.0433349 178397.7 269373.7 .01147485 601662.9 .01147485 933952.2 .01147485 1203326 178397.7 1203326 398463 1203326 618528.2 933952.2 796925.9 601662.9 796925.9 269373.7 796925.9-.0433349 618528.2-.0433349 398463Z"/>
<use data-text="C" xlink:href="#font_2_1" transform="matrix(16,0,0,-16,93.67169,36.30011)"/>
<use data-text="l" xlink:href="#font_2_7" transform="matrix(16,0,0,-16,105.22689,36.30011)"/>
<use data-text="i" xlink:href="#font_2_6" transform="matrix(16,0,0,-16,108.78209,36.30011)"/>
<use data-text="e" xlink:href="#font_2_5" transform="matrix(16,0,0,-16,112.337299,36.30011)"/>
<use data-text="n" xlink:href="#font_2_8" transform="matrix(16,0,0,-16,121.236499,36.30011)"/>
<use data-text="t" xlink:href="#font_2_13" transform="matrix(16,0,0,-16,130.1357,36.30011)"/>
<use data-text="&#xfffd;" xlink:href="#font_3_1" transform="matrix(16,0,0,-16,134.5869,36.30011)"/>
<use data-text="p" xlink:href="#font_2_10" transform="matrix(16,0,0,-16,85.67169,55.30011)"/>
<use data-text="r" xlink:href="#font_2_11" transform="matrix(16,0,0,-16,94.57089,55.30011)"/>
<use data-text="o" xlink:href="#font_2_9" transform="matrix(16,0,0,-16,99.898899,55.30011)"/>
<use data-text="c" xlink:href="#font_2_4" transform="matrix(16,0,0,-16,108.798099,55.30011)"/>
<use data-text="e" xlink:href="#font_2_5" transform="matrix(16,0,0,-16,116.798099,55.30011)"/>
<use data-text="s" xlink:href="#font_2_12" transform="matrix(16,0,0,-16,125.697299,55.30011)"/>
<use data-text="s" xlink:href="#font_2_12" transform="matrix(16,0,0,-16,133.6973,55.30011)"/>
<use data-text="&#xfffd;" xlink:href="#font_3_1" transform="matrix(16,0,0,-16,141.6973,55.30011)"/>
<path transform="matrix(-.00007874014,-0,0,.00007874014,354.59663,22.750123)" stroke-width="12700" stroke-linecap="butt" stroke-dasharray="50800,38100" stroke-linejoin="round" fill="none" stroke="#000000" d="M25400.31 .2648927 2560638 1.040039"/>
<path transform="matrix(1,0,0,-1,-.778381,540)" d="M349.375 514.2499 355.375 517.2499 349.375 520.2499Z" fill-rule="evenodd"/>
<path transform="matrix(1,0,0,-1,-.778381,540)" d="M349.375 500.4998C349.375 517.8278 370.5855 531.8749 396.75 531.8749 422.9145 531.8749 444.125 517.8278 444.125 500.4998 444.125 483.1719 422.9145 469.1248 396.75 469.1248 370.5855 469.1248 349.375 483.1719 349.375 500.4998Z" fill="#ffffff" fill-rule="evenodd"/>
<path transform="matrix(.00007874014,0,0,.00007874014,348.59663,8.125122)" stroke-width="12700" stroke-linecap="butt" stroke-linejoin="round" fill="none" stroke="#000000" d="M-.2052003 398463C-.2052003 178397.7 269373.3 .01147485 601662.8 .01147485 933952.2 .01147485 1203326 178397.7 1203326 398463 1203326 618528.2 933952.2 796925.9 601662.8 796925.9 269373.3 796925.9-.2052003 618528.2-.2052003 398463Z"/>
<use data-text="S" xlink:href="#font_2_3" transform="matrix(16,0,0,-16,372.67164,36.30011)"/>
<use data-text="e" xlink:href="#font_2_5" transform="matrix(16,0,0,-16,383.34364,36.30011)"/>
<use data-text="r" xlink:href="#font_2_11" transform="matrix(16,0,0,-16,392.24284,36.30011)"/>
<use data-text="v" xlink:href="#font_2_15" transform="matrix(16,0,0,-16,397.57084,36.30011)"/>
<use data-text="e" xlink:href="#font_2_5" transform="matrix(16,0,0,-16,405.57084,36.30011)"/>
<use data-text="r" xlink:href="#font_2_11" transform="matrix(16,0,0,-16,414.47004,36.30011)"/>
<use data-text="&#xfffd;" xlink:href="#font_3_1" transform="matrix(16,0,0,-16,419.79804,36.30011)"/>
<use data-text="p" xlink:href="#font_2_10" transform="matrix(16,0,0,-16,367.67164,55.30011)"/>
<use data-text="r" xlink:href="#font_2_11" transform="matrix(16,0,0,-16,376.57084,55.30011)"/>
<use data-text="o" xlink:href="#font_2_9" transform="matrix(16,0,0,-16,381.89884,55.30011)"/>
<use data-text="c" xlink:href="#font_2_4" transform="matrix(16,0,0,-16,390.79804,55.30011)"/>
<use data-text="e" xlink:href="#font_2_5" transform="matrix(16,0,0,-16,398.79804,55.30011)"/>
<use data-text="s" xlink:href="#font_2_12" transform="matrix(16,0,0,-16,407.69725,55.30011)"/>
<use data-text="s" xlink:href="#font_2_12" transform="matrix(16,0,0,-16,415.69725,55.30011)"/>
<use data-text="&#xfffd;" xlink:href="#font_3_1" transform="matrix(16,0,0,-16,423.69725,55.30011)"/>
<use data-text="1" xlink:href="#font_4_3" transform="matrix(16,0,0,-16,162.67162,14.525085)"/>
<use data-text="." xlink:href="#font_4_2" transform="matrix(16,0,0,-16,171.57082,14.525085)"/>
<use data-text=" " xlink:href="#font_4_1" transform="matrix(16,0,0,-16,176.01561,14.525085)"/>
<use data-text="C" xlink:href="#font_4_7" transform="matrix(16,0,0,-16,180.46042,14.525085)"/>
<use data-text="l" xlink:href="#font_4_13" transform="matrix(16,0,0,-16,192.01563,14.525085)"/>
<use data-text="i" xlink:href="#font_4_12" transform="matrix(16,0,0,-16,195.57082,14.525085)"/>
<use data-text="e" xlink:href="#font_4_11" transform="matrix(16,0,0,-16,199.12602,14.525085)"/>
<use data-text="n" xlink:href="#font_4_14" transform="matrix(16,0,0,-16,208.02523,14.525085)"/>
<use data-text="t" xlink:href="#font_4_20" transform="matrix(16,0,0,-16,216.92443,14.525085)"/>
<use data-text=" " xlink:href="#font_4_1" transform="matrix(16,0,0,-16,221.36923,14.525085)"/>
<use data-text="s" xlink:href="#font_4_19" transform="matrix(16,0,0,-16,225.81403,14.525085)"/>
<use data-text="e" xlink:href="#font_4_11" transform="matrix(16,0,0,-16,233.81403,14.525085)"/>
<use data-text="n" xlink:href="#font_4_14" transform="matrix(16,0,0,-16,242.71323,14.525085)"/>
<use data-text="d" xlink:href="#font_4_10" transform="matrix(16,0,0,-16,251.61243,14.525085)"/>
<use data-text="s" xlink:href="#font_4_19" transform="matrix(16,0,0,-16,260.51164,14.525085)"/>
<use data-text=" " xlink:href="#font_4_1" transform="matrix(16,0,0,-16,268.51164,14.525085)"/>
<use data-text="r" xlink:href="#font_4_18" transform="matrix(16,0,0,-16,272.95643,14.525085)"/>
<use data-text="e" xlink:href="#font_4_11" transform="matrix(16,0,0,-16,278.28443,14.525085)"/>
<use data-text="q" xlink:href="#font_4_17" transform="matrix(16,0,0,-16,287.18363,14.525085)"/>
<use data-text="u" xlink:href="#font_4_21" transform="matrix(16,0,0,-16,296.08283,14.525085)"/>
<use data-text="e" xlink:href="#font_4_11" transform="matrix(16,0,0,-16,304.98207,14.525085)"/>
<use data-text="s" xlink:href="#font_4_19" transform="matrix(16,0,0,-16,313.88124,14.525085)"/>
<use data-text="t" xlink:href="#font_4_20" transform="matrix(16,0,0,-16,321.88124,14.525085)"/>
<use data-text="&#xfffd;" xlink:href="#font_5_1" transform="matrix(16,0,0,-16,326.32606,14.525085)"/>
<use data-text="2" xlink:href="#font_4_4" transform="matrix(16,0,0,-16,440.79664,74.45001)"/>
<use data-text="." xlink:href="#font_4_2" transform="matrix(16,0,0,-16,449.69584,74.45001)"/>
<use data-text=" " xlink:href="#font_4_1" transform="matrix(16,0,0,-16,454.14064,74.45001)"/>
<use data-text="S" xlink:href="#font_4_8" transform="matrix(16,0,0,-16,458.58543,74.45001)"/>
<use data-text="e" xlink:href="#font_4_11" transform="matrix(16,0,0,-16,469.25746,74.45001)"/>
<use data-text="r" xlink:href="#font_4_18" transform="matrix(16,0,0,-16,478.15666,74.45001)"/>
<use data-text="v" xlink:href="#font_4_22" transform="matrix(16,0,0,-16,483.48463,74.45001)"/>
<use data-text="e" xlink:href="#font_4_11" transform="matrix(16,0,0,-16,491.48463,74.45001)"/>
<use data-text="r" xlink:href="#font_4_18" transform="matrix(16,0,0,-16,500.38386,74.45001)"/>
<use data-text=" " xlink:href="#font_4_1" transform="matrix(16,0,0,-16,505.71186,74.45001)"/>
<use data-text="&#xfffd;" xlink:href="#font_5_1" transform="matrix(16,0,0,-16,510.15666,74.45001)"/>
<use data-text="p" xlink:href="#font_4_16" transform="matrix(16,0,0,-16,436.79664,93.45001)"/>
<use data-text="r" xlink:href="#font_4_18" transform="matrix(16,0,0,-16,445.69584,93.45001)"/>
<use data-text="o" xlink:href="#font_4_15" transform="matrix(16,0,0,-16,451.02384,93.45001)"/>
<use data-text="c" xlink:href="#font_4_9" transform="matrix(16,0,0,-16,459.92304,93.45001)"/>
<use data-text="e" xlink:href="#font_4_11" transform="matrix(16,0,0,-16,467.92304,93.45001)"/>
<use data-text="s" xlink:href="#font_4_19" transform="matrix(16,0,0,-16,476.82225,93.45001)"/>
<use data-text="s" xlink:href="#font_4_19" transform="matrix(16,0,0,-16,484.82225,93.45001)"/>
<use data-text="e" xlink:href="#font_4_11" transform="matrix(16,0,0,-16,492.82225,93.45001)"/>
<use data-text="s" xlink:href="#font_4_19" transform="matrix(16,0,0,-16,501.72145,93.45001)"/>
<use data-text="&#xfffd;" xlink:href="#font_5_1" transform="matrix(16,0,0,-16,509.72145,93.45001)"/>
<use data-text="r" xlink:href="#font_4_18" transform="matrix(16,0,0,-16,446.79664,112.45001)"/>
<use data-text="e" xlink:href="#font_4_11" transform="matrix(16,0,0,-16,452.12464,112.45001)"/>
<use data-text="q" xlink:href="#font_4_17" transform="matrix(16,0,0,-16,461.02384,112.45001)"/>
<use data-text="u" xlink:href="#font_4_21" transform="matrix(16,0,0,-16,469.92304,112.45001)"/>
<use data-text="e" xlink:href="#font_4_11" transform="matrix(16,0,0,-16,478.82225,112.45001)"/>
<use data-text="s" xlink:href="#font_4_19" transform="matrix(16,0,0,-16,487.72145,112.45001)"/>
<use data-text="t" xlink:href="#font_4_20" transform="matrix(16,0,0,-16,495.72145,112.45001)"/>
<use data-text="&#xfffd;" xlink:href="#font_5_1" transform="matrix(16,0,0,-16,500.16624,112.45001)"/>
<path transform="matrix(-.00007874014,-0,0,.00007874014,355.59663,57.75009)" stroke-width="12700" stroke-linecap="butt" stroke-dasharray="50800,38100" stroke-linejoin="round" fill="none" stroke="#000000" d="M.1915284 .3332521 2535238 1.495972"/>
<path transform="matrix(1,0,0,-1,-.778381,540)" d="M160.75 485.2498 154.75 482.2498 160.75 479.2498Z" fill-rule="evenodd"/>
<use data-text="3" xlink:href="#font_4_5" transform="matrix(16,0,0,-16,162.17162,78.400089)"/>
<use data-text="." xlink:href="#font_4_2" transform="matrix(16,0,0,-16,171.07082,78.400089)"/>
<use data-text=" " xlink:href="#font_4_1" transform="matrix(16,0,0,-16,175.51561,78.400089)"/>
<use data-text="S" xlink:href="#font_4_8" transform="matrix(16,0,0,-16,179.96042,78.400089)"/>
<use data-text="e" xlink:href="#font_4_11" transform="matrix(16,0,0,-16,190.63242,78.400089)"/>
<use data-text="r" xlink:href="#font_4_18" transform="matrix(16,0,0,-16,199.53162,78.400089)"/>
<use data-text="v" xlink:href="#font_4_22" transform="matrix(16,0,0,-16,204.85962,78.400089)"/>
<use data-text="e" xlink:href="#font_4_11" transform="matrix(16,0,0,-16,212.85962,78.400089)"/>
<use data-text="r" xlink:href="#font_4_18" transform="matrix(16,0,0,-16,221.75882,78.400089)"/>
<use data-text=" " xlink:href="#font_4_1" transform="matrix(16,0,0,-16,227.08683,78.400089)"/>
<use data-text="s" xlink:href="#font_4_19" transform="matrix(16,0,0,-16,231.53162,78.400089)"/>
<use data-text="e" xlink:href="#font_4_11" transform="matrix(16,0,0,-16,239.53162,78.400089)"/>
<use data-text="n" xlink:href="#font_4_14" transform="matrix(16,0,0,-16,248.43082,78.400089)"/>
<use data-text="d" xlink:href="#font_4_10" transform="matrix(16,0,0,-16,257.33003,78.400089)"/>
<use data-text="s" xlink:href="#font_4_19" transform="matrix(16,0,0,-16,266.22923,78.400089)"/>
<use data-text=" " xlink:href="#font_4_1" transform="matrix(16,0,0,-16,274.22923,78.400089)"/>
<use data-text="r" xlink:href="#font_4_18" transform="matrix(16,0,0,-16,278.674,78.400089)"/>
<use data-text="e" xlink:href="#font_4_11" transform="matrix(16,0,0,-16,284.002,78.400089)"/>
<use data-text="s" xlink:href="#font_4_19" transform="matrix(16,0,0,-16,292.90126,78.400089)"/>
<use data-text="p" xlink:href="#font_4_16" transform="matrix(16,0,0,-16,300.90126,78.400089)"/>
<use data-text="o" xlink:href="#font_4_15" transform="matrix(16,0,0,-16,309.8004,78.400089)"/>
<use data-text="n" xlink:href="#font_4_14" transform="matrix(16,0,0,-16,318.69966,78.400089)"/>
<use data-text="s" xlink:href="#font_4_19" transform="matrix(16,0,0,-16,327.59883,78.400089)"/>
<use data-text="e" xlink:href="#font_4_11" transform="matrix(16,0,0,-16,335.59883,78.400089)"/>
<use data-text="&#xfffd;" xlink:href="#font_5_1" transform="matrix(16,0,0,-16,344.49806,78.400089)"/>
<use data-text="4" xlink:href="#font_4_6" transform="matrix(16,0,0,-16,13.421618,73.70001)"/>
<use data-text="." xlink:href="#font_4_2" transform="matrix(16,0,0,-16,22.32082,73.70001)"/>
<use data-text=" " xlink:href="#font_4_1" transform="matrix(16,0,0,-16,26.772019,73.70001)"/>
<use data-text="C" xlink:href="#font_4_7" transform="matrix(16,0,0,-16,31.22322,73.70001)"/>
<use data-text="l" xlink:href="#font_4_13" transform="matrix(16,0,0,-16,42.77842,73.70001)"/>
<use data-text="i" xlink:href="#font_4_12" transform="matrix(16,0,0,-16,46.333623,73.70001)"/>
<use data-text="e" xlink:href="#font_4_11" transform="matrix(16,0,0,-16,49.88882,73.70001)"/>
<use data-text="n" xlink:href="#font_4_14" transform="matrix(16,0,0,-16,58.78802,73.70001)"/>
<use data-text="t" xlink:href="#font_4_20" transform="matrix(16,0,0,-16,67.68722,73.70001)"/>
<use data-text=" " xlink:href="#font_4_1" transform="matrix(16,0,0,-16,72.13842,73.70001)"/>
<use data-text="&#xfffd;" xlink:href="#font_5_1" transform="matrix(16,0,0,-16,76.58962,73.70001)"/>
<use data-text="p" xlink:href="#font_4_16" transform="matrix(16,0,0,-16,6.421618,92.70001)"/>
<use data-text="r" xlink:href="#font_4_18" transform="matrix(16,0,0,-16,15.320818,92.70001)"/>
<use data-text="o" xlink:href="#font_4_15" transform="matrix(16,0,0,-16,20.648819,92.70001)"/>
<use data-text="c" xlink:href="#font_4_9" transform="matrix(16,0,0,-16,29.54802,92.70001)"/>
<use data-text="e" xlink:href="#font_4_11" transform="matrix(16,0,0,-16,37.54802,92.70001)"/>
<use data-text="s" xlink:href="#font_4_19" transform="matrix(16,0,0,-16,46.447225,92.70001)"/>
<use data-text="s" xlink:href="#font_4_19" transform="matrix(16,0,0,-16,54.447225,92.70001)"/>
<use data-text="e" xlink:href="#font_4_11" transform="matrix(16,0,0,-16,62.447225,92.70001)"/>
<use data-text="s" xlink:href="#font_4_19" transform="matrix(16,0,0,-16,71.34642,92.70001)"/>
<use data-text="&#xfffd;" xlink:href="#font_5_1" transform="matrix(16,0,0,-16,79.34642,92.70001)"/>
<use data-text="r" xlink:href="#font_4_18" transform="matrix(16,0,0,-16,10.421618,111.70001)"/>
<use data-text="e" xlink:href="#font_4_11" transform="matrix(16,0,0,-16,15.749619,111.70001)"/>
<use data-text="s" xlink:href="#font_4_19" transform="matrix(16,0,0,-16,24.648819,111.70001)"/>
<use data-text="p" xlink:href="#font_4_16" transform="matrix(16,0,0,-16,32.64882,111.70001)"/>
<use data-text="o" xlink:href="#font_4_15" transform="matrix(16,0,0,-16,41.54802,111.70001)"/>
<use data-text="n" xlink:href="#font_4_14" transform="matrix(16,0,0,-16,50.44722,111.70001)"/>
<use data-text="s" xlink:href="#font_4_19" transform="matrix(16,0,0,-16,59.34642,111.70001)"/>
<use data-text="e" xlink:href="#font_4_11" transform="matrix(16,0,0,-16,67.34642,111.70001)"/>
<use data-text="&#xfffd;" xlink:href="#font_5_1" transform="matrix(16,0,0,-16,76.24561,111.70001)"/>
<path transform="matrix(.00007874014,0,0,.00007874014,443.59663,40.00009)" stroke-width="12700" stroke-linecap="butt" stroke-linejoin="round" fill="none" stroke="#000000" d="M25399.98 .2985841H811212.6"/>
<path transform="matrix(1,0,0,-1,-.778381,540)" d="M450.375 496.9999 444.375 499.9999 450.375 502.9999Z" fill-rule="evenodd"/>
<path transform="matrix(1,0,0,-1,-.778381,540)" d="M504.25 502.9999 510.25 499.9999 504.25 496.9999Z" fill-rule="evenodd"/>
<path transform="matrix(.00007874014,0,0,.00007874014,509.47154,16.125123)" stroke-width="12700" stroke-linecap="butt" stroke-linejoin="round" fill="none" stroke="#000000" d="M1089025 94985.72C1089025 147444.5 845237.9 189970.6 544512 189970.6 243786.2 189970.6-.1661379 147444.5-.1661379 94985.72"/>
<path transform="matrix(.00007874014,0,0,.00007874014,509.47154,16.125123)" stroke-width="12700" stroke-linecap="butt" stroke-linejoin="round" fill="none" stroke="#000000" d="M-.1661379 94985.72C-.1661379 42526.12 243786.2 .02709985 544512 .02709985 845237.9 .02709985 1089025 42526.12 1089025 94985.72V474926.5C1089025 527385.8 845237.9 569911.8 544512 569911.8 243786.2 569911.8-.1661379 527385.8-.1661379 474926.5Z"/>
<use data-text="R" xlink:href="#font_2_2" transform="matrix(16,0,0,-16,517.67166,48.70221)"/>
<use data-text="e" xlink:href="#font_2_5" transform="matrix(16,0,0,-16,529.2268,48.70221)"/>
<use data-text="s" xlink:href="#font_2_12" transform="matrix(16,0,0,-16,538.12606,48.70221)"/>
<use data-text="o" xlink:href="#font_2_9" transform="matrix(16,0,0,-16,546.12606,48.70221)"/>
<use data-text="u" xlink:href="#font_2_14" transform="matrix(16,0,0,-16,555.0252,48.70221)"/>
<use data-text="r" xlink:href="#font_2_11" transform="matrix(16,0,0,-16,563.92446,48.70221)"/>
<use data-text="c" xlink:href="#font_2_4" transform="matrix(16,0,0,-16,569.25247,48.70221)"/>
<use data-text="e" xlink:href="#font_2_5" transform="matrix(16,0,0,-16,577.25247,48.70221)"/>
<use data-text="&#xfffd;" xlink:href="#font_3_1" transform="matrix(16,0,0,-16,586.1516,48.70221)"/>
</g>
</g>
</svg>
