<svg xmlns="http://www.w3.org/2000/svg" xmlns:xlink="http://www.w3.org/1999/xlink" version="1.1" width="672.515pt" height="401.641pt" viewBox="0 0 672.515 401.641">
<defs>
<clipPath id="clip_0">
<path transform="matrix(1,0,0,-1,0,540)" d="M0 138.359H672.515V540H0Z" fill-rule="evenodd"/>
</clipPath>
<clipPath id="clip_1">
<path transform="matrix(1,0,0,-1,0,540)" d="M0 .00002324581H719.9999V540H0Z"/>
</clipPath>
<path id="font_2_22" d="M.064453128 .5234375H.15136719V.44921876C.17220052 .4749349 .19108074 .49365235 .20800781 .5053711 .23697917 .52522787 .26985679 .53515627 .30664063 .53515627 .34830729 .53515627 .38183595 .52490237 .40722657 .50439456 .42154948 .49267579 .4345703 .4754232 .44628907 .45263673 .4658203 .4806315 .48876954 .5013835 .5151367 .5148926 .5415039 .5284017 .5711263 .53515627 .6040039 .53515627 .6743164 .53515627 .72216799 .5097402 .7475586 .45890809 .76123049 .43154399 .7680664 .3947296 .7680664 .34846498V0H.6767578V.36367799C.6767578 .39853923 .6680501 .42248536 .65063479 .43551637 .6332194 .44855754 .6119792 .45507813 .58691409 .45507813 .5524089 .45507813 .5227051 .44350688 .49780274 .42036439 .4729004 .39723207 .46044923 .35861717 .46044923 .30451966V0H.37109376V.3416748C.37109376 .37719728 .36686198 .4031016 .35839845 .41938783 .3450521 .4438324 .32014976 .4560547 .2836914 .4560547 .25048829 .4560547 .22029622 .44318138 .19311524 .4174347 .16593425 .3916982 .15234375 .34510295 .15234375 .27764894V0H.064453128V.5234375Z"/>
<path id="font_2_19" d="M.064453128 .5205078H.1538086V0H.064453128V.5205078M.064453128 .71777346H.1538086V.61816409H.064453128V.71777346Z"/>
<path id="font_2_21" d="M.06689453 .71777346H.15478516V0H.06689453V.71777346Z"/>
<path id="font_3_1" d="M0 0Z"/>
<path id="font_2_16" d="M.28222657 .53515627C.31933595 .53515627 .355306 .52644857 .39013673 .5090332 .42496745 .49161784 .4514974 .4690806 .46972657 .4414215 .4873047 .41505433 .49902345 .3842977 .5048828 .3491516 .5100911 .32506309 .5126953 .28647868 .5126953 .23339844H.12939453C.13102214 .18033855 .14355469 .13777669 .16699219 .10571289 .19042969 .073649089 .22672527 .057617189 .2758789 .057617189 .32177735 .057617189 .35839845 .07261658 .3857422 .10261536 .4013672 .12003072 .4124349 .14018758 .4189453 .16308594H.5053711C.50309249 .14398194 .49552409 .122690837 .48266603 .09921265 .46980796 .07574463 .45540367 .05656433 .43945313 .041671754 .4127604 .01576233 .37972007-.0017242432 .34033204-.010787964 .3191732-.01596578 .2952474-.018554688 .2685547-.018554688 .20345052-.018554688 .14827474 .0051472985 .103027347 .05255127 .05777995 .09995524 .03515625 .16634114 .03515625 .25170899 .03515625 .33576457 .057942708 .40401713 .103515628 .45646668 .14908855 .5089264 .20865886 .53515627 .28222657 .53515627M.42236329 .30371095C.41878257 .34191896 .41048179 .37245179 .39746095 .39530946 .3733724 .4377594 .33317057 .45898438 .27685548 .45898438 .23649089 .45898438 .20263672 .44437156 .17529297 .41514588 .14794922 .3859202 .13346355 .34877525 .13183594 .30371095H.42236329M.27392579 .5361328V.5361328Z"/>
<path id="font_2_15" d="M.12011719 .2553711C.12011719 .19923909 .1319987 .15224712 .15576172 .11439514 .17952474 .076543178 .21761067 .057617189 .27001954 .057617189 .31070964 .057617189 .3441569 .075154628 .37036134 .11022949 .39656578 .14531453 .40966798 .19565328 .40966798 .26124574 .40966798 .32748924 .39615885 .37651573 .36914063 .4083252 .3421224 .44014488 .3087565 .4560547 .26904298 .4560547 .22477214 .4560547 .18888347 .4390869 .16137696 .40515138 .13387044 .37121583 .12011719 .32128907 .12011719 .2553711M.2524414 .53222659C.29248048 .53222659 .32600913 .52381899 .35302735 .5070038 .36865235 .4972992 .38639323 .48031617 .40625 .4560547V.71875H.49072267V0H.4116211V.07229614C.39111329 .04023234 .36686198 .017074585 .3388672 .002822876 .3108724-.011428833 .2788086-.018554688 .24267578-.018554688 .18440755-.018554688 .13395183 .0059407555 .091308597 .05493164 .048665365 .10392252 .02734375 .16910808 .02734375 .25048829 .02734375 .32666017 .04679362 .39265953 .08569336 .44848634 .1245931 .5043132 .18017578 .53222659 .2524414 .53222659Z"/>
<path id="font_2_29" d="M.15234375 .5234375V.17590332C.15234375 .1491801 .15657552 .12734477 .16503906 .11039734 .18066406 .07911682 .20979817 .06347656 .2524414 .06347656 .3136393 .06347656 .355306 .09085083 .3774414 .14559937 .3894857 .17492676 .3955078 .21516927 .3955078 .2663269V.5234375H.48339845V0H.40039063L.4013672 .0771637C.38997398 .057195028 .3758138 .040339155 .35888673 .02659607 .32535807-.00090026858 .28466798-.0146484379 .2368164-.0146484379 .16227214-.0146484379 .11149088 .010299683 .084472659 .060195924 .06982422 .08693949 .0625 .12265015 .0625 .16732788V.5234375H.15234375M.27294923 .5361328V.5361328Z"/>
<path id="font_2_17" d="M.24902344 .53222659C.29003907 .53222659 .32584635 .5220744 .3564453 .50177 .37304688 .49030558 .38997398 .4736023 .40722657 .45166017V.5185547H.48828126V.04234314C.48828126-.024154664 .47851563-.07663473 .45898438-.115097049 .42252604-.18615215 .35367839-.22167969 .2524414-.22167969 .1961263-.22167969 .14876302-.20906575 .11035156-.18383789 .0719401-.15861003 .05045573-.119140628 .045898439-.06542969H.1352539C.13948567-.08873495 .14794922-.10669454 .16064453-.11930847 .1805013-.13872783 .2117513-.1484375 .25439454-.1484375 .32177735-.1484375 .3658854-.12467448 .38671876-.07714844 .39908854-.04916382 .40478517 .0007985433 .4038086 .07273865 .38623048 .04588318 .36507163 .025904337 .34033204 .012802124 .31559245-.000289917 .2828776-.0068359377 .2421875-.0068359377 .18554688-.0068359377 .13598633 .013280232 .09350586 .053512575 .05102539 .09375509 .029785157 .16030376 .029785157 .25315858 .029785157 .34080506 .051188154 .40922547 .09399414 .4584198 .13680013 .5076243 .18847656 .53222659 .24902344 .53222659M.40722657 .26342774C.40722657 .328125 .39388023 .37607829 .3671875 .4072876 .34049479 .43849693 .30647788 .45410157 .26513673 .45410157 .20328777 .45410157 .16097005 .4251658 .1381836 .3672943 .12613933 .33641053 .12011719 .29593406 .12011719 .24586487 .12011719 .1870168 .13208008 .14223226 .15600586 .11151123 .17993164 .0807902 .21207683 .06542969 .2524414 .06542969 .31559245 .06542969 .36002604 .09387716 .3857422 .1507721 .4000651 .18295796 .40722657 .22050984 .40722657 .26342774M.25927735 .5361328V.5361328Z"/>
<path id="font_2_24" d="M.27197267 .057617189C.33024089 .057617189 .37019859 .07964579 .3918457 .123703 .41349284 .16776021 .4243164 .21677144 .4243164 .2707367 .4243164 .31950379 .4165039 .35917155 .4008789 .38974 .3761393 .43785606 .3334961 .46191407 .27294923 .46191407 .21923828 .46191407 .18017578 .44143168 .15576172 .40046693 .13134766 .35950218 .119140628 .31008403 .119140628 .25221253 .119140628 .1966095 .13134766 .15027364 .15576172 .113204959 .18017578 .076146449 .21891277 .057617189 .27197267 .057617189M.27539063 .53808596C.34277345 .53808596 .3997396 .5156453 .44628907 .47076417 .49283854 .42588298 .5161133 .35985819 .5161133 .27268983 .5161133 .1884613 .49560548 .11886088 .45458985 .06388855 .41357423 .008926392 .3499349-.018554688 .26367188-.018554688 .19173177-.018554688 .13460286 .00575765 .092285159 .054382326 .04996745 .103006999 .028808594 .16829936 .028808594 .2502594 .028808594 .33806864 .05110677 .4079895 .095703128 .46002198 .14029949 .51206466 .20019531 .53808596 .27539063 .53808596M.27246095 .5361328V.5361328Z"/>
<path id="font_2_30" d="M.107421878 .5234375 .24707031 .09725952 .3930664 .5234375H.4892578L.2919922 0H.19824219L.0053710939 .5234375H.107421878Z"/>
<path id="font_2_14" d="M.26611329 .53808596C.32503257 .53808596 .37296549 .5237274 .4099121 .49501039 .44685874 .46629334 .46907554 .41684977 .4765625 .3466797H.39111329C.38590495 .37890626 .37402345 .40568034 .35546876 .42700196 .33691407 .44832359 .3071289 .45898438 .26611329 .45898438 .2101237 .45898438 .17008464 .43170677 .1459961 .3771515 .1303711 .34176127 .122558597 .29808555 .122558597 .24612427 .122558597 .19384766 .1336263 .14984639 .15576172 .11412048 .17789714 .07840475 .21272786 .060546876 .2602539 .060546876 .29671226 .060546876 .3256022 .0716095 .34692384 .09373474 .36824546 .115859989 .38297526 .1461385 .39111329 .18457031H.4765625C.46679688 .115234378 .4423828 .06453451 .4033203 .032470704 .3642578 .00040690104 .31429038-.015625 .25341798-.015625 .1850586-.015625 .13053386 .009379069 .08984375 .059387208 .049153646 .10940552 .028808594 .17188008 .028808594 .24681092 .028808594 .33868919 .05110677 .41020204 .095703128 .4613495 .14029949 .51250717 .19710286 .53808596 .26611329 .53808596M.2524414 .5361328V.5361328Z"/>
<path id="font_2_13" d="M.057617189 .71875H.1430664V.45948792C.16227214 .4847056 .18522136 .50394698 .21191406 .5172119 .23860677 .53047689 .26757813 .5371094 .29882813 .5371094 .36393229 .5371094 .41674806 .5147095 .4572754 .46990968 .49780274 .42510987 .5180664 .35905458 .5180664 .27174378 .5180664 .1889801 .49804688 .12022909 .4580078 .06549072 .41796876 .010762532 .36246745-.016601563 .2915039-.016601563 .25179038-.016601563 .21826172-.006942749 .19091797 .012374878 .17464192 .023839316 .15722656 .042175294 .13867188 .06738281V0H.057617189V.71875M.2861328 .061523439C.33365885 .061523439 .36922203 .08037821 .39282228 .11808777 .41642253 .1558075 .42822267 .20555115 .42822267 .26731874 .42822267 .32227073 .41642253 .3677877 .39282228 .40386964 .36922203 .43996177 .33447267 .4580078 .28857423 .4580078 .24853516 .4580078 .21346028 .44321189 .18334961 .41362 .15323894 .3840383 .1381836 .3352712 .1381836 .26731874 .1381836 .21822612 .14436849 .17840068 .15673828 .1478424 .17985027 .090296428 .22298177 .061523439 .2861328 .061523439Z"/>
<path id="font_2_26" d="M.06689453 .5234375H.15039063V.4326172C.15722656 .4502767 .17399089 .4717814 .2006836 .49713136 .2273763 .52248129 .25813804 .53515627 .29296876 .53515627 .29459635 .53515627 .29736329 .5349579 .30126954 .53456118 .30517579 .5341746 .31184898 .5333964 .32128907 .53222659V.43945313C.31608073 .44062297 .3112793 .44140116 .30688478 .44178773 .30249024 .44218446 .2976888 .4423828 .29248048 .4423828 .24820964 .4423828 .2141927 .4280599 .19042969 .39941407 .16666667 .37076823 .15478516 .33789063 .15478516 .30078126V0H.06689453V.5234375Z"/>
<path id="font_2_20" d="M.0625 .71777346H.14697266V.30101014L.3725586 .5234375H.48486329L.28466798 .32881166 .49609376 0H.38378907L.22070313 .26635743 .14697266 .19647217V0H.0625V.71777346Z"/>
<path id="font_2_32" d="M.39111329 .5234375H.48828126C.47591148 .48987834 .44840495 .41330973 .40576173 .2937317 .3738607 .20380657 .34716798 .13049825 .3256836 .07380676 .27490235-.059921266 .23909505-.14145915 .21826172-.17080689 .19742839-.2001648 .1616211-.21484375 .110839847-.21484375 .098470058-.21484375 .08894857-.21435039 .08227539-.21336365 .07560221-.21238709 .06738281-.21058655 .057617189-.20796204V-.1274414C.072916667-.13167317 .083984378-.13427735 .09082031-.1352539 .09765625-.13623047 .10367838-.13671875 .10888672-.13671875 .12516277-.13671875 .13712566-.1340332 .14477539-.12866211 .15242513-.123291019 .15885417-.11669922 .1640625-.10888672 .16569011-.106282558 .17154949-.092936199 .18164063-.068847659 .19173177-.044759115 .19905599-.026855469 .20361328-.015136719L.010253906 .5234375H.10986328L.25 .09727478 .39111329 .5234375M.24951172 .5361328V.5361328Z"/>
<path id="font_2_28" d="M.08203125 .66796877H.17089844V.5234375H.25439454V.4501953H.17089844V.110183719C.17089844 .09202576 .17708333 .07986959 .18945313 .07371521 .19628906 .07014465 .2076823 .068359378 .22363281 .068359378 .22786458 .068359378 .23242188 .06846619 .23730469 .06867981 .2421875 .0689036 .24788411 .06944784 .25439454 .0703125V0C.24430339-.0031026204 .23380535-.005340576 .22290039-.006713867 .21199544-.008097331 .20019531-.0087890629 .1875-.0087890629 .14648438-.0087890629 .118652347 .0016988119 .104003909 .02267456 .08935547 .04365031 .08203125 .070882167 .08203125 .10437012V.4501953H.011230469V.5234375H.08203125V.66796877Z"/>
<path id="font_2_27" d="M.11669922 .1640625C.11930338 .13463338 .12662761 .11207072 .13867188 .09637451 .1608073 .06793213 .19921875 .053710939 .25390626 .053710939 .28645835 .053710939 .31510417 .060806276 .33984376 .07499695 .36458335 .08919779 .37695313 .11115011 .37695313 .14085388 .37695313 .16337586 .36702476 .18051148 .34716798 .19226074 .33447267 .19944255 .30940757 .20775859 .27197267 .21720886L.20214844 .2348175C.15755208 .24590557 .12467448 .25829569 .103515628 .27198792 .06575521 .29579164 .046875 .32873027 .046875 .37080384 .046875 .42036439 .064697269 .46046958 .1003418 .49111939 .13598633 .52177938 .18391927 .5371094 .24414063 .5371094 .32291667 .5371094 .37972007 .5139974 .41455079 .46777345 .4363607 .43847657 .4469401 .40690104 .44628907 .37304688H.36328126C.36165367 .39269004 .35465495 .41055808 .34228517 .426651 .32210288 .44950868 .28710938 .4609375 .23730469 .4609375 .20410156 .4609375 .17895508 .45461528 .16186524 .44197084 .14477539 .42933656 .13623047 .41264854 .13623047 .39190675 .13623047 .36922203 .14746094 .35107423 .16992188 .33746339 .1829427 .32936607 .20214844 .32221986 .22753906 .31602479L.28564454 .3018341C.34879557 .28650413 .39111329 .27166749 .41259767 .25732423 .44677735 .23482259 .4638672 .19944255 .4638672 .15118408 .4638672 .10455322 .44620768 .06428019 .41088868 .03036499 .37556968-.0035502117 .32177735-.020507813 .24951172-.020507813 .17171224-.020507813 .116617839-.002802531 .084228519 .032608034 .05183919 .06801859 .034505208 .111836757 .032226564 .1640625H.11669922M.24658203 .5361328V.5361328Z"/>
<path id="font_2_31" d="M.10498047 .5234375 .2055664 .110946658 .3076172 .5234375H.40625L.50878909 .11338806 .61572268 .5234375H.7036133L.5517578 0H.46044923L.3540039 .40516664 .25097657 0H.15966797L.0087890629 .5234375H.10498047Z"/>
<path id="font_2_18" d="M.064453128 .71875H.15234375V.45214845C.17317708 .4786682 .19189453 .4973297 .2084961 .50813296 .2368164 .5267995 .2721354 .5361328 .31445313 .5361328 .39029948 .5361328 .44173179 .50957748 .46875 .45646668 .48339845 .42747499 .49072267 .38723756 .49072267 .3357544V0H.40039063V.32958985C.40039063 .3680013 .3955078 .39615885 .3857422 .4140625 .36979167 .44270835 .33984376 .45703126 .29589845 .45703126 .2594401 .45703126 .22639974 .4444987 .19677735 .4194336 .16715496 .3943685 .15234375 .34700523 .15234375 .27734376V0H.064453128V.71875Z"/>
<path id="font_2_12" d="M.13183594 .1394043C.13183594 .114095058 .14111328 .09413656 .15966797 .07952881 .17822266 .06492106 .20019531 .057617189 .22558594 .057617189 .2565104 .057617189 .28645835 .06471761 .3154297 .07891846 .3642578 .10247803 .38867188 .14127605 .38867188 .1953125V.26611329C.3779297 .25886027 .36409507 .2528127 .34716798 .24797058 .33024089 .24313863 .3136393 .23983257 .29736329 .23805237L.24414063 .23184204C.21223958 .22799683 .1883138 .22153218 .17236328 .21244812 .14534505 .19718933 .13183594 .17284139 .13183594 .1394043M.34472657 .31689454C.36490885 .3194987 .37841798 .32796226 .3852539 .34228517 .38916017 .35012818 .39111329 .36140443 .39111329 .3761139 .39111329 .40618388 .38045249 .42799888 .35913087 .44155885 .33780924 .455129 .30729167 .46191407 .26757813 .46191407 .22167969 .46191407 .18912761 .44948326 .16992188 .42462159 .15917969 .4108785 .15218099 .39043174 .14892578 .36328126H.06689453C.06852213 .42791749 .08943685 .47288514 .12963867 .4981842 .1698405 .5234833 .21647136 .5361328 .26953126 .5361328 .3310547 .5361328 .38102214 .52441409 .4194336 .50097659 .45751954 .47753907 .4765625 .4410502 .4765625 .39151V.08985901C.4765625 .08073425 .47843424 .073404949 .48217774 .067871097 .48592124 .06233724 .4938151 .059570314 .5058594 .059570314 .5097656 .059570314 .51416018 .059814454 .51904299 .060302736 .5239258 .060791017 .5291341 .061523439 .53466799 .0625V-.0028076173C.5209961-.00676473 .5105794-.009236653 .50341799-.010223389 .4962565-.011220296 .48649089-.01171875 .4741211-.01171875 .44384767-.01171875 .421875-.0009104411 .40820313 .020706177 .40104167 .032170614 .3959961 .048380536 .3930664 .06933594 .37516276 .045633954 .34944663 .025060019 .31591798 .0076141359 .2823893-.009831746 .2454427-.018554688 .20507813-.018554688 .15657552-.018554688 .11694336-.0037790936 .08618164 .025772095 .055419923 .055323285 .040039064 .092300418 .040039064 .13670349 .040039064 .18535869 .05517578 .22307332 .08544922 .24984741 .115722659 .2766215 .1554362 .29311119 .20458985 .2993164L.34472657 .31689454M.27197267 .5361328V.5361328Z"/>
<path id="font_2_4" d="M.095703128 .4951172V.5625C.15917969 .5686849 .20345052 .5790202 .22851563 .59350588 .25358073 .6079915 .2722982 .6422526 .28466798 .69628909H.3540039V0H.2602539V.4951172H.095703128Z"/>
<path id="font_2_5" d="M.03125 0C.034505208 .060221357 .04695638 .11263021 .068603519 .15722656 .09025065 .20182292 .13248699 .24235027 .1953125 .2788086L.2890625 .3330078C.3310547 .35742188 .3605143 .3782908 .3774414 .39561463 .40413413 .4227346 .41748048 .45377604 .41748048 .488739 .41748048 .52959188 .40527345 .562027 .38085938 .5860443 .3564453 .61006167 .32389323 .6220703 .28320313 .6220703 .22298177 .6220703 .18131511 .5991516 .15820313 .5533142 .14583333 .52875778 .13899739 .4947103 .13769531 .45117188H.048339845C.049316408 .5121663 .060546876 .5619049 .08203125 .6003876 .12011719 .66822817 .18733724 .70214846 .2836914 .70214846 .36376954 .70214846 .4222819 .68047079 .45922853 .6371155 .49617515 .5937703 .51464846 .5455373 .51464846 .49241639 .51464846 .4363556 .49495445 .388443 .4555664 .3486786 .43277995 .3255361 .3919271 .29752604 .3330078 .26464845L.26611329 .22753906C.23421224 .20996094 .20914714 .19319661 .19091797 .1772461 .15836589 .14892578 .13785808 .11751302 .12939453 .08300781H.51123049V0H.03125Z"/>
<path id="font_2_10" d="M.27197267 .40625C.31070964 .40625 .34098307 .41704814 .36279298 .4386444 .38460288 .4602407 .3955078 .48598228 .3955078 .51586917 .3955078 .5418498 .38509117 .5657196 .3642578 .58747866 .34342448 .6092377 .3116862 .6201172 .26904298 .6201172 .22672527 .6201172 .1961263 .6092377 .1772461 .58747866 .15836589 .5657196 .14892578 .54022219 .14892578 .5109863 .14892578 .4781901 .16113281 .452535 .18554688 .434021 .20996094 .415507 .23876953 .40625 .27197267 .40625M.27734376 .059570314C.31803385 .059570314 .35180665 .07055664 .3786621 .0925293 .40551759 .11450195 .4189453 .14729817 .4189453 .19091797 .4189453 .23616536 .4051107 .2705078 .3774414 .2939453 .34977214 .3173828 .31429038 .32910157 .2709961 .32910157 .2290039 .32910157 .19474285 .31713868 .16821289 .2932129 .14168294 .2692871 .12841797 .23616536 .12841797 .19384766 .12841797 .15738933 .14054363 .12589519 .16479492 .099365238 .18904622 .07283529 .2265625 .059570314 .27734376 .059570314M.15234375 .37234498C.12792969 .3827413 .10888672 .39491783 .095214847 .4088745 .069498699 .43485514 .056640626 .46863304 .056640626 .51020815 .056640626 .5621694 .075520839 .6068217 .11328125 .64416506 .15104167 .68151858 .20458985 .7001953 .27392579 .7001953 .34098307 .7001953 .3935547 .6825765 .43164063 .64733889 .46972657 .61210128 .48876954 .5709381 .48876954 .5238495 .48876954 .48033143 .4777018 .44509379 .4555664 .4181366 .44319663 .4028778 .42399089 .38793946 .39794923 .37332154 .42692057 .359965 .44970704 .34465537 .4663086 .32739259 .49723307 .29482017 .5126953 .25247193 .5126953 .2003479 .5126953 .13878377 .49202476 .08658346 .4506836 .04374695 .40934245 .0009104411 .35091148-.020507813 .27539063-.020507813 .20735677-.020507813 .14982097-.0020243328 .1027832 .034942628 .05574544 .07191976 .032226564 .12559001 .032226564 .19595337 .032226564 .23732503 .042317708 .2730764 .0625 .3032074 .08268229 .3333384 .11263021 .35638429 .15234375 .37234498Z"/>
<path id="font_2_2" d="M.08544922 .10644531H.1875V0H.08544922V.10644531Z"/>
<path id="font_2_3" d="M.2705078 .7001953C.3610026 .7001953 .42643229 .66289779 .46679688 .5883026 .49804688 .5306447 .5136719 .45165 .5136719 .35131837 .5136719 .25620524 .49951173 .17754109 .4711914 .11532593 .43017579 .026072184 .3631185-.018554688 .27001954-.018554688 .18603516-.018554688 .123535159 .017929078 .08251953 .09089661 .048339845 .15180969 .03125 .23357137 .03125 .33618165 .03125 .41565959 .041503908 .48390199 .06201172 .5409088 .10042318 .6470998 .16992188 .7001953 .2705078 .7001953M.26953126 .061523439C.31510417 .061523439 .35139976 .08168539 .37841798 .12200928 .4054362 .16234334 .4189453 .23747762 .4189453 .3474121 .4189453 .42676798 .4091797 .49205528 .38964845 .5432739 .3701172 .59450277 .332194 .6201172 .2758789 .6201172 .2241211 .6201172 .1862793 .59580489 .16235352 .5471802 .13842774 .4985555 .12646485 .42692057 .12646485 .3322754 .12646485 .26105754 .13411458 .20381673 .14941406 .16055298 .17285156 .09453329 .21289063 .061523439 .26953126 .061523439Z"/>
<path id="font_2_9" d="M.5229492 .6875V.6104126C.5004883 .5888875 .47062174 .55110678 .4333496 .4970703 .39607749 .44303385 .3631185 .38476563 .33447267 .32226563 .30615235 .26139323 .28466798 .20589192 .27001954 .15576172 .26057945 .123535159 .24837239 .071614589 .23339844 0H.13623047C.15836589 .13335164 .20719402 .26605735 .28271485 .39811708 .3273112 .47553 .3741862 .5423686 .42333985 .5986328H.036621095V.6875H.5229492Z"/>
<path id="font_2_7" d="M.123535159 .17773438C.12939453 .12740071 .15266927 .09259033 .19335938 .07330322 .2141927 .06349691 .23828125 .05859375 .265625 .05859375 .31770835 .05859375 .35628257 .07524618 .38134767 .108551029 .40641276 .14185588 .4189453 .17875672 .4189453 .21925354 .4189453 .26823426 .40405274 .30611167 .37426759 .33288575 .34448243 .35965983 .3087565 .37304688 .26708985 .37304688 .2368164 .37304688 .21085613 .36714173 .18920899 .35533143 .16756185 .34352113 .14908855 .32696534 .13378906 .30566407L.057617189 .31054688 .110839847 .6875H.4741211V.60253909H.17675781L.14697266 .40863038C.1632487 .42115275 .17871094 .4305471 .19335938 .43681336 .21940105 .44768778 .24951172 .453125 .2836914 .453125 .347819 .453125 .402181 .43236796 .44677735 .39085389 .4913737 .3493398 .5136719 .29671226 .5136719 .23297119 .5136719 .1666158 .49324546 .10810343 .45239259 .057434083 .4115397 .0067749025 .34635417-.018554688 .25683595-.018554688 .1998698-.018554688 .14949544-.0024820965 .10571289 .029663086 .06193034 .06180827 .037434896 .11116537 .032226564 .17773438H.123535159Z"/>
<path id="font_4_19" d="M.2631836 .5234375 .18945313 .17590332C.18391927 .1491801 .18359375 .12734477 .18847656 .11039734 .19726563 .07911682 .22298177 .06347656 .265625 .06347656 .3268229 .06347656 .37434898 .09085083 .40820313 .14559937 .42643229 .17492676 .44091798 .21516927 .45166017 .2663269L.50634768 .5234375H.5942383L.48339845 0H.40039063L.41748048 .076828C.40185548 .056930543 .3841146 .0401357 .3642578 .026443482 .32486979-.00095113119 .28125-.0146484379 .23339844-.0146484379 .15885417-.0146484379 .11344401 .010299683 .09716797 .060195924 .08805338 .08693949 .08821615 .12265015 .09765625 .16732788L.17333985 .5234375H.2631836Z"/>
<path id="font_4_14" d="M.17529297 .5234375H.25878907L.24316406 .44914247C.27441407 .47977195 .30525718 .50176498 .33569337 .51512148 .36612956 .52847799 .39827476 .53515627 .4321289 .53515627 .50634768 .53515627 .55094406 .5092519 .56591799 .45744325 .57438156 .42910258 .5730794 .38853965 .5620117 .3357544L.49072267 0H.4013672L.4711914 .3299408C.47802735 .36188255 .47884117 .38762919 .4736328 .4071808 .46484376 .4397634 .4399414 .4560547 .39892579 .4560547 .37809245 .4560547 .3605143 .4539388 .3461914 .44970704 .32047526 .4425354 .29622398 .42819724 .2734375 .4066925 .25520835 .38941957 .24194336 .37157694 .23364258 .35316468 .2253418 .3347524 .21761067 .30843608 .21044922 .2742157L.15234375 0H.064453128L.17529297 .5234375Z"/>
<path id="font_4_6" d="M.23730469 .057617189C.26822917 .057617189 .2998047 .06476847 .33203126 .079071048 .3857422 .10281372 .41845704 .14166768 .43017579 .19563294L.44482423 .26635743C.43277995 .25953166 .417806 .25384013 .39990235 .24928284 .3819987 .24473572 .3647461 .2414856 .34814454 .23953247L.29345704 .23271179C.26057945 .22848003 .2351888 .22181194 .21728516 .21270752 .18701172 .19742839 .16829427 .17304485 .16113281 .13955689 .15559896 .11419678 .16056316 .09419759 .17602539 .079559329 .19148763 .064931239 .21191406 .057617189 .23730469 .057617189M.4116211 .31723023C.43245445 .31984458 .44791667 .32831828 .4580078 .34265138 .46354167 .35047404 .46777345 .3617147 .47070313 .3763733 .47721354 .40635173 .4711914 .4281006 .45263673 .44161988 .43408204 .45514933 .4049479 .46191407 .36523438 .46191407 .31933595 .46191407 .2841797 .44954429 .25976563 .4248047 .24609375 .4111328 .23486328 .39078776 .22607422 .36376954H.14404297C.15934246 .42822267 .18977864 .47306315 .23535156 .49829103 .28092448 .52351889 .33024089 .5361328 .38330079 .5361328 .44482423 .5361328 .4921875 .52441409 .5253906 .50097659 .55859377 .47753907 .569987 .44108073 .5595703 .39160157L.49560548 .09033203C.49365235 .081217449 .49389649 .07389323 .4963379 .068359378 .4987793 .06282552 .50602218 .060058595 .5180664 .060058595 .52197268 .060058595 .52644857 .060343427 .53149417 .060913087 .53653976 .061482748 .5419922 .06233724 .54785159 .06347656L.5336914-.0027618409C.51936849-.0067392985 .5085449-.009226481 .5012207-.010223389 .49389649-.011220296 .48404948-.01171875 .4716797-.01171875 .44140626-.01171875 .42171226-.00090026858 .41259767 .020736695 .40771485 .032211305 .40608726 .04843648 .40771485 .06941223 .38460288 .045954389 .3544922 .02558899 .3173828 .00831604 .28027345-.008946736 .24153646-.017578125 .20117188-.017578125 .15266927-.017578125 .116129558-.0028330486 .091552738 .026657105 .066975917 .05614726 .05940755 .093048099 .068847659 .13735962 .07926432 .18591309 .10245768 .22355144 .13842774 .25027467 .17439778 .2769979 .21761067 .29345194 .2680664 .29963685L.4116211 .31723023Z"/>
<path id="font_4_13" d="M.17529297 .5234375H.26220704L.24658203 .44914247C.27294923 .47487895 .2957357 .49361167 .3149414 .5053406 .34814454 .5252177 .38313804 .53515627 .41992188 .53515627 .46158854 .53515627 .4930013 .52489218 .51416018 .504364 .5258789 .4926351 .53515627 .47536723 .5419922 .45256043 .5677083 .48058573 .5951335 .50135806 .6242676 .5148773 .6534017 .5283966 .68440756 .53515627 .71728518 .53515627 .78759768 .53515627 .8300781 .5097402 .84472659 .45890809 .85253909 .43154399 .8515625 .3947296 .8417969 .34846498L.7680664 0H.6767578L.75390627 .36367799C.7610677 .39853923 .7573242 .42248536 .7426758 .43551637 .72802737 .44855754 .7081706 .45507813 .68310549 .45507813 .6486003 .45507813 .6164551 .44350688 .5866699 .42036439 .55688479 .39723207 .5362956 .35861717 .52490237 .30451966L.46044923 0H.37109376L.44335938 .3416748C.45084635 .37719728 .45214845 .4031016 .44726563 .41938783 .4391276 .4438324 .41682945 .4560547 .3803711 .4560547 .34716798 .4560547 .31420899 .44318138 .28149415 .4174347 .2487793 .3916982 .22526042 .34509788 .2109375 .27763368L.15234375 0H.064453128L.17529297 .5234375Z"/>
<path id="font_4_9" d="M.5629883 .44125367C.57503256 .4148458 .5802409 .3840332 .5786133 .34881593 .5789388 .32468669 .57340499 .2862142 .5620117 .23339844H.17871094C.16894531 .18033855 .17244466 .13777669 .18920899 .10571289 .20597331 .073649089 .2389323 .057617189 .28808595 .057617189 .33398438 .057617189 .3736979 .072779338 .40722657 .10310364 .4267578 .12070211 .44222007 .14107768 .45361329 .16423035H.54003909C.5335286 .14500427 .521403 .12358093 .5036621 .09996033 .48592124 .07633972 .4674479 .057037355 .4482422 .042053224 .41601563 .015981039 .37923179-.0016174316 .33789063-.0107421879 .3154297-.015950522 .29085288-.018554688 .26416017-.018554688 .19905599-.018554688 .14892578 .0051472985 .11376953 .05255127 .07861328 .09995524 .07014974 .16634114 .088378909 .25170899 .106282558 .33576457 .14355469 .40401713 .20019531 .45646668 .25683595 .5089264 .3219401 .53515627 .3955078 .53515627 .4326172 .53515627 .46679688 .5264333 .49804688 .5089874 .5292969 .49154154 .55094406 .46896363 .5629883 .44125367M.48632813 .30371095C.4908854 .3416748 .48909507 .37201438 .48095704 .3947296 .46598307 .43691508 .43033854 .4580078 .37402345 .4580078 .33365885 .4580078 .29671226 .44348655 .2631836 .41444398 .22965496 .3854014 .20719402 .3484904 .19580078 .30371095H.48632813Z"/>
<path id="font_4_8" d="M.28222657 .05859375C.32291667 .05859375 .36002604 .076044719 .3935547 .110946658 .42708335 .14585877 .45084635 .19594829 .46484376 .2612152 .47884117 .32713319 .4757487 .37592063 .4555664 .4075775 .43538413 .4392446 .4054362 .45507813 .36572267 .45507813 .3214518 .45507813 .28198243 .43819175 .24731446 .40441896 .21264649 .37064616 .1883138 .32096354 .1743164 .2553711 .16227214 .19952393 .16414388 .15276592 .17993164 .115097049 .1957194 .077428188 .2298177 .05859375 .28222657 .05859375M.46044923 .50683596C.4741211 .4970703 .48828126 .47998048 .5029297 .4555664L.55908206 .71972659H.6435547L.49072267 0H.4116211L.4267578 .072753909C.39941407 .040527345 .37019859 .017252604 .33911134 .0029296876 .30802409-.0113932299 .27441407-.018554688 .23828125-.018554688 .18001302-.018554688 .13476563 .0059407555 .10253906 .05493164 .0703125 .10392252 .06298828 .16910808 .080566409 .25048829 .09651693 .32666017 .12988281 .39265953 .18066406 .44848634 .23144531 .5043132 .29296876 .53222659 .36523438 .53222659 .40527345 .53222659 .43701173 .523763 .46044923 .50683596Z"/>
<path id="font_4_1" d="M0 0Z"/>
<path id="font_4_16" d="M.17773438 .5234375H.26123048L.2421875 .43301393C.25260417 .4506124 .2738444 .47203575 .3059082 .49728395 .33797203 .52253219 .37141929 .53515627 .40625 .53515627 .4078776 .53515627 .41064454 .5349579 .41455079 .53456118 .41845704 .5341746 .42496745 .5333964 .43408204 .53222659L.41455079 .4399414C.40934245 .44091798 .4046224 .441569 .40039063 .44189454 .39615885 .44222007 .3914388 .4423828 .38623048 .4423828 .34195964 .4423828 .30493165 .428126 .27514649 .39961244 .24536133 .37109886 .22639974 .338267 .21826172 .30111695L.15478516 0H.06689453L.17773438 .5234375Z"/>
<path id="font_4_15" d="M.4814453 .26976014C.49186198 .31852723 .49251304 .35819499 .48339845 .38876344 .46875 .4368795 .43115235 .4609375 .37060548 .4609375 .31689454 .4609375 .2735189 .4404551 .24047852 .39949037 .20743816 .3585256 .18473308 .30910746 .17236328 .25123597 .16064453 .19563294 .16300456 .14929708 .17944336 .11222839 .19588216 .07516988 .23063152 .056640626 .2836914 .056640626 .34195964 .056640626 .38663737 .07866923 .4177246 .12272644 .44881187 .16678365 .4700521 .21579488 .4814453 .26976014M.57373049 .27223207C.55582687 .18784078 .5205078 .1181132 .46777345 .06304932 .41503907 .0079956059 .34554038-.01953125 .25927735-.01953125 .18733724-.01953125 .13541667 .0048217775 .103515628 .053527833 .071614589 .10223389 .06429037 .16763814 .08154297 .2497406 .10042318 .33771263 .13769531 .40776063 .19335938 .45988465 .24902344 .51201888 .31445313 .53808596 .38964845 .53808596 .45703126 .53808596 .509196 .5156047 .5461426 .4706421 .5830892 .42567954 .59228518 .35954286 .57373049 .27223207Z"/>
<path id="font_4_18" d="M.2241211 .6689453H.31298829L.28173829 .5234375H.36523438L.35009767 .45117188H.26660157L.19384766 .10948181C.1899414 .0912323 .19352214 .07901001 .20458985 .07281494 .21077474 .069234218 .22184246 .06744385 .23779297 .06744385 .24202474 .06744385 .24658203 .06752523 .25146485 .06768799 .25634767 .067850749 .26220704 .06825765 .26904298 .06890869L.25439454-.00048828127C.24365235-.0034179688 .23266602-.005533854 .22143555-.0068359377 .21020508-.0081380209 .19824219-.0087890629 .18554688-.0087890629 .14453125-.0087890629 .118896488 .0017191569 .10864258 .022735596 .09838867 .043752035 .096842449 .07104492 .104003909 .10461426L.17773438 .45117188H.106933597L.12207031 .5234375H.1928711L.2241211 .6689453Z"/>
<path id="font_5_1" d="M0 0Z"/>
<path id="font_2_25" d="M.28515626 .057617189C.32617188 .057617189 .36027018 .07486979 .38745118 .109375 .41463218 .14389038 .42822267 .1954956 .42822267 .26419068 .42822267 .3060608 .42220054 .34204103 .41015626 .37213136 .38736979 .43003337 .34570313 .45898438 .28515626 .45898438 .22428386 .45898438 .18261719 .42840068 .16015625 .36723329 .14811199 .33451844 .14208985 .29297386 .14208985 .24259949 .14208985 .20204163 .14811199 .16753133 .16015625 .1390686 .1829427 .08476766 .22460938 .057617189 .28515626 .057617189M.057617189 .5205078H.1430664V.45162965C.16064453 .47540284 .17985027 .49379985 .2006836 .5068207 .23030599 .5263621 .26513673 .5361328 .30517579 .5361328 .36442057 .5361328 .41471354 .5133667 .4560547 .46783448 .49739585 .42230226 .5180664 .3572693 .5180664 .2727356 .5180664 .1585083 .48828126 .07691447 .42871095 .027954102 .39095054-.0030517579 .34700523-.018554688 .296875-.018554688 .25748698-.018554688 .22444661-.009984334 .1977539 .007156372 .1821289 .016860962 .16471355 .033518476 .14550781 .057128908V-.20898438H.057617189V.5205078Z"/>
<path id="font_2_6" d="M.25976563-.018554688C.17708333-.018554688 .11710612 .004196167 .079833988 .049697877 .042561849 .095209758 .023925782 .15058391 .023925782 .21582031H.115722659C.119628909 .1704305 .12809246 .13744609 .14111328 .116867069 .16389974 .07997131 .20507813 .061523439 .26464845 .061523439 .3108724 .061523439 .34798179 .07389323 .37597657 .09863281 .40397135 .1233724 .41796876 .15527344 .41796876 .19433594 .41796876 .24251302 .40323893 .27620445 .3737793 .29541017 .34431968 .31461589 .3033854 .32421876 .25097657 .32421876 .24511719 .32421876 .23917644 .32413737 .2331543 .3239746 .22713216 .32381187 .22102864 .32356773 .21484375 .3232422V.4013672C.22395833 .40019737 .23160808 .39941407 .23779297 .39901734 .24397786 .39863078 .25065104 .3984375 .2578125 .3984375 .2906901 .3984375 .31770835 .40363566 .3388672 .41403199 .37597657 .43222047 .39453126 .46470133 .39453126 .5114746 .39453126 .54622396 .38216148 .5730184 .35742188 .5918579 .33268229 .61069747 .3038737 .6201172 .2709961 .6201172 .21240235 .6201172 .171875 .6007131 .14941406 .5619049 .13704427 .5405629 .13004558 .51016238 .12841797 .47070313H.041503908C.041503908 .5225627 .051920576 .5666453 .072753909 .60295107 .108561199 .6677806 .17154949 .7001953 .26171876 .7001953 .3330078 .7001953 .3881836 .6843465 .4272461 .6526489 .4663086 .6209615 .48583985 .5750529 .48583985 .5149231 .48583985 .47201539 .47428385 .4372355 .45117188 .4105835 .43684898 .39401246 .41829429 .38101197 .3955078 .37158204 .43229167 .36149089 .4610189 .34204103 .48168946 .31323243 .50236007 .28442384 .5126953 .2491862 .5126953 .20751953 .5126953 .14078777 .49072267 .08642578 .44677735 .044433595 .40283204 .0024414063 .34049479-.018554688 .25976563-.018554688Z"/>
<path id="font_2_8" d="M.29248048 .70214846C.37060548 .70214846 .42504884 .6818288 .45581056 .6411896 .48657228 .6005605 .5019531 .5587056 .5019531 .515625H.41503907C.40983073 .5434163 .40152995 .5651601 .39013673 .5808563 .36897788 .61028549 .33691407 .625 .2939453 .625 .24479167 .625 .20572917 .60224917 .17675781 .55674746 .14778646 .5112559 .13167317 .44611613 .12841797 .36132813 .14860027 .39095054 .17399089 .41308595 .20458985 .42773438 .23258464 .44075523 .26383464 .44726563 .29833985 .44726563 .3569336 .44726563 .40804038 .4285482 .45166017 .39111329 .49527995 .35367839 .51708987 .29785157 .51708987 .22363281 .51708987 .16015625 .49641929 .10392252 .45507813 .05493164 .41373698 .0059407555 .35481773-.018554688 .2783203-.018554688 .21289063-.018554688 .15641277 .0062815349 .10888672 .05595398 .061360677 .1056366 .037597658 .18927002 .037597658 .30685426 .037597658 .39382936 .048177083 .4676107 .06933594 .52819827 .11002604 .64416506 .18440755 .70214846 .29248048 .70214846M.2861328 .059570314C.33235679 .059570314 .36694337 .07511393 .38989259 .10620117 .4128418 .1372884 .4243164 .17399089 .4243164 .2163086 .4243164 .25211589 .4140625 .2862142 .3935547 .31860353 .37304688 .35099284 .33577476 .3671875 .28173829 .3671875 .24397786 .3671875 .21085613 .35465495 .18237305 .32958985 .15388997 .30452476 .13964844 .2667643 .13964844 .2163086 .13964844 .17203777 .15258789 .134847 .1784668 .10473633 .2043457 .07462565 .24023438 .059570314 .2861328 .059570314Z"/>
<path id="font_2_1" d="M0 0Z"/>
<path id="font_2_33" d="M.025390625 .06976318 .33544923 .44433595H.048339845V.5234375H.45361329V.45121766L.14550781 .07910156H.46289063V0H.025390625V.06976318M.25146485 .5361328V.5361328Z"/>
<path id="font_2_23" d="M.064453128 .5234375H.14794922V.44921876C.1726888 .47981773 .19889324 .50179037 .2265625 .5151367 .25423179 .5284831 .2849935 .53515627 .31884767 .53515627 .3930664 .53515627 .44319663 .5092519 .46923829 .45744325 .4835612 .42910258 .49072267 .38853965 .49072267 .3357544V0H.4013672V.3299408C.4013672 .36188255 .39664714 .38762919 .38720704 .4071808 .37158204 .4397634 .34326173 .4560547 .3022461 .4560547 .28141276 .4560547 .2643229 .4539388 .25097657 .44970704 .22688802 .4425354 .20572917 .42819724 .1875 .4066925 .17285156 .38941957 .16333008 .37157694 .15893555 .35316468 .15454102 .3347524 .15234375 .30844117 .15234375 .27423097V0H.064453128V.5234375M.2709961 .5361328V.5361328Z"/>
<path id="font_2_11" d="M.1328125 .16992188C.13541667 .12141927 .15413411 .087890628 .18896485 .06933594 .20686849 .059570314 .22705078 .0546875 .24951172 .0546875 .2915039 .0546875 .3273112 .07218424 .3569336 .107177738 .386556 .14217122 .4075521 .21321106 .41992188 .32029725 .40039063 .28938294 .3762207 .26765953 .3474121 .25512696 .31860353 .2425944 .28759767 .23632813 .25439454 .23632813 .18701172 .23632813 .13370769 .25727845 .09448242 .29917909 .05525716 .34108988 .03564453 .39501444 .03564453 .46095277 .03564453 .52429708 .05501302 .5800069 .09375 .6280823 .13248699 .67615768 .18961589 .7001953 .26513673 .7001953 .36702476 .7001953 .43733726 .6543579 .47607423 .5626831 .4975586 .5122986 .5083008 .449234 .5083008 .37348939 .5083008 .28799949 .49544273 .21225484 .46972657 .1462555 .42708335 .03638204 .35481773-.018554688 .2529297-.018554688 .18457031-.018554688 .13264974-.0006510417 .09716797 .03515625 .0616862 .07096354 .043945314 .115885417 .043945314 .16992188H.1328125M.26611329 .31347657C.300944 .31347657 .33276368 .32491557 .36157228 .34779359 .39038087 .3706716 .40478517 .4106649 .40478517 .46777345 .40478517 .51904299 .3918457 .557251 .3659668 .58239749 .3400879 .60754397 .3071289 .6201172 .26708985 .6201172 .2241211 .6201172 .19002278 .60575869 .16479492 .5770416 .13956706 .5483246 .12695313 .5099538 .12695313 .46192933 .12695313 .4164988 .13802083 .38039653 .16015625 .35362245 .18229167 .32685853 .21761067 .31347657 .26611329 .31347657Z"/>
<path id="font_4_3" d="M.23779297 .71777346H.73535159L.7163086 .6298828H.31591798L.27001954 .41210938H.6220703L.6035156 .32617188H.25146485L.18261719 0H.08544922L.23779297 .71777346Z"/>
<path id="font_4_11" d="M.17480469 .5205078H.26416017L.1538086 0H.064453128L.17480469 .5205078M.21679688 .71777346H.30615235L.28466798 .61816409H.1953125L.21679688 .71777346Z"/>
<path id="font_4_17" d="M.15136719 .1640625C.14778646 .13463338 .15039063 .11207072 .15917969 .09637451 .1751302 .06793213 .21044922 .053710939 .26513673 .053710939 .2976888 .053710939 .32788087 .060806276 .3557129 .07499695 .38354493 .08918762 .40055339 .11112467 .40673829 .1408081 .4116211 .16330974 .40527345 .1804301 .3876953 .19216919 .3766276 .199351 .35335288 .20767212 .3178711 .21713257L.25195313 .23474121C.20963542 .24582927 .17936199 .2582245 .16113281 .27192689 .1282552 .29574076 .116373699 .32868449 .12548828 .37075807 .13590496 .42033897 .16219075 .46045939 .2043457 .49111939 .24650066 .52177938 .2976888 .5371094 .35791017 .5371094 .4366862 .5371094 .48860679 .5139974 .5136719 .46777345 .5292969 .43847657 .5332031 .40690104 .5253906 .37304688H.4423828C.44498698 .39290367 .44173179 .41097007 .4326172 .4272461 .41731773 .45035807 .38476563 .46191407 .33496095 .46191407 .3017578 .46191407 .27530924 .45555116 .25561524 .44282533 .23592122 .43010966 .22379558 .41331483 .21923828 .3924408 .21435547 .36960349 .22167969 .3513387 .24121094 .33764649 .25260417 .32948814 .27034507 .3223114 .2944336 .31611634L.34960938 .30192567C.40950523 .28659568 .44873048 .27175395 .46728517 .2574005 .49658204 .23488872 .50602218 .19949849 .49560548 .15122986 .48583985 .10458883 .4597168 .064305629 .41723634 .030380249 .37475587-.0035451253 .3173828-.020507813 .24511719-.020507813 .1673177-.020507813 .1159668-.002802531 .09106445 .032608034 .06616211 .06801859 .05810547 .111836757 .06689453 .1640625H.15136719Z"/>
<path id="font_4_2" d="M.10986328 .32421876H.35498048L.3359375 .23339844H.09082031L.10986328 .32421876Z"/>
<path id="font_4_12" d="M.21923828 .71777346H.3071289L.15478516 0H.06689453L.21923828 .71777346Z"/>
<path id="font_4_20" d="M.21826172 .5234375 .26757813 .09725952 .50390627 .5234375H.60009768L.2919922 0H.19824219L.11621094 .5234375H.21826172Z"/>
<path id="font_4_4" d="M.18847656 .23095703C.18229167 .19026692 .18489583 .15722656 .19628906 .13183594 .21842449 .0843099 .27018229 .060546876 .3515625 .060546876 .38802085 .060546876 .42236329 .06576029 .45458985 .076187137 .51676437 .0963796 .55338546 .13253784 .5644531 .18466187 .5729167 .22375489 .56656906 .25160728 .54541018 .268219 .5242513 .28450523 .48860679 .29867555 .43847657 .31072999L.34570313 .3327179C.28548179 .347051 .24397786 .3628489 .2211914 .3801117 .1821289 .41007997 .16894531 .45487467 .18164063 .51449587 .1953125 .5789897 .22884114 .6319224 .28222657 .67329409 .33561198 .7146657 .40315757 .73535159 .48486329 .73535159 .5600586 .73535159 .6200358 .7172038 .6647949 .6809082 .709554 .6446126 .72347006 .58658859 .70654299 .50683596H.6152344C.61848959 .5452474 .6144206 .57470706 .60302737 .59521487 .58121749 .6326497 .53483077 .6513672 .4638672 .6513672 .40657554 .6513672 .36287437 .63931277 .33276368 .61520388 .30265299 .59110519 .2841797 .56309 .27734376 .53115847 .26985679 .49598185 .27897135 .47025047 .3046875 .45396424 .3216146 .44353739 .3623047 .43050639 .4267578 .41487123L.52246096 .39190675C.5686849 .38082887 .60286459 .36567689 .625 .3464508 .663737 .31290183 .67626956 .26420594 .66259768 .20036316 .6456706 .12087504 .60465499 .06402588 .5395508 .029815674 .47444663-.004384359 .40364585-.021484375 .32714845-.021484375 .23795574-.021484375 .17301433 .0013020834 .13232422 .046875 .09163412 .0921224 .07991537 .15348308 .09716797 .23095703H.18847656Z"/>
<path id="font_4_7" d="M.55029299 .3466797H.46484376C.46647135 .37890626 .46028648 .40568034 .44628907 .42700196 .43229167 .44832359 .40478517 .45898438 .36376954 .45898438 .30777995 .45898438 .2618815 .43164063 .22607422 .37695313 .20296224 .34147135 .18587239 .2976888 .17480469 .24560547 .16341146 .19319661 .16503906 .14908855 .1796875 .11328125 .19433594 .07747396 .22542317 .059570314 .27294923 .059570314 .30940757 .059570314 .34065757 .0707194 .36669923 .09301758 .39274089 .11531576 .41389976 .14583333 .43017579 .18457031H.515625C.49121095 .115234378 .4560547 .06453451 .41015626 .032470704 .3642578 .00040690104 .3108724-.015625 .25-.015625 .18164063-.015625 .1324056 .009379069 .10229492 .059387208 .07218424 .10940552 .065104167 .17188008 .08105469 .24681092 .10058594 .33868919 .13810222 .41020204 .19360352 .4613495 .24910482 .51250717 .3113607 .53808596 .3803711 .53808596 .43929038 .53808596 .48413087 .5237274 .5148926 .49501039 .5456543 .46629334 .5574544 .41684977 .55029299 .3466797Z"/>
<path id="font_4_5" d="M.7504883 .71777346 .7324219 .63183596H.49072267L.3564453 0H.2578125L.39208985 .63183596H.15039063L.16845703 .71777346H.7504883Z"/>
<path id="font_4_10" d="M.21728516 .71972659H.30517579L.24804688 .45214845C.2747396 .4786682 .29752604 .4973297 .31640626 .50813296 .3486328 .5267995 .38590495 .5361328 .42822267 .5361328 .50406906 .5361328 .5498047 .50957748 .5654297 .45646668 .57389327 .42747499 .5727539 .38723756 .5620117 .3357544L.49072267 0H.40039063L.47021485 .32958985C.47835288 .3680013 .4794922 .39615885 .4736328 .4140625 .46354167 .44270835 .43652345 .45703126 .39257813 .45703126 .35611979 .45703126 .32047526 .4444987 .28564454 .4194336 .2508138 .3943685 .22591146 .34700523 .2109375 .27734376L.15234375 0H.064453128L.21728516 .71972659Z"/>
</defs>
<g clip-path="url(#clip_0)">
<g clip-path="url(#clip_1)">
<path transform="matrix(1,0,0,-1,0,540)" d="M0 539.9999H719.9999V.00003079383H0Z" fill="#ffffff" fill-rule="evenodd"/>
<use data-text="m" xlink:href="#font_2_22" transform="matrix(16,0,0,-16,84.32424,85.275089)"/>
<use data-text="i" xlink:href="#font_2_19" transform="matrix(16,0,0,-16,97.652248,85.275089)"/>
<use data-text="l" xlink:href="#font_2_21" transform="matrix(16,0,0,-16,101.20744,85.275089)"/>
<use data-text="&#xfffd;" xlink:href="#font_3_1" transform="matrix(16,0,0,-16,104.76264,85.275089)"/>
<path transform="matrix(.00007874014,0,0,-.00007874014,94.87503,65.62509)" stroke-width="12700" stroke-linecap="butt" stroke-linejoin="round" fill="none" stroke="#000000" d="M-.05212396-.2362062 1476375 592137.8"/>
<use data-text="e" xlink:href="#font_2_16" transform="matrix(16,0,0,-16,157.3242,85.275089)"/>
<use data-text="d" xlink:href="#font_2_15" transform="matrix(16,0,0,-16,166.2234,85.275089)"/>
<use data-text="u" xlink:href="#font_2_29" transform="matrix(16,0,0,-16,175.1226,85.275089)"/>
<use data-text="&#xfffd;" xlink:href="#font_3_1" transform="matrix(16,0,0,-16,184.0218,85.275089)"/>
<use data-text="g" xlink:href="#font_2_17" transform="matrix(16,0,0,-16,233.8242,85.275089)"/>
<use data-text="o" xlink:href="#font_2_24" transform="matrix(16,0,0,-16,242.7234,85.275089)"/>
<use data-text="v" xlink:href="#font_2_30" transform="matrix(16,0,0,-16,251.6226,85.275089)"/>
<use data-text="&#xfffd;" xlink:href="#font_3_1" transform="matrix(16,0,0,-16,259.62263,85.275089)"/>
<use data-text="c" xlink:href="#font_2_14" transform="matrix(16,0,0,-16,307.4492,85.275089)"/>
<use data-text="o" xlink:href="#font_2_24" transform="matrix(16,0,0,-16,315.4492,85.275089)"/>
<use data-text="m" xlink:href="#font_2_22" transform="matrix(16,0,0,-16,324.3484,85.275089)"/>
<use data-text="&#xfffd;" xlink:href="#font_3_1" transform="matrix(16,0,0,-16,337.6764,85.275089)"/>
<path transform="matrix(.00007874014,0,0,-.00007874014,178.75,65.62509)" stroke-width="12700" stroke-linecap="butt" stroke-linejoin="round" fill="none" stroke="#000000" d="M-.03845221-.2362062 411162.9 592137.8"/>
<path transform="matrix(-.00007874014,-0,0,-.00007874014,244.625,65.62509)" stroke-width="12700" stroke-linecap="butt" stroke-linejoin="round" fill="none" stroke="#000000" d="M.0222168-.2362062 425450.1 592137.8"/>
<path transform="matrix(.00007874014,0,0,.00007874014,211.125,19.000123)" stroke-width="12700" stroke-linecap="butt" stroke-linejoin="round" fill="none" stroke="#000000" d="M-.1438598 .2575685 1363662 604838.2"/>
<use data-text="c" xlink:href="#font_2_14" transform="matrix(16,0,0,-16,154.6992,158.40009)"/>
<use data-text="m" xlink:href="#font_2_22" transform="matrix(16,0,0,-16,162.6992,158.40009)"/>
<use data-text="u" xlink:href="#font_2_29" transform="matrix(16,0,0,-16,176.0272,158.40009)"/>
<use data-text="&#xfffd;" xlink:href="#font_3_1" transform="matrix(16,0,0,-16,184.9264,158.40009)"/>
<use data-text="b" xlink:href="#font_2_13" transform="matrix(16,0,0,-16,222.8242,158.40009)"/>
<use data-text="e" xlink:href="#font_2_16" transform="matrix(16,0,0,-16,231.7234,158.40009)"/>
<use data-text="r" xlink:href="#font_2_26" transform="matrix(16,0,0,-16,240.6226,158.40009)"/>
<use data-text="k" xlink:href="#font_2_20" transform="matrix(16,0,0,-16,245.9506,158.40009)"/>
<use data-text="e" xlink:href="#font_2_16" transform="matrix(16,0,0,-16,253.9506,158.40009)"/>
<use data-text="l" xlink:href="#font_2_21" transform="matrix(16,0,0,-16,262.8498,158.40009)"/>
<use data-text="e" xlink:href="#font_2_16" transform="matrix(16,0,0,-16,266.405,158.40009)"/>
<use data-text="y" xlink:href="#font_2_32" transform="matrix(16,0,0,-16,275.3042,158.40009)"/>
<use data-text="&#xfffd;" xlink:href="#font_3_1" transform="matrix(16,0,0,-16,283.3042,158.40009)"/>
<use data-text="m" xlink:href="#font_2_22" transform="matrix(16,0,0,-16,92.1992,158.40009)"/>
<use data-text="i" xlink:href="#font_2_19" transform="matrix(16,0,0,-16,105.52721,158.40009)"/>
<use data-text="t" xlink:href="#font_2_28" transform="matrix(16,0,0,-16,109.082408,158.40009)"/>
<use data-text="&#xfffd;" xlink:href="#font_3_1" transform="matrix(16,0,0,-16,113.52721,158.40009)"/>
<path transform="matrix(.00007874014,0,0,.00007874014,172.75,92.12509)" stroke-width="12700" stroke-linecap="butt" stroke-linejoin="round" fill="none" stroke="#000000" d="M-.1063843 .287964 .8625489 592137.1"/>
<use data-text="c" xlink:href="#font_2_14" transform="matrix(16,0,0,-16,104.0742,231.52509)"/>
<use data-text="s" xlink:href="#font_2_27" transform="matrix(16,0,0,-16,112.0742,231.52509)"/>
<use data-text="&#xfffd;" xlink:href="#font_3_1" transform="matrix(16,0,0,-16,120.0742,231.52509)"/>
<use data-text="e" xlink:href="#font_2_16" transform="matrix(16,0,0,-16,221.6992,231.52509)"/>
<use data-text="c" xlink:href="#font_2_14" transform="matrix(16,0,0,-16,230.5984,231.52509)"/>
<use data-text="e" xlink:href="#font_2_16" transform="matrix(16,0,0,-16,238.5984,231.52509)"/>
<use data-text="&#xfffd;" xlink:href="#font_3_1" transform="matrix(16,0,0,-16,247.4976,231.52509)"/>
<path transform="matrix(.00007874014,0,0,.00007874014,172.75,165.25)" stroke-width="12700" stroke-linecap="butt" stroke-linejoin="round" fill="none" stroke="#000000" d="M-.1063843 .1556397 668337.9 592138.1"/>
<path transform="matrix(-.00007874014,-0,0,.00007874014,111.875,238.37509)" stroke-width="12700" stroke-linecap="butt" stroke-linejoin="round" fill="none" stroke="#000000" d="M-.009185836 .1860353 658813 630237.2"/>
<use data-text="w" xlink:href="#font_2_31" transform="matrix(16,0,0,-16,14.53992,377.62513)"/>
<use data-text="h" xlink:href="#font_2_18" transform="matrix(16,0,0,-16,26.09512,377.62513)"/>
<use data-text="a" xlink:href="#font_2_12" transform="matrix(16,0,0,-16,34.994325,377.62513)"/>
<use data-text="l" xlink:href="#font_2_21" transform="matrix(16,0,0,-16,43.893526,377.62513)"/>
<use data-text="e" xlink:href="#font_2_16" transform="matrix(16,0,0,-16,47.448728,377.62513)"/>
<use data-text="s" xlink:href="#font_2_27" transform="matrix(16,0,0,-16,56.347929,377.62513)"/>
<use data-text="h" xlink:href="#font_2_18" transform="matrix(16,0,0,-16,64.34792,377.62513)"/>
<use data-text="a" xlink:href="#font_2_12" transform="matrix(16,0,0,-16,73.24712,377.62513)"/>
<use data-text="r" xlink:href="#font_2_26" transform="matrix(16,0,0,-16,82.146327,377.62513)"/>
<use data-text="k" xlink:href="#font_2_20" transform="matrix(16,0,0,-16,87.47433,377.62513)"/>
<use data-text="&#xfffd;" xlink:href="#font_3_1" transform="matrix(16,0,0,-16,95.469608,377.62513)"/>
<use data-text="1" xlink:href="#font_2_4" transform="matrix(14,0,0,-14,9.53992,394.62513)"/>
<use data-text="2" xlink:href="#font_2_5" transform="matrix(14,0,0,-14,17.326722,394.62513)"/>
<use data-text="8" xlink:href="#font_2_10" transform="matrix(14,0,0,-14,25.113522,394.62513)"/>
<use data-text="." xlink:href="#font_2_2" transform="matrix(14,0,0,-14,32.900323,394.62513)"/>
<use data-text="2" xlink:href="#font_2_5" transform="matrix(14,0,0,-14,36.79512,394.62513)"/>
<use data-text="." xlink:href="#font_2_2" transform="matrix(14,0,0,-14,44.58192,394.62513)"/>
<use data-text="2" xlink:href="#font_2_5" transform="matrix(14,0,0,-14,48.476724,394.62513)"/>
<use data-text="1" xlink:href="#font_2_4" transform="matrix(14,0,0,-14,56.263525,394.62513)"/>
<use data-text="0" xlink:href="#font_2_3" transform="matrix(14,0,0,-14,64.05032,394.62513)"/>
<use data-text="." xlink:href="#font_2_2" transform="matrix(14,0,0,-14,71.83712,394.62513)"/>
<use data-text="1" xlink:href="#font_2_4" transform="matrix(14,0,0,-14,75.73192,394.62513)"/>
<use data-text="7" xlink:href="#font_2_9" transform="matrix(14,0,0,-14,83.51872,394.62513)"/>
<use data-text="5" xlink:href="#font_2_7" transform="matrix(14,0,0,-14,91.30553,394.62513)"/>
<use data-text="&#xfffd;" xlink:href="#font_3_1" transform="matrix(14,0,0,-14,99.09233,394.62513)"/>
<path transform="matrix(.00007874014,0,0,-.00007874014,118.375,138.75)" stroke-width="12700" stroke-linecap="butt" stroke-linejoin="round" fill="none" stroke="#000000" d="M.02188115-.1038819 693736.9 619125"/>
<path transform="matrix(.00007874014,0,0,.00007874014,173,90.00009)" stroke-width="12700" stroke-linecap="butt" stroke-linejoin="round" fill="none" stroke="#000000" d="M-.04968268-.1037596 665162.9 619125"/>
<path transform="matrix(.00007874014,0,0,-.00007874014,118.375,211.87509)" stroke-width="12700" stroke-linecap="butt" stroke-linejoin="round" fill="none" stroke="#000000" d="M.02188115-.1342775 690561.9 592137.9"/>
<use data-text="i" xlink:href="#font_2_19" transform="matrix(16,0,0,-16,44.7696,304.65)"/>
<use data-text="c" xlink:href="#font_2_14" transform="matrix(16,0,0,-16,48.3248,304.65)"/>
<use data-text="s" xlink:href="#font_2_27" transform="matrix(16,0,0,-16,56.3248,304.65)"/>
<use data-text="&#xfffd;" xlink:href="#font_3_1" transform="matrix(16,0,0,-16,64.32429,304.65)"/>
<path transform="matrix(.00007874014,0,0,.00007874014,53.37503,311.5)" stroke-width="12700" stroke-linecap="butt" stroke-linejoin="round" fill="none" stroke="#000000" d="M-.008178651-.002502412 1.009201 592138"/>
<use data-text="u" xlink:href="#font_4_19" transform="matrix(16,0,0,-16,163.0742,12.400085)"/>
<use data-text="n" xlink:href="#font_4_14" transform="matrix(16,0,0,-16,171.9734,12.400085)"/>
<use data-text="n" xlink:href="#font_4_14" transform="matrix(16,0,0,-16,180.8726,12.400085)"/>
<use data-text="a" xlink:href="#font_4_6" transform="matrix(16,0,0,-16,189.7718,12.400085)"/>
<use data-text="m" xlink:href="#font_4_13" transform="matrix(16,0,0,-16,198.671,12.400085)"/>
<use data-text="e" xlink:href="#font_4_9" transform="matrix(16,0,0,-16,211.99901,12.400085)"/>
<use data-text="d" xlink:href="#font_4_8" transform="matrix(16,0,0,-16,220.89821,12.400085)"/>
<use data-text=" " xlink:href="#font_4_1" transform="matrix(16,0,0,-16,229.79741,12.400085)"/>
<use data-text="r" xlink:href="#font_4_16" transform="matrix(16,0,0,-16,234.24222,12.400085)"/>
<use data-text="o" xlink:href="#font_4_15" transform="matrix(16,0,0,-16,239.57022,12.400085)"/>
<use data-text="o" xlink:href="#font_4_15" transform="matrix(16,0,0,-16,248.46942,12.400085)"/>
<use data-text="t" xlink:href="#font_4_18" transform="matrix(16,0,0,-16,257.36863,12.400085)"/>
<use data-text="&#xfffd;" xlink:href="#font_5_1" transform="matrix(16,0,0,-16,261.81343,12.400085)"/>
<path transform="matrix(.00007874014,0,0,.00007874014,117.875,238.37509)" stroke-width="12700" stroke-linecap="butt" stroke-linejoin="round" fill="none" stroke="#000000" d="M.02090459 .1860353 592136.9 592137.2"/>
<use data-text="p" xlink:href="#font_2_25" transform="matrix(16,0,0,-16,162.8242,304.65)"/>
<use data-text="d" xlink:href="#font_2_15" transform="matrix(16,0,0,-16,171.7234,304.65)"/>
<use data-text="l" xlink:href="#font_2_21" transform="matrix(16,0,0,-16,180.6226,304.65)"/>
<use data-text="&#xfffd;" xlink:href="#font_3_1" transform="matrix(16,0,0,-16,184.17781,304.65)"/>
<path transform="matrix(.00007874014,0,0,.00007874014,174.5,312.5)" stroke-width="12700" stroke-linecap="butt" stroke-linejoin="round" fill="none" stroke="#000000" d="M-.1029663-.0005492866 12699.9 604838"/>
<use data-text="w" xlink:href="#font_2_31" transform="matrix(16,0,0,-16,159.4044,377.62513)"/>
<use data-text="w" xlink:href="#font_2_31" transform="matrix(16,0,0,-16,170.95961,377.62513)"/>
<use data-text="w" xlink:href="#font_2_31" transform="matrix(16,0,0,-16,182.5148,377.62513)"/>
<use data-text="&#xfffd;" xlink:href="#font_3_1" transform="matrix(16,0,0,-16,194.07,377.62513)"/>
<use data-text="1" xlink:href="#font_2_4" transform="matrix(14,0,0,-14,135.4044,394.62513)"/>
<use data-text="2" xlink:href="#font_2_5" transform="matrix(14,0,0,-14,143.19121,394.62513)"/>
<use data-text="8" xlink:href="#font_2_10" transform="matrix(14,0,0,-14,150.978,394.62513)"/>
<use data-text="." xlink:href="#font_2_2" transform="matrix(14,0,0,-14,158.7648,394.62513)"/>
<use data-text="2" xlink:href="#font_2_5" transform="matrix(14,0,0,-14,162.6596,394.62513)"/>
<use data-text="." xlink:href="#font_2_2" transform="matrix(14,0,0,-14,170.44641,394.62513)"/>
<use data-text="1" xlink:href="#font_2_4" transform="matrix(14,0,0,-14,174.3412,394.62513)"/>
<use data-text="3" xlink:href="#font_2_6" transform="matrix(14,0,0,-14,182.128,394.62513)"/>
<use data-text="1" xlink:href="#font_2_4" transform="matrix(14,0,0,-14,189.91481,394.62513)"/>
<use data-text="." xlink:href="#font_2_2" transform="matrix(14,0,0,-14,197.7016,394.62513)"/>
<use data-text="6" xlink:href="#font_2_8" transform="matrix(14,0,0,-14,201.5964,394.62513)"/>
<use data-text="6" xlink:href="#font_2_8" transform="matrix(14,0,0,-14,209.38321,394.62513)"/>
<use data-text=" " xlink:href="#font_2_1" transform="matrix(14,0,0,-14,217.17002,394.62513)"/>
<use data-text="&#xfffd;" xlink:href="#font_3_1" transform="matrix(16,0,0,-16,221.0382,394.62513)"/>
<use data-text="a" xlink:href="#font_2_12" transform="matrix(16,0,0,-16,336.4492,159.4)"/>
<use data-text="m" xlink:href="#font_2_22" transform="matrix(16,0,0,-16,345.3484,159.4)"/>
<use data-text="a" xlink:href="#font_2_12" transform="matrix(16,0,0,-16,358.6764,159.4)"/>
<use data-text="z" xlink:href="#font_2_33" transform="matrix(16,0,0,-16,367.5756,159.4)"/>
<use data-text="o" xlink:href="#font_2_24" transform="matrix(16,0,0,-16,375.5756,159.4)"/>
<use data-text="n" xlink:href="#font_2_23" transform="matrix(16,0,0,-16,384.4748,159.4)"/>
<use data-text="&#xfffd;" xlink:href="#font_3_1" transform="matrix(16,0,0,-16,393.374,159.4)"/>
<path transform="matrix(.00007874014,0,0,.00007874014,329.75,90.12509)" stroke-width="12700" stroke-linecap="butt" stroke-linejoin="round" fill="none" stroke="#000000" d="M.006469667 .2840578 406400.1 630237.1"/>
<path transform="matrix(.00007874014,0,0,.00007874014,366.7499,168.12509)" stroke-width="12700" stroke-linecap="butt" stroke-linejoin="round" fill="none" stroke="#000000" d="M-.05883801 .04882824 1.103882 592136.9"/>
<use data-text="w" xlink:href="#font_2_31" transform="matrix(16,0,0,-16,349.0527,232.12509)"/>
<use data-text="w" xlink:href="#font_2_31" transform="matrix(16,0,0,-16,360.6079,232.12509)"/>
<use data-text="w" xlink:href="#font_2_31" transform="matrix(16,0,0,-16,372.16313,232.12509)"/>
<use data-text="&#xfffd;" xlink:href="#font_3_1" transform="matrix(16,0,0,-16,383.71833,232.12509)"/>
<use data-text="1" xlink:href="#font_2_4" transform="matrix(14,0,0,-14,322.0527,249.12509)"/>
<use data-text="7" xlink:href="#font_2_9" transform="matrix(14,0,0,-14,329.8395,249.12509)"/>
<use data-text="6" xlink:href="#font_2_8" transform="matrix(14,0,0,-14,337.6263,249.12509)"/>
<use data-text="." xlink:href="#font_2_2" transform="matrix(14,0,0,-14,345.41313,249.12509)"/>
<use data-text="3" xlink:href="#font_2_6" transform="matrix(14,0,0,-14,349.3079,249.12509)"/>
<use data-text="2" xlink:href="#font_2_5" transform="matrix(14,0,0,-14,357.0947,249.12509)"/>
<use data-text="." xlink:href="#font_2_2" transform="matrix(14,0,0,-14,364.8815,249.12509)"/>
<use data-text="9" xlink:href="#font_2_11" transform="matrix(14,0,0,-14,368.7763,249.12509)"/>
<use data-text="8" xlink:href="#font_2_10" transform="matrix(14,0,0,-14,376.5631,249.12509)"/>
<use data-text="." xlink:href="#font_2_2" transform="matrix(14,0,0,-14,384.3499,249.12509)"/>
<use data-text="1" xlink:href="#font_2_4" transform="matrix(14,0,0,-14,388.2447,249.12509)"/>
<use data-text="6" xlink:href="#font_2_8" transform="matrix(14,0,0,-14,396.0315,249.12509)"/>
<use data-text="6" xlink:href="#font_2_8" transform="matrix(14,0,0,-14,403.8183,249.12509)"/>
<use data-text="&#xfffd;" xlink:href="#font_3_1" transform="matrix(14,0,0,-14,411.6051,249.12509)"/>
<use data-text="F" xlink:href="#font_4_3" transform="matrix(16,0,0,-16,453.575,77.150089)"/>
<use data-text="i" xlink:href="#font_4_11" transform="matrix(16,0,0,-16,463.3478,77.150089)"/>
<use data-text="r" xlink:href="#font_4_16" transform="matrix(16,0,0,-16,466.903,77.150089)"/>
<use data-text="s" xlink:href="#font_4_17" transform="matrix(16,0,0,-16,472.23103,77.150089)"/>
<use data-text="t" xlink:href="#font_4_18" transform="matrix(16,0,0,-16,480.23103,77.150089)"/>
<use data-text="-" xlink:href="#font_4_2" transform="matrix(16,0,0,-16,484.6758,77.150089)"/>
<use data-text="l" xlink:href="#font_4_12" transform="matrix(16,0,0,-16,490.0038,77.150089)"/>
<use data-text="e" xlink:href="#font_4_9" transform="matrix(16,0,0,-16,493.55903,77.150089)"/>
<use data-text="v" xlink:href="#font_4_20" transform="matrix(16,0,0,-16,502.45823,77.150089)"/>
<use data-text="e" xlink:href="#font_4_9" transform="matrix(16,0,0,-16,510.45823,77.150089)"/>
<use data-text="l" xlink:href="#font_4_12" transform="matrix(16,0,0,-16,519.3574,77.150089)"/>
<use data-text=" " xlink:href="#font_4_1" transform="matrix(16,0,0,-16,522.9126,77.150089)"/>
<use data-text="d" xlink:href="#font_4_8" transform="matrix(16,0,0,-16,527.3574,77.150089)"/>
<use data-text="o" xlink:href="#font_4_15" transform="matrix(16,0,0,-16,536.2566,77.150089)"/>
<use data-text="m" xlink:href="#font_4_13" transform="matrix(16,0,0,-16,545.1558,77.150089)"/>
<use data-text="a" xlink:href="#font_4_6" transform="matrix(16,0,0,-16,558.4838,77.150089)"/>
<use data-text="i" xlink:href="#font_4_11" transform="matrix(16,0,0,-16,567.383,77.150089)"/>
<use data-text="n" xlink:href="#font_4_14" transform="matrix(16,0,0,-16,570.93826,77.150089)"/>
<use data-text=" " xlink:href="#font_4_1" transform="matrix(16,0,0,-16,579.8374,77.150089)"/>
<use data-text="n" xlink:href="#font_4_14" transform="matrix(16,0,0,-16,584.2822,77.150089)"/>
<use data-text="a" xlink:href="#font_4_6" transform="matrix(16,0,0,-16,593.1814,77.150089)"/>
<use data-text="m" xlink:href="#font_4_13" transform="matrix(16,0,0,-16,602.0806,77.150089)"/>
<use data-text="e" xlink:href="#font_4_9" transform="matrix(16,0,0,-16,615.4086,77.150089)"/>
<use data-text="s" xlink:href="#font_4_17" transform="matrix(16,0,0,-16,624.3078,77.150089)"/>
<use data-text="&#xfffd;" xlink:href="#font_5_1" transform="matrix(16,0,0,-16,632.3078,77.150089)"/>
<use data-text="S" xlink:href="#font_4_4" transform="matrix(16,0,0,-16,454.95,157.65)"/>
<use data-text="e" xlink:href="#font_4_9" transform="matrix(16,0,0,-16,465.622,157.65)"/>
<use data-text="c" xlink:href="#font_4_7" transform="matrix(16,0,0,-16,474.5212,157.65)"/>
<use data-text="o" xlink:href="#font_4_15" transform="matrix(16,0,0,-16,482.5212,157.65)"/>
<use data-text="n" xlink:href="#font_4_14" transform="matrix(16,0,0,-16,491.4204,157.65)"/>
<use data-text="d" xlink:href="#font_4_8" transform="matrix(16,0,0,-16,500.3196,157.65)"/>
<use data-text="-" xlink:href="#font_4_2" transform="matrix(16,0,0,-16,509.2188,157.65)"/>
<use data-text="l" xlink:href="#font_4_12" transform="matrix(16,0,0,-16,514.5468,157.65)"/>
<use data-text="e" xlink:href="#font_4_9" transform="matrix(16,0,0,-16,518.102,157.65)"/>
<use data-text="v" xlink:href="#font_4_20" transform="matrix(16,0,0,-16,527.0012,157.65)"/>
<use data-text="e" xlink:href="#font_4_9" transform="matrix(16,0,0,-16,535.0012,157.65)"/>
<use data-text="l" xlink:href="#font_4_12" transform="matrix(16,0,0,-16,543.9004,157.65)"/>
<use data-text=" " xlink:href="#font_4_1" transform="matrix(16,0,0,-16,547.4556,157.65)"/>
<use data-text="d" xlink:href="#font_4_8" transform="matrix(16,0,0,-16,551.9004,157.65)"/>
<use data-text="o" xlink:href="#font_4_15" transform="matrix(16,0,0,-16,560.7996,157.65)"/>
<use data-text="m" xlink:href="#font_4_13" transform="matrix(16,0,0,-16,569.6988,157.65)"/>
<use data-text="a" xlink:href="#font_4_6" transform="matrix(16,0,0,-16,583.0268,157.65)"/>
<use data-text="i" xlink:href="#font_4_11" transform="matrix(16,0,0,-16,591.926,157.65)"/>
<use data-text="n" xlink:href="#font_4_14" transform="matrix(16,0,0,-16,595.4812,157.65)"/>
<use data-text=" " xlink:href="#font_4_1" transform="matrix(16,0,0,-16,604.38046,157.65)"/>
<use data-text="n" xlink:href="#font_4_14" transform="matrix(16,0,0,-16,608.8252,157.65)"/>
<use data-text="a" xlink:href="#font_4_6" transform="matrix(16,0,0,-16,617.7244,157.65)"/>
<use data-text="m" xlink:href="#font_4_13" transform="matrix(16,0,0,-16,626.6236,157.65)"/>
<use data-text="e" xlink:href="#font_4_9" transform="matrix(16,0,0,-16,639.9516,157.65)"/>
<use data-text="s" xlink:href="#font_4_17" transform="matrix(16,0,0,-16,648.8508,157.65)"/>
<use data-text="&#xfffd;" xlink:href="#font_5_1" transform="matrix(16,0,0,-16,656.8508,157.65)"/>
<use data-text="T" xlink:href="#font_4_5" transform="matrix(16,0,0,-16,453.575,229.65)"/>
<use data-text="h" xlink:href="#font_4_10" transform="matrix(16,0,0,-16,463.3478,229.65)"/>
<use data-text="i" xlink:href="#font_4_11" transform="matrix(16,0,0,-16,472.247,229.65)"/>
<use data-text="r" xlink:href="#font_4_16" transform="matrix(16,0,0,-16,475.80223,229.65)"/>
<use data-text="d" xlink:href="#font_4_8" transform="matrix(16,0,0,-16,481.13023,229.65)"/>
<use data-text="-" xlink:href="#font_4_2" transform="matrix(16,0,0,-16,490.02943,229.65)"/>
<use data-text="l" xlink:href="#font_4_12" transform="matrix(16,0,0,-16,495.35743,229.65)"/>
<use data-text="e" xlink:href="#font_4_9" transform="matrix(16,0,0,-16,498.91264,229.65)"/>
<use data-text="v" xlink:href="#font_4_20" transform="matrix(16,0,0,-16,507.81184,229.65)"/>
<use data-text="e" xlink:href="#font_4_9" transform="matrix(16,0,0,-16,515.8118,229.65)"/>
<use data-text="l" xlink:href="#font_4_12" transform="matrix(16,0,0,-16,524.711,229.65)"/>
<use data-text=" " xlink:href="#font_4_1" transform="matrix(16,0,0,-16,528.26626,229.65)"/>
<use data-text="d" xlink:href="#font_4_8" transform="matrix(16,0,0,-16,532.711,229.65)"/>
<use data-text="o" xlink:href="#font_4_15" transform="matrix(16,0,0,-16,541.6102,229.65)"/>
<use data-text="m" xlink:href="#font_4_13" transform="matrix(16,0,0,-16,550.5094,229.65)"/>
<use data-text="a" xlink:href="#font_4_6" transform="matrix(16,0,0,-16,563.8374,229.65)"/>
<use data-text="i" xlink:href="#font_4_11" transform="matrix(16,0,0,-16,572.73666,229.65)"/>
<use data-text="n" xlink:href="#font_4_14" transform="matrix(16,0,0,-16,576.2918,229.65)"/>
<use data-text=" " xlink:href="#font_4_1" transform="matrix(16,0,0,-16,585.19107,229.65)"/>
<use data-text="n" xlink:href="#font_4_14" transform="matrix(16,0,0,-16,589.6358,229.65)"/>
<use data-text="a" xlink:href="#font_4_6" transform="matrix(16,0,0,-16,598.53506,229.65)"/>
<use data-text="m" xlink:href="#font_4_13" transform="matrix(16,0,0,-16,607.4342,229.65)"/>
<use data-text="e" xlink:href="#font_4_9" transform="matrix(16,0,0,-16,620.7622,229.65)"/>
<use data-text="s" xlink:href="#font_4_17" transform="matrix(16,0,0,-16,629.66146,229.65)"/>
<use data-text="&#xfffd;" xlink:href="#font_5_1" transform="matrix(16,0,0,-16,637.66146,229.65)"/>
</g>
</g>
</svg>
