<svg xmlns="http://www.w3.org/2000/svg" xmlns:xlink="http://www.w3.org/1999/xlink" version="1.1" width="240.518pt" height="87.95599pt" viewBox="0 0 240.518 87.95599">
<defs>
<clipPath id="clip_0">
<path transform="matrix(1,0,0,-1,0,540)" d="M0 452.044H240.518V540H0Z" fill-rule="evenodd"/>
</clipPath>
<clipPath id="clip_1">
<path transform="matrix(1,0,0,-1,0,540)" d="M0 .00002324581H719.9999V540H0Z"/>
</clipPath>
<path id="font_2_5" d="M.07861328 .71777346H.17675781V.42089845H.5498047V.71777346H.6479492V0H.5498047V.33496095H.17675781V0H.07861328V.71777346Z"/>
<path id="font_2_8" d="M.27197267 .057617189C.33024089 .057617189 .37019859 .07964579 .3918457 .123703 .41349284 .16776021 .4243164 .21677144 .4243164 .2707367 .4243164 .31950379 .4165039 .35917155 .4008789 .38974 .3761393 .43785606 .3334961 .46191407 .27294923 .46191407 .21923828 .46191407 .18017578 .44143168 .15576172 .40046693 .13134766 .35950218 .119140628 .31008403 .119140628 .25221253 .119140628 .1966095 .13134766 .15027364 .15576172 .113204959 .18017578 .076146449 .21891277 .057617189 .27197267 .057617189M.27539063 .53808596C.34277345 .53808596 .3997396 .5156453 .44628907 .47076417 .49283854 .42588298 .5161133 .35985819 .5161133 .27268983 .5161133 .1884613 .49560548 .11886088 .45458985 .06388855 .41357423 .008926392 .3499349-.018554688 .26367188-.018554688 .19173177-.018554688 .13460286 .00575765 .092285159 .054382326 .04996745 .103006999 .028808594 .16829936 .028808594 .2502594 .028808594 .33806864 .05110677 .4079895 .095703128 .46002198 .14029949 .51206466 .20019531 .53808596 .27539063 .53808596M.27246095 .5361328V.5361328Z"/>
<path id="font_2_9" d="M.11669922 .1640625C.11930338 .13463338 .12662761 .11207072 .13867188 .09637451 .1608073 .06793213 .19921875 .053710939 .25390626 .053710939 .28645835 .053710939 .31510417 .060806276 .33984376 .07499695 .36458335 .08919779 .37695313 .11115011 .37695313 .14085388 .37695313 .16337586 .36702476 .18051148 .34716798 .19226074 .33447267 .19944255 .30940757 .20775859 .27197267 .21720886L.20214844 .2348175C.15755208 .24590557 .12467448 .25829569 .103515628 .27198792 .06575521 .29579164 .046875 .32873027 .046875 .37080384 .046875 .42036439 .064697269 .46046958 .1003418 .49111939 .13598633 .52177938 .18391927 .5371094 .24414063 .5371094 .32291667 .5371094 .37972007 .5139974 .41455079 .46777345 .4363607 .43847657 .4469401 .40690104 .44628907 .37304688H.36328126C.36165367 .39269004 .35465495 .41055808 .34228517 .426651 .32210288 .44950868 .28710938 .4609375 .23730469 .4609375 .20410156 .4609375 .17895508 .45461528 .16186524 .44197084 .14477539 .42933656 .13623047 .41264854 .13623047 .39190675 .13623047 .36922203 .14746094 .35107423 .16992188 .33746339 .1829427 .32936607 .20214844 .32221986 .22753906 .31602479L.28564454 .3018341C.34879557 .28650413 .39111329 .27166749 .41259767 .25732423 .44677735 .23482259 .4638672 .19944255 .4638672 .15118408 .4638672 .10455322 .44620768 .06428019 .41088868 .03036499 .37556968-.0035502117 .32177735-.020507813 .24951172-.020507813 .17171224-.020507813 .116617839-.002802531 .084228519 .032608034 .05183919 .06801859 .034505208 .111836757 .032226564 .1640625H.11669922M.24658203 .5361328V.5361328Z"/>
<path id="font_2_10" d="M.08203125 .66796877H.17089844V.5234375H.25439454V.4501953H.17089844V.110183719C.17089844 .09202576 .17708333 .07986959 .18945313 .07371521 .19628906 .07014465 .2076823 .068359378 .22363281 .068359378 .22786458 .068359378 .23242188 .06846619 .23730469 .06867981 .2421875 .0689036 .24788411 .06944784 .25439454 .0703125V0C.24430339-.0031026204 .23380535-.005340576 .22290039-.006713867 .21199544-.008097331 .20019531-.0087890629 .1875-.0087890629 .14648438-.0087890629 .118652347 .0016988119 .104003909 .02267456 .08935547 .04365031 .08203125 .070882167 .08203125 .10437012V.4501953H.011230469V.5234375H.08203125V.66796877Z"/>
<path id="font_3_1" d="M0 0Z"/>
<path id="font_2_11" d="M.15234375 .5234375V.17590332C.15234375 .1491801 .15657552 .12734477 .16503906 .11039734 .18066406 .07911682 .20979817 .06347656 .2524414 .06347656 .3136393 .06347656 .355306 .09085083 .3774414 .14559937 .3894857 .17492676 .3955078 .21516927 .3955078 .2663269V.5234375H.48339845V0H.40039063L.4013672 .0771637C.38997398 .057195028 .3758138 .040339155 .35888673 .02659607 .32535807-.00090026858 .28466798-.0146484379 .2368164-.0146484379 .16227214-.0146484379 .11149088 .010299683 .084472659 .060195924 .06982422 .08693949 .0625 .12265015 .0625 .16732788V.5234375H.15234375M.27294923 .5361328V.5361328Z"/>
<path id="font_2_7" d="M.057617189 .71875H.1430664V.45948792C.16227214 .4847056 .18522136 .50394698 .21191406 .5172119 .23860677 .53047689 .26757813 .5371094 .29882813 .5371094 .36393229 .5371094 .41674806 .5147095 .4572754 .46990968 .49780274 .42510987 .5180664 .35905458 .5180664 .27174378 .5180664 .1889801 .49804688 .12022909 .4580078 .06549072 .41796876 .010762532 .36246745-.016601563 .2915039-.016601563 .25179038-.016601563 .21826172-.006942749 .19091797 .012374878 .17464192 .023839316 .15722656 .042175294 .13867188 .06738281V0H.057617189V.71875M.2861328 .061523439C.33365885 .061523439 .36922203 .08037821 .39282228 .11808777 .41642253 .1558075 .42822267 .20555115 .42822267 .26731874 .42822267 .32227073 .41642253 .3677877 .39282228 .40386964 .36922203 .43996177 .33447267 .4580078 .28857423 .4580078 .24853516 .4580078 .21346028 .44321189 .18334961 .41362 .15323894 .3840383 .1381836 .3352712 .1381836 .26731874 .1381836 .21822612 .14436849 .17840068 .15673828 .1478424 .17985027 .090296428 .22298177 .061523439 .2861328 .061523439Z"/>
<path id="font_2_4" d="M.095703128 .4951172V.5625C.15917969 .5686849 .20345052 .5790202 .22851563 .59350588 .25358073 .6079915 .2722982 .6422526 .28466798 .69628909H.3540039V0H.2602539V.4951172H.095703128Z"/>
<path id="font_2_3" d="M.2705078 .7001953C.3610026 .7001953 .42643229 .66289779 .46679688 .5883026 .49804688 .5306447 .5136719 .45165 .5136719 .35131837 .5136719 .25620524 .49951173 .17754109 .4711914 .11532593 .43017579 .026072184 .3631185-.018554688 .27001954-.018554688 .18603516-.018554688 .123535159 .017929078 .08251953 .09089661 .048339845 .15180969 .03125 .23357137 .03125 .33618165 .03125 .41565959 .041503908 .48390199 .06201172 .5409088 .10042318 .6470998 .16992188 .7001953 .2705078 .7001953M.26953126 .061523439C.31510417 .061523439 .35139976 .08168539 .37841798 .12200928 .4054362 .16234334 .4189453 .23747762 .4189453 .3474121 .4189453 .42676798 .4091797 .49205528 .38964845 .5432739 .3701172 .59450277 .332194 .6201172 .2758789 .6201172 .2241211 .6201172 .1862793 .59580489 .16235352 .5471802 .13842774 .4985555 .12646485 .42692057 .12646485 .3322754 .12646485 .26105754 .13411458 .20381673 .14941406 .16055298 .17285156 .09453329 .21289063 .061523439 .26953126 .061523439Z"/>
<path id="font_2_1" d="M0 0Z"/>
<path id="font_2_6" d="M.07373047 .71777346H.21289063L.4189453 .11091614 .62353518 .71777346H.76123049V0H.6689453V.42362977C.6689453 .43828837 .6692708 .46255494 .6699219 .49642945 .67057296 .53030398 .67089846 .56662496 .67089846 .60539248L.4663086 0H.3701172L.1640625 .60539248V.58340457C.1640625 .5658162 .1644694 .5390218 .1652832 .50302127 .166097 .46703086 .1665039 .44056703 .1665039 .42362977V0H.07373047V.71777346Z"/>
<path id="font_2_2" d="M.22753906 .71777346H.3017578L.07421875 0H0L.22753906 .71777346Z"/>
</defs>
<g clip-path="url(#clip_0)">
<g clip-path="url(#clip_1)">
<path transform="matrix(1,0,0,-1,0,540)" d="M0 539.9999H719.9999V.00003079383H0Z" fill="#ffffff" fill-rule="evenodd"/>
<path transform="matrix(.00007874014,0,0,.00007874014,38.25,30.000092)" stroke-width="12700" stroke-linecap="butt" stroke-linejoin="round" fill="none" stroke="#000000" d="M-.004989631 .2790529 838200 381000.3"/>
<path transform="matrix(.00007874014,0,0,.00007874014,116.25,30.000092)" stroke-width="12700" stroke-linecap="butt" stroke-linejoin="round" fill="none" stroke="#000000" d="M.03326413 .2790529 1.002197 304800.3"/>
<path transform="matrix(-.00007874014,-0,0,.00007874014,188.25,30.000092)" stroke-width="12700" stroke-linecap="butt" stroke-linejoin="round" fill="none" stroke="#000000" d="M.01989752 .2790529 685799.9 381000.3"/>
<path transform="matrix(1,0,0,-1,0,540)" d="M14.5 532.4999H62.87503V504.9999H14.5Z" fill="#ffffff" fill-rule="evenodd"/>
<path transform="matrix(.00007874014,0,0,.00007874014,14.5,7.500122)" stroke-width="12700" stroke-linecap="butt" stroke-miterlimit="8" stroke-linejoin="miter" fill="none" stroke="#000000" d="M.0005836468 .2351075H614363V349250.3H.0005836468Z"/>
<use data-text="H" xlink:href="#font_2_5" transform="matrix(16,0,0,-16,21.7,27.650086)"/>
<use data-text="o" xlink:href="#font_2_8" transform="matrix(16,0,0,-16,33.255205,27.650086)"/>
<use data-text="s" xlink:href="#font_2_9" transform="matrix(16,0,0,-16,42.154405,27.650086)"/>
<use data-text="t" xlink:href="#font_2_10" transform="matrix(16,0,0,-16,50.154405,27.650086)"/>
<use data-text="&#xfffd;" xlink:href="#font_3_1" transform="matrix(16,0,0,-16,54.599206,27.650086)"/>
<path transform="matrix(1,0,0,-1,0,540)" d="M91.74999 533.9999H140.125V506.4999H91.74999Z" fill="#ffffff" fill-rule="evenodd"/>
<path transform="matrix(.00007874014,0,0,.00007874014,91.74999,6.000122)" stroke-width="12700" stroke-linecap="butt" stroke-miterlimit="8" stroke-linejoin="miter" fill="none" stroke="#000000" d="M-.04269411 .2321779H614363.1V349250.3H-.04269411Z"/>
<use data-text="H" xlink:href="#font_2_5" transform="matrix(16,0,0,-16,98.94999,26.150086)"/>
<use data-text="o" xlink:href="#font_2_8" transform="matrix(16,0,0,-16,110.50519,26.150086)"/>
<use data-text="s" xlink:href="#font_2_9" transform="matrix(16,0,0,-16,119.40439,26.150086)"/>
<use data-text="t" xlink:href="#font_2_10" transform="matrix(16,0,0,-16,127.40439,26.150086)"/>
<use data-text="&#xfffd;" xlink:href="#font_3_1" transform="matrix(16,0,0,-16,131.8492,26.150086)"/>
<path transform="matrix(1,0,0,-1,0,540)" d="M169 533.9999H217.375V506.4999H169Z" fill="#ffffff" fill-rule="evenodd"/>
<path transform="matrix(.00007874014,0,0,.00007874014,169,6.000122)" stroke-width="12700" stroke-linecap="butt" stroke-miterlimit="8" stroke-linejoin="miter" fill="none" stroke="#000000" d="M-.1137085 .2321779H614362.9V349250.3H-.1137085Z"/>
<use data-text="H" xlink:href="#font_2_5" transform="matrix(16,0,0,-16,176.2,26.150086)"/>
<use data-text="o" xlink:href="#font_2_8" transform="matrix(16,0,0,-16,187.7552,26.150086)"/>
<use data-text="s" xlink:href="#font_2_9" transform="matrix(16,0,0,-16,196.6544,26.150086)"/>
<use data-text="t" xlink:href="#font_2_10" transform="matrix(16,0,0,-16,204.6544,26.150086)"/>
<use data-text="&#xfffd;" xlink:href="#font_3_1" transform="matrix(16,0,0,-16,209.0992,26.150086)"/>
<path transform="matrix(1,0,0,-1,0,540)" d="M94.74998 480.7915C94.74998 483.53 96.96995 485.7499 99.70841 485.7499H136.7915C139.53 485.7499 141.75 483.53 141.75 480.7915V460.9584C141.75 458.2199 139.53 455.9999 136.7915 455.9999H99.70841C96.96995 455.9999 94.74998 458.2199 94.74998 460.9584Z" fill="#ffffff" fill-rule="evenodd"/>
<path transform="matrix(.00007874014,0,0,.00007874014,94.74998,54.25009)" stroke-width="12700" stroke-linecap="butt" stroke-linejoin="round" fill="none" stroke="#000000" d="M-.008728057 62972.46C-.008728057 28193.96 28193.53 .3264161 62972.03 .3264161H533927.9C568706.4 .3264161 596899.9 28193.96 596899.9 62972.46V314853.2C596899.9 349631.8 568706.4 377825.4 533927.9 377825.4H62972.03C28193.53 377825.4-.008728057 349631.8-.008728057 314853.2Z"/>
<use data-text="H" xlink:href="#font_2_5" transform="matrix(16,0,0,-16,103.4023,75.525089)"/>
<use data-text="u" xlink:href="#font_2_11" transform="matrix(16,0,0,-16,114.9575,75.525089)"/>
<use data-text="b" xlink:href="#font_2_7" transform="matrix(16,0,0,-16,123.8567,75.525089)"/>
<use data-text="&#xfffd;" xlink:href="#font_3_1" transform="matrix(16,0,0,-16,132.7559,75.525089)"/>
<use data-text="1" xlink:href="#font_2_4" transform="matrix(16,0,0,-16,166.825,55.650087)"/>
<use data-text="0" xlink:href="#font_2_3" transform="matrix(16,0,0,-16,175.7242,55.650087)"/>
<use data-text="0" xlink:href="#font_2_3" transform="matrix(16,0,0,-16,184.6234,55.650087)"/>
<use data-text=" " xlink:href="#font_2_1" transform="matrix(16,0,0,-16,193.5226,55.650087)"/>
<use data-text="M" xlink:href="#font_2_6" transform="matrix(16,0,0,-16,197.96739,55.650087)"/>
<use data-text="b" xlink:href="#font_2_7" transform="matrix(16,0,0,-16,211.2954,55.650087)"/>
<use data-text="/" xlink:href="#font_2_2" transform="matrix(16,0,0,-16,220.1946,55.650087)"/>
<use data-text="s" xlink:href="#font_2_9" transform="matrix(16,0,0,-16,224.6394,55.650087)"/>
<use data-text="&#xfffd;" xlink:href="#font_3_1" transform="matrix(16,0,0,-16,232.6394,55.650087)"/>
<use data-text="1" xlink:href="#font_2_4" transform="matrix(16,0,0,-16,1.2,55.650087)"/>
<use data-text="0" xlink:href="#font_2_3" transform="matrix(16,0,0,-16,10.0992,55.650087)"/>
<use data-text="0" xlink:href="#font_2_3" transform="matrix(16,0,0,-16,18.998402,55.650087)"/>
<use data-text=" " xlink:href="#font_2_1" transform="matrix(16,0,0,-16,27.897603,55.650087)"/>
<use data-text="M" xlink:href="#font_2_6" transform="matrix(16,0,0,-16,32.3424,55.650087)"/>
<use data-text="b" xlink:href="#font_2_7" transform="matrix(16,0,0,-16,45.670404,55.650087)"/>
<use data-text="/" xlink:href="#font_2_2" transform="matrix(16,0,0,-16,54.569604,55.650087)"/>
<use data-text="s" xlink:href="#font_2_9" transform="matrix(16,0,0,-16,59.014406,55.650087)"/>
<use data-text="&#xfffd;" xlink:href="#font_3_1" transform="matrix(16,0,0,-16,67.014408,55.650087)"/>
</g>
</g>
</svg>
