<svg xmlns="http://www.w3.org/2000/svg" xmlns:xlink="http://www.w3.org/1999/xlink" version="1.1" width="228.84162pt" height="68.49701pt" viewBox="0 0 228.84162 68.49701">
<defs>
<clipPath id="clip_0">
<path transform="matrix(1,0,0,-1,-.778381,540)" d="M.778381 471.503H229.62V540H.778381Z" fill-rule="evenodd"/>
</clipPath>
<clipPath id="clip_1">
<path transform="matrix(1,0,0,-1,-.778381,540)" d="M0 .00002324581H719.9999V540H0Z"/>
</clipPath>
<path id="font_2_2" d="M.07861328 .71777346H.17675781V.42089845H.5498047V.71777346H.6479492V0H.5498047V.33496095H.17675781V0H.07861328V.71777346Z"/>
<path id="font_2_3" d="M.27197267 .057617189C.33024089 .057617189 .37019859 .07964579 .3918457 .123703 .41349284 .16776021 .4243164 .21677144 .4243164 .2707367 .4243164 .31950379 .4165039 .35917155 .4008789 .38974 .3761393 .43785606 .3334961 .46191407 .27294923 .46191407 .21923828 .46191407 .18017578 .44143168 .15576172 .40046693 .13134766 .35950218 .119140628 .31008403 .119140628 .25221253 .119140628 .1966095 .13134766 .15027364 .15576172 .113204959 .18017578 .076146449 .21891277 .057617189 .27197267 .057617189M.27539063 .53808596C.34277345 .53808596 .3997396 .5156453 .44628907 .47076417 .49283854 .42588298 .5161133 .35985819 .5161133 .27268983 .5161133 .1884613 .49560548 .11886088 .45458985 .06388855 .41357423 .008926392 .3499349-.018554688 .26367188-.018554688 .19173177-.018554688 .13460286 .00575765 .092285159 .054382326 .04996745 .103006999 .028808594 .16829936 .028808594 .2502594 .028808594 .33806864 .05110677 .4079895 .095703128 .46002198 .14029949 .51206466 .20019531 .53808596 .27539063 .53808596M.27246095 .5361328V.5361328Z"/>
<path id="font_2_4" d="M.11669922 .1640625C.11930338 .13463338 .12662761 .11207072 .13867188 .09637451 .1608073 .06793213 .19921875 .053710939 .25390626 .053710939 .28645835 .053710939 .31510417 .060806276 .33984376 .07499695 .36458335 .08919779 .37695313 .11115011 .37695313 .14085388 .37695313 .16337586 .36702476 .18051148 .34716798 .19226074 .33447267 .19944255 .30940757 .20775859 .27197267 .21720886L.20214844 .2348175C.15755208 .24590557 .12467448 .25829569 .103515628 .27198792 .06575521 .29579164 .046875 .32873027 .046875 .37080384 .046875 .42036439 .064697269 .46046958 .1003418 .49111939 .13598633 .52177938 .18391927 .5371094 .24414063 .5371094 .32291667 .5371094 .37972007 .5139974 .41455079 .46777345 .4363607 .43847657 .4469401 .40690104 .44628907 .37304688H.36328126C.36165367 .39269004 .35465495 .41055808 .34228517 .426651 .32210288 .44950868 .28710938 .4609375 .23730469 .4609375 .20410156 .4609375 .17895508 .45461528 .16186524 .44197084 .14477539 .42933656 .13623047 .41264854 .13623047 .39190675 .13623047 .36922203 .14746094 .35107423 .16992188 .33746339 .1829427 .32936607 .20214844 .32221986 .22753906 .31602479L.28564454 .3018341C.34879557 .28650413 .39111329 .27166749 .41259767 .25732423 .44677735 .23482259 .4638672 .19944255 .4638672 .15118408 .4638672 .10455322 .44620768 .06428019 .41088868 .03036499 .37556968-.0035502117 .32177735-.020507813 .24951172-.020507813 .17171224-.020507813 .116617839-.002802531 .084228519 .032608034 .05183919 .06801859 .034505208 .111836757 .032226564 .1640625H.11669922M.24658203 .5361328V.5361328Z"/>
<path id="font_2_5" d="M.08203125 .66796877H.17089844V.5234375H.25439454V.4501953H.17089844V.110183719C.17089844 .09202576 .17708333 .07986959 .18945313 .07371521 .19628906 .07014465 .2076823 .068359378 .22363281 .068359378 .22786458 .068359378 .23242188 .06846619 .23730469 .06867981 .2421875 .0689036 .24788411 .06944784 .25439454 .0703125V0C.24430339-.0031026204 .23380535-.005340576 .22290039-.006713867 .21199544-.008097331 .20019531-.0087890629 .1875-.0087890629 .14648438-.0087890629 .118652347 .0016988119 .104003909 .02267456 .08935547 .04365031 .08203125 .070882167 .08203125 .10437012V.4501953H.011230469V.5234375H.08203125V.66796877Z"/>
<path id="font_3_1" d="M0 0Z"/>
<path id="font_2_1" d="M.08544922 .10644531H.1875V0H.08544922V.10644531Z"/>
</defs>
<g clip-path="url(#clip_0)">
<g clip-path="url(#clip_1)">
<path transform="matrix(1,0,0,-1,-.778381,540)" d="M0 539.9999H719.9999V.00003079383H0Z" fill="#ffffff" fill-rule="evenodd"/>
<path transform="matrix(.00007874014,0,0,.00007874014,5.221619,54.00009)" stroke-width="12700" stroke-linecap="butt" stroke-linejoin="round" fill="none" stroke="#000000" d="M-.002149583-31749.68H2590800"/>
<path transform="matrix(.00007874014,0,0,.00007874014,5.221619,54.00009)" stroke-width="25400" stroke-linecap="butt" stroke-linejoin="round" fill="none" stroke="#000000" d="M-.002149583 .3259279H2590800"/>
<path transform="matrix(.00007874014,0,0,.00007874014,5.221619,54.00009)" stroke-width="12700" stroke-linecap="butt" stroke-linejoin="round" fill="none" stroke="#000000" d="M-.002149583 31750.33H2590800"/>
<path transform="matrix(.00007874014,0,0,.00007874014,29.22161,30.000092)" stroke-width="12700" stroke-linecap="butt" stroke-linejoin="round" fill="none" stroke="#000000" d="M-.01407624 .2790529 .9790803 304800.3"/>
<path transform="matrix(.00007874014,0,0,.00007874014,101.22162,30.000092)" stroke-width="12700" stroke-linecap="butt" stroke-linejoin="round" fill="none" stroke="#000000" d="M.005432099 .2790529 .9743654 304800.3"/>
<path transform="matrix(.00007874014,0,0,.00007874014,185.22162,30.000092)" stroke-width="12700" stroke-linecap="butt" stroke-linejoin="round" fill="none" stroke="#000000" d="M-.02429205 .2790529 .9446412 304800.3"/>
<path transform="matrix(1,0,0,-1,-.778381,540)" d="M6.249999 532.4999H54.62503V504.9999H6.249999Z" fill="#ffffff" fill-rule="evenodd"/>
<path transform="matrix(.00007874014,0,0,.00007874014,5.471618,7.500122)" stroke-width="12700" stroke-linecap="butt" stroke-miterlimit="8" stroke-linejoin="miter" fill="none" stroke="#000000" d="M.00009536557 .2351075H614363V349250.3H.00009536557Z"/>
<use data-text="H" xlink:href="#font_2_2" transform="matrix(16,0,0,-16,12.671618,27.650086)"/>
<use data-text="o" xlink:href="#font_2_3" transform="matrix(16,0,0,-16,24.226819,27.650086)"/>
<use data-text="s" xlink:href="#font_2_4" transform="matrix(16,0,0,-16,33.126024,27.650086)"/>
<use data-text="t" xlink:href="#font_2_5" transform="matrix(16,0,0,-16,41.126024,27.650086)"/>
<use data-text="&#xfffd;" xlink:href="#font_3_1" transform="matrix(16,0,0,-16,45.570825,27.650086)"/>
<path transform="matrix(1,0,0,-1,-.778381,540)" d="M76.74999 533.9999H125.125V506.4999H76.74999Z" fill="#ffffff" fill-rule="evenodd"/>
<path transform="matrix(.00007874014,0,0,.00007874014,75.97161,6.000122)" stroke-width="12700" stroke-linecap="butt" stroke-miterlimit="8" stroke-linejoin="miter" fill="none" stroke="#000000" d="M-.009490982 .2321779H614363V349250.3H-.009490982Z"/>
<use data-text="H" xlink:href="#font_2_2" transform="matrix(16,0,0,-16,83.17161,26.150086)"/>
<use data-text="o" xlink:href="#font_2_3" transform="matrix(16,0,0,-16,94.72681,26.150086)"/>
<use data-text="s" xlink:href="#font_2_4" transform="matrix(16,0,0,-16,103.62601,26.150086)"/>
<use data-text="t" xlink:href="#font_2_5" transform="matrix(16,0,0,-16,111.62601,26.150086)"/>
<use data-text="&#xfffd;" xlink:href="#font_3_1" transform="matrix(16,0,0,-16,116.070819,26.150086)"/>
<path transform="matrix(1,0,0,-1,-.778381,540)" d="M160.75 533.9999H209.125V506.4999H160.75Z" fill="#ffffff" fill-rule="evenodd"/>
<path transform="matrix(.00007874014,0,0,.00007874014,159.97162,6.000122)" stroke-width="12700" stroke-linecap="butt" stroke-miterlimit="8" stroke-linejoin="miter" fill="none" stroke="#000000" d="M-.07360846 .2321779H614362.9V349250.3H-.07360846Z"/>
<use data-text="H" xlink:href="#font_2_2" transform="matrix(16,0,0,-16,167.17162,26.150086)"/>
<use data-text="o" xlink:href="#font_2_3" transform="matrix(16,0,0,-16,178.72682,26.150086)"/>
<use data-text="s" xlink:href="#font_2_4" transform="matrix(16,0,0,-16,187.62602,26.150086)"/>
<use data-text="t" xlink:href="#font_2_5" transform="matrix(16,0,0,-16,195.62602,26.150086)"/>
<use data-text="&#xfffd;" xlink:href="#font_3_1" transform="matrix(16,0,0,-16,200.07082,26.150086)"/>
<use data-text="." xlink:href="#font_2_1" transform="matrix(16,0,0,-16,132.42162,19.650086)"/>
<use data-text="." xlink:href="#font_2_1" transform="matrix(16,0,0,-16,136.86641,19.650086)"/>
<use data-text="." xlink:href="#font_2_1" transform="matrix(16,0,0,-16,141.31122,19.650086)"/>
<use data-text="&#xfffd;" xlink:href="#font_3_1" transform="matrix(16,0,0,-16,145.75601,19.650086)"/>
</g>
</g>
</svg>
