<?xml version="1.0" encoding="UTF-8" standalone="no"?><svg xmlns="http://www.w3.org/2000/svg" xmlns:xlink="http://www.w3.org/1999/xlink" contentScriptType="application/ecmascript" contentStyleType="text/css" height="322px" preserveAspectRatio="none" style="width:546px;height:322px;" version="1.1" viewBox="0 0 546 322" width="546px" zoomAndPan="magnify"><defs><filter height="300%" id="fkc71gszdscfa" width="300%" x="-1" y="-1"><feGaussianBlur result="blurOut" stdDeviation="2.0"/><feColorMatrix in="blurOut" result="blurOut2" type="matrix" values="0 0 0 0 0 0 0 0 0 0 0 0 0 0 0 0 0 0 .4 0"/><feOffset dx="4.0" dy="4.0" in="blurOut2" result="blurOut3"/><feBlend in="SourceGraphic" in2="blurOut3" mode="normal"/></filter></defs><g><!--class Target--><rect fill="#FEFECE" filter="url(#fkc71gszdscfa)" height="52.9551" id="Target" style="stroke: #A80036; stroke-width: 1.5;" width="77" x="160.5" y="8"/><ellipse cx="178.65" cy="24" fill="#B4A7E5" rx="11" ry="11" style="stroke: #A80036; stroke-width: 1.0;"/><path d="M175.0777,20.2651 L175.0777,18.1069 L182.4571,18.1069 L182.4571,20.2651 L179.9918,20.2651 L179.9918,28.3418 L182.4571,28.3418 L182.4571,30.5 L175.0777,30.5 L175.0777,28.3418 L177.5431,28.3418 L177.5431,20.2651 Z "/><text fill="#000000" font-family="sans-serif" font-size="12" font-style="italic" lengthAdjust="spacingAndGlyphs" textLength="38" x="193.35" y="28.5352">Target</text><line style="stroke: #A80036; stroke-width: 1.5;" x1="161.5" x2="236.5" y1="40" y2="40"/><ellipse cx="171.5" cy="51.9775" fill="#84BE84" rx="3" ry="3" style="stroke: #038048; stroke-width: 1.0;"/><text fill="#000000" font-family="sans-serif" font-size="11" font-style="italic" lengthAdjust="spacingAndGlyphs" textLength="51" x="180.5" y="54.6348">Request()</text><!--class Client--><rect fill="#FEFECE" filter="url(#fkc71gszdscfa)" height="32" id="Client" style="stroke: #A80036; stroke-width: 1.5;" width="64" x="41" y="142"/><ellipse cx="56" cy="158" fill="#ADD1B2" rx="11" ry="11" style="stroke: #A80036; stroke-width: 1.0;"/><path d="M58.4731,164.1431 Q57.8921,164.4419 57.2529,164.5913 Q56.6138,164.7407 55.9082,164.7407 Q53.4014,164.7407 52.0815,163.0889 Q50.7617,161.437 50.7617,158.3159 Q50.7617,155.1865 52.0815,153.5347 Q53.4014,151.8828 55.9082,151.8828 Q56.6138,151.8828 57.2612,152.0322 Q57.9087,152.1816 58.4731,152.4805 L58.4731,155.2031 Q57.8423,154.6221 57.2488,154.3523 Q56.6553,154.0825 56.0244,154.0825 Q54.6797,154.0825 53.9949,155.1492 Q53.3101,156.2158 53.3101,158.3159 Q53.3101,160.4077 53.9949,161.4744 Q54.6797,162.541 56.0244,162.541 Q56.6553,162.541 57.2488,162.2712 Q57.8423,162.0015 58.4731,161.4204 Z "/><text fill="#000000" font-family="sans-serif" font-size="12" lengthAdjust="spacingAndGlyphs" textLength="32" x="70" y="162.5352">Client</text><!--class ClassAdapter--><rect fill="#FEFECE" filter="url(#fkc71gszdscfa)" height="52.9551" id="ClassAdapter" style="stroke: #A80036; stroke-width: 1.5;" width="109" x="292.5" y="131.5"/><ellipse cx="307.5" cy="147.5" fill="#ADD1B2" rx="11" ry="11" style="stroke: #A80036; stroke-width: 1.0;"/><path d="M309.9731,153.6431 Q309.3921,153.9419 308.7529,154.0913 Q308.1138,154.2407 307.4082,154.2407 Q304.9014,154.2407 303.5815,152.5889 Q302.2617,150.937 302.2617,147.8159 Q302.2617,144.6865 303.5815,143.0347 Q304.9014,141.3828 307.4082,141.3828 Q308.1138,141.3828 308.7612,141.5322 Q309.4087,141.6816 309.9731,141.9805 L309.9731,144.7031 Q309.3423,144.1221 308.7488,143.8523 Q308.1553,143.5825 307.5244,143.5825 Q306.1797,143.5825 305.4949,144.6492 Q304.8101,145.7158 304.8101,147.8159 Q304.8101,149.9077 305.4949,150.9744 Q306.1797,152.041 307.5244,152.041 Q308.1553,152.041 308.7488,151.7712 Q309.3423,151.5015 309.9731,150.9204 Z "/><text fill="#000000" font-family="sans-serif" font-size="12" lengthAdjust="spacingAndGlyphs" textLength="77" x="321.5" y="152.0352">ClassAdapter</text><line style="stroke: #A80036; stroke-width: 1.5;" x1="293.5" x2="400.5" y1="163.5" y2="163.5"/><ellipse cx="303.5" cy="175.4775" fill="#84BE84" rx="3" ry="3" style="stroke: #038048; stroke-width: 1.0;"/><text fill="#000000" font-family="sans-serif" font-size="11" lengthAdjust="spacingAndGlyphs" textLength="51" x="312.5" y="178.1348">Request()</text><!--class ObjectAdapter--><rect fill="#FEFECE" filter="url(#fkc71gszdscfa)" height="73.9102" id="ObjectAdapter" style="stroke: #A80036; stroke-width: 1.5;" width="117" x="140.5" y="121"/><ellipse cx="155.5" cy="137" fill="#ADD1B2" rx="11" ry="11" style="stroke: #A80036; stroke-width: 1.0;"/><path d="M157.9731,143.1431 Q157.3921,143.4419 156.7529,143.5913 Q156.1138,143.7407 155.4082,143.7407 Q152.9014,143.7407 151.5815,142.0889 Q150.2617,140.437 150.2617,137.3159 Q150.2617,134.1865 151.5815,132.5347 Q152.9014,130.8828 155.4082,130.8828 Q156.1138,130.8828 156.7612,131.0322 Q157.4087,131.1816 157.9731,131.4805 L157.9731,134.2031 Q157.3423,133.6221 156.7488,133.3523 Q156.1553,133.0825 155.5244,133.0825 Q154.1797,133.0825 153.4949,134.1492 Q152.8101,135.2158 152.8101,137.3159 Q152.8101,139.4077 153.4949,140.4744 Q154.1797,141.541 155.5244,141.541 Q156.1553,141.541 156.7488,141.2712 Q157.3423,141.0015 157.9731,140.4204 Z "/><text fill="#000000" font-family="sans-serif" font-size="12" lengthAdjust="spacingAndGlyphs" textLength="85" x="169.5" y="141.5352">ObjectAdapter</text><line style="stroke: #A80036; stroke-width: 1.5;" x1="141.5" x2="256.5" y1="153" y2="153"/><rect fill="none" height="6" style="stroke: #C82930; stroke-width: 1.0;" width="6" x="148.5" y="161.9775"/><text fill="#000000" font-family="sans-serif" font-size="11" lengthAdjust="spacingAndGlyphs" textLength="57" x="160.5" y="167.6348">anAdaptee</text><line style="stroke: #A80036; stroke-width: 1.5;" x1="141.5" x2="256.5" y1="173.9551" y2="173.9551"/><ellipse cx="151.5" cy="185.9326" fill="#84BE84" rx="3" ry="3" style="stroke: #038048; stroke-width: 1.0;"/><text fill="#000000" font-family="sans-serif" font-size="11" lengthAdjust="spacingAndGlyphs" textLength="51" x="160.5" y="188.5898">Request()</text><!--class Adaptee--><rect fill="#FEFECE" filter="url(#fkc71gszdscfa)" height="52.9551" id="Adaptee" style="stroke: #A80036; stroke-width: 1.5;" width="118" x="280" y="8"/><ellipse cx="311.65" cy="24" fill="#ADD1B2" rx="11" ry="11" style="stroke: #A80036; stroke-width: 1.0;"/><path d="M314.1231,30.1431 Q313.5421,30.4419 312.9029,30.5913 Q312.2638,30.7407 311.5582,30.7407 Q309.0514,30.7407 307.7315,29.0889 Q306.4117,27.437 306.4117,24.3159 Q306.4117,21.1865 307.7315,19.5347 Q309.0514,17.8828 311.5582,17.8828 Q312.2638,17.8828 312.9112,18.0322 Q313.5587,18.1816 314.1231,18.4805 L314.1231,21.2031 Q313.4923,20.6221 312.8988,20.3523 Q312.3053,20.0825 311.6744,20.0825 Q310.3297,20.0825 309.6449,21.1492 Q308.9601,22.2158 308.9601,24.3159 Q308.9601,26.4077 309.6449,27.4744 Q310.3297,28.541 311.6744,28.541 Q312.3053,28.541 312.8988,28.2712 Q313.4923,28.0015 314.1231,27.4204 Z "/><text fill="#000000" font-family="sans-serif" font-size="12" lengthAdjust="spacingAndGlyphs" textLength="49" x="329.35" y="28.5352">Adaptee</text><line style="stroke: #A80036; stroke-width: 1.5;" x1="281" x2="397" y1="40" y2="40"/><ellipse cx="291" cy="51.9775" fill="#84BE84" rx="3" ry="3" style="stroke: #038048; stroke-width: 1.0;"/><text fill="#000000" font-family="sans-serif" font-size="11" lengthAdjust="spacingAndGlyphs" textLength="92" x="300" y="54.6348">SpecificRequest()</text><path d="M6,255 L6,310.9316 A0,0 0 0 0 6,310.9316 L258,310.9316 A0,0 0 0 0 258,310.9316 L258,265 L248,255 L151.055,255 L179.0792,195.1657 L143.055,255 L6,255 A0,0 0 0 0 6,255 " fill="#FBFB77" filter="url(#fkc71gszdscfa)" style="stroke: #A80036; stroke-width: 1.0;"/><path d="M248,255 L248,265 L258,265 L248,255 " fill="#FBFB77" style="stroke: #A80036; stroke-width: 1.0;"/><text fill="#000000" font-family="sans-serif" font-size="13" lengthAdjust="spacingAndGlyphs" textLength="164" x="12" y="272.5684">ObjectAdapter::Request() {</text><text fill="#000000" font-family="sans-serif" font-size="13" lengthAdjust="spacingAndGlyphs" textLength="223" x="20" y="287.8789">return anAdaptee.SpecificRequest();</text><text fill="#000000" font-family="sans-serif" font-size="13" lengthAdjust="spacingAndGlyphs" textLength="4" x="12" y="303.1895">}</text><path d="M293.5,255 L293.5,310.9316 A0,0 0 0 0 293.5,310.9316 L534.5,310.9316 A0,0 0 0 0 534.5,310.9316 L534.5,265 L524.5,255 L402.8804,255 L361.209,184.5093 L394.8804,255 L293.5,255 A0,0 0 0 0 293.5,255 " fill="#FBFB77" filter="url(#fkc71gszdscfa)" style="stroke: #A80036; stroke-width: 1.0;"/><path d="M524.5,255 L524.5,265 L534.5,265 L524.5,255 " fill="#FBFB77" style="stroke: #A80036; stroke-width: 1.0;"/><text fill="#000000" font-family="sans-serif" font-size="13" lengthAdjust="spacingAndGlyphs" textLength="157" x="299.5" y="272.5684">ClassAdapter::Request() {</text><text fill="#000000" font-family="sans-serif" font-size="13" lengthAdjust="spacingAndGlyphs" textLength="212" x="307.5" y="287.8789">return Adaptee::SpecificRequest();</text><text fill="#000000" font-family="sans-serif" font-size="13" lengthAdjust="spacingAndGlyphs" textLength="4" x="299.5" y="303.1895">}</text><!--link Target to Client--><path d="M168.0671,64.8192 C143.2522,89.1417 109.3866,122.3353 89.4905,141.8367 " fill="none" id="Target-Client" style="stroke: #A80036; stroke-width: 1.0;"/><polygon fill="#A80036" points="171.6599,61.2977,162.4325,64.7409,168.0891,64.7976,168.0324,70.4542,171.6599,61.2977" style="stroke: #A80036; stroke-width: 1.0;"/><!--link Target to ClassAdapter--><path d="M246.6485,74.2607 C269.0785,92.9777 295.2239,114.7949 315.2034,131.4671 " fill="none" id="Target-ClassAdapter" style="stroke: #A80036; stroke-width: 1.0;"/><polygon fill="none" points="241.9849,79.4862,231.1138,61.2977,250.9546,68.737,241.9849,79.4862" style="stroke: #A80036; stroke-width: 1.0;"/><!--link Target to ObjectAdapter--><path d="M199,81.3561 C199,94.454 199,108.5026 199,120.9485 " fill="none" id="Target-ObjectAdapter" style="stroke: #A80036; stroke-width: 1.0;"/><polygon fill="none" points="192.0001,81.2977,199,61.2977,206.0001,81.2976,192.0001,81.2977" style="stroke: #A80036; stroke-width: 1.0;"/><!--link Adaptee to ClassAdapter--><path d="M342.0385,81.4061 C343.1307,98.2676 344.3246,116.6986 345.2675,131.2546 " fill="none" id="Adaptee-ClassAdapter" style="stroke: #A80036; stroke-width: 1.0;"/><polygon fill="none" points="335.0435,81.7084,340.7359,61.2977,349.0142,80.8033,335.0435,81.7084" style="stroke: #A80036; stroke-width: 1.0;"/><!--link Adaptee to ObjectAdapter--><path d="M298.676,70.0716 C283.8448,83.1547 266.8326,98.162 251.1108,112.0308 " fill="none" id="Adaptee-ObjectAdapter" style="stroke: #A80036; stroke-width: 1.0;"/><polygon fill="#FFFFFF" points="241.0017,120.9485,248.1473,119.9789,250.0006,113.01,242.855,113.9796,241.0017,120.9485" style="stroke: #A80036; stroke-width: 1.0;"/><polygon fill="#A80036" points="308.6221,61.2977,299.2267,64.2518,304.8725,64.6054,304.519,70.2512,308.6221,61.2977" style="stroke: #A80036; stroke-width: 1.0;"/><line style="stroke: #A80036; stroke-width: 1.0;" x1="304.8725" x2="298.8732" y1="64.6054" y2="69.8976"/><!--
@startuml
Target <- - Client
Target <|- - ClassAdapter
Target <|- - ObjectAdapter
Adaptee <|- - ClassAdapter
Adaptee <- -o ObjectAdapter

interface Target {
  {abstract} +Request()
}
class Adaptee {
  +SpecificRequest()
}
class ClassAdapter {
  +Request()
}
class ObjectAdapter {
  -anAdaptee
  +Request()
}

note bottom of ObjectAdapter
  ObjectAdapter::Request() {
    return anAdaptee.SpecificRequest();
  }
end note

note bottom of ClassAdapter
  ClassAdapter::Request() {
    return Adaptee::SpecificRequest();
  }
end note

hide empty attributes
hide empty methods
@enduml

PlantUML version 1.2019.04(Fri Mar 29 23:44:36 CST 2019)
(GPL source distribution)
Java Runtime: Java(TM) SE Runtime Environment
JVM: Java HotSpot(TM) 64-Bit Server VM
Java Version: 1.8.0_152-b16
Operating System: Mac OS X
OS Version: 10.14
Default Encoding: UTF-8
Language: zh
Country: CN
--></g></svg>