<svg xmlns="http://www.w3.org/2000/svg" xmlns:xlink="http://www.w3.org/1999/xlink" version="1.1" width="661.6176pt" height="275.545pt" viewBox="0 0 661.6176 275.545">
<defs>
<clipPath id="clip_0">
<path transform="matrix(1,0,0,-1,-7.00537,535.33)" d="M7.00537 259.785H668.623V535.33H7.00537Z" fill-rule="evenodd"/>
</clipPath>
<clipPath id="clip_1">
<path transform="matrix(1,0,0,-1,-7.00537,535.33)" d="M0 .00002324581H719.9999V540H0Z"/>
</clipPath>
<path id="font_2_3" d="M.484375 .64208987 .15429688-.064941409C.14876302-.07698568 .14160156-.08300781 .1328125-.08300781 .12727864-.08300781 .12247721-.080973308 .1184082-.0769043 .114339198-.07283529 .11230469-.068359378 .11230469-.06347656 .11230469-.059570314 .11393229-.05419922 .1171875-.04736328L.44677735 .65966799C.45035807 .66715499 .45377604 .6720378 .45703126 .6743164 .46028648 .67659506 .46419273 .6777344 .46875 .6777344 .47428385 .6777344 .4790853 .6756999 .4831543 .67163088 .4872233 .6675618 .4892578 .66308596 .4892578 .6582031 .4892578 .6546224 .48763023 .6492513 .484375 .64208987Z"/>
<path id="font_2_1" d="M0 0Z"/>
<path id="font_2_6" d="M.14550781 .61328127V.34213258C.19498699 .4063619 .25472007 .43847657 .32470704 .43847657 .38460288 .43847657 .4358724 .41672264 .47851563 .37321473 .5211589 .329717 .54248049 .27635703 .54248049 .21313477 .54248049 .14926148 .52091476 .09516398 .4777832 .050842287 .4346517 .0065307619 .3836263-.015625 .32470704-.015625 .25309245-.015625 .19335938 .016652426 .14550781 .081207279V.0009765625H.049316408C.03955078 .0009765625 .032552083 .0028330486 .028320313 .0065460207 .024088541 .010269165 .021972657 .014923096 .021972657 .020507813 .021972657 .026692709 .024088541 .031656904 .028320313 .03540039 .032552083 .03914388 .03955078 .041015626 .049316408 .041015626H.10449219V.5722656H.049316408C.03955078 .5722656 .032552083 .574173 .028320313 .5779877 .024088541 .58180239 .021972657 .58673098 .021972657 .59277346 .021972657 .5986328 .024088541 .6035156 .028320313 .6074219 .032552083 .6113281 .03955078 .61328127 .049316408 .61328127H.14550781M.50146487 .21095276C.50146487 .26272074 .48372398 .30674745 .4482422 .34303285 .4127604 .37931825 .3712565 .39746095 .32373048 .39746095 .27620445 .39746095 .23470052 .37942506 .19921875 .34335328 .16373699 .30729167 .1459961 .26331584 .1459961 .21142578 .1459961 .15953572 .16373699 .11555481 .19921875 .07948303 .23470052 .04342143 .27620445 .025390625 .32373048 .025390625 .3712565 .025390625 .4127604 .043375654 .4482422 .0793457 .48372398 .11532593 .50146487 .15919495 .50146487 .21095276Z"/>
<path id="font_2_12" d="M.3203125 .63378909V.5283203H.25976563V.63378909H.3203125M.32177735 .42382813V.041015626H.48291017C.4930013 .041015626 .5001628 .03914388 .50439456 .03540039 .5086263 .031656904 .5107422 .026692709 .5107422 .020507813 .5107422 .0146484379 .5086263 .009765625 .50439456 .005859375 .5001628 .001953125 .4930013 0 .48291017 0H.119628909C.10986328 0 .102864589 .001953125 .09863281 .005859375 .09440104 .009765625 .092285159 .0146484379 .092285159 .020507813 .092285159 .026692709 .09440104 .031656904 .09863281 .03540039 .102864589 .03914388 .10986328 .041015626 .119628909 .041015626H.28076173V.3828125H.16113281C.15136719 .3828125 .14428711 .3847402 .13989258 .38859559 .13549805 .39246116 .13330078 .397288 .13330078 .40307618 .13330078 .40918986 .13541667 .4141744 .13964844 .4180298 .1438802 .42189536 .15104167 .42382813 .16113281 .42382813H.32177735Z"/>
<path id="font_2_15" d="M.16748047 .42382813V.3623047C.1961263 .39109294 .2220052 .41098533 .24511719 .4219818 .26822917 .4329783 .29427085 .43847657 .3232422 .43847657 .3544922 .43847657 .38297526 .43178813 .4086914 .41841126 .42692057 .4086151 .44344078 .39237467 .45825196 .36968995 .47306315 .34701539 .48046876 .32377116 .48046876 .29995729V.041015626H.5151367C.52490237 .041015626 .53190109 .03914388 .5361328 .03540039 .54036459 .031656904 .54248049 .026692709 .54248049 .020507813 .54248049 .0146484379 .54036459 .009765625 .5361328 .005859375 .53190109 .001953125 .52490237 0 .5151367 0H.40527345C.39518229 0 .38802085 .001953125 .38378907 .005859375 .37955729 .009765625 .3774414 .0146484379 .3774414 .020507813 .3774414 .026692709 .37955729 .031656904 .38378907 .03540039 .38802085 .03914388 .39518229 .041015626 .40527345 .041015626H.43945313V.29351808C.43945313 .32261149 .4288737 .34720866 .40771485 .36730958 .386556 .3874105 .3582357 .39746095 .3227539 .39746095 .2957357 .39746095 .2722982 .39200846 .2524414 .38110353 .23258464 .37019859 .20426433 .34309898 .16748047 .2998047V.041015626H.21386719C.22363281 .041015626 .23063152 .03914388 .23486328 .03540039 .23909505 .031656904 .24121094 .026692709 .24121094 .020507813 .24121094 .0146484379 .23909505 .009765625 .23486328 .005859375 .23063152 .001953125 .22363281 0 .21386719 0H.080078128C.0703125 0 .063313808 .001953125 .05908203 .005859375 .05485026 .009765625 .052734376 .0146484379 .052734376 .020507813 .052734376 .026692709 .05485026 .031656904 .05908203 .03540039 .063313808 .03914388 .0703125 .041015626 .080078128 .041015626H.12646485V.3828125H.091796878C.08203125 .3828125 .075032558 .38476563 .07080078 .38867188 .06656901 .39257813 .064453128 .3976237 .064453128 .4038086 .064453128 .40952555 .06656901 .41429139 .07080078 .41810609 .075032558 .42192079 .08203125 .42382813 .091796878 .42382813H.16748047Z"/>
<path id="font_2_8" d="M.50097659 .61328127V.041015626H.55566409C.5657552 .041015626 .5729167 .03914388 .57714846 .03540039 .5813802 .031656904 .5834961 .026692709 .5834961 .020507813 .5834961 .014923096 .5813802 .010269165 .57714846 .0065460207 .5729167 .0028330486 .5657552 .0009765625 .55566409 .0009765625H.45947267V.08218384C.41194663 .016977946 .3515625-.015625 .2783203-.015625 .24121094-.015625 .20564778-.0057678224 .17163086 .013946533 .13761394 .03366089 .11075846 .061767579 .09106445 .0982666 .071370448 .13476563 .061523439 .17240398 .061523439 .21118164 .061523439 .25028483 .071370448 .28800456 .09106445 .32434083 .11075846 .3606771 .13761394 .38878379 .17163086 .4086609 .20564778 .428538 .2413737 .43847657 .2788086 .43847657 .3504232 .43847657 .41064454 .40603639 .45947267 .341156V.5722656H.40478517C.394694 .5722656 .38753257 .574173 .38330079 .5779877 .379069 .58180239 .37695313 .58673098 .37695313 .59277346 .37695313 .5986328 .379069 .6035156 .38330079 .6074219 .38753257 .6113281 .394694 .61328127 .40478517 .61328127H.50097659M.45947267 .21142578C.45947267 .26364137 .44189454 .30769859 .40673829 .3435974 .37158204 .37950645 .3297526 .39746095 .28125 .39746095 .23242188 .39746095 .19042969 .37950645 .15527344 .3435974 .12011719 .30769859 .10253906 .26364137 .10253906 .21142578 .10253906 .15953572 .12011719 .11555481 .15527344 .07948303 .19042969 .04342143 .23242188 .025390625 .28125 .025390625 .3297526 .025390625 .37158204 .04342143 .40673829 .07948303 .44189454 .11555481 .45947267 .15953572 .45947267 .21142578Z"/>
<path id="font_2_9" d="M.52197268 .20214844H.104003909C.11116537 .14908855 .13338216 .10636393 .1706543 .07397461 .20792644 .041585287 .254069 .025390625 .30908204 .025390625 .339681 .025390625 .37174479 .030436198 .40527345 .040527345 .4388021 .05061849 .46614585 .063964847 .4873047 .080566409 .4934896 .08544922 .4988607 .087890628 .50341799 .087890628 .5086263 .087890628 .5131836 .08585612 .51708987 .08178711 .5209961 .0777181 .5229492 .072916667 .5229492 .06738281 .5229492 .061848958 .52034506 .056477865 .5151367 .05126953 .49951173 .03499349 .47176109 .01977539 .43188478 .0056152346 .39200846-.008544922 .35107423-.015625 .30908204-.015625 .23876953-.015625 .1800944 .0074310305 .13305664 .05354309 .08601888 .09965515 .0625 .15546163 .0625 .22096253 .0625 .28059388 .08455404 .3317515 .12866211 .37443543 .17277019 .41712953 .2273763 .43847657 .29248048 .43847657 .35953776 .43847657 .41471354 .41653953 .4580078 .3726654 .50130209 .3287913 .5226237 .2719523 .52197268 .20214844M.48046876 .24316406C.47233073 .28884889 .45092774 .32598368 .41625978 .35456849 .3815918 .38316346 .34033204 .39746095 .29248048 .39746095 .2446289 .39746095 .20345052 .3833262 .16894531 .35505677 .13444011 .3267975 .11295573 .2894999 .10449219 .24316406H.48046876Z"/>
<path id="font_2_22" d="M.3359375 0H.26660157L.09814453 .3828125H.056152345C.04638672 .3828125 .03938802 .38476563 .03515625 .38867188 .030924479 .39257813 .028808594 .3976237 .028808594 .4038086 .028808594 .40952555 .030924479 .41429139 .03515625 .41810609 .03938802 .42192079 .04638672 .42382813 .056152345 .42382813H.20996094C.21972656 .42382813 .22672527 .42192079 .23095703 .41810609 .2351888 .41429139 .23730469 .4093628 .23730469 .4033203 .23730469 .39746095 .2351888 .39257813 .23095703 .38867188 .22672527 .38476563 .21972656 .3828125 .20996094 .3828125H.14208985L.29248048 .041015626H.31054688L.4580078 .3828125H.38964845C.3798828 .3828125 .37288413 .38476563 .36865235 .38867188 .36442057 .39257813 .3623047 .3976237 .3623047 .4038086 .3623047 .40952555 .36442057 .41429139 .36865235 .41810609 .37288413 .42192079 .3798828 .42382813 .38964845 .42382813H.5439453C.55403646 .42382813 .5611165 .42192079 .56518557 .41810609 .5692546 .41429139 .57128909 .4093628 .57128909 .4033203 .57128909 .39746095 .5692546 .39257813 .56518557 .38867188 .5611165 .38476563 .55403646 .3828125 .5439453 .3828125H.5024414L.3359375 0Z"/>
<path id="font_2_20" d="M.21582031 .42382813H.43847657C.4482422 .42382813 .45524089 .42192079 .45947267 .41810609 .46370445 .41429139 .4658203 .4093628 .4658203 .4033203 .4658203 .39746095 .46370445 .39257813 .45947267 .38867188 .45524089 .38476563 .4482422 .3828125 .43847657 .3828125H.21582031V.1091156C.21582031 .08529154 .2253418 .06537882 .24438477 .04937744 .26342774 .03338623 .29134117 .025390625 .328125 .025390625 .35579429 .025390625 .3857422 .029541016 .41796876 .037841798 .4501953 .046142579 .4752604 .0555013 .49316407 .06591797 .49967448 .07014974 .5050456 .072265628 .50927737 .072265628 .51448568 .072265628 .51904299 .07023112 .5229492 .06616211 .52685549 .062093099 .5288086 .057291669 .5288086 .051757814 .5288086 .046875 .5266927 .042317708 .52246096 .038085939 .51204428 .02734375 .48673503 .01570638 .4465332 .0031738282 .4063314-.009358724 .36783854-.015625 .3310547-.015625 .28320313-.015625 .24511719-.0043691 .21679688 .0181427 .18847656 .040664674 .1743164 .071014408 .1743164 .109191898V.3828125H.09863281C.08886719 .3828125 .08186849 .3847402 .07763672 .38859559 .073404949 .39246116 .07128906 .39745078 .07128906 .40356446 .07128906 .40935264 .073404949 .4141744 .07763672 .4180298 .08186849 .42189536 .08886719 .42382813 .09863281 .42382813H.1743164V.54571536C.1743164 .5555522 .17626953 .5625966 .18017578 .56684878 .18408203 .571111 .18896485 .5732422 .19482422 .5732422 .20100911 .5732422 .20605469 .571111 .20996094 .56684878 .21386719 .5625966 .21582031 .5555522 .21582031 .54571536V.42382813Z"/>
<path id="font_2_7" d="M.4711914 .38275147V.396286C.4711914 .40627543 .47314454 .4133606 .47705079 .4175415 .48095704 .42173258 .48583985 .42382813 .49169923 .42382813 .49788413 .42382813 .5029297 .42171226 .50683596 .41748048 .5107422 .4132487 .5126953 .40608726 .5126953 .3959961V.30322267C.5123698 .2931315 .51033529 .28597007 .5065918 .28173829 .5028483 .2775065 .49788413 .27539063 .49169923 .27539063 .48616538 .27539063 .4815267 .27726747 .4777832 .28102113 .4740397 .28478495 .47184245 .29108177 .4711914 .2999115 .46923829 .32311503 .45402018 .34517417 .4255371 .36608888 .39705406 .38700358 .35872398 .39746095 .31054688 .39746095 .24967449 .39746095 .20345052 .3783671 .171875 .34017945 .14029949 .3019918 .12451172 .2582601 .12451172 .20898438 .12451172 .15578206 .14192708 .11188253 .17675781 .07728577 .21158855 .042689008 .2566732 .025390625 .31201173 .025390625 .34391276 .025390625 .37638346 .03131612 .40942384 .043167116 .4424642 .05502828 .47233073 .074132289 .49902345 .100479129 .5058594 .10706075 .51188156 .11035156 .51708987 .11035156 .5226237 .11035156 .5272624 .10846456 .53100588 .10469055 .5347493 .10091654 .5366211 .09624227 .5366211 .090667728 .5366211 .07655843 .5201823 .058680219 .4873047 .03703308 .43424479 .0019276937 .37516276-.015625 .3100586-.015625 .24397786-.015625 .18969727 .005472819 .1472168 .047668458 .10473633 .08987427 .083496097 .1434021 .083496097 .20825196 .083496097 .2744039 .10522461 .3293101 .14868164 .37297059 .19213867 .41664125 .24690755 .43847657 .31298829 .43847657 .3758138 .43847657 .4285482 .41990153 .4711914 .38275147Z"/>
<path id="font_2_11" d="M.16503906 .61328127V.36123658C.19108074 .3895874 .21606446 .4095459 .23999024 .42111207 .26391603 .4326884 .2906901 .43847657 .3203125 .43847657 .35221354 .43847657 .37931315 .43284608 .40161134 .42158509 .42390953 .41033427 .44254557 .39304099 .45751954 .3697052 .4724935 .34636943 .47998048 .32181297 .47998048 .29603578V.041015626H.5258789C.53597006 .041015626 .5430501 .03914388 .54711917 .03540039 .5511882 .031656904 .55322268 .026692709 .55322268 .020507813 .55322268 .0146484379 .5511882 .009765625 .54711917 .005859375 .5430501 .001953125 .53597006 0 .5258789 0H.39257813C.38248698 0 .37532554 .001953125 .37109376 .005859375 .36686198 .009765625 .3647461 .0146484379 .3647461 .020507813 .3647461 .026692709 .36686198 .031656904 .37109376 .03540039 .37532554 .03914388 .38248698 .041015626 .39257813 .041015626H.43847657V.2931671C.43847657 .32287089 .42781578 .3476766 .40649415 .36758424 .38517253 .38750205 .35546876 .39746095 .3173828 .39746095 .2874349 .39746095 .2618815 .39012147 .24072266 .3754425 .22542317 .36499534 .20019531 .34035746 .16503906 .30152894V.041015626H.21142578C.2211914 .041015626 .22819011 .03914388 .23242188 .03540039 .23665364 .031656904 .23876953 .026692709 .23876953 .020507813 .23876953 .0146484379 .23665364 .009765625 .23242188 .005859375 .22819011 .001953125 .2211914 0 .21142578 0H.07763672C.067871097 0 .060872396 .001953125 .056640626 .005859375 .052408857 .009765625 .05029297 .0146484379 .05029297 .020507813 .05029297 .026692709 .052408857 .031656904 .056640626 .03540039 .060872396 .03914388 .067871097 .041015626 .07763672 .041015626H.12402344V.5722656H.068847659C.05908203 .5722656 .052083333 .574173 .047851564 .5779877 .043619794 .58180239 .041503908 .58673098 .041503908 .59277346 .041503908 .5986328 .043619794 .6035156 .047851564 .6074219 .052083333 .6113281 .05908203 .61328127 .068847659 .61328127H.16503906Z"/>
<path id="font_2_16" d="M.5292969 .21118164C.5292969 .14861043 .5069173 .09516398 .4621582 .050842287 .41739909 .0065307619 .363444-.015625 .30029298-.015625 .23649089-.015625 .18229167 .006612142 .13769531 .051086427 .09309896 .095570888 .07080078 .14893596 .07080078 .21118164 .07080078 .27375285 .09309896 .3272756 .13769531 .37174989 .18229167 .41623435 .23649089 .43847657 .30029298 .43847657 .363444 .43847657 .41739909 .4163157 .4621582 .37199403 .5069173 .3276825 .5292969 .27407838 .5292969 .21118164M.48779298 .21142578C.48779298 .26299034 .46948243 .30688478 .43286134 .34310914 .39624024 .37934367 .35188804 .39746095 .2998047 .39746095 .24772136 .39746095 .20336914 .3792623 .16674805 .342865 .13012696 .30647788 .111816409 .2626648 .111816409 .21142578 .111816409 .16051229 .13012696 .11677551 .16674805 .080215457 .20336914 .04366557 .24772136 .025390625 .2998047 .025390625 .35188804 .025390625 .39624024 .043584188 .43286134 .07997131 .46948243 .116368617 .48779298 .16018677 .48779298 .21142578Z"/>
<path id="font_2_14" d="M.11328125 .42382813V.38275147C.14811199 .41990153 .18310547 .43847657 .21826172 .43847657 .23942058 .43847657 .25797526 .43289186 .27392579 .4217224 .2898763 .41056315 .30322267 .3936564 .31396485 .3710022 .332194 .3936564 .35066734 .41056315 .36938478 .4217224 .3881022 .43289186 .40690104 .43847657 .42578126 .43847657 .45540367 .43847657 .4790039 .42884828 .49658204 .40959168 .51969406 .38479106 .53125 .3577067 .53125 .32833863V.041015626H.56591799C.5756836 .041015626 .5826823 .03914388 .58691409 .03540039 .5911458 .031656904 .5932617 .026692709 .5932617 .020507813 .5932617 .0146484379 .5911458 .009765625 .58691409 .005859375 .5826823 .001953125 .5756836 0 .56591799 0H.49023438V.32492066C.49023438 .34583537 .48388673 .36315409 .4711914 .37687684 .4584961 .39059959 .44384767 .39746095 .4272461 .39746095 .41227214 .39746095 .39648438 .39182536 .3798828 .3805542 .36328126 .36928306 .34440104 .3471476 .3232422 .31414796V.041015626H.35742188C.3671875 .041015626 .3741862 .03914388 .37841798 .03540039 .38264976 .031656904 .38476563 .026692709 .38476563 .020507813 .38476563 .0146484379 .38264976 .009765625 .37841798 .005859375 .3741862 .001953125 .3671875 0 .35742188 0H.28173829V.32199098C.28173829 .34388224 .27530924 .36193339 .26245118 .3761444 .2495931 .39035545 .2351888 .39746095 .21923828 .39746095 .20458985 .39746095 .19010417 .39272563 .17578125 .383255 .15592449 .3698578 .13509114 .3468221 .11328125 .31414796V.041015626H.14794922C.15771485 .041015626 .16471355 .03914388 .16894531 .03540039 .17317708 .031656904 .17529297 .026692709 .17529297 .020507813 .17529297 .0146484379 .17317708 .009765625 .16894531 .005859375 .16471355 .001953125 .15771485 0 .14794922 0H.037597658C.027832032 0 .020833334 .001953125 .016601563 .005859375 .012369792 .009765625 .010253906 .0146484379 .010253906 .020507813 .010253906 .026692709 .012369792 .031656904 .016601563 .03540039 .020833334 .03914388 .027832032 .041015626 .037597658 .041015626H.072265628V.3828125H.037597658C.027832032 .3828125 .020833334 .38476563 .016601563 .38867188 .012369792 .39257813 .010253906 .3976237 .010253906 .4038086 .010253906 .40952555 .012369792 .41429139 .016601563 .41810609 .020833334 .42192079 .027832032 .42382813 .037597658 .42382813H.11328125Z"/>
<path id="font_2_21" d="M.4404297 0V.06059265C.3844401 .009780884 .32389323-.015625 .25878907-.015625 .21875-.015625 .1883138-.0046946208 .16748047 .017166138 .14046224 .04588318 .12695313 .079330448 .12695313 .117507938V.3828125H.071777347C.06201172 .3828125 .05501302 .38476563 .05078125 .38867188 .04654948 .39257813 .044433595 .3976237 .044433595 .4038086 .044433595 .40952555 .04654948 .41429139 .05078125 .41810609 .05501302 .42192079 .06201172 .42382813 .071777347 .42382813H.16796875V.11729431C.16796875 .09057108 .1764323 .068573 .19335938 .05130005 .21028646 .0340271 .23144531 .025390625 .25683595 .025390625 .32356773 .025390625 .38476563 .05602519 .4404297 .11729431V.3828125H.3647461C.35498048 .3828125 .34798179 .38476563 .34375 .38867188 .33951823 .39257813 .33740235 .3976237 .33740235 .4038086 .33740235 .40952555 .33951823 .41429139 .34375 .41810609 .34798179 .42192079 .35498048 .42382813 .3647461 .42382813H.4814453V.041015626H.5161133C.5258789 .041015626 .5328776 .03914388 .5371094 .03540039 .5413411 .031656904 .54345706 .026692709 .54345706 .020507813 .54345706 .0146484379 .5413411 .009765625 .5371094 .005859375 .5328776 .001953125 .5258789 0 .5161133 0H.4404297Z"/>
<path id="font_2_19" d="M.43554688 .39746095C.43554688 .40672813 .4375 .4134369 .44140626 .41758729 .4453125 .42174784 .4501953 .42382813 .4560547 .42382813 .4622396 .42382813 .46728517 .42170207 .4711914 .41744996 .47509767 .413208 .47705079 .40602113 .47705079 .39588929V.32530213C.47705079 .31549583 .47509767 .30846659 .4711914 .30421449 .46728517 .29997254 .4622396 .29785157 .4560547 .29785157 .45052085 .29785157 .44588218 .2996572 .44213868 .30326844 .43839518 .30688987 .4361979 .31281028 .43554688 .32102967 .43359376 .34075419 .4235026 .35702516 .40527345 .36984254 .37858073 .3882548 .34326173 .39746095 .2993164 .39746095 .25341798 .39746095 .21777344 .3881836 .19238281 .3696289 .17317708 .3556315 .16357422 .3400065 .16357422 .3227539 .16357422 .30322267 .17496746 .28694663 .1977539 .27392579 .2133789 .2648112 .2430013 .2578125 .2866211 .2529297 .34358726 .24672444 .38313804 .23970032 .40527345 .2318573 .43684898 .22042339 .46036784 .20457459 .47583009 .18431092 .49129234 .16405742 .49902345 .14217122 .49902345 .118652347 .49902345 .08369955 .48225913 .052581788 .44873048 .025299073 .4152018-.0019836426 .3660482-.015625 .30126954-.015625 .23649089-.015625 .18343099 .00081380209 .14208985 .033691408 .14208985 .022460938 .1414388 .015192668 .14013672 .011886597 .13883464 .008590698 .13647461 .005783081 .13305664 .0034637452 .12963867 .0011545817 .1258138 0 .12158203 0 .115722659 0 .110839847 .0021209717 .106933597 .006362915 .103027347 .010615031 .10107422 .01763916 .10107422 .027435303V.112213138C.10107422 .12200928 .10294596 .12902832 .10668945 .13327027 .110432948 .13752239 .11539713 .13964844 .12158203 .13964844 .1274414 .13964844 .1324056 .13761394 .13647461 .13354492 .14054363 .1294759 .14257813 .12402344 .14257813 .1171875 .14257813 .10221354 .14632161 .08968099 .1538086 .079589847 .16520183 .063964847 .18334961 .05102539 .20825196 .040771486 .2331543 .030517579 .26367188 .025390625 .2998047 .025390625 .3531901 .025390625 .39290367 .035369874 .4189453 .05532837 .44498698 .075286868 .4580078 .09638977 .4580078 .118637088 .4580078 .14415996 .44482423 .16460674 .41845704 .17997742 .3917643 .19535828 .35294596 .20566304 .30200196 .21089173 .25105796 .21613057 .21451824 .2229716 .19238281 .2314148 .17024739 .23985799 .1529948 .2525228 .140625 .26940919 .1282552 .28630577 .12207031 .3044993 .12207031 .32398988 .12207031 .35906474 .13932292 .38691203 .17382813 .40753175 .20833333 .42816163 .24951172 .43847657 .29736329 .43847657 .3540039 .43847657 .4000651 .4248047 .43554688 .39746095Z"/>
<path id="font_2_18" d="M.25097657 .42382813V.3200531C.30436198 .36812846 .34431968 .3990682 .3708496 .4128723 .39737956 .4266866 .421875 .43359376 .44433595 .43359376 .46875 .43359376 .49145509 .4253184 .5124512 .4087677 .53344729 .392217 .5439453 .37967936 .5439453 .3711548 .5439453 .3649292 .5419108 .3597819 .5378418 .3557129 .53377279 .3516439 .5286458 .34960938 .52246096 .34960938 .51920577 .34960938 .5164388 .35017906 .51416018 .35131837 .51188156 .35245768 .5076497 .3561605 .50146487 .36242677 .49007163 .3739624 .48014323 .38187156 .4716797 .38615418 .46321617 .3904368 .45491538 .39257813 .44677735 .39257813 .4288737 .39257813 .40730796 .38542176 .38208009 .371109 .3568522 .35679627 .31315104 .32182823 .25097657 .26620484V.041015626H.4326172C.44270835 .041015626 .44986979 .03914388 .45410157 .03540039 .45833335 .031656904 .46044923 .026692709 .46044923 .020507813 .46044923 .0146484379 .45833335 .009765625 .45410157 .005859375 .44986979 .001953125 .44270835 0 .4326172 0H.110839847C.10107422 0 .09407552 .0019175211 .08984375 .0057525637 .08561198 .0095876059 .083496097 .014506022 .083496097 .020507813 .083496097 .026041666 .0855306 .030680338 .08959961 .034423829 .09366862 .038167318 .100748699 .040039064 .110839847 .040039064H.20996094V.3828125H.13427735C.12451172 .3828125 .11751302 .38476563 .11328125 .38867188 .10904948 .39257813 .106933597 .3976237 .106933597 .4038086 .106933597 .40952555 .1089681 .41429139 .11303711 .41810609 .11710612 .42192079 .124186199 .42382813 .13427735 .42382813H.25097657Z"/>
<path id="font_2_5" d="M.41796876 0V.059570314C.35839845 .0094401049 .29475913-.015625 .22705078-.015625 .17789714-.015625 .13948567-.0031738282 .111816409 .021728516 .08414713 .04663086 .0703125 .07714844 .0703125 .11328125 .0703125 .1529948 .088541667 .18766277 .125 .21728516 .16145833 .24690755 .21468099 .26171876 .28466798 .26171876 .3035482 .26171876 .324056 .26049806 .3461914 .25805665 .3683268 .25561524 .3922526 .25179038 .41796876 .24658203V.31341554C.41796876 .33602906 .4075521 .35568748 .38671876 .37239076 .3658854 .38910423 .3346354 .39746095 .29296876 .39746095 .26106773 .39746095 .2163086 .38804627 .1586914 .36921693 .14827474 .36591087 .14160156 .3642578 .13867188 .3642578 .13346355 .3642578 .12898763 .36621095 .12524414 .3701172 .12150065 .37402345 .119628909 .37890626 .119628909 .38476563 .119628909 .39029948 .12125651 .394694 .12451172 .39794923 .12906902 .40283204 .14746094 .40950523 .1796875 .41796876 .23046875 .43164063 .26888023 .43847657 .29492188 .43847657 .3466797 .43847657 .38704429 .42566935 .41601563 .40005494 .44498698 .37444053 .45947267 .34547935 .45947267 .3131714V.041015626H.51416018C.5242513 .041015626 .5314128 .03914388 .53564456 .03540039 .5398763 .031656904 .5419922 .026692709 .5419922 .020507813 .5419922 .0146484379 .5398763 .009765625 .53564456 .005859375 .5314128 .001953125 .5242513 0 .51416018 0H.41796876M.41796876 .20458985C.39876304 .2101237 .37841798 .2141927 .3569336 .21679688 .33544923 .21940105 .31282554 .22070313 .2890625 .22070313 .22949219 .22070313 .1829427 .20784505 .14941406 .1821289 .12402344 .16292317 .111328128 .13997396 .111328128 .11328125 .111328128 .088541667 .12101237 .067708339 .14038086 .05078125 .15974935 .033854169 .18798828 .025390625 .22509766 .025390625 .26057945 .025390625 .29353843 .032470704 .3239746 .04663086 .3544108 .060791017 .3857422 .083333339 .41796876 .11425781V.20458985Z"/>
<path id="font_2_24" d="M.30273438 .00016784668 .11230469 .3828125H.100097659C.09033203 .3828125 .083333339 .38476563 .07910156 .38867188 .07486979 .39257813 .072753909 .39746095 .072753909 .4033203 .072753909 .40745036 .07381185 .41118369 .075927738 .41452027 .07804362 .41786704 .08081055 .42025248 .084228519 .42167665 .087646488 .42311097 .092936199 .42382813 .100097659 .42382813H.21240235C.22216797 .42382813 .22916667 .42192079 .23339844 .41810609 .2376302 .41429139 .2397461 .4093628 .2397461 .4033203 .2397461 .39746095 .2376302 .39257813 .23339844 .38867188 .22916667 .38476563 .22216797 .3828125 .21240235 .3828125H.15722656L.32470704 .045791627 .4897461 .3828125H.4345703C.4248047 .3828125 .417806 .38476563 .41357423 .38867188 .40934245 .39257813 .40722657 .3976237 .40722657 .4038086 .40722657 .40952555 .40934245 .41429139 .41357423 .41810609 .417806 .42192079 .4248047 .42382813 .4345703 .42382813H.5463867C.55647787 .42382813 .56363937 .42192079 .5678711 .41810609 .57210287 .41429139 .57421877 .4093628 .57421877 .4033203 .57421877 .39908854 .5729167 .39518229 .5703125 .39160157 .5677083 .38802085 .5647786 .3856608 .56152346 .38452149 .55826827 .38338218 .5491536 .3828125 .5341797 .3828125L.27441407-.14746094H.3383789C.34814454-.14746094 .35514323-.14933269 .359375-.15307617 .36360679-.15681966 .36572267-.16178386 .36572267-.16796875 .36572267-.17382813 .36360679-.17871094 .359375-.18261719 .35514323-.18652344 .34814454-.18847656 .3383789-.18847656H.10205078C.092285159-.18847656 .08528646-.18660482 .08105469-.18286133 .076822917-.17911785 .07470703-.17415364 .07470703-.16796875 .07470703-.16178386 .076822917-.15681966 .08105469-.15307617 .08528646-.14933269 .092285159-.14746094 .10205078-.14746094H.23046875L.30273438 .00016784668Z"/>
<path id="font_2_4" d="M.3203125 .62109377V.041015626H.4609375C.47070313 .041015626 .4777018 .03914388 .4819336 .03540039 .48616538 .031656904 .48828126 .026692709 .48828126 .020507813 .48828126 .0146484379 .48616538 .009765625 .4819336 .005859375 .4777018 .001953125 .47070313 0 .4609375 0H.13867188C.12890625 0 .121907558 .001953125 .11767578 .005859375 .11344401 .009765625 .111328128 .0146484379 .111328128 .020507813 .111328128 .026692709 .11344401 .031656904 .11767578 .03540039 .121907558 .03914388 .12890625 .041015626 .13867188 .041015626H.27929688V.5644531L.14550781 .52246096C.13899739 .5205078 .13427735 .51953127 .13134766 .51953127 .12646485 .51953127 .12198893 .52156576 .11791992 .52563479 .113850917 .5297038 .111816409 .5345052 .111816409 .54003909 .111816409 .5449219 .11344401 .5494792 .11669922 .55371096 .11930338 .5563151 .12467448 .55908206 .1328125 .5620117L.3203125 .62109377Z"/>
<path id="font_2_10" d="M.43798829 .34892274V.42382813H.5341797C.5439453 .42382813 .55094406 .42192079 .5551758 .41810609 .55940756 .41429139 .56152346 .4093628 .56152346 .4033203 .56152346 .39746095 .55940756 .39257813 .5551758 .38867188 .55094406 .38476563 .5439453 .3828125 .5341797 .3828125H.4790039V-.027908326C.4790039-.055323285 .47314454-.07979838 .46142579-.10133362 .45361329-.11569723 .44059245-.13054912 .42236329-.14588928 .40413413-.16122945 .38753257-.17215984 .3725586-.17868042 .35758464-.18521118 .3375651-.18847656 .3125-.18847656H.19628906C.18652344-.18847656 .17952474-.18662517 .17529297-.18292237 .1710612-.17922974 .16894531-.17432659 .16894531-.16821289 .16894531-.1620992 .1710612-.15710958 .17529297-.15324402 .17952474-.14938863 .18652344-.14746094 .19628906-.14746094H.31396485C.33805339-.14746094 .3597819-.14127095 .3791504-.12889099 .3985189-.116511028 .41455079-.09842936 .4272461-.074645999 .43440757-.060963949 .43798829-.043533327 .43798829-.022354126V.10079956C.39404298 .04076131 .33740235 .0107421879 .2680664 .0107421879 .2117513 .0107421879 .16316732 .031677247 .12231445 .07354736 .081461589 .11542765 .061035158 .16586304 .061035158 .22485352 .061035158 .283844 .081461589 .3341929 .12231445 .37590028 .16316732 .4176178 .2117513 .43847657 .2680664 .43847657 .33740235 .43847657 .39404298 .40862528 .43798829 .34892274M.43798829 .22485352C.43798829 .27323405 .4214681 .31409709 .38842774 .34744264 .35538737 .38078819 .31591798 .39746095 .27001954 .39746095 .2241211 .39746095 .18473308 .3807068 .15185547 .3471985 .11897787 .3136902 .10253906 .27290855 .10253906 .22485352 .10253906 .17647298 .11897787 .13552857 .15185547 .10202026 .18473308 .06851196 .2241211 .051757814 .27001954 .051757814 .31591798 .051757814 .35538737 .06851196 .38842774 .10202026 .4214681 .13552857 .43798829 .17647298 .43798829 .22485352Z"/>
<path id="font_2_17" d="M.14550781 .42382813V.349411C.16992188 .37894187 .1961263 .40116883 .2241211 .41609193 .25211589 .431015 .28515626 .43847657 .3232422 .43847657 .36360679 .43847657 .4008789 .42902629 .4350586 .41012574 .46923829 .3912252 .49568687 .36490885 .5144043 .33117677 .53312179 .29744468 .54248049 .26200358 .54248049 .22485352 .54248049 .16586304 .521403 .11542765 .47924806 .07354736 .4370931 .031677247 .3852539 .0107421879 .32373048 .0107421879 .25048829 .0107421879 .19108074 .040430707 .14550781 .09980774V-.14746094H.24511719C.2548828-.14746094 .2618815-.14933269 .26611329-.15307617 .27034507-.15681966 .27246095-.16178386 .27246095-.16796875 .27246095-.17382813 .27034507-.17871094 .26611329-.18261719 .2618815-.18652344 .2548828-.18847656 .24511719-.18847656H.049316408C.03955078-.18847656 .032552083-.18660482 .028320313-.18286133 .024088541-.17911785 .021972657-.17415364 .021972657-.16796875 .021972657-.16178386 .024088541-.15681966 .028320313-.15307617 .032552083-.14933269 .03955078-.14746094 .049316408-.14746094H.10449219V.3828125H.049316408C.03955078 .3828125 .032552083 .38476563 .028320313 .38867188 .024088541 .39257813 .021972657 .3976237 .021972657 .4038086 .021972657 .40952555 .024088541 .41429139 .028320313 .41810609 .032552083 .42192079 .03955078 .42382813 .049316408 .42382813H.14550781M.50097659 .22485352C.50097659 .27225749 .48380534 .31287638 .4494629 .3467102 .41512046 .38054405 .37320964 .39746095 .32373048 .39746095 .27392579 .39746095 .23177083 .38046266 .19726563 .34646607 .16276042 .31246949 .14550781 .27193199 .14550781 .22485352 .14550781 .17744954 .16276042 .13674927 .19726563 .102752689 .23177083 .0687561 .27392579 .051757814 .32373048 .051757814 .37288413 .051757814 .41471354 .06867472 .44921876 .102508548 .48372398 .13634236 .50097659 .17712403 .50097659 .22485352Z"/>
<path id="font_2_23" d="M.44140626 0 .390625-.0009765625 .30029298 .26290895 .21044922-.0009765625 .15966797 0 .07470703 .3828125H.0546875C.044921876 .3828125 .037923177 .38476563 .033691408 .38867188 .029459635 .39257813 .02734375 .3976237 .02734375 .4038086 .02734375 .40952555 .029459635 .41429139 .033691408 .41810609 .037923177 .42192079 .044921876 .42382813 .0546875 .42382813H.16748047C.1772461 .42382813 .1842448 .42192079 .18847656 .41810609 .19270833 .41429139 .19482422 .4093628 .19482422 .4033203 .19482422 .39746095 .19270833 .39257813 .18847656 .38867188 .1842448 .38476563 .1772461 .3828125 .16748047 .3828125H.115234378L.18798828 .056640626 .27539063 .3154297H.32421876L.4140625 .055664064 .48388673 .3828125H.4321289C.42236329 .3828125 .4152832 .38476563 .41088868 .38867188 .40649415 .39257813 .40429688 .3976237 .40429688 .4038086 .40429688 .40952555 .40641276 .41429139 .41064454 .41810609 .4148763 .42192079 .42203776 .42382813 .4321289 .42382813H.5444336C.5545247 .42382813 .5616862 .42192079 .56591799 .41810609 .5701497 .41429139 .5722656 .4093628 .5722656 .4033203 .5722656 .39746095 .5701497 .39257813 .56591799 .38867188 .5616862 .38476563 .5545247 .3828125 .5444336 .3828125H.52490237L.44140626 0Z"/>
<path id="font_2_13" d="M.32080079 .61328127V.041015626H.4819336C.49202476 .041015626 .4991862 .03914388 .50341799 .03540039 .5076497 .031656904 .5097656 .026692709 .5097656 .020507813 .5097656 .0146484379 .5076497 .009765625 .50341799 .005859375 .4991862 .001953125 .49202476 0 .4819336 0H.118652347C.10888672 0 .10188802 .001953125 .09765625 .005859375 .09342448 .009765625 .091308597 .0146484379 .091308597 .020507813 .091308597 .026692709 .09342448 .031656904 .09765625 .03540039 .10188802 .03914388 .10888672 .041015626 .118652347 .041015626H.27978517V.5722656H.1616211C.15185547 .5722656 .14477539 .5741933 .14038086 .5780487 .13598633 .58191427 .13378906 .58690389 .13378906 .5930176 .13378906 .5988057 .13590496 .6036275 .14013672 .6074829 .14436849 .61134847 .15152996 .61328127 .1616211 .61328127H.32080079Z"/>
<path id="font_2_2" d="M.2915039 .1171875H.30908204C.3273112 .1171875 .3429362 .11073303 .35595704 .0978241 .36897788 .08492533 .37548829 .06932577 .37548829 .05102539 .37548829 .032073976 .36889649 .01622518 .3557129 .003479004 .3425293-.009256999 .3269857-.015625 .30908204-.015625H.2915039C.27327476-.015625 .25764976-.009175618 .2446289 .0037231446 .23160808 .01663208 .22509766 .032236738 .22509766 .05053711 .22509766 .069488529 .23168946 .08533224 .24487305 .09806824 .25805665 .110814418 .27360026 .1171875 .2915039 .1171875Z"/>
</defs>
<g clip-path="url(#clip_0)">
<g clip-path="url(#clip_1)">
<path transform="matrix(1,0,0,-1,-7.00537,535.33)" d="M0 539.9999H719.9999V.00003079383H0Z" fill="#ffffff" fill-rule="evenodd"/>
<use data-text="/" xlink:href="#font_2_3" transform="matrix(16,0,0,-16,312.19465,14.929993)"/>
<use data-text=" " xlink:href="#font_2_1" transform="matrix(16,0,0,-16,321.79624,14.929993)"/>
<use data-text="b" xlink:href="#font_2_6" transform="matrix(16,0,0,-16,13.923209,71.930118)"/>
<use data-text="i" xlink:href="#font_2_12" transform="matrix(16,0,0,-16,23.52481,71.930118)"/>
<use data-text="n" xlink:href="#font_2_15" transform="matrix(16,0,0,-16,33.12641,71.930118)"/>
<use data-text="/" xlink:href="#font_2_3" transform="matrix(16,0,0,-16,42.728013,71.930118)"/>
<use data-text=" " xlink:href="#font_2_1" transform="matrix(16,0,0,-16,52.329614,71.930118)"/>
<use data-text="d" xlink:href="#font_2_8" transform="matrix(16,0,0,-16,90.19462,71.930118)"/>
<use data-text="e" xlink:href="#font_2_9" transform="matrix(16,0,0,-16,99.79622,71.930118)"/>
<use data-text="v" xlink:href="#font_2_22" transform="matrix(16,0,0,-16,109.39782,71.930118)"/>
<use data-text="/" xlink:href="#font_2_3" transform="matrix(16,0,0,-16,118.999309,71.930118)"/>
<use data-text=" " xlink:href="#font_2_1" transform="matrix(16,0,0,-16,128.6009,71.930118)"/>
<use data-text="e" xlink:href="#font_2_9" transform="matrix(16,0,0,-16,187.34693,71.930118)"/>
<use data-text="t" xlink:href="#font_2_20" transform="matrix(16,0,0,-16,196.94852,71.930118)"/>
<use data-text="c" xlink:href="#font_2_7" transform="matrix(16,0,0,-16,206.55013,71.930118)"/>
<use data-text="/" xlink:href="#font_2_3" transform="matrix(16,0,0,-16,216.15161,71.930118)"/>
<use data-text=" " xlink:href="#font_2_1" transform="matrix(16,0,0,-16,225.7532,71.930118)"/>
<use data-text="h" xlink:href="#font_2_11" transform="matrix(16,0,0,-16,351.17723,71.930118)"/>
<use data-text="o" xlink:href="#font_2_16" transform="matrix(16,0,0,-16,360.7788,71.930118)"/>
<use data-text="m" xlink:href="#font_2_14" transform="matrix(16,0,0,-16,370.38044,71.930118)"/>
<use data-text="e" xlink:href="#font_2_9" transform="matrix(16,0,0,-16,379.98204,71.930118)"/>
<use data-text="/" xlink:href="#font_2_3" transform="matrix(16,0,0,-16,389.58363,71.930118)"/>
<use data-text=" " xlink:href="#font_2_1" transform="matrix(16,0,0,-16,399.1852,71.930118)"/>
<use data-text="u" xlink:href="#font_2_21" transform="matrix(16,0,0,-16,558.8726,71.930118)"/>
<use data-text="s" xlink:href="#font_2_19" transform="matrix(16,0,0,-16,568.47427,71.930118)"/>
<use data-text="r" xlink:href="#font_2_18" transform="matrix(16,0,0,-16,578.0758,71.930118)"/>
<use data-text="/" xlink:href="#font_2_3" transform="matrix(16,0,0,-16,587.6773,71.930118)"/>
<use data-text=" " xlink:href="#font_2_1" transform="matrix(16,0,0,-16,597.27896,71.930118)"/>
<use data-text="b" xlink:href="#font_2_6" transform="matrix(16,0,0,-16,13.923209,122.93002)"/>
<use data-text="a" xlink:href="#font_2_5" transform="matrix(16,0,0,-16,23.52481,122.93002)"/>
<use data-text="s" xlink:href="#font_2_19" transform="matrix(16,0,0,-16,33.12641,122.93002)"/>
<use data-text="h" xlink:href="#font_2_11" transform="matrix(16,0,0,-16,42.728013,122.93002)"/>
<use data-text=" " xlink:href="#font_2_1" transform="matrix(16,0,0,-16,52.329614,122.93002)"/>
<use data-text="t" xlink:href="#font_2_20" transform="matrix(16,0,0,-16,90.19462,122.93002)"/>
<use data-text="t" xlink:href="#font_2_20" transform="matrix(16,0,0,-16,99.79622,122.93002)"/>
<use data-text="y" xlink:href="#font_2_24" transform="matrix(16,0,0,-16,109.39782,122.93002)"/>
<use data-text="1" xlink:href="#font_2_4" transform="matrix(16,0,0,-16,118.99942,122.93002)"/>
<use data-text=" " xlink:href="#font_2_1" transform="matrix(16,0,0,-16,128.60102,122.93002)"/>
<use data-text="g" xlink:href="#font_2_10" transform="matrix(16,0,0,-16,154.32953,122.93002)"/>
<use data-text="r" xlink:href="#font_2_18" transform="matrix(16,0,0,-16,163.93112,122.93002)"/>
<use data-text="o" xlink:href="#font_2_16" transform="matrix(16,0,0,-16,173.53273,122.93002)"/>
<use data-text="u" xlink:href="#font_2_21" transform="matrix(16,0,0,-16,183.13434,122.93002)"/>
<use data-text="p" xlink:href="#font_2_17" transform="matrix(16,0,0,-16,192.73593,122.93002)"/>
<use data-text=" " xlink:href="#font_2_1" transform="matrix(16,0,0,-16,202.33753,122.93002)"/>
<use data-text="p" xlink:href="#font_2_17" transform="matrix(16,0,0,-16,215.48203,122.93002)"/>
<use data-text="a" xlink:href="#font_2_5" transform="matrix(16,0,0,-16,225.08362,122.93002)"/>
<use data-text="s" xlink:href="#font_2_19" transform="matrix(16,0,0,-16,234.68523,122.93002)"/>
<use data-text="s" xlink:href="#font_2_19" transform="matrix(16,0,0,-16,244.28684,122.93002)"/>
<use data-text="w" xlink:href="#font_2_23" transform="matrix(16,0,0,-16,253.88843,122.93002)"/>
<use data-text="d" xlink:href="#font_2_8" transform="matrix(16,0,0,-16,263.49003,122.93002)"/>
<use data-text=" " xlink:href="#font_2_1" transform="matrix(16,0,0,-16,273.0914,122.93002)"/>
<use data-text="d" xlink:href="#font_2_8" transform="matrix(16,0,0,-16,317.48194,122.93002)"/>
<use data-text="r" xlink:href="#font_2_18" transform="matrix(16,0,0,-16,327.08354,122.93002)"/>
<use data-text="o" xlink:href="#font_2_16" transform="matrix(16,0,0,-16,336.68513,122.93002)"/>
<use data-text="h" xlink:href="#font_2_11" transform="matrix(16,0,0,-16,346.28675,122.93002)"/>
<use data-text="/" xlink:href="#font_2_3" transform="matrix(16,0,0,-16,355.88835,122.93002)"/>
<use data-text=" " xlink:href="#font_2_1" transform="matrix(16,0,0,-16,365.48994,122.93002)"/>
<use data-text="b" xlink:href="#font_2_6" transform="matrix(16,0,0,-16,385.78663,122.93002)"/>
<use data-text="r" xlink:href="#font_2_18" transform="matrix(16,0,0,-16,395.3882,122.93002)"/>
<use data-text="y" xlink:href="#font_2_24" transform="matrix(16,0,0,-16,404.9898,122.93002)"/>
<use data-text="a" xlink:href="#font_2_5" transform="matrix(16,0,0,-16,414.59144,122.93002)"/>
<use data-text="n" xlink:href="#font_2_15" transform="matrix(16,0,0,-16,424.19303,122.93002)"/>
<use data-text="t" xlink:href="#font_2_20" transform="matrix(16,0,0,-16,433.79463,122.93002)"/>
<use data-text="/" xlink:href="#font_2_3" transform="matrix(16,0,0,-16,443.396,122.93002)"/>
<use data-text=" " xlink:href="#font_2_1" transform="matrix(16,0,0,-16,452.99763,122.93002)"/>
<use data-text="i" xlink:href="#font_2_12" transform="matrix(16,0,0,-16,480.19453,122.93002)"/>
<use data-text="n" xlink:href="#font_2_15" transform="matrix(16,0,0,-16,489.7961,122.93002)"/>
<use data-text="c" xlink:href="#font_2_7" transform="matrix(16,0,0,-16,499.3977,122.93002)"/>
<use data-text="l" xlink:href="#font_2_13" transform="matrix(16,0,0,-16,508.99934,122.93002)"/>
<use data-text="u" xlink:href="#font_2_21" transform="matrix(16,0,0,-16,518.60098,122.93002)"/>
<use data-text="d" xlink:href="#font_2_8" transform="matrix(16,0,0,-16,528.2025,122.93002)"/>
<use data-text="e" xlink:href="#font_2_9" transform="matrix(16,0,0,-16,537.80416,122.93002)"/>
<use data-text="/" xlink:href="#font_2_3" transform="matrix(16,0,0,-16,547.4057,122.93002)"/>
<use data-text=" " xlink:href="#font_2_1" transform="matrix(16,0,0,-16,557.0073,122.93002)"/>
<use data-text="b" xlink:href="#font_2_6" transform="matrix(16,0,0,-16,612.87258,122.93002)"/>
<use data-text="i" xlink:href="#font_2_12" transform="matrix(16,0,0,-16,622.4742,122.93002)"/>
<use data-text="n" xlink:href="#font_2_15" transform="matrix(16,0,0,-16,632.07577,122.93002)"/>
<use data-text="/" xlink:href="#font_2_3" transform="matrix(16,0,0,-16,641.67739,122.93002)"/>
<use data-text=" " xlink:href="#font_2_1" transform="matrix(16,0,0,-16,651.27896,122.93002)"/>
<use data-text="s" xlink:href="#font_2_19" transform="matrix(16,0,0,-16,444.19453,188.93003)"/>
<use data-text="t" xlink:href="#font_2_20" transform="matrix(16,0,0,-16,453.7961,188.93003)"/>
<use data-text="d" xlink:href="#font_2_8" transform="matrix(16,0,0,-16,463.3977,188.93003)"/>
<use data-text="i" xlink:href="#font_2_12" transform="matrix(16,0,0,-16,472.99934,188.93003)"/>
<use data-text="o" xlink:href="#font_2_16" transform="matrix(16,0,0,-16,482.60093,188.93003)"/>
<use data-text="." xlink:href="#font_2_2" transform="matrix(16,0,0,-16,492.2025,188.93003)"/>
<use data-text="h" xlink:href="#font_2_11" transform="matrix(16,0,0,-16,501.80415,188.93003)"/>
<use data-text=" " xlink:href="#font_2_1" transform="matrix(16,0,0,-16,511.40547,188.93003)"/>
<use data-text="v" xlink:href="#font_2_22" transform="matrix(16,0,0,-16,617.7202,188.93003)"/>
<use data-text="i" xlink:href="#font_2_12" transform="matrix(16,0,0,-16,627.32186,188.93003)"/>
<use data-text="m" xlink:href="#font_2_14" transform="matrix(16,0,0,-16,636.9234,188.93003)"/>
<use data-text=" " xlink:href="#font_2_1" transform="matrix(16,0,0,-16,646.525,188.93003)"/>
<use data-text="s" xlink:href="#font_2_19" transform="matrix(16,0,0,-16,541.5852,188.93003)"/>
<use data-text="y" xlink:href="#font_2_24" transform="matrix(16,0,0,-16,551.1868,188.93003)"/>
<use data-text="s" xlink:href="#font_2_19" transform="matrix(16,0,0,-16,560.7884,188.93003)"/>
<use data-text="/" xlink:href="#font_2_3" transform="matrix(16,0,0,-16,570.39,188.93003)"/>
<use data-text=" " xlink:href="#font_2_1" transform="matrix(16,0,0,-16,579.9916,188.93003)"/>
<use data-text="u" xlink:href="#font_2_21" transform="matrix(16,0,0,-16,522.19467,258.27223)"/>
<use data-text="n" xlink:href="#font_2_15" transform="matrix(16,0,0,-16,531.79629,258.27223)"/>
<use data-text="i" xlink:href="#font_2_12" transform="matrix(16,0,0,-16,541.3978,258.27223)"/>
<use data-text="s" xlink:href="#font_2_19" transform="matrix(16,0,0,-16,550.99948,258.27223)"/>
<use data-text="t" xlink:href="#font_2_20" transform="matrix(16,0,0,-16,560.6011,258.27223)"/>
<use data-text="d" xlink:href="#font_2_8" transform="matrix(16,0,0,-16,570.20266,258.27223)"/>
<use data-text="." xlink:href="#font_2_2" transform="matrix(16,0,0,-16,579.80429,258.27223)"/>
<use data-text="h" xlink:href="#font_2_11" transform="matrix(16,0,0,-16,589.4058,258.27223)"/>
<use data-text=" " xlink:href="#font_2_1" transform="matrix(16,0,0,-16,599.00717,258.27223)"/>
<path transform="matrix(-.00007874014,-0,0,.00007874014,317.11265,21.987793)" stroke-width="12700" stroke-linecap="butt" stroke-linejoin="round" fill="none" stroke="#000000" d="M.008802772 .02618718 3603351 385345.9"/>
<path transform="matrix(-.00007874014,-0,0,.00007874014,317.11265,21.987793)" stroke-width="12700" stroke-linecap="butt" stroke-linejoin="round" fill="none" stroke="#000000" d="M.008802772 .02618718 2634704 385345.9"/>
<path transform="matrix(-.00007874014,-0,0,.00007874014,317.11265,21.987793)" stroke-width="12700" stroke-linecap="butt" stroke-linejoin="round" fill="none" stroke="#000000" d="M.008802772 .02618718 1400869 385345.9"/>
<path transform="matrix(.00007874014,0,0,.00007874014,317.11265,21.987793)" stroke-width="12700" stroke-linecap="butt" stroke-linejoin="round" fill="none" stroke="#000000" d="M-.008802772 .02618718 741340.9 385345.9"/>
<path transform="matrix(.00007874014,0,0,.00007874014,317.11265,21.987793)" stroke-width="12700" stroke-linecap="butt" stroke-linejoin="round" fill="none" stroke="#000000" d="M-.008802772 .02618718 3317507 385345.9"/>
<path transform="matrix(-.00007874014,-0,0,.00007874014,375.48594,78.98782)" stroke-width="12700" stroke-linecap="butt" stroke-linejoin="round" fill="none" stroke="#000000" d="M.098894 .1375153 427930.2 309146"/>
<path transform="matrix(.00007874014,0,0,.00007874014,375.48594,78.98782)" stroke-width="12700" stroke-linecap="butt" stroke-linejoin="round" fill="none" stroke="#000000" d="M-.098894 .1375153 562669.9 309146"/>
<path transform="matrix(.00007874014,0,0,.00007874014,341.79063,129.98783)" stroke-width="12700" stroke-linecap="butt" stroke-linejoin="round" fill="none" stroke="#000000" d="M.1416914 .2371247 1.304411 537746.2"/>
<path transform="matrix(.00007874014,0,0,.00007874014,33.384229,78.98782)" stroke-width="12700" stroke-linecap="butt" stroke-linejoin="round" fill="none" stroke="#000000" d="M.001432329 .1375153 1.018812 309146"/>
<path transform="matrix(.00007874014,0,0,.00007874014,109.65563,78.98782)" stroke-width="12700" stroke-linecap="butt" stroke-linejoin="round" fill="none" stroke="#000000" d="M-.03261401 .1375153 .9363192 309146"/>
<path transform="matrix(-.00007874014,-0,0,.00007874014,206.80803,78.98782)" stroke-width="12700" stroke-linecap="butt" stroke-linejoin="round" fill="none" stroke="#000000" d="M-.01965499 .1375153 357755.9 309146"/>
<path transform="matrix(.00007874014,0,0,.00007874014,206.80803,78.98782)" stroke-width="12700" stroke-linecap="butt" stroke-linejoin="round" fill="none" stroke="#000000" d="M.01965499 .1375153 480445 309146"/>
<path transform="matrix(-.00007874014,-0,0,.00007874014,578.3336,78.98782)" stroke-width="12700" stroke-linecap="butt" stroke-linejoin="round" fill="none" stroke="#000000" d="M.1931856 .1375153 752950.5 309146"/>
<path transform="matrix(.00007874014,0,0,.00007874014,578.3336,78.98782)" stroke-width="12700" stroke-linecap="butt" stroke-linejoin="round" fill="none" stroke="#000000" d="M-.1931856 .1375153 685799.9 309146"/>
<path transform="matrix(-.00007874014,-0,0,.00007874014,519.0462,129.98783)" stroke-width="12700" stroke-linecap="butt" stroke-linejoin="round" fill="none" stroke="#000000" d="M-.02622378 .2371247 518764.9 499646.2"/>
<path transform="matrix(.00007874014,0,0,.00007874014,519.0462,129.98783)" stroke-width="12700" stroke-linecap="butt" stroke-linejoin="round" fill="none" stroke="#000000" d="M.02622378 .2371247 533400.1 499646.2"/>
<path transform="matrix(-.00007874014,-0,0,.00007874014,632.3336,129.98783)" stroke-width="12700" stroke-linecap="butt" stroke-linejoin="round" fill="none" stroke="#000000" d="M.08771682 .2371247 .8628634 499646.2"/>
<path transform="matrix(.00007874014,0,0,.00007874014,561.0462,195.98783)" stroke-width="12700" stroke-linecap="butt" stroke-linejoin="round" fill="none" stroke="#000000" d="M.108255-.1339691 .8834016 542091.7"/>
<use data-text="h" xlink:href="#font_2_11" transform="matrix(16,0,0,-16,307.78663,188.93003)"/>
<use data-text="e" xlink:href="#font_2_9" transform="matrix(16,0,0,-16,317.3882,188.93003)"/>
<use data-text="l" xlink:href="#font_2_13" transform="matrix(16,0,0,-16,326.9898,188.93003)"/>
<use data-text="l" xlink:href="#font_2_13" transform="matrix(16,0,0,-16,336.59144,188.93003)"/>
<use data-text="o" xlink:href="#font_2_16" transform="matrix(16,0,0,-16,346.19303,188.93003)"/>
<use data-text="." xlink:href="#font_2_2" transform="matrix(16,0,0,-16,355.79463,188.93003)"/>
<use data-text="c" xlink:href="#font_2_7" transform="matrix(16,0,0,-16,365.39625,188.93003)"/>
<use data-text=" " xlink:href="#font_2_1" transform="matrix(16,0,0,-16,374.99757,188.93003)"/>
</g>
</g>
</svg>
