<?xml version="1.0" encoding="UTF-8" standalone="no"?><svg xmlns="http://www.w3.org/2000/svg" xmlns:xlink="http://www.w3.org/1999/xlink" contentScriptType="application/ecmascript" contentStyleType="text/css" height="197px" preserveAspectRatio="none" style="width:415px;height:197px;" version="1.1" viewBox="0 0 415 197" width="415px" zoomAndPan="magnify"><defs><filter height="300%" id="f3i6u0124n4ef" width="300%" x="-1" y="-1"><feGaussianBlur result="blurOut" stdDeviation="2.0"/><feColorMatrix in="blurOut" result="blurOut2" type="matrix" values="0 0 0 0 0 0 0 0 0 0 0 0 0 0 0 0 0 0 .4 0"/><feOffset dx="4.0" dy="4.0" in="blurOut2" result="blurOut3"/><feBlend in="SourceGraphic" in2="blurOut3" mode="normal"/></filter></defs><g><!--class State--><rect fill="#FEFECE" filter="url(#f3i6u0124n4ef)" height="32" id="State" style="stroke: #A80036; stroke-width: 1.5;" width="60" x="126" y="8"/><ellipse cx="141" cy="24" fill="#ADD1B2" rx="11" ry="11" style="stroke: #A80036; stroke-width: 1.0;"/><path d="M143.4731,30.1431 Q142.8921,30.4419 142.2529,30.5913 Q141.6138,30.7407 140.9082,30.7407 Q138.4014,30.7407 137.0815,29.0889 Q135.7617,27.437 135.7617,24.3159 Q135.7617,21.1865 137.0815,19.5347 Q138.4014,17.8828 140.9082,17.8828 Q141.6138,17.8828 142.2612,18.0322 Q142.9087,18.1816 143.4731,18.4805 L143.4731,21.2031 Q142.8423,20.6221 142.2488,20.3523 Q141.6553,20.0825 141.0244,20.0825 Q139.6797,20.0825 138.9949,21.1492 Q138.3101,22.2158 138.3101,24.3159 Q138.3101,26.4077 138.9949,27.4744 Q139.6797,28.541 141.0244,28.541 Q141.6553,28.541 142.2488,28.2712 Q142.8423,28.0015 143.4731,27.4204 Z "/><text fill="#000000" font-family="sans-serif" font-size="12" lengthAdjust="spacingAndGlyphs" textLength="28" x="155" y="28.5352">State</text><!--class Originator--><rect fill="#FEFECE" filter="url(#f3i6u0124n4ef)" height="86.8652" id="Originator" style="stroke: #A80036; stroke-width: 1.5;" width="148" x="6" y="100"/><ellipse cx="47.55" cy="116" fill="#ADD1B2" rx="11" ry="11" style="stroke: #A80036; stroke-width: 1.0;"/><path d="M50.0231,122.1431 Q49.4421,122.4419 48.8029,122.5913 Q48.1638,122.7407 47.4582,122.7407 Q44.9514,122.7407 43.6315,121.0889 Q42.3117,119.437 42.3117,116.3159 Q42.3117,113.1865 43.6315,111.5347 Q44.9514,109.8828 47.4582,109.8828 Q48.1638,109.8828 48.8112,110.0322 Q49.4587,110.1816 50.0231,110.4805 L50.0231,113.2031 Q49.3923,112.6221 48.7988,112.3523 Q48.2053,112.0825 47.5744,112.0825 Q46.2297,112.0825 45.5449,113.1492 Q44.8601,114.2158 44.8601,116.3159 Q44.8601,118.4077 45.5449,119.4744 Q46.2297,120.541 47.5744,120.541 Q48.2053,120.541 48.7988,120.2712 Q49.3923,120.0015 50.0231,119.4204 Z "/><text fill="#000000" font-family="sans-serif" font-size="12" lengthAdjust="spacingAndGlyphs" textLength="57" x="67.45" y="120.5352">Originator</text><line style="stroke: #A80036; stroke-width: 1.5;" x1="7" x2="153" y1="132" y2="132"/><rect fill="none" height="6" style="stroke: #C82930; stroke-width: 1.0;" width="6" x="14" y="140.9775"/><text fill="#000000" font-family="sans-serif" font-size="11" lengthAdjust="spacingAndGlyphs" textLength="61" x="26" y="146.6348">state : State</text><line style="stroke: #A80036; stroke-width: 1.5;" x1="7" x2="153" y1="152.9551" y2="152.9551"/><ellipse cx="17" cy="164.9326" fill="#84BE84" rx="3" ry="3" style="stroke: #038048; stroke-width: 1.0;"/><text fill="#000000" font-family="sans-serif" font-size="11" lengthAdjust="spacingAndGlyphs" textLength="92" x="26" y="167.5898">CreateMemento()</text><ellipse cx="17" cy="177.8877" fill="#84BE84" rx="3" ry="3" style="stroke: #038048; stroke-width: 1.0;"/><text fill="#000000" font-family="sans-serif" font-size="11" lengthAdjust="spacingAndGlyphs" textLength="122" x="26" y="180.5449">SetMemento(Memento)</text><!--class Memento--><rect fill="#FEFECE" filter="url(#f3i6u0124n4ef)" height="86.8652" id="Memento" style="stroke: #A80036; stroke-width: 1.5;" width="87" x="189.5" y="100"/><ellipse cx="205.4" cy="116" fill="#ADD1B2" rx="11" ry="11" style="stroke: #A80036; stroke-width: 1.0;"/><path d="M207.8731,122.1431 Q207.2921,122.4419 206.6529,122.5913 Q206.0138,122.7407 205.3082,122.7407 Q202.8014,122.7407 201.4815,121.0889 Q200.1617,119.437 200.1617,116.3159 Q200.1617,113.1865 201.4815,111.5347 Q202.8014,109.8828 205.3082,109.8828 Q206.0138,109.8828 206.6612,110.0322 Q207.3087,110.1816 207.8731,110.4805 L207.8731,113.2031 Q207.2423,112.6221 206.6488,112.3523 Q206.0553,112.0825 205.4244,112.0825 Q204.0797,112.0825 203.3949,113.1492 Q202.7101,114.2158 202.7101,116.3159 Q202.7101,118.4077 203.3949,119.4744 Q204.0797,120.541 205.4244,120.541 Q206.0553,120.541 206.6488,120.2712 Q207.2423,120.0015 207.8731,119.4204 Z "/><text fill="#000000" font-family="sans-serif" font-size="12" lengthAdjust="spacingAndGlyphs" textLength="53" x="219.6" y="120.5352">Memento</text><line style="stroke: #A80036; stroke-width: 1.5;" x1="190.5" x2="275.5" y1="132" y2="132"/><rect fill="none" height="6" style="stroke: #C82930; stroke-width: 1.0;" width="6" x="197.5" y="140.9775"/><text fill="#000000" font-family="sans-serif" font-size="11" lengthAdjust="spacingAndGlyphs" textLength="61" x="209.5" y="146.6348">state : State</text><line style="stroke: #A80036; stroke-width: 1.5;" x1="190.5" x2="275.5" y1="152.9551" y2="152.9551"/><ellipse cx="200.5" cy="164.9326" fill="#84BE84" rx="3" ry="3" style="stroke: #038048; stroke-width: 1.0;"/><text fill="#000000" font-family="sans-serif" font-size="11" lengthAdjust="spacingAndGlyphs" textLength="52" x="209.5" y="167.5898">GetState()</text><ellipse cx="200.5" cy="177.8877" fill="#84BE84" rx="3" ry="3" style="stroke: #038048; stroke-width: 1.0;"/><text fill="#000000" font-family="sans-serif" font-size="11" lengthAdjust="spacingAndGlyphs" textLength="50" x="209.5" y="180.5449">SetState()</text><!--class CareTaker--><rect fill="#FEFECE" filter="url(#f3i6u0124n4ef)" height="32" id="CareTaker" style="stroke: #A80036; stroke-width: 1.5;" width="93" x="311.5" y="127.5"/><ellipse cx="326.5" cy="143.5" fill="#ADD1B2" rx="11" ry="11" style="stroke: #A80036; stroke-width: 1.0;"/><path d="M328.9731,149.6431 Q328.3921,149.9419 327.7529,150.0913 Q327.1138,150.2407 326.4082,150.2407 Q323.9014,150.2407 322.5815,148.5889 Q321.2617,146.937 321.2617,143.8159 Q321.2617,140.6865 322.5815,139.0347 Q323.9014,137.3828 326.4082,137.3828 Q327.1138,137.3828 327.7612,137.5322 Q328.4087,137.6816 328.9731,137.9805 L328.9731,140.7031 Q328.3423,140.1221 327.7488,139.8523 Q327.1553,139.5825 326.5244,139.5825 Q325.1797,139.5825 324.4949,140.6492 Q323.8101,141.7158 323.8101,143.8159 Q323.8101,145.9077 324.4949,146.9744 Q325.1797,148.041 326.5244,148.041 Q327.1553,148.041 327.7488,147.7712 Q328.3423,147.5015 328.9731,146.9204 Z "/><text fill="#000000" font-family="sans-serif" font-size="12" lengthAdjust="spacingAndGlyphs" textLength="61" x="340.5" y="148.0352">CareTaker</text><!--link State to Originator--><path d="M142.8807,44.6283 C133.2193,59.8197 119.729,81.0313 107.72,99.914 " fill="none" id="State-Originator" style="stroke: #A80036; stroke-width: 1.0;"/><polygon fill="#A80036" points="145.7503,40.1163,137.5452,45.5639,143.067,44.3353,144.2956,49.8571,145.7503,40.1163" style="stroke: #A80036; stroke-width: 1.0;"/><!--link State to Memento--><path d="M169.2919,44.6283 C179.0805,59.8197 192.7482,81.0313 204.9153,99.914 " fill="none" id="State-Memento" style="stroke: #A80036; stroke-width: 1.0;"/><polygon fill="#A80036" points="166.3846,40.1163,167.8969,49.8484,169.0928,44.3194,174.6218,45.5153,166.3846,40.1163" style="stroke: #A80036; stroke-width: 1.0;"/><!--link Originator to Memento--><path d="M154.1094,143.5 C164.0815,143.5 174.0535,143.5 184.0256,143.5 " fill="none" id="Originator-Memento" style="stroke: #A80036; stroke-width: 1.0; stroke-dasharray: 7.0,7.0;"/><polygon fill="#A80036" points="189.2404,143.5,180.2404,139.5,184.2404,143.5,180.2404,147.5,189.2404,143.5" style="stroke: #A80036; stroke-width: 1.0;"/><!--link Memento to CareTaker--><path d="M282.0681,143.5 C291.8644,143.5 301.6606,143.5 311.4569,143.5 " fill="none" id="Memento-CareTaker" style="stroke: #A80036; stroke-width: 1.0;"/><polygon fill="#A80036" points="276.9453,143.5,285.9453,147.5,281.9453,143.5,285.9453,139.5,276.9453,143.5" style="stroke: #A80036; stroke-width: 1.0;"/><!--
@startuml
State <- - Originator
State <- - Memento
Originator .> Memento
Memento <- CareTaker

class Originator {
  -state : State
  +CreateMemento()
  +SetMemento(Memento)
}
class Memento {
  -state : State
  +GetState()
  +SetState()
}

hide empty attributes
hide empty methods
@enduml

PlantUML version 1.2019.04(Fri Mar 29 23:44:36 CST 2019)
(GPL source distribution)
Java Runtime: Java(TM) SE Runtime Environment
JVM: Java HotSpot(TM) 64-Bit Server VM
Java Version: 1.8.0_152-b16
Operating System: Mac OS X
OS Version: 10.14
Default Encoding: UTF-8
Language: zh
Country: CN
--></g></svg>