<?xml version="1.0" encoding="UTF-8" standalone="no"?><svg xmlns="http://www.w3.org/2000/svg" xmlns:xlink="http://www.w3.org/1999/xlink" contentScriptType="application/ecmascript" contentStyleType="text/css" height="323px" preserveAspectRatio="none" style="width:907px;height:323px;" version="1.1" viewBox="0 0 907 323" width="907px" zoomAndPan="magnify"><defs><filter height="300%" id="fw693xnyp1q1z" width="300%" x="-1" y="-1"><feGaussianBlur result="blurOut" stdDeviation="2.0"/><feColorMatrix in="blurOut" result="blurOut2" type="matrix" values="0 0 0 0 0 0 0 0 0 0 0 0 0 0 0 0 0 0 .4 0"/><feOffset dx="4.0" dy="4.0" in="blurOut2" result="blurOut3"/><feBlend in="SourceGraphic" in2="blurOut3" mode="normal"/></filter></defs><g><!--class AbstractProductA--><rect fill="#FEFECE" filter="url(#fw693xnyp1q1z)" height="52.9551" id="AbstractProductA" style="stroke: #A80036; stroke-width: 1.5;" width="132" x="189.5" y="8"/><ellipse cx="204.5" cy="24" fill="#B4A7E5" rx="11" ry="11" style="stroke: #A80036; stroke-width: 1.0;"/><path d="M200.9277,20.2651 L200.9277,18.1069 L208.3071,18.1069 L208.3071,20.2651 L205.8418,20.2651 L205.8418,28.3418 L208.3071,28.3418 L208.3071,30.5 L200.9277,30.5 L200.9277,28.3418 L203.3931,28.3418 L203.3931,20.2651 Z "/><text fill="#000000" font-family="sans-serif" font-size="12" font-style="italic" lengthAdjust="spacingAndGlyphs" textLength="100" x="218.5" y="28.5352">AbstractProductA</text><line style="stroke: #A80036; stroke-width: 1.5;" x1="190.5" x2="320.5" y1="40" y2="40"/><ellipse cx="200.5" cy="51.9775" fill="#84BE84" rx="3" ry="3" style="stroke: #038048; stroke-width: 1.0;"/><text fill="#000000" font-family="sans-serif" font-size="11" font-style="italic" lengthAdjust="spacingAndGlyphs" textLength="30" x="209.5" y="54.6348">doA()</text><!--class AbstractProductB--><rect fill="#FEFECE" filter="url(#fw693xnyp1q1z)" height="52.9551" id="AbstractProductB" style="stroke: #A80036; stroke-width: 1.5;" width="131" x="583" y="8"/><ellipse cx="598" cy="24" fill="#B4A7E5" rx="11" ry="11" style="stroke: #A80036; stroke-width: 1.0;"/><path d="M594.4277,20.2651 L594.4277,18.1069 L601.8071,18.1069 L601.8071,20.2651 L599.3418,20.2651 L599.3418,28.3418 L601.8071,28.3418 L601.8071,30.5 L594.4277,30.5 L594.4277,28.3418 L596.8931,28.3418 L596.8931,20.2651 Z "/><text fill="#000000" font-family="sans-serif" font-size="12" font-style="italic" lengthAdjust="spacingAndGlyphs" textLength="99" x="612" y="28.5352">AbstractProductB</text><line style="stroke: #A80036; stroke-width: 1.5;" x1="584" x2="713" y1="40" y2="40"/><ellipse cx="594" cy="51.9775" fill="#84BE84" rx="3" ry="3" style="stroke: #038048; stroke-width: 1.0;"/><text fill="#000000" font-family="sans-serif" font-size="11" font-style="italic" lengthAdjust="spacingAndGlyphs" textLength="28" x="603" y="54.6348">doB()</text><!--class AbstractFactory--><rect fill="#FEFECE" filter="url(#fw693xnyp1q1z)" height="65.9102" id="AbstractFactory" style="stroke: #A80036; stroke-width: 1.5;" width="180" x="362.5" y="121"/><ellipse cx="404.05" cy="137" fill="#B4A7E5" rx="11" ry="11" style="stroke: #A80036; stroke-width: 1.0;"/><path d="M400.4777,133.2651 L400.4777,131.1069 L407.8571,131.1069 L407.8571,133.2651 L405.3918,133.2651 L405.3918,141.3418 L407.8571,141.3418 L407.8571,143.5 L400.4777,143.5 L400.4777,141.3418 L402.9431,141.3418 L402.9431,133.2651 Z "/><text fill="#000000" font-family="sans-serif" font-size="12" font-style="italic" lengthAdjust="spacingAndGlyphs" textLength="89" x="423.95" y="141.5352">AbstractFactory</text><line style="stroke: #A80036; stroke-width: 1.5;" x1="363.5" x2="541.5" y1="153" y2="153"/><ellipse cx="373.5" cy="164.9775" fill="#84BE84" rx="3" ry="3" style="stroke: #038048; stroke-width: 1.0;"/><text fill="#000000" font-family="sans-serif" font-size="11" font-style="italic" lengthAdjust="spacingAndGlyphs" textLength="154" x="382.5" y="167.6348">createA() : AbstractProductA</text><ellipse cx="373.5" cy="177.9326" fill="#84BE84" rx="3" ry="3" style="stroke: #038048; stroke-width: 1.0;"/><text fill="#000000" font-family="sans-serif" font-size="11" font-style="italic" lengthAdjust="spacingAndGlyphs" textLength="150" x="382.5" y="180.5898">createB() : AbstractProductB</text><!--class Client--><rect fill="#FEFECE" filter="url(#fw693xnyp1q1z)" height="32" id="Client" style="stroke: #A80036; stroke-width: 1.5;" width="64" x="420.5" y="18.5"/><ellipse cx="435.5" cy="34.5" fill="#B4A7E5" rx="11" ry="11" style="stroke: #A80036; stroke-width: 1.0;"/><path d="M431.9277,30.7651 L431.9277,28.6069 L439.3071,28.6069 L439.3071,30.7651 L436.8418,30.7651 L436.8418,38.8418 L439.3071,38.8418 L439.3071,41 L431.9277,41 L431.9277,38.8418 L434.3931,38.8418 L434.3931,30.7651 Z "/><text fill="#000000" font-family="sans-serif" font-size="12" font-style="italic" lengthAdjust="spacingAndGlyphs" textLength="32" x="449.5" y="39.0352">Client</text><!--class ConcreteProductA1--><rect fill="#FEFECE" filter="url(#fw693xnyp1q1z)" height="52.9551" id="ConcreteProductA1" style="stroke: #A80036; stroke-width: 1.5;" width="143" x="6" y="127.5"/><ellipse cx="21" cy="143.5" fill="#ADD1B2" rx="11" ry="11" style="stroke: #A80036; stroke-width: 1.0;"/><path d="M23.4731,149.6431 Q22.8921,149.9419 22.2529,150.0913 Q21.6138,150.2407 20.9082,150.2407 Q18.4014,150.2407 17.0815,148.5889 Q15.7617,146.937 15.7617,143.8159 Q15.7617,140.6865 17.0815,139.0347 Q18.4014,137.3828 20.9082,137.3828 Q21.6138,137.3828 22.2612,137.5322 Q22.9087,137.6816 23.4731,137.9805 L23.4731,140.7031 Q22.8423,140.1221 22.2488,139.8523 Q21.6553,139.5825 21.0244,139.5825 Q19.6797,139.5825 18.9949,140.6492 Q18.3101,141.7158 18.3101,143.8159 Q18.3101,145.9077 18.9949,146.9744 Q19.6797,148.041 21.0244,148.041 Q21.6553,148.041 22.2488,147.7712 Q22.8423,147.5015 23.4731,146.9204 Z "/><text fill="#000000" font-family="sans-serif" font-size="12" lengthAdjust="spacingAndGlyphs" textLength="111" x="35" y="148.0352">ConcreteProductA1</text><line style="stroke: #A80036; stroke-width: 1.5;" x1="7" x2="148" y1="159.5" y2="159.5"/><ellipse cx="17" cy="171.4775" fill="#84BE84" rx="3" ry="3" style="stroke: #038048; stroke-width: 1.0;"/><text fill="#000000" font-family="sans-serif" font-size="11" lengthAdjust="spacingAndGlyphs" textLength="30" x="26" y="174.1348">doA()</text><!--class ConcreteProductA2--><rect fill="#FEFECE" filter="url(#fw693xnyp1q1z)" height="52.9551" id="ConcreteProductA2" style="stroke: #A80036; stroke-width: 1.5;" width="143" x="184" y="127.5"/><ellipse cx="199" cy="143.5" fill="#ADD1B2" rx="11" ry="11" style="stroke: #A80036; stroke-width: 1.0;"/><path d="M201.4731,149.6431 Q200.8921,149.9419 200.2529,150.0913 Q199.6138,150.2407 198.9082,150.2407 Q196.4014,150.2407 195.0815,148.5889 Q193.7617,146.937 193.7617,143.8159 Q193.7617,140.6865 195.0815,139.0347 Q196.4014,137.3828 198.9082,137.3828 Q199.6138,137.3828 200.2612,137.5322 Q200.9087,137.6816 201.4731,137.9805 L201.4731,140.7031 Q200.8423,140.1221 200.2488,139.8523 Q199.6553,139.5825 199.0244,139.5825 Q197.6797,139.5825 196.9949,140.6492 Q196.3101,141.7158 196.3101,143.8159 Q196.3101,145.9077 196.9949,146.9744 Q197.6797,148.041 199.0244,148.041 Q199.6553,148.041 200.2488,147.7712 Q200.8423,147.5015 201.4731,146.9204 Z "/><text fill="#000000" font-family="sans-serif" font-size="12" lengthAdjust="spacingAndGlyphs" textLength="111" x="213" y="148.0352">ConcreteProductA2</text><line style="stroke: #A80036; stroke-width: 1.5;" x1="185" x2="326" y1="159.5" y2="159.5"/><ellipse cx="195" cy="171.4775" fill="#84BE84" rx="3" ry="3" style="stroke: #038048; stroke-width: 1.0;"/><text fill="#000000" font-family="sans-serif" font-size="11" lengthAdjust="spacingAndGlyphs" textLength="30" x="204" y="174.1348">doA()</text><!--class ConcreteProductB1--><rect fill="#FEFECE" filter="url(#fw693xnyp1q1z)" height="52.9551" id="ConcreteProductB1" style="stroke: #A80036; stroke-width: 1.5;" width="142" x="577.5" y="127.5"/><ellipse cx="592.5" cy="143.5" fill="#ADD1B2" rx="11" ry="11" style="stroke: #A80036; stroke-width: 1.0;"/><path d="M594.9731,149.6431 Q594.3921,149.9419 593.7529,150.0913 Q593.1138,150.2407 592.4082,150.2407 Q589.9014,150.2407 588.5815,148.5889 Q587.2617,146.937 587.2617,143.8159 Q587.2617,140.6865 588.5815,139.0347 Q589.9014,137.3828 592.4082,137.3828 Q593.1138,137.3828 593.7612,137.5322 Q594.4087,137.6816 594.9731,137.9805 L594.9731,140.7031 Q594.3423,140.1221 593.7488,139.8523 Q593.1553,139.5825 592.5244,139.5825 Q591.1797,139.5825 590.4949,140.6492 Q589.8101,141.7158 589.8101,143.8159 Q589.8101,145.9077 590.4949,146.9744 Q591.1797,148.041 592.5244,148.041 Q593.1553,148.041 593.7488,147.7712 Q594.3423,147.5015 594.9731,146.9204 Z "/><text fill="#000000" font-family="sans-serif" font-size="12" lengthAdjust="spacingAndGlyphs" textLength="110" x="606.5" y="148.0352">ConcreteProductB1</text><line style="stroke: #A80036; stroke-width: 1.5;" x1="578.5" x2="718.5" y1="159.5" y2="159.5"/><ellipse cx="588.5" cy="171.4775" fill="#84BE84" rx="3" ry="3" style="stroke: #038048; stroke-width: 1.0;"/><text fill="#000000" font-family="sans-serif" font-size="11" lengthAdjust="spacingAndGlyphs" textLength="28" x="597.5" y="174.1348">doB()</text><!--class ConcreteProductB2--><rect fill="#FEFECE" filter="url(#fw693xnyp1q1z)" height="52.9551" id="ConcreteProductB2" style="stroke: #A80036; stroke-width: 1.5;" width="142" x="754.5" y="127.5"/><ellipse cx="769.5" cy="143.5" fill="#ADD1B2" rx="11" ry="11" style="stroke: #A80036; stroke-width: 1.0;"/><path d="M771.9731,149.6431 Q771.3921,149.9419 770.7529,150.0913 Q770.1138,150.2407 769.4082,150.2407 Q766.9014,150.2407 765.5815,148.5889 Q764.2617,146.937 764.2617,143.8159 Q764.2617,140.6865 765.5815,139.0347 Q766.9014,137.3828 769.4082,137.3828 Q770.1138,137.3828 770.7612,137.5322 Q771.4087,137.6816 771.9731,137.9805 L771.9731,140.7031 Q771.3423,140.1221 770.7488,139.8523 Q770.1553,139.5825 769.5244,139.5825 Q768.1797,139.5825 767.4949,140.6492 Q766.8101,141.7158 766.8101,143.8159 Q766.8101,145.9077 767.4949,146.9744 Q768.1797,148.041 769.5244,148.041 Q770.1553,148.041 770.7488,147.7712 Q771.3423,147.5015 771.9731,146.9204 Z "/><text fill="#000000" font-family="sans-serif" font-size="12" lengthAdjust="spacingAndGlyphs" textLength="110" x="783.5" y="148.0352">ConcreteProductB2</text><line style="stroke: #A80036; stroke-width: 1.5;" x1="755.5" x2="895.5" y1="159.5" y2="159.5"/><ellipse cx="765.5" cy="171.4775" fill="#84BE84" rx="3" ry="3" style="stroke: #038048; stroke-width: 1.0;"/><text fill="#000000" font-family="sans-serif" font-size="11" lengthAdjust="spacingAndGlyphs" textLength="28" x="774.5" y="174.1348">doB()</text><!--class ConcreteFactory1--><rect fill="#FEFECE" filter="url(#fw693xnyp1q1z)" height="65.9102" id="ConcreteFactory1" style="stroke: #A80036; stroke-width: 1.5;" width="190" x="244.5" y="247"/><ellipse cx="285.6" cy="263" fill="#ADD1B2" rx="11" ry="11" style="stroke: #A80036; stroke-width: 1.0;"/><path d="M288.0731,269.1431 Q287.4921,269.4419 286.8529,269.5913 Q286.2138,269.7407 285.5082,269.7407 Q283.0014,269.7407 281.6815,268.0889 Q280.3617,266.437 280.3617,263.3159 Q280.3617,260.1865 281.6815,258.5347 Q283.0014,256.8828 285.5082,256.8828 Q286.2138,256.8828 286.8612,257.0322 Q287.5087,257.1816 288.0731,257.4805 L288.0731,260.2031 Q287.4423,259.6221 286.8488,259.3523 Q286.2553,259.0825 285.6244,259.0825 Q284.2797,259.0825 283.5949,260.1492 Q282.9101,261.2158 282.9101,263.3159 Q282.9101,265.4077 283.5949,266.4744 Q284.2797,267.541 285.6244,267.541 Q286.2553,267.541 286.8488,267.2712 Q287.4423,267.0015 288.0731,266.4204 Z "/><text fill="#000000" font-family="sans-serif" font-size="12" lengthAdjust="spacingAndGlyphs" textLength="100" x="305.4" y="267.5352">ConcreteFactory1</text><line style="stroke: #A80036; stroke-width: 1.5;" x1="245.5" x2="433.5" y1="279" y2="279"/><ellipse cx="255.5" cy="290.9775" fill="#84BE84" rx="3" ry="3" style="stroke: #038048; stroke-width: 1.0;"/><text fill="#000000" font-family="sans-serif" font-size="11" lengthAdjust="spacingAndGlyphs" textLength="164" x="264.5" y="293.6348">createA() : ConcreteProductA1</text><ellipse cx="255.5" cy="303.9326" fill="#84BE84" rx="3" ry="3" style="stroke: #038048; stroke-width: 1.0;"/><text fill="#000000" font-family="sans-serif" font-size="11" lengthAdjust="spacingAndGlyphs" textLength="160" x="264.5" y="306.5898">createB() : ConcreteProductB1</text><!--class ConcreteFactory2--><rect fill="#FEFECE" filter="url(#fw693xnyp1q1z)" height="65.9102" id="ConcreteFactory2" style="stroke: #A80036; stroke-width: 1.5;" width="190" x="469.5" y="247"/><ellipse cx="510.6" cy="263" fill="#ADD1B2" rx="11" ry="11" style="stroke: #A80036; stroke-width: 1.0;"/><path d="M513.0731,269.1431 Q512.4921,269.4419 511.8529,269.5913 Q511.2138,269.7407 510.5082,269.7407 Q508.0014,269.7407 506.6815,268.0889 Q505.3617,266.437 505.3617,263.3159 Q505.3617,260.1865 506.6815,258.5347 Q508.0014,256.8828 510.5082,256.8828 Q511.2138,256.8828 511.8612,257.0322 Q512.5087,257.1816 513.0731,257.4805 L513.0731,260.2031 Q512.4423,259.6221 511.8488,259.3523 Q511.2553,259.0825 510.6244,259.0825 Q509.2797,259.0825 508.5949,260.1492 Q507.9101,261.2158 507.9101,263.3159 Q507.9101,265.4077 508.5949,266.4744 Q509.2797,267.541 510.6244,267.541 Q511.2553,267.541 511.8488,267.2712 Q512.4423,267.0015 513.0731,266.4204 Z "/><text fill="#000000" font-family="sans-serif" font-size="12" lengthAdjust="spacingAndGlyphs" textLength="100" x="530.4" y="267.5352">ConcreteFactory2</text><line style="stroke: #A80036; stroke-width: 1.5;" x1="470.5" x2="658.5" y1="279" y2="279"/><ellipse cx="480.5" cy="290.9775" fill="#84BE84" rx="3" ry="3" style="stroke: #038048; stroke-width: 1.0;"/><text fill="#000000" font-family="sans-serif" font-size="11" lengthAdjust="spacingAndGlyphs" textLength="164" x="489.5" y="293.6348">createA() : ConcreteProductA2</text><ellipse cx="480.5" cy="303.9326" fill="#84BE84" rx="3" ry="3" style="stroke: #038048; stroke-width: 1.0;"/><text fill="#000000" font-family="sans-serif" font-size="11" lengthAdjust="spacingAndGlyphs" textLength="160" x="489.5" y="306.5898">createB() : ConcreteProductB2</text><!--link Client to AbstractFactory--><path d="M452.5,50.6163 C452.5,67.1306 452.5,93.4229 452.5,115.3592 " fill="none" id="Client-AbstractFactory" style="stroke: #A80036; stroke-width: 1.0;"/><polygon fill="#A80036" points="452.5,120.5437,456.5,111.5437,452.5,115.5437,448.5,111.5437,452.5,120.5437" style="stroke: #A80036; stroke-width: 1.0;"/><!--link AbstractProductA to AbstractFactory--><path d="M303.7291,63.7557 C332.2447,81.0532 368.4397,103.0091 397.9882,120.9332 " fill="none" id="AbstractProductA-AbstractFactory" style="stroke: #A80036; stroke-width: 1.0; stroke-dasharray: 7.0,7.0;"/><polygon fill="#A80036" points="299.2207,61.0209,304.841,69.1087,303.4956,63.6141,308.9902,62.2688,299.2207,61.0209" style="stroke: #A80036; stroke-width: 1.0;"/><!--link AbstractProductB to AbstractFactory--><path d="M600.5157,63.7557 C572.1449,81.0532 536.1336,103.0091 506.7351,120.9332 " fill="none" id="AbstractProductB-AbstractFactory" style="stroke: #A80036; stroke-width: 1.0; stroke-dasharray: 7.0,7.0;"/><polygon fill="#A80036" points="605.0012,61.0209,595.2345,62.2907,600.7321,63.6237,599.3991,69.1213,605.0012,61.0209" style="stroke: #A80036; stroke-width: 1.0;"/><!--link AbstractProductA to ConcreteProductA1--><path d="M199.2494,72.2638 C172.5806,90.1678 141.3528,111.1326 117.2009,127.3469 " fill="none" id="AbstractProductA-ConcreteProductA1" style="stroke: #A80036; stroke-width: 1.0;"/><polygon fill="none" points="195.4892,66.357,215.996,61.0209,203.2927,77.9805,195.4892,66.357" style="stroke: #A80036; stroke-width: 1.0;"/><!--link AbstractProductA to ConcreteProductA2--><path d="M255.5,81.0932 C255.5,96.6989 255.5,113.5646 255.5,127.14 " fill="none" id="AbstractProductA-ConcreteProductA2" style="stroke: #A80036; stroke-width: 1.0;"/><polygon fill="none" points="248.5001,81.021,255.5,61.0209,262.5001,81.0209,248.5001,81.021" style="stroke: #A80036; stroke-width: 1.0;"/><!--link AbstractProductB to ConcreteProductB1--><path d="M648.5,81.0932 C648.5,96.6989 648.5,113.5646 648.5,127.14 " fill="none" id="AbstractProductB-ConcreteProductB1" style="stroke: #A80036; stroke-width: 1.0;"/><polygon fill="none" points="641.5001,81.021,648.5,61.0209,655.5001,81.0209,641.5001,81.021" style="stroke: #A80036; stroke-width: 1.0;"/><!--link AbstractProductB to ConcreteProductB2--><path d="M704.4346,72.2638 C730.9536,90.1678 762.006,111.1326 786.0221,127.3469 " fill="none" id="AbstractProductB-ConcreteProductB2" style="stroke: #A80036; stroke-width: 1.0;"/><polygon fill="none" points="700.4411,78.0136,687.782,61.0209,708.2748,66.4105,700.4411,78.0136" style="stroke: #A80036; stroke-width: 1.0;"/><!--link ConcreteProductA1 to ConcreteFactory1--><path d="M137.5234,182.8662 C177.2393,201.9662 229.4233,227.0624 270.799,246.9606 " fill="none" id="ConcreteProductA1-ConcreteFactory1" style="stroke: #A80036; stroke-width: 1.0; stroke-dasharray: 7.0,7.0;"/><polygon fill="#A80036" points="132.7433,180.5674,139.1205,188.0728,137.2493,182.7344,142.5877,180.8632,132.7433,180.5674" style="stroke: #A80036; stroke-width: 1.0;"/><!--link ConcreteProductB1 to ConcreteFactory1--><path d="M578.5643,182.5175 C531.6196,201.66 469.6208,226.941 420.5252,246.9606 " fill="none" id="ConcreteProductB1-ConcreteFactory1" style="stroke: #A80036; stroke-width: 1.0; stroke-dasharray: 7.0,7.0;"/><polygon fill="#A80036" points="583.3466,180.5674,573.5025,180.2619,578.7168,182.4554,576.5233,187.6697,583.3466,180.5674" style="stroke: #A80036; stroke-width: 1.0;"/><!--link AbstractFactory to ConcreteFactory1--><path d="M409.411,202.0462 C396.0543,216.9394 381.6365,233.0159 369.3835,246.6786 " fill="none" id="AbstractFactory-ConcreteFactory1" style="stroke: #A80036; stroke-width: 1.0;"/><polygon fill="none" points="404.2461,197.3208,422.8106,187.105,414.6687,206.668,404.2461,197.3208" style="stroke: #A80036; stroke-width: 1.0;"/><!--link ConcreteProductA2 to ConcreteFactory2--><path d="M325.4357,182.5175 C372.3804,201.66 434.3792,226.941 483.4748,246.9606 " fill="none" id="ConcreteProductA2-ConcreteFactory2" style="stroke: #A80036; stroke-width: 1.0; stroke-dasharray: 7.0,7.0;"/><polygon fill="#A80036" points="320.6534,180.5674,327.4767,187.6697,325.2832,182.4554,330.4975,180.2619,320.6534,180.5674" style="stroke: #A80036; stroke-width: 1.0;"/><!--link ConcreteProductB2 to ConcreteFactory2--><path d="M765.7057,182.8662 C726.1414,201.9662 674.1565,227.0624 632.9388,246.9606 " fill="none" id="ConcreteProductB2-ConcreteFactory2" style="stroke: #A80036; stroke-width: 1.0; stroke-dasharray: 7.0,7.0;"/><polygon fill="#A80036" points="770.4675,180.5674,760.6235,180.878,765.9648,182.7412,764.1016,188.0824,770.4675,180.5674" style="stroke: #A80036; stroke-width: 1.0;"/><!--link AbstractFactory to ConcreteFactory2--><path d="M495.6261,202.5169 C508.7467,217.2776 522.8642,233.1597 534.881,246.6786 " fill="none" id="AbstractFactory-ConcreteFactory2" style="stroke: #A80036; stroke-width: 1.0;"/><polygon fill="none" points="489.9821,206.7038,481.9267,187.105,500.4459,197.4027,489.9821,206.7038" style="stroke: #A80036; stroke-width: 1.0;"/><!--
@startuml
interface AbstractProductA {
  {abstract} +doA()
}
interface AbstractProductB {
  {abstract} +doB()
}
interface AbstractFactory {
  {abstract} +createA() : AbstractProductA
  {abstract} +createB() : AbstractProductB
}
interface Client
Client -down-> AbstractFactory

AbstractFactory .up.> AbstractProductA
AbstractFactory .up.> AbstractProductB

AbstractProductA <|- - ConcreteProductA1
AbstractProductA <|- - ConcreteProductA2
AbstractProductB <|- - ConcreteProductB1
AbstractProductB <|- - ConcreteProductB2

class ConcreteProductA1 {
  +doA()
}
class ConcreteProductA2 {
  +doA()
}
class ConcreteProductB1 {
  +doB()
}
class ConcreteProductB2 {
  +doB()
}

ConcreteProductA1 <.. ConcreteFactory1
ConcreteProductB1 <.. ConcreteFactory1
AbstractFactory <|- - ConcreteFactory1

ConcreteProductA2 <.. ConcreteFactory2
ConcreteProductB2 <.. ConcreteFactory2
AbstractFactory <|- - ConcreteFactory2

class ConcreteFactory1 {
  +createA() : ConcreteProductA1
  +createB() : ConcreteProductB1
}
class ConcreteFactory2 {
  +createA() : ConcreteProductA2
  +createB() : ConcreteProductB2
}

hide empty attributes
hide empty methods
@enduml

PlantUML version 1.2019.04(Fri Mar 29 23:44:36 CST 2019)
(GPL source distribution)
Java Runtime: Java(TM) SE Runtime Environment
JVM: Java HotSpot(TM) 64-Bit Server VM
Java Version: 1.8.0_152-b16
Operating System: Mac OS X
OS Version: 10.14
Default Encoding: UTF-8
Language: zh
Country: CN
--></g></svg>