<?xml version="1.0" encoding="UTF-8" standalone="no"?><svg xmlns="http://www.w3.org/2000/svg" xmlns:xlink="http://www.w3.org/1999/xlink" contentScriptType="application/ecmascript" contentStyleType="text/css" height="244px" preserveAspectRatio="none" style="width:302px;height:244px;" version="1.1" viewBox="0 0 302 244" width="302px" zoomAndPan="magnify"><defs><filter height="300%" id="fg92aftqr6z8n" width="300%" x="-1" y="-1"><feGaussianBlur result="blurOut" stdDeviation="2.0"/><feColorMatrix in="blurOut" result="blurOut2" type="matrix" values="0 0 0 0 0 0 0 0 0 0 0 0 0 0 0 0 0 0 .4 0"/><feOffset dx="4.0" dy="4.0" in="blurOut2" result="blurOut3"/><feBlend in="SourceGraphic" in2="blurOut3" mode="normal"/></filter></defs><g><!--cluster SubSystem--><polygon fill="#FFFFFF" filter="url(#fg92aftqr6z8n)" points="14,73,98,73,105,95.4883,280,95.4883,280,232,14,232,14,73" style="stroke: #000000; stroke-width: 1.5;"/><line style="stroke: #000000; stroke-width: 1.5;" x1="14" x2="105" y1="95.4883" y2="95.4883"/><text fill="#000000" font-family="sans-serif" font-size="14" font-weight="bold" lengthAdjust="spacingAndGlyphs" textLength="78" x="18" y="88.5352">SubSystem</text><!--class Facade--><rect fill="#FEFECE" filter="url(#fg92aftqr6z8n)" height="32" id="Facade" style="stroke: #A80036; stroke-width: 1.5;" width="73" x="110.5" y="100"/><ellipse cx="125.5" cy="116" fill="#B4A7E5" rx="11" ry="11" style="stroke: #A80036; stroke-width: 1.0;"/><path d="M121.9277,112.2651 L121.9277,110.1069 L129.3071,110.1069 L129.3071,112.2651 L126.8418,112.2651 L126.8418,120.3418 L129.3071,120.3418 L129.3071,122.5 L121.9277,122.5 L121.9277,120.3418 L124.3931,120.3418 L124.3931,112.2651 Z "/><text fill="#000000" font-family="sans-serif" font-size="12" font-style="italic" lengthAdjust="spacingAndGlyphs" textLength="41" x="139.5" y="120.5352">Facade</text><!--class Foo1--><rect fill="#FEFECE" filter="url(#fg92aftqr6z8n)" height="32" id="Foo1" style="stroke: #A80036; stroke-width: 1.5;" width="60" x="22" y="192"/><ellipse cx="37" cy="208" fill="#B4A7E5" rx="11" ry="11" style="stroke: #A80036; stroke-width: 1.0;"/><path d="M33.4277,204.2651 L33.4277,202.1069 L40.8071,202.1069 L40.8071,204.2651 L38.3418,204.2651 L38.3418,212.3418 L40.8071,212.3418 L40.8071,214.5 L33.4277,214.5 L33.4277,212.3418 L35.8931,212.3418 L35.8931,204.2651 Z "/><text fill="#000000" font-family="sans-serif" font-size="12" font-style="italic" lengthAdjust="spacingAndGlyphs" textLength="28" x="51" y="212.5352">Foo1</text><!--class Foo2--><rect fill="#FEFECE" filter="url(#fg92aftqr6z8n)" height="32" id="Foo2" style="stroke: #A80036; stroke-width: 1.5;" width="60" x="117" y="192"/><ellipse cx="132" cy="208" fill="#B4A7E5" rx="11" ry="11" style="stroke: #A80036; stroke-width: 1.0;"/><path d="M128.4277,204.2651 L128.4277,202.1069 L135.8071,202.1069 L135.8071,204.2651 L133.3418,204.2651 L133.3418,212.3418 L135.8071,212.3418 L135.8071,214.5 L128.4277,214.5 L128.4277,212.3418 L130.8931,212.3418 L130.8931,204.2651 Z "/><text fill="#000000" font-family="sans-serif" font-size="12" font-style="italic" lengthAdjust="spacingAndGlyphs" textLength="28" x="146" y="212.5352">Foo2</text><!--class Foo3--><rect fill="#FEFECE" filter="url(#fg92aftqr6z8n)" height="32" id="Foo3" style="stroke: #A80036; stroke-width: 1.5;" width="60" x="212" y="192"/><ellipse cx="227" cy="208" fill="#B4A7E5" rx="11" ry="11" style="stroke: #A80036; stroke-width: 1.0;"/><path d="M223.4277,204.2651 L223.4277,202.1069 L230.8071,202.1069 L230.8071,204.2651 L228.3418,204.2651 L228.3418,212.3418 L230.8071,212.3418 L230.8071,214.5 L223.4277,214.5 L223.4277,212.3418 L225.8931,212.3418 L225.8931,204.2651 Z "/><text fill="#000000" font-family="sans-serif" font-size="12" font-style="italic" lengthAdjust="spacingAndGlyphs" textLength="28" x="241" y="212.5352">Foo3</text><!--class Client--><rect fill="#FEFECE" filter="url(#fg92aftqr6z8n)" height="32" id="Client" style="stroke: #A80036; stroke-width: 1.5;" width="64" x="115" y="8"/><ellipse cx="130" cy="24" fill="#ADD1B2" rx="11" ry="11" style="stroke: #A80036; stroke-width: 1.0;"/><path d="M132.4731,30.1431 Q131.8921,30.4419 131.2529,30.5913 Q130.6138,30.7407 129.9082,30.7407 Q127.4014,30.7407 126.0815,29.0889 Q124.7617,27.437 124.7617,24.3159 Q124.7617,21.1865 126.0815,19.5347 Q127.4014,17.8828 129.9082,17.8828 Q130.6138,17.8828 131.2612,18.0322 Q131.9087,18.1816 132.4731,18.4805 L132.4731,21.2031 Q131.8423,20.6221 131.2488,20.3523 Q130.6553,20.0825 130.0244,20.0825 Q128.6797,20.0825 127.9949,21.1492 Q127.3101,22.2158 127.3101,24.3159 Q127.3101,26.4077 127.9949,27.4744 Q128.6797,28.541 130.0244,28.541 Q130.6553,28.541 131.2488,28.2712 Q131.8423,28.0015 132.4731,27.4204 Z "/><text fill="#000000" font-family="sans-serif" font-size="12" lengthAdjust="spacingAndGlyphs" textLength="32" x="144" y="28.5352">Client</text><!--link Facade to Foo1--><path d="M130.4523,132.0252 C114.3405,147.6281 89.8134,171.3807 72.4796,188.1672 " fill="none" id="Facade-Foo1" style="stroke: #A80036; stroke-width: 1.0;"/><polygon fill="#A80036" points="68.6769,191.8498,77.9248,188.4622,72.2687,188.3714,72.3594,182.7153,68.6769,191.8498" style="stroke: #A80036; stroke-width: 1.0;"/><!--link Facade to Foo2--><path d="M147,132.0252 C147,147.1037 147,169.7931 147,186.4514 " fill="none" id="Facade-Foo2" style="stroke: #A80036; stroke-width: 1.0;"/><polygon fill="#A80036" points="147,191.8498,151,182.8498,147,186.8498,143,182.8498,147,191.8498" style="stroke: #A80036; stroke-width: 1.0;"/><!--link Facade to Foo3--><path d="M163.5477,132.0252 C179.6595,147.6281 204.1866,171.3807 221.5204,188.1672 " fill="none" id="Facade-Foo3" style="stroke: #A80036; stroke-width: 1.0;"/><polygon fill="#A80036" points="225.3231,191.8498,221.6406,182.7153,221.7313,188.3714,216.0752,188.4622,225.3231,191.8498" style="stroke: #A80036; stroke-width: 1.0;"/><!--link Foo1 to Foo2--><path d="M82.0586,208 C91.9236,208 101.7886,208 111.6536,208 " fill="none" id="Foo1-Foo2" style="stroke: #A80036; stroke-width: 1.0;"/><polygon fill="#A80036" points="116.8124,208,107.8124,204,111.8124,208,107.8124,212,116.8124,208" style="stroke: #A80036; stroke-width: 1.0;"/><!--link Client to Facade--><path d="M147,40.0252 C147,55.1037 147,77.7931 147,94.4514 " fill="none" id="Client-Facade" style="stroke: #A80036; stroke-width: 1.0;"/><polygon fill="#A80036" points="147,99.8498,151,90.8498,147,94.8498,143,90.8498,147,99.8498" style="stroke: #A80036; stroke-width: 1.0;"/><!--
@startuml
package SubSystem {
  interface Facade
  interface Foo1
  interface Foo2
  interface Foo3
  Facade - -> Foo1
  Facade - -> Foo2
  Facade - -> Foo3
  Foo1 -> Foo2
}
Client - -> Facade

hide empty attributes
hide empty methods
@enduml

PlantUML version 1.2019.04(Fri Mar 29 23:44:36 CST 2019)
(GPL source distribution)
Java Runtime: Java(TM) SE Runtime Environment
JVM: Java HotSpot(TM) 64-Bit Server VM
Java Version: 1.8.0_152-b16
Operating System: Mac OS X
OS Version: 10.14
Default Encoding: UTF-8
Language: zh
Country: CN
--></g></svg>