<?xml version="1.0" encoding="UTF-8" standalone="no"?><svg xmlns="http://www.w3.org/2000/svg" xmlns:xlink="http://www.w3.org/1999/xlink" contentScriptType="application/ecmascript" contentStyleType="text/css" height="302px" preserveAspectRatio="none" style="width:800px;height:302px;" version="1.1" viewBox="0 0 800 302" width="800px" zoomAndPan="magnify"><defs><filter height="300%" id="f1psbm2kitp9mb" width="300%" x="-1" y="-1"><feGaussianBlur result="blurOut" stdDeviation="2.0"/><feColorMatrix in="blurOut" result="blurOut2" type="matrix" values="0 0 0 0 0 0 0 0 0 0 0 0 0 0 0 0 0 0 .4 0"/><feOffset dx="4.0" dy="4.0" in="blurOut2" result="blurOut3"/><feBlend in="SourceGraphic" in2="blurOut3" mode="normal"/></filter></defs><g><!--class Client--><rect fill="#FEFECE" filter="url(#f1psbm2kitp9mb)" height="32" id="Client" style="stroke: #A80036; stroke-width: 1.5;" width="64" x="364" y="8"/><ellipse cx="379" cy="24" fill="#ADD1B2" rx="11" ry="11" style="stroke: #A80036; stroke-width: 1.0;"/><path d="M381.4731,30.1431 Q380.8921,30.4419 380.2529,30.5913 Q379.6138,30.7407 378.9082,30.7407 Q376.4014,30.7407 375.0815,29.0889 Q373.7617,27.437 373.7617,24.3159 Q373.7617,21.1865 375.0815,19.5347 Q376.4014,17.8828 378.9082,17.8828 Q379.6138,17.8828 380.2612,18.0322 Q380.9087,18.1816 381.4731,18.4805 L381.4731,21.2031 Q380.8423,20.6221 380.2488,20.3523 Q379.6553,20.0825 379.0244,20.0825 Q377.6797,20.0825 376.9949,21.1492 Q376.3101,22.2158 376.3101,24.3159 Q376.3101,26.4077 376.9949,27.4744 Q377.6797,28.541 379.0244,28.541 Q379.6553,28.541 380.2488,28.2712 Q380.8423,28.0015 381.4731,27.4204 Z "/><text fill="#000000" font-family="sans-serif" font-size="12" lengthAdjust="spacingAndGlyphs" textLength="32" x="393" y="28.5352">Client</text><!--class ObjectStructure--><rect fill="#FEFECE" filter="url(#f1psbm2kitp9mb)" height="32" id="ObjectStructure" style="stroke: #A80036; stroke-width: 1.5;" width="121" x="158.5" y="117"/><ellipse cx="173.5" cy="133" fill="#ADD1B2" rx="11" ry="11" style="stroke: #A80036; stroke-width: 1.0;"/><path d="M175.9731,139.1431 Q175.3921,139.4419 174.7529,139.5913 Q174.1138,139.7407 173.4082,139.7407 Q170.9014,139.7407 169.5815,138.0889 Q168.2617,136.437 168.2617,133.3159 Q168.2617,130.1865 169.5815,128.5347 Q170.9014,126.8828 173.4082,126.8828 Q174.1138,126.8828 174.7612,127.0322 Q175.4087,127.1816 175.9731,127.4805 L175.9731,130.2031 Q175.3423,129.6221 174.7488,129.3523 Q174.1553,129.0825 173.5244,129.0825 Q172.1797,129.0825 171.4949,130.1492 Q170.8101,131.2158 170.8101,133.3159 Q170.8101,135.4077 171.4949,136.4744 Q172.1797,137.541 173.5244,137.541 Q174.1553,137.541 174.7488,137.2712 Q175.3423,137.0015 175.9731,136.4204 Z "/><text fill="#000000" font-family="sans-serif" font-size="12" lengthAdjust="spacingAndGlyphs" textLength="89" x="187.5" y="137.5352">ObjectStructure</text><!--class Element--><rect fill="#FEFECE" filter="url(#f1psbm2kitp9mb)" height="52.9551" id="Element" style="stroke: #A80036; stroke-width: 1.5;" width="111" x="314.5" y="106.5"/><ellipse cx="344.35" cy="122.5" fill="#B4A7E5" rx="11" ry="11" style="stroke: #A80036; stroke-width: 1.0;"/><path d="M340.7777,118.7651 L340.7777,116.6069 L348.1571,116.6069 L348.1571,118.7651 L345.6918,118.7651 L345.6918,126.8418 L348.1571,126.8418 L348.1571,129 L340.7777,129 L340.7777,126.8418 L343.2431,126.8418 L343.2431,118.7651 Z "/><text fill="#000000" font-family="sans-serif" font-size="12" font-style="italic" lengthAdjust="spacingAndGlyphs" textLength="46" x="361.65" y="127.0352">Element</text><line style="stroke: #A80036; stroke-width: 1.5;" x1="315.5" x2="424.5" y1="138.5" y2="138.5"/><ellipse cx="325.5" cy="150.4775" fill="#84BE84" rx="3" ry="3" style="stroke: #038048; stroke-width: 1.0;"/><text fill="#000000" font-family="sans-serif" font-size="11" font-style="italic" lengthAdjust="spacingAndGlyphs" textLength="85" x="334.5" y="153.1348">Accept(Visitor*)</text><!--class ElementA--><rect fill="#FEFECE" filter="url(#f1psbm2kitp9mb)" height="65.9102" id="ElementA" style="stroke: #A80036; stroke-width: 1.5;" width="220" x="6" y="226"/><ellipse cx="84.75" cy="242" fill="#ADD1B2" rx="11" ry="11" style="stroke: #A80036; stroke-width: 1.0;"/><path d="M87.2231,248.1431 Q86.6421,248.4419 86.0029,248.5913 Q85.3638,248.7407 84.6582,248.7407 Q82.1514,248.7407 80.8315,247.0889 Q79.5117,245.437 79.5117,242.3159 Q79.5117,239.1865 80.8315,237.5347 Q82.1514,235.8828 84.6582,235.8828 Q85.3638,235.8828 86.0112,236.0322 Q86.6587,236.1816 87.2231,236.4805 L87.2231,239.2031 Q86.5923,238.6221 85.9988,238.3523 Q85.4053,238.0825 84.7744,238.0825 Q83.4297,238.0825 82.7449,239.1492 Q82.0601,240.2158 82.0601,242.3159 Q82.0601,244.4077 82.7449,245.4744 Q83.4297,246.541 84.7744,246.541 Q85.4053,246.541 85.9988,246.2712 Q86.5923,246.0015 87.2231,245.4204 Z "/><text fill="#000000" font-family="sans-serif" font-size="12" lengthAdjust="spacingAndGlyphs" textLength="54" x="105.25" y="246.5352">ElementA</text><line style="stroke: #A80036; stroke-width: 1.5;" x1="7" x2="225" y1="258" y2="258"/><ellipse cx="17" cy="269.9775" fill="#84BE84" rx="3" ry="3" style="stroke: #038048; stroke-width: 1.0;"/><text fill="#000000" font-family="sans-serif" font-size="11" lengthAdjust="spacingAndGlyphs" textLength="194" x="26" y="272.6348">Accept(Visitor* v) { v-&gt;VisitA(this); }</text><ellipse cx="17" cy="282.9326" fill="#84BE84" rx="3" ry="3" style="stroke: #038048; stroke-width: 1.0;"/><text fill="#000000" font-family="sans-serif" font-size="11" lengthAdjust="spacingAndGlyphs" textLength="70" x="26" y="285.5898">OperationA()</text><!--class ElementB--><rect fill="#FEFECE" filter="url(#f1psbm2kitp9mb)" height="65.9102" id="ElementB" style="stroke: #A80036; stroke-width: 1.5;" width="218" x="261" y="226"/><ellipse cx="339.25" cy="242" fill="#ADD1B2" rx="11" ry="11" style="stroke: #A80036; stroke-width: 1.0;"/><path d="M341.7231,248.1431 Q341.1421,248.4419 340.5029,248.5913 Q339.8638,248.7407 339.1582,248.7407 Q336.6514,248.7407 335.3315,247.0889 Q334.0117,245.437 334.0117,242.3159 Q334.0117,239.1865 335.3315,237.5347 Q336.6514,235.8828 339.1582,235.8828 Q339.8638,235.8828 340.5112,236.0322 Q341.1587,236.1816 341.7231,236.4805 L341.7231,239.2031 Q341.0923,238.6221 340.4988,238.3523 Q339.9053,238.0825 339.2744,238.0825 Q337.9297,238.0825 337.2449,239.1492 Q336.5601,240.2158 336.5601,242.3159 Q336.5601,244.4077 337.2449,245.4744 Q337.9297,246.541 339.2744,246.541 Q339.9053,246.541 340.4988,246.2712 Q341.0923,246.0015 341.7231,245.4204 Z "/><text fill="#000000" font-family="sans-serif" font-size="12" lengthAdjust="spacingAndGlyphs" textLength="53" x="359.75" y="246.5352">ElementB</text><line style="stroke: #A80036; stroke-width: 1.5;" x1="262" x2="478" y1="258" y2="258"/><ellipse cx="272" cy="269.9775" fill="#84BE84" rx="3" ry="3" style="stroke: #038048; stroke-width: 1.0;"/><text fill="#000000" font-family="sans-serif" font-size="11" lengthAdjust="spacingAndGlyphs" textLength="192" x="281" y="272.6348">Accept(Visitor* v) { v-&gt;VisitB(this); }</text><ellipse cx="272" cy="282.9326" fill="#84BE84" rx="3" ry="3" style="stroke: #038048; stroke-width: 1.0;"/><text fill="#000000" font-family="sans-serif" font-size="11" lengthAdjust="spacingAndGlyphs" textLength="68" x="281" y="285.5898">OperationB()</text><!--class Visitor--><rect fill="#FEFECE" filter="url(#f1psbm2kitp9mb)" height="65.9102" id="Visitor" style="stroke: #A80036; stroke-width: 1.5;" width="120" x="514" y="100"/><ellipse cx="552.4" cy="116" fill="#B4A7E5" rx="11" ry="11" style="stroke: #A80036; stroke-width: 1.0;"/><path d="M548.8277,112.2651 L548.8277,110.1069 L556.2071,110.1069 L556.2071,112.2651 L553.7418,112.2651 L553.7418,120.3418 L556.2071,120.3418 L556.2071,122.5 L548.8277,122.5 L548.8277,120.3418 L551.2931,120.3418 L551.2931,112.2651 Z "/><text fill="#000000" font-family="sans-serif" font-size="12" font-style="italic" lengthAdjust="spacingAndGlyphs" textLength="36" x="571.6" y="120.5352">Visitor</text><line style="stroke: #A80036; stroke-width: 1.5;" x1="515" x2="633" y1="132" y2="132"/><ellipse cx="525" cy="143.9775" fill="#84BE84" rx="3" ry="3" style="stroke: #038048; stroke-width: 1.0;"/><text fill="#000000" font-family="sans-serif" font-size="11" font-style="italic" lengthAdjust="spacingAndGlyphs" textLength="94" x="534" y="146.6348">VisitA(ElementA*)</text><ellipse cx="525" cy="156.9326" fill="#84BE84" rx="3" ry="3" style="stroke: #038048; stroke-width: 1.0;"/><text fill="#000000" font-family="sans-serif" font-size="11" font-style="italic" lengthAdjust="spacingAndGlyphs" textLength="90" x="534" y="159.5898">VisitB(ElementB*)</text><!--class Visitor1--><rect fill="#FEFECE" filter="url(#f1psbm2kitp9mb)" height="65.9102" id="Visitor1" style="stroke: #A80036; stroke-width: 1.5;" width="120" x="514" y="226"/><ellipse cx="548.8" cy="242" fill="#ADD1B2" rx="11" ry="11" style="stroke: #A80036; stroke-width: 1.0;"/><path d="M551.2731,248.1431 Q550.6921,248.4419 550.0529,248.5913 Q549.4138,248.7407 548.7082,248.7407 Q546.2014,248.7407 544.8815,247.0889 Q543.5617,245.437 543.5617,242.3159 Q543.5617,239.1865 544.8815,237.5347 Q546.2014,235.8828 548.7082,235.8828 Q549.4138,235.8828 550.0612,236.0322 Q550.7087,236.1816 551.2731,236.4805 L551.2731,239.2031 Q550.6423,238.6221 550.0488,238.3523 Q549.4553,238.0825 548.8244,238.0825 Q547.4797,238.0825 546.7949,239.1492 Q546.1101,240.2158 546.1101,242.3159 Q546.1101,244.4077 546.7949,245.4744 Q547.4797,246.541 548.8244,246.541 Q549.4553,246.541 550.0488,246.2712 Q550.6423,246.0015 551.2731,245.4204 Z "/><text fill="#000000" font-family="sans-serif" font-size="12" lengthAdjust="spacingAndGlyphs" textLength="44" x="567.2" y="246.5352">Visitor1</text><line style="stroke: #A80036; stroke-width: 1.5;" x1="515" x2="633" y1="258" y2="258"/><ellipse cx="525" cy="269.9775" fill="#84BE84" rx="3" ry="3" style="stroke: #038048; stroke-width: 1.0;"/><text fill="#000000" font-family="sans-serif" font-size="11" lengthAdjust="spacingAndGlyphs" textLength="94" x="534" y="272.6348">VisitA(ElementA*)</text><ellipse cx="525" cy="282.9326" fill="#84BE84" rx="3" ry="3" style="stroke: #038048; stroke-width: 1.0;"/><text fill="#000000" font-family="sans-serif" font-size="11" lengthAdjust="spacingAndGlyphs" textLength="90" x="534" y="285.5898">VisitB(ElementB*)</text><!--class Visitor2--><rect fill="#FEFECE" filter="url(#f1psbm2kitp9mb)" height="65.9102" id="Visitor2" style="stroke: #A80036; stroke-width: 1.5;" width="120" x="669" y="226"/><ellipse cx="703.8" cy="242" fill="#ADD1B2" rx="11" ry="11" style="stroke: #A80036; stroke-width: 1.0;"/><path d="M706.2731,248.1431 Q705.6921,248.4419 705.0529,248.5913 Q704.4138,248.7407 703.7082,248.7407 Q701.2014,248.7407 699.8815,247.0889 Q698.5617,245.437 698.5617,242.3159 Q698.5617,239.1865 699.8815,237.5347 Q701.2014,235.8828 703.7082,235.8828 Q704.4138,235.8828 705.0612,236.0322 Q705.7087,236.1816 706.2731,236.4805 L706.2731,239.2031 Q705.6423,238.6221 705.0488,238.3523 Q704.4553,238.0825 703.8244,238.0825 Q702.4797,238.0825 701.7949,239.1492 Q701.1101,240.2158 701.1101,242.3159 Q701.1101,244.4077 701.7949,245.4744 Q702.4797,246.541 703.8244,246.541 Q704.4553,246.541 705.0488,246.2712 Q705.6423,246.0015 706.2731,245.4204 Z "/><text fill="#000000" font-family="sans-serif" font-size="12" lengthAdjust="spacingAndGlyphs" textLength="44" x="722.2" y="246.5352">Visitor2</text><line style="stroke: #A80036; stroke-width: 1.5;" x1="670" x2="788" y1="258" y2="258"/><ellipse cx="680" cy="269.9775" fill="#84BE84" rx="3" ry="3" style="stroke: #038048; stroke-width: 1.0;"/><text fill="#000000" font-family="sans-serif" font-size="11" lengthAdjust="spacingAndGlyphs" textLength="94" x="689" y="272.6348">VisitA(ElementA*)</text><ellipse cx="680" cy="282.9326" fill="#84BE84" rx="3" ry="3" style="stroke: #038048; stroke-width: 1.0;"/><text fill="#000000" font-family="sans-serif" font-size="11" lengthAdjust="spacingAndGlyphs" textLength="90" x="689" y="285.5898">VisitB(ElementB*)</text><!--link Client to ObjectStructure--><path d="M369.883,40.0833 C337.8562,59.8061 283.6524,93.1858 249.6746,114.11 " fill="none" id="Client-ObjectStructure" style="stroke: #A80036; stroke-width: 1.0;"/><polygon fill="#A80036" points="245.2241,116.8507,254.985,115.5373,249.4815,114.2288,250.79,108.7254,245.2241,116.8507" style="stroke: #A80036; stroke-width: 1.0;"/><!--link ObjectStructure to Element--><path d="M279.7539,133 C289.5603,133 299.3667,133 309.1731,133 " fill="none" id="ObjectStructure-Element" style="stroke: #A80036; stroke-width: 1.0;"/><polygon fill="#A80036" points="314.3012,133,305.3012,129,309.3012,133,305.3012,137,314.3012,133" style="stroke: #A80036; stroke-width: 1.0;"/><!--link Element to ElementA--><path d="M298.2255,168.6047 C261.9254,186.6118 218.1499,208.3272 182.6033,225.9606 " fill="none" id="Element-ElementA" style="stroke: #A80036; stroke-width: 1.0;"/><polygon fill="none" points="295.4161,162.1844,316.4435,159.5674,301.6376,174.7261,295.4161,162.1844" style="stroke: #A80036; stroke-width: 1.0;"/><!--link Element to ElementB--><path d="M370,179.885 C370,195.063 370,211.5789 370,225.5754 " fill="none" id="Element-ElementB" style="stroke: #A80036; stroke-width: 1.0;"/><polygon fill="none" points="363.0001,179.7214,370,159.7214,377.0001,179.7213,363.0001,179.7214" style="stroke: #A80036; stroke-width: 1.0;"/><!--link Client to Visitor--><path d="M422.2645,40.0833 C446.6904,55.0408 483.9435,77.853 515.4237,97.1302 " fill="none" id="Client-Visitor" style="stroke: #A80036; stroke-width: 1.0;"/><polygon fill="#A80036" points="520.0242,99.9474,514.4379,91.8361,515.7602,97.3362,510.26,98.6585,520.0242,99.9474" style="stroke: #A80036; stroke-width: 1.0;"/><!--link Visitor to Visitor1--><path d="M574,186.2616 C574,199.63 574,213.5979 574,225.6786 " fill="none" id="Visitor-Visitor1" style="stroke: #A80036; stroke-width: 1.0;"/><polygon fill="none" points="567.0001,186.1051,574,166.105,581.0001,186.105,567.0001,186.1051" style="stroke: #A80036; stroke-width: 1.0;"/><!--link Visitor to Visitor2--><path d="M630.2881,178.7568 C649.4792,194.3573 670.5504,211.4861 688.2787,225.8976 " fill="none" id="Visitor-Visitor2" style="stroke: #A80036; stroke-width: 1.0;"/><polygon fill="none" points="625.8282,184.1524,614.7244,166.105,634.6591,173.2889,625.8282,184.1524" style="stroke: #A80036; stroke-width: 1.0;"/><!--
@startuml
Client - -> ObjectStructure
ObjectStructure -> Element
Element <|- - ElementA
Element <|- - ElementB
Client - -> Visitor
Visitor <|- - Visitor1
Visitor <|- - Visitor2

interface Element {
  {abstract} +Accept(Visitor*)
}
class ElementA {
  +Accept(Visitor* v) { v->VisitA(this); }
  +OperationA()
}
class ElementB {
  +Accept(Visitor* v) { v->VisitB(this); }
  +OperationB()
}

interface Visitor {
  {abstract} +VisitA(ElementA*)
  {abstract} +VisitB(ElementB*)
}
class Visitor1 {
  +VisitA(ElementA*)
  +VisitB(ElementB*)
}
class Visitor2 {
  +VisitA(ElementA*)
  +VisitB(ElementB*)
}

hide empty attributes
hide empty methods
@enduml

PlantUML version 1.2019.04(Fri Mar 29 23:44:36 CST 2019)
(GPL source distribution)
Java Runtime: Java(TM) SE Runtime Environment
JVM: Java HotSpot(TM) 64-Bit Server VM
Java Version: 1.8.0_152-b16
Operating System: Mac OS X
OS Version: 10.14
Default Encoding: UTF-8
Language: zh
Country: CN
--></g></svg>