<svg xmlns="http://www.w3.org/2000/svg" xmlns:xlink="http://www.w3.org/1999/xlink" version="1.1" width="457.68388pt" height="295.004pt" viewBox="0 0 457.68388 295.004">
<defs>
<clipPath id="clip_0">
<path transform="matrix(1,0,0,-1,-2.33513,540)" d="M2.33513 244.996H460.019V540H2.33513Z" fill-rule="evenodd"/>
</clipPath>
<clipPath id="clip_1">
<path transform="matrix(1,0,0,-1,-2.33513,540)" d="M0 .00002324581H719.9999V540H0Z"/>
</clipPath>
<path id="font_2_6" d="M.59814456 .71777346V.63183596H.3564453V0H.2578125V.63183596H.016113282V.71777346H.59814456Z"/>
<path id="font_2_11" d="M.064453128 .5205078H.1538086V0H.064453128V.5205078M.064453128 .71777346H.1538086V.61816409H.064453128V.71777346Z"/>
<path id="font_2_12" d="M.064453128 .5234375H.15136719V.44921876C.17220052 .4749349 .19108074 .49365235 .20800781 .5053711 .23697917 .52522787 .26985679 .53515627 .30664063 .53515627 .34830729 .53515627 .38183595 .52490237 .40722657 .50439456 .42154948 .49267579 .4345703 .4754232 .44628907 .45263673 .4658203 .4806315 .48876954 .5013835 .5151367 .5148926 .5415039 .5284017 .5711263 .53515627 .6040039 .53515627 .6743164 .53515627 .72216799 .5097402 .7475586 .45890809 .76123049 .43154399 .7680664 .3947296 .7680664 .34846498V0H.6767578V.36367799C.6767578 .39853923 .6680501 .42248536 .65063479 .43551637 .6332194 .44855754 .6119792 .45507813 .58691409 .45507813 .5524089 .45507813 .5227051 .44350688 .49780274 .42036439 .4729004 .39723207 .46044923 .35861717 .46044923 .30451966V0H.37109376V.3416748C.37109376 .37719728 .36686198 .4031016 .35839845 .41938783 .3450521 .4438324 .32014976 .4560547 .2836914 .4560547 .25048829 .4560547 .22029622 .44318138 .19311524 .4174347 .16593425 .3916982 .15234375 .34510295 .15234375 .27764894V0H.064453128V.5234375Z"/>
<path id="font_2_9" d="M.28222657 .53515627C.31933595 .53515627 .355306 .52644857 .39013673 .5090332 .42496745 .49161784 .4514974 .4690806 .46972657 .4414215 .4873047 .41505433 .49902345 .3842977 .5048828 .3491516 .5100911 .32506309 .5126953 .28647868 .5126953 .23339844H.12939453C.13102214 .18033855 .14355469 .13777669 .16699219 .10571289 .19042969 .073649089 .22672527 .057617189 .2758789 .057617189 .32177735 .057617189 .35839845 .07261658 .3857422 .10261536 .4013672 .12003072 .4124349 .14018758 .4189453 .16308594H.5053711C.50309249 .14398194 .49552409 .122690837 .48266603 .09921265 .46980796 .07574463 .45540367 .05656433 .43945313 .041671754 .4127604 .01576233 .37972007-.0017242432 .34033204-.010787964 .3191732-.01596578 .2952474-.018554688 .2685547-.018554688 .20345052-.018554688 .14827474 .0051472985 .103027347 .05255127 .05777995 .09995524 .03515625 .16634114 .03515625 .25170899 .03515625 .33576457 .057942708 .40401713 .103515628 .45646668 .14908855 .5089264 .20865886 .53515627 .28222657 .53515627M.42236329 .30371095C.41878257 .34191896 .41048179 .37245179 .39746095 .39530946 .3733724 .4377594 .33317057 .45898438 .27685548 .45898438 .23649089 .45898438 .20263672 .44437156 .17529297 .41514588 .14794922 .3859202 .13346355 .34877525 .13183594 .30371095H.42236329M.27392579 .5361328V.5361328Z"/>
<path id="font_3_1" d="M0 0Z"/>
<path id="font_2_10" d="M.064453128 .71875H.15234375V.45214845C.17317708 .4786682 .19189453 .4973297 .2084961 .50813296 .2368164 .5267995 .2721354 .5361328 .31445313 .5361328 .39029948 .5361328 .44173179 .50957748 .46875 .45646668 .48339845 .42747499 .49072267 .38723756 .49072267 .3357544V0H.40039063V.32958985C.40039063 .3680013 .3955078 .39615885 .3857422 .4140625 .36979167 .44270835 .33984376 .45703126 .29589845 .45703126 .2594401 .45703126 .22639974 .4444987 .19677735 .4194336 .16715496 .3943685 .15234375 .34700523 .15234375 .27734376V0H.064453128V.71875Z"/>
<path id="font_2_15" d="M.06689453 .5234375H.15039063V.4326172C.15722656 .4502767 .17399089 .4717814 .2006836 .49713136 .2273763 .52248129 .25813804 .53515627 .29296876 .53515627 .29459635 .53515627 .29736329 .5349579 .30126954 .53456118 .30517579 .5341746 .31184898 .5333964 .32128907 .53222659V.43945313C.31608073 .44062297 .3112793 .44140116 .30688478 .44178773 .30249024 .44218446 .2976888 .4423828 .29248048 .4423828 .24820964 .4423828 .2141927 .4280599 .19042969 .39941407 .16666667 .37076823 .15478516 .33789063 .15478516 .30078126V0H.06689453V.5234375Z"/>
<path id="font_2_7" d="M.13183594 .1394043C.13183594 .114095058 .14111328 .09413656 .15966797 .07952881 .17822266 .06492106 .20019531 .057617189 .22558594 .057617189 .2565104 .057617189 .28645835 .06471761 .3154297 .07891846 .3642578 .10247803 .38867188 .14127605 .38867188 .1953125V.26611329C.3779297 .25886027 .36409507 .2528127 .34716798 .24797058 .33024089 .24313863 .3136393 .23983257 .29736329 .23805237L.24414063 .23184204C.21223958 .22799683 .1883138 .22153218 .17236328 .21244812 .14534505 .19718933 .13183594 .17284139 .13183594 .1394043M.34472657 .31689454C.36490885 .3194987 .37841798 .32796226 .3852539 .34228517 .38916017 .35012818 .39111329 .36140443 .39111329 .3761139 .39111329 .40618388 .38045249 .42799888 .35913087 .44155885 .33780924 .455129 .30729167 .46191407 .26757813 .46191407 .22167969 .46191407 .18912761 .44948326 .16992188 .42462159 .15917969 .4108785 .15218099 .39043174 .14892578 .36328126H.06689453C.06852213 .42791749 .08943685 .47288514 .12963867 .4981842 .1698405 .5234833 .21647136 .5361328 .26953126 .5361328 .3310547 .5361328 .38102214 .52441409 .4194336 .50097659 .45751954 .47753907 .4765625 .4410502 .4765625 .39151V.08985901C.4765625 .08073425 .47843424 .073404949 .48217774 .067871097 .48592124 .06233724 .4938151 .059570314 .5058594 .059570314 .5097656 .059570314 .51416018 .059814454 .51904299 .060302736 .5239258 .060791017 .5291341 .061523439 .53466799 .0625V-.0028076173C.5209961-.00676473 .5105794-.009236653 .50341799-.010223389 .4962565-.011220296 .48649089-.01171875 .4741211-.01171875 .44384767-.01171875 .421875-.0009104411 .40820313 .020706177 .40104167 .032170614 .3959961 .048380536 .3930664 .06933594 .37516276 .045633954 .34944663 .025060019 .31591798 .0076141359 .2823893-.009831746 .2454427-.018554688 .20507813-.018554688 .15657552-.018554688 .11694336-.0037790936 .08618164 .025772095 .055419923 .055323285 .040039064 .092300418 .040039064 .13670349 .040039064 .18535869 .05517578 .22307332 .08544922 .24984741 .115722659 .2766215 .1554362 .29311119 .20458985 .2993164L.34472657 .31689454M.27197267 .5361328V.5361328Z"/>
<path id="font_2_8" d="M.12011719 .2553711C.12011719 .19923909 .1319987 .15224712 .15576172 .11439514 .17952474 .076543178 .21761067 .057617189 .27001954 .057617189 .31070964 .057617189 .3441569 .075154628 .37036134 .11022949 .39656578 .14531453 .40966798 .19565328 .40966798 .26124574 .40966798 .32748924 .39615885 .37651573 .36914063 .4083252 .3421224 .44014488 .3087565 .4560547 .26904298 .4560547 .22477214 .4560547 .18888347 .4390869 .16137696 .40515138 .13387044 .37121583 .12011719 .32128907 .12011719 .2553711M.2524414 .53222659C.29248048 .53222659 .32600913 .52381899 .35302735 .5070038 .36865235 .4972992 .38639323 .48031617 .40625 .4560547V.71875H.49072267V0H.4116211V.07229614C.39111329 .04023234 .36686198 .017074585 .3388672 .002822876 .3108724-.011428833 .2788086-.018554688 .24267578-.018554688 .18440755-.018554688 .13395183 .0059407555 .091308597 .05493164 .048665365 .10392252 .02734375 .16910808 .02734375 .25048829 .02734375 .32666017 .04679362 .39265953 .08569336 .44848634 .1245931 .5043132 .18017578 .53222659 .2524414 .53222659Z"/>
<path id="font_2_1" d="M0 0Z"/>
<path id="font_2_4" d="M.095703128 .4951172V.5625C.15917969 .5686849 .20345052 .5790202 .22851563 .59350588 .25358073 .6079915 .2722982 .6422526 .28466798 .69628909H.3540039V0H.2602539V.4951172H.095703128Z"/>
<path id="font_2_2" d="M.29589845 .7294922C.24479167 .6301575 .21158855 .55703738 .19628906 .51013186 .17317708 .43881227 .1616211 .3564148 .1616211 .26293946 .1616211 .16848755 .17480469 .08217875 .20117188 .0040130617 .21744792-.044184369 .24951172-.11355591 .29736329-.20410156H.23828125C.1907552-.12984212 .16129558-.08245341 .14990235-.061935426 .13850911-.04141744 .12613933-.013570149 .11279297 .021606446 .094563808 .06980387 .08186849 .1212616 .07470703 .17597962 .071126308 .2043101 .06933594 .23134358 .06933594 .25708009 .06933594 .3534851 .084472659 .43930564 .114746097 .5145416 .13395183 .5624135 .17399089 .6340637 .23486328 .7294922H.29589845Z"/>
<path id="font_2_13" d="M.064453128 .5234375H.14794922V.44921876C.1726888 .47981773 .19889324 .50179037 .2265625 .5151367 .25423179 .5284831 .2849935 .53515627 .31884767 .53515627 .3930664 .53515627 .44319663 .5092519 .46923829 .45744325 .4835612 .42910258 .49072267 .38853965 .49072267 .3357544V0H.4013672V.3299408C.4013672 .36188255 .39664714 .38762919 .38720704 .4071808 .37158204 .4397634 .34326173 .4560547 .3022461 .4560547 .28141276 .4560547 .2643229 .4539388 .25097657 .44970704 .22688802 .4425354 .20572917 .42819724 .1875 .4066925 .17285156 .38941957 .16333008 .37157694 .15893555 .35316468 .15454102 .3347524 .15234375 .30844117 .15234375 .27423097V0H.064453128V.5234375M.2709961 .5361328V.5361328Z"/>
<path id="font_2_16" d="M.08203125 .66796877H.17089844V.5234375H.25439454V.4501953H.17089844V.110183719C.17089844 .09202576 .17708333 .07986959 .18945313 .07371521 .19628906 .07014465 .2076823 .068359378 .22363281 .068359378 .22786458 .068359378 .23242188 .06846619 .23730469 .06867981 .2421875 .0689036 .24788411 .06944784 .25439454 .0703125V0C.24430339-.0031026204 .23380535-.005340576 .22290039-.006713867 .21199544-.008097331 .20019531-.0087890629 .1875-.0087890629 .14648438-.0087890629 .118652347 .0016988119 .104003909 .02267456 .08935547 .04365031 .08203125 .070882167 .08203125 .10437012V.4501953H.011230469V.5234375H.08203125V.66796877Z"/>
<path id="font_2_3" d="M.03466797-.20410156C.08642578-.103139247 .119791667-.029530844 .13476563 .016723633 .15755208 .08674113 .16894531 .16881307 .16894531 .26293946 .16894531 .35706584 .15576172 .44321189 .12939453 .52137759 .11311849 .569575 .08105469 .63894656 .033203126 .7294922H.092285159C.14241536 .64937338 .17277019 .59995016 .18334961 .58122256 .19392903 .56249496 .20540364 .5366821 .21777344 .5037842 .23339844 .46307374 .24454753 .42285157 .2512207 .38311769 .2578939 .3433838 .26123048 .30511476 .26123048 .26831056 .26123048 .17190552 .24593099 .08592224 .21533203 .010360718 .1961263-.03816223 .15625-.10964966 .095703128-.20410156H.03466797Z"/>
<path id="font_2_5" d="M.03125 0C.034505208 .060221357 .04695638 .11263021 .068603519 .15722656 .09025065 .20182292 .13248699 .24235027 .1953125 .2788086L.2890625 .3330078C.3310547 .35742188 .3605143 .3782908 .3774414 .39561463 .40413413 .4227346 .41748048 .45377604 .41748048 .488739 .41748048 .52959188 .40527345 .562027 .38085938 .5860443 .3564453 .61006167 .32389323 .6220703 .28320313 .6220703 .22298177 .6220703 .18131511 .5991516 .15820313 .5533142 .14583333 .52875778 .13899739 .4947103 .13769531 .45117188H.048339845C.049316408 .5121663 .060546876 .5619049 .08203125 .6003876 .12011719 .66822817 .18733724 .70214846 .2836914 .70214846 .36376954 .70214846 .4222819 .68047079 .45922853 .6371155 .49617515 .5937703 .51464846 .5455373 .51464846 .49241639 .51464846 .4363556 .49495445 .388443 .4555664 .3486786 .43277995 .3255361 .3919271 .29752604 .3330078 .26464845L.26611329 .22753906C.23421224 .20996094 .20914714 .19319661 .19091797 .1772461 .15836589 .14892578 .13785808 .11751302 .12939453 .08300781H.51123049V0H.03125Z"/>
<path id="font_2_14" d="M.28515626 .057617189C.32617188 .057617189 .36027018 .07486979 .38745118 .109375 .41463218 .14389038 .42822267 .1954956 .42822267 .26419068 .42822267 .3060608 .42220054 .34204103 .41015626 .37213136 .38736979 .43003337 .34570313 .45898438 .28515626 .45898438 .22428386 .45898438 .18261719 .42840068 .16015625 .36723329 .14811199 .33451844 .14208985 .29297386 .14208985 .24259949 .14208985 .20204163 .14811199 .16753133 .16015625 .1390686 .1829427 .08476766 .22460938 .057617189 .28515626 .057617189M.057617189 .5205078H.1430664V.45162965C.16064453 .47540284 .17985027 .49379985 .2006836 .5068207 .23030599 .5263621 .26513673 .5361328 .30517579 .5361328 .36442057 .5361328 .41471354 .5133667 .4560547 .46783448 .49739585 .42230226 .5180664 .3572693 .5180664 .2727356 .5180664 .1585083 .48828126 .07691447 .42871095 .027954102 .39095054-.0030517579 .34700523-.018554688 .296875-.018554688 .25748698-.018554688 .22444661-.009984334 .1977539 .007156372 .1821289 .016860962 .16471355 .033518476 .14550781 .057128908V-.20898438H.057617189V.5205078Z"/>
<path id="font_4_2" d="M.7504883 .71777346 .7324219 .63183596H.49072267L.3564453 0H.2578125L.39208985 .63183596H.15039063L.16845703 .71777346H.7504883Z"/>
<path id="font_4_7" d="M.21728516 .71972659H.30517579L.24804688 .45214845C.2747396 .4786682 .29752604 .4973297 .31640626 .50813296 .3486328 .5267995 .38590495 .5361328 .42822267 .5361328 .50406906 .5361328 .5498047 .50957748 .5654297 .45646668 .57389327 .42747499 .5727539 .38723756 .5620117 .3357544L.49072267 0H.40039063L.47021485 .32958985C.47835288 .3680013 .4794922 .39615885 .4736328 .4140625 .46354167 .44270835 .43652345 .45703126 .39257813 .45703126 .35611979 .45703126 .32047526 .4444987 .28564454 .4194336 .2508138 .3943685 .22591146 .34700523 .2109375 .27734376L.15234375 0H.064453128L.21728516 .71972659Z"/>
<path id="font_4_11" d="M.17773438 .5234375H.26123048L.2421875 .43301393C.25260417 .4506124 .2738444 .47203575 .3059082 .49728395 .33797203 .52253219 .37141929 .53515627 .40625 .53515627 .4078776 .53515627 .41064454 .5349579 .41455079 .53456118 .41845704 .5341746 .42496745 .5333964 .43408204 .53222659L.41455079 .4399414C.40934245 .44091798 .4046224 .441569 .40039063 .44189454 .39615885 .44222007 .3914388 .4423828 .38623048 .4423828 .34195964 .4423828 .30493165 .428126 .27514649 .39961244 .24536133 .37109886 .22639974 .338267 .21826172 .30111695L.15478516 0H.06689453L.17773438 .5234375Z"/>
<path id="font_4_6" d="M.5629883 .44125367C.57503256 .4148458 .5802409 .3840332 .5786133 .34881593 .5789388 .32468669 .57340499 .2862142 .5620117 .23339844H.17871094C.16894531 .18033855 .17244466 .13777669 .18920899 .10571289 .20597331 .073649089 .2389323 .057617189 .28808595 .057617189 .33398438 .057617189 .3736979 .072779338 .40722657 .10310364 .4267578 .12070211 .44222007 .14107768 .45361329 .16423035H.54003909C.5335286 .14500427 .521403 .12358093 .5036621 .09996033 .48592124 .07633972 .4674479 .057037355 .4482422 .042053224 .41601563 .015981039 .37923179-.0016174316 .33789063-.0107421879 .3154297-.015950522 .29085288-.018554688 .26416017-.018554688 .19905599-.018554688 .14892578 .0051472985 .11376953 .05255127 .07861328 .09995524 .07014974 .16634114 .088378909 .25170899 .106282558 .33576457 .14355469 .40401713 .20019531 .45646668 .25683595 .5089264 .3219401 .53515627 .3955078 .53515627 .4326172 .53515627 .46679688 .5264333 .49804688 .5089874 .5292969 .49154154 .55094406 .46896363 .5629883 .44125367M.48632813 .30371095C.4908854 .3416748 .48909507 .37201438 .48095704 .3947296 .46598307 .43691508 .43033854 .4580078 .37402345 .4580078 .33365885 .4580078 .29671226 .44348655 .2631836 .41444398 .22965496 .3854014 .20719402 .3484904 .19580078 .30371095H.48632813Z"/>
<path id="font_4_3" d="M.23730469 .057617189C.26822917 .057617189 .2998047 .06476847 .33203126 .079071048 .3857422 .10281372 .41845704 .14166768 .43017579 .19563294L.44482423 .26635743C.43277995 .25953166 .417806 .25384013 .39990235 .24928284 .3819987 .24473572 .3647461 .2414856 .34814454 .23953247L.29345704 .23271179C.26057945 .22848003 .2351888 .22181194 .21728516 .21270752 .18701172 .19742839 .16829427 .17304485 .16113281 .13955689 .15559896 .11419678 .16056316 .09419759 .17602539 .079559329 .19148763 .064931239 .21191406 .057617189 .23730469 .057617189M.4116211 .31723023C.43245445 .31984458 .44791667 .32831828 .4580078 .34265138 .46354167 .35047404 .46777345 .3617147 .47070313 .3763733 .47721354 .40635173 .4711914 .4281006 .45263673 .44161988 .43408204 .45514933 .4049479 .46191407 .36523438 .46191407 .31933595 .46191407 .2841797 .44954429 .25976563 .4248047 .24609375 .4111328 .23486328 .39078776 .22607422 .36376954H.14404297C.15934246 .42822267 .18977864 .47306315 .23535156 .49829103 .28092448 .52351889 .33024089 .5361328 .38330079 .5361328 .44482423 .5361328 .4921875 .52441409 .5253906 .50097659 .55859377 .47753907 .569987 .44108073 .5595703 .39160157L.49560548 .09033203C.49365235 .081217449 .49389649 .07389323 .4963379 .068359378 .4987793 .06282552 .50602218 .060058595 .5180664 .060058595 .52197268 .060058595 .52644857 .060343427 .53149417 .060913087 .53653976 .061482748 .5419922 .06233724 .54785159 .06347656L.5336914-.0027618409C.51936849-.0067392985 .5085449-.009226481 .5012207-.010223389 .49389649-.011220296 .48404948-.01171875 .4716797-.01171875 .44140626-.01171875 .42171226-.00090026858 .41259767 .020736695 .40771485 .032211305 .40608726 .04843648 .40771485 .06941223 .38460288 .045954389 .3544922 .02558899 .3173828 .00831604 .28027345-.008946736 .24153646-.017578125 .20117188-.017578125 .15266927-.017578125 .116129558-.0028330486 .091552738 .026657105 .066975917 .05614726 .05940755 .093048099 .068847659 .13735962 .07926432 .18591309 .10245768 .22355144 .13842774 .25027467 .17439778 .2769979 .21761067 .29345194 .2680664 .29963685L.4116211 .31723023Z"/>
<path id="font_4_5" d="M.28222657 .05859375C.32291667 .05859375 .36002604 .076044719 .3935547 .110946658 .42708335 .14585877 .45084635 .19594829 .46484376 .2612152 .47884117 .32713319 .4757487 .37592063 .4555664 .4075775 .43538413 .4392446 .4054362 .45507813 .36572267 .45507813 .3214518 .45507813 .28198243 .43819175 .24731446 .40441896 .21264649 .37064616 .1883138 .32096354 .1743164 .2553711 .16227214 .19952393 .16414388 .15276592 .17993164 .115097049 .1957194 .077428188 .2298177 .05859375 .28222657 .05859375M.46044923 .50683596C.4741211 .4970703 .48828126 .47998048 .5029297 .4555664L.55908206 .71972659H.6435547L.49072267 0H.4116211L.4267578 .072753909C.39941407 .040527345 .37019859 .017252604 .33911134 .0029296876 .30802409-.0113932299 .27441407-.018554688 .23828125-.018554688 .18001302-.018554688 .13476563 .0059407555 .10253906 .05493164 .0703125 .10392252 .06298828 .16910808 .080566409 .25048829 .09651693 .32666017 .12988281 .39265953 .18066406 .44848634 .23144531 .5043132 .29296876 .53222659 .36523438 .53222659 .40527345 .53222659 .43701173 .523763 .46044923 .50683596Z"/>
<path id="font_4_1" d="M0 0Z"/>
<path id="font_4_4" d="M.55029299 .3466797H.46484376C.46647135 .37890626 .46028648 .40568034 .44628907 .42700196 .43229167 .44832359 .40478517 .45898438 .36376954 .45898438 .30777995 .45898438 .2618815 .43164063 .22607422 .37695313 .20296224 .34147135 .18587239 .2976888 .17480469 .24560547 .16341146 .19319661 .16503906 .14908855 .1796875 .11328125 .19433594 .07747396 .22542317 .059570314 .27294923 .059570314 .30940757 .059570314 .34065757 .0707194 .36669923 .09301758 .39274089 .11531576 .41389976 .14583333 .43017579 .18457031H.515625C.49121095 .115234378 .4560547 .06453451 .41015626 .032470704 .3642578 .00040690104 .3108724-.015625 .25-.015625 .18164063-.015625 .1324056 .009379069 .10229492 .059387208 .07218424 .10940552 .065104167 .17188008 .08105469 .24681092 .10058594 .33868919 .13810222 .41020204 .19360352 .4613495 .24910482 .51250717 .3113607 .53808596 .3803711 .53808596 .43929038 .53808596 .48413087 .5237274 .5148926 .49501039 .5456543 .46629334 .5574544 .41684977 .55029299 .3466797Z"/>
<path id="font_4_10" d="M.4814453 .26976014C.49186198 .31852723 .49251304 .35819499 .48339845 .38876344 .46875 .4368795 .43115235 .4609375 .37060548 .4609375 .31689454 .4609375 .2735189 .4404551 .24047852 .39949037 .20743816 .3585256 .18473308 .30910746 .17236328 .25123597 .16064453 .19563294 .16300456 .14929708 .17944336 .11222839 .19588216 .07516988 .23063152 .056640626 .2836914 .056640626 .34195964 .056640626 .38663737 .07866923 .4177246 .12272644 .44881187 .16678365 .4700521 .21579488 .4814453 .26976014M.57373049 .27223207C.55582687 .18784078 .5205078 .1181132 .46777345 .06304932 .41503907 .0079956059 .34554038-.01953125 .25927735-.01953125 .18733724-.01953125 .13541667 .0048217775 .103515628 .053527833 .071614589 .10223389 .06429037 .16763814 .08154297 .2497406 .10042318 .33771263 .13769531 .40776063 .19335938 .45988465 .24902344 .51201888 .31445313 .53808596 .38964845 .53808596 .45703126 .53808596 .509196 .5156047 .5461426 .4706421 .5830892 .42567954 .59228518 .35954286 .57373049 .27223207Z"/>
<path id="font_4_9" d="M.17529297 .5234375H.25878907L.24316406 .44914247C.27441407 .47977195 .30525718 .50176498 .33569337 .51512148 .36612956 .52847799 .39827476 .53515627 .4321289 .53515627 .50634768 .53515627 .55094406 .5092519 .56591799 .45744325 .57438156 .42910258 .5730794 .38853965 .5620117 .3357544L.49072267 0H.4013672L.4711914 .3299408C.47802735 .36188255 .47884117 .38762919 .4736328 .4071808 .46484376 .4397634 .4399414 .4560547 .39892579 .4560547 .37809245 .4560547 .3605143 .4539388 .3461914 .44970704 .32047526 .4425354 .29622398 .42819724 .2734375 .4066925 .25520835 .38941957 .24194336 .37157694 .23364258 .35316468 .2253418 .3347524 .21761067 .30843608 .21044922 .2742157L.15234375 0H.064453128L.17529297 .5234375Z"/>
<path id="font_4_13" d="M.2241211 .6689453H.31298829L.28173829 .5234375H.36523438L.35009767 .45117188H.26660157L.19384766 .10948181C.1899414 .0912323 .19352214 .07901001 .20458985 .07281494 .21077474 .069234218 .22184246 .06744385 .23779297 .06744385 .24202474 .06744385 .24658203 .06752523 .25146485 .06768799 .25634767 .067850749 .26220704 .06825765 .26904298 .06890869L.25439454-.00048828127C.24365235-.0034179688 .23266602-.005533854 .22143555-.0068359377 .21020508-.0081380209 .19824219-.0087890629 .18554688-.0087890629 .14453125-.0087890629 .118896488 .0017191569 .10864258 .022735596 .09838867 .043752035 .096842449 .07104492 .104003909 .10461426L.17773438 .45117188H.106933597L.12207031 .5234375H.1928711L.2241211 .6689453Z"/>
<path id="font_4_15" d="M.12548828 .5234375H.23925781L.3203125 .33918763 .48095704 .5234375 .58740237 .5209961 .35742188 .26831056 .48486329 0H.3725586L.2841797 .19647217 .11669922 0H.0053710939L.24609375 .26831056 .12548828 .5234375Z"/>
<path id="font_4_12" d="M.15136719 .1640625C.14778646 .13463338 .15039063 .11207072 .15917969 .09637451 .1751302 .06793213 .21044922 .053710939 .26513673 .053710939 .2976888 .053710939 .32788087 .060806276 .3557129 .07499695 .38354493 .08918762 .40055339 .11112467 .40673829 .1408081 .4116211 .16330974 .40527345 .1804301 .3876953 .19216919 .3766276 .199351 .35335288 .20767212 .3178711 .21713257L.25195313 .23474121C.20963542 .24582927 .17936199 .2582245 .16113281 .27192689 .1282552 .29574076 .116373699 .32868449 .12548828 .37075807 .13590496 .42033897 .16219075 .46045939 .2043457 .49111939 .24650066 .52177938 .2976888 .5371094 .35791017 .5371094 .4366862 .5371094 .48860679 .5139974 .5136719 .46777345 .5292969 .43847657 .5332031 .40690104 .5253906 .37304688H.4423828C.44498698 .39290367 .44173179 .41097007 .4326172 .4272461 .41731773 .45035807 .38476563 .46191407 .33496095 .46191407 .3017578 .46191407 .27530924 .45555116 .25561524 .44282533 .23592122 .43010966 .22379558 .41331483 .21923828 .3924408 .21435547 .36960349 .22167969 .3513387 .24121094 .33764649 .25260417 .32948814 .27034507 .3223114 .2944336 .31611634L.34960938 .30192567C.40950523 .28659568 .44873048 .27175395 .46728517 .2574005 .49658204 .23488872 .50602218 .19949849 .49560548 .15122986 .48583985 .10458883 .4597168 .064305629 .41723634 .030380249 .37475587-.0035451253 .3173828-.020507813 .24511719-.020507813 .1673177-.020507813 .1159668-.002802531 .09106445 .032608034 .06616211 .06801859 .05810547 .111836757 .06689453 .1640625H.15136719Z"/>
<path id="font_4_14" d="M.21582031 .5234375 .2290039 .110946658 .41845704 .5234375H.51708987L.53271487 .11338806 .7265625 .5234375H.8144531L.5517578 0H.46044923L.4399414 .40516664 .25097657 0H.15966797L.119628909 .5234375H.21582031Z"/>
<path id="font_4_8" d="M.17480469 .5205078H.26416017L.1538086 0H.064453128L.17480469 .5205078M.21679688 .71777346H.30615235L.28466798 .61816409H.1953125L.21679688 .71777346Z"/>
<path id="font_5_1" d="M0 0Z"/>
</defs>
<g clip-path="url(#clip_0)">
<g clip-path="url(#clip_1)">
<path transform="matrix(1,0,0,-1,-2.33513,540)" d="M0 539.9999H719.9999V.00003079383H0Z" fill="#ffffff" fill-rule="evenodd"/>
<path transform="matrix(-.00007874014,-0,0,.00007874014,39.66486,6.000122)" stroke-width="12700" stroke-linecap="butt" stroke-linejoin="round" fill="none" stroke="#000000" d="M.01486208 .2321779 .9837953 3554413"/>
<path transform="matrix(1,0,0,-1,-2.33513,540)" d="M38.99992 258.125 41.99992 252.125 44.99992 258.1249Z" fill-rule="evenodd"/>
<use data-text="T" xlink:href="#font_2_6" transform="matrix(16,0,0,-16,-1.1351299,109.600009)"/>
<use data-text="i" xlink:href="#font_2_11" transform="matrix(16,0,0,-16,8.05207,109.600009)"/>
<use data-text="m" xlink:href="#font_2_12" transform="matrix(16,0,0,-16,11.607269,109.600009)"/>
<use data-text="e" xlink:href="#font_2_9" transform="matrix(16,0,0,-16,24.93527,109.600009)"/>
<use data-text="&#xfffd;" xlink:href="#font_3_1" transform="matrix(16,0,0,-16,33.834474,109.600009)"/>
<path transform="matrix(.00007874014,0,0,.00007874014,104.53987,54.00009)" stroke-width="38100" stroke-linecap="butt" stroke-linejoin="round" fill="none" stroke="#000000" d="M-.0005797893 .3259279V247650.4"/>
<path transform="matrix(1,0,0,-1,-2.33513,540)" d="M109.875 470.9999 106.875 461.9999 103.875 470.9999Z" fill-rule="evenodd"/>
<use data-text="T" xlink:href="#font_2_6" transform="matrix(16,0,0,-16,74.86486,25.599976)"/>
<use data-text="h" xlink:href="#font_2_10" transform="matrix(16,0,0,-16,84.637668,25.599976)"/>
<use data-text="r" xlink:href="#font_2_15" transform="matrix(16,0,0,-16,93.536869,25.599976)"/>
<use data-text="e" xlink:href="#font_2_9" transform="matrix(16,0,0,-16,98.86486,25.599976)"/>
<use data-text="a" xlink:href="#font_2_7" transform="matrix(16,0,0,-16,107.76406,25.599976)"/>
<use data-text="d" xlink:href="#font_2_8" transform="matrix(16,0,0,-16,116.66326,25.599976)"/>
<use data-text=" " xlink:href="#font_2_1" transform="matrix(16,0,0,-16,125.56246,25.599976)"/>
<use data-text="1" xlink:href="#font_2_4" transform="matrix(16,0,0,-16,130.00727,25.599976)"/>
<use data-text="&#xfffd;" xlink:href="#font_3_1" transform="matrix(16,0,0,-16,138.90647,25.599976)"/>
<use data-text="(" xlink:href="#font_2_2" transform="matrix(16,0,0,-16,58.86486,44.600099)"/>
<use data-text="m" xlink:href="#font_2_12" transform="matrix(16,0,0,-16,64.19286,44.600099)"/>
<use data-text="a" xlink:href="#font_2_7" transform="matrix(16,0,0,-16,77.52086,44.600099)"/>
<use data-text="i" xlink:href="#font_2_11" transform="matrix(16,0,0,-16,86.42006,44.600099)"/>
<use data-text="n" xlink:href="#font_2_13" transform="matrix(16,0,0,-16,89.975269,44.600099)"/>
<use data-text=" " xlink:href="#font_2_1" transform="matrix(16,0,0,-16,98.874469,44.600099)"/>
<use data-text="t" xlink:href="#font_2_16" transform="matrix(16,0,0,-16,103.31927,44.600099)"/>
<use data-text="h" xlink:href="#font_2_10" transform="matrix(16,0,0,-16,107.76407,44.600099)"/>
<use data-text="r" xlink:href="#font_2_15" transform="matrix(16,0,0,-16,116.66327,44.600099)"/>
<use data-text="e" xlink:href="#font_2_9" transform="matrix(16,0,0,-16,121.99127,44.600099)"/>
<use data-text="a" xlink:href="#font_2_7" transform="matrix(16,0,0,-16,130.89048,44.600099)"/>
<use data-text="d" xlink:href="#font_2_8" transform="matrix(16,0,0,-16,139.78968,44.600099)"/>
<use data-text=")" xlink:href="#font_2_3" transform="matrix(16,0,0,-16,148.68888,44.600099)"/>
<use data-text="&#xfffd;" xlink:href="#font_3_1" transform="matrix(16,0,0,-16,154.01688,44.600099)"/>
<use data-text="T" xlink:href="#font_2_6" transform="matrix(16,0,0,-16,190.48987,25.599976)"/>
<use data-text="h" xlink:href="#font_2_10" transform="matrix(16,0,0,-16,200.26267,25.599976)"/>
<use data-text="r" xlink:href="#font_2_15" transform="matrix(16,0,0,-16,209.16187,25.599976)"/>
<use data-text="e" xlink:href="#font_2_9" transform="matrix(16,0,0,-16,214.48987,25.599976)"/>
<use data-text="a" xlink:href="#font_2_7" transform="matrix(16,0,0,-16,223.38907,25.599976)"/>
<use data-text="d" xlink:href="#font_2_8" transform="matrix(16,0,0,-16,232.28827,25.599976)"/>
<use data-text=" " xlink:href="#font_2_1" transform="matrix(16,0,0,-16,241.18747,25.599976)"/>
<use data-text="2" xlink:href="#font_2_5" transform="matrix(16,0,0,-16,245.63227,25.599976)"/>
<use data-text="&#xfffd;" xlink:href="#font_3_1" transform="matrix(16,0,0,-16,254.53147,25.599976)"/>
<use data-text="(" xlink:href="#font_2_2" transform="matrix(16,0,0,-16,176.48987,44.600099)"/>
<use data-text="p" xlink:href="#font_2_14" transform="matrix(16,0,0,-16,181.81787,44.600099)"/>
<use data-text="e" xlink:href="#font_2_9" transform="matrix(16,0,0,-16,190.71707,44.600099)"/>
<use data-text="e" xlink:href="#font_2_9" transform="matrix(16,0,0,-16,199.61627,44.600099)"/>
<use data-text="r" xlink:href="#font_2_15" transform="matrix(16,0,0,-16,208.51548,44.600099)"/>
<use data-text=" " xlink:href="#font_2_1" transform="matrix(16,0,0,-16,213.84348,44.600099)"/>
<use data-text="t" xlink:href="#font_2_16" transform="matrix(16,0,0,-16,218.28827,44.600099)"/>
<use data-text="h" xlink:href="#font_2_10" transform="matrix(16,0,0,-16,222.73308,44.600099)"/>
<use data-text="r" xlink:href="#font_2_15" transform="matrix(16,0,0,-16,231.63228,44.600099)"/>
<use data-text="e" xlink:href="#font_2_9" transform="matrix(16,0,0,-16,236.96027,44.600099)"/>
<use data-text="a" xlink:href="#font_2_7" transform="matrix(16,0,0,-16,245.85947,44.600099)"/>
<use data-text="d" xlink:href="#font_2_8" transform="matrix(16,0,0,-16,254.75867,44.600099)"/>
<use data-text=")" xlink:href="#font_2_3" transform="matrix(16,0,0,-16,263.65788,44.600099)"/>
<use data-text="&#xfffd;" xlink:href="#font_3_1" transform="matrix(16,0,0,-16,268.98588,44.600099)"/>
<path transform="matrix(-.00007874014,-0,0,.00007874014,223.28987,96.00009)" stroke-width="38100" stroke-linecap="butt" stroke-linejoin="round" fill="none" stroke="#000000" d="M.1155395-.0920409 1.084473 552450"/>
<path transform="matrix(1,0,0,-1,-2.33513,540)" d="M222.625 404.9999 225.6249 395.9999 228.6249 404.9999Z" fill-rule="evenodd"/>
<path transform="matrix(.00007874014,0,0,.00007874014,103.28987,162)" stroke-width="38100" stroke-linecap="butt" stroke-linejoin="round" fill="none" stroke="#000000" d="M-.003021196 .1492921V323850.2"/>
<path transform="matrix(1,0,0,-1,-2.33513,540)" d="M108.625 357 105.625 348 102.625 357Z" fill-rule="evenodd"/>
<path transform="matrix(.00007874014,0,0,.00007874014,68.5399,78.00009)" stroke-width="12700" stroke-linecap="butt" stroke-dasharray="50800,38100" stroke-linejoin="round" fill="none" stroke="#000000" d="M-.03649896-.1271971 2727325 1.035523"/>
<path transform="matrix(.00007874014,0,0,.00007874014,67.2899,192)" stroke-width="12700" stroke-linecap="butt" stroke-dasharray="50800,38100" stroke-linejoin="round" fill="none" stroke="#000000" d="M-.03894037 .2078858 2743200 1.370606"/>
<path transform="matrix(.00007874014,0,0,.00007874014,67.2899,258)" stroke-width="12700" stroke-linecap="butt" stroke-dasharray="50800,38100" stroke-linejoin="round" fill="none" stroke="#000000" d="M-.03894037 .08679205 2743200 1.249512"/>
<path transform="matrix(.00007874014,0,0,.00007874014,67.2899,144)" stroke-width="12700" stroke-linecap="butt" stroke-dasharray="50800,38100" stroke-linejoin="round" fill="none" stroke="#000000" d="M-.03894037 .1141358 2743200 1.276856"/>
<path transform="matrix(.00007874014,0,0,-.00007874014,67.2899,54.12509)" stroke-width="12700" stroke-linecap="butt" stroke-dasharray="50800,38100" stroke-linejoin="round" fill="none" stroke="#000000" d="M-.03894037-.2137453 2743200 1587.674"/>
<path transform="matrix(.00007874014,0,0,.00007874014,67.2899,96.00009)" stroke-width="12700" stroke-linecap="butt" stroke-dasharray="50800,38100" stroke-linejoin="round" fill="none" stroke="#000000" d="M-.03894037-.0920409 2743200 1.070679"/>
<path transform="matrix(.00007874014,0,0,.00007874014,103.28987,78.00009)" stroke-width="38100" stroke-linecap="butt" stroke-linejoin="round" fill="none" stroke="#000000" d="M-.003021196-.1271971 1467482 220122.1"/>
<path transform="matrix(1,0,0,-1,-2.33513,540)" d="M217.1696 448.3018 225.625 443.9999 216.2796 442.3682Z" fill-rule="evenodd"/>
<path transform="matrix(-.00007874014,-0,0,.00007874014,223.28987,144)" stroke-width="38100" stroke-linecap="butt" stroke-linejoin="round" fill="none" stroke="#000000" d="M.1155395 .1141358 1467482 220122.4"/>
<path transform="matrix(1,0,0,-1,-2.33513,540)" d="M114.0804 382.3018 105.625 378 114.9705 376.3682Z" fill-rule="evenodd"/>
<path transform="matrix(.00007874014,0,0,.00007874014,67.2899,162)" stroke-width="12700" stroke-linecap="butt" stroke-dasharray="50800,38100" stroke-linejoin="round" fill="none" stroke="#000000" d="M-.03894037 .1492921 2743200 1.312012"/>
<path transform="matrix(.00007874014,0,0,.00007874014,67.2899,210)" stroke-width="12700" stroke-linecap="butt" stroke-dasharray="50800,38100" stroke-linejoin="round" fill="none" stroke="#000000" d="M-.03894037-.006957948 2743200 1.155762"/>
<use data-text="T" xlink:href="#font_4_2" transform="matrix(14,0,0,-14,296.48988,89.600009)"/>
<use data-text="h" xlink:href="#font_4_7" transform="matrix(14,0,0,-14,305.04109,89.600009)"/>
<use data-text="r" xlink:href="#font_4_11" transform="matrix(14,0,0,-14,312.82789,89.600009)"/>
<use data-text="e" xlink:href="#font_4_6" transform="matrix(14,0,0,-14,317.48988,89.600009)"/>
<use data-text="a" xlink:href="#font_4_3" transform="matrix(14,0,0,-14,325.27668,89.600009)"/>
<use data-text="d" xlink:href="#font_4_5" transform="matrix(14,0,0,-14,333.06349,89.600009)"/>
<use data-text=" " xlink:href="#font_4_1" transform="matrix(14,0,0,-14,340.85029,89.600009)"/>
<use data-text="c" xlink:href="#font_4_4" transform="matrix(14,0,0,-14,344.73948,89.600009)"/>
<use data-text="o" xlink:href="#font_4_10" transform="matrix(14,0,0,-14,351.73948,89.600009)"/>
<use data-text="n" xlink:href="#font_4_9" transform="matrix(14,0,0,-14,359.52629,89.600009)"/>
<use data-text="t" xlink:href="#font_4_13" transform="matrix(14,0,0,-14,367.31309,89.600009)"/>
<use data-text="e" xlink:href="#font_4_6" transform="matrix(14,0,0,-14,371.20228,89.600009)"/>
<use data-text="x" xlink:href="#font_4_15" transform="matrix(14,0,0,-14,378.98908,89.600009)"/>
<use data-text="t" xlink:href="#font_4_13" transform="matrix(14,0,0,-14,385.98908,89.600009)"/>
<use data-text=" " xlink:href="#font_4_1" transform="matrix(14,0,0,-14,389.8783,89.600009)"/>
<use data-text="s" xlink:href="#font_4_12" transform="matrix(14,0,0,-14,393.7675,89.600009)"/>
<use data-text="w" xlink:href="#font_4_14" transform="matrix(14,0,0,-14,400.7675,89.600009)"/>
<use data-text="i" xlink:href="#font_4_8" transform="matrix(14,0,0,-14,410.8783,89.600009)"/>
<use data-text="t" xlink:href="#font_4_13" transform="matrix(14,0,0,-14,413.98908,89.600009)"/>
<use data-text="c" xlink:href="#font_4_4" transform="matrix(14,0,0,-14,417.8783,89.600009)"/>
<use data-text="h" xlink:href="#font_4_7" transform="matrix(14,0,0,-14,424.8783,89.600009)"/>
<use data-text=" " xlink:href="#font_4_1" transform="matrix(14,0,0,-14,432.6651,89.600009)"/>
<use data-text="&#xfffd;" xlink:href="#font_5_1" transform="matrix(14,0,0,-14,436.55427,89.600009)"/>
<path transform="matrix(-.00007874014,-0,0,.00007874014,167.41487,12.000122)" stroke-width="12700" stroke-linecap="butt" stroke-linejoin="round" fill="none" stroke="#000000" d="M.05603033 .2438966 1.024964 3352800"/>
<path transform="matrix(.00007874014,0,0,.00007874014,103.28987,192)" stroke-width="38100" stroke-linecap="butt" stroke-linejoin="round" fill="none" stroke="#000000" d="M-.003021196 .2078858 1467482 220122.5"/>
<path transform="matrix(1,0,0,-1,-2.33513,540)" d="M217.1696 334.3018 225.625 330 216.2796 328.3682Z" fill-rule="evenodd"/>
<path transform="matrix(-.00007874014,-0,0,.00007874014,223.28987,210)" stroke-width="38100" stroke-linecap="butt" stroke-linejoin="round" fill="none" stroke="#000000" d="M.1155395-.006957948 1.084473 552450.1"/>
<path transform="matrix(1,0,0,-1,-2.33513,540)" d="M222.625 291 225.6249 282 228.6249 291Z" fill-rule="evenodd"/>
<path transform="matrix(.00007874014,0,0,.00007874014,287.41487,78.00009)" stroke-width="12700" stroke-linecap="butt" stroke-linejoin="round" fill="none" stroke="#000000" d="M-.07165533-.1271971C21042.06-.1271971 38099.93 8528.811 38099.93 19049.88V95249.89C38099.93 105771 55157.81 114299.9 76199.94 114299.9 55157.81 114299.9 38099.93 122828.8 38099.93 133349.9V209549.9C38099.93 220071 21042.06 228599.9-.07165533 228599.9"/>
<use data-text="T" xlink:href="#font_4_2" transform="matrix(14,0,0,-14,296.48988,155.6)"/>
<use data-text="h" xlink:href="#font_4_7" transform="matrix(14,0,0,-14,305.04109,155.6)"/>
<use data-text="r" xlink:href="#font_4_11" transform="matrix(14,0,0,-14,312.82789,155.6)"/>
<use data-text="e" xlink:href="#font_4_6" transform="matrix(14,0,0,-14,317.48988,155.6)"/>
<use data-text="a" xlink:href="#font_4_3" transform="matrix(14,0,0,-14,325.27668,155.6)"/>
<use data-text="d" xlink:href="#font_4_5" transform="matrix(14,0,0,-14,333.06349,155.6)"/>
<use data-text=" " xlink:href="#font_4_1" transform="matrix(14,0,0,-14,340.85029,155.6)"/>
<use data-text="c" xlink:href="#font_4_4" transform="matrix(14,0,0,-14,344.73948,155.6)"/>
<use data-text="o" xlink:href="#font_4_10" transform="matrix(14,0,0,-14,351.73948,155.6)"/>
<use data-text="n" xlink:href="#font_4_9" transform="matrix(14,0,0,-14,359.52629,155.6)"/>
<use data-text="t" xlink:href="#font_4_13" transform="matrix(14,0,0,-14,367.31309,155.6)"/>
<use data-text="e" xlink:href="#font_4_6" transform="matrix(14,0,0,-14,371.20228,155.6)"/>
<use data-text="x" xlink:href="#font_4_15" transform="matrix(14,0,0,-14,378.98908,155.6)"/>
<use data-text="t" xlink:href="#font_4_13" transform="matrix(14,0,0,-14,385.98908,155.6)"/>
<use data-text=" " xlink:href="#font_4_1" transform="matrix(14,0,0,-14,389.8783,155.6)"/>
<use data-text="s" xlink:href="#font_4_12" transform="matrix(14,0,0,-14,393.7675,155.6)"/>
<use data-text="w" xlink:href="#font_4_14" transform="matrix(14,0,0,-14,400.7675,155.6)"/>
<use data-text="i" xlink:href="#font_4_8" transform="matrix(14,0,0,-14,410.8783,155.6)"/>
<use data-text="t" xlink:href="#font_4_13" transform="matrix(14,0,0,-14,413.98908,155.6)"/>
<use data-text="c" xlink:href="#font_4_4" transform="matrix(14,0,0,-14,417.8783,155.6)"/>
<use data-text="h" xlink:href="#font_4_7" transform="matrix(14,0,0,-14,424.8783,155.6)"/>
<use data-text=" " xlink:href="#font_4_1" transform="matrix(14,0,0,-14,432.6651,155.6)"/>
<use data-text="&#xfffd;" xlink:href="#font_5_1" transform="matrix(14,0,0,-14,436.55427,155.6)"/>
<path transform="matrix(.00007874014,0,0,.00007874014,287.41487,144)" stroke-width="12700" stroke-linecap="butt" stroke-linejoin="round" fill="none" stroke="#000000" d="M-.07165533 .1141358C21042.06 .1141358 38099.93 8529.052 38099.93 19050.12V95250.12C38099.93 105771.2 55157.81 114300.1 76199.94 114300.1 55157.81 114300.1 38099.93 122829.1 38099.93 133350.1V209550.1C38099.93 220071.2 21042.06 228600.2-.07165533 228600.2"/>
<use data-text="T" xlink:href="#font_4_2" transform="matrix(14,0,0,-14,302.48988,203.6)"/>
<use data-text="h" xlink:href="#font_4_7" transform="matrix(14,0,0,-14,311.04109,203.6)"/>
<use data-text="r" xlink:href="#font_4_11" transform="matrix(14,0,0,-14,318.82789,203.6)"/>
<use data-text="e" xlink:href="#font_4_6" transform="matrix(14,0,0,-14,323.48988,203.6)"/>
<use data-text="a" xlink:href="#font_4_3" transform="matrix(14,0,0,-14,331.27668,203.6)"/>
<use data-text="d" xlink:href="#font_4_5" transform="matrix(14,0,0,-14,339.06349,203.6)"/>
<use data-text=" " xlink:href="#font_4_1" transform="matrix(14,0,0,-14,346.85029,203.6)"/>
<use data-text="c" xlink:href="#font_4_4" transform="matrix(14,0,0,-14,350.73948,203.6)"/>
<use data-text="o" xlink:href="#font_4_10" transform="matrix(14,0,0,-14,357.73948,203.6)"/>
<use data-text="n" xlink:href="#font_4_9" transform="matrix(14,0,0,-14,365.52629,203.6)"/>
<use data-text="t" xlink:href="#font_4_13" transform="matrix(14,0,0,-14,373.31309,203.6)"/>
<use data-text="e" xlink:href="#font_4_6" transform="matrix(14,0,0,-14,377.20228,203.6)"/>
<use data-text="x" xlink:href="#font_4_15" transform="matrix(14,0,0,-14,384.98908,203.6)"/>
<use data-text="t" xlink:href="#font_4_13" transform="matrix(14,0,0,-14,391.98908,203.6)"/>
<use data-text=" " xlink:href="#font_4_1" transform="matrix(14,0,0,-14,395.8783,203.6)"/>
<use data-text="s" xlink:href="#font_4_12" transform="matrix(14,0,0,-14,399.7675,203.6)"/>
<use data-text="w" xlink:href="#font_4_14" transform="matrix(14,0,0,-14,406.7675,203.6)"/>
<use data-text="i" xlink:href="#font_4_8" transform="matrix(14,0,0,-14,416.8783,203.6)"/>
<use data-text="t" xlink:href="#font_4_13" transform="matrix(14,0,0,-14,419.98908,203.6)"/>
<use data-text="c" xlink:href="#font_4_4" transform="matrix(14,0,0,-14,423.8783,203.6)"/>
<use data-text="h" xlink:href="#font_4_7" transform="matrix(14,0,0,-14,430.8783,203.6)"/>
<use data-text=" " xlink:href="#font_4_1" transform="matrix(14,0,0,-14,438.6651,203.6)"/>
<use data-text="&#xfffd;" xlink:href="#font_5_1" transform="matrix(14,0,0,-14,442.55427,203.6)"/>
<path transform="matrix(.00007874014,0,0,.00007874014,293.41487,192)" stroke-width="12700" stroke-linecap="butt" stroke-linejoin="round" fill="none" stroke="#000000" d="M-.05993658 .2078858C21042.07 .2078858 38099.95 8529.146 38099.95 19050.21V95250.22C38099.95 105771.3 55157.82 114300.2 76199.95 114300.2 55157.82 114300.2 38099.95 122829.2 38099.95 133350.2V209550.2C38099.95 220071.3 21042.07 228600.2-.05993658 228600.2"/>
</g>
</g>
</svg>
