<svg xmlns="http://www.w3.org/2000/svg" xmlns:xlink="http://www.w3.org/1999/xlink" version="1.1" width="413.317pt" height="176.69101pt" viewBox="0 0 413.317 176.69101">
<defs>
<clipPath id="clip_0">
<path transform="matrix(1,0,0,-1,0,540)" d="M0 363.309H413.317V540H0Z" fill-rule="evenodd"/>
</clipPath>
<clipPath id="clip_1">
<path transform="matrix(1,0,0,-1,0,540)" d="M0 .00002324581H719.9999V540H0Z"/>
</clipPath>
<path id="font_2_2" d="M.44433595 .2939453 .33544923 .61120608 .21972656 .2939453H.44433595M.28466798 .71777346H.39453126L.65478518 0H.54833987L.47558595 .21484375H.19189453L.11425781 0H.0146484379L.28466798 .71777346M.33496095 .71777346V.71777346Z"/>
<path id="font_2_11" d="M.06689453 .71777346H.15478516V0H.06689453V.71777346Z"/>
<path id="font_2_1" d="M0 0Z"/>
<path id="font_2_15" d="M.28515626 .057617189C.32617188 .057617189 .36027018 .07486979 .38745118 .109375 .41463218 .14389038 .42822267 .1954956 .42822267 .26419068 .42822267 .3060608 .42220054 .34204103 .41015626 .37213136 .38736979 .43003337 .34570313 .45898438 .28515626 .45898438 .22428386 .45898438 .18261719 .42840068 .16015625 .36723329 .14811199 .33451844 .14208985 .29297386 .14208985 .24259949 .14208985 .20204163 .14811199 .16753133 .16015625 .1390686 .1829427 .08476766 .22460938 .057617189 .28515626 .057617189M.057617189 .5205078H.1430664V.45162965C.16064453 .47540284 .17985027 .49379985 .2006836 .5068207 .23030599 .5263621 .26513673 .5361328 .30517579 .5361328 .36442057 .5361328 .41471354 .5133667 .4560547 .46783448 .49739585 .42230226 .5180664 .3572693 .5180664 .2727356 .5180664 .1585083 .48828126 .07691447 .42871095 .027954102 .39095054-.0030517579 .34700523-.018554688 .296875-.018554688 .25748698-.018554688 .22444661-.009984334 .1977539 .007156372 .1821289 .016860962 .16471355 .033518476 .14550781 .057128908V-.20898438H.057617189V.5205078Z"/>
<path id="font_2_17" d="M.06689453 .5234375H.15039063V.4326172C.15722656 .4502767 .17399089 .4717814 .2006836 .49713136 .2273763 .52248129 .25813804 .53515627 .29296876 .53515627 .29459635 .53515627 .29736329 .5349579 .30126954 .53456118 .30517579 .5341746 .31184898 .5333964 .32128907 .53222659V.43945313C.31608073 .44062297 .3112793 .44140116 .30688478 .44178773 .30249024 .44218446 .2976888 .4423828 .29248048 .4423828 .24820964 .4423828 .2141927 .4280599 .19042969 .39941407 .16666667 .37076823 .15478516 .33789063 .15478516 .30078126V0H.06689453V.5234375Z"/>
<path id="font_2_14" d="M.27197267 .057617189C.33024089 .057617189 .37019859 .07964579 .3918457 .123703 .41349284 .16776021 .4243164 .21677144 .4243164 .2707367 .4243164 .31950379 .4165039 .35917155 .4008789 .38974 .3761393 .43785606 .3334961 .46191407 .27294923 .46191407 .21923828 .46191407 .18017578 .44143168 .15576172 .40046693 .13134766 .35950218 .119140628 .31008403 .119140628 .25221253 .119140628 .1966095 .13134766 .15027364 .15576172 .113204959 .18017578 .076146449 .21891277 .057617189 .27197267 .057617189M.27539063 .53808596C.34277345 .53808596 .3997396 .5156453 .44628907 .47076417 .49283854 .42588298 .5161133 .35985819 .5161133 .27268983 .5161133 .1884613 .49560548 .11886088 .45458985 .06388855 .41357423 .008926392 .3499349-.018554688 .26367188-.018554688 .19173177-.018554688 .13460286 .00575765 .092285159 .054382326 .04996745 .103006999 .028808594 .16829936 .028808594 .2502594 .028808594 .33806864 .05110677 .4079895 .095703128 .46002198 .14029949 .51206466 .20019531 .53808596 .27539063 .53808596M.27246095 .5361328V.5361328Z"/>
<path id="font_2_9" d="M.24902344 .53222659C.29003907 .53222659 .32584635 .5220744 .3564453 .50177 .37304688 .49030558 .38997398 .4736023 .40722657 .45166017V.5185547H.48828126V.04234314C.48828126-.024154664 .47851563-.07663473 .45898438-.115097049 .42252604-.18615215 .35367839-.22167969 .2524414-.22167969 .1961263-.22167969 .14876302-.20906575 .11035156-.18383789 .0719401-.15861003 .05045573-.119140628 .045898439-.06542969H.1352539C.13948567-.08873495 .14794922-.10669454 .16064453-.11930847 .1805013-.13872783 .2117513-.1484375 .25439454-.1484375 .32177735-.1484375 .3658854-.12467448 .38671876-.07714844 .39908854-.04916382 .40478517 .0007985433 .4038086 .07273865 .38623048 .04588318 .36507163 .025904337 .34033204 .012802124 .31559245-.000289917 .2828776-.0068359377 .2421875-.0068359377 .18554688-.0068359377 .13598633 .013280232 .09350586 .053512575 .05102539 .09375509 .029785157 .16030376 .029785157 .25315858 .029785157 .34080506 .051188154 .40922547 .09399414 .4584198 .13680013 .5076243 .18847656 .53222659 .24902344 .53222659M.40722657 .26342774C.40722657 .328125 .39388023 .37607829 .3671875 .4072876 .34049479 .43849693 .30647788 .45410157 .26513673 .45410157 .20328777 .45410157 .16097005 .4251658 .1381836 .3672943 .12613933 .33641053 .12011719 .29593406 .12011719 .24586487 .12011719 .1870168 .13208008 .14223226 .15600586 .11151123 .17993164 .0807902 .21207683 .06542969 .2524414 .06542969 .31559245 .06542969 .36002604 .09387716 .3857422 .1507721 .4000651 .18295796 .40722657 .22050984 .40722657 .26342774M.25927735 .5361328V.5361328Z"/>
<path id="font_2_6" d="M.13183594 .1394043C.13183594 .114095058 .14111328 .09413656 .15966797 .07952881 .17822266 .06492106 .20019531 .057617189 .22558594 .057617189 .2565104 .057617189 .28645835 .06471761 .3154297 .07891846 .3642578 .10247803 .38867188 .14127605 .38867188 .1953125V.26611329C.3779297 .25886027 .36409507 .2528127 .34716798 .24797058 .33024089 .24313863 .3136393 .23983257 .29736329 .23805237L.24414063 .23184204C.21223958 .22799683 .1883138 .22153218 .17236328 .21244812 .14534505 .19718933 .13183594 .17284139 .13183594 .1394043M.34472657 .31689454C.36490885 .3194987 .37841798 .32796226 .3852539 .34228517 .38916017 .35012818 .39111329 .36140443 .39111329 .3761139 .39111329 .40618388 .38045249 .42799888 .35913087 .44155885 .33780924 .455129 .30729167 .46191407 .26757813 .46191407 .22167969 .46191407 .18912761 .44948326 .16992188 .42462159 .15917969 .4108785 .15218099 .39043174 .14892578 .36328126H.06689453C.06852213 .42791749 .08943685 .47288514 .12963867 .4981842 .1698405 .5234833 .21647136 .5361328 .26953126 .5361328 .3310547 .5361328 .38102214 .52441409 .4194336 .50097659 .45751954 .47753907 .4765625 .4410502 .4765625 .39151V.08985901C.4765625 .08073425 .47843424 .073404949 .48217774 .067871097 .48592124 .06233724 .4938151 .059570314 .5058594 .059570314 .5097656 .059570314 .51416018 .059814454 .51904299 .060302736 .5239258 .060791017 .5291341 .061523439 .53466799 .0625V-.0028076173C.5209961-.00676473 .5105794-.009236653 .50341799-.010223389 .4962565-.011220296 .48649089-.01171875 .4741211-.01171875 .44384767-.01171875 .421875-.0009104411 .40820313 .020706177 .40104167 .032170614 .3959961 .048380536 .3930664 .06933594 .37516276 .045633954 .34944663 .025060019 .31591798 .0076141359 .2823893-.009831746 .2454427-.018554688 .20507813-.018554688 .15657552-.018554688 .11694336-.0037790936 .08618164 .025772095 .055419923 .055323285 .040039064 .092300418 .040039064 .13670349 .040039064 .18535869 .05517578 .22307332 .08544922 .24984741 .115722659 .2766215 .1554362 .29311119 .20458985 .2993164L.34472657 .31689454M.27197267 .5361328V.5361328Z"/>
<path id="font_2_12" d="M.064453128 .5234375H.15136719V.44921876C.17220052 .4749349 .19108074 .49365235 .20800781 .5053711 .23697917 .52522787 .26985679 .53515627 .30664063 .53515627 .34830729 .53515627 .38183595 .52490237 .40722657 .50439456 .42154948 .49267579 .4345703 .4754232 .44628907 .45263673 .4658203 .4806315 .48876954 .5013835 .5151367 .5148926 .5415039 .5284017 .5711263 .53515627 .6040039 .53515627 .6743164 .53515627 .72216799 .5097402 .7475586 .45890809 .76123049 .43154399 .7680664 .3947296 .7680664 .34846498V0H.6767578V.36367799C.6767578 .39853923 .6680501 .42248536 .65063479 .43551637 .6332194 .44855754 .6119792 .45507813 .58691409 .45507813 .5524089 .45507813 .5227051 .44350688 .49780274 .42036439 .4729004 .39723207 .46044923 .35861717 .46044923 .30451966V0H.37109376V.3416748C.37109376 .37719728 .36686198 .4031016 .35839845 .41938783 .3450521 .4438324 .32014976 .4560547 .2836914 .4560547 .25048829 .4560547 .22029622 .44318138 .19311524 .4174347 .16593425 .3916982 .15234375 .34510295 .15234375 .27764894V0H.064453128V.5234375Z"/>
<path id="font_2_18" d="M.11669922 .1640625C.11930338 .13463338 .12662761 .11207072 .13867188 .09637451 .1608073 .06793213 .19921875 .053710939 .25390626 .053710939 .28645835 .053710939 .31510417 .060806276 .33984376 .07499695 .36458335 .08919779 .37695313 .11115011 .37695313 .14085388 .37695313 .16337586 .36702476 .18051148 .34716798 .19226074 .33447267 .19944255 .30940757 .20775859 .27197267 .21720886L.20214844 .2348175C.15755208 .24590557 .12467448 .25829569 .103515628 .27198792 .06575521 .29579164 .046875 .32873027 .046875 .37080384 .046875 .42036439 .064697269 .46046958 .1003418 .49111939 .13598633 .52177938 .18391927 .5371094 .24414063 .5371094 .32291667 .5371094 .37972007 .5139974 .41455079 .46777345 .4363607 .43847657 .4469401 .40690104 .44628907 .37304688H.36328126C.36165367 .39269004 .35465495 .41055808 .34228517 .426651 .32210288 .44950868 .28710938 .4609375 .23730469 .4609375 .20410156 .4609375 .17895508 .45461528 .16186524 .44197084 .14477539 .42933656 .13623047 .41264854 .13623047 .39190675 .13623047 .36922203 .14746094 .35107423 .16992188 .33746339 .1829427 .32936607 .20214844 .32221986 .22753906 .31602479L.28564454 .3018341C.34879557 .28650413 .39111329 .27166749 .41259767 .25732423 .44677735 .23482259 .4638672 .19944255 .4638672 .15118408 .4638672 .10455322 .44620768 .06428019 .41088868 .03036499 .37556968-.0035502117 .32177735-.020507813 .24951172-.020507813 .17171224-.020507813 .116617839-.002802531 .084228519 .032608034 .05183919 .06801859 .034505208 .111836757 .032226564 .1640625H.11669922M.24658203 .5361328V.5361328Z"/>
<path id="font_3_1" d="M0 0Z"/>
<path id="font_2_5" d="M.13964844 .23144531C.14192708 .19064331 .15152996 .1575063 .16845703 .1320343 .2006836 .084376018 .25748698 .060546876 .3388672 .060546876 .37532554 .060546876 .40852867 .06575521 .43847657 .076171878 .49641929 .096354167 .5253906 .13248189 .5253906 .18455506 .5253906 .22361756 .5131836 .25144959 .48876954 .26805116 .46402995 .2843882 .42529298 .29859925 .3725586 .3106842L.27539063 .3327484C.21191406 .3471222 .16699219 .36294047 .140625 .38020326 .095052089 .41016136 .072265628 .4549408 .072265628 .5145416 .072265628 .57902529 .094563808 .6319478 .13916016 .6733093 .18375652 .71467086 .24690755 .73535159 .32861329 .73535159 .4038086 .73535159 .46769206 .7172038 .5202637 .6809082 .57283529 .6446126 .5991211 .58658859 .5991211 .50683596H.5078125C.5029297 .5452474 .49251304 .57470706 .4765625 .59521487 .4469401 .6326497 .39664714 .6513672 .3256836 .6513672 .26839195 .6513672 .22721355 .63931277 .20214844 .61520388 .17708333 .591095 .16455078 .56307479 .16455078 .5311432 .16455078 .49595643 .17919922 .47021995 .2084961 .45393373 .22770183 .44350688 .27115885 .43047587 .3388672 .4148407L.43945313 .39187623C.48795573 .38079835 .5253906 .36565147 .5517578 .34643556 .59733077 .31288658 .6201172 .26419068 .6201172 .2003479 .6201172 .12085978 .59122726 .06401571 .53344729 .029815674 .47566734-.004384359 .40852867-.021484375 .33203126-.021484375 .24283855-.021484375 .17301433 .0013478597 .122558597 .04701233 .07210287 .0923411 .04736328 .15381877 .048339845 .23144531H.13964844M.3359375 .7373047V.7373047Z"/>
<path id="font_2_8" d="M.28222657 .53515627C.31933595 .53515627 .355306 .52644857 .39013673 .5090332 .42496745 .49161784 .4514974 .4690806 .46972657 .4414215 .4873047 .41505433 .49902345 .3842977 .5048828 .3491516 .5100911 .32506309 .5126953 .28647868 .5126953 .23339844H.12939453C.13102214 .18033855 .14355469 .13777669 .16699219 .10571289 .19042969 .073649089 .22672527 .057617189 .2758789 .057617189 .32177735 .057617189 .35839845 .07261658 .3857422 .10261536 .4013672 .12003072 .4124349 .14018758 .4189453 .16308594H.5053711C.50309249 .14398194 .49552409 .122690837 .48266603 .09921265 .46980796 .07574463 .45540367 .05656433 .43945313 .041671754 .4127604 .01576233 .37972007-.0017242432 .34033204-.010787964 .3191732-.01596578 .2952474-.018554688 .2685547-.018554688 .20345052-.018554688 .14827474 .0051472985 .103027347 .05255127 .05777995 .09995524 .03515625 .16634114 .03515625 .25170899 .03515625 .33576457 .057942708 .40401713 .103515628 .45646668 .14908855 .5089264 .20865886 .53515627 .28222657 .53515627M.42236329 .30371095C.41878257 .34191896 .41048179 .37245179 .39746095 .39530946 .3733724 .4377594 .33317057 .45898438 .27685548 .45898438 .23649089 .45898438 .20263672 .44437156 .17529297 .41514588 .14794922 .3859202 .13346355 .34877525 .13183594 .30371095H.42236329M.27392579 .5361328V.5361328Z"/>
<path id="font_2_16" d="M.12109375 .25463868C.12109375 .20945232 .1274414 .1715749 .14013672 .14100647 .16259766 .0867157 .20279949 .059570314 .2607422 .059570314 .3219401 .059570314 .36409507 .08818054 .38720704 .145401 .39990235 .17693584 .40625 .21724956 .40625 .26634217 .40625 .3115387 .3992513 .34925334 .3852539 .37948609 .36149089 .43118287 .31966148 .45703126 .25976563 .45703126 .22167969 .45703126 .18904622 .4405314 .16186524 .40753175 .13468425 .37453208 .12109375 .32356773 .12109375 .25463868M.25097657 .53515627C.29427085 .53515627 .33072917 .52419027 .36035157 .5022583 .3766276 .49047853 .3922526 .47312928 .40722657 .45021058V.5234375H.49072267V-.20898438H.40234376V.060546876C.3876953 .036956788 .36743165 .018198649 .34155274 .004272461 .31567384-.009643555 .28336589-.016601563 .2446289-.016601563 .18896485-.016601563 .13916016 .005228678 .095214847 .04888916 .05126953 .092549648 .029296875 .15901184 .029296875 .24827576 .029296875 .332016 .049886068 .40076194 .09106445 .45451356 .13224285 .50827535 .18554688 .53515627 .25097657 .53515627Z"/>
<path id="font_2_20" d="M.15234375 .5234375V.17590332C.15234375 .1491801 .15657552 .12734477 .16503906 .11039734 .18066406 .07911682 .20979817 .06347656 .2524414 .06347656 .3136393 .06347656 .355306 .09085083 .3774414 .14559937 .3894857 .17492676 .3955078 .21516927 .3955078 .2663269V.5234375H.48339845V0H.40039063L.4013672 .0771637C.38997398 .057195028 .3758138 .040339155 .35888673 .02659607 .32535807-.00090026858 .28466798-.0146484379 .2368164-.0146484379 .16227214-.0146484379 .11149088 .010299683 .084472659 .060195924 .06982422 .08693949 .0625 .12265015 .0625 .16732788V.5234375H.15234375M.27294923 .5361328V.5361328Z"/>
<path id="font_2_13" d="M.064453128 .5234375H.14794922V.44921876C.1726888 .47981773 .19889324 .50179037 .2265625 .5151367 .25423179 .5284831 .2849935 .53515627 .31884767 .53515627 .3930664 .53515627 .44319663 .5092519 .46923829 .45744325 .4835612 .42910258 .49072267 .38853965 .49072267 .3357544V0H.4013672V.3299408C.4013672 .36188255 .39664714 .38762919 .38720704 .4071808 .37158204 .4397634 .34326173 .4560547 .3022461 .4560547 .28141276 .4560547 .2643229 .4539388 .25097657 .44970704 .22688802 .4425354 .20572917 .42819724 .1875 .4066925 .17285156 .38941957 .16333008 .37157694 .15893555 .35316468 .15454102 .3347524 .15234375 .30844117 .15234375 .27423097V0H.064453128V.5234375M.2709961 .5361328V.5361328Z"/>
<path id="font_2_19" d="M.08203125 .66796877H.17089844V.5234375H.25439454V.4501953H.17089844V.110183719C.17089844 .09202576 .17708333 .07986959 .18945313 .07371521 .19628906 .07014465 .2076823 .068359378 .22363281 .068359378 .22786458 .068359378 .23242188 .06846619 .23730469 .06867981 .2421875 .0689036 .24788411 .06944784 .25439454 .0703125V0C.24430339-.0031026204 .23380535-.005340576 .22290039-.006713867 .21199544-.008097331 .20019531-.0087890629 .1875-.0087890629 .14648438-.0087890629 .118652347 .0016988119 .104003909 .02267456 .08935547 .04365031 .08203125 .070882167 .08203125 .10437012V.4501953H.011230469V.5234375H.08203125V.66796877Z"/>
<path id="font_2_10" d="M.064453128 .5205078H.1538086V0H.064453128V.5205078M.064453128 .71777346H.1538086V.61816409H.064453128V.71777346Z"/>
<path id="font_2_3" d="M.37841798 .7373047C.46923829 .7373047 .53971359 .71332809 .58984377 .66537478 .63997396 .61742147 .66780599 .5629476 .67333987 .5019531H.5786133C.5678711 .54817709 .5464681 .58479818 .5144043 .6118164 .48234049 .63883468 .43733726 .65234377 .37939454 .65234377 .3087565 .65234377 .25170899 .62754318 .20825196 .5779419 .16479492 .52834066 .1430664 .45231629 .1430664 .34986878 .1430664 .26594544 .16267903 .19788106 .2019043 .14567566 .24112956 .09348043 .29964195 .06738281 .3774414 .06738281 .449056 .06738281 .50358077 .094823207 .5410156 .14970398 .5608724 .17860413 .5756836 .21659343 .5854492 .26367188H.6801758C.6717122 .18815105 .64371749 .12483724 .5961914 .07373047 .5392253 .012207031 .46240235-.018554688 .36572267-.018554688 .2823893-.018554688 .21240235 .006688436 .15576172 .057174684 .081217449 .12394714 .043945314 .2270406 .043945314 .36645509 .043945314 .47232057 .0719401 .5591278 .12792969 .62687686 .18847656 .7004954 .27197267 .7373047 .37841798 .7373047M.35888673 .7373047V.7373047Z"/>
<path id="font_2_7" d="M.26611329 .53808596C.32503257 .53808596 .37296549 .5237274 .4099121 .49501039 .44685874 .46629334 .46907554 .41684977 .4765625 .3466797H.39111329C.38590495 .37890626 .37402345 .40568034 .35546876 .42700196 .33691407 .44832359 .3071289 .45898438 .26611329 .45898438 .2101237 .45898438 .17008464 .43170677 .1459961 .3771515 .1303711 .34176127 .122558597 .29808555 .122558597 .24612427 .122558597 .19384766 .1336263 .14984639 .15576172 .11412048 .17789714 .07840475 .21272786 .060546876 .2602539 .060546876 .29671226 .060546876 .3256022 .0716095 .34692384 .09373474 .36824546 .115859989 .38297526 .1461385 .39111329 .18457031H.4765625C.46679688 .115234378 .4423828 .06453451 .4033203 .032470704 .3642578 .00040690104 .31429038-.015625 .25341798-.015625 .1850586-.015625 .13053386 .009379069 .08984375 .059387208 .049153646 .10940552 .028808594 .17188008 .028808594 .24681092 .028808594 .33868919 .05110677 .41020204 .095703128 .4613495 .14029949 .51250717 .19710286 .53808596 .26611329 .53808596M.2524414 .5361328V.5361328Z"/>
<path id="font_2_4" d="M.08544922 .71777346H.40820313C.47200523 .71777346 .5234375 .6997884 .5625 .66381838 .6015625 .6278483 .62109377 .5773112 .62109377 .51220706 .62109377 .45621745 .6036784 .4074707 .56884768 .3659668 .5340169 .3244629 .48046876 .30371095 .40820313 .30371095H.18261719V0H.08544922V.71777346M.5229492 .5114746C.5229492 .56410726 .50341799 .5998433 .46435548 .61868289 .4428711 .62875369 .41341148 .63378909 .37597657 .63378909H.18261719V.3857422H.37597657C.41959635 .3857422 .45499674 .39499919 .48217774 .41351319 .5093587 .43203736 .5229492 .46469117 .5229492 .5114746Z"/>
</defs>
<g clip-path="url(#clip_0)">
<g clip-path="url(#clip_1)">
<path transform="matrix(1,0,0,-1,0,540)" d="M0 539.9999H719.9999V.00003079383H0Z" fill="#ffffff" fill-rule="evenodd"/>
<use data-text="A" xlink:href="#font_2_2" transform="matrix(16,0,0,-16,5.57496,13.650085)"/>
<use data-text="l" xlink:href="#font_2_11" transform="matrix(16,0,0,-16,16.246962,13.650085)"/>
<use data-text="l" xlink:href="#font_2_11" transform="matrix(16,0,0,-16,19.80216,13.650085)"/>
<use data-text=" " xlink:href="#font_2_1" transform="matrix(16,0,0,-16,23.357363,13.650085)"/>
<use data-text="p" xlink:href="#font_2_15" transform="matrix(16,0,0,-16,27.802163,13.650085)"/>
<use data-text="r" xlink:href="#font_2_17" transform="matrix(16,0,0,-16,36.701364,13.650085)"/>
<use data-text="o" xlink:href="#font_2_14" transform="matrix(16,0,0,-16,42.02936,13.650085)"/>
<use data-text="g" xlink:href="#font_2_9" transform="matrix(16,0,0,-16,50.928564,13.650085)"/>
<use data-text="r" xlink:href="#font_2_17" transform="matrix(16,0,0,-16,59.827764,13.650085)"/>
<use data-text="a" xlink:href="#font_2_6" transform="matrix(16,0,0,-16,65.15576,13.650085)"/>
<use data-text="m" xlink:href="#font_2_12" transform="matrix(16,0,0,-16,74.05496,13.650085)"/>
<use data-text="s" xlink:href="#font_2_18" transform="matrix(16,0,0,-16,87.382968,13.650085)"/>
<use data-text="&#xfffd;" xlink:href="#font_3_1" transform="matrix(16,0,0,-16,95.382968,13.650085)"/>
<path transform="matrix(.00007874014,0,0,.00007874014,6,18.000123)" stroke-width="12700" stroke-linecap="butt" stroke-miterlimit="8" stroke-linejoin="miter" fill="none" stroke="#000000" d="M-.002149583 .2556154H2514600V1905000H-.002149583Z"/>
<path transform="matrix(.00007874014,0,0,.00007874014,204,18.000123)" stroke-width="12700" stroke-linecap="butt" stroke-miterlimit="8" stroke-linejoin="miter" fill="none" stroke="#000000" d="M.0108642 .2556154H2514600V1905000H.0108642Z"/>
<use data-text="S" xlink:href="#font_2_5" transform="matrix(16,0,0,-16,232.2,95.275089)"/>
<use data-text="e" xlink:href="#font_2_8" transform="matrix(16,0,0,-16,242.872,95.275089)"/>
<use data-text="q" xlink:href="#font_2_16" transform="matrix(16,0,0,-16,251.7712,95.275089)"/>
<use data-text="u" xlink:href="#font_2_20" transform="matrix(16,0,0,-16,260.6704,95.275089)"/>
<use data-text="e" xlink:href="#font_2_8" transform="matrix(16,0,0,-16,269.5696,95.275089)"/>
<use data-text="n" xlink:href="#font_2_13" transform="matrix(16,0,0,-16,278.4688,95.275089)"/>
<use data-text="t" xlink:href="#font_2_19" transform="matrix(16,0,0,-16,287.368,95.275089)"/>
<use data-text="i" xlink:href="#font_2_10" transform="matrix(16,0,0,-16,291.8128,95.275089)"/>
<use data-text="a" xlink:href="#font_2_6" transform="matrix(16,0,0,-16,295.368,95.275089)"/>
<use data-text="l" xlink:href="#font_2_11" transform="matrix(16,0,0,-16,304.2672,95.275089)"/>
<use data-text=" " xlink:href="#font_2_1" transform="matrix(16,0,0,-16,307.8224,95.275089)"/>
<use data-text="p" xlink:href="#font_2_15" transform="matrix(16,0,0,-16,312.2672,95.275089)"/>
<use data-text="r" xlink:href="#font_2_17" transform="matrix(16,0,0,-16,321.1664,95.275089)"/>
<use data-text="o" xlink:href="#font_2_14" transform="matrix(16,0,0,-16,326.49443,95.275089)"/>
<use data-text="g" xlink:href="#font_2_9" transform="matrix(16,0,0,-16,335.39363,95.275089)"/>
<use data-text="r" xlink:href="#font_2_17" transform="matrix(16,0,0,-16,344.29283,95.275089)"/>
<use data-text="a" xlink:href="#font_2_6" transform="matrix(16,0,0,-16,349.62083,95.275089)"/>
<use data-text="m" xlink:href="#font_2_12" transform="matrix(16,0,0,-16,358.52003,95.275089)"/>
<use data-text="s" xlink:href="#font_2_18" transform="matrix(16,0,0,-16,371.84803,95.275089)"/>
<use data-text="&#xfffd;" xlink:href="#font_3_1" transform="matrix(16,0,0,-16,379.84803,95.275089)"/>
<use data-text="C" xlink:href="#font_2_3" transform="matrix(16,0,0,-16,26.45,47.275087)"/>
<use data-text="o" xlink:href="#font_2_14" transform="matrix(16,0,0,-16,38.005205,47.275087)"/>
<use data-text="n" xlink:href="#font_2_13" transform="matrix(16,0,0,-16,46.904405,47.275087)"/>
<use data-text="c" xlink:href="#font_2_7" transform="matrix(16,0,0,-16,55.803606,47.275087)"/>
<use data-text="u" xlink:href="#font_2_20" transform="matrix(16,0,0,-16,63.803606,47.275087)"/>
<use data-text="r" xlink:href="#font_2_17" transform="matrix(16,0,0,-16,72.702808,47.275087)"/>
<use data-text="r" xlink:href="#font_2_17" transform="matrix(16,0,0,-16,78.03081,47.275087)"/>
<use data-text="e" xlink:href="#font_2_8" transform="matrix(16,0,0,-16,83.3588,47.275087)"/>
<use data-text="n" xlink:href="#font_2_13" transform="matrix(16,0,0,-16,92.257999,47.275087)"/>
<use data-text="t" xlink:href="#font_2_19" transform="matrix(16,0,0,-16,101.157199,47.275087)"/>
<use data-text=" " xlink:href="#font_2_1" transform="matrix(16,0,0,-16,105.602008,47.275087)"/>
<use data-text="p" xlink:href="#font_2_15" transform="matrix(16,0,0,-16,110.0468,47.275087)"/>
<use data-text="r" xlink:href="#font_2_17" transform="matrix(16,0,0,-16,118.946,47.275087)"/>
<use data-text="o" xlink:href="#font_2_14" transform="matrix(16,0,0,-16,124.274,47.275087)"/>
<use data-text="g" xlink:href="#font_2_9" transform="matrix(16,0,0,-16,133.1732,47.275087)"/>
<use data-text="r" xlink:href="#font_2_17" transform="matrix(16,0,0,-16,142.0724,47.275087)"/>
<use data-text="a" xlink:href="#font_2_6" transform="matrix(16,0,0,-16,147.4004,47.275087)"/>
<use data-text="m" xlink:href="#font_2_12" transform="matrix(16,0,0,-16,156.2996,47.275087)"/>
<use data-text="s" xlink:href="#font_2_18" transform="matrix(16,0,0,-16,169.62761,47.275087)"/>
<use data-text="&#xfffd;" xlink:href="#font_3_1" transform="matrix(16,0,0,-16,177.62761,47.275087)"/>
<path transform="matrix(.00007874014,0,0,.00007874014,41.99999,66.00009)" stroke-width="12700" stroke-linecap="butt" stroke-linejoin="round" fill="none" stroke="#000000" d="M-.01486208 571499.9C-.01486208 255869.2 341159.1-.1506346 762000-.1506346 1182841-.1506346 1524000 255869.2 1524000 571499.9 1524000 887130.8 1182841 1143000 762000 1143000 341159.1 1143000-.01486208 887130.8-.01486208 571499.9Z"/>
<use data-text="P" xlink:href="#font_2_4" transform="matrix(16,0,0,-16,75.77361,107.79999)"/>
<use data-text="a" xlink:href="#font_2_6" transform="matrix(16,0,0,-16,86.44562,107.79999)"/>
<use data-text="r" xlink:href="#font_2_17" transform="matrix(16,0,0,-16,95.34482,107.79999)"/>
<use data-text="a" xlink:href="#font_2_6" transform="matrix(16,0,0,-16,100.67281,107.79999)"/>
<use data-text="l" xlink:href="#font_2_11" transform="matrix(16,0,0,-16,109.572017,107.79999)"/>
<use data-text="l" xlink:href="#font_2_11" transform="matrix(16,0,0,-16,113.12721,107.79999)"/>
<use data-text="e" xlink:href="#font_2_8" transform="matrix(16,0,0,-16,116.68242,107.79999)"/>
<use data-text="l" xlink:href="#font_2_11" transform="matrix(16,0,0,-16,125.58162,107.79999)"/>
<use data-text="&#xfffd;" xlink:href="#font_3_1" transform="matrix(16,0,0,-16,129.13683,107.79999)"/>
<use data-text="p" xlink:href="#font_2_15" transform="matrix(16,0,0,-16,67.77361,126.79999)"/>
<use data-text="r" xlink:href="#font_2_17" transform="matrix(16,0,0,-16,76.67281,126.79999)"/>
<use data-text="o" xlink:href="#font_2_14" transform="matrix(16,0,0,-16,82.00082,126.79999)"/>
<use data-text="g" xlink:href="#font_2_9" transform="matrix(16,0,0,-16,90.90002,126.79999)"/>
<use data-text="r" xlink:href="#font_2_17" transform="matrix(16,0,0,-16,99.79922,126.79999)"/>
<use data-text="a" xlink:href="#font_2_6" transform="matrix(16,0,0,-16,105.12721,126.79999)"/>
<use data-text="m" xlink:href="#font_2_12" transform="matrix(16,0,0,-16,114.02641,126.79999)"/>
<use data-text="s" xlink:href="#font_2_18" transform="matrix(16,0,0,-16,127.354419,126.79999)"/>
<use data-text="&#xfffd;" xlink:href="#font_3_1" transform="matrix(16,0,0,-16,135.35442,126.79999)"/>
</g>
</g>
</svg>
