<svg xmlns="http://www.w3.org/2000/svg" xmlns:xlink="http://www.w3.org/1999/xlink" version="1.1" width="625.035pt" height="495.8244pt" viewBox="0 0 625.035 495.8244">
<defs>
<clipPath id="clip_0">
<path transform="matrix(1,0,0,-1,0,540)" d="M0 44.1756H625.035V540H0Z" fill-rule="evenodd"/>
</clipPath>
<clipPath id="clip_1">
<path transform="matrix(1,0,0,-1,0,540)" d="M0 .00002324581H719.9999V540H0Z"/>
</clipPath>
<path id="font_2_9" d="M.08544922 .71777346H.40820313C.47200523 .71777346 .5234375 .6997884 .5625 .66381838 .6015625 .6278483 .62109377 .5773112 .62109377 .51220706 .62109377 .45621745 .6036784 .4074707 .56884768 .3659668 .5340169 .3244629 .48046876 .30371095 .40820313 .30371095H.18261719V0H.08544922V.71777346M.5229492 .5114746C.5229492 .56410726 .50341799 .5998433 .46435548 .61868289 .4428711 .62875369 .41341148 .63378909 .37597657 .63378909H.18261719V.3857422H.37597657C.41959635 .3857422 .45499674 .39499919 .48217774 .41351319 .5093587 .43203736 .5229492 .46469117 .5229492 .5114746Z"/>
<path id="font_2_2" d="M.29589845 .7294922C.24479167 .6301575 .21158855 .55703738 .19628906 .51013186 .17317708 .43881227 .1616211 .3564148 .1616211 .26293946 .1616211 .16848755 .17480469 .08217875 .20117188 .0040130617 .21744792-.044184369 .24951172-.11355591 .29736329-.20410156H.23828125C.1907552-.12984212 .16129558-.08245341 .14990235-.061935426 .13850911-.04141744 .12613933-.013570149 .11279297 .021606446 .094563808 .06980387 .08186849 .1212616 .07470703 .17597962 .071126308 .2043101 .06933594 .23134358 .06933594 .25708009 .06933594 .3534851 .084472659 .43930564 .114746097 .5145416 .13395183 .5624135 .17399089 .6340637 .23486328 .7294922H.29589845Z"/>
<path id="font_2_24" d="M.11669922 .1640625C.11930338 .13463338 .12662761 .11207072 .13867188 .09637451 .1608073 .06793213 .19921875 .053710939 .25390626 .053710939 .28645835 .053710939 .31510417 .060806276 .33984376 .07499695 .36458335 .08919779 .37695313 .11115011 .37695313 .14085388 .37695313 .16337586 .36702476 .18051148 .34716798 .19226074 .33447267 .19944255 .30940757 .20775859 .27197267 .21720886L.20214844 .2348175C.15755208 .24590557 .12467448 .25829569 .103515628 .27198792 .06575521 .29579164 .046875 .32873027 .046875 .37080384 .046875 .42036439 .064697269 .46046958 .1003418 .49111939 .13598633 .52177938 .18391927 .5371094 .24414063 .5371094 .32291667 .5371094 .37972007 .5139974 .41455079 .46777345 .4363607 .43847657 .4469401 .40690104 .44628907 .37304688H.36328126C.36165367 .39269004 .35465495 .41055808 .34228517 .426651 .32210288 .44950868 .28710938 .4609375 .23730469 .4609375 .20410156 .4609375 .17895508 .45461528 .16186524 .44197084 .14477539 .42933656 .13623047 .41264854 .13623047 .39190675 .13623047 .36922203 .14746094 .35107423 .16992188 .33746339 .1829427 .32936607 .20214844 .32221986 .22753906 .31602479L.28564454 .3018341C.34879557 .28650413 .39111329 .27166749 .41259767 .25732423 .44677735 .23482259 .4638672 .19944255 .4638672 .15118408 .4638672 .10455322 .44620768 .06428019 .41088868 .03036499 .37556968-.0035502117 .32177735-.020507813 .24951172-.020507813 .17171224-.020507813 .116617839-.002802531 .084228519 .032608034 .05183919 .06801859 .034505208 .111836757 .032226564 .1640625H.11669922M.24658203 .5361328V.5361328Z"/>
<path id="font_2_3" d="M.03466797-.20410156C.08642578-.103139247 .119791667-.029530844 .13476563 .016723633 .15755208 .08674113 .16894531 .16881307 .16894531 .26293946 .16894531 .35706584 .15576172 .44321189 .12939453 .52137759 .11311849 .569575 .08105469 .63894656 .033203126 .7294922H.092285159C.14241536 .64937338 .17277019 .59995016 .18334961 .58122256 .19392903 .56249496 .20540364 .5366821 .21777344 .5037842 .23339844 .46307374 .24454753 .42285157 .2512207 .38311769 .2578939 .3433838 .26123048 .30511476 .26123048 .26831056 .26123048 .17190552 .24593099 .08592224 .21533203 .010360718 .1961263-.03816223 .15625-.10964966 .095703128-.20410156H.03466797Z"/>
<path id="font_3_1" d="M0 0Z"/>
<path id="font_2_25" d="M.08203125 .66796877H.17089844V.5234375H.25439454V.4501953H.17089844V.110183719C.17089844 .09202576 .17708333 .07986959 .18945313 .07371521 .19628906 .07014465 .2076823 .068359378 .22363281 .068359378 .22786458 .068359378 .23242188 .06846619 .23730469 .06867981 .2421875 .0689036 .24788411 .06944784 .25439454 .0703125V0C.24430339-.0031026204 .23380535-.005340576 .22290039-.006713867 .21199544-.008097331 .20019531-.0087890629 .1875-.0087890629 .14648438-.0087890629 .118652347 .0016988119 .104003909 .02267456 .08935547 .04365031 .08203125 .070882167 .08203125 .10437012V.4501953H.011230469V.5234375H.08203125V.66796877Z"/>
<path id="font_2_10" d="M.59814456 .71777346V.63183596H.3564453V0H.2578125V.63183596H.016113282V.71777346H.59814456Z"/>
<path id="font_2_18" d="M.064453128 .71875H.15234375V.45214845C.17317708 .4786682 .19189453 .4973297 .2084961 .50813296 .2368164 .5267995 .2721354 .5361328 .31445313 .5361328 .39029948 .5361328 .44173179 .50957748 .46875 .45646668 .48339845 .42747499 .49072267 .38723756 .49072267 .3357544V0H.40039063V.32958985C.40039063 .3680013 .3955078 .39615885 .3857422 .4140625 .36979167 .44270835 .33984376 .45703126 .29589845 .45703126 .2594401 .45703126 .22639974 .4444987 .19677735 .4194336 .16715496 .3943685 .15234375 .34700523 .15234375 .27734376V0H.064453128V.71875Z"/>
<path id="font_2_23" d="M.06689453 .5234375H.15039063V.4326172C.15722656 .4502767 .17399089 .4717814 .2006836 .49713136 .2273763 .52248129 .25813804 .53515627 .29296876 .53515627 .29459635 .53515627 .29736329 .5349579 .30126954 .53456118 .30517579 .5341746 .31184898 .5333964 .32128907 .53222659V.43945313C.31608073 .44062297 .3112793 .44140116 .30688478 .44178773 .30249024 .44218446 .2976888 .4423828 .29248048 .4423828 .24820964 .4423828 .2141927 .4280599 .19042969 .39941407 .16666667 .37076823 .15478516 .33789063 .15478516 .30078126V0H.06689453V.5234375Z"/>
<path id="font_2_15" d="M.28222657 .53515627C.31933595 .53515627 .355306 .52644857 .39013673 .5090332 .42496745 .49161784 .4514974 .4690806 .46972657 .4414215 .4873047 .41505433 .49902345 .3842977 .5048828 .3491516 .5100911 .32506309 .5126953 .28647868 .5126953 .23339844H.12939453C.13102214 .18033855 .14355469 .13777669 .16699219 .10571289 .19042969 .073649089 .22672527 .057617189 .2758789 .057617189 .32177735 .057617189 .35839845 .07261658 .3857422 .10261536 .4013672 .12003072 .4124349 .14018758 .4189453 .16308594H.5053711C.50309249 .14398194 .49552409 .122690837 .48266603 .09921265 .46980796 .07574463 .45540367 .05656433 .43945313 .041671754 .4127604 .01576233 .37972007-.0017242432 .34033204-.010787964 .3191732-.01596578 .2952474-.018554688 .2685547-.018554688 .20345052-.018554688 .14827474 .0051472985 .103027347 .05255127 .05777995 .09995524 .03515625 .16634114 .03515625 .25170899 .03515625 .33576457 .057942708 .40401713 .103515628 .45646668 .14908855 .5089264 .20865886 .53515627 .28222657 .53515627M.42236329 .30371095C.41878257 .34191896 .41048179 .37245179 .39746095 .39530946 .3733724 .4377594 .33317057 .45898438 .27685548 .45898438 .23649089 .45898438 .20263672 .44437156 .17529297 .41514588 .14794922 .3859202 .13346355 .34877525 .13183594 .30371095H.42236329M.27392579 .5361328V.5361328Z"/>
<path id="font_2_12" d="M.13183594 .1394043C.13183594 .114095058 .14111328 .09413656 .15966797 .07952881 .17822266 .06492106 .20019531 .057617189 .22558594 .057617189 .2565104 .057617189 .28645835 .06471761 .3154297 .07891846 .3642578 .10247803 .38867188 .14127605 .38867188 .1953125V.26611329C.3779297 .25886027 .36409507 .2528127 .34716798 .24797058 .33024089 .24313863 .3136393 .23983257 .29736329 .23805237L.24414063 .23184204C.21223958 .22799683 .1883138 .22153218 .17236328 .21244812 .14534505 .19718933 .13183594 .17284139 .13183594 .1394043M.34472657 .31689454C.36490885 .3194987 .37841798 .32796226 .3852539 .34228517 .38916017 .35012818 .39111329 .36140443 .39111329 .3761139 .39111329 .40618388 .38045249 .42799888 .35913087 .44155885 .33780924 .455129 .30729167 .46191407 .26757813 .46191407 .22167969 .46191407 .18912761 .44948326 .16992188 .42462159 .15917969 .4108785 .15218099 .39043174 .14892578 .36328126H.06689453C.06852213 .42791749 .08943685 .47288514 .12963867 .4981842 .1698405 .5234833 .21647136 .5361328 .26953126 .5361328 .3310547 .5361328 .38102214 .52441409 .4194336 .50097659 .45751954 .47753907 .4765625 .4410502 .4765625 .39151V.08985901C.4765625 .08073425 .47843424 .073404949 .48217774 .067871097 .48592124 .06233724 .4938151 .059570314 .5058594 .059570314 .5097656 .059570314 .51416018 .059814454 .51904299 .060302736 .5239258 .060791017 .5291341 .061523439 .53466799 .0625V-.0028076173C.5209961-.00676473 .5105794-.009236653 .50341799-.010223389 .4962565-.011220296 .48649089-.01171875 .4741211-.01171875 .44384767-.01171875 .421875-.0009104411 .40820313 .020706177 .40104167 .032170614 .3959961 .048380536 .3930664 .06933594 .37516276 .045633954 .34944663 .025060019 .31591798 .0076141359 .2823893-.009831746 .2454427-.018554688 .20507813-.018554688 .15657552-.018554688 .11694336-.0037790936 .08618164 .025772095 .055419923 .055323285 .040039064 .092300418 .040039064 .13670349 .040039064 .18535869 .05517578 .22307332 .08544922 .24984741 .115722659 .2766215 .1554362 .29311119 .20458985 .2993164L.34472657 .31689454M.27197267 .5361328V.5361328Z"/>
<path id="font_2_14" d="M.12011719 .2553711C.12011719 .19923909 .1319987 .15224712 .15576172 .11439514 .17952474 .076543178 .21761067 .057617189 .27001954 .057617189 .31070964 .057617189 .3441569 .075154628 .37036134 .11022949 .39656578 .14531453 .40966798 .19565328 .40966798 .26124574 .40966798 .32748924 .39615885 .37651573 .36914063 .4083252 .3421224 .44014488 .3087565 .4560547 .26904298 .4560547 .22477214 .4560547 .18888347 .4390869 .16137696 .40515138 .13387044 .37121583 .12011719 .32128907 .12011719 .2553711M.2524414 .53222659C.29248048 .53222659 .32600913 .52381899 .35302735 .5070038 .36865235 .4972992 .38639323 .48031617 .40625 .4560547V.71875H.49072267V0H.4116211V.07229614C.39111329 .04023234 .36686198 .017074585 .3388672 .002822876 .3108724-.011428833 .2788086-.018554688 .24267578-.018554688 .18440755-.018554688 .13395183 .0059407555 .091308597 .05493164 .048665365 .10392252 .02734375 .16910808 .02734375 .25048829 .02734375 .32666017 .04679362 .39265953 .08569336 .44848634 .1245931 .5043132 .18017578 .53222659 .2524414 .53222659Z"/>
<path id="font_2_1" d="M0 0Z"/>
<path id="font_2_4" d="M.095703128 .4951172V.5625C.15917969 .5686849 .20345052 .5790202 .22851563 .59350588 .25358073 .6079915 .2722982 .6422526 .28466798 .69628909H.3540039V0H.2602539V.4951172H.095703128Z"/>
<path id="font_2_5" d="M.03125 0C.034505208 .060221357 .04695638 .11263021 .068603519 .15722656 .09025065 .20182292 .13248699 .24235027 .1953125 .2788086L.2890625 .3330078C.3310547 .35742188 .3605143 .3782908 .3774414 .39561463 .40413413 .4227346 .41748048 .45377604 .41748048 .488739 .41748048 .52959188 .40527345 .562027 .38085938 .5860443 .3564453 .61006167 .32389323 .6220703 .28320313 .6220703 .22298177 .6220703 .18131511 .5991516 .15820313 .5533142 .14583333 .52875778 .13899739 .4947103 .13769531 .45117188H.048339845C.049316408 .5121663 .060546876 .5619049 .08203125 .6003876 .12011719 .66822817 .18733724 .70214846 .2836914 .70214846 .36376954 .70214846 .4222819 .68047079 .45922853 .6371155 .49617515 .5937703 .51464846 .5455373 .51464846 .49241639 .51464846 .4363556 .49495445 .388443 .4555664 .3486786 .43277995 .3255361 .3919271 .29752604 .3330078 .26464845L.26611329 .22753906C.23421224 .20996094 .20914714 .19319661 .19091797 .1772461 .15836589 .14892578 .13785808 .11751302 .12939453 .08300781H.51123049V0H.03125Z"/>
<path id="font_2_11" d="M.1328125 .71777346 .3388672 .10652161 .54248049 .71777346H.6513672L.38964845 0H.2866211L.025390625 .71777346H.1328125Z"/>
<path id="font_2_7" d="M.08544922 .71777346H.5830078V.6298828H.18261719V.41210938H.53466799V.32617188H.18261719V0H.08544922V.71777346Z"/>
<path id="font_2_22" d="M.27197267 .057617189C.33024089 .057617189 .37019859 .07964579 .3918457 .123703 .41349284 .16776021 .4243164 .21677144 .4243164 .2707367 .4243164 .31950379 .4165039 .35917155 .4008789 .38974 .3761393 .43785606 .3334961 .46191407 .27294923 .46191407 .21923828 .46191407 .18017578 .44143168 .15576172 .40046693 .13134766 .35950218 .119140628 .31008403 .119140628 .25221253 .119140628 .1966095 .13134766 .15027364 .15576172 .113204959 .18017578 .076146449 .21891277 .057617189 .27197267 .057617189M.27539063 .53808596C.34277345 .53808596 .3997396 .5156453 .44628907 .47076417 .49283854 .42588298 .5161133 .35985819 .5161133 .27268983 .5161133 .1884613 .49560548 .11886088 .45458985 .06388855 .41357423 .008926392 .3499349-.018554688 .26367188-.018554688 .19173177-.018554688 .13460286 .00575765 .092285159 .054382326 .04996745 .103006999 .028808594 .16829936 .028808594 .2502594 .028808594 .33806864 .05110677 .4079895 .095703128 .46002198 .14029949 .51206466 .20019531 .53808596 .27539063 .53808596M.27246095 .5361328V.5361328Z"/>
<path id="font_2_13" d="M.057617189 .71875H.1430664V.45948792C.16227214 .4847056 .18522136 .50394698 .21191406 .5172119 .23860677 .53047689 .26757813 .5371094 .29882813 .5371094 .36393229 .5371094 .41674806 .5147095 .4572754 .46990968 .49780274 .42510987 .5180664 .35905458 .5180664 .27174378 .5180664 .1889801 .49804688 .12022909 .4580078 .06549072 .41796876 .010762532 .36246745-.016601563 .2915039-.016601563 .25179038-.016601563 .21826172-.006942749 .19091797 .012374878 .17464192 .023839316 .15722656 .042175294 .13867188 .06738281V0H.057617189V.71875M.2861328 .061523439C.33365885 .061523439 .36922203 .08037821 .39282228 .11808777 .41642253 .1558075 .42822267 .20555115 .42822267 .26731874 .42822267 .32227073 .41642253 .3677877 .39282228 .40386964 .36922203 .43996177 .33447267 .4580078 .28857423 .4580078 .24853516 .4580078 .21346028 .44321189 .18334961 .41362 .15323894 .3840383 .1381836 .3352712 .1381836 .26731874 .1381836 .21822612 .14436849 .17840068 .15673828 .1478424 .17985027 .090296428 .22298177 .061523439 .2861328 .061523439Z"/>
<path id="font_2_19" d="M.064453128 .5205078H.1538086V0H.064453128V.5205078M.064453128 .71777346H.1538086V.61816409H.064453128V.71777346Z"/>
<path id="font_2_21" d="M.064453128 .5234375H.14794922V.44921876C.1726888 .47981773 .19889324 .50179037 .2265625 .5151367 .25423179 .5284831 .2849935 .53515627 .31884767 .53515627 .3930664 .53515627 .44319663 .5092519 .46923829 .45744325 .4835612 .42910258 .49072267 .38853965 .49072267 .3357544V0H.4013672V.3299408C.4013672 .36188255 .39664714 .38762919 .38720704 .4071808 .37158204 .4397634 .34326173 .4560547 .3022461 .4560547 .28141276 .4560547 .2643229 .4539388 .25097657 .44970704 .22688802 .4425354 .20572917 .42819724 .1875 .4066925 .17285156 .38941957 .16333008 .37157694 .15893555 .35316468 .15454102 .3347524 .15234375 .30844117 .15234375 .27423097V0H.064453128V.5234375M.2709961 .5361328V.5361328Z"/>
<path id="font_2_17" d="M.24902344 .53222659C.29003907 .53222659 .32584635 .5220744 .3564453 .50177 .37304688 .49030558 .38997398 .4736023 .40722657 .45166017V.5185547H.48828126V.04234314C.48828126-.024154664 .47851563-.07663473 .45898438-.115097049 .42252604-.18615215 .35367839-.22167969 .2524414-.22167969 .1961263-.22167969 .14876302-.20906575 .11035156-.18383789 .0719401-.15861003 .05045573-.119140628 .045898439-.06542969H.1352539C.13948567-.08873495 .14794922-.10669454 .16064453-.11930847 .1805013-.13872783 .2117513-.1484375 .25439454-.1484375 .32177735-.1484375 .3658854-.12467448 .38671876-.07714844 .39908854-.04916382 .40478517 .0007985433 .4038086 .07273865 .38623048 .04588318 .36507163 .025904337 .34033204 .012802124 .31559245-.000289917 .2828776-.0068359377 .2421875-.0068359377 .18554688-.0068359377 .13598633 .013280232 .09350586 .053512575 .05102539 .09375509 .029785157 .16030376 .029785157 .25315858 .029785157 .34080506 .051188154 .40922547 .09399414 .4584198 .13680013 .5076243 .18847656 .53222659 .24902344 .53222659M.40722657 .26342774C.40722657 .328125 .39388023 .37607829 .3671875 .4072876 .34049479 .43849693 .30647788 .45410157 .26513673 .45410157 .20328777 .45410157 .16097005 .4251658 .1381836 .3672943 .12613933 .33641053 .12011719 .29593406 .12011719 .24586487 .12011719 .1870168 .13208008 .14223226 .15600586 .11151123 .17993164 .0807902 .21207683 .06542969 .2524414 .06542969 .31559245 .06542969 .36002604 .09387716 .3857422 .1507721 .4000651 .18295796 .40722657 .22050984 .40722657 .26342774M.25927735 .5361328V.5361328Z"/>
<path id="font_2_16" d="M.08642578 .6021576C.08772787 .638443 .09407552 .66500857 .10546875 .68185427 .12597656 .7116597 .16552735 .7265625 .2241211 .7265625 .22965496 .7265625 .23535156 .7263997 .24121094 .7260742 .24707031 .7257487 .2537435 .72526046 .26123048 .7246094V.64453127C.25211589 .6449687 .2455241 .6452382 .24145508 .64533999 .23738607 .64545187 .2335612 .6455078 .22998047 .6455078 .20328777 .6455078 .18733724 .6386719 .1821289 .625 .17692058 .6113281 .1743164 .5764974 .1743164 .5205078H.26123048V.45117188H.17333985V0H.08642578V.45117188H.013671875V.5205078H.08642578V.6021576Z"/>
<path id="font_4_1" d="M.0625 .14648438H.21044922V0H.0625V.14648438Z"/>
<path id="font_5_1" d="M0 0Z"/>
<path id="font_2_8" d="M.09814453 .71777346H.19628906V0H.09814453V.71777346Z"/>
<path id="font_2_20" d="M.06689453 .71777346H.15478516V0H.06689453V.71777346Z"/>
<path id="font_2_26" d="M.39111329 .5234375H.48828126C.47591148 .48987834 .44840495 .41330973 .40576173 .2937317 .3738607 .20380657 .34716798 .13049825 .3256836 .07380676 .27490235-.059921266 .23909505-.14145915 .21826172-.17080689 .19742839-.2001648 .1616211-.21484375 .110839847-.21484375 .098470058-.21484375 .08894857-.21435039 .08227539-.21336365 .07560221-.21238709 .06738281-.21058655 .057617189-.20796204V-.1274414C.072916667-.13167317 .083984378-.13427735 .09082031-.1352539 .09765625-.13623047 .10367838-.13671875 .10888672-.13671875 .12516277-.13671875 .13712566-.1340332 .14477539-.12866211 .15242513-.123291019 .15885417-.11669922 .1640625-.10888672 .16569011-.106282558 .17154949-.092936199 .18164063-.068847659 .19173177-.044759115 .19905599-.026855469 .20361328-.015136719L.010253906 .5234375H.10986328L.25 .09727478 .39111329 .5234375M.24951172 .5361328V.5361328Z"/>
<path id="font_2_6" d="M.5541992 .4013672V.31933595H.044921876V.4013672H.5541992M.5541992 .19238281V.10839844H.044921876V.19238281H.5541992Z"/>
</defs>
<g clip-path="url(#clip_0)">
<g clip-path="url(#clip_1)">
<path transform="matrix(1,0,0,-1,0,540)" d="M0 539.9999H719.9999V.00003079383H0Z" fill="#ffffff" fill-rule="evenodd"/>
<path transform="matrix(.00007874014,0,0,-.00007874014,106.125,457.87504)" stroke-width="12700" stroke-linecap="butt" stroke-linejoin="round" fill="none" stroke="#000000" d="M-.03015131-.01156624 5894387 .957367"/>
<path transform="matrix(-.00007874014,-0,0,-.00007874014,106.125,457.87504)" stroke-width="12700" stroke-linecap="butt" stroke-linejoin="round" fill="none" stroke="#000000" d="M.03015131-.01156624 .9990846 5884863"/>
<use data-text="P" xlink:href="#font_2_9" transform="matrix(16,0,0,-16,168.7,477.77503)"/>
<use data-text="(" xlink:href="#font_2_2" transform="matrix(16,0,0,-16,179.372,477.77503)"/>
<use data-text="s" xlink:href="#font_2_24" transform="matrix(16,0,0,-16,184.7,477.77503)"/>
<use data-text=")" xlink:href="#font_2_3" transform="matrix(16,0,0,-16,192.7,477.77503)"/>
<use data-text="&#xfffd;" xlink:href="#font_3_1" transform="matrix(16,0,0,-16,198.028,477.77503)"/>
<use data-text="P" xlink:href="#font_2_9" transform="matrix(16,0,0,-16,279.075,478.77503)"/>
<use data-text="(" xlink:href="#font_2_2" transform="matrix(16,0,0,-16,289.747,478.77503)"/>
<use data-text="t" xlink:href="#font_2_25" transform="matrix(16,0,0,-16,295.075,478.77503)"/>
<use data-text=")" xlink:href="#font_2_3" transform="matrix(16,0,0,-16,299.5198,478.77503)"/>
<use data-text="&#xfffd;" xlink:href="#font_3_1" transform="matrix(16,0,0,-16,304.8478,478.77503)"/>
<use data-text="P" xlink:href="#font_2_9" transform="matrix(16,0,0,-16,70.44999,379.775)"/>
<use data-text="(" xlink:href="#font_2_2" transform="matrix(16,0,0,-16,81.121997,379.775)"/>
<use data-text="s" xlink:href="#font_2_24" transform="matrix(16,0,0,-16,86.44999,379.775)"/>
<use data-text=")" xlink:href="#font_2_3" transform="matrix(16,0,0,-16,94.44999,379.775)"/>
<use data-text="&#xfffd;" xlink:href="#font_3_1" transform="matrix(16,0,0,-16,99.777988,379.775)"/>
<use data-text="P" xlink:href="#font_2_9" transform="matrix(16,0,0,-16,75.57503,273.9)"/>
<use data-text="(" xlink:href="#font_2_2" transform="matrix(16,0,0,-16,86.247028,273.9)"/>
<use data-text="t" xlink:href="#font_2_25" transform="matrix(16,0,0,-16,91.57503,273.9)"/>
<use data-text=")" xlink:href="#font_2_3" transform="matrix(16,0,0,-16,96.01983,273.9)"/>
<use data-text="&#xfffd;" xlink:href="#font_3_1" transform="matrix(16,0,0,-16,101.347827,273.9)"/>
<use data-text="T" xlink:href="#font_2_10" transform="matrix(16,0,0,-16,546.45,477.77503)"/>
<use data-text="h" xlink:href="#font_2_18" transform="matrix(16,0,0,-16,556.22286,477.77503)"/>
<use data-text="r" xlink:href="#font_2_23" transform="matrix(16,0,0,-16,565.122,477.77503)"/>
<use data-text="e" xlink:href="#font_2_15" transform="matrix(16,0,0,-16,570.45,477.77503)"/>
<use data-text="a" xlink:href="#font_2_12" transform="matrix(16,0,0,-16,579.34927,477.77503)"/>
<use data-text="d" xlink:href="#font_2_14" transform="matrix(16,0,0,-16,588.2484,477.77503)"/>
<use data-text=" " xlink:href="#font_2_1" transform="matrix(16,0,0,-16,597.1476,477.77503)"/>
<use data-text="1" xlink:href="#font_2_4" transform="matrix(16,0,0,-16,601.5924,477.77503)"/>
<use data-text="&#xfffd;" xlink:href="#font_3_1" transform="matrix(16,0,0,-16,610.49166,477.77503)"/>
<use data-text="T" xlink:href="#font_2_10" transform="matrix(16,0,0,-16,33.82504,15.650085)"/>
<use data-text="h" xlink:href="#font_2_18" transform="matrix(16,0,0,-16,43.59784,15.650085)"/>
<use data-text="r" xlink:href="#font_2_23" transform="matrix(16,0,0,-16,52.49704,15.650085)"/>
<use data-text="e" xlink:href="#font_2_15" transform="matrix(16,0,0,-16,57.82504,15.650085)"/>
<use data-text="a" xlink:href="#font_2_12" transform="matrix(16,0,0,-16,66.72424,15.650085)"/>
<use data-text="d" xlink:href="#font_2_14" transform="matrix(16,0,0,-16,75.62344,15.650085)"/>
<use data-text=" " xlink:href="#font_2_1" transform="matrix(16,0,0,-16,84.522647,15.650085)"/>
<use data-text="2" xlink:href="#font_2_5" transform="matrix(16,0,0,-16,88.96744,15.650085)"/>
<use data-text="&#xfffd;" xlink:href="#font_3_1" transform="matrix(16,0,0,-16,97.86664,15.650085)"/>
<path transform="matrix(1,0,0,-1,0,540)" d="M211 82.62495C211 83.45338 211.6715 84.12495 212.5 84.12495 213.3284 84.12495 214 83.45338 214 82.62495 214 81.79652 213.3284 81.12495 212.5 81.12495 211.6715 81.12495 211 81.79652 211 82.62495Z" fill-rule="evenodd"/>
<path transform="matrix(.00007874014,0,0,.00007874014,211,455.87507)" stroke-width="25400" stroke-linecap="butt" stroke-linejoin="round" fill="none" stroke="#000000" d="M.02453607 19050.04C.02453607 8528.98 8528.963 .04205331 19050.03 .04205331 29571.09 .04205331 38100.03 8528.98 38100.03 19050.04 38100.03 29571.11 29571.09 38100.05 19050.03 38100.05 8528.963 38100.05 .02453607 29571.11 .02453607 19050.04Z"/>
<path transform="matrix(1,0,0,-1,0,540)" d="M264.5 82.62495C264.5 83.45338 265.1436 84.12495 265.9375 84.12495 266.7315 84.12495 267.3751 83.45338 267.3751 82.62495 267.3751 81.79652 266.7315 81.12495 265.9375 81.12495 265.1436 81.12495 264.5 81.79652 264.5 82.62495Z" fill-rule="evenodd"/>
<path transform="matrix(.00007874014,0,0,.00007874014,264.5,455.87507)" stroke-width="25400" stroke-linecap="butt" stroke-linejoin="round" fill="none" stroke="#000000" d="M-.1209717 19050.04C-.1209717 8528.98 8173.8 .04205331 18256.91 .04205331 28340.01 .04205331 36513.93 8528.98 36513.93 19050.04 36513.93 29571.11 28340.01 38100.05 18256.91 38100.05 8173.8 38100.05-.1209717 29571.11-.1209717 19050.04Z"/>
<path transform="matrix(1,0,0,-1,0,540)" d="M317.875 82.62495C317.875 83.45338 318.5186 84.12495 319.3125 84.12495 320.1064 84.12495 320.75 83.45338 320.75 82.62495 320.75 81.79652 320.1064 81.12495 319.3125 81.12495 318.5186 81.12495 317.875 81.79652 317.875 82.62495Z" fill-rule="evenodd"/>
<path transform="matrix(.00007874014,0,0,.00007874014,317.875,455.87507)" stroke-width="25400" stroke-linecap="butt" stroke-linejoin="round" fill="none" stroke="#000000" d="M-.1291504 19050.04C-.1291504 8528.98 8173.404 .04205331 18255.74 .04205331 28338.46 .04205331 36511.99 8528.98 36511.99 19050.04 36511.99 29571.11 28338.46 38100.05 18255.74 38100.05 8173.404 38100.05-.1291504 29571.11-.1291504 19050.04Z"/>
<path transform="matrix(1,0,0,-1,0,540)" d="M104.25 136.0624C104.25 136.8564 104.8936 137.5 105.6875 137.5 106.4815 137.5 107.1251 136.8564 107.1251 136.0624 107.1251 135.2685 106.4815 134.6249 105.6875 134.6249 104.8936 134.6249 104.25 135.2685 104.25 136.0624Z" fill-rule="evenodd"/>
<path transform="matrix(.00007874014,0,0,.00007874014,104.25,402.5)" stroke-width="25400" stroke-linecap="butt" stroke-linejoin="round" fill="none" stroke="#000000" d="M.00982663 18257.01C.00982663 8173.902 8173.931-.01855469 18257.04-.01855469 28340.05-.01855469 36513.97 8173.902 36513.97 18257.01 36513.97 28340.12 28340.05 36514.04 18257.04 36514.04 8173.931 36514.04 .00982663 28340.12 .00982663 18257.01Z"/>
<path transform="matrix(1,0,0,-1,0,540)" d="M104.25 189.4375C104.25 190.2314 104.8936 190.8749 105.6875 190.8749 106.4815 190.8749 107.1251 190.2314 107.1251 189.4375 107.1251 188.6436 106.4815 188 105.6875 188 104.8936 188 104.25 188.6436 104.25 189.4375Z" fill-rule="evenodd"/>
<path transform="matrix(.00007874014,0,0,.00007874014,104.25,349.12513)" stroke-width="25400" stroke-linecap="butt" stroke-linejoin="round" fill="none" stroke="#000000" d="M.00982663 18256.21C.00982663 8173.686 8173.931 .1523439 18257.04 .1523439 28340.05 .1523439 36513.97 8173.686 36513.97 18256.21 36513.97 28338.74 28340.05 36512.08 18257.04 36512.08 8173.931 36512.08 .00982663 28338.74 .00982663 18256.21Z"/>
<path transform="matrix(1,0,0,-1,0,540)" d="M104.25 242.8124C104.25 243.6064 104.8936 244.25 105.6875 244.25 106.4815 244.25 107.1251 243.6064 107.1251 242.8124 107.1251 242.0185 106.4815 241.3749 105.6875 241.3749 104.8936 241.3749 104.25 242.0185 104.25 242.8124Z" fill-rule="evenodd"/>
<path transform="matrix(.00007874014,0,0,.00007874014,104.25,295.75)" stroke-width="25400" stroke-linecap="butt" stroke-linejoin="round" fill="none" stroke="#000000" d="M.00982663 18256.99C.00982663 8173.888 8173.931-.03326413 18257.04-.03326413 28340.05-.03326413 36513.97 8173.888 36513.97 18256.99 36513.97 28340.1 28340.05 36514.02 18257.04 36514.02 8173.931 36514.02 .00982663 28340.1 .00982663 18256.99Z"/>
<path transform="matrix(1,0,0,-1,0,540)" d="M104.25 456.5624C104.25 457.3563 104.8936 457.9999 105.6875 457.9999 106.4815 457.9999 107.1251 457.3563 107.1251 456.5624 107.1251 455.7684 106.4815 455.1248 105.6875 455.1248 104.8936 455.1248 104.25 455.7684 104.25 456.5624Z" fill-rule="evenodd"/>
<path transform="matrix(.00007874014,0,0,.00007874014,104.25,82.00009)" stroke-width="25400" stroke-linecap="butt" stroke-linejoin="round" fill="none" stroke="#000000" d="M.00982663 18256.91C.00982663 8173.802 8173.931-.1193846 18257.04-.1193846 28340.05-.1193846 36513.97 8173.802 36513.97 18256.91 36513.97 28340.02 28340.05 36513.94 18257.04 36513.94 8173.931 36513.94 .00982663 28340.02 .00982663 18256.91Z"/>
<path transform="matrix(1,0,0,-1,0,540)" d="M104.25 82.62495C104.25 83.45338 104.8936 84.12495 105.6875 84.12495 106.4815 84.12495 107.1251 83.45338 107.1251 82.62495 107.1251 81.79652 106.4815 81.12495 105.6875 81.12495 104.8936 81.12495 104.25 81.79652 104.25 82.62495Z" fill-rule="evenodd"/>
<path transform="matrix(.00007874014,0,0,.00007874014,104.25,455.87507)" stroke-width="25400" stroke-linecap="butt" stroke-linejoin="round" fill="none" stroke="#000000" d="M.00982663 19050.04C.00982663 8528.98 8173.931 .04205331 18257.04 .04205331 28340.05 .04205331 36513.97 8528.98 36513.97 19050.04 36513.97 29571.11 28340.05 38100.05 18257.04 38100.05 8173.931 38100.05 .00982663 29571.11 .00982663 19050.04Z"/>
<use data-text="V" xlink:href="#font_2_11" transform="matrix(16,0,0,-16,387.2,478.77503)"/>
<use data-text="(" xlink:href="#font_2_2" transform="matrix(16,0,0,-16,397.872,478.77503)"/>
<use data-text="s" xlink:href="#font_2_24" transform="matrix(16,0,0,-16,403.2,478.77503)"/>
<use data-text=")" xlink:href="#font_2_3" transform="matrix(16,0,0,-16,411.2,478.77503)"/>
<use data-text="&#xfffd;" xlink:href="#font_3_1" transform="matrix(16,0,0,-16,416.528,478.77503)"/>
<use data-text="V" xlink:href="#font_2_11" transform="matrix(16,0,0,-16,496.7,478.77503)"/>
<use data-text="(" xlink:href="#font_2_2" transform="matrix(16,0,0,-16,507.372,478.77503)"/>
<use data-text="t" xlink:href="#font_2_25" transform="matrix(16,0,0,-16,512.7,478.77503)"/>
<use data-text=")" xlink:href="#font_2_3" transform="matrix(16,0,0,-16,517.14486,478.77503)"/>
<use data-text="&#xfffd;" xlink:href="#font_3_1" transform="matrix(16,0,0,-16,522.47286,478.77503)"/>
<use data-text="V" xlink:href="#font_2_11" transform="matrix(16,0,0,-16,75.82503,168.15)"/>
<use data-text="(" xlink:href="#font_2_2" transform="matrix(16,0,0,-16,86.497028,168.15)"/>
<use data-text="t" xlink:href="#font_2_25" transform="matrix(16,0,0,-16,91.82503,168.15)"/>
<use data-text=")" xlink:href="#font_2_3" transform="matrix(16,0,0,-16,96.26983,168.15)"/>
<use data-text="&#xfffd;" xlink:href="#font_3_1" transform="matrix(16,0,0,-16,101.597827,168.15)"/>
<use data-text="V" xlink:href="#font_2_11" transform="matrix(16,0,0,-16,72.32503,63.150087)"/>
<use data-text="(" xlink:href="#font_2_2" transform="matrix(16,0,0,-16,82.997028,63.150087)"/>
<use data-text="s" xlink:href="#font_2_24" transform="matrix(16,0,0,-16,88.32503,63.150087)"/>
<use data-text=")" xlink:href="#font_2_3" transform="matrix(16,0,0,-16,96.32503,63.150087)"/>
<use data-text="&#xfffd;" xlink:href="#font_3_1" transform="matrix(16,0,0,-16,101.65303,63.150087)"/>
<path transform="matrix(1,0,0,-1,0,540)" d="M211 510.1249H425.9999V190.125H211Z" fill="#e4e4e4" fill-rule="evenodd"/>
<path transform="matrix(.00007874014,0,0,.00007874014,211,29.875092)" stroke-width="12700" stroke-linecap="butt" stroke-miterlimit="8" stroke-linejoin="miter" fill="none" stroke="#000000" d="M.02453607 .166382H2730500V4064000H.02453607Z"/>
<use data-text="F" xlink:href="#font_2_7" transform="matrix(16,0,0,-16,282.2,49.475099)"/>
<use data-text="o" xlink:href="#font_2_22" transform="matrix(16,0,0,-16,291.9728,49.475099)"/>
<use data-text="r" xlink:href="#font_2_23" transform="matrix(16,0,0,-16,300.872,49.475099)"/>
<use data-text="b" xlink:href="#font_2_13" transform="matrix(16,0,0,-16,306.2,49.475099)"/>
<use data-text="i" xlink:href="#font_2_19" transform="matrix(16,0,0,-16,315.0992,49.475099)"/>
<use data-text="d" xlink:href="#font_2_14" transform="matrix(16,0,0,-16,318.65443,49.475099)"/>
<use data-text="d" xlink:href="#font_2_14" transform="matrix(16,0,0,-16,327.55363,49.475099)"/>
<use data-text="e" xlink:href="#font_2_15" transform="matrix(16,0,0,-16,336.45283,49.475099)"/>
<use data-text="n" xlink:href="#font_2_21" transform="matrix(16,0,0,-16,345.35203,49.475099)"/>
<use data-text="&#xfffd;" xlink:href="#font_3_1" transform="matrix(16,0,0,-16,354.25123,49.475099)"/>
<use data-text="r" xlink:href="#font_2_23" transform="matrix(16,0,0,-16,296.2,68.4751)"/>
<use data-text="e" xlink:href="#font_2_15" transform="matrix(16,0,0,-16,301.528,68.4751)"/>
<use data-text="g" xlink:href="#font_2_17" transform="matrix(16,0,0,-16,310.42723,68.4751)"/>
<use data-text="i" xlink:href="#font_2_19" transform="matrix(16,0,0,-16,319.32643,68.4751)"/>
<use data-text="o" xlink:href="#font_2_22" transform="matrix(16,0,0,-16,322.88163,68.4751)"/>
<use data-text="n" xlink:href="#font_2_21" transform="matrix(16,0,0,-16,331.78083,68.4751)"/>
<use data-text="&#xfffd;" xlink:href="#font_3_1" transform="matrix(16,0,0,-16,340.68003,68.4751)"/>
<use data-text="f" xlink:href="#font_2_16" transform="matrix(16,0,0,-16,303.2,87.4751)"/>
<use data-text="o" xlink:href="#font_2_22" transform="matrix(16,0,0,-16,307.6448,87.4751)"/>
<use data-text="r" xlink:href="#font_2_23" transform="matrix(16,0,0,-16,316.544,87.4751)"/>
<use data-text=" " xlink:href="#font_2_1" transform="matrix(16,0,0,-16,321.872,87.4751)"/>
<use data-text="s" xlink:href="#font_2_24" transform="matrix(16,0,0,-16,326.3168,87.4751)"/>
<use data-text="&#xfffd;" xlink:href="#font_3_1" transform="matrix(16,0,0,-16,334.3168,87.4751)"/>
<path transform="matrix(1,0,0,-1,0,540)" d="M424.625 82.68748C424.625 83.48137 425.2686 84.12495 426.0625 84.12495 426.8564 84.12495 427.5 83.48137 427.5 82.68748 427.5 81.89358 426.8564 81.24999 426.0625 81.24999 425.2686 81.24999 424.625 81.89358 424.625 82.68748Z" fill-rule="evenodd"/>
<path transform="matrix(.00007874014,0,0,.00007874014,424.625,455.87507)" stroke-width="25400" stroke-linecap="butt" stroke-linejoin="round" fill="none" stroke="#000000" d="M-.1706543 18256C-.1706543 8173.575 8173.363 .04205331 18255.7 .04205331 28338.41 .04205331 36511.95 8173.575 36511.95 18256 36511.95 28338.53 28338.41 36512.06 18255.7 36512.06 8173.363 36512.06-.1706543 28338.53-.1706543 18256Z"/>
<path transform="matrix(1,0,0,-1,0,540)" d="M477.9999 82.62495C477.9999 83.45338 478.6715 84.12495 479.4999 84.12495 480.3284 84.12495 480.9999 83.45338 480.9999 82.62495 480.9999 81.79652 480.3284 81.12495 479.4999 81.12495 478.6715 81.12495 477.9999 81.79652 477.9999 82.62495Z" fill-rule="evenodd"/>
<path transform="matrix(.00007874014,0,0,.00007874014,477.9999,455.87507)" stroke-width="25400" stroke-linecap="butt" stroke-linejoin="round" fill="none" stroke="#000000" d="M-.3415529 19050.04C-.3415529 8528.98 8528.597 .04205331 19049.66 .04205331 29570.73 .04205331 38099.66 8528.98 38099.66 19050.04 38099.66 29571.11 29570.73 38100.05 19049.66 38100.05 8528.597 38100.05-.3415529 29571.11-.3415529 19050.04Z"/>
<path transform="matrix(1,0,0,-1,0,540)" d="M371.2499 82.62495C371.2499 83.45338 371.8936 84.12495 372.6875 84.12495 373.4814 84.12495 374.1251 83.45338 374.1251 82.62495 374.1251 81.79652 373.4814 81.12495 372.6875 81.12495 371.8936 81.12495 371.2499 81.79652 371.2499 82.62495Z" fill-rule="evenodd"/>
<path transform="matrix(.00007874014,0,0,.00007874014,371.2499,455.87507)" stroke-width="25400" stroke-linecap="butt" stroke-linejoin="round" fill="none" stroke="#000000" d="M-.05004895 19050.04C-.05004895 8528.98 8173.871 .04205331 18256.98 .04205331 28340.08 .04205331 36514.01 8528.98 36514.01 19050.04 36514.01 29571.11 28340.08 38100.05 18256.98 38100.05 8173.871 38100.05-.05004895 29571.11-.05004895 19050.04Z"/>
<path transform="matrix(1,0,0,-1,0,540)" d="M157.5 82.62495C157.5 83.45338 158.1716 84.12495 159 84.12495 159.8284 84.12495 160.5 83.45338 160.5 82.62495 160.5 81.79652 159.8284 81.12495 159 81.12495 158.1716 81.12495 157.5 81.79652 157.5 82.62495Z" fill-rule="evenodd"/>
<path transform="matrix(.00007874014,0,0,.00007874014,157.5,455.87507)" stroke-width="25400" stroke-linecap="butt" stroke-linejoin="round" fill="none" stroke="#000000" d="M-.01116946 19050.04C-.01116946 8528.98 8528.927 .04205331 19049.99 .04205331 29571.06 .04205331 38100 8528.98 38100 19050.04 38100 29571.11 29571.06 38100.05 19049.99 38100.05 8528.927 38100.05-.01116946 29571.11-.01116946 19050.04Z"/>
<path transform="matrix(1,0,0,-1,0,540)" d="M104.25 349.75C104.25 350.5784 104.8936 351.25 105.6875 351.25 106.4815 351.25 107.1251 350.5784 107.1251 349.75 107.1251 348.9215 106.4815 348.25 105.6875 348.25 104.8936 348.25 104.25 348.9215 104.25 349.75Z" fill-rule="evenodd"/>
<path transform="matrix(.00007874014,0,0,.00007874014,104.25,188.75)" stroke-width="25400" stroke-linecap="butt" stroke-linejoin="round" fill="none" stroke="#000000" d="M.00982663 19050.21C.00982663 8529.14 8173.931 .2015381 18257.04 .2015381 28340.05 .2015381 36513.97 8529.14 36513.97 19050.21 36513.97 29571.27 28340.05 38100.21 18257.04 38100.21 8173.931 38100.21 .00982663 29571.27 .00982663 19050.21Z"/>
<path transform="matrix(1,0,0,-1,0,540)" d="M104.25 403.1874C104.25 403.9813 104.8936 404.6249 105.6875 404.6249 106.4815 404.6249 107.1251 403.9813 107.1251 403.1874 107.1251 402.3935 106.4815 401.7499 105.6875 401.7499 104.8936 401.7499 104.25 402.3935 104.25 403.1874Z" fill-rule="evenodd"/>
<path transform="matrix(.00007874014,0,0,.00007874014,104.25,135.37509)" stroke-width="25400" stroke-linecap="butt" stroke-linejoin="round" fill="none" stroke="#000000" d="M.00982663 18255.74C.00982663 8173.406 8173.931-.1275633 18257.04-.1275633 28340.05-.1275633 36513.97 8173.406 36513.97 18255.74 36513.97 28338.46 28340.05 36511.99 18257.04 36511.99 8173.931 36511.99 .00982663 28338.46 .00982663 18255.74Z"/>
<path transform="matrix(1,0,0,-1,0,540)" d="M104.25 296.25C104.25 297.0784 104.8936 297.75 105.6875 297.75 106.4815 297.75 107.1251 297.0784 107.1251 296.25 107.1251 295.4215 106.4815 294.75 105.6875 294.75 104.8936 294.75 104.25 295.4215 104.25 296.25Z" fill-rule="evenodd"/>
<path transform="matrix(.00007874014,0,0,.00007874014,104.25,242.25)" stroke-width="25400" stroke-linecap="butt" stroke-linejoin="round" fill="none" stroke="#000000" d="M.00982663 19050.06C.00982663 8528.994 8173.931 .05603033 18257.04 .05603033 28340.05 .05603033 36513.97 8528.994 36513.97 19050.06 36513.97 29571.12 28340.05 38100.06 18257.04 38100.06 8173.931 38100.06 .00982663 29571.12 .00982663 19050.06Z"/>
<path transform="matrix(1,0,0,-1,0,540)" d="M531.4999 82.62495C531.4999 83.45338 532.1715 84.12495 532.9999 84.12495 533.8284 84.12495 534.4999 83.45338 534.4999 82.62495 534.4999 81.79652 533.8284 81.12495 532.9999 81.12495 532.1715 81.12495 531.4999 81.79652 531.4999 82.62495Z" fill-rule="evenodd"/>
<path transform="matrix(.00007874014,0,0,.00007874014,531.4999,455.87507)" stroke-width="25400" stroke-linecap="butt" stroke-linejoin="round" fill="none" stroke="#000000" d="M-.2370607 19050.04C-.2370607 8528.98 8528.701 .04205331 19049.77 .04205331 29570.83 .04205331 38099.77 8528.98 38099.77 19050.04 38099.77 29571.11 29570.83 38100.05 19049.77 38100.05 8528.701 38100.05-.2370607 29571.11-.2370607 19050.04Z"/>
<path transform="matrix(1,0,0,-1,0,540)" d="M105.25 509.9999C105.25 510.8284 105.8936 511.4999 106.6875 511.4999 107.4815 511.4999 108.1251 510.8284 108.1251 509.9999 108.1251 509.1715 107.4815 508.4999 106.6875 508.4999 105.8936 508.4999 105.25 509.1715 105.25 509.9999Z" fill-rule="evenodd"/>
<path transform="matrix(.00007874014,0,0,.00007874014,105.25,28.500092)" stroke-width="25400" stroke-linecap="butt" stroke-linejoin="round" fill="none" stroke="#000000" d="M.01177976 19050.28C.01177976 8529.214 8173.933 .2761232 18257.04 .2761232 28340.05 .2761232 36513.97 8529.214 36513.97 19050.28 36513.97 29571.34 28340.05 38100.28 18257.04 38100.28 8173.933 38100.28 .01177976 29571.34 .01177976 19050.28Z"/>
<use data-text="." xlink:href="#font_4_1" transform="matrix(16,0,0,-16,232.825,477.52507)"/>
<use data-text="." xlink:href="#font_4_1" transform="matrix(16,0,0,-16,237.26979,477.52507)"/>
<use data-text="." xlink:href="#font_4_1" transform="matrix(16,0,0,-16,241.7146,477.52507)"/>
<use data-text="&#xfffd;" xlink:href="#font_5_1" transform="matrix(16,0,0,-16,246.1594,477.52507)"/>
<use data-text="." xlink:href="#font_4_1" transform="matrix(16,0,0,-16,125.7,477.52507)"/>
<use data-text="." xlink:href="#font_4_1" transform="matrix(16,0,0,-16,130.14479,477.52507)"/>
<use data-text="." xlink:href="#font_4_1" transform="matrix(16,0,0,-16,134.5896,477.52507)"/>
<use data-text="&#xfffd;" xlink:href="#font_5_1" transform="matrix(16,0,0,-16,139.0344,477.52507)"/>
<use data-text="." xlink:href="#font_4_1" transform="matrix(16,0,0,-16,341.2,475.52503)"/>
<use data-text="." xlink:href="#font_4_1" transform="matrix(16,0,0,-16,345.6448,475.52503)"/>
<use data-text="." xlink:href="#font_4_1" transform="matrix(16,0,0,-16,350.0896,475.52503)"/>
<use data-text="&#xfffd;" xlink:href="#font_5_1" transform="matrix(16,0,0,-16,354.53443,475.52503)"/>
<use data-text="." xlink:href="#font_4_1" transform="matrix(16,0,0,-16,446.2,477.52507)"/>
<use data-text="." xlink:href="#font_4_1" transform="matrix(16,0,0,-16,450.6448,477.52507)"/>
<use data-text="." xlink:href="#font_4_1" transform="matrix(16,0,0,-16,455.0896,477.52507)"/>
<use data-text="&#xfffd;" xlink:href="#font_5_1" transform="matrix(16,0,0,-16,459.53443,477.52507)"/>
<use data-text="." xlink:href="#font_4_1" transform="matrix(0,16,16,0,86.250019,419.6)"/>
<use data-text="." xlink:href="#font_4_1" transform="matrix(0,16,16,0,86.250019,424.0448)"/>
<use data-text="." xlink:href="#font_4_1" transform="matrix(0,16,16,0,86.250019,428.4896)"/>
<use data-text="&#xfffd;" xlink:href="#font_5_1" transform="matrix(0,16,16,0,86.250019,432.93443)"/>
<use data-text="." xlink:href="#font_4_1" transform="matrix(0,16,16,0,88.124988,311.6)"/>
<use data-text="." xlink:href="#font_4_1" transform="matrix(0,16,16,0,88.124988,316.0448)"/>
<use data-text="." xlink:href="#font_4_1" transform="matrix(0,16,16,0,88.124988,320.4896)"/>
<use data-text="&#xfffd;" xlink:href="#font_5_1" transform="matrix(0,16,16,0,88.124988,324.93443)"/>
<use data-text="." xlink:href="#font_4_1" transform="matrix(0,16,16,0,88.124988,204.2251)"/>
<use data-text="." xlink:href="#font_4_1" transform="matrix(0,16,16,0,88.124988,208.66989)"/>
<use data-text="." xlink:href="#font_4_1" transform="matrix(0,16,16,0,88.124988,213.1147)"/>
<use data-text="&#xfffd;" xlink:href="#font_5_1" transform="matrix(0,16,16,0,88.124988,217.5595)"/>
<use data-text="." xlink:href="#font_4_1" transform="matrix(0,16,16,0,87.749988,100.350009)"/>
<use data-text="." xlink:href="#font_4_1" transform="matrix(0,16,16,0,87.749988,104.79481)"/>
<use data-text="." xlink:href="#font_4_1" transform="matrix(0,16,16,0,87.749988,109.23961)"/>
<use data-text="&#xfffd;" xlink:href="#font_5_1" transform="matrix(0,16,16,0,87.749988,113.68441)"/>
<path transform="matrix(1,0,0,-1,0,540)" d="M318 404.1249H533.9999V298.1249H318Z" fill="#e4e4e4" fill-rule="evenodd"/>
<path transform="matrix(.00007874014,0,0,.00007874014,318,135.87509)" stroke-width="12700" stroke-linecap="butt" stroke-miterlimit="8" stroke-linejoin="miter" fill="none" stroke="#000000" d="M-.01647955-.1265867H2743200V1346200H-.01647955Z"/>
<use data-text="F" xlink:href="#font_2_7" transform="matrix(16,0,0,-16,390.1999,185.67511)"/>
<use data-text="o" xlink:href="#font_2_22" transform="matrix(16,0,0,-16,399.9727,185.67511)"/>
<use data-text="r" xlink:href="#font_2_23" transform="matrix(16,0,0,-16,408.8719,185.67511)"/>
<use data-text="b" xlink:href="#font_2_13" transform="matrix(16,0,0,-16,414.1999,185.67511)"/>
<use data-text="i" xlink:href="#font_2_19" transform="matrix(16,0,0,-16,423.0991,185.67511)"/>
<use data-text="d" xlink:href="#font_2_14" transform="matrix(16,0,0,-16,426.6543,185.67511)"/>
<use data-text="d" xlink:href="#font_2_14" transform="matrix(16,0,0,-16,435.5535,185.67511)"/>
<use data-text="e" xlink:href="#font_2_15" transform="matrix(16,0,0,-16,444.4527,185.67511)"/>
<use data-text="n" xlink:href="#font_2_21" transform="matrix(16,0,0,-16,453.3519,185.67511)"/>
<use data-text="&#xfffd;" xlink:href="#font_3_1" transform="matrix(16,0,0,-16,462.2511,185.67511)"/>
<use data-text="r" xlink:href="#font_2_23" transform="matrix(16,0,0,-16,388.1999,204.67511)"/>
<use data-text="e" xlink:href="#font_2_15" transform="matrix(16,0,0,-16,393.5279,204.67511)"/>
<use data-text="g" xlink:href="#font_2_17" transform="matrix(16,0,0,-16,402.4271,204.67511)"/>
<use data-text="i" xlink:href="#font_2_19" transform="matrix(16,0,0,-16,411.3263,204.67511)"/>
<use data-text="o" xlink:href="#font_2_22" transform="matrix(16,0,0,-16,414.8815,204.67511)"/>
<use data-text="n" xlink:href="#font_2_21" transform="matrix(16,0,0,-16,423.7807,204.67511)"/>
<use data-text=" " xlink:href="#font_2_1" transform="matrix(16,0,0,-16,432.6799,204.67511)"/>
<use data-text="f" xlink:href="#font_2_16" transform="matrix(16,0,0,-16,437.1247,204.67511)"/>
<use data-text="o" xlink:href="#font_2_22" transform="matrix(16,0,0,-16,441.5695,204.67511)"/>
<use data-text="r" xlink:href="#font_2_23" transform="matrix(16,0,0,-16,450.4687,204.67511)"/>
<use data-text=" " xlink:href="#font_2_1" transform="matrix(16,0,0,-16,455.7967,204.67511)"/>
<use data-text="t" xlink:href="#font_2_25" transform="matrix(16,0,0,-16,460.24153,204.67511)"/>
<use data-text="&#xfffd;" xlink:href="#font_3_1" transform="matrix(16,0,0,-16,464.6863,204.67511)"/>
<path transform="matrix(.00007874014,0,0,.00007874014,1.875039,392.375)" stroke-width="12700" stroke-linecap="butt" stroke-miterlimit="8" stroke-linejoin="miter" fill="none" stroke="#000000" d="M-.0001987645 .04302987H815975V838200.1H-.0001987645Z"/>
<use data-text="I" xlink:href="#font_2_8" transform="matrix(16,0,0,-16,9.075038,412.5751)"/>
<use data-text="n" xlink:href="#font_2_21" transform="matrix(16,0,0,-16,13.519838,412.5751)"/>
<use data-text="i" xlink:href="#font_2_19" transform="matrix(16,0,0,-16,22.419039,412.5751)"/>
<use data-text="t" xlink:href="#font_2_25" transform="matrix(16,0,0,-16,25.97424,412.5751)"/>
<use data-text="i" xlink:href="#font_2_19" transform="matrix(16,0,0,-16,30.41904,412.5751)"/>
<use data-text="a" xlink:href="#font_2_12" transform="matrix(16,0,0,-16,33.97424,412.5751)"/>
<use data-text="l" xlink:href="#font_2_20" transform="matrix(16,0,0,-16,42.873445,412.5751)"/>
<use data-text="l" xlink:href="#font_2_20" transform="matrix(16,0,0,-16,46.428647,412.5751)"/>
<use data-text="y" xlink:href="#font_2_26" transform="matrix(16,0,0,-16,49.98385,412.5751)"/>
<use data-text="&#xfffd;" xlink:href="#font_3_1" transform="matrix(16,0,0,-16,57.98385,412.5751)"/>
<use data-text="s" xlink:href="#font_2_24" transform="matrix(16,0,0,-16,16.07504,431.575)"/>
<use data-text=" " xlink:href="#font_2_1" transform="matrix(16,0,0,-16,24.07504,431.575)"/>
<use data-text="=" xlink:href="#font_2_6" transform="matrix(16,0,0,-16,28.51984,431.575)"/>
<use data-text=" " xlink:href="#font_2_1" transform="matrix(16,0,0,-16,37.863843,431.575)"/>
<use data-text="1" xlink:href="#font_2_4" transform="matrix(16,0,0,-16,42.30864,431.575)"/>
<use data-text="&#xfffd;" xlink:href="#font_3_1" transform="matrix(16,0,0,-16,51.20784,431.575)"/>
<use data-text="t" xlink:href="#font_2_25" transform="matrix(16,0,0,-16,18.07504,450.575)"/>
<use data-text=" " xlink:href="#font_2_1" transform="matrix(16,0,0,-16,22.51984,450.575)"/>
<use data-text="=" xlink:href="#font_2_6" transform="matrix(16,0,0,-16,26.964642,450.575)"/>
<use data-text=" " xlink:href="#font_2_1" transform="matrix(16,0,0,-16,36.308645,450.575)"/>
<use data-text="1" xlink:href="#font_2_4" transform="matrix(16,0,0,-16,40.75344,450.575)"/>
<use data-text="&#xfffd;" xlink:href="#font_3_1" transform="matrix(16,0,0,-16,49.65264,450.575)"/>
</g>
</g>
</svg>
