<svg xmlns="http://www.w3.org/2000/svg" xmlns:xlink="http://www.w3.org/1999/xlink" version="1.1" width="423.4352pt" height="354.16pt" viewBox="0 0 423.4352 354.16">
<defs>
<clipPath id="clip_0">
<path transform="matrix(1,0,0,-1,-35.0268,540)" d="M35.0268 185.84H458.462V540H35.0268Z" fill-rule="evenodd"/>
</clipPath>
<clipPath id="clip_1">
<path transform="matrix(1,0,0,-1,-35.0268,540)" d="M0 .00002324581H719.9999V540H0Z"/>
</clipPath>
<path id="font_2_7" d="M.07861328 .71777346H.17675781V.42089845H.5498047V.71777346H.6479492V0H.5498047V.33496095H.17675781V0H.07861328V.71777346Z"/>
<path id="font_2_5" d="M.095703128 .4951172V.5625C.15917969 .5686849 .20345052 .5790202 .22851563 .59350588 .25358073 .6079915 .2722982 .6422526 .28466798 .69628909H.3540039V0H.2602539V.4951172H.095703128Z"/>
<path id="font_3_1" d="M0 0Z"/>
<path id="font_2_8" d="M.076171878 .71777346H.17333985V.0859375H.5366211V0H.076171878V.71777346Z"/>
<path id="font_2_11" d="M.18164063 .71777346V.27441407C.18164063 .22233074 .19140625 .17903646 .2109375 .14453125 .23990886 .092447917 .28873698 .06640625 .35742188 .06640625 .43977867 .06640625 .49576823 .094563808 .5253906 .1508789 .5413411 .18147786 .5493164 .22265625 .5493164 .27441407V.71777346H.6479492V.3149414C.6479492 .22672527 .6360677 .15885417 .6123047 .111328128 .5686849 .024739584 .48632813-.018554688 .36523438-.018554688 .24414063-.018554688 .16194661 .024739584 .118652347 .111328128 .09488932 .15885417 .08300781 .22672527 .08300781 .3149414V.71777346H.18164063M.36572267 .71777346V.71777346Z"/>
<path id="font_2_9" d="M.13964844 .23144531C.14192708 .19064331 .15152996 .1575063 .16845703 .1320343 .2006836 .084376018 .25748698 .060546876 .3388672 .060546876 .37532554 .060546876 .40852867 .06575521 .43847657 .076171878 .49641929 .096354167 .5253906 .13248189 .5253906 .18455506 .5253906 .22361756 .5131836 .25144959 .48876954 .26805116 .46402995 .2843882 .42529298 .29859925 .3725586 .3106842L.27539063 .3327484C.21191406 .3471222 .16699219 .36294047 .140625 .38020326 .095052089 .41016136 .072265628 .4549408 .072265628 .5145416 .072265628 .57902529 .094563808 .6319478 .13916016 .6733093 .18375652 .71467086 .24690755 .73535159 .32861329 .73535159 .4038086 .73535159 .46769206 .7172038 .5202637 .6809082 .57283529 .6446126 .5991211 .58658859 .5991211 .50683596H.5078125C.5029297 .5452474 .49251304 .57470706 .4765625 .59521487 .4469401 .6326497 .39664714 .6513672 .3256836 .6513672 .26839195 .6513672 .22721355 .63931277 .20214844 .61520388 .17708333 .591095 .16455078 .56307479 .16455078 .5311432 .16455078 .49595643 .17919922 .47021995 .2084961 .45393373 .22770183 .44350688 .27115885 .43047587 .3388672 .4148407L.43945313 .39187623C.48795573 .38079835 .5253906 .36565147 .5517578 .34643556 .59733077 .31288658 .6201172 .26419068 .6201172 .2003479 .6201172 .12085978 .59122726 .06401571 .53344729 .029815674 .47566734-.004384359 .40852867-.021484375 .33203126-.021484375 .24283855-.021484375 .17301433 .0013478597 .122558597 .04701233 .07210287 .0923411 .04736328 .15381877 .048339845 .23144531H.13964844M.3359375 .7373047V.7373047Z"/>
<path id="font_2_10" d="M.59814456 .71777346V.63183596H.3564453V0H.2578125V.63183596H.016113282V.71777346H.59814456Z"/>
<path id="font_2_6" d="M.03125 0C.034505208 .060221357 .04695638 .11263021 .068603519 .15722656 .09025065 .20182292 .13248699 .24235027 .1953125 .2788086L.2890625 .3330078C.3310547 .35742188 .3605143 .3782908 .3774414 .39561463 .40413413 .4227346 .41748048 .45377604 .41748048 .488739 .41748048 .52959188 .40527345 .562027 .38085938 .5860443 .3564453 .61006167 .32389323 .6220703 .28320313 .6220703 .22298177 .6220703 .18131511 .5991516 .15820313 .5533142 .14583333 .52875778 .13899739 .4947103 .13769531 .45117188H.048339845C.049316408 .5121663 .060546876 .5619049 .08203125 .6003876 .12011719 .66822817 .18733724 .70214846 .2836914 .70214846 .36376954 .70214846 .4222819 .68047079 .45922853 .6371155 .49617515 .5937703 .51464846 .5455373 .51464846 .49241639 .51464846 .4363556 .49495445 .388443 .4555664 .3486786 .43277995 .3255361 .3919271 .29752604 .3330078 .26464845L.26611329 .22753906C.23421224 .20996094 .20914714 .19319661 .19091797 .1772461 .15836589 .14892578 .13785808 .11751302 .12939453 .08300781H.51123049V0H.03125Z"/>
<path id="font_2_15" d="M.064453128 .71875H.15234375V.45214845C.17317708 .4786682 .19189453 .4973297 .2084961 .50813296 .2368164 .5267995 .2721354 .5361328 .31445313 .5361328 .39029948 .5361328 .44173179 .50957748 .46875 .45646668 .48339845 .42747499 .49072267 .38723756 .49072267 .3357544V0H.40039063V.32958985C.40039063 .3680013 .3955078 .39615885 .3857422 .4140625 .36979167 .44270835 .33984376 .45703126 .29589845 .45703126 .2594401 .45703126 .22639974 .4444987 .19677735 .4194336 .16715496 .3943685 .15234375 .34700523 .15234375 .27734376V0H.064453128V.71875Z"/>
<path id="font_2_16" d="M.06689453 .5234375H.15039063V.4326172C.15722656 .4502767 .17399089 .4717814 .2006836 .49713136 .2273763 .52248129 .25813804 .53515627 .29296876 .53515627 .29459635 .53515627 .29736329 .5349579 .30126954 .53456118 .30517579 .5341746 .31184898 .5333964 .32128907 .53222659V.43945313C.31608073 .44062297 .3112793 .44140116 .30688478 .44178773 .30249024 .44218446 .2976888 .4423828 .29248048 .4423828 .24820964 .4423828 .2141927 .4280599 .19042969 .39941407 .16666667 .37076823 .15478516 .33789063 .15478516 .30078126V0H.06689453V.5234375Z"/>
<path id="font_2_14" d="M.28222657 .53515627C.31933595 .53515627 .355306 .52644857 .39013673 .5090332 .42496745 .49161784 .4514974 .4690806 .46972657 .4414215 .4873047 .41505433 .49902345 .3842977 .5048828 .3491516 .5100911 .32506309 .5126953 .28647868 .5126953 .23339844H.12939453C.13102214 .18033855 .14355469 .13777669 .16699219 .10571289 .19042969 .073649089 .22672527 .057617189 .2758789 .057617189 .32177735 .057617189 .35839845 .07261658 .3857422 .10261536 .4013672 .12003072 .4124349 .14018758 .4189453 .16308594H.5053711C.50309249 .14398194 .49552409 .122690837 .48266603 .09921265 .46980796 .07574463 .45540367 .05656433 .43945313 .041671754 .4127604 .01576233 .37972007-.0017242432 .34033204-.010787964 .3191732-.01596578 .2952474-.018554688 .2685547-.018554688 .20345052-.018554688 .14827474 .0051472985 .103027347 .05255127 .05777995 .09995524 .03515625 .16634114 .03515625 .25170899 .03515625 .33576457 .057942708 .40401713 .103515628 .45646668 .14908855 .5089264 .20865886 .53515627 .28222657 .53515627M.42236329 .30371095C.41878257 .34191896 .41048179 .37245179 .39746095 .39530946 .3733724 .4377594 .33317057 .45898438 .27685548 .45898438 .23649089 .45898438 .20263672 .44437156 .17529297 .41514588 .14794922 .3859202 .13346355 .34877525 .13183594 .30371095H.42236329M.27392579 .5361328V.5361328Z"/>
<path id="font_2_12" d="M.13183594 .1394043C.13183594 .114095058 .14111328 .09413656 .15966797 .07952881 .17822266 .06492106 .20019531 .057617189 .22558594 .057617189 .2565104 .057617189 .28645835 .06471761 .3154297 .07891846 .3642578 .10247803 .38867188 .14127605 .38867188 .1953125V.26611329C.3779297 .25886027 .36409507 .2528127 .34716798 .24797058 .33024089 .24313863 .3136393 .23983257 .29736329 .23805237L.24414063 .23184204C.21223958 .22799683 .1883138 .22153218 .17236328 .21244812 .14534505 .19718933 .13183594 .17284139 .13183594 .1394043M.34472657 .31689454C.36490885 .3194987 .37841798 .32796226 .3852539 .34228517 .38916017 .35012818 .39111329 .36140443 .39111329 .3761139 .39111329 .40618388 .38045249 .42799888 .35913087 .44155885 .33780924 .455129 .30729167 .46191407 .26757813 .46191407 .22167969 .46191407 .18912761 .44948326 .16992188 .42462159 .15917969 .4108785 .15218099 .39043174 .14892578 .36328126H.06689453C.06852213 .42791749 .08943685 .47288514 .12963867 .4981842 .1698405 .5234833 .21647136 .5361328 .26953126 .5361328 .3310547 .5361328 .38102214 .52441409 .4194336 .50097659 .45751954 .47753907 .4765625 .4410502 .4765625 .39151V.08985901C.4765625 .08073425 .47843424 .073404949 .48217774 .067871097 .48592124 .06233724 .4938151 .059570314 .5058594 .059570314 .5097656 .059570314 .51416018 .059814454 .51904299 .060302736 .5239258 .060791017 .5291341 .061523439 .53466799 .0625V-.0028076173C.5209961-.00676473 .5105794-.009236653 .50341799-.010223389 .4962565-.011220296 .48649089-.01171875 .4741211-.01171875 .44384767-.01171875 .421875-.0009104411 .40820313 .020706177 .40104167 .032170614 .3959961 .048380536 .3930664 .06933594 .37516276 .045633954 .34944663 .025060019 .31591798 .0076141359 .2823893-.009831746 .2454427-.018554688 .20507813-.018554688 .15657552-.018554688 .11694336-.0037790936 .08618164 .025772095 .055419923 .055323285 .040039064 .092300418 .040039064 .13670349 .040039064 .18535869 .05517578 .22307332 .08544922 .24984741 .115722659 .2766215 .1554362 .29311119 .20458985 .2993164L.34472657 .31689454M.27197267 .5361328V.5361328Z"/>
<path id="font_2_13" d="M.12011719 .2553711C.12011719 .19923909 .1319987 .15224712 .15576172 .11439514 .17952474 .076543178 .21761067 .057617189 .27001954 .057617189 .31070964 .057617189 .3441569 .075154628 .37036134 .11022949 .39656578 .14531453 .40966798 .19565328 .40966798 .26124574 .40966798 .32748924 .39615885 .37651573 .36914063 .4083252 .3421224 .44014488 .3087565 .4560547 .26904298 .4560547 .22477214 .4560547 .18888347 .4390869 .16137696 .40515138 .13387044 .37121583 .12011719 .32128907 .12011719 .2553711M.2524414 .53222659C.29248048 .53222659 .32600913 .52381899 .35302735 .5070038 .36865235 .4972992 .38639323 .48031617 .40625 .4560547V.71875H.49072267V0H.4116211V.07229614C.39111329 .04023234 .36686198 .017074585 .3388672 .002822876 .3108724-.011428833 .2788086-.018554688 .24267578-.018554688 .18440755-.018554688 .13395183 .0059407555 .091308597 .05493164 .048665365 .10392252 .02734375 .16910808 .02734375 .25048829 .02734375 .32666017 .04679362 .39265953 .08569336 .44848634 .1245931 .5043132 .18017578 .53222659 .2524414 .53222659Z"/>
<path id="font_2_1" d="M0 0Z"/>
<path id="font_2_2" d="M.29589845 .7294922C.24479167 .6301575 .21158855 .55703738 .19628906 .51013186 .17317708 .43881227 .1616211 .3564148 .1616211 .26293946 .1616211 .16848755 .17480469 .08217875 .20117188 .0040130617 .21744792-.044184369 .24951172-.11355591 .29736329-.20410156H.23828125C.1907552-.12984212 .16129558-.08245341 .14990235-.061935426 .13850911-.04141744 .12613933-.013570149 .11279297 .021606446 .094563808 .06980387 .08186849 .1212616 .07470703 .17597962 .071126308 .2043101 .06933594 .23134358 .06933594 .25708009 .06933594 .3534851 .084472659 .43930564 .114746097 .5145416 .13395183 .5624135 .17399089 .6340637 .23486328 .7294922H.29589845Z"/>
<path id="font_2_4" d="M.08300781-.10253906C.10546875-.098612468 .12125651-.08274841 .1303711-.0549469 .1352539-.040227254 .13769531-.026000977 .13769531-.012268066 .13769531-.009979248 .13761394-.00793457 .13745117-.006134033 .1372884-.004333496 .13688152-.0022888184 .13623047 0H.08300781V.10644531H.1875V.0078125C.1875-.030924479 .1796875-.064941409 .1640625-.09423828 .1484375-.123535159 .12141927-.14160156 .08300781-.1484375V-.10253906Z"/>
<path id="font_2_3" d="M.03466797-.20410156C.08642578-.103139247 .119791667-.029530844 .13476563 .016723633 .15755208 .08674113 .16894531 .16881307 .16894531 .26293946 .16894531 .35706584 .15576172 .44321189 .12939453 .52137759 .11311849 .569575 .08105469 .63894656 .033203126 .7294922H.092285159C.14241536 .64937338 .17277019 .59995016 .18334961 .58122256 .19392903 .56249496 .20540364 .5366821 .21777344 .5037842 .23339844 .46307374 .24454753 .42285157 .2512207 .38311769 .2578939 .3433838 .26123048 .30511476 .26123048 .26831056 .26123048 .17190552 .24593099 .08592224 .21533203 .010360718 .1961263-.03816223 .15625-.10964966 .095703128-.20410156H.03466797Z"/>
</defs>
<g clip-path="url(#clip_0)">
<g clip-path="url(#clip_1)">
<path transform="matrix(1,0,0,-1,-35.0268,540)" d="M0 539.9999H719.9999V.00003079383H0Z" fill="#ffffff" fill-rule="evenodd"/>
<path transform="matrix(.00007874014,0,0,-.00007874014,38.848234,323.25)" stroke-width="12700" stroke-linecap="butt" stroke-linejoin="round" fill="none" stroke="#000000" d="M-.03063959-.02044681 3810000 .9484864"/>
<path transform="matrix(-.00007874014,-0,0,-.00007874014,38.848234,323.25)" stroke-width="12700" stroke-linecap="butt" stroke-linejoin="round" fill="none" stroke="#000000" d="M.03063959-.02044681 .9995729 3840162"/>
<use data-text="H" xlink:href="#font_2_7" transform="matrix(16,0,0,-16,58.173185,343.15)"/>
<use data-text="1" xlink:href="#font_2_5" transform="matrix(10.66666,0,0,-10.66666,69.727878,347.15)"/>
<use data-text="&#xfffd;" xlink:href="#font_3_1" transform="matrix(16,0,0,-16,75.66016,343.15)"/>
<use data-text="L" xlink:href="#font_2_8" transform="matrix(16,0,0,-16,113.4232,343.15)"/>
<use data-text="1" xlink:href="#font_2_5" transform="matrix(10.66666,0,0,-10.66666,122.32164,347.15)"/>
<use data-text="&#xfffd;" xlink:href="#font_3_1" transform="matrix(16,0,0,-16,128.25392,343.15)"/>
<use data-text="U" xlink:href="#font_2_11" transform="matrix(16,0,0,-16,168.1732,343.15)"/>
<use data-text="1" xlink:href="#font_2_5" transform="matrix(10.66666,0,0,-10.66666,179.72789,347.15)"/>
<use data-text="&#xfffd;" xlink:href="#font_3_1" transform="matrix(16,0,0,-16,185.66017,343.15)"/>
<use data-text="S" xlink:href="#font_2_9" transform="matrix(16,0,0,-16,224.67322,343.15)"/>
<use data-text="1" xlink:href="#font_2_5" transform="matrix(10.66666,0,0,-10.66666,235.3451,347.15)"/>
<use data-text="&#xfffd;" xlink:href="#font_3_1" transform="matrix(16,0,0,-16,241.27738,343.15)"/>
<use data-text="T" xlink:href="#font_2_10" transform="matrix(16,0,0,-16,281.79823,343.15)"/>
<use data-text="1" xlink:href="#font_2_5" transform="matrix(10.66666,0,0,-10.66666,291.57167,347.15)"/>
<use data-text="&#xfffd;" xlink:href="#font_3_1" transform="matrix(16,0,0,-16,297.50395,343.15)"/>
<use data-text="H" xlink:href="#font_2_7" transform="matrix(16,0,0,-16,16.048233,299.15)"/>
<use data-text="2" xlink:href="#font_2_6" transform="matrix(10.66666,0,0,-10.66666,27.602925,303.15)"/>
<use data-text="&#xfffd;" xlink:href="#font_3_1" transform="matrix(16,0,0,-16,33.535203,299.15)"/>
<use data-text="L" xlink:href="#font_2_8" transform="matrix(16,0,0,-16,18.673192,244.4)"/>
<use data-text="2" xlink:href="#font_2_6" transform="matrix(10.66666,0,0,-10.66666,27.571629,248.4)"/>
<use data-text="&#xfffd;" xlink:href="#font_3_1" transform="matrix(16,0,0,-16,33.50391,244.4)"/>
<use data-text="U" xlink:href="#font_2_11" transform="matrix(16,0,0,-16,16.048233,187.65)"/>
<use data-text="2" xlink:href="#font_2_6" transform="matrix(10.66666,0,0,-10.66666,27.602925,191.65)"/>
<use data-text="&#xfffd;" xlink:href="#font_3_1" transform="matrix(16,0,0,-16,33.535203,187.65)"/>
<use data-text="S" xlink:href="#font_2_9" transform="matrix(16,0,0,-16,16.923192,134.02509)"/>
<use data-text="2" xlink:href="#font_2_6" transform="matrix(10.66666,0,0,-10.66666,27.59507,138.02509)"/>
<use data-text="&#xfffd;" xlink:href="#font_3_1" transform="matrix(16,0,0,-16,33.52735,134.02509)"/>
<use data-text="T" xlink:href="#font_2_10" transform="matrix(16,0,0,-16,17.798233,77.400089)"/>
<use data-text="2" xlink:href="#font_2_6" transform="matrix(10.66666,0,0,-10.66666,27.57167,81.400089)"/>
<use data-text="&#xfffd;" xlink:href="#font_3_1" transform="matrix(16,0,0,-16,33.503953,77.400089)"/>
<path transform="matrix(1,0,0,-1,-35.0268,540)" d="M121.875 271.8124C121.875 272.6064 122.5186 273.25 123.3125 273.25 124.1064 273.25 124.75 272.6064 124.75 271.8124 124.75 271.0185 124.1064 270.3748 123.3125 270.3748 122.5186 270.3748 121.875 271.0185 121.875 271.8124Z" fill-rule="evenodd"/>
<path transform="matrix(.00007874014,0,0,.00007874014,86.848209,266.75)" stroke-width="25400" stroke-linecap="butt" stroke-linejoin="round" fill="none" stroke="#000000" d="M.0006104112 18257.13C.0006104112 8174.025 8173.534 .1038819 18255.96 .1038819 28338.49 .1038819 36512.02 8174.025 36512.02 18257.13 36512.02 28340.24 28338.49 36514.16 18255.96 36514.16 8173.534 36514.16 .0006104112 28340.24 .0006104112 18257.13Z"/>
<path transform="matrix(1,0,0,-1,-35.0268,540)" d="M182.125 272.8124C182.125 273.6064 182.7966 274.25 183.625 274.25 184.4534 274.25 185.125 273.6064 185.125 272.8124 185.125 272.0185 184.4534 271.3748 183.625 271.3748 182.7966 271.3748 182.125 272.0185 182.125 272.8124Z" fill-rule="evenodd"/>
<path transform="matrix(.00007874014,0,0,.00007874014,147.0982,265.75)" stroke-width="25400" stroke-linecap="butt" stroke-linejoin="round" fill="none" stroke="#000000" d="M.04949954 18257.13C.04949954 8174.023 8528.987 .1019288 19050.05 .1019288 29571.12 .1019288 38100.05 8174.023 38100.05 18257.13 38100.05 28340.24 29571.12 36514.16 19050.05 36514.16 8528.987 36514.16 .04949954 28340.24 .04949954 18257.13Z"/>
<path transform="matrix(1,0,0,-1,-35.0268,540)" d="M237.125 272.8124C237.125 273.6064 237.7686 274.25 238.5625 274.25 239.3564 274.25 240 273.6064 240 272.8124 240 272.0185 239.3564 271.3748 238.5625 271.3748 237.7686 271.3748 237.125 272.0185 237.125 272.8124Z" fill-rule="evenodd"/>
<path transform="matrix(.00007874014,0,0,.00007874014,202.0982,265.75)" stroke-width="25400" stroke-linecap="butt" stroke-linejoin="round" fill="none" stroke="#000000" d="M-.03686523 18257.13C-.03686523 8174.023 8173.497 .1019288 18256.02 .1019288 28338.55 .1019288 36511.89 8174.023 36511.89 18257.13 36511.89 28340.24 28338.55 36514.16 18256.02 36514.16 8173.497 36514.16-.03686523 28340.24-.03686523 18257.13Z"/>
<path transform="matrix(1,0,0,-1,-35.0268,540)" d="M292.625 272.8124C292.625 273.6064 293.2686 274.25 294.0625 274.25 294.8564 274.25 295.5 273.6064 295.5 272.8124 295.5 272.0185 294.8564 271.3748 294.0625 271.3748 293.2686 271.3748 292.625 272.0185 292.625 272.8124Z" fill-rule="evenodd"/>
<path transform="matrix(.00007874014,0,0,.00007874014,257.5982,265.75)" stroke-width="25400" stroke-linecap="butt" stroke-linejoin="round" fill="none" stroke="#000000" d="M-.1784668 18257.13C-.1784668 8174.023 8173.355 .1019288 18255.69 .1019288 28338.41 .1019288 36511.94 8174.023 36511.94 18257.13 36511.94 28340.24 28338.41 36514.16 18255.69 36514.16 8173.355 36514.16-.1784668 28340.24-.1784668 18257.13Z"/>
<path transform="matrix(1,0,0,-1,-35.0268,540)" d="M347.4999 272.8124C347.4999 273.6064 348.1436 274.25 348.9375 274.25 349.7314 274.25 350.3751 273.6064 350.3751 272.8124 350.3751 272.0185 349.7314 271.3748 348.9375 271.3748 348.1436 271.3748 347.4999 272.0185 347.4999 272.8124Z" fill-rule="evenodd"/>
<path transform="matrix(.00007874014,0,0,.00007874014,312.4731,265.75)" stroke-width="25400" stroke-linecap="butt" stroke-linejoin="round" fill="none" stroke="#000000" d="M-.09643567 18257.13C-.09643567 8174.023 8173.825 .1019288 18256.93 .1019288 28340.04 .1019288 36513.96 8174.023 36513.96 18257.13 36513.96 28340.24 28340.04 36514.16 18256.93 36514.16 8173.825 36514.16-.09643567 28340.24-.09643567 18257.13Z"/>
<path transform="matrix(1,0,0,-1,-35.0268,540)" d="M121.875 326.9374C121.875 327.7313 122.5186 328.3749 123.3125 328.3749 124.1064 328.3749 124.75 327.7313 124.75 326.9374 124.75 326.1435 124.1064 325.4999 123.3125 325.4999 122.5186 325.4999 121.875 326.1435 121.875 326.9374Z" fill-rule="evenodd"/>
<path transform="matrix(.00007874014,0,0,.00007874014,86.848209,211.62509)" stroke-width="25400" stroke-linecap="butt" stroke-linejoin="round" fill="none" stroke="#000000" d="M.0006104112 18255.89C.0006104112 8173.555 8173.534 .02136248 18255.96 .02136248 28338.49 .02136248 36512.02 8173.555 36512.02 18255.89 36512.02 28338.61 28338.49 36512.14 18255.96 36512.14 8173.534 36512.14 .0006104112 28338.61 .0006104112 18255.89Z"/>
<path transform="matrix(1,0,0,-1,-35.0268,540)" d="M182.125 327.9374C182.125 328.7313 182.7966 329.3749 183.625 329.3749 184.4534 329.3749 185.125 328.7313 185.125 327.9374 185.125 327.1435 184.4534 326.4999 183.625 326.4999 182.7966 326.4999 182.125 327.1435 182.125 327.9374Z" fill-rule="evenodd"/>
<path transform="matrix(.00007874014,0,0,.00007874014,147.0982,210.62509)" stroke-width="25400" stroke-linecap="butt" stroke-linejoin="round" fill="none" stroke="#000000" d="M.04949954 18255.88C.04949954 8173.553 8528.987 .01940936 19050.05 .01940936 29571.12 .01940936 38100.05 8173.553 38100.05 18255.88 38100.05 28338.6 29571.12 36512.14 19050.05 36512.14 8528.987 36512.14 .04949954 28338.6 .04949954 18255.88Z"/>
<path transform="matrix(1,0,0,-1,-35.0268,540)" d="M237.125 327.9374C237.125 328.7313 237.7686 329.3749 238.5625 329.3749 239.3564 329.3749 240 328.7313 240 327.9374 240 327.1435 239.3564 326.4999 238.5625 326.4999 237.7686 326.4999 237.125 327.1435 237.125 327.9374Z" fill-rule="evenodd"/>
<path transform="matrix(.00007874014,0,0,.00007874014,202.0982,210.62509)" stroke-width="25400" stroke-linecap="butt" stroke-linejoin="round" fill="none" stroke="#000000" d="M-.03686523 18255.88C-.03686523 8173.553 8173.497 .01940936 18256.02 .01940936 28338.55 .01940936 36511.89 8173.553 36511.89 18255.88 36511.89 28338.6 28338.55 36512.14 18256.02 36512.14 8173.497 36512.14-.03686523 28338.6-.03686523 18255.88Z"/>
<path transform="matrix(1,0,0,-1,-35.0268,540)" d="M292.625 327.9374C292.625 328.7313 293.2686 329.3749 294.0625 329.3749 294.8564 329.3749 295.5 328.7313 295.5 327.9374 295.5 327.1435 294.8564 326.4999 294.0625 326.4999 293.2686 326.4999 292.625 327.1435 292.625 327.9374Z" fill-rule="evenodd"/>
<path transform="matrix(.00007874014,0,0,.00007874014,257.5982,210.62509)" stroke-width="25400" stroke-linecap="butt" stroke-linejoin="round" fill="none" stroke="#000000" d="M-.1784668 18255.88C-.1784668 8173.553 8173.355 .01940936 18255.69 .01940936 28338.41 .01940936 36511.94 8173.553 36511.94 18255.88 36511.94 28338.6 28338.41 36512.14 18255.69 36512.14 8173.355 36512.14-.1784668 28338.6-.1784668 18255.88Z"/>
<path transform="matrix(1,0,0,-1,-35.0268,540)" d="M347.4999 327.9374C347.4999 328.7313 348.1436 329.3749 348.9375 329.3749 349.7314 329.3749 350.3751 328.7313 350.3751 327.9374 350.3751 327.1435 349.7314 326.4999 348.9375 326.4999 348.1436 326.4999 347.4999 327.1435 347.4999 327.9374Z" fill-rule="evenodd"/>
<path transform="matrix(.00007874014,0,0,.00007874014,312.4731,210.62509)" stroke-width="25400" stroke-linecap="butt" stroke-linejoin="round" fill="none" stroke="#000000" d="M-.09643567 18255.88C-.09643567 8173.553 8173.825 .01940936 18256.93 .01940936 28340.04 .01940936 36513.96 8173.553 36513.96 18255.88 36513.96 28338.6 28340.04 36512.14 18256.93 36512.14 8173.825 36512.14-.09643567 28338.6-.09643567 18255.88Z"/>
<path transform="matrix(1,0,0,-1,-35.0268,540)" d="M121.875 383.3124C121.875 384.1064 122.5186 384.75 123.3125 384.75 124.1064 384.75 124.75 384.1064 124.75 383.3124 124.75 382.5185 124.1064 381.8748 123.3125 381.8748 122.5186 381.8748 121.875 382.5185 121.875 383.3124Z" fill-rule="evenodd"/>
<path transform="matrix(.00007874014,0,0,.00007874014,86.848209,155.25)" stroke-width="25400" stroke-linecap="butt" stroke-linejoin="round" fill="none" stroke="#000000" d="M.0006104112 18257.16C.0006104112 8174.057 8173.534 .1361085 18255.96 .1361085 28338.49 .1361085 36512.02 8174.057 36512.02 18257.16 36512.02 28340.27 28338.49 36514.19 18255.96 36514.19 8173.534 36514.19 .0006104112 28340.27 .0006104112 18257.16Z"/>
<path transform="matrix(1,0,0,-1,-35.0268,540)" d="M182.125 383.3124C182.125 384.1064 182.7966 384.75 183.625 384.75 184.4534 384.75 185.125 384.1064 185.125 383.3124 185.125 382.5185 184.4534 381.8748 183.625 381.8748 182.7966 381.8748 182.125 382.5185 182.125 383.3124Z" fill-rule="evenodd"/>
<path transform="matrix(.00007874014,0,0,.00007874014,147.0982,155.25)" stroke-width="25400" stroke-linecap="butt" stroke-linejoin="round" fill="none" stroke="#000000" d="M.04949954 18257.16C.04949954 8174.057 8528.987 .1361085 19050.05 .1361085 29571.12 .1361085 38100.05 8174.057 38100.05 18257.16 38100.05 28340.27 29571.12 36514.19 19050.05 36514.19 8528.987 36514.19 .04949954 28340.27 .04949954 18257.16Z"/>
<path transform="matrix(1,0,0,-1,-35.0268,540)" d="M237.125 383.3124C237.125 384.1064 237.7686 384.75 238.5625 384.75 239.3564 384.75 240 384.1064 240 383.3124 240 382.5185 239.3564 381.8748 238.5625 381.8748 237.7686 381.8748 237.125 382.5185 237.125 383.3124Z" fill-rule="evenodd"/>
<path transform="matrix(.00007874014,0,0,.00007874014,202.0982,155.25)" stroke-width="25400" stroke-linecap="butt" stroke-linejoin="round" fill="none" stroke="#000000" d="M-.03686523 18257.16C-.03686523 8174.057 8173.497 .1361085 18256.02 .1361085 28338.55 .1361085 36511.89 8174.057 36511.89 18257.16 36511.89 28340.27 28338.55 36514.19 18256.02 36514.19 8173.497 36514.19-.03686523 28340.27-.03686523 18257.16Z"/>
<path transform="matrix(1,0,0,-1,-35.0268,540)" d="M292.625 383.3124C292.625 384.1064 293.2686 384.75 294.0625 384.75 294.8564 384.75 295.5 384.1064 295.5 383.3124 295.5 382.5185 294.8564 381.8748 294.0625 381.8748 293.2686 381.8748 292.625 382.5185 292.625 383.3124Z" fill-rule="evenodd"/>
<path transform="matrix(.00007874014,0,0,.00007874014,257.5982,155.25)" stroke-width="25400" stroke-linecap="butt" stroke-linejoin="round" fill="none" stroke="#000000" d="M-.1784668 18257.16C-.1784668 8174.057 8173.355 .1361085 18255.69 .1361085 28338.41 .1361085 36511.94 8174.057 36511.94 18257.16 36511.94 28340.27 28338.41 36514.19 18255.69 36514.19 8173.355 36514.19-.1784668 28340.27-.1784668 18257.16Z"/>
<path transform="matrix(1,0,0,-1,-35.0268,540)" d="M347.4999 383.3124C347.4999 384.1064 348.1436 384.75 348.9375 384.75 349.7314 384.75 350.3751 384.1064 350.3751 383.3124 350.3751 382.5185 349.7314 381.8748 348.9375 381.8748 348.1436 381.8748 347.4999 382.5185 347.4999 383.3124Z" fill-rule="evenodd"/>
<path transform="matrix(.00007874014,0,0,.00007874014,312.4731,155.25)" stroke-width="25400" stroke-linecap="butt" stroke-linejoin="round" fill="none" stroke="#000000" d="M-.09643567 18257.16C-.09643567 8174.057 8173.825 .1361085 18256.93 .1361085 28340.04 .1361085 36513.96 8174.057 36513.96 18257.16 36513.96 28340.27 28340.04 36514.19 18256.93 36514.19 8173.825 36514.19-.09643567 28340.27-.09643567 18257.16Z"/>
<path transform="matrix(1,0,0,-1,-35.0268,540)" d="M121.875 438.8124C121.875 439.6064 122.5186 440.25 123.3125 440.25 124.1064 440.25 124.75 439.6064 124.75 438.8124 124.75 438.0185 124.1064 437.3748 123.3125 437.3748 122.5186 437.3748 121.875 438.0185 121.875 438.8124Z" fill-rule="evenodd"/>
<path transform="matrix(.00007874014,0,0,.00007874014,86.848209,99.75)" stroke-width="25400" stroke-linecap="butt" stroke-linejoin="round" fill="none" stroke="#000000" d="M.0006104112 18257.06C.0006104112 8173.949 8173.534 .02771002 18255.96 .02771002 28338.49 .02771002 36512.02 8173.949 36512.02 18257.06 36512.02 28340.16 28338.49 36514.08 18255.96 36514.08 8173.534 36514.08 .0006104112 28340.16 .0006104112 18257.06Z"/>
<path transform="matrix(1,0,0,-1,-35.0268,540)" d="M182.125 438.8124C182.125 439.6064 182.7966 440.25 183.625 440.25 184.4534 440.25 185.125 439.6064 185.125 438.8124 185.125 438.0185 184.4534 437.3748 183.625 437.3748 182.7966 437.3748 182.125 438.0185 182.125 438.8124Z" fill-rule="evenodd"/>
<path transform="matrix(.00007874014,0,0,.00007874014,147.0982,99.75)" stroke-width="25400" stroke-linecap="butt" stroke-linejoin="round" fill="none" stroke="#000000" d="M.04949954 18257.06C.04949954 8173.949 8528.987 .02771002 19050.05 .02771002 29571.12 .02771002 38100.05 8173.949 38100.05 18257.06 38100.05 28340.16 29571.12 36514.08 19050.05 36514.08 8528.987 36514.08 .04949954 28340.16 .04949954 18257.06Z"/>
<path transform="matrix(1,0,0,-1,-35.0268,540)" d="M237.125 438.8124C237.125 439.6064 237.7686 440.25 238.5625 440.25 239.3564 440.25 240 439.6064 240 438.8124 240 438.0185 239.3564 437.3748 238.5625 437.3748 237.7686 437.3748 237.125 438.0185 237.125 438.8124Z" fill-rule="evenodd"/>
<path transform="matrix(.00007874014,0,0,.00007874014,202.0982,99.75)" stroke-width="25400" stroke-linecap="butt" stroke-linejoin="round" fill="none" stroke="#000000" d="M-.03686523 18257.06C-.03686523 8173.949 8173.497 .02771002 18256.02 .02771002 28338.55 .02771002 36511.89 8173.949 36511.89 18257.06 36511.89 28340.16 28338.55 36514.08 18256.02 36514.08 8173.497 36514.08-.03686523 28340.16-.03686523 18257.06Z"/>
<path transform="matrix(1,0,0,-1,-35.0268,540)" d="M292.625 438.8124C292.625 439.6064 293.2686 440.25 294.0625 440.25 294.8564 440.25 295.5 439.6064 295.5 438.8124 295.5 438.0185 294.8564 437.3748 294.0625 437.3748 293.2686 437.3748 292.625 438.0185 292.625 438.8124Z" fill-rule="evenodd"/>
<path transform="matrix(.00007874014,0,0,.00007874014,257.5982,99.75)" stroke-width="25400" stroke-linecap="butt" stroke-linejoin="round" fill="none" stroke="#000000" d="M-.1784668 18257.06C-.1784668 8173.949 8173.355 .02771002 18255.69 .02771002 28338.41 .02771002 36511.94 8173.949 36511.94 18257.06 36511.94 28340.16 28338.41 36514.08 18255.69 36514.08 8173.355 36514.08-.1784668 28340.16-.1784668 18257.06Z"/>
<path transform="matrix(1,0,0,-1,-35.0268,540)" d="M347.4999 438.8124C347.4999 439.6064 348.1436 440.25 348.9375 440.25 349.7314 440.25 350.3751 439.6064 350.3751 438.8124 350.3751 438.0185 349.7314 437.3748 348.9375 437.3748 348.1436 437.3748 347.4999 438.0185 347.4999 438.8124Z" fill-rule="evenodd"/>
<path transform="matrix(.00007874014,0,0,.00007874014,312.4731,99.75)" stroke-width="25400" stroke-linecap="butt" stroke-linejoin="round" fill="none" stroke="#000000" d="M-.09643567 18257.06C-.09643567 8173.949 8173.825 .02771002 18256.93 .02771002 28340.04 .02771002 36513.96 8173.949 36513.96 18257.06 36513.96 28340.16 28340.04 36514.08 18256.93 36514.08 8173.825 36514.08-.09643567 28340.16-.09643567 18257.06Z"/>
<path transform="matrix(1,0,0,-1,-35.0268,540)" d="M121.875 492.9374C121.875 493.7313 122.5186 494.3749 123.3125 494.3749 124.1064 494.3749 124.75 493.7313 124.75 492.9374 124.75 492.1435 124.1064 491.4999 123.3125 491.4999 122.5186 491.4999 121.875 492.1435 121.875 492.9374Z" fill-rule="evenodd"/>
<path transform="matrix(.00007874014,0,0,.00007874014,86.848209,45.62509)" stroke-width="25400" stroke-linecap="butt" stroke-linejoin="round" fill="none" stroke="#000000" d="M.0006104112 18256.06C.0006104112 8173.73 8173.534 .1971437 18255.96 .1971437 28338.49 .1971437 36512.02 8173.73 36512.02 18256.06 36512.02 28338.78 28338.49 36512.32 18255.96 36512.32 8173.534 36512.32 .0006104112 28338.78 .0006104112 18256.06Z"/>
<path transform="matrix(1,0,0,-1,-35.0268,540)" d="M182.125 493.9374C182.125 494.7313 182.7966 495.3749 183.625 495.3749 184.4534 495.3749 185.125 494.7313 185.125 493.9374 185.125 493.1435 184.4534 492.4999 183.625 492.4999 182.7966 492.4999 182.125 493.1435 182.125 493.9374Z" fill-rule="evenodd"/>
<path transform="matrix(.00007874014,0,0,.00007874014,147.0982,44.62509)" stroke-width="25400" stroke-linecap="butt" stroke-linejoin="round" fill="none" stroke="#000000" d="M.04949954 18256.06C.04949954 8173.729 8528.987 .1951906 19050.05 .1951906 29571.12 .1951906 38100.05 8173.729 38100.05 18256.06 38100.05 28338.78 29571.12 36512.31 19050.05 36512.31 8528.987 36512.31 .04949954 28338.78 .04949954 18256.06Z"/>
<path transform="matrix(1,0,0,-1,-35.0268,540)" d="M237.125 493.9374C237.125 494.7313 237.7686 495.3749 238.5625 495.3749 239.3564 495.3749 240 494.7313 240 493.9374 240 493.1435 239.3564 492.4999 238.5625 492.4999 237.7686 492.4999 237.125 493.1435 237.125 493.9374Z" fill-rule="evenodd"/>
<path transform="matrix(.00007874014,0,0,.00007874014,202.0982,44.62509)" stroke-width="25400" stroke-linecap="butt" stroke-linejoin="round" fill="none" stroke="#000000" d="M-.03686523 18256.06C-.03686523 8173.729 8173.497 .1951906 18256.02 .1951906 28338.55 .1951906 36511.89 8173.729 36511.89 18256.06 36511.89 28338.78 28338.55 36512.31 18256.02 36512.31 8173.497 36512.31-.03686523 28338.78-.03686523 18256.06Z"/>
<path transform="matrix(1,0,0,-1,-35.0268,540)" d="M292.625 493.9374C292.625 494.7313 293.2686 495.3749 294.0625 495.3749 294.8564 495.3749 295.5 494.7313 295.5 493.9374 295.5 493.1435 294.8564 492.4999 294.0625 492.4999 293.2686 492.4999 292.625 493.1435 292.625 493.9374Z" fill-rule="evenodd"/>
<path transform="matrix(.00007874014,0,0,.00007874014,257.5982,44.62509)" stroke-width="25400" stroke-linecap="butt" stroke-linejoin="round" fill="none" stroke="#000000" d="M-.1784668 18256.06C-.1784668 8173.729 8173.355 .1951906 18255.69 .1951906 28338.41 .1951906 36511.94 8173.729 36511.94 18256.06 36511.94 28338.78 28338.41 36512.31 18255.69 36512.31 8173.355 36512.31-.1784668 28338.78-.1784668 18256.06Z"/>
<path transform="matrix(1,0,0,-1,-35.0268,540)" d="M347.4999 493.9374C347.4999 494.7313 348.1436 495.3749 348.9375 495.3749 349.7314 495.3749 350.3751 494.7313 350.3751 493.9374 350.3751 493.1435 349.7314 492.4999 348.9375 492.4999 348.1436 492.4999 347.4999 493.1435 347.4999 493.9374Z" fill-rule="evenodd"/>
<path transform="matrix(.00007874014,0,0,.00007874014,312.4731,44.62509)" stroke-width="25400" stroke-linecap="butt" stroke-linejoin="round" fill="none" stroke="#000000" d="M-.09643567 18256.06C-.09643567 8173.729 8173.825 .1951906 18256.93 .1951906 28340.04 .1951906 36513.96 8173.729 36513.96 18256.06 36513.96 28338.78 28340.04 36512.31 18256.93 36512.31 8173.825 36512.31-.09643567 28338.78-.09643567 18256.06Z"/>
<use data-text="T" xlink:href="#font_2_10" transform="matrix(16,0,0,-16,345.67323,329.65)"/>
<use data-text="h" xlink:href="#font_2_15" transform="matrix(16,0,0,-16,355.446,329.65)"/>
<use data-text="r" xlink:href="#font_2_16" transform="matrix(16,0,0,-16,364.3452,329.65)"/>
<use data-text="e" xlink:href="#font_2_14" transform="matrix(16,0,0,-16,369.67323,329.65)"/>
<use data-text="a" xlink:href="#font_2_12" transform="matrix(16,0,0,-16,378.57243,329.65)"/>
<use data-text="d" xlink:href="#font_2_13" transform="matrix(16,0,0,-16,387.47163,329.65)"/>
<use data-text=" " xlink:href="#font_2_1" transform="matrix(16,0,0,-16,396.37083,329.65)"/>
<use data-text="1" xlink:href="#font_2_5" transform="matrix(16,0,0,-16,400.8156,329.65)"/>
<use data-text="&#xfffd;" xlink:href="#font_3_1" transform="matrix(16,0,0,-16,409.7148,329.65)"/>
<use data-text="T" xlink:href="#font_2_10" transform="matrix(16,0,0,-16,4.173191,15.650085)"/>
<use data-text="h" xlink:href="#font_2_15" transform="matrix(16,0,0,-16,13.9459919,15.650085)"/>
<use data-text="r" xlink:href="#font_2_16" transform="matrix(16,0,0,-16,22.845192,15.650085)"/>
<use data-text="e" xlink:href="#font_2_14" transform="matrix(16,0,0,-16,28.173192,15.650085)"/>
<use data-text="a" xlink:href="#font_2_12" transform="matrix(16,0,0,-16,37.07239,15.650085)"/>
<use data-text="d" xlink:href="#font_2_13" transform="matrix(16,0,0,-16,45.971593,15.650085)"/>
<use data-text=" " xlink:href="#font_2_1" transform="matrix(16,0,0,-16,54.870794,15.650085)"/>
<use data-text="2" xlink:href="#font_2_6" transform="matrix(16,0,0,-16,59.315595,15.650085)"/>
<use data-text="&#xfffd;" xlink:href="#font_3_1" transform="matrix(16,0,0,-16,68.2148,15.650085)"/>
<use data-text="(" xlink:href="#font_2_2" transform="matrix(16,0,0,-16,123.0482,92.400089)"/>
<use data-text="L" xlink:href="#font_2_8" transform="matrix(16,0,0,-16,128.3762,92.400089)"/>
<use data-text="1" xlink:href="#font_2_5" transform="matrix(10.66666,0,0,-10.66666,137.27477,96.400089)"/>
<use data-text="," xlink:href="#font_2_4" transform="matrix(16,0,0,-16,143.20705,92.400089)"/>
<use data-text=" " xlink:href="#font_2_1" transform="matrix(16,0,0,-16,147.65184,92.400089)"/>
<use data-text="S" xlink:href="#font_2_9" transform="matrix(16,0,0,-16,152.09665,92.400089)"/>
<use data-text="2" xlink:href="#font_2_6" transform="matrix(10.66666,0,0,-10.66666,162.76955,96.400089)"/>
<use data-text=")" xlink:href="#font_2_3" transform="matrix(16,0,0,-16,168.70183,92.400089)"/>
<use data-text="&#xfffd;" xlink:href="#font_3_1" transform="matrix(16,0,0,-16,174.02983,92.400089)"/>
<path transform="matrix(1,0,0,-1,-35.0268,540)" d="M123 217.0624C123 217.8564 123.6436 218.5 124.4375 218.5 125.2315 218.5 125.8751 217.8564 125.8751 217.0624 125.8751 216.2685 125.2315 215.6249 124.4375 215.6249 123.6436 215.6249 123 216.2685 123 217.0624Z" fill-rule="evenodd"/>
<path transform="matrix(.00007874014,0,0,.00007874014,87.973209,321.5)" stroke-width="25400" stroke-linecap="butt" stroke-linejoin="round" fill="none" stroke="#000000" d="M-.07855228 18257.04C-.07855228 8173.938 8173.842 .01702884 18256.95 .01702884 28339.96 .01702884 36513.88 8173.938 36513.88 18257.04 36513.88 28340.15 28339.96 36514.07 18256.95 36514.07 8173.842 36514.07-.07855228 28340.15-.07855228 18257.04Z"/>
<path transform="matrix(1,0,0,-1,-35.0268,540)" d="M181.125 217.25C181.125 218.0784 181.7966 218.75 182.625 218.75 183.4534 218.75 184.125 218.0784 184.125 217.25 184.125 216.4216 183.4534 215.75 182.625 215.75 181.7966 215.75 181.125 216.4216 181.125 217.25Z" fill-rule="evenodd"/>
<path transform="matrix(.00007874014,0,0,.00007874014,146.0982,321.25)" stroke-width="25400" stroke-linecap="butt" stroke-linejoin="round" fill="none" stroke="#000000" d="M.04754642 19050.02C.04754642 8528.955 8528.985 .01654056 19050.05 .01654056 29571.12 .01654056 38100.05 8528.955 38100.05 19050.02 38100.05 29571.08 29571.12 38100.02 19050.05 38100.02 8528.985 38100.02 .04754642 29571.08 .04754642 19050.02Z"/>
<path transform="matrix(1,0,0,-1,-35.0268,540)" d="M237.375 217.25C237.375 218.0784 238.0186 218.75 238.8125 218.75 239.6064 218.75 240.25 218.0784 240.25 217.25 240.25 216.4216 239.6064 215.75 238.8125 215.75 238.0186 215.75 237.375 216.4216 237.375 217.25Z" fill-rule="evenodd"/>
<path transform="matrix(.00007874014,0,0,.00007874014,202.3482,321.25)" stroke-width="25400" stroke-linecap="butt" stroke-linejoin="round" fill="none" stroke="#000000" d="M-.0925903 19050.02C-.0925903 8528.955 8173.441 .01654056 18255.97 .01654056 28338.49 .01654056 36511.83 8528.955 36511.83 19050.02 36511.83 29571.08 28338.49 38100.02 18255.97 38100.02 8173.441 38100.02-.0925903 29571.08-.0925903 19050.02Z"/>
<path transform="matrix(1,0,0,-1,-35.0268,540)" d="M292.875 217.25C292.875 218.0784 293.5186 218.75 294.3125 218.75 295.1064 218.75 295.75 218.0784 295.75 217.25 295.75 216.4216 295.1064 215.75 294.3125 215.75 293.5186 215.75 292.875 216.4216 292.875 217.25Z" fill-rule="evenodd"/>
<path transform="matrix(.00007874014,0,0,.00007874014,257.8482,321.25)" stroke-width="25400" stroke-linecap="butt" stroke-linejoin="round" fill="none" stroke="#000000" d="M-.1779785 19050.02C-.1779785 8528.955 8173.355 .01654056 18255.69 .01654056 28338.41 .01654056 36511.94 8528.955 36511.94 19050.02 36511.94 29571.08 28338.41 38100.02 18255.69 38100.02 8173.355 38100.02-.1779785 29571.08-.1779785 19050.02Z"/>
<path transform="matrix(1,0,0,-1,-35.0268,540)" d="M347.75 217.25C347.75 218.0784 348.4215 218.75 349.25 218.75 350.0784 218.75 350.75 218.0784 350.75 217.25 350.75 216.4216 350.0784 215.75 349.25 215.75 348.4215 215.75 347.75 216.4216 347.75 217.25Z" fill-rule="evenodd"/>
<path transform="matrix(.00007874014,0,0,.00007874014,312.7232,321.25)" stroke-width="25400" stroke-linecap="butt" stroke-linejoin="round" fill="none" stroke="#000000" d="M-.2083741 19050.02C-.2083741 8528.955 8528.729 .01654056 19049.79 .01654056 29570.86 .01654056 38099.8 8528.955 38099.8 19050.02 38099.8 29571.08 29570.86 38100.02 19049.79 38100.02 8528.729 38100.02-.2083741 29571.08-.2083741 19050.02Z"/>
<path transform="matrix(1,0,0,-1,-35.0268,540)" d="M72.74999 272.8124C72.74999 273.6064 73.39361 274.25 74.18755 274.25 74.98149 274.25 75.62511 273.6064 75.62511 272.8124 75.62511 272.0185 74.98149 271.3748 74.18755 271.3748 73.39361 271.3748 72.74999 272.0185 72.74999 272.8124Z" fill-rule="evenodd"/>
<path transform="matrix(.00007874014,0,0,.00007874014,37.723196,265.75)" stroke-width="25400" stroke-linecap="butt" stroke-linejoin="round" fill="none" stroke="#000000" d="M-.01730348 18257.13C-.01730348 8174.023 8173.904 .1019288 18257.01 .1019288 28340.02 .1019288 36513.94 8174.023 36513.94 18257.13 36513.94 28340.24 28340.02 36514.16 18257.01 36514.16 8173.904 36514.16-.01730348 28340.24-.01730348 18257.13Z"/>
<path transform="matrix(1,0,0,-1,-35.0268,540)" d="M72.24999 327.9374C72.24999 328.7313 72.89361 329.3749 73.68755 329.3749 74.48149 329.3749 75.12511 328.7313 75.12511 327.9374 75.12511 327.1435 74.48149 326.4999 73.68755 326.4999 72.89361 326.4999 72.24999 327.1435 72.24999 327.9374Z" fill-rule="evenodd"/>
<path transform="matrix(.00007874014,0,0,.00007874014,37.223196,210.62509)" stroke-width="25400" stroke-linecap="butt" stroke-linejoin="round" fill="none" stroke="#000000" d="M-.01828004 18255.88C-.01828004 8173.553 8173.903 .01940936 18257.01 .01940936 28340.02 .01940936 36513.94 8173.553 36513.94 18255.88 36513.94 28338.6 28340.02 36512.14 18257.01 36512.14 8173.903 36512.14-.01828004 28338.6-.01828004 18255.88Z"/>
<path transform="matrix(1,0,0,-1,-35.0268,540)" d="M72.24999 383.0624C72.24999 383.8564 72.89361 384.5 73.68755 384.5 74.48149 384.5 75.12511 383.8564 75.12511 383.0624 75.12511 382.2685 74.48149 381.6248 73.68755 381.6248 72.89361 381.6248 72.24999 382.2685 72.24999 383.0624Z" fill-rule="evenodd"/>
<path transform="matrix(.00007874014,0,0,.00007874014,37.223196,155.5)" stroke-width="25400" stroke-linecap="butt" stroke-linejoin="round" fill="none" stroke="#000000" d="M-.01828004 18257.16C-.01828004 8174.058 8173.903 .1365967 18257.01 .1365967 28340.02 .1365967 36513.94 8174.058 36513.94 18257.16 36513.94 28340.27 28340.02 36514.19 18257.01 36514.19 8173.903 36514.19-.01828004 28340.27-.01828004 18257.16Z"/>
<path transform="matrix(1,0,0,-1,-35.0268,540)" d="M72.24999 439.5624C72.24999 440.3563 72.89361 440.9999 73.68755 440.9999 74.48149 440.9999 75.12511 440.3563 75.12511 439.5624 75.12511 438.7684 74.48149 438.1248 73.68755 438.1248 72.89361 438.1248 72.24999 438.7684 72.24999 439.5624Z" fill-rule="evenodd"/>
<path transform="matrix(.00007874014,0,0,.00007874014,37.223196,99.00009)" stroke-width="25400" stroke-linecap="butt" stroke-linejoin="round" fill="none" stroke="#000000" d="M-.01828004 18256.94C-.01828004 8173.835 8173.903-.08618152 18257.01-.08618152 28340.02-.08618152 36513.94 8173.835 36513.94 18256.94 36513.94 28340.05 28340.02 36513.97 18257.01 36513.97 8173.903 36513.97-.01828004 28340.05-.01828004 18256.94Z"/>
<path transform="matrix(1,0,0,-1,-35.0268,540)" d="M72.74999 494.4374C72.74999 495.2313 73.39361 495.8749 74.18755 495.8749 74.98149 495.8749 75.62511 495.2313 75.62511 494.4374 75.62511 493.6435 74.98149 492.9999 74.18755 492.9999 73.39361 492.9999 72.74999 493.6435 72.74999 494.4374Z" fill-rule="evenodd"/>
<path transform="matrix(.00007874014,0,0,.00007874014,37.723196,44.12509)" stroke-width="25400" stroke-linecap="butt" stroke-linejoin="round" fill="none" stroke="#000000" d="M-.01730348 18256.06C-.01730348 8173.728 8173.904 .194214 18257.01 .194214 28340.02 .194214 36513.94 8173.728 36513.94 18256.06 36513.94 28338.78 28340.02 36512.31 18257.01 36512.31 8173.904 36512.31-.01730348 28338.78-.01730348 18256.06Z"/>
<path transform="matrix(1,0,0,-1,-35.0268,540)" d="M72.24999 217.25C72.24999 218.0784 72.89361 218.75 73.68755 218.75 74.48149 218.75 75.12511 218.0784 75.12511 217.25 75.12511 216.4216 74.48149 215.75 73.68755 215.75 72.89361 215.75 72.24999 216.4216 72.24999 217.25Z" fill-rule="evenodd"/>
<path transform="matrix(.00007874014,0,0,.00007874014,37.223196,321.25)" stroke-width="25400" stroke-linecap="butt" stroke-linejoin="round" fill="none" stroke="#000000" d="M-.01828004 19050.02C-.01828004 8528.955 8173.903 .01654056 18257.01 .01654056 28340.02 .01654056 36513.94 8528.955 36513.94 19050.02 36513.94 29571.08 28340.02 38100.02 18257.01 38100.02 8173.903 38100.02-.01828004 29571.08-.01828004 19050.02Z"/>
</g>
</g>
</svg>
