<svg xmlns="http://www.w3.org/2000/svg" xmlns:xlink="http://www.w3.org/1999/xlink" version="1.1" width="620.364pt" height="437.44599pt" viewBox="0 0 620.364 437.44599">
<defs>
<clipPath id="clip_0">
<path transform="matrix(1,0,0,-1,0,540)" d="M0 102.554H620.364V540H0Z" fill-rule="evenodd"/>
</clipPath>
<clipPath id="clip_1">
<path transform="matrix(1,0,0,-1,0,540)" d="M0 .00002324581H719.9999V540H0Z"/>
</clipPath>
<path id="font_2_10" d="M.07861328 .71777346H.17675781V.42089845H.5498047V.71777346H.6479492V0H.5498047V.33496095H.17675781V0H.07861328V.71777346Z"/>
<path id="font_2_6" d="M.095703128 .4951172V.5625C.15917969 .5686849 .20345052 .5790202 .22851563 .59350588 .25358073 .6079915 .2722982 .6422526 .28466798 .69628909H.3540039V0H.2602539V.4951172H.095703128Z"/>
<path id="font_3_1" d="M0 0Z"/>
<path id="font_2_13" d="M.08544922 .71777346H.40820313C.47200523 .71777346 .5234375 .6997884 .5625 .66381838 .6015625 .6278483 .62109377 .5773112 .62109377 .51220706 .62109377 .45621745 .6036784 .4074707 .56884768 .3659668 .5340169 .3244629 .48046876 .30371095 .40820313 .30371095H.18261719V0H.08544922V.71777346M.5229492 .5114746C.5229492 .56410726 .50341799 .5998433 .46435548 .61868289 .4428711 .62875369 .41341148 .63378909 .37597657 .63378909H.18261719V.3857422H.37597657C.41959635 .3857422 .45499674 .39499919 .48217774 .41351319 .5093587 .43203736 .5229492 .46469117 .5229492 .5114746Z"/>
<path id="font_2_2" d="M.29589845 .7294922C.24479167 .6301575 .21158855 .55703738 .19628906 .51013186 .17317708 .43881227 .1616211 .3564148 .1616211 .26293946 .1616211 .16848755 .17480469 .08217875 .20117188 .0040130617 .21744792-.044184369 .24951172-.11355591 .29736329-.20410156H.23828125C.1907552-.12984212 .16129558-.08245341 .14990235-.061935426 .13850911-.04141744 .12613933-.013570149 .11279297 .021606446 .094563808 .06980387 .08186849 .1212616 .07470703 .17597962 .071126308 .2043101 .06933594 .23134358 .06933594 .25708009 .06933594 .3534851 .084472659 .43930564 .114746097 .5145416 .13395183 .5624135 .17399089 .6340637 .23486328 .7294922H.29589845Z"/>
<path id="font_2_30" d="M.11669922 .1640625C.11930338 .13463338 .12662761 .11207072 .13867188 .09637451 .1608073 .06793213 .19921875 .053710939 .25390626 .053710939 .28645835 .053710939 .31510417 .060806276 .33984376 .07499695 .36458335 .08919779 .37695313 .11115011 .37695313 .14085388 .37695313 .16337586 .36702476 .18051148 .34716798 .19226074 .33447267 .19944255 .30940757 .20775859 .27197267 .21720886L.20214844 .2348175C.15755208 .24590557 .12467448 .25829569 .103515628 .27198792 .06575521 .29579164 .046875 .32873027 .046875 .37080384 .046875 .42036439 .064697269 .46046958 .1003418 .49111939 .13598633 .52177938 .18391927 .5371094 .24414063 .5371094 .32291667 .5371094 .37972007 .5139974 .41455079 .46777345 .4363607 .43847657 .4469401 .40690104 .44628907 .37304688H.36328126C.36165367 .39269004 .35465495 .41055808 .34228517 .426651 .32210288 .44950868 .28710938 .4609375 .23730469 .4609375 .20410156 .4609375 .17895508 .45461528 .16186524 .44197084 .14477539 .42933656 .13623047 .41264854 .13623047 .39190675 .13623047 .36922203 .14746094 .35107423 .16992188 .33746339 .1829427 .32936607 .20214844 .32221986 .22753906 .31602479L.28564454 .3018341C.34879557 .28650413 .39111329 .27166749 .41259767 .25732423 .44677735 .23482259 .4638672 .19944255 .4638672 .15118408 .4638672 .10455322 .44620768 .06428019 .41088868 .03036499 .37556968-.0035502117 .32177735-.020507813 .24951172-.020507813 .17171224-.020507813 .116617839-.002802531 .084228519 .032608034 .05183919 .06801859 .034505208 .111836757 .032226564 .1640625H.11669922M.24658203 .5361328V.5361328Z"/>
<path id="font_2_3" d="M.03466797-.20410156C.08642578-.103139247 .119791667-.029530844 .13476563 .016723633 .15755208 .08674113 .16894531 .16881307 .16894531 .26293946 .16894531 .35706584 .15576172 .44321189 .12939453 .52137759 .11311849 .569575 .08105469 .63894656 .033203126 .7294922H.092285159C.14241536 .64937338 .17277019 .59995016 .18334961 .58122256 .19392903 .56249496 .20540364 .5366821 .21777344 .5037842 .23339844 .46307374 .24454753 .42285157 .2512207 .38311769 .2578939 .3433838 .26123048 .30511476 .26123048 .26831056 .26123048 .17190552 .24593099 .08592224 .21533203 .010360718 .1961263-.03816223 .15625-.10964966 .095703128-.20410156H.03466797Z"/>
<path id="font_2_17" d="M.1328125 .71777346 .3388672 .10652161 .54248049 .71777346H.6513672L.38964845 0H.2866211L.025390625 .71777346H.1328125Z"/>
<path id="font_2_15" d="M.59814456 .71777346V.63183596H.3564453V0H.2578125V.63183596H.016113282V.71777346H.59814456Z"/>
<path id="font_2_24" d="M.064453128 .71875H.15234375V.45214845C.17317708 .4786682 .19189453 .4973297 .2084961 .50813296 .2368164 .5267995 .2721354 .5361328 .31445313 .5361328 .39029948 .5361328 .44173179 .50957748 .46875 .45646668 .48339845 .42747499 .49072267 .38723756 .49072267 .3357544V0H.40039063V.32958985C.40039063 .3680013 .3955078 .39615885 .3857422 .4140625 .36979167 .44270835 .33984376 .45703126 .29589845 .45703126 .2594401 .45703126 .22639974 .4444987 .19677735 .4194336 .16715496 .3943685 .15234375 .34700523 .15234375 .27734376V0H.064453128V.71875Z"/>
<path id="font_2_29" d="M.06689453 .5234375H.15039063V.4326172C.15722656 .4502767 .17399089 .4717814 .2006836 .49713136 .2273763 .52248129 .25813804 .53515627 .29296876 .53515627 .29459635 .53515627 .29736329 .5349579 .30126954 .53456118 .30517579 .5341746 .31184898 .5333964 .32128907 .53222659V.43945313C.31608073 .44062297 .3112793 .44140116 .30688478 .44178773 .30249024 .44218446 .2976888 .4423828 .29248048 .4423828 .24820964 .4423828 .2141927 .4280599 .19042969 .39941407 .16666667 .37076823 .15478516 .33789063 .15478516 .30078126V0H.06689453V.5234375Z"/>
<path id="font_2_21" d="M.28222657 .53515627C.31933595 .53515627 .355306 .52644857 .39013673 .5090332 .42496745 .49161784 .4514974 .4690806 .46972657 .4414215 .4873047 .41505433 .49902345 .3842977 .5048828 .3491516 .5100911 .32506309 .5126953 .28647868 .5126953 .23339844H.12939453C.13102214 .18033855 .14355469 .13777669 .16699219 .10571289 .19042969 .073649089 .22672527 .057617189 .2758789 .057617189 .32177735 .057617189 .35839845 .07261658 .3857422 .10261536 .4013672 .12003072 .4124349 .14018758 .4189453 .16308594H.5053711C.50309249 .14398194 .49552409 .122690837 .48266603 .09921265 .46980796 .07574463 .45540367 .05656433 .43945313 .041671754 .4127604 .01576233 .37972007-.0017242432 .34033204-.010787964 .3191732-.01596578 .2952474-.018554688 .2685547-.018554688 .20345052-.018554688 .14827474 .0051472985 .103027347 .05255127 .05777995 .09995524 .03515625 .16634114 .03515625 .25170899 .03515625 .33576457 .057942708 .40401713 .103515628 .45646668 .14908855 .5089264 .20865886 .53515627 .28222657 .53515627M.42236329 .30371095C.41878257 .34191896 .41048179 .37245179 .39746095 .39530946 .3733724 .4377594 .33317057 .45898438 .27685548 .45898438 .23649089 .45898438 .20263672 .44437156 .17529297 .41514588 .14794922 .3859202 .13346355 .34877525 .13183594 .30371095H.42236329M.27392579 .5361328V.5361328Z"/>
<path id="font_2_18" d="M.13183594 .1394043C.13183594 .114095058 .14111328 .09413656 .15966797 .07952881 .17822266 .06492106 .20019531 .057617189 .22558594 .057617189 .2565104 .057617189 .28645835 .06471761 .3154297 .07891846 .3642578 .10247803 .38867188 .14127605 .38867188 .1953125V.26611329C.3779297 .25886027 .36409507 .2528127 .34716798 .24797058 .33024089 .24313863 .3136393 .23983257 .29736329 .23805237L.24414063 .23184204C.21223958 .22799683 .1883138 .22153218 .17236328 .21244812 .14534505 .19718933 .13183594 .17284139 .13183594 .1394043M.34472657 .31689454C.36490885 .3194987 .37841798 .32796226 .3852539 .34228517 .38916017 .35012818 .39111329 .36140443 .39111329 .3761139 .39111329 .40618388 .38045249 .42799888 .35913087 .44155885 .33780924 .455129 .30729167 .46191407 .26757813 .46191407 .22167969 .46191407 .18912761 .44948326 .16992188 .42462159 .15917969 .4108785 .15218099 .39043174 .14892578 .36328126H.06689453C.06852213 .42791749 .08943685 .47288514 .12963867 .4981842 .1698405 .5234833 .21647136 .5361328 .26953126 .5361328 .3310547 .5361328 .38102214 .52441409 .4194336 .50097659 .45751954 .47753907 .4765625 .4410502 .4765625 .39151V.08985901C.4765625 .08073425 .47843424 .073404949 .48217774 .067871097 .48592124 .06233724 .4938151 .059570314 .5058594 .059570314 .5097656 .059570314 .51416018 .059814454 .51904299 .060302736 .5239258 .060791017 .5291341 .061523439 .53466799 .0625V-.0028076173C.5209961-.00676473 .5105794-.009236653 .50341799-.010223389 .4962565-.011220296 .48649089-.01171875 .4741211-.01171875 .44384767-.01171875 .421875-.0009104411 .40820313 .020706177 .40104167 .032170614 .3959961 .048380536 .3930664 .06933594 .37516276 .045633954 .34944663 .025060019 .31591798 .0076141359 .2823893-.009831746 .2454427-.018554688 .20507813-.018554688 .15657552-.018554688 .11694336-.0037790936 .08618164 .025772095 .055419923 .055323285 .040039064 .092300418 .040039064 .13670349 .040039064 .18535869 .05517578 .22307332 .08544922 .24984741 .115722659 .2766215 .1554362 .29311119 .20458985 .2993164L.34472657 .31689454M.27197267 .5361328V.5361328Z"/>
<path id="font_2_20" d="M.12011719 .2553711C.12011719 .19923909 .1319987 .15224712 .15576172 .11439514 .17952474 .076543178 .21761067 .057617189 .27001954 .057617189 .31070964 .057617189 .3441569 .075154628 .37036134 .11022949 .39656578 .14531453 .40966798 .19565328 .40966798 .26124574 .40966798 .32748924 .39615885 .37651573 .36914063 .4083252 .3421224 .44014488 .3087565 .4560547 .26904298 .4560547 .22477214 .4560547 .18888347 .4390869 .16137696 .40515138 .13387044 .37121583 .12011719 .32128907 .12011719 .2553711M.2524414 .53222659C.29248048 .53222659 .32600913 .52381899 .35302735 .5070038 .36865235 .4972992 .38639323 .48031617 .40625 .4560547V.71875H.49072267V0H.4116211V.07229614C.39111329 .04023234 .36686198 .017074585 .3388672 .002822876 .3108724-.011428833 .2788086-.018554688 .24267578-.018554688 .18440755-.018554688 .13395183 .0059407555 .091308597 .05493164 .048665365 .10392252 .02734375 .16910808 .02734375 .25048829 .02734375 .32666017 .04679362 .39265953 .08569336 .44848634 .1245931 .5043132 .18017578 .53222659 .2524414 .53222659Z"/>
<path id="font_2_1" d="M0 0Z"/>
<path id="font_2_7" d="M.03125 0C.034505208 .060221357 .04695638 .11263021 .068603519 .15722656 .09025065 .20182292 .13248699 .24235027 .1953125 .2788086L.2890625 .3330078C.3310547 .35742188 .3605143 .3782908 .3774414 .39561463 .40413413 .4227346 .41748048 .45377604 .41748048 .488739 .41748048 .52959188 .40527345 .562027 .38085938 .5860443 .3564453 .61006167 .32389323 .6220703 .28320313 .6220703 .22298177 .6220703 .18131511 .5991516 .15820313 .5533142 .14583333 .52875778 .13899739 .4947103 .13769531 .45117188H.048339845C.049316408 .5121663 .060546876 .5619049 .08203125 .6003876 .12011719 .66822817 .18733724 .70214846 .2836914 .70214846 .36376954 .70214846 .4222819 .68047079 .45922853 .6371155 .49617515 .5937703 .51464846 .5455373 .51464846 .49241639 .51464846 .4363556 .49495445 .388443 .4555664 .3486786 .43277995 .3255361 .3919271 .29752604 .3330078 .26464845L.26611329 .22753906C.23421224 .20996094 .20914714 .19319661 .19091797 .1772461 .15836589 .14892578 .13785808 .11751302 .12939453 .08300781H.51123049V0H.03125Z"/>
<path id="font_2_12" d="M.076171878 .71777346H.17333985V.0859375H.5366211V0H.076171878V.71777346Z"/>
<path id="font_2_16" d="M.18164063 .71777346V.27441407C.18164063 .22233074 .19140625 .17903646 .2109375 .14453125 .23990886 .092447917 .28873698 .06640625 .35742188 .06640625 .43977867 .06640625 .49576823 .094563808 .5253906 .1508789 .5413411 .18147786 .5493164 .22265625 .5493164 .27441407V.71777346H.6479492V.3149414C.6479492 .22672527 .6360677 .15885417 .6123047 .111328128 .5686849 .024739584 .48632813-.018554688 .36523438-.018554688 .24414063-.018554688 .16194661 .024739584 .118652347 .111328128 .09488932 .15885417 .08300781 .22672527 .08300781 .3149414V.71777346H.18164063M.36572267 .71777346V.71777346Z"/>
<path id="font_2_14" d="M.13964844 .23144531C.14192708 .19064331 .15152996 .1575063 .16845703 .1320343 .2006836 .084376018 .25748698 .060546876 .3388672 .060546876 .37532554 .060546876 .40852867 .06575521 .43847657 .076171878 .49641929 .096354167 .5253906 .13248189 .5253906 .18455506 .5253906 .22361756 .5131836 .25144959 .48876954 .26805116 .46402995 .2843882 .42529298 .29859925 .3725586 .3106842L.27539063 .3327484C.21191406 .3471222 .16699219 .36294047 .140625 .38020326 .095052089 .41016136 .072265628 .4549408 .072265628 .5145416 .072265628 .57902529 .094563808 .6319478 .13916016 .6733093 .18375652 .71467086 .24690755 .73535159 .32861329 .73535159 .4038086 .73535159 .46769206 .7172038 .5202637 .6809082 .57283529 .6446126 .5991211 .58658859 .5991211 .50683596H.5078125C.5029297 .5452474 .49251304 .57470706 .4765625 .59521487 .4469401 .6326497 .39664714 .6513672 .3256836 .6513672 .26839195 .6513672 .22721355 .63931277 .20214844 .61520388 .17708333 .591095 .16455078 .56307479 .16455078 .5311432 .16455078 .49595643 .17919922 .47021995 .2084961 .45393373 .22770183 .44350688 .27115885 .43047587 .3388672 .4148407L.43945313 .39187623C.48795573 .38079835 .5253906 .36565147 .5517578 .34643556 .59733077 .31288658 .6201172 .26419068 .6201172 .2003479 .6201172 .12085978 .59122726 .06401571 .53344729 .029815674 .47566734-.004384359 .40852867-.021484375 .33203126-.021484375 .24283855-.021484375 .17301433 .0013478597 .122558597 .04701233 .07210287 .0923411 .04736328 .15381877 .048339845 .23144531H.13964844M.3359375 .7373047V.7373047Z"/>
<path id="font_2_27" d="M.064453128 .5234375H.14794922V.44921876C.1726888 .47981773 .19889324 .50179037 .2265625 .5151367 .25423179 .5284831 .2849935 .53515627 .31884767 .53515627 .3930664 .53515627 .44319663 .5092519 .46923829 .45744325 .4835612 .42910258 .49072267 .38853965 .49072267 .3357544V0H.4013672V.3299408C.4013672 .36188255 .39664714 .38762919 .38720704 .4071808 .37158204 .4397634 .34326173 .4560547 .3022461 .4560547 .28141276 .4560547 .2643229 .4539388 .25097657 .44970704 .22688802 .4425354 .20572917 .42819724 .1875 .4066925 .17285156 .38941957 .16333008 .37157694 .15893555 .35316468 .15454102 .3347524 .15234375 .30844117 .15234375 .27423097V0H.064453128V.5234375M.2709961 .5361328V.5361328Z"/>
<path id="font_2_22" d="M.08642578 .6021576C.08772787 .638443 .09407552 .66500857 .10546875 .68185427 .12597656 .7116597 .16552735 .7265625 .2241211 .7265625 .22965496 .7265625 .23535156 .7263997 .24121094 .7260742 .24707031 .7257487 .2537435 .72526046 .26123048 .7246094V.64453127C.25211589 .6449687 .2455241 .6452382 .24145508 .64533999 .23738607 .64545187 .2335612 .6455078 .22998047 .6455078 .20328777 .6455078 .18733724 .6386719 .1821289 .625 .17692058 .6113281 .1743164 .5764974 .1743164 .5205078H.26123048V.45117188H.17333985V0H.08642578V.45117188H.013671875V.5205078H.08642578V.6021576Z"/>
<path id="font_2_23" d="M.24902344 .53222659C.29003907 .53222659 .32584635 .5220744 .3564453 .50177 .37304688 .49030558 .38997398 .4736023 .40722657 .45166017V.5185547H.48828126V.04234314C.48828126-.024154664 .47851563-.07663473 .45898438-.115097049 .42252604-.18615215 .35367839-.22167969 .2524414-.22167969 .1961263-.22167969 .14876302-.20906575 .11035156-.18383789 .0719401-.15861003 .05045573-.119140628 .045898439-.06542969H.1352539C.13948567-.08873495 .14794922-.10669454 .16064453-.11930847 .1805013-.13872783 .2117513-.1484375 .25439454-.1484375 .32177735-.1484375 .3658854-.12467448 .38671876-.07714844 .39908854-.04916382 .40478517 .0007985433 .4038086 .07273865 .38623048 .04588318 .36507163 .025904337 .34033204 .012802124 .31559245-.000289917 .2828776-.0068359377 .2421875-.0068359377 .18554688-.0068359377 .13598633 .013280232 .09350586 .053512575 .05102539 .09375509 .029785157 .16030376 .029785157 .25315858 .029785157 .34080506 .051188154 .40922547 .09399414 .4584198 .13680013 .5076243 .18847656 .53222659 .24902344 .53222659M.40722657 .26342774C.40722657 .328125 .39388023 .37607829 .3671875 .4072876 .34049479 .43849693 .30647788 .45410157 .26513673 .45410157 .20328777 .45410157 .16097005 .4251658 .1381836 .3672943 .12613933 .33641053 .12011719 .29593406 .12011719 .24586487 .12011719 .1870168 .13208008 .14223226 .15600586 .11151123 .17993164 .0807902 .21207683 .06542969 .2524414 .06542969 .31559245 .06542969 .36002604 .09387716 .3857422 .1507721 .4000651 .18295796 .40722657 .22050984 .40722657 .26342774M.25927735 .5361328V.5361328Z"/>
<path id="font_2_25" d="M.064453128 .5205078H.1538086V0H.064453128V.5205078M.064453128 .71777346H.1538086V.61816409H.064453128V.71777346Z"/>
<path id="font_2_28" d="M.27197267 .057617189C.33024089 .057617189 .37019859 .07964579 .3918457 .123703 .41349284 .16776021 .4243164 .21677144 .4243164 .2707367 .4243164 .31950379 .4165039 .35917155 .4008789 .38974 .3761393 .43785606 .3334961 .46191407 .27294923 .46191407 .21923828 .46191407 .18017578 .44143168 .15576172 .40046693 .13134766 .35950218 .119140628 .31008403 .119140628 .25221253 .119140628 .1966095 .13134766 .15027364 .15576172 .113204959 .18017578 .076146449 .21891277 .057617189 .27197267 .057617189M.27539063 .53808596C.34277345 .53808596 .3997396 .5156453 .44628907 .47076417 .49283854 .42588298 .5161133 .35985819 .5161133 .27268983 .5161133 .1884613 .49560548 .11886088 .45458985 .06388855 .41357423 .008926392 .3499349-.018554688 .26367188-.018554688 .19173177-.018554688 .13460286 .00575765 .092285159 .054382326 .04996745 .103006999 .028808594 .16829936 .028808594 .2502594 .028808594 .33806864 .05110677 .4079895 .095703128 .46002198 .14029949 .51206466 .20019531 .53808596 .27539063 .53808596M.27246095 .5361328V.5361328Z"/>
<path id="font_2_9" d="M.08544922 .71777346H.5830078V.6298828H.18261719V.41210938H.53466799V.32617188H.18261719V0H.08544922V.71777346Z"/>
<path id="font_2_19" d="M.057617189 .71875H.1430664V.45948792C.16227214 .4847056 .18522136 .50394698 .21191406 .5172119 .23860677 .53047689 .26757813 .5371094 .29882813 .5371094 .36393229 .5371094 .41674806 .5147095 .4572754 .46990968 .49780274 .42510987 .5180664 .35905458 .5180664 .27174378 .5180664 .1889801 .49804688 .12022909 .4580078 .06549072 .41796876 .010762532 .36246745-.016601563 .2915039-.016601563 .25179038-.016601563 .21826172-.006942749 .19091797 .012374878 .17464192 .023839316 .15722656 .042175294 .13867188 .06738281V0H.057617189V.71875M.2861328 .061523439C.33365885 .061523439 .36922203 .08037821 .39282228 .11808777 .41642253 .1558075 .42822267 .20555115 .42822267 .26731874 .42822267 .32227073 .41642253 .3677877 .39282228 .40386964 .36922203 .43996177 .33447267 .4580078 .28857423 .4580078 .24853516 .4580078 .21346028 .44321189 .18334961 .41362 .15323894 .3840383 .1381836 .3352712 .1381836 .26731874 .1381836 .21822612 .14436849 .17840068 .15673828 .1478424 .17985027 .090296428 .22298177 .061523439 .2861328 .061523439Z"/>
<path id="font_2_5" d="M.2705078 .7001953C.3610026 .7001953 .42643229 .66289779 .46679688 .5883026 .49804688 .5306447 .5136719 .45165 .5136719 .35131837 .5136719 .25620524 .49951173 .17754109 .4711914 .11532593 .43017579 .026072184 .3631185-.018554688 .27001954-.018554688 .18603516-.018554688 .123535159 .017929078 .08251953 .09089661 .048339845 .15180969 .03125 .23357137 .03125 .33618165 .03125 .41565959 .041503908 .48390199 .06201172 .5409088 .10042318 .6470998 .16992188 .7001953 .2705078 .7001953M.26953126 .061523439C.31510417 .061523439 .35139976 .08168539 .37841798 .12200928 .4054362 .16234334 .4189453 .23747762 .4189453 .3474121 .4189453 .42676798 .4091797 .49205528 .38964845 .5432739 .3701172 .59450277 .332194 .6201172 .2758789 .6201172 .2241211 .6201172 .1862793 .59580489 .16235352 .5471802 .13842774 .4985555 .12646485 .42692057 .12646485 .3322754 .12646485 .26105754 .13411458 .20381673 .14941406 .16055298 .17285156 .09453329 .21289063 .061523439 .26953126 .061523439Z"/>
<path id="font_2_4" d="M.041503908 .32421876H.2866211V.23339844H.041503908V.32421876Z"/>
<path id="font_2_11" d="M.09814453 .71777346H.19628906V0H.09814453V.71777346Z"/>
<path id="font_2_31" d="M.08203125 .66796877H.17089844V.5234375H.25439454V.4501953H.17089844V.110183719C.17089844 .09202576 .17708333 .07986959 .18945313 .07371521 .19628906 .07014465 .2076823 .068359378 .22363281 .068359378 .22786458 .068359378 .23242188 .06846619 .23730469 .06867981 .2421875 .0689036 .24788411 .06944784 .25439454 .0703125V0C.24430339-.0031026204 .23380535-.005340576 .22290039-.006713867 .21199544-.008097331 .20019531-.0087890629 .1875-.0087890629 .14648438-.0087890629 .118652347 .0016988119 .104003909 .02267456 .08935547 .04365031 .08203125 .070882167 .08203125 .10437012V.4501953H.011230469V.5234375H.08203125V.66796877Z"/>
<path id="font_2_26" d="M.06689453 .71777346H.15478516V0H.06689453V.71777346Z"/>
<path id="font_2_32" d="M.39111329 .5234375H.48828126C.47591148 .48987834 .44840495 .41330973 .40576173 .2937317 .3738607 .20380657 .34716798 .13049825 .3256836 .07380676 .27490235-.059921266 .23909505-.14145915 .21826172-.17080689 .19742839-.2001648 .1616211-.21484375 .110839847-.21484375 .098470058-.21484375 .08894857-.21435039 .08227539-.21336365 .07560221-.21238709 .06738281-.21058655 .057617189-.20796204V-.1274414C.072916667-.13167317 .083984378-.13427735 .09082031-.1352539 .09765625-.13623047 .10367838-.13671875 .10888672-.13671875 .12516277-.13671875 .13712566-.1340332 .14477539-.12866211 .15242513-.123291019 .15885417-.11669922 .1640625-.10888672 .16569011-.106282558 .17154949-.092936199 .18164063-.068847659 .19173177-.044759115 .19905599-.026855469 .20361328-.015136719L.010253906 .5234375H.10986328L.25 .09727478 .39111329 .5234375M.24951172 .5361328V.5361328Z"/>
<path id="font_2_8" d="M.5541992 .4013672V.31933595H.044921876V.4013672H.5541992M.5541992 .19238281V.10839844H.044921876V.19238281H.5541992Z"/>
</defs>
<g clip-path="url(#clip_0)">
<g clip-path="url(#clip_1)">
<path transform="matrix(1,0,0,-1,0,540)" d="M0 539.9999H719.9999V.00003079383H0Z" fill="#ffffff" fill-rule="evenodd"/>
<path transform="matrix(1,0,0,-1,0,540)" d="M234.5 388H385.4999V241H234.5Z" fill="#cbcbcb" fill-rule="evenodd"/>
<path transform="matrix(.00007874014,0,0,.00007874014,234.5,152)" stroke-width="12700" stroke-linecap="butt" stroke-dasharray="50800,38100" stroke-miterlimit="8" stroke-linejoin="miter" fill="none" stroke="#000000" d="M.07043451 .1297608H1917700V1866900H.07043451Z"/>
<path transform="matrix(.00007874014,0,0,-.00007874014,124.375,407)" stroke-width="12700" stroke-linecap="butt" stroke-linejoin="round" fill="none" stroke="#000000" d="M.0335999 .009765625 5092700 .9786988"/>
<path transform="matrix(-.00007874014,-0,0,-.00007874014,125.125,407)" stroke-width="12700" stroke-linecap="butt" stroke-linejoin="round" fill="none" stroke="#000000" d="M-.03506474 .009765625 .9338685 4830762"/>
<use data-text="H" xlink:href="#font_2_10" transform="matrix(16,0,0,-16,141.7,426.15)"/>
<use data-text="1" xlink:href="#font_2_6" transform="matrix(10.66666,0,0,-10.66666,153.25469,430.15)"/>
<use data-text="&#xfffd;" xlink:href="#font_3_1" transform="matrix(16,0,0,-16,159.18697,426.15)"/>
<use data-text="P" xlink:href="#font_2_13" transform="matrix(16,0,0,-16,187.825,426.15)"/>
<use data-text="(" xlink:href="#font_2_2" transform="matrix(16,0,0,-16,198.497,426.15)"/>
<use data-text="s" xlink:href="#font_2_30" transform="matrix(16,0,0,-16,203.825,426.15)"/>
<use data-text=")" xlink:href="#font_2_3" transform="matrix(16,0,0,-16,211.825,426.15)"/>
<use data-text="&#xfffd;" xlink:href="#font_3_1" transform="matrix(16,0,0,-16,217.153,426.15)"/>
<use data-text="V" xlink:href="#font_2_17" transform="matrix(16,0,0,-16,401.95,426.15)"/>
<use data-text="(" xlink:href="#font_2_2" transform="matrix(16,0,0,-16,412.622,426.15)"/>
<use data-text="s" xlink:href="#font_2_30" transform="matrix(16,0,0,-16,417.95,426.15)"/>
<use data-text=")" xlink:href="#font_2_3" transform="matrix(16,0,0,-16,425.95,426.15)"/>
<use data-text="&#xfffd;" xlink:href="#font_3_1" transform="matrix(16,0,0,-16,431.278,426.15)"/>
<use data-text="T" xlink:href="#font_2_15" transform="matrix(16,0,0,-16,460.325,426.15)"/>
<use data-text="1" xlink:href="#font_2_6" transform="matrix(10.66666,0,0,-10.66666,470.09846,430.15)"/>
<use data-text="&#xfffd;" xlink:href="#font_3_1" transform="matrix(16,0,0,-16,476.03074,426.15)"/>
<use data-text="T" xlink:href="#font_2_15" transform="matrix(16,0,0,-16,540.7,412.65)"/>
<use data-text="h" xlink:href="#font_2_24" transform="matrix(16,0,0,-16,550.47286,412.65)"/>
<use data-text="r" xlink:href="#font_2_29" transform="matrix(16,0,0,-16,559.372,412.65)"/>
<use data-text="e" xlink:href="#font_2_21" transform="matrix(16,0,0,-16,564.7,412.65)"/>
<use data-text="a" xlink:href="#font_2_18" transform="matrix(16,0,0,-16,573.59927,412.65)"/>
<use data-text="d" xlink:href="#font_2_20" transform="matrix(16,0,0,-16,582.4984,412.65)"/>
<use data-text=" " xlink:href="#font_2_1" transform="matrix(16,0,0,-16,591.3976,412.65)"/>
<use data-text="1" xlink:href="#font_2_6" transform="matrix(16,0,0,-16,595.8424,412.65)"/>
<use data-text="&#xfffd;" xlink:href="#font_3_1" transform="matrix(16,0,0,-16,604.74166,412.65)"/>
<use data-text="T" xlink:href="#font_2_15" transform="matrix(16,0,0,-16,94.44999,19.650086)"/>
<use data-text="h" xlink:href="#font_2_24" transform="matrix(16,0,0,-16,104.22279,19.650086)"/>
<use data-text="r" xlink:href="#font_2_29" transform="matrix(16,0,0,-16,113.121997,19.650086)"/>
<use data-text="e" xlink:href="#font_2_21" transform="matrix(16,0,0,-16,118.44999,19.650086)"/>
<use data-text="a" xlink:href="#font_2_18" transform="matrix(16,0,0,-16,127.34919,19.650086)"/>
<use data-text="d" xlink:href="#font_2_20" transform="matrix(16,0,0,-16,136.24839,19.650086)"/>
<use data-text=" " xlink:href="#font_2_1" transform="matrix(16,0,0,-16,145.14759,19.650086)"/>
<use data-text="2" xlink:href="#font_2_7" transform="matrix(16,0,0,-16,149.59239,19.650086)"/>
<use data-text="&#xfffd;" xlink:href="#font_3_1" transform="matrix(16,0,0,-16,158.4916,19.650086)"/>
<path transform="matrix(1,0,0,-1,0,540)" d="M177 185.1875C177 185.9814 177.6436 186.6249 178.4375 186.6249 179.2315 186.6249 179.8751 185.9814 179.8751 185.1875 179.8751 184.3936 179.2315 183.75 178.4375 183.75 177.6436 183.75 177 184.3936 177 185.1875Z" fill-rule="evenodd"/>
<path transform="matrix(.00007874014,0,0,.00007874014,177,353.37513)" stroke-width="25400" stroke-linecap="butt" stroke-linejoin="round" fill="none" stroke="#000000" d="M-.04187018 18256.22C-.04187018 8173.694 8173.879 .1606447 18256.99 .1606447 28340.09 .1606447 36514.02 8173.694 36514.02 18256.22 36514.02 28338.75 28340.09 36512.09 18256.99 36512.09 8173.879 36512.09-.04187018 28338.75-.04187018 18256.22Z"/>
<path transform="matrix(1,0,0,-1,0,540)" d="M229.75 185.1875C229.75 185.9814 230.4216 186.6249 231.25 186.6249 232.0784 186.6249 232.75 185.9814 232.75 185.1875 232.75 184.3936 232.0784 183.75 231.25 183.75 230.4216 183.75 229.75 184.3936 229.75 185.1875Z" fill-rule="evenodd"/>
<path transform="matrix(.00007874014,0,0,.00007874014,229.75,353.37513)" stroke-width="25400" stroke-linecap="butt" stroke-linejoin="round" fill="none" stroke="#000000" d="M.004943818 18256.22C.004943818 8173.694 8528.943 .1606447 19050.01 .1606447 29571.07 .1606447 38100.01 8173.694 38100.01 18256.22 38100.01 28338.75 29571.07 36512.09 19050.01 36512.09 8528.943 36512.09 .004943818 28338.75 .004943818 18256.22Z"/>
<path transform="matrix(1,0,0,-1,0,540)" d="M282.75 185.1875C282.75 185.9814 283.3936 186.6249 284.1875 186.6249 284.9815 186.6249 285.6251 185.9814 285.6251 185.1875 285.6251 184.3936 284.9815 183.75 284.1875 183.75 283.3936 183.75 282.75 184.3936 282.75 185.1875Z" fill-rule="evenodd"/>
<path transform="matrix(.00007874014,0,0,.00007874014,282.75,353.37513)" stroke-width="25400" stroke-linecap="butt" stroke-linejoin="round" fill="none" stroke="#000000" d="M-.08532721 18256.22C-.08532721 8173.694 8173.835 .1606447 18256.94 .1606447 28340.05 .1606447 36513.97 8173.694 36513.97 18256.22 36513.97 28338.75 28340.05 36512.09 18256.94 36512.09 8173.835 36512.09-.08532721 28338.75-.08532721 18256.22Z"/>
<path transform="matrix(1,0,0,-1,0,540)" d="M335.5 185.1875C335.5 185.9814 336.1436 186.6249 336.9375 186.6249 337.7315 186.6249 338.3751 185.9814 338.3751 185.1875 338.3751 184.3936 337.7315 183.75 336.9375 183.75 336.1436 183.75 335.5 184.3936 335.5 185.1875Z" fill-rule="evenodd"/>
<path transform="matrix(.00007874014,0,0,.00007874014,335.5,353.37513)" stroke-width="25400" stroke-linecap="butt" stroke-linejoin="round" fill="none" stroke="#000000" d="M-.2322999 18256.22C-.2322999 8173.694 8173.688 .1606447 18256.79 .1606447 28339.9 .1606447 36513.82 8173.694 36513.82 18256.22 36513.82 28338.75 28339.9 36512.09 18256.79 36512.09 8173.688 36512.09-.2322999 28338.75-.2322999 18256.22Z"/>
<path transform="matrix(1,0,0,-1,0,540)" d="M388.375 185.1875C388.375 185.9814 389.0186 186.6249 389.8125 186.6249 390.6064 186.6249 391.25 185.9814 391.25 185.1875 391.25 184.3936 390.6064 183.75 389.8125 183.75 389.0186 183.75 388.375 184.3936 388.375 185.1875Z" fill-rule="evenodd"/>
<path transform="matrix(.00007874014,0,0,.00007874014,388.375,353.37513)" stroke-width="25400" stroke-linecap="butt" stroke-linejoin="round" fill="none" stroke="#000000" d="M-.2414551 18256.22C-.2414551 8173.694 8173.292 .1606447 18255.62 .1606447 28338.34 .1606447 36511.88 8173.694 36511.88 18256.22 36511.88 28338.75 28338.34 36512.09 18255.62 36512.09 8173.292 36512.09-.2414551 28338.75-.2414551 18256.22Z"/>
<path transform="matrix(1,0,0,-1,0,540)" d="M124.25 185.1875C124.25 185.9814 124.8936 186.6249 125.6875 186.6249 126.4815 186.6249 127.1251 185.9814 127.1251 185.1875 127.1251 184.3936 126.4815 183.75 125.6875 183.75 124.8936 183.75 124.25 184.3936 124.25 185.1875Z" fill-rule="evenodd"/>
<path transform="matrix(.00007874014,0,0,.00007874014,124.25,353.37513)" stroke-width="25400" stroke-linecap="butt" stroke-linejoin="round" fill="none" stroke="#000000" d="M-.07611087 18256.22C-.07611087 8173.694 8173.845 .1606447 18256.95 .1606447 28339.96 .1606447 36513.88 8173.694 36513.88 18256.22 36513.88 28338.75 28339.96 36512.09 18256.95 36512.09 8173.845 36512.09-.07611087 28338.75-.07611087 18256.22Z"/>
<path transform="matrix(1,0,0,-1,0,540)" d="M441.125 185.1875C441.125 185.9814 441.7686 186.6249 442.5625 186.6249 443.3564 186.6249 444 185.9814 444 185.1875 444 184.3936 443.3564 183.75 442.5625 183.75 441.7686 183.75 441.125 184.3936 441.125 185.1875Z" fill-rule="evenodd"/>
<path transform="matrix(.00007874014,0,0,.00007874014,441.125,353.37513)" stroke-width="25400" stroke-linecap="butt" stroke-linejoin="round" fill="none" stroke="#000000" d="M-.1384277 18256.22C-.1384277 8173.694 8173.395 .1606447 18255.73 .1606447 28338.45 .1606447 36511.98 8173.694 36511.98 18256.22 36511.98 28338.75 28338.45 36512.09 18255.73 36512.09 8173.395 36512.09-.1384277 28338.75-.1384277 18256.22Z"/>
<path transform="matrix(1,0,0,-1,0,540)" d="M493.9999 185.1875C493.9999 185.9814 494.6436 186.6249 495.4375 186.6249 496.2314 186.6249 496.8751 185.9814 496.8751 185.1875 496.8751 184.3936 496.2314 183.75 495.4375 183.75 494.6436 183.75 493.9999 184.3936 493.9999 185.1875Z" fill-rule="evenodd"/>
<path transform="matrix(.00007874014,0,0,.00007874014,493.9999,353.37513)" stroke-width="25400" stroke-linecap="butt" stroke-linejoin="round" fill="none" stroke="#000000" d="M-.3103029 18256.22C-.3103029 8173.694 8173.611 .1606447 18256.72 .1606447 28339.82 .1606447 36513.75 8173.694 36513.75 18256.22 36513.75 28338.75 28339.82 36512.09 18256.72 36512.09 8173.611 36512.09-.3103029 28338.75-.3103029 18256.22Z"/>
<path transform="matrix(1,0,0,-1,0,540)" d="M177 236.6875C177 237.4814 177.6436 238.1249 178.4375 238.1249 179.2315 238.1249 179.8751 237.4814 179.8751 236.6875 179.8751 235.8936 179.2315 235.25 178.4375 235.25 177.6436 235.25 177 235.8936 177 236.6875Z" fill-rule="evenodd"/>
<path transform="matrix(.00007874014,0,0,.00007874014,177,301.87513)" stroke-width="25400" stroke-linecap="butt" stroke-linejoin="round" fill="none" stroke="#000000" d="M-.04187018 18256.12C-.04187018 8173.593 8173.879 .06005871 18256.99 .06005871 28340.09 .06005871 36514.02 8173.593 36514.02 18256.12 36514.02 28338.64 28340.09 36511.98 18256.99 36511.98 8173.879 36511.98-.04187018 28338.64-.04187018 18256.12Z"/>
<path transform="matrix(1,0,0,-1,0,540)" d="M229.75 236.6875C229.75 237.4814 230.4216 238.1249 231.25 238.1249 232.0784 238.1249 232.75 237.4814 232.75 236.6875 232.75 235.8936 232.0784 235.25 231.25 235.25 230.4216 235.25 229.75 235.8936 229.75 236.6875Z" fill-rule="evenodd"/>
<path transform="matrix(.00007874014,0,0,.00007874014,229.75,301.87513)" stroke-width="25400" stroke-linecap="butt" stroke-linejoin="round" fill="none" stroke="#000000" d="M.004943818 18256.12C.004943818 8173.593 8528.943 .06005871 19050.01 .06005871 29571.07 .06005871 38100.01 8173.593 38100.01 18256.12 38100.01 28338.64 29571.07 36511.98 19050.01 36511.98 8528.943 36511.98 .004943818 28338.64 .004943818 18256.12Z"/>
<path transform="matrix(1,0,0,-1,0,540)" d="M282.75 236.6875C282.75 237.4814 283.3936 238.1249 284.1875 238.1249 284.9815 238.1249 285.6251 237.4814 285.6251 236.6875 285.6251 235.8936 284.9815 235.25 284.1875 235.25 283.3936 235.25 282.75 235.8936 282.75 236.6875Z" fill-rule="evenodd"/>
<path transform="matrix(.00007874014,0,0,.00007874014,282.75,301.87513)" stroke-width="25400" stroke-linecap="butt" stroke-linejoin="round" fill="none" stroke="#000000" d="M-.08532721 18256.12C-.08532721 8173.593 8173.835 .06005871 18256.94 .06005871 28340.05 .06005871 36513.97 8173.593 36513.97 18256.12 36513.97 28338.64 28340.05 36511.98 18256.94 36511.98 8173.835 36511.98-.08532721 28338.64-.08532721 18256.12Z"/>
<path transform="matrix(1,0,0,-1,0,540)" d="M335.5 236.6875C335.5 237.4814 336.1436 238.1249 336.9375 238.1249 337.7315 238.1249 338.3751 237.4814 338.3751 236.6875 338.3751 235.8936 337.7315 235.25 336.9375 235.25 336.1436 235.25 335.5 235.8936 335.5 236.6875Z" fill-rule="evenodd"/>
<path transform="matrix(.00007874014,0,0,.00007874014,335.5,301.87513)" stroke-width="25400" stroke-linecap="butt" stroke-linejoin="round" fill="none" stroke="#000000" d="M-.2322999 18256.12C-.2322999 8173.593 8173.688 .06005871 18256.79 .06005871 28339.9 .06005871 36513.82 8173.593 36513.82 18256.12 36513.82 28338.64 28339.9 36511.98 18256.79 36511.98 8173.688 36511.98-.2322999 28338.64-.2322999 18256.12Z"/>
<path transform="matrix(1,0,0,-1,0,540)" d="M388.375 236.6875C388.375 237.4814 389.0186 238.1249 389.8125 238.1249 390.6064 238.1249 391.25 237.4814 391.25 236.6875 391.25 235.8936 390.6064 235.25 389.8125 235.25 389.0186 235.25 388.375 235.8936 388.375 236.6875Z" fill-rule="evenodd"/>
<path transform="matrix(.00007874014,0,0,.00007874014,388.375,301.87513)" stroke-width="25400" stroke-linecap="butt" stroke-linejoin="round" fill="none" stroke="#000000" d="M-.2414551 18256.12C-.2414551 8173.593 8173.292 .06005871 18255.62 .06005871 28338.34 .06005871 36511.88 8173.593 36511.88 18256.12 36511.88 28338.64 28338.34 36511.98 18255.62 36511.98 8173.292 36511.98-.2414551 28338.64-.2414551 18256.12Z"/>
<path transform="matrix(1,0,0,-1,0,540)" d="M124.25 236.6875C124.25 237.4814 124.8936 238.1249 125.6875 238.1249 126.4815 238.1249 127.1251 237.4814 127.1251 236.6875 127.1251 235.8936 126.4815 235.25 125.6875 235.25 124.8936 235.25 124.25 235.8936 124.25 236.6875Z" fill-rule="evenodd"/>
<path transform="matrix(.00007874014,0,0,.00007874014,124.25,301.87513)" stroke-width="25400" stroke-linecap="butt" stroke-linejoin="round" fill="none" stroke="#000000" d="M-.07611087 18256.12C-.07611087 8173.593 8173.845 .06005871 18256.95 .06005871 28339.96 .06005871 36513.88 8173.593 36513.88 18256.12 36513.88 28338.64 28339.96 36511.98 18256.95 36511.98 8173.845 36511.98-.07611087 28338.64-.07611087 18256.12Z"/>
<path transform="matrix(1,0,0,-1,0,540)" d="M441.125 236.6875C441.125 237.4814 441.7686 238.1249 442.5625 238.1249 443.3564 238.1249 444 237.4814 444 236.6875 444 235.8936 443.3564 235.25 442.5625 235.25 441.7686 235.25 441.125 235.8936 441.125 236.6875Z" fill-rule="evenodd"/>
<path transform="matrix(.00007874014,0,0,.00007874014,441.125,301.87513)" stroke-width="25400" stroke-linecap="butt" stroke-linejoin="round" fill="none" stroke="#000000" d="M-.1384277 18256.12C-.1384277 8173.593 8173.395 .06005871 18255.73 .06005871 28338.45 .06005871 36511.98 8173.593 36511.98 18256.12 36511.98 28338.64 28338.45 36511.98 18255.73 36511.98 8173.395 36511.98-.1384277 28338.64-.1384277 18256.12Z"/>
<path transform="matrix(1,0,0,-1,0,540)" d="M493.9999 236.6875C493.9999 237.4814 494.6436 238.1249 495.4375 238.1249 496.2314 238.1249 496.8751 237.4814 496.8751 236.6875 496.8751 235.8936 496.2314 235.25 495.4375 235.25 494.6436 235.25 493.9999 235.8936 493.9999 236.6875Z" fill-rule="evenodd"/>
<path transform="matrix(.00007874014,0,0,.00007874014,493.9999,301.87513)" stroke-width="25400" stroke-linecap="butt" stroke-linejoin="round" fill="none" stroke="#000000" d="M-.3103029 18256.12C-.3103029 8173.593 8173.611 .06005871 18256.72 .06005871 28339.82 .06005871 36513.75 8173.593 36513.75 18256.12 36513.75 28338.64 28339.82 36511.98 18256.72 36511.98 8173.611 36511.98-.3103029 28338.64-.3103029 18256.12Z"/>
<path transform="matrix(1,0,0,-1,0,540)" d="M177 288.1875C177 288.9814 177.6436 289.6249 178.4375 289.6249 179.2315 289.6249 179.8751 288.9814 179.8751 288.1875 179.8751 287.3936 179.2315 286.75 178.4375 286.75 177.6436 286.75 177 287.3936 177 288.1875Z" fill-rule="evenodd"/>
<path transform="matrix(.00007874014,0,0,.00007874014,177,250.37509)" stroke-width="25400" stroke-linecap="butt" stroke-linejoin="round" fill="none" stroke="#000000" d="M-.04187018 18255.82C-.04187018 8173.493 8173.879-.04052722 18256.99-.04052722 28340.09-.04052722 36514.02 8173.493 36514.02 18255.82 36514.02 28338.54 28340.09 36512.08 18256.99 36512.08 8173.879 36512.08-.04187018 28338.54-.04187018 18255.82Z"/>
<path transform="matrix(1,0,0,-1,0,540)" d="M229.75 288.1875C229.75 288.9814 230.4216 289.6249 231.25 289.6249 232.0784 289.6249 232.75 288.9814 232.75 288.1875 232.75 287.3936 232.0784 286.75 231.25 286.75 230.4216 286.75 229.75 287.3936 229.75 288.1875Z" fill-rule="evenodd"/>
<path transform="matrix(.00007874014,0,0,.00007874014,229.75,250.37509)" stroke-width="25400" stroke-linecap="butt" stroke-linejoin="round" fill="none" stroke="#000000" d="M.004943818 18255.82C.004943818 8173.493 8528.943-.04052722 19050.01-.04052722 29571.07-.04052722 38100.01 8173.493 38100.01 18255.82 38100.01 28338.54 29571.07 36512.08 19050.01 36512.08 8528.943 36512.08 .004943818 28338.54 .004943818 18255.82Z"/>
<path transform="matrix(1,0,0,-1,0,540)" d="M282.75 288.1875C282.75 288.9814 283.3936 289.6249 284.1875 289.6249 284.9815 289.6249 285.6251 288.9814 285.6251 288.1875 285.6251 287.3936 284.9815 286.75 284.1875 286.75 283.3936 286.75 282.75 287.3936 282.75 288.1875Z" fill-rule="evenodd"/>
<path transform="matrix(.00007874014,0,0,.00007874014,282.75,250.37509)" stroke-width="25400" stroke-linecap="butt" stroke-linejoin="round" fill="none" stroke="#000000" d="M-.08532721 18255.82C-.08532721 8173.493 8173.835-.04052722 18256.94-.04052722 28340.05-.04052722 36513.97 8173.493 36513.97 18255.82 36513.97 28338.54 28340.05 36512.08 18256.94 36512.08 8173.835 36512.08-.08532721 28338.54-.08532721 18255.82Z"/>
<path transform="matrix(1,0,0,-1,0,540)" d="M335.5 288.1875C335.5 288.9814 336.1436 289.6249 336.9375 289.6249 337.7315 289.6249 338.3751 288.9814 338.3751 288.1875 338.3751 287.3936 337.7315 286.75 336.9375 286.75 336.1436 286.75 335.5 287.3936 335.5 288.1875Z" fill-rule="evenodd"/>
<path transform="matrix(.00007874014,0,0,.00007874014,335.5,250.37509)" stroke-width="25400" stroke-linecap="butt" stroke-linejoin="round" fill="none" stroke="#000000" d="M-.2322999 18255.82C-.2322999 8173.493 8173.688-.04052722 18256.79-.04052722 28339.9-.04052722 36513.82 8173.493 36513.82 18255.82 36513.82 28338.54 28339.9 36512.08 18256.79 36512.08 8173.688 36512.08-.2322999 28338.54-.2322999 18255.82Z"/>
<path transform="matrix(1,0,0,-1,0,540)" d="M388.375 288.1875C388.375 288.9814 389.0186 289.6249 389.8125 289.6249 390.6064 289.6249 391.25 288.9814 391.25 288.1875 391.25 287.3936 390.6064 286.75 389.8125 286.75 389.0186 286.75 388.375 287.3936 388.375 288.1875Z" fill-rule="evenodd"/>
<path transform="matrix(.00007874014,0,0,.00007874014,388.375,250.37509)" stroke-width="25400" stroke-linecap="butt" stroke-linejoin="round" fill="none" stroke="#000000" d="M-.2414551 18255.82C-.2414551 8173.493 8173.292-.04052722 18255.62-.04052722 28338.34-.04052722 36511.88 8173.493 36511.88 18255.82 36511.88 28338.54 28338.34 36512.08 18255.62 36512.08 8173.292 36512.08-.2414551 28338.54-.2414551 18255.82Z"/>
<path transform="matrix(1,0,0,-1,0,540)" d="M124.25 288.1875C124.25 288.9814 124.8936 289.6249 125.6875 289.6249 126.4815 289.6249 127.1251 288.9814 127.1251 288.1875 127.1251 287.3936 126.4815 286.75 125.6875 286.75 124.8936 286.75 124.25 287.3936 124.25 288.1875Z" fill-rule="evenodd"/>
<path transform="matrix(.00007874014,0,0,.00007874014,124.25,250.37509)" stroke-width="25400" stroke-linecap="butt" stroke-linejoin="round" fill="none" stroke="#000000" d="M-.07611087 18255.82C-.07611087 8173.493 8173.845-.04052722 18256.95-.04052722 28339.96-.04052722 36513.88 8173.493 36513.88 18255.82 36513.88 28338.54 28339.96 36512.08 18256.95 36512.08 8173.845 36512.08-.07611087 28338.54-.07611087 18255.82Z"/>
<path transform="matrix(1,0,0,-1,0,540)" d="M441.125 288.1875C441.125 288.9814 441.7686 289.6249 442.5625 289.6249 443.3564 289.6249 444 288.9814 444 288.1875 444 287.3936 443.3564 286.75 442.5625 286.75 441.7686 286.75 441.125 287.3936 441.125 288.1875Z" fill-rule="evenodd"/>
<path transform="matrix(.00007874014,0,0,.00007874014,441.125,250.37509)" stroke-width="25400" stroke-linecap="butt" stroke-linejoin="round" fill="none" stroke="#000000" d="M-.1384277 18255.82C-.1384277 8173.493 8173.395-.04052722 18255.73-.04052722 28338.45-.04052722 36511.98 8173.493 36511.98 18255.82 36511.98 28338.54 28338.45 36512.08 18255.73 36512.08 8173.395 36512.08-.1384277 28338.54-.1384277 18255.82Z"/>
<path transform="matrix(1,0,0,-1,0,540)" d="M493.9999 288.1875C493.9999 288.9814 494.6436 289.6249 495.4375 289.6249 496.2314 289.6249 496.8751 288.9814 496.8751 288.1875 496.8751 287.3936 496.2314 286.75 495.4375 286.75 494.6436 286.75 493.9999 287.3936 493.9999 288.1875Z" fill-rule="evenodd"/>
<path transform="matrix(.00007874014,0,0,.00007874014,493.9999,250.37509)" stroke-width="25400" stroke-linecap="butt" stroke-linejoin="round" fill="none" stroke="#000000" d="M-.3103029 18255.82C-.3103029 8173.493 8173.611-.04052722 18256.72-.04052722 28339.82-.04052722 36513.75 8173.493 36513.75 18255.82 36513.75 28338.54 28339.82 36512.08 18256.72 36512.08 8173.611 36512.08-.3103029 28338.54-.3103029 18255.82Z"/>
<path transform="matrix(1,0,0,-1,0,540)" d="M177 339.6875C177 340.4814 177.6436 341.1249 178.4375 341.1249 179.2315 341.1249 179.8751 340.4814 179.8751 339.6875 179.8751 338.8936 179.2315 338.25 178.4375 338.25 177.6436 338.25 177 338.8936 177 339.6875Z" fill-rule="evenodd"/>
<path transform="matrix(.00007874014,0,0,.00007874014,177,198.87509)" stroke-width="25400" stroke-linecap="butt" stroke-linejoin="round" fill="none" stroke="#000000" d="M-.04187018 18255.97C-.04187018 8173.642 8173.879 .1088868 18256.99 .1088868 28340.09 .1088868 36514.02 8173.642 36514.02 18255.97 36514.02 28338.69 28340.09 36512.23 18256.99 36512.23 8173.879 36512.23-.04187018 28338.69-.04187018 18255.97Z"/>
<path transform="matrix(1,0,0,-1,0,540)" d="M229.75 339.6875C229.75 340.4814 230.4216 341.1249 231.25 341.1249 232.0784 341.1249 232.75 340.4814 232.75 339.6875 232.75 338.8936 232.0784 338.25 231.25 338.25 230.4216 338.25 229.75 338.8936 229.75 339.6875Z" fill-rule="evenodd"/>
<path transform="matrix(.00007874014,0,0,.00007874014,229.75,198.87509)" stroke-width="25400" stroke-linecap="butt" stroke-linejoin="round" fill="none" stroke="#000000" d="M.004943818 18255.97C.004943818 8173.642 8528.943 .1088868 19050.01 .1088868 29571.07 .1088868 38100.01 8173.642 38100.01 18255.97 38100.01 28338.69 29571.07 36512.23 19050.01 36512.23 8528.943 36512.23 .004943818 28338.69 .004943818 18255.97Z"/>
<path transform="matrix(1,0,0,-1,0,540)" d="M282.75 339.6875C282.75 340.4814 283.3936 341.1249 284.1875 341.1249 284.9815 341.1249 285.6251 340.4814 285.6251 339.6875 285.6251 338.8936 284.9815 338.25 284.1875 338.25 283.3936 338.25 282.75 338.8936 282.75 339.6875Z" fill-rule="evenodd"/>
<path transform="matrix(.00007874014,0,0,.00007874014,282.75,198.87509)" stroke-width="25400" stroke-linecap="butt" stroke-linejoin="round" fill="none" stroke="#000000" d="M-.08532721 18255.97C-.08532721 8173.642 8173.835 .1088868 18256.94 .1088868 28340.05 .1088868 36513.97 8173.642 36513.97 18255.97 36513.97 28338.69 28340.05 36512.23 18256.94 36512.23 8173.835 36512.23-.08532721 28338.69-.08532721 18255.97Z"/>
<path transform="matrix(1,0,0,-1,0,540)" d="M335.5 339.6875C335.5 340.4814 336.1436 341.1249 336.9375 341.1249 337.7315 341.1249 338.3751 340.4814 338.3751 339.6875 338.3751 338.8936 337.7315 338.25 336.9375 338.25 336.1436 338.25 335.5 338.8936 335.5 339.6875Z" fill-rule="evenodd"/>
<path transform="matrix(.00007874014,0,0,.00007874014,335.5,198.87509)" stroke-width="25400" stroke-linecap="butt" stroke-linejoin="round" fill="none" stroke="#000000" d="M-.2322999 18255.97C-.2322999 8173.642 8173.688 .1088868 18256.79 .1088868 28339.9 .1088868 36513.82 8173.642 36513.82 18255.97 36513.82 28338.69 28339.9 36512.23 18256.79 36512.23 8173.688 36512.23-.2322999 28338.69-.2322999 18255.97Z"/>
<path transform="matrix(1,0,0,-1,0,540)" d="M388.375 339.6875C388.375 340.4814 389.0186 341.1249 389.8125 341.1249 390.6064 341.1249 391.25 340.4814 391.25 339.6875 391.25 338.8936 390.6064 338.25 389.8125 338.25 389.0186 338.25 388.375 338.8936 388.375 339.6875Z" fill-rule="evenodd"/>
<path transform="matrix(.00007874014,0,0,.00007874014,388.375,198.87509)" stroke-width="25400" stroke-linecap="butt" stroke-linejoin="round" fill="none" stroke="#000000" d="M-.2414551 18255.97C-.2414551 8173.642 8173.292 .1088868 18255.62 .1088868 28338.34 .1088868 36511.88 8173.642 36511.88 18255.97 36511.88 28338.69 28338.34 36512.23 18255.62 36512.23 8173.292 36512.23-.2414551 28338.69-.2414551 18255.97Z"/>
<path transform="matrix(1,0,0,-1,0,540)" d="M124.25 339.6875C124.25 340.4814 124.8936 341.1249 125.6875 341.1249 126.4815 341.1249 127.1251 340.4814 127.1251 339.6875 127.1251 338.8936 126.4815 338.25 125.6875 338.25 124.8936 338.25 124.25 338.8936 124.25 339.6875Z" fill-rule="evenodd"/>
<path transform="matrix(.00007874014,0,0,.00007874014,124.25,198.87509)" stroke-width="25400" stroke-linecap="butt" stroke-linejoin="round" fill="none" stroke="#000000" d="M-.07611087 18255.97C-.07611087 8173.642 8173.845 .1088868 18256.95 .1088868 28339.96 .1088868 36513.88 8173.642 36513.88 18255.97 36513.88 28338.69 28339.96 36512.23 18256.95 36512.23 8173.845 36512.23-.07611087 28338.69-.07611087 18255.97Z"/>
<path transform="matrix(1,0,0,-1,0,540)" d="M441.125 339.6875C441.125 340.4814 441.7686 341.1249 442.5625 341.1249 443.3564 341.1249 444 340.4814 444 339.6875 444 338.8936 443.3564 338.25 442.5625 338.25 441.7686 338.25 441.125 338.8936 441.125 339.6875Z" fill-rule="evenodd"/>
<path transform="matrix(.00007874014,0,0,.00007874014,441.125,198.87509)" stroke-width="25400" stroke-linecap="butt" stroke-linejoin="round" fill="none" stroke="#000000" d="M-.1384277 18255.97C-.1384277 8173.642 8173.395 .1088868 18255.73 .1088868 28338.45 .1088868 36511.98 8173.642 36511.98 18255.97 36511.98 28338.69 28338.45 36512.23 18255.73 36512.23 8173.395 36512.23-.1384277 28338.69-.1384277 18255.97Z"/>
<path transform="matrix(1,0,0,-1,0,540)" d="M493.9999 339.6875C493.9999 340.4814 494.6436 341.1249 495.4375 341.1249 496.2314 341.1249 496.8751 340.4814 496.8751 339.6875 496.8751 338.8936 496.2314 338.25 495.4375 338.25 494.6436 338.25 493.9999 338.8936 493.9999 339.6875Z" fill-rule="evenodd"/>
<path transform="matrix(.00007874014,0,0,.00007874014,493.9999,198.87509)" stroke-width="25400" stroke-linecap="butt" stroke-linejoin="round" fill="none" stroke="#000000" d="M-.3103029 18255.97C-.3103029 8173.642 8173.611 .1088868 18256.72 .1088868 28339.82 .1088868 36513.75 8173.642 36513.75 18255.97 36513.75 28338.69 28339.82 36512.23 18256.72 36512.23 8173.611 36512.23-.3103029 28338.69-.3103029 18255.97Z"/>
<path transform="matrix(1,0,0,-1,0,540)" d="M177 391.1874C177 391.9813 177.6436 392.6249 178.4375 392.6249 179.2315 392.6249 179.8751 391.9813 179.8751 391.1874 179.8751 390.3935 179.2315 389.7499 178.4375 389.7499 177.6436 389.7499 177 390.3935 177 391.1874Z" fill-rule="evenodd"/>
<path transform="matrix(.00007874014,0,0,.00007874014,177,147.37509)" stroke-width="25400" stroke-linecap="butt" stroke-linejoin="round" fill="none" stroke="#000000" d="M-.04187018 18255.76C-.04187018 8173.429 8173.879-.1041258 18256.99-.1041258 28340.09-.1041258 36514.02 8173.429 36514.02 18255.76 36514.02 28338.48 28340.09 36512.02 18256.99 36512.02 8173.879 36512.02-.04187018 28338.48-.04187018 18255.76Z"/>
<path transform="matrix(1,0,0,-1,0,540)" d="M229.75 391.1874C229.75 391.9813 230.4216 392.6249 231.25 392.6249 232.0784 392.6249 232.75 391.9813 232.75 391.1874 232.75 390.3935 232.0784 389.7499 231.25 389.7499 230.4216 389.7499 229.75 390.3935 229.75 391.1874Z" fill-rule="evenodd"/>
<path transform="matrix(.00007874014,0,0,.00007874014,229.75,147.37509)" stroke-width="25400" stroke-linecap="butt" stroke-linejoin="round" fill="none" stroke="#000000" d="M.004943818 18255.76C.004943818 8173.429 8528.943-.1041258 19050.01-.1041258 29571.07-.1041258 38100.01 8173.429 38100.01 18255.76 38100.01 28338.48 29571.07 36512.02 19050.01 36512.02 8528.943 36512.02 .004943818 28338.48 .004943818 18255.76Z"/>
<path transform="matrix(1,0,0,-1,0,540)" d="M282.75 391.1874C282.75 391.9813 283.3936 392.6249 284.1875 392.6249 284.9815 392.6249 285.6251 391.9813 285.6251 391.1874 285.6251 390.3935 284.9815 389.7499 284.1875 389.7499 283.3936 389.7499 282.75 390.3935 282.75 391.1874Z" fill-rule="evenodd"/>
<path transform="matrix(.00007874014,0,0,.00007874014,282.75,147.37509)" stroke-width="25400" stroke-linecap="butt" stroke-linejoin="round" fill="none" stroke="#000000" d="M-.08532721 18255.76C-.08532721 8173.429 8173.835-.1041258 18256.94-.1041258 28340.05-.1041258 36513.97 8173.429 36513.97 18255.76 36513.97 28338.48 28340.05 36512.02 18256.94 36512.02 8173.835 36512.02-.08532721 28338.48-.08532721 18255.76Z"/>
<path transform="matrix(1,0,0,-1,0,540)" d="M335.5 391.1874C335.5 391.9813 336.1436 392.6249 336.9375 392.6249 337.7315 392.6249 338.3751 391.9813 338.3751 391.1874 338.3751 390.3935 337.7315 389.7499 336.9375 389.7499 336.1436 389.7499 335.5 390.3935 335.5 391.1874Z" fill-rule="evenodd"/>
<path transform="matrix(.00007874014,0,0,.00007874014,335.5,147.37509)" stroke-width="25400" stroke-linecap="butt" stroke-linejoin="round" fill="none" stroke="#000000" d="M-.2322999 18255.76C-.2322999 8173.429 8173.688-.1041258 18256.79-.1041258 28339.9-.1041258 36513.82 8173.429 36513.82 18255.76 36513.82 28338.48 28339.9 36512.02 18256.79 36512.02 8173.688 36512.02-.2322999 28338.48-.2322999 18255.76Z"/>
<path transform="matrix(1,0,0,-1,0,540)" d="M388.375 391.1874C388.375 391.9813 389.0186 392.6249 389.8125 392.6249 390.6064 392.6249 391.25 391.9813 391.25 391.1874 391.25 390.3935 390.6064 389.7499 389.8125 389.7499 389.0186 389.7499 388.375 390.3935 388.375 391.1874Z" fill-rule="evenodd"/>
<path transform="matrix(.00007874014,0,0,.00007874014,388.375,147.37509)" stroke-width="25400" stroke-linecap="butt" stroke-linejoin="round" fill="none" stroke="#000000" d="M-.2414551 18255.76C-.2414551 8173.429 8173.292-.1041258 18255.62-.1041258 28338.34-.1041258 36511.88 8173.429 36511.88 18255.76 36511.88 28338.48 28338.34 36512.02 18255.62 36512.02 8173.292 36512.02-.2414551 28338.48-.2414551 18255.76Z"/>
<path transform="matrix(1,0,0,-1,0,540)" d="M124.25 391.1874C124.25 391.9813 124.8936 392.6249 125.6875 392.6249 126.4815 392.6249 127.1251 391.9813 127.1251 391.1874 127.1251 390.3935 126.4815 389.7499 125.6875 389.7499 124.8936 389.7499 124.25 390.3935 124.25 391.1874Z" fill-rule="evenodd"/>
<path transform="matrix(.00007874014,0,0,.00007874014,124.25,147.37509)" stroke-width="25400" stroke-linecap="butt" stroke-linejoin="round" fill="none" stroke="#000000" d="M-.07611087 18255.76C-.07611087 8173.429 8173.845-.1041258 18256.95-.1041258 28339.96-.1041258 36513.88 8173.429 36513.88 18255.76 36513.88 28338.48 28339.96 36512.02 18256.95 36512.02 8173.845 36512.02-.07611087 28338.48-.07611087 18255.76Z"/>
<path transform="matrix(1,0,0,-1,0,540)" d="M441.125 391.1874C441.125 391.9813 441.7686 392.6249 442.5625 392.6249 443.3564 392.6249 444 391.9813 444 391.1874 444 390.3935 443.3564 389.7499 442.5625 389.7499 441.7686 389.7499 441.125 390.3935 441.125 391.1874Z" fill-rule="evenodd"/>
<path transform="matrix(.00007874014,0,0,.00007874014,441.125,147.37509)" stroke-width="25400" stroke-linecap="butt" stroke-linejoin="round" fill="none" stroke="#000000" d="M-.1384277 18255.76C-.1384277 8173.429 8173.395-.1041258 18255.73-.1041258 28338.45-.1041258 36511.98 8173.429 36511.98 18255.76 36511.98 28338.48 28338.45 36512.02 18255.73 36512.02 8173.395 36512.02-.1384277 28338.48-.1384277 18255.76Z"/>
<path transform="matrix(1,0,0,-1,0,540)" d="M493.9999 391.1874C493.9999 391.9813 494.6436 392.6249 495.4375 392.6249 496.2314 392.6249 496.8751 391.9813 496.8751 391.1874 496.8751 390.3935 496.2314 389.7499 495.4375 389.7499 494.6436 389.7499 493.9999 390.3935 493.9999 391.1874Z" fill-rule="evenodd"/>
<path transform="matrix(.00007874014,0,0,.00007874014,493.9999,147.37509)" stroke-width="25400" stroke-linecap="butt" stroke-linejoin="round" fill="none" stroke="#000000" d="M-.3103029 18255.76C-.3103029 8173.429 8173.611-.1041258 18256.72-.1041258 28339.82-.1041258 36513.75 8173.429 36513.75 18255.76 36513.75 28338.48 28339.82 36512.02 18256.72 36512.02 8173.611 36512.02-.3103029 28338.48-.3103029 18255.76Z"/>
<path transform="matrix(1,0,0,-1,0,540)" d="M177 133.4375C177 134.2314 177.6436 134.875 178.4375 134.875 179.2315 134.875 179.8751 134.2314 179.8751 133.4375 179.8751 132.6436 179.2315 132 178.4375 132 177.6436 132 177 132.6436 177 133.4375Z" fill-rule="evenodd"/>
<path transform="matrix(.00007874014,0,0,.00007874014,177,405.125)" stroke-width="25400" stroke-linecap="butt" stroke-linejoin="round" fill="none" stroke="#000000" d="M-.04187018 18256.13C-.04187018 8173.601 8173.879 .06793222 18256.99 .06793222 28340.09 .06793222 36514.02 8173.601 36514.02 18256.13 36514.02 28338.65 28340.09 36511.99 18256.99 36511.99 8173.879 36511.99-.04187018 28338.65-.04187018 18256.13Z"/>
<path transform="matrix(1,0,0,-1,0,540)" d="M229.75 133.5C229.75 134.3284 230.4216 135 231.25 135 232.0784 135 232.75 134.3284 232.75 133.5 232.75 132.6716 232.0784 132 231.25 132 230.4216 132 229.75 132.6716 229.75 133.5Z" fill-rule="evenodd"/>
<path transform="matrix(.00007874014,0,0,.00007874014,229.75,405)" stroke-width="25400" stroke-linecap="butt" stroke-linejoin="round" fill="none" stroke="#000000" d="M.004943818 19049.99C.004943818 8528.925 8528.943-.01367188 19050.01-.01367188 29571.07-.01367188 38100.01 8528.925 38100.01 19049.99 38100.01 29571.05 29571.07 38099.99 19050.01 38099.99 8528.943 38099.99 .004943818 29571.05 .004943818 19049.99Z"/>
<path transform="matrix(1,0,0,-1,0,540)" d="M282.625 133.5C282.625 134.3284 283.2686 135 284.0625 135 284.8564 135 285.5 134.3284 285.5 133.5 285.5 132.6716 284.8564 132 284.0625 132 283.2686 132 282.625 132.6716 282.625 133.5Z" fill-rule="evenodd"/>
<path transform="matrix(.00007874014,0,0,.00007874014,282.625,405)" stroke-width="25400" stroke-linecap="butt" stroke-linejoin="round" fill="none" stroke="#000000" d="M.05200195 19049.99C.05200195 8528.925 8173.585-.01367188 18255.92-.01367188 28338.64-.01367188 36512.17 8528.925 36512.17 19049.99 36512.17 29571.05 28338.64 38099.99 18255.92 38099.99 8173.585 38099.99 .05200195 29571.05 .05200195 19049.99Z"/>
<path transform="matrix(1,0,0,-1,0,540)" d="M335.375 133.5C335.375 134.3284 336.0186 135 336.8125 135 337.6064 135 338.25 134.3284 338.25 133.5 338.25 132.6716 337.6064 132 336.8125 132 336.0186 132 335.375 132.6716 335.375 133.5Z" fill-rule="evenodd"/>
<path transform="matrix(.00007874014,0,0,.00007874014,335.375,405)" stroke-width="25400" stroke-linecap="butt" stroke-linejoin="round" fill="none" stroke="#000000" d="M.1550293 19049.99C.1550293 8528.925 8173.688-.01367188 18256.02-.01367188 28338.74-.01367188 36512.27 8528.925 36512.27 19049.99 36512.27 29571.05 28338.74 38099.99 18256.02 38099.99 8173.688 38099.99 .1550293 29571.05 .1550293 19049.99Z"/>
<path transform="matrix(1,0,0,-1,0,540)" d="M388.125 133.5C388.125 134.3284 388.7966 135 389.625 135 390.4534 135 391.125 134.3284 391.125 133.5 391.125 132.6716 390.4534 132 389.625 132 388.7966 132 388.125 132.6716 388.125 133.5Z" fill-rule="evenodd"/>
<path transform="matrix(.00007874014,0,0,.00007874014,388.125,405)" stroke-width="25400" stroke-linecap="butt" stroke-linejoin="round" fill="none" stroke="#000000" d="M-.2419434 19049.99C-.2419434 8528.925 8528.696-.01367188 19049.76-.01367188 29570.83-.01367188 38099.77 8528.925 38099.77 19049.99 38099.77 29571.05 29570.83 38099.99 19049.76 38099.99 8528.696 38099.99-.2419434 29571.05-.2419434 19049.99Z"/>
<path transform="matrix(1,0,0,-1,0,540)" d="M124.25 133.5C124.25 134.3284 124.8936 135 125.6875 135 126.4815 135 127.1251 134.3284 127.1251 133.5 127.1251 132.6716 126.4815 132 125.6875 132 124.8936 132 124.25 132.6716 124.25 133.5Z" fill-rule="evenodd"/>
<path transform="matrix(.00007874014,0,0,.00007874014,124.25,405)" stroke-width="25400" stroke-linecap="butt" stroke-linejoin="round" fill="none" stroke="#000000" d="M-.07611087 19049.99C-.07611087 8528.925 8173.845-.01367188 18256.95-.01367188 28339.96-.01367188 36513.88 8528.925 36513.88 19049.99 36513.88 29571.05 28339.96 38099.99 18256.95 38099.99 8173.845 38099.99-.07611087 29571.05-.07611087 19049.99Z"/>
<path transform="matrix(1,0,0,-1,0,540)" d="M440.9999 133.5C440.9999 134.3284 441.6715 135 442.4999 135 443.3284 135 443.9999 134.3284 443.9999 133.5 443.9999 132.6716 443.3284 132 442.4999 132 441.6715 132 440.9999 132.6716 440.9999 133.5Z" fill-rule="evenodd"/>
<path transform="matrix(.00007874014,0,0,.00007874014,440.9999,405)" stroke-width="25400" stroke-linecap="butt" stroke-linejoin="round" fill="none" stroke="#000000" d="M.08618152 19049.99C.08618152 8528.925 8529.024-.01367188 19050.09-.01367188 29571.15-.01367188 38100.09 8528.925 38100.09 19049.99 38100.09 29571.05 29571.15 38099.99 19050.09 38099.99 8529.024 38099.99 .08618152 29571.05 .08618152 19049.99Z"/>
<path transform="matrix(1,0,0,-1,0,540)" d="M493.875 133.5C493.875 134.3284 494.5465 135 495.375 135 496.2034 135 496.875 134.3284 496.875 133.5 496.875 132.6716 496.2034 132 495.375 132 494.5465 132 493.875 132.6716 493.875 133.5Z" fill-rule="evenodd"/>
<path transform="matrix(.00007874014,0,0,.00007874014,493.875,405)" stroke-width="25400" stroke-linecap="butt" stroke-linejoin="round" fill="none" stroke="#000000" d="M.07702631 19049.99C.07702631 8528.925 8529.015-.01367188 19050.08-.01367188 29571.14-.01367188 38100.08 8528.925 38100.08 19049.99 38100.08 29571.05 29571.14 38099.99 19050.08 38099.99 8529.015 38099.99 .07702631 29571.05 .07702631 19049.99Z"/>
<path transform="matrix(1,0,0,-1,0,540)" d="M177 442.6874C177 443.4813 177.6436 444.1249 178.4375 444.1249 179.2315 444.1249 179.8751 443.4813 179.8751 442.6874 179.8751 441.8935 179.2315 441.2499 178.4375 441.2499 177.6436 441.2499 177 441.8935 177 442.6874Z" fill-rule="evenodd"/>
<path transform="matrix(.00007874014,0,0,.00007874014,177,95.87509)" stroke-width="25400" stroke-linecap="butt" stroke-linejoin="round" fill="none" stroke="#000000" d="M-.04187018 18256.16C-.04187018 8173.829 8173.879 .2952883 18256.99 .2952883 28340.09 .2952883 36514.02 8173.829 36514.02 18256.16 36514.02 28338.88 28340.09 36512.41 18256.99 36512.41 8173.879 36512.41-.04187018 28338.88-.04187018 18256.16Z"/>
<path transform="matrix(1,0,0,-1,0,540)" d="M229.75 442.6874C229.75 443.4813 230.4216 444.1249 231.25 444.1249 232.0784 444.1249 232.75 443.4813 232.75 442.6874 232.75 441.8935 232.0784 441.2499 231.25 441.2499 230.4216 441.2499 229.75 441.8935 229.75 442.6874Z" fill-rule="evenodd"/>
<path transform="matrix(.00007874014,0,0,.00007874014,229.75,95.87509)" stroke-width="25400" stroke-linecap="butt" stroke-linejoin="round" fill="none" stroke="#000000" d="M.004943818 18256.16C.004943818 8173.829 8528.943 .2952883 19050.01 .2952883 29571.07 .2952883 38100.01 8173.829 38100.01 18256.16 38100.01 28338.88 29571.07 36512.41 19050.01 36512.41 8528.943 36512.41 .004943818 28338.88 .004943818 18256.16Z"/>
<path transform="matrix(1,0,0,-1,0,540)" d="M282.625 442.6874C282.625 443.4813 283.2686 444.1249 284.0625 444.1249 284.8564 444.1249 285.5 443.4813 285.5 442.6874 285.5 441.8935 284.8564 441.2499 284.0625 441.2499 283.2686 441.2499 282.625 441.8935 282.625 442.6874Z" fill-rule="evenodd"/>
<path transform="matrix(.00007874014,0,0,.00007874014,282.625,95.87509)" stroke-width="25400" stroke-linecap="butt" stroke-linejoin="round" fill="none" stroke="#000000" d="M.05200195 18256.16C.05200195 8173.829 8173.585 .2952883 18255.92 .2952883 28338.64 .2952883 36512.17 8173.829 36512.17 18256.16 36512.17 28338.88 28338.64 36512.41 18255.92 36512.41 8173.585 36512.41 .05200195 28338.88 .05200195 18256.16Z"/>
<path transform="matrix(1,0,0,-1,0,540)" d="M335.5 442.6874C335.5 443.4813 336.1436 444.1249 336.9375 444.1249 337.7315 444.1249 338.3751 443.4813 338.3751 442.6874 338.3751 441.8935 337.7315 441.2499 336.9375 441.2499 336.1436 441.2499 335.5 441.8935 335.5 442.6874Z" fill-rule="evenodd"/>
<path transform="matrix(.00007874014,0,0,.00007874014,335.5,95.87509)" stroke-width="25400" stroke-linecap="butt" stroke-linejoin="round" fill="none" stroke="#000000" d="M-.2322999 18256.16C-.2322999 8173.829 8173.688 .2952883 18256.79 .2952883 28339.9 .2952883 36513.82 8173.829 36513.82 18256.16 36513.82 28338.88 28339.9 36512.41 18256.79 36512.41 8173.688 36512.41-.2322999 28338.88-.2322999 18256.16Z"/>
<path transform="matrix(1,0,0,-1,0,540)" d="M388.2499 442.6874C388.2499 443.4813 388.8936 444.1249 389.6875 444.1249 390.4814 444.1249 391.1251 443.4813 391.1251 442.6874 391.1251 441.8935 390.4814 441.2499 389.6875 441.2499 388.8936 441.2499 388.2499 441.8935 388.2499 442.6874Z" fill-rule="evenodd"/>
<path transform="matrix(.00007874014,0,0,.00007874014,388.2499,95.87509)" stroke-width="25400" stroke-linecap="butt" stroke-linejoin="round" fill="none" stroke="#000000" d="M-.01684582 18256.16C-.01684582 8173.829 8173.904 .2952883 18257.01 .2952883 28340.12 .2952883 36514.04 8173.829 36514.04 18256.16 36514.04 28338.88 28340.12 36512.41 18257.01 36512.41 8173.904 36512.41-.01684582 28338.88-.01684582 18256.16Z"/>
<path transform="matrix(1,0,0,-1,0,540)" d="M124.25 442.6874C124.25 443.4813 124.8936 444.1249 125.6875 444.1249 126.4815 444.1249 127.1251 443.4813 127.1251 442.6874 127.1251 441.8935 126.4815 441.2499 125.6875 441.2499 124.8936 441.2499 124.25 441.8935 124.25 442.6874Z" fill-rule="evenodd"/>
<path transform="matrix(.00007874014,0,0,.00007874014,124.25,95.87509)" stroke-width="25400" stroke-linecap="butt" stroke-linejoin="round" fill="none" stroke="#000000" d="M-.07611087 18256.16C-.07611087 8173.829 8173.845 .2952883 18256.95 .2952883 28339.96 .2952883 36513.88 8173.829 36513.88 18256.16 36513.88 28338.88 28339.96 36512.41 18256.95 36512.41 8173.845 36512.41-.07611087 28338.88-.07611087 18256.16Z"/>
<path transform="matrix(1,0,0,-1,0,540)" d="M440.9999 442.6874C440.9999 443.4813 441.6436 444.1249 442.4375 444.1249 443.2314 444.1249 443.8751 443.4813 443.8751 442.6874 443.8751 441.8935 443.2314 441.2499 442.4375 441.2499 441.6436 441.2499 440.9999 441.8935 440.9999 442.6874Z" fill-rule="evenodd"/>
<path transform="matrix(.00007874014,0,0,.00007874014,440.9999,95.87509)" stroke-width="25400" stroke-linecap="butt" stroke-linejoin="round" fill="none" stroke="#000000" d="M.08618152 18256.16C.08618152 8173.829 8174.007 .2952883 18257.11 .2952883 28340.22 .2952883 36514.14 8173.829 36514.14 18256.16 36514.14 28338.88 28340.22 36512.41 18257.11 36512.41 8174.007 36512.41 .08618152 28338.88 .08618152 18256.16Z"/>
<path transform="matrix(1,0,0,-1,0,540)" d="M493.875 442.6874C493.875 443.4813 494.5186 444.1249 495.3124 444.1249 496.1064 444.1249 496.7499 443.4813 496.7499 442.6874 496.7499 441.8935 496.1064 441.2499 495.3124 441.2499 494.5186 441.2499 493.875 441.8935 493.875 442.6874Z" fill-rule="evenodd"/>
<path transform="matrix(.00007874014,0,0,.00007874014,493.875,95.87509)" stroke-width="25400" stroke-linecap="butt" stroke-linejoin="round" fill="none" stroke="#000000" d="M.07702631 18256.16C.07702631 8173.829 8173.61 .2952883 18255.94 .2952883 28338.66 .2952883 36512.2 8173.829 36512.2 18256.16 36512.2 28338.88 28338.66 36512.41 18255.94 36512.41 8173.61 36512.41 .07702631 28338.88 .07702631 18256.16Z"/>
<path transform="matrix(1,0,0,-1,0,540)" d="M177 494.1874C177 494.9813 177.6436 495.6249 178.4375 495.6249 179.2315 495.6249 179.8751 494.9813 179.8751 494.1874 179.8751 493.3935 179.2315 492.7499 178.4375 492.7499 177.6436 492.7499 177 493.3935 177 494.1874Z" fill-rule="evenodd"/>
<path transform="matrix(.00007874014,0,0,.00007874014,177,44.37509)" stroke-width="25400" stroke-linecap="butt" stroke-linejoin="round" fill="none" stroke="#000000" d="M-.04187018 18256.06C-.04187018 8173.728 8173.879 .1947023 18256.99 .1947023 28340.09 .1947023 36514.02 8173.728 36514.02 18256.06 36514.02 28338.78 28340.09 36512.31 18256.99 36512.31 8173.879 36512.31-.04187018 28338.78-.04187018 18256.06Z"/>
<path transform="matrix(1,0,0,-1,0,540)" d="M229.75 494.1874C229.75 494.9813 230.4216 495.6249 231.25 495.6249 232.0784 495.6249 232.75 494.9813 232.75 494.1874 232.75 493.3935 232.0784 492.7499 231.25 492.7499 230.4216 492.7499 229.75 493.3935 229.75 494.1874Z" fill-rule="evenodd"/>
<path transform="matrix(.00007874014,0,0,.00007874014,229.75,44.37509)" stroke-width="25400" stroke-linecap="butt" stroke-linejoin="round" fill="none" stroke="#000000" d="M.004943818 18256.06C.004943818 8173.728 8528.943 .1947023 19050.01 .1947023 29571.07 .1947023 38100.01 8173.728 38100.01 18256.06 38100.01 28338.78 29571.07 36512.31 19050.01 36512.31 8528.943 36512.31 .004943818 28338.78 .004943818 18256.06Z"/>
<path transform="matrix(1,0,0,-1,0,540)" d="M282.625 494.1874C282.625 494.9813 283.2686 495.6249 284.0625 495.6249 284.8564 495.6249 285.5 494.9813 285.5 494.1874 285.5 493.3935 284.8564 492.7499 284.0625 492.7499 283.2686 492.7499 282.625 493.3935 282.625 494.1874Z" fill-rule="evenodd"/>
<path transform="matrix(.00007874014,0,0,.00007874014,282.625,44.37509)" stroke-width="25400" stroke-linecap="butt" stroke-linejoin="round" fill="none" stroke="#000000" d="M.05200195 18256.06C.05200195 8173.728 8173.585 .1947023 18255.92 .1947023 28338.64 .1947023 36512.17 8173.728 36512.17 18256.06 36512.17 28338.78 28338.64 36512.31 18255.92 36512.31 8173.585 36512.31 .05200195 28338.78 .05200195 18256.06Z"/>
<path transform="matrix(1,0,0,-1,0,540)" d="M335.5 494.1874C335.5 494.9813 336.1436 495.6249 336.9375 495.6249 337.7315 495.6249 338.3751 494.9813 338.3751 494.1874 338.3751 493.3935 337.7315 492.7499 336.9375 492.7499 336.1436 492.7499 335.5 493.3935 335.5 494.1874Z" fill-rule="evenodd"/>
<path transform="matrix(.00007874014,0,0,.00007874014,335.5,44.37509)" stroke-width="25400" stroke-linecap="butt" stroke-linejoin="round" fill="none" stroke="#000000" d="M-.2322999 18256.06C-.2322999 8173.728 8173.688 .1947023 18256.79 .1947023 28339.9 .1947023 36513.82 8173.728 36513.82 18256.06 36513.82 28338.78 28339.9 36512.31 18256.79 36512.31 8173.688 36512.31-.2322999 28338.78-.2322999 18256.06Z"/>
<path transform="matrix(1,0,0,-1,0,540)" d="M388.2499 494.1874C388.2499 494.9813 388.8936 495.6249 389.6875 495.6249 390.4814 495.6249 391.1251 494.9813 391.1251 494.1874 391.1251 493.3935 390.4814 492.7499 389.6875 492.7499 388.8936 492.7499 388.2499 493.3935 388.2499 494.1874Z" fill-rule="evenodd"/>
<path transform="matrix(.00007874014,0,0,.00007874014,388.2499,44.37509)" stroke-width="25400" stroke-linecap="butt" stroke-linejoin="round" fill="none" stroke="#000000" d="M-.01684582 18256.06C-.01684582 8173.728 8173.904 .1947023 18257.01 .1947023 28340.12 .1947023 36514.04 8173.728 36514.04 18256.06 36514.04 28338.78 28340.12 36512.31 18257.01 36512.31 8173.904 36512.31-.01684582 28338.78-.01684582 18256.06Z"/>
<path transform="matrix(1,0,0,-1,0,540)" d="M124.25 494.1874C124.25 494.9813 124.8936 495.6249 125.6875 495.6249 126.4815 495.6249 127.1251 494.9813 127.1251 494.1874 127.1251 493.3935 126.4815 492.7499 125.6875 492.7499 124.8936 492.7499 124.25 493.3935 124.25 494.1874Z" fill-rule="evenodd"/>
<path transform="matrix(.00007874014,0,0,.00007874014,124.25,44.37509)" stroke-width="25400" stroke-linecap="butt" stroke-linejoin="round" fill="none" stroke="#000000" d="M-.07611087 18256.06C-.07611087 8173.728 8173.845 .1947023 18256.95 .1947023 28339.96 .1947023 36513.88 8173.728 36513.88 18256.06 36513.88 28338.78 28339.96 36512.31 18256.95 36512.31 8173.845 36512.31-.07611087 28338.78-.07611087 18256.06Z"/>
<path transform="matrix(1,0,0,-1,0,540)" d="M440.9999 494.1874C440.9999 494.9813 441.6436 495.6249 442.4375 495.6249 443.2314 495.6249 443.8751 494.9813 443.8751 494.1874 443.8751 493.3935 443.2314 492.7499 442.4375 492.7499 441.6436 492.7499 440.9999 493.3935 440.9999 494.1874Z" fill-rule="evenodd"/>
<path transform="matrix(.00007874014,0,0,.00007874014,440.9999,44.37509)" stroke-width="25400" stroke-linecap="butt" stroke-linejoin="round" fill="none" stroke="#000000" d="M.08618152 18256.06C.08618152 8173.728 8174.007 .1947023 18257.11 .1947023 28340.22 .1947023 36514.14 8173.728 36514.14 18256.06 36514.14 28338.78 28340.22 36512.31 18257.11 36512.31 8174.007 36512.31 .08618152 28338.78 .08618152 18256.06Z"/>
<path transform="matrix(1,0,0,-1,0,540)" d="M493.875 494.1874C493.875 494.9813 494.5186 495.6249 495.3124 495.6249 496.1064 495.6249 496.7499 494.9813 496.7499 494.1874 496.7499 493.3935 496.1064 492.7499 495.3124 492.7499 494.5186 492.7499 493.875 493.3935 493.875 494.1874Z" fill-rule="evenodd"/>
<path transform="matrix(.00007874014,0,0,.00007874014,493.875,44.37509)" stroke-width="25400" stroke-linecap="butt" stroke-linejoin="round" fill="none" stroke="#000000" d="M.07702631 18256.06C.07702631 8173.728 8173.61 .1947023 18255.94 .1947023 28338.66 .1947023 36512.2 8173.728 36512.2 18256.06 36512.2 28338.78 28338.66 36512.31 18255.94 36512.31 8173.61 36512.31 .07702631 28338.78 .07702631 18256.06Z"/>
<use data-text="L" xlink:href="#font_2_12" transform="matrix(16,0,0,-16,249.95,426.15)"/>
<use data-text="1" xlink:href="#font_2_6" transform="matrix(10.66666,0,0,-10.66666,258.84846,430.15)"/>
<use data-text="&#xfffd;" xlink:href="#font_3_1" transform="matrix(16,0,0,-16,264.78074,426.15)"/>
<use data-text="U" xlink:href="#font_2_16" transform="matrix(16,0,0,-16,300.7,426.15)"/>
<use data-text="1" xlink:href="#font_2_6" transform="matrix(10.66666,0,0,-10.66666,312.2547,430.15)"/>
<use data-text="&#xfffd;" xlink:href="#font_3_1" transform="matrix(16,0,0,-16,318.18699,426.15)"/>
<use data-text="S" xlink:href="#font_2_14" transform="matrix(16,0,0,-16,354.2,426.15)"/>
<use data-text="1" xlink:href="#font_2_6" transform="matrix(10.66666,0,0,-10.66666,364.8719,430.15)"/>
<use data-text="&#xfffd;" xlink:href="#font_3_1" transform="matrix(16,0,0,-16,370.80418,426.15)"/>
<use data-text="H" xlink:href="#font_2_10" transform="matrix(16,0,0,-16,100.7,384.15)"/>
<use data-text="2" xlink:href="#font_2_7" transform="matrix(10.66666,0,0,-10.66666,112.254688,388.15)"/>
<use data-text="&#xfffd;" xlink:href="#font_3_1" transform="matrix(16,0,0,-16,118.186969,384.15)"/>
<use data-text="P" xlink:href="#font_2_13" transform="matrix(16,0,0,-16,88.94998,334.15)"/>
<use data-text="(" xlink:href="#font_2_2" transform="matrix(16,0,0,-16,99.62198,334.15)"/>
<use data-text="s" xlink:href="#font_2_30" transform="matrix(16,0,0,-16,104.94998,334.15)"/>
<use data-text=")" xlink:href="#font_2_3" transform="matrix(16,0,0,-16,112.94998,334.15)"/>
<use data-text="&#xfffd;" xlink:href="#font_3_1" transform="matrix(16,0,0,-16,118.277988,334.15)"/>
<use data-text="V" xlink:href="#font_2_17" transform="matrix(16,0,0,-16,88.94998,129.15009)"/>
<use data-text="(" xlink:href="#font_2_2" transform="matrix(16,0,0,-16,99.62198,129.15009)"/>
<use data-text="s" xlink:href="#font_2_30" transform="matrix(16,0,0,-16,104.94998,129.15009)"/>
<use data-text=")" xlink:href="#font_2_3" transform="matrix(16,0,0,-16,112.94998,129.15009)"/>
<use data-text="&#xfffd;" xlink:href="#font_3_1" transform="matrix(16,0,0,-16,118.277988,129.15009)"/>
<use data-text="T" xlink:href="#font_2_15" transform="matrix(16,0,0,-16,102.45,75.150089)"/>
<use data-text="2" xlink:href="#font_2_7" transform="matrix(10.66666,0,0,-10.66666,112.223438,79.150089)"/>
<use data-text="&#xfffd;" xlink:href="#font_3_1" transform="matrix(16,0,0,-16,118.155719,75.150089)"/>
<use data-text="L" xlink:href="#font_2_12" transform="matrix(16,0,0,-16,103.325,282.15)"/>
<use data-text="2" xlink:href="#font_2_7" transform="matrix(10.66666,0,0,-10.66666,112.223438,286.15)"/>
<use data-text="&#xfffd;" xlink:href="#font_3_1" transform="matrix(16,0,0,-16,118.155719,282.15)"/>
<use data-text="U" xlink:href="#font_2_16" transform="matrix(16,0,0,-16,100.7,233.15009)"/>
<use data-text="2" xlink:href="#font_2_7" transform="matrix(10.66666,0,0,-10.66666,112.254688,237.15009)"/>
<use data-text="&#xfffd;" xlink:href="#font_3_1" transform="matrix(16,0,0,-16,118.186969,233.15009)"/>
<use data-text="S" xlink:href="#font_2_14" transform="matrix(16,0,0,-16,101.575,180.15)"/>
<use data-text="2" xlink:href="#font_2_7" transform="matrix(10.66666,0,0,-10.66666,112.24688,184.15)"/>
<use data-text="&#xfffd;" xlink:href="#font_3_1" transform="matrix(16,0,0,-16,118.17915,180.15)"/>
<path transform="matrix(1,0,0,-1,0,540)" d="M257.5 326.25H371.4999V299.75H257.5Z" fill="#ffffff" fill-rule="evenodd"/>
<use data-text="U" xlink:href="#font_2_16" transform="matrix(16,0,0,-16,264.7,233.4)"/>
<use data-text="n" xlink:href="#font_2_27" transform="matrix(16,0,0,-16,276.25523,233.4)"/>
<use data-text="s" xlink:href="#font_2_30" transform="matrix(16,0,0,-16,285.15443,233.4)"/>
<use data-text="a" xlink:href="#font_2_18" transform="matrix(16,0,0,-16,293.15443,233.4)"/>
<use data-text="f" xlink:href="#font_2_22" transform="matrix(16,0,0,-16,302.05363,233.4)"/>
<use data-text="e" xlink:href="#font_2_21" transform="matrix(16,0,0,-16,306.4984,233.4)"/>
<use data-text=" " xlink:href="#font_2_1" transform="matrix(16,0,0,-16,315.3976,233.4)"/>
<use data-text="r" xlink:href="#font_2_29" transform="matrix(16,0,0,-16,319.8424,233.4)"/>
<use data-text="e" xlink:href="#font_2_21" transform="matrix(16,0,0,-16,325.1704,233.4)"/>
<use data-text="g" xlink:href="#font_2_23" transform="matrix(16,0,0,-16,334.0696,233.4)"/>
<use data-text="i" xlink:href="#font_2_25" transform="matrix(16,0,0,-16,342.9688,233.4)"/>
<use data-text="o" xlink:href="#font_2_28" transform="matrix(16,0,0,-16,346.52403,233.4)"/>
<use data-text="n" xlink:href="#font_2_27" transform="matrix(16,0,0,-16,355.42323,233.4)"/>
<use data-text="&#xfffd;" xlink:href="#font_3_1" transform="matrix(16,0,0,-16,364.32243,233.4)"/>
<path transform="matrix(.00007874014,0,0,.00007874014,226.5,145)" stroke-width="12700" stroke-linecap="butt" stroke-miterlimit="8" stroke-linejoin="miter" fill="none" stroke="#000000" d="M.05480951 .1160889H2108200V2057400H.05480951Z"/>
<use data-text="F" xlink:href="#font_2_9" transform="matrix(16,0,0,-16,250.45,138.40009)"/>
<use data-text="o" xlink:href="#font_2_28" transform="matrix(16,0,0,-16,260.2228,138.40009)"/>
<use data-text="r" xlink:href="#font_2_29" transform="matrix(16,0,0,-16,269.122,138.40009)"/>
<use data-text="b" xlink:href="#font_2_19" transform="matrix(16,0,0,-16,274.45,138.40009)"/>
<use data-text="i" xlink:href="#font_2_25" transform="matrix(16,0,0,-16,283.34919,138.40009)"/>
<use data-text="d" xlink:href="#font_2_20" transform="matrix(16,0,0,-16,286.9044,138.40009)"/>
<use data-text="d" xlink:href="#font_2_20" transform="matrix(16,0,0,-16,295.8036,138.40009)"/>
<use data-text="e" xlink:href="#font_2_21" transform="matrix(16,0,0,-16,304.7028,138.40009)"/>
<use data-text="n" xlink:href="#font_2_27" transform="matrix(16,0,0,-16,313.602,138.40009)"/>
<use data-text=" " xlink:href="#font_2_1" transform="matrix(16,0,0,-16,322.5012,138.40009)"/>
<use data-text="r" xlink:href="#font_2_29" transform="matrix(16,0,0,-16,326.94599,138.40009)"/>
<use data-text="e" xlink:href="#font_2_21" transform="matrix(16,0,0,-16,332.274,138.40009)"/>
<use data-text="g" xlink:href="#font_2_23" transform="matrix(16,0,0,-16,341.17323,138.40009)"/>
<use data-text="i" xlink:href="#font_2_25" transform="matrix(16,0,0,-16,350.0724,138.40009)"/>
<use data-text="o" xlink:href="#font_2_28" transform="matrix(16,0,0,-16,353.6276,138.40009)"/>
<use data-text="n" xlink:href="#font_2_27" transform="matrix(16,0,0,-16,362.5268,138.40009)"/>
<use data-text="&#xfffd;" xlink:href="#font_3_1" transform="matrix(16,0,0,-16,371.426,138.40009)"/>
<use data-text="1" xlink:href="#font_2_6" transform="matrix(12,0,0,-12,130.575,401.9875)"/>
<use data-text="&#xfffd;" xlink:href="#font_3_1" transform="matrix(12,0,0,-12,137.24939,401.9875)"/>
<use data-text="1" xlink:href="#font_2_6" transform="matrix(12,0,0,-12,187.7001,401.9875)"/>
<use data-text="&#xfffd;" xlink:href="#font_3_1" transform="matrix(12,0,0,-12,194.37451,401.9875)"/>
<use data-text="0" xlink:href="#font_2_5" transform="matrix(12,0,0,-12,241.7,401.9875)"/>
<use data-text="&#xfffd;" xlink:href="#font_3_1" transform="matrix(12,0,0,-12,248.37439,401.9875)"/>
<use data-text="0" xlink:href="#font_2_5" transform="matrix(12,0,0,-12,289.7,401.9875)"/>
<use data-text="&#xfffd;" xlink:href="#font_3_1" transform="matrix(12,0,0,-12,296.37443,401.9875)"/>
<use data-text="0" xlink:href="#font_2_5" transform="matrix(12,0,0,-12,343.7,401.9875)"/>
<use data-text="&#xfffd;" xlink:href="#font_3_1" transform="matrix(12,0,0,-12,350.37443,401.9875)"/>
<use data-text="0" xlink:href="#font_2_5" transform="matrix(12,0,0,-12,397.7,401.9875)"/>
<use data-text="&#xfffd;" xlink:href="#font_3_1" transform="matrix(12,0,0,-12,404.37443,401.9875)"/>
<use data-text="1" xlink:href="#font_2_6" transform="matrix(12,0,0,-12,451.7,401.9875)"/>
<use data-text="&#xfffd;" xlink:href="#font_3_1" transform="matrix(12,0,0,-12,458.37443,401.9875)"/>
<use data-text="1" xlink:href="#font_2_6" transform="matrix(12,0,0,-12,505.7,401.9875)"/>
<use data-text="&#xfffd;" xlink:href="#font_3_1" transform="matrix(12,0,0,-12,512.3744,401.9875)"/>
<use data-text="1" xlink:href="#font_2_6" transform="matrix(12,0,0,-12,133.45,345.6125)"/>
<use data-text="&#xfffd;" xlink:href="#font_3_1" transform="matrix(12,0,0,-12,140.12439,345.6125)"/>
<use data-text="1" xlink:href="#font_2_6" transform="matrix(12,0,0,-12,190.575,345.6125)"/>
<use data-text="&#xfffd;" xlink:href="#font_3_1" transform="matrix(12,0,0,-12,197.24939,345.6125)"/>
<use data-text="0" xlink:href="#font_2_5" transform="matrix(12,0,0,-12,244.575,345.6125)"/>
<use data-text="&#xfffd;" xlink:href="#font_3_1" transform="matrix(12,0,0,-12,251.24939,345.6125)"/>
<use data-text="0" xlink:href="#font_2_5" transform="matrix(12,0,0,-12,292.575,345.6125)"/>
<use data-text="&#xfffd;" xlink:href="#font_3_1" transform="matrix(12,0,0,-12,299.24943,345.6125)"/>
<use data-text="0" xlink:href="#font_2_5" transform="matrix(12,0,0,-12,346.575,345.6125)"/>
<use data-text="&#xfffd;" xlink:href="#font_3_1" transform="matrix(12,0,0,-12,353.24943,345.6125)"/>
<use data-text="0" xlink:href="#font_2_5" transform="matrix(12,0,0,-12,400.575,345.6125)"/>
<use data-text="&#xfffd;" xlink:href="#font_3_1" transform="matrix(12,0,0,-12,407.24943,345.6125)"/>
<use data-text="1" xlink:href="#font_2_6" transform="matrix(12,0,0,-12,454.575,345.6125)"/>
<use data-text="&#xfffd;" xlink:href="#font_3_1" transform="matrix(12,0,0,-12,461.24943,345.6125)"/>
<use data-text="1" xlink:href="#font_2_6" transform="matrix(12,0,0,-12,508.575,345.6125)"/>
<use data-text="&#xfffd;" xlink:href="#font_3_1" transform="matrix(12,0,0,-12,515.2494,345.6125)"/>
<use data-text="0" xlink:href="#font_2_5" transform="matrix(12,0,0,-12,133.45,297.6125)"/>
<use data-text="&#xfffd;" xlink:href="#font_3_1" transform="matrix(12,0,0,-12,140.12439,297.6125)"/>
<use data-text="0" xlink:href="#font_2_5" transform="matrix(12,0,0,-12,190.575,297.6125)"/>
<use data-text="&#xfffd;" xlink:href="#font_3_1" transform="matrix(12,0,0,-12,197.24939,297.6125)"/>
<use data-text="-" xlink:href="#font_2_4" transform="matrix(12,0,0,-12,242.575,293.9875)"/>
<use data-text="1" xlink:href="#font_2_6" transform="matrix(12,0,0,-12,246.571,293.9875)"/>
<use data-text="&#xfffd;" xlink:href="#font_3_1" transform="matrix(12,0,0,-12,253.24539,293.9875)"/>
<use data-text="-" xlink:href="#font_2_4" transform="matrix(12,0,0,-12,289.7,293.9875)"/>
<use data-text="1" xlink:href="#font_2_6" transform="matrix(12,0,0,-12,293.696,293.9875)"/>
<use data-text="&#xfffd;" xlink:href="#font_3_1" transform="matrix(12,0,0,-12,300.37043,293.9875)"/>
<use data-text="-" xlink:href="#font_2_4" transform="matrix(12,0,0,-12,336.575,293.9875)"/>
<use data-text="1" xlink:href="#font_2_6" transform="matrix(12,0,0,-12,340.571,293.9875)"/>
<use data-text="&#xfffd;" xlink:href="#font_3_1" transform="matrix(12,0,0,-12,347.24543,293.9875)"/>
<use data-text="-" xlink:href="#font_2_4" transform="matrix(12,0,0,-12,372.575,293.9875)"/>
<use data-text="1" xlink:href="#font_2_6" transform="matrix(12,0,0,-12,376.571,293.9875)"/>
<use data-text="&#xfffd;" xlink:href="#font_3_1" transform="matrix(12,0,0,-12,383.24543,293.9875)"/>
<use data-text="0" xlink:href="#font_2_5" transform="matrix(12,0,0,-12,454.575,297.6125)"/>
<use data-text="&#xfffd;" xlink:href="#font_3_1" transform="matrix(12,0,0,-12,461.24943,297.6125)"/>
<use data-text="0" xlink:href="#font_2_5" transform="matrix(12,0,0,-12,508.575,297.6125)"/>
<use data-text="&#xfffd;" xlink:href="#font_3_1" transform="matrix(12,0,0,-12,515.2494,297.6125)"/>
<use data-text="0" xlink:href="#font_2_5" transform="matrix(12,0,0,-12,133.7,243.61249)"/>
<use data-text="&#xfffd;" xlink:href="#font_3_1" transform="matrix(12,0,0,-12,140.37439,243.61249)"/>
<use data-text="0" xlink:href="#font_2_5" transform="matrix(12,0,0,-12,190.825,243.61249)"/>
<use data-text="&#xfffd;" xlink:href="#font_3_1" transform="matrix(12,0,0,-12,197.49939,243.61249)"/>
<use data-text="-" xlink:href="#font_2_4" transform="matrix(12,0,0,-12,242.825,255.61249)"/>
<use data-text="1" xlink:href="#font_2_6" transform="matrix(12,0,0,-12,246.821,255.61249)"/>
<use data-text="&#xfffd;" xlink:href="#font_3_1" transform="matrix(12,0,0,-12,253.49539,255.61249)"/>
<use data-text="-" xlink:href="#font_2_4" transform="matrix(12,0,0,-12,290.825,255.61249)"/>
<use data-text="1" xlink:href="#font_2_6" transform="matrix(12,0,0,-12,294.821,255.61249)"/>
<use data-text="&#xfffd;" xlink:href="#font_3_1" transform="matrix(12,0,0,-12,301.49543,255.61249)"/>
<use data-text="-" xlink:href="#font_2_4" transform="matrix(12,0,0,-12,344.825,255.61249)"/>
<use data-text="1" xlink:href="#font_2_6" transform="matrix(12,0,0,-12,348.821,255.61249)"/>
<use data-text="&#xfffd;" xlink:href="#font_3_1" transform="matrix(12,0,0,-12,355.49543,255.61249)"/>
<use data-text="-" xlink:href="#font_2_4" transform="matrix(12,0,0,-12,372.575,255.61249)"/>
<use data-text="1" xlink:href="#font_2_6" transform="matrix(12,0,0,-12,376.571,255.61249)"/>
<use data-text="&#xfffd;" xlink:href="#font_3_1" transform="matrix(12,0,0,-12,383.24543,255.61249)"/>
<use data-text="0" xlink:href="#font_2_5" transform="matrix(12,0,0,-12,454.825,243.61249)"/>
<use data-text="&#xfffd;" xlink:href="#font_3_1" transform="matrix(12,0,0,-12,461.49943,243.61249)"/>
<use data-text="0" xlink:href="#font_2_5" transform="matrix(12,0,0,-12,508.825,243.61249)"/>
<use data-text="&#xfffd;" xlink:href="#font_3_1" transform="matrix(12,0,0,-12,515.4994,243.61249)"/>
<use data-text="0" xlink:href="#font_2_5" transform="matrix(12,0,0,-12,133.7,195.61249)"/>
<use data-text="&#xfffd;" xlink:href="#font_3_1" transform="matrix(12,0,0,-12,140.37439,195.61249)"/>
<use data-text="0" xlink:href="#font_2_5" transform="matrix(12,0,0,-12,190.825,195.61249)"/>
<use data-text="&#xfffd;" xlink:href="#font_3_1" transform="matrix(12,0,0,-12,197.49939,195.61249)"/>
<use data-text="-" xlink:href="#font_2_4" transform="matrix(12,0,0,-12,239.7,203.98749)"/>
<use data-text="1" xlink:href="#font_2_6" transform="matrix(12,0,0,-12,243.696,203.98749)"/>
<use data-text="&#xfffd;" xlink:href="#font_3_1" transform="matrix(12,0,0,-12,250.37039,203.98749)"/>
<use data-text="-" xlink:href="#font_2_4" transform="matrix(12,0,0,-12,290.575,203.98749)"/>
<use data-text="1" xlink:href="#font_2_6" transform="matrix(12,0,0,-12,294.571,203.98749)"/>
<use data-text="&#xfffd;" xlink:href="#font_3_1" transform="matrix(12,0,0,-12,301.24543,203.98749)"/>
<use data-text="-" xlink:href="#font_2_4" transform="matrix(12,0,0,-12,344.575,203.98749)"/>
<use data-text="1" xlink:href="#font_2_6" transform="matrix(12,0,0,-12,348.571,203.98749)"/>
<use data-text="&#xfffd;" xlink:href="#font_3_1" transform="matrix(12,0,0,-12,355.24543,203.98749)"/>
<use data-text="-" xlink:href="#font_2_4" transform="matrix(12,0,0,-12,372.575,203.98749)"/>
<use data-text="1" xlink:href="#font_2_6" transform="matrix(12,0,0,-12,376.571,203.98749)"/>
<use data-text="&#xfffd;" xlink:href="#font_3_1" transform="matrix(12,0,0,-12,383.24543,203.98749)"/>
<use data-text="0" xlink:href="#font_2_5" transform="matrix(12,0,0,-12,454.825,195.61249)"/>
<use data-text="&#xfffd;" xlink:href="#font_3_1" transform="matrix(12,0,0,-12,461.49943,195.61249)"/>
<use data-text="0" xlink:href="#font_2_5" transform="matrix(12,0,0,-12,508.825,195.61249)"/>
<use data-text="&#xfffd;" xlink:href="#font_3_1" transform="matrix(12,0,0,-12,515.4994,195.61249)"/>
<use data-text="0" xlink:href="#font_2_5" transform="matrix(12,0,0,-12,133.45,143.98749)"/>
<use data-text="&#xfffd;" xlink:href="#font_3_1" transform="matrix(12,0,0,-12,140.12439,143.98749)"/>
<use data-text="0" xlink:href="#font_2_5" transform="matrix(12,0,0,-12,190.575,143.98749)"/>
<use data-text="&#xfffd;" xlink:href="#font_3_1" transform="matrix(12,0,0,-12,197.24939,143.98749)"/>
<use data-text="-" xlink:href="#font_2_4" transform="matrix(12,0,0,-12,240.575,165.61249)"/>
<use data-text="1" xlink:href="#font_2_6" transform="matrix(12,0,0,-12,244.571,165.61249)"/>
<use data-text="&#xfffd;" xlink:href="#font_3_1" transform="matrix(12,0,0,-12,251.24539,165.61249)"/>
<use data-text="-" xlink:href="#font_2_4" transform="matrix(12,0,0,-12,277.7,165.61249)"/>
<use data-text="1" xlink:href="#font_2_6" transform="matrix(12,0,0,-12,281.696,165.61249)"/>
<use data-text="&#xfffd;" xlink:href="#font_3_1" transform="matrix(12,0,0,-12,288.37043,165.61249)"/>
<use data-text="-" xlink:href="#font_2_4" transform="matrix(12,0,0,-12,331.7,165.61249)"/>
<use data-text="1" xlink:href="#font_2_6" transform="matrix(12,0,0,-12,335.696,165.61249)"/>
<use data-text="&#xfffd;" xlink:href="#font_3_1" transform="matrix(12,0,0,-12,342.37043,165.61249)"/>
<use data-text="-" xlink:href="#font_2_4" transform="matrix(12,0,0,-12,372.575,165.61249)"/>
<use data-text="1" xlink:href="#font_2_6" transform="matrix(12,0,0,-12,376.571,165.61249)"/>
<use data-text="&#xfffd;" xlink:href="#font_3_1" transform="matrix(12,0,0,-12,383.24543,165.61249)"/>
<use data-text="0" xlink:href="#font_2_5" transform="matrix(12,0,0,-12,454.575,143.98749)"/>
<use data-text="&#xfffd;" xlink:href="#font_3_1" transform="matrix(12,0,0,-12,461.24943,143.98749)"/>
<use data-text="0" xlink:href="#font_2_5" transform="matrix(12,0,0,-12,508.575,143.98749)"/>
<use data-text="&#xfffd;" xlink:href="#font_3_1" transform="matrix(12,0,0,-12,515.2494,143.98749)"/>
<use data-text="1" xlink:href="#font_2_6" transform="matrix(12,0,0,-12,133.45,93.61261)"/>
<use data-text="&#xfffd;" xlink:href="#font_3_1" transform="matrix(12,0,0,-12,140.12439,93.61261)"/>
<use data-text="1" xlink:href="#font_2_6" transform="matrix(12,0,0,-12,190.575,93.61261)"/>
<use data-text="&#xfffd;" xlink:href="#font_3_1" transform="matrix(12,0,0,-12,197.24939,93.61261)"/>
<use data-text="0" xlink:href="#font_2_5" transform="matrix(12,0,0,-12,244.575,93.61261)"/>
<use data-text="&#xfffd;" xlink:href="#font_3_1" transform="matrix(12,0,0,-12,251.24939,93.61261)"/>
<use data-text="0" xlink:href="#font_2_5" transform="matrix(12,0,0,-12,292.575,93.61261)"/>
<use data-text="&#xfffd;" xlink:href="#font_3_1" transform="matrix(12,0,0,-12,299.24943,93.61261)"/>
<use data-text="0" xlink:href="#font_2_5" transform="matrix(12,0,0,-12,346.575,93.61261)"/>
<use data-text="&#xfffd;" xlink:href="#font_3_1" transform="matrix(12,0,0,-12,353.24943,93.61261)"/>
<use data-text="0" xlink:href="#font_2_5" transform="matrix(12,0,0,-12,400.575,93.61261)"/>
<use data-text="&#xfffd;" xlink:href="#font_3_1" transform="matrix(12,0,0,-12,407.24943,93.61261)"/>
<use data-text="1" xlink:href="#font_2_6" transform="matrix(12,0,0,-12,454.575,93.61261)"/>
<use data-text="&#xfffd;" xlink:href="#font_3_1" transform="matrix(12,0,0,-12,461.24943,93.61261)"/>
<use data-text="1" xlink:href="#font_2_6" transform="matrix(12,0,0,-12,508.575,93.61261)"/>
<use data-text="&#xfffd;" xlink:href="#font_3_1" transform="matrix(12,0,0,-12,515.2494,93.61261)"/>
<use data-text="1" xlink:href="#font_2_6" transform="matrix(12,0,0,-12,133.45,39.612489)"/>
<use data-text="&#xfffd;" xlink:href="#font_3_1" transform="matrix(12,0,0,-12,140.12439,39.612489)"/>
<use data-text="1" xlink:href="#font_2_6" transform="matrix(12,0,0,-12,190.575,39.612489)"/>
<use data-text="&#xfffd;" xlink:href="#font_3_1" transform="matrix(12,0,0,-12,197.24939,39.612489)"/>
<use data-text="0" xlink:href="#font_2_5" transform="matrix(12,0,0,-12,244.575,39.612489)"/>
<use data-text="&#xfffd;" xlink:href="#font_3_1" transform="matrix(12,0,0,-12,251.24939,39.612489)"/>
<use data-text="0" xlink:href="#font_2_5" transform="matrix(12,0,0,-12,292.575,39.612489)"/>
<use data-text="&#xfffd;" xlink:href="#font_3_1" transform="matrix(12,0,0,-12,299.24943,39.612489)"/>
<use data-text="0" xlink:href="#font_2_5" transform="matrix(12,0,0,-12,346.575,39.612489)"/>
<use data-text="&#xfffd;" xlink:href="#font_3_1" transform="matrix(12,0,0,-12,353.24943,39.612489)"/>
<use data-text="0" xlink:href="#font_2_5" transform="matrix(12,0,0,-12,400.575,39.612489)"/>
<use data-text="&#xfffd;" xlink:href="#font_3_1" transform="matrix(12,0,0,-12,407.24943,39.612489)"/>
<use data-text="1" xlink:href="#font_2_6" transform="matrix(12,0,0,-12,454.575,39.612489)"/>
<use data-text="&#xfffd;" xlink:href="#font_3_1" transform="matrix(12,0,0,-12,461.24943,39.612489)"/>
<use data-text="1" xlink:href="#font_2_6" transform="matrix(12,0,0,-12,508.575,39.612489)"/>
<use data-text="&#xfffd;" xlink:href="#font_3_1" transform="matrix(12,0,0,-12,515.2494,39.612489)"/>
<path transform="matrix(.00007874014,0,0,.00007874014,6,361.25)" stroke-width="12700" stroke-linecap="butt" stroke-miterlimit="8" stroke-linejoin="miter" fill="none" stroke="#000000" d="M-.002149583 .09466556H815975.1V593725H-.002149583Z"/>
<use data-text="I" xlink:href="#font_2_11" transform="matrix(16,0,0,-16,13.2,381.425)"/>
<use data-text="n" xlink:href="#font_2_27" transform="matrix(16,0,0,-16,17.6448,381.425)"/>
<use data-text="i" xlink:href="#font_2_25" transform="matrix(16,0,0,-16,26.544,381.425)"/>
<use data-text="t" xlink:href="#font_2_31" transform="matrix(16,0,0,-16,30.099202,381.425)"/>
<use data-text="i" xlink:href="#font_2_25" transform="matrix(16,0,0,-16,34.544004,381.425)"/>
<use data-text="a" xlink:href="#font_2_18" transform="matrix(16,0,0,-16,38.0992,381.425)"/>
<use data-text="l" xlink:href="#font_2_26" transform="matrix(16,0,0,-16,46.998407,381.425)"/>
<use data-text="l" xlink:href="#font_2_26" transform="matrix(16,0,0,-16,50.553609,381.425)"/>
<use data-text="y" xlink:href="#font_2_32" transform="matrix(16,0,0,-16,54.10881,381.425)"/>
<use data-text="&#xfffd;" xlink:href="#font_3_1" transform="matrix(16,0,0,-16,62.10881,381.425)"/>
<use data-text="s" xlink:href="#font_2_30" transform="matrix(16,0,0,-16,20.2,400.425)"/>
<use data-text=" " xlink:href="#font_2_1" transform="matrix(16,0,0,-16,28.2,400.425)"/>
<use data-text="=" xlink:href="#font_2_8" transform="matrix(16,0,0,-16,32.644804,400.425)"/>
<use data-text=" " xlink:href="#font_2_1" transform="matrix(16,0,0,-16,41.9888,400.425)"/>
<use data-text="1" xlink:href="#font_2_6" transform="matrix(16,0,0,-16,46.4336,400.425)"/>
<use data-text="&#xfffd;" xlink:href="#font_3_1" transform="matrix(16,0,0,-16,55.3328,400.425)"/>
</g>
</g>
</svg>
