<svg xmlns="http://www.w3.org/2000/svg" xmlns:xlink="http://www.w3.org/1999/xlink" version="1.1" width="412.538pt" height="180.58301pt" viewBox="0 0 412.538 180.58301">
<defs>
<clipPath id="clip_0">
<path transform="matrix(1,0,0,-1,0,540)" d="M0 359.417H412.538V540H0Z" fill-rule="evenodd"/>
</clipPath>
<clipPath id="clip_1">
<path transform="matrix(1,0,0,-1,0,540)" d="M0 .00002324581H719.9999V540H0Z"/>
</clipPath>
<path id="font_2_4" d="M.40966798 .38867188C.45524089 .38867188 .49129234 .39778648 .51782229 .41601563 .54435226 .43424479 .5576172 .4671224 .5576172 .51464846 .5576172 .5657552 .5390625 .60058596 .5019531 .6191406 .48209635 .62890627 .4555664 .63378909 .42236329 .63378909H.1850586V.38867188H.40966798M.087890628 .71777346H.41992188C.47460938 .71777346 .51969406 .709788 .5551758 .69381716 .6225586 .6631775 .65625 .60662338 .65625 .52415469 .65625 .48112489 .6473796 .44591777 .6296387 .41853334 .61189779 .39115907 .58707687 .36916099 .5551758 .35253907 .5831706 .34114585 .60424807 .32617188 .6184082 .3076172 .63256838 .2890625 .6404622 .2589518 .64208987 .21728516L.6455078 .12109375C.6464844 .09388224 .648763 .07363383 .65234377 .06034851 .6582031 .037663778 .6686198 .023081461 .68359377 .016601563V0H.5644531C.56119796 .006184896 .55859377 .014160156 .5566406 .023925782 .5546875 .033691408 .5530599 .052571615 .5517578 .080566409L.54589846 .20019531C.5436198 .24707031 .5262044 .27848307 .49365235 .2944336 .47509767 .30322267 .44596354 .3076172 .40625 .3076172H.1850586V0H.087890628V.71777346Z"/>
<path id="font_2_9" d="M.28222657 .53515627C.31933595 .53515627 .355306 .52644857 .39013673 .5090332 .42496745 .49161784 .4514974 .4690806 .46972657 .4414215 .4873047 .41505433 .49902345 .3842977 .5048828 .3491516 .5100911 .32506309 .5126953 .28647868 .5126953 .23339844H.12939453C.13102214 .18033855 .14355469 .13777669 .16699219 .10571289 .19042969 .073649089 .22672527 .057617189 .2758789 .057617189 .32177735 .057617189 .35839845 .07261658 .3857422 .10261536 .4013672 .12003072 .4124349 .14018758 .4189453 .16308594H.5053711C.50309249 .14398194 .49552409 .122690837 .48266603 .09921265 .46980796 .07574463 .45540367 .05656433 .43945313 .041671754 .4127604 .01576233 .37972007-.0017242432 .34033204-.010787964 .3191732-.01596578 .2952474-.018554688 .2685547-.018554688 .20345052-.018554688 .14827474 .0051472985 .103027347 .05255127 .05777995 .09995524 .03515625 .16634114 .03515625 .25170899 .03515625 .33576457 .057942708 .40401713 .103515628 .45646668 .14908855 .5089264 .20865886 .53515627 .28222657 .53515627M.42236329 .30371095C.41878257 .34191896 .41048179 .37245179 .39746095 .39530946 .3733724 .4377594 .33317057 .45898438 .27685548 .45898438 .23649089 .45898438 .20263672 .44437156 .17529297 .41514588 .14794922 .3859202 .13346355 .34877525 .13183594 .30371095H.42236329M.27392579 .5361328V.5361328Z"/>
<path id="font_2_14" d="M.064453128 .5234375H.14794922V.44921876C.1726888 .47981773 .19889324 .50179037 .2265625 .5151367 .25423179 .5284831 .2849935 .53515627 .31884767 .53515627 .3930664 .53515627 .44319663 .5092519 .46923829 .45744325 .4835612 .42910258 .49072267 .38853965 .49072267 .3357544V0H.4013672V.3299408C.4013672 .36188255 .39664714 .38762919 .38720704 .4071808 .37158204 .4397634 .34326173 .4560547 .3022461 .4560547 .28141276 .4560547 .2643229 .4539388 .25097657 .44970704 .22688802 .4425354 .20572917 .42819724 .1875 .4066925 .17285156 .38941957 .16333008 .37157694 .15893555 .35316468 .15454102 .3347524 .15234375 .30844117 .15234375 .27423097V0H.064453128V.5234375M.2709961 .5361328V.5361328Z"/>
<path id="font_2_18" d="M.08203125 .66796877H.17089844V.5234375H.25439454V.4501953H.17089844V.110183719C.17089844 .09202576 .17708333 .07986959 .18945313 .07371521 .19628906 .07014465 .2076823 .068359378 .22363281 .068359378 .22786458 .068359378 .23242188 .06846619 .23730469 .06867981 .2421875 .0689036 .24788411 .06944784 .25439454 .0703125V0C.24430339-.0031026204 .23380535-.005340576 .22290039-.006713867 .21199544-.008097331 .20019531-.0087890629 .1875-.0087890629 .14648438-.0087890629 .118652347 .0016988119 .104003909 .02267456 .08935547 .04365031 .08203125 .070882167 .08203125 .10437012V.4501953H.011230469V.5234375H.08203125V.66796877Z"/>
<path id="font_2_16" d="M.06689453 .5234375H.15039063V.4326172C.15722656 .4502767 .17399089 .4717814 .2006836 .49713136 .2273763 .52248129 .25813804 .53515627 .29296876 .53515627 .29459635 .53515627 .29736329 .5349579 .30126954 .53456118 .30517579 .5341746 .31184898 .5333964 .32128907 .53222659V.43945313C.31608073 .44062297 .3112793 .44140116 .30688478 .44178773 .30249024 .44218446 .2976888 .4423828 .29248048 .4423828 .24820964 .4423828 .2141927 .4280599 .19042969 .39941407 .16666667 .37076823 .15478516 .33789063 .15478516 .30078126V0H.06689453V.5234375Z"/>
<path id="font_2_6" d="M.13183594 .1394043C.13183594 .114095058 .14111328 .09413656 .15966797 .07952881 .17822266 .06492106 .20019531 .057617189 .22558594 .057617189 .2565104 .057617189 .28645835 .06471761 .3154297 .07891846 .3642578 .10247803 .38867188 .14127605 .38867188 .1953125V.26611329C.3779297 .25886027 .36409507 .2528127 .34716798 .24797058 .33024089 .24313863 .3136393 .23983257 .29736329 .23805237L.24414063 .23184204C.21223958 .22799683 .1883138 .22153218 .17236328 .21244812 .14534505 .19718933 .13183594 .17284139 .13183594 .1394043M.34472657 .31689454C.36490885 .3194987 .37841798 .32796226 .3852539 .34228517 .38916017 .35012818 .39111329 .36140443 .39111329 .3761139 .39111329 .40618388 .38045249 .42799888 .35913087 .44155885 .33780924 .455129 .30729167 .46191407 .26757813 .46191407 .22167969 .46191407 .18912761 .44948326 .16992188 .42462159 .15917969 .4108785 .15218099 .39043174 .14892578 .36328126H.06689453C.06852213 .42791749 .08943685 .47288514 .12963867 .4981842 .1698405 .5234833 .21647136 .5361328 .26953126 .5361328 .3310547 .5361328 .38102214 .52441409 .4194336 .50097659 .45751954 .47753907 .4765625 .4410502 .4765625 .39151V.08985901C.4765625 .08073425 .47843424 .073404949 .48217774 .067871097 .48592124 .06233724 .4938151 .059570314 .5058594 .059570314 .5097656 .059570314 .51416018 .059814454 .51904299 .060302736 .5239258 .060791017 .5291341 .061523439 .53466799 .0625V-.0028076173C.5209961-.00676473 .5105794-.009236653 .50341799-.010223389 .4962565-.011220296 .48649089-.01171875 .4741211-.01171875 .44384767-.01171875 .421875-.0009104411 .40820313 .020706177 .40104167 .032170614 .3959961 .048380536 .3930664 .06933594 .37516276 .045633954 .34944663 .025060019 .31591798 .0076141359 .2823893-.009831746 .2454427-.018554688 .20507813-.018554688 .15657552-.018554688 .11694336-.0037790936 .08618164 .025772095 .055419923 .055323285 .040039064 .092300418 .040039064 .13670349 .040039064 .18535869 .05517578 .22307332 .08544922 .24984741 .115722659 .2766215 .1554362 .29311119 .20458985 .2993164L.34472657 .31689454M.27197267 .5361328V.5361328Z"/>
<path id="font_3_1" d="M0 0Z"/>
<path id="font_2_10" d="M.08642578 .6021576C.08772787 .638443 .09407552 .66500857 .10546875 .68185427 .12597656 .7116597 .16552735 .7265625 .2241211 .7265625 .22965496 .7265625 .23535156 .7263997 .24121094 .7260742 .24707031 .7257487 .2537435 .72526046 .26123048 .7246094V.64453127C.25211589 .6449687 .2455241 .6452382 .24145508 .64533999 .23738607 .64545187 .2335612 .6455078 .22998047 .6455078 .20328777 .6455078 .18733724 .6386719 .1821289 .625 .17692058 .6113281 .1743164 .5764974 .1743164 .5205078H.26123048V.45117188H.17333985V0H.08642578V.45117188H.013671875V.5205078H.08642578V.6021576Z"/>
<path id="font_2_19" d="M.15234375 .5234375V.17590332C.15234375 .1491801 .15657552 .12734477 .16503906 .11039734 .18066406 .07911682 .20979817 .06347656 .2524414 .06347656 .3136393 .06347656 .355306 .09085083 .3774414 .14559937 .3894857 .17492676 .3955078 .21516927 .3955078 .2663269V.5234375H.48339845V0H.40039063L.4013672 .0771637C.38997398 .057195028 .3758138 .040339155 .35888673 .02659607 .32535807-.00090026858 .28466798-.0146484379 .2368164-.0146484379 .16227214-.0146484379 .11149088 .010299683 .084472659 .060195924 .06982422 .08693949 .0625 .12265015 .0625 .16732788V.5234375H.15234375M.27294923 .5361328V.5361328Z"/>
<path id="font_2_7" d="M.26611329 .53808596C.32503257 .53808596 .37296549 .5237274 .4099121 .49501039 .44685874 .46629334 .46907554 .41684977 .4765625 .3466797H.39111329C.38590495 .37890626 .37402345 .40568034 .35546876 .42700196 .33691407 .44832359 .3071289 .45898438 .26611329 .45898438 .2101237 .45898438 .17008464 .43170677 .1459961 .3771515 .1303711 .34176127 .122558597 .29808555 .122558597 .24612427 .122558597 .19384766 .1336263 .14984639 .15576172 .11412048 .17789714 .07840475 .21272786 .060546876 .2602539 .060546876 .29671226 .060546876 .3256022 .0716095 .34692384 .09373474 .36824546 .115859989 .38297526 .1461385 .39111329 .18457031H.4765625C.46679688 .115234378 .4423828 .06453451 .4033203 .032470704 .3642578 .00040690104 .31429038-.015625 .25341798-.015625 .1850586-.015625 .13053386 .009379069 .08984375 .059387208 .049153646 .10940552 .028808594 .17188008 .028808594 .24681092 .028808594 .33868919 .05110677 .41020204 .095703128 .4613495 .14029949 .51250717 .19710286 .53808596 .26611329 .53808596M.2524414 .5361328V.5361328Z"/>
<path id="font_2_12" d="M.064453128 .5205078H.1538086V0H.064453128V.5205078M.064453128 .71777346H.1538086V.61816409H.064453128V.71777346Z"/>
<path id="font_2_15" d="M.27197267 .057617189C.33024089 .057617189 .37019859 .07964579 .3918457 .123703 .41349284 .16776021 .4243164 .21677144 .4243164 .2707367 .4243164 .31950379 .4165039 .35917155 .4008789 .38974 .3761393 .43785606 .3334961 .46191407 .27294923 .46191407 .21923828 .46191407 .18017578 .44143168 .15576172 .40046693 .13134766 .35950218 .119140628 .31008403 .119140628 .25221253 .119140628 .1966095 .13134766 .15027364 .15576172 .113204959 .18017578 .076146449 .21891277 .057617189 .27197267 .057617189M.27539063 .53808596C.34277345 .53808596 .3997396 .5156453 .44628907 .47076417 .49283854 .42588298 .5161133 .35985819 .5161133 .27268983 .5161133 .1884613 .49560548 .11886088 .45458985 .06388855 .41357423 .008926392 .3499349-.018554688 .26367188-.018554688 .19173177-.018554688 .13460286 .00575765 .092285159 .054382326 .04996745 .103006999 .028808594 .16829936 .028808594 .2502594 .028808594 .33806864 .05110677 .4079895 .095703128 .46002198 .14029949 .51206466 .20019531 .53808596 .27539063 .53808596M.27246095 .5361328V.5361328Z"/>
<path id="font_2_17" d="M.11669922 .1640625C.11930338 .13463338 .12662761 .11207072 .13867188 .09637451 .1608073 .06793213 .19921875 .053710939 .25390626 .053710939 .28645835 .053710939 .31510417 .060806276 .33984376 .07499695 .36458335 .08919779 .37695313 .11115011 .37695313 .14085388 .37695313 .16337586 .36702476 .18051148 .34716798 .19226074 .33447267 .19944255 .30940757 .20775859 .27197267 .21720886L.20214844 .2348175C.15755208 .24590557 .12467448 .25829569 .103515628 .27198792 .06575521 .29579164 .046875 .32873027 .046875 .37080384 .046875 .42036439 .064697269 .46046958 .1003418 .49111939 .13598633 .52177938 .18391927 .5371094 .24414063 .5371094 .32291667 .5371094 .37972007 .5139974 .41455079 .46777345 .4363607 .43847657 .4469401 .40690104 .44628907 .37304688H.36328126C.36165367 .39269004 .35465495 .41055808 .34228517 .426651 .32210288 .44950868 .28710938 .4609375 .23730469 .4609375 .20410156 .4609375 .17895508 .45461528 .16186524 .44197084 .14477539 .42933656 .13623047 .41264854 .13623047 .39190675 .13623047 .36922203 .14746094 .35107423 .16992188 .33746339 .1829427 .32936607 .20214844 .32221986 .22753906 .31602479L.28564454 .3018341C.34879557 .28650413 .39111329 .27166749 .41259767 .25732423 .44677735 .23482259 .4638672 .19944255 .4638672 .15118408 .4638672 .10455322 .44620768 .06428019 .41088868 .03036499 .37556968-.0035502117 .32177735-.020507813 .24951172-.020507813 .17171224-.020507813 .116617839-.002802531 .084228519 .032608034 .05183919 .06801859 .034505208 .111836757 .032226564 .1640625H.11669922M.24658203 .5361328V.5361328Z"/>
<path id="font_2_3" d="M.44433595 .2939453 .33544923 .61120608 .21972656 .2939453H.44433595M.28466798 .71777346H.39453126L.65478518 0H.54833987L.47558595 .21484375H.19189453L.11425781 0H.0146484379L.28466798 .71777346M.33496095 .71777346V.71777346Z"/>
<path id="font_2_13" d="M.06689453 .71777346H.15478516V0H.06689453V.71777346Z"/>
<path id="font_2_1" d="M0 0Z"/>
<path id="font_2_5" d="M.59814456 .71777346V.63183596H.3564453V0H.2578125V.63183596H.016113282V.71777346H.59814456Z"/>
<path id="font_2_11" d="M.064453128 .71875H.15234375V.45214845C.17317708 .4786682 .19189453 .4973297 .2084961 .50813296 .2368164 .5267995 .2721354 .5361328 .31445313 .5361328 .39029948 .5361328 .44173179 .50957748 .46875 .45646668 .48339845 .42747499 .49072267 .38723756 .49072267 .3357544V0H.40039063V.32958985C.40039063 .3680013 .3955078 .39615885 .3857422 .4140625 .36979167 .44270835 .33984376 .45703126 .29589845 .45703126 .2594401 .45703126 .22639974 .4444987 .19677735 .4194336 .16715496 .3943685 .15234375 .34700523 .15234375 .27734376V0H.064453128V.71875Z"/>
<path id="font_2_8" d="M.12011719 .2553711C.12011719 .19923909 .1319987 .15224712 .15576172 .11439514 .17952474 .076543178 .21761067 .057617189 .27001954 .057617189 .31070964 .057617189 .3441569 .075154628 .37036134 .11022949 .39656578 .14531453 .40966798 .19565328 .40966798 .26124574 .40966798 .32748924 .39615885 .37651573 .36914063 .4083252 .3421224 .44014488 .3087565 .4560547 .26904298 .4560547 .22477214 .4560547 .18888347 .4390869 .16137696 .40515138 .13387044 .37121583 .12011719 .32128907 .12011719 .2553711M.2524414 .53222659C.29248048 .53222659 .32600913 .52381899 .35302735 .5070038 .36865235 .4972992 .38639323 .48031617 .40625 .4560547V.71875H.49072267V0H.4116211V.07229614C.39111329 .04023234 .36686198 .017074585 .3388672 .002822876 .3108724-.011428833 .2788086-.018554688 .24267578-.018554688 .18440755-.018554688 .13395183 .0059407555 .091308597 .05493164 .048665365 .10392252 .02734375 .16910808 .02734375 .25048829 .02734375 .32666017 .04679362 .39265953 .08569336 .44848634 .1245931 .5043132 .18017578 .53222659 .2524414 .53222659Z"/>
<path id="font_2_2" d="M.041503908 .32421876H.2866211V.23339844H.041503908V.32421876Z"/>
</defs>
<g clip-path="url(#clip_0)">
<g clip-path="url(#clip_1)">
<path transform="matrix(1,0,0,-1,0,540)" d="M0 539.9999H719.9999V.00003079383H0Z" fill="#ffffff" fill-rule="evenodd"/>
<path transform="matrix(.00007874014,0,0,.00007874014,41.99999,66.00009)" stroke-width="12700" stroke-linecap="butt" stroke-linejoin="round" fill="none" stroke="#000000" d="M-.01486208 571499.9C-.01486208 255869.2 341159.1-.1506346 762000-.1506346 1182841-.1506346 1524000 255869.2 1524000 571499.9 1524000 887130.8 1182841 1143000 762000 1143000 341159.1 1143000-.01486208 887130.8-.01486208 571499.9Z"/>
<use data-text="R" xlink:href="#font_2_4" transform="matrix(16,0,0,-16,66.77361,107.79999)"/>
<use data-text="e" xlink:href="#font_2_9" transform="matrix(16,0,0,-16,78.32881,107.79999)"/>
<use data-text="e" xlink:href="#font_2_9" transform="matrix(16,0,0,-16,87.22801,107.79999)"/>
<use data-text="n" xlink:href="#font_2_14" transform="matrix(16,0,0,-16,96.12721,107.79999)"/>
<use data-text="t" xlink:href="#font_2_18" transform="matrix(16,0,0,-16,105.02641,107.79999)"/>
<use data-text="r" xlink:href="#font_2_16" transform="matrix(16,0,0,-16,109.47122,107.79999)"/>
<use data-text="a" xlink:href="#font_2_6" transform="matrix(16,0,0,-16,114.79922,107.79999)"/>
<use data-text="n" xlink:href="#font_2_14" transform="matrix(16,0,0,-16,123.69842,107.79999)"/>
<use data-text="t" xlink:href="#font_2_18" transform="matrix(16,0,0,-16,132.59763,107.79999)"/>
<use data-text="&#xfffd;" xlink:href="#font_3_1" transform="matrix(16,0,0,-16,137.04242,107.79999)"/>
<use data-text="f" xlink:href="#font_2_10" transform="matrix(16,0,0,-16,69.77361,126.79999)"/>
<use data-text="u" xlink:href="#font_2_19" transform="matrix(16,0,0,-16,74.218418,126.79999)"/>
<use data-text="n" xlink:href="#font_2_14" transform="matrix(16,0,0,-16,83.117618,126.79999)"/>
<use data-text="c" xlink:href="#font_2_7" transform="matrix(16,0,0,-16,92.016819,126.79999)"/>
<use data-text="t" xlink:href="#font_2_18" transform="matrix(16,0,0,-16,100.016819,126.79999)"/>
<use data-text="i" xlink:href="#font_2_12" transform="matrix(16,0,0,-16,104.46162,126.79999)"/>
<use data-text="o" xlink:href="#font_2_15" transform="matrix(16,0,0,-16,108.016819,126.79999)"/>
<use data-text="n" xlink:href="#font_2_14" transform="matrix(16,0,0,-16,116.916019,126.79999)"/>
<use data-text="s" xlink:href="#font_2_17" transform="matrix(16,0,0,-16,125.815219,126.79999)"/>
<use data-text="&#xfffd;" xlink:href="#font_3_1" transform="matrix(16,0,0,-16,133.81522,126.79999)"/>
<use data-text="A" xlink:href="#font_2_3" transform="matrix(16,0,0,-16,7.199999,13.650085)"/>
<use data-text="l" xlink:href="#font_2_13" transform="matrix(16,0,0,-16,17.872,13.650085)"/>
<use data-text="l" xlink:href="#font_2_13" transform="matrix(16,0,0,-16,21.4272,13.650085)"/>
<use data-text=" " xlink:href="#font_2_1" transform="matrix(16,0,0,-16,24.9824,13.650085)"/>
<use data-text="f" xlink:href="#font_2_10" transform="matrix(16,0,0,-16,29.4272,13.650085)"/>
<use data-text="u" xlink:href="#font_2_19" transform="matrix(16,0,0,-16,33.872,13.650085)"/>
<use data-text="n" xlink:href="#font_2_14" transform="matrix(16,0,0,-16,42.771203,13.650085)"/>
<use data-text="c" xlink:href="#font_2_7" transform="matrix(16,0,0,-16,51.670404,13.650085)"/>
<use data-text="t" xlink:href="#font_2_18" transform="matrix(16,0,0,-16,59.670404,13.650085)"/>
<use data-text="i" xlink:href="#font_2_12" transform="matrix(16,0,0,-16,64.115207,13.650085)"/>
<use data-text="o" xlink:href="#font_2_15" transform="matrix(16,0,0,-16,67.6704,13.650085)"/>
<use data-text="n" xlink:href="#font_2_14" transform="matrix(16,0,0,-16,76.5696,13.650085)"/>
<use data-text="s" xlink:href="#font_2_17" transform="matrix(16,0,0,-16,85.4688,13.650085)"/>
<use data-text="&#xfffd;" xlink:href="#font_3_1" transform="matrix(16,0,0,-16,93.4688,13.650085)"/>
<path transform="matrix(.00007874014,0,0,.00007874014,6,18.000123)" stroke-width="12700" stroke-linecap="butt" stroke-miterlimit="8" stroke-linejoin="miter" fill="none" stroke="#000000" d="M-.002149583 .2556154H2514600V1905000H-.002149583Z"/>
<path transform="matrix(.00007874014,0,0,.00007874014,204,18.000123)" stroke-width="12700" stroke-linecap="butt" stroke-miterlimit="8" stroke-linejoin="miter" fill="none" stroke="#000000" d="M.0108642 .2556154H2514600V1905000H.0108642Z"/>
<use data-text="T" xlink:href="#font_2_5" transform="matrix(16,0,0,-16,253.2,85.67499)"/>
<use data-text="h" xlink:href="#font_2_11" transform="matrix(16,0,0,-16,262.9728,85.67499)"/>
<use data-text="r" xlink:href="#font_2_16" transform="matrix(16,0,0,-16,271.872,85.67499)"/>
<use data-text="e" xlink:href="#font_2_9" transform="matrix(16,0,0,-16,277.2,85.67499)"/>
<use data-text="a" xlink:href="#font_2_6" transform="matrix(16,0,0,-16,286.09919,85.67499)"/>
<use data-text="d" xlink:href="#font_2_8" transform="matrix(16,0,0,-16,294.9984,85.67499)"/>
<use data-text="-" xlink:href="#font_2_2" transform="matrix(16,0,0,-16,303.89759,85.67499)"/>
<use data-text="u" xlink:href="#font_2_19" transform="matrix(16,0,0,-16,309.2256,85.67499)"/>
<use data-text="n" xlink:href="#font_2_14" transform="matrix(16,0,0,-16,318.1248,85.67499)"/>
<use data-text="s" xlink:href="#font_2_17" transform="matrix(16,0,0,-16,327.024,85.67499)"/>
<use data-text="a" xlink:href="#font_2_6" transform="matrix(16,0,0,-16,335.024,85.67499)"/>
<use data-text="f" xlink:href="#font_2_10" transform="matrix(16,0,0,-16,343.9232,85.67499)"/>
<use data-text="e" xlink:href="#font_2_9" transform="matrix(16,0,0,-16,348.36799,85.67499)"/>
<use data-text="&#xfffd;" xlink:href="#font_3_1" transform="matrix(16,0,0,-16,357.2672,85.67499)"/>
<use data-text="f" xlink:href="#font_2_10" transform="matrix(16,0,0,-16,273.2,104.67499)"/>
<use data-text="u" xlink:href="#font_2_19" transform="matrix(16,0,0,-16,277.6448,104.67499)"/>
<use data-text="n" xlink:href="#font_2_14" transform="matrix(16,0,0,-16,286.544,104.67499)"/>
<use data-text="c" xlink:href="#font_2_7" transform="matrix(16,0,0,-16,295.4432,104.67499)"/>
<use data-text="t" xlink:href="#font_2_18" transform="matrix(16,0,0,-16,303.4432,104.67499)"/>
<use data-text="i" xlink:href="#font_2_12" transform="matrix(16,0,0,-16,307.888,104.67499)"/>
<use data-text="o" xlink:href="#font_2_15" transform="matrix(16,0,0,-16,311.4432,104.67499)"/>
<use data-text="n" xlink:href="#font_2_14" transform="matrix(16,0,0,-16,320.3424,104.67499)"/>
<use data-text="s" xlink:href="#font_2_17" transform="matrix(16,0,0,-16,329.2416,104.67499)"/>
<use data-text="&#xfffd;" xlink:href="#font_3_1" transform="matrix(16,0,0,-16,337.24165,104.67499)"/>
<use data-text="T" xlink:href="#font_2_5" transform="matrix(16,0,0,-16,58.19999,37.674989)"/>
<use data-text="h" xlink:href="#font_2_11" transform="matrix(16,0,0,-16,67.97279,37.674989)"/>
<use data-text="r" xlink:href="#font_2_16" transform="matrix(16,0,0,-16,76.871997,37.674989)"/>
<use data-text="e" xlink:href="#font_2_9" transform="matrix(16,0,0,-16,82.19999,37.674989)"/>
<use data-text="a" xlink:href="#font_2_6" transform="matrix(16,0,0,-16,91.09919,37.674989)"/>
<use data-text="d" xlink:href="#font_2_8" transform="matrix(16,0,0,-16,99.99839,37.674989)"/>
<use data-text="-" xlink:href="#font_2_2" transform="matrix(16,0,0,-16,108.89759,37.674989)"/>
<use data-text="s" xlink:href="#font_2_17" transform="matrix(16,0,0,-16,114.225589,37.674989)"/>
<use data-text="a" xlink:href="#font_2_6" transform="matrix(16,0,0,-16,122.22559,37.674989)"/>
<use data-text="f" xlink:href="#font_2_10" transform="matrix(16,0,0,-16,131.12479,37.674989)"/>
<use data-text="e" xlink:href="#font_2_9" transform="matrix(16,0,0,-16,135.5696,37.674989)"/>
<use data-text="&#xfffd;" xlink:href="#font_3_1" transform="matrix(16,0,0,-16,144.4688,37.674989)"/>
<use data-text="f" xlink:href="#font_2_10" transform="matrix(16,0,0,-16,69.19999,56.674989)"/>
<use data-text="u" xlink:href="#font_2_19" transform="matrix(16,0,0,-16,73.64479,56.674989)"/>
<use data-text="n" xlink:href="#font_2_14" transform="matrix(16,0,0,-16,82.54399,56.674989)"/>
<use data-text="c" xlink:href="#font_2_7" transform="matrix(16,0,0,-16,91.44319,56.674989)"/>
<use data-text="t" xlink:href="#font_2_18" transform="matrix(16,0,0,-16,99.44319,56.674989)"/>
<use data-text="i" xlink:href="#font_2_12" transform="matrix(16,0,0,-16,103.88799,56.674989)"/>
<use data-text="o" xlink:href="#font_2_15" transform="matrix(16,0,0,-16,107.44319,56.674989)"/>
<use data-text="n" xlink:href="#font_2_14" transform="matrix(16,0,0,-16,116.34239,56.674989)"/>
<use data-text="s" xlink:href="#font_2_17" transform="matrix(16,0,0,-16,125.24159,56.674989)"/>
<use data-text="&#xfffd;" xlink:href="#font_3_1" transform="matrix(16,0,0,-16,133.24161,56.674989)"/>
</g>
</g>
</svg>
